<?xml version="1.0" encoding="UTF-8"?>
<svg width="1587" height="1587" version="1.0" viewBox="0 0 1190.2 1190.2" xmlns="http://www.w3.org/2000/svg" zoomAndPan="magnify">
 <defs>
  <clipPath id="b">
   <path d="m0 0h1189.5v1189.5h-1189.5z"/>
  </clipPath>
  <clipPath id="c">
   <path d="m397 337.21h173v533.66h-173z"/>
  </clipPath>
  <clipPath id="a">
   <path d="m1145 468h23.453v11h-23.453z"/>
  </clipPath>
 </defs>
 <g clip-path="url(#b)" fill="#fff">
  <path d="m0 0h1189.5v1189.5h-1189.5z"/>
  <path d="m0 0h1189.5v1189.5h-1189.5z"/>
 </g>
 <g clip-path="url(#c)">
  <path d="m527.71 451.25c0.31641-0.31641 0-0.78906-0.20703-1.207-0.16016-0.47266-0.73828-1.0508-0.26562-1.418 1.7344-1.3164 1.6836-3.5195 2.6289-5.043 2.6797-4.2031 2.3672-9.5078 5.4141-13.5 0.26172-0.31641 0.42188-0.84375 0.36719-1.2109-0.83984-4.043 4.2578-5.7773 3.7305-9.6641 0-0.10547 0.42188-0.26172 0.57813-0.47266 0.89453-0.94531 1.5781-1.9961 2.2617-3.1016 2.6289-4.2539 3.9414-9.0859 6.7266-13.34 1.5781-2.418 3.8906-4.4141 5.0469-7.1445 1.0508-2.5234 2.6289-4.8359 3.5195-7.3555 1.1055-3.1523 2.1055-6.3047 3.7344-9.2969 1.6289-3.0469 3.207-6.1484 4.3086-9.4062 1.2109-3.5703 2.0508-7.2461 3.1523-10.82 0.37109-1.1016 0.47656-1.9961 0.37109-3.2031-0.21094-2.1562 0-4.0977-1.2617-6.25-0.63281-1.0508-0.78906-2.207-2.0508-2.207-1.5234 0-2.8398-0.57812-4.2578-0.89453-0.52344-0.15625-0.89453-0.47266-1.4727-0.10547-4.4648 2.6289-7.5156 6.5664-9.0898 11.398-0.63281 2.0508-1 4.2031-2.3125 5.9883-0.26562 0.37109-0.57812 0.84375-0.47656 1.2109 0.52734 2.2578-1.0508 3.4648-2.3125 4.7812-0.36719 0.36719-0.52344 0.67969-0.52344 1.2578-0.10547 2.0508-0.78906 3.8359-2.4727 5.2031-1.5742 1.3633-2.0469 3.0977-1.7344 5.1484 0.16016 0.99609 0.63281 2.2578-0.57813 2.8359-1.5742 0.73438-1.4688 2.0469-1.3125 3.3086 0.31641 2.1523-0.42187 3.9414-1.8398 5.4648-0.78906 0.83984-1.3125 1.8359-1.6289 2.9414-1.418 5.043-2.7852 10.137-6.6211 14.078-0.31641 0.3125-0.37109 0.94531-0.37109 1.4688 0 1.1055-0.47266 1.9453-1.2578 2.7344-1.8398 1.8906-2.9453 4.3594-4.4688 6.5117-1.2617 1.7852-2.1562 3.8867-3.6289 5.6211-1.3633 1.5742-2.4688 3.1523-4.8867 3.9414-2.6289 0.83984-3.207 4.043-3.207 7.2461-1.6797-1.5742-2.418-0.99609-3.3633 0.42188-0.62891 1-1.1562 2.1016-1.7344 3.0977-1.5234 2.7344-4.5703 3.4688-6.6758 5.5703-3.5195 3.5195-7.043 7.25-11.719 9.7188-3.9414 2.0469-6.9375 5.7266-10.984 7.8789-2.3125 1.207-4.0469 3.5195-7.0977 2.9961-0.62891-0.10547-1.6797-0.16016-2.1523 0.62891-1.1055 1.9414-2.1562 0.52344-2.8906-0.15625-3.1016-2.7852-3.1562-5.7266-2.2109-9.8242 0.57812-2.5234 3.3125-4.5703 1.8398-7.5664-0.26172-0.52344 0.42188-0.89062 0.84375-1.207 1.6797-1.1016 2.2578-2.8359 2.3633-4.7266 0.10547-2.2617 0.68359-4.3086 2.418-5.832 0.94531-0.78906 1.2617-1.8398 1.5781-2.9414 1.2617-4.0469 3.9922-7.3008 5.9922-10.98 0.26172-0.47266 0.52344-0.94531 1.1016-0.94531 1.4727 0.054687 1.6289-1.1016 1.9453-2.0469 0.83984-2.4688 1.207-5.2031 2.5234-7.3555 2.207-3.7305 3.8359-7.9844 7.5664-10.77 0.68359-0.47266 1-1.4688 0.94922-2.3633-0.10547-1 0.36719-1.8398 0.68359-2.7305 0.050781-1 0-2.0508 0.67969-2.6289-0.57812 0.57812-0.57812 1.6289-0.62891 2.5742 1.9961 0.63281 2.9961 0.21094 2.1016-2.1016-0.10547-0.3125-0.050781-0.67969-0.050781-0.99609h-0.054687c1.0508-2.5742 3.1562-4.4141 4.7305-6.6211 1.7344-2.4141 2.9961-5.25 4.6797-7.8242 1.5234-2.418 2.6797-5.2539 4.5195-7.5117 1.6836-2.1016 2.8398-4.5195 4.8359-6.4102 2.3633-2.207 3.1016-5.6211 5.2539-7.9844 3.7852-4.1523 7.3086-8.3516 10.25-13.188 1.7891-2.8867 1.5781-5.043 0.52734-7.668h-4.1523c-1.2109 0-2.4727 0-3.6797-0.050781 0 0.36719 0.050781 0.73437 0.10547 1.1016h-0.054687c-0.050781 0.15625-0.10547 0.26172-0.15625 0.42188-0.83984 0.26172-1.3125 0.78516-1.3672 1.6797h-0.050781c-0.68359 0.41797-1.4219 0.83984-2.1055 1.2617v0.050781c-0.050781 0.054688-0.10156 0.054688-0.20703 0.10547h0.20703v-0.050781c0 0.62891 0.054688 1.207 0.10547 1.8359-0.99609 0.26172-2.1523 1.1055-2.418 1.5781-0.94531 1.7305-3.0469 2.8867-2.7852 5.1992 0 0-0.050781 0-0.050781 0.050781 0.050781 0.37109 0.050781 0.78906 0.050781 1.2109h0.47266-0.41797c0.050782 0 0.10547 0.050781 0.21094 0.050781h-0.21094v0.52734c-0.21094 0.20703-0.36719 0.36719-0.52734 0.57812 0.31641 0.050781 0.52734-0.054688 0.52734-0.31641-0.054687 0.26172-0.21094 0.31641-0.52734 0.31641-0.21094 0.20703-0.47266 0.41797-0.68359 0.62891-1.0508-0.26172-2.2578-0.62891-2.6797 0.73438-0.47266 1.7344-1.9453 2.2578-3.207 3.1016-0.68359 0.26172-0.99609 0.83984-1.1016 1.5234 1.1016 0.78516 0.15625 1.1562-0.36719 1.5742-0.054687 0.15625-0.054687 0.36719-0.10547 0.52734-1.0508 0.47266-2.207 0.83984-2.3672 2.2031l-0.15625 0.10547c-1.7344 0.52734-2 1.9961-2.207 3.4688-0.10547 0.15625-0.21094 0.31641-0.31641 0.47266 0.26172 0.10547 0.52344 0.15625 0.57813 0.15625-0.21094-0.050782-0.36719-0.10547-0.57813-0.21094-1.2109 2.207-2.207 4.5703-4.4688 6.043-0.62891 0.42188-0.10547 0.78906 0.26563 1.1016 0 0.054687-0.054688 0.054687-0.054688 0.10547-0.26172 0.73828-0.36719 1.8398-0.83984 2.1016-2.8398 1.3672-4.1016 4.3594-5.3086 6.6211-2.2617 4.3594-6.832 7.5625-6.9375 13.027 0 0.99609-1 1.3633-1.5781 1.9961-0.050782 0.10547-0.050782 0.26172-0.10547 0.36719-0.68359 0.15625-1.5234 0-1.7344 1.207-0.26172 1.8906-1 3.6797-1.5234 5.4648 0.15625 0.36719 0.31641 0.62891 0.47266 0.73438-0.31641 0.10547-0.57812-0.10547-0.83984-0.83984-1.2109 0.050781-1.6289 0.89062-1.9453 1.8398 0.47266 0.20703 1.207 0.15625 1.6797 0.36719-0.41797-0.10547-0.94531-0.10547-1.3125-0.26562-1 0.68359 0.10547 1.8945-0.68359 2.6289-0.15625 0-0.31641-0.054687-0.41797-0.054687-0.10547 0.10547-0.10547 0.26562-0.10547 0.37109-0.054687 0.15625-0.054687 0.36719-0.054687 0.57422-0.78906 0.89453-1.3125 1.9453-1.6289 3.1016-0.10547 0.050781-0.26172 0.10547-0.42188 0.10547-0.10156 0-0.20703 0.050782-0.3125 0.15625v0.15625c-0.36719 0.10547-0.63281 0.37109-0.73828 0.84375-0.10547 0-0.21094 0.050782-0.36719 0.050782-0.15625 0.15625-0.36719 0.36719-0.52344 0.52734 0.050781 0.10156 0.10156 0.15625 0.10156 0.26172-1.9414 1.207-3.0977 2.7305-2.1016 5.1484 0.21094 0.57812 0 0.73438-0.47266 0.94531-0.62891 0.3125-1.5742 0.57812-1.7344 1.0508-0.89453 2.9414-2.2578 5.4102-4.6758 7.457-0.63281 0.52734-1.1055 2.5742-1.3672 3.7852-0.68359 3.0977-2.9961 5.5664-3.4688 8.668-0.16016 0.15625-0.31641 0.36719-0.42188 0.52344-0.68359 2.8906-2.5234 5.5156-2.7344 8.5117-0.10156 2.0469 1.3672 4.0938-0.67969 6.0938-1.7344 1.6797-1.0547 4.2539-1.4727 6.3555-0.57812 2.9414 0.41797 5.1992 1.7344 6.9336 1.0508 1.418 1.3672 3.5703 3.9414 4.3086 3.5742 1.0508 6.5703 3.0469 10.723 1.7852 2.9414-0.89453 6.6211 0.94531 9.1953-2.1016 0.16016-0.21094 0.63281-0.21094 0.94922-0.31641 2.9414-0.89062 5.7812-1.7852 8.25-3.7305 2.1016-1.625 3.4688-3.7266 6.6758-4.5703 3.6797-0.99609 5.9922-5.5664 9.0391-8.4023 1.8945-1.7344 4.1523-2.6797 5.9922-4.2578 1.3672-1.207 2.7852-1.9414 3.418-3.832 0.62891-1.7852 3.9414-3.3086 5.6211-2.7852-0.89062 1.3125-0.67969 1.3125-0.41797 3.0977 0.15625 1.1055 1.3125 1.9961 0.68359 3.1523-2.2617 4.3086-5.5195 8.1445-6.0977 13.293-0.31641 2.9922-2.207 5.6211-2.6797 8.6133 0.10547 0 0.21094 0.054687 0.26172 0.10547-0.78906 1.9453-3.1016 3.5703-1.5781 6.043-0.050781 0.050782-0.15625 0.10156-0.20703 0.15625 0.47266 2.7852-2.7344 4.3086-2.3672 7.0391 0 0.10547-0.21094 0.36719-0.36719 0.36719-1.5781 0.21094-1.418 1.6289-1.9453 2.6797-1.5234 3.0469-1.7852 6.5664-3.418 9.6641-0.73438 1.3672-1.7852 3.207-1.418 5.3086 0.42188 2.3086 1.3672 5.043-1.5781 6.7227-0.52344 0.31641-0.52344 1.0508-0.57812 1.6797-0.62891 5.2539-2.4688 10.035-4.3086 14.918-1.1016 2.9453-2.2578 6.0938-2.5234 9.0898-0.26172 2.7852-1.6289 4.9922-1.9961 7.5117-0.31641 2.0508-2.3633 3.3633-2.3125 5.4648 0.050781 1.7305-0.15625 3.4141-0.63281 5.043-1.2578 4.3594-2.7305 8.6133-3.8359 12.973-0.94531 3.7852-1.8906 7.6172-2.8359 11.398-0.78906 3.0469-2.5781 5.9922-2.5234 9.1953 0.050781 1.9961 0 3.7305-1 5.5156-0.31641 0.62891-0.52344 1.3672-0.83984 2.0469-1.2109 2.5742-2.7344 5.2539-2.9961 7.9844-0.26172 2.1016-0.15625 4.2578-0.94531 6.2539-0.52734 1.3633-0.57812 2.6797-0.31641 4.0977 0.050781 0.47266 0.52734 0.99609 0.10547 1.4688-2.9453 3.2578-2.8906 7.7773-4.9922 11.297-0.94922 1.625 0.050781 3.5703-1.1562 4.9883-0.89453 1.0508-0.94922 2.0508-0.42188 3.3633 0.68359 1.7344 0.57812 1.7852-1.418 2.2578-0.21094 0.054688-0.57812 0.31641-0.57812 0.42188 0.3125 3.3086-2.9453 5.6211-2.418 9.1406 0.31641 1.9961-0.31641 4.1992-1.4727 5.9883-1.1055 1.6797-1.8398 3.6758-1.9453 5.4609-0.26172 4.625-2.418 8.8789-2.2578 13.555 0.050781 0.47266-0.26562 1.1016-0.63281 1.3633-1.207 0.89453-1.5234 2.3125-2.1523 3.5195-1 1.8398-0.89453 3.8359-1.3672 5.7266-0.78906 3.0469-1.4219 6.1992-2.7852 8.9297-0.78906 1.5781 0.78516 2.9453-0.47656 4.1523v0.050781c-1.1562 0.10547-1.5234 0.78906-0.99609 1.8906 0.52344 1.1562 0.10547 2.1016-0.16016 3.1016-0.10156 0.050782-0.26172 0.050782-0.36719 0.050782-0.78906 0.47266-1.3125 1.2109-1.4688 2.0508-0.21094 1.1562 0.050781 2.4141-0.26562 3.5703-0.68359 2.418-2.207 4.7812-2.3125 7.25-0.26172 4.9922-3.0469 9.2461-3.5742 14.289-0.47266 4.8867-2.8359 9.6133-4.3086 14.445-0.47266 1.5781-0.68359 3.2578-1.3125 4.7812-0.37109 0.94531-0.68359 1.7344-0.16016 2.6797 0.63281 1.1016 0 2.1016-0.52344 2.9414-2.4727 4.043-2.3672 8.9297-4.7305 13.078-2 3.5195-0.78906 8.0391-2.8906 11.664-0.73828 1.2617-0.16016 2.6797-0.78906 4.043-2.9961 6.5664-4.3125 13.605-5.9414 20.539-0.52344 2.2617-1.3633 4.4141-1.6289 6.7773-0.31641 2.3633-1.5234 4.6758-2.5234 6.9336-1.4688 3.3125-0.050782 7.25-2.418 10.352-0.62891 0.78516-0.99609 1.8359-1.3633 2.7812-0.10547 0.31641-0.73828 0.89453 0.3125 1.1055 2.3672 0.47266 1.5273 1.6289 0.37109 2.5742-0.73828 0.62891-1.6328 1.1016-1.8398 2.1016-0.89453 4.5703-3.207 8.7188-3.6797 13.445-0.31641 3.4141-1.4727 6.7266-3.1562 9.7734-0.26172 0.41797-0.36719 1.0508-0.20703 1.4688 1.1016 2.9961 1.418 6.4609 3.9922 8.8242h1.0508c1.5234-3.832 5.0977-6.3555 6.3086-10.609 1.1562-4.1484 2.5234-8.3516 3.8359-12.504 0.31641-1.6289-1.5234-3.8867 1.3672-4.7773 0.83984-3.207 3.7852-5.9375 2.1016-9.7188-0.10547-0.21094 0.36719-0.57812 0.42188-0.89453 0.47266-2.2578 1.6797-4.1484 2.6289-6.1445 0.62891-1.3672-0.68359-3.1523 0.62891-4.2031 1.7344-1.4727 1.7891-3.3633 1.5781-5.1484-0.21094-2.1523 0.68359-4.0469 0.99609-6.043 0.21094-1.3633 1.6836-1.9961 1.6836-3.6758-0.054687-3.5703 2.207-6.6172 2.7852-10.137 0.57812-3.3633 2.6289-6.4102 2.418-10.035-0.050781-0.78906 0.47266-1.6289 0.52734-2.3633 0.20703-2.5742 2.4688-4.3594 2.5742-6.8281 0.10547-3.2578 0.73438-6.3047 2.7344-8.9844 0.52344-0.73438 1.1016-1.418 0.94531-2.3633-0.47266-2.8906 0.89062-5.4102 1.6797-8.0391 0.52734-1.7305 1.3164-3.4141 1.5781-5.3047 0.21094-1.6289 0.050782-3.4648 1.207-4.9883 0.84375-1.1055 3.1562-2.1016 0.68359-3.8359-0.3125-0.21094 0.10547-0.42188 0.26562-0.57813 1.418-1.207 1.1016-2.5742 0.26172-3.9414-0.31641-0.47266-0.63281-1.1562-0.21094-1.4688 1.7891-1.418 2.1016-3.207 2.6289-5.3594 0.47266-2.0469 1.7852-4.3594 2.6289-6.4609 1.1016-2.8359 2.6797-5.832 2.1016-9.2461-0.42188-2.7852 1.5234-4.9883 2.5742-7.3008 1.0508-2.3633-0.050782-4.832 1.5234-7.4609 1.6289-2.6797 2.8398-6.1445 3.5234-9.5586 0.31641-1.6289-0.26172-3.2578 0.36719-4.7305 1.1055-2.6758 2.6797-5.1992 2.9961-8.1914 0.42188-4.0977 1.7852-7.9336 2.8398-11.875 0.67969-2.5742 1.6797-5.0938 2.207-7.7734 0.47266-2.5742 0-6.3555 3.8359-7.4609 0.050782 0 0.10547-0.15625 0.10547-0.20703-0.63281-3.3125 0.94531-6.1484 1.8398-9.1953 1.1562-3.7305 2.625-7.457 2.5234-11.555 0-1.8906 1.7344-3.4688 1.9961-4.9922 0.52344-2.8906 1.5781-5.5156 2.418-8.2461-0.054688 0-0.10547-0.054687-0.16016-0.10547 0.10547-0.054687 0.21094-0.10547 0.31641-0.15625 0-0.73828 0.054687-1.5234 0.054687-2.2617-0.52734 0.054687-1.1055 0.16016-1.6836 0.21094-0.36719-1.9961 1.5234-2.5742 2.418-3.7305-0.52734-0.57812-0.10547-1.1562 0.10547-1.6797 1.3672-3.0469 3.1016-6.043 1.9453-9.6133-0.10547-0.26172 0.47266-1.0508 0.83984-1.1562 1.8906-0.57813 1.3672-1.9961 1.4727-3.3633 0.21094-2.4688-0.26562-4.9375 1.3672-7.3008 0.83984-1.207 2.7852-2.7852 1.6797-4.6758-1.207-2.1016 0.26172-3.5195 1.1562-4.7266 0.63281-0.94531 0.83984-1.7344 1.0508-2.7305 0.63281-2.9414 1.3164-5.8867 2.3672-8.7227 0.73438-1.9961 2.1523-3.6758 0.89453-5.9336-0.21094-0.36719-0.16016-1.2109 0.10156-1.4727 2.9453-2.8867 3.1562-6.9336 4.3633-10.504 0.42188-1.2109 1.1562-2.2617 1.1055-3.8359-0.10547-4.5195 2.9961-8.457 2.9414-13.082 0-0.47266 0.42188-1.0508 1-1.418 0.36719-0.21094 0.89453-0.83984 0.52344-1.2617-1.5742-1.625-0.73438-2.625 0.57812-3.8867 0.73828-0.68359 0.84375-2.0469 0.84375-3.2031 0-0.83984-0.26562-1.7852 0.36719-2.5234 2.2617-2.625 2.7852-5.6719 2.8906-9.0352 0.10547-2.7812 1.2617-5.6211 2.3633-7.9844 1.8945-4.0977 3.4727-8.2461 4.5234-12.555 0.52344-2.207 1.0508-3.9375 2.8359-5.3047 0.26172-0.21094 0.52734-0.42188 0.21094-0.83984-1.3125-1.7852-0.050781-3.9922 0.47266-5.1484 1.3672-2.9961 1.6289-6.4609 3.7305-9.0898 0.47656-0.57422 1.4219-1.5234 1.2617-1.8359-1.3633-2.4688 0.89453-4.3086 1.3164-6.3555 0.89062-4.2031 1.7852-8.7227 5.043-12.137zm-3.2578-112.47c-0.26172 0.050782-0.62891-0.21094-1.3672-0.68359-0.10547-0.050781-0.20703-0.10547-0.3125-0.10547 0.10547 0 0.20703 0.054687 0.36719 0.10547 0.68359 0.42188 1.0508 0.63281 1.3125 0.68359zm-14.664 18.699c0.16016 0 0.63281-0.26172 0.78906-0.67969-0.15625 0.41797-0.62891 0.73437-0.78906 0.67969zm-0.050781-1.8359c-0.054688 0.050781-0.054688 0.15625-0.10547 0.21094 0-0.054687 0.050781-0.16016 0.10547-0.21094zm-1.7344 2.625v0.52734-0.52734zm-69.539 361.73v-0.15625l0.16016 0.10156zm5.7305-19.438h-0.10547 0.10547c-0.050781 0-0.050781 0 0 0zm63.965-221.16c-0.31641 0.054688-0.62891 0-1.0508-0.21094v-0.15625c0.42188 0.21094 0.73438 0.31641 1.0508 0.36719z" fill="#fe9c64"/>
 </g>
 <path d="m225.82 497.48c-0.31641-1.9414 0.36719-3.4141 1.9961-4.4648 0.68359-0.47266 1.0508-1.1562 1.2617-1.9414 0.68359-2.8906 2.418-5.3594 3.3086-8.1445 1-3.0977 2.6289-6.1992 1.8398-9.6641-1.418-3.1523-1.207-3.7812 1.5781-5.7266-0.52344-2.5234-1.5781-4.8867-2.1016-7.4062-0.36719-1.5781-1.2617-3.5742-2.5234-4.3086-1.9453-1.1562-4.4688-1.4688-6.6758-1.8398-1.1562-0.20703-2.6797 0.68359-4.0469-0.20703-0.47266-0.31641-0.83984-0.054688-1.1016 0.3125-1.6836 2.3633-4.3633 2.7852-6.8359 3.5195-1.1016 0.31641-1.9961 0.78906-2.5195 1.9961-1.3672 3.207-4.6797 4.7812-6.4141 7.7773-1 1.7305-2.7852 2.4688-2.0508 5.3555 0.73828 2.9414-0.3125 5.7812 3.418 8.0391 2.5234 1.4688 4.7812 2.8359 7.5664 3.0977 1.5781 0.16016 5.3086 2.0508 5.8867 3.5742 0.16016 0.47266 0.054687 0.94531-0.26172 1.207-1.4727 1.3125-1.9453 3.2578-2.8359 4.7812-1.9453 3.2031-2.6836 7.0391-5.207 9.8242-2.2578 2.5195-3.6758 5.3047-4.0977 8.6133-0.31641 2.3125-1.418 3.8359-3.625 4.6211-0.94922 0.37109-1.5273 1.1055-2 1.9961-1.0508 1.9961-2.9961 3.8906-4.4648 4.7305-2.8398 1.6289-2.9453 5.5156-6.2031 6.3555-0.10547 2.418-2.3672 3.5703-3.6797 4.6211-4.625 3.7852-8.4609 8.7227-14.348 10.875-0.36719 0.15625-0.63281 0.63281-0.84375 1-0.47266 0.83984-1.1562 2.2578-1.9414 1.1562-0.94922-1.3164-3.9961-1.2109-3.0508-3.5742 1.2617-3.0977 0.78906-6.4609 2.418-9.5586 2.8906-5.4648 3.2578-11.98 7.043-17.129 0.31641-0.36719 0.36719-0.99609 0.31641-1.5234-0.21094-2.3633 0.83984-4.2539 2.3633-5.8828 0.52734-0.57812 1.3164-1.1016 0.84375-1.9961-0.68359-1.418-0.16016-2.1016 1.1562-2.5742 0.89062-0.3125 0.99609-1.1016 1.1562-1.8906 0.36719-1.6797 0.99609-3.4648 1.6797-4.9375 0.73828-1.5234 1.6289-2.9414 1.7344-4.7266 0.054687-0.73438 0.26172-1.5234 1-1.6836 1.3125-0.3125 1.3672-1.418 1.7344-2.3633 0.78906-1.9961 1.3125-4.5703 2.8359-5.7266 2.1055-1.5742 1.7344-4.4648 3.9453-5.6719 0.41797-5.5156 4.9922-8.9844 6.7773-13.816 0.94922-2.5195 3.4688-4.043 3.8906-6.7773 0.21094-1.1523 0.47266-2.3086 1.1562-3.3594 0.10547-0.16016 0.26172-0.36719 0.36719-0.52734 0.42188-1.1562 1.2617-1.9961 2.207-2.6797-0.10547-0.47266-0.20703-0.99609-0.20703-1.5195 0-3.3633-0.63281-3.9414-3.9961-3.5742-1.6836 0.15625-3.207 0.89453-4.9414 1.0508-1.5234 0.15625-1.9961 1.8398-1.2617 2.7305 1.8398 2.1562 0.054688 1.8906-1.1016 1.8906-1.9453 0-2.5234 0.84375-2.0508 2.6289 0 0.21094 0 0.36719-0.054687 0.57813-1.2578 0.99609-1.6289 2.4688-2.0469 3.8867-0.10547 0.050782-0.21094 0.10547-0.36719 0.15625-0.47656 0.054688-0.94922 0.16016-1.4219 0.21094 0 0.050781-0.050781 0.10547-0.050781 0.15625-0.21094-0.20703-0.47266-0.47266-0.47266-0.41797-0.73828 0.57812-1.4727 1.5742-1.0508 2.3633 0.78516 1.5234-0.26562 1.9961-1.0547 2.625-0.10156-0.050781-0.20703-0.10547-0.36719-0.20703-0.10547 0.41797-0.21094 0.78516-0.3125 1.1523 1.1562 1.1562 1.6797 1.6836 1.7852 2.1016-0.26172-0.36719-0.73438-0.89062-1.6289-1.7852-1.0508 0.78906-3.1523 1.6289 0.10547 2.1523 0.41797 0.10547 0.73438 0.47656 1.1016 0.84375-0.52344 0.15625-1.0508 0.47266-1.7344 0.20703-0.050782 0.054688-0.10547 0.10547-0.10547 0.16016-1.7344-0.73438-1.5742 0.52344-1.6289 1.5742-0.10547 0.054687-0.15625 0.10547-0.26172 0.10547-0.36719 0.26172-0.36719 0.68359-0.36719 1.1055v0.52344c-1.0508 0.94531-1.6836 2.1016-1.5781 3.5195-0.050782 0.050781-0.10547 0.050781-0.15625 0.10547-0.63281 0.99609-2.5234 0.57812-2.6289 2.1016-0.21094 2.8359-0.83984 5.2539-3.418 7.1445-1.1016 0.83984-1.9414 2.7305-1.9961 4.2031-0.15625 3.0977-1.418 5.4609-3.625 7.457-0.36719 0.31641-1.3164 0.68359-0.57812 1.3672 2.3125 2.1016 0 2.8359-1.1055 3.8867 0.26172 0.21094 0.42188 0.47266 0.52734 0.73438-0.10547-0.10547-0.21094-0.21094-0.31641-0.36719-0.47266 2.1562-2.3633 3.7305-2.6797 5.8828-0.054687 0-0.16016 0-0.26172 0.054688-0.21094 0.73438-0.31641 1.4688-0.054687 2.207-0.050781 0.15625-0.10547 0.36719-0.10547 0.52344-1.4727 0.83984-1.6797 2.3125-1.8906 3.7305-0.10547 0.10547-0.21094 0.21094-0.36719 0.36719 0 0.31641-0.054688 0.68359-0.10547 1 0.36719 0.26172 0.47266 0.47266 0.47266 0.62891-0.054687-0.054687-0.16016-0.15625-0.26172-0.21094-0.47656 0.26172-0.94922 0.57812-0.94922 1.207v0.16016c-0.15625-0.054687-0.21094-0.26172-0.21094-0.57812-0.57812 0-0.94531 0.21094-0.78516 0.89062 0.3125 0.37109 0.73438 0.68359 0.68359 1-0.16016-0.21094-0.37109-0.42188-0.52734-0.57812 0 0.36719-0.050782 0.73438-0.050782 1.1562-0.054687 0-0.10547 0.050781-0.21094 0.050781-0.36719 0.83984-1.5234 1.2109-1.4219 2.3633 0.054688 0.42188-0.10156 0.63281-0.52344 0.68359-0.94531 0.26562-1.4727 0.94531-0.94531 1.7344 1.1562 1.7344 0 1.5234-1.1562 1.7344-1 0.15625-2.418 0.31641-2.418 1.6289-0.054687 1.8906-1.5781 2.0469-2.6289 2.4141-1.7344 0.57812-3.1523 1.6836-4.8867 2.3125-1.3672 0.47266-3.4688 1.0508-3.1016 3.5195 0.050781 0.52734-0.83984 1.207-1.6289 0.68359-1.2109-0.78906-2.3672-0.15625-2.8398 0.73438-1.1016 2.1562-4.5703 1.5781-4.8359 4.5195 0 0.10547-0.68359 0.36719-0.89453 0.26172-2.0469-1.0508-2.7305 0.73438-3.7812 1.7344-0.73828 0.73438-1.2617 1.418-2.6289 1.7852-1.5234 0.42188-2.8906 2.1016-4.7812 2.7852-0.84375 0.3125-2.1055 1.9414-2.7344 3.3086-0.054688 0.10547-0.054688 0.21094-0.054688 0.36719-1.0508-0.15625-2.418-1.5234-2.8906 0.52734h-0.3125c-0.31641 0.050781-0.68359 0.10156-1 0.15625-0.10547 0.15625-0.21094 0.26172-0.36719 0.41797-2.4727 0.31641-4.207 2.207-6.2031 3.3125 0 0.26172 0.054687 0.52344 0.15625 0.73438-0.3125-0.15625-0.41797-0.68359-0.47266-1.1016-0.15625 0.050781-0.3125 0.15625-0.47266 0.20703-0.10547 0.42188-0.21094 0.73828-0.3125 1.0508-1.1055 1.0508-2.5234 1.7344-3.7344 2.6289-0.21094 0-0.41797-0.054688-0.68359-0.10547-0.94531-0.26172-1.6797 0.26172-2.4688 0.57812-3.8906 1.5234-7.7266 3.3086-11.723 4.4648-2.1523 0.62891-4.2539 1.2617-6.2539 2.3125-0.050781 0.10156-0.10547 0.26172-0.10547 0.41797-0.68359 0.054688-1.207 0.52734-1.7852 1-0.054688-0.16016-0.10547-0.31641-0.21094-0.42188-2.1562 0.36719-4.5195-1.3672-6.6211 0.52344-0.37109 0.31641-1.3672 0.26562-1.9453-0.3125-2.2617-2.3125-3.9961-6.4609-2.7344-10.141 0.94531-2.8867 3.7305-5.3047 2.3125-8.8242-0.050781-0.10547 0-0.41797 0.10547-0.47266 2.1016-1.5234 2.1016-4.043 2.9453-6.1992 1.5234-3.9922 4.2031-7.457 5.2539-11.715 0.21094-0.89062 0.47266-1.8906 1.3125-2.4688 2.7891-1.8906 3.2617-5.2539 4.9961-7.8242 1.418-2.1562 3.1523-4.0469 2.3125-6.9375-0.10547-0.26172 0.36719-0.78516 0.68359-1.0508 1.9961-1.6797 3.0469-3.8867 4.3594-6.0938 1.5273-2.5195 2.7891-5.1992 4.207-7.7188 1-1.8398 3.3125-3.3633 3.1523-5.2539-0.21094-2.4688 1.3672-3.5742 2.418-4.832 1.1055-1.2617 1.9453-2.5742 2.1562-4.0469 0.52344-3.7812 3.1523-6.4609 4.6758-9.7188 1.2617-2.6797 2.6289-5.8828 5.3633-7.6172 1.7852-1.1562 0.47266-3.5195 2.1523-4.2031 3.0508-1.2578 2-5.7773 5.4141-6.668-1.6797-1.9961 0.68359-2.7344 1.2617-3.9961 1.418-3.2031 3.1562-6.3555 5.2031-9.0352 3.1016-4.0977 4.6797-8.9805 8.043-12.973 1.6289-1.9453 2.3633-4.832 4.2031-6.9336 0.52734-0.52734 0.78906-1.3164 1.0508-2.0508 1.5781-4.043 4.207-7.457 7.043-10.664 1.3672-1.5234 3.1562-2.8359 3.5742-4.8828 0.31641-1.7344 1.1562-2.9961 1.9453-4.4648 0.78906-1.4727 2.1016-2.3125 3.1016-3.4688 1.8906-2.2578 1.8398-5.6211 4.7852-7.25 0.99609-0.57812 2.6797-1.2617 1.8906-3.2031-0.10547-0.26172 0.57812-0.78906 0.78906-1.2617 0.73438-1.7344 2.418-2.9922 2.8906-4.9375 0.050781 0.050781 0.10547 0.050781 0.21094 0.10547 0-0.16016 0-0.36719-0.054687-0.52734-0.050782 0.054687-0.10547 0.054687-0.15625 0.10547-0.36719-0.15625-0.42188-0.3125 0-0.52344 0-0.73828 0.41797-1.0508 1.1016-1 0.52734-0.36719 0.84375-0.94531 0.84375-1.6289-0.63281-0.89062 0.10547-0.89062 0.68359-0.99609 0-0.054687 0.050781-0.10547 0.050781-0.21094 0.10547 0 0.21094 0 0.31641 0.054687 0.15625-0.16016 0.26172-0.31641 0.41797-0.52734-0.3125 0.050781-0.62891 0.10547-0.94531 0.10547-0.15625 0-0.36719-0.054688-0.41797-0.31641 0.36719-0.050782 0.78516-0.10547 1.1562-0.15625 0.10156-0.10547 0.10156-0.26172 0.050781-0.42188 0-1.9961 0.42188-3.625 2.8398-3.832 0-1 1.2617-0.94531 1.4688-1.7891-0.050781-0.47266-0.050781-0.89062-0.15625-1.3125-0.26172-0.78906-0.36719-1.6797 0.52734-1.9961 0.47266-0.15625 0.62891 0.10547 0.78516 0.42188-0.10547-0.16016-0.3125-0.26172-0.62891-0.10547-0.83984 0.31641-0.73438 1.207-0.52734 1.9961 0.10547 0.41797 0.10547 0.89062 0.16016 1.3125 0.89062-0.47266 2.6797 0.21094 2.3633-1.8398-0.26172-0.10547-0.52344-0.15625-0.73438-0.26172-0.16016-0.10547-0.26172-0.31641-0.36719-0.52344 0.050781 0.10547 0.10547 0.15625 0.20703 0.20703 0.21094 0.16016 0.47656 0.16016 0.73828 0.26563 1.4727-1.8906 1.6797-4.2578 3.1016-6.1992 2.1016-2.8359 5.4648-4.4648 6.9883-7.7734 0.10547-0.16016 0.47266-0.26562 0.73828-0.26562 2.8359-0.15625 3.625-2.5742 4.832-4.4102 1.0547-1.6836 0.63281-6.5664-0.52344-7.7773-2.207-2.3086-6.5195-2.2031-9.25-0.41797-2.1016 1.418-3.0508 3.625-4.207 5.4609-1.5234 2.4688-3.9922 3.9414-5.4141 6.4102-1.5742 2.7852-2.4688 5.9375-4.8867 8.2461-2.3125 2.207-4.5195 4.6758-4.6758 8.1953 0 0.16016-0.37109 0.42187-0.57812 0.47266-2 0.31641-2.3125 1.9961-2.9961 3.5195-1 2.1562-2.2617 4.1523-3.418 6.2539 0 0.10156-0.050781 0.20703-0.050781 0.26172-2.1055 0.15625-1.9453 1.9414-2.3125 3.2578-0.054688 0.050782-0.16016 0.050782-0.21094 0.10547-0.89453 2.2031-4.4141 3.2539-2.9453 6.5664-2.0469 0.62891-2.1016 0.62891-2.7852 2.8867-0.36719 1.1055-0.94531 1.7852-1.9453 2.3125-2.9414 1.5742-3.5742 5.1484-5.9922 7.1953-0.20703 0.21094 0 0.83984-0.10156 1.2617-0.16016 0.47266-0.37109 1.207-0.73828 1.3125-2.3125 0.78906-2.3125 2.9414-3.1016 4.7266-0.94531 2.1016-0.89062 5.043-3.9922 5.7266-0.63281 0.10547-0.84375 0.83984-0.94922 1.4727-0.15625 0.99609-0.62891 1.9414-1.3633 2.4688-2.7852 1.8906-3.5742 4.8867-4.5195 7.7734-0.37109 1.2109-0.78906 2.6797-1.9453 2.7344-0.94922 0.050781-1.1055 0.57422-1.1055 0.89062 0.054688 3.5195-5.7812 4.625-3.7305 8.9844 0 0.050781-0.10547 0.15625-0.16016 0.21094-3.1523 2.6758-4.5195 6.7227-7.4102 9.6641-0.36719 0.36719-0.89453 0.89453-0.83984 1.2617 0.36719 2.9922-2.418 4.4102-3.5742 6.5117-0.62891 1.2109-0.10547 2.9961-0.94531 3.207-2.9453 0.67969-2.3672 3.832-4.2578 5.25-2.4688 1.8398-2.1016 5.3594-3.5234 7.9336-0.73438 1.3672-2.625 1.5742-2.5742 2.9414 0.054688 2.0508-1.0508 3.2031-1.9961 4.7266-0.83984 1.3672-1 2.9961-2.6289 3.8359-0.62891 0.36719-0.26172 1.3125-0.42188 1.9453-0.67969 2.3086-2.9961 3.8867-2.8906 6.5664 0 0.050781-0.15625 0.10547-0.20703 0.10547-2.3125-0.68359-1.7344 1.2578-2.1055 2.3086-0.26172 0.73828-0.36719 1.7344-0.89062 2.1562-2.0508 1.6289-2.2109 4.3594-3.6797 6.0938-1.5781 1.8906-0.21094 5.4102-3.6289 5.9883-0.15625 0-0.41797 0.26172-0.050782 0.47266 1.7852 0.83984 0.21094 1.418-0.21094 2.0469-1.8906 2.6797-5.7812 4.0977-5.2539 8.3516 0.050782 0.78906-0.68359 0.94531-1.2617 1.1562-0.63281 0.26562-1.3164 0.52734-1.4219 1.3672-0.3125 2.0469-0.99609 3.8867-1.8398 5.7773-1.2617 2.8906-3.5742 5.4648-3.2031 8.9844 0.050781 0.21094-0.26562 0.47266-0.37109 0.68359-1.8359 3.832-5.7812 7.0391-3.8359 12.082 0.054687 0.10547-0.10547 0.36719-0.21094 0.41797-2.207 1.1055 0 3.9922-2.0469 5.2031 1.5742 1.4688-1.3672 2.6758-0.31641 3.8867 2.207 2.5742 0.26172 4.4648-0.83984 6.5117v3.6797c1.0508 0 1.418 0.99609 1.5234 1.5742 0.36719 2.5742 2.5234 3.3086 4.3633 4.3086 0.99609 0.52344 1.7344 1.1016 2.4688 2.1016 0.83984 1.1016 2.418 1.9414 3.8906 0.68359 0.47266-0.37109 0.73438-0.52734 1.3125-0.42188 3.5234 0.52344 6.9375 1.2617 10.617-0.47266 3.1523-1.5234 6.832-1.7852 10.195-3.0469 2.207-0.78906 4.9961 0 6.2031-2.9414 2.6797 0.41797 4.4688-1.6289 6.7266-2.3125 2.7852-0.78906 4.5195-3.2578 7.2031-4.3594 1.418-0.62891 1.9453-3.625 4.4141-1.5742 0.31641 0.26172 0.68359-0.47266 1.0508-0.63281 1.8906-0.73438 3.4688-1.9414 4.8359-3.4141 1.5234-1.5742 3.7852-1.0508 5.5195-2.1523 2.7305-1.6836 4.3594-5.0977 8.0938-5.2539 0.10547 0 0.21094-0.21094 0.36719-0.31641 1.6836-1.1562 2.207-4.3086 5.2578-2.9922 0.10156 0.050781 0.36719-0.16016 0.41797-0.26562 0.78906-1.9961 3.7852-2.2031 3.9961-4.7266 0.050781-0.15625 0.57812-0.41797 0.57812-0.41797 2.418 2.4141 2.5234-0.73828 3.5742-1.5234 0.83984-0.63281 1.9961-2.207 2.6797-1.1055 0.62891 1 1.6836 3.1523 0.47266 4.1523-1.8398 1.5742-1.1055 2.9922-0.68359 4.6719 0.63281 2.5742 2.7852 3.9414 4.207 5.8867 1.4688 2.0469 2.9414 2.625 5.1484 2.4688 1.7891-0.10547 3.5234-0.73828 5.3086-0.10547 0.57812 0.21094 1.1055-0.36719 1.6289-0.63281 2.1016-0.99609 3.5742-2.9414 5.9414-3.5195 2.9961-0.73437 5.6211-2.2578 7.832-4.4102 1.7852-1.7891 2.9922-4.3594 5.9883-4.5195 0.52734 0 0.73828-0.36719 0.94922-0.78906 1.0508-2.2578 3.2031-3.4141 4.832-5.043 3.0508-3.0469 5.5742-6.6172 8.7812-9.6133 2.4141-2.2578 3.5703-5.4102 5.2539-8.1914 2.0508-3.418 5.7812-5.6758 6.7266-9.7734 0.36719-1.7344 2.1562-2.4141 2.5781-4.0977 0.78516-2.9414 1.9414-5.7773 4.2031-7.8789 0.89453-0.73438 1.2617-1.5742 1.1055-2.6797zm-35.426-36.875c0.050781 0.050781 0.10547 0.15625 0.21094 0.21094 0.36719 0.3125 0.73438 0.62891 0.78516 0.94531-0.15625-0.21094-0.41797-0.36719-0.62891-0.57812-0.26172-0.21094-0.36719-0.42188-0.36719-0.57812zm-107.12 108.42c-0.10547-0.15625-0.15625-0.36719-0.26172-0.57812 0.10547 0.21094 0.21094 0.42188 0.26172 0.57812zm134.97-95.762c-3.8906-1.7852-3.9414-1.7852-0.31641-4.3594 0.52734-0.37109 1.1055-0.68359 1.2617-1.2617 0.36719-1.418 1.0508-2.1562 2.5234-1.5781s2.6797 1.3672 2.6289 3.1523c0.10547 2.8906-3.418 5.2031-6.0977 4.0469z" fill="#fe9c64"/>
 <g clip-path="url(#a)">
  <path d="m1163.8 469.54c-0.52734-0.62891-1.2617-1.3125-2.418-1.3672-5.0469-0.20703-10.039-0.41797-14.457 2.9414-1.6797 1.2617-2.1523 4.7812-0.20703 5.3594 2.1523 0.68359 4.3086 2.3125 6.5156 1.9453 2.8906-0.47266 5.7812 0 8.5664-0.52734 2.418-0.47266 5.6758 0.054687 6.5195-3.5195v-2.625c-1.7344-0.31641-3.3125-0.73438-4.5195-2.207z" fill="#fe9c64"/>
 </g>
 <path d="m1132.6 470.9c-0.050781-0.57812 0.31641-1.9453-1.1016-1.3672-2.5234 1.1016-5.1523 0.42188-7.6211 0.31641-5.7852-0.21094-11.668-0.42187-17.242 0.57813-3.625 0.67969-7.5664-0.89453-10.93 1.5234-0.42188 0.3125-1.3672 0.15625-2-0.054687-2.4688-0.83984-4.8867-2.1523-7.3555 0.054687-0.31641 0.26172-1 0.20703-1.5273 0.20703-4.3594-0.15625-8.7227-0.62891-13.086-0.47266-3.1523 0.10547-6.4648-0.89062-9.4609 0.42188-2.3633 1.0508-4.5195-0.83984-6.7266 0.050781-1.3672 0.52734-2.7344 0.57812-4.1016 0.37109-3.2578-0.47656-6.5156-0.42188-9.7734-0.47656-0.47656 0.84375-1 1.4727-2.2109 1.4219-2.4688-0.10547-4.9922 0-7.5156 0.050782-1.4688 0.10547-2.9961 0.68359-4.2578-0.62891-1.5742 0.62891-3.2031 1.3633-4.1484-0.89453-2.8398 1.9453-5.9414 1.2617-8.9883 1.0508-2.3125 0.68359-4.625 1.207-6.7812-0.47266h-5.8359c-0.15625 0.89453-0.57812 1.3125-1.5234 0.89453-0.36719 0-0.68359-0.054687-1.0508-0.054687-0.68359 0.21094-1.418 0.31641-2.1016 0.054687-0.52734 0.15625-1.0508 0.20703-1.5781-0.10547-0.73438 0.26172-0.89062-0.26562-1.1016-0.73828-3.8398-0.050781-7.6758-0.26172-11.512-0.10156-1.9961 0.10156-4.1016-0.26562-6.043 0.73438-1.4219 0.73438-2.7891 0.62891-4.2578 0.050781-1.9453-0.83984-4.0469-1.1016-6.1484-0.68359-1 1.4727-2.0508 1.7344-3.1562 0.10547-3.4688 1.1562-7.3047-1.7305-10.723 0.78906-0.20703 0.10547-0.83984-0.26172-1.1562-0.52344-1.3672-1.3164-0.3125-2.6797 0.57812-3.3125 2.6289-1.7305 3.3633-4.4648 4.4688-7.0898 0.68359-1.5781 2.7852-2.418 2.9453-3.8359 0.57812-4.6211 4.3594-7.25 6.4102-10.926 0.31641-0.57812 0.42188-0.83984-0.050781-1.2617-1.0547-0.83984-0.42188-1.4688 0.3125-2.0469 0.73828-0.57812 1.2617-1.1562 1.4727-2.1562 0.36719-1.7305 1.3125-3.3086 2.0508-4.832 1.5742-3.2578 3.6797-6.1992 3.7305-10.031 0-1.1562 0.78906-1.9961 1.9453-2.1016 1.1562-0.10547 1.3672-0.63281 1.3125-1.6836-0.10547-2.2031-0.26172-4.4102 2.1562-5.6719 0.47266-0.26172 0.47266-0.83984 0.26172-1.1562-0.68359-0.99609 0-1.5234 0.52734-2.2578 0.73438-0.94531 1.3672-2.0508 0.89453-3.3086-0.31641-0.73828 0-1.2617 0.47266-1.6289 2.3633-1.7852 3.4141-4.4648 3.8359-7.0938 0.57812-3.5195 3.1016-6.3008 3.3633-9.875 0.054687-0.36719 0.57812-0.62891 0.89453-0.94531-0.31641-0.78906-0.57812-1.5234 0.31641-2.0469-0.21094-0.94922 0.050781-2-0.16016-2.8398-0.52344-2.3633 1.5234-3.4648 2.1562-5.25 0.78906-2.1016 0.52344-4.3086 1.2617-6.2539 0.89062-2.4141 1.7344-4.6758 0.89062-7.25-0.20703-0.57813-0.15625-1.1016 0.37109-1.3125 2.1016-0.73438 0.99609-1.8359 0.41797-2.9414-0.3125-0.57812-1.2617-1.207-0.83984-1.7852 1.7852-2.4688-0.47266-3.4141-1.5781-4.832-1.418-1.8906-6.1992-2.5742-8.3047-1.3672-2.8906 1.6289-4.9375 3.9922-7.043 6.5664-2.6797 3.2031-4.0469 7.1445-6.7773 10.297-0.31641 0.41797-0.42188 0.78906-0.054687 1.1562 1.0508 0.99609 0.16016 1.5742-0.57812 1.9961-1.1562 0.73438-1.9961 1.6289-2.2578 2.9922-0.73828 4.1523-3.6289 7.25-5.4688 10.824-1.6797 3.3086-3.7305 6.3555-4.2031 10.137-0.15625 0.89453-0.47266 1.8906-1.0508 2.625-2.8906 3.7852-4.1016 8.5117-6.7812 12.398-2.2617 3.3086-2.4688 7.7227-5.5703 10.664-0.94531 0.89453-0.83984 2.4688-1.3164 3.6758-1.2617 3.1523-4.2539 5.3594-4.5195 8.9336-0.050781 1.2578-0.99609 2.3633-1.3125 3.3594-0.57812 1.6289-2.3125 2.207-2.5742 3.9414-0.37109 2.6797-1.0547 5.3047-3.5234 6.9336-0.36719 0.26172-0.52344 0.62891-0.10547 1.0508 0.89453 0.89453 0.10547 1.5742-0.15625 2.4688-0.83984 2.8359-3.4688 4.7266-3.8359 8.0352-0.26562 2.1562-1.4219 4.4141-1.6836 6.7266-0.10547 0.83984-0.42188 1.3633-1 1.9961-1.207 1.3125-2.2578 2.8867-1.5742 4.832 0.41797 1.3125-0.054688 1.8398-1.2109 2.0508-1.5234 0.3125-2.207 1.5742-1.9961 2.6758 0.42188 2.2617-0.78906 3.7852-1.8398 5.4141-0.62891 0.99609-1.3125 2.2031-1.1055 3.1484 0.78906 3.8359-1.418 5.6211-4.2539 7.25-0.84375 0.52734-1.6328 1.2109-2.2617 2.1016-1.8906 2.7852-3.9414 5.4648-6.2539 7.9336-1.0508 1.1016-2.5742 1.5742-3.4688 2.9414-1.1055 1.6797-2.0508 3.625-3.5742 4.832-3.3633 2.7305-5.1523 6.9883-8.6211 9.4023-2.7344 1.8906-2.9961 5.4102-6.0977 7.0938-2.1523 1.1562-4.3086 3.0469-5.5703 5.5156-0.21094 0.41797-0.78906 0.89062-1.207 0.94531-2.9453 0.31641-5.2578 3.2578-8.5703 2.2578-0.3125-0.10547-0.68359 0.10547-0.99609 0.26172-2.1562 1.1055-3.9961 1.418-4.7852-1.6289-0.10547-0.26172-0.41797-0.52344-0.68359-0.67969-2.5195-1.2617-3.8867-4.1523-3.1523-6.832 0.47266-1.7305 0.57813-3.4648 0.36719-5.25-0.21094-1.7891-0.15625-3.5195 2.4727-3.3633 0.3125 0.050781 0.78516 0 0.78516-0.47266-0.15625-2.9961 2.5781-3.4688 4.2578-4.5703 2.2617-1.418 4.2578-3.1016 6.3086-4.7266 2.3633-1.8398 3.3125-4.7812 5.4141-6.8828 1.9453-1.9453 1.207-3.7305-1.3125-4.832-3.7344-1.6836-6.5195 1.7305-9.9375 1.6797-0.15625 0-0.36719 0.21094-0.36719 0.36719-0.15625 2.3125-2.5234 2.6289-3.6797 4.0469-0.3125 0.36719-0.68359 0.99609-1.2617 0.57812-0.47266-0.31641-0.36719-1 0-1.418 2.4727-2.8398 0.84375-7.4102 4.0508-9.9844 0.10156-0.050781 0.10156-0.3125 0.050781-0.47266-0.78906-1.9414 0.36719-3.5195 0.89453-5.25 0-0.054688-0.054687-0.054688-0.054687-0.10547 0.63281-1 1.3164-1.9961 1.9453-2.9961-0.21094 0-0.42188 0.054688-0.57812 0.10547 0.21094-0.050781 0.47266-0.10547 0.73438-0.15625 0.054688-0.31641 0.10547-0.57812 0.16016-0.89453 1.5781-0.62891 0.52344-2.1016 0.94531-3.1523-0.15625 0-0.26172 0.054687-0.36719 0.10547 0.15625-0.050782 0.31641-0.10547 0.52344-0.15625 0.42188-0.83984 0.21094-1.6836 0.21094-2.5234 0.054688-1.3633 0.26563-3.0977 1.3672-3.625 3.1016-1.418 3.1016-4.7266 3.3125-6.8789 0.21094-2.207 1.0508-3.4141 2.2578-4.7812 0.26563-0.31641 0.78906-0.78906 0.73828-1-0.89453-3.2031 1.7852-4.1484 3.4688-5.7227-2 0.10156-1.7344-1.7344-1.5781-2.5234 0.26172-1.207 1.4727-1.6289 2.7344-0.94531 0.10547-2.3125 3.1523-4.2031 1.1016-6.8828-0.050781-0.050781 0.21094-0.41797 0.42188-0.52344 2.6289-1.5234 2.8398-4.7266 4.7812-6.7266 1.5781-1.6797 0.31641-3.9375 2.1562-5.9336 2.4688-2.6797 4.4688-6.1484 5.7812-9.8242 0.36719-1.1016 0.21094-2.625 1.2617-3.3086 2.0508-1.3672 2.6797-3.8359 3.6797-5.6758 1.7344-3.0977 3.7852-5.9883 5.4141-9.0859 0.99609-1.9453 2.9414-3.2031 3.4141-5.3047 0.42188-1.9961 0.84375-3.6797 3.418-3.7305 0.73438 0 1.1055-0.94531 1.5781-1.5781 2.6797-3.5195 5.6211-6.9336 8.7773-10.086 0.99609-0.94531 3.5742-0.94531 2.3633-3.4648-0.050781-0.054688 0.78906-0.73438 1.2109-0.78906 2.1523-0.15625 3.8867-1.3125 5.6758-2.3125 0.83984-0.47266 1.7852-0.73438 2.4688-0.41797 1.418 0.68359 2.6289 0.21094 4.1016-0.52734-0.16016 2.8398-0.10547 5.3086-1.2617 7.9883-1.5234 3.5703-1.7344 7.7188-3.5234 11.293-0.78906 1.5742-0.10547 3.7305-2.3125 4.832-1.6797 0.83984-3.207 2.207-1.8906 4.5703 0.26172 0.42188 0.050781 1-0.31641 1.4727-1.3672 1.8906-2.6289 4.0977-4.0469 5.7773-2.8906 3.4141-3.207 7.7227-5.3594 11.348-1.3164 2.2031-2.1055 4.5703-4.2578 6.1953-1.0508 0.73828-1.7891 1.9961-2.4727 3.2578-1.2617 2.3633-2.625 4.7812-4.2031 6.9336-1.4727 2.0508-3.1523 3.9414-3.3633 6.6211-0.10547 0.68359-0.21094 1.3125-0.83984 1.5234-3.418 1.1016-2.7344 4.9883-4.8906 6.9844-0.62891 0.57812-0.68359 2.1016-1.6797 3.1523-2.1562 2.3125-3.6289 5.2539-5.8359 7.4609-2.207 2.207-1.6797 5.4102-3.625 7.7734-1.0508 1.2617-2.7852 1.9453-3.207 3.4688-1.1562 3.832-4.4688 5.9336-6.7266 8.875-2.6836 3.5195-3.3125 6.9375-2.1055 10.824 0.47656 1.5742 1.7891 2.1016 3.2617 0.89062 0.73438-0.62891 1.418-1.418 2.418-1.5234 3.3633-0.41797 5.3594-2.4141 6.4102-5.4609 0.42187-1.1562 1.1055-1.7852 2.1016-2.4688 2.2617-1.5781 3.7852-4.0469 5.2031-6.1992 1.0547-1.5234 1.6836-3.4141 3.207-4.7266 0.42188-0.37109 1.0508-0.63281 0.73828-1.2109-0.68359-1.3633 0.3125-1.9414 0.89062-2.8867 0.84375-1.4219 2.5781-2.4688 2.7852-3.9922 0.57812-3.9961 5.8359-5.4648 5.207-9.9844 0-0.26172 0.57812-0.62891 0.89062-0.94531 1.2617-1.2578 3.3633-2.4688 3.6797-3.7266 1-3.8359 3.6797-6.5664 5.5195-9.7734 1.8398-3.2031 3.4688-6.6172 5.3086-9.8242 0.83984-1.4688 2.1562-2.3086 2.9961-3.6758 1.9961-3.3086 2.418-7.3555 4.9922-10.297 1.4727-1.6289 2.5234-3.4648 2.9961-5.5664 0.42188-1.9961 0.47266-4.0977 2.9453-4.8867 0.41797-0.10547 0.73438-0.41797 0.73438-0.94531 0.10547-3.5195 3.8906-5.5156 3.7852-9.1406 0-0.52344 0.57812-0.78906 0.99609-1.1016 0.89453-0.68359 1.1055-1.7852 1.5273-2.7852 1.0508-2.4688 1.1016-5.2539 2.7305-7.4609-0.36719-0.36719-1.4727-0.10547-1.1562-0.99609 0.16016-0.57812 0.36719-1.4727 1.3672-1.207-0.31641-1.6289-1.0508-3.2578 1-4.4141 0.57812-0.31641 0.57812-1.4727 0.26172-1.9453-0.89453-1.4688-0.42188-2.9414-0.47266-4.4102 0-0.94531-0.21094-1.8398-0.83984-2.6797-1.1055-1.4727-2.2617-2.9414-2.9961-4.5703-0.47266-1.1016-1-1.6289-2.1562-1.9961-3.207-1.0508-6.2031-1-9.5664-0.68359-4.0977 0.42188-7.4648 2.4688-11.301 3.3086-0.36719 0.054687-0.99609 0.36719-1.0508 0.63281-0.36719 2.4688-2.5742 3.3594-3.9414 4.9883-0.94531 1.1055-2.207 1.3672-3.2578 2.1562-2.4727 1.8906-3.5234 4.8828-5.8359 6.7734-0.050781 0.10547-0.050781 0.21094-0.050781 0.31641-1 0.42188-1.7344 1.1562-2.3125 1.9961-0.054688 0-0.10547-0.050781-0.16016-0.050781-0.94531 0.36719-0.57812 1.3125-0.83984 1.9961 0.47266 0.10547 1.1562 0 1.0508 0.67969-0.10547-0.41797-0.62891-0.36719-1.0508-0.41797-0.21094 0.050781-0.26172 0.21094-0.21094 0.31641v0.52344c0 0.054688-0.050781 0.054688-0.050781 0.10547 0-0.21094-0.054688-0.36719 0-0.52734-0.16016 0.10547-0.31641 0.16016-0.47266 0.26562l-0.054688-0.054687c-0.3125 0.26562-1.3125 0.26562-0.36719 1-0.050781 0.41797-0.15625 0.94531-0.21094 0.94531-2.625-0.15625-2.7305 2.207-3.7305 3.625-1.2617 1.7852-2.7344 3.3086-4.1523 4.8828-1.5234 1.7344-3.2578 3.8359-3.0469 6.6211 0.050781 0.73438-0.68359 1.1016-1 1.6797-0.89453 1.5781-2.6289 2.3633-2.9961 4.4648-0.31641 1.6836-0.94531 4.2578-1.8398 4.8867-2.5234 1.8398-2.418 4.5156-3.3633 6.8281-0.26172 0.68359-0.36719 1.1055-1.0508 1.1055-1.6289 0-1.8945 0.99609-2.0508 2.3633-0.10547 1.1016-0.47266 2.2578-1 3.2031-1.6289 2.7852-3.1523 5.6211-4.625 8.457-1.4688 2.8359-1.418 6.6719-4.4648 8.7227-0.31641 0.20703-0.10547 0.99609-0.21094 1.5234-0.10547 0.57422-0.16016 1.5234-0.47266 1.625-2.6797 1-2.7344 3.8906-3.418 5.7266-1.7344 4.7305-4.6758 9.0898-5.0469 14.344-0.050781 0.73438-0.47266 1.625-1.0508 2.0469-1.9961 1.4727-1.7344 3.5703-1.8906 5.6211-0.10547 1.418-0.36719 2.8906-1.3125 3.8359-1.4219 1.3633-1.9453 3.0977-2.5781 4.7773 1.3164 0.78906 0.73828 1.9453 0.26562 2.7344-0.47656 0.73438-0.57812 1.4688-0.57812 2.2578 0.20703 0.57812 0.41797 1.207-0.37109 1.5234-1.7344 0.68359-1.8398 2.207-2.2578 3.7305-0.31641 1.3633-0.52734 2.7305-0.78906 4.043-0.68359 3.4141-2.207 6.5664-2.6797 10.086-0.16016 1.5234-0.26562 3.7305-2.3125 4.2578-1.2109 0.36719-1.8398 1.1523-2.6836 1.8906-1.7344 1.5742-3.4141 3.0977-6.043 3.6758-1.5234 0.31641-3.9922 0.94531-4.7812 3.5195-0.42188 1.418-2 3.3086-3.7344 2.2578-1.3633-0.78516-1.6289-0.20703-2.2578 0.42188-2.3125 2.3633-5.5703 3.3633-8.3047 4.8867-3.1016 1.7305-7.1484 2.1523-10.773 3.1484-3.6797 1.0508-6.4648 0.52734-9.4102-1.625-2.4688-1.7891-2.9414-2.8906-1.7344-5.6758 0.47266-1.1016 0.42187-1.9414 0.10547-3.1523-0.57812-1.9414-1.6836-4.2031 0.68359-6.0938 1-0.78516 1.5781-2.3633 1.9453-3.6758 0.26172-1 1.1016-1.418 1.6289-1.3672 2.1016 0.21094 3.9922-2.1016 6.1484-0.36719 0.47266 0.31641 0.78906-0.36719 1.2109-0.68359 1.207-0.99609 1.6797-2.9922 3.2578-3.3086 2.6289-0.57812 4.2578-2.207 6.043-3.9922 2.3672-2.3633 3.7852-5.9883 7.832-6.4102 0.21094-0.050781 0.52344-0.47266 0.57812-0.78516 0.31641-1.4727 1.4727-2.1016 2.5742-2.7852 0.52734-0.31641 1.2617-0.57812 1-1.3125-0.57812-1.6289 0.73438-2.5234 1.6289-2.7305 2.5742-0.68359 3.3633-3.1016 4.9414-4.6758 0.94531-0.94531 1.3672-2.3672 2.3633-3.3633 2.7344-2.6797 4.3633-6.25 6.7812-9.2461 1.7852-2.2578 2.5234-5.7773 2.3672-9.3516-0.21094-3.7812-1.5781-6.1445-4.418-8.2969-2.7852-2.1562-6.0977-1.7891-9.1445-2.3672-1.418-0.26172-3.7305 1.0508-5.625 1.6289-3.3086 1-6.0938 3.3125-9.7227 3.4688-0.36719 0.050781-0.73438 0.41797-1.0508 0.68359-2.6797 2.2578-4.4688 5.5156-7.832 7.0898-0.83984 0.36719-1.5234 1.2109-1.6797 2.207-0.31641 2.0469-1.5781 3.4688-3.207 4.5195-0.68359 0.47266-1.2109 1.0508-0.89453 1.6797 0.94531 1.9961-0.68359 2.3633-1.7852 3.0469-0.57812 0.36719-1.3164 0.52344-1.8398 0.94531-3.5234 2.625-3.2578 7.6172-6.5703 10.402-0.054688 4.9375-4.0469 8.8242-3.5742 13.867 0 0.36719-0.31641 0.73438-0.47266 1.1562-1 2.625-2.207 5.0938-2.6797 7.8789-0.10547 0.68359-0.73828 1.7344-1.1562 0.99609-1.4219-2.5195-4.5234-2.5742-6.5195-4.6211-1.6289-1.6797-5.6758-0.94531-7.6211-3.6758-1.5234 1.8359-3.1523 0-4.7305 0-2.6289 0.050782-5.9922-0.36719-7.6719-1.5234-2.207-1.5234-4.8359-1.5234-6.8867-3.2578-2.9961-2.5234-4.625-7.7227-2.8398-11.086 1.5273-2.8359 0.73828-6.4062 2.7344-9.1406 0.054688-0.050782 0-0.15625 0-0.26172-0.26172-2.2578 1.3125-3.7305 2.418-5.4102 0.47266-1.4688 0.89453-2.8906 2.6797-3.2578-0.050782-1.4688 0.57812-2.625 1.1055-3.9375 0.99609-2.5742 3.625-3.4688 5.3086-5.2539 2.7852-2.8906 5.0977-7.3008 10.301-6.7773 0.31641 0 0.73438-0.26172 0.89453-0.52344 1.3125-2.1016 3.4141-1.3672 5.2031-1.3164 1.6289 0.054688 3.9414 2.6797 3.4141 3.8906-1.0508 2.3086-1.0508 4.7773-1.5234 7.1406-0.36719 1.9453-1.5234 3.4688-2.1523 5.2539 0.41797-0.050781 0.73438 0 0.94531 0.16016-0.21094-0.054687-0.47266-0.054687-0.73828-0.054687-2.3125 0.26172-3.7812 1.1562-3.3086 3.8359 0.10547 0.83984-0.37109 1.5742-1.1055 1.9414-1.3672 0.68359-2.0508 2.1016-3.1016 3.0469-1.2617 1.1055-0.57812 3.1523-1.9961 3.6797-2.8398 0.99609-2.6289 3.0469-2.3672 5.2539-0.050782 0.050781-0.10156 0.10156-0.15625 0.10156-0.050782 0.37109-0.050782 0.73828-0.15625 1.0508-0.63281 1.7891 0.47266 2.9961 1.6289 3.9414 1.1016 0.89453 1.9961-0.36719 2.9961-0.78906 3.0469-1.3125 5.2539-3.832 7.6719-5.8828 2.3672-1.9414 4.6797-4.0977 5.9922-7.1445 0.68359-1.5742 2.2617-2.7305 2.1562-4.7266-0.054687-0.52734 0.41797-0.73438 0.83984-0.89453 1.7891-0.73438 2.1562-2.1523 1.9961-3.9922-0.050782-0.78516 0.16016-1.6797 0.78906-2.3633 2.7344-2.9414 2.1016-7.1953 4.0469-10.504 0.10547-0.16016 0-0.47656-0.050781-0.73828-1.0508-3.6758-2.7344-7.0898-4.7852-10.297-0.36719-0.57812-0.94531-1.3125-1.6797-0.94531-1.3672 0.63281-2.3672-0.26172-3.4688-0.62891-1.1562-0.42188-2.3672-0.83984-3.5742-0.52344-2.3125 0.62891-4.625 0.52344-6.9375 0.47266-3.0508-0.10547-5.9922 0.99609-8.6211 2.2578-1.8398 0.89062-3.3633 2.8359-5.5195 3.5195-1.8906 0.57813-1.2617 4.8828-4.6758 3.0977-0.054687-0.050781-0.31641 0.21094-0.31641 0.36719-0.42188 2.418-2.3125 3.7305-3.8906 5.2539-2.6797 2.5742-3.9922 6.043-6.1992 8.9844-1.8945 2.4688-3.4688 5.3047-4.6797 8.1406-1.207 2.8359-0.94531 6.2539-3.3125 8.7227-0.36719 0.41797-0.52344 1.4688-0.26172 1.8906 0.83984 1.5234 0 2.6797-0.42188 3.9922 0.57812 0.41797 0.52734 0.68359-0.15625 0.83984 0.10547 1.1562 0.15625 2.2578 0.26172 3.4141 1.6289 0.42187 0.47266 0.94531 0.054687 1.418 0.36719 2.3125 0.73438 4.5703 1.1016 6.8828 1.0508 0.36719 0.16016 1.207 0.37109 1.7852 0.3125 1-0.78906 3.0469 1.8359 2.207 0.89453-0.31641 0.21094 0.52344 0.31641 0.78906 0.31641 0.99609 1.1055 1.625 1.9453 1.3125 1.8906-0.63281 3.1016 0.15625 4.5195 1.1562 4.1016 2.8867 8.7773 4.043 13.613 4.9883 3.4688 0.68359 6.6758 2.1562 10.25 2.418 1.7852 0.15625 2.8906 2.1016 2.9414 3.8867 0.054687 1.7344-0.62891 3.4688-2.6797 3.9922-0.57812 0.15625-1.5234 0.10547-1.6797 0.42188-1.5781 3.2539-5.0469 2.8867-7.6211 4.1484-1.1055 0.52344-2.3672 0.73437-2.8398 2.1016-0.62891 1.8906-1.9453 1.8398-3.207 0.83984-1.1016-0.89453-1.7852-0.68359-2.5742 0.31641-1.8398 2.3086-4.8359 2.2578-7.1992 3.4648-3.9453 1.9961-7.7812 0.52734-11.668 0.78906-1.2617 0.10547-2.5781 0.26172-3.4727-1.1562-0.41797-0.62891-1.1016-0.26172-1.6797-0.050781-1.418 0.57812-2.6289 0.050781-2.7852-1.3672-0.21094-1.9414-0.42188-3.8359-0.42188-5.832 0.054688-4.1484 2.2617-7.3516 3.6797-10.926 0.15625-0.36719 0.10547-1.0508 0.62891-0.99609 2.9961 0.41797 2.5234-2.2617 2.7344-3.5195 0.36719-2.0508 0.89453-3.7305 2.5742-5.0977 1.6328-1.3125 2.418-2.8867 0.57812-4.7266-1.5742-1.9961-3.8359-1.8398-6.043-1.8398-0.47266 3.4688-3.9961 1.1562-5.4141 2.8906-0.050782 0.050782-0.050782 0.15625-0.050782 0.26172-1 3.8867-4.2578 6.5664-5.3086 10.453-0.16016 0.63281-0.054688 1.4727-0.78906 2.207-1.4727 1.5234-1.9453 3.7305-2.4688 5.7773-1.2109 4.6758 1.3125 9.5625-0.73828 14.184-0.21094 0.52734 0.36719 0.73828 0.73828 0.89453 1.207 0.47266 1.6797 1.418 2.0469 2.5195 1.1055 3.1523 3.3633 5.2031 6.4141 6.4609 3.4688-1.1523 5.2539-0.73438 6.3594 1.4219 0.31641 0.15625 0.62891 0.3125 0.94531 0.36719 2.7852 0.3125 5.5703-1.8398 8.4102 0.050781 0.15625 0.054687 0.57812-0.31641 0.89453-0.47266 0.41797-1.1016 1.3672-1.4688 2.3633-1.8906 3.1016 0.31641 6.0977 0.21094 8.9883-1.207 0.47266-0.26562 1.1562-0.054687 1.7852-0.054687 0.84375 0 1.7383-0.050781 2.2109-0.62891 2.0469-2.6289 5.2539-2.4688 7.9883-3.5195 1.2617-1.5234 3.2578-1.8398 4.8867-2.6797 0.52734-0.26172 0.78906 0.050781 0.89453 0.52344 0.47266-0.36719 0.94531-0.67969 1.418-1.0469-0.31641-0.68359 0.054687-0.84375 0.63281-0.84375 3.9414-1.2578 6.7773-3.832 9.0391-7.2461 1.8398-2.7852 2.8906-2.6289 4.4141 0.3125 0.57813 1.1055 0 1.7852-0.26172 2.6797-0.26172 0.78906-1.2109 1.5234-0.68359 2.3633 2.2617 3.5195 2.8398 7.9844 7.4102 10.191 2.7852 1.3672 5.4648 1.4727 8.1992 1.7344 1.2617 0.15625 3.1016 0.42188 4.3633-0.26172 2.8398-1.4727 5.9922-1.1055 8.9336-2.0508 0.68359-0.21094 1.6289 0.26172 2.2617-0.3125 2.5234-2.3125 6.2539-1.7891 8.9883-3.9414 1.1016-0.89453 2.4688-1.7344 3.6797-2.625 2.3125-1.6836 4.9922-2.418 7.8281-2.5234 0.57813-1.1016-1.4688-0.78906-0.94531-1.7344 0.73828-1.207 2-0.78516 3.0508-0.89062 0.20703-0.73828 0.41797-1.418 0.99609-1.8906v-0.054688c2 1.0508 2.7852 0.47266 3.418-2.3633 2.418-0.94531 3.4688 0.31641 3.1523 2.4688-0.73438 4.832 3.8906 7.1445 4.8906 11.137 0.050782 0.21094 0.57813 0.47266 0.83984 0.47266 1.2617-0.050781 1.6797 0.99609 2.3633 1.7344h0.10547c0.94531 0.94531 1.8398 1.8906 3.207 2.2578 1 0.26172 1.8906 0.47266 1.8906-1 3.7852 2.7344 7.7812 2.3672 12.039 1.4219 2.1016-0.47266 3.5195-1.3672 5.0977-2.8906 2.4688-2.418 6.7773-2.418 8.7227-5.9375 0.16016-0.26172 0.84375-0.20703 1.2109-0.41797 2.207-1.3125 4.3086-2.9961 5.4648-5.2539 0.83984-1.6797 2.1016-3.0469 3.207-4.4141 2.207-2.7305 5.7305-4.3047 7.3047-7.7734 0.26172-0.57812 0.63281-0.89453 1.2109-0.68359 0.62891 0.26172 0 0.73438 0.050781 1.1055 0.36719 2.1523-2.0508 3.5703-1.9961 5.043 0.21094 3.8867-3.1016 6.25-3.3633 10.137-0.21094 2.9961-1.6289 6.5156-3.0508 9.6133-0.52344 1.1562-1.1562 2.2578-1.0508 3.6758 0.16016 2.418-0.83984 4.7305-1.9961 6.7773-1.4727 2.5742-2.8398 5.3594-3.1523 8.0898-0.57812 4.7812-4.5234 8.9844-2.3125 14.184 0.10156 0.26172-0.21094 0.68359-0.37109 0.94531-2.2578 3.7305-3.7812 7.5664-2.8359 12.031 0.050781 0.41797 0 0.68359-0.26562 0.94531-2.9922 2.9922-1.2578 7.1445-2.5742 10.609-0.62891 1.7344 0.054688 4.1523-0.41797 5.9375-0.68359 2.418-1.8945 4.6211-1.1562 7.25 0.15625 0.62891 0.47266 1.2617-0.21094 1.6289-1.3164 0.62891-1.3672 1.9961-1.1562 2.9414 0.94531 4.6758-1.0508 9.0859-1.0508 13.762 0 4.5703-1.2617 9.1406-0.42188 13.762 0.15625 0.89453-0.31641 1.6836-0.42188 2.5234-0.3125 2.3125-2.3633 4.7266 0.26562 6.9883 0.41797 0.41797-0.16016 1.1523-0.26562 1.7305-0.36719 1.6289-0.57812 3.1523 0.10547 4.9922 0.57812 1.6289 0.68359 3.625 0.63281 5.5664-0.054688 2.1562-0.73828 4.5703-0.37109 6.3047 0.47656 2.2578 0.42188 4.7266 1.7344 6.9883 1.1055 1.8359 2.418 3.7812 2.7344 6.3008 0.21094 1.6289 1 4.3086 3.8359 4.5703 0.78906 0.054688 1.4219 0.89453 2.1562 1.3672 1.6836 1.0508 3.2578 3.1016 5.3086 2.625 3.7305-0.83984 7.5703-1.5234 11.145-2.9922-2.5234-3.2031 0.73438-2.207 1.9414-2.7305 0-0.21094-0.050781-0.42188 0.054687-0.52734 2.8906-3.2031 4.6758-7.3555 8.4102-9.875 0.3125-0.21094 0.47266-0.73438 0.68359-1.1016 0.89063-1.4727 0.73438-3.5195 2.4688-4.5195 1.3125-1.7852 2.4688-3.7305 4.7812-4.4141 0.47266-1.1523-1.5234-3.0469 0.94922-3.7266 0.73438-0.68359 1.3125-1.5234 1.7852-2.4688 0.78906-1.6289 1.5781-4.2578 2.7344-4.4688 3.1016-0.57422 2.207-2.6758 2.3125-4.2539 0.10547-1.4688 0.36719-2.5742 1.8906-2.9922 0.52734-0.16016 1.1055-0.36719 1.2109-0.89453 0.68359-2.7852 3.2031-4.7812 3.4141-7.9336 0.054687-1.3633 2.2617-2.4688 1.5781-4.4648 0-0.10547 0.52344-0.41797 0.83984-0.52344 1.9961-0.78906 2.8906-2.1562 2.6797-4.3086-0.10547-0.78906-0.3125-1.7852 0.57812-2.3633 3.1562-1.9961 4.207-5.6211 5.8359-8.5625 1-1.7852 1.6797-4.2539 2.4688-6.3555 2.1562-5.6758 4.207-11.504 8.8828-15.812 0.21094-0.21094 0.36719-0.63281 0.36719-0.94531-0.050781-3.5195 1.6328-6.7773 2.9453-9.7734 1.207-2.8359 1.9961-6.1445 4.0469-8.6641 0.62891-0.73828 1.3125-1.5781 1.4727-2.418 0.68359-3.9922 1.4688-7.8789 4.3594-10.98 2.1562-2.3086 0.73828-6.25 3.5234-8.4023 0.21094-0.16016 0-1-0.10547-1.4727-0.050782-0.36719-0.31641-0.83984 0-0.94531 2.7344-0.78906 1.3672-2.418 0.89453-3.8867-0.78906-0.78906-0.31641-1.3672 0.41797-1.8398 0-0.26172-0.050782-0.52344 0-0.78516 0.21094-1.7891 0.73828-3.7852-1.6289-4.625-1.8398-0.62891-6.0938 0.89453-6.4648 2.5234-0.52344 2.5195-1.9414 4.6719-2.8359 6.9844-0.89453 2.2578-2.9961 4.4141-3.8359 6.9883-0.42188 1.3125-1.9453 1.7344-2.1055 3.3086-0.36719 3.0977-0.99609 6.1445-2.9961 8.7734-0.47266 0.57812-1.1562 1.418-0.26172 2.3125 0.68359 0.67969 0.054687 1.418-0.31641 1.8359-2.418 2.6289-2.9414 6.1992-4.5195 9.2461-1.207 2.2578-3.7305 3.9922-3.1016 7.0898 0.054687 0.21094-0.20703 0.52734-0.36719 0.68359-1.3672 1.418-1.7852 3.3125-2.4688 5.043-0.68359 1.6836-1.3164 3.5742-3.207 4.4648 0.26172 0.63281 0.83984 1.2617 0.52734 1.4727 0.10156-0.47266-0.37109-1-0.52734-1.4727-1.7344 0.78906-0.21094 1.418 0.050781 2.1562l0.054688-0.054687c-0.10547 0.26562-0.21094 0.47266-0.26172 0.73828-0.054688 0.36719-0.10547 0.73438-0.26562 0.99609 0.054687-0.15625 0.054687-0.26172 0.054687-0.41797-0.78906 0.050781-1.1055 0.47266-1.0508 1.1523-0.10547 0.10547-0.21094 0.21094-0.31641 0.31641 0.78906 1 0.47266 1.8398 0.050781 2.625 0.26562-0.62891 0.31641-1.3125-0.3125-2.0469-0.94531 0-1.8398 0.15625-1.3164 1.4727 0.31641 0.78516 0.52734 1.7852 0 2.2031-1.9453 1.4727-1.8906 3.7852-2.5742 5.7266-1.418 0.78906-0.68359 2.8359-1.9961 3.6797-1.3672 0.89062-1.7344 2.2031-1.7891 3.7812 0 1.0508 0.73828 3.0977-1.7852 1.9414-0.26563-0.10547-0.68359 0.16016-0.73828 0.57812-0.41797 2.5234-0.73438 5.0977-3.0977 6.7266-0.10547 4.8828-4.8359 7.5117-5.9414 11.871-0.73438 2.8906-3.7305 3.9922-4.7305 6.9844-0.83984 2.418-2.3633 4.7812-3.1016 7.4102 0.63281 0.78516 1.3672 1.7305 0.78906 2.5742 0.054687-0.68359-0.52344-1.4219-1-1.9961-0.62891 0.89062-2.1016 0.62891-2.7305 1.5742h-0.054687c-0.36719 0.47266-0.89062 0.83984-0.57812 1.5234 0.26562 0.15625 0.52734 0.36719 0.78906 0.52344 0.10547-0.050781 0.15625-0.15625 0.26172-0.20703-0.050781 0.10547-0.15625 0.15625-0.20703 0.26172-0.42188 0.89453-0.84375 1.8398-1.3164 2.6797 0.36719-0.73828 0.73828-1.4727 1.0508-2.207-0.26172-0.15625-0.52344-0.36719-0.78906-0.52734-1.1562 1.9453-2.3633 3.8906-3.625 5.832h-0.050781v0.054688c-0.10547 0.15625-0.16016 0.26172-0.26562 0.41797 0.10547-0.050781 0.16016-0.050781 0.26562-0.10547-0.054687 0.94531-0.10547 1.8398-0.52734 2.5742 0.26172-0.73437 0.31641-1.5742 0.31641-2.4688-0.78906 1.2617-1.8945 2.3633-2.3125 3.7812-0.36719 0.054688-0.73828 0.16016-1.1055 0.21094-0.10547 0.10547-0.21094 0.21094-0.31641 0.26172 0 0.054687-0.050781 0.10547-0.050781 0.16016-0.15625-0.054687-0.21094 0.10547-0.15625 0.31641 0.050781 0 0.050781-0.054687 0.10547-0.054687 0 0.054687-0.054688 0.10547-0.054688 0.15625 0.21094 1.1055 0.054688 1.8398-0.26172 2.3672 0.15625-0.47266 0.21094-1.1055 0.050781-1.8945-0.99609 0.73828-2.1016 1.3672-2.9414 2.2617-0.57812 0.52344-2 0.52344-1.5234 1.8906-0.21094 0.36719-0.42188 0.73438-0.63281 1.1016-0.15625 0.21094-0.26172 0.36719-0.42188 0.47266-0.99609 0.054688-1.8906-0.52344-2.8906-0.47266-0.15625-0.10547-0.26172-0.21094-0.41797-0.36719-0.42188-0.050781-1 0-1.2109-0.26172-1.5234-1.9961-2.5742-4.3086-2.9961-6.7773-0.52344-2.9414-0.47266-5.9883-1.418-8.8242-0.42188-1.3125-0.26172-2.2578 0.52734-3.2578-0.47266-0.21094-0.52734-0.62891-0.47266-1.0508l-0.10547-0.10547c-0.63281 0-1.1055-0.10547-0.89453-0.89062 0.89453-1.7344-0.47266-3.5195-0.054688-5.1484 0.73828-2.7852 0.63281-5.5703 0.73828-8.4062 0.050781-1.5742-0.68359-2.9414-0.36719-4.6211 0.47266-2.4688 0.99609-5.2539 0.3125-7.5117-0.68359-2.2617 0.054687-3.0469 1.9453-4.0469-1.5234-0.94531-3.3086-1.7852-0.89453-3.3086 0.21094-0.10547 0.16016-0.68359 0.16016-1-0.10547-6.25 1.1016-12.344 2.2578-18.387 0.37109-1.8906-0.73438-3.9375-0.26172-5.0938 1.5234-3.625 0.63281-7.8789 3.3633-11.031 0.31641-0.42187 0.52734-1.2617 0.36719-1.7344-0.83984-2.3633 0.37109-4.3086 1-6.4062h-0.15625c0.3125-0.94922 1.4688-1.9961-0.31641-2.7852-0.47266 0.15625-0.83984 0.41797-1.1055 0.73438 0.21094-0.52344 0.68359-0.99609 1.3672-1.207 0.054688-0.57812-0.21094-1.4727 0.10547-1.7344 2.7852-2.5742 1.9961-6.4102 3.1562-9.5625 0.94531-2.5195 1.3633-5.7227 2.3125-8.2461 1.7852-4.7812 2.9922-9.7188 4.2031-14.656 0.15625-0.68359 0.52734-1.0508 0.89453-1.5234 0.57812-0.68359 1.2617-1.3672 1.1562-2.2578-0.36719-2.4688 2.3633-4.2539 1.5234-6.8281-0.054688-0.16016 0.26172-0.42188 0.31641-0.68359 0.57812-1.9961 3.0977-3.5195 1.6289-6.1484-0.16016-0.3125 0.36719-0.94531 0.57812-1.418 1.8906-4.4102 3.4141-8.9805 5.7266-13.184 1.3672-2.4688 1.6836-5.1992 2.9453-7.6719 1.1562-2.3086 2.1562-4.8828 3.3125-7.1953 1.1016-2.1523 0.89062-4.4141 1.6797-6.5117 1.418-3.8359 3.5234-7.3555 5.5195-10.93-0.52734-1.3125-0.10547-2.5195 0.52344-3.6758 0.78906-1.6797 2.9961-1.5234 3.9961-3.2031-0.10547 1.6797 0.83984 2.8359 1.3125 4.2031 0.52734 1.418 1.9453 1.625 2.6289 0.62891 1.3672-2.0508 3.8906-2.6797 5.1523-4.7266 0.68359-1.1055 1.7852-1.1562 2.9414-1.1562 3.5234 0 6.9375 1.5234 10.512 0.47266 0.78906-1.4727 1.6289-2.418 2.8906-0.42187l0.054688 0.054687c1.3672-0.68359 2.4688-0.26562 3.4688 0.78516 0.83984-0.41797 1.6289-0.41797 2.4688-0.10547 0.26562-1.1016 0.89453-0.57422 1.4727-0.3125h1c0.41797-0.31641 0.78906-0.36719 0.99609 0.26172 2.3125-1.2617 5.0469 0.15625 7.3594-1.207 0.63281-0.36719 1.5234 0.050781 2.207 0.47266 0.89453 0.57812 2.1562 0.94531 2.7344 0.52344 2.3633-1.6289 4.8359-0.41797 7.1992-0.57812 0.73828 0 1.1562-1.3633 2.0508-0.73438 2.3125 1.6289 4.9922 0.68359 7.5156 1.1016 1.4727 0.10547 2.3672-1.1016 3.625-1.5742 2.0508 0.62891 4.207 1.207 6.2031 1.9961 1.6289 0.68359 2.9961 0.68359 4.207-0.62891 0.73438-2.0508 2.3125 0.41797 3.2031-0.63281 1.8398-0.26172 3.6797 0 5.4688 0.63281 2.6797 0.94531 5.6211 0 8.3555 0.89062 0.10547 0 0.42188-0.47266 0.52734-0.78516 0.73438-1.8398 1.8398-1.4727 3.0469-0.47656 0.26172 0.21094 0.47266 0.52734 0.73438 0.73828 1 0.73438 2.4727 1.418 3.3125 0.99609 3.0508-1.5234 5.9922-1.5234 9.3555-1.1016 2.7852 0.36719 5.8359 0.26172 8.7773 0.10547 2.8906-0.16016 5.7305-0.57812 8.6211-0.78906-0.054687 0.050781-0.10547 0.15625-0.16016 0.26172 0.26562 0.31641 0.52734 0.63281 0.78906 0.83984 0.054688-0.3125 0.16016-0.67969 0.26562-1.0508-0.31641-0.41797-0.52734-0.41797-0.73828-0.26172 0.26172-0.41797 0.52734-0.62891 0.94531 0 0.21094 0 0.37109-0.050781 0.57812-0.050781 1.1055-1.0508 2.1055-1.8398 2.7344 0.36719 1.9453 0.15625 4.0469-1.6797 5.7812 0.68359 0.36719 0.47266 1.3672 0.26172 1.9961-0.16016 2.1055-1.3125 4.9961 0.21094 6.8359-1.9961 0.050781-0.10547 0.47266-0.050781 0.68359 0.054688 2.7852 1.3125 5.5156 1.418 8.3555 0.15625 2.4688-1.1016 4.9414 0 7.4102-0.15625 3.8359-0.21094 7.6758-1.3672 11.562-0.42188 1.1562 0.26172 2.4727 0.26172 3.5234 0.78906 1.3672 0.68359 1.2617-1.5742 2.5234-1.0508 0.99609 0.42188 7.7773 0.15625 8.7227-0.15625 0.36719-1.3672 2.5742-1.9961 3.7344-0.78906 0.41797 0.42188 1.2578 0.52344 1.3125 1.3125 2.0508 0 3.9922-0.15625 3.1016-3.0469-0.68359-2.2578-0.52734-4.6211-0.68359-6.9844zm-331.7 31.676c1.6289-1.6289 2.6289-3.5195 3.2578-5.7812 0.57812-2.1523 2.3672-3.7812 3.4688-5.7227 1.6836-2.9961 3.6289-5.6758 6.5195-7.6172 0.89453-0.57812 1.3672-1.6836 1.207-2.5234-0.41797-2.3633 1.2109-2.6797 2.7344-3.1523 1.0508-0.36719 1.9961-0.57812 2.0508-1.9414 0-0.57812 0.36719-1.2109 1.0508-1.3672 3.0469-0.73438 5.4141-3.0469 8.4609-3.7812 0.89453-0.21094 1.8398-0.83984 2.6289 0.15625 0.83984 1.0508 3.5195 0.94531 2.207 3.4141 1 1.4727 0.68359 2.5742-1 3.4141 1.6836-0.89062 1.9453-1.9414 1-3.4141-0.68359 0.73828-1.3672 1.4727-2.0508 2.207-0.62891 0.62891-0.57812 1.1562 0.26562 1.5781 0.050781 0 0.050781-0.054687 0.10547-0.054687-1.2109 2.1523-2.9961 3.7812-4.4688 5.6719-2.207 2.7852-5.2578 4.6758-7.0977 7.9336-1.1016 2.0508-3.7305 3.3633-5.8867 4.7266-1.3125 0.84375-3.2031 1.9453-3.5742 2.8398-0.99609 2.5195-3.4141 3.5703-4.7305 5.6211-1.3125 2.0977-4.7812 2.1523-6.1992 0.10156-0.52734-0.73438-0.73828-1.5234 0.050782-2.3086zm141.6 115.78c-0.10547 0.054687-0.16016 0.10547-0.26562 0.15625 0.10547 0.054687 0.21094 0.21094 0.36719 0.21094 0.10547 0.054688 0.26562-0.10547 0.42188-0.15625-0.10547-0.054687-0.21094-0.10547-0.26172-0.15625 0.10547 0.050782 0.15625 0.10156 0.26172 0.15625-0.15625 0.10547-0.31641 0.21094-0.47266 0.15625-0.10547 0-0.26172-0.10547-0.36719-0.21094 0.10547-0.050781 0.21094-0.10156 0.31641-0.15625zm0.20703 0m-2.625 2.1523c-0.054687 0.10547-0.054687 0.21094-0.10547 0.31641-0.10547 0.47266-0.26562 0.89453-0.47266 1.3125 0.10547-0.26172 0.15625-0.47266 0.20703-0.73438 0.054688-0.31641 0.21094-0.57812 0.37109-0.89453zm-1.6836 3.7852c-0.15625 0.47266-0.31641 0.94531-0.36719 1.418 0 0.26172-0.10547 0.47266-0.26172 0.57812 0.050781-0.73828 0.3125-1.418 0.62891-1.9961zm-9.8828-136.79h-0.10156v-0.47266h0.10156v0.47266zm45.098-83.523c-0.21094 0.050782-0.42188 0.26172-0.47266 0.47266 0.050781-0.31641 0.26172-0.52734 0.52734-0.62891 0.99609-0.26562 1.4688-0.63281 1.6289-1.1055-0.16016 0.52734-0.63281 1-1.6836 1.2617zm4.3086-23.219c0.054687-0.68359 1.3164-0.68359 1.7344 0.26172 0.31641 0.78906 0.42188 1.6289 0.63281 2.418h-0.054687c-0.050781 0.21094-0.10156 0.36719-0.15625 0.52344 0.21094-0.050782 0.36719-0.10547 0.57812-0.21094 0.054687 0.054688 0.054687 0.10547 0.054687 0.21094-0.26562 0.054687-0.47656 0.16016-0.73828 0.21094v0.78906c-0.62891 0.26172-1.3125 0.52344-1.9453 0.78516 0 0.10547 0 0.16016 0.054687 0.26562 0-0.054688 0-0.10547-0.054687-0.21094-2.8906-1.5234-0.21094-3.3633-0.10547-5.043zm-2.9414 7.8281c-0.054687-0.26563-0.054687-0.52734-0.10547-0.78906 0.10547 0.21094 0.050781 0.52344 0.10547 0.78906zm-25.914 67.922c0.16016 0.89063-0.10156 1.2617-1.2578 1.1562-1.2109-0.054687-3.3672-0.21094-1.5781 2.2578 0.68359 0.89453 0.10547 2.1016-0.57812 2.8906-1.2617 1.418-1.5781 3.5703-3.6797 4.5156-0.89453 0.42188-1.5781 1.9961-1.6289 3.4141-0.054688 0.89453-0.15625 1.7344-0.94531 2.4688-0.52734-0.62891-0.94531-1.3633-1.5781-1.7305-1.8398-1.0508-2.418-2.0508-0.26172-3.3125 0.21094-0.15625 0.52344-0.41797 0.47266-0.57812-0.42188-2.1523 0.83984-3.7812 1.418-5.6719 1.1562-3.6758 1.6289-7.4609 3.7852-10.926 2.4688-3.9922 4.0469-8.5117 6.3594-12.66 1.1055-1.9961 1.0508-4.832 4.2031-5.5703-1.8359-1.3125-1.8906-2.0469-0.52344-3.9375 2.7344-3.7305 5.3594-7.6172 6.6211-12.344 0.47266-1.7344 1.1562-4.2031 3.6797-5.1484 1.3672-0.52734 1.3672-2.5234 1.2617-3.9922-0.26172-3.207 1.7344-5.2539 3.4688-7.4609 0.15625-0.15625 0.63281-0.36719 0.57812-0.47266-0.94531-3.7305 3.418-4.9375 3.7852-7.9844-0.21094-0.36719-0.26172-0.57812-0.21094-0.73438-0.050781 0.15625 0 0.3125 0.21094 0.62891 0.42188-0.26172 1.1562-0.26172 0.83984-1.0508 0.10547-0.52344 0.21094-0.94531 0.31641-1.4727-0.26172-0.26172-0.36719-0.47266-0.36719-0.67969 0 0.20703 0.10547 0.41797 0.36719 0.62891 0.36719-0.52344 0.78906 0.050781 1.1562-0.10547v0.054687c0.31641-0.054687 0.62891-0.054687 0.94531-0.10547v-0.054688c0.78906 0.054688 1.5781 0.10547 2.3672 0.16016 0.57813-0.68359 1.207-1.3164 1.5742-2.1016-0.31641 0.89062-1.0508 1.5742-1.6797 2.3086-0.054688 1.1562-1.2109 1.6289-1.6836 2.4688 0-0.050782 0-0.10156-0.050781-0.10156-0.57812 0.10156-1.1055 0.47266-0.84375 1.0469 0.94922 2.2617 0.73828 4.3633-0.62891 6.4102-0.10547 0.10547 0 0.36719 0.050782 0.52734 1.2617-0.78906 2.0508-1.6836 2.3672-2.7852-0.26172 1.207-1.0508 2.207-2.418 2.9922-0.054687 0.054688-0.054687 0.16016-0.10547 0.26562-1.8398 2.4141-3.3125 5.043-4.0469 7.9844 0.31641-0.10547 0.68359-0.26562 1.0508-0.26562 1 0.054688 1.8906 0.10547 2.0508-0.41797-0.054687 0.68359-1.0508 0.62891-2.1016 0.57812-0.31641 0-0.68359 0.15625-1 0.26172-0.050781 0.47266-0.10547 0.89453-0.15625 1.3672-1.1562 0.94531-1.7891 2.1016-1.6328 3.625 1.3164 0.10547 1.9453-1.6289 3.3672-1.2617 0.20703 0.050781 0.57812-0.47266 0.57812-0.94531 0.10547 0.52344-0.26562 1.1562-0.57812 1.1016-1.4727-0.36719-2.1055 1.3672-3.418 1.2617-0.57812 3.5195-3.8359 6.1992-3.207 10.137 0.10547 0.52734-0.68359 0.68359-1.0508 1-1.2617 1.0508-1.6797 2.6797-2.5234 3.9922-1.8398 2.9961-2.3125 6.25-3.3633 9.4023-0.62891 1.9453-2.5742 3.1016-3.4141 5.2539-0.84375 2.1016-2 4.2539-2.9453 6.3555-0.68359 1.4727-1.8398 2.5234-2.4688 4.0469-0.47266 1.1016-1.1562 1.9961-0.94922 3.3086z" fill="#fe9c64"/>
 <path d="m719.19 504.36c3.4688-0.62891 5.4648-4.1484 9.1953-3.6758 0.16016 0.050781 0.42188-0.31641 0.52734-0.52734 0.78906-1.418 2.1016-2.3633 3.3633-3.2031 1.2617-0.83984 1.7344-1.9961 2.2617-3.207 1.0508-2.4141-0.21094-4.2539-2.7344-4.7773-1.5781-0.36719-3.2578 0.73438-4.4688 0.050782-1.7852-0.99609-2.625 0-3.7305 0.89453-0.94531 0.78906-1.7852 1.6289-2.7852 2.3633-1.4727 1.1016-2.7852 0.15625-3.9414-0.62891-1.1562-0.78906-0.57812-1.6836 0.15625-2.7344 1.7891-2.5742 2.6289-5.5664 3.3633-8.5625 0.42187-1.9414-1.9453-6.1992-3.6797-6.9336-2.9961-1.3125-6.1992-0.62891-8.25 1.1562-2.6797 2.3633-5.3594 4.5195-8.3555 6.3555-0.10547 1.5781-1.7344 1.5781-2.5234 2.4688l-0.054688 0.10547c-0.21094 0.47266 0.47266 1.1055-0.36719 1.4727-0.10547 0.050781-0.21094 0.050781-0.26172 0.10547 0.050781 0 0.15625-0.054688 0.21094-0.10547 0.83984-0.36719 0.20703-1 0.36719-1.4727-0.63281 0.15625-1.3164 0.21094-1.6836 0.83984-0.3125 0.054688-0.62891 0.054688-0.94531 0.10547-0.10547 0.36719-0.21094 0.68359-0.36719 0.89453 0.15625-0.26172 0.26172-0.52734 0.31641-0.83984-1.4219-0.054687-3.418-0.89453-2.6289 1.9961-0.31641 0.26172-0.63281 0.47266-0.94531 0.73438-0.31641 1.8398-1.3164 2.5742-2.7344 2.5742 1.3672-0.054688 2.3125-0.78906 2.6289-2.5742-1.6289 0.31641-2.9453 1.207-4.1523 2.418h0.10547c-0.054687 0.3125-0.16016 0.57422-0.21094 0.89062 0.10547 0.57812 1.5234 0.73438 0.57812 1.5234-0.21094 0.15625-0.47266 0.21094-0.68359 0.21094 0.21094 0 0.42188-0.054688 0.57812-0.21094 0.94531-0.78906-0.47266-0.94531-0.57812-1.5234-0.42188 0.16016-0.83984 0.31641-1 0.83984-0.3125 0-0.62891 0.054687-0.89062 0.054687-0.054688 1.0508 0.050781 2.2578-1.4727 2.4141-2.418 1.6289-4.9922 3.1016-7.2031 4.9375-1.207 1-3.4141 1.3164-3.625 2.5742-0.42187 2.3125-2.207 2.9453-3.4688 4.2031-0.15625 1.3672 0 2.9414-2.1016 2.9414-0.21094 0.054687-0.42188 0.054687-0.63281 0.10547 0 0-0.050782 0-0.050782 0.054687-0.10547-0.68359-0.47266-0.68359-1-0.42188-0.31641-0.050781-0.68359-0.10547-1.0508-0.15625 0.52734 1.418-1.5781 1.9961-1.207 3.4648 0 0.054687 0 0.054687-0.10547 0.054687 0 0 0.050781 0 0.050781-0.054687-0.36719-1.5234 1.7891-2.0469 1.2109-3.4648-0.52734 0-1 0-1.5781-0.10547v-1.5234c0.57812-0.15625 0.89453-0.52734 1.1055-1.0508-0.42188 0.10547-1.2109-0.15625-1.2617 0.36719-0.054688-0.68359 0.83984-0.36719 1.2617-0.47266v0.10547c0.10156-0.10547 0.20703-0.15625 0.36719-0.26172-0.10547-0.054688-0.26562-0.16016-0.36719-0.21094v-0.10547c0.10156-0.26172 0.20703-0.47266 0.26172-0.73438 0.47266-1.9961 4.4141-2.1016 2.7852-5.2539 0-0.050781 0.62891-0.31641 0.83984-0.57812 0.94531-1.0508 2.2617-1.9961 2.6797-3.2578 0.94922-2.7812 0.73828-5.9883 3.1562-8.1953 0.52344-0.47266 0.36719-1.1523 0.26172-1.7305-0.26172-1.2617 0.42188-1.7891 1.418-2.418 1.3164-0.83984 3.1562-1.3672 2.4727-3.8359-0.26563-0.94531 0.94531-2.5195 1.9453-2.8359 1.7344-0.52344 2.207-1.8398 2.7305-3.1523 0.68359-1.6289 1.2109-3.4141 2.207-4.9375 0.63281-0.99609 0.52734-2.207-0.21094-3.2031-0.78516-1.1055-7.0938-2.5234-7.8281-1.5234-1.2617 1.6797-3.5234 2.4688-4.207 4.4648-1.3125 3.8359-4.2578 6.7227-5.9922 10.402-1.6289 3.5195-3.3633 7.1953-6.6211 9.7148-0.52734 0.37109-0.78906 1.3164-0.94531 2.0508-0.68359 3.6758-2.8398 6.7773-4.1523 10.191-0.42188 1.207-1.2617 2.2578-1.7891 3.4648-1.6289 3.4688-2.2578 7.5117-5.7266 9.9297-0.57812 0.36719-0.42188 1.1016-0.63281 1.6289-0.99609 2.3125 0.10547 5.043-1.7344 7.1953-1.2617 1.4727-3.1016 2.8906-1.9961 5.3594 0.050782 0.15625-0.10547 0.68359-0.21094 0.68359-1.9453 0.31641-2.1016 2.0469-2.6797 3.4648-0.52734 1.2109-1.7891 1.9453-2.6289 1.6289-1.2617-0.47266-0.47266-1.9961 0-2.6797 1.1055-1.5234 0.68359-2.7305-0.21094-4.043-1.1016-1.5781-0.94531-3.2578 0-4.832 0.21094-0.31641 0.63281-0.36719 0.42188-1-0.63281-1.8359 0.62891-3.5703 0.52734-5.5156-0.16016-2.1016 2.207-3.9922 0.78516-6.3555-0.10547-0.15625 0.16016-0.68359 0.37109-0.83984 1.5742-0.94531 1.7344-2.5742 2.4141-4.0977 0.89453-2.0508 1.0547-4.4648 2.3672-6.1484 1.7344-2.1523 1.4727-4.9375 2.9414-7.0898 1.4219-2.0508 1.3164-4.6758 1.7891-6.9336 0.62891-2.7852 2.5742-5.832 0.36719-8.9297-1.3125-1.8398-2.8906-3.4141-4.4688-4.9375-0.73438-0.68359-1.8398-1-2.9414-0.42188-3.207 1.6797-6.9375 2.5195-8.043 6.8828-0.47266 1.9961-2.3125 3.625-1.0508 5.9883 0.16016 0.3125-0.47266 0.94531-0.42187 1.418 0.26562 3.5703-3.2031 5.5664-3.625 8.9805-0.10547 1.2109 0.36719 2.2617 0.054687 3.4688-1.5273 5.9883-4.418 11.609-5.5195 17.754-0.054688 0.31641-0.31641 0.73828-0.57812 0.84375-1.8398 0.62891-2.6289 2.2031-3.418 3.7266-1.207 2.3125-3.3633 3.6797-5.0469 5.5156-0.41797 0.52734-1.3633 0.84375-0.99609 1.6836 0.99609 2.3633-0.83984 1.9414-1.7891 1.6289-1.7852-0.52734-2.1016 0.26172-1.8906 1.6289 0.15625 0.89062 0.36719 1.7305-0.73438 2.0977-2.5234 0.78906-4.1523 2.6797-5.5742 4.6758-1.3125 1.9453-4.1523 2.1016-4.9414 4.5703-0.050782 0.10547-0.52344 0.21094-0.67969 0.10547-1.3164-0.99609-1.5781 0.52734-2.3125 0.89453 0 0.10547 0.050782 0.26172 0.10156 0.36719 0.054687 0.26172 0.10547 0.52344 0.16016 0.78906 0-0.26563-0.10547-0.52734-0.16016-0.78906-0.050781-0.10547-0.050781-0.26172-0.10156-0.36719-1.0547-0.16016-2.2109 0.68359-3.2617-0.26172-0.050782-0.78906 0.10547-1.7344-1.0508-1.8945-0.36719-0.78516-0.73438-1.5742-1.1562-2.3086-1.1562 0.57812-1.2617 1.5234-0.99609 2.3086-0.26562-0.83984-0.21094-1.8359 0.99609-2.3633 1.2109-2.6797 0.63281-5.5156 0.47266-8.2461-0.050781-1.1562 0-1.9453 0.84375-2.625 1.207-1 1.8398-2.0508 0.99609-3.625-0.26172-0.47266 0.054688-0.94531 0.26562-1.4727 0.83984-2.1016 1.7852-4.1484 2.2578-6.3047 0.94531-4.3594 2.7852-8.4023 3.207-12.867 0.10547-0.94531 0.89453-1.6836 2.0508-1.6289 0.3125-1.1055 0.99609-1.8906 2.0469-2.3125-0.050781-0.050781-0.10547-0.10547-0.10547-0.15625 0.054688-0.10547 0.054688-0.26562 0.10547-0.36719-0.3125-0.26563-0.52344-0.57813 0.16016-0.84375 0.73437-2.2578 2.6797-3.9375 2.6797-6.5664 0-1.8906 0.78906-3.4141 2.5742-4.5156 1.1055-0.68359 2.6797-1.7852 2.1016-3.1523-0.62891-1.5234 0.054688-2.3633 0.73828-3.2031 1.3672-1.7344 3.4688-2.9961 2.9414-5.6758-0.050782-0.15625 0.21094-0.47266 0.42188-0.57812 2.5234-1.1016 2.6289-3.6758 3.3633-5.7773 0.57812-1.5742 0-3.2578-1-4.6211-0.78516-1.0508-2.1523-0.84375-3.1523-0.42188-1.9961 0.83984-4.1523 1.207-5.832 2.5742-1.2617 0.99609-2.9453 2.1016-3.2617 3.4688-0.62891 2.5742-2.5195 4.4648-2.7852 7.1406-0.050781 0.68359-1.6289 0.84375-1.8906 1.9453-1.2109 4.7266-3.2578 8.9844-6.5195 12.66-0.3125 0.31641-0.26172 0.94531-0.41797 1.418 0.36719 0.68359 0.57812 1.3672 0.52344 2.1016 0.054688 0 0.16016 0.050782 0.21094 0.10547-0.050781-0.054687-0.15625-0.054687-0.21094-0.10547 0.054688-0.73437-0.15625-1.418-0.52344-1.9961-1.2617 0.10547-1-0.62891-1.0508-1.4727 0.050781-2.7305 0.89062-5.0938 2.7852-7.0391-0.36719-0.94531-1.8945-0.89062-1.4727-2.4688 0.36719-1.5742-0.26172-3.4141 0.21094-4.9883 1.6797-5.832-2.5234-9.4023-5.5195-12.977-2.1562-2.625-6.3594-1.8359-9.6172-1.418-1.1562 0.15625-2.418 0.78906-3.6797 0.62891-4.4141-0.52344-8.4102 1.8945-12.719 1.7891-0.16016 0-0.26562 0.20703-0.42188 0.26172-2.5742 1.2617-4.2031 3.6758-6.7812 5.1484-3.6758 2.1016-6.0938 6.1445-8.0391 9.9805-2.1562 4.3086-3.6797 8.9297-6.9375 12.605-0.31641 0.37109-0.52734 0.73828-0.57813 1.3164-0.16016 2.0469-1.2109 3.5195-3.2617 4.1484 1.1562 1.6289 0.84375 2.9414-0.78516 3.9922-0.52734 1.9453-2.6836 3.1523-2.9453 4.832-0.73438 5.0977-3.5742 9.3008-5.1523 14.027-0.3125 0.83984-0.73438 1.7852-0.15625 2.7305 0.63281 1.0508 0.10547 1.9961-0.10547 3.1016-0.57812 2.7812-1.9961 5.4609-1.0508 8.457 0.15625 0.62891 0.054688 1.207-0.42188 1.7344-1.1016 1.2578-0.78516 2.5703-0.10156 3.8867 0.67969 1.3125 1.2578 2.625 1.1016 4.2031-0.050781 0.89062 0.47266 1.625 0.94531 2.3633 2.1055 3.1523 5.5742 4.043 8.7773 5.25 1.5781 0.63281 3.4688-0.57422 5.0469-1.5234 0.26172-0.15625 0.73437-0.3125 1-0.20703 2.6797 1.1016 3.5195-1.3125 4.9375-2.5742 0.16016-1.1055 1.3672-1.418 1.7891-2.418 0.42188-1.1562 1.3125-0.99609 1.5781 0.36719 0.78516-0.050781 1.3125-0.41797 1.8906-1.1016 1.207-1.5234 2.4688-3.2031 4.1016-4.0469 3.3086-1.7852 4.0977-6.1445 7.9336-7.3008 0.26562-0.10547 1.1055-1.0508 1-1.9414-0.054687-0.78906 0.68359-1.3672 1.1562-1.5781 3.4688-1.6797 5.2031-4.9375 7.5664-7.668 2.2109-2.4688 4.1523-5.0977 5.7305-8.0898 0.94531-1.7891 1.5781-3.8359 3.207-5.2031 3.0469-4.5156 4.5195-9.9258 8.25-14.078 1.2617 0.26562 0.42188 1.4727 1 2.0508 0.10547 0.41797 0.15625 0.89062 0.26172 1.3125v0.15625c-0.68359-0.050781-1.0508 0.26562-1.3125 0.83984h-0.054687c-0.15625 0.054688-0.47266 0.10547-0.47266 0.16016-0.83984 4.043-4.2031 6.7227-5.4648 10.504 0.26172 0.84375 0.36719 1.5781-0.050782 2.4688-2.3164 4.5703-2.9961 9.668-4.0508 14.555-0.78516 3.4648 0.054688 7.3008-1.0508 10.871-0.050781 0.26562 0.37109 0.63281 0.42188 0.94531 0.21094 0.94531 0.73438 1.9453 0.52734 2.7852-0.89453 3.5195 1.6289 5.6719 3.3086 7.9844 1.7891 2.4688 5.2031 2.8359 7.7812 3.7812 2.3633 0.84375 5.7266-0.52344 8.4609-1.418 3.5195-1.1562 7.0938-2.3633 9.1445-5.8828 0.10547-0.26172 0.57812-0.41797 0.89453-0.47266 1.9453-0.36719 2.7344-1.8398 3.5195-3.4141 0.84375-1.6797 1-3.8359 3.3125-4.4648 3.418-1 4.5742-4.5195 6.2031-6.8828 1.8906-2.7812 2.4688-0.52344 2.8359 0.10547 0.78906 1.3672 1.9453 2.7852 0.94922 4.7812-0.89453 1.6797 1.5742 3.625 0 5.4648 0 0.050782 0.20703 0.3125 0.3125 0.3125 1.7891-0.26172 1.6836 1.3672 2 2.207 0.89062 2.207 2.207 3.3633 4.625 3.9922 2.1523 0.57812 4.7305 0.94531 6.043 2.9961 0.83984 1.3125 1.7344 1.2578 2.8398 1.207 3.9414-0.21094 4.8867-4.5703 8.0391-5.8828 0.10547-0.054688 0.10547-0.47266 0.054688-0.73828-0.47266-2.3633 1.1562-3.7812 2.625-4.9375 1.4219-1.0508 2.8398-1.9961 3.5234-3.6758 1-2.3125 3.8906-3.2031 4.6758-5.1992 0.84375-2.1016 2.3672-3.4688 3.6289-4.9922 1.1562-1.418 1.5781-3.4648 3.5742-4.3086 3.4688-1.4688 4.8867-5.6719 8.7227-6.7227 0.054687 0 0.054687-0.15625 0.10547-0.21094 2.0508-2.8359 4.6797-5.1992 6.6758-8.1953 1.1562-1.7852 3.207-3.9922 4.7852-4.5156 2.5195-0.83984 3.7812-3.4141 6.4102-3.6797 0.31641-0.050781 0.83984-0.52344 0.89453-0.83984 0.41797-3.4648 3.207-3.9922 5.832-4.5703 0.63281-0.15625 1-0.15625 1.4219-0.68359 0.3125-0.41797 0.57812-1.2578 1.3125-0.89062 0.73437 0.41797 1.5234 0.99609 1.6289 1.9414 0.054687 0.73828-0.050782 1.5234-0.15625 2.3125-0.47266 3.1016 1.5742 7.0938 4.4141 7.9336 2.9453 0.83984 5.625 1.9414 9.0938 1.3125zm-137.55-22.957c-0.67969 4.3086-1.8906 8.5625-3.5195 12.609-0.52734 1.3633-2.4688 1.8906-3.3125 3.3594-0.57812 1.0508-1.1562 1.7344-0.99609 3.207 0.20703 2.0469-1.8398 3.5195-2.9961 5.1484-0.57812 0.89062-1.3672 1.207-0.68359 2.5742 0.52344 1.1016-0.52734 1.9414-1.4219 2.6758-1.7344 1.4727-4.5195 1.8945-4.6758 4.8867-3.8906 1.1016-3.7852 5.5703-6.5195 7.668-2.8359 2.1562-5.6211 4.3633-8.4062 6.5156-0.47266 0.36719-1.0508 0.62891-1.0508 1.3672-0.054688 1.418-1.0547 2.1016-2.1055 2.7812-1.9961 1.3164-3.9922 2.6797-5.7812 4.3633-1.4688 1.418-3.3086 0.15625-4.9414 0.15625-1.3633 0-0.52344-1.8906-0.89062-3.3633 1.9453-4.0977 0.83984-9.1406 2.7305-13.762 0.73828-1.5781 1.7344-3.4141 1.3672-5.4102-0.10547-0.52734 0-1.2617 0.73828-1.5234 1.1562-0.42188 1.1016-1 0.26172-1.7852-0.57812-0.57812-0.15625-1 0.31641-1.5234 2.1016-2.3125 2.9414-5.3086 3.8359-8.1445 0.68359-2.207 1.4727-4.1484 3.3125-5.3047 2.6797-1.6797 2.4141-4.832 3.8867-7.0938 2.0508-3.1484 3.9414-6.5664 6.5703-9.2969 1.2109-1.207 1.7344-2.7305 2.7852-4.043 1.8398-2.2617 4.8359-3.3633 6.0977-6.3047 0.36719-0.78906 2.3672-1.8906 4.0469-1.1562 1.4727 0.62891 3.0508 0.68359 4.3633 0.050782 2.2578-1.0508 3.8359-0.26172 4.7305 1.6836 0.89453 2.0469 3.3633 2.9414 3.6797 5.5156 0.21094 1.7852-1.1562 2.625-1.4219 4.1484zm10.199 12.449c0 0.42188 0.21094 0.89453 0.15625 1.3164 0-0.42188-0.21094-0.89453-0.15625-1.3164zm0.3125 49.117c0 0.054688 0.054687 0.054688 0 0 0.054687 0.054688 0 0.054688 0 0zm1.2109 0.57812c-0.21094-0.050781-0.36719-0.10547-0.57812-0.15625 0.21094 0.050781 0.36719 0.10547 0.57812 0.15625zm-0.73438-0.26172c-0.054687-0.054687-0.10547-0.054687-0.16016-0.10547 0.054688 0.050781 0.10547 0.10547 0.16016 0.10547zm1.3125 0.31641c0.42188 0 0.73438-0.054688 0.89453-0.21094-0.16016 0.15625-0.47266 0.21094-0.89453 0.21094zm1.207-0.57812c0.054687-0.10547 0.054687-0.21094 0.054687-0.31641 0 0.10547-0.054687 0.21094-0.054687 0.31641z" fill="#fe9c64"/>
 <path d="m700.06 480.88c-2.4688-0.78906-2.7852 0.52344-2.5234 2.4688 0.78906-0.89453 2.418-0.89453 2.5234-2.4688z" fill="#fe9c64"/>
 <path d="m683.34 493.86c1.4727-0.20703 1.3672-1.3633 1.4727-2.4141-2.0508-0.16016-1.5234 1.2617-1.4727 2.4141z" fill="#fe9c64"/>
 <path d="m666.95 508.51c2.0508 0 1.9453-1.5742 2.1016-2.9414-1.5234 0.42188-1.1016 2.207-2.1016 2.9414z" fill="#fe9c64"/>
 <path d="m1064.8 482.62c0.94531-0.054688 1.7344 0.67969 2.7344 0.36719-0.63281-2.207-1.6836-1.418-2.7344-0.36719z" fill="#fe9c64"/>
 <path d="m399.21 514.61c0.10547-0.78516 0.57812-0.99609 1.2617-1.0508 2.0508-0.15625 3.207-1.1523 4.5195-2.9414 1.8945-2.4688 3.0508-5.8281 6.5195-6.9336 0.26172-0.050782 0.31641-0.62891 0.57813-0.83984 2.7344-2.0469 3.5195-6.1992 7.4102-7.0391 0.57812-0.15625 0.78906-0.62891 0.78906-1.207 0.10547-3.8359 3.4141-5.8867 4.9922-8.8789 0.57812-1.1562 2.1016-2.1016 2.7852-3.3633 1.8398-3.3594 4.9414-5.9336 5.9922-9.7695 0.89453-3.0977 3.5234-5.2539 4.5195-8.4062 1.2109-3.9922 4.3633-6.9844 5.9922-10.82 0.63281-1.5742 2.3125-3.5195 2.0508-4.4648-0.78906-2.7305 0.47266-3.8867 2.3125-5.0977 1.3125-0.89062 1.6836-2.0469 1.1562-3.6211-0.36719-1.1562-1-2.3125-0.62891-3.5742 0.3125-1.1562 0.89062-2.418-0.42188-3.3086-1.3672-0.94531-2.7344-0.26172-3.8906 0.57813-0.89453 0.68359-2.7305 0.41797-2.2578 2.5195 0.15625 0.68359-0.94922 0.89453-1.6289 1.0508-1 0.21094-1.7891 0.73828-2.1562 1.7344-0.73437 1.9453-1.6289 3.8359-2.2617 5.832-0.99609 3.2578-3.3633 5.7773-4.8867 8.7734-0.62891 1.207-1.7852 2.2578-1.1562 3.5195 0.73438 1.418-0.050781 1.6797-0.94531 2.2031-1.7891 1.1562-3.7344 2.3125-1.8398 4.5195-0.36719 1.6797-1.9453-0.52734-2.0508 0.94531-0.10547 1.3672-1.2617 1.7852-1.8906 2.625-0.89453 1.2109-2.1562 2.3672-2.418 3.6797-0.57812 3.0469-1.8945 5.4102-4.3633 7.1953-1.5781 1.1562 1.1562 2.3125-0.15625 3.4688-1 0.83984-2.5234-0.73828-3.418 1.0508-1.6836 3.3594-3.3125 6.8281-6.832 8.7695-0.42187 0.21094-0.57812 0.63281-0.52734 1.1055 0.26562 1.9961-1.1016 3.3086-2.5742 3.8359-2.5742 0.94531-3.207 3.4648-5.0469 4.8828-2.6797 2.0508-4.3086 5.2031-7.043 7.0938-2.6797 1.8359-4.625 4.5156-7.4102 6.3008-1.2617 0.78906-2.7852 1.8945-3.625 3.1523-0.84375 1.2617-1.8398 1.6836-2.8906 2.418-3.207 2.2578-5.9922 5.1484-9.8281 6.5664-0.26562 0.10547-0.63281 0.36719-0.73828 0.68359-1.1016 2.8867-4.2031 3.1523-6.3594 4.5703-0.78906 0.52344-2.3125 0.10547-1.7852 2.1016 0.10156 0.57812-1.2109 2.8867-3.3125 2.4141-1.5234-0.36719-1.3672 0.73828-1.418 1.6836 0.41797-0.054688 0.62891-0.26562 0.83984-0.47266-0.21094 0.3125-0.47266 0.62891-0.94531 0.83984-1.1055 0.47266-2.1562 0.99609-3.2617 1.4688-0.52344 1.2109-1.6289 1.0508-2.6797 1.0508 0 0-0.050782 0.054687-0.050782 0.054687v-0.16016c-0.73828 0.16016-1.3164 0.42188-1.418 1.2109 0.83984 0.52344 1.207 0.36719 1.3633 0-0.050781 0.62891-0.3125 0.99609-1.4688 0.36719-2.3672-0.63281-3.418 1.7344-5.2031 2.3125 0.050781-0.10547 0.050781-0.21094 0.10156-0.31641-0.62891-0.054688-1.0508 0.15625-1.207 0.78906 0.52734 0.10156 0.89453 0 1.1055-0.37109-0.10547 0.57812-0.47656 0.78906-1.0547 0.73828v-0.31641c-0.67969 0.15625-1.418 0.26172-1.4688 1.1562 0.57813 0 1.1562 0 1.3672-0.42187-0.10547 0.73828-0.78906 0.68359-1.4727 0.73828 0.050781-0.10547 0.050781-0.21094 0.10547-0.31641-0.89453 0.26172-1.7891 0.57813-2.2617 1.4688 0.89453 0 1.7344-0.10547 2.1016-0.94531-0.26172 1.1562-1.1562 1.3164-2.207 1.2617-4.8359 1.9961-9.6172 3.9922-14.453 5.9883 0.050781-0.10547 0.050781-0.21094 0.050781-0.31641-0.67969 0.10547-1.418 0.21094-2.1016 0.31641 0 0.42188-0.050781 1 0.52734 0.94531 0.62891-0.050781 1.1562-0.21094 1.418-0.73437-0.15625 0.78906-0.78906 0.99609-1.5234 1.0508-0.52734 0-0.47266-0.52734-0.52734-0.94531-1.1016 0.41797-2.207 0.89062-3.4141 0.68359h-0.054688c-0.21094 0.15625-0.47266 0.3125-0.73438 0.47266-0.63281 1.5742-3.5742 3.3594-5.0977 3.1523-1.3164-0.21094-2.6797-0.37109-4.0469-0.57812-0.78906-0.10547-1.2617-0.47266-1.1055-1.3672-0.26172-0.10547-0.52344-0.15625-0.73438-0.21094 0-0.10547 0-0.21094-0.054688-0.31641-0.94531 0.054687-1.3125 1.5781-2.5742 1.1055 0 0.73438 0.42188 1.1562 1.1562 0.94531 0.73438-0.15625 1.2109-0.52734 1.3672-1.1562-0.10547 0.73438-0.63281 1.207-1.418 1.418-0.73828 0.21094-1.1055-0.21094-1.1562-0.94531-0.21094-0.050781-0.37109-0.15625-0.52734-0.21094-0.68359 1.418-1.4727 0.47266-2.207 0.10547l-0.15625 0.16016-0.21094-0.10547c-0.52734 0.20703-0.94531 0.94531-1.5781 0.26172-0.52344-0.10547-1.1016-0.21094-1.6289-0.31641-1.2617 1.5234-1.3672 1.5234-3.7305-0.73437-1.2617 0-2.4727 0.050781-3.7344 0.050781-0.99609 2.207-2.4688-1.5234-3.4688 0.26562-0.26172-0.84375-0.68359-1.6289-0.47266-2.418-0.050781 0.73438 0.31641 1.4727 0.52734 2.1523 0.99609-1.7852 2.4688 1.9453 3.4688-0.26172 0.57813-3.1523-2.3672-1.9414-3.5742-2.8867-0.054688 0.050781-0.054688 0.050781-0.054688 0.10156-0.15625-1.1523-1.6797-1.5234-1.6289-2.7305 0.16016-3.2031-1.6289-6.1992-0.62891-9.4531 0.73438-2.3125 0.78906-4.9414 1.9453-6.9375 0.83984-1.4688 1.1016-2.7305 1.2617-4.2539 0.20703-1.9961 0.62891-3.8359 2.9414-4.7266 1.8398-0.68359 3.207-1.9453 5.4141-2.4688 3.5195-0.83984 6.6758-3.4141 10.668-3.3633 0.26563 0 0.57813-0.15625 0.73828-0.31641 2.3125-2.2578 5.3594-3.4648 7.7266-5.6211l0.15625-0.050781c0.050782 0.10547 0.050782 0.21094 0.050782 0.26172 0-0.10547 0-0.21094 0.054687-0.3125l0.050781-0.054688c0.054688-0.52344 0.16016-1.0508 0.37109-1.4688-0.16016 0.36719-0.21094 0.83984-0.26562 1.3125 1.1562 0.10547 1.8945-0.78906 2.6289-1.3125 0.94531-0.73828 0.62891-1.4727-0.62891-1.5781h-0.054687c0.31641-0.68359 0.68359-1.1562 1.6836-0.89453 1.5742 0.37109 2.8906-0.62891 3.1523-1.8906 0.57812-2.625 3.5742-3.1523 4.2578-5.5664 0.10547-0.31641 0.89453-0.73437 1.3125-0.63281 2.4727 0.47656 2.5234-1.1523 2.6797-2.7812 0.10547-1.2617-0.050781-2.7852 2-2.6289 0.26172 0 0.62891-0.41797 0.73438-0.67969 1.1562-3.3125 3.3633-5.832 5.5703-8.4062 0.57813-0.68359 0.84375-1.5234 1-2.5742 0.78906-5.4648 0-10.98 0.73438-16.441 0.054687-0.42188-0.15625-0.83984-0.20703-1.2617-0.42188-3.6758-3.5234-4.0977-6.1523-5.0977-2.9961-1.1523-4.2031-0.36719-4.4648 2.8906-0.054688 0.73438 0.10547 1.5234 0.15625 2.3125h0.050781c-0.15625 0.73438-0.050781 1.2617 0.68359 1.6289 0 0.050781 0 0.050781-0.050782 0.10547v0.050782h0.050782c-0.36719 0.78906-0.57812 1.418-0.41797 2.418 0.41797 1.7852 0.21094 3.625-0.89453 5.25-0.050782 0.16016-0.050782 0.26562 0.050781 0.42188 0.054687 2.7852 0.16016 5.5703-1.6289 7.9336 1.6836-0.16016 2.7852-0.42188 3.3125-1-0.52734 0.57812-1.6289 0.89453-3.3633 1.0508-0.054688 0.15625-0.10547 0.26172-0.10547 0.36719-2.1016 0.89453-2.3125 2.418-1.418 4.3086 0.47266-0.15625 0.89062-0.36719 1.2617-0.62891-0.37109 0.3125-0.78906 0.52344-1.3164 0.67969-0.10547 0.10547-0.15625 0.21094-0.15625 0.37109-1.3164-0.16016-2.7852-0.78906-3.6797 0.62891-1.0508 1.6797-1.9961 3.5195-2.9961 5.2539 0.42188 0.21094 0.89453 0.62891 1.3125 0.83984-0.47266-0.15625-0.94531-0.62891-1.418-0.83984-1.1016 1.6289-2.6289 2.7852-4.0469 4.043-1.3125 1.1055-3.1523 1.418-4.2031 2.5234-2.1055 2.1523-3.7852 4.3594-6.8359 5.7266-2.1016 0.99609-3.8359 2.8359-6.5156 2.8359-1.3125 0-1.9453 1.9414-3.6797 1.5234 0.26172-1.7344 2.8398-2.6289 1.6289-4.7305-0.050781-0.050781 0.63281-0.47266 0.94531-0.73438 2.1562-1.9961 3.2617-4.7812 4.5234-7.3008 1.1016-2.207 2.1016-4.6211 3.5195-6.5664 1.7891-2.3633 3.8359-4.6758 6.3086-6.5156 1.418-1.0508 2.1016-2.3086 1.5234-4.2539-0.21094-0.83984-0.78906-2.8359 1.6289-1.9414 0.47266 0.15625 0.78906-0.16016 0.83984-0.68359 0.42188-2.8906 2.3672-4.7812 4.207-6.7266 0.73438-0.83984 1.9453-1.3125 2.1016-2.5742 0.21094-1.5234 1.207-1.8906 2.4688-2.2031 1.8945-0.47266 5.2578-5.4648 5.1016-7.4102-0.16016-1.3633-1-1.9414-2.2109-2.2031-3.0469 0.36719-6.1992 0.15625-8.8828 2.1016-0.57813 0.41797-1.3633 0.62891-2.1523 0.36719 0 0-0.054688 0-0.054688-0.054688h-0.050781l-0.10547 0.054688c-2.5742 0.78516-2.6797 3.4648-3.7852 5.3555 0.89453 0.52734 1.6289 0.57812 2.2617 0.37109-0.63281 0.26172-1.4219 0.26172-2.418-0.31641-1.1562 0.15625-2.5742 0.15625-2.6289 1.6289-0.10547 4.3047-4.4688 5.7773-5.832 9.2969-0.68359 1.7852-2.0508 3.4688-3.207 5.043-2.2617 3.0469-3.1016 7.1445-6.5195 9.3516-1.3633 0.89062-2.0469 1.6289-1.1016 3.3086 0.36719 0.73438 0.47266 1.8398-1.0508 2.3633-1.8945 0.62891-3.8398 4.3086-3.7852 6.1992 0 1.1016-0.42188 1.8906-1.6836 1.8398-0.99609-0.054687-1.418 0.47266-1.207 1.4688 0.83984 4.0977-2.3125 6.3047-4.3633 8.9844-0.26172 0.3125-0.94531 0.3125-1.4727 0.41797-2.6797 0.47266-4.7812-1.207-7.1992-1.7852-0.73438-0.15625-1.3672-1.1562-1.1055-1.8906 1.4219-4.2031 2.6289-8.6133 4.7852-12.449 0.73438-1.3125 0.36719-2.7852 1.3672-3.8867 1.8906-2.1016 3.1523-4.5703 3.3633-7.5117 0.050781-0.73828 0.36719-1.5234 1.1562-1.9453 0.83984-0.47266 1.3125-1.3125 1.3125-2.1523-0.050781-2.2617 1.3164-3.8359 2.418-5.6211 0.89453-1.4727 2.207-3.207 1.5781-4.8867-0.47266-1.207-0.63281-2.3633-0.054688-3.1523 2.0508-2.8867 0.37109-4.5703-1.6797-6.25-1.8398-1.4727-5.625-1.7852-7.7266-0.62891-2.8398 1.5234-4.8359 3.6211-5.5195 6.9336-0.15625 0.99609-0.62891 2.1016-1.6289 2.8867-1.2109 0.94531-1.9453 2.2617-1.5234 4.0469 0.3125 1.2617-0.42188 2.2578-1.6289 2.8867-1 0.52734-2.1562 1.0508-2.207 2.3672-0.16016 2.9414-1.5781 5.25-2.8398 7.8242-1.5234 3.0469-4.4688 6.2539-2.5742 10.352 0.15625 0.41797-0.10547 0.89062-0.42188 1.3633-1.418 2.418-0.47266 5.7812-3.1523 7.7227-0.16016 0.10547 0 0.62891-0.054688 1-0.68359 4.4648-1.5234 8.8242-5.832 11.449-0.52734 0.31641-1.0508 0.94531-0.78906 1.5234 1.0508 2.4688-0.78906 3.3086-2.3125 4.2578-0.89453 0.52344-1.2617 1.418-1.8398 2.1523-0.63281 0.83984-1.0508 2.1016-2.418 1.8906-0.94531-0.15625-3.3125-4.6211-2.8906-5.3047 1.2617-1.8906 1.5781-3.7812 0.78906-5.9375-0.21094-0.52344-0.16016-1.3125 0.3125-1.7344 1.8945-1.6797 1.6328-3.7812 1.2617-5.9336-0.15625-0.94531 0.10547-1.8906 0.37109-2.8359 0.78516-2.8398 1.9414-5.5703 1.7344-8.668-0.21094-2.7852 0.99609-5.3086 2.1523-7.7227 0.89453-1.8906 1.8398-3.5742 1.4727-5.832-0.21094-1.3125 0-2.8359 1.1562-3.9922 1.3125-1.3125 2.3672-2.7305 1.4727-4.832-0.36719-0.78906-0.10547-1.7344 0.57812-2.418s0.78906-1.3125 0.47266-2.3086c-0.47266-1.6289 0.050782-3.8359 1.3125-4.2031 1.7891-0.57812 1.6836-1.6289 1.9453-2.7852 0.73438-3.2578 1.9453-6.3555 3.6797-9.0898 1.2617-1.9414 0.15625-3.0977-0.47266-4.4648-0.73828-1.4688-2.0508-1.3125-3.418-0.78516-1.1016 0.41797-2.1523 0.73438-3.4688 0.73438-2.6289 0-4.0977 2.1523-4.1523 4.9883-0.050782 1.3672 1.0508 3.1523-0.78906 4.2578-1.6797 0.99609-2.4688 2.625-2.625 4.3047-0.26562 2.9961-1.6289 5.6758-2.9453 8.0898-2.3633 4.3633-3.8867 9.2461-4.0977 13.711-0.16016 4.4648-2.6836 8.0898-2.6836 12.504 0 1.9453-1.1562 4.5195-1.7344 6.8281-0.57813 2.1016-1.8906 4.2031-1.7852 6.1484 0.21094 3.2031 0.42188 6.1445-1.3125 8.9805-0.10547 0.21094 0 0.68359 0.15625 0.94531 0.57812 1.1055 0.68359 2.1016-0.42188 2.9961-0.78906 0.62891-0.68359 1.6289-0.26172 2.4141 0.57812 1.1562 0.73437 2.2617 0.36719 3.5195-0.15625 0.52734-0.78906 1.7891 0.84375 1.8945 0.47266 0 0.52344 0.78516 0.52344 1.3125 0.054688 2.5742 3.5742 6.9844 6.1484 7.6172 3.9414 0.99609 10.039-1.2617 12.457-4.5703 0.63281-0.89453 1.0508-2.3125 2.3125-2.3633 3.207-0.16016 3.8359-2.8398 5.1523-4.8359 0.41797-0.62891 0.57812-1.5234 1.3125-1.8906 1.8945-0.94531 3.8359-1.7852 3.9414-4.3594 0-0.36719 0.37109-0.47266 0.73828-0.57812 2.6797-0.83984 5.5703 0.68359 8.1992-0.83984 0.15625-0.050781 0.62891 0.15625 0.68359 0.31641 1.0508 2.3633 3.1523 1.418 4.7812 1.3633 1.3125 0 1.7344 0.10547 1.418 1.4727-0.62891 2.7305-1.207 5.4609-1.8398 8.1406-0.15625 0.63281-0.050781 1.1055 0.37109 1.418 1.1562 0.78906 0.83984 1.4727 0 2.2617-0.57812 0.52344-0.63281 1.3125-0.42188 1.9414 0.68359 1.8906 0 3.625-0.52734 5.3594-0.3125 1.1562-0.20703 2.3633-0.26172 3.5195-0.26172 3.5703 2.0508 5.7266 3.7344 8.2461 1.5234 2.2617 3.2031 4.4141 5.5156 5.8828 1.2109 0.73828 3.4688 1.6836 3.9961 1.2109 1.6797-1.5781 2.1016 0.26172 3.0469 0.57813 0.42188 0.15625 0.78906 0.52344 1.2109 0.52344 4.4648 0.10547 8.9336 0.26172 13.402 0.16016 2.4688-0.054687 4.7812-1.5781 7.4102-0.94922 0.68359 0.16016 1.418-0.050781 1.7891-0.78516 0.41797-0.83984 1.1562-1 1.9961-0.89453 2.4688 0.31641 4.7812 0.15625 7.1484-1.0508 3.6797-1.8906 8.1992-1.2617 11.773-3.7812 1.6289-1.1562 3.625-2.1016 5.6211-2.4688 1.8945-0.36719 3.8398 0 4.418-2.5234 0.050782-0.3125 0.83984-0.78516 1.2617-0.73438 4.2539 0.52734 6.0938-3.5703 9.5117-4.8867 2.3633-0.89062 4.4688-2.9922 6.832-4.4102 2.0508-1.207 4.5195-2.3125 5.5195-4.832v-0.054687 0.054687c0.89453 0 1.7852 0.050781 2.2617-0.89453 0.15625 0 0.26172-0.10547 0.36719-0.21094-0.054687-0.78906 0.10547-1.418 1.0508-1.4688 0 0 0-0.054687 0.050781-0.054687 2.5234 0.10547 3.8398-2.0469 5.7812-3.0977 0 0 0.054687 0 0.054687 0.050782 0.36719-2.5742 2.6797-2.3633 4.3633-2.9922-0.47656-0.52734-0.89453-1.0508-1.4219-1.6289h0.054687c0.52344 0.62891 0.99609 1.0508 1.3672 1.5742 1.6289-0.62891 2.8359-1.6797 3.5195-3.3086 0.68359-0.21094 1.3672-0.47266 1.7344-1.1016 1.7344-3.0469 5.3633-3.9414 7.4648-6.6719 0.89062-1.1562 2.4688-1.8906 2.9414-3.5742 0.10547-0.3125 0.57812-0.73438 0.94531-0.78516 1.6328-0.21094 2.2109-1.3672 2.418-2.8398zm-71.793-37.559c0.10156 0.10547 0.15625 0.21094 0.20703 0.31641-0.050782-0.10547-0.15625-0.21094-0.20703-0.31641zm17.027 66.977c0.15625-0.050782 0.26172-0.10547 0.36719-0.10547-0.10547 0-0.21094 0.054687-0.36719 0.10547 0.10547 0.10547 0.15625 0.31641 0.26172 0.36719h-0.050781c-0.10547-0.050781-0.16016-0.20703-0.21094-0.36719z" fill="#fe9c64"/>
 <path d="m315.8 461.23c2.6797-1.9414 5.832-1.7344 8.8828-2.1016-0.68359-2.1523-2.3125-1.5742-3.7852-1.2578-0.57812 0.10156-0.89453 0.73438-1.6289 0.57422-3.1016-0.67969-4.2578-0.050781-5.7305 3.1016 0.84375 0.36719 1.6836 0.10547 2.2617-0.31641z" fill="#fe9c64"/>
 <path d="m309.49 557.11c-1.207 0.73438-2.625 0.83984-3.9414-0.054688-0.15625 0.89453 0.31641 1.2617 1.1055 1.3672 1.3125 0.21094 2.6797 0.36719 4.0469 0.57812 1.5234 0.21094 4.4648-1.5781 5.0977-3.1523-0.63281-0.15625-1.1055 0.15625-1.5781 0.52344-0.10547 0.21094-0.26172 0.31641-0.47266 0.054687-1.4727-0.10547-2.8906-0.15625-4.2578 0.68359z" fill="#fe9c64"/>
 <path d="m235.91 468.06c-2.8906 1.3672-3.1016 2.0508-1.6836 5.2031 0.68359-1.6836 2.3672-3.0469 1.6836-5.2031z" fill="#fe9c64"/>
 <path d="m206.37 453.93c0.94531 0.15625 1.418 1.7852 2.2617 1.1562 0.89062-0.57812 0.3125-1.8906 0.26172-2.8906 0-0.31641-0.21094-0.62891-0.31641-0.94531-0.94531 0.68359-1.7344 1.5234-2.207 2.6797z" fill="#fe9c64"/>
 <path d="m174.46 375.71c0.41797-1.6797 3.1016-1.6797 2.8359-3.8359-2.418 0.21094-2.8359 1.8398-2.8359 3.8359z" fill="#fe9c64"/>
 <path d="m292.09 557.05c2.3633 2.2617 2.4688 2.2617 3.7305 0.73828-1.1055-1.0508-2.3672-1.0508-3.7305-0.73828z" fill="#fe9c64"/>
 <path d="m204.84 457.88c1.8398-0.63281 1.6289-1.9961 1.1562-3.3633-0.68359 0.99609-0.94531 2.1523-1.1562 3.3633z" fill="#fe9c64"/>
 <path d="m351.06 540.03c-1.418-0.94531-2.2578-0.52344-2.6797 1.0508 1.0508 0 2.1016 0.15625 2.6797-1.0508z" fill="#fe9c64"/>
 <path d="m301.66 557.68c-0.78516-0.36719-1.5234-0.47266-2.207 0.10547 0.73828 0.36719 1.5273 1.3125 2.207-0.10547z" fill="#fe9c64"/>
 <path d="m368.83 540.45c0.94531-0.10547 1-0.78906 1.0508-1.4727-0.94531 0.054687-1.1016 0.68359-1.0508 1.4727z" fill="#fe9c64"/>
 <path d="m504.43 358.8c-0.52734 0.41797-0.47266 0.99609-0.36719 1.5742 0.47266-0.41797 1.4688-0.73438 0.36719-1.5742z" fill="#fe9c64"/>
 <path d="m297.45 558.1c0.63281 0.68359 1.0508-0.050781 1.5781-0.26172-0.63281-0.42188-1.1562-0.57812-1.5781 0.26172z" fill="#fe9c64"/>
 <path d="m171.26 380.86c0.68359 0 1-0.36719 1.1055-1-0.68359-0.050781-1.1055 0.26562-1.1055 1z" fill="#fe9c64"/>
 <path d="m173.2 378.18c0.57812-0.10547 0.68359-0.47266 0.68359-1-0.57812 0.10547-1.3164 0.10547-0.68359 1z" fill="#fe9c64"/>
 <path d="m316.64 555.37c0-0.36719 0-0.42188-0.050781 0z" fill="#fe9c64"/>
 <path d="m314.22 556.32c-0.15625 0-0.3125 0-0.47266 0.050782 0.21094 0.26562 0.36719 0.21094 0.47266-0.050782z" fill="#fe9c64"/>
</svg>
