<?xml version="1.0" encoding="UTF-8"?>
<svg width="1587" height="1587" version="1.0" viewBox="0 0 1190.2 1190.2" xmlns="http://www.w3.org/2000/svg" zoomAndPan="magnify">
 <defs>
  <clipPath id="c">
   <path d="m0 0h1189.5v1189.5h-1189.5z"/>
  </clipPath>
  <clipPath id="b">
   <path d="m54.719 233.49h1076.8v166.51h-1076.8z"/>
  </clipPath>
  <clipPath id="a">
   <path d="m61.129 244h1058.9v791.45h-1058.9z"/>
  </clipPath>
 </defs>
 <g clip-path="url(#c)" fill="#fff">
  <path d="m0 0h1189.5v1189.5h-1189.5z"/>
  <path d="m0 0h1189.5v1189.5h-1189.5z"/>
 </g>
 <g clip-path="url(#b)">
  <path d="m1087.4 344.36c30.781-36.395 39.602-67.016 42.809-84.176 2.5664-14.586 1.2812-21.316-2.5625-24.523-11.551-9.3008-42.812 14.266-44.734 15.707 1.4453 31.109 2.8867 62.055 4.4883 92.992zm-1023.8 54.996c-12.184-25.008-11.062-49.059-1.1211-55.797 10.902-7.3711 38.32 2.0859 57.559 31.746-7.2148-0.31641-23.09 0-39.121 9.4648-8.0156 4.6484-13.629 10.098-17.316 14.586" fill="#2e3591"/>
 </g>
 <g clip-path="url(#a)">
  <path d="m766.76 663.1c9.6211 20.207 4.6484 43.773-11.387 56.922-13.301 10.902-32.223 12.988-48.574 5.7734 9.9414 29.344-2.7305 59.961-26.297 71.031-17.152 8.0156-38.477 5.1289-55.148-7.0586 6.0938 23.09 0.15625 47.141-15.711 60.926-22.129 19.238-61.727 16.836-86.738-10.902-49.059-53.551-98.121-107.26-147.18-160.81-10.902-11.867-21.805-23.73-32.547-35.598-34.633-38.957-69.902-79.844-105.18-122.66-38.961-47.301-75.836-93.797-110.46-139.33-22.125-19.242-43.934-27.898-54.832-20.527-3.0469 2.0859-21.641 13.309-3.8516 51.953 21.809 47.617 52.59 104.22 95.879 163.7 39.117 53.711 79.039 96.684 114.31 130.19 33.668 68.141 82.566 148.63 153.91 228.8 27.258 30.621 54.668 57.723 81.121 81.445 38.48 9.9453 91.387 19.242 154.24 18.438 68.941-0.95703 125.69-13.945 165.61-26.293 25.016-35.59 56.441-85.777 84.172-149.91 27.418-63.496 45.055-117.68 51.305-155.21 12.023-71.988 27.582-130.83 40.727-173.64 7.3711-24.051 16.832-54.512 32.867-93.312 24.688-59.805 51.621-106.78 72.301-139.33 6.5781-16.68 5.293-33.672-4.0078-43.453-11.059-11.707-30.297-11.543-37.195-7.8555-21.324 10.906-54.027 31.105-81.766 66.379-34.789 44.254-36.07 79.527-68.938 146.7-12.184 24.695-32.387 61.574-64.934 103.42-29.977-9.3008-53.227-20.844-69.258-29.82-39.281-22.125-83.371-46.977-107.74-93.793-6.8945-13.309-11.066-25.98-25.496-39.445-16.988-16.035-37.191-22.449-51.777-25.492-5.457 0-37.203 0.95703-54.355 24.527-14.75 20.367-9.6172 44.738-7.0508 56.918 6.5703 31.266 21.48 34.953 54.348 83.219 12.344 18.117 36.555 53.867 54.352 92.992 3.6836 8.1758 9.9414 23.25 23.727 39.441 10.582 12.348 21.484 20.684 29.184 25.816 4.1641-0.32031 14.586-1.4414 24.367-9.1406 14.75-11.543 16.352-28.539 16.672-31.582l-73.586-198.18c31.582 68.309 63.164 136.45 94.91 204.75zm-209.71 5.6133c35.434 49.066 57.398 100.69 92.832 99.891 12.023-0.32031 25.652-6.5781 31.902-17.316 12.824-21.965-10.102-53.07-46.812-110.63-75.035-118.16-91.707-164.18-137.4-172.68-6.8945-1.2812-22.77-3.3672-36.234 5.1289-29.023 18.285-23.25 70.391-23.25 70.391 56.918 46.172 94.43 91.23 118.96 125.22zm-204.41-41.203c0-8.6562 0-62.695 23.41-70.387 8.6562-2.8867 17.316 1.9219 21.48 4.1641 63.328 35.277 119.44 99.254 119.44 99.254 33.031 37.676 89.465 101.81 81.766 128.59-2.8867 10.102-9.3008 17.637-9.3008 17.637s-8.6523 12.027-23.246 15.07c-27.41 5.7734-53.547-24.535-94.266-68.945-27.582-29.816-67.82-72.953-119.29-125.38" fill="#cca48e"/>
 </g>
 <path d="m693.98 685.87c10.258 11.547 33.504 37.676 44.891 32.391 12.344-5.9375 3.6836-47.461 2.0781-55.16-4.4844-21.48-12.66-37.832-18.594-48.254-4.4883-0.80469-18.117-2.4062-32.711 4.9648-15.387 7.6992-21.961 20.523-24.047 24.531 5.4531 10.422 14.273 25.656 28.383 41.527zm-60.922 71.348c12.66 11.223 38.477 34.316 48.254 27.902 10.582-6.8945-1.6055-45.375-11.863-67.34-6.7305-14.43-14.273-25.336-19.883-32.387-4.6484 0-18.277 0.32031-31.586 9.7773-11.859 8.4961-16.832 19.402-18.594 23.891 6.7344 9.7773 17.637 23.891 33.672 38.156zm-114.8 29.66c0.80078-4.4844 3.8438-18.438 16.516-30.137 12.023-11.066 25.488-13.152 30.141-13.629 7.5352 7.0547 18.438 18.598 27.895 35.113 8.9805 15.395 25.973 51.145 15.715 60.125-11.223 9.7812-49.383-17-57.883-22.766-14.91-10.422-25.652-21.164-32.383-28.707" fill="#2e3591"/>
</svg>
