<?xml version="1.0" encoding="UTF-8"?>
<svg width="1587" height="1587" version="1.0" viewBox="0 0 1190.2 1190.2" xmlns="http://www.w3.org/2000/svg" zoomAndPan="magnify">
 <defs>
  <clipPath id="a">
   <path d="m0 0h1189.5v1189.5h-1189.5z"/>
  </clipPath>
 </defs>
 <g clip-path="url(#a)" fill="#fff">
  <path d="m0 0h1189.5v1189.5h-1189.5z"/>
  <path d="m0 0h1189.5v1189.5h-1189.5z"/>
 </g>
 <path d="m483.3 621.45c-11.844-9.2305-29.293-14.156-37.52-26.832-19.219 12.613-41.234 20.562-63.684 25.133 5.082 12.918 12.176 24.98 20.477 36.086 3.8789 5.3008 9.9492 9.7148 9.9727 16.836-13.613 45.664-53.73-31.746-58-48.758-23.906 2.3906-47.734 2.1367-71.668 0.76562l1.4766 50.125c0.40234 11.906-15.418 18.395-23.539 9.7461-8.1914-9.8672-3.4844-47.184-5.5391-62.305-24.102-2.8398-47.922-7.1562-70.977-14.887-5.4141 15.586-20.312 77.27-43.555 64.246-6.5508-3.457-8.6367-12.645-4.9453-18.844 10.434-17.234 17.867-36.094 22.684-55.629-19.73-9.1523-38.074-21.312-53.91-36.324-13.938 16.734-29.27 32.074-45.992 46.031-8.4141 8.5-23.801 2.25-23.535-9.7383 0-3.2148 1.4688-7.6016 4.0391-9.7461 17.117-14.285 32.777-30.016 46.977-47.199-4.9883-6.5742-9.3945-13.512-13.223-20.82-8.7656-15.754 14.816-29.312 23.812-13.895 3.6055 6.8867 7.75 13.434 12.438 19.641 59.312 72.156 164.47 77.406 251.03 70.527 35.77-4.832 72.891-17.637 95.746-47.027 15.715-12.961 37.426 8.0469 10.289 29.645l31.059 19.438c15.316 9.3945 1.6914 32.734-13.914 23.785zm652.61-59.52c-1.4922-5.7305-6.7109-8.4297-11.062-11.801-15.285-11.93-29.52-25.008-42.695-39.23 5.2812-9.6562 14.602-19.84 12.934-31.434-1.8359-7.0703-9.8945-11.801-16.961-9.6211-10.52 2.707-15.496 24.902-24.449 33.652-55.824 68.672-153.48 79.867-236.66 79.113-37.379-1.8672-77.348-12.09-103-41.031-17.586-13.602-36.965 10.629-9.0586 29.66-11.148 9.8672-28.516 15.75-35.566 29.008-2.0625 7 2.4609 15.203 9.6289 16.945 3.4336 0.77734 7.6406 0.73438 10.629-1.3945 11.609-10.109 28.637-16.133 36.668-29.398 19.859 11.5 42.242 18.098 64.895 21.336-5.2266 16.484-13.824 31.758-24.297 45.484l0.35156-0.42969c-7.6211 8.2852-0.82812 22.973 10.492 22.531 17.422-0.77734 37.453-49.363 41.211-65.055 23.984 1.0469 47.859-0.71484 71.625-3.6719 0.48828 16.52 0.97656 33.043 1.4609 49.566-0.32812 11.836 15.398 18.449 23.535 9.7461 8.3633-7.9648 1.3555-49.027 2.3672-63.227 23.902-3.9648 47.496-9.8555 70.078-18.895 7.793 19.621 17.656 52.16 35.887 63.395 11.387 3.5547 22.047-10.145 15.57-20.234-11.551-16.957-20.344-35.238-26.379-54.844 19.109-10.352 36.766-23.566 51.719-39.445 15.613 16.441 32.555 31.375 50.824 44.805 9.9961 6.4805 23.914-4.1953 20.254-15.539z" fill="#d4b591"/>
</svg>
