<?xml version="1.0" encoding="UTF-8"?>
<svg width="1587" height="1587" version="1.0" viewBox="0 0 1190.2 1190.2" xmlns="http://www.w3.org/2000/svg" zoomAndPan="magnify">
 <defs>
  <clipPath id="a">
   <path d="m0 0h1189.5v1189.5h-1189.5z"/>
  </clipPath>
  <clipPath id="b">
   <path d="m695 622h466v308.57h-466z"/>
  </clipPath>
  <clipPath id="c">
   <path d="m643 246.6h521.46v406h-521.46z"/>
  </clipPath>
 </defs>
 <g clip-path="url(#a)" fill="#fff">
  <path d="m0 0h1189.5v1189.5h-1189.5z"/>
  <path d="m0 0h1189.5v1189.5h-1189.5z"/>
 </g>
 <path d="m155.32 546.61 13.77 87.668 445.09 39.219s261.91-29.527 275.76-29.527 157.72 7.6133 157.72 7.6133l37.922-61.527-102.51-128.74-297.45-138.35-212.17-2.3047s-145.25 87.602-163.64 99.133c-18.453 11.539-154.49 126.82-154.49 126.82" fill="#0c0d0c" fill-rule="evenodd"/>
 <path d="m816.11 712.49s-2.3047-88.293-4.5352-93.906c-2.3047-5.6094-12.227-14.305-31.297-14.992-22.762-0.69141-122.43-4.1523-138.04 2.2266-7.0703 2.9219-9.457 5.3828-11.23 12.457-3.4609 13.387-4.9883 96.211-4.9883 96.211l190.09-1.9961" fill="#fefefe" fill-rule="evenodd"/>
 <path d="m809.81 687.27c0-1.4648 1.5391-67.832 3.543-70.984 10.301-16.84 82.969-17.074 94.199-0.45703 7.2305 10.531 2.6133 39.676 2.3789 39.91-17.688 19.84-66.512 50.906-67.668 51.598-1.9219 1.1562-30.301 9.543-30.301 9.543l-2.1523-29.609" fill="#989898" fill-rule="evenodd"/>
 <path d="m813.73 615.66c11.613-16.223 82.742-16.297 93.816 0.16016 0.76562 1.0703 1.3828 2.3789 1.9219 3.8438-1.9219 2.0703-4.457 3.7656-7.918 4.8398-2.3906 0.84766-18.305-1.8477-37.457-1.7734-11.07 0.085937-24.141 4.543-33.906 2.2422-7.2305-1.6992-12.613-5.2344-16.457-9.3125" fill="#fefefe" fill-rule="evenodd"/>
 <path d="m906.32 687.27c0-1.4648 0.83984-67.832 1.8477-70.984 5.6914-16.84 45.363-17.074 51.52-0.45703 3.918 10.531 1.457 39.676 1.3086 39.91-9.6953 19.84-36.301 50.906-36.988 51.598-1.082 1.1562-16.531 9.543-16.531 9.543l-1.1562-29.609" fill="#989898" fill-rule="evenodd"/>
 <path d="m955.92 687.73c0-1.4648 0.85156-67.84 1.9219-70.992 5.6172-16.84 45.293-17.074 51.523-0.45703 3.8438 10.539 1.3906 39.684 1.3047 39.91-9.7656 19.84-36.371 50.918-37.062 51.605-1.082 1.1484-16.527 9.5352-16.527 9.5352l-1.1602-29.602" fill="#989898" fill-rule="evenodd"/>
 <path d="m92.574 586.83c175.02 8.6094 414.79-86.898 597.5-12.77 48.762 19.766 104.36 21.379 133.81 34.918 10.766 4.9141 29.758 32.223 41.832 37.062 41.91 16.766 91.668-1.3789 113.2-6.7617 50.215-12.457 83.742-47.141 174.1-51.609-4.0742 20.84 10.84 31.309 6.1484 49.836-139.8 552.4-576.28 113.9-899.41 78.141-78.902-8.6953-147.26-31.301-168.33-113.74l1.1562-15.074" fill="#c8281c" fill-rule="evenodd"/>
 <path d="m982.76 638.28c48.984-13.227 82.203-46.227 170.25-50.609-3.3086 16.996 11.691 31.617 7.9219 47.074-66.215-21.234-108.81-1.3164-178.18 3.5352" fill="#89190c" fill-rule="evenodd"/>
 <path d="m431.47 471.71s2.3047 88.281 4.5352 93.898c2.3047 5.5312 15.766 27.148 34.832 27.762 22.762 0.69141 103.82 3.6094 119.43-2.7695 7.0781-2.9297 24.531-17.688 26.297-24.684 3.4609-13.391 5-96.285 5-96.285l-190.09 2.0781" fill="#fefefe" fill-rule="evenodd"/>
 <path d="m434.7 482.62c0 1.4648-1.625 67.832-3.6211 71.062-9.3828 15-40.988 10.223-64.059 5.8398-10.301-1.9961-23.91-1.1484-31.605-12.305-7.3047-10.609-2.9961-32.832-2.8438-33.062 18.078-19.844 67.824-50.91 69.059-51.609 1.9961-1.1484 30.914-9.5352 30.914-9.5352l2.1562 29.609" fill="#989898" fill-rule="evenodd"/>
 <path d="m432.07 547.45c-0.30469 3.3867-0.60547 5.6914-0.99609 6.2344-9.3828 15-40.988 10.223-64.059 5.8398-3.7617-0.76563-7.9961-1.0742-12.223-1.7656 2.4648-3.4609 7.0742-7.6953 15.918-11.23 18.684-7.6875 57.062-4.7695 59.363-4.4609 0.77734 0.074219 1.3906 2.3047 1.9961 5.3828" fill="#fefefe" fill-rule="evenodd"/>
 <path d="m812.42 471.71s-2.2188 88.281-4.5312 93.898c-2.3047 5.5312-12.223 28.145-31.297 28.762-17.223 0.53906-78.055 2.6875-113.66 0.92187-11.613-0.53906-20.531-1.5391-24.375-3.0781-7.0703-2.918-9.4609-19.301-11.223-26.297-3.4609-13.391-5-96.285-5-96.285l190.09 2.0781" fill="#fefefe" fill-rule="evenodd"/>
 <path d="m812.42 471.71s-0.60547 44.445-1.6016 68.746c-1.7734-5.6172-2.3164-21.223-15.617-25.684-13.305-4.3828-117.58-14.918-139.5-11.074-21.914 3.8438-28.984 6.7656-31.988 14.145-0.92188-24.219-1.3789-48.211-1.3789-48.211l190.09 2.0781" fill="#989898" fill-rule="evenodd"/>
 <path d="m431.47 471.71s0.14844 43.68 1.1484 67.98c1.8477-5.6133 3.6094-22.379 16.84-26.84 13.309-4.3828 116.89-12.996 138.73-9.1523 21.914 3.8438 28.984 6.7656 31.988 14.145 0.92578-24.219 1.3828-48.211 1.3828-48.211l-190.09 2.0781" fill="#989898" fill-rule="evenodd"/>
 <path d="m810.11 494.93c0 1.457 1.6172 67.832 3.6211 71.062 9.375 14.992 41.062 10.223 64.059 5.8398 10.301-1.9961 23.91-1.1484 31.605-12.305 7.3047-10.609 3.0703-32.84 2.8438-33.062-18.078-19.844-67.828-50.918-69.059-51.609-1.9219-1.1484-30.84-9.5352-30.84-9.5352l-2.2305 29.609" fill="#989898" fill-rule="evenodd"/>
 <path d="m812.73 558.99c0.30859 3.375 0.69141 5.6875 1 6.2188 9.375 15.004 41.062 10.234 64.059 5.8516 3.7617-0.77344 7.9961-1.0742 12.223-1.7734-2.457-3.4531-7.0742-7.6875-15.84-11.223-18.762-7.6953-57.141-4.7656-59.441-4.457-0.77734 0.074219-1.3828 2.3008-2 5.3828" fill="#fefefe" fill-rule="evenodd"/>
 <path d="m627.71 296.12c-1.2305 0.16016-2.3125 0.23438-3.3125 0.23438h-6.2227c-1.082 0-2.1523-0.074219-3.3125-0.23438v0.23438c-23.449-0.14844-86.82-45.293-120.8-42.297-184.56 15.996-292.07 154.73-371.58 265.24-31.754 44.219-30.832 51.215-27.91 76.516-3.3047 3.9297 11.922 8.3125 41.754 10.926 32.996 2.9961 83.816 2.2305 145.34-40.375 80.512-55.676 132.57-83.441 223.78-90.672 23.219-1.7695 71.82 4.1523 114.89 4.0781 48.059-0.14844 90.887-6.0742 116.73-4.0781 245.77 19.379 160.25 159.88 416.26 127.04 5.457-0.6875-0.61328-18.301-4.0742-22.453-11.234-22.148-4.2266-16.297-36.066-60.52-79.441-110.44-180.11-249.71-364.73-265.71-33.996-2.9961-97.281 42.148-120.73 42.297v-0.23438" fill="#c8281c" fill-rule="evenodd"/>
 <path d="m432.23 518.61c14.227 76.293 9.3008 65.602 86.047 68.449 17.539 0.60547 79.516 5.5312 89.824-15.852 6.6875-13.836 6.0742-45.602 11.996-62.055 4.1523 11.379 3.1523 53.836-1.6133 66.363-11.773 31.227-77.594 29.613-101.66 28.074-67.824-4.1523-96.895-7-84.59-84.98" fill="#141515" fill-rule="evenodd"/>
 <path d="m116.26 649.89c-116.2-85.211 149.41-308.01 214.55-350.45 61.055-39.836 159.64-73.523 228.61-34.684 33.539 18.992 15.543 20.457 60.684 32.453-21.762 2.1562-27.762 0.30859-46.531-11.148-51.902-31.605-101.12-26.996-157.34-7.2305-87.508 30.609-252.38 183.8-299.06 263.01-28.219 47.836-27.91 65.832-0.91406 108.05" fill="#141515" fill-rule="evenodd"/>
 <path d="m168.78 606.51c91.355-16.148 89.898-53.754 165.64-88.047 48.223-21.766 85.676-43.762 140.04-39.305-57.988 12.613-117.66 41.844-168.26 72.906-39.684 24.379-33.375 27.066-77.668 46.145-31.84 13.695-21.605 11.23-59.75 8.3008" fill="#141515" fill-rule="evenodd"/>
 <path d="m401.63 462.55c74.824 15 136.34 2.3125 211.32 5.3906 65.133 2.6133 83.211 8.9961 147.57-7.1523 2.3867-0.61719 2.6133-0.38281 4.3828 1.2305v0.074219c-0.23047 0.15625-2.0703 1.2305-2.2266 1.3047-25.609 38.531-242.39 27.223-281.84 23.379-42.371-4.1523-44.141-1.8477-79.207-24.227" fill="#141515" fill-rule="evenodd"/>
 <path d="m730.3 472.86c31.223 9.3828 50.129 1.3047 85.738 12.688 67.359 21.457 80.895 25.301 137.11 71.832 61.215 50.676 77.977 39.219 151.57 48.445-72.359 9.0781-102.5 8.1562-161.48-36.141-61.988-46.605-61.449-46.449-132.58-74.293-24.152-9.3789-68.902-8.2305-80.355-22.531" fill="#141515" fill-rule="evenodd"/>
 <path d="m224.3 452.32c5.5312-7.918-5.3828-1.9219 1.457-9.3828 66.055-71.59 177.95-170.34 286.52-159.65 38.688 7.2305 8.8438 27.223 8.8438 27.223s-12.07 22.453-10.062 33.836c0.83594 4.9258-58.527 4.9258-116.5 28.07-74.445 29.688-154.27 70.062-170.26 79.902" fill="#f08882" fill-rule="evenodd"/>
 <path d="m112.8 649.59c50.824 29.602 46.906 39.91 118.34 51.363 155.26 24.844 262 71.441 400.8 141.12 24.375 12.23 15.148 7.1484 37.762 21.223-25.383-6.2305-16.383-3.3008-41.531-12.535-104.96-38.445-201.93-78.824-310.29-110.89-80.898-23.91-151.34-20.375-205.09-90.277" fill="#141515" fill-rule="evenodd"/>
 <g clip-path="url(#b)">
  <path d="m695.31 873.37c212.93 57.215 329.2 72.98 433.64-157.27 15.988-35.375 21.605-56.293 30.449-93.281l0.69141 29.527c-5.6094 63.52-63.211 176.95-109.66 221.71-95.738 92.285-251.38 56.453-355.12-0.6875" fill="#141515" fill-rule="evenodd"/>
 </g>
 <path d="m619.79 506.54c18.305 88.59 8.918 75.051 77.277 80.285 20.926 1.6133 91.82 11.613 106.82-12.453 7.4531-12.008 6.3047-34.844 9.8398-50.918 6.9961 13.375 7.7617 42.762 1.1484 56.758-16.68 35.301-94.508 29.992-122.88 26.074-66.832-9.3125-79.898-6.8477-72.215-99.746" fill="#141515" fill-rule="evenodd"/>
 <path d="m339.41 554.91c7.5391 16.914 20.227 13.145 38.836 14.992 10.926 1.082 42.836 5.1562 53.137-6 1.2305-1.3789 3.3125-9.0664 3.6914-10.297 3.3047 14.988-0.45703 12.227-6.9961 17.602-19.227 15.543-97.203 10.234-88.668-16.297" fill="#141515" fill-rule="evenodd"/>
 <path d="m863.95 645.2c89.434 2.8477 86.82 0.074219 161.56-28.152 22.379-8.4531 15.074-6.6055 32.07-9.5352-13.387 11.156-6.7734 6.3789-27.836 18.461-62.297 35.832-90.441 46.066-165.8 19.227" fill="#141515" fill-rule="evenodd"/>
 <path d="m708.3 619.05c12.535 48.297 25.223 128.2-18.996 166.11 25.766-56.684 17.305-103.06 18.996-166.11" fill="#141515" fill-rule="evenodd"/>
 <path d="m788.28 639.35c26.688 45.906 35.375 80.52 20.914 133.43-3.4609 12.379-8.9922 32.68-22.219 38.836 26.379-52.531 16.219-118.12 1.3047-172.27" fill="#141515" fill-rule="evenodd"/>
 <g clip-path="url(#c)">
  <path d="m643.17 296.21c103.19-50.992 110.04-70.984 220.7-19.695 108.2 50.07 277.07 214.19 298.91 334.69 2.918 16.074 2.3047 26.152-3.8438 40.918l0.30859-9.3086c1.5391-109.82-191.64-285.93-279.53-338.38-43.219-25.766-100.9-56.98-151.88-38.602-35.988 12.918-43.145 18.527-84.664 30.375" fill="#141515" fill-rule="evenodd"/>
 </g>
 <path d="m745.75 610.75c41.84-2.4609 71.672 3.3047 104.05 34.145 35.301 33.605 41.066 66.75 41.141 112.04-20.066-88.133-54.602-129.58-145.19-146.19zm27.922 52.059c-12.23 19.766 22.996 58.223 14.684 119.28 25.691-50.836 10.922-115.59-14.684-119.28zm-140.95-24.836c-0.30859 0.69141 6.6875 34.836-10.234 54.754-3.375 3.918-6.9219 7.4609-10.605 10.617-53.062-38.297-214.16-48.223-306.98-45.609-48.453-6.457-61.902-10.535-61.902-10.535-16.691-28.527 402.34-42.148 389.73-9.2266" fill="#f08882" fill-rule="evenodd"/>
 <path d="m965.3 878.83c62.668-25.449 165.25-156.04 171.56-225.79 0.074218-0.76562 0.6875-0.76562 1.4531-1.1445 0.16016 1.1445 0.16016 0.61328 0 1.6875l0.085938-0.23438c13.684 66.375-96.824 234.02-173.1 225.48" fill="#f08882" fill-rule="evenodd"/>
 <path d="m904.09 843.14c37.91-15.227 61.215-75.52 50.758-133.96 24.992 2.7695 50.289-20.684 106.11-45.91 14.531-6.5391 76.754-15.766 76.754-15.766s-25.691-11.148-52.988-8.918c-27.219 2.2305-52.602 4.8398-87.977 19.375-35.449 14.535-64.367 15.152-98.508 5.7656 12.078 6.7734 51.137 87.207 5.8477 179.42" fill="#f08882" fill-rule="evenodd"/>
 <path d="m1056.2 483.7c20.309 31.84 21 44.762 21 44.762-48.527-67.141-223.7-241.87-403.5-209.56 113.82-92.059 282.77 33.527 382.5 164.8" fill="#f08882" fill-rule="evenodd"/>
 <path d="m776.59 594.37c41.605 6.9219 73.676 16.836 100.59 53.52 24.836 33.996 27.988 70.293 26.914 110.13-25.84-93.59-38.758-120.05-127.5-163.65" fill="#141515" fill-rule="evenodd"/>
 <path d="m523.75 802.77c49.059 5.082 72.363 23.227 118.81 37.762 55.98 17.531 110.2 40.375 165.41 60.137 46.598 16.688 97.195 13.461 145.8 11.305-76.281 31-132.42 13.844-206.63-8.5352-39.215-11.766-70.055-29.301-108.89-44.676-40.066-15.84-75.281-37.457-114.5-55.992" fill="#141515" fill-rule="evenodd"/>
 <path d="m199.23 675.96c24.609 11.457 124.35 25.375 158.88 33.762 85.895 20.918 179.1 58.988 252.77 108.66-95.965-41.297-151.41-67.906-255.69-97.281-27.91-7.9219-138.96-28.453-155.95-45.145" fill="#f08882" fill-rule="evenodd"/>
 <path d="m327.27 562.83c-63.527 23.453-97.66 58.523-172.95 50.219 17.844-7.8438 23.844-7.4609 43.059-13.078 23.992-6.9141 108.74-48.137 129.89-37.141" fill="#141515" fill-rule="evenodd"/>
</svg>
