<?xml version="1.0" encoding="UTF-8"?>
<svg width="1587" height="1587" version="1.0" viewBox="0 0 1190.2 1190.2" xmlns="http://www.w3.org/2000/svg" zoomAndPan="magnify">
 <defs>
  <clipPath id="a">
   <path d="m0 0h1189.5v1189.5h-1189.5z"/>
  </clipPath>
  <clipPath id="b">
   <path d="m178 389.51h159v312.49h-159z"/>
  </clipPath>
 </defs>
 <g clip-path="url(#a)" fill="#fff">
  <path d="m0 0h1189.5v1189.5h-1189.5z"/>
  <path d="m0 0h1189.5v1189.5h-1189.5z"/>
 </g>
 <path d="m362.44 648.26c0.53516-7.9258 0-18.426 1.1797-28.926 1.6094-13.395 2.8945-26.789 4.1797-40.18 1.0742-11.574 1.9297-23.145 2.2539-34.715 0.53516-20.035 2.5703-39.859 6-59.68 1.8242-10.715 3.2148-21.535 5.1445-32.145 1.2891-7.2852 3.5391-14.355 4.5039-21.641 0.10547-0.85937 0.21484-1.8242 0.21484-2.6797 0.21484-6.3203 3.1094-8.4648 9.5391-8.1445 5.1445 0.32422 9.9688 1.0742 14.363 4.0742 2.4648 1.7109 4.8242-0.32422 7.1836-0.85937 9.9688-2.25 19.723-2.0352 29.797-0.32031 9.8633 1.7148 18.652 6.5352 28.621 7.9297 6.9688 0.96094 13.508 4.5 19.723 7.7109 6.5391 3.4297 12.543 8.1445 17.902 13.395 3.2148 3.1094 5.4688 7.1797 5.2539 12-0.10938 4.0703 1.0703 8.1445-0.32422 12.109-2.0352 5.7852-4.1797 11.57-6.8594 17.141-4.6094 9.75-9.1094 19.715-14.363 29.035-3.9648 6.9648-8.4688 13.609-13.719 19.715-4.5039 5.1445-9.1133 10.18-14.258 14.68-5.5742 4.9297-12.113 8.25-18.867 10.5-4.1797 1.3945-8.5742 3.4297-13.504 3-2.1445-0.21484-4.7188 1.0703-7.0742 1.5-3.5391 0.75-4.1836 4.1797-3.7539 6.75 0.64453 3.5352-0.32031 6.75-0.64453 10.07-0.96484 10.395-1.2852 20.789-3.1055 31.074-0.64453 3.9648-1.7148 8.1406-1.8242 12-0.21484 6.5352-0.96484 12.965-1.7148 19.395-1.1797 9.1055-1.6094 18.32-5.4648 27.105-3.6445 8.25-10.184 10.93-18.012 12.32-7.9297 1.3945-15.328 0-21.223-5.8906-3.3242-3.2148-5.0391-7.7148-6.8594-11.895-3.1094-6.9648-4.2891-14.355-4.3945-24.43zm83.074-202.61c-5.7891 0.32422-10.719 1.3945-15.543 2.7891-1.6055 0.53516-3.1094 1.2852-2.8945 3.2109 0.32422 2.7891 0.32422 5.6797 0.53906 8.4648 0.64062 6.75 0.96094 13.5 1.2852 20.359 0.42969 9.8555-0.53516 19.715-1.0742 29.57-0.21094 5.1445-0.75 10.285-0.21094 15.535 0.53516 4.3945-0.21484 9-1.2891 13.5-0.32031 1.5 0.10938 2.7852 1.0742 3.75 0.96484 0.85938 1.8203-0.42578 2.7852-0.75 3.7539-1.2852 6.4336-4.1758 9.4336-6.4258 6.0039-4.6094 10.613-10.609 15.223-16.5 8.3594-10.609 15.328-21.965 20.578-34.504 2.0391-4.8203 4.5039-9.3203 6.1094-14.355 0.85938-2.6797 2.3594-5.5703 1.1797-8.25-2.8945-6.4297-7.5039-11.57-14.148-13.93-7.6094-2.5703-15.758-2.1406-22.832-2.5703z" fill="#252628"/>
 <path d="m985.66 468.15c0.64062 7.0742-1.5039 13.715-2.6797 20.574-0.21484 1.6055-1.5039 3-2.2539 4.5-3.75 7.6055-7.7148 15.105-13.074 21.641-8.5781 10.715-17.902 20.789-30.336 27.324-6.2188 3.2148-11.148 8.1406-17.258 11.25-3.6445 1.8203-6.9688 4.2852-10.508 6.3203-2.0352 1.0703-2.5703 2.1445-0.85547 4.5 5.3594 7.1797 9.7539 14.895 14.363 22.609 5.0391 8.5703 10.184 17.141 14.578 26.035 5.0391 10.07 9.7539 20.25 14.043 30.75 4.2852 10.395 6.8594 21.215 10.289 31.82 2.25 6.8594 3.5391 14.25 4.2891 21.535 0.42969 4.3945 1.3945 9.1094-0.96484 13.609-2.0391 4.0703-8.6836 7.0703-12.973 5.4648-4.7148-1.8203-4.3945-1.8203-4.6094-7.1797-0.53516-10.5-1.2852-20.785-4.1797-31.07-2.25-7.7148-4.1797-15.43-6.6445-23.035-2.7891-8.5742-5.7891-17.145-9.9688-25.18-3.5391-6.75-6.7539-13.5-10.293-20.25-4.9297-9.1094-9.9688-18.215-15.004-27.215-0.42969-0.85938-1.3945-1.5-2.1445-2.25-1.8242-1.7148-2.4648-0.32422-3.1094 1.1758-2.3594 5.25-2.7852 11.039-4.9297 16.289-1.1797 3-1.0742 6.5352-1.2891 9.75-0.42578 8.0352-2.3555 15.855-2.8906 23.891-0.64453 10.609-3.3242 21.109-5.8984 31.5-2.1445 8.7891-5.25 17.359-6.75 26.145-1.0742 6-3.5391 10.609-7.0781 15.32-2.25 3.1094-3.5352 7.0742-5.25 10.609-1.6094 3.4297-4.2891 4.0703-7.1836 4.8203-1.2852 0.32031-2.6797 0.42969-3.8594 1.2852-4.6094 2.8945-11.148-0.32031-11.574-5.5703-1.5039-15.43-3.1094-30.859-3.0039-46.395 0-9.1055 1.0742-18.105 1.7148-27.105 0.75-9.75 1.8242-19.395 3.2188-29.035 0.75-5.3594 1.9297-10.609 2.6797-15.965 0.75-5.6797 1.8203-11.359 2.6797-17.039 0.53516-3.2109 2.1406-6.1055 2.5703-9.4258 0.64453-4.1797 2.0391-8.3594 2.7891-12.535 0.96484-5.25 3.2148-10.18 4.5-15.324 1.8242-7.3906 3.6445-14.891 6.1094-22.18 2.3594-6.8555 4.8242-13.711 7.3984-20.57 2.7852-7.5 6.3242-14.68 8.4688-22.395 1.5-5.5703 4.0703-10.926 6.4297-16.285 1.8242-4.0703 2.7891-8.5703 4.3945-12.75 0.96484-2.5703 2.6797-5.0352 3.4297-7.5 1.0742-3.75 3.3242-6.8555 4.3945-10.5 0.85938-2.6797 2.7891-4.3906 4.1836-6.5352 1.9297-2.7852 3.75-5.6797 6.1094-8.1445 1.2852-1.2852 2.1445-1.2852 3.5352-0.42578 3.4336 2.0352 6.8633 3.2148 10.828 1.3906 3.3242-1.5 7.0742-2.0352 10.504-3.3203 2.25-0.85547 5.3594-0.64453 8.0391-0.85547 11.258-0.64453 20.367 3.8555 27.871 12.105 1.3945 1.6055 2.4648 3.5352 4.8242 4.0703 0.75 0.21484 1.5 1.1797 1.8203 1.9297 3.0039 6.75 12.328 27.32 10.508 37.5zm-23.797-23.676c-0.32422-4.0742-2.1445-7.6094-4.1836-10.93-3.4297-5.3594-8.0391-6.75-14.039-4.7148-3.9688 1.2852-7.3984 3.8555-11.473 5.1445-1.3906 0.42578-2.3555 2.1406-2.0352 3.8555 1.2852 7.6094-0.53516 15.109-1.6094 22.5-1.3906 9.2148-3.2148 18.535-4.6094 27.859-0.85547 5.7852-2.4648 11.25-4.2852 16.715-1.7148 5.1406-3.0039 10.391-4.3945 15.641-0.21484 0.64453-0.75 1.6094 0.21484 2.1445 0.64062 0.32031 1.2852 0 1.9297-0.42969 6.5391-4.1797 13.934-7.0703 19.508-12.645 6.1094-6 12.434-12 15.863-19.82 6.3242-14.25 10.078-29.25 9.1133-45.109z" fill="#252628"/>
 <g clip-path="url(#b)">
  <path d="m243.46 445.44c-1.6055 7.5 0.64453 14.035 2.2539 20.785 1.6055 6.5352 1.6055 13.07 1.6055 19.715 0.10938 9.8555-0.53516 19.715 0.96484 29.355 1.5 9.75 1.9297 19.715 4.6094 29.25 0.75 2.4648 0.85938 5.1445 1.2891 7.7148 0.21094 1.0703 0 2.5703 1.6055 2.3594 1.3945-0.21484 3.0039-0.42969 3.6445-2.1445 1.9297-5.5703 3.9648-11.035 8.2539-15.32 2.3594-2.3594 1.8242-5.7891 3.2148-8.4648 4.5039-8.3594 9.2188-16.609 13.402-25.18 4.0703-8.5703 8.4648-16.93 12.539-25.609 4.9297-10.5 10.078-21 14.898-31.605 2.0391-4.5 3.8594-9 5.5742-13.609 1.1797-3 4.0742-4.2852 6.2188-6.3203 0.53516-0.53516 1.2852-0.10547 1.8242 0.32031 1.1758 1.1797 2.4648 1.9297 4.2852 1.9297 0.42969 0 1.1797 0.32031 1.1797 0.53516 0.32031 3.1094 3 4.7148 4.2891 7.1797 2.3555 4.5-0.21484 8.3555-0.53906 12.535-0.42578 5.8945-3.9648 11.145-4.3945 16.824-0.53516 6.4258-1.9297 12.535-3.5352 18.641-1.1797 4.2852-3.3242 8.25-4.7188 12.43-2.25 7.0703-4.5 14.145-8.1445 20.785-5.4688 9.9648-10.613 20.145-16.617 29.895-2.7852 4.5-5.6797 8.8906-8.2539 13.5-3.5352 6.3203-6.6445 12.965-10.074 19.285-3.2148 6-6.1094 12.215-9.4336 18.105-0.75 1.3945-0.42969 2.1445 0 3.4297 3.3242 8.25 7.2891 16.074 11.469 23.785 2.6797 4.9297 6.5391 8.7891 10.078 12.965 4.7148 5.7852 9.9688 11.145 13.719 17.68 2.2539 3.75 5.1484 7.0703 7.3984 10.93 2.3555 4.0703 3.1094 15.75 0.75 19.82-2.7891 4.5-12.434 5.1445-17.043 1.1797-3.7539-3.3203-8.0391-5.7852-12.223-8.5703-5.3594-3.5391-9.7539-8.1445-13.504-13.289-7.1836-9.6406-13.828-19.715-23.582-27.105-1.0742-0.85938-1.8242-1.0703-2.6797 0.42969-2.7891 4.7109-7.1836 8.1406-9.9688 12.855-4.2891 7.1797-10.934 12.75-14.363 20.465-0.32422 0.64453-0.75391 1.2852-1.2891 1.5-7.6094 4.1797-11.574 12.105-17.688 17.785-4.6094 4.3945-9.3242 8.25-15.754 9.2148-1.1797 0.21484-2.5742 0.21484-3.7539 0-2.8945-0.64453-3.4297-2.0352-1.9297-4.7148 2.6797-4.8203 6.4336-8.7852 9.6484-13.18 5.2539-6.9609 11.789-13.176 15.328-21.211 1.9297-4.3945 4.0742-8.8945 6.2188-13.18 3.1055-5.8945 5.25-12.215 9.2188-17.68 0.21094-0.32031 0.53516-0.75 0.64062-1.1797 1.1797-6.1055 4.6094-11.355 6.3242-17.25 0.64453-2.1406 0.53516-4.0703-0.53516-5.8906-3.5391-5.8945-6.0039-12.324-8.5742-18.645-2.7891-6.9648-5.1445-14.145-7.6133-21.215-3.4297-9.75-5.4648-19.93-8.2539-29.895-1.8203-6.5352-1.9297-13.391-3.4297-20.035-2.8945-13.391-3.5352-26.891-4.1797-40.5-0.21484-4.8203 0-9.75 0.21484-14.57 0.10547-8.1445 1.0703-16.285 0.75-24.43-0.21484-4.5 0.96484-9 1.5-13.5 1.1797-9.5352 2.4648-19.07 3.4297-28.605 0.32422-2.8945 1.3945-4.2891 3.9688-5.0391 2.3555-0.75 4.9297-0.21484 7.1797-1.3906 0.32422-0.21484 0.96484 0 1.2891 0.10547 8.3594 5.25 16.293 10.93 21.328 19.93 3.0039 5.25 4.7188 10.715 5.7891 16.5 1.2852 6.5352 2.6797 13.07 3.8594 19.285z" fill="#252628"/>
 </g>
 <path d="m733.43 684.05c-9.6445 0.42578-16.828-4.7148-23.043-11.145-2.7891-3-4.9336-6.6445-7.3984-9.9648-2.4648-3.4297-6.0039-6.3203-9.2188-9.4297-2.3594-2.3555-4.5-4.7148-6.1094-7.6055-2.8945-5.3594-6.2188-10.5-8.3594-16.285-2.1445-5.7852-3.0039-11.895-4.3984-17.895-1.2852-5.4648 0.32422-10.93 0-16.395-0.32031-4.7109 0.32422-9.5352 0.96484-14.141 0.75391-5.0352 1.6094-10.07 2.1445-15.215 0.64453-5.7852 1.7148-11.57 2.1445-17.465 0.32031-4.5 2.0352-8.7852 3.4297-13.07 1.8242-5.6797 4.1797-11.25 5.8945-17.035 0.85938-3 2.2539-5.6797 3.2188-8.5742 1.8203-5.25 3.9648-10.5 5.8945-15.75 2.1445-5.8906 5.3594-11.141 7.9336-16.82 3-6.5352 6.3242-12.859 9.7539-19.07 4.1797-7.6094 9.0039-14.789 14.469-21.539 5.5742-6.9648 12.758-10.5 21.012-12.32 4.3945-0.96484 9.1094 0 13.398 1.0703 4.3945 1.1797 9.0039 1.7148 13.293 3.5352 7.0742 3 13.934 6.1094 20.473 10.289 6.3242 4.0703 11.898 8.6758 16.828 14.141 6.2188 6.8594 12.223 13.93 16.402 22.285 3.2148 6.4297 5.5742 12.965 6.4297 20.465 1.0742 9.4297-0.53516 18.75 0 28.18 0.42969 8.6797-1.0703 17.25-2.3555 25.609-1.1797 7.5-2.4688 15.105-5.0391 22.5-5.7891 16.5-14.363 31.391-24.227 45.641-5.3594 7.8242-10.719 15.645-16.613 23.039-3.6445 4.5-8.1484 8.3555-11.793 12.75-6.3242 7.6055-13.719 13.82-21.438 19.82-6.0039 4.6055-12.113 9-19.832 10.285-1.2852 0.21484-2.6797 0-4.0703 0zm88.113-184.29c0.85938-2.1445-0.53516-3.9648-0.85547-5.8945-0.53906-3.8555-0.53906-8.0352-2.4688-11.57-3.3203-6.1055-6.6445-12.32-11.254-17.68-4.3945-5.0352-8.8984-10.07-14.258-14.141-0.85547-0.64453-1.5-0.64453-2.3555 0.10547-5.4688 4.5-8.3633 10.715-10.828 16.93-1.7148 4.3906-3.9648 8.5703-6.0039 12.75-1.9297 3.9648-2.4648 8.7852-6.3242 11.785 0.64453 5.4648-4.0703 8.5703-5.7852 12.965-0.64453 1.7148-0.53906 3.5352-1.5039 5.1445-2.25 3.75-4.1797 7.7109-5.6797 11.891-1.2852 3.3203-2.3594 6.9648-4.2891 9.8594-2.7852 4.1758-3.9648 8.8906-5.4648 13.391-3.3242 9.9648-5.8945 20.145-7.7188 30.535-1.3945 8.1445-2.6797 16.289-3.75 24.539-0.75 5.6758-0.32422 11.57-1.6094 17.25-0.64453 2.5703-1.2852 5.25-1.2852 8.0352-0.10938 6.75-0.96484 13.605 0.75 20.355 0.96484 3.6445 0.42969 8.25 3.6445 10.715 2.8945 2.25 3.75 4.8242 3.75 7.9297 0 2.3555 0.85938 2.6797 2.5742 1.3945 2.7852-2.1445 5.7891-4.1797 8.3594-6.4297 7.0742-6.4297 13.938-13.074 20.262-20.25 4.2852-4.9297 8.3594-10.074 12.219-15.43 5.5742-7.6055 10.934-15.32 15.328-23.68 2.7891-5.1406 6.2188-9.9648 8.5742-15.32 2.1445-4.8203 4.1836-9.75 6.2188-14.68 2.4648-5.8906 3.75-12.105 5.0391-18.215 1.5-7.3906 2.5703-15 3-22.715 0.64453-9.8555 1.2852-19.605 1.6094-29.465z" fill="#252628"/>
 <path d="m1064.3 554.94c6.8594 0.96484 13.824 0 20.902 0.75 6.4297 0.64062 12.969 0 19.398 0 4.6094 0 9.1133 0.32031 13.613 1.7148 6.8633 2.1406 9.3281 11.891 4.9336 16.285-2.5742 2.5703-6.5391 4.3906-10.613 4.8203-6.5391 0.53516-13.078-0.64062-19.617-0.64062-3.9648 0-7.9297-0.21484-11.898 0.32031-2.6797 0.32031-5.25 0-7.3945-0.85938-4.5039-1.7109-9.1133-0.75-13.723-0.96094-3.9648-0.21484-5.6797 2.3555-5.4648 6.8555 0 3.2148-0.42969 6.3203-2.0352 9.2148-0.32422 0.64062-0.64453 1.2852-0.64453 1.9297 0.10547 6.75-1.8242 13.285-1.9297 20.035-0.10547 7.1797-1.2852 14.355-3.1094 21.43-1.2852 4.9258-2.1445 10.176-2.5703 15.535-0.53906 6.2148-0.42969 12.641-1.9297 18.75-0.53906 2.25 0 4.2852 0.21484 6.3203 0.21094 2.3594 2.25 2.0352 4.0703 1.6094 9.9688-2.25 19.832-4.8242 29.906-6.5391 12.648-2.1406 24.336-7.1758 36.34-11.141 3.75-1.1797 7.7188-1.9297 10.719-4.7148 0.64453-0.53516 1.3945-0.53516 2.25-0.10547 2.6797 1.2852 4.3945 5.7852 2.6797 8.1406-2.7852 3.8594-6.1094 7.0703-10.504 9.2148-9.8594 4.8203-19.938 9-30.551 11.57-5.25 1.2852-10.609 2.4648-15.863 3.5352-8.3594 1.8242-16.828 3.1094-24.977 5.6797-6.4297 2.0352-12.648 4.5-19.723 4.6094-3.4297 0-6.7539 0.85547-10.184-0.64453-0.32031-0.10547-0.75-0.10547-0.96484-0.32031-4.8242-5.4648-11.898-8.8945-14.793-15.965-2.6797-6.5352-5.3594-13.07-7.0742-20.035-0.75-3-0.21484-5.8945-0.10547-8.6797 0.21484-11.359 0.75-22.609 3-33.75 0.85938-4.5 2.0352-9.2148 1.9297-13.609-0.21484-10.176 2.6797-19.715 4.2891-29.57 1.0703-6.8555 1.8203-13.715 3-20.465 1.2852-7.5 2.3594-15 4.3945-22.285 1.7148-6.1094 3-12.215 4.9297-18.215 1.8242-5.8945 3.8594-11.785 5.2539-17.895 1.5-7.0703 3.8594-14.035 5.6797-21.105 1.7188-6.5352 3.7539-12.965 4.9336-19.715 1.1797-6.9648 3.1094-13.82 4.5-20.785 0.64453-3.4297 1.1797-6.8594 1.2891-10.395 0-4.0703 1.5-5.25 5.3594-3.8555 5.0352 1.9258 10.289 3.1055 15.648 3.1055 6.7539 0 13.508 0 20.258-0.42969 3.0039-0.21094 5.8984 0.21484 8.793 0.21484 11.254-0.10547 22.508-0.53516 33.766-1.0703 7.3945-0.32031 14.898-0.64453 22.402-0.42969 4.5 0 8.8945 0 13.078 2.25 4.1797 2.25 5.0352 10.395 1.7148 13.824-5.4688 5.7852-12.543 6.75-19.723 7.6055-3.5391 0.42969-7.1836 0.75-10.613 1.7148-2.5742 0.64453-5.1445 0.96484-7.8242 0.64453-1.7148-0.21484-3.4297-0.42969-5.0391-0.21484-6.3242 0.75-12.543-1.1797-18.758-1.0742-4.9336 0-9.7539-0.75-14.688-0.96094-2.7852 0-5.3594-0.96484-8.1445-0.64453-3.9688 0.42969-5.2539 1.6055-3.8594 5.1445 1.3945 3.4258 0 6.75 0.75 10.07 1.6094 7.1797 1.0703 14.355-0.53516 21.43-0.53906 2.3555-0.21484 4.8203 0 7.0703 0.64062 7.1797-0.64453 14.25-0.85938 21.32-0.10547 6-2.0352 11.68-3.4297 17.465-1.8203 7.5-4.0742 15-5.7891 22.5-0.96484 4.0742-0.21484 4.6094 5.0391 4.6094z" fill="#252628"/>
 <path d="m517.23 674.19c-0.75-14.355 1.3945-28.5 3.2188-42.75 1.3906-10.5 3.4297-20.785 5.25-31.18 1.9297-11.25 3.6445-22.605 5.3594-33.965 0.75-4.9258 1.0742-9.9648 2.1445-14.785 1.2852-6 1.8242-12 3.3242-17.895 1.8203-6.9609 2.25-14.141 3.5352-21.105 1.2891-7.2852 2.6797-14.57 3.6445-21.965 1.7148-13.18 3.6445-26.25 4.7188-39.535 0.32031-4.7148 0.85547-9.6445 2.6797-14.145 0.96484-2.3555 2.4648-4.2852 5.3594-4.6055 7.1797-0.85938 14.578-1.5 21.117 2.25 7.2891 4.1758 12.754 10.285 15.543 18.535 1.7148 4.9297 4.2852 9.6445 5.8945 14.57 2.25 6.75 3.7539 13.715 5.2539 20.68 2.5703 11.895-1.0742 23.465-0.32422 35.145 0.42969 5.8906-2.3555 11.57-3.4297 17.355-0.96484 5.5703-1.6055 11.359-2.1445 17.035-0.10547 1.6094-1.3906 2.4648-1.5 4.0742-0.32031 5.4648-2.25 10.605-2.0352 16.285 0.10547 3.3203-1.3945 6.8555-2.5742 10.07-1.9297 5.25-2.4648 10.715-2.6797 16.18-0.21484 3.4297-1.6055 6.5352-2.3555 9.75-2.2539 9.9648-2.4688 20.25-3.7539 30.32-0.96484 7.7148-1.2852 15.539-2.8945 23.25-0.96484 4.5 0.53516 6 5.0391 4.6094 7.3945-2.25 15.008-3.4297 22.402-5.5703 5.5742-1.5 11.043-3.1094 16.508-4.8242 2.8945-0.85547 5.8945-1.7148 8.3633-3.3203 3.9648-2.4648 6.6445 0.42969 9.3242 2.0352 2.3594 1.3945 4.2891 4.0703 3.3242 7.2852-1.2891 4.8242-3.7539 8.8945-8.4688 11.465-6.6484 3.5352-13.723 5.6797-21.012 7.6094-6.1094 1.7109-12.219 3.9609-18.438 5.1406-5.7852 1.1797-11.574 3.1094-17.578 3-4.3945 0-8.4688 1.7148-12.758 2.25-13.074 1.7148-26.262 1.0703-39.336 0.53516-4.5039-0.21484-8.3633-4.6055-9.4336-10.285-0.42969-2.25-0.96484-4.5-0.96484-6.75s-1.0742-4.3906-0.32422-6.75z" fill="#252628"/>
 <path d="m67.02 677.51c4.3945-0.53516 9.6484-0.64062 14.898-0.64062 4.7188 0 9.4336-0.32031 14.152-0.53516 1.1797 0 2.25-0.42969 3.3203-0.75 3.6445-1.0742 7.3984-2.3594 11.258-0.53516 1.1797 0.53516 2.5703 0.32031 3.6445-0.21484 4.3945-2.0352 7.7148 0.96484 10.824 3 2.7891 1.8203 1.5 5.7852-1.8203 8.3555-5.2539 4.1797-11.684 4.1797-17.793 4.3945-4.0742 0.10547-8.043 0.85547-12.113 1.3906-8.1484 1.1797-16.293 1.0742-24.441 0.85938-7.6094-0.10938-15.008 1.1758-22.402 2.7852-5.1445 1.0703-10.613 1.3906-15.543 0.85547-5.7891-0.64062-11.254-3.6406-14.043-9.9648-1.9297-4.3906-4.0742-8.6758-5.3594-13.285-0.64453-2.3555-0.42969-4.7148-0.75-7.0703-1.6094-10.395-2.8945-20.895-4.3945-31.285-0.96484-7.1797-1.1797-14.574-2.5742-21.75-0.85547-4.8242-1.7148-9.6445-1.7148-14.359 0-6.4297-0.10547-12.965 0.42969-19.391 0.53516-7.2891 0.64453-14.574 1.7148-21.859 1.0703-7.9297 1.5-15.965 2.25-23.895 1.0742-10.711 2.4648-21.32 3.8594-32.035 1.3945-9.8555 2.6797-19.82 3.6445-29.785 0.96484-10.18 3.2148-20.25 3.9648-30.43 0.53906-7.7148 2.3594-15.535 0.96484-23.355-0.32031-1.9297 0.64453-3.5352 1.7188-4.1797 2.7852-1.8203 3.75-6.9648 8.3594-5.4648 2.7852 0.85937 5.6797 1.8203 7.8242 3.9648 2.3594 2.25 5.4688 1.3945 8.1484 1.5 5.6797 0.21484 11.469-0.32031 17.043-0.32031 9.7539 0 19.293-1.8242 29.047-1.5 5.8984 0.21484 11.898-0.75 17.797-0.32422 6.5391 0.42969 12.969 2.3594 19.613 2.6797 5.0391 0.21484 7.8281 3 10.723 6.2148 2.0352 2.1445 0.42578 7.3945-2.4688 8.25-8.6797 2.6797-17.578 3.4297-26.582 3.75-9.1133 0.32031-18.223 1.2852-27.227 1.8203-8.6836 0.42969-17.367-0.53516-26.047-1.1758-3.8594-0.32422-4.8242 0.85547-4.6094 4.6055 0.42578 7.2852 1.2852 14.57 0 21.965-1.2891 7.6055-2.4648 15.215-3.1094 22.93-0.75 8.25-2.0391 16.391-2.25 24.641-0.21484 5.4648-1.7148 10.609-2.3594 15.965-0.85938 6.6445-0.96484 13.395-0.32031 20.035 0 0.53906 0.32031 1.1797 0.21094 1.7148-0.85547 3.9648 1.0742 3.9648 4.2891 3.75 11.898-0.64062 23.797-2.4609 35.59-3.6406 7.9297-0.75 15.863-0.53516 23.797 0.21484 3.6445 0.32031 5.6797 3.4258 8.1445 5.6758 0.85938 0.75-1.6094 7.6094-2.7852 8.1445-3.9688 1.8203-6.7539 5.8945-11.473 6-5.8945 0.10547-11.574 2.0352-17.469 2.5703-5.3633 0.42969-10.723 0.21484-15.973 0.64453-5.4688 0.53516-10.613-0.32031-15.973-0.85938-2.8945-0.32031-5.5742 1.0742-8.4688 0.75-1.5-0.21094-0.75 1.2891-0.85547 2.0391-0.53906 4.9258 0.32031 9.8555 0 14.891-0.64453 7.6094-1.1797 15.109-1.5039 22.715-0.21094 5.25 0.64453 10.609 0 15.859-0.64062 6.5352-0.75 13.07-0.85547 19.711 0 5.4648 0 11.039 0.96484 16.395 0.64453 3.9648-0.21484 8.0352 1.0703 12 0.64453 2.0352 1.6094 2.7852 3.3242 3.2148 6.4297 1.5 12.863 2.25 20.258 2.1445z" fill="#252628"/>
</svg>
