<?xml version="1.0" encoding="UTF-8"?>
<svg width="1587" height="1587" version="1.0" viewBox="0 0 1190.2 1190.2" xmlns="http://www.w3.org/2000/svg" zoomAndPan="magnify">
 <defs>
  <clipPath id="a">
   <path d="m0 0h1189.5v1189.5h-1189.5z"/>
  </clipPath>
 </defs>
 <g clip-path="url(#a)" fill="#fff">
  <path d="m0 0h1189.5v1189.5h-1189.5z"/>
  <path d="m0 0h1189.5v1189.5h-1189.5z"/>
 </g>
 <path d="m415.53 336.14c10.102-43.352 27.566-91.746 60.395-132.36 2.3164-2.9453 26.938-32.828 60.609-56.816 17.047-12.203 36.406-22.938 56.398-27.984 15.152-3.7891 28.41-7.5781 45.035-10.945 23.992-5.0508 35.984-7.5742 44.402-7.3633h1.6836c23.992 1.0508 41.668 12.203 67.766 28.617 12.625 7.9961 29.672 21.887 50.504 39.562 28.832 24.406 53.031 67.336 62.715 111.95 2.5234 11.574 3.9961 23.148 4.418 34.719 0.21094 7.5781 0 15.152-0.63281 22.727-0.83984 7.7852-2.3125 16.414-3.3672 26.934-1.0508 10.102-1.2617 21.676 0 35.562 0.21094 1.4727 0.21094 3.1562 0.42188 4.6328 1.2617 10.309 2.7344 17.676 4.418 23.988 2.1055 7.9961 4.2109 14.309 5.8945 23.145 5.2617 28.828-2.3164 48.398-20.203 102.69-2.5234 7.3672-4.6289 14.309-6.7344 20.625-28.41 88.168-24.41 87.324-36.406 107.32-18.73 31.562-35.984 61.863-70.5 78.066-2.7344 5.6836-6.5234 15.152-8.207 27.145-4.8398 38.301 19.992 55.977 13.258 83.332-6.3125 25.461-31.566 25.461-31.145 41.453 0.83984 29.668 89.648 58.918 139.95 44.609 24.832-6.9453 41.035-11.574 53.242-25.883 3.1562-3.7852 6.9453-9.0469 13.891-11.152 13.047-3.5781 30.934 6.9453 33.039 14.941 7.3633 22.727-103.33 87.957-211.07 117.63-244.12 67.336-472.24-9.4688-471.39-23.148 0.21094-1.6836 3.7852-2.7344 16.203-14.52 7.5742-7.1523 9.4688-10.102 11.996-12.414 12.203-11.152 30.934-6.3125 48.82-5.8906 23.152 0.62891 39.984-5.8945 62.293-14.312 23.781-9.2578 56.188-21.672 66.922-51.344 5.4727-14.938 3.5781-28.828 2.3125-35.98-3.9961-25.672-18.727-39.77-28.617-54.082-13.051-18.516-17.047-46.293-25.043-101.63-5.2617-37.246-10.102-92.168-11.363-121.42-0.21094-4.8398-0.63281-18.727-4.2109-36.824-0.42188-1.6836-0.63281-3.3672-1.0508-4.8398-2.5273-8.207-4.4219-15.57-5.6836-21.465-10.312 36.195-20.414 39.562-24.621 39.773-9.0508 0.41797-14.52-12.836-32.621-38.508-26.723-37.879-31.984-33.25-39.562-49.871-19.148-41.875-1.2617-104.16 25.465-110.9 11.785-2.9453 23.57 5.0508 27.777 8.207 26.305 18.52 24.414 52.398 30.938 52.82 5.2617 0.20703 6.3125-21.254 10.309-53.449 1.0547-9.2617 2.3164-19.359 4.2109-29.883 1.8945-11.781 4.207-24.41 7.1562-37.246" fill="#b3713d"/>
 <path d="m778.75 460.5c-2.1016-5.0508-4.6289-10.52-6.9414-16.203-9.4727-22.516-19.785-50.289-22.309-85.012-5.6836-79.961 36.195-106.89 18.941-165.82-13.68-46.293-53.242-75.754-83.758-93.008 8.207 1.0508 20.203 2.5234 33.039 8.418 10.734 5.0508 21.676 11.992 34.723 20.199 12.629 7.9961 29.672 21.887 50.508 39.562 28.832 24.406 53.031 67.336 62.711 111.95 2.5273 11.574 4 23.148 4.4219 34.719 0.20703 7.5781 0 15.152-0.63281 22.727-0.84375 7.7891-2.3164 16.414-3.3672 26.938-1.0508 10.098-1.2617 21.672 0 35.562 0.21094 1.4727 0.21094 3.1562 0.42187 4.6289 1.2617 10.309 2.7344 17.676 4.418 23.988 2.1055 7.9961 4.2109 14.309 5.8945 23.145 5.4688 28.621-2.1055 47.977-19.992 102.48-2.5273 7.3633-4.6328 14.309-6.7344 20.621-28.41 88.168-24.414 87.328-36.41 107.32-18.727 31.562-35.984 61.867-70.496 78.07-72.812 34.086-164.99-15.152-205.39-36.617-1.2617-0.62891-2.7344-1.4727-3.9961-2.1016 90.488 32.402 127.32 21.25 144.36 4.418 44.191-43.559-15.996-156.56 33.461-194.02 26.094-19.777 55.977 1.4766 72.391-18.938 10.734-13.254 4.6289-29.879-5.2617-53.027" fill="#ee3a23"/>
 <path d="m566.84 285.21 0.62891 16.203 1.6836 48.398-119.53-64.812 114.9-70.281 2.3164 70.492" fill="#1a4895"/>
 <path d="m758.55 413.99c-4.2109 0.21094-17.68-37.875-4.2109-74.492 4-10.941 10.734-28.617 28.621-38.715 20.203-11.156 53.453-11.363 67.973 9.8867 8.207 11.996 10.945 31.355 1.8945 42.93-10.523 13.465-28.199 0.62891-58.293 15.781-7.3672 3.7891-22.52 11.574-30.305 27.777-4.6289 9.6797-3.7891 16.832-5.6797 16.832zm-192.35-88.379c11.785 17.254 36.406 5.6836 60.609 24.199 8.6289 6.5234 13.68 16.203 24.199 35.562 21.887 41.031 21.676 63.129 30.516 63.34 10.312 0.41797 24.199-29.672 26.516-59.344 0.63281-7.3633 4.207-54.711-30.305-85.852-35.145-31.773-96.594-34.512-111.75-11.363-6.3125 9.2578-6.1016 23.988 0.21094 33.457z" fill="#faca2a"/>
 <path d="m688.47 83.621c-4.4219 16.414-50.297 4.6328-98.699 17.887-90.703 25.043-138.89 123.52-154.05 154.66-17.254 35.352-37.035 75.754-37.668 128.99-0.21094 14.309 0.84375 46.293-4.8398 47.137-4 0.62891-6.1016-15.781-20.832-29.672-2.1055-2.1016-20.203-19.359-37.883-16.414-27.145 4.2109-43.352 54.293-39.141 91.328 2.3125 21.25 11.363 37.453 14.309 42.504 7.9961 13.258 12.836 14.52 27.988 31.566 29.254 32.195 33.672 52.395 45.668 51.133 11.996-1.2617 17.465-23.988 23.992-22.094 5.0508 1.2617 5.2578 15.57 5.2578 17.043 1.0547 55.133 11.996 109.84 15.363 164.77 6.1055 100.79 62.293 117.84 44.195 160.97-23.992 57.238-149.62 90.484-219.29 38.512-75.129-55.977-47.559-194.23-44.613-208.96 14.941-70.492 46.297-94.059 59.977-191.91 5.4727-39.562 1.6836-47.137 5.0508-89.434 2.1055-25.672 11.574-125.62 56.188-218 71.34-147.93 208.34-228.1 269.37-225.37 35.773 1.6836 62.711 20.832 62.711 20.832 5.8906 4.207 30.516 21.883 26.938 34.508zm38.93 20.836s10.945 3.1562 54.715 29.457c33.461 20.203 49.875 51.977 66.5 83.75 13.469 26.094 27.359 52.816 28.621 89.223 1.0547 29.879-7.5742 35.141-4.207 68.176 2.9453 30.094 10.941 36.406 13.469 64.602 1.4727 15.152 0.62891 30.723-6.9453 66.285-8.8398 40.613-16.414 76.805-37.039 124.36-26.516 61.441-45.246 105.21-82.074 129.2-5.4688 3.5781-11.152 6.5234-15.57 13.891-16.414 27.145 19.57 58.285 10.312 97.215-7.1562 30.094-33.672 33.039-30.938 47.77 5.6836 30.301 127.11 59.758 184.56 6.7305 10.945-9.8867 23.992-27.145 34.723-93.219 17.68-110.47 10.312-245.99-19.148-350.15-3.3672-11.574-11.363-38.719-13.891-76.176-3.1562-47.133 4.8398-74.277 7.3672-98.688 9.0469-87.75-49.246-191.91-127.74-232.73-50.93-26.512-109.22-25.672-110.27-21.461-0.63281 1.8945 10.73 4.6289 15.363 15.992 3.3672 8.207 0.21094 12.625 2.7344 19.359 4.207 10.52 19.148 13.465 29.461 16.414z" fill="#522400"/>
 <path d="m706.57 771.09c1.4727 4.2109-21.887 17.047-35.566 23.148-56.398 25.461-152.99 27.984-194.24-24.832-4.418-5.6797-10.945-24.828-24.203-62.918-3.9961-11.57-34.723-100.79-29.883-102.69 2.3164-0.83984 8.207 21.676 27.781 48.398 30.723 42.086 70.707 63.34 95.75 76.387 17.887 9.4688 32.828 14.938 62.922 25.883 40.195 14.727 56.191 17.043 68.605 17.883 15.574 0.63281 27.777-4.207 28.832-1.2617zm63.766-444.21c16.203 8.6289 32.406-10.52 59.133-15.57 14.52-2.7344 28.199-0.63281 40.617 3.7891-0.42188-11.363-1.8945-23.148-4.4219-34.723-46.719-15.992-102.7-0.42188-108.17 20.832-2.5234 9.2578 4.2109 21.043 12.84 25.672zm-174.88-39.559c26.723 5.0508 42.93 24.199 59.133 15.57 8.6289-4.6289 15.363-16.414 13.047-25.672-5.8906-23.355-72.812-39.98-121.43-15.359-34.512 17.465-53.875 52.605-48.824 58.285 6.1055 7.3672 47.984-42.293 98.07-32.824zm55.555 98.059c2.9453-1.8945-4.207-34.719-28.621-50.293-36.828-23.566-97.012 2.9453-97.645 19.359-0.21094 7.1562 10.523 15.57 19.992 15.781 9.8906 0.21094 12.207-9.0469 24.621-14.938 1.2617-0.63281 2.7383-1.2656 4-1.6836-1.0547 2.5234-1.6836 5.4688-1.6836 8.4141 0 12.629 10.312 22.938 22.938 22.938s22.938-10.309 22.938-22.938c0-1.2617-0.21094-2.5234-0.41797-3.7852 3.9961 1.6836 6.7305 3.3672 7.5742 3.7852 18.098 10.312 24.199 24.621 26.305 23.359zm148.15-30.512c-25.043 10.52-37.246 39.77-34.934 42.086 1.0547 1.0508 5.0508-4 13.047-9.4688 1.0547 9.2578 8 17.254 17.68 18.938 11.785 2.1055 22.938-5.6836 25.043-17.465 0.83984-4.8398 0-9.6797-2.1055-13.891 9.0469-0.21094 18.941 1.4727 27.148 7.3672 10.52 7.3633 11.152 16.414 20.41 17.887h0.42188c-1.2617-13.891-0.83984-25.672 0-35.562-17.887-11.363-44.613-19.148-66.711-9.8906z" fill="#522400"/>
 <path d="m783.59 628c-8 32.195-32.199 56.605-60.188 60.602-38.301 5.6836-81.023-26.934-86.074-76.805 48.613 5.4727 97.438 10.734 146.26 16.203zm-301.99-89.852c28.199 29.672 98.066 23.988 121.43-19.57 20.414-38.086 0.42188-94.48-39.352-107.11-41.457-13.258-85.863 27.566-94.699 67.965-1.0547 4.4219-7.5781 37.457 12.625 58.711zm375.22 16.625c-2.5273 7.3633-4.6328 14.309-6.7344 20.621-14.941-2.1055-28.41-7.9961-37.672-17.676-20.203-21.254-13.469-54.289-12.414-58.922 7.1523-32.824 37.668-65.652 71.129-69.859 2.1055 7.9961 4.207 14.309 5.8906 23.145 5.2617 28.832-2.3125 48.191-20.199 102.69z" fill="#fed1aa"/>
 <path d="m762.97 535.62c-1.4727-2.5273 11.996-8.6289 10.941-16.203-0.83984-6.3125-11.574-11.996-17.676-9.2617-5.0508 2.3164-2.9453 9.0508-9.2578 15.363-4 3.9961-11.574 8.207-17.891 6.3125-10.73-3.1562-8.6289-20.832-19.57-24.199-6.9453-2.1055-15.781 2.1055-19.992 7.7852-4.207 5.6836-1.8945 10.312-5.6836 13.68-5.4688 4.8398-17.887 1.8906-25.461-4-12.418-9.4688-14.312-28.406-9.2617-41.453 3.5781-9.0508 10.734-15.992 12.84-14.941 2.5234 1.2617-5.8945 14.098-1.2656 28.406 1.8945 6.1055 6.9453 14.941 13.258 15.152 8.418 0.42188 8.8398-15.992 21.047-20.832 17.047-6.7344 29.25 14.098 51.137 10.102 19.57-3.5781 24.621-22.727 33.25-19.57 10.734 3.7891 15.152 36.824 1.0508 49.027-6.5234 5.6836-16.414 6.5234-17.465 4.6328zm-30.934 132.36c37.246-7.7852 54.082-43.977 55.977-48.188 3.9961-30.301-10.523-55.133-29.461-59.969-12.207-3.1602-23.57 2.7344-28.621 5.8906-7.9961-6.7344-15.152-9.0508-20.414-9.8906-25.043-4-54.715 18.098-72.184 55.973 17.047 41.453 58.086 63.969 94.703 56.184zm-365.54-170.02c-5.2617-18.098 13.68-27.145 10.734-46.504-2.5273-15.992-19.363-32.406-33.883-30.301-14.309 2.1016-21.465 21.25-23.148 26.301-9.4688 26.094 5.0508 50.293 7.1562 53.66 1.4727 2.3164 6.7344 7.9961 17.465 19.148 26.094 27.566 29.883 30.723 33.039 29.461 5.4727-2.1055 6.1055-16.625 3.1562-27.145-3.9961-13.68-11.363-14.102-14.52-24.621z" fill="#522400"/>
 <path d="m790.32 617.27c3.3672 3.1562-1.6797 7.9961-5.0469 5.0508-17.469-15.574-42.934-17.465-62.715-5.2617-1.0508 0.63281-2.5234 0.63281-3.5781 0-24.621-14.73-54.504-15.57-79.969-2.1055-3.9961 2.1055-7.5742-3.9961-3.5742-6.1016 12.203-6.5234 25.672-10.312 39.773-10.73 8.8359-0.21094 17.887 0.83984 26.516 3.3672 5.8906 1.6836 12.414 6.5234 18.309 7.7852 2.1016 0.42188-0.84375 0.83984 3.1562-0.63281 2.5234-0.83984 5.0508-2.3125 7.5742-3.3672 7.9961-2.9453 16.836-4.207 25.465-3.3672 12.625 1.0547 24.41 6.7344 34.09 15.363zm-262.21-296.28c-0.63281 0.42188-1.4727 0.63281-2.1055 1.0508-4.6289 2.5273-0.41797 9.6797 4.2109 7.1562 52.188-29.461 118.06-11.785 145.84 41.664 2.5273 4.6289 9.6797 0.63281 7.1562-4.207-6.3125-11.996-14.312-22.098-23.57-30.723 4.8398-5.0508 9.6797-10.102 14.73-15.152 3.7891-3.7891-2.1055-9.6797-5.8906-5.8906-5.0508 5.2578-10.102 10.52-15.152 15.781-9.0508-7.1562-19.152-12.836-29.883-16.836 3.5781-10.309 7.1523-20.41 10.73-30.723 1.6836-5.0469-6.3125-7.1523-7.9961-2.1016-3.5781 10.102-6.9453 20.199-10.523 30.301-13.676-4-28.199-5.4727-42.93-4-0.83984-11.359-1.8945-22.516-2.7344-33.875-0.42188-5.2617-8.6289-5.2617-8.207 0 1.0508 11.57 1.8945 23.355 2.9453 34.93-9.8906 1.6836-19.57 4.6289-29.043 8.8359-3.9961-8.207-7.9961-16.41-11.992-24.617-2.3164-4.8398-9.4727-0.63281-7.1562 4.207 3.7891 8.207 7.7852 16.203 11.574 24.199zm312.09 5.8906c-3.5781-0.21094-7.3672-0.41797-10.945-0.41797 2.3164-6.5234 4.2109-13.047 5.6836-19.57 1.0508-5.2617-6.9453-7.3672-8-2.1055-1.6797 7.5742-3.7852 14.941-6.5234 22.094-8.625 0.42188-17.043 1.8945-25.043 4.2109-1.8906-9.6797-3.9961-19.57-5.8906-29.25-1.0508-5.2617-9.0508-2.9453-7.9961 2.1055 1.8945 9.8867 3.9961 19.777 5.8906 29.668-8.418 3.3672-16.203 7.7852-23.148 13.887-3.9961-6.7305-7.9961-13.465-11.996-20.199-2.7344-4.6289-9.8906-0.42188-7.1523 4.207 4.418 7.3672 8.8359 14.73 13.258 22.098-3.5781 3.9961-6.7344 8.4141-9.4727 13.676-2.5234 4.6289 4.6328 8.8398 7.1562 4.2109 16.414-31.355 51.559-38.512 84.18-35.984 5.2578 0 5.2578-8.207 0-8.6289zm-334.4 91.117c8-6.9453 15.996-13.891 23.992-20.832 4-3.5781-1.8945-9.2617-5.8906-5.8945-8 6.9453-15.996 13.891-23.992 20.832-4 3.5781 1.8945 9.4688 5.8906 5.8945zm65.871-22.938c-2.3164 4.8398-4.6289 9.6797-6.9453 14.73-2.3164 4.8398 4.8398 9.0469 7.1562 4.207 2.3125-4.8398 4.6289-9.6797 6.9453-14.73 2.1016-4.8398-5.0508-9.0469-7.1562-4.207zm37.039 5.6797c1.8906 9.0508 3.3672 17.887 4.418 27.148 0.63281 5.2578 8.8398 5.2578 8.207 0-1.0508-9.8906-2.7344-19.57-4.6289-29.25-1.0547-5.2617-9.0508-2.9453-7.9961 2.1016zm30.301-3.7852c-2.1016 1.2617-2.5234 3.5781-1.4727 5.6797 1.6836 3.3672 3.3672 6.5234 5.0508 9.8906 1.0547 1.8945 3.7891 2.5234 5.6836 1.4727 2.1055-1.2617 2.5234-3.5781 1.4727-5.6797-1.6836-3.3672-3.3672-6.5234-5.0508-9.8906-0.84375-1.8945-3.7891-2.5273-5.6836-1.4727zm120.59 43.348c4.8398-6.5234 9.8906-13.047 14.73-19.57 3.1562-4.207-3.9961-8.418-7.1562-4.207-4.8398 6.5234-9.8906 13.043-14.73 19.566-3.1562 4.2109 4 8.418 7.1562 4.2109zm30.094-18.309v12.414c0 5.2617 8.207 5.2617 8.207 0v-12.414c0.21094-5.2617-8.207-5.2617-8.207 0zm36.406-7.3633c-2.9453-4.4219-10.312-0.21094-7.1562 4.207 5.0508 7.3672 10.312 14.73 15.363 22.094 2.9453 4.4219 10.312 0.21094 7.1562-4.207-5.0508-7.3633-10.102-14.73-15.363-22.094zm31.566 5.0508c-1.4727-2.9492-2.9453-5.8945-4.418-8.8398-1.0547-1.8945-3.7891-2.5234-5.6836-1.4727-2.1055 1.2617-2.5234 3.5781-1.4727 5.6797 1.4727 2.9492 2.9453 5.8945 4.418 8.8398 1.0547 1.8945 3.7891 2.5234 5.6836 1.4727 2.1055-1.2617 2.5234-3.7891 1.4727-5.6797zm-179.72 302.38c-106.27-5.8945-208.34-67.547-237.38-174.23-1.4766-5.0508-9.4727-2.9453-8 2.1055 30.094 110.47 135.32 174.23 245.38 180.34 5.2617 0.41797 5.2617-7.7891 0-8.207z" fill="#fff"/>
</svg>
