<?xml version='1.0' encoding='utf-8'?>
<svg xmlns="http://www.w3.org/2000/svg" width="1587" height="1587" version="1.0" viewBox="0 0 1190.2 1190.2" zoomAndPan="magnify">
 <defs>
  <clipPath id="a" fill="none">
   <path d="m0 0h1189.5v1189.5h-1189.5z" fill="none" />
  </clipPath>
  <clipPath id="b" fill="none">
   <path d="m0 462.44h285v302.29h-285z" fill="none" />
  </clipPath>
  <clipPath id="c" fill="none">
   <path d="m903 479h286.5v267h-286.5z" fill="none" />
  </clipPath>
 </defs>
 <g clip-path="url(#a)" fill="none">
  <path d="m0 0h1189.5v1189.5h-1189.5z" fill="none" />
  <path d="m0 0h1189.5v1189.5h-1189.5z" fill="none" />
 </g>
 <path d="m795.58 590.05c-22.277-33.77-45.277-52.91-73.09-65.855-4.1836-1.9258-8.875-2.9727-13.383-1.4492-10.02 3.2969-6.7266 0.6875-19.16 6.3516-44.117 20.078-87.605 47.273-105.83 92.445-7.3125 18.102-7.7109 24.574-8.0742 33.324-0.64844 15.414-0.28906 21.109 7.5547 33.785 4.1914 6.7422 13.141 15.695 21.207 19.68 9.7305 4.8125 19.805 4.9336 31.039 4.1992 13.734-0.91016 22.805-2.5195 46.762-21.445 1.5156-1.1875 13.855-11.738 19.609-17.402 1.9141-1.8945-0.66016-2.1367 8.7812 10.141 19.078 25.055 41.512 34.484 60.246 34.336 4.6289-0.039062 12.359-1.4688 21.422-5.2656 11.281-4.7109 14.867-8.9922 19.773-15.816 6.1992-8.6953 9.7773-20.488 10.41-26.676 2.3125-23.078-14.332-61.219-27.266-80.352" fill="#281d0d" />
 <path d="m860.63 516.45c-1.2656-9.5859-3.7461-13.188-8.4102-19.625-29.766-41.039-84.836 23.043-58.242 55.688 12.473 15.297 41.262 20.496 56.82-0.16016 7.3477-9.6836 11.215-25.594 9.832-35.902" fill="#281d0d" />
 <path d="m745.37 513.4c3.1328 0.44531 9.3398 0.78906 13.168 0.47266 20.723-1.7266 28.715-22.566 29.219-43.438 0.47266-18.934-14.277-36.34-36.086-34.094-10.863 1.1992-11.801 1.7773-18.188 7.9609-21.113 20.387-17.098 64.957 11.887 69.098" fill="#281d0d" />
 <path d="m685.13 510.94c23.289-5.2852 23.02-48.145 11.086-63.145-18.223-22.828-49.977-16.227-55.34 5.4961-11.641 22.152 0.21484 67.781 44.254 57.648" fill="#281d0d" />
 <path d="m594.82 557.27c12.656 0.94922 22.488-3.7891 27.941-10.176 10-11.637 9.6836-34.316 4.3125-46.754-1.7734-4.125-3.9844-7.1602-6.4023-10.496-4.5547-6.3242-6.1992-8.207-12.23-11.664-7.6562-4.4102-21.355-3.5-28.992 0.41797-0.16016 0.09375-8.7266 1.8594-15.336 15.094-12.59 25.223 4.8633 61.629 30.707 63.578" fill="#281d0d" />
 <path d="m350.63 496.74c0 4.4844-0.27734 8.9688-0.22266 13.465 0.10156 8.1641 1.0039 6.9453 0.82812 41.504-0.10156 23.738 1.2812 39.816-0.074219 60.676-0.011718 0.10156-0.80859 22.578-0.074218 32.828 1.1328 13.617 0.23047 20.172 1.1328 38.137 1.2461 12.516-0.76172 18.137 0.17578 18.203 25.824 1.6406 151.61 1.5664 158.11-3.7461 0.074219-16.77 1.1719-14.941 0.34375-36.898-0.082031-2.1445 0.03125-4.3086-0.10156-6.4531-0.26953-4.3555-0.42578-4.5039-0.18359-11.246-3.375-3.6953-16.105-3.7695-22.297-4.293-11.465-1.0312-22.914-0.84375-22.812-0.84375-43.844 0.10156-55.172-0.86328-55.07-0.86328 0.066406-0.76172 0-22.707 0.27734-35.07 23.262-0.99219 43.715-0.74219 43.613-0.74219 14.227 1.5703 20.77 0.58594 34.254-0.60156 2.1562-0.19531 4.4688-0.47656 7.2227-0.875-0.625-12.047-1.1445-7.5781-0.1875-23.98 0.78906-13.594 0.63281-13.027-0.046875-30.879-10-1.3672-10.465-2.0156-30.52-2.6094-17.711-0.53125-33.129-0.98438-53.062 0.027344 1.0312-28.371 0.77344-39.293 0.77344-39.203 4.2266-0.29688 6.2266-1.7461 26.355-2.1641 9.0859-0.21094 60.562-2.0586 67.836-5.1055 0.058594-11.109-0.76172-18.055-1.6602-59.207-16.664-3.9453-55.453-4.1602-70.332-5.5898-5.0352-0.49219-28.137-1.3477-28.047-1.3477-20.023-0.75391-24.121-1.1406-36.297-0.007812-20.734 1.9102-20.238 1.5664-21.996 3.1289-0.56641 13.457 0.53906 5.0703 1.1992 40.324 0.18359 9.9648 0.86328 15.473 0.86328 23.434" fill="#281d0d" />
 <g clip-path="url(#b)">
  <path d="m271.62 657.64c-4.6758-20.582-9.5078-47.777-11.598-60.656-5.5039-34.094-3.6328-20.285-7.4336-42.285-4.5078-26.07-7.707-36.676-14.676-71.227-2.8047-10.586-2.7969-9.3594-5.1758-20.949-1.9336 0.10156-3.8672 0.19531-5.8086 0.23047-19.719 0.41797-23.379 2.2305-55.152 1.6445-1.0039 1.4219-1.4883 2.6367-2.2031 4.1719-21.18 44.484-14.449 39.191-30.191 72.551-6.5977 13.957-7.6484 17.934-12.621 28.977-0.30859-0.63281-3.8398-7.6445-9.8594-16.867-8.3281-12.742-10.289-19.297-17.055-29.828-5.7227-8.918-6.2266-10.414-10.953-16.578-10.254-13.941-16.301-26.145-28.074-35.859-16.598 0.62109-6.4219 1.207-47.172 3.0273-0.37109 4.9609-1.0039 9.9102-1.3672 14.867-1.0508 20.285 0.61328 9.8633-2.7305 48.52-4.8242 123.13-2.2773 6.9727-9.5547 221.32 8.2422 0.29688 17.379 0.6875 24.012 2.0625 11.117 2.3203 20.902 2.8594 20.25 2.8047 22.117 1.7344 19.703 6.9375 25.285-36.082l-0.027344 0.12891c0.20703-1.4492 0.40234-2.9062 0.58594-4.3633l-0.019531 0.10156c4.4453-32.906 4.4062-64.613 4.1758-102.65 3.25 3.5859 7.0781 8.9805 16.52 20.637l-0.054688-0.082031c0.066407 0.089843 0.91016 1.1953 0.84766 1.1016l0.28516 0.39062c6.9062 9.2422 2.4453 2.1562 24.832 30.473 1.6992 2.1641 4.8867 5.0156 4.8047 4.9336 10.141 9.5078 11.133 12.945 14.562 13.828 2.4727 0.65625 4.9141-0.60547 6.4844-2.6758 0.78125-0.37109 1.4609-0.97656 1.9336-1.7383 5.9766-9.4531 20.094-32.559 24.887-42.703 2.4727-5.2461 4.582-8.9141 4.5469-8.8477 12.898-23.637 9.1523-20.023 19.543-40.449 0.015625 0.09375 16.895 103.75 20.07 114.75 4.332 14.961 5.3242 22.883 7.3047 27.824 15.723 1.5156 16.273-0.20312 29.395 0.14062 16.242 0.42578 15.156-0.66797 33.816-2.5-2.7773-13.875-4.1523-33.426-7.8594-52.777-1.6289-8.4336-3.0117-16.914-4.5547-25.363" fill="none" />
 </g>
 <g clip-path="url(#c)">
  <path d="m1128.6 493.88c-10.027 20.516-21.625 66.785-27.273 86.613-8.7617 30.688-0.066406 5.8164-17.379 58.5-7.2383-16.539-7.4141-15.805-11.914-23.895-5.4609-9.8711-8.875-18.277-25.219-48.137-3.8008-6.9453-8.4375-13.363-13.27-22.129-2.3711 1.3438-8.793 8.832-10.383 11.133-12.062 17.332-8.5195 13.086-23.074 36.898l-0.33203 0.56641-1.0352 1.4414c-13.5 18.844-7.9062 14.922-20.23 31.324-0.007813-0.09375-7.3203-88.199-10.621-112.48-1.7383-12.938-0.56641-26.043-2.6016-33.844-6.5508 1.4492-10.871 1.0859-15.473 1.8008-22.684 3.4922-14.941 0.32422-46.473 5.8711 3.9219 35.523 2.6953 23.348 4.2656 45.219 5.7031 65.922 8.1016 67.508 11.355 107.11 0.015625 0.73438 0.73438 7.0117 1.2148 14.574 2.5664 40.66 2.7227 32.059 9.4609 84.746 28.055 5.8945 32.555 5.4609 48.344 6.1484 4.6289-2.1484 7.0977-8.0273 9.5352-13.188 3.3633-7.0898 3.3086-6.0391 8.5859-15.547 6.3281-11.508 21.094-41.629 31.289-55 2.2305 5.2383 3.2891 10.363 9.2109 24.285 10.871 25.539 17.152 48.824 21.223 56.078 2.1211-0.28125 4.125-0.74609 6.2188-0.6875 1.9219 0.054688 28.324 1.5508 53.156 3.6484 16.297-49.141 60.875-196.32 72.344-245.1-11.504-0.55469-25.648-3.9102-60.926-5.9531" fill="none" />
 </g>
</svg>