<?xml version='1.0' encoding='utf-8'?>
<svg xmlns="http://www.w3.org/2000/svg" width="1587" height="1587" version="1.0" viewBox="0 0 1190.2 1190.2" zoomAndPan="magnify">
 <defs>
  <clipPath id="a" fill="none">
   <path d="m0 0h1189.5v1189.5h-1189.5z" fill="none" />
  </clipPath>
  <clipPath id="b" fill="none">
   <path d="m1 49.008h1163v1062h-1163z" fill="none" />
  </clipPath>
 </defs>
 <g clip-path="url(#a)" fill="none">
  <path d="m0 0h1189.5v1189.5h-1189.5z" fill="none" />
  <path d="m0 0h1189.5v1189.5h-1189.5z" fill="none" />
 </g>
 <g clip-path="url(#b)">
  <path d="m147.01 1070.1c-0.37109-20.594 2.4648-21.035-3.0742-37.41l-14.32-52.91c-9.5898-41.566-34.383-196.18-33.535-227.31-0.87891-60.133 9.4883-196.07 26.547-253.81 17.055-57.738 77.477-154.91 112.27-193 30.195-30.492 44.887-48.285 87.812-72.125 18.883-9.8242 38.066-17.926 56.945-27.754 21.48-11.918 101.49-41.531 126.89-47.168l110-6.6875c38.438 2.668 53.23 3.8164 93.016 14.891 92.309 28.77 83.223 26.742 152.29 74.621 32.559 20.801 65.117 41.598 87.645 72.562 11.516 17.152 24.555 25.492 33.773 46.426 7.332 9.2188 8.6797 17.594 15.977 26.809l33.301 98.191c12.969 44.5 23.645 92.785 31.48 141.51 2.4297 15.129 10.402 137.9 8.375 143.37 19.352 65.91-11.215 167.07-20.398 237.37-0.71094 13.875-1.1172 29.441 3.8828 42.441 3.918 6.2812 4.457 9.625 10.977 13.812 3.6484 4.5898 3.3789 2.9023 6.7891 5.8398 3.6484 4.5898 3.1055 1.25 3.6484 4.5898 17.934 2.3984 42.621 10.637 61.129-19.785 29.793-51.121 17.293-147.35 23.746-198.27 1.9258-24.41 1.8242-43.32 0.37109-70.668-0.91406-23.977 1.2812-46.699 0.37109-70.672 0.47266-51.727-1.1133-97.988-6.6211-150.52-8.6094-53.789-27.324-97.379-40.832-145.23-20.973-75.973-83.727-157.55-135.95-209.75-30.801-27.957-58.461-54.699-91.02-75.465-33.102-24.141-70.859-40.719-116.86-54.258-21.309-5.3047-40.055-12.766-64.473-19.316-12.227-3.2734-21.043-3.6445-36.105-6.4805-5.9805-0.8125-29.047 1.0469-32.73-3.5469-13.98 3.8828-35.293-1.418-52.688-0.47266-37.895 0.67578-134.09 20.73-167.49 31.062-61.133 19.789-124.87 41.703-177.32 79.078-78.832 55.242-167.39 177.44-199.85 266.81-6.1133 16.445-15.434 67.836-21.008 87.621-6.8203 30.32-15.668 157.41-18.574 194.02-0.30469 34.508 8.4766 71.008 8.1406 105.52-4.0195 66.078-5.2031 40.418 5.3008 105.96 4.1562 44.129 16.82 123.11 37.559 161.23 17.324 35.219 61.199 35.32 79.031 18.773 12.836-10.535 9.4258-13.438 15.57-29.883" fill="none" fill-rule="evenodd" />
 </g>
 <path d="m206.09 1092.9c0.26953 1.6875 19.25 67.562 66.77 41.156 42.457-22.184 11.047-75.801 11.992-87.988l-0.26953-1.6914c-7.7344-12.559-14.863-57.941-19.895-89.848-1.5859-10.098 0.40625-15.566 1.8906-24.414 0.17188-17.254-3.2734-39.098-3.4102-58.008l-6.25-112.67 19.793-147.79c14.355-72.863 37.895-105.85 78.086-160.38 28.07-40.586 83.086-92.281 158.98-102.55 39.48-4.4883 68.562-2.1914 106.56 2.1641 46.406 3.0039 55.625 6.75 87.609 27.551 25.062 13.27 24.793 11.617 40.395 19.484 28.406 16.207 81.938 64.59 97.645 91.402 8.2422 15.934 37.117 71.648 42.555 88.023 29.621 96.941 38.672 117.91 37.762 221.36l-5.3047 93.836c-1.7539 7.1562-1.7539 7.1562-4.0195 10.973 1.0508 6.7188-7.5312 61.453-9.0156 70.301-4.9648 23.16-13.004 45.109-18.238 66.582-17.598 88.871 44.043 79.18 64.406 26.035 4.0195-10.973 4.9648-23.164 8.9844-34.137 22.598-56.961 41.004-140.77 48.805-200.57 1.2188-10.535 1.8906-24.41 3.1094-34.945-0.64453-22.285-1.0156-42.883-1.6562-65.168-3.7148-23.535-7.1602-45.379-11.113-70.57-11.551-55 2.7383-55.543-23.438-130.64-18.07-41.938-30.195-64.121-55.629-98.02-22.898-35.992-76.195-82.727-108.96-108.55-13.07-9.9961-28.641-17.863-41.711-27.891-117.67-72.73-201.84-78.438-340.75-30.727-76.059 27.484-127.73 82.117-165.97 131.18-49.578 68.07-86.328 144.48-96.73 242.54-4.6953 24.852-0.03125 36.16-4.9961 59.359-5.5078 19.82-5.3711 38.727-4.7617 61.012 3.8164 42.441-7.0273 64.828 5.8398 128.24 3.7148 23.531 9.6953 43.25 13.375 66.785 3.9883 25.223 4.5938 47.473 11.383 72.258 3.7148 23.5 9.6953 43.219 16.18 66.316" fill="#f3b377" fill-rule="evenodd" />
 <path d="m344.73 1043.5c12.395 23.871 7.668 48.723 34.043 70.398 23.035 18.773 51.34 16.039 70.828-5.9766 7.3281-8.0352 13.645-22.824 11.516-36.262-4.2227-26.879-23.168-37.684-32.121-131.01-4.1875-63.07-9.3203-113.92-5.0977-178.28 1.8906-24.414 12.969-136.38 18.473-156.16 5.7773-18.133 6.0117-16.445 18.441-28.734 10.133-8.4766 17.496-16.547 30.973-22.082 53.902-22.254 106.86-32.316 164.62-12.125 11.754 1.5898 26.816 6.1133 33.473 11.953 6.3828 4.1562 19.992 17.527 26.648 23.367 32.086 39.707 40.156 109.06 43.535 167.07 4.0508 80.293 2.8359 90.828-5.1367 167.85-1.9922 5.4688-21.918 134.32-25.668 146.98l-1.9922 5.4688c1.3164 8.4062-15.941 62.77 42.625 51.828 10.941-3.4414 22.832-19.109 27.66-25.02 17.633-33.766 26.141-107.44 38.605-155.89 1.4844-8.8438 3.3789-33.258 5.6406-37.039 1.8906-24.414 10.738-41.297 9.6914-84.211-0.60547-58.449-5.3672-179.97-33.738-232.34-37.93-76.68-33.641-85.965-131.48-123.95-60.797-21.441-79.609-13.305-125.24-11.277-45.898 0.33594-96.055 9.9609-129.56 34.168-20.84 13.609-41.645 27.215-55.289 50.043-33.809 58.715-39.586 76.848-49.145 143.77-0.4375 15.566-5.7734 18.133-5.1328 40.418 1.1836 25.629-2.4648 57.23-3.3086 88.363l5.6406 90.391c6.2109 57.566 7.9336 86.574 20.5 148.3" fill="#dc685f" fill-rule="evenodd" />
 <path d="m578.01 738.12-0.26953-1.6875-6.9258-7.5273c-34.211-53.184-123.34-35.691-76.531 79.211 13.68 32.281 56.941 106.43 79.742 123.48 6.6523 5.8398 31.984 20.797 38.129 23.262 12.699-10.602 36.883-57.465 42.66-75.598 9.7617-29.105 16.211-61.117 23.168-89.75 4.1562-28.227 10.504-79.145-20.164-91.535-33.469-11.922-65.117 24.074-79.809 40.145" fill="#abbc8a" fill-rule="evenodd" />
 <path d="m530.93 184.14c-21.344 10.266-16.18 24.918 3.9531 25.223 11.48-0.066406 42.555-3.2422 53.496-6.6836 19.086-6.4492 13.105-26.168-7.0234-26.441-8.6445-0.40234-45.09 5.3359-50.426 7.9023" fill="#914a48" fill-rule="evenodd" />
 <path d="m851.72 288.64c-12.668 10.602 13.441 30.59 20.094 36.434 6.3867 4.1523 26.648 23.363 39.078 11.074 17.227-18.199-49.039-56.016-59.172-47.508" fill="#914a48" fill-rule="evenodd" />
 <path d="m386.41 232.73c-40.426 16.711-51.672 54.629-16.582 40.484 59.512-23.129 41.004-49.5 16.582-40.484" fill="#914a48" fill-rule="evenodd" />
 <path d="m919.68 355.43c-17.766 14.855 23.812 59.965 35.023 58.211 14.289-0.54297-4.7617-30.254-5.8086-36.973-4.6953-11.312-13.746-32.281-29.215-21.238" fill="#914a48" fill-rule="evenodd" />
 <path d="m623.51 188.49c-17.766 14.855 50.898 31.605 63.324 19.312 22.293-22.453-53.465-29.477-63.324-19.312" fill="#914a48" fill-rule="evenodd" />
 <path d="m192.27 421.71c-7.8672 4.6953-14.422 17.762-18.441 28.734-9.3555 13.543-3.6445 31.57 12.398 23.875 5.3359-2.5664 28.57-37.211 23.945-48.555-1.3867-8.375-10.031-8.7109-17.902-4.0547" fill="#914a48" fill-rule="evenodd" />
 <path d="m273.6 336.59c14.793 2.8359 66.062-36.23 49.953-47.473-12.801-8.3047-29.758 11.582-34.824 15.801-7.3945 8.0703-22.863 19.113-15.129 31.672" fill="#914a48" fill-rule="evenodd" />
 <path d="m1046.3 704.02c6.8203-11.414 8.4766-73.676-17.664-57.504-7.8711 4.6953-5.2344 21.477-3.3789 33.262 2.3984 15.125 4.2578 26.875 21.043 24.242" fill="#914a48" fill-rule="evenodd" />
 <path d="m994.72 503.76c6.2852-14.754 0.10156-72.359-24.082-61.656-10.402 6.8203-1.3828 27.758 3.043 37.414 4.8945 13.031 7.0234 26.473 21.039 24.242" fill="#914a48" fill-rule="evenodd" />
 <path d="m1020.7 596.11c7.5977-6.3477 8.0391-21.914 6.1797-33.695 0.94531-12.191-2.5-34.039-16.516-31.844-19.859 1.418-4.7266 61.016 10.336 65.539" fill="#914a48" fill-rule="evenodd" />
 <path d="m1025.2 1007c1.4844-8.8477 0.03125-36.164-14.66-20.094-5.0664 4.2578-10.84 22.387-12.562 29.547-10.031 27.418 23.707 41.059 27.223-9.4531" fill="#914a48" fill-rule="evenodd" />
 <path d="m1057.4 846.95c3.3789-33.262-25.16-32.215-28.539 1.0469 1.8594 11.75 1.6875 29.004 15.707 26.809 10.941-3.4453 11.617-17.324 12.832-27.855" fill="#914a48" fill-rule="evenodd" />
 <path d="m1030.3 784.04c6.6562 5.8398 7.7344 12.562 21.211 6.9883 3.75-12.66 1.3867-27.754 1.5195-45.008-6.418-4.1523-3.8477-6.2812-12.531-6.6523-5.6055 0.87891-7.8672 4.6953-10.129 8.4766-4.0547 11.008-1.9258 24.445-0.070313 36.195" fill="#914a48" fill-rule="evenodd" />
 <path d="m778.3 241.64c-0.67578 13.875 14.656 20.09 21.312 25.93 6.3828 4.1523 25.871 18.301 33.199 10.266 11.617-17.32-34.922-39.305-54.512-36.195" fill="#914a48" fill-rule="evenodd" />
 <path d="m704.16 208.52c-6.5508 13.066 48.906 37.074 55.727 25.66 17.227-18.199-48.363-33.695-55.727-25.66" fill="#914a48" fill-rule="evenodd" />
 <path d="m484.89 201.73c-21.445-8.6797-58.023 14.316-44.445 27.652 3.8477 6.2812 57.078-2.0938 44.445-27.652" fill="#914a48" fill-rule="evenodd" />
 <path d="m1026.1 903.54c-4.5625 7.5977-9.3555 13.539-10.574 24.039-0.94531 12.191 3.7188 23.535 12.125 22.219 19.863-1.418 20.707-32.551 12.734-46.766z" fill="#914a48" fill-rule="evenodd" />
 <path d="m153.26 557.01c14.523 1.1445 19.082-6.4492 19.758-20.328 0.94531-12.191 4.6953-24.852 0.57422-32.82-14.523-1.1484-16.008 7.6992-20.027 18.637-3.7148 12.664-5.2031 21.512-0.30469 34.512" fill="#914a48" fill-rule="evenodd" />
 <path d="m879.86 831.82c-7.3633 8.0352-17.395 35.453 0.20312 37.852 20.672 3.6445 25.906-17.863 20.703-32.551-6.3477-4.1523-9.6914-7.0547-20.906-5.3008" fill="#789b8a" fill-rule="evenodd" />
 <path d="m241.82 353.64c-25.367 21.207-27.695 61.184-5.1367 40.418 4.832-5.9102 14.422-17.762 18.98-25.355 6.8242-11.414-0.875-23.977-13.844-15.062" fill="#914a48" fill-rule="evenodd" />
 <path d="m836.25 1047.1c8.7812 19.277 41.879 10.637 32.559-12.02-6.5195-23.062-42.152-12.293-32.559 12.02" fill="#789b8a" fill-rule="evenodd" />
 <path d="m295.15 1020.3c6.1484 2.5 9.7266 7.0898 20.672 3.6445 5.3359-2.5664 7.5977-6.3789 12.699-10.602 0.67578-13.875-7.0273-26.438-23.578-22.117-10.977 3.4141-11.648 17.289-9.793 29.074" fill="#789b8a" fill-rule="evenodd" />
 <path d="m144.04 589.45c-12.426 12.293-13.949 57.301 6.8906 43.691 13.207-7.2227 10.336-61.891-6.8906-43.691" fill="#914a48" fill-rule="evenodd" />
 <path d="m893.87 920.89c7.7695-23.602-21.582-27.621-32.387-5.2344-8.5469 18.57 22.086 30.961 32.387 5.2344" fill="#789b8a" fill-rule="evenodd" />
 <path d="m141.68 665.63c-10.941 3.4453-12.43 12.289-16.684 21.574-1.2148 10.504 0.37109 20.598 9.5898 24.312 20.91 5.3008 20.133-35.895 7.0938-45.887" fill="#914a48" fill-rule="evenodd" />
 <path d="m881.27 986.6c5.7773-18.133-20.637-39.812-28.371-16.207-12.598 29.543 22.359 32.648 28.371 16.207" fill="#789b8a" fill-rule="evenodd" />
 <path d="m155.52 990.62c11.418 36.098 25.332 14.957 21.617-8.5742-4.7617-30.223-32.223-22.453-21.617 8.5742" fill="#914a48" fill-rule="evenodd" />
 <path d="m312.24 891.92c5.2344-21.473-24.891-30.523-30.125-9.0469-7.7695 23.602 22.121 30.961 30.125 9.0469" fill="#789b8a" fill-rule="evenodd" />
 <path d="m150.32 884.7c-11.484 0.070313-12.938 8.9141-11.352 19.012-1.2148 10.535 0.91406 23.973 9.832 26 20.938 5.3008 14.859-33.328 1.5195-45.012" fill="#914a48" fill-rule="evenodd" />
 <path d="m398.57 437.48c-21.074 11.918-13.781 40.047 7.5664 29.816 24.148-10.703 10.977-39.641-7.5664-29.816" fill="#789b8a" fill-rule="evenodd" />
 <path d="m127.56 740.18c-9.8945 10.16-3.7812 48.824 14.219 35.656 12.699-10.637 3.2773-52.203-14.219-35.656" fill="#914a48" fill-rule="evenodd" />
 <path d="m867.32 733.93c15.875 9.5586 41.512-9.957 27.629-25.02-3.8516-6.2773-18.137-5.7383-22.934 0.17188-4.8281 5.9062-8.5781 18.57-4.6953 24.848" fill="#789b8a" fill-rule="evenodd" />
 <path d="m130.57 813.76c-7.3633 8.0352-0.47656 51.727 17.562 38.559 10.133-8.5078-2.8711-54.668-17.562-38.559" fill="#914a48" fill-rule="evenodd" />
 <path d="m310.28 769.96c8.3086-20.258-19.559-33.086-27.594-11.141-10.574 24.039 21.816 29.273 27.594 11.141" fill="#789b8a" fill-rule="evenodd" />
 <path d="m901.78 788.77c8.543-18.57-22.359-32.652-27.867-12.832-8.0039 21.914 13.984 33.969 27.867 12.832" fill="#789b8a" fill-rule="evenodd" />
 <path d="m169.61 1043.5 0.37109 20.633c1.3164 8.4062 4.9297 13 8.5117 17.59 17.09-0.98047 10.941-3.4453 15.5-11.039-2.125-13.473-13.543-49.57-24.383-27.184" fill="#914a48" fill-rule="evenodd" />
 <path d="m671.64 403.07c-18.273 11.48 2.4961 34.035 21.039 24.242 15.504-11.039-3.0039-37.41-21.039-24.242" fill="#789b8a" fill-rule="evenodd" />
 <path d="m318.69 549.91c-17.227 18.199-0.035156 36.164 17.965 22.996 15.469-11.043-0.50391-39.539-17.965-22.996" fill="#789b8a" fill-rule="evenodd" />
 <path d="m453.45 403c-20.566 15.293-3.6445 31.57 17.699 21.305 18.543-9.8242 2.8359-36.602-17.699-21.305" fill="#789b8a" fill-rule="evenodd" />
 <path d="m309.13 835.57c5.5039-19.789-26.648-23.367-29.352-3.9844-1.3516 27.754 23.305 20.426 29.352 3.9844" fill="#789b8a" fill-rule="evenodd" />
 <path d="m510.93 385.34c-21.613 8.5781-6.957 28.633 14.93 21.746 19.352-4.7617 9.4922-30.762-14.93-21.746" fill="#789b8a" fill-rule="evenodd" />
 <path d="m319.91 630.68c5.5039-19.816-21.312-25.93-26.547-4.4219-5.2344 21.477 18.508 26.336 26.547 4.4219" fill="#789b8a" fill-rule="evenodd" />
 <path d="m848.51 614.61c0.8125 5.0312 8.2422 15.938 16.383 12.934 5.6055-0.87891 9.8945-10.164 11.617-17.324-0.87891-23.973-33.707-13.641-28 4.3906" fill="#789b8a" fill-rule="evenodd" />
 <path d="m308.49 685.86c-23.98-6.5508-32.289 13.707-22.02 24.141 10.266 10.434 31.613 0.16797 22.02-24.141" fill="#789b8a" fill-rule="evenodd" />
 <path d="m625.67 384.5c-16.008 7.6992-8.9844 34.137 12.633 25.559 16.277-6.0078 3.375-33.258-12.633-25.559" fill="#789b8a" fill-rule="evenodd" />
 <path d="m724.83 430.86c-12.16 13.98 10.637 31.062 23.066 18.773 12.395-12.289-7.8359-31.504-23.066-18.773" fill="#789b8a" fill-rule="evenodd" />
 <path d="m568.05 383.21c-18.27 11.48-1.1133 29.445 17.461 19.652 15.977-7.6992 0.8125-31.129-17.461-19.652" fill="#789b8a" fill-rule="evenodd" />
 <path d="m863.14 670.86c8.5117 17.59 27.863 12.828 24.926-5.6406-3.1758-20.156-33.977-15.328-24.926 5.6406" fill="#789b8a" fill-rule="evenodd" />
 <path d="m342.7 520.3c20.941 5.3008 31.781-17.055 18.98-25.359-12.801-8.3398-27.492 7.7656-18.98 25.359" fill="#789b8a" fill-rule="evenodd" />
 <path d="m333.21 1079.8c6.0156-16.441-21.039-24.242-24.25-8.2383-8.3086 20.258 18.512 26.371 24.25 8.2383" fill="#789b8a" fill-rule="evenodd" />
 <path d="m838.82 571.36c12.801 8.3086 17.867 4.0859 24.688-7.3281-1.5859-10.094-5.707-18.062-19.453-14.145-8.1406 3.0039-9.625 11.852-5.2344 21.473" fill="#789b8a" fill-rule="evenodd" />
 <path d="m831.15 522.63c4.7969-5.9102 9.8984-10.164 5.7422-18.133-3.8516-6.2812-12.801-8.3047-20.668-3.6445-7.6016 6.3789-9.7617 29.105 14.926 21.777" fill="#789b8a" fill-rule="evenodd" />
 <path d="m778.8 463.71c-15.469 11.043 4.7656 30.254 17.191 17.965 12.699-10.602-1.957-30.691-17.191-17.965" fill="#789b8a" fill-rule="evenodd" />
 <path d="m311.09 957.53c-1.3164-8.4062 0.40625-15.566-8.2422-15.938-17.324-0.70703-19.758 20.328-7.7656 23.602 8.6797 0.375 10.941-3.4102 16.008-7.6641" fill="#789b8a" fill-rule="evenodd" />
</svg>