<?xml version='1.0' encoding='utf-8'?>
<svg xmlns="http://www.w3.org/2000/svg" width="1587" height="1587" version="1.0" viewBox="0 0 1190.2 1190.2" zoomAndPan="magnify">
 <defs>
  <clipPath id="a" fill="none">
   <path d="m0 0h1189.5v1189.5h-1189.5z" fill="none" />
  </clipPath>
 </defs>
 <g clip-path="url(#a)" fill="none">
  <path d="m0 0h1189.5v1189.5h-1189.5z" fill="none" />
  <path d="m0 0h1189.5v1189.5h-1189.5z" fill="none" />
 </g>
 <path d="m765.08 396.12c-0.0625-3.0586-0.25-5.9258-0.4375-8.7344 0.3125 3.5547 0.375 7.3594 0.375 11.164 0-0.74609 0.0625-1.6211 0.0625-2.4297z" fill-opacity=".945" />
 <path d="m764.27 413.27c-0.1875 2.1836-0.5625 4.4922-0.8125 6.8008 0.1875-1.4375 0.5-2.9961 0.6875-4.3672 0.0625-0.875 0.0625-1.6211 0.125-2.4336z" fill-opacity=".945" />
 <path d="m764.64 387.2c0-0.24609-0.0625-0.55859-0.0625-0.80859 0 0.3125 0.0625 0.6875 0.0625 0.99609v-0.1875z" fill-opacity=".945" />
 <path d="m761.9 369.42c0.0625 0.375 0.1875 0.75 0.25 1.2461v-0.0625c-0.125-0.43359-0.1875-0.87109-0.25-1.1836z" fill-opacity=".945" />
 <path d="m1053.3 398.23c-10.039-27.316-24.57-56.754-30.246-69.227-5.6758-12.473-14.156-27.066-25.133-43.719-10.973-16.59-24.695-35.176-41.094-55.633-16.402-20.457-35.609-42.723-43.406-50.828-7.793-8.1094-16.648-16.031-26.504-23.578-9.8516-7.6055-20.703-14.902-32.551-21.891-11.852-7.0469-25.32-14.094-32.055-15.59-6.7344-1.4961-12.785-2.4336-18.961-3.1211-6.1719-0.68359-12.531-1.0586-19.082-1.1836-6.5469-0.125-15.09 0.1875-30.992 4.3672-15.902 4.1758-29.312 6.9844-40.348 8.8555-11.102 1.8711-19.832 2.6211-25.945 2.4336-6.1094-0.1875-10.539-1.4375-12.906-2.1211-2.4336-0.6875-5.3008-1.9336-8.793-3.9297-3.5547-1.9961-7.6719-4.5547-12.473-7.7969-4.7422-3.1797-8.8555-6.0508-15.656-13.656-6.7969-7.6094-14.277-14.906-21.824-21.707-7.6094-6.7969-15.34-12.973-23.324-18.461-7.9805-5.4883-16.277-10.477-24.758-13.969-8.4805-3.4922-17.836-5.6758-28-6.7344-10.164-1.0625-21.203-0.875-32.988 0.37109-11.852 1.25-24.387 3.5547-39.914 7.1758-15.527 3.6172-33.176 9.2305-52.82 16.961-19.645 7.7344-41.41 17.527-65.293 29.125-23.949 11.602-50.391 26.258-107.08 70.227-56.684 43.969-61.613 49.023-65.23 53.387-3.5547 4.3672-6.2344 7.8594-7.8555 10.73-1.6211 2.8047-2.3711 4.8633-2.2461 5.6094 0.4375 1.3125 0.125 0.75 0.4375 1.3125-0.125-0.5625 0.0625-1.9336 1.3086-3.9297 1.2461-1.9961 3.8672-4.3047 7.4844-7.2969 0.625-0.5 1.3086-1.0625 2.1211-1.6836 0 0.0625-0.0625 0.0625-0.0625 0.125-0.5625 1.6211-1.25 3.3672-1.6211 4.4258-0.375 1.0625-0.4375 1.3125-0.6875 1.8711-0.25 0.5625-0.5625 1.375-1.0586 2.4336-0.5 0.99609-1.0625 2.3086-1.5 3.1797-0.43359 0.875-0.62109 1.1875-0.74609 1.6211-0.1875 0.375-0.375 0.8125-0.5625 1.3125-0.1875 0.49609-0.4375 1.0586-1.6211 4.8633-1.2461 3.8047-3.5547 10.664-3.9922 11.539-0.43359 0.87109-0.74609 2.3086-1.1211 4.1758-0.375 1.8711-0.8125 4.1797-1.3086 6.9258-0.5 2.8047-0.9375 5.7383-2.9336 14.844-0.43359 1.9336-0.74609 3.3672-0.99609 4.5508-1.4961 4.4922-2.9922 8.793-4.3047 12.91-0.30859 0.8125-0.68359 1.5586-0.99609 2.3711-0.625 1.6211-1.3086 3.3047-1.9336 4.9883s-0.87109 2.2461-1.1836 3.0586c-0.3125 0.80859-0.625 1.8086-1 2.9922s-0.80859 2.5586-1.2461 4.1172c-0.4375 1.4961-0.8125 2.4922-1.1836 3.5547-0.375 1.0586-0.6875 1.9961-1 2.8047-0.25 0.8125-0.49609 1.4961-0.68359 2.1836-0.1875 0.625-2.1836 8.2969-3.1836 12.41-0.99609 4.1172-1.1836 4.8047-1.4336 5.7383-0.1875 0.9375-0.49609 2.1211-0.74609 3.5547-0.0625 0.25-0.125 0.5625-0.1875 0.8125-3.0586 11.602-5.1133 21.078-6.7969 29.875-3.9922 20.953-6.8633 38.543-8.793 52.637-1.9336 14.094-2.8086 24.824-2.9336 32.059s-0.3125 24.633 1.4336 45.09c1.7461 20.395 5.5508 43.41 11.164 69.105 5.6133 25.695 13.035 54.07 22.824 75.652 4.8008 10.602 7.2344 15.902 7.9844 16.898 0.68359 6.3008 1.1836 8.0469 1.5586 9.293 0.55859 1.6836 0.99609 3.1211 1.3711 4.3047 0.375 1.1836 0.625 2.1211 0.6875 2.7422 0.0625 0.5625 1.4336 8.5469 4.3633 15.406-8.7305 38.855-13.531 77.648-14.094 110.83-0.68359 45.652 3.1172 75.34 8.543 102.09 5.4258 26.758 12.473 50.645 21.266 71.539 8.793 20.891 19.395 38.793 28.562 51.762 9.168 12.973 19.332 24.262 32.926 35.676 13.66 11.414 30.871 23.016 51.824 34.801 20.953 11.789 45.523 23.824 83.129 33.555 37.605 9.7305 82.566 10.602 125.97 3.1797 43.402-7.3594 85.188-23.012 125.22-46.711 40.035-23.699 78.391-55.32 104.33-82.328 25.941-26.941 39.973-45.902 53.008-67.918 12.098-20.332 23.387-43.344 34.176-68.605 0.55859 0.375 7.4805 4.6172 13.469 1 6.1758-3.8047 14.031-9.2305 23.637-16.465 9.6016-7.2344 20.953-16.152 23.945-18.398 2.9961-2.3086 6.8594-5.5508 11.414-9.668 3.0547-2.7422 6.5469-5.9883 10.289-9.418 0.375 1.125 0.5 0.875 0.625-0.62109 1.7461-1.625 3.3672-3.1211 5.2383-4.8672 6.1719-5.8008 13.156-12.535 16.961-16.465 3.8047-3.8672 7.2969-7.7344 10.602-11.539 3.3047-3.8047 6.2969-7.6055 9.1055-11.41 2.7422-3.8047 5.4883-7.8594 20.328-33.742 14.844-25.82 21.078-37.734 27.129-49.52 6.0508-11.852 11.535-23.824 16.715-35.988 5.1758-12.098 9.7266-24.445 13.969-36.859 4.2383-12.348 4.9258-14.469 6.3594-20.578 1.4336-6.1133 3.6172-16.344 6.5469-30.688 2.9961-14.344 6.4883-32.992 11.039-55.758 1.6836-8.168 2.8086-13.781 3.5547-17.836 0.125 3.6797 0.25 7.2969 0.3125 10.477 0.5625 14.598 0.5625 14.598 2.2461 5.0547 0 0 9.6016-18.523 8.668-40.977-0.6875-22.328-6.3633-47.211-16.465-74.531zm-869.27-180.49c-0.3125 0.75-0.6875 1.5-1.0625 2.3086-0.0625-0.55859-0.0625-1.0586-0.125-1.4961 0.375-0.25 0.75-0.5625 1.1875-0.8125zm-39.727 180.55c0.8125-5.1133 1.7461-10.539 2.7461-16.465 0.80859-0.93359 1.6836-1.9336 2.3672-3.1172 1.8711-3.2422 3.8047-6.3594 5.5508-9.418 1.7461-3.0547 3.5547-5.9883 5.2383-8.793 1.6836-2.8086 8.0469-12.223 13.223-19.895 5.2383-7.6719 9.293-13.723 12.223-18.086 2.9297-4.3672 4.8008-6.9883 5.4883-7.9844 0.49609-0.6875 2.6797-3.8047 5.2383-7.2969-1.25 4.2422-2.3711 8.543-3.9922 15.652-1.6836 7.6094-3.8047 18.152-5.4258 28.066-0.5625 3.6172-0.99609 6.9844-1.4336 10.414-2.7461 4.2422-5.4883 8.4844-8.168 12.727-2.8711 4.5508-5.6133 9.043-9.6055 14.656-3.9297 5.6133-8.6055 11.723-12.473 16.836-3.8672 5.1797-6.9219 9.293-9.293 12.477-2.3047 3.1797-3.8672 5.4258-4.8633 6.9219-0.375 0.625-0.80859 1.3086-1.1836 1.9961 1.1836-8.3594 2.6172-17.836 4.3633-28.691zm-8.3555 75.344c0-11.352 0.375-19.023 1.8086-30.375 0.25-2.1836 0.5625-4.5547 0.93359-6.9844 0.5-0.8125 1-1.7461 1.4375-2.5586 1.1211-1.8711 2.1172-3.6172 3.0547-5.1758 0.93359-1.5586 1.9336-3.0547 3.6172-5.6133 1.6836-2.5586 4.1172-6.1758 7.2969-10.789 3.1797-4.6172 7.0469-10.23 11.598-16.965 4.6172-6.6719 7.1719-11.352 9.793-16.027 2.6172-4.6172 5.3008-9.293 8.043-13.973 0.625-1.0586 1.2461-2.1172 1.8711-3.1172-0.75 5.7383-1.3086 11.352-1.7461 16.652-0.625 8.668-0.75 16.715-0.25 25.07 0.125 2.2461 0.375 4.6797 0.625 7.0508-2.4336 3.3672-4.8633 6.7969-7.1719 9.9766-5.8008 8.0469-10.352 14.281-13.594 18.648-3.3086 4.3672-5.2422 6.9844-6.4258 8.4805-1.1836 1.5-2.3672 3.0586-3.3047 4.4922-0.99609 1.4336-1.8711 2.8086-2.6172 3.9922-0.8125 1.2461-1.5 2.3086-2.9961 4.8633-1.5586 2.5586-4.0508 6.5508-6.2344 10.543-2.0586 3.7383-3.9297 7.418-5.4883 11.098-0.1875-3.3672-0.25-6.5469-0.25-9.2891zm3.8672 51.453c-1.4961-11.352-2.4961-21.895-3.0547-31.062 1.1211-1.0586 2.4297-2.4297 3.2422-4.0508 1.8086-3.5547 3.5547-7.2344 5.4258-11.102 1.8711-3.8672 3.9258-7.8594 6.1719-11.914 2.2461-4.1172 2.8086-5.0508 3.4922-6.2344 0.6875-1.125 1.4336-2.3711 2.3086-3.7422 0.87109-1.375 1.8086-2.9336 2.6797-4.5547 0.9375-1.6836 1.8711-3.1797 3.9922-6.5469 2.1836-3.4336 5.2383-8.8594 9.6055-16.094 3.3672-5.5508 7.3555-12.223 10.477-17.398 0.55859 5.8633 1.2461 11.785 2.3047 17.773 1 5.8008 2.3086 11.539 3.7422 17.277-2.1797 3.2422-4.4258 6.6094-6.5469 9.6055-3.2422 4.6133-6.2344 9.1055-8.3555 12.035-2.1211 2.9922-3.4922 5.1758-5.2383 7.9844-1.7461 2.8047-3.8672 6.1719-6.3008 10.102-2.4297 3.9297-5.1758 8.5469-7.8555 12.848-2.6836 4.3047-4.8047 7.7344-6.5508 10.602-1.7461 2.8711-3.1797 5.1172-4.2383 6.8633-1.0625 1.7461-1.6836 2.9297-2.4961 4.4258-0.68359 1.25-1.5586 2.9961-2.4297 4.8047-0.25-0.5625-0.3125-1.0625-0.375-1.6211zm5.2383 32.117c-1.1875-6.2344-2.2461-12.223-3.1797-18.086 0.125-0.125 0.30859-0.25 0.43359-0.375 1-1.6836 2.1211-3.4922 3.3086-5.3633 1.1836-1.8711 2.3047-3.8672 3.4297-6.0508 1.1836-2.1172 1.5586-2.8672 2.3047-4.2383 0.75-1.375 1.7461-3.3086 3.1172-5.8633 1.375-2.5586 3.0586-5.6758 5.0547-9.4805 1.9961-3.7422 4.6758-8.918 7.0469-13.41 2.3672-4.4883 4.3008-8.4805 5.9844-11.848 1.6836-3.3672 3.1211-6.0508 4.1172-8.1719 1.0586-2.1211 3.2422-6.7344 5.8633-11.539 2.4922-4.4883 5.0508-9.293 7.918-14.219 0.6875 2.5586 1.3086 5.1133 2.0586 7.6719 1.8086 6.0508 3.9297 11.973 5.6133 16.527-1.3711 2.0586-2.6836 3.9922-3.8047 5.7383-1.4961 2.3086-2.8047 4.3047-6.4844 10.102-3.6797 5.8008-9.8555 14.348-14.844 21.457-4.9883 7.1719-8.7305 12.973-11.535 17.336-2.8086 4.3672-4.6172 7.2969-5.7383 9.293-1.1875 1.9961-2.3711 3.9922-3.4297 5.9258-1.0625 1.9336-2.0586 3.6797-3.0586 5.3633-0.93359 1.6836-1.7461 3.2422-2.4922 4.9297-0.5 1.4336-1.1211 2.8672-1.6836 4.3008zm8.8555 40.602v-0.0625c-0.1875-0.74609-0.3125-1.4961-0.5-2.2461-0.125-0.68359-0.1875-1.3086-0.1875-1.9336 0-0.55859 0.0625-0.93359 0.0625-1.3086 0 0.25-0.0625 0.375-0.0625 0.625-0.0625 0.5-0.0625 0.99609-0.0625 1.4961-1.8086-7.5469-3.4297-14.844-4.9258-21.891 1.0586-0.5 2.1211-1.0625 2.5586-1.8711 1.0586-2.1211 2.0547-4.1172 2.9297-6.0508 0.87109-1.9336 1.6211-3.8047 2.3711-5.5508 0.74609-1.7461 1.3711-3.1172 1.9922-4.6758 0.625-1.5586 1.375-3.2461 2.2461-5.0547 0.875-1.8086 1.8711-3.7383 2.9922-5.7969 1.125-2.0586 2.0586-3.9922 3.9297-7.4219 1.8711-3.4297 4.6172-8.4219 8.1719-15.031 3.5547-6.6133 8.1055-14.719 13.531-24.387 5.4258-9.668 6.4844-11.539 7.6719-13.781 0.93359-1.8086 1.9961-3.8672 3.1172-6.1758 0.125 0.375 0.3125 0.80859 0.4375 1.1211 1.6836 4.6172 3.1172 8.3594 5.6719 13.285 1.375 2.5586 3.0586 5.6133 5.1172 9.043-1.1875 1.8086-2.4336 3.7422-3.6797 5.6758-3.5547 5.5508-6.9844 10.977-10.355 16.215-3.3672 5.2383-6.4219 10.355-8.8555 14.223-2.4297 3.9258-4.1758 6.7969-5.8594 9.7266-1.6836 2.9336-3.3672 5.8633-5.0508 8.793-1.6836 2.9336-3.4922 5.8008-4.9922 8.4219-1.4336 2.6172-2.8672 5.2383-4.5508 8.418-1.6836 3.1836-3.6797 6.8008-5.8633 10.977-2.2422 4.1797-4.6133 8.9219-6.1094 11.852-0.875 1.5586-1.3711 2.5586-1.7461 3.3672zm47.582-264.19c0.0625-0.4375 0.125-0.8125 0.1875-1.25 1.9336-10.602 2.8047-14.656 3.7422-19.02 0.125-0.625 0.37109-1.375 0.49609-1.9961-0.80859 4.8633-1.6211 10.477-2.3672 17.086-0.75 1.6836-1.3711 3.4336-2.0586 5.1797zm4.9258 70.723c0.1875 0.25 0.375 0.5 0.5625 0.75 0.4375 0.55859 0.80859 0.93359 1.1211 1.2461h-0.0625c-0.1875 0-0.3125 0.0625-0.5 0.0625-0.30859 0.0625-0.62109 0.125-0.93359 0.25-0.3125-1.1836-0.5-2.0586-0.625-2.6836h0.0625c0.0625 0 0.125 0.0625 0.3125 0.1875h-0.0625zm-46.023 231.63c-0.68359-5.6758-1.5586-12.098-2.6172-18.707 1.0586 5.3008 2.1172 11.348 3.0547 17.523-0.125 0.375-0.25 0.8125-0.4375 1.1836zm1.9961 21.082s-0.125-2.4336-0.5-6.3633c0.375-0.24609 0.75-0.62109 1.125-0.93359 0.43359 3.4922 0.80859 6.7969 1.0586 9.543 0.1875 2.2461 0.375 4.0547 0.5625 5.7383-0.5-1.8086-1.25-4.4297-2.2461-7.9844zm0.875-28.066c-0.1875 0.4375-0.375 0.875-0.5625 1.3711-0.8125-2.8672-1.6211-5.8594-2.5586-9.168-1.4961-5.4883-2.6172-9.7266-3.5547-13.094 0.625-1.0625 1.125-1.9961 1.6211-2.8711 0.9375-1.7461 1.6836-3.1797 2.2461-4.2422 0.5-1.0586 2.9297-6.2344 5.1133-10.852 2.1836-4.6133 3.9297-8.793 5.6133-12.348 1.6211-3.5547 3.1172-6.6094 4.3672-9.043 1.2461-2.4961 2.6797-5.5508 4.0508-8.6055 1.375-3.1211 2.8711-6.1133 4.4297-9.1055 1.4961-2.9961 3.0547-5.9883 4.4258-9.1094 1.375-3.0547 4.0547-8.2305 6.7969-13.594 2.7461-5.3633 5.7383-10.852 8.9805-16.465 2.3711-4.1172 4.8672-8.2344 6.7383-11.352 1.8672 3.1172 4.0508 6.5469 6.5469 10.352 1.4336 2.1836 3.0547 4.5547 4.6758 6.9258-1.6211 2.6797-3.6172 5.7969-5.8594 9.5391-2.4961 4.1797-5.3633 9.043-7.6094 12.66-2.2461 3.6211-3.5547 5.8633-4.9258 8.3594-1.375 2.4961-2.8711 5.1758-4.4922 8.1094-1.6211 2.9297-3.2422 6.1094-4.5508 8.4805-1.3125 2.3711-2.3711 4.5508-4.0547 7.7969-1.6836 3.2422-3.8672 7.5469-6.4844 12.91-2.6211 5.3633-5.8008 11.848-8.1094 16.09-2.3047 4.3047-2.9922 5.8008-3.6797 7.2969-0.68359 1.4961-1.3711 2.9297-2.1172 4.3672-0.75 1.4336-1.4375 2.8047-2.6211 5.4258-1.1836 2.5547-2.8672 6.4219-4.4258 10.164zm58.867-144.2c0.75 0.4375 1.4336 0.75 2.0586 1 0.375 0.125 0.9375 0.3125 1.6211 0.5-0.87109 0.93359-1.6211 1.8711-2.2461 2.6797-0.43359-0.80859-0.68359-1.4336-0.87109-1.7461-0.25-0.5625-0.5625-1.4336-0.9375-2.4922h-0.0625zm-0.1875-178.31c0.3125-1.8711 0.5625-3.6797 0.9375-5.6133 0.0625-0.55859 0.1875-1.1211 0.3125-1.6836 0.1875 0.0625 0.30859 0 0.55859 0.125 0.75 0.25 1.5586 0.6875 2.3086 1.0625 0.0625 0 0.125 0.125 0.125 0.125 0.1875 0.24609 0.25 0.49609 0.4375 0.74609h-0.0625c-0.1875 3.1172-0.375 6.5508-0.6875 10.293-0.93359-0.3125-1.9961-0.3125-2.9922-0.375-0.4375-1.3711-0.8125-2.8711-0.9375-4.6797zm-55.312 337.35c1.0586-2.6172 2.1172-5.2383 3.1172-7.9844 1.3086-3.7422 2.7422-7.4844 4.3008-11.348 1.5625-3.8672 2.0586-5.2422 2.5586-6.7383 0.5-1.4336 1.0586-2.9297 1.6836-4.4258 0.625-1.5 1.2461-2.9961 1.8086-4.5547 0.5625-1.5586 3.4922-8.9805 6.1758-15.281 2.6172-6.2344 4.8633-11.41 6.4844-15.527 1.6836-4.1172 2.9297-7.0469 3.6797-8.918 0.80859-1.8711 2.3047-5.3008 3.7422-8.4844 1.4336-3.1797 2.7422-6.1719 4.0508-8.8555 1.3125-2.6797 2.4961-5.1133 3.6172-7.3594 1.125-2.2461 3.9297-7.7344 6.4883-12.41 2.5547-4.7422 4.8008-8.7305 6.7344-12.102 0.4375-0.74609 0.80859-1.4336 1.2461-2.1172 4.3672 6.2969 9.3555 12.785 15.031 17.711 0.125 0.125 0.24609 0.1875 0.37109 0.3125-22.512 37.297-40.348 77.211-53.316 119.75-2.4336 7.9805-4.6797 16.09-6.7383 24.199 0-0.125-0.0625-0.1875-0.0625-0.3125-0.37109-1.1875-0.74609-2.5586-1.3086-4.1797-0.5-1.6211-1.1211-3.4297-3.0547-10.414-1.3711-4.3047-3.5547-10.852-6.6094-20.957zm88.117-412.56c-1.6211 0.1875-3.3672 0.9375-5.1133 2.3086-2.6211-1.1836-5.8008-1.4336-9.6055-0.625-1.1836-2.1211-2.9922-3.5547-5.3008-4.3633 1.3086 0.0625 2.4961 0.18359 3.9297 0.18359 4.5508 0.0625 10.102-0.058594 16.277-0.30859-0.1875 0.93359-0.25 1.8711-0.1875 2.8047zm0 175.63c-0.3125 0.93359-0.4375 1.9336-0.4375 3.0547-2.1836 0-4.3672-0.0625-6.9219 0.25 1.2461-1.1836 2.6172-2.0586 4.1797-2.6211 0.93359-0.43359 2.1172-0.49609 3.1797-0.68359zm-9.793-111.2h-0.125l-0.125 0.0625 0.0625-0.0625 0.0625-0.125h0.0625zm-4.8008 199.08c-0.4375-0.99609-0.8125-2.1836-1.1836-3.4922 0.0625-0.0625 0.1875-0.125 0.25-0.125 1.8086 0.4375 3.6172 0.625 5.3633 0.625-0.0625 0.1875-0.0625 0.49609-0.125 0.68359-0.125 0.6875-0.375 1.3125-0.625 1.8086-0.625 1.1875-1.4961 2.0586-2.5586 2.8086-0.55859-1.0625-0.99609-1.9336-1.1211-2.3086zm0.1875 36.484c-0.0625 0.125-0.1875 0.3125-0.25 0.4375-0.0625-0.125-0.125-0.3125-0.125-0.5 0.0625 0 0.1875 0 0.375 0.0625zm1.6211-186.04c0.375 0 0.875 0.0625 1.6211 0.1875l0.3125 0.0625h0.0625c0.1875 0.75 0.375 1.3086 0.5625 1.8711h-0.0625c-0.5 0.0625-0.8125 0.125-1 0.1875-0.62109 0.0625-1.0586 0.125-1.3711 0.125h-0.0625c0.0625-0.8125 0-1.6211-0.0625-2.4336zm-4.6133-68.543c0.24609-0.058594 0.87109-0.37109 1.9336-0.99609 0.18359-0.125 0.80859-0.5625 1.8672-1.3086h0.0625l0.125 0.375c0.6875 1.6211 1.3125 2.8672 2.0586 3.8633-2.0586-0.37109-3.8672-0.55859-5.4258-0.55859-1.4961 0-2.9297 0.0625-4.3633 0.3125h-0.0625c-0.0625-0.1875-0.1875-0.5-0.375-0.875h-0.0625c1.4961 0 2.9297-0.25 4.2422-0.8125zm581.21 557.45c-10.039 29.062-20.953 55.07-32.742 78.02-11.723 22.953-24.258 42.785-37.168 59.625-12.906 16.84-48.641 52.887-85.684 80.766-37.043 27.816-75.457 47.711-115.25 59.75-39.785 12.035-81.07 16.402-123.66 13.035-42.594-3.4297-67.289-15.094-89.801-27.008-22.512-11.91-41.348-23.137-56.312-33.738-15.031-10.543-26.195-20.395-33.801-29.75-7.6094-9.3555-18.461-24.012-27.691-41.227-9.2266-17.211-17.336-37.48-24.258-60.996-6.9219-23.512-12.598-50.141-16.961-79.703-4.3672-29.5-1.6211-87.066 8.293-141.14 9.9141-54.07 26.754-104.59 50.574-151.74 15.656-31 34.426-60.438 50.328-83.074 0.375-0.3125 0.8125-0.625 1.1836-0.9375 3.1836-2.9297 7.9844-9.168 14.344-18.773 0.5625-0.80859 0.875-1.7461 1.0625-2.8047 1.8086-2.3711 3.6172-4.6172 5.1758-6.6094 1.1211-1.1875 1.9961-2.1211 2.9922-3.2461l21.891-20.02c3.0547-3.0547 4.8633-6.1094 5.4844-9.168l18.898-15.34c0.1875-0.375-0.5625-0.625-2.2461-0.75 0.5625-1.4336 0.6875-2.4961 0.5625-3.3672 0.4375-0.25 0.93359-0.5625 1.2461-0.75 0.9375-0.5625 1.8086-1.1211 2.6211-1.6836 0.80859-0.5625 1.5586-1.1211 2.1797-1.7461 0.625-0.625 1.125-1.3086 1.4375-1.8711 0.30859-0.5625 0.49609-1.2461 0.62109-2.0586 0.0625-0.125 0.1875-0.25 0.25-0.375 0.25 0.375 0.375 0.75 0.5625 1.125 3.1797 4.8633 7.3594 9.543 12.66 13.906 5.3008 4.4297 11.66 8.5469 16.023 11.039 4.4297 2.4961 6.8008 3.3047 9.668 3.8672 2.8672 0.5625 6.3594 1.0625 10.477 1.2461 4.1172 0.1875 8.918 0.3125 12.848 0.0625 3.9922-0.1875 6.4219-0.55859 8.7305-1.1211 0.5-0.125 1.0586-0.25 1.5586-0.375 0.93359 3.8672 2.0586 7.7344 3.5547 11.414 3.1797 7.8594 7.7344 13.785 13.844 19.148 6.1133 5.3633 13.781 10.164 22.887 14.531 9.1055 4.3633 19.707 8.293 30.559 11.039 10.852 2.7422 20.145 3.6172 28.938 3.6797 8.8555 0.0625 17.273-0.9375 25.191-2.8711 7.9219-1.9336 15.406-4.9258 18.773-10.664 0.55859 0.5625 0.62109 0.4375 0.80859 0 0 0 2.1211 0 3.4297-0.3125 0.1875 2.8711 0.1875 6.4883 1.125 9.543 0.68359 2.2461 1.4961 4.3047 2.3047 6.2383 0 1.1836 0 2.4297-0.0625 3.6172-0.125 1.6211-0.37109 3.2422-0.55859 4.8633 0 0.0625-0.0625 0.0625-0.0625 0.125-1.6211 4.1172-2.8711 7.8594-4.0547 11.289-1.1211 3.3672-2.2461 6.2969-2.9297 8.168-0.6875 1.8711-0.9375 2.6836-1.0625 3.4336v0.30859c-1.4961 2.2461-2.8672 4.3672-4.0508 6.2383-1.8711 2.9297-3.3086 5.3633-4.3047 6.7969-0.99609 1.4375-1.7461 2.8711-2.9922 4.9297-1.25 2.0586-2.7461 4.8633-4.6797 8.418-1.9336 3.4922-4.1133 7.7969-8.043 15.902-3.9297 8.1094-9.3555 19.398-9.7305 19.961-0.37109 0.55859-0.62109 1.1211-0.87109 1.6836-0.25 0.62109-0.5625 1.1836-0.8125 1.8086-0.24609 0.62109-0.55859 1.2461-2.1172 4.9258-1.5625 3.6797-3.0586 7.2344-4.3672 10.664-1.3086 3.4297-2.4336 6.7383-3.4297 9.8555-0.99609 3.1797-1.8086 6.2344-2.6211 10.352-0.80859 4.1797-1.4961 7.9219-2.0547 11.289-0.5625 3.3672-0.875 6.3633 0.99609 8.668 1.8711 2.3086 1.8711 2.3086 2.0586 1 0 0 4.8008-1.8086 5.5508-4.6172 0.80859-2.8047 1.8086-5.9844 3.1172-9.6016 1.3086-3.5547 2.6797-7.5469 3.6797-10.355 0.5-1.3711 1.0586-2.8672 1.6211-4.3008-1.6836 6.2344-3.4297 11.973-5.2383 17.336-0.125 0.3125-0.3125 0.625-0.375 0.8125-0.25 0.55859-0.4375 1.0586-0.62109 1.6211-0.1875 0.5-0.375 1.0586-0.5625 1.5586s-0.375 1.1211-1.2461 3.8672c-0.1875 0.5625-0.3125 0.99609-0.5 1.5586-1.4961 3.9922-2.9922 7.7969-4.4922 11.164-2.3047 5.1133-4.4258 9.293-6.1719 12.723-1.7461 3.4297-3.1172 6.1758-4.2422 8.1094-0.99609 1.7461-1.8086 2.9297-3.4297 5.1758-1.5586 1.8711-3.4297 4.1172-5.8633 6.9219-2.8047 3.3047-6.2344 7.2969-8.1055 9.8555-1.8711 2.6172 0.75 6.3594 2.2461 5.2383 1.5586-1.1211 2.9297-2.9297 4.8008-5.8008 0.625-0.93359 1.3711-2.0586 2.1211-3.1797 2.9922-3.4922 5.5508-6.4883 7.5469-8.8555 2.0547-2.4961 3.6172-4.3672 4.6133-5.6758 0.99609-1.3125 1.3711-1.9961 2.3711-3.5547 0.99609-1.5625 1.9336-3.1211 2.8672-4.7422 0.875-1.6211 1.6211-3.2422 2.3086-4.9258 0.68359-1.6836 1.3711-3.3047 2.1211-5.5508 0.74609-2.1836 1.5586-4.4922 2.3672-6.9219 0.8125-2.4336 1.6211-4.9922 2.4961-7.6719 0.80859-2.6836 1.6836-5.4883 1.8086-5.9258 0.1875-0.4375 0.3125-0.93359 0.55859-1.4336 0.1875-0.5 0.375-1 0.5625-1.4961 0.1875-0.5 0.375-1 1-2.2461 0.55859-1.2461 1.0586-2.3711 1.4961-3.2422 0.43359-0.9375 0.74609-1.6836 0.99609-2.2461s0.5-1.125 1.0625-2.9336c0.55859-1.8711 1.1211-3.4297 1.5586-4.6758 0.43359-1.2461 0.74609-2.2461 1.0586-2.9297 0.25-0.6875 0.4375-1.125 0.625-1.4375 0.125-0.3125 0.3125-0.68359 0.49609-1.1211 0.1875-0.4375 0.4375-1 0.6875-1.5586 0.25-0.625 0.5625-1.1875 1.7461-3.3672 1.1836-2.2461 2.2461-4.1797 3.0547-5.9258 0.8125-1.6836 1.5-3.1172 2.0586-4.3047 0.5625-1.1836 0.875-1.9961 1.2461-2.8672 0.375-0.8125 0.875-2.1211 1.5625-3.8672 0.68359-1.7461 1.4961-3.9297 2.5547-6.5508 1-2.6172 2.0586-5.6758 4.5547-11.973 2.5547-6.3008 2.8047-6.9844 3.1172-8.0469 0.3125-1.0586 0.74609-2.4922 1.3086-4.3008 0.5625-1.8086 1.2461-3.9922 2.0586-6.6133 0.80859-2.5547 1.0586-3.3047 1.4336-4.3047 0.375-0.99609 0.8125-2.2422 1.3711-3.7383 0.5625-1.5 1.1875-3.1836 1.9961-5.1797 0.75-1.9336 1-2.5547 1.3086-3.3047 0.25-0.74609 0.5625-1.6211 0.875-2.5547 0.3125-1 0.6875-2.1211 0.99609-3.3711 0.25-0.99609 0.9375-3.1797 1.6211-5.7969 1.0625-0.5625 1.9336-1.3125 2.3086-2.1836 0.875-1.9961 1.4336-4.6797 1.6836-8.3594v-0.0625c0.8125-1.6836 1.6211-3.3672 2.5586-5.1758 2.6172-5.1133 2.9922-6.0508 3.4922-7.1094 0-0.0625 0.0625-0.1875 0.125-0.25 1.6211 1.9336 3.5547 3.8047 6.1094 5.9258 2.7461 2.3086 6.2383 4.9258 10.414 7.8594 4.2422 2.9297 9.293 6.0469 15.406 9.4766 6.1719 3.4336 12.348 6.2383 18.02 8.5469 5.6758 2.3086 10.977 3.9922 15.902 4.9258 4.9297 0.9375 9.4805 1.1836 13.16 1.1836s7.9219-0.30859 12.348-1.0586c4.4297-0.75 8.9805-1.9336 13.719-3.6172 4.7422-1.7461 9.6055-3.8672 13.535-5.8008 3.9258-1.9336 7.1094-3.6797 10.227-5.8633 3.1172-2.1797 6.1719-4.8008 9.2305-7.7305 3.0547-2.9336 6.1094-6.1758 8.4805-8.9844 2.3672-2.8047 3.6797-5.2383 4.7383-7.7305 1.0625-2.4961 2.0586-4.9922 2.6211-7.7344 0.62109-2.6836 0.99609-5.5508 1.2461-6.9219 0.25-1.375 1.8711-3.8672 2.9297-6.1133 1.0625-2.2461 1.9961-3.9297 2.4961-5.3633 0.5-1.3711 0.74609-2.3711 2.3711-8.7305 1.6836-6.3633 3.8633-18.09 5.6094-28.941 0.375-2.1211 0.5-4.0547 0.75-6.1719-1.1836 9.043-3.0547 18.586-5.8633 28.75-3.3047 11.789-3.3672 12.41-3.8672 13.16-0.43359 0.625-1.4336 1.3086-2.6797 2.1836 0.5-1 1.1211-2.1836 1.4961-2.9961 0.5625-1.3711 1.3711-3.3047 2.0586-5.3633 0.75-2.0586 1.4336-4.2383 1.9961-6.5469 0.62109-2.3086 1.1836-4.7422 1.6836-7.2969 0.5-2.5586 1.2461-7.6719 1.8711-11.977 0.62109-4.3008 1.1211-7.8555 1.4961-10.602s0.5625-4.6758 0.6875-5.8633c0.12109-1.1836 0.55859-8.7305 1.0586-15.219 0.375-5.6719 0.75-10.352 0.99609-14.281 0.0625 0.75 0.1875 1.5586 0.25 2.3086-0.0625-0.875-0.125-1.7461-0.25-2.5586 0-0.43359 0.0625-0.99609 0.125-1.4336 0.25-4.1797 0.4375-7.1719 0.5-9.043 0.0625-1.8711 0.25-4.1172 0.25-6.2383 0-2.1172-0.1875-4.1133-0.6875-5.9219-0.49609-1.8711-1.1836-3.5547-1.5586-4.3672-0.87109-1.6211-0.375-0.8125-0.87109-1.6211 0.43359 0.74609 1.2461 2.4336 1.6836 4.1797 0.43359 1.8086 0.80859 3.6797 0.93359 5.6758 0.125 1.9922 0.0625 4.1133-0.125 5.9844-0.125 1.8711-0.25 4.1172-0.4375 7.4844-0.058594 0.75-0.12109 1.7461-0.18359 2.6211-0.4375-3.1797-0.875-6.1758-1.4375-8.6719-0.1875-0.74609-0.30859-1.3711-0.43359-1.9297 0.0625 0.18359 1.0586 4.8008 1.8711 10.852-0.1875 2.9922-0.4375 6.4219-0.75 10.727-0.4375 5.6758-0.99609 12.473-1.3711 16.715-0.375 4.2383-0.5 5.6133-0.8125 7.8555-0.3125 2.1836-0.68359 5.1797-1.2461 8.9844-0.5625 3.8047-1.2461 8.3555-1.8711 12.223-0.625 3.8047-1.1836 6.3008-1.7461 8.668-0.5625 2.3711-1.1836 4.6172-1.9336 6.7383-0.6875 2.1172-1.4336 4.1133-2.0586 5.7344-0.62109 1.5625-1.3086 2.9961-2.1836 4.7422-0.24609 0.4375-0.62109 1.0586-0.87109 1.5586-1.4961 1-3.2422 2.1211-5.6758 3.9297-2.9922 2.1836-3.6797 6.4219-4.1133 8.543-0.4375 2.1211-1.0625 4.0547-1.8711 5.7383-0.8125 1.6836-1.9961 3.0586-3.3711 4.2422-1.3711 1.1836-4.3633 4.1797-7.418 6.7344-2.9961 2.5586-5.9258 4.7422-8.7305 6.5508-2.8086 1.8086-5.3633 3.4297-7.9219 4.7383-2.5547 1.3086-7.2344 3.6172-11.473 5.4258-4.2422 1.8086-8.2344 3.1172-11.977 4.1797-3.6797 0.99609-7.1094 1.4961-10.477 1.6836-3.3672 0.125-6.7344 0.5-10.164 0.125s-7.6094-1.2461-12.473-2.6836c-4.8008-1.4336-10.289-3.5547-16.215-6.2969-5.9219-2.7461-11.223-5.8008-15.965-8.6094-4.6758-2.8047-8.668-5.2383-11.785-7.2969-3.1172-2.0547-5.4258-3.6797-6.7969-4.9883-1.4336-1.2461-2.9961-3.0547-4.7422-5.3633-1.7461-2.3086-3.6758-5.1758-5.7344-8.668-2.0586-3.4922-4.5547-7.4219-6.8594-9.168-0.8125-1.0625-1.3125-1.6836-1.7461-2.0586 0.30859-0.8125 0.55859-1.4961 0.74609-1.9961 0.25-0.625 0.3125-1 1.125-3.0547 0.80859-1.9961 1.5586-3.7422 2.1797-5.2422 0.625-1.4336 1.0625-2.6172 1.4336-3.5547 0.375-0.93359 0.5625-1.5586 1.0625-2.9922 0.5-1.4336 0.99609-2.9297 1.4961-4.3672 0.5-1.4336 0.9375-2.9297 1.3711-4.4258 0.4375-1.4961 0.875-2.9336 1-3.3672 0.125-0.4375 0.25-1 0.43359-1.5625 0.1875-0.62109 0.3125-1.2461 0.5-1.9961 0.1875-0.74609 0.375-1.6836 0.875-4.0508 0.49609-2.3711 0.99609-4.4922 1.4336-6.4258 0.4375-1.8711 0.80859-3.5547 1.1211-4.9883s0.6875-2.6836 0.75-3.0547c0.0625-0.375 0.375-1.4375 0.87109-3.2461 0.5-1.8086 1.25-4.3633 2.1836-7.6094 0.9375-3.3047 2.0586-7.3594 4.4297-16.961 2.3047-9.6055 3.4922-13.848 4.5508-17.777 1.0586-3.9922 2.0586-7.6094 3.0547-10.977 1-3.3672 1.8086-6.4219 2.5586-9.168 0.80859-2.7422 1.3086-4.4258 1.6836-5.9258 0.4375-1.4961 0.80859-2.7422 1.1836-3.7422 0.375-0.99609 0.625-1.7461 0.875-2.3047 0.1875-0.5625 0.49609-1.1875 0.80859-1.8086 0.3125-0.625 0.6875-1.125 1-1.7461 0.3125-0.625 0.62109-1.1875 0.68359-1.5586 0.375-0.625 0.0625-0.4375 0.375-0.625-0.25 0.1875-1.1211 0.1875-1.8086 0.5-0.6875 0.30859-1.3086 0.74609-1.8711 1.3086-0.5 0.5625-1.0586 1.1836-1.4961 1.8086-0.4375 0.5625-0.875 1.3086-1.2461 2.1836-0.4375 0.87109-0.875 1.9961-1.4336 3.3672-0.5625 1.3086-1.125 2.8672-1.8711 5.0508-0.75 2.1836-1.6836 4.9883-2.6836 8.1094-0.99609 3.1172-2.0586 6.6094-3.1797 10.352-1.1836 3.7422-2.3711 7.7969-4.3047 14.719s-4.4258 16.402-5.7344 20.082c-1.3125 3.6172-2.3086 6.6133-3.0586 8.918-0.74609 2.3086-1.3086 3.8672-1.5586 4.8047-0.25 0.93359-0.3125 0.99609-0.68359 2.3086-0.375 1.3086-0.8125 2.8672-1.25 4.6133-0.43359 1.8086-0.93359 3.8047-1.4336 5.9883-0.5 2.2461-1.0586 4.6758-1.3086 5.3633-0.1875 0.74609-0.375 1.4336-0.5625 2.0586-0.1875 0.62109-0.3125 1.1211-0.4375 1.5586s-0.24609 0.80859-0.68359 2.2461c-0.4375 1.4336-0.9375 2.8672-1.4336 4.3008-0.5 1.4375-0.9375 2.8711-1.4375 4.3047-0.49609 1.4336-0.99609 2.8672-1.2461 3.4922s-0.625 1.5586-1.1211 2.8086c-0.5 1.2461-1.125 2.7422-1.9336 4.5508-0.8125 1.8086-1.7461 3.8672-2.0586 4.4297-0.25 0.49609-0.5625 1.2461-0.875 2.0586-3.0547-0.8125-9.4766-2.1211-14.215-0.375-6.4258 2.3672-13.348 3.8047-20.832 4.5508-7.4805 0.75-15.527 0.75-24.008-0.1875-8.418-0.93359-19.207-4.2383-28.688-7.9805-9.418-3.7422-17.273-7.7344-23.449-11.977-6.1719-4.2383-10.785-8.6055-13.844-13.035-3.0547-4.3633-5.3008-12.16-6.9844-19.707-1.7461-7.5469-2.6172-14.594-2.7422-21.082-0.0625-6.5469 0.68359-12.535 2.3047-18.273 1.625-5.7383 5.3008-17.336 9.6055-28.5 4.3047-11.227 9.3555-22.078 14.781-32.867 5.4258-10.789 11.098-21.645 14.156-27.008 6.7969-10.352 3.0547-5.3633 6.7969-10.352-3.7422 4.9258-11.91 14.344-19.082 24.324-7.1719 10.039-13.41 20.645-18.711 31.746-5.3008 11.102-10.102 22.449-13.406 31.121-3.3047 8.668-5.1758 15.277-6.1133 22.328-0.93359 7.0469-0.99609 14.594-0.125 22.637 0.125 1.1875 0.4375 2.4336 0.625 3.6797-0.125 0.0625-0.1875 0.125-0.3125 0.1875-1.6836 0.625-3.5547 1.0625-5.4883 1.3086-1.9336 0.25-6.9219 0.375-11.223 0.375-4.3047 0-7.9219-0.1875-10.789-0.375-2.8711-0.24609-4.8672-0.62109-6.0508-0.99609-1.1836-0.4375-7.918-4.2422-13.469-8.1719-5.5508-3.9258-10.043-7.793-13.473-11.785-3.4297-3.9922-5.7344-8.1094-7.0469-12.227-1.3086-4.1758-1.7461-7.7305-1.9336-11.66-0.125-1.8711-0.0625-3.9297-0.125-5.8633 2.6836-1.1836 2.5586-1.3086 0.375-1.6211 0 0-0.25-0.3125-0.43359-0.5 0-1.3086-0.125-2.5547-0.0625-3.9297 0.12109-4.0547 0.43359-8.2305 0.99609-12.535s0.6875-5.6133 0.99609-6.9844c0.25-1.3711 0.625-2.8086 1.1875-4.3047 0.49609-1.5586 1.1836-3.1797 1.9961-4.9258 0.80859-1.8086 3.1797-7.5469 5.2383-12.785 2.0586-5.2383 3.9883-9.8555 5.8594-13.91 1.8711-4.0508 3.6797-7.4844 5.3008-10.414 1.6211-2.9297 4.8672-8.3555 7.5469-12.785 2.6836-4.4297 4.8008-7.9219 6.3594-10.414 1.5625-2.4961 2.5586-3.9922 2.8086-4.6172s2.9297-4.3672 5.3008-7.4844 4.4883-5.6133 6.1719-7.6719c1.6836-1.9961 3.1836-3.3672 3.8047-3.8672 0.625-0.43359 0.75-0.55859 0.8125-0.62109-0.6875 0.3125-1.8086 1.1211-3.3047 2.3672-1.6836 1.5-3.8672 3.3711-6.1758 5.9883-2.3711 2.6211-5.1133 5.7383-6.7969 7.4844-1.7461 1.7461-2.4336 2.6836-3.7422 4.4922s-3.2422 4.5508-5.8008 8.168c-2.5547 3.6172-5.6719 8.2969-8.418 12.227-2.7422 3.9297-4.6758 7.0469-6.7344 10.727-2.0586 3.6797-4.3047 7.8594-6.6719 12.598-2.4336 4.7383-4.8672 10.105-6.4883 13.844-1.6211 3.7422-2.4297 5.6133-3.1797 7.4219-0.68359 1.8086-1.3086 3.5586-1.7461 5.3047-0.4375 1.6836-0.74609 3.3672-1.1836 6.3594-0.4375 2.9922-0.9375 7.4219-1.1836 11.789-0.0625 0.99609 0 1.8711-0.0625 2.8672-0.1875-0.0625-0.375-0.25-0.625-0.3125-4.2422-0.99609-7.9844-2.1797-11.289-3.6797-3.2422-1.4961-6.0469-3.1797-8.418-5.2383-2.4336-2.0586-5.2383-4.6758-7.6094-7.6094-2.3672-2.9297-4.3633-6.3594-6.1094-10.227-1.7461-3.8672-3.1172-8.2969-4.1797-12.973-1.0586-4.6797-0.99609-10.168-0.80859-15.656s0.68359-10.602 1.3711-15.215c0.74609-4.6797 1.5586-8.9219 2.6797-12.785 1.125-3.8672 1.5586-5.1172 2.3086-6.9258 0.8125-1.8086 1.8086-4.2383 3.2422-7.1094 1.3711-2.8672 3.1172-6.2969 5.2383-10.164 2.1211-3.8672 2.4336-4.4297 3.1211-5.4883 0.68359-1.0625 1.6836-2.7461 2.9922-5.0547 1.3086-2.3047 3.0547-5.0508 3.9922-6.6719 2.3047-3.1172 0.93359-1.6211 2.2422-3.1172-1.4336 1.4336-4.2383 3.8047-6.6719 5.7383-2.3711 1.9336-4.2422 3.5547-5.5508 4.9258-1.3086 1.3711-2.1211 2.4336-3.5547 4.7383-1.4336 2.3711-3.7422 5.9258-5.6758 9.1055-1.9297 3.1211-3.5547 5.8008-4.8008 8.0469-1.2461 2.2461-2.1211 4.1172-3.1797 6.9219-1.0586 2.8086-2.3711 7.0508-3.4297 11.727-0.6875 3.0547-1.3086 6.3633-1.8711 9.793-0.25-0.125-0.625-0.1875-0.875-0.3125-0.87109-0.875-1.8711-1.6836-2.8672-1.8086-2.1211-0.3125-4.0547-0.5625-5.8633-1-1.8086-0.43359-3.4922-0.99609-5.1133-1.6836-1.6211-0.68359-4.4258-1.9336-6.7344-3.2422-2.3711-1.3086-4.4258-2.6836-6.1719-4.1172-1.375-1.0586-2.4336-2.2461-3.4922-3.3672-0.5625-2.6797-1.3125-5.4258-2.6211-8.1094-1.9336-3.5547-3.8047-6.1094-5.6133-7.793-0.0625-0.375-0.1875-0.6875-0.25-1-0.43359-2.0586-0.93359-5.7383-1.3086-8.9805-0.375-3.2422-0.5625-6.1133-0.6875-8.6055-0.0625-0.8125-0.0625-1.4961-0.0625-2.2461 0.0625 0.125 0.0625 0.1875 0.1875 0.3125 1.125 1.1211 1.125 1.1211 1.25 0.625 0 0 2.9297-0.25 3.3047-1 0.3125-0.75 0.55859-1.3086 0.74609-1.6211 0.125-0.3125 0.3125-0.5625 0.5625-1.1836 0.125-0.25 0.25-0.6875 0.375-1 2.3086-0.125 4.4258-0.3125 6.8594-0.5 17.961-1.3086 39.785-3.4922 54.129-4.8008 14.281-1.3711 19.023-1.2461 23.637-1.1211 4.6133 0.125 9.168 0.49609 13.594 0.93359 4.4922 0.4375 8.8555 1 17.773 2.9922 8.918 1.9961 21.328 5.1172 31.367 7.6719 9.9805 2.5586 17.59 4.6172 22.703 6.1133 5.1133 1.4961 7.418 2.3711 11.223 4.1172 3.8047 1.7461 9.3555 4.1172 14.094 6.1719 4.7422 1.9961 8.543 3.6797 11.477 4.9922 2.9297 1.3086 4.8633 2.3047 8.418 4.3633 3.4922 2.1211 9.793 5.8008 16.277 9.418 6.4219 3.6172 13.035 7.1094 19.832 10.48 6.7969 3.3672 13.719 6.6094 19.891 9.2305 6.1758 2.6172 11.227 4.5508 16.152 6.2969 4.9258 1.7461 9.793 3.3672 14.531 4.8008 4.7383 1.4375 9.3555 2.7461 12.035 3.4961 2.6836 0.74609 4.9883 1.3086 8.7305 1.9961 3.6797 0.68359 8.918 1.5586 15.777 2.6797 6.8594 1.1211 15.281 2.4336 45.09 4.1797s79.012 3.9297 85.746 5.1758c6.7383 1.2461 14.531 3.1797 23.137 5.5508 8.543 2.3711 17.898 5.2383 27.875 8.668 9.9805 3.4922 20.895 7.4219 23.949 8.4219 3.0547 0.99609 7.4844 2.8672 13.531 5.6758 5.9883 2.8047 13.598 6.4844 22.637 11.164 9.043 4.6133 19.582 10.227 30.871 16.59 11.289 6.3594 21.203 12.223 29.809 17.586 8.543 5.3633 15.777 10.289 21.578 14.656 5.8008 4.3672 10.227 8.1719 12.348 10.352 2.1211 2.1836 4.2422 4.6172 6.3594 7.3594 2.1211 2.7461 4.3047 5.8008 6.4258 9.1055 2.1211 3.3086 4.2383 6.8008 10.664 18.711 6.4219 11.914 11.723 22.266 15.902 31.121 0.99609 2.0586 1.8711 4.0547 2.8047 5.9258-0.5625 0.1875-1.1836 0.4375-1.7461 0.625-0.5 0.1875-0.99609 0.3125-1.4961 0.5-0.8125 0.0625-1.4336 0-2.3086 0.18359-2.9297-2.9922-7.793-4.9883-14.59-5.9219l-6.5508-5.8008c-0.125 0-0.25 0.125-0.49609 0.375v-1.9961c-0.0625-3.3672 0-8.6094 0.058594-10.977 0.0625-2.3711 0-4.6797-0.24609-6.6133-0.25-1.9336-0.375-3.4922-2.1211-4.5508-1.7461-1.0625-1.7461-1.0625-1.8086-0.4375 0 0-3.6797 1.0586-4.1797 2.5586-0.5 1.5586-0.99609 3.4297-1.4336 5.7344-0.5 2.3086-1.0586 5.4297-0.8125 11.039 0.25 5.6133 0.25 5.8008 0.1875 6.2383s-0.1875 1-0.30859 1.6836c-0.1875 0.6875-0.375 1.4336-0.625 2.1211s-1.3711 3.4922-2.9922 6.3008c-1.625 2.8047-3.6797 5.6758-6.1133 8.668-2.4336 2.9922-5.3008 5.9883-8.418 9.1055-1.0625 0.99609-2.1211 1.8711-3.1797 2.7422-0.6875 0.3125-1.375 0.5625-2.2461 0.875-5.3008 1.9961-15.34 5.3008-17.398 5.8008-1.9961 0.5-4.1797 0.99609-6.2383 1.3711-2.1211 0.375-4.1758 0.625-6.2344 0.6875-2.0586 0.125-3.2422 0.1875-9.9805-0.8125-6.7344-0.93359-6.3594-0.87109-6.9219-1.1836-0.49609-0.3125-1.3086-0.75-2.4297-1.1875-1.125-0.43359-2.4336-1.0586-4.0547-1.8711 0.375-0.62109 0.8125-1.1836 1.1836-1.8086 3.6172-6.3594 6.6133-13.406 8.6055-20.516 1.9961-7.1133 3.1211-12.91 3.3711-18.215 0.24609-5.3008 0.55859-9.9141 0.74609-13.906s0.125-7.3594 0-9.6055-0.1875-4.8008-0.5625-8.418c-0.37109-3.6172-1.1211-8.2969-1.8711-14.16-0.80859-5.8594-1.8086-12.785-3.6758-18.457-1.9336-5.6133-1.9336-5.6133-1.3125-1.75 0 0-0.80859 8.0469 0.1875 14.598 1 6.5469 1.6836 11.973 1.9961 16.215 0.3125 4.2383 0.3125 7.3594 0.125 9.2305-0.1875 1.9336-0.5625 4.7383-1.1211 8.043-0.5625 3.3086-1.25 7.2969-2.4961 11.852-1.2461 4.5508-2.7422 9.7305-3.8672 15.469-1.1211 5.7344-3.4297 12.348-6.2969 18.457-2.8711 6.1133-6.1758 11.539-10.102 16.219-3.8672 4.6758-8.2344 8.668-13.035 12.035-4.7383 3.3047-11.102 6.2383-17.773 8.4844-6.6719 2.2422-13.531 3.6797-20.703 4.1133-7.1719 0.4375-14.656 0.1875-22.516-0.99609-7.793-1.1875-11.16-2.3086-14.715-3.8047-3.5547-1.4961-6.9219-3.3047-10.352-5.3008-3.3711-1.9961-6.6133-4.3672-9.793-6.9219-3.1797-2.6211-4.6758-4.1172-5.9844-5.9258-1.3125-1.8086-2.5586-3.8672-3.6172-6.3008-1.0625-2.4297-1.8711-5.2383-2.3086-6.7344-0.5-3.1797-0.4375-1.4961-0.5-3.1797 0 1.6211-0.375 4.8008-0.1875 7.793 0.1875 2.9961 0.75 5.7383 1.6836 8.2969 0.9375 2.5547 2.3711 4.8633 4.7422 7.4844 2.3672 2.6172 5.5469 5.6133 8.8555 8.3555 3.3047 2.7461 6.7344 5.1758 10.414 7.2969 3.6172 2.1211 7.418 3.9922 13.719 6.0508 6.2969 2.0586 14.594 3.6172 22.824 4.1797 8.168 0.55859 16.215-0.0625 24.008-1.6211 7.8594-1.5625 15.469-4.1172 22.203-7.8594 5.3008-2.9922 9.6016-6.4883 13.594-10.293-0.62109 1.125-0.99609 2.2461-1.1211 3.3711-0.0625 0.125-0.125 0.1875-0.1875 0.30859-1.7461 0.375-3.0547 1-3.8672 1.9961-0.5 0.5625-0.93359 1.375-1.1836 2.4336-1.125 1.4961-0.3125 6.7344 2.4297 15.656l3.1836 8.543c-2.6836 10.227-5.1758 23.137-4.7422 34.676 0.9375 23.512 1.6211 41.66 1.9336 54.324 0.3125 12.66 0.1875 19.52-0.3125 20.828-0.43359 1.3125-0.74609 6.6758-1.5586 12.785-0.80859 6.0508-2.4922 15.156-4.8008 27.07-2.3711 11.91-5.6133 26.504-9.3555 43.719-4.3633 16.59-13.781 48.523-23.82 77.586zm-554.4-518.21c0.125 1 0.1875 1.7461 0.25 2.1836 0.1875 1.1836 0.4375 2.3086 0.6875 3.4297-1.0586-0.3125-2.1211-0.4375-3.1797-0.375-0.0625-1.8086-0.25-3.5547-0.4375-5.2383s-0.4375-3.3047-0.75-4.8633h0.0625c0.9375 1.6836 2.0586 3.1797 3.3672 4.4883h-0.0625zm1.5625 44.906 0.12109 0.375c0.125 0.55859 0.3125 1.1836 0.4375 1.8086-0.4375-0.5625-0.87109-1.1875-1.3086-1.9336h-0.0625c0.1875-0.0625 0.4375-0.125 0.8125-0.25zm-1.1875-130.04c-0.4375 2.0586-0.80859 4.4922-0.93359 7.1133-1.3086-2.0586-2.9336-4.1172-5.3633-6.2383l-0.25-0.125c-0.125-0.0625-0.3125-0.0625-0.4375-0.0625 0.8125-0.87109 1.6836-1.9961 2.1211-3.2422 1.9336-0.125 3.9922-0.1875 6.0508-0.3125-0.5 0.8125-0.9375 1.7461-1.1875 2.8672zm-6.8594 266.69c0.75-1 1.4961-1.9961 2.2461-3.0586 1.8711 0.375 4.0547-0.25 6.4844-1.6211-3.4297 4.5547-6.7344 9.2305-10.039 13.91 0.25-1.5625 0.5625-3.0586 0.80859-4.7422 0.3125-1.5586 0.375-2.9922 0.5-4.4883zm15.094-12.848c0.0625-0.1875 0.125-0.3125 0.24609-0.5 0.125-0.0625 0.1875-0.125 0.25-0.125-0.1875 0.1875-0.3125 0.4375-0.49609 0.625zm15.277-94.488 0.0625 0.0625c0.625 0.3125 1.4961 1.2461 2.4922 2.8047 0.9375 1.5 1.6875 2.9961 2.1836 4.6172 0.1875 0.5 0.1875 0.99609 0.3125 1.5586-0.6875 0.375-1.3086 0.6875-1.9336 1.0586-0.0625-0.0625-0.125-0.0625-0.1875-0.125-1.3086-2.4297-2.9297-4.7383-4.9883-7.0469 0.0625-0.80859 0.3125-1.5586 0.75-2.2422 0.0625-0.0625 0.1875-0.1875 0.37109-0.3125 0.25-0.0625 0.5625-0.1875 0.9375-0.375zm1.4961-74.656c0.5625-0.125 1.3711-0.43359 2.4336-0.87109 0.1875-0.0625 0.55859-0.25 1.2461-0.625 0.5625-0.3125 1.0586-0.62109 1.4961-0.99609h0.0625v0.25c0 2.8672 0.1875 4.9258 0.625 6.2344-2.4961-1.6211-4.6172-2.6797-6.4258-3.3047 0.125-0.0625 0.3125-0.3125 0.5625-0.6875zm13.844-21.641c-0.125-0.1875-0.25-0.3125-0.25-0.375h-0.0625 0.6875c0.5625 0 1.0586 0.0625 1.4961 0.0625 0.3125 0.0625 0.625 0.125 0.875 0.1875l0.125 0.0625 0.0625 0.125v0.125l-0.0625 0.125c-0.0625 0.0625-0.1875 0.1875-0.375 0.25l-0.3125 0.125c-0.25 0.0625-0.5625 0.1875-0.99609 0.25l-0.6875 0.125c-0.375 0.0625-1.0586 0.1875-1.9961 0.30859-0.375 0.0625-0.5625 0.125-0.5625 0.125-0.0625-0.43359-0.18359-0.87109-0.30859-1.3086 0-0.0625-0.0625-0.1875-0.0625-0.25h-0.0625c0.74609 0 1.3086 0 1.6211 0.0625 0.3125 0 0.55859 0.0625 0.87109 0.125v-0.125zm4.0547 64.426c0.25 1.6836 0.4375 2.6836 0.5625 2.9961 0.1875 0.68359 0.37109 1.3086 0.62109 1.9922 0.25 0.6875 0.5 1.3125 0.8125 1.9961h-0.0625c-1.8086-2.1797-3.6797-4.6758-5.6133-7.4844 0.375-1.6211 0.625-3.1797 0.8125-4.6758 0.18359-1.4961 0.24609-2.9922 0.24609-4.3672h0.0625l0.25 0.3125c1.125 1.3711 1.9336 2.6211 2.4336 3.7422h-0.0625l-0.0625 0.4375c-0.125 0.6875-0.1875 1.3086-0.1875 1.9961 0.0625 1.7461 0.0625 2.7422 0.1875 3.0547zm1.9336-35.551c0.3125-0.74609 0.5-1.4336 0.74609-2.1797 0.25 0.80859 0.4375 1.7461 0.75 2.5547 0.5 1.375 1.1211 2.6211 1.6836 3.9297-1.1836-1.4336-2.2461-2.9297-3.1797-4.3047zm29.184 59.062c0.75-0.49609 1.5586-0.80859 2.1836-1.4961 1.1211 0.75 2.3711 1 3.6797 1.0625-2.1836 0.99609-3.6797 1.8711-4.4258 2.6172-0.5 1.9336-0.9375 2.9961-1.3125 3.3047 0.1875-2.0547 0.125-3.8633-0.125-5.4883zm10.852 8.2344c0.0625-0.1875 0.125-0.375 0.125-0.5 0.125 0.0625 0.25 0.125 0.375 0.25-0.125 0-0.3125 0.125-0.5 0.25zm207.23 184.11c-0.4375 1.3711-0.8125 2.6211-1.1836 3.7422-0.625 2.0586-1.1875 3.6797-1.5586 4.8008-0.375 1.125-0.625 1.8086-0.9375 2.6836-0.3125 0.87109-0.80859 2.0586-1.4961 3.4922-0.6875 1.4336-1.5586 3.2422-2.4961 5.3008-0.68359 1.4336-1.4336 3.0547-1.9961 4.1172 0.25-1.0625 0.5-2.1211 0.8125-3.1797 0.6875-1.7461 1.3086-3.3711 2.0586-5.1797 1.4336-3.4922 3.0547-7.1094 3.3047-7.668 0.25-0.5625 0.5-1.1875 0.80859-1.75 0.25-0.55859 0.5-1.1836 0.75-1.7461 0.25-0.37109 0.375-0.87109 1.9336-4.6133zm34.176-83.637c0.125-0.55859 0.1875-1.0586 0.25-1.6211 0.18359 0.25 0.30859 0.4375 0.49609 0.6875-0.125 0.125-0.3125 0.3125-0.375 0.4375-0.12109 0.1875-0.24609 0.37109-0.37109 0.49609zm392.88 35.051c-0.87109 1.7461-1.9922 3.3711-3.6172 4.8672-0.18359-0.375-0.30859-0.8125-0.49609-1.1875 1.3711-0.93359 2.7422-2.2422 4.1133-3.6797zm-30.059 46.777c1.0625-0.75 1.9961-1.6211 2.8711-2.5586 0.1875-0.1875 0.74609-0.87109 1.6211-1.9961 0.3125-0.43359 0.68359-0.93359 0.99609-1.4336s0.625-0.99609 0.875-1.4961c0.68359-1.3086 1.0586-2.0586 1.1836-2.3711 0.5625-1.2461 1.0625-2.6172 1.4336-4.0508l0.0625 0.058593v0.5c0 1.9961-0.25 3.8672-0.74609 5.7383-0.1875 0.8125-0.4375 1.5586-0.75 2.2461-0.125 0.375-0.3125 0.68359-0.4375 1.0586-0.0625 0.1875-0.30859 0.625-0.74609 1.4375-0.8125 1.3711-2.0586 2.8047-3.7422 4.3008-0.9375 0.8125-1.4961 1.1875-1.6836 1.2461-0.6875 0.375-1.2461 0.5625-1.7461 0.625 0.3125-1.0586 0.5625-1.8711 0.74609-2.4922l0.1875-0.8125c-0.0625 0.0625-0.0625 0.0625-0.125 0zm3.5547-78.023c0.1875 0.25 0.3125 0.5 0.5625 0.75-0.0625 0.0625-0.125 0.0625-0.125 0.125-0.0625 0.0625-0.1875 0.125-0.25 0.25 0-0.0625-0.0625-0.125-0.0625-0.25-0.125-0.3125-0.125-0.5625-0.125-0.875zm4.3047 3.9922c0.1875 0.125 0.375 0.25 0.625 0.4375-0.125 0-0.3125-0.0625-0.5-0.125-0.0625-0.125-0.0625-0.25-0.125-0.3125zm-30.934 119-0.18359 0.24609-2.2461 2.9336h-0.0625c-2.9297 1.9961-4.7383 3.1797-5.4258 3.4922 1.2461-1 2.3711-2.2461 3.4297-3.7422 0.8125-1.1211 1.4336-2.3711 1.9336-3.8672 0.74609 0.5 1.6211 0.75 2.5547 0.9375zm-9.6016-52.078c-1.6836-0.375-3.3047-0.4375-4.9258-0.25 0.55859-0.25 1.0586-0.5 1.6211-0.8125 0.80859-0.55859 1.4336-1.3711 2.1211-2.1172 0.30859 1.0586 0.68359 2.0547 1.1836 3.1797zm-7.9219-8.2344c0.1875-0.74609 0.375-1.4336 0.625-2.1836 0.1875-0.49609 0.3125-0.99609 0.5-1.5586l0.0625 0.0625c0.375 0.1875 0.87109 0.5625 1.3086 0.9375-0.125 0.80859-0.3125 1.6211-0.625 2.4297-0.25 0.8125-1.0586 1.625-2.3672 2.4961 0.125-0.4375 0.1875-0.87109 0.25-1.2461 0.058594-0.1875 0.12109-0.375 0.12109-0.5625h0.5625c0.0625 0 0.25 0.0625 0.625 0.125-0.25-0.125-0.6875-0.3125-1.0625-0.5zm-3.8633 88.75-0.0625 0.0625-0.5625 0.75c-0.125-0.3125-0.25-0.5625-0.4375-0.8125-0.0625-0.125-0.125-0.25-0.25-0.375h-0.0625l0.6875 0.1875c0.3125 0.125 0.5 0.125 0.6875 0.1875zm-13.91-1.5586-0.18359 0.0625c-0.75 0.3125-1.375 0.5625-1.8711 0.80859-0.125-0.43359-0.25-0.99609-0.375-1.4961 0.3125 0.125 0.5625 0.1875 0.68359 0.25l0.4375 0.125c0.5625 0.0625 0.9375 0.1875 1.3086 0.25zm-7.8555-60.809c-0.4375-0.875-0.8125-1.5586-1.0625-2.1211-0.37109-0.80859-0.80859-1.8086-1.2461-2.8672h-0.0625c0.3125-1.8711 0.6875-3.3711 1.0625-4.6172 0.24609-0.87109 0.49609-1.6211 0.74609-2.3086 0.125-0.30859 0.25-0.68359 0.4375-0.99609l0.0625 0.0625c-0.375 4.3672-0.3125 8.668 0.0625 12.848zm0.3125 13.844c0.49609 0.0625 0.99609 0.0625 1.4961 0.0625l0.0625 0.0625c-0.4375 0.375-1 0.875-1.6836 1.5625h-0.0625c-0.25-0.5625-0.5625-1.1875-0.8125-1.8125h-0.0625c0.3125 0.0625 0.6875 0.125 1.0625 0.125zm58.992 128.61c-0.25 1.5586-0.74609 4.5508-1.4961 9.168-0.74609 4.6133-1.6836 10.789-2.7422 18.645-0.625 4.4922-1.125 9.543-1.3125 14.598-1.9922 2.6797-4.1758 5.4883-6.5469 8.3555-2.8672 3.5547-5.9844 7.1719-9.3555 10.852-2.0547 2.2461-4.3008 4.6172-7.1094 7.5469 0.25-2.6211 0.5625-5.4258 0.8125-7.9844 0.6875-6.7344 1.3711-13.281 1.9336-19.582s2.5547-20.457 4.0547-32.68c1.4961-12.227 2.8672-22.391 3.8633-30.625 1-8.2305 1.8086-14.406 2.2461-18.645 0.4375-4.2422 0.625-5.6133 0.8125-6.9883 0.1875-1.3711 0.43359-2.6797 0.68359-3.9922 0.25-1.3086 0.5-2.5547 0.5625-3.2422 0.1875-1.2461 0-0.62109 0.1875-1.2461-0.3125 0.5625-0.6875 1.8086-1 3.0547-0.30859 1.25-0.62109 2.5586-0.87109 3.9297-0.25 1.3711-0.5625 2.6836-0.99609 5.1758-0.375 2.4961-1.1875 7.2969-2.3086 14.16-1.125 6.7969-2.8711 15.59-4.8008 26.379-1.9961 10.789-4.7422 23.453-6.7383 33.617-1.9922 10.168-3.0547 16.527-4.0508 23.078-1 6.6094-1.9961 13.469-2.8711 20.516-0.1875 1.375-0.3125 2.7461-0.49609 4.1797-5.3008 5.3633-10.168 10.168-14.344 14.094-4.6797 4.4297-8.543 7.8594-11.727 10.543 0-0.1875 0.0625-0.3125 0.0625-0.5625 0 0 3.4922-5.3008 4.0547-9.7305 0.5625-4.4258 0.875-7.6094 1.1211-9.5391 0.25-1.9336-0.24609-2.6836 3.6172-29.254 3.9297-26.566 5.4883-37.168 6.8594-46.586 1.375-9.418 2.7461-17.59 4.0547-24.512 1.2461-6.9219 2.4336-12.66 2.9922-15.094 0.625-2.6172 0.6875-2.9922 0.75-3.3047-0.625 2.4336-1.6211 6.6094-2.7422 11.789-1.375 6.1094-2.9336 13.406-4.5547 21.953-1.6836 8.543-3.8047 18.273-7.0469 36.734-3.2422 18.523-8.1055 44.902-8.6055 45.965-0.5 1.0586-0.875 3.4297-1.4336 7.0469-0.5625 3.6172-1.1875 8.4805-0.3125 12.91 0.25 1.2461 0.375 2.0586 0.5625 2.6797-3.1836 2.6211-5.9258 4.6172-16.527 12.848-1.8711 1.4375-3.5547 2.7461-5.3008 4.0547 0.6875-2.6172 1.3711-5.3633 1.8711-8.1055 1.6211-9.6055 2.9297-17.84 4.0547-24.637 1.1836-6.7969 2.1172-12.223 2.9922-16.277 0.87109-4.0547 0.87109-4.8633 1.3086-7.2969s1.3086-6.6133 2.6211-12.473c1.3086-5.8633 2.8672-13.473 5.0508-22.703s2.7422-11.727 3.2422-14.406c0.5-2.7461 1.0586-5.6758 1.7461-8.918 0.6875-3.2461 1.4336-6.6758 2.1836-10.418 0.74609-3.7422 0.87109-4.3008 0.99609-4.8633s0.25-1.1211 0.4375-1.7461c0.125-0.5 0.3125-0.9375 0.375-1.2461-0.0625 0.24609-0.125 0.43359-0.25 0.68359-0.1875 0.5625-0.375 1.125-0.5625 1.6836-0.1875 0.5625-0.375 1.125-0.80859 3.3047-0.5 2.1836-1.3125 5.8008-2.1211 9.168-0.75 3.3711-1.4961 6.4883-2.2461 9.3555-0.74609 2.8711-1.4961 5.4258-3.0547 11.539-1.5586 6.1133-3.8672 14.719-5.8008 21.578-1.9336 6.9258-3.3672 12.164-4.3008 15.719-0.9375 3.5547-1.5 5.4883-1.9961 7.6719-0.5 2.1836-1.4961 6.6719-2.6836 12.598-1.1836 5.9258-2.6172 13.16-4.2383 21.828-1.25 6.7344-2.4961 14.281-3.1211 21.266-6.4219 4.8672-12.035 8.9219-16.711 12.039-3.0547 2.0586-5.6133 3.7422-7.7344 5.3633 10.852-26.57 20.953-55.32 28-79.77 7.3594-25.758 11.414-42.348 14.531-56.316 2.6836-11.852 4.6758-21.703 6.1133-29.812 0.0625 0 0.125 0 0.1875-0.0625 1.3711-0.3125 3.4922-2.1836 6.2344-5.6133 3.6797-5.7383 6.4219-9.7305 8.1055-12.035l0.5-0.6875c2.0586 0.5625 4.3047 0.75 6.0508-0.3125 4.5508-2.7422 9.4141-6.0469 14.777-9.9141 5.3008-3.8047 11.539-8.5469 23.762-20.895 12.223-12.285 15.715-16.465 18.52-20.145 2.8711-3.6797 5.4883-7.2969 7.9219-10.727 0.375-0.5 0.5625-0.9375 0.93359-1.4375-0.058594 0.5-0.12109 0.875-0.18359 1.4375-0.25 2.0586-0.6875 4.6758-1.1875 7.793-0.49609 3.1211-1.1211 6.8008-3.1797 17.777-1.9961 10.977-5.3008 26.754-8.1055 39.414-2.7461 12.664-4.6797 22.266-6.0508 28.754-1.2461 6.4844-1.8711 9.9141-2.1211 11.539zm110.45-251.03c-0.375 2.6172-0.8125 5.4258-1.3711 8.293-0.5 2.9336-1.125 5.9883-4.1172 19.586-2.9922 13.594-8.418 34.676-12.723 51.641-4.3008 16.965-7.4844 29.75-9.8516 38.355-2.3086 8.6055-3.5547 12.848-6.1758 19.645-2.6172 6.8008-7.9805 18.523-13.281 30.25-5.3008 11.785-10.789 23.512-16.527 35.113-3.9922 8.043-8.168 16.152-13.844 26.441 0.74609-4.9258 1.4961-9.9766 2.2461-15.277 1.6211-11.352 3.2422-23.516 4.9258-36.547 1.6836-12.973 3.1797-22.953 4.5508-31.809 1.4336-8.918 2.8086-16.715 4.1172-23.449 1.3086-6.7383 2.6172-12.414 3.1797-14.906 1.1836-4.6172 0.5625-2.4961 1.1836-4.6172-0.80859 2.0586-2.1797 6.9844-3.6758 12.973-1.5 5.9883-3.1836 13.035-4.9297 21.145-1.7461 8.1055-3.7422 17.273-5.9219 28.812-2.1836 11.539-4.5547 24.137-6.7344 35.922-2.1836 11.789-4.4297 22.766-6.3633 32.934-0.80859 4.1758-1.5586 8.1055-2.2461 11.785-5.9219 10.168-12.969 22.141-18.457 31.246 0.5625-4.2383 1.0586-7.9805 1.4336-11.164 0.625-5.6758 1.1836-9.7266 1.4961-12.16 0.375-2.4336 0.4375-3.8047 0.9375-8.2344 0.55859-4.4258 1.3711-12.035 2.8047-22.824 1.3711-10.727 3.1797-24.637 5.8008-41.602 2.6172-16.961 3.1172-21.016 3.5547-24.57 0.4375-3.4922 0.74609-6.4883 0.93359-8.9805 0.1875-2.2461 0.1875-3.9297 0.125-4.8672 1.7461-2.6172 3.4297-5.1758 4.9258-7.6719 1.9336-3.2422 4.4297-7.793 6.5508-11.66 2.1172-3.8672 3.8633-7.0469 5.1758-9.6055 1.3086-2.6211 2.3047-4.6172 2.7422-5.9883s2.8086-7.9219 4.7422-13.531c1.9297-5.6133 3.5547-10.168 4.7383-13.785 1.2461-3.6172 1.9336-6.3008 2.2461-7.7969 0.30859-1.4961 0.68359-2.4922 1.1211-5.3008 0.4375-2.8047 0.87109-6.9219 1.4336-12.41s0.9375-12.535 1.7461-20.895c0.25-2.6172 0.4375-4.5508 0.5625-5.9883 0.1875 0 0.1875-0.30859 0.0625-0.80859 0.1875-2.2461 0.25-3.1797 0.25-3.8672 0.87109-3.1797 1.8711-9.1055-0.625-14.719-3.6172-8.1719-8.2305-17.773-14.031-28.875-5.8008-11.039-12.66-23.637-14.969-27.441-2.3047-3.8047-4.6758-7.2969-7.0469-10.605-1.7461-2.3672-3.4922-4.4258-5.2383-6.4844 0.9375 0.4375 0.9375 0.4375 0.9375 0.125 0 0 1.8711-0.875 2.0586-1.5586 0.125-0.75 0.3125-1.5 0.43359-2.3086 0.125-0.8125 0.3125-1.5586 0.5-2.3711 0.1875-0.80859 0.4375-4.9883 0.5625-9.3555 0.125-4.3633 0.125-8.793 0-13.344-0.0625-4.5547-0.1875-9.2305-0.25-14.035-0.0625-4.8008-0.1875-7.1094-0.0625-9.3555 0.125-2.2461 0.3125-4.2383 0.5625-5.9883 0.25-1.7461 0.43359-3.3047-0.1875-4.2383-0.4375-1.6211-0.75-1-0.5-1.6211-1.6836 0.125-2.4961 1.5586-3.0547 3.2422-0.5625 1.6836-1 3.6797-1.3711 5.8633-0.375 2.1836-0.6875 4.5508-1 8.3555-0.25 3.7422-0.375 8.4844-0.5625 13.098-0.18359 4.6172-0.37109 9.1055-0.49609 13.535-0.125 4.3633-0.1875 8.668-0.0625 11.227 0.125 2.6172 0.3125 3.4297 0.4375 4.3008 0.18359 0.8125 0.37109 1.6211 0.62109 2.4336 0.0625 0.125 0.125 0.25 0.125 0.375-0.25-0.25-0.4375-0.5625-0.6875-0.8125-2.4922-2.7422-5.1133-5.3633-10.414-9.7305-5.3633-4.4258-12.035-9.168-19.953-14.406-7.9219-5.2383-17.152-10.914-27.691-17.023-10.539-6.1133-22.449-12.727-32.551-18.09-10.168-5.3633-18.773-9.8516-25.945-13.469-3.1172-1.5586-5.9219-2.8711-8.4805-4.1172 0.6875-1.0586 1.8711-3.2422 2.3711-6.2383 0.6875-4.1758 1.5586-9.7266 2.6797-16.59 1.125-6.8594 2.6211-15.027 4.3672-24.508s2.9297-15.031 4.0547-20.27c1.1836-5.2383 2.3672-10.043 3.6172-14.531 1.2461-4.4922 2.4922-8.6094 3.1172-10.543 1.2461-3.7422 0.5625-1.9961 1.2461-3.7422-0.80859 1.7461-2.2461 5.6133-3.6797 9.793-1.4336 4.1797-2.8672 8.793-4.3008 13.723-1.4375 4.9258-2.8711 10.227-4.8047 17.898s-4.0508 16.652-5.8594 24.324c-1.8086 7.668-3.0586 14.094-3.9297 19.27-0.8125 4.7422-1.0625 8.4219-0.5 10.789-2.7422-1.2461-5.2383-2.3672-7.4219-3.1797-4.0508-1.6211-6.6094-2.4336-14.902-5.4258 0.375-0.875 0.68359-1.8086 0.93359-2.8086 1-4.3008 1.9336-9.2891 3.1172-14.902 1.1875-5.6758 2.4336-12.039 3.9297-19.023 1.4961-6.9844 3.0586-14.156 4.4922-20.52 1.4336-6.3594 2.7422-11.852 3.9883-16.59 1.25-4.6758 2.3086-8.6055 2.6836-10.289 0.8125-3.1211 0.3125-1.7461 0.8125-3.1211-0.75 1.3125-1.9336 4.6172-3.3086 8.7344-1.3086 4.1133-2.8047 9.043-4.5508 14.719-1.7461 5.6758-3.7422 12.223-5.7383 19.27-1.9961 7.1094-3.8047 13.848-5.3633 19.895-1.5586 6.0508-2.8672 11.477-3.8672 16.281-0.49609 2.4922-0.87109 4.8008-1.0586 6.8594-6.3594-2.3086-12.473-4.3672-18.398-6.3008v-0.125c-0.0625-0.87109-0.0625-1.6836-0.0625-2.5547 0-0.8125 0.0625-1.6836 0.1875-2.4961s0.1875-1.3711 0.375-2.3086c0.1875-0.93359 0.4375-2.2461 0.8125-3.8672 0.37109-1.6836 0.80859-3.6797 1.3711-6.0469 0.5625-2.3711 1.8086-8.2344 3.1172-13.973 1.3086-5.7383 2.6211-11.352 3.9922-16.84s2.6172-10.914 3.9297-16.215c1.3086-5.3008 1.8086-7.2344 2.3047-9.1055 0.5-1.9336 1.125-3.7422 1.7461-5.5508 0.625-1.8086 1.3125-3.6172 1.5625-4.5508 0.62109-1.8086 0.24609-0.9375 0.62109-1.8086-0.5 0.80859-1.1836 2.5547-1.8711 4.3633-0.68359 1.8086-1.3086 3.6172-1.9336 5.4883-0.62109 1.8711-1.2461 3.7422-2.2422 7.2969-1 3.5547-2.4336 8.918-3.8672 14.285-1.4336 5.4258-2.8711 10.914-4.3047 16.59-1.4336 5.6094-2.9297 11.348-3.9922 15.465-1.0586 4.1172-1.5586 6.4258-1.9922 8.3594-0.4375 1.9336-0.75 3.4922-1 4.6758s-0.375 2.0586-0.5 2.8086c-0.0625 0.74609-0.12109 1.6211-0.12109 2.5547 0 0.875 0.058594 1.8086 0.18359 2.6836 0 0.125 0.0625 0.25 0.125 0.37109-2.9297-0.93359-5.9844-1.9297-8.793-2.8047-9.2891-2.8672-17.898-5.2383-25.879-7.1094-3.9297-0.875-7.8594-1.6836-16.715-2.5586 0.1875-0.49609 0.375-1.0586 0.5625-1.4961 0.25-0.625 0.4375-1.1836 0.625-1.6836 0.25-0.5 0.62109-2.6211 1.0586-4.4297 0.375-1.8086 0.6875-3.3672 0.9375-4.6758 0.24609-1.3086 0.37109-2.3086 0.49609-3.0547 0.125-0.75 0.375-2.0586 0.6875-3.4336 0.3125-1.3086 0.625-2.6797 0.93359-4.0508 0.3125-1.375 0.6875-2.7461 1-4.1172s0.80859-2.8711 1.2461-4.3047c0.4375-1.3711 0.875-2.6172 1.2461-3.7422 0.375-1.1211 0.75-2.1211 1.125-2.9922 0.375-0.875 0.5625-1.4961 0.80859-2.0586 0.25-0.5625 0.5-1.1211 0.75-1.6836s0.5-1.0625 0.80859-1.5586c0.25-0.5 0.5625-1 0.875-1.4961 0.3125-0.4375 0.5625-0.8125 0.75-1.125 0.18359-0.3125 0.30859-0.5 0-0.87109-0.3125-0.4375-0.4375-0.4375-0.375-0.5-0.875-0.625-1-0.4375-1.1875-0.1875-0.18359 0.25-0.43359 0.5625-0.74609 0.99609-0.3125 0.375-0.625 0.875-1 1.4375-0.37109 0.49609-0.68359 1.0586-0.99609 1.5586s-0.625 1.0586-0.93359 1.6211c-0.3125 0.5625-0.625 1.1836-1 1.8711-0.375 0.75-0.80859 1.6211-1.2461 2.6797-0.4375 1.0625-0.9375 2.2461-1.4961 3.5586-0.5 1.3086-1.0625 2.7422-1.6211 4.1758-0.5625 1.4375-1.0625 2.8086-1.5 4.2422-0.43359 1.3711-0.80859 2.7461-1.1836 4.1172-0.375 1.3711-0.74609 2.7422-0.99609 3.7422-0.25 0.99609-0.5 1.8711-0.75 2.9297-0.3125 1.125-0.5625 2.4961-0.87109 4.1797-0.3125 1.6836-0.625 3.6172-0.75 4.9258s-0.1875 1.8086-0.1875 2.3711c-0.0625 0.5625-0.125 1.2461-0.1875 1.9961v0.62109c-5.6758-0.43359-13.156-0.93359-23.262-1.4336 0.1875-0.4375 0.25-0.87109 0.25-1.3086-0.125-1.6211-0.3125-3.3047-0.3125-5.0508-0.0625-1.7461 0-3.4922 0.0625-5.4258s0.125-2.8711 0.1875-3.8047c0.125-0.9375 0.1875-1.7461 0.3125-2.4336s0.25-1.3086 0.3125-1.8086c0.125-0.5 0.375-1.4336 0.625-2.3086 0.24609-0.87109 0.49609-1.6836 0.80859-2.4297 0.25-0.75 0.5625-1.4375 0.375-1.9336 0-0.8125-0.25-0.5-0.0625-0.8125-0.6875 0-1.2461 0.5625-1.6211 1.3086-0.375 0.6875-0.8125 1.4375-1.1836 2.3086-0.375 0.8125-0.8125 1.6836-1.125 2.4336-0.3125 0.74609-0.5 1.3086-0.74609 1.9961-0.1875 0.68359-0.4375 1.4336-0.625 2.3047-0.1875 0.875-0.4375 1.8125-0.75 3.3086-0.30859 1.4961-0.80859 3.4297-0.93359 5.3633s-0.125 3.8672 0 5.7383c0.0625 0.80859 0.1875 1.6211 0.4375 2.3672-5.3633-0.25-11.352-0.49609-18.148-0.74609-0.5 0-0.9375-0.0625-1.4336-0.0625-0.0625-0.6875-0.0625-1.3086-0.125-2.1211-0.0625-1.4961-0.125-3.0547-0.0625-4.8008s0.0625-2.9336 0.125-4.0547c0.0625-1.125 0.125-2.0586 0.1875-2.9336 0.0625-0.87109 0.0625-1.6211-0.25-2.1797-0.1875-0.8125-0.375-0.5625-0.1875-0.875-0.8125-0.0625-1.4961 0.5625-2.0586 1.3086-0.5625 0.8125-0.93359 1.8086-1.2461 2.9336-0.3125 1.1211-0.625 2.3672-0.875 3.9922-0.25 1.6211-0.4375 3.3672-0.62109 4.9883-0.125 1.2461-0.1875 2.4336-0.1875 3.5547-6.8594-0.25-12.848-0.5625-18.086-0.8125 0-0.125-0.0625-0.25-0.0625-0.37109 0-0.375 0-1.125-0.0625-1.9336 0-0.75 0.0625-1.5 0.125-2.2461 0.0625-0.75 0.25-1.4961 0.375-2.3086 0.125-0.75 0.125-0.93359 0.1875-1.1836s0.125-0.5 0.24609-0.9375c0.125-0.375 0.25-0.87109 0.5-1.4336 0.1875-0.5625 0.3125-0.75 0.375-0.99609 0.125-0.25 0.1875-0.4375 0.3125-0.6875s0.0625-0.5625 0-0.75c0-0.30859-0.0625-0.1875 0-0.30859-0.25 0-0.4375 0.18359-0.6875 0.37109-0.1875 0.1875-0.375 0.375-0.5 0.625-0.12109 0.25-0.30859 0.4375-0.49609 0.87109-0.1875 0.375-0.5 0.875-0.6875 1.3125-0.25 0.4375-0.4375 0.80859-0.5625 1.0586s-0.24609 0.5-0.43359 1c-0.1875 0.43359-0.4375 1.2461-0.6875 2.0586-0.1875 0.80859-0.375 1.6211-0.5625 2.4297-0.1875 0.8125-0.30859 1.6211-0.37109 2.2461-0.0625 0.3125 0 0.625 0 0.875-3.5547-0.1875-6.8008-0.375-9.668-0.5 0-0.25 0.125-0.4375 0.0625-0.75-0.25-1.3086-0.625-3.0547-0.87109-5.3008-0.25-2.2461-0.5625-4.9258-0.875-6.4219 0-0.1875 0-0.1875-0.0625-0.3125 8.2305 0.125 17.836-0.375 27.129-1.8711 12.906-2.0586 25.07-5.9883 36.418-11.602 11.414-5.6133 22.078-12.848 27.254-21.516 5.1758-8.6719 5.1758-8.6719 0.43359-4.5547 0 0-13.406 3.3047-23.012 9.793-9.6641 6.4844-20.078 11.414-31.43 14.656-11.285 3.3047-23.449 5.2383-36.418 5.4883-12.973 0.25-16.34-0.75-20.02-1.7461-3.6797-1-7.0469-2.0586-10.039-3.1172-2.9297-1.0625-5.5508-2.1211-7.7344-3.0586-2.1836-0.93359-6.4219-3.3047-10.102-5.4258-3.6797-2.1211-6.7969-3.9922-9.2305-5.6758-2.4297-1.6836-4.1758-3.1172-5.4258-4.3008-1.2461-1.1875-9.4141-9.418-15.777-16.777-6.3594-7.3594-10.914-13.973-13.906-19.773-2.9297-5.7969-4.1797-10.852-4.5508-13.281 0.37109-4.6172-0.4375-2.4336 0.30859-4.6172-1.1836 2.1211-2.1797 7.1719-0.99609 13.223 1.1211 6.0508 4.1172 12.848 9.043 20.395s11.66 15.84 16.09 20.832c4.4883 5.0508 6.1719 6.6719 8.3555 8.543 2.1836 1.8086 4.9883 3.8047 8.293 6.0508 3.3047 2.2422 7.1719 4.7383 10.602 6.7344 3.3672 1.9961 5.9883 3.1797 8.918 4.3047 2.9336 1.1211 6.2383 2.3047 9.793 3.4922 3.6172 1.1836 7.543 2.3086 17.086 3.2422 2.5586 0.25 5.4258 0.375 8.4805 0.4375-0.0625 1.4336-0.125 2.9922-0.0625 4.4258 0.0625 2.5586 0.1875 4.6797 0.3125 6.3633 0.0625 0.75 0.125 1.3086 0.25 1.8711-16.277-1-21.828-1.8086-26.879-2.5586-7.8555-1.1836-14.094-2.1797-18.707-2.9297-4.5547-0.8125-7.4219-1.3711-8.6055-1.6836-1.1875-0.3125-5.6758-1.5586-10.105-2.9336-4.4258-1.3711-9.0391-2.8672-13.719-4.4883-3.6172-1.2461-7.3594-2.6836-11.102-4.0547 0-0.5625-0.0625-1.2461-0.0625-1.6836-0.058594-0.8125-0.058594-1.3086-0.058594-1.5586v-2.6836c0-1.1836 0.058594-2.2461 0.058594-3.3047 0.0625-1.0586 0.125-1.9961 0.1875-2.9297 0.0625-0.9375 0.1875-2.2461 0.3125-3.4922 0.125-1.3125 0.375-2.5586 0.6875-3.8047 0.3125-1.25 0.68359-2.4336 0.5-3.1836 0.058594-1.3711-0.25-0.74609 0-1.3711-1 0.3125-1.5 1.5586-1.8711 2.8086-0.4375 1.2461-0.75 2.5547-1.125 3.8633-0.3125 1.3125-0.62109 2.6211-0.74609 3.8047-0.1875 1.125-0.25 2.1211-0.375 3.1211-0.0625 1.0586-0.125 2.1211-0.1875 3.2422-0.0625 1.1211-0.0625 2.3711-0.0625 3.0547 0 0.6875 0 1.125 0.0625 1.8086 0 0.3125 0.0625 0.875 0.125 1.3125-0.25-0.0625-0.4375-0.1875-0.6875-0.25-4.8008-1.8711-11.598-4.9297-18.27-8.1094-0.3125-0.125-0.625-0.3125-0.9375-0.4375 0.5625-1.3086 1.0625-2.8672 1.125-4.5508 0.12109-3.8672 0.30859-7.9844 0.37109-12.41 0.0625-4.4297 0.3125-9.1055 0.5625-14.098 0.25-4.9883 0.4375-8.418 0.75-11.66 0.30859-3.2461 0.68359-6.4258 1.1211-9.418 0.4375-3.0586 1.0586-5.9258 0.99609-7.4844 0.3125-2.9336-0.125-1.5586 0.25-2.9336-1.2461 1.125-2.0586 3.9922-2.8672 6.9258-0.75 2.9297-1.4961 6.0469-2.1211 9.2305-0.625 3.2422-1.1211 6.5469-1.7461 10.789-0.625 4.2383-1.3086 9.1055-1.8086 13.781-0.5 4.6797-0.93359 9.043-1.0586 13.16-0.0625 2.4336 0.0625 4.6172 0.37109 6.6719-4.9883-2.4297-9.9141-4.9258-14.715-7.4805-2.9336-1.625-5.8008-3.3086-8.668-4.9922 0.74609-1.1211 1.5586-2.7422 1.9336-4.8008 0.68359-3.9922 1.3711-9.543 2.3047-16.59 0.9375-7.0469 1.9336-15.594 3.4922-25.633 1.6211-10.043 1.7461-12.227 2.2461-15.219 0.5-2.9922 1.2461-6.7969 2.0586-11.477 0.87109-4.6758 2.1836-10.102 2.6797-13.16 1.3125-6.2969 0.4375-3.0547 1.25-6.3594-1.375 3.1172-2.9336 9.1055-4.3672 14.219-1.4336 5.1133-2.6172 9.4805-3.4922 12.973-0.87109 3.5547-1.5586 6.2383-2.8672 12.535-1.3125 6.3008-3.2422 15.781-4.8672 23.762-1.6836 7.9844-2.8047 14.531-3.4922 19.711-0.43359 3.3047-0.49609 5.9844-0.24609 8.1055-2.1836-1.2461-4.4297-2.4922-6.5508-3.8047-6.0469-3.6797-8.1055-4.7383-10.602-5.8594-1.9961-0.9375-4.6758-2.1836-7.793-3.5586 0.0625-0.0625 0.125-0.30859 0.25-0.87109 0 0 2.6172-2.4961 3.1797-5.0508 0.49609-2.5586 0.93359-4.8672 1.3086-6.9258 0.3125-2.0547 0.625-3.8633 0.93359-5.4258 0.25-1.5586 0.875-4.7383 1.5-8.293 0.62109-3.5547 1.1836-7.4219 1.9336-11.602 0.74609-4.1797 1.4961-8.668 2.2422-13.473 0.8125-4.8008 1.0625-6.4219 1.3711-8.043 0.3125-1.6211 0.625-3.2422 0.9375-4.8047 0.3125-1.5586 0.625-3.1172 0.93359-4.6133 0.3125-1.4961 0.5625-2.4961 0.8125-3.4922 0.25-1 0.5-1.9961 0.75-2.9961 0.24609-0.99609 0.55859-1.9922 0.80859-3.0547 0.3125-0.99609 1-2.7422 1.6211-4.3047 0.625-1.5586 1.2461-2.9297 1.8086-4.1758 0.5625-1.25 1.0625-2.2461 1.0625-2.8711 0.24609-0.99609-0.0625-0.62109 0.18359-1.0586-0.74609 0.125-1.2461 1.1211-1.8086 2.2461-0.55859 1.1211-1.1211 2.4297-1.7461 3.8672-0.62109 1.4336-1.3086 3.0547-1.8711 4.4258-0.55859 1.3711-0.93359 2.3711-1.3711 3.3672-0.375 1-0.74609 1.9961-1.0586 2.9961-0.3125 0.99609-0.5625 1.9961-0.9375 3.2422-0.30859 1.2461-0.68359 2.7422-1.0586 4.3047-0.375 1.5586-0.75 3.1172-1.1211 4.6758-0.375 1.6211-0.75 3.2422-1.4375 6.4883-0.68359 3.2422-1.6836 7.918-2.6172 12.223-0.9375 4.3672-1.8086 8.3555-2.6836 12.035-0.93359 3.6797-1.6836 7.1133-2.1797 9.418-0.5 2.3086-0.875 3.9922-1.25 5.8633-0.37109 1.8711-0.80859 4.0547-1.1211 6.4883-0.375 2.4297-0.75 5.1133 0 7.4219 0.3125 0.99609 0.5 1.4961 0.625 1.6836-0.6875-0.3125-1.25-0.5625-1.9961-0.9375-4.1172-1.9336-9.168-4.1172-15.031-6.6094-1.2461-0.5-2.1797-0.9375-3.0547-1.3125 0.375-1.2461 0.99609-3.1797 1.6836-5.5508 0.9375-3.1797 1.8711-6.9219 2.8672-11.285 1-4.3672 2.1211-9.293 3.1211-14.844 0.99609-5.5508 1.4961-7.9219 2.0586-10.355 0.55859-2.4297 1.1211-4.8633 1.6836-7.2969 0.55859-2.4297 1.1836-4.8633 1.5586-7.4219 0.37109-2.4922 2.3672-10.914 4.1133-18.523 1.7461-7.6094 3.4922-14.281 5.0508-20.207 1.5625-5.9258 3.0586-10.977 3.5547-13.285 1.1875-4.3008 0.4375-2.3672 1.125-4.3008-1.2461 1.7461-2.8711 6.2344-4.6797 11.477-1.8672 5.2383-3.8008 11.348-5.9844 18.273-2.1836 6.9219-4.5547 14.656-6.2383 19.957-1.6836 5.3008-2.4922 7.7344-3.1172 10.164-0.68359 2.4336-1.3086 4.8672-1.9961 7.2969-0.62109 2.4336-1.2461 4.8047-2.2422 8.8594-1 4.0508-2.4336 9.2891-3.4922 14.031-1.0625 4.7383-1.9961 8.8555-2.7461 12.41-0.74609 3.4297-1.2461 6.2383-1.5586 8.1094-0.875-0.375-1.8086-0.6875-2.9297-1.0625-4.1172-1.4336-10.355-3.2422-18.836-5.5508-0.43359-0.125-0.93359-0.24609-1.3711-0.37109 0.8125-3.9297 1.8086-8.5469 2.9922-13.848 1.1875-5.4258 2.6836-11.539 4.4922-18.273 1.8711-6.7969 3.2422-11.914 4.6133-17.027s2.8086-10.102 4.2422-15.031c1.4336-4.9258 2.8672-9.7891 4.3008-14.531 1.4375-4.8008 2.5586-8.2305 3.6172-11.352 1.0625-3.0547 2.0586-5.7344 2.8711-7.9805 0.87109-2.2461 1.5586-4.1172 1.6836-4.9883 0.49609-1.5 0.125-0.875 0.4375-1.5625-0.6875 0.5-1.4375 2.0586-2.3086 3.9922-0.875 1.9336-1.8711 4.3672-2.9336 7.1094-1.0586 2.8086-2.2422 5.9883-3.6758 10.043-1.4375 4.0547-3.2461 8.7305-4.9297 13.594-1.6836 4.8047-3.3047 9.7305-4.9883 14.66-1.6836 4.9883-3.3672 9.9766-5.2383 16.027-1.8711 6.0508-3.8672 12.598-5.6133 18.461-1.7461 5.8633-2.9922 11.102-3.8672 15.715-0.24609 1.375-0.37109 2.4961-0.49609 3.7422-6.4883-1.6836-14.156-3.5547-22.887-5.6758 0.3125-0.74609 0.62109-1.4961 0.87109-2.3047 0.3125-0.8125 0.8125-1.625 1.7461-4.8047 0.9375-3.2422 1.7461-6.0508 2.4336-8.543 0.68359-2.4961 1.3086-4.6172 1.7461-6.3633 0.4375-1.7461 0.87109-3.1172 0.99609-3.4297 0.0625-0.3125 0.25-0.80859 0.4375-1.4961s0.4375-1.4961 0.75-2.4961c0.30859-0.99609 0.30859-2.3047 4.1133-14.219 3.8047-11.91 3.9922-12.473 4.1172-13.035 0.1875-0.5625 0.3125-1.1211 0.5-1.6211 0.1875-0.5625 0.3125-1.0586 0.43359-1.6211 0.125-0.5625 0.6875-2.4961 1.1875-4.6172 0.49609-2.1172 1.0586-4.3008 1.6211-6.6719 0.625-2.3086 1.2461-4.7383 1.8711-7.2969 0.62109-2.5586 0.87109-3.4297 1.1211-4.3672 0.25-0.87109 0.5-1.8086 0.6875-2.6797 0.25-0.875 0.4375-1.7461 0.68359-2.5586 0.25-0.87109 0.8125-2.8047 1.4375-4.7383 0.62109-1.9336 1.2461-3.8047 1.8711-5.6133 0.62109-1.8086 1.3086-3.6172 1.3711-4.5547 0.375-1.8086 0-0.99609 0.375-1.8711-0.875 0.625-1.5625 2.3711-2.1836 4.1797-0.6875 1.8086-1.3711 3.6172-2.0586 5.4883-0.6875 1.8711-1.3711 3.8047-1.8711 5.1758-0.5 1.3711-0.8125 2.2461-1.1211 3.0586-0.3125 0.87109-0.625 1.6836-0.9375 2.6172-0.3125 0.875-0.5625 1.8086-1.1211 3.5547-0.5 1.7461-1.25 4.2422-1.9961 6.5508-0.75 2.3672-1.4336 4.6133-2.1836 6.6719-0.74609 2.1211-1.4961 4.0547-1.9336 5.3008-0.4375 1.2461-0.62109 1.7461-0.80859 2.3086s-0.375 1.0586-0.5625 1.6211-0.375 1.0586-2.4961 7.2344c-2.1172 6.1758-6.5469 17.898-7.1094 18.961-0.55859 1.0586-0.93359 1.9961-1.1836 2.8047-0.25 0.8125-0.5 1.375-0.68359 1.8711-0.1875 0.4375-0.25 0.6875-0.75 2.2461-0.5 1.4961-1.1211 3.3672-1.8086 5.6758-0.6875 2.2461-1.4336 4.8633-2.2461 7.8594-0.80859 2.9922-1.6211 6.3594-1.6836 7.2344-0.0625 0.80859-0.25 1.6836-0.4375 2.4922-0.0625 0.3125-0.125 0.6875-0.125 1-12.531-3.0547-17.523-3.8672-22.199-4.3672-0.375-0.0625-0.75-0.0625-1.1211-0.0625 0.49609-1.8711 1.0586-3.9922 1.6211-6.4219 0.74609-3.2422 1.6211-6.9844 1.9336-8.2969 0.30859-1.3086 0.62109-2.4922 0.93359-3.5547 0.3125-1.0586 0.5625-1.9961 0.8125-2.8047 0.25-0.8125 0-1.6211 3.4297-13.16 3.4297-11.539 3.7422-12.723 4.1758-14.156 0.4375-1.4375 1-3.1211 1.7461-5.0547 0.6875-1.9336 1.5586-4.1758 1.7461-5.4258 0.75-2.5547 0.1875-1.3086 0.6875-2.5547-1.0586 1.0586-2.0586 3.3672-2.9297 5.4883-0.9375 2.0586-1.6836 3.9297-2.3711 5.4883s-1.2461 2.8672-3.3672 9.168c-2.1211 6.2969-6.1133 17.711-6.5469 18.336-0.5 0.68359-0.75 1.4961-1.0625 2.4922-0.3125 1-0.68359 2.1211-1.0586 3.3711-0.375 1.2461-0.875 2.6172-1.8711 6.1719-1 3.5547-1.8086 6.6133-2.4961 9.2305-0.125 0.5625-0.1875 1-0.3125 1.4961-2.8047-0.24609-5.6094-0.55859-8.4805-0.62109-4.4258-0.125-8.8555-0.0625-13.531 0.25 0.3125-1.625 0.74609-3.3711 1.2461-5.5508 0.625-2.5586 1.2461-5.5508 2.0586-8.9219 0.8125-3.3672 2.0586-8.168 3.2422-12.535 1.1875-4.3008 2.3711-8.1055 3.3047-11.414 0.9375-3.3047 1.8711-6.1094 2.2461-7.3594 0.75-2.3047 0.3125-1.2461 0.75-2.3047-0.625 0.99609-1.5586 3.3672-2.6836 6.2969-1.1211 2.9336-2.3711 6.3008-3.6797 10.293-1.2461 3.9297-2.8047 8.3555-4.1758 12.473-1.3125 4.1172-2.3086 7.2969-3.1211 10.164-0.80859 2.8711-1.3711 5.3633-1.7461 7.4844-0.125 0.5625-0.125 1.0625-0.1875 1.5586-3.1172 0.3125-9.6016 1.25-17.773 2.4961 0.0625-0.125 0.0625-0.1875 0.125-0.3125 0.375-0.93359 0.6875-2.0586 1.0625-3.2422 0.375-1.1836 0.68359-2.5586 1.1211-3.9922s0.875-2.9297 1.3086-4.6133c0.5-1.6836 1-3.6172 1.5-5.7383 0.49609-2.1836 1.1211-4.4922 1.8086-7.1094 0.68359-2.5586 0.87109-3.1836 0.99609-3.7422 0.1875-0.5625 0.3125-1.125 0.4375-1.6836 0.125-0.5625 0.3125-1.0625 0.4375-1.5625 0.12109-0.49609 0.24609-0.74609 0.43359-1.3086 0.1875-0.55859 0.5-1.4336 0.875-2.5547 0.375-1.125 0.80859-2.6211 0.87109-3.4961 0.375-1.7461 0.0625-0.87109 0.375-1.8086-0.6875 0.75-1.3086 2.3711-1.8711 3.6797-0.5 1.3125-0.93359 2.3711-1.1836 3.1211-0.25 0.74609-0.4375 1.2461-0.5625 1.6211s-0.25 0.87109-0.4375 1.3711-0.37109 1.0625-0.55859 1.6211c-0.1875 0.5625-0.375 1.125-0.875 2.7461-0.5 1.6211-1.3086 4.0547-2.0586 6.2969-0.74609 2.2461-1.4961 4.2422-2.1172 6.0508-0.5625 1.8086-1.125 3.3672-1.625 4.8008-0.49609 1.4375-0.99609 2.8086-1.4336 4.0547-0.49609 1.25-0.93359 2.3711-1.2461 3.3672-0.375 1-0.6875 1.9336-0.99609 2.6836-0.0625 0.125-0.0625 0.1875-0.125 0.25-6.1133 0.93359-12.848 1.9961-19.52 3.0547 0.30859-0.80859 0.62109-1.5586 0.87109-2.4297 1-2.8711 2.0586-5.9883 3.2422-9.293 1.1875-3.3086 1.375-3.8047 1.6836-4.8047 0.3125-0.93359 0.75-2.3711 1.3125-4.1797 0.55859-1.8086 1.3086-4.0508 2.1797-6.7344 0.875-2.6797 1-2.9922 1.125-3.3047s0.1875-0.6875 0.25-1c0.0625-0.30859 0.1875-0.68359 0.1875-0.99609 0.058594-0.375 0.74609-2.3711 1.3711-3.9922 0.62109-1.6211 1.0586-2.9297 1.4336-3.9297 0.375-0.93359 0.5625-1.5586 0.6875-1.8086 0.0625-0.25 0.24609-0.68359 0.37109-1.1836 0.1875-0.5 0.3125-1 0.5-1.5586 0.1875-0.5625 0.3125-1.125 0.1875-1.4961-0.0625-0.6875-0.1875-0.375-0.0625-0.6875-0.5625 0.1875-0.75 0.75-0.93359 1.3086-0.1875 0.5625-0.375 1.0625-0.5625 1.5586-0.1875 0.5-0.3125 0.9375-0.4375 1.25s-0.25 0.62109-0.5 1.3711c-0.25 0.6875-0.68359 1.7461-1.2461 3.1797-0.5625 1.4336-1.2461 3.1797-1.7461 4.3047-0.5 1.1211-0.6875 1.4336-0.80859 1.7461-0.125 0.3125-0.3125 0.625-0.4375 0.93359-0.125 0.3125-0.25 0.625-0.8125 2.1836-0.55859 1.5586-1.4961 4.0547-2.2461 6.1758-0.74609 2.0586-1.4336 3.7422-1.8672 4.9258-0.5 1.25-0.75 1.9961-1.5 3.9297-0.68359 1.9336-1.8711 5.1758-3.0547 8.1094-0.93359 2.4297-1.7461 4.6758-2.4922 6.8594-1.5 0.25-3.0586 0.5-4.5547 0.75-7.7344 1.2461-14.656 2.3047-21.266 3.3672l0.375-1.125c0.25-0.68359 0.5-1.4336 0.74609-2.1211 0.25-0.74609 0.5-1.4336 0.6875-1.8086 0.125-0.37109 0.25-0.74609 0.375-1.1211s0.25-0.75 0.375-1.1211c0.125-0.375 0.25-0.75 0.87109-2.4336 0.625-1.6836 1.1875-3.1797 1.6211-4.4297 0.4375-1.2461 0.75-2.1797 1-2.8672s0.43359-1.1211 0.49609-1.4336c0.0625-0.25 0.25-0.6875 0.375-1.1875 0.1875-0.49609 0.375-1.1211 0.625-1.8711 0.25-0.74609 0.5625-1.6211 0.93359-2.7422 0.375-1.1836 0.75-2.1836 1-3.1172 0.25-0.9375 0.49609-1.7461 0.68359-2.4336s0.375-1.2461 0.625-1.9336 0.5-1.3711 0.75-2.0586c0.24609-0.6875 0.49609-1.3711 0.74609-2.0586 0.25-0.68359 0.5-1.3711 0.75-2.1836 0.3125-0.80859 0.49609-1.4961 0.68359-2.0547 0.1875-0.5625 0.3125-1 0.4375-1.25 0.125-0.3125 0.125-0.4375 0.375-1.0586 0.25-0.625 0.3125-0.8125 0.4375-1 0.0625-0.1875 0.1875-0.37109 0.25-0.55859s0.12109-0.3125 0.24609-0.5c0.0625-0.1875 0.1875-0.4375 0.1875-0.5s-0.125-0.0625-0.1875-0.125 0.125 0 0.5-0.125c0.5 0.0625 0.375-0.125 0.5 0 0.375-0.55859 0.1875-0.93359-0.1875-1.1836-0.3125-0.3125-0.8125-0.4375-1.3086-0.25-0.5 0.125-0.875 0.4375-1.0625 0.625l-0.49609 0.49609c-0.1875 0.1875-0.3125 0.375-0.4375 0.5625s-0.3125 0.4375-0.5625 0.8125c-0.25 0.43359-0.625 0.99609-0.74609 1.1836-0.1875 0.25-0.3125 0.5625-0.5625 1-0.25 0.43359-0.5625 0.99609-0.875 1.6836-0.37109 0.68359-0.74609 1.4961-1.0586 2.1797-0.3125 0.6875-0.625 1.375-0.9375 2.0586-0.30859 0.6875-0.62109 1.375-0.93359 2.0586-0.3125 0.6875-0.625 1.3711-0.87109 1.9336-0.25 0.5625-0.625 1.2461-1 2.0586s-0.80859 1.6836-1.2461 2.7461c-0.4375 1.0586-0.875 2.1797-1.25 2.9922-0.30859 0.80859-0.62109 1.4336-0.87109 1.9961s-0.4375 0.99609-0.5625 1.3086-0.25 0.5625-0.43359 1.0625c-0.1875 0.49609-0.5625 1.2461-1 2.2422-0.5 1-1.0586 2.2461-1.7461 3.7422-0.6875 1.4961-1.4336 3.3047-1.6211 3.6172-0.1875 0.375-0.3125 0.75-0.5 1.125-0.1875 0.37109-0.3125 0.74609-0.43359 1.1211-0.125 0.375-0.3125 0.75-0.625 1.4336-0.3125 0.75-0.625 1.4375-0.875 2.1836-0.30859 0.6875-0.55859 1.4336-0.87109 2.1211s-0.5625 1.4336-1.0625 2.9297c-0.058594 0.1875-0.12109 0.3125-0.18359 0.5625-2.5586 0.375-4.9922 0.75-7.3594 1.1211 0.74609-2.3047 1.4961-4.4258 1.7461-5.3008 0.3125-0.87109 0.55859-1.6836 0.80859-2.4922 0.25-0.8125 0.5625-1.5586 0.875-2.2461 0.3125-0.75 0.55859-1.4336 0.93359-2.1211 0.3125-0.75 0.8125-1.7461 1.1875-2.6797 0.37109-0.9375 0.68359-1.75 0.93359-2.4336 0.25-0.6875 0.5-1.2461 0.625-1.6211 0.125-0.4375 0.3125-0.9375 0.43359-1.4336 0.125-0.5 0.1875-0.875 0.3125-1.1875 0.0625-0.3125 0.1875-0.5 0.1875-0.68359 0-0.125 0.0625-0.3125 0.125-0.5s0.0625-0.375 0.125-0.5625 0.125-0.3125 0.0625-0.4375c-0.0625-0.1875-0.0625-0.125-0.0625-0.1875-0.125 0.0625-0.25 0.1875-0.3125 0.3125-0.0625 0.1875-0.125 0.3125-0.25 0.5s-0.1875 0.3125-0.30859 0.4375c-0.0625 0.125-0.1875 0.25-0.3125 0.49609-0.125 0.1875-0.3125 0.5-0.5625 0.875s-0.625 0.75-0.87109 1.1836c-0.25 0.4375-0.5 0.8125-0.8125 1.375-0.3125 0.49609-0.75 1.1836-1.2461 1.9336-0.5 0.74609-1.0625 1.6211-1.5586 2.5547-0.5 0.875-0.875 1.6211-1.1875 2.3086-0.375 0.6875-0.68359 1.4336-1.0586 2.1836-0.375 0.74609-0.75 1.5586-1.1836 2.3672-0.375 0.8125-0.75 1.6875-1.625 3.8672-0.49609 1.3125-1.0586 2.8086-1.6211 4.2422-2.7422 0.375-5.4883 0.8125-7.918 1.1211-7.4219 1-13.41 1.75-17.711 2.3711 0.25-1.8086 0.5-2.9922 0.625-3.6172 0.058594-0.625-0.3125-0.625-0.375-0.3125-0.3125 0.75-0.0625 0.25-0.3125 0.75 0.25-0.4375 0.625-0.8125 0.5-0.75-0.0625 0.125-0.3125 0.875-0.6875 2.2461-0.125 0.5-0.5 1.1211-0.875 1.8711-2.3672 0.375-4.1133 0.6875-5.1758 0.9375-4.7383 0.49609-3.0547 0.87109-4.8008 0.49609 0.9375 0.4375 3.3047 1.125 6.7969 1.6836-5.4883 0.375-9.2891 3.1211-11.41 8.2969-2.8711 9.668-3.8047 17.398-3.3672 23.699-0.3125 0.6875-0.5625 1.3711-0.875 2.0586-2.1211 5.1133-3.9297 9.9766-5.6758 14.844-1.8086 4.9258-3.6172 10.102-5.1758 15.094-1.0586 3.3047-1.9961 6.3594-2.9297 9.4766-2.4961 2.9961-4.8633 5.8008-6.4844 7.7344-2.5586 3.0586-3.6797 4.6172-5.9883 7.7969-2.3086 3.1797-5.8008 7.9844-10.414 14.469-4.5547 6.4883-10.289 14.656-14.531 20.707-4.1797 6.0508-6.0469 8.918-7.8555 11.973-1.4375 2.3711-2.8086 4.9297-4.1172 7.4844 2.3711-13.594 5.4883-29.809 9.9141-51.016 0.9375-4.3672 1.8711-8.8555 2.9336-13.473 0.24609-0.62109 0.43359-1.3086 0.68359-1.9961 0.5625-1.6211 1.1875-3.1797 1.7461-4.7383 0.5625-1.5586 1.1875-3.0547 1.6211-4.2422 0.4375-1.1836 0.625-1.7461 0.8125-2.2422 0.125-0.5 0.3125-0.9375 0.4375-1.375 0.125-0.43359 0.24609-0.80859 1.3086-5.6133 1.0586-4.8008 3.1172-14.031 3.5547-17.211 0.4375-3.1836 0.74609-5.8008 1.0586-7.8594 0.1875-1.0586 0.3125-1.9336 0.4375-2.7422 2.2461-8.7344 4.2422-16.344 5.8633-22.203 0.1875-0.4375 0.37109-0.9375 0.55859-1.4375 0.5-1.2461 0.8125-2.3047 1.125-3.1797 0.3125-0.80859 0.55859-1.4961 0.62109-1.9961s0.5625-2.4336 0.875-4.1797c0.125-0.62109 0.1875-1.0586 0.25-1.6211 1.4336-4.1758 2.1211-6.3594 2.4922-7.6094 5.6758-4.0508 14.719-10.414 30.121-21.328 31.805-22.453 92.172-60.371 117.05-72.66 24.82-12.285 47.645-23.074 68.285-31.68 20.645-8.6719 38.977-15.156 55.004-19.836 15.965-4.6758 29.934-7.2969 41.41-8.9805 11.473-1.6836 21.891-2.1797 31.117-1.8086 9.2305 0.375 17.34 1.6211 24.387 3.8047 6.9844 2.1836 13.031 5.1133 20.203 9.7305 7.1719 4.5508 14.156 9.9805 21.141 15.777 6.9844 5.8633 13.656 12.477 20.332 19.648 6.6094 7.1719 13.906 15.965 20.016 20.395 6.1133 4.4258 11.227 7.793 15.965 10.477 4.7422 2.6797 9.168 4.8633 13.285 6.4844 4.1758 1.625 7.4844 2.4336 14.656 3.6797 7.168 1.1875 16.273 1.125 27.062-0.18359 10.789-1.25 23.449-3.6797 38.105-7.2383 14.59-3.6172 30.43-7.9805 35.547-7.918 5.1133 0.0625 10.973 0.3125 16.648 0.74609 5.6758 0.4375 11.102 1.125 16.402 1.9961 5.2383 0.875 8.4805 1.4336 20.078 7.7969 11.602 6.3633 22.391 13.035 32.18 19.895 9.793 6.8633 18.461 13.91 26.129 21.082 7.6719 7.1719 14.406 14.656 32.617 35.922 18.211 21.27 33.988 40.352 47.145 57.254 13.16 16.965 23.824 31.684 31.68 44.406 7.8594 12.723 13.473 23.699 26.754 51.703 13.285 27.941 21.891 53.199 26.008 75.715 1.4336 7.9844 2.3047 15.406 2.9297 22.578 0.125 0.87109 0.0625 0.99609 0.0625 1.1211z" fill-opacity=".945" />
 <path d="m153.24 591.89v0.375c0.0625-0.375 0.125-0.80859 0.125-0.99609-0.125 0.25-0.0625-0.0625-0.125 0.62109z" fill-opacity=".945" />
 <path d="m481.58 747.68c-1.2461 2.2422-2.8672 4.6758-3.7383 6.3594-0.875 1.6836-1.25 2.3711-1.5625 3.0586-0.37109 0.68359-0.68359 1.4336-1.1211 2.1172-0.375 0.75-0.80859 1.5-1.8086 3.5586-0.99609 2.0547-2.6172 5.1133-4.0547 7.793-1.3711 2.6836-2.5547 5.0547-3.5547 7.0469-0.99609 1.9961-1.8086 3.5586-2.3047 4.6172-0.5 1.0586-0.875 1.9336-1.375 3.0547-0.49609 1.125-1.1211 2.5586-1.7461 4.2422-0.62109 1.7461-1.4336 3.6172-1.8672 5.3633-0.4375 1.6836-0.4375 1.6836 0.058594 0.625 0 0 1.5-1.8086 2.4336-3.6172 0.9375-1.8086 1.7461-3.3086 2.3711-4.5547 0.62109-1.3086 1.1211-2.3086 1.4961-3.0547 0.375-0.75 1.0586-2.1211 1.9336-3.8672 0.80859-1.7461 1.8711-3.8672 3.0547-6.3633 1.1836-2.4922 2.4961-5.3633 3.9922-8.6055 1.4961-3.2422 1.8711-4.0547 2.2461-4.8008 0.37109-0.75 0.68359-1.5 1.0586-2.2461 0.375-0.6875 0.6875-1.3711 0.99609-2.0586 0.3125-0.625 1.6836-3.4297 2.8086-5.9258 1.1211-2.5547 2.3086-4.7383 3.3047-6.6094 0.93359-1.8086 1.8086-3.3047 2.2461-4.0547-0.375 0.625-0.875 1.3711-1.375 2.1836-1.0586 1.5586-2.2422 3.4922-3.4922 5.7383z" fill-opacity=".945" />
 <path d="m486.38 739.64c0.43359-0.6875 0.74609-1.1836 0.93359-1.4961-0.375 0.625 0 0-0.80859 1.3086 0 0-0.0625 0.125-0.125 0.1875z" fill-opacity=".945" />
 <path d="m442.54 841.98c0.12109-0.25 0.30859-0.5 0.43359-0.75-0.0625 0.0625-0.0625 0.125-0.125 0.25s-0.1875 0.375-0.30859 0.5z" fill-opacity=".945" />
 <path d="m442.98 841.3c0.0625-0.125 0.125-0.25 0.25-0.3125-0.0625 0.0625-0.0625 0.0625-0.125 0.1875-0.0625 0-0.0625 0.0625-0.125 0.125z" fill-opacity=".945" />
 <path d="m443.23 840.92c0.1875-0.25 0.3125-0.5 0.375-0.5625-0.0625 0.125 0 0-0.1875 0.25 0 0.0625-0.125 0.25-0.1875 0.3125z" fill-opacity=".945" />
 <path d="m442.17 842.67c0.125-0.25 0.25-0.4375 0.375-0.68359-0.0625 0.12109-0.1875 0.24609-0.25 0.43359-0.0625 0.0625-0.125 0.1875-0.125 0.25z" fill-opacity=".945" />
 <path d="m439.3 848.34c-0.30859 0.75-0.74609 1.4961-0.99609 2.1211-0.3125 0.625-0.5 1.1211-0.6875 1.6836-0.1875 0.5-0.37109 0.99609-0.55859 1.4961s-0.375 1-1.0625 3.1172c-0.68359 2.1836-1.9961 5.9258-2.3047 6.6133-0.3125 0.6875-0.75 1.3086-1 1.9336-0.25 0.68359-0.5 1.3086-0.80859 1.9336-0.25 0.62109-0.625 1.2461-1.25 2.7422-0.68359 1.4375-1.3086 2.9336-2.1211 4.4922-0.74609 1.4961-1.5586 3.0547-2.3672 4.6133-0.875 1.5586-1.7461 3.1211-4.2422 7.4219-2.4922 4.2422-4.6758 7.6094-6.2344 10.168-1.6211 2.5547-2.8086 4.1797-3.3047 4.8633-0.5 0.6875-0.6875 0.875-1.3125 1.9336-0.62109 1.0625-1.3711 2.1836-2.3672 3.4297-1 1.25-2.0586 2.7461-0.6875 5.4883 1.3711 2.7461 1.3711 2.7461 1.9336 1.9336 0 0 5.6133 1.3711 6.5469-0.25 1-1.6211 1.7461-3.1797 2.4336-4.5508 0.74609-1.3711 1.2461-2.3711 1.4336-2.8086 0.1875-0.43359 0.6875-1.8086 1.4336-4.0508 0.75-2.2461 1.9336-5.4258 3.3047-9.4805 1.375-4.1172 3.5547-8.918 4.1797-10.668 0.625-1.7461 1.2461-3.4297 1.8711-5.1133 0.625-1.6211 1.0586-3.3047 1.6211-4.8633 0.5-1.5586 0.9375-3.1172 1.1211-3.8047 0.1875-0.6875 0.375-1.3711 0.5625-2.0586s0.375-1.3711 0.5-2.1211c0.125-0.74609 0.1875-1.4961 1.1211-5.3633 0.9375-3.8672 1.0625-4.3633 1.1875-4.9258 0.12109-0.5 0.30859-1 0.49609-1.4961 0.1875-0.5 0.375-1 0.5625-1.5 0.1875-0.49609 0.5-1.3086 0.75-2.1172 0.24609-0.8125 0.62109-1.5 0.93359-2.2461 0.25-0.5 0.4375-0.9375 0.6875-1.3711-0.125 0.24609-0.25 0.43359-0.375 0.68359-0.3125 0.6875-0.6875 1.3711-1 2.1211z" fill-opacity=".945" />
 <path d="m440.61 845.54c0.1875-0.3125 0.30859-0.6875 0.49609-1l-0.1875 0.375c-0.0625 0.1875-0.18359 0.375-0.30859 0.625z" fill-opacity=".945" />
 <path d="m441.17 844.48c0.1875-0.3125 0.3125-0.625 0.5-0.93359-0.125 0.25-0.25 0.43359-0.375 0.62109-0.0625 0.125-0.125 0.25-0.125 0.3125z" fill-opacity=".945" />
 <path d="m441.67 843.54c0.1875-0.3125 0.3125-0.625 0.5-0.875-0.0625 0.125-0.125 0.1875-0.1875 0.3125-0.125 0.1875-0.1875 0.375-0.3125 0.5625z" fill-opacity=".945" />
 <path d="m887.56 712.76c0 0.0625-0.0625 0.125-0.0625 0.1875 0.0625-0.25 0.1875-0.625 0.25-0.75-0.125 0.3125 0 0-0.1875 0.5625z" fill-opacity=".945" />
 <path d="m906.64 690.12c0.125-0.4375 0.25-0.875 0.3125-1.1836-0.1875 0.80859-0.25 0.99609-0.3125 1.1836z" fill-opacity=".945" />
 <path d="m787.34 224.54-0.12109 0.125c-0.4375 0.25-1.8086 3.0547-4.1797 8.418-0.5625 1.2461-1.0586 2.4961-1.6211 3.8047l-3.1172 7.6094c-0.5 1.1836-1.125 2.8672-1.9336 4.9883-0.875 2.4336-1.9961 5.8008-3.4297 9.9805-0.375 1.0586-0.5625 1.8711-0.6875 2.3086-0.375 1.6836-0.375 3.1172 0 4.2383 0.0625-0.0625 0.125-0.3125 0.25-0.68359 0.5625-0.5625 0.99609-1.0625 1.3086-1.5 0.375-0.49609 0.75-1.1211 1-1.7461 1.2461-4.8008 2.3672-8.7305 3.2422-11.785 0.49609-1.6836 1.2461-4.2422 2.3672-7.7344 0.6875-2.1836 1.6211-4.6133 2.6836-7.2969 0.87109-2.2461 1.4961-3.8047 1.8086-4.5547 0.3125-0.80859 0.87109-2.0547 1.6211-3.8633l0.3125-0.75c0.0625-0.125 0.125-0.3125 0.125-0.4375 0.25-0.68359 0.3125-1.0586 0.3125-1.0586z" fill-opacity=".945" />
 <path d="m875.96 250.92c-0.62109 2.6211-1.3086 5.3047-1.8086 7.4844-0.49609 2.1836-0.93359 4.8047-1.6211 8.7969-0.68359 3.9883-1.5586 9.293-2.6797 16.027-1.125 6.7344-2.3711 14.781-3.4297 20.895-1.0625 6.1094-1.6211 9.3555-2.2461 12.473-0.5625 3.1172-1.1211 6.2344-1.5586 9.2305-0.4375 3.0547-0.875 5.9883-0.1875 8.3555 0.6875 2.3711 0.6875 2.3711 0.93359 0.9375 0 0 2.7461-2.4961 3.3711-5.4258 0.68359-2.9336 1.3086-5.9883 1.8086-9.1055 0.49609-3.1211 0.93359-6.3633 1.3711-9.668 0.375-3.3047 1.3711-12.348 2.3047-20.02 0.9375-7.6719 1.5625-13.973 2.1836-18.898 0.625-4.9258 1.0625-8.418 1.3711-10.602 0.3125-2.1211 0.6875-4.8047 1.125-7.4844 0.4375-2.6836 0.99609-5.3008 1.6211-7.9219 0.625-2.6172 1.3711-5.2383 1.4961-6.6719 0.5625-2.6836 0.0625-1.3711 0.5-2.6836-0.8125 1.1875-1.7461 3.7422-2.4961 6.3633-0.74609 2.6172-1.4336 5.3008-2.0586 7.918z" fill-opacity=".945" />
 <path d="m900.53 262.21c-0.55859 0.4375-0.55859 1.3125-0.62109 2.3711-0.0625 1.0586-0.125 2.2461-0.3125 3.6172-0.1875 1.3711-0.4375 2.8711-2.5586 17.898-2.1172 15.094-6.7969 43.473-7.4805 46.277-0.6875 2.7461-0.875 5.2383-1 7.3594s-0.1875 3.9922 0.75 5.2383c0.93359 1.25 0.93359 1.25 0.93359 0.4375 0 0 2.0586-1.4336 2.2461-3.3672 0.25-1.8711 0.5-4.1172 0.8125-6.6094 0.30859-2.5586-0.0625-5.4883 3.5547-34.055 3.6133-28.562 3.8008-30.188 3.9258-31.684 0.125-1.4961 0.1875-2.8047 0.25-3.9922 0.0625-1.1836 0.125-2.2422-0.1875-2.6797-0.25-0.8125-0.3125-0.375-0.3125-0.8125z" fill-opacity=".945" />
 <path d="m917.18 291.96c-0.25 0.625-0.4375 1.7461-0.5 2.8086-0.0625 0.99609-0.1875 1.9336-0.25 2.7422-0.12109 0.8125-0.18359 1.4336-0.55859 3.8047s-1.125 6.3633-1.7461 9.9805c-0.625 3.6172-1.25 6.8594-1.6836 9.8516-0.4375 2.9336-0.6875 5.5508-1 8.4844-0.3125 2.9297-0.62109 6.2969-0.80859 9.543-0.1875 3.2422-0.3125 6.2969-0.25 9.2305 0 2.9297 0.25 5.6094 1.2461 7.543 1 1.9336 1 1.9336 0.9375 0.625 0 0 1.6211-2.6797 1.6836-5.3633 0.0625-2.6836 0-5.6133 0.0625-8.668 0.0625-3.0586 0.125-6.3008 0.24609-9.7305 0.125-3.4297 0.1875-5.8008 0.375-8.4805 0.1875-2.6836 0.3125-5.7383 0.625-9.168 0.3125-3.4336 0.6875-7.1758 1.3086-11.227 0.5625-4.0547 0.625-4.7422 0.6875-5.4258 0.0625-0.75 0.0625-1.5625 0.0625-2.5586 0-0.93359 0-2.0586-0.125-2.6211-0.3125-1.3711-0.3125-0.74609-0.3125-1.3711z" fill-opacity=".945" />
 <path d="m937.88 347.22c-0.0625-3.6172-0.0625-6.6719-0.0625-9.168 0-2.4922 0-5.5508 0.125-8.168 0.0625-2.6211 0.1875-4.8047 0.3125-6.5508 0.125-1.7461 0.375-3.0547 0.25-3.6172 0-0.93359-0.1875-0.625 0-0.99609-0.6875 0.1875-1.0586 1.2461-1.4336 2.7422-0.375 1.4961-0.8125 3.3672-1.1875 5.7383-0.37109 2.3711-0.68359 5.1133-0.99609 7.7969-0.3125 2.6797-0.5 5.3633-0.75 8.6055-0.18359 3.2422-0.49609 7.1094-0.74609 11.539-0.25 4.4258-0.4375 9.418-0.625 12.973-0.1875 3.5547-0.25 5.3008-0.3125 7.0469s-0.125 3.4922-0.125 5.2383c0.0625 1.7461 0.125 3.4922 1.3125 4.8672 1.1836 1.3711 1.1836 1.3711 1.2461 0.49609 0 0 2.6797-1.5586 2.9297-3.3047 0.25-1.7461 0.4375-3.4922 0.5625-5.2383 0.0625-1.7461 0.125-3.5547 0.125-5.3633 0-1.8086-0.1875-7.2344-0.25-12.039-0.0625-4.8008-0.3125-8.918-0.375-12.598z" fill-opacity=".945" />
 <path d="m985.16 428.23c-0.1875-4.0547-0.5625-9.168-0.875-15.34-0.3125-6.1758-0.5-9.6055-0.5-12.789 0-3.1797-0.0625-6.0469 0.0625-8.668 0.125-2.5547 0.375-4.8633 0.0625-6.0508-0.125-2.1172-0.43359-1.1836-0.1875-2.1172-1.1836 0.74609-1.8086 2.9297-2.1797 5.3633-0.4375 2.4297-0.8125 5.1758-1.125 8.2305-0.3125 3.0586-0.4375 6.3633-0.5 11.414-0.058593 5.0508 0.0625 10.914 0.1875 15.715 0.1875 4.8047 0.5625 8.6719 1.125 11.414 0.49609 2.8086 1.1211 4.6172 2.2422 5.1758 1.0625 0.5625 1.0625 0.5625 0.875 0.0625 0 0 1.2461-1.4336 1.2461-3.4297-0.125-1.8711-0.25-4.9258-0.43359-8.9805z" fill-opacity=".945" />
 <path d="m1003.7 445.14c-0.125-3.8047-0.125-6.9219-0.125-9.4805v-4.8008c0-1.125 0-2.3711 0.0625-3.6172 0.0625-1.25 0.1875-2.6211 0.0625-3.3047-0.0625-1.4375-0.1875-0.6875-0.0625-1.4375-0.5 0.625-0.74609 1.9961-0.93359 3.3086-0.1875 1.3086-0.375 2.5547-0.5625 3.7383-0.1875 1.1875-0.3125 2.3711-0.375 4.0547-0.0625 1.7461-0.25 4.4922-0.4375 7.8594-0.18359 3.3672-0.30859 7.3594-0.43359 11.973-0.0625 4.6172-0.1875 9.8555-0.125 13.16 0.0625 3.3086 0.0625 4.3047 0.0625 5.3008 0 1-0.0625 1.9961-0.0625 2.9336-0.0625 0.99609-0.0625 1.9961 0.375 2.7422 0.43359 0.8125 0.43359 0.8125 0.49609 0.3125 0 0 1.1875-0.87109 1.3711-1.8711 0.1875-0.99609 0.3125-1.9961 0.4375-2.9922 0.125-1 0.1875-2.0586 0.3125-3.0547 0.125-1.0625 0.1875-6.6758 0.125-11.727-0.0625-4.8633-0.125-9.293-0.1875-13.098z" fill-opacity=".945" />
 <path d="m1025.6 486.24c-0.625-6.1758-1.125-12.102-1.4336-17.902-0.3125-5.7344-0.4375-7.4219-0.4375-9.3555-0.0625-1.9297 0.1875-3.9258 0.55859-6.0469 0.375-2.1211 0.875-4.4297 0.625-5.7383 0.1875-2.4961-0.3125-1.3711 0.125-2.5586-1.4336 0.875-2.2461 3.1836-2.9922 5.4258-0.75 2.2461-1.3125 4.3672-1.8086 6.4258-0.5 2.0586-1 4.0547-1.125 7.9844-0.125 3.9258-0.25 9.7891-0.43359 15.902-0.1875 6.1133-0.0625 12.41 0.0625 18.898 0.12109 6.4844 0.49609 13.156 0.99609 17.336 0.4375 4.1797 0.5 5.8008 0.625 7.5469s0.1875 3.4922 0.25 5.3633c0.058594 1.8086 0.12109 3.7422 1.3711 5.3008 1.2461 1.5586 1.2461 1.5586 1.3711 0.625 0 0 2.9922-1.6836 3.3672-3.6172s0.625-3.8047 0.875-5.6758c0.24609-1.8711 0.30859-3.6797 0.43359-5.5508 0.0625-1.8711-0.1875-8.668-0.74609-15.219-0.5625-6.6094-1.0625-12.973-1.6836-19.145z" fill-opacity=".945" />
</svg>