<?xml version='1.0' encoding='utf-8'?>
<svg xmlns="http://www.w3.org/2000/svg" width="1587" height="1587" version="1.0" viewBox="0 0 1190.2 1190.2" zoomAndPan="magnify">
 <defs>
  <clipPath id="a" fill="none">
   <path d="m0 0h1189.5v1189.5h-1189.5z" fill="none" />
  </clipPath>
  <clipPath id="b" fill="none">
   <path d="m0 32.961h1189.5v1136.3h-1189.5z" fill="none" />
  </clipPath>
 </defs>
 <g clip-path="url(#a)" fill="none">
  <path d="m0 0h1189.5v1189.5h-1189.5z" fill="none" />
  <path d="m0 0h1189.5v1189.5h-1189.5z" fill="none" />
 </g>
 <g clip-path="url(#b)">
  <path d="m1189.3 514.06c-1.4766-62.012-14.656-111.3-41.488-155.12-32.773-53.531-76.289-80.68-129.33-80.68-15.172 0-30.66 2.4023-46.926 7.1641-6.4922-70.996-31.48-132.32-76.047-186.72-35.004-42.574-81.305-66.02-130.39-66.02-49.035 0-94.23 23.309-127.26 65.586-11.883 15.207-22.41 30.625-31.863 46.207-9.625-16.184-20.293-31.391-32.066-45.18-46.754-54.762-96.328-66.254-129.68-66.254-48.473 0-94.27 24.438-128.93 68.793-44.832 57.316-70.293 120.36-75.863 185.08-18.266-6.5703-37.098-10.078-55.934-10.078-65.012 0-122.32 39.039-153.26 104.36-18.254 38.434-28.082 81.793-30.062 132.54l-0.10547 2.9727 0.082031 2.9727c1.9375 68.199 15.984 122.19 44.16 169.81 24.523 41.555 59.684 73.434 99.348 92.043-7.3477 14.062-13.223 29.285-17.102 45.91-20.934 90.266 15.219 164.38 44.223 212.25 52.254 86.359 121.64 128.34 212.1 128.34 23.559 0 48.188-2.8633 75.254-8.75 94.609-20.555 175.19-20.555 256.48-0.14062 27.227 6.8398 52.422 10.16 77.051 10.16 46.066 0 87.926-11.934 124.4-35.449 96.359-62.094 124.02-154.02 137.35-227.23 7.8164-43.031 2.0742-83.008-15.434-117.45 27.004-12.305 51.66-31.168 72.48-56.02 47.332-56.59 73.055-125.68 78.656-211.25l0.24609-3.9258zm-185.72-50.324c5.457 13.438 8.3477 29.688 9.1211 50.617-3.5117 45.477-15.504 79.074-37.57 105.46-5.8789 7.0234-11.027 9.5156-13.641 9.5156-3.8438 0-10.48-4.9492-15.969-15.824-9.3867-18.57-8.3789-45.902 2.7461-74.98 13.004-34.035 35.812-61.148 55.312-74.785zm-236.83-242.94c19.711 27.758 29.066 58.234 29.953 96.887-2.8398 42.582-15.664 58.574-27.91 68.562-6.3359 5.1641-12.645 7.8984-18.258 7.8984-12.586 0-17.051-14.156-18.387-20.27-11.758-53.5-0.75781-102.51 34.602-153.08zm-320.76 1.1562c23.516 32.105 38.426 79.887 38.531 124.33-0.015624 2.4688-0.60937 24.645-16.277 41.934-4.0977 4.5391-8.5742 6.6484-14.086 6.6484-9.2188 0-21.375-5.9414-27.848-22.637-20.652-53.23-14.453-101.3 19.68-150.28zm-257.23 237.1c62.883 46.359 67.559 93.668 64.398 130.04-1.5117 17.438-12.84 30.469-29.777 34.262-4.2109-0.66797-17.27-7.082-27.074-23.695-12.199-20.621-18.273-46-19.574-81.973 1.1641-23.906 5.0977-43.117 12.027-58.633zm691 415.97c-10.863 59.629-26.93 89.551-59.297 110.41-4.8594 3.1328-13.125 7.3008-28.77 7.3008-9.8008 0-21.258-1.625-34.059-4.8438-54.082-13.586-109.97-20.473-166.12-20.473-55.105 0-110.98 6.3164-170.83 19.316-14.422 3.1289-27.137 4.7148-37.789 4.7148-20.461 0-36.82-3.1016-61.102-43.227-26.773-44.191-26.781-65.684-23.289-80.75 0.28516-1.1953 0.55469-2.0742 0.76562-2.6953 82.641-39.176 145.76-100.41 192.92-187.15 13.504-24.832 34.242-47.82 93.969-47.82 2.0859 0 4.1836 0.03125 6.3203 0.089843l2.5 0.070313 2.5039-0.074219c1.1094-0.03125 2.2188-0.046875 3.3164-0.046875 25.699 0 41.477 8.4492 54.5 29.184 18.418 29.281 43.625 67.594 75.367 104.17 35.371 40.793 80.613 73.262 134.45 96.504 9.8359 4.25 13.93 7.8633 15.191 9.1641 0.050782 0.95312 0.042969 2.9336-0.55078 6.1641z" fill="none" />
 </g>
 <path d="m594.83 541.64c58.488-1.7656 104.95 22.184 135.21 70.387 20.293 32.285 41.75 63.852 67.316 93.305 27.578 31.797 62.145 55.77 102.74 73.293 53.895 23.258 75.562 62.398 66.516 112.24-11.816 64.84-33.141 126.79-98.312 168.79-41.246 26.602-88.699 24.793-132.14 13.879-99.738-25.039-196.63-22.238-296.71-0.51172-93.168 20.258-148.25-4.8711-193.12-79.027-27.531-45.461-46.078-93.426-33.75-146.58 6.3008-26.984 20.902-49.184 48.621-62.27 71.891-33.996 119.08-86.441 153.48-149.71 34.859-64.105 93.422-96.09 180.15-93.785z" fill="#ffbac2" fill-rule="evenodd" />
 <path d="m885.03 319.59c-2.6055 47.637-15.48 98.383-60.426 135.06-68.145 55.617-159.82 24.016-178.64-61.832-19.801-90.105 6.4492-169.8 61.461-240.16 34.258-43.859 84.246-41.297 119.94 2.1094 37.391 45.664 56.891 98.145 57.672 164.82z" fill="#ffbac2" fill-rule="evenodd" />
 <path d="m572.8 346.84c-0.16406 26.906-8.9727 67.387-39.051 100.57-56.113 62.125-157.27 40.488-189.72-43.234-34.695-89.461-17.328-173.6 40.82-247.94 37.188-47.582 82.699-45.609 121.97 0.39062 38.562 45.188 65.816 117.02 65.98 190.21z" fill="#ffbac2" fill-rule="evenodd" />
 <path d="m88.414 517.17c1.2461-32.031 6.5039-66.305 21.594-98.105 25.121-53.027 75.207-70.164 122.92-36.973 73.684 51.184 116.29 121.32 108.18 214.62-5.0078 57.77-46.414 102.48-101.38 113.43-42.578 8.5391-91.711-18.668-119.36-65.523-22.77-38.484-30.617-80.602-31.953-127.45z" fill="#ffbac2" fill-rule="evenodd" />
 <path d="m1101.1 516.16c-3.8203 58.434-19.348 113.82-58.27 160.35-53.48 63.844-138.47 51.168-176.05-23.191-51.641-102.19 31.441-245.48 118.25-279.32 40.695-15.883 64.398-6.7656 87.543 31.039 20.68 33.773 27.578 71.129 28.523 111.12z" fill="#ffbac2" fill-rule="evenodd" />
</svg>