<?xml version='1.0' encoding='utf-8'?>
<svg xmlns="http://www.w3.org/2000/svg" width="1587" height="1587" version="1.0" viewBox="0 0 1190.2 1190.2" zoomAndPan="magnify">
 <defs>
  <clipPath id="a" fill="none">
   <path d="m0 0h1189.5v1189.5h-1189.5z" fill="none" />
  </clipPath>
 </defs>
 <g clip-path="url(#a)" fill="none">
  <path d="m0 0h1189.5v1189.5h-1189.5z" fill="none" />
  <path d="m0 0h1189.5v1189.5h-1189.5z" fill="none" />
 </g>
 <path d="m475.11 590.95c-7.5117-7.3594-10.453 15.539-28.582 13.25-13.066-1.6367-28.09-11.125-32.5-17.012 4.5742-2.2891 24.824-13.086 29.234-18.324 3.5938-4.25 7.1875-12.43 5.0625-18.484-3.7539-10.305-27.766 2.9453-35.605 10.961-9.1445 9.4883-5.7148 11.125-4.8984-9.8164 0.32812-5.8867 0.48828-6.2148-0.65234-8.5039-0.65625-1.4727-2.2891-3.1094-3.7578-3.1094-5.3906-0.32812-6.043 5.5625-8.6562 43.68-2.1211 1.4688-30.867 32.551-53.57 13.25-12.578-12.27 21.887-52.512 30.215-32.555 2.2852 5.3984 6.6953 6.543 8.6562 4.9062 5.5547-4.4141-0.16406-22.902-19.598-20.285-10.289 1.4727-18.457 8.8359-24.172 17.504-8.0039 12.105-2.7773 10.473-13.723 17.832-6.8594 4.582-25.312 22.574-34.297 16.031-4.4102-3.2695-4.5742-12.922-3.918-14.887 0.48828-1.3086 25.312-33.699 6.6953-31.57-8.168 0.81641-15.844 20.285-16.988 26.172-0.48828 2.7812 0.32812 8.6719-12.246 18.977-31.523 25.684-51.938-2.6172-23.355-36.645 0.16016-0.16016 6.3672-4.7422 3.7539-8.1797-1.3047-1.7969-5.8789-2.7773-10.125 0.98438-9.3086 8.1797-9.4727 18.484-25.48 19.629-2.7734 0 23.195-27.32 6.6992-35.824-10.781-4.582-19.766 7.5234-22.539 18.977-5.3906 22.082 5.7148 18.648 0 25.355-13.23 15.867-36.422 36.805-52.266 23.719-4.2461-4.582-2.2852-20.285-1.1445-26.336 1.3086-6.543-1.4688-5.7266 13.559-6.543 8-0.32812 13.719-2.9453 9.9609-8.5078-1.9609-2.7812-7.6758-1.6367-11.434-1.1445-9.7969 1.1445-8.4922 1.6367-7.3477-1.8008 1.1445-3.4336 0.48828-2.125 2.2852-7.0352 2.6133-7.1953 0-9.4883-3.1016-7.6875-4.5742 2.4531-8.9844 19.141-11.762 19.793-5.2266 1.1445-14.371 1.9648-16.496 2.7812-6.043 1.9648-4.2461 8.0156 3.4336 7.1992 16.168-1.9648 11.594-1.3086 10.125 7.1992-3.4297 20.773 3.5938 37.133 24.008 35.332 27.438-2.2891 49.16-36.641 50.469-36.48 4.7344 0.82031 10.941-0.32422 15.188-1.7969-9.1445 31.406 18.129 45.148 41.812 30.426 10.941-6.707 16.66-14.887 16.824-14.559 3.2656 11.125 10.449 15.051 21.719 13.906 13.723-1.4727 22.539-11.289 27.441-15.543 6.207-5.2344 3.2656-5.7266 5.2266 0.82031 3.7539 12.758 26.949 25.516 53.57 8.0156 15.023-8.6719 9.3086-8.8359 9.9609-0.16406 0.32812 3.4336 3.1055 7.1953 7.3516 4.4141 3.5938-2.2891 3.4297-6.2148 4.8984-17.664 2.4492 4.25 3.2656 4.7422 5.7188 6.8672 38.543 34.355 73.496 1.6367 64.348-7.5234zm-276.02-19.465c-2.4492-10.309 4.2461-26.34 9.8008-25.684 6.8594 2.125-5.7188 19.629-9.8008 25.684zm211.02 8.832c-11.758 6.8711 15.844-26.992 30.707-25.684-1.7969 12.762-17.148 17.832-30.707 25.684zm-115.63-35.008c-6.6953 0.16406-7.0234-9.6523-4.7383-11.613 14.863-12.105 20.906 11.285 4.7383 11.613zm364.21 43.188c-4.4102-3.1094-8.9805 6.3789-14.207 12.594-6.6992 7.8555-31.523 13.906-19.273-16.355 6.3711-15.871 11.27-18.324 12.574-20.449 3.9219-6.0547-2.1211-8.9961-8.1641-3.5977-10.129 9.1602-5.2266 12.758-18.293 14.395-9.3086 1.1445 13.883-8.9961 9.4727-22.574-8.9844-13.578-27.277 11.777-24.008 22.082-10.945 6.8711-8.8203 3.9258-8.4961 2.7812 5.3906-20.938-9.9609-30.918-19.434-24.375-38.055-20.445-72.68 49.242-25.641 60.363 14.043 3.4375 28.906-6.543 37.398-18.977 5.3906-7.6875 1.7969-6.0508 5.3906-7.0312 13.066-3.2734 15.191-7.1992 16.008-6.707 4.2461 2.4531 8.1641 2.2891 13.227 0.98047 0.65625-0.16406-4.2461 8.1797-4.082 15.379 0.16406 24.371 24.5 22.738 35.934 14.395 4.4102-3.1094 17.637-18.648 11.594-22.902zm-117.76 14.887c-10.125-5.8906-16.984-11.617-7.5117-30.754 6.207-12.598 20.742-17.016 30.543-13.578-4.9023 9.8125-0.49219 24.211 12.086 28.465-7.6758 13.574-20.906 22.082-35.117 15.867zm38.219-22.738c-1.6328-0.16406-6.207-4.9102-6.8594-5.8906-2.7773-4.2539-2.6133-11.941 1.7969-15.215 3.918-2.125 11.27 5.8906 5.0625 21.105zm27.602-14.398c-2.7773 2.9453 1.4688-6.543 5.7188-9.6484 5.3867-3.2734 0.81641 2.9414-5.7188 9.6484zm438.86 25.359c-6.043 0.65234-10.613 10.305-24.336 15.375-15.516 5.7266-17.801-0.98047-15.84-17.176 1.3047-10.469-0.81641-7.6875 13.883-10.469 3.918-0.65625 7.0234-4.9102 5.5508-7.1992-5.0625-8.1797-18.129 2.125-15.84-4.0898 1.3047-3.7617 4.7344-10.797 0.97656-14.066-3.1016-2.7812-6.5312 2.125-8 6.2148-4.4102 12.598-2.6133 11.289-4.5742 11.449-10.289 0.82031-11.758 0.16406-14.863 2.6172-4.082 3.1094-2.7773 9.1641 8.0039 8.5078 0.65234 0-12.578 16.852-26.461 18.16-6.3672 0.16016-9.1445-0.32812-9.1445-11.617 0-18.648 14.047-35.332 5.7148-36.316-1.1406-0.16406-6.3672 1.3086-7.6758 3.1094-12.25-12.598-38.379-3.7617-47.199 14.07-4.9023 10.141-9.1484 35.66-36.258 36.969-5.5547 0.32812-7.8398-1.4727-11.434-5.7266 14.535-8.9961 27.766-22.902 29.234-39.914 2.125-24.211-45.242-22.41-44.586 21.43 0.16016 12.758 3.7539 16.195 3.5898 17.504-13.555 6.0508-25.148 12.922-35.277 1.8008-14.699-16.195 10.129-37.625 10.945-38.934 2.4492-4.418-1.6367-6.0547-5.5547-5.0742-7.6758 2.1289-8.9844 10.309-23.191 13.578 17.965-39.258-21.398-34.516-24.012-10.797-0.32422 3.9258 2.125 9.6523 3.9219 11.781 7.3477 8.5039 8.6562 3.5977 5.0625 8.9961-28.09 42.531-58.797 23.391-52.59-10.305 0.81641-4.7461 16.004 1.1445 17.801-8.0156 0.32812-1.9648-2.7773-5.2383-7.8398-4.9102-1.957 0.16406-4.2461 0.49219-6.8594 0.82031 0.49219-1.6367 1.9609-5.2383 2.7773-7.3633 5.5547-10.141 0.48828-11.125-3.7578-8.0156-1.957 2.125-3.7539 5.7266-5.0625 8.5078-4.7344 10.305-0.48828 8.3398-14.207 8.668-3.4297 0-8.6562-0.48828-9.8008 4.0898-0.81641 3.4375 1.7969 4.7461 5.2266 5.0703 20.254 2.457 9.6367-7.3594 12.086 18.488 2.6133 27.48 42.793 45.641 72.844-8.6719 5.7148 0 7.5117-1.3086 11.27-2.6172 4.7344-1.4727-15.68 18.156 8.0039 35.172 13.062 9.3242 29.07 0 41.645-6.8711 0.49219-0.32812 2.7773 4.7422 8.6562 7.8516 8.9844 4.582 28.258 2.9453 41.488-14.066 3.918-4.9102 0.32422 1.7969 11.758 8.1758 12.414 7.0352 26.621 1.9648 34.297-7.1953 1.7969-2.1289 0.32812 6.707 11.926 8.832 5.0625 0.98437 16.332-0.48828 26.457-9.3242 9.9648-8.668 10.289-11.125 10.125-10.141-0.81641 6.543-1.1406 14.723 2.125 21.102 8.1641 15.703 36.746 1.1445 42.465-3.5977 8.8203-6.8711 16.496-16.852 6.5312-15.867zm-254.3-33.211c-0.32812 1.4727-5.2266 13.09-6.3711 12.598-19.27-11.453 10.781-32.227 6.3711-12.598zm64.023 6.2188c6.3711-12.926 19.762-12.926 23.52-8.6719 0.98047 1.6367 1.1445 1.3086 0.32812 7.3633-3.4297 12.922-13.559 23.227-24.828 31.078-3.918-9.6484-3.2656-20.938 0.98047-29.77zm90.32 20.938c-0.16406 2.6172-4.0859 8.3438-4.9023 9.1602-12.086 14.07-31.355 4.9102-30.215-7.5234 6.8594-27.156 28.258-32.883 38.871-23.23 1.3086 1.1445-3.2656 11.453-3.7539 21.594zm210.2-39.586c4.5742-1.6367 8.4922-3.1094 10.617-0.49219 5.2266 5.8906-6.5352 8.3438-28.91 17.176-18.293 7.1992-20.09-3.4336 18.293-16.684zm13.23 37.133c-15.844-1.3086-12.902-0.16406-14.863-0.82031-3.5938-1.1445-5.5547-8.1758 2.9375-8.3398 1.3086 0 21.723 1.9609 21.887 1.9609 3.5938 0.49219 7.3516 0.32812 8.0039 3.9258 1.4688 6.707-8.168 4.0898-17.965 3.2734zm12.41 35.824c-2.4492 0.32812-1.6328 0.65625-42.789-14.887-6.5352-2.4531-7.6758-3.1055-8.168-5.5625-0.48828-3.1055 2.125-6.0508 6.043-5.0703 15.844 4.2539 31.359 8.1797 41.977 14.07 10.941 6.2148 5.5508 11.285 2.9375 11.449zm-1120.6-10.141c0.16016 0-21.234 8.0156-24.5 8.832-3.9219 0.98047-6.5352-4.5781-3.4297-6.8711 3.918-2.9453 26.133-10.633 30.543-10.469 3.1016 0.16406 7.5117 5.2344-2.6133 8.5078zm-35.934-42.207c12.086 0.49219 33.973 2.4531 27.277 12.598-1.7969 2.6172-3.2695 1.6367-15.516 1.4727-36.75-0.32812-21.07-14.398-11.762-14.07zm34.625-27.316c3.9219 2.2891 0.65234 8.5039-3.4297 6.8672-3.5938-1.4688-19.762-3.9258-27.273-9.8125-4.5742-3.4375-1.6328-8.5078 2.2852-8.3438 3.1016 0.16406 25.152 9.3242 28.418 11.289z" fill="#da952e" />
</svg>