<?xml version='1.0' encoding='utf-8'?>
<svg xmlns="http://www.w3.org/2000/svg" width="1587" height="1587" version="1.0" viewBox="0 0 1190.2 1190.2" zoomAndPan="magnify">
 <defs>
  <clipPath id="b" fill="none">
   <path d="m0 0h1189.5v1189.5h-1189.5z" fill="none" />
  </clipPath>
  <clipPath id="a" fill="none">
   <path d="m27 426.07h1144v335.04h-1144z" fill="none" />
  </clipPath>
 </defs>
 <g clip-path="url(#b)" fill="none">
  <path d="m0 0h1189.5v1189.5h-1189.5z" fill="none" />
  <path d="m0 0h1189.5v1189.5h-1189.5z" fill="none" />
 </g>
 <g clip-path="url(#a)">
  <path d="m81.027 570.76h9.7344c21.336 0.042969 42.668-0.50781 63.961 0.33984 32.68 1.2695 65.312 3.4688 97.949 5.2461 12.867 0.71875 25.738 1.3984 38.562 2.0742 2.4141 0.12891 4.8281 0 8.1719 0-0.97656-6.6016-1.8203-12.359-2.7109-18.16-4.1914-26.707-4.2734-53.293 2.3281-79.707 3.3438-13.418 9.0586-25.648 17.652-36.527 4.6562-5.8867 9.9453-11.051 16.637-14.605 13.121-6.9844 25.312-3.0469 31.238 10.668 8.5938 19.852 6.2656 39.195-4.0234 57.82-7.3633 13.336-18.414 23.41-30.855 31.664-6.1836 4.1055-7.6641 8.4648-6.5625 15.324 2.582 16.125 4.5703 32.383 6.8984 48.551 0.38281 2.5391 1.2305 5.0391 2.3281 9.3125 2.2031-3.8945 3.5156-6.1797 4.7422-8.4648 6.5195-11.938 12.996-23.961 19.641-35.855 5.7148-10.242 12.953-19.344 21.461-27.387 1.2695-1.1836 2.457-2.4961 3.8516-3.4688 5.293-3.6406 11.387-2.0312 13.121 4.1055 1.1875 4.1914 1.4844 8.8477 0.97656 13.207-1.5664 13.758-3.5156 27.512-5.6328 41.227-5.418 35.348-3.8516 70.691-0.58984 106.04 0.50781 5.7109 1.0586 11.723 5.0781 17.523 10.285-19.133 18.668-38.309 25.609-56.594-3.6836-7.1133-7.9141-12.871-9.7773-19.348-4.7852-16.676 0.085938-31.449 11.766-43.766 3.4727-3.6406 4.6562-6.9023 4.0664-11.684-1.0156-8.3398 0.58984-16.297 5.6289-23.281 7.4922-10.371 22.941-18.035 38.352-5.9688 9.4375 7.4062 15.281 16.93 15.703 29.078 0.21094 5.6719-0.042969 11.43-0.71875 17.059-0.67969 5.5898-2.2031 11.094-3.6406 17.949 3.2578-1.2695 6.0508-1.9453 8.4219-3.3438 3.8516-2.2031 7.5781-4.6992 11.09-7.3672 5.8008-4.3594 9.7383-9.5664 8.6797-17.605-0.42187-3.3047 0.55078-6.9023 1.2266-10.289 1.1875-5.7539 4.1055-9.0156 8.1289-9.4375 4.1484-0.46484 8 2.4531 9.6914 8.5938 2.3281 8.5898 4.0234 17.352 5.9258 26.031 0.25391 1.1406 0.42578 2.3281 0.80469 4.5273 1.9062-1.8203 3.2617-3.0039 4.5312-4.3594 6.4766-6.8125 12.527-14.094 19.473-20.402 10.242-9.2695 22.18-14.855 36.527-13.547 15.156 1.3984 26.711 12.785 28.023 27.98 0.46484 5.3789 0.085937 10.836 0.085937 16.254 6.8555 0.55078 7.6602 0.12891 9.1836-5.9258 3.7266-14.855 11.684-27.215 21.926-38.266 6.4766-6.9844 14.477-11.172 23.875-12.484 7.0703-0.97656 13.375 0.88672 17.992 6.5586 4.6953 5.7578 4.9102 12.148 2.0312 18.879-5.9258 13.633-16.805 21.926-30.184 26.965-5.332 1.9883-6.0938 1.9453-6.4336 9.0156-0.29688 6.3086 0.76172 12.359 3.6406 18.031 3.1328 6.1406 5.9688 7.875 12.574 5.8008 5.332-1.6914 10.664-4.1914 15.238-7.4062 9.8203-6.8594 18.117-15.453 24.973-25.273 2.8359-4.0625 5.7148-4.8672 10.539-4.5273 9.8633 0.67578 19.812 0.29688 29.719 0.085938 11.895-0.25391 23.746-1.0195 35.641-1.2305 32.719-0.58984 65.441-0.84375 98.117-1.6484 19.051-0.46875 38.098-1.8633 57.188-2.668 3.6836-0.16797 6.3945-1.2266 9.0586-4.0195 10.035-10.457 21.633-18.84 34.965-24.723 21.758-9.6094 43.516-19.047 66.965-23.957 31.027-6.4766 62.227-8.9336 93.805-5.5898 3.7227 0.38281 6.9414 1.1445 8.2969 4.9961 1.3945 3.9375-0.93359 6.5195-3.5977 8.9727-6.0117 5.5039-12.32 10.797-17.781 16.848-6.6445 7.3242-12.527 15.324-19.895 24.508 1.6523 0.93359 3.3008 1.5273 4.5312 2.625 13.121 11.727 26.285 23.367 39.152 35.348 7.1992 6.6875 5.5469 12.992-4.0625 15.492-6.9414 1.7773-14.012 3.2148-21.121 3.8945-35.938 3.3867-71.875 3.3008-107.27-4.2344-15.363-3.2578-30.223-9.2695-44.996-14.855-9.8203-3.7266-17.82-10.711-24.719-18.625-2.4141-2.7539-4.7422-3.6406-8.2969-3.3867-55.41 3.7227-110.9 4.9102-166.44 4.6953-14.855-0.039063-29.715 0.76172-44.613 1.0586-5.8828 0.12891-11.812 0-18.711 0-1.8633 3.0078-4.2734 7.0273-6.7734 10.965-7.5742 11.895-16.93 21.969-29.25 29.039-20.91 12.02-38.012 7.5352-50.242-13.379-2.2461-3.8086-3.9805-8-5.293-12.23-1.3125-4.1914-1.7773-8.6797-2.668-13.336-6.4336 0.93359-10.496 3.5977-12.613 10.328-3.3867 10.668-8.7188 20.531-15.746 29.336-4.5703 5.6719-9.9492 10.328-16.848 13.078-14.816 5.8438-28.574-3.2578-29.164-19.176-0.33984-8.6758 2.4961-16 8.4219-22.262 6.3086-6.6914 14.055-10.84 22.859-13.168 3.5977-0.92969 7.1953-1.7344 11.473-2.75 1.3945-6.4766 1.6914-13.078-0.12891-19.598-1.7773-6.5195-7.832-10.203-15.152-8.7617-5.293 1.0156-10.668 2.582-15.41 5.0352-10.668 5.4609-19.852 13.039-28.191 21.633-2.793 2.8359-4.0195 5.7969-3.3008 9.9883 5.543 32.297 3.5977 64.766 1.5664 97.148-0.55078 8.5898-2.0742 17.27-4.3164 25.566-1.3125 4.7812-4.2773 9.6094-7.75 13.164-7.4062 7.5352-17.691 6.9414-25.141-0.59375-4.4883-4.5273-7.0273-10.117-8.8047-16.129-9.8203-33.102-5.125-63.621 16.125-91.305 1.3555-1.7773 2.3711-4.4414 2.2461-6.6445-0.63672-11.555-1.6953-23.113-2.668-35.176-0.97266 0.42188-1.9062 0.59375-2.582 1.1445-7.7891 6.6445-16.297 12.062-25.992 15.617-1.7773 0.67969-3.3438 2.668-4.4414 4.4023-3.7695 5.8008-7.0273 11.938-11.051 17.566-7.0664 9.9922-16.848 14.18-29.078 12.488-1.6953-0.25391-3.4297-0.33984-5.5898-0.55078-0.84375 1.7773-1.7773 3.4297-2.4961 5.207-5.293 13.59-10.371 27.344-15.957 40.805-2.543 6.1406-5.5469 12.277-9.3984 17.652-7.0273 9.8203-16 10.328-24.551 1.8203-8.4648-8.4219-13.461-18.965-16.848-30.223-6.5195-21.715-7.1133-43.938-5.1641-66.289 1.9062-22.18 8.6367-43.176 16.297-63.918 1.8633-5.0781 3.6836-10.117 5.5039-15.195-0.46875-0.29688-0.93359-0.63672-1.3984-0.93359-1.6523 2.1172-3.4297 4.1484-4.8672 6.3945-9.1016 13.969-16 29.039-22.18 44.488-2.0352 5.0352-3.8125 10.242-6.3945 15.027-6.3906 12.02-17.777 13.797-27.258 3.8945-3.8516-4.0234-6.4766-9.2695-9.3125-14.184-1.6094-2.75-2.457-5.9258-3.7266-9.0547-0.97266-0.17188-1.9453-0.51172-2.8789-0.46875-28.316 0.89062-56.383-2.918-84.574-4.0195-39.875-1.5664-79.75-1.9883-119.66-2.8359-5.1641-0.12891-10.371 0-15.367 0-1.4805 4.4023-2.4141 8.2539-4.0625 11.766-2.1602 4.6992-4.6992 6.0977-9.5234 4.6992-10.203-2.9219-20.32-6.2656-30.438-9.5234-1.3945-0.46484-2.75-1.1836-3.9375-1.9883-5.7969-4.0664-6.0938-10.625-0.33594-14.859 3.1328-2.2852 6.8984-3.8945 10.496-5.418 9.1875-3.9375 17.82-8.6758 25.02-15.703 2.707-2.668 5.7109-3.9805 9.3516-2.1602 3.6406 1.8203 4.4023 4.9102 4.1055 8.7188 0 3.0078 0.21484 6.2227 0.21484 10.5zm900.39 38.73c-0.125 0.59375-0.25391 1.2266-0.42188 1.8203 4.2344 2.4961 8.168 5.7578 12.699 7.4062 14.434 5.125 28.785 10.922 43.684 14.098 31.703 6.7734 64.004 6.0117 96.172 4.4453 4.9531-0.25391 9.8633-1.3555 15.027-2.1172-0.63281-1.4375-0.71875-2.0312-1.0156-2.3281-12.234-10.793-24.422-21.672-36.828-32.297-1.3086-1.1445-3.5977-1.6094-5.418-1.5664-11.852 0.42188-23.746 0.80469-35.598 1.7344-20.953 1.7344-41.906 3.8086-62.816 5.8438-8.4648 0.84375-16.977 1.9883-25.484 2.9609zm-6.4766-13.672c46.227-4.1055 91.434-8.1289 137.36-12.191 8.3398-10.242 17.316-21.25 26.375-32.383-36.234-8.8867-134.19 17.566-163.73 44.574zm-652.43-72.047c7.957-5.8398 14.648-11.895 20.531-18.836 7.4922-8.8477 12.656-18.836 14.73-30.309 1.7773-9.9023 0.25391-19.258-5.207-27.723-3.0039-4.6992-5.332-4.9531-9.6523-1.4844-1.9023 1.5234-3.9766 3.2188-5.1211 5.293-3.7656 6.8984-7.957 13.715-10.539 21.078-5.5039 15.578-5.8438 32.004-5.6719 48.344-0.042969 0.92969 0.42187 1.7773 0.92969 3.6367zm120.85 69.719c7.0703 13.547 15.535 20.062 26.371 20.57 4.8672-10.242 8.043-21.121 8.5508-32.551 0.50781-11.387-5.0352-19.938-14.52-25.82-9.0156-5.5859-18.879-2.668-23.703 6.7734-2.668 5.207-3.5156 10.707-2.2422 16.211 3.8906 1.5664 7.7031 2.668 11.09 4.5742 3.1328 1.7344 3.0039 4.1484 0.082032 6.3906-1.6914 1.3555-3.5547 2.4531-5.6289 3.8516zm70.141 61.887c-1.7344 0.97266-2.2852 1.0977-2.4961 1.4805-16.934 26.965-19.77 55.41-8.2148 85.082 1.1875 3.0469 3.7695 5.8438 6.3945 7.918 3.4688 2.793 6.8555 1.6484 7.8711-2.7539 0.97266-4.2734 1.1445-8.8477 0.97266-13.25-0.50781-12.359-1.3516-24.719-2.0703-37.035-0.80469-13.59-1.6094-27.137-2.457-41.441zm84.957-35.133c-12.32 1.8203-21.25 6.9414-27.98 15.789-3.7266 4.9102-4.3594 10.41-2.4141 16.211 2.0742 6.0508 6.9414 7.8711 12.234 4.4453 1.4375-0.93359 2.8359-2.0742 3.8945-3.3867 7.6172-9.5234 10.371-20.996 14.266-33.059zm-161.07-14.562c-4.5273 6.6445-4.8242 23.195-0.50781 29.418 2.7109 3.8516 9.0586 5.9688 13.293 3.6836 6.1367-3.3008 10.242-8.6797 13.629-14.18-5.5039-2.9219-10.371-4.8672-14.52-7.875-4.3164-3.1758-7.957-7.3242-11.895-11.047zm228.07-3.6406c10.664-4.1914 18.664-8.9727 23.535-17.566 1.6484-2.8789 2.5391-6.4336 2.875-9.7773 0.29688-3.4727-2.1133-5.207-5.332-3.8125-3.0469 1.3555-6.1797 3.3867-8.2969 5.8867-5.8828 6.8984-9.0586 15.195-12.781 25.27z" fill="none" />
 </g>
</svg>