<?xml version="1.0" encoding="UTF-8"?>
<svg width="1587" height="1587" version="1.0" viewBox="0 0 1190.2 1190.2" xmlns="http://www.w3.org/2000/svg" zoomAndPan="magnify">
 <defs>
  <clipPath id="b">
   <path d="m0 0h1189.5v1189.5h-1189.5z"/>
  </clipPath>
  <clipPath id="c">
   <path d="m700 359.42h488v470.7h-488z"/>
  </clipPath>
  <clipPath id="a">
   <path d="m0 359.42h515v470.58h-515z"/>
  </clipPath>
 </defs>
 <g clip-path="url(#b)" fill="#fff">
  <path d="m0 0h1189.5v1189.5h-1189.5z"/>
  <path d="m0 0h1189.5v1189.5h-1189.5z"/>
 </g>
 <g clip-path="url(#c)">
  <path d="m1183.9 647.7c-4.625-7.7617-13.875-13.211-23.125-12.383-7.4336 0.66016-14.039 4.6211-18.336 10.566-2.8086-3.9609-6.7734-7.0977-11.562-9.082-8.7539-3.6328-18.832-0.82422-25.605 5.6172-8.2578 7.7578-8.918 17.668-5.9453 27.246h-79.125c-2.3125 0-4.293 1.4844-4.9531 3.7969l-3.4688 13.047-6.9375-55.652c-0.33203-2.3086-1.9844-3.9609-4.2969-4.457-2.3125-0.33203-4.4609 0.82422-5.4492 2.8086l-13.215 27.906-41.461-293.28c-0.33203-2.4766-2.4805-4.293-4.957-4.293-2.4766 0-4.625 1.9805-4.957 4.457l-52.031 427.37-39.316-210.21c-0.49219-2.3125-2.3125-3.9648-4.625-4.1289-2.3125-0.16406-4.457 1.3203-5.1211 3.4688l-30.062 89.172h-99.109v10.238h102.74c2.1484 0 4.1328-1.3203 4.793-3.4688l24.941-74.145 41.629 223.59c0.49219 2.4766 2.4766 4.1289 4.9531 4.1289h0.16406c2.4805 0 4.6289-1.9844 4.957-4.4609l51.375-422.09 38.816 271.98c0.33203 2.1445 1.9844 3.9609 4.2969 4.293 2.1445 0.32812 4.457-0.82812 5.2852-2.8086l12.883-27.414 8.0938 64.074c0.33203 2.4766 2.3125 4.293 4.625 4.457 2.4805 0.16797 4.625-1.4844 5.2852-3.7969l9.2539-34.348h79.617c3.3047 5.7812 7.4336 11.062 11.562 15.191 6.4414 6.4414 14.043 11.891 22.301 15.688 1.4883 0.66016 3.1406 1.6523 4.7891 1.6523 1.6523 0 3.3047-0.99219 4.793-1.6523 1.9805-0.98828 3.9648-1.9805 5.9453-2.9727 4.1289-2.3086 7.9297-5.1172 11.562-8.0898 7.1055-5.9453 13.215-13.375 17.512-21.633 4.625-9.5781 7.1016-20.973 1.4844-30.387zm-19.82-2.3086h-0.33203 0.33203zm0.16406 0m-39.973 0c-0.16797-0.16797-0.33203-0.16797 0 0zm0.32812 0s-0.16406 0 0 0c-0.16406 0 0 0 0 0zm-16.52 17.172c-0.16406-0.66016 0 0 0 0zm68.883-1.1562v0.66016 0.33203 0.32812c0 0.33203-0.16406 0.82812-0.16406 1.1562-0.16406 0.99219-0.49609 2.1484-0.82422 3.1406-0.16797 0.49219-0.33203 0.98828-0.49609 1.4844-0.16797 0.16406-0.16797 0.49609-0.33203 0.66016 0 0-0.16406 0.33203-0.16406 0.49609 0 0.16406-0.16406 0.49609-0.33203 0.66016-0.16406 0.16406-0.16406 0.49609-0.32812 0.66016-0.16797 0.49609-0.49609 0.82422-0.66406 1.3203-0.49219 0.99219-1.1562 1.9844-1.6484 2.9727-0.99219 1.6523-2.1484 3.4688-3.3047 4.9531-0.33203 0.33203-0.49609 0.66406-0.82812 1.1562-0.16406 0.16797-0.16406 0.33203-0.32812 0.49609-0.66016 0.82812-1.3203 1.6523-1.9844 2.3125-1.3203 1.4883-2.6406 2.9727-4.1289 4.293-1.6523 1.4883-3.3047 2.9727-4.9531 4.4609-0.16797 0.16406-0.33203 0.32813-0.49609 0.49219 0 0-0.33203 0.16797-0.33203 0.33203l-0.16406 0.16406c-0.16406 0.16797-0.49609 0.33203-0.66016 0.49609-0.82812 0.66016-1.8164 1.3203-2.6445 1.9805-1.8164 1.1562-3.7969 2.3125-5.6172 3.4688-0.98828 0.49609-1.9805 0.99219-2.9727 1.4883-0.32812 0.16406-0.66016 0.32812-1.1562 0.49219-0.16406 0-0.32812-0.16406-0.49609-0.16406-0.98828-0.49609-1.8164-0.82422-2.8086-1.3203-1.6484-0.82422-3.3008-1.8164-4.9531-2.8086-1.6523-0.98828-3.3047-2.1445-4.957-3.4648l-0.16406-0.16797-0.16406-0.16406c-0.33203-0.33203-0.82812-0.66016-1.1562-0.99219-0.66406-0.66016-1.4883-1.3203-2.1484-1.8164-2.9727-2.6406-5.6172-5.6133-8.0938-8.75l-0.16797-0.16406s0-0.16797-0.16406-0.16797c-0.32813-0.32812-0.49609-0.66016-0.82422-0.98828-0.66016-0.82812-1.1562-1.6523-1.8164-2.4805-1.1562-1.8164-2.3125-3.6328-3.1406-5.4492-0.49609-0.82422-0.82422-1.8164-1.3203-2.6406 0 0-0.33203-0.66016-0.33203-0.82422-0.16406-0.66016-0.49609-1.3242-0.66016-1.8164-0.32813-0.99219-0.49609-1.8164-0.82422-2.8086-0.16797-0.49609-0.16797-0.99219-0.33203-1.4883 0-0.32812 0-0.66016-0.16406-0.98828v-3.1367-0.66406c0.16406-0.66016 0.16406-1.1523 0.32812-1.8164 0.16797-0.32812 0.16797-0.82422 0.33203-1.1523 0.16406-0.33203 0.66016-1.4883 0.16406-0.49609 0.33203-0.82812 0.82812-1.4883 1.1562-2.3125 0.33203-0.33203 0.49609-0.82812 0.82812-1.1562-0.49609 0.66016 0 0.16406 0.16406-0.16406 0.66016-0.66016 1.3203-1.3242 1.9805-1.9844 0.16797-0.16406 0.33203-0.32812 0.49609-0.49219 0.33203-0.16797 0.49609-0.33203 0.82812-0.66406 0.82422-0.49219 1.6523-0.98828 2.4766-1.3203 0.16406 0 0.16406-0.16406 0.33203-0.16406 0.32813-0.16406 0.66016-0.33203 1.1562-0.33203 0.82422-0.32812 1.8164-0.49219 2.6406-0.66016h0.49609 1.1562 1.1562 0.66016c0.99219 0.16797 1.9844 0.49609 2.8086 0.82812 0.16406 0 0.33203 0.16406 0.33203 0.16406-0.33203-0.16406-0.33203-0.16406 0 0h0.16406-0.16406c0.49609 0.16406 0.98828 0.49609 1.3203 0.66016s0.82422 0.49609 1.1562 0.66016c0.16406 0.16406 0.66016 0.49609 0.66016 0.49609 0.66016 0.49609 1.3242 1.1562 1.9844 1.8164 0.32812 0.33203 0.66016 0.82422 0.98828 1.1562 0.16797 0.16406 0.16797 0.32812 0.33203 0.49609 0.49609 0.82422 0.99219 1.6523 1.4883 2.6406 0 0.16406 0.16406 0.16406 0.16406 0.33203-0.16406-0.16797 0-0.16797 0 0 0 0 0 0.16406 0.16406 0.16406 0 0 0-0.16406-0.16406-0.16406 0 0 0 0.16406 0.16406 0.32812 0.16406 0.49609 0.33203 0.82812 0.49609 1.3203 0.16406 0.49609 0.16406 0.99219 0.33203 1.4883 0 0.16406 0.16406 0.66016 0.16406 0.66016 0.16406 2.6406 2.1484 5.1211 5.1211 5.1211h0.32812 0.66016c2.9766-0.16797 4.793-2.1484 5.1211-5.1211v-0.49609 0.16406c0.16797-0.49219 0.16797-0.98828 0.33203-1.3203 0.16406-0.32813 0.16406-0.82422 0.33203-1.1562 0-0.16406 0.16406-0.32813 0.16406-0.49219 0 0 0.16406-0.33203 0.16406-0.49609 0.16406-0.16797 0.16406-0.49609 0.33203-0.66016 0.16406-0.33203 0.32812-0.66016 0.49609-0.99219 0.16406-0.33203 0.49219-0.82422 0.82422-1.1562 0.16406-0.16406 0.16406-0.33203 0.33203-0.49609 0.49219-0.66016 1.1562-1.3203 1.6484-1.8164 0.33203-0.32812 0.66406-0.49609 0.82812-0.82422 0.16406-0.16406 0.32812-0.16406 0.32812-0.33203 0 0 0.16797 0 0.16797-0.16406 0.66016-0.49609 1.4844-0.99219 2.1445-1.3203 0.33203-0.16406 0.66406-0.33203 0.99219-0.49609 0.16406 0 0.33203-0.16406 0.66016-0.16406 0.82812-0.33203 1.6523-0.49609 2.4805-0.66016h0.32812 0.33203-0.16406 1.3203 1.3203 0.66016c0.82812 0.16406 1.4883 0.32812 2.3125 0.49219 0.33203 0.16797 0.82812 0.33203 1.1562 0.33203h0.16797 0.16406c0.82422 0.33203 1.6523 0.82422 2.4766 1.3203 0.33203 0.16406 0.66016 0.49609 0.99219 0.66016 0.16406 0.16797 0.16406 0.16797 0.32812 0.33203 0.66406 0.66016 1.3242 1.3203 1.9844 1.9805 0 0.16406 0.49609 0.49609 0.49609 0.66016 0.16406 0.16406 0.32812 0.49609 0.49609 0.66016 0.49609 0.82812 0.82422 1.6523 1.3203 2.4766-0.16406-0.16406-0.16406-0.32813-0.16406-0.32813 0 0.16406 0.16406 0.32813 0.32812 0.66016 0.16797 0.33203 0.33203 0.82422 0.33203 1.1562 0.16406 0.49609 0.32812 0.99219 0.32812 1.6523 0 0.16406 0 0.32813 0.16797 0.49219v0.33203c0.49609 0.49609 0.49609 1.4883 0.32812 2.4766z"/>
 </g>
 <path d="m707.82 676.1c0 55.32-43.277-12.883-96.801-12.883-53.52 0-96.797 68.367-96.797 12.883 0-55.488 43.277-129.14 96.797-129.14 53.523 0 96.801 73.648 96.801 129.14z" fill="#ff8cbb"/>
 <path d="m589.54 469.48c0.58594 1.7969 1.1172 3.6133 1.5859 5.4414 0.47266 1.8242 0.88281 3.6602 1.2344 5.5 0.34766 1.8359 0.63672 3.6719 0.85938 5.5039 0.22656 1.832 0.39062 3.6523 0.48828 5.4609 0.097657 1.8086 0.13281 3.5938 0.10156 5.3594-0.027344 1.7656-0.12109 3.5039-0.27734 5.2109-0.15625 1.707-0.37891 3.375-0.66016 5.0078-0.28516 1.6289-0.62891 3.2148-1.0352 4.7578-0.40625 1.5391-0.87109 3.0273-1.3945 4.4609-0.52734 1.4375-1.1094 2.8125-1.75 4.1289-0.64062 1.3125-1.332 2.5625-2.082 3.7461-0.74609 1.1836-1.543 2.293-2.3945 3.332-0.84766 1.0391-1.7422 2.0039-2.6836 2.8867-0.94141 0.88672-1.9258 1.6914-2.9492 2.4141-1.0273 0.72266-2.0898 1.3633-3.1875 1.918-1.1016 0.55078-2.2305 1.0195-3.3906 1.3984-1.1641 0.37891-2.3516 0.66797-3.5664 0.87109-1.2148 0.20313-2.4492 0.3125-3.7031 0.33203-1.2539 0.023437-2.5234-0.046875-3.8086-0.20703-1.2812-0.15625-2.5703-0.40625-3.8711-0.74219-1.2969-0.33984-2.5977-0.76562-3.9023-1.2773-1.3008-0.51562-2.5977-1.1133-3.8906-1.7969s-2.5742-1.4531-3.8477-2.3008c-1.2695-0.84766-2.5234-1.7734-3.7617-2.7773-1.2383-1.0039-2.4531-2.082-3.6445-3.2305-1.1914-1.1523-2.3555-2.3672-3.4883-3.6523-1.1367-1.2852-2.2383-2.6328-3.3047-4.043-1.0664-1.4062-2.0938-2.8672-3.0781-4.3867-0.98828-1.5156-1.9336-3.082-2.832-4.6914-0.90234-1.6133-1.7539-3.2656-2.5586-4.9531-0.80078-1.6914-1.5508-3.4141-2.25-5.168-0.69922-1.7539-1.3438-3.5312-1.9336-5.3281-0.58594-1.8008-1.1172-3.6133-1.5859-5.4414-0.47266-1.8281-0.88281-3.6641-1.2344-5.5-0.34766-1.8398-0.63672-3.6758-0.85938-5.5078-0.22656-1.832-0.39062-3.6523-0.48828-5.4609-0.097656-1.8047-0.13281-3.5938-0.10156-5.3594 0.027343-1.7656 0.12109-3.5 0.27734-5.207 0.15625-1.707 0.37891-3.3789 0.66016-5.0078 0.28516-1.6328 0.62891-3.2188 1.0352-4.7617 0.40625-1.5391 0.87109-3.0273 1.3945-4.4609 0.52734-1.4375 1.1094-2.8125 1.75-4.125 0.64062-1.3164 1.332-2.5664 2.082-3.75 0.74609-1.1797 1.543-2.293 2.3945-3.332 0.84766-1.0391 1.7422-2 2.6836-2.8867 0.94141-0.88672 1.9258-1.6914 2.9492-2.4141 1.0273-0.72266 2.0898-1.3594 3.1875-1.9141 1.1016-0.55469 2.2305-1.0234 3.3945-1.4023 1.1602-0.37891 2.3477-0.66797 3.5625-0.87109 1.2148-0.19922 2.4492-0.3125 3.7031-0.33203 1.2539-0.023437 2.5234 0.046875 3.8047 0.20703 1.2852 0.16016 2.5742 0.40625 3.875 0.74609 1.2969 0.33594 2.5977 0.76172 3.9023 1.2773 1.3008 0.51172 2.5977 1.1094 3.8906 1.7969 1.293 0.68359 2.5742 1.4492 3.8477 2.2969 1.2695 0.84766 2.5234 1.7734 3.7617 2.7773s2.4531 2.082 3.6445 3.2305c1.1914 1.1523 2.3555 2.3711 3.4883 3.6562 1.1367 1.2852 2.2383 2.6289 3.3047 4.0391 1.0664 1.4062 2.0938 2.8711 3.0781 4.3867 0.98828 1.5156 1.9336 3.082 2.832 4.6953 0.90234 1.6094 1.7539 3.2617 2.5586 4.9531 0.80078 1.6914 1.5508 3.4102 2.25 5.1641s1.3438 3.5312 1.9336 5.332z" fill="#ff8cbb"/>
 <path d="m678.23 424.22c1.1719 0.34766 2.3125 0.78516 3.4258 1.3125s2.1914 1.1367 3.2344 1.8359c1.043 0.69531 2.0469 1.4727 3.0117 2.3359 0.96484 0.85938 1.8828 1.8008 2.7578 2.8164 0.875 1.0195 1.7031 2.1094 2.4805 3.2734 0.77734 1.1602 1.5039 2.3906 2.1758 3.6914 0.67188 1.2969 1.293 2.6562 1.8516 4.0781 0.5625 1.4219 1.0664 2.8984 1.5117 4.4258 0.44531 1.5312 0.83203 3.1094 1.1562 4.7305 0.32422 1.625 0.58594 3.2891 0.78516 4.9922 0.20312 1.6992 0.33984 3.4336 0.41406 5.1992 0.074219 1.7656 0.085938 3.5508 0.03125 5.3594-0.050781 1.8125-0.16406 3.6328-0.34375 5.4727-0.17969 1.8359-0.41797 3.6797-0.72266 5.5273-0.30078 1.8438-0.66406 3.6875-1.0898 5.5273-0.42578 1.8398-0.90625 3.668-1.4492 5.4805-0.54297 1.8125-1.1406 3.6055-1.793 5.375-0.65625 1.7734-1.3594 3.5117-2.1211 5.2227-0.76172 1.7109-1.5703 3.3828-2.4258 5.0195-0.85938 1.6328-1.7656 3.2227-2.7148 4.7617-0.94531 1.543-1.9375 3.0312-2.9648 4.4688-1.0312 1.4336-2.0977 2.8086-3.1992 4.1211-1.1016 1.3125-2.2305 2.5625-3.3945 3.7422-1.1602 1.1797-2.3477 2.2852-3.5586 3.3203-1.2148 1.0391-2.4453 1.9961-3.6914 2.875-1.25 0.87891-2.5117 1.6797-3.7891 2.3945-1.2734 0.71875-2.5547 1.3516-3.8438 1.8984-1.2891 0.54688-2.5781 1.0039-3.8672 1.375-1.2891 0.37109-2.5742 0.65234-3.8516 0.84375-1.2812 0.19141-2.5469 0.29297-3.8008 0.30469-1.2539 0.011719-2.4922-0.070312-3.7109-0.23828-1.2188-0.17188-2.4141-0.42969-3.5859-0.78125-1.1719-0.34766-2.3125-0.78516-3.4258-1.3125-1.1133-0.52734-2.1914-1.1367-3.2344-1.8359-1.043-0.69531-2.0469-1.4727-3.0117-2.3359-0.96484-0.85938-1.8828-1.8008-2.7578-2.8164-0.875-1.0195-1.7031-2.1094-2.4805-3.2695-0.77734-1.1641-1.5039-2.3945-2.1758-3.6953-0.67188-1.2969-1.2891-2.6562-1.8516-4.0781s-1.0664-2.8984-1.5117-4.4258c-0.44531-1.5312-0.83203-3.1094-1.1562-4.7305-0.32422-1.625-0.58594-3.2891-0.78516-4.9922-0.19922-1.6992-0.33984-3.4336-0.41406-5.1992s-0.085938-3.5508-0.03125-5.3594c0.050781-1.8125 0.16797-3.6328 0.34375-5.4727 0.17969-1.8359 0.41797-3.6797 0.72266-5.5273 0.30078-1.8438 0.66797-3.6875 1.0898-5.5273 0.42578-1.8398 0.90625-3.668 1.4492-5.4805s1.1406-3.6055 1.793-5.375c0.65625-1.7734 1.3633-3.5117 2.1211-5.2227 0.76172-1.7109 1.5703-3.3828 2.4297-5.0195 0.85547-1.6328 1.7617-3.2227 2.7109-4.7617 0.94922-1.543 1.9375-3.0312 2.9688-4.4688 1.0273-1.4336 2.0938-2.8086 3.1953-4.1211 1.1016-1.3125 2.2344-2.5625 3.3945-3.7422 1.1641-1.1797 2.3477-2.2852 3.5625-3.3203 1.2109-1.0391 2.4414-1.9961 3.6914-2.875 1.2461-0.87891 2.5078-1.6797 3.7852-2.3945 1.2734-0.71875 2.5547-1.3516 3.8438-1.8984 1.2891-0.54687 2.5781-1.0039 3.8672-1.375 1.293-0.37109 2.5742-0.65234 3.8555-0.84375 1.2773-0.19141 2.543-0.29297 3.7969-0.30469s2.4922 0.070313 3.7109 0.23828c1.2188 0.17188 2.4141 0.42969 3.5859 0.78125z" fill="#ff8cbb"/>
 <path d="m758.7 508.46c1.1367 0.45312 2.2344 0.98828 3.2969 1.6094 1.0625 0.625 2.082 1.3281 3.0586 2.1133 0.98047 0.78516 1.9102 1.6484 2.793 2.5938 0.88672 0.94141 1.7188 1.957 2.5 3.0469 0.78125 1.0938 1.5078 2.25 2.1836 3.4766 0.67188 1.2305 1.2852 2.5195 1.8398 3.8711 0.55859 1.3516 1.0508 2.7617 1.4883 4.2266 0.43359 1.4648 0.80469 2.9805 1.1133 4.543s0.55469 3.168 0.73438 4.8125c0.17969 1.6484 0.29297 3.3281 0.34375 5.0391 0.050781 1.7148 0.035157 3.4531-0.046875 5.2188-0.082031 1.7617-0.22656 3.543-0.4375 5.3438-0.21094 1.7969-0.48828 3.6016-0.82812 5.418-0.33984 1.8125-0.74219 3.6289-1.207 5.4414-0.46094 1.8125-0.98828 3.6172-1.5703 5.4102-0.58594 1.7969-1.2266 3.5742-1.9258 5.332-0.70312 1.7578-1.4531 3.4922-2.2617 5.1992-0.80859 1.707-1.6641 3.3789-2.5742 5.0156-0.90625 1.6367-1.8594 3.2305-2.8594 4.7812-1 1.5547-2.0391 3.0547-3.1211 4.5078-1.0781 1.4531-2.1953 2.8477-3.3477 4.1875-1.1523 1.3398-2.3359 2.6133-3.5508 3.8242-1.2109 1.2109-2.4492 2.3555-3.7109 3.4297-1.2617 1.0742-2.5391 2.0703-3.8398 2.9961-1.2969 0.92578-2.6055 1.7695-3.9297 2.5391-1.3203 0.76562-2.6484 1.4492-3.9805 2.0508-1.3359 0.60156-2.668 1.1172-4 1.5508-1.332 0.42969-2.6562 0.77344-3.9727 1.0312-1.3164 0.25391-2.6211 0.42188-3.9102 0.5-1.293 0.078125-2.5625 0.066406-3.8125-0.03125-1.25-0.10156-2.4766-0.28906-3.6758-0.56641s-2.3672-0.64062-3.5039-1.0898c-1.1367-0.45312-2.2344-0.98828-3.2969-1.6094-1.0625-0.625-2.082-1.3281-3.0586-2.1133-0.98047-0.78516-1.9102-1.6523-2.793-2.5938-0.88672-0.94141-1.7188-1.957-2.5-3.0508-0.78125-1.0898-1.5117-2.2461-2.1836-3.4766-0.67188-1.2266-1.2852-2.5156-1.8398-3.8672-0.55859-1.3555-1.0547-2.7617-1.4883-4.2266-0.43359-1.4648-0.80469-2.9805-1.1133-4.543-0.30859-1.5625-0.55469-3.168-0.73438-4.8125-0.17969-1.6484-0.29687-3.3281-0.34375-5.043-0.050781-1.7109-0.035156-3.4492 0.046876-5.2148 0.082031-1.7656 0.22656-3.5469 0.4375-5.3438 0.21094-1.7969 0.48828-3.6016 0.82812-5.418 0.33984-1.8125 0.74219-3.6289 1.2031-5.4414 0.46484-1.8125 0.99219-3.6172 1.5742-5.4141 0.58594-1.793 1.2266-3.5703 1.9258-5.3281 0.69922-1.7617 1.4531-3.4922 2.2617-5.1992 0.80859-1.707 1.6641-3.3789 2.5742-5.0156 0.90625-1.6367 1.8594-3.2305 2.8594-4.7852 1-1.5508 2.0391-3.0547 3.1211-4.5039 1.0781-1.4531 2.1953-2.8477 3.3477-4.1875s2.3359-2.6133 3.5508-3.8242c1.2109-1.2148 2.4492-2.3555 3.7109-3.4297s2.5391-2.0703 3.8359-2.9961c1.3008-0.92578 2.6094-1.7695 3.9336-2.5391 1.3203-0.76562 2.6484-1.4492 3.9805-2.0508 1.3359-0.60156 2.668-1.1211 4-1.5508 1.332-0.42969 2.6562-0.77344 3.9727-1.0312 1.3164-0.25391 2.6211-0.42188 3.9102-0.5 1.293-0.078125 2.5625-0.070312 3.8125 0.03125 1.25 0.097657 2.4766 0.28906 3.6758 0.56641 1.1992 0.27344 2.3672 0.64062 3.5039 1.0898z" fill="#ff8cbb"/>
 <path d="m518.03 551.7c0.89062 1.543 1.7227 3.1094 2.5 4.707s1.4922 3.2109 2.1484 4.8477 1.25 3.2852 1.7812 4.9453c0.52734 1.6641 0.99219 3.3281 1.3867 4.9961 0.39844 1.668 0.72656 3.3359 0.98828 4.9961 0.26172 1.6602 0.45312 3.3086 0.57812 4.9453 0.12109 1.6406 0.17578 3.2578 0.16016 4.8555-0.015625 1.5977-0.10156 3.168-0.25781 4.7109s-0.38281 3.0508-0.67578 4.5234-0.65625 2.9023-1.082 4.293c-0.42969 1.3867-0.92578 2.7266-1.4844 4.0195-0.55859 1.293-1.1836 2.5273-1.8672 3.7109-0.6875 1.1797-1.4297 2.3047-2.2344 3.3633-0.80469 1.0625-1.6641 2.0547-2.582 2.9844-0.91406 0.92969-1.8789 1.7891-2.8984 2.5781-1.0156 0.78906-2.082 1.5039-3.1914 2.1445s-2.2617 1.2031-3.4531 1.6914c-1.1953 0.48438-2.4219 0.89453-3.6836 1.2227-1.2617 0.32812-2.5547 0.57422-3.875 0.73828-1.3203 0.16797-2.6641 0.25-4.0312 0.25391-1.3672 0.003906-2.75-0.078125-4.1484-0.23828s-2.8086-0.40234-4.2227-0.72656c-1.418-0.32422-2.8398-0.72656-4.2617-1.207-1.4258-0.48438-2.8438-1.043-4.2578-1.6797-1.4141-0.63672-2.8164-1.3477-4.2109-2.1289-1.3906-0.78516-2.7656-1.6406-4.1211-2.5664-1.3594-0.92578-2.6914-1.918-4-2.9727-1.3086-1.0586-2.5859-2.1758-3.832-3.3516-1.2461-1.1797-2.457-2.4141-3.6328-3.7031-1.1719-1.2891-2.3047-2.625-3.3945-4.0117-1.0898-1.3867-2.1328-2.8164-3.125-4.2852-0.99609-1.4727-1.9375-2.9766-2.8281-4.5195-0.89062-1.5391-1.7227-3.1094-2.5-4.7031-0.77734-1.5977-1.4922-3.2148-2.1484-4.8516-0.65625-1.6367-1.25-3.2852-1.7773-4.9453-0.53125-1.6602-0.99219-3.3242-1.3906-4.9922-0.39844-1.6719-0.72656-3.3359-0.98828-4.9961s-0.45312-3.3125-0.57812-4.9492c-0.12109-1.6367-0.17578-3.2539-0.16016-4.8516 0.019531-1.5977 0.10547-3.168 0.25781-4.7109 0.15625-1.543 0.38281-3.0508 0.67578-4.5234s0.65625-2.9023 1.0859-4.293c0.42578-1.3906 0.92188-2.7305 1.4805-4.0195 0.5625-1.293 1.1836-2.5312 1.8672-3.7109 0.6875-1.1836 1.4297-2.3047 2.2344-3.3633 0.80469-1.0625 1.6641-2.0586 2.582-2.9844 0.91406-0.92969 1.8828-1.7891 2.8984-2.5781 1.0195-0.78906 2.082-1.5039 3.1914-2.1445 1.1133-0.64062 2.2617-1.207 3.457-1.6914 1.1914-0.48828 2.418-0.89453 3.6797-1.2227 1.2617-0.32812 2.5547-0.57422 3.875-0.74219 1.3242-0.16406 2.6641-0.25 4.0312-0.25 1.3672-0.003906 2.75 0.074218 4.1484 0.23828 1.3984 0.16016 2.8086 0.40234 4.2266 0.72656 1.418 0.32031 2.8359 0.72266 4.2578 1.207 1.4258 0.48047 2.8438 1.043 4.2578 1.6758 1.4141 0.63672 2.8164 1.3477 4.2109 2.1328 1.3906 0.78516 2.7656 1.6406 4.125 2.5664 1.3555 0.92578 2.6875 1.9141 3.9961 2.9727 1.3086 1.0547 2.5859 2.1758 3.832 3.3516 1.25 1.1797 2.457 2.4141 3.6328 3.7031 1.1758 1.2852 2.3047 2.625 3.3945 4.0117s2.1328 2.8125 3.125 4.2852c0.99609 1.4688 1.9375 2.9766 2.8281 4.5156z" fill="#ff8cbb"/>
 <g clip-path="url(#a)">
  <path d="m415.11 669.66-30.062-89.172c-0.66016-2.1484-2.8086-3.6328-5.1211-3.4688-2.3125 0.16406-4.293 1.8164-4.625 4.1289l-39.148 210.38-52.035-427.54c-0.32813-2.4766-2.4766-4.457-4.9531-4.457-2.4766 0-4.625 1.8164-4.957 4.293l-41.793 293.28-13.215-27.906c-0.98828-1.9844-3.1367-3.1406-5.4492-2.8086-2.3125 0.32812-3.9648 2.1484-4.293 4.457l-6.9414 55.652-3.4688-13.047c-0.66016-2.1445-2.6406-3.7969-4.9531-3.7969h-79.621c-2.1484-29.727-26.926-53.176-57.152-53.176-31.551-0.16406-57.32 25.598-57.32 57.141 0 31.539 25.77 57.301 57.32 57.301 29.566 0 54.016-22.461 56.988-51.191h75.82l9.25 34.348c0.66016 2.3125 2.8086 3.9609 5.2852 3.7969 2.4766-0.16406 4.4609-1.9805 4.625-4.457l8.0938-64.074 12.887 27.414c0.98828 1.9805 3.1367 3.1367 5.2852 2.8047 2.1484-0.32812 3.9648-2.1445 4.293-4.293l38.82-271.98 51.371 422.09c0.33203 2.4766 2.3125 4.457 4.957 4.457h0.16406c2.4805 0 4.625-1.8164 4.957-4.125l41.461-223.59 24.941 74.145c0.66406 2.1445 2.6445 3.4688 4.793 3.4688h102.75v-10.238h-98.949zm-357.79 50.367c-25.605 0-46.418-20.809-46.418-46.402 0-25.598 20.812-46.406 46.418-46.406 25.602 0 46.418 20.809 46.418 46.406 0 25.594-20.816 46.402-46.418 46.402z"/>
 </g>
 <path d="m90.68 670.31c0.10937 1.0898 0.16406 2.1875 0.16406 3.2852s-0.054688 2.1914-0.16016 3.2852c-0.10547 1.0938-0.26953 2.1758-0.48047 3.2539-0.21484 1.0781-0.48047 2.1406-0.79688 3.1914-0.32031 1.0508-0.6875 2.0859-1.1094 3.0977-0.41797 1.0156-0.88672 2.0078-1.4062 2.9766-0.51562 0.96875-1.0781 1.9102-1.6875 2.8203-0.60938 0.91406-1.2656 1.7969-1.9609 2.6445-0.69531 0.84766-1.4297 1.6602-2.207 2.4375-0.77734 0.77734-1.5898 1.5156-2.4375 2.2109-0.84766 0.69922-1.7305 1.3516-2.6406 1.9609-0.91406 0.60938-1.8555 1.1758-2.8242 1.6914-0.96875 0.51953-1.957 0.98828-2.9727 1.4102s-2.0469 0.78906-3.0977 1.1094c-1.0508 0.32031-2.1133 0.58594-3.1914 0.80078s-2.1641 0.375-3.2539 0.48438c-1.0938 0.10938-2.1914 0.16406-3.2891 0.16406s-2.1914-0.054687-3.2852-0.16016c-1.0938-0.10547-2.1797-0.26562-3.2539-0.48047-1.0781-0.21484-2.1445-0.48047-3.1953-0.79688-1.0508-0.32031-2.082-0.6875-3.0977-1.1094-1.0156-0.41797-2.0078-0.88672-2.9766-1.4023-0.96875-0.51953-1.9102-1.082-2.8242-1.6914-0.91016-0.60938-1.793-1.2617-2.6406-1.957-0.85156-0.69531-1.6641-1.4336-2.4414-2.207-0.77734-0.77734-1.5117-1.5898-2.2109-2.4375-0.69531-0.84766-1.3516-1.7305-1.9609-2.6406-0.60938-0.91406-1.1758-1.8516-1.6953-2.8203-0.51562-0.96875-0.98438-1.9609-1.4062-2.9727-0.42188-1.0156-0.79297-2.0469-1.1094-3.0977-0.32031-1.0508-0.58594-2.1133-0.80078-3.1914-0.21484-1.0781-0.37891-2.1602-0.48828-3.2539-0.10547-1.0938-0.16016-2.1875-0.16016-3.2852s0.050781-2.1914 0.16016-3.2852c0.10547-1.0938 0.26562-2.1797 0.48047-3.2539 0.21094-1.0781 0.48047-2.1406 0.79688-3.1914 0.31641-1.0508 0.6875-2.0859 1.1055-3.0977 0.42188-1.0156 0.89062-2.0078 1.4062-2.9766 0.51953-0.96875 1.082-1.9102 1.6914-2.8203 0.60938-0.91406 1.2617-1.7969 1.957-2.6445 0.69922-0.84766 1.4336-1.6641 2.2109-2.4375 0.77344-0.77734 1.5859-1.5156 2.4375-2.2109 0.84766-0.69922 1.7266-1.3516 2.6406-1.9609 0.91406-0.61328 1.8516-1.1758 2.8203-1.6953 0.96875-0.51563 1.9609-0.98438 2.9766-1.4062 1.0117-0.42188 2.0469-0.78906 3.0977-1.1094 1.0508-0.32031 2.1133-0.58594 3.1914-0.80078 1.0742-0.21484 2.1602-0.37891 3.2539-0.48438 1.0938-0.10938 2.1875-0.16406 3.2852-0.16406 1.0977 0 2.1953 0.050781 3.2891 0.16016 1.0898 0.10547 2.1758 0.26562 3.2539 0.48047 1.0781 0.21484 2.1406 0.48047 3.1914 0.79688 1.0508 0.32031 2.0859 0.6875 3.1016 1.1055 1.0117 0.42188 2.0039 0.89063 2.9727 1.4062 0.96875 0.51563 1.9102 1.082 2.8242 1.6914 0.91406 0.60938 1.7969 1.2617 2.6445 1.957 0.84766 0.69531 1.6641 1.4336 2.4375 2.207 0.77734 0.77734 1.5156 1.5898 2.2109 2.4375 0.69922 0.84766 1.3516 1.7266 1.9648 2.6406 0.60938 0.91406 1.1719 1.8516 1.6914 2.8203s0.98828 1.9609 1.4102 2.9727c0.41797 1.0156 0.78906 2.0469 1.1094 3.0977 0.32031 1.0508 0.58594 2.1133 0.80078 3.1914 0.21484 1.0742 0.375 2.1602 0.48438 3.2539z"/>
</svg>
