<?xml version='1.0' encoding='utf-8'?>
<svg xmlns="http://www.w3.org/2000/svg" width="1587" height="1587" version="1.0" viewBox="0 0 1190.2 1190.2" zoomAndPan="magnify">
 <defs>
  <clipPath id="a" fill="none">
   <path d="m0 0h1189.5v1189.5h-1189.5z" fill="none" />
  </clipPath>
 </defs>
 <g clip-path="url(#a)" fill="none">
  <path d="m0 0h1189.5v1189.5h-1189.5z" fill="none" />
  <path d="m0 0h1189.5v1189.5h-1189.5z" fill="none" />
 </g>
 <path d="m975.17 400.26c-43.004 0-110.12 49.145-153.58 118.31-35.039-109.89-127.87-198.62-210.23-198.62-67.348 0-184.3 101.47-220.7 225.46-53.469-22.754-110.58-25.484-110.58-25.484s184.52-61.426 148.57-174.27c-35.949-112.62-387.7-80.082-387.7-80.082-40.953 20.473 18.887 561.73 85.324 602.91 52.102 32.078 227.3-5.0078 310.34-96.695 119.22 142.65 288.73 84.18 362.45-32.988 6.8281 13.879 15.246 27.301 25.938 40.727 121.27 149.47 306.93 47.547 335.6-91.008 28.895-138.78-87.371-288.26-185.43-288.26zm-793.84-5.9141c0-24.117 28.441-43.453 63.48-43.453 35.039 0 63.48 19.566 63.48 43.453 0 24.117-28.441 43.457-63.48 43.457-35.039 0-63.48-19.34-63.48-43.457zm98.066 339.45c-35.723 0-64.617-22.297-64.617-50.055 0-27.527 28.895-50.051 64.617-50.051 35.719 0 64.617 22.297 64.617 50.051 0 27.758-28.898 50.055-64.617 50.055zm344.02-162.67c-40.953 0-74.398-27.984-74.398-62.793 0-34.582 33.215-62.793 74.398-62.793 40.953 0 74.172 28.211 74.172 62.793 0 34.809-33.219 62.793-74.172 62.793zm361.77 41.406c-34.586 0-62.797-23.66-62.797-53.008 0-29.352 28.211-53.012 62.797-53.012 34.582 0 62.797 23.66 62.797 53.012 0 29.348-27.984 53.008-62.797 53.008z" />
</svg>