<?xml version='1.0' encoding='utf-8'?>
<svg xmlns="http://www.w3.org/2000/svg" width="1587" height="1587" version="1.0" viewBox="0 0 1190.2 1190.2" zoomAndPan="magnify">
 <defs>
  <clipPath id="b" fill="none">
   <path d="m0 0h1189.5v1189.5h-1189.5z" fill="none" />
  </clipPath>
  <clipPath id="a" fill="none">
   <path d="m28 31h1140v1134h-1140z" fill="none" />
  </clipPath>
 </defs>
 <g clip-path="url(#b)" fill="none">
  <path d="m0 0h1189.5v1189.5h-1189.5z" fill="none" />
  <path d="m0 0h1189.5v1189.5h-1189.5z" fill="none" />
 </g>
 <g clip-path="url(#a)">
  <path d="m695.27 580.47c300.24-39.895 443.39-104.49 453.52-136.15 1.8984-5.0664 0.63281-10.133-3.8008-13.934-24.703-21.531-181.16-3.7969-459.23 115.25 264.13-145.65 374.35-257.73 372.45-290.03 0-5.6992-3.168-9.4961-8.8672-11.398-31.039-11.398-169.76 62.059-385.12 273.57 193.19-231.14 254.63-374.89 240.7-404.65-2.5352-5.0664-6.9688-7.5977-12.672-7.5977-32.938 0.63281-135.55 119.05-259.06 393.88 95.645-284.96 100.08-441.38 76.641-464.17-3.8008-3.7969-8.8672-5.0664-14.566-2.5312-30.406 12.664-82.98 160.21-97.547 460.37-14.57-300.16-67.141-447.71-97.547-460.37-5.0664-1.8984-10.133-1.2656-14.566 2.5312-23.438 22.797-19.004 179.21 76.641 464.17-122.25-275.46-224.86-393.25-257.8-394.51-5.7031 0-10.137 2.5312-12.668 7.5977-13.305 29.762 48.137 173.51 240.7 404.65-215.36-211.51-354.08-284.33-385.12-273.57-5.0664 1.9023-8.2344 6.332-8.8672 11.398-1.8984 32.93 107.68 144.38 372.45 290.03-278.07-118.42-434.52-136.15-459.23-114.62-4.4336 3.8008-5.6992 8.8672-3.8008 13.934 10.137 31.027 153.29 95.621 453.53 136.15-303.41-10.766-456.06 29.129-471.26 58.258-2.5352 5.0664-1.8984 10.133 1.2656 14.566 20.902 25.328 177.99 33.562 473.16-37.363-287.57 100.05-416.15 192.51-419.95 225.44-0.63281 5.6992 1.9023 10.133 6.3359 12.664 28.504 16.465 178.62-32.93 429.45-205.8-233.09 196.94-319.88 329.92-311.64 361.59 1.2695 5.6992 5.0703 8.8633 10.77 9.5h2.5352c35.469 0 157.09-101.32 324.94-347.66-146.95 268.5-180.52 423.64-161.52 450.24 3.168 4.4297 8.2344 6.332 13.305 5.0664 32.301-6.9688 110.85-145.02 181.16-442.64-41.172 303.33-16.469 460.38 10.766 478.11 2.5352 1.2656 5.0664 2.5312 6.9688 2.5312 1.8984 0 5.0664-0.63281 6.9688-2.5312 27.234-18.363 51.938-174.78 10.766-478.11 70.309 297.63 149.49 435.68 181.16 442.64 5.7031 1.2656 10.137-0.63672 13.301-5.0664 19.004-26.598-13.934-181.74-161.52-450.24 167.86 246.34 289.47 347.66 324.94 347.66h2.5352c5.6992-0.63672 9.5-4.4336 10.766-9.5 8.2344-31.664-78.543-164.64-311.64-361.59 250.83 173.51 400.95 222.27 429.45 205.8 5.0664-2.5312 6.9688-7.5977 6.3359-12.664-3.8008-32.93-132.39-125.38-419.95-225.44 295.17 70.926 452.89 62.691 473.16 37.363 3.7969-4.4336 3.7969-9.5 1.2656-14.566-13.938-29.129-166.59-69.023-469.99-58.258z" fill="none" />
 </g>
</svg>