<?xml version="1.0" encoding="UTF-8"?>
<svg width="1587" height="1587" version="1.0" viewBox="0 0 1190.2 1190.2" xmlns="http://www.w3.org/2000/svg" zoomAndPan="magnify">
 <defs>
  <clipPath id="a">
   <path d="m0 0h1189.5v1189.5h-1189.5z"/>
  </clipPath>
 </defs>
 <g clip-path="url(#a)" fill="#fff">
  <path d="m0 0h1189.5v1189.5h-1189.5z"/>
  <path d="m0 0h1189.5v1189.5h-1189.5z"/>
 </g>
 <path d="m158.86 572.68c-12.547 103.44-132.69 94.109-149.9 46.172-4.9844-61.617-3.3789-48.102 16.727-63.062 20.586 14.641 55.328 46.168 75.914 19.305 2.4141-3.2188 4.1797-6.918 4.9844-11.262-19.621-21.879-36.348-24.613-54.684-37.324-31.199-21.715-50.5-69.012-27.984-110.36 25.734-47.457 81.863-37.324 98.914-28.477 23 13.352 34.898 4.5039-2.7344 64.992-12.547 3.5391-49.375-16.891-53.398 3.5391 5.4688 18.18 101.81 37.645 92.16 116.47zm121.27-187.74c-35.543-5.6289-45.676 2.4141-53.395 12.871-10.133 16.406-11.902 237.93-1.2891 255.14 56.777 0.48047 41.816-3.8633 41.496-106.82 60.473-37.164 99.555-34.105 101-86.227 1.2852-46.012-43.586-64.027-87.816-74.969zm261.03 152.67c37.797-249.35-221.14-166.18-121.11 68.531 22.035 51.801 82.988 58.559 108.08-10.938 9.4922-19.465 10.297-39.094 13.027-57.594zm192.52-13.191c38.117-144.3-85.402-181.14-130.76-121.46-45.195 59.359-21.875 283.3 80.898 234.87 22.516-10.617 23.48-30.402 33.293-50.996 9.0078-19.465 13.672-41.504 16.566-62.418zm139.76-3.2188c14.637-28.633 47.449-103.76 48.25-124.68-9.9688-11.582-41.652-18.82-42.941-19.465-5.6289 2.0898-6.5938 30.727-41.816 101.67-1.125-93.469 0.32422-88.16-2.25-96.684-14.797 1.2852-29.754 0.64062-44.551 2.0898-3.6992 10.457-3.0586 241.47 6.2695 268.34 52.434 0.48438 44.875 11.906 42.301-76.254 8.6836-5.1484 39.566 70.461 48.25 74 13.188-7.5586 25.895-15.926 37.637-25.414-16.406-45.852-47.77-97.812-51.148-103.61zm278.08-120.98c-0.16016-0.32031-11.258-21.715-11.578-22.039-6.1133-3.3789-13.512-3.0547-16.891 0.48437-20.426 21.074-39.402 44.238-56.934 69.336-65.457-70.945-39.566-79.148-88.457-34.59-0.80469 33.625 57.898 75.773 57.578 89.125-0.80469 4.9883-2.5742 142.05 0.48047 148.48 22.355 2.7383 48.25 6.918 47.93-15.281-0.16016-5.9531-1.4492-113.58 1.7695-118.89 4.6641-5.1445 22.836-41.184 65.781-85.742 9.168-9.0117 9.168-12.711 0.32031-30.891z" fill="#15243a"/>
</svg>
