<?xml version='1.0' encoding='utf-8'?>
<svg xmlns="http://www.w3.org/2000/svg" width="1587" height="1587" version="1.0" viewBox="0 0 1190.2 1190.2" zoomAndPan="magnify">
 <defs>
  <clipPath id="b" fill="none">
   <path d="m0 0h1189.5v1189.5h-1189.5z" fill="none" />
  </clipPath>
  <clipPath id="a" fill="none">
   <path d="m26 235h1132.4v722h-1132.4z" fill="none" />
  </clipPath>
 </defs>
 <g clip-path="url(#b)" fill="none">
  <path d="m0 0h1189.5v1189.5h-1189.5z" fill="none" />
  <path d="m0 0h1189.5v1189.5h-1189.5z" fill="none" />
 </g>
 <g clip-path="url(#a)">
  <path d="m315.39 384.82s-184.58-29.141-265.54 161.94c-80.953 191.08 66.926 262.34 172.7 250.46 0 0-9.7148 146.82 202.93 158.7s250.42-140.73 250.42-140.73 74.48 107.26 253.66 73.793c179.18-33.465 228.84-171.55 228.84-230.98 0-59.426-47.496-183.58-265.54-180.34 0 0 32.383-101.01-61.527-154.15-93.91-53.133-218.04-20.578-218.04-20.578s-44.258-81.137-146.8-64.945c-102.54 16.195-139.24 79.891-151.11 146.82z" fill="none" />
 </g>
 </svg>