<?xml version="1.0" encoding="UTF-8"?>
<svg width="1587" height="1587" version="1.0" viewBox="0 0 1190.2 1190.2" xmlns="http://www.w3.org/2000/svg" zoomAndPan="magnify">
 <defs>
  <clipPath id="c">
   <path d="m0 0h1189.5v1189.5h-1189.5z"/>
  </clipPath>
  <clipPath id="b">
   <path d="m6 3.7188h1183v1182h-1183z"/>
  </clipPath>
  <clipPath id="a">
   <path d="m6 3.7188h1183v985.28h-1183z"/>
  </clipPath>
 </defs>
 <g clip-path="url(#c)" fill="#fff">
  <path d="m0 0h1189.5v1189.5h-1189.5z"/>
  <path d="m0 0h1189.5v1189.5h-1189.5z"/>
 </g>
 <g clip-path="url(#b)" fill-rule="evenodd">
  <path d="m346.5 1185.6c35.379-20.375 76.785-54.328 109.2-110.3 70.82-122.32 38.633-388.41 72.957-429.19 34.344-40.781 100.88 25.746 96.57 163.09-3.1484 100.87-0.50391 266.6-35.453 376.4zm-339.59-1181.9h467.01c42.176 13.355 45.086 22.008 45.086 29.203 0 10.746-40.785 3.2344-90.129 4.3047-49.375 1.0703-165.24-15.031-274.69 20.391-61.129 19.781-113.2 71.305-147.28 112.99zm829.27 0h224.36c-12.348 16.086-27.59 31.043-45.812 40.496-57.941 30.039-186.71 25.75-231.77 124.45-45.07 98.715 5.3555 135.19-36.492 195.29-41.836 60.074-213.52-11.797-202.8-31.117 10.73-19.309 11.801-25.75 76.18-17.184 64.379 8.5898 84.77-20.379 82.617-97.648-2.1367-77.242 20.391-149.13 71.902-170.6 22.113-9.1836 44.02-26.695 61.812-43.688zm352.7 460.73v141.52c-35.246 11.027-74.809 33.645-96.906 79.883-46.129 96.566-100.86 77.258-75.109 32.188 25.746-45.066 30.035-170.61 92.277-218.89 22.824-17.691 51.957-28.332 79.738-34.699zm0 596.81v124.39h-80.258c26.609-30.762 57.035-81.992 80.258-124.39z" fill="#eb6a4b"/>
  <path d="m233.57 296.35c141.64-64.375 327.27-7.5078 376.63-21.457 49.375-13.938 55.816-52.566 53.664-89.055-2.1523-36.477-15.035-12.883-69.75 18.25-54.734 31.121-233.92-37.574-339.07-16.102-105.16 21.461-218.9 98.719-229.62 215.66-10.758 116.95-24.711 280.58-3.7695 280.06 20.926-0.54688 39.164-39.695 39.164-63.305-0.015625-108.35 73.598-278.98 172.75-324.05zm943.78-292.63h11.531v137.86c-25.465 27.484-50.398 46.699-72.215 51.789-92.277 21.445-160.95 8.5938-201.73 115.89-40.766 107.29 4.3047 152.36-66.516 270.39-70.82 118.02-296.16-62.242-364.83-2.1523-68.684 60.07 38.613 364.81-122.33 515.02-43.305 40.395-93.57 70.699-145.69 93.137h-208.66v-122.58c91.344-50.5 187.35-120.05 242.76-208.74 128.76-206.01 30.055-240.35 141.64-399.15 111.6-158.79 236.06 34.34 347.66-17.156 111.6-51.492 47.223-227.48 145.93-287.55 83.953-51.121 211.35-46.375 292.45-146.75zm11.531 670.07v234.81c-34.027 74.586-70.328 176.62-132.3 243.98-10.773 11.707-21.117 22.75-31 33.047h-163.23c-1.8398-90.922 24.516-228.8-11.785-221.89-41.227 7.8516-114.78 136.02-133.58 221.89h-83.168c21.324-89.188 59.422-230.52 96.566-277.68 55.789-70.816 96.57-96.566 165.24-96.566 68.668 0 4.2891 173.82 64.379 208.16 60.09 34.34 66.531-163.09 128.76-255.36 26.445-39.195 63.695-71.012 100.13-90.391z" fill="#f4afa8"/>
 </g>
 <g clip-path="url(#a)">
  <path d="m729.82 3.7188c-15.211 9.5703-29.133 22.184-33.777 37.797-11.801 39.695-46.125 106.24-106.21 126.63-60.09 20.375-235-33.27-319.76-17.184-84.77 16.086-136.28 31.117-175.98 72.969-39.699 41.832-49.359 66.512-60.09 57.934-10.73-8.5938 17.188-86.918 50.445-128.75 33.242-41.852 113.74-91.207 294.01-78.328 180.27 12.883 169.53 11.801 189.92-46.137 3.4297-9.7188 9.1719-17.941 16.355-24.914h145.1zm459.07 237.78v166.41c-27.898-4.8359-59.969-14.305-117.29 10.773-103.01 45.07-27.898 195.27-109.45 281.11-81.566 85.82-115.89 2.1367-180.27 32.191-64.379 30.035-107.3 199.57-113.76 154.51-6.4258-45.07 21.461-180.26 62.242-225.33 40.785-45.07 107.3 4.2852 171.68-47.223 64.379-51.508 57.938-216.74 66.531-287.55 8.5781-70.816 66.516-57.934 160.95-68.664 21.504-2.4492 41.402-8.4297 59.359-16.234zm-1182 747.03v-220.37c5.2969-5.0312 10.727-10.285 16.352-15.805 113.74-111.58 85.855-233.89 165.24-360.52 79.414-126.6 294.01-122.32 311.18-72.953 17.156 49.359-137.35 27.883-193.15 105.14-55.785 77.258-77.262 255.38-143.79 401.3-34.34 75.371-100.17 128.97-155.82 163.21z" fill="#f2c20a" fill-rule="evenodd"/>
 </g>
</svg>
