<?xml version='1.0' encoding='utf-8'?>
<svg xmlns="http://www.w3.org/2000/svg" width="1587" height="1587" version="1.0" viewBox="0 0 1190.2 1190.2" zoomAndPan="magnify">
 <defs>
  <clipPath id="c" fill="none">
   <path d="m0 0h1189.5v1189.5h-1189.5z" fill="none" />
  </clipPath>
  <clipPath id="a" fill="none">
   <path d="m17.559 118.98h1155v981.88h-1155z" fill="none" />
  </clipPath>
  <clipPath id="b" fill="none">
   <path d="m57 118.98h1115.6v981.88h-1115.6z" fill="none" />
  </clipPath>
 </defs>
 <g clip-path="url(#c)" fill="none">
  <path d="m0 0h1189.5v1189.5h-1189.5z" fill="none" />
  <path d="m0 0h1189.5v1189.5h-1189.5z" fill="none" />
 </g>
 <path d="m188.23 137.7c-16.805 0-34.082 5.9375-46.906 18.762-16.027 16.027-20.426 37.934-16.418 58.625-21.004-4.4336-44.668 2.457-60.98 18.762-25.645 25.645-25.645 65.816 0 91.461 25.648 25.641 68.168 25.641 93.816 0 5.0938-5.0977 8.6523-10.312 11.727-16.418l267.37 267.34 46.906-46.902-267.37-267.34c6.1016-3.0703 11.32-6.625 16.418-11.727 25.645-25.641 25.645-68.16 0-93.801-12.824-12.824-27.758-18.762-44.562-18.762zm816.17 0c-16.805 0-34.086 5.9375-46.906 18.762-25.648 25.641-25.648 68.16 0 93.805 5.0938 5.0938 10.312 8.6523 16.418 11.723l-267.38 267.35 46.91 46.902 267.37-267.35c3.0703 6.1016 6.625 11.32 11.727 16.418 25.645 25.641 68.168 25.641 93.812 0 25.645-25.645 25.645-65.816 0-91.457-16.027-16.027-37.938-22.77-58.633-18.762 4.0078-20.695-2.7305-42.602-18.762-58.629-12.824-12.82-27.758-18.762-44.562-18.762zm-567.57 497.16-267.37 267.34c-3.0703-6.1016-6.6289-11.32-11.727-16.418-25.648-25.641-68.168-25.641-93.816 0-25.645 25.645-25.645 65.816 0 91.461 16.312 16.309 39.977 20.852 60.98 16.414-4.4336 21 0.074219 44.664 16.418 60.973 25.645 25.645 65.824 25.645 91.469 0 25.645-25.645 25.645-68.16 0-93.805-5.0977-5.0938-10.312-8.6523-16.418-11.723l267.37-267.35-46.906-46.902zm316.62 0-46.906 46.902 267.37 267.34c-6.1016 3.0664-11.32 6.625-16.418 11.723-25.645 25.645-25.645 68.164 0 93.805 25.648 25.645 65.824 25.645 91.469 0 16.312-16.309 23.199-39.973 18.762-60.973 20.699 4.0078 42.605-0.375 58.637-16.414 25.645-25.645 25.645-65.816 0-91.461-25.648-25.641-68.168-25.641-93.816 0-5.0938 5.0977-8.6523 10.312-11.727 16.418z" fill="#f06" />
 <g clip-path="url(#a)">
  <path transform="matrix(1.4069 0 0 1.4067 -145.01 79.311)" d="m236.87 41.507c-11.945 0-24.226 4.2209-33.341 13.337-11.392 11.394-14.519 26.966-11.67 41.675-14.93-3.1518-31.75 1.7467-43.345 13.337-18.228 18.23-18.228 46.788 0 65.018 18.231 18.227 48.454 18.227 66.685 0 3.6207-3.6238 6.1501-7.331 8.3353-11.671l190.05 190.05 33.341-33.342-190.05-190.05c4.337-2.1826 8.0466-4.7096 11.67-8.3362 18.228-18.227 18.228-48.454 0-66.681-9.1155-9.1165-19.73-13.337-31.675-13.337zm580.14 0c-11.945 0-24.229 4.2209-33.341 13.337-18.231 18.227-18.231 48.454 0 66.684 3.6207 3.621 7.3302 6.1508 11.67 8.3334l-190.05 190.05 33.344 33.342 190.05-190.05c2.1824 4.3375 4.7091 8.0474 8.3353 11.671 18.228 18.227 48.454 18.227 66.683 0 18.228-18.23 18.228-46.788 0-65.015-11.392-11.394-26.966-16.186-41.677-13.337 2.8488-14.712-1.9408-30.285-13.336-41.678-9.1155-9.1137-19.73-13.337-31.675-13.337zm-403.43 353.42-190.05 190.05c-2.1824-4.3375-4.7119-8.0474-8.3353-11.671-18.231-18.227-48.454-18.227-66.685 0-18.228 18.23-18.228 46.788 0 65.018 11.595 11.593 28.416 14.823 43.345 11.668-3.1514 14.928 0.052755 31.751 11.67 43.344 18.228 18.23 46.788 18.23 65.017 0 18.228-18.23 18.228-48.454 0-66.684-3.6234-3.621-7.3302-6.1508-11.67-8.3334l190.05-190.05-33.341-33.342zm225.06 0-33.341 33.342 190.05 190.05c-4.337 2.1798-8.0466 4.7096-11.67 8.3334-18.228 18.23-18.228 48.456 0 66.684 18.231 18.23 46.788 18.23 65.017 0 11.595-11.593 16.49-28.416 13.336-43.344 14.713 2.8491 30.284-0.26658 41.679-11.668 18.228-18.23 18.228-46.788 0-65.018-18.231-18.227-48.454-18.227-66.685 0-3.6207 3.6238-6.1501 7.331-8.3353 11.671z" fill="none" stroke="#000" stroke-width="26.673" />
 </g>
 <path d="m619.11 243.23c-192.35 0-349.45 126.4-349.45 283.76 0 107.05 73.895 199.89 180.6 248.58v136.02h337.73v-136.02c106.7-48.688 178.25-141.53 178.25-248.58 0-157.36-154.77-283.76-347.11-283.76z" fill="#f06" />
 <g clip-path="url(#b)">
  <path transform="matrix(1.4069 0 0 1.4067 -145.01 79.311)" d="m543.14 116.53c-136.72 0-248.39 89.857-248.39 201.72 0 76.098 52.525 142.1 128.37 176.71v96.691h240.06v-96.691c75.843-34.611 126.7-100.61 126.7-176.71 0-111.86-110.01-201.72-246.73-201.72z" fill="none" stroke="#000" stroke-width="26.673" />
 </g>
 <path d="m569.41 610.29c0 1.3555-0.035156 2.7148-0.10156 4.0703-0.066406 1.3516-0.16797 2.7031-0.30078 4.0547-0.13281 1.3555-0.30078 2.6992-0.5 4.0391-0.19922 1.3438-0.42969 2.6797-0.69531 4.0117-0.26172 1.3281-0.5625 2.6523-0.89062 3.9688-0.32422 1.3164-0.6875 2.6211-1.082 3.9219-0.39453 1.2969-0.82031 2.5859-1.2773 3.8594-0.45312 1.2773-0.94531 2.543-1.4648 3.7969-0.51953 1.2539-1.0703 2.4961-1.6523 3.7227-0.57812 1.2266-1.1875 2.4375-1.8281 3.6328-0.64063 1.1992-1.3125 2.3789-2.0117 3.543-0.69531 1.1641-1.4219 2.3086-2.1758 3.4375-0.75391 1.1289-1.5352 2.2383-2.3438 3.3281-0.80859 1.0898-1.6445 2.1602-2.5039 3.2109-0.86328 1.0469-1.7461 2.0703-2.6562 3.0742-0.91406 1.0078-1.8477 1.9922-2.8047 2.9492-0.96094 0.95703-1.9453 1.8906-2.9453 2.8008-1.0078 0.91406-2.0352 1.8008-3.082 2.6641-1.0508 0.85938-2.1211 1.6914-3.2148 2.5-1.0898 0.80859-2.1953 1.5898-3.3242 2.3438-1.1328 0.75391-2.2812 1.4766-3.4414 2.1797-1.1602 0.69531-2.3398 1.3633-3.5352 2.0039-1.1992 0.64062-2.4141 1.2539-3.6367 1.832-1.2305 0.57812-2.4688 1.1289-3.7227 1.6445-1.2539 0.51953-2.5195 1.0078-3.7969 1.4727-1.2773 0.45703-2.5664 0.88281-3.8633 1.2734-1.3008 0.39062-2.6094 0.75391-3.9219 1.0859-1.3164 0.32812-2.6406 0.62109-3.9727 0.88672-1.3281 0.26562-2.668 0.49609-4.0078 0.69531-1.3438 0.20313-2.6875 0.36719-4.0391 0.5-1.3516 0.13281-2.7031 0.23438-4.0586 0.30469-1.3594 0.066406-2.7109 0.10156-4.0664 0.10156-1.3555 0-2.7109-0.035156-4.0703-0.10156-1.3555-0.070312-2.707-0.17188-4.0547-0.30078-1.3516-0.13672-2.6992-0.30078-4.0391-0.50391-1.3477-0.19922-2.6836-0.42969-4.0156-0.69531s-2.6523-0.5625-3.9727-0.89453c-1.3164-0.32812-2.6211-0.6875-3.918-1.0859-1.3047-0.39062-2.5898-0.81641-3.8672-1.2734-1.2812-0.46094-2.5469-0.95312-3.8008-1.4688-1.25-0.51953-2.4922-1.0703-3.7188-1.6445-1.2266-0.58203-2.4375-1.1914-3.6367-1.8281-1.1992-0.64063-2.3789-1.3125-3.543-2.0117-1.1602-0.69531-2.3047-1.4219-3.4336-2.1758-1.1328-0.75391-2.2383-1.5352-3.3242-2.3438-1.0938-0.80859-2.1641-1.6406-3.207-2.5-1.0508-0.86328-2.0781-1.75-3.0859-2.6641-1.0078-0.90625-1.9883-1.8398-2.9453-2.7969s-1.8984-1.9414-2.8086-2.9492c-0.91406-1.0039-1.8008-2.0312-2.6602-3.0742-0.86328-1.0547-1.6953-2.1211-2.5078-3.2109-0.80859-1.0898-1.5859-2.1992-2.3398-3.3281-0.75391-1.1289-1.4805-2.2734-2.1758-3.4375-0.69922-1.1602-1.3672-2.3398-2.0039-3.5352-0.64062-1.1992-1.25-2.4141-1.832-3.6406-0.58203-1.2266-1.1328-2.4688-1.6523-3.7227-0.51953-1.2539-1.0078-2.5156-1.4648-3.793-0.45312-1.2773-0.87891-2.5625-1.2695-3.8633-0.39453-1.2969-0.75781-2.6016-1.0898-3.9219-0.33203-1.3164-0.62891-2.6406-0.89453-3.9688-0.26172-1.332-0.49609-2.668-0.69531-4.0078-0.19922-1.3438-0.36719-2.6875-0.49609-4.043-0.13281-1.3516-0.23438-2.7031-0.30078-4.0586-0.066407-1.3555-0.097657-2.7109-0.097657-4.0664 0-1.3594 0.03125-2.7148 0.097657-4.0703 0.070312-1.3516 0.16797-2.7031 0.30078-4.0586 0.12891-1.3516 0.29688-2.6992 0.49219-4.0391 0.19922-1.3477 0.4375-2.6836 0.69922-4.0117 0.26562-1.332 0.5625-2.6562 0.89453-3.9727 0.32812-1.3164 0.69141-2.6172 1.0859-3.918 0.39062-1.3008 0.81641-2.5859 1.2734-3.8633 0.45703-1.2812 0.94531-2.5508 1.4648-3.8047 0.51953-1.2539 1.0703-2.4922 1.6523-3.7188 0.58203-1.2227 1.1914-2.4336 1.832-3.6328 0.63672-1.1953 1.3047-2.3789 2.0039-3.543 0.69531-1.168 1.4219-2.3125 2.1758-3.4414 0.75391-1.1289 1.5312-2.2383 2.3398-3.3281 0.8125-1.0898 1.6484-2.1562 2.5117-3.2031 0.85938-1.0469 1.7461-2.0742 2.6562-3.082 0.91016-1.0039 1.8516-1.9883 2.8086-2.9453 0.95703-0.96094 1.9375-1.8945 2.9453-2.8047 1.0078-0.91406 2.0352-1.7969 3.0859-2.6602 1.043-0.86328 2.1133-1.6953 3.207-2.5078 1.0859-0.80469 2.1914-1.5859 3.3242-2.3398 1.1289-0.75391 2.2734-1.4805 3.4336-2.1836 1.1641-0.69531 2.3438-1.3594 3.543-2 1.1992-0.63672 2.4102-1.25 3.6367-1.8281 1.2266-0.58203 2.4688-1.1328 3.7188-1.6523 1.2539-0.51562 2.5195-1.0078 3.8008-1.4609 1.2773-0.45312 2.5625-0.88281 3.8672-1.2734 1.2969-0.39453 2.6016-0.75781 3.9219-1.0859 1.3164-0.32812 2.6367-0.62891 3.9688-0.89453 1.332-0.26563 2.668-0.49609 4.0117-0.69531 1.3398-0.19922 2.6875-0.36328 4.0391-0.49609 1.3516-0.13281 2.7031-0.23438 4.0586-0.30078 1.3594-0.066406 2.7148-0.097656 4.0703-0.097656 1.3555 0 2.707 0.03125 4.0664 0.097656 1.3555 0.066406 2.7109 0.16797 4.0625 0.30078 1.3516 0.13281 2.6953 0.29688 4.0391 0.49609 1.3398 0.19922 2.6758 0.42969 4.0078 0.69531 1.3281 0.26562 2.6523 0.56641 3.9688 0.89453 1.3125 0.32812 2.6211 0.69141 3.9219 1.0859 1.2969 0.39062 2.5859 0.82031 3.8633 1.2773 1.2773 0.45312 2.543 0.94531 3.7969 1.4609 1.2539 0.51953 2.4922 1.0664 3.7227 1.6484 1.2227 0.57812 2.4375 1.1914 3.6328 1.8281 1.1992 0.64062 2.3789 1.3086 3.5391 2.0039 1.1602 0.70312 2.3086 1.4297 3.4414 2.1836 1.1289 0.75391 2.2344 1.5312 3.3242 2.3438 1.0938 0.80859 2.1641 1.6445 3.2148 2.5078 1.0469 0.85938 2.0742 1.7422 3.082 2.6562 1 0.90625 1.9844 1.8438 2.9453 2.8047 0.95703 0.95703 1.8906 1.9375 2.8047 2.9453 0.91016 1.0078 1.793 2.0352 2.6562 3.0859 0.85938 1.043 1.6953 2.1133 2.5039 3.2031 0.80859 1.0898 1.5898 2.1992 2.3438 3.3281 0.75391 1.125 1.4805 2.2695 2.1758 3.4375 0.69922 1.1641 1.3711 2.3438 2.0117 3.543 0.64062 1.1953 1.25 2.4102 1.832 3.6328 0.57812 1.2266 1.1289 2.4648 1.6484 3.7188 0.51953 1.2578 1.0117 2.5234 1.4648 3.8008 0.45703 1.2773 0.88281 2.5625 1.2773 3.8633 0.39453 1.3008 0.75391 2.6016 1.082 3.918 0.32812 1.3164 0.62891 2.6406 0.89062 3.9727 0.26562 1.3281 0.5 2.6641 0.69922 4.0117 0.19531 1.3398 0.36328 2.6875 0.49609 4.0391 0.13281 1.3555 0.23438 2.707 0.30078 4.0586 0.066406 1.3555 0.10156 2.7109 0.10156 4.0703z" />
 <path d="m550.57 806.57 32.117-55.621 32.113-55.617 32.113 55.617 32.117 55.621z" />
 <path d="m833.9 615.91c0 1.3555-0.03125 2.7148-0.097657 4.0703-0.066406 1.3516-0.17188 2.7031-0.30469 4.0586-0.13281 1.3516-0.29688 2.6953-0.5 4.0352-0.19922 1.3438-0.42969 2.6797-0.69141 4.0117-0.26563 1.3281-0.5625 2.6523-0.89063 3.9688-0.32812 1.3164-0.69141 2.625-1.0859 3.9219s-0.82031 2.5859-1.2734 3.8594c-0.45703 1.2773-0.94531 2.543-1.4688 3.7969-0.51953 1.2539-1.0703 2.4961-1.6484 3.7227-0.58203 1.2266-1.1914 2.4375-1.832 3.6328-0.63672 1.1992-1.3086 2.3789-2.0117 3.543-0.69531 1.1641-1.4219 2.3086-2.1719 3.4375-0.75391 1.1289-1.5391 2.2383-2.3477 3.3281-0.80859 1.0898-1.6445 2.1602-2.5039 3.2109-0.85937 1.0469-1.7461 2.0742-2.6523 3.0742-0.91406 1.0078-1.8516 1.9922-2.8086 2.9492-0.96094 0.95703-1.9414 1.8906-2.9453 2.8008-1.0078 0.91406-2.0352 1.8008-3.082 2.6641-1.0508 0.85938-2.1211 1.6914-3.2109 2.5-1.0938 0.80859-2.1992 1.5898-3.3281 2.3438-1.1289 0.75391-2.2773 1.4805-3.4375 2.1797-1.1641 0.69531-2.3438 1.3633-3.5391 2.0039-1.1992 0.64062-2.4102 1.2539-3.6367 1.832-1.2266 0.57812-2.4688 1.1289-3.7227 1.6484-1.2539 0.51563-2.5195 1.0078-3.7969 1.4688-1.2773 0.45703-2.5625 0.88281-3.8633 1.2734s-2.6094 0.75391-3.9219 1.0859c-1.3164 0.32812-2.6406 0.62109-3.9727 0.88672-1.3281 0.26562-2.6641 0.49609-4.0078 0.69531-1.3438 0.20312-2.6875 0.36719-4.0352 0.5-1.3516 0.13281-2.7031 0.23828-4.0625 0.30469-1.3555 0.066406-2.7109 0.10156-4.0664 0.10156s-2.7109-0.035157-4.0703-0.10156c-1.3516-0.066406-2.707-0.17188-4.0547-0.30078-1.3516-0.13672-2.6953-0.30078-4.0391-0.50391-1.3477-0.19922-2.6797-0.42969-4.0156-0.69531-1.3281-0.26562-2.6523-0.5625-3.9727-0.89453-1.3125-0.32812-2.6211-0.6875-3.918-1.0859-1.3008-0.39063-2.5898-0.81641-3.8672-1.2734-1.2812-0.46094-2.5469-0.94922-3.8008-1.4688-1.25-0.51953-2.4883-1.0703-3.7188-1.6445-1.2227-0.58203-2.4336-1.1914-3.6367-1.8281-1.1953-0.64062-2.3789-1.3125-3.543-2.0117-1.1602-0.69531-2.3047-1.4219-3.4336-2.1758s-2.2383-1.5352-3.3242-2.3438c-1.0898-0.80859-2.1602-1.6406-3.207-2.5-1.0508-0.86328-2.0781-1.75-3.0859-2.6641-1.0039-0.90625-1.9883-1.8398-2.9453-2.7969-0.95703-0.95703-1.8984-1.9414-2.8086-2.9492-0.91406-1.0039-1.7969-2.0312-2.6602-3.0742-0.86328-1.0547-1.6953-2.1211-2.5039-3.2109-0.8125-1.0898-1.5898-2.1992-2.3438-3.3281s-1.4805-2.2734-2.1758-3.4375c-0.69922-1.1602-1.3672-2.3398-2.0039-3.5352-0.64062-1.1992-1.25-2.4141-1.832-3.6406s-1.1328-2.4688-1.6523-3.7188c-0.51953-1.2578-1.0078-2.5195-1.4609-3.7969-0.45703-1.2734-0.88281-2.5625-1.2734-3.8594-0.39453-1.3008-0.75781-2.6055-1.0859-3.9219-0.33203-1.3203-0.63281-2.6445-0.89453-3.9727-0.26562-1.332-0.49609-2.668-0.69922-4.0078-0.19922-1.3438-0.36328-2.6875-0.49609-4.0391-0.13281-1.3555-0.23438-2.707-0.30078-4.0586-0.0625-1.3594-0.097656-2.7148-0.097656-4.0703 0-1.3594 0.035156-2.7148 0.10156-4.0703 0.066406-1.3516 0.16406-2.7031 0.29688-4.0547 0.13281-1.3555 0.29688-2.7031 0.49609-4.043 0.19922-1.3477 0.43359-2.6836 0.69922-4.0117 0.26172-1.332 0.5625-2.6562 0.89453-3.9727 0.32422-1.3125 0.6875-2.6172 1.082-3.9141 0.39062-1.3008 0.81641-2.5898 1.2773-3.8672 0.45312-1.2812 0.94141-2.5508 1.4609-3.8047 0.51953-1.2539 1.0703-2.4922 1.6523-3.7148 0.58203-1.2266 1.1914-2.4375 1.832-3.6367 0.63672-1.1953 1.3047-2.3789 2.0039-3.543 0.69531-1.168 1.4219-2.3125 2.1758-3.4414s1.5312-2.2383 2.3438-3.3281c0.80859-1.0898 1.6445-2.1562 2.5078-3.2031 0.85938-1.0469 1.7461-2.0742 2.6562-3.082 0.91016-1.0039 1.8516-1.9883 2.8086-2.9453 0.95703-0.96094 1.9414-1.8945 2.9453-2.8047 1.0078-0.91406 2.0352-1.7969 3.0859-2.6602 1.0469-0.86328 2.1172-1.6953 3.207-2.5078 1.0859-0.80469 2.1953-1.5859 3.3242-2.3398s2.2734-1.4805 3.4336-2.1836c1.1641-0.69531 2.3477-1.3594 3.543-2 1.2031-0.63672 2.4141-1.25 3.6367-1.8281 1.2305-0.58203 2.4688-1.1328 3.7188-1.6484 1.2539-0.51953 2.5195-1.0078 3.8008-1.4648 1.2773-0.45312 2.5664-0.88281 3.8672-1.2734 1.2969-0.39453 2.6055-0.75781 3.9219-1.0859 1.3164-0.32812 2.6406-0.62891 3.9688-0.89453 1.3359-0.26562 2.668-0.49609 4.0117-0.69531s2.6875-0.36328 4.0391-0.49609c1.3516-0.13281 2.707-0.23438 4.0586-0.30078 1.3594-0.066406 2.7148-0.097656 4.0703-0.097656s2.7109 0.03125 4.0664 0.097656c1.3594 0.066406 2.7109 0.16797 4.0664 0.30078 1.3477 0.13281 2.6914 0.29687 4.0352 0.49609s2.6797 0.42969 4.0078 0.69531 2.6523 0.56641 3.9688 0.89453c1.3125 0.32812 2.6211 0.69141 3.9219 1.0859 1.3008 0.39063 2.5859 0.82031 3.8633 1.2773 1.2773 0.45312 2.543 0.94531 3.7969 1.4609 1.2539 0.51953 2.4961 1.0664 3.7227 1.6484 1.2266 0.57812 2.4375 1.1914 3.6328 1.8281 1.1992 0.64062 2.3789 1.3086 3.543 2.0039 1.1602 0.70313 2.3086 1.4297 3.4375 2.1836 1.1289 0.75391 2.2344 1.5312 3.3281 2.3438 1.0898 0.80859 2.1602 1.6445 3.2109 2.5078 1.0469 0.85938 2.0742 1.7422 3.082 2.6562 1.0039 0.91016 1.9844 1.8438 2.9453 2.8047 0.95703 0.95703 1.8945 1.9375 2.8086 2.9453 0.90625 1.0078 1.793 2.0352 2.6523 3.0859 0.85938 1.0469 1.6953 2.1133 2.5039 3.2031 0.80859 1.0898 1.5938 2.1992 2.3477 3.3281 0.75 1.125 1.4766 2.2695 2.1719 3.4375 0.70312 1.1641 1.375 2.3438 2.0117 3.5469 0.64062 1.1953 1.25 2.4062 1.832 3.6289 0.57812 1.2266 1.1289 2.4648 1.6484 3.7188 0.52344 1.2578 1.0117 2.5234 1.4688 3.8008 0.45312 1.2773 0.87891 2.5664 1.2734 3.8672 0.39453 1.2969 0.75391 2.6016 1.082 3.9141 0.33203 1.3164 0.62891 2.6406 0.89453 3.9727 0.26172 1.3281 0.49609 2.6641 0.69531 4.0117 0.19922 1.3398 0.36328 2.6875 0.49609 4.043 0.13281 1.3516 0.23828 2.7031 0.30469 4.0586 0.066407 1.3516 0.097657 2.707 0.097657 4.0664z" />
 <path transform="matrix(1.4069 0 0 1.4067 -145.01 79.311)" d="m474.68 554.77v36.569" fill="none" stroke="#000" stroke-width="11.23" />
 <path transform="matrix(1.4069 0 0 1.4067 -145.01 79.311)" d="m517.51 554.77v36.569" fill="none" stroke="#000" stroke-width="11.23" />
 <path transform="matrix(1.4069 0 0 1.4067 -145.01 79.311)" d="m560.34 554.77v36.569" fill="none" stroke="#000" stroke-width="11.23" />
 <path transform="matrix(1.4069 0 0 1.4067 -145.01 79.311)" d="m603.17 554.77v36.569" fill="none" stroke="#000" stroke-width="11.23" />
</svg>