<?xml version="1.0" encoding="UTF-8"?>
<svg width="1587" height="1587" version="1.0" viewBox="0 0 1190.2 1190.2" xmlns="http://www.w3.org/2000/svg" zoomAndPan="magnify">
 <defs>
  <clipPath id="g">
   <path d="m0 0h1189.5v1189.5h-1189.5z"/>
  </clipPath>
  <clipPath id="e">
   <path d="m159 1092h207v86.258h-207z"/>
  </clipPath>
  <clipPath id="c">
   <path d="m11.816 225h150.18v165h-150.18z"/>
  </clipPath>
  <clipPath id="i">
   <path d="m11.816 772h138.18v165h-138.18z"/>
  </clipPath>
  <clipPath id="a">
   <path d="m1161 320h28.5v58h-28.5z"/>
  </clipPath>
  <clipPath id="h">
   <path d="m1143 227h46.5v93h-46.5z"/>
  </clipPath>
  <clipPath id="j">
   <path d="m1130 787h59.5v153h-59.5z"/>
  </clipPath>
  <clipPath id="f">
   <path d="m530 1138h103v40.258h-103z"/>
  </clipPath>
  <clipPath id="d">
   <path d="m919 1117h113v61.258h-113z"/>
  </clipPath>
  <clipPath id="b">
   <path d="m1034 1170h53v8.2578h-53z"/>
  </clipPath>
 </defs>
 <g clip-path="url(#g)" fill="#fff">
  <path d="m0 0h1189.5v1189.5h-1189.5z"/>
  <path d="m0 0h1189.5v1189.5h-1189.5z"/>
 </g>
 <path d="m405.78 359.56c-1.707 1.0742-2.4375 2.4297-2.3281 4.4258 0.36328 6.5312 5.6875 10.426 12.242 8.8984 3.8281-0.89844 5.9297-4.2383 5.082-8.0859-1.4844-6.6914-8.7266-9.1836-14.996-5.2383z" fill="#c7916f"/>
 <path d="m56.59 302.47c-1.9102 0.65625-2.9297 1.8086-3.2773 3.7773-1.1406 6.4414 3.1523 11.453 9.8828 11.461 3.9336 0.003907 6.7461-2.7695 6.793-6.707 0.085938-6.8555-6.3945-10.938-13.398-8.5312z" fill="#c7916f"/>
 <path d="m44.73 855.89c-1.7617 0.98438-2.5625 2.2969-2.5547 4.2969 0.027344 6.543 5.1445 10.707 11.77 9.5156 3.8711-0.69531 6.1406-3.9258 5.4883-7.8086-1.1367-6.7617-8.2422-9.625-14.703-6.0039z" fill="#c7916f"/>
 <path d="m218.94 574.23c-1.3555 0.46484-2.0781 1.2773-2.3242 2.6758-0.80859 4.5703 2.2344 8.1289 7.0117 8.1328 2.7891 0.003906 4.7852-1.9648 4.8203-4.7578 0.058594-4.8633-4.5391-7.7617-9.5078-6.0508z" fill="#c7916f"/>
 <path d="m487.24 863.27c-3.4727-1.2734-7.043-1.3125-10.535-0.058593-2.8398 1.0234-5.0391 2.7852-5.4766 6.0156-0.4375 3.2344 1.1016 5.5 3.4492 6.9609 3.793 2.7148 8.3633 3.2812 12.547 1.6523 3.082-1.1992 5.6172-3.1953 5.6523-6.6836 0.03125-3.4648-1.5391-6.3828-5.6367-7.8867z" fill="#c7916f"/>
 <path d="m870.72 314.1c-1.3008-3.2148-3.8711-5.3047-8.2344-5.1211-3.6953 0.15625-7.0039 1.4883-9.7461 3.9883-2.2344 2.0352-3.5898 4.5039-2.75 7.6562 0.83594 3.1523 3.125 4.6523 5.8555 5.1094 4.543 1.0469 8.9805-0.18359 12.219-3.293 2.3867-2.2891 3.9609-5.1055 2.6562-8.3398z" fill="#c7916f"/>
 <path d="m251.04 19.109c-3.5742 0.94531-6.5234 2.9531-8.668 5.9805-1.7461 2.4648-2.5391 5.168-1.0469 8.0664 1.4922 2.9023 4.0508 3.8789 6.8125 3.7344 4.6641 0.054687 8.7344-2.0977 11.234-5.8281 1.8398-2.7461 2.7734-5.832 0.80859-8.7148-1.957-2.8594-4.9141-4.3555-9.1406-3.2383z" fill="#c7916f"/>
 <path d="m592.12 15.102c-1.3555 0.46875-2.0781 1.2812-2.3242 2.6797-0.80859 4.5703 2.2344 8.125 7.0078 8.1328 2.793 0 4.7852-1.9648 4.8203-4.7617 0.0625-4.8594-4.5352-7.7578-9.5039-6.0508z" fill="#c7916f"/>
 <path d="m1001.9 29.371c-1.4805-6.6914-8.7266-9.1875-14.992-5.2422-1.7109 1.0781-2.4414 2.4297-2.3281 4.4258 0.36328 6.5312 5.6875 10.43 12.238 8.8984 3.832-0.89453 5.9336-4.2383 5.082-8.082z" fill="#c7916f"/>
 <path d="m870.18 959.14c-1.3555 0.46875-2.0781 1.2812-2.3242 2.6797-0.80859 4.5703 2.2344 8.125 7.0117 8.1289 2.7891 0.003907 4.7852-1.9648 4.8203-4.7578 0.058594-4.8594-4.5391-7.7578-9.5078-6.0508z" fill="#c7916f"/>
 <path d="m941.66 636.78c-1.457 1.3984-1.8984 2.8711-1.3828 4.8047 1.6836 6.3203 7.6875 9.0547 13.793 6.2266 3.5664-1.6562 4.9492-5.3555 3.3359-8.9492-2.8125-6.25-10.41-7.2188-15.746-2.082z" fill="#c7916f"/>
 <path d="m640.95 607.86c-1.3555 0.46484-2.0781 1.2812-2.3242 2.6797-0.80859 4.5703 2.2344 8.125 7.0117 8.1289 2.7891 0.003906 4.7852-1.9648 4.8203-4.7578 0.058594-4.8633-4.5391-7.7578-9.5078-6.0508z" fill="#c7916f"/>
 <path d="m340.21 303.73c-2.2188 5.9062-1.4648 11.773 0.57812 17.508 2.9258 8.2188 7.6055 15.348 13.93 21.391 0.52344 0.5 1.5117 0.82031 1.1328 2.043-1.1914 0.015625-2.3594 0.0625-3.5312 0.042969-5.875-0.09375-11.688 0.38672-17.324 2.1211-5.8555 1.8008-11.363 4.2852-15.895 8.5938-7.5156 7.1484-6.4922 16.707 0.066406 23.117 4.4023 4.3008 9.7734 6.707 15.727 8.0312 2.8906 0.64453 5.9102 0.55078 8.7344 1.5508 2.3594-0.76953 4.4922-0.039062 6.5664 1.0195 0.10938-1.3398 1.1562-1.3398 2.0938-1.4297 1.3047-0.11719 2.6133-0.21875 3.918-0.24609 3.6133-0.066406 7.168-1.0508 10.902-0.89062-0.39844 1.1406-1.207 1.6836-1.8438 2.3633-5.5039 5.832-10.754 11.844-14.027 19.297-2.8086 6.3945-5.0508 12.918-4.4688 20.043 0.54687 6.7188 3.7305 11.805 9.957 14.594 6.1953 2.7812 12.535 2.6914 18.766 0.019532 7.4492-3.1914 13.824-7.9297 19.441-13.742 5.0234-5.1914 8.9258-11.172 12.543-17.375 0.62891-1.082 1.0742-2.3672 2.2734-3.1094 1.1016 0.89453 1.5156 2.0234 2.1016 3.0234 3.2812 5.6133 7.3477 10.574 12.227 14.863 7.3789 6.4922 15.758 10.707 25.738 11.23 5.4883 0.28906 10.738-0.51953 15.285-3.8633 7.6992-5.6602 9.3555-13.609 7.6055-22.344-1.9727-9.8711-7.4258-17.98-14.254-25.211-0.64844-0.6875-1.4883-1.2148-1.8398-2.3945 4.8906-0.31641 9.7578-0.63672 14.504-1.6367 10.207-2.1445 19.34-6.7266 27.488-13.164 4.2461-3.3555 7.7539-7.4102 9.8008-12.566 4.7188-11.855-0.054687-22.043-11.113-26.176-7.1172-2.6562-14.438-3.0703-21.848-1.8516-8.7695 1.4414-17.109 4.2266-24.93 8.5273-2.332 1.2852-4.7461 2.4219-7.2227 3.6758-0.22266-1.25 0.33984-1.957 0.62109-2.7109 4.8047-12.809 7.0195-25.992 5.6875-39.668-0.53906-5.5117-1.7695-10.84-4.8359-15.57-5.0703-7.8242-13.438-10.164-21.844-6.2227-4.8633 2.2852-8.7852 5.7344-12.168 9.793-7.7422 9.2852-13.219 19.809-16.758 31.359-0.82812 2.7109-1.707 5.4062-2.5898 8.1914-1.2773-0.78516-1.4727-1.8711-1.875-2.8398-5.2578-12.566-13.965-21.75-26.57-27.145-2.6797-1.1484-5.4453-1.6914-8.3359-1.7969-6.7422-0.25781-12.031 3.2188-14.414 9.5547zm65.562 55.832c6.2695-3.9453 13.512-1.4492 14.996 5.2383 0.85156 3.8477-1.25 7.1875-5.082 8.0859-6.5508 1.5312-11.875-2.3672-12.238-8.8984-0.11328-2 0.61719-3.3516 2.3242-4.4258z" fill="#f3f1ed"/>
 <g clip-path="url(#e)">
  <path d="m350.85 1140.4c-8.4883-3.0234-17.078-2.8281-25.68-0.32031-11.066 3.2305-20.82 8.8359-29.645 16.18-1.5547 1.2891-3.0195 2.7812-5.25 3.7461 0.64062-3.6719 1.2812-6.9375 1.7695-10.219 1.543-10.402 2.7539-20.812 1.1289-31.34-1.0469-6.7539-3.5078-12.883-7.8125-18.203-2.9414-3.6406-6.7188-6.1211-11.336-7.0547-9.1094-1.8516-16.977 0.69922-23.66 7.0469-5.9414 5.6445-9.6953 12.684-12.508 20.238-3.1758 8.543-4.7344 17.469-5.7148 26.504-0.30859 2.8633-0.65234 5.7266-1.043 9.125-3.1055-4.1211-5.7305-7.8047-8.7188-11.211-7.1055-8.0938-15.328-14.75-25.219-19.059-8.4531-3.6797-17.207-4.8672-26.09-1.2852-5.3984 2.1797-9.1992 5.8828-10.699 11.664-0.78516 3.0117-1.4336 6.0859-1.1172 9.1875 1.1055 10.844 4.8008 20.559 12.316 28.742 1.3164 1.4375 2.6758 2.8008 4.0781 4.1055h182.41c1.9297-2.6758 3.625-5.5117 4.9648-8.5898 1.7695-4.0703 2.918-8.3203 2.125-12.863-1.457-8.3594-6.5312-13.625-14.305-16.395z" fill="#f3f1ed"/>
 </g>
 <g clip-path="url(#c)">
  <path d="m46.305 353.69c0.86328-0.91016 1.5859-2.0586 2.9258-2.5039 0.87109 1.1172 1.0156 2.3125 1.3555 3.4219 1.9102 6.2109 4.7344 11.973 8.5039 17.266 5.6992 8.0039 12.891 14.023 22.488 16.816 5.2773 1.5312 10.574 1.9453 15.766-0.26953 8.7891-3.75 12.215-11.109 12.512-20.016 0.33594-10.062-3.1172-19.199-8.1133-27.801-0.47266-0.81641-1.1719-1.5234-1.2422-2.7539 4.8281 0.8125 9.6406 1.6133 14.492 1.7266 10.43 0.24219 20.363-2.1289 29.773-6.5352 4.8984-2.293 9.2383-5.4414 12.414-9.9922 7.3047-10.461 4.9844-21.469-4.8398-28.023-6.3203-4.2109-13.355-6.2891-20.844-6.793-8.8672-0.60156-17.625 0.20312-26.219 2.6016-2.5625 0.71484-5.1758 1.2695-7.8711 1.9258 0.066406-1.2695 0.77734-1.8281 1.2266-2.5 7.6055-11.371 12.773-23.695 14.602-37.316 0.73828-5.4844 0.75781-10.957-1.1484-16.262-3.1445-8.7773-10.758-12.969-19.84-11.051-5.2578 1.1094-9.8633 3.5742-14.086 6.75-9.6602 7.2695-17.398 16.262-23.48 26.695-1.4297 2.4492-2.8984 4.875-4.3945 7.3828-1.0664-1.0547-1.0078-2.1523-1.1797-3.1914-2.2461-13.438-8.6211-24.367-19.66-32.5-2.3477-1.7305-4.9141-2.8906-7.7031-3.6562-3.5664-0.98047-6.9609-0.76953-9.9258 0.54688v92.031c0.32031 0.074219 0.63672 0.15234 0.95312 0.24219-0.27734 0.4375-0.60547 0.75391-0.95312 1.0078v54.93c6.5312-1.6367 12.594-4.4531 18.309-8.1289 6.0742-3.9062 11.242-8.8359 16.18-14.051zm7.0078-47.449c0.34766-1.9688 1.3672-3.1172 3.2773-3.7734 7.0039-2.4102 13.484 1.6758 13.398 8.5273-0.050781 3.9375-2.8633 6.7148-6.7969 6.707-6.7266-0.003906-11.02-5.0156-9.8789-11.461z" fill="#f3f1ed"/>
 </g>
 <g clip-path="url(#i)">
  <path d="m137.62 831.5c-6.9688-3.0195-14.262-3.8086-21.719-2.9727-8.8359 0.98828-17.309 3.3398-25.336 7.2344-2.3984 1.1602-4.8672 2.1719-7.4023 3.2969-0.16016-1.2617 0.4375-1.9336 0.75781-2.6758 5.457-12.547 8.3477-25.598 7.7227-39.324-0.25391-5.5273-1.2109-10.914-4.0273-15.797-4.6602-8.0781-12.898-10.844-21.492-7.3398-4.9766 2.0312-9.0703 5.2773-12.66 9.1562-8.2109 8.8711-14.223 19.098-18.348 30.453-0.96875 2.6641-1.9844 5.3086-3.0078 8.0469-1.2383-0.84766-1.375-1.9414-1.7305-2.9336-3.7266-10.387-9.832-18.668-18.562-24.652v142.93c6.9258-2.8164 13.016-6.9805 18.504-12.098 5.2812-4.9258 9.4883-10.699 13.418-16.707 0.6875-1.0508 1.1953-2.3086 2.4336-2.9883 1.0508 0.94531 1.4102 2.0977 1.9414 3.1289 2.9844 5.7695 6.793 10.938 11.445 15.473 7.0352 6.8594 15.184 11.5 25.125 12.539 5.4648 0.57031 10.754 0.03125 15.465-3.0742 7.9805-5.2539 10.043-13.109 8.7461-21.926-1.4648-9.957-6.4922-18.336-12.938-25.906-0.61328-0.72266-1.4258-1.293-1.7148-2.4883 4.8984-0.066406 9.7734-0.13281 14.566-0.88672 10.309-1.6172 19.66-5.7227 28.133-11.73 4.4102-3.1328 8.1211-7.0039 10.434-12.047 5.3242-11.598 1.082-22.016-9.7539-26.715zm-83.676 38.199c-6.625 1.1914-11.742-2.9727-11.77-9.5156-0.007812-2 0.79297-3.3125 2.5547-4.3008 6.4609-3.6172 13.566-0.75391 14.703 6.0039 0.65234 3.8867-1.6211 7.1172-5.4883 7.8125z" fill="#f3f1ed"/>
 </g>
 <path d="m171.38 583.88c1.7539-0.14844 3.1055 0.70312 4.3711 1.7695 0.28906-0.90625 1.0156-0.73828 1.6758-0.64453 0.91797 0.12891 1.8398 0.26953 2.7461 0.46484 2.5078 0.53906 5.1172 0.4375 7.6719 1.1523-0.45703 0.72266-1.1055 0.96484-1.6562 1.332-4.7461 3.1367-9.3438 6.4375-12.816 11.055-2.9766 3.9609-5.582 8.1016-6.3398 13.117-0.71094 4.7305 0.66797 8.7578 4.5117 11.695 3.8281 2.9258 8.2227 3.8906 12.957 3.0586 5.6641-0.99609 10.836-3.2383 15.656-6.3398 4.3125-2.7695 7.9766-6.2695 11.48-9.9688 0.61328-0.64453 1.125-1.4609 2.0781-1.7773 0.61328 0.79297 0.71875 1.6445 0.95703 2.4297 1.3555 4.4062 3.3594 8.4922 6.0352 12.246 4.043 5.6797 9.1445 9.9492 15.953 11.93 3.7461 1.0898 7.5078 1.3828 11.188-0.1875 6.2344-2.6641 8.668-7.8828 8.8789-14.203 0.23828-7.1367-2.2148-13.621-5.7578-19.723-0.33594-0.58203-0.83203-1.0781-0.88281-1.9531 3.4297 0.57422 6.8438 1.1445 10.281 1.2227 7.4023 0.17578 14.449-1.5078 21.125-4.6367 3.4766-1.625 6.5547-3.8594 8.8086-7.0859 5.1797-7.4258 3.5352-15.234-3.4336-19.883-4.4844-2.9883-9.4766-4.4609-14.789-4.8203-6.2891-0.42969-12.504 0.14453-18.598 1.8438-1.8203 0.51172-3.6758 0.90234-5.5859 1.3672 0.046874-0.89844 0.55078-1.2969 0.86719-1.7734 5.3984-8.0664 9.0625-16.812 10.359-26.477 0.52344-3.8906 0.53906-7.7734-0.8125-11.535-2.2305-6.2305-7.6328-9.2031-14.074-7.8398-3.7305 0.78906-7 2.5352-9.9961 4.7891-6.8516 5.1562-12.34 11.535-16.656 18.938-1.0156 1.7383-2.0586 3.457-3.1211 5.2383-0.75391-0.74609-0.71094-1.5273-0.83594-2.2656-1.5898-9.5312-6.1172-17.285-13.945-23.055-1.668-1.2305-3.4883-2.0508-5.4688-2.5977-4.6133-1.2656-8.832 0.27734-11.504 4.2695-2.4922 3.7188-2.9219 7.8945-2.4414 12.184 0.69141 6.1523 2.7656 11.836 6.1523 17.035 0.28125 0.42969 0.91016 0.8125 0.45312 1.5938-0.82422-0.18359-1.6406-0.33984-2.4492-0.54297-4.0391-1.0195-8.1328-1.6289-12.305-1.3438-4.3359 0.29297-8.543 1.1133-12.371 3.3555-6.3516 3.7188-7.1953 10.488-3.7031 15.977 2.3398 3.6875 5.6602 6.2227 9.5547 8.0977 1.8906 0.91797 3.9922 1.3438 5.7812 2.4922zm45.23-6.9688c0.24609-1.3984 0.97266-2.2148 2.3242-2.6797 4.9688-1.707 9.5664 1.1875 9.5078 6.0508-0.035156 2.793-2.0312 4.7617-4.8203 4.7578-4.7773-0.003906-7.8203-3.5625-7.0117-8.1289z" fill="#f3f1ed"/>
 <path d="m526.91 918.56c-0.66016-2.6211-1.8789-5.1172-2.0117-7.832 1.1094-0.55859 2.0391-0.10156 2.9258 0.12891 15.656 4.125 31.402 4.1602 47.195 0.97266 6.9258-1.3945 13.723-3.3125 19.805-7.0547 3.7812-2.3242 7.1562-5.1523 9.1055-9.3281 3.5898-7.6914 2.4453-14.91-2.3477-21.629-5.2305-7.3398-12.383-12.098-20.871-14.961-10.926-3.6875-22.129-4.6719-33.566-3.7031-2.0156 0.16797-4.0703 0.55078-6.4531 0.066406 2.6289-2.6445 5.0234-4.9531 7.3008-7.3672 7.2227-7.6445 14.172-15.488 18.863-25.051 3.0117-6.1367 4.5-12.574 4.0156-19.398-0.33203-4.668-2.0078-8.8633-5.2578-12.273-6.4102-6.7344-14.324-9.1445-23.438-7.7617-8.1016 1.2266-15.211 4.8477-21.84 9.4336-7.4961 5.1875-13.883 11.613-19.855 18.465-1.8906 2.1719-3.8125 4.3203-6.0781 6.8828-0.1875-5.1562-0.23438-9.6758-0.73438-14.18-1.1914-10.707-4.125-20.871-9.7695-30.066-4.8242-7.8555-11.324-13.84-20.656-15.984-5.6758-1.3047-10.914-0.44141-15.453 3.4375-2.3672 2.0234-4.6562 4.1719-6.1719 6.8984-5.3047 9.5234-7.8281 19.602-6.3555 30.617 1.5859 11.832 6.0117 22.539 12.039 32.703 1.6328 2.7539 3.1484 5.5781 4.7188 8.3711-0.1875 0.16406-0.37891 0.32422-0.56641 0.48438-7.5977-4.4258-15.277-8.6992-23.234-12.434-9.7188-4.5703-19.59-8.7891-30.02-11.488-6.4023-1.6562-12.914-2.6328-19.473-0.92969-7.2422 1.8789-12.629 6.0898-15.414 13.18-2.4961 6.3516-1.793 12.676 0.67188 18.859 4.8711 12.199 13.832 20.336 25.66 25.59 10.32 4.582 21.184 7.2617 32.238 9.3008 0.83594 0.15625 1.9102-0.125 2.5117 1-0.95312 0.37891-1.8242 0.76562-2.7227 1.0703-14.535 4.9492-25.414 14.355-33.262 27.391-2.4141 4.0078-4.0391 8.3867-4.8203 13.016-1.1758 6.9297 0.30469 13.07 5.8047 17.836 3.2891 2.8477 7.2539 3.9844 11.516 4.2383 6.4062 0.38281 12.68-0.63281 18.715-2.5898 15.129-4.9023 29.137-11.91 40.852-22.965 0.96484-0.91797 1.8164-2.2383 3.5547-2.3594 0.77344 2.0859 0.75 4.2539 1.0742 6.3438 1.4922 9.6719 4.4688 18.758 9.7773 27.074 4.3516 6.8203 9.75 12.66 16.012 17.672 4.5 3.6016 9.543 6.3164 15.297 7.4492 7.6172 1.5 15.23-1.3555 19.332-7.8164 2.2227-3.4961 3.6133-7.2305 4.3477-11.266 2.4688-13.605 0.35547-26.863-2.9609-40.043zm-39.688-40.723c-4.1836 1.6289-8.7539 1.0625-12.547-1.6523-2.3477-1.4609-3.8867-3.7266-3.4492-6.9609 0.4375-3.2305 2.6367-4.9922 5.4766-6.0156 3.4922-1.2539 7.0586-1.2148 10.535 0.058593 4.0977 1.5039 5.6719 4.4219 5.6367 7.8867-0.035156 3.4883-2.5703 5.4844-5.6523 6.6836z" fill="#f3f1ed"/>
 <g clip-path="url(#a)">
  <path d="m1170.4 337.39c-4.1953 5.582-7.8672 11.418-8.9336 18.488-1.0039 6.668 0.9375 12.344 6.3594 16.484 5.3945 4.1211 11.586 5.4844 18.266 4.3086 1.2695-0.22656 2.5234-0.49219 3.7578-0.80469v-54.93c-0.45313 0.33984-0.94141 0.57812-1.3828 0.86719-6.6875 4.4258-13.172 9.0742-18.066 15.586z" fill="#f3f1ed"/>
 </g>
 <g clip-path="url(#h)">
  <path d="m1183.6 233.13c-3.5117 5.2422-4.1172 11.125-3.4414 17.176 0.97266 8.6719 3.8984 16.68 8.6719 24.008 0.39453 0.60547 1.2812 1.1445 0.63672 2.25-1.1602-0.25781-2.3125-0.48047-3.4492-0.76953-5.6953-1.4336-11.465-2.293-17.348-1.8945-6.1133 0.41797-12.043 1.5742-17.438 4.7305-8.9531 5.2422-10.141 14.785-5.2227 22.523 3.3047 5.1914 7.9805 8.7656 13.473 11.414 2.6719 1.2852 5.6289 1.8867 8.1484 3.5039 2.4727-0.20312 4.3828 0.99219 6.1602 2.4961 0.41406-1.2773 1.4336-1.0391 2.3672-0.91016 1.2969 0.17969 2.5898 0.38281 3.8711 0.65625 3.2188 0.69141 6.5664 0.63281 9.8633 1.3828v-92.031c-2.4414 1.082-4.5898 2.9219-6.293 5.4648z" fill="#f3f1ed"/>
 </g>
 <g clip-path="url(#j)">
  <path d="m1175.1 787.95c-6.7148-0.60156-12.176 2.5977-14.883 8.8047-2.5234 5.7852-2.0703 11.684-0.32422 17.516 2.5 8.3594 6.8047 15.719 12.809 22.078 0.49609 0.52734 1.4648 0.89844 1.0273 2.1016-1.1914-0.046874-2.3633-0.0625-3.5312-0.14453-5.8594-0.39453-11.691-0.21484-17.406 1.2266-5.9414 1.5-11.57 3.6953-16.316 7.7656-7.875 6.7539-7.3438 16.352-1.125 23.09 4.1758 4.5195 9.4141 7.2031 15.289 8.832 2.8594 0.78906 5.875 0.85547 8.6445 1.9961 2.3984-0.64453 4.4883 0.19141 6.5078 1.3594 0.17578-1.332 1.2227-1.2812 2.1641-1.3203 1.3086-0.050781 2.6172-0.085938 3.9258-0.042969 3.6133 0.11719 7.2109-0.67969 10.934-0.32812-0.45703 1.1172-1.293 1.6172-1.9648 2.2617-5.793 5.543-11.344 11.277-15 18.551-3.1328 6.2383-5.707 12.641-5.4961 19.785 0.19922 6.7422 3.1211 11.98 9.1953 15.09 6.043 3.0938 12.379 3.3281 18.738 0.98438 0.54688-0.20312 1.0859-0.41016 1.6211-0.62891v-142.93c-2.0469-1.4023-4.2344-2.6758-6.5742-3.8242-2.6172-1.2852-5.3516-1.9688-8.2344-2.2227z" fill="#f3f1ed"/>
 </g>
 <path d="m814.91 419.48c6.0664-2.1055 11.469-5.4492 16.289-9.5703 12.094-10.332 22.336-22.176 28.914-36.883 0.54297-1.2148 0.82031-2.7656 2.375-3.5391 1.5195 1.625 2.3281 3.6406 3.4297 5.4453 5.0859 8.3555 11.32 15.609 19.414 21.25 6.6367 4.6289 13.859 7.9492 21.566 10.176 5.5391 1.5977 11.238 2.1719 16.984 1.0117 7.6133-1.5391 13.547-7.0977 14.859-14.637 0.70703-4.082 0.55859-8.0625-0.3125-12.07-2.9375-13.512-9.9766-24.949-18.094-35.844-1.6133-2.168-3.6953-4.0039-4.8633-6.4609 0.8125-0.94141 1.8477-0.87891 2.7539-1.0039 16.039-2.1992 30.594-8.207 43.957-17.207 5.8594-3.9453 11.398-8.3242 15.582-14.113 2.6016-3.5977 4.6328-7.5039 4.8281-12.109 0.36719-8.4766-3.4648-14.707-10.465-19.074-7.6445-4.7695-16.078-6.418-25.016-5.8086-11.504 0.78516-22.227 4.1758-32.418 9.4609-1.7969 0.92578-3.5469 2.0703-5.9336 2.5352 1.4141-3.4492 2.7383-6.5 3.918-9.6055 3.7344-9.8281 7.1445-19.738 7.8047-30.367 0.42578-6.8242-0.66406-13.34-3.7305-19.457-2.0977-4.1836-5.2578-7.4141-9.5664-9.3164-8.5039-3.7578-16.734-2.9492-24.625 1.8242-7.0078 4.2383-12.184 10.312-16.543 17.09-4.9336 7.668-8.3672 16.051-11.254 24.668-0.91406 2.7344-1.8633 5.4531-2.9727 8.6914-2.1523-4.6914-3.9258-8.8477-6.1172-12.816-5.207-9.4258-11.816-17.688-20.559-24.016-7.4688-5.4023-15.766-8.4336-25.207-6.8359-5.7422 0.97266-10.246 3.7773-12.949 9.1016-1.4102 2.7773-2.7031 5.6406-3.0547 8.7383-1.2422 10.832 0.28906 21.109 5.8789 30.715 6.0039 10.32 14.199 18.508 23.66 25.582 2.5664 1.918 5.0508 3.9453 7.5742 5.918-0.11328 0.22656-0.22656 0.44531-0.33984 0.66797-8.7148-1.1758-17.445-2.1758-26.227-2.5703-10.727-0.48828-21.465-0.59766-32.129 0.91016-6.5508 0.92578-12.934 2.5234-18.34 6.6094-5.9688 4.5156-9.3242 10.469-9.1797 18.086 0.13281 6.8203 3.2109 12.395 7.8594 17.156 9.1758 9.3984 20.574 13.477 33.512 13.789 11.289 0.27344 22.348-1.418 33.34-3.7773 0.83203-0.17969 1.7148-0.85156 2.7031-0.042969-0.73438 0.71484-1.3906 1.4062-2.1055 2.0312-11.523 10.148-17.957 23.012-20.207 38.059-0.6875 4.625-0.50781 9.2969 0.54297 13.871 1.5742 6.8477 5.2969 11.949 12.203 14.238 4.1289 1.375 8.2266 0.90234 12.258-0.5zm37.828-106.51c2.7422-2.5 6.0508-3.832 9.7461-3.9883 4.3633-0.18359 6.9336 1.9062 8.2344 5.1211 1.3047 3.2344-0.26953 6.0508-2.6562 8.3398-3.2383 3.1094-7.6758 4.3398-12.219 3.293-2.7305-0.45312-5.0195-1.957-5.8555-5.1094-0.83984-3.1523 0.51562-5.625 2.75-7.6562z" fill="#f3f1ed"/>
 <path d="m141.02 76.82c10.977 7.2188 22.98 8.7617 35.688 6.3008 11.086-2.1523 21.527-6.1719 31.762-10.828 0.77344-0.35156 1.4922-1.1953 2.6328-0.61719-0.56641 0.85547-1.0625 1.6719-1.6211 2.4375-9.0898 12.375-12.621 26.316-11.598 41.496 0.31641 4.668 1.4922 9.1914 3.4961 13.434 3.0039 6.3516 7.7305 10.539 14.969 11.301 4.3281 0.45312 8.2266-0.88672 11.867-3.1172 5.4727-3.3516 10.039-7.7773 13.863-12.832 9.6016-12.68 17.074-26.445 20.355-42.215 0.26953-1.3008 0.21094-2.875 1.5625-3.9648 1.8281 1.2656 3.0547 3.0547 4.5117 4.5859 6.7617 7.0742 14.402 12.824 23.516 16.605 7.4727 3.0977 15.238 4.7969 23.246 5.3203 5.75 0.37891 11.438-0.27734 16.809-2.6445 7.1016-3.1289 11.711-9.8281 11.379-17.473-0.17969-4.1406-1.1758-7.9961-2.8867-11.727-5.7578-12.57-15.082-22.234-25.344-31.141-2.043-1.7734-4.4688-3.1211-6.1367-5.2695 0.59375-1.0977 1.6172-1.2539 2.4805-1.5703 15.195-5.5781 28.125-14.566 39.254-26.215 2.5859-2.707 5.0586-5.5156 7.2344-8.5312h-182.41c7.1992 6.6914 15.504 11.734 24.508 15.824 2.918 1.3242 5.7773 2.7734 8.6641 4.1641-0.0625 0.24219-0.12891 0.48047-0.19141 0.72266-8.7617 0.71484-17.504 1.6094-26.168 3.0977-10.582 1.8203-21.094 4.0078-31.191 7.7656-6.1953 2.3047-12.094 5.2305-16.5 10.383-4.8633 5.6836-6.8672 12.223-5.0938 19.629 1.5898 6.6367 5.7852 11.422 11.344 15.078zm101.36-51.73c2.1445-3.0273 5.0938-5.0352 8.668-5.9805 4.2266-1.1172 7.1836 0.37891 9.1406 3.2383 1.9648 2.8828 1.0312 5.9688-0.80859 8.7148-2.5 3.7305-6.5703 5.8828-11.234 5.8281-2.7656 0.14453-5.3242-0.83203-6.8125-3.7344-1.4922-2.8984-0.69922-5.6016 1.0469-8.0664z" fill="#f3f1ed"/>
 <path d="m538.79 22.266c1.8945 0.91016 3.9922 1.3398 5.7852 2.4844 1.75-0.14453 3.1055 0.70312 4.3672 1.7734 0.29297-0.91016 1.0195-0.74219 1.6797-0.64844 0.91797 0.12891 1.8398 0.26953 2.7461 0.46484 2.5039 0.53906 5.1172 0.4375 7.6719 1.1523-0.45703 0.72266-1.1055 0.96875-1.6562 1.332-4.7461 3.1367-9.3477 6.4375-12.816 11.055-2.9766 3.9609-5.582 8.1016-6.3398 13.117-0.71094 4.7305 0.66406 8.7578 4.5117 11.695 3.8281 2.9258 8.2188 3.8906 12.957 3.0586 5.6641-0.99609 10.836-3.2383 15.656-6.3398 4.3125-2.7734 7.9766-6.2695 11.48-9.9688 0.61328-0.64453 1.125-1.4609 2.0742-1.7773 0.61719 0.79297 0.72266 1.6445 0.96094 2.4297 1.3555 4.4062 3.3594 8.4961 6.0352 12.25 4.043 5.6758 9.1445 9.9492 15.953 11.93 3.7461 1.0898 7.5039 1.3789 11.188-0.19141 6.2344-2.6602 8.6641-7.8828 8.875-14.199 0.23828-7.1406-2.2109-13.625-5.7539-19.723-0.33594-0.58203-0.83203-1.082-0.88281-1.9531 3.4258 0.57422 6.8398 1.1406 10.281 1.2227 7.3984 0.17187 14.449-1.5117 21.121-4.6367 3.4766-1.625 6.5547-3.8633 8.8086-7.0859 5.1836-7.4258 3.5352-15.234-3.4336-19.883-4.4844-2.9922-9.4727-4.4609-14.785-4.8242-6.293-0.42578-12.504 0.14453-18.602 1.8477-1.8203 0.50781-3.6719 0.90234-5.5859 1.3672 0.046875-0.89844 0.55078-1.2969 0.87109-1.7734 1.3711-2.0508 2.6289-4.1445 3.7695-6.2852h-95.383c-3.918 3.8516-4.0508 9.3828-1.1133 14.008 2.3438 3.6875 5.6641 6.2227 9.5586 8.1016zm51.016-4.4844c0.24609-1.3984 0.96875-2.2148 2.3242-2.6797 4.9688-1.707 9.5664 1.1875 9.5039 6.0508-0.035156 2.793-2.0273 4.7617-4.8203 4.7578-4.7734-0.003906-7.8164-3.5586-7.0078-8.1289z" fill="#f3f1ed"/>
 <path d="m1034.5 0.15625c-0.97656 0.48047-1.9492 0.98828-2.9102 1.5195-2.332 1.2812-4.75 2.418-7.2227 3.6719-0.22656-1.25 0.33594-1.957 0.62109-2.7109 0.30859-0.82422 0.60547-1.6523 0.89453-2.4805h-96.344c1.8594 2.4922 3.9492 4.8398 6.2539 7.043 0.52344 0.5 1.5117 0.82031 1.1328 2.043-1.1914 0.011718-2.3594 0.058593-3.5312 0.039062-5.875-0.09375-11.688 0.38672-17.324 2.1211-5.8555 1.8008-11.363 4.2852-15.895 8.5938-7.5156 7.1484-6.4922 16.707 0.066407 23.117 4.4023 4.3008 9.7734 6.707 15.723 8.0312 2.8945 0.64453 5.9141 0.55078 8.7383 1.5508 2.3594-0.76562 4.4883-0.039062 6.5664 1.0195 0.10938-1.3359 1.1562-1.3398 2.0938-1.4258 1.3008-0.12109 2.6094-0.22266 3.918-0.24609 3.6133-0.070313 7.1641-1.0508 10.902-0.89062-0.39844 1.1367-1.2109 1.6836-1.8477 2.3594-5.5 5.832-10.75 11.844-14.023 19.301-2.8086 6.3906-5.0508 12.914-4.4727 20.039 0.55078 6.7227 3.7344 11.805 9.9609 14.598 6.1953 2.7773 12.535 2.6875 18.766 0.015625 7.4453-3.1914 13.82-7.9297 19.441-13.742 5.0195-5.1914 8.9258-11.172 12.539-17.375 0.63281-1.0859 1.0703-2.3672 2.2734-3.1094 1.1016 0.89062 1.5156 2.0234 2.1016 3.0234 3.2812 5.6094 7.3477 10.574 12.227 14.863 7.3789 6.4883 15.758 10.707 25.738 11.23 5.4883 0.28516 10.742-0.52344 15.289-3.8672 7.6953-5.6602 9.3516-13.605 7.6055-22.344-1.9766-9.8711-7.4297-17.98-14.258-25.211-0.64844-0.6875-1.4844-1.2148-1.8398-2.3945 4.8906-0.31641 9.7578-0.63672 14.504-1.6328 10.211-2.1445 19.34-6.7305 27.492-13.168 4.2422-3.3516 7.7461-7.4102 9.8008-12.562 3.3203-8.3438 1.9414-15.859-3.0234-21.02zm-37.738 37.297c-6.5508 1.5312-11.875-2.3672-12.238-8.8984-0.11328-1.9961 0.61719-3.3477 2.3281-4.4258 6.2656-3.9453 13.512-1.4492 14.992 5.2422 0.85156 3.8438-1.25 7.1875-5.082 8.082z" fill="#f3f1ed"/>
 <g clip-path="url(#f)">
  <path d="m617.42 1138.6c-3.7305 0.78906-7 2.5352-9.9961 4.7891-6.8516 5.1562-12.344 11.535-16.656 18.941-1.0156 1.7344-2.0586 3.457-3.1211 5.2383-0.75391-0.75-0.71094-1.5312-0.83594-2.2656-1.5898-9.5352-6.1172-17.289-13.945-23.059-1.668-1.2305-3.4883-2.0508-5.4688-2.5938-4.6133-1.2656-8.832 0.27734-11.504 4.2695-2.4922 3.7148-2.9219 7.8906-2.4414 12.184 0.6875 6.1523 2.7656 11.836 6.1523 17.031 0.27734 0.43359 0.91016 0.8125 0.44922 1.5977-0.82422-0.18359-1.6406-0.34375-2.4453-0.54297-4.043-1.0195-8.1328-1.6289-12.309-1.3477-4.3359 0.29688-8.543 1.1172-12.371 3.3594-1 0.58594-1.8594 1.2461-2.5938 1.9648h95.383c3.3359-6.2852 5.625-12.98 6.5898-20.188 0.52344-3.8906 0.53906-7.7734-0.8125-11.535-2.2305-6.2305-7.6328-9.207-14.074-7.8438z" fill="#f3f1ed"/>
 </g>
 <g clip-path="url(#d)">
  <path d="m1025.9 1125.4c-5.0703-7.8281-13.441-10.164-21.844-6.2227-4.8633 2.2852-8.7852 5.7344-12.172 9.793-7.7383 9.2852-13.219 19.809-16.754 31.355-0.83203 2.7109-1.707 5.4062-2.5938 8.1914-1.2773-0.78125-1.4688-1.8672-1.875-2.8359-5.2578-12.57-13.965-21.75-26.57-27.145-2.6797-1.1484-5.4453-1.6914-8.3359-1.8008-6.7383-0.25-12.031 3.2266-14.41 9.5664-2.2227 5.9023-1.4648 11.773 0.57422 17.504 1.8633 5.2227 4.4297 10.008 7.6758 14.352h96.348c4.1797-12.031 6.0352-24.395 4.7891-37.191-0.53516-5.5078-1.7695-10.84-4.832-15.566z" fill="#f3f1ed"/>
 </g>
 <g clip-path="url(#b)">
  <path d="m1056.5 1171.2c-7.6914 1.2656-15.055 3.5625-22.02 7.0117h51.961c-2.0898-2.1758-4.8164-3.9336-8.0977-5.1602-7.1172-2.6562-14.438-3.0664-21.844-1.8516z" fill="#f3f1ed"/>
 </g>
 <path d="m932.73 980.83c3.4766-1.625 6.5547-3.8594 8.8086-7.0859 5.1836-7.4258 3.5391-15.234-3.4336-19.883-4.4844-2.9922-9.4727-4.4609-14.789-4.8242-6.2891-0.42578-12.504 0.14844-18.598 1.8477-1.8203 0.51172-3.6719 0.90234-5.5859 1.3672 0.046876-0.89844 0.55078-1.2969 0.86719-1.7734 5.3984-8.0664 9.0625-16.812 10.363-26.477 0.51953-3.8906 0.53516-7.7695-0.81641-11.535-2.2305-6.2266-7.6328-9.1992-14.074-7.8398-3.7305 0.78906-7 2.5352-9.9961 4.7891-6.8516 5.1562-12.34 11.539-16.656 18.941-1.0156 1.7383-2.0586 3.457-3.1211 5.2383-0.75391-0.75-0.71094-1.5312-0.83594-2.2656-1.5898-9.5352-6.1172-17.289-13.945-23.059-1.668-1.2305-3.4883-2.0508-5.4688-2.5938-4.6133-1.2656-8.8281 0.27344-11.504 4.2656-2.4922 3.7188-2.9219 7.8945-2.4414 12.188 0.6875 6.1523 2.7656 11.836 6.1523 17.035 0.28125 0.42969 0.91016 0.8125 0.44922 1.5938-0.82422-0.18359-1.6367-0.33984-2.4453-0.54297-4.043-1.0195-8.1328-1.6289-12.305-1.3438-4.3398 0.29297-8.5469 1.1133-12.371 3.3555-6.3516 3.7188-7.1953 10.488-3.707 15.977 2.3438 3.6875 5.6641 6.2188 9.5586 8.0977 1.8945 0.91406 3.9922 1.3398 5.7812 2.4883 1.7539-0.14844 3.1094 0.69922 4.3711 1.7695 0.29297-0.90625 1.0156-0.73828 1.6758-0.64453 0.92188 0.12891 1.8398 0.26953 2.75 0.46484 2.5039 0.53906 5.1172 0.4375 7.6719 1.1523-0.45703 0.72266-1.1055 0.96875-1.6562 1.332-4.7461 3.1367-9.3477 6.4375-12.82 11.055-2.9727 3.9609-5.582 8.1016-6.3359 13.117-0.71094 4.7305 0.66406 8.7578 4.5117 11.695 3.8281 2.9258 8.2188 3.8906 12.957 3.0586 5.6641-0.99609 10.832-3.2383 15.656-6.3398 4.3125-2.7695 7.9766-6.2695 11.48-9.9688 0.61328-0.64453 1.125-1.4609 2.0742-1.7773 0.61719 0.79297 0.71875 1.6445 0.96094 2.4297 1.3555 4.4062 3.3594 8.4922 6.0352 12.25 4.043 5.6758 9.1445 9.9492 15.953 11.93 3.7461 1.0859 7.5039 1.3789 11.188-0.19141 6.2344-2.6602 8.6641-7.8828 8.875-14.199 0.23828-7.1406-2.2109-13.625-5.7578-19.727-0.33594-0.57812-0.82812-1.0781-0.87891-1.9531 3.4258 0.57422 6.8398 1.1445 10.281 1.2227 7.3984 0.17188 14.449-1.5117 21.121-4.6367zm-57.867-10.883c-4.7773-0.003906-7.8203-3.5586-7.0117-8.1289 0.24609-1.3984 0.96875-2.2109 2.3242-2.6797 4.9688-1.707 9.5664 1.1914 9.5039 6.0508-0.035157 2.793-2.0273 4.7617-4.8164 4.7578z" fill="#f3f1ed"/>
 <path d="m1025.4 589.67c-7.5078-1.1562-14.762-0.074219-21.766 2.625-8.2969 3.1914-15.898 7.6133-22.68 13.41-2.0234 1.7305-4.1562 3.3359-6.3242 5.0625-0.47656-1.1758-0.066407-1.9805 0.058593-2.7812 2.1016-13.516 1.5938-26.871-2.4883-39.996-1.6445-5.2852-3.9336-10.254-7.8945-14.266-6.5547-6.6328-15.223-7.2227-22.652-1.6562-4.2969 3.2266-7.4375 7.4023-9.9258 12.059-5.6953 10.664-8.9258 22.082-10.043 34.109-0.26172 2.8203-0.57422 5.6367-0.87109 8.5469-1.4102-0.50781-1.8203-1.5312-2.4141-2.4023-7.6992-11.238-18.09-18.457-31.527-21.188-2.8594-0.57812-5.6797-0.54297-8.5312-0.066406-6.6484 1.125-11.121 5.6016-12.168 12.293-0.97656 6.2305 0.95703 11.824 4.1172 17.023 4.5391 7.4531 10.566 13.484 17.984 18.117 0.61328 0.38281 1.6445 0.49609 1.5234 1.7695-1.1602 0.25781-2.2969 0.53906-3.4492 0.75781-5.7695 1.1016-11.367 2.75-16.531 5.5938-5.3672 2.9531-10.254 6.5-13.816 11.641-5.9102 8.5273-2.9648 17.68 4.7539 22.621 5.1875 3.3164 10.934 4.5859 17.027 4.6719 2.9648 0.042969 5.9023-0.66016 8.8711-0.25391 2.1562-1.2305 4.3906-0.95312 6.6367-0.33594-0.16406-1.332 0.85938-1.5469 1.7617-1.8203 1.25-0.38281 2.5117-0.74609 3.7852-1.0391 3.5234-0.79687 6.8008-2.4844 10.492-3.0859-0.15625 1.1953-0.83984 1.8945-1.3242 2.6875-4.2031 6.8281-8.125 13.781-9.8164 21.746-1.4531 6.8281-2.3242 13.672-0.30859 20.531 1.9023 6.4688 6.0508 10.801 12.715 12.27 6.6289 1.4609 12.82 0.089844 18.379-3.793 6.6445-4.6367 11.922-10.57 16.246-17.402 3.8633-6.1016 6.4727-12.75 8.75-19.559 0.39844-1.1914 0.57031-2.5391 1.5977-3.5078 1.2578 0.64844 1.8945 1.6719 2.6719 2.5352 4.3516 4.8281 9.3398 8.8594 14.988 12.07 8.543 4.8555 17.602 7.2812 27.48 5.7695 5.4336-0.83203 10.414-2.6914 14.184-6.8867 6.3906-7.1055 6.3984-15.223 2.9102-23.426-3.9375-9.2656-10.922-16.098-19.074-21.793-0.77734-0.53906-1.7031-0.88672-2.2891-1.9688 4.7227-1.3047 9.4219-2.6016 13.867-4.543 9.5625-4.1758 17.574-10.516 24.246-18.477 3.4766-4.1445 6.0859-8.832 7.0469-14.293 2.2148-12.566-4.5273-21.566-16.199-23.371zm-71.281 58.141c-6.1055 2.8281-12.109 0.09375-13.793-6.2266-0.51562-1.9336-0.070312-3.4062 1.3828-4.8047 5.3359-5.1367 12.934-4.168 15.746 2.082 1.6094 3.5938 0.23047 7.2969-3.3359 8.9492z" fill="#f3f1ed"/>
 <path d="m708.88 602.58c-4.4844-2.9922-9.4727-4.4609-14.785-4.8203-6.293-0.42969-12.504 0.14062-18.602 1.8438-1.8203 0.51172-3.6719 0.90234-5.5859 1.3672 0.046875-0.89844 0.55078-1.2969 0.87109-1.7734 5.3945-8.0664 9.0625-16.812 10.359-26.477 0.52344-3.8906 0.53906-7.7734-0.8125-11.535-2.2344-6.2305-7.6328-9.2031-14.078-7.8398-3.7305 0.78906-7 2.5352-9.9922 4.7891-6.8555 5.1562-12.344 11.535-16.66 18.941-1.0117 1.7344-2.0547 3.4531-3.1172 5.2344-0.75391-0.74609-0.71094-1.5273-0.83594-2.2656-1.5938-9.5312-6.1172-17.285-13.945-23.055-1.668-1.2266-3.4922-2.0508-5.4688-2.5938-4.6133-1.2695-8.832 0.27344-11.504 4.2656-2.4922 3.7188-2.9219 7.8945-2.4414 12.188 0.6875 6.1523 2.7656 11.836 6.1484 17.035 0.28125 0.42969 0.91016 0.80859 0.45312 1.5938-0.82422-0.18359-1.6406-0.34375-2.4453-0.54688-4.043-1.0156-8.1367-1.625-12.309-1.3438-4.3359 0.29688-8.543 1.1172-12.371 3.3594-6.3516 3.7188-7.1953 10.488-3.7031 15.977 2.3398 3.6836 5.6602 6.2188 9.5547 8.0977 1.8945 0.91406 3.9922 1.3398 5.7852 2.4883 1.7539-0.14844 3.1055 0.69922 4.3711 1.7695 0.28906-0.90625 1.0156-0.73828 1.6758-0.64453 0.91797 0.12891 1.8398 0.26953 2.7461 0.46484 2.5078 0.53906 5.1172 0.43359 7.6719 1.1523-0.45703 0.72266-1.1055 0.96484-1.6562 1.3281-4.7461 3.1406-9.3438 6.4375-12.816 11.059-2.9766 3.957-5.582 8.1016-6.3398 13.117-0.71094 4.7305 0.66406 8.7578 4.5117 11.695 3.8281 2.9258 8.2227 3.8906 12.957 3.0547 5.6641-0.99609 10.836-3.2344 15.656-6.3359 4.3125-2.7734 7.9766-6.2695 11.48-9.9688 0.61328-0.64844 1.125-1.4609 2.0781-1.7773 0.61328 0.79297 0.71875 1.6406 0.95703 2.4297 1.3555 4.4062 3.3594 8.4922 6.0352 12.246 4.043 5.6797 9.1445 9.9492 15.953 11.93 3.7461 1.0898 7.5039 1.3828 11.188-0.1875 6.2344-2.6641 8.668-7.8828 8.875-14.203 0.23828-7.1367-2.2109-13.621-5.7539-19.723-0.33594-0.58203-0.83203-1.082-0.88281-1.9531 3.4297 0.57422 6.8398 1.1445 10.281 1.2227 7.3984 0.17578 14.449-1.5078 21.125-4.6328 3.4727-1.6289 6.5547-3.8633 8.8047-7.0898 5.1836-7.4258 3.5391-15.234-3.4336-19.883zm-63.246 16.086c-4.7734-0.003907-7.8164-3.5586-7.0117-8.1289 0.25-1.3984 0.97266-2.2148 2.3281-2.6797 4.9688-1.707 9.5664 1.1875 9.5039 6.0508-0.035156 2.793-2.0273 4.7617-4.8203 4.7578z" fill="#f3f1ed"/>
</svg>
