<?xml version='1.0' encoding='utf-8'?>
<svg xmlns="http://www.w3.org/2000/svg" width="1587" height="1587" version="1.0" viewBox="0 0 1190.2 1190.2" zoomAndPan="magnify">
 <defs>
  <clipPath id="b" fill="none">
   <path d="m0 0h1189.5v1189.5h-1189.5z" fill="none" />
  </clipPath>
  <clipPath id="a" fill="none">
   <path d="m888 44.184h5v6.8164h-5z" fill="none" />
  </clipPath>
 </defs>
 <g clip-path="url(#b)" fill="none">
  <path d="m0 0h1189.5v1189.5h-1189.5z" fill="none" />
  <path d="m0 0h1189.5v1189.5h-1189.5z" fill="none" />
 </g>
 <g clip-path="url(#a)">
  <path d="m888.46 46.137c-1.1484 2.9336 1.6562 5.6133 3.6992 3.5703 1.6562-1.6562 0.63672-5.7383-1.5312-5.7383-0.76562 0-1.7852 1.0234-2.168 2.168z" fill="none" />
 </g>
 <path d="m104.32 56.977c-1.7852 1.7852-0.76562 7.1445 1.6562 8.418 2.0391 1.0195 3.1875 0.89453 4.7188-0.76562 2.5469-2.4219 2.5469-2.5508 0.76563-5.9922-1.4062-2.5508-5.3555-3.4453-7.1406-1.6602z" fill="#d70f92" />
 <path d="m859.39 63.863c-2.5508 2.8086-2.9336 9.8203-0.63672 14.031 1.0195 2.0391 1.0195 2.9336 0 3.3125-0.89453 0.25781-3.8281 2.043-6.6328 3.957-2.6758 1.9102-6.6289 3.4414-8.543 3.3125-5.8633-0.125-9.8164 5.3594-9.9453 13.902-0.125 6.6328-0.76172 8.1602-6.8828 16.324-7.2695 9.8203-14.535 21.551-19.254 31.371-1.9102 4.082-3.9531 6.5039-5.7383 6.7617-2.9297 0.38281-4.7148 4.8438-2.4219 6.2461 1.2773 0.76562-11.094 34.18-16.191 43.746-5.3555 10.328-17.34 16.449-37.613 19.254-14.027 2.043-20.402 1.4062-51-4.7188-37.613-7.3945-50.363-8.7969-92.441-9.5625-30.855-0.51172-43.477-0.25391-61.582 1.6562-12.496 1.2773-27.797 2.6797-34.043 3.3164-6.375 0.51172-13.004 1.6602-14.789 2.4219-4.7188 2.043-40.801 9.3125-51.004 10.332-5.3555 0.50781-12.75 0.12891-19.633-1.1484-12.75-2.2969-26.523-8.0352-24.992-10.457 0.63672-1.0195 0.25391-1.2773-1.1484-0.76562-2.8047 1.0195-8.7969-4.4648-13.258-12.496-1.9141-3.1914-6.375-13.773-9.8203-23.34-11.727-32.773-22.949-52.926-39.395-70.27-4.4648-4.8477-8.0352-9.1836-8.0352-9.8203 0-3.1875-4.4609-9.0547-6.8828-9.0547-1.4023 0-2.9336-0.89062-3.4453-1.9141-0.38281-1.1445-1.9102-2.0391-3.3125-2.0391-1.5312 0-2.2969 0.63672-1.7852 1.4023 0.38281 0.63672-2.8047-0.76562-7.1406-3.4414-31.875-18.621-74.078-24.105-111.69-14.539-4.207 1.0195-8.418 2.168-9.5625 2.6797-1.0195 0.37891-2.043-0.38281-2.5508-2.043-0.38281-1.5312-1.4023-2.8047-2.168-2.8047-2.168 0-3.4414 4.082-1.6562 5.2266 0.76172 0.51172-3.6992 3.1914-10.203 6.125-40.16 18.109-70.125 51.395-83.512 92.969-1.6562 5.2266-3.6992 9.4375-4.4648 9.4375-1.1445 0-1.5273 9.0547-1.4023 30.48 0.12891 27.289 0.51172 31.625 3.1875 41.191 6.6328 23.719 23.336 50.5 40.547 65.168 8.0312 6.7578 20.91 15.812 22.566 15.812 0.64062 0 0.76562 2.4219 0.38281 5.3555-0.50781 4.082-0.25391 5.6133 1.4023 6.1211 1.1484 0.51172 2.4258 2.6797 2.9336 4.8477 0.51172 2.168 2.2969 4.8477 4.082 5.9961 2.9297 2.0391 3.5703 1.9102 6.7578-0.12891 2.8047-1.7852 3.3125-3.0625 2.9297-6.6328l-0.50781-4.207 18.742 4.4648c21.93 5.2266 26.52 7.2656 30.473 12.75 6.7578 9.4375 3.9531 24.871-9.3086 51.141-13.004 25.891-16.062 38.641-17.594 72.309-1.2773 25.508 0.25391 101.26 2.5508 129.95 0.89062 10.332 1.7852 43.488 2.0391 73.844l0.51172 55.219-3.6992 0.38281c-3.0586 0.38281-3.5703 1.0195-3.5703 5.1016 0 4.082 0.51172 4.7188 3.5703 5.1016l3.4414 0.38281 0.76562 23.082c0.38281 12.754 1.4023 24.867 2.168 27.293 2.168 5.4844 5.2266 6.6289 8.7969 3.0586 2.6797-2.6758 2.6797-3.1875 2.2969-100.11-0.25781-53.562-1.0195-111.59-1.6602-128.93-1.9102-49.609-1.7852-54.457 1.4023-55.477 5.1016-1.6562 4.4648-12.754-0.76172-12.754-1.5312 0-1.9141-2.8047-1.9141-15.941 0-18.617 1.7852-33.414 5.3555-44.125 1.5312-4.082 2.293-5.7383 2.0391-3.5703-2.0391 12.496-2.168 45.656-0.25391 64.531 3.3125 31.754 7.2656 49.48 20.273 90.801l5.0977 16.07 1.1484 44.25c0.63672 24.23 1.4023 44.891 1.6562 45.656 0.38281 0.89453-1.2734 1.9141-3.9492 2.4258-5.7383 1.1445-9.9453 7.1406-9.9453 14.535 0 6.6328 3.9492 8.5469 10.199 4.9766l4.207-2.4258 0.51172 23.594c0.63672 23.848 1.7812 29.715 5.8633 29.715 4.4609 0 4.7188-4.4609 3.0586-50.5-0.89062-24.871-1.6562-54.328-1.6562-65.297-0.12891-30.098-0.89062-30.863 26.777 30.098 4.0781 9.1797 8.7969 19.512 10.324 22.699 2.2969 5.2305 2.8047 9.4375 3.3164 30.609 0.51172 17.215 0.25391 24.996-0.89062 26.016-1.9141 1.9141-1.9141 7.1406 0 10.586 1.5273 2.9297 3.4414 80.344 5.0977 202.64 0.51172 39.023 1.4023 72.184 2.0391 73.711 1.7852 3.9531 4.9727 7.3984 7.0156 7.2695 0.89062 0 2.8047-1.5273 4.0781-3.5703 2.168-3.3164 2.2969-9.3086 2.0391-89.398-0.25391-47.188-1.0195-98.07-1.7852-113.25-0.76172-15.051-1.7852-41.574-2.293-59.047l-0.89453-31.629 3.0625 2.5508c4.0781 3.0625 8.2852 1.2773 8.2852-3.6992 0-3.6953-5.3516-9.9453-8.668-9.9453-1.6562 0-2.0391-1.6602-2.0391-8.2891 0-17.473 4.207-24.105 16.062-25.508 7.0156-0.89062 7.7773-0.63672 14.664 4.082 12.367 8.543 23.715 20.406 25.371 26.398 0.76562 3.0625 1.7852 33.797 2.2969 72.309 0.63672 50.629 1.2734 68.102 2.6758 71.289 1.7852 4.5938 4.5938 5.6133 7.0156 2.6797 1.7852-2.168 0.38281-113.38-1.4023-113.38-0.64062 0-0.76562-0.76562-0.38281-1.5312 0.50781-0.89062 0.89062-6.7578 0.76562-13.133-0.25781-13.008 1.2734-18.875 4.8438-18.875 4.7188 0 36.719 17.727 43.859 24.355 9.0547 8.293 18.617 22.191 22.312 32.523 2.8047 7.9062 2.8047 8.6719 1.1484 42.211-0.89062 19.77-1.4023 50.758-1.0195 73.586 2.2969 132.12 3.6992 186.7 4.9727 191.55 1.9141 6.8867 7.1406 8.8008 10.965 4.082 2.2969-2.8086 2.5508-7.2695 2.5508-76.266 0-40.172-0.76562-98.707-1.5312-130.08-1.7852-64.145-1.1484-74.477 4.9727-78.559 4.5898-2.9297 5.7383-1.5273 13.133 16.324l6.1211 14.793 0.76562 27.422c0.89062 28.566 2.0391 37.492 5.2266 37.492s3.5703-4.082 2.5508-33.031c-0.89453-28.309-0.89453-28.566 2.293-34.43 3.8281-7.3984 8.2891-9.8203 12.496-7.0156 6.7578 4.3359 23.715 18.617 24.863 20.914 0.76562 1.4023 1.4023 12.371 1.4023 24.359s0.63672 41.445 1.4023 65.297c0.76562 23.973 1.4023 57.133 1.4023 73.711-0.12891 16.578 0.25391 43.617 0.63672 59.938 0.76562 26.145 1.1484 30.227 3.3164 32.777 2.168 2.6797 2.5508 2.8047 4.4609 1.0195 1.9141-1.9141 1.9141-11.352 0.38281-100.49-2.293-135.18-2.168-150.74 0.89453-156.36 3.1875-5.9922 9.1797-8.4141 18.359-7.3945 16.066 1.7852 18.105 6.25 19.254 42.594 0.89062 27.801 2.0391 34.688 5.7383 36.094 4.5898 1.7852 4.9727-1.4062 4.9727-36.859v-34.941l3.8242-3.1875c4.3359-3.8281 6.2461-3.9531 11.73-1.1484 3.6953 1.9141 4.5898 1.9141 8.543 0 6.375-3.0625 10.582-2.5508 15.555 1.5312 8.543 7.1406 8.4141 6.375 9.1797 79.324 0.76562 72.309 1.0195 74.348 8.1602 74.348 6.6289 0 7.0117-3.3164 5.2266-47.824-1.7852-45.016-1.1484-91.566 1.2773-98.961 3.0586-9.5664 6.8828-13.648 16.191-16.836 10.453-3.6992 22.695-3.9531 28.051-0.89062 7.3945 4.4609 8.4141 8.1602 9.5625 35.195 0.50781 13.773 1.4023 26.016 1.9102 27.293 1.5312 3.8242 5.4844 5.3555 7.9062 2.8047 2.5508-2.4219 2.5508-2.4219 0.51172-28.82l-1.5312-20.789 3.6992-11.605c2.4219-7.6523 5.7344-14.41 9.4336-19.383 7.6484-10.457 21.676-25.379 24.863-26.398 4.3359-1.4023 10.453 3.0586 14.023 10.203 4.7188 9.3086 5.8672 24.355 5.8672 77.535 0.12891 23.977 0.63672 55.605 1.4023 70.27 0.76562 14.793 1.9141 54.203 2.4219 87.742 0.89453 55.223 1.2734 61.344 3.3164 64.656 2.9297 4.4648 7.6484 4.7188 10.328 0.64062 1.6562-2.5508 1.9102-12.754 1.6562-63.258-0.51172-88.887-4.3359-218.71-7.0117-232.36-0.76562-4.082-1.0195-9.8203-0.63672-12.754 0.37891-2.9336 1.0195-12.625 1.4023-21.551 0.63672-17.219 2.293-23.723 8.0312-32.52 4.207-6.25 13.77-13.648 20.527-15.941 6.375-2.168 19.379-2.043 24.863 0.25391 5.9922 2.5508 12.238 11.223 14.152 20.023 1.6562 6.7578 3.0586 63.891 5.1016 190.4 0.89062 52.031 1.1445 58.027 3.3125 61.34 2.8047 4.3359 7.0156 4.5938 9.0547 0.64062 1.1484-2.043 1.4023-23.211 0.76562-80.602-0.89453-93.48-2.8047-150.74-5.7383-174.21-2.0391-16.832-2.0391-17.98 0.76562-32.645 3.0586-17.219 6.7578-25.125 15.555-33.797 6.5-6.25 13.004-7.6523 16.066-3.4453 1.1445 1.6602 1.9102 14.156 2.4219 44.766 0.50781 23.336 1.4023 59.938 2.168 81.363 0.76172 21.297 1.4023 47.059 1.4023 57.008v18.234l-3.3164-0.63672c-3.9531-0.76562-7.3945 1.6562-7.3945 5.1016 0 2.9336 4.5898 5.7383 8.0312 4.9727 2.0391-0.63672 2.4219 0.63672 3.0625 10.84 0.37891 6.3789 1.1445 12.625 1.5273 13.773 1.5312 3.6992 4.5898 3.9531 6.7578 0.76563 1.6602-2.5508 1.6602-12.496 0.76562-70.652-0.76562-37.109-1.9141-91.438-2.8047-120.64-1.5312-50.754-1.5312-53.562 0.89062-61.598 2.043-6.7578 4.082-10.199 10.328-16.832 4.3359-4.7188 10.965-10.969 14.664-14.027l6.6289-5.6133 3.8242 4.2109c6.7578 7.5234 7.9062 14.918 9.3086 55.855 0.63672 20.66 1.2773 64.914 1.2773 98.453 0.125 73.844 2.8047 144.49 5.7344 151.64 4.3359 10.203 11.988 8.543 14.156-3.1914 0.63672-3.6953 0.37891-20.785-0.64062-42.211-1.0195-19.766-2.4219-70.016-3.0586-111.59-1.6562-87.484-3.3164-125.11-6.5039-143.98-2.5469-14.922-2.6758-19.512-0.63672-48.207 1.2773-18.621 1.7852-21.555 8.1602-41.066 8.9258-27.547 10.457-39.277 8.4141-64.273-2.1641-27.547-6.7578-47.441-16.191-71.289-9.0508-22.828-12.75-36.73-11.477-43.234 2.2969-12.242 11.73-25.379 22.953-32.008 3.0586-1.7891 8.668-3.6992 12.367-4.082 6.375-0.76563 7.0117-0.51172 11.473 3.8242 2.9336 2.9336 5.3555 7.2695 6.6328 11.859 2.5508 8.8008 4.3359 26.145 3.8242 35.582l-0.51172 6.8867-3.8242-1.9141c-3.3125-1.6562-4.4609-1.6562-8.543 0-12.367 5.2305-9.1797 23.723 4.082 23.594 2.8047 0 5.9922-0.89062 7.5234-2.293 2.6758-2.4258 2.6758-5.1016 0.89063 46.547 0 1.7852 0.51172 7.2695 1.2734 11.988 0.76562 4.8477 2.043 44 2.6797 87.23 0.63672 43.105 1.6562 80.473 2.168 83.023 1.1484 6.375 3.8242 9.5625 7.5234 9.0547 6.2461-0.89453 6.2461-1.6602 5.2266-95.52-0.51172-53.18-0.38281-89.91 0.38281-92.207 0.76562-2.293 0.63672-5.7383-0.25391-9.3086-0.76563-3.0625-2.043-16.836-2.8086-30.48-2.293-38.641-4.332-69.25-5.2266-81.238-0.76562-10.074-0.63672-10.965 1.6562-11.348 1.4062-0.25391 3.1914-1.5312 4.082-2.8047 1.1484-1.9141 0.89063-2.8086-1.1484-4.3359-1.4023-1.0234-3.0586-1.5312-3.8242-1.0234-2.2969 1.4062 0.25391-6.5039 3.8242-11.859 1.6602-2.8047 7.9062-8.543 13.645-12.879 10.07-7.7812 20.273-17.727 27.285-26.91 3.3125-4.3359 3.5703-4.4648 4.4609-1.7852 1.9141 6.1211 10.074 4.5898 10.074-1.9141 0-2.168-1.0195-3.3164-3.3164-3.9531-1.7852-0.50781-3.8242-0.50781-4.4609 0-0.76562 0.38281 1.5273-4.082 5.0977-9.9453 19.254-32.012 24.738-73.203 14.535-110.44-1.5273-5.8672-2.8047-12.246-2.8047-14.156 0.12891-8.0352-1.1445-12.117-4.332-13.391-1.7852-0.64062-4.5938-3.6992-6.25-6.8867-4.8438-9.6953-13.004-20.918-22.184-30.609-20.91-22.188-48.324-36.727-79.051-42.086-14.793-2.6758-41.949-2.5508-57.25 0.12891-13.516 2.2969-36.082 9.3086-38.762 12.117-1.0195 1.0195-2.6758 1.7852-3.6953 1.7852-1.0195 0-2.4219 0.63672-3.3164 1.4023-1.0195 1.1484-1.2734-0.25391-0.76562-4.7188 0.63672-5.2305 0.25391-6.7578-2.293-9.4375-3.6992-3.9531-9.4375-4.3359-12.496-0.89453zm-556.29 58.664c12.242 8.9297 22.312 25.762 26.012 43.617 2.293 10.711 1.7852 18.363-2.168 30.863-2.9336 9.6914-10.457 21.805-12.367 19.895-0.89453-0.89453 0.12891-3.5703 2.9336-8.0352 5.9922-9.1836 9.0508-27.418 6.7578-40.555-2.4258-14.793-10.203-28.949-22.316-41.191-5.7344-5.6133-11.984-11.352-13.77-12.625-2.0391-1.4062-1.0195-1.1484 2.6797 0.63672 3.3125 1.6562 8.7969 4.9727 12.238 7.3945zm682.27-6.7578c16.703 3.4453 37.738 13.137 52.148 24.23 4.207 3.1875 4.332 3.3164 2.168 6.5039-1.6602 2.6797-1.7852 3.6992-0.38281 5.3555 1.9102 2.2969 6.7578 2.5508 8.9258 0.51172 1.1445-1.1484 2.6758-0.38281 5.7344 2.9336 25.758 27.672 33.789 54.965 24.355 82.258-10.328 29.457-40.93 58.281-76.504 71.797-4.4609 1.7891-2.8047 0.25781 9.6914-8.2891 9.6914-6.5039 18.742-15.684 23.969-24.102 8.418-13.645 10.328-35.965 4.5938-52.289-7.2695-20.531-24.102-37.746-47.051-48.078-9.1797-4.082-28.688-10.711-31.621-10.711-2.5469 0-3.3125-2.043-1.4023-3.1914 1.5312-0.89062 26.648 4.8477 36.723 8.418 4.3359 1.5312 7.3945 2.043 7.0117 1.4023-2.2969-3.6953-33.789-16.449-37.613-15.176-1.6562 0.51172-1.9141 0.38281-0.89062-0.38281 1.2734-0.89063 0-2.168-4.3359-4.207-6.7578-3.3164-8.2891-1.9141-1.6602 1.5312l4.3359 2.293-3.9531-0.76562c-4.8438-1.0195-14.789-8.0312-18.613-13.008-6.1211-8.2891 3.6953-16.449 22.312-18.363l9.6914-0.89062-6.5039-1.1484c-13.77-2.2969-36.082 2.4219-41.82 8.7969-1.6562 1.7891-2.4219 4.5938-2.4219 8.0352 0.125 5.6133-1.2773 6.7617-3.4453 2.6797-2.293-4.2109-1.6562-11.477 1.2773-15.176 3.0586-3.8281 11.855-8.2891 21.801-10.969 9.4375-2.5508 30.984-2.5508 43.48 0zm-726.89 3.9531c26.902 5.4844 52.148 25.25 60.691 47.441 3.0586 7.6523 3.9531 20.148 2.0391 24.867-1.1484 2.5508-1.1484 2.5508-2.293-0.37891-0.64062-1.6602-1.7852-3.0625-2.5508-3.0625-2.168 0-1.6562 5.1016 0.63672 6.375 1.6562 1.0234 1.5312 1.9141-1.0195 7.1445-2.8047 5.6094-3.3164 5.9922-7.9062 5.6094-4.0781-0.38281-5.4805 0.38281-9.0508 4.3359-4.5898 5.2305-5.1016 8.8008-2.2969 14.285 1.7852 3.4414 1.7852 3.5703-4.9727 7.2695-4.9727 2.6758-6.8828 3.1875-7.3945 1.9102-0.25391-0.89062-1.6562-2.8047-3.0586-4.207-2.2969-2.2969-2.8047-2.4219-6.375-0.51172-3.9531 2.043-5.4844 4.4648-5.4844 8.8008 0 1.9141-0.89062 2.5508-3.1875 2.5508-1.6562 0-6.8828 0.51172-11.602 0.89453-7.7773 0.89062-8.2891 0.76172-7.5234-1.5312 1.5312-3.8281-2.6758-8.9297-6.8867-8.418-2.9297 0.38281-3.6953 1.1484-4.0781 4.7188-0.12891 2.4219-0.51172 4.3359-0.76562 4.3359-2.6758 0-16.828-5.2305-23.844-8.9258-10.07-5.2305-27.285-20.277-23.461-20.406 3.1875-0.12891 2.9336-3.6992-0.25391-5.4844-2.168-1.1484-2.6758-0.89063-2.6758 0.76562 0 3.6992-2.6797 0.76563-6.8867-7.5234-9.1797-18.363-10.07-34.945-2.5508-50.375 11.988-24.23 47.941-37.492 82.75-30.48zm668.88 28.184c2.5508 1.9141 2.5508 1.9141-0.125 1.9141-1.5312 0-3.1875-0.89453-3.5703-2.0391-1.0195-2.4258 0.38281-2.4258 3.6953 0.125zm20.527 10.332c7.0156 2.9336 9.6914 5.8672 3.9531 4.3359-8.543-2.4258-21.035-8.0352-21.035-9.6914 0-1.4062 1.0195-1.4062 4.9727 0.38281 2.8047 1.1445 8.2852 3.4414 12.109 4.9727zm-467.17 73.586c0.51172 2.8047-3.3125 4.7188-5.3516 2.6758-2.043-2.0391-0.12891-5.9922 2.5469-5.4844 1.2773 0.25781 2.5508 1.5312 2.8047 2.8086zm130.82 21.039c-0.76563 1.2773 1.5273 1.9141 5.9922 1.6602 1.0195 0 2.9336 0.50781 4.207 1.1484 1.5312 0.89062 2.6758 0.76562 3.1875-0.12891 0.38281-0.76562 1.5312-0.89062 2.4219-0.25391 2.6797 1.6562 9.0547 1.5312 8.0312-0.12891-0.50781-1.1484-0.25391-1.0195 0.89453 0 0.89063 0.89453 2.5508 1.2773 3.5703 0.89453 0.89062-0.38281 1.7852-0.12891 1.7852 0.50781s1.7852 1.0195 4.0781 0.63672c2.2969-0.25391 3.9531 0 3.9531 0.89453 0 0.76562 1.1484 1.1484 2.6797 0.89453 1.5273-0.25781 2.6758 0 2.6758 0.76172 0 0.76562 0.51172 1.0234 1.1484 0.64062 2.5508-1.5312 15.301 1.5273 32.387 7.9062 6.8828 2.6758 17.723 6.6328 24.098 8.9258 16.574 6.1211 40.926 18.109 61.836 30.734 10.074 6.1211 18.234 11.223 17.98 11.48-0.25781 0.25391-6.6328-2.043-14.41-4.9766-17.723-6.8867-44.625-14.664-50.363-14.664-9.8164 0-1.7852 8.1602 19.508 20.023 21.168 11.73 22.695 12.879 21.93 16.578-0.63672 3.8242 1.6602 5.8672 4.3359 3.5703 1.2773-1.0195 2.0391-1.0195 2.6797 0 2.293 3.5703 23.078 15.941 43.988 26.016 12.621 6.1211 26.52 13.773 30.855 16.961 14.66 11.098 25.754 29.461 31.617 52.797 3.9531 15.434 5.7383 18.492 10.457 17.473 2.9336-0.63672 3.1875-0.50781 1.2734 0.63672-1.2734 0.76563-1.9102 2.2969-1.5273 3.3164 1.1445 2.9336 5.7383 2.4258 7.0117-0.89062 0.76562-2.168 1.7852-0.25781 4.5898 9.0547 6.2461 20.531 7.9062 31.242 8.7969 55.348l0.89453 23.465 2.0391-11.988c3.0586-19.258 2.5508-56.621-1.1484-75.496-6.2461-31.246-19.125-62.363-35.062-84.301l-8.1602-11.223 7.3945 6.25c21.93 18.746 41.055 47.059 49.598 73.457 9.9453 30.992 9.9453 70.016 0 104.7-10.707 37.113-31.363 72.566-58.777 100.88-22.184 22.953-39.398 35.195-71.02 50.754-33.531 16.582-45.391 26.02-52.402 41.449-1.9141 4.207-4.0781 8.8008-4.7188 9.9492-0.50781 1.2734-0.63672 2.5469 0 2.6758 2.043 0.89453-0.76562 21.809-3.8242 28.312-1.6562 3.4414-6.8828 10.586-11.73 15.688-7.6484 8.2891-8.1602 9.1797-3.9531 6.6289 11.094-6.5039 20.527-18.234 25.883-32.391 2.9336-7.3984 3.1875-7.7812 2.5508-3.0625-1.7852 12.5-13.641 29.332-26.902 38.387-13.516 9.1836-33.152 15.941-53.422 18.363-15.938 2.043-25.629 1.9141-40.164-0.37891-23.207-3.5742-35.445-10.969-39.781-23.977-1.6562-4.9766-1.7852-8.6719-0.89062-17.473 1.4023-14.668 5.4805-25.25 12.109-31.883 6.8867-6.8867 12.879-9.3086 24.098-9.8203 16.961-0.89063 26.395-9.0547 32.77-28.566 3.0586-9.1836 3.8242-14.027 3.8242-23.594 0-14.539-2.5508-23.211-11.348-38.387-19.762-34.434-50.746-53.309-75.48-46.164-11.477 3.4414-20.656 13.008-37.23 39.023-16.191 25.504-23.461 35.07-36.34 46.805-12.875 11.988-28.43 21.297-43.73 26.398-10.84 3.4414-15.43 4.207-30.602 4.8438-41.691 1.5312-72.93-10.582-102.51-39.531-10.328-10.203-24.098-28.059-29.707-38.387l-3.6992-6.8867 10.074 9.4375c9.0508 8.4141 27.285 20.656 34.043 22.824 1.4023 0.38281 0.125-1.1445-2.8047-3.5703-16.703-13.898-38.379-37.363-47.305-51.395-3.6953-5.7383-10.836-22.828-10.965-26.016 0-1.0195 2.9336 2.9336 6.5039 8.9258 14.918 24.742 32.895 43.488 60.434 62.621 7.2695 5.0977 7.1406 4.9727-4.7148-7.3984-33.535-35.324-59.164-77.41-61.457-101-0.25391-2.6797-0.76563-5.2305-1.2773-5.7383-0.37891-0.38281-0.125-2.043 0.51172-3.8281 0.76563-1.9102 0.76563-3.4414 0-3.9531-0.76562-0.38281-1.0195-2.6758-0.76562-5.1016 0.38281-2.293 0.63672-5.9922 0.63672-8.0312 0.12891-2.6797 0.89453-4.082 2.8047-4.4648 1.4062-0.38281 2.2969-1.2773 1.9141-2.043-0.50781-0.63672-0.12891-2.0391 0.89453-3.1875 1.2734-1.6562 1.1445-1.7852-0.89453-1.0195-1.9141 0.63672-1.5312-0.12891 1.1484-2.6758 2.0391-1.9141 3.5703-4.5938 3.6953-6.125 0-1.4023 0.51172-3.0586 1.2773-3.5703 0.76562-0.38281 1.1484-1.7852 0.89062-3.0586-0.38281-1.1484-1.0195-3.8281-1.5273-5.9961-0.38281-2.0391-1.2773-3.4414-1.7852-3.0586-0.64062 0.38281-1.7852-0.51172-2.6797-1.9141-1.0195-1.5312-1.0195-2.8047-0.25391-3.3164 1.7852-1.0195 1.6562-3.3164-0.12891-3.3164-0.76562 0-1.0195 0.64062-0.50781 1.2773 0.38281 0.76563 0.125 1.4023-0.63672 1.4023-1.4062 0-1.7852-1.2773-1.7852-5.8672 0.125-3.9531 3.3125-12.879 4.7148-12.879 0.76562 0 1.0195-0.76562 0.63672-1.7852-0.89062-2.2969 4.8477-14.668 6.1211-13.391 0.51172 0.38281 0.63672-0.51172 0.38281-2.043-0.38281-1.5312 0-3.1875 0.63672-3.5703 0.76562-0.50781 1.0195-1.4023 0.51172-2.0391-0.38281-0.76563 0.25391-1.6602 1.4023-2.043 1.1484-0.50781 2.0391-2.0391 2.0391-3.4414 0-1.4023 0.51172-2.5508 1.2773-2.5508 0.63672 0 1.0195-1.1484 0.76172-2.6797-0.25391-1.4023-0.125-2.6758 0.51172-2.6758 0.51172 0 1.1484-0.89453 1.2734-1.9141 0.12891-1.1484 0.25781-2.9336 0.38281-3.9531 0.12891-1.0195 1.0195-1.5312 1.9141-1.1484 1.1484 0.38281 1.5312-0.51172 1.2734-2.8047-0.125-1.9141 0.25781-3.0625 0.76562-2.6797 0.63672 0.38281 1.2773-0.25391 1.2773-1.5312 0-2.5469 4.9727-11.984 8.2852-15.812 1.2773-1.5312 2.4219-3.4414 2.4219-4.3359 0-1.0195 0.89453-2.6797 2.043-3.8242 1.1445-1.1484 1.6562-2.168 1.1445-2.168-0.50781 0 0.25781-1.0234 1.9141-2.4258 1.5312-1.4023 2.4219-2.8047 1.9141-3.3125-0.38281-0.51172 0-0.89453 0.89062-0.89453 1.0195 0 1.4023-0.89453 0.89453-2.0391-0.38281-1.1484-0.38281-1.9141 0.125-1.5312 0.63672 0.25391 2.4219-0.89453 4.082-2.6797 1.6562-1.6562 2.6758-3.1875 2.168-3.1875-0.64062 0 1.4023-2.2969 4.4609-5.3555 3.1875-2.9336 5.3555-5.3555 5.1016-5.3555-0.38281 0 0.76563-1.4062 2.5469-3.3164 1.6602-1.7852 3.4453-3.3164 3.9531-3.3164 0.51172 0 2.4219-1.4023 4.207-3.0625 7.6523-6.7578 8.543-7.3945 9.1836-6.6289 0.50781 0.38281 0.89062 0 0.89062-0.76562 0-0.89453 1.4023-1.6602 3.1875-1.6602 1.7852 0 3.5703-0.50781 4.082-1.1445 0.38281-0.76562 1.7852-1.2773 3.0586-1.2773 3.8242 0 6.8867-0.89062 8.6719-2.6797 0.89063-0.76172 2.9297-1.5273 4.5898-1.5273 1.7852 0 3.1875-0.76562 3.1875-1.6602 0-1.1484 0.38281-1.0195 1.2734 0.25781 1.1484 1.9102 1.9141 1.0195 1.5312-1.5312-0.12891-0.51172 0.76562-0.63672 1.9102-0.25391 1.1484 0.50781 1.9141 0.25391 1.7852-0.38281-0.125-0.64062-0.125-1.9141 0-2.9336 0.12891-1.5312 0.51172-1.5312 2.4219 0 1.9141 1.6562 2.168 1.5273 1.2773-0.64062-0.76562-2.0391-0.38281-2.293 1.2734-1.6562 1.9141 0.76562 2.0391 0.51172 0.38281-1.5312-1.1484-1.2734-1.2734-1.7852-0.25391-1.2734 2.0391 1.2734 8.4141-0.25781 8.4141-2.043 0-0.63672-0.50781-0.89062-1.2734-0.50781-0.63672 0.50781-1.5312 0.38281-1.9141-0.25781-0.38281-0.63672 1.0195-1.2734 2.9336-1.4023 2.0391-0.125 4.7188-1.5273 5.9922-3.0586 1.2734-1.5312 2.293-2.4219 2.293-1.9141 0 0.51172 0.89453 0 2.168-1.2734 1.1484-1.1484 2.9336-2.043 3.9531-2.043s1.9141-0.63672 1.9141-1.4023-0.76563-1.0195-1.6562-0.63672c-0.89453 0.50781-0.51172 0 0.89062-1.1484 1.4023-1.1484 2.9336-1.7852 3.4414-1.4023 0.64062 0.25391 1.4023-0.38281 1.7852-1.4023 0.51172-1.1484 2.043-2.043 3.5703-2.043 1.7852 0 2.5508-0.50781 1.9141-1.5273-0.63672-1.0234-0.25391-1.2773 1.0195-0.89453 1.0195 0.51172 3.3164-0.25391 5.1016-1.6562 1.7852-1.2773 3.9492-2.043 4.9727-1.6602 0.89062 0.38281 1.7852-0.25391 1.7852-1.4023 0-1.4023 0.63672-1.9141 1.9102-1.4023 1.1484 0.51172 2.0391 0.12891 2.0391-0.89063 0-0.89453 0.89453-1.2773 2.168-0.76562 1.5312 0.63672 1.9141 0.25391 1.4023-1.0234-0.50781-1.2734 0.12891-1.7852 1.5312-1.5273 1.2734 0.25391 2.9336-0.25781 3.8242-0.89453 0.89453-0.76562 2.2969-0.89062 3.0625-0.38281 0.76172 0.38281 1.7852-0.125 2.1641-1.2734 0.51172-1.1484 1.4062-1.7852 2.043-1.4023 0.63672 0.50781 1.2734 0.125 1.2734-0.64062s1.0195-1.4023 2.2969-1.4023c1.2734 0 3.9531-1.0195 5.7344-2.293 4.5938-3.3164 6.8867-2.9336 9.6914 1.4023 3.1875 4.9727 9.5625 7.6523 14.918 6.1211 5.8672-1.7852 8.9258-5.3555 9.6914-12.117 0.38281-3.1875 1.6562-6.6289 2.8047-7.5234 2.6758-2.0391 4.3359-2.168 4.3359-0.25391 0 0.76562-0.64062 1.0195-1.5312 0.50781-0.89453-0.63672-1.1484-0.38281-0.63672 0.51172 0.50781 0.76562 1.7852 1.1484 2.9297 0.76562 1.0234-0.51172 1.6602-1.2773 1.2773-1.9141-0.38281-0.51172 0.25391-1.4023 1.4023-1.7852 1.1484-0.38281 1.7852-0.38281 1.4023 0.25391-0.38281 0.51172 0.51172 1.0195 1.9141 1.0195 1.9102 0 2.1641-0.37891 1.0195-1.7852-1.0195-1.1445-0.89453-1.6562 0.38281-1.7852 10.328-0.50781 16.445-1.6562 19.125-3.5703 0.76562-0.50781 3.1875-1.0195 5.2266-0.89062 2.2969 0.125 3.6992-0.51172 3.6992-1.6602 0-1.0195 0.89062-1.7852 1.9102-1.7852 1.1484 0 2.0391-0.63672 2.0391-1.4023s0.64062-1.0195 1.2773-0.63672c0.76562 0.50781 2.6758 0.125 4.207-0.76562 1.5312-0.76562 2.5508-0.89453 2.0391-0.25391-0.38281 0.76562 0.12891 1.2734 1.1484 1.2734 1.0195 0 1.6562-0.50781 1.2734-1.1484-0.38281-0.63672-0.125-1.1484 0.64062-1.1484 0.76172 0 1.6562 0.64062 2.0391 1.2773 0.63672 1.0195 8.1602 1.0195 8.1602 0 0-0.12891 7.2656-0.25391 16.32-0.38281 8.9258-0.12891 16.703-0.63672 17.211-1.1484 1.4023-1.4023 2.168-1.2734 1.2773 0.25391zm395.64 89.785c0 0.76172-0.63672 1.2734-1.4023 1.2734-0.76562 0-1.2734-0.51172-1.2734-1.2734 0-0.76563 0.50781-1.4062 1.2734-1.4062 0.76563 0 1.4023 0.64062 1.4023 1.4062zm-731.61 325.07c2.0391 3.4414 4.5898 7.6523 5.6094 9.3086 1.1484 1.6602 1.6562 3.0625 1.1484 3.0625-1.0195 0-7.9062-10.586-9.9453-15.051-2.4219-5.6094-0.89453-4.4609 3.1875 2.6797zm590.97 35.707c0 0.25391-3.8242 3.6992-8.418 7.5234l-8.2852 6.8867 8.0312-7.3945c8.0352-7.5234 8.6719-8.0352 8.6719-7.0156zm-257.43 130.08c-0.38281 0.51172-1.5312 0.51172-2.5508 0.12891s-0.76562-0.76562 0.76562-0.76562c1.4023-0.12891 2.293 0.25391 1.7852 0.63672zm5.3516 1.4023c-0.38281 0.38281-1.5273 0.51172-2.5469 0.12891-1.0234-0.51172-0.76562-0.76562 0.76172-0.89453 1.4023 0 2.2969 0.25391 1.7852 0.76562z" fill="#d70f92" />
 <path d="m983.06 135.79c0 1.0195 0.51172 1.9102 1.2773 1.9102 0.76172 0 1.4023-0.89062 1.4023-1.9102 0-1.1484-0.64063-2.043-1.4023-2.043-0.76562 0-1.2773 0.89453-1.2773 2.043z" fill="#d70f92" />
 <path d="m1033.9 191.91c0 1.1484 0.89062 2.0391 2.0391 2.0391 1.1484 0 1.9141-0.63672 1.6562-1.5312-0.89062-2.4219-3.6953-2.9336-3.6953-0.50781z" fill="#d70f92" />
 <path d="m1045.2 214.73c-1.5312 3.6992 0 6.7578 3.4414 6.7578 2.5508 0 3.4453-0.89063 3.8281-3.1875 0.63672-4.7188-5.7383-7.9062-7.2695-3.5703z" fill="#d70f92" />
 <path d="m186.05 146.63c-1.5273 1.5312-1.1484 5.6094 0.51172 6.6328 1.7852 1.0195 3.8242-1.6602 3.8242-5.1016 0-2.2969-2.6758-3.1914-4.3359-1.5312z" fill="#d70f92" />
 <path d="m192.8 150.84c-8.2852 9.4375-11.219 27.676-6.6289 40.812 3.6953 10.457 11.219 20.277 20.91 27.418 5.9922 4.4609 8.1602 6.8867 8.2891 9.3086 0.125 2.9336 2.293 5.7383 4.5898 5.7383 0.38281 0 2.8047-1.4023 5.3555-3.3164 4.0781-3.0586 5.7344-3.3125 17.723-3.3125 12.492 0 30.09-2.8086 34.422-5.6133 1.5312-0.89453 1.1484-1.0195-1.2734-0.51172-1.9141 0.38281-8.9258 1.1484-15.555 1.6602-13.898 0.89062-23.207-0.25391-20.781-2.5508 1.9102-2.0391 1.9102-6.7578-0.12891-8.8008-2.2969-2.293-7.3945-1.9141-8.7969 0.51172-1.1484 2.0391-1.6602 2.0391-5.6094-0.12891-4.3359-2.168-4.4648-2.168-8.0352 1.2773l-3.5703 3.4414-6.2461-4.082c-11.477-7.6484-19.637-23.848-19.637-38.641 0-5.8672 3.3164-18.238 6.1211-22.574 2.293-3.5703 1.7852-3.9531-1.1484-0.63672z" fill="#d70f92" />
 <path d="m309.6 160.53c0 0.76562 0.63672 1.2773 1.4023 1.2773s1.0195-0.51172 0.63672-1.2773c-0.50781-0.76172-1.1484-1.4023-1.4023-1.4023-0.38281 0-0.63672 0.64062-0.63672 1.4023z" fill="#d70f92" />
 <path d="m300.29 169.2c0 1.2773 0.63672 2.043 1.4023 1.7891 0.76562-0.25781 1.4023-1.0234 1.4023-1.7891 0-0.63672-0.63672-1.4023-1.4023-1.6562-0.76562-0.38281-1.4023 0.51172-1.4023 1.6562z" fill="#d70f92" />
 <path d="m205.81 195.86c-3.3164 2.4219-2.043 6.7578 2.1641 7.2695 3.6992 0.38281 5.7383-2.168 4.4648-5.6133-1.1484-2.8047-3.9531-3.5703-6.6289-1.6562z" fill="#d70f92" />
 <path d="m235.26 198.03c-0.37891 0.76562 0.12891 1.2734 1.4062 1.2734 1.1445 0 1.7812-0.50781 1.2734-1.2734-0.38281-0.76562-1.0195-1.4023-1.2734-1.4023-0.25781 0-0.89453 0.63672-1.4062 1.4023z" fill="#d70f92" />
 <path d="m646.97 275.69c0 0.76562 0.63672 1.2773 1.4023 1.2773s1.0195-0.51172 0.63672-1.2773c-0.51172-0.76172-1.1484-1.4023-1.4023-1.4023-0.38281 0-0.63672 0.64063-0.63672 1.4023z" fill="#d70f92" />
 <path d="m531.83 281.69c0 1.4023 0.89453 2.0391 2.2969 1.7852 2.9336-0.51172 2.6758-2.9336-0.25391-3.5703-1.1484-0.25781-2.043 0.50781-2.043 1.7852z" fill="#d70f92" />
 <path d="m502.64 305.41c-2.168 2.168-2.043 4.4648 0.50781 7.0156s8.7969 2.8047 10.965 0.51172c2.2969-2.2969 2.043-7.3984-0.50781-8.293-3.4453-1.4023-9.1797-0.89062-10.965 0.76562z" fill="#d70f92" />
 <path d="m453.42 315.1c-1.5273 3.6953 0.51172 6.375 4.4648 5.8633 2.9336-0.38281 3.6953-1.1445 3.6953-3.8242 0-2.5508-0.76172-3.3164-3.6953-3.6992-2.4219-0.25391-3.9531 0.25391-4.4648 1.6602z" fill="#d70f92" />
 <path d="m623.38 330.4c-5.7383 3.5703-8.0312 10.457-5.4805 16.453 2.4219 5.9922 5.0977 7.9062 11.602 8.8008 4.8438 0.63672 5.8633 0.25391 10.074-3.9531 6.1172-6.125 6.5-12.5 1.0195-18.492-4.8477-5.3594-11.477-6.3789-17.215-2.8086z" fill="#d70f92" />
 <path d="m401.02 334.87c-3.9531 3.8242-0.50781 9.6914 5.1016 8.9258 4.0781-0.63672 6.375-4.4609 4.4609-7.5234-1.7852-2.8047-7.3945-3.6992-9.5625-1.4023z" fill="#d70f92" />
 <path d="m505.06 347.24c0 1.1484 0.63672 2.0391 1.4023 2.0391 0.63672 0 1.2734-0.50781 1.2734-1.1484 0-0.76562-0.63672-1.6562-1.2734-2.168-0.76563-0.38281-1.4023 0.12891-1.4023 1.2773z" fill="#d70f92" />
 <path d="m419.63 349.53c0.89063 2.5508 3.8242 2.9336 3.8242 0.64062 0-1.2773-1.0195-2.168-2.168-2.168-1.1484 0-1.9141 0.76562-1.6562 1.5273z" fill="#d70f92" />
 <path d="m420.02 370.07c-6.7578 6.6289-2.168 16.707 7.5195 16.707 5.7383 0 10.586-4.4648 10.586-9.8203 0-4.9727-5.4844-10.203-10.711-10.203-2.5508 0-5.3555 1.2734-7.3945 3.3164z" fill="#d70f92" />
 <path d="m763.63 373.64c0.25391 1.7852 1.4023 3.1875 2.5508 3.1875 2.8047 0 2.4219-5.2266-0.51172-5.8672-1.9141-0.38281-2.293 0.25781-2.0391 2.6797z" fill="#d70f92" />
 <path d="m900.7 398.76c-0.38281 0.76172-0.125 1.6562 0.64063 2.168 0.76172 0.38281 1.4023-0.12891 1.4023-1.2773 0-2.4219-0.89453-2.6797-2.043-0.89062z" fill="#d70f92" />
 <path d="m352.95 411.64c-0.51172 1.1484-0.25781 2.8047 0.50781 3.5703 2.168 2.168 6.375 0.63672 6.375-2.2969 0-3.4414-5.7383-4.4609-6.8828-1.2734z" fill="#d70f92" />
 <path d="m907.58 411.77c-2.0391 2.0391-0.89062 5.8633 1.9141 5.8633 2.0391 0 2.6758-0.76172 2.293-2.9297-0.38281-2.9336-2.5508-4.4648-4.207-2.9336z" fill="#d70f92" />
 <path d="m683.95 429.5c-1.4062 2.168 0.63672 5.7383 3.0586 5.2266 2.8047-0.50781 2.8047-5.4844-0.12891-6.1211-1.1484-0.25391-2.5508 0.12891-2.9297 0.89453z" fill="#d70f92" />
 <path d="m405.99 436.38c0 0.76563 0.63672 1.2734 1.4023 1.2734 0.63672 0 1.2773-0.50781 1.2773-1.2734 0-0.76562-0.64062-1.4023-1.2773-1.4023-0.76562 0-1.4023 0.63672-1.4023 1.4023z" fill="#d70f92" />
 <path d="m381.25 441.99c-7.5234 3.9531-17.977 15.176-23.207 24.867-19.125 35.84-11.602 101.13 15.812 138.25 25.371 34.305 53.934 40.68 89.379 19.895 9.6875-5.6133 30.344-26.398 36.336-36.477 6.6328-11.094 13.133-29.457 15.684-43.867 3.0586-17.984 2.0391-49.102-2.168-62.109-5.7383-17.855-13.387-29.332-24.734-37.492-8.0312-5.7383-11.094-6.1211-4.4609-0.64063 18.742 15.434 28.43 60.195 20.527 94.629-6.8867 29.969-34.938 61.98-62.734 71.672-33.66 11.605-69.871-19.383-80.578-69.25-3.3164-14.793-3.3164-41.957-0.12891-56.238 3.5703-15.434 11.219-31.246 19.379-39.406 3.6992-3.6992 6.6328-6.7617 6.5039-6.7617-0.12891 0.12891-2.6758 1.4023-5.6094 2.9336z" fill="#d70f92" />
 <path d="m791.94 446.07c14.027 14.027 21.93 35.453 23.332 62.746 1.7852 35.453-8.1602 64.527-29.07 85.699-12.75 12.879-22.059 17.727-35.699 18.363-32.004 1.6602-70-32.266-79.945-71.418-8.2852-32.773 0.38281-75.113 19.637-95.52l4.3359-4.4609-4.5898 2.293c-7.3984 3.6992-17.086 14.668-22.188 25.125-8.1602 16.707-9.4336 23.848-9.3086 51.777 0.12891 26.527 1.5312 34.941 9.0547 53.691 14.918 36.855 53.039 64.91 84.535 62.359 32-2.5508 61.965-38.129 71.781-85.316 3.9531-19.383 4.082-48.336 0-63.254-5.4805-20.535-17.469-37.621-32.258-45.656l-6.6289-3.5703z" fill="#d70f92" />
 <path d="m480.32 451.05c-2.6797 3.0625-1.7852 7.5234 1.9102 8.6719 5.8672 1.9141 10.074-4.207 5.9922-8.6719-1.2734-1.4023-3.0586-2.6758-3.9531-2.6758-0.89063 0-2.5469 1.2734-3.9492 2.6758z" fill="#d70f92" />
 <path d="m922.88 471.96c0 1.5312 0.38281 1.9141 0.76563 0.76562 0.38281-0.89062 0.38281-2.0391-0.12891-2.5508-0.38281-0.38281-0.76562 0.38281-0.63672 1.7852z" fill="#d70f92" />
 <path d="m465.66 492.11c-0.89453 2.4219 1.4023 5.8672 3.9531 5.8672s4.8438-3.4453 3.8242-5.8672c-0.38281-1.1484-2.168-2.168-3.8242-2.168-1.6602 0-3.4453 1.0195-3.9531 2.168z" fill="#d70f92" />
 <path d="m449.09 522.34c-3.6992 3.6992 0 11.734 5.3555 11.734 2.5469 0 6.5-4.207 6.5-7.0156 0-5.1016-8.1602-8.418-11.855-4.7188z" fill="#d70f92" />
 <path d="m434.17 524.76c0 2.0391 0.63672 2.6758 2.293 2.4219 1.2773-0.25391 2.2969-1.2773 2.2969-2.4219 0-1.1484-1.0195-2.168-2.2969-2.4258-1.6562-0.25391-2.293 0.38281-2.293 2.4258z" fill="#d70f92" />
 <path d="m468.46 530.62c-1.0195 2.6797 1.2734 5.3594 3.6992 4.4648 2.6758-1.1484 2.6758-4.4648 0-5.4844-2.8086-1.1484-2.8086-1.1484-3.6992 1.0195z" fill="#d70f92" />
 <path d="m493.71 547.33c-0.38281 0.63672 0.125 1.9141 1.1484 2.8086 1.4023 1.1445 2.0391 1.0195 2.6758-0.64062 0.51172-1.2734 0.89453-2.4219 0.89453-2.8047 0-1.0195-3.9531-0.51172-4.7188 0.63672z" fill="#d70f92" />
 <path d="m289.2 550.65c-1.1445 2.6797 0.89453 5.2305 3.8281 4.7188 3.5703-0.76563 3.3125-5.7383-0.38281-6.25-1.5312-0.25391-3.0625 0.38281-3.4453 1.5312z" fill="#d70f92" />
 <path d="m328.59 554.6c-2.168 2.043-2.0391 4.3359 0.38281 6.25 1.6602 1.4023 2.4219 1.4023 4.082 0 2.6758-2.168 2.5508-4.9727-0.51172-6.5039-1.6562-0.89453-2.9336-0.89453-3.9531 0.25391z" fill="#d70f92" />
 <path d="m443.98 560.21c-0.51172 1.2734-0.25391 2.8047 0.51172 3.6953 2.0391 2.043 5.9922 0.12891 5.4805-2.6758-0.63672-3.0625-4.9727-3.8281-5.9922-1.0195z" fill="#d70f92" />
 <path d="m884.76 569.78c-4.8438 24.613-17.082 45.531-44.242 76.137l-9.4336 10.711 12.492-10.711c22.695-19.383 23.844-19.895 6.8867-3.0625-22.566 22.32-37.867 34.309-69.105 54.328-1.4023 0.89453 3.4414-1.1445 10.711-4.4609 17.465-7.9062 34.551-17.727 48.066-27.676 22.57-16.578 52.66-51.012 48.832-55.73-1.4023-1.6562-1.2734-1.9141 0.64062-1.1484 2.0391 0.76563 3.3125-1.0195 7.1406-9.1797 5.8633-12.371 14.406-37.621 13.512-39.789-0.37891-0.89453-0.76172-0.64062-0.76172 0.63672-0.25781 4.8438-15.301 31.883-24.992 44.633-12.621 16.707-16.191 20.277-8.0312 8.0352 8.7969-13.262 14.152-25.121 15.938-34.941 1.6562-9.6914 0.125-18.363-3.1875-19.004-1.7852-0.38281-2.6797 2.043-4.4648 11.223z" fill="#d70f92" />
 <path d="m459.79 563.91c-1.9102 2.2969 0.25781 5.6133 2.9336 4.5938 2.6797-1.0195 2.8047-2.8047 0.38281-4.7188-1.4023-1.1484-2.293-1.1484-3.3164 0.125z" fill="#d70f92" />
 <path d="m409.43 594.27c-0.50781 0.89062-0.63672 2.0391-0.25391 2.4219 1.2773 1.2734 2.5508-0.51172 1.9141-2.4219-0.51172-1.4023-0.76562-1.4023-1.6602 0z" fill="#d70f92" />
 <path d="m513.34 597.32c-3.3125 3.3164 0 8.6719 4.2109 7.0156 2.8047-1.1484 2.9297-6.7617 0.125-7.7812-2.6758-1.0195-2.4219-1.1484-4.3359 0.76562z" fill="#d70f92" />
 <path d="m811.19 608.68c-1.7852 1.7852-0.76562 4.4648 1.7852 4.4648 1.7852 0 2.6758-0.89453 2.6758-2.6797 0-2.5508-2.6758-3.5703-4.4609-1.7852z" fill="#d70f92" />
 <path d="m498.55 614.41c-2.5508 1.5312-0.76563 5.7383 2.168 5.2305 1.2734-0.25781 2.2969-1.6602 2.2969-3.0625 0-2.9336-1.9141-3.9531-4.4648-2.168z" fill="#d70f92" />
 <path d="m344.91 625.77c-1.1445 3.1875 0.51172 6.375 3.1875 5.8633 1.4023-0.25391 2.2969-1.6562 2.2969-3.8242 0-3.6992-4.207-5.3555-5.4844-2.0391z" fill="#d70f92" />
 <path d="m467.95 684.05c-8.9219 8.4141-20.527 14.027-35.828 17.469-15.555 3.5742-19.379 5.1016-19.379 8.0352 0 2.9336 2.2969 3.9531 12.242 5.3555 10.453 1.5312 24.859-0.63672 37.484-5.6094 11.73-4.5898 14.281-7.3984 15.426-17.09 1.0234-9.3086-1.1445-9.5625-9.6875-1.5312-7.6523 7.2695-23.207 15.559-31.367 16.965-3.3125 0.50781-0.25391-1.5312 9.9453-6.6328 11.348-5.7383 16.574-9.3086 22.695-15.559 9.5625-9.5664 8.4141-10.715-1.5312-1.4023z" fill="#d70f92" />
 <path d="m649.52 801.38c-3.1875 3.9531 3.4414 10.582 7.7773 7.7773 3.1875-2.0391 3.5703-5.1016 1.0195-7.6523-2.8047-2.8047-6.5039-2.8047-8.7969-0.125z" fill="#d70f92" />
 <path d="m701.54 812.09c-0.38281 0.38281-4.5898 1.9141-9.1797 3.3164-6.25 1.9141-7.1406 2.4219-3.1875 1.7852 5.2266-0.76562 17.34-5.4844 14.535-5.7383-0.76562-0.12891-1.7852 0.25391-2.168 0.63672z" fill="#d70f92" />
 <path d="m388.01 98.297c-4.5898 4.5938-1.4023 11.988 4.8438 11.098 4.082-0.51172 5.2266-8.8008 1.6562-11.352-3.0586-2.2969-3.9492-2.2969-6.5 0.25391z" fill="#d70f92" />
 <path d="m1090.2 135.03c-1.9102 3.4414-0.50781 6.6328 3.4453 7.6523 3.9492 0.89062 7.2656-1.5312 7.2656-5.6133 0-4.9727-8.2891-6.6289-10.711-2.0391z" fill="#d70f92" />
 <path d="m512.07 136.68c-2.293 2.168-2.0391 7.1445 0.25391 9.0547 2.8047 2.2969 7.6523 1.1484 8.9258-2.168 2.0391-5.6094-5.0977-10.965-9.1797-6.8867z" fill="#d70f92" />
 <path d="m46.305 154.54c-0.89063 2.2969 1.7852 5.9922 4.3359 5.9922 2.4219 0 3.5703-2.293 2.5508-5.3555-1.0195-3.1875-5.7383-3.5703-6.8867-0.63672z" fill="#d70f92" />
 <path d="m714.16 155.43c-0.89062 0.89062-1.5273 3.4414-1.5273 5.7383 0 7.0117 5.3555 9.8203 9.9453 5.2266 2.6758-2.6758 1.7852-8.2891-1.6602-10.84-2.6758-2.168-4.7148-2.168-6.7578-0.125z" fill="#d70f92" />
 <path d="m1116.9 157.86c-1.5312 1.5312-2.6797 4.207-2.6797 5.9922 0 4.082 4.207 8.6719 8.0352 8.6719 3.0586 0 9.3047-5.6094 9.3047-8.4141 0-1.0234-1.2734-3.4453-2.8047-5.3594-3.3125-4.3359-8.1602-4.5898-11.855-0.89062z" fill="#d70f92" />
 <path d="m499.32 159.77c-0.51172 1.0195 0 2.8047 0.89453 4.0781 1.5273 2.043 1.7812 2.043 3.4414 0.12891 1.4023-1.6562 1.4023-2.5508 0.125-4.082-2.1641-2.5508-3.5664-2.5508-4.4609-0.125z" fill="#d70f92" />
 <path d="m1135.7 161.68c-0.89453 1.7852-0.76562 3.1875 0.38281 4.8477 2.4219 3.1875 6.7578 2.0391 7.3945-1.7852 0.76562-5.2305-5.3555-7.6523-7.7773-3.0625z" fill="#d70f92" />
 <path d="m1098.2 169.2c0 1.1484 0.50781 2.043 1.2734 2.043s1.4023-0.89453 1.4023-2.043c0-1.0195-0.63672-2.0391-1.4023-2.0391s-1.2734 1.0195-1.2734 2.0391z" fill="#d70f92" />
 <path d="m637.02 170.61c-2.4219 2.5508-2.5508 3.9531-0.76563 7.3945 2.5508 4.5938 9.4336 2.4219 9.4336-2.9336 0-2.4219-3.4414-6.5039-5.3555-6.5039-0.63672 0-2.1641 0.89453-3.3125 2.043z" fill="#d70f92" />
 <path d="m1115.9 181.45c-0.38281 1.1484 0.25391 3.0586 1.4023 4.207 2.0391 2.0391 2.4219 2.0391 4.332 0.12891 1.1484-1.1484 1.6602-2.9336 1.1484-4.2109-1.1484-2.9336-5.7383-2.9336-6.8828-0.125z" fill="#d70f92" />
 <path d="m549.94 187.57c-6.5 3.4414-7.7773 8.7969-3.1875 13.133 4.207 3.8281 11.094 3.5742 15.301-0.63672 1.7852-1.7852 3.3164-4.207 3.3164-5.3555 0-3.1875-6.25-8.8008-9.6914-8.6719-1.6562 0-4.3359 0.63672-5.7383 1.5312z" fill="#d70f92" />
 <path d="m415.68 188.97c-2.5508 2.4219-2.0391 8.8008 0.76562 10.203 5.4805 3.0586 9.5625-5.1016 4.8438-9.8203-2.5508-2.4219-3.5703-2.5508-5.6094-0.38281z" fill="#d70f92" />
 <path d="m438.76 201.98c0.50781 0.76562 1.1484 1.4023 1.4023 1.4023 0.38281 0 0.63672-0.63672 0.63672-1.4023 0-0.63672-0.63672-1.2773-1.4023-1.2773s-1.0195 0.64062-0.63672 1.2773z" fill="#d70f92" />
 <path d="m437.23 209.5c-1.1484 2.9336 1.6562 5.6133 3.6992 3.5703 1.7852-1.6562 0.76172-5.7383-1.4023-5.7383-0.89453 0-1.9141 1.0195-2.2969 2.168z" fill="#d70f92" />
 <path d="m749.22 209.38c-0.50781 1.2734-0.25391 2.8047 0.51172 3.5703 2.168 2.168 6.375 0.76562 6.375-2.168 0-3.4453-5.7383-4.5938-6.8867-1.4023z" fill="#d70f92" />
 <path d="m57.527 255.16c-1.6602 1.5312-1.0234 5.3555 1.1445 7.1406 2.9336 2.5508 7.2695-1.6562 5.1016-5.1016-1.6562-2.4219-4.8438-3.5703-6.2461-2.0391z" fill="#d70f92" />
 <path d="m1074.1 309.11c-5.6133 5.6133-1.7852 14.793 5.9922 14.793 6.2461 0 10.582-8.6719 7.2656-14.793-1.9102-3.5703-9.6914-3.5703-13.258 0z" fill="#d70f92" />
 <path d="m188.34 368.02c-5.9922 2.4258-4.9727 9.9492 1.5273 11.605 4.082 1.0234 9.9453-2.5508 9.9453-6.1211 0-2.5508-4.7148-6.8867-7.2656-6.6289-0.76562 0-2.6797 0.50781-4.207 1.1445z" fill="#d70f92" />
 <path d="m977.2 370.32c-1.5312 1.5312-1.0195 3.0625 1.1484 3.0625 1.0195 0 2.0391-0.89453 2.0391-1.9141 0-2.168-1.6602-2.6797-3.1875-1.1484z" fill="#d70f92" />
 <path d="m169.6 383.46c-3.5703 3.6992-4.3359 10.586-1.7852 17.855 1.6562 4.7148 6.7578 7.0117 10.453 4.7148 2.4219-1.6562 6.7578-13.008 6.7578-17.98 0.12891-7.6523-9.5625-10.457-15.426-4.5898z" fill="#d70f92" />
 <path d="m1044.1 381.04c-1.9141 1.9102-0.89062 8.4141 1.5312 9.6914 5.0977 2.6758 9.5625-4.7188 5.3555-8.9297-1.7852-1.7852-5.4844-2.168-6.8867-0.76172z" fill="#d70f92" />
 <path d="m991.99 399.27c-0.89062 2.6797 0.38281 4.9727 3.0586 4.9727 2.5508 0 3.9531-2.293 3.0625-4.9727-0.38281-1.0195-1.6602-1.7852-3.0625-1.7852-1.2734 0-2.6758 0.76562-3.0586 1.7852z" fill="#d70f92" />
 <path d="m1000.8 458.57c-0.89062 2.5508 2.2969 5.1016 4.082 3.3164 1.5273-1.5312 0.125-5.4844-1.7852-5.4844-0.76562 0-1.7852 1.0234-2.2969 2.168z" fill="#d70f92" />
 <path d="m116.43 505.5c-1.7812 1.7852-0.89063 5.7383 1.5312 7.1406 3.0625 1.6562 5.9922-1.1484 5.3555-4.8477-0.50781-2.5508-5.1016-4.0781-6.8867-2.293z" fill="#d70f92" />
 <path d="m1045.5 505.5c-1.9141 1.9102-0.89062 4.4609 1.7852 4.4609 1.9141 0 2.6758-0.63672 2.4219-2.168-0.50781-2.4219-2.8047-3.6953-4.207-2.293z" fill="#d70f92" />
 <path d="m1082 533.56c-2.5508 3.0625 0 8.9297 4.4648 10.586 7.7773 2.6797 11.984-4.8477 5.4805-9.8203-4.207-3.4414-7.5234-3.6992-9.9453-0.76562z" fill="#d70f92" />
 <path d="m141.55 698.97c-1.4023 2.168 1.6562 4.7148 3.5703 2.9297 1.5273-1.5273 0.50781-4.4609-1.5312-4.4609-0.63672 0-1.5312 0.76562-2.0391 1.5312z" fill="#d70f92" />
 <path d="m179.8 716.31c0 0.76172 0.50781 1.0195 1.2734 0.63672 0.76562-0.51172 1.4023-1.1484 1.4023-1.4023 0-0.38281-0.63672-0.64062-1.4023-0.64062s-1.2734 0.64062-1.2734 1.4062z" fill="#d70f92" />
 <path d="m247.63 717.97c-0.89453 2.5508 1.5273 6.25 4.332 6.25 3.6992 0 6.1211-3.4453 4.082-5.9961-2.0391-2.4219-7.5234-2.6758-8.4141-0.25391z" fill="#d70f92" />
 <path d="m207.98 738.88c-2.5469 1.6602-0.76172 5.7383 2.168 5.2305 1.2773-0.25391 2.4219-1.6602 2.4219-3.0625 0-2.9336-1.9102-3.8242-4.5898-2.168z" fill="#d70f92" />
 <path d="m205.05 767.96c-2.4258 2.9336 0.125 6.5039 4.8438 6.5039 4.5898 0 7.2695-3.5703 4.7188-6.5039-0.89453-1.2773-3.0625-2.168-4.7188-2.168s-3.8242 0.89062-4.8438 2.168z" fill="#d70f92" />
 <path d="m792.45 805.71c-4.8477 5.3555-0.89453 14.027 6.2461 13.391 3.1875-0.38281 4.4609-1.2773 5.4844-4.2109 2.8047-8.0312-6.25-15.176-11.73-9.1797z" fill="#d70f92" />
 <path d="m945.83 812.85c0.76562 2.5508 3.6992 2.9336 3.6992 0.63672 0-1.2734-0.89453-2.168-2.168-2.168-1.1484 0-1.7852 0.76563-1.5312 1.5312z" fill="#d70f92" />
 <path d="m742.98 984.12c-3.3164 2.0391-2.9336 8.6719 0.63672 11.223 1.6602 1.1484 4.5898 2.0391 6.5039 2.0391 7.6484 0 9.1797-7.7773 2.293-11.988-4.9727-3.0586-6.1172-3.1875-9.4336-1.2734z" fill="#d70f92" />
</svg>