<?xml version="1.0" encoding="UTF-8"?>
<svg width="1587" height="1587" version="1.0" viewBox="0 0 1190.2 1190.2" xmlns="http://www.w3.org/2000/svg" zoomAndPan="magnify">
 <defs>
  <clipPath id="c">
   <path d="m0 0h1189.5v1189.5h-1189.5z"/>
  </clipPath>
  <clipPath id="a">
   <path d="m877 906h121.5v269.81h-121.5z"/>
  </clipPath>
  <clipPath id="b">
   <path d="m921 248h268.5v159.57h-268.5z"/>
  </clipPath>
 </defs>
 <g clip-path="url(#c)" fill="#fff">
  <path d="m0 0h1189.5v1189.5h-1189.5z"/>
  <path d="m0 0h1189.5v1189.5h-1189.5z"/>
 </g>
 <path d="m994.94 825.19c0.69531 12.594 2.5508 47.723-18.918 34.598-10.391-6.7852-16.262-18.078-21.641-28.883-3.6562-6.9414-7.9219-13.551-11.945-20.277-11.84-19.148-23.895-38.277-32.25-59.266-5.293-12.363-11.277-24.828-12.703-38.344-1.625-10 2.6406-19.457 7.168-28.117 7.8594-15.828 25.648-22.254 42.309-23.379 12.363-1.4766 28.445-8.1953 37.613 3.7539 20.082 29.113 5.2578 73.234 7.3711 106.7 0.20313 17.883 1.9336 35.426 2.9961 53.219" fill="#969cff"/>
 <path d="m1082.1 672.52c-8.4492-1.9609-17.059-3.3281-25.715-3.9727-8.8867-1.3711-18.754 1.7031-25.285 8.3125-20.242 18.359-19.168 48.684-24.766 73.523-5.3906 23.492-6.9453 47.664-5.9648 71.711 0.14453 5.1562-2.4922 29.84 3.6953 33.73 6.6289 2.4688 42.941-38.559 57.281-50.609 6.6406-6.3945 13.723-12.25 20.703-18.262 8.9414-7.2422 18.699-14.59 25.344-24.168 4.1562-7.1758 8.4141-15.055 9.9922-23.34 0.92187-2.0859 1.7695-4.1953 2.5273-6.3438 9.2031-22.156-16.461-55.371-37.812-60.582" fill="#969cff"/>
 <path d="m1151.3 915.34c-8.7539-7.3633-19.801-11.641-30.949-14.352-13.844-4.0586-27.375-9.0859-41.234-13.133-12.422-4.0625-25.258-7.1055-38.234-9.582-5.3086-1.0156-12.5-2.4258-15.512 3.5078-6.5586 11.398 18.402 40.012 24.152 51.598 8.1992 15.195 18.828 28.531 26.473 44.102 5.2891 8.7227 9.8828 17.91 16.273 26.043 0.64844 0.91797 1.2891 1.8516 1.9297 2.7852 0.027344 0.039062 0.050782 0.082031 0.082032 0.12109 11.094 19.297 19.184 36.086 42.016 43.488 8.3047 2.7109 17.707-0.80078 22.684-7.8672 12.617-16.844 10.148-39.145 11.984-58.992 2.8477-26.754 3.4336-50.215-19.664-67.719" fill="#969cff"/>
 <path d="m1127.7 1100.1c-5.3633-14.801-14.609-27.68-22.262-41.32-6.4531-11.566-13.836-23.727-21.105-35.004-17.473-27.457-32.906-55.742-48.625-84.508-6.0508-10.184-10.074-21.52-19.484-30.004-4.6797-3.1797-10.223 1.2109-10.703 6.2031-0.92188 4.5703 1.1484 38.398 2.1055 45.914 1.3047 9.7656 1.6484 19.598 2.0195 29.43 1.1055 17.84 3.1523 35.387 2.8828 53.309 0.023438 15.367 2.2188 30.586 3.3516 45.875 2.6328 27.578 6.2852 71.461 38.254 79.969 21.883 4.8945 44.973-0.15625 66.324-5.707 31.43-7.5195 14.598-43.863 7.2422-64.156" fill="#969cff"/>
 <g clip-path="url(#a)">
  <path d="m986.91 908.41c-3.9219 3.6719-5.3203 9.0508-7.2109 13.914-0.84375 1.8633-1.7695 3.7266-2.7148 5.5938-5.4219 7.8008-9.2773 16.555-13.266 25.137-3.0781 5.875-6.3555 11.605-8.9805 17.703-8.5039 14.781-16.789 29.664-23.672 45.328-1.582 3.4922-3.4258 6.9883-5.1797 10.523-4.9844 8.1641-9.75 16.445-13.445 25.316-10.863 25.117-32.781 46.207-35.273 74.465-1.3086 23.77 20.586 39.828 42.027 44.73 1.4531 0.625 3.0352 1.0039 4.5703 1.3125 6.5703 1.1328 13.18 2.3789 19.828 3.0234 11.902 1.7617 27.223-2.8594 31.016-15.473 0.078125-0.25 0.13672-0.49609 0.20312-0.74219 4.6367-11.461 5.4688-27.418 6.6875-36.984 2.8672-35.781 4.9453-71.637 9.3594-107.27 2.0469-20.141 5.7266-40.281 6.2539-60.586 0.20312-5.0391 0.007812-10.066-0.16406-15.09 0.52734-8.3789 5.6211-41.375-10.039-30.906" fill="#969cff"/>
 </g>
 <path d="m976.84 898.55c-2.7422-2.0078-9.9766-1.0508-16.219 2.5-2.5938 1.2617-5.1328 2.7031-7.6719 3.8711-13.941 7.5078-25.832 18.25-40.281 24.902-12.664 5.1641-22.715 14.598-34.453 21.367-5.2695 2.9648-10.438 6.1055-15.52 9.3867-11.5 7.1016-22.395 15.137-32.91 23.695-15.531 10.699-29.422 24.27-24.836 41.688 0.050782 2.1719 0.31641 4.3633 0.85938 6.5547 6.7891 20.039 19.582 44.012 41.594 49.645 16.992 1.7422 34.684-20.68 44.938-32.457 13.77-16.164 24.305-34.559 35.039-52.777 7.918-13.195 16.676-25.867 24.488-39.133 2.832-4.8281 5.4648-9.7578 8.0469-14.719 3.2227-4.8438 6.4219-9.6992 9.3359-14.742 2.5977-2.9609 4.707-6.5078 6.7109-9.7734 4.4336-6.9375 6.5391-13.703 0.87891-20.008" fill="#969cff"/>
 <path d="m967.51 882.92c-4.1758-7.3828-13.469-7.8672-20.492-11.074-9.2891-4.4961-19.07-7.6562-28.871-10.789-5.168-1.9492-10.398-3.75-15.723-5.2695-25.34-7.207-49.191-18.488-74.426-26.25-23.555-6.6641-33.848 4.5273-41.422 25.703-3.7344 13.082-0.84375 27.023 2.7578 39.824 3.3945 13.402 8.1211 29.469 24.027 31.621 13.23 2.1328 25.668-4.7852 38.363-7.3594 21.422-4.5312 42.617-9.8398 63.832-15.246 12.234-2.8203 24.578-5.1055 36.852-7.7031 4.0586-1.1406 8.6992-1.1758 12.277-3.5391 4.7656-3.5859 4.4297-7.2734 2.8242-9.918" fill="#969cff"/>
 <path d="m1170.8 833.05c-0.73438-2.2969-0.066406-5.2773-0.875-7.7227-0.29297-0.73047-0.11328-2.1328-0.027344-2.9688 0.17969-1.4141-0.12891-2.7617-0.50781-4.1016 0.44531-7.2656-0.074219-14.473-3.2812-21.348-2.4414-8.0312-7.0781-15.988-15.637-18.484-4.9453-1.8867-9.8906-2.0547-14.801-1.043-5.1094 0.39453-10.297 1.7812-14.961 3.8828-8.7344 3.6758-17.043 8.4336-24.57 14.203-8.6641 7.9375-16.812 16.426-26.734 22.914-10.012 6.8398-17.902 16.227-27.836 23.148-4.4922 3.1016-23.117 14.133-23.238 21.684-0.85156 2.8242 0.64844 5.7969 5.8672 7.3438 9.2891 2.5273 19.211 3.0703 28.867 3.6641 16.941 1.4062 33.934 2.1172 50.934 1.8828 8.0156 0.26953 15.973-0.73828 23.961-1.168 8.3359 0.046875 16.762-0.60938 24.664-3.418 6.6992-1.4297 11.848-6.1289 14.387-12.438 2.6055-8.2695 5.8047-17.344 3.7891-26.031" fill="#969cff"/>
 <path d="m1014.7 880.79c1.418 2.5586 2.125 5.7188 1.0938 8.5391-0.47656 1.7539-2.3359 3.1914-1.582 5.0625 0.67969 3.2266-1.3711 6.4023-4.4023 7.4648-3.625 3.5547-9.4492 5.3672-14.207 3.1289-8.6289-3.1523-17.824-8.2422-20.238-18.07-1.1094-4.5234-0.0625-9.3242 2.9219-12.969 3.3789-4.3828 6.7461-10.762 13.27-10.047 1.7734-0.050782 3.0352-0.48047 4.7227-0.61328 2.3633-0.27344 4.6016 0.71484 6.8086 1.3984 1.8203 0.33984 3.6562 0.79297 5.1406 1.9688 3.9805 3.4062 9.9141 8.4141 6.4727 14.137" fill="#ffe45e"/>
 <path d="m1151.8 986.36c-6.1797-3.6055-12.594-7.7188-18.504-11.566-5.2461-3.0234-10.816-5.8711-14.914-10.477-4.4336-4.9102-7.2344-10.633-11.52-15.309-4.5391-4.75-10.578-7.5469-16.215-10.723-11.355-6.4453-24.332-11.723-32.695-22.121-3.1172-4.0273-5.3516-9.4336-9.2773-12.672-3.0938-3.0352-6.668-5.5547-10.328-7.8672-2.7383-1.8906-5.5273-3.1836-6.8789-5.9492-0.90625-9.1016 13.352-1.082 16.969 1.0156 5.4414 3.082 7.9844 8.8477 10.336 14.32 8.7695 17.551 28.816 22.168 43.762 32.469 2.582 2.2344 5.1797 4.5039 7.5 7.0078 4.0117 4.8672 6.4492 11.055 11.043 15.219 8.5742 10.742 25.023 13.746 30.723 26.652" fill="#fff"/>
 <path d="m1088.3 1153.9c-1.0391-1.832-2.1836-3.5664-3.3945-5.207-10.293-13.184-6.543-31.207-9.7656-46.523-2.5742-9.2461-10.035-16.031-13.812-24.734-4.4492-11.109-8.8555-22.641-9.4102-34.711-1.1016-10.953-2.2734-22.422-7.1289-32.422-4.8125-7.6484-10.828-14.242-13.504-23-3.8789-9.3359-4.8672-19.664-5.8477-29.477-1.293-11.066-4.9805-21.375-10.523-30.871-0.48047-1.1914-1.4531-2.3359-1.2656-3.6719 0.22656-1.5312 2.1758-2.0703 3.2656-1.0195 1.2852 1.2148 2.4961 2.5586 3.4961 4.0234 10.742 16.391 5.7969 37.262 13.188 54.879 1.9023 6.168 4.707 12.211 8.5781 17.34 3.0391 4.1055 6.6992 7.8984 8.4531 12.793 2.3945 6.4766 3.2422 12.867 4.4102 19.551 1.5742 15.973 5.0156 32.086 12.605 46.309 3.5 6.2578 8.1992 12.031 10.855 18.559 3.6133 10.617 1.6211 21.773 3.4531 32.676 0.44531 8.9141 8.2227 16.484 6.3477 25.508" fill="#fff"/>
 <path d="m916.71 1161.4c2.3438-9.8438 6.1992-19.309 8.1914-29.219 1.0469-12.906 0.22656-26.121 3.4258-38.781 2.1992-9.1016 8.2812-16.73 12.801-24.668 3.9375-6.5625 6.6914-13.809 9.2578-21.004 6.8516-19.301 6.5352-40.199 12.527-59.684 3.1562-9.5117 8.1523-18.262 13.555-26.641 6.5312-11.68 9.6562-24.82 11.27-37.91 1.9766-5.1289 4.1758-0.55078 3.8984 2.7305 0.42188 24.895-18.211 44.395-25.293 67.148-4.5508 21.211-6.0039 43.18-13.066 63.84-3.1055 9.3125-8.6719 17.41-13.887 25.613-7.582 14.09-7.6602 30.195-8.1602 45.742-1.4531 11.957-6.0625 24.227-14.52 32.832" fill="#fff"/>
 <path d="m829.79 1045.1c6.0742-13.75 17.836-24.672 31.047-31.539 11.793-4.4453 22.535-11.414 30.492-21.285 8.9805-9.3047 13.984-21.242 23.969-29.508 17.719-14.328 39.652-25.75 49.473-47.254 1.2031-2.2383 2.2422-4.5938 3.7852-6.6172 0.55859-0.67969 1.625-0.76172 2.3203-0.27734 1.918 1.5117-0.37891 3.8125-1.0039 5.4648-5.5625 13.121-14.82 23.859-25.48 33.141-8.4805 6.8945-17.949 12.676-25.621 20.379-13.969 13.625-22.629 32.133-38.945 43.465-8.2148 6.4453-18.625 9.0586-26.664 15.789-7.9531 5.9844-13.824 14.898-23.371 18.242" fill="#fff"/>
 <path d="m908.35 887.71c-10.375-0.10547-20.43-4.3125-30.438-6.1367-8.8164-0.90234-17.578 1.4375-26.426 0.53516-11.684-0.19531-23.184-2.4766-34.352-5.8125-4.8086-1.6484-10.207-1.9727-14.492-4.875-0.72266-0.47266-1.5117-0.78125-2.2031-1.0352 2.7969-3.9141 8.3984-3.1094 12.445-1.9414 11.312 3.168 22.738 7.0625 34.562 7.3594 12.023 1.4531 24.43-2.918 36.113 1.1641 9.7422 3.6953 19.992 8.2969 30.625 6.5234 9.4648-1.625 19.023-4.4531 28.383-0.76562 3.668 1.0781 7.4883 1.1367 11.27 0.85156 0.91797-0.089843 1.8594-0.11328 2.668 0.40625 1.1992 0.73047 1.1172 2.3789-0.39453 2.7852-2.0352 0.40625-4.1719-0.26563-6.2578-0.27734-5.2852-0.26562-10.34-2.0625-15.613-2.3047-8.7461 0.24219-17.098 3.75-25.891 3.5234" fill="#fff"/>
 <path d="m953.93 845.58c-6.4219-9.2109-12.91-18.5-19.852-27.406-5.9961-8.8125-11.934-17.641-17.348-26.828-9.793-15.594-17.676-32.379-26.941-48.281-6.9492-11.297-14.082-22.547-19.719-34.594-5.8047-12.922-13.348-24.676-21.078-36.574-7.4023-12.012-14.375-24.676-24.836-34.359-12.176-9.9883-25.652-20.133-41.25-23.68-16.121-3.0156-31.469 3.1836-45.664 11.164-14.387 8.7383-21.203 25.211-22.832 41.367-0.49219 2.8633-0.77344 5.7656-0.80859 8.6562-0.042969 0.27344-0.078125 0.54297-0.10938 0.81641-2.8984 32.355 30.895 58.012 58.645 77.836 5.1523 3.9727 10.387 7.8164 15.625 11.566 7.6875 5.6445 14.777 11.113 23 16.824 14.176 10.109 29.391 18.547 44.379 27.379 5.918 3.6836 11.855 7.3359 17.793 10.973 7.707 5.4297 15.785 10.18 24.129 14.434 3.4453 2.0078 6.9023 4.0117 10.355 6 0.64844 0.49609 1.2891 1 1.9492 1.4844 5.1758 3.6953 10.863 6.6016 16.133 10.141 5.0156 3.7031 11.145 6 16.371 9.4336 3.0312 2.0352 5.7031 4.6367 8.9805 6.4375 4.4883 2.9961 13.812 3.8789 14.309-3.3594-1.1875-7.6641-7.3672-12.887-11.23-19.43" fill="#969cff"/>
 <path d="m935.07 847.68c-14.246-7.3164-21.184-23.504-33.688-33.105-14.336-10.723-32.316-15.848-43.695-30.227-22.211-27.746-36.238-62.379-64.738-84.801-17.422-15.613-38.398-30.324-46.258-53.223 8.8125 6.6719 15.684 15.012 23.16 22.977 15.996 15.992 35.691 28.113 50.02 45.84 19.965 23.098 30.324 53.844 53.172 74.508 9.5469 7.1875 20.742 11.992 30.281 19.176 9.2969 6.8711 15.48 16.723 22.699 25.559 2.8594 3.6445 6.1562 6.7578 9.4141 10.012 0.46875 0.49219 1.0039 1.0234 1.207 1.6914 0.14453 0.46094 0.22656 1.1602-0.25391 1.4609-0.39453 0.25391-0.88281 0.21094-1.3203 0.13281" fill="#fff"/>
 <path d="m981.39 839.92c-1.0664 0.015625-1.9883-1.1953-2.2305-1.9766-4.6523-10.113-7.7031-20.754-9.9883-31.633-3.6289-14.199-10.391-27.164-16.348-40.445-6.5078-13.926-5.9961-29.617-5.1992-44.605 0.84375-12.988-0.16406-25.074 1.2812-37.793 2.9805 4.6484 5.1211 10.25 6 15.816 1.8359 18.965-2.8164 38.367 1.5859 57.141 2.9688 10.922 8.3359 20.82 12.395 30.938 4.5938 10.922 6.0312 22.918 8.8008 34.301 1.375 5.0742 3.2422 10 5.1836 14.832 0.65234 1.2734 0.24219 3.4258-1.4805 3.4258" fill="#fff"/>
 <path d="m1011.4 830.95c-2.332-2.6055 7.4375-12.984 9.2148-15.668 2.4766-3.2617 4.7344-6.7578 6.5781-10.008 13.539-22.379 17.941-48.648 30.734-71.273 8.9258-15.09 19.715-29.023 29.48-43.523 0.17969 14.09-9.8867 25.703-17.293 36.969-20.445 26.949-22.934 62.996-43.727 89.641-2.7383 3.3867-5.8398 6.5273-8.8828 9.4727-1.5352 1.4219-2.8906 3.0195-4.4141 4.4258-0.52344 0.35547-1.1953 0.38281-1.6914-0.035156" fill="#fff"/>
 <path d="m1037.2 857.41c-2.082-0.34766-2.5039-3.0586-0.023438-3.1719 12.625-3.6211 25.922-5.9766 38.676-8.6445 21.84-6.4023 40.227-23.879 64.105-22.938 3.9219 0.050781 8.1172 0.30859 11.863 1.0117-3.5469 1.2461-7.1133 2.3359-10.711 3.4062-7.9102 2.6367-15.406 3.6953-22.969 6.707-9.2695 3.7812-17.688 9.2773-26.637 13.707-9.1562 4.793-19.453 6.2109-29.57 7.5586-8.1992 0.84766-16.496 3.2422-24.734 2.3633" fill="#fff"/>
 <path d="m698.99 759.68c7.7578 17.695 22.406 45.93 4.1953 61.348-26.824 23.289-60.707 33.68-92.199 47.691-20.004 8.6367-38.797 19.98-57.977 30.418-6.4102 3.5977-12.582 7.5664-19.371 10.133-5.4102 2.8242-11.723 4.9336-17.414 1.8086-6.0742-3.418-3.9336-9.2227-0.24609-13.711 3.4805-5.1445 7.2344-10.195 10.852-15.215 11.703-16.301 23.484-32.543 35.625-48.488 13.84-17.863 28.41-35.066 42.875-52.383 16.523-19.48 34.047-38.965 55.957-51.594 18.98-10.832 30.059 16.004 37.703 29.992" fill="#969cff"/>
 <path d="m754.57 1162.9c-0.38672 0-0.76953 0-1.1602-0.007813-39.141-0.55859-59.527-20.285-84.418-49.219-20.227-20.992-40.129-42.383-61.262-62.371-7.3125-6.8711-14.977-13.289-22.188-20.25-15.793-15.492-30.578-32.27-48.199-45.438-9.1172-6.957-30.473-27.035-31.602-28.527-1.8555-2.4844-3.8711-5.1055-1.5703-8.1406 2.7891-3.6719 8.2031-1.293 11.762-0.35156 16.781 5.8711 33.773 10.969 50.582 16.75 31.707 11.32 63.332 22.891 95.469 32.793 28.48 9.8086 55.125 24.594 83.051 35.926 23.344 9.7461 47.863 18.961 66.254 37.754 7.4258 7.207 15.754 14.691 19.262 24.98 2.1211 8.457-0.51172 17.199-1.7109 25.602-1.4219 8.7109-2.2031 18.656-8.9414 24.824-15.652 11.746-45.195 15.676-64.84 15.676h-0.48828" fill="#969cff"/>
 <path d="m495.14 865.75c-1.4961-7.9961-1.625-16.223-3.1992-24.195 0-0.027343-0.003906-0.058593-0.003906-0.085937v-0.011719c-0.046875-1.1797-0.089844-2.3477-0.13672-3.5312-0.58984-17.285-1.4219-34.602-1.8594-51.906-0.64062-30.289 0.80078-60.668-1.5039-90.91-1.3945-17.641-1.9141-35.902-8.2109-52.527-7.543-17.949-21.176-35.348-39.801-40.301-10.863-1.8086-21.855 1.75-31.965 5.6953-15.719 6.3828-28.945 17.688-41.488 29.281-11.457 11.008-23.926 21.66-31.852 35.938-19.746 41.016 17.438 78.039 42.266 105.32 17.266 19.766 35.289 38.836 54.879 56.039 1.9648 1.6719 3.9336 3.3789 5.8828 5.0977l0.015624 0.015624c0.027344 0.023438 0.050782 0.042969 0.078126 0.066407 4.207 4.4375 8.8359 8.5 13.145 12.824 6.1641 6.5391 12.941 12.371 19.918 18.016 4.4375 3.9688 8.3711 9.2305 13.629 12.445 2.7539 1.8828 6.8945 2.4922 9.1836-0.43359 2.9961-4.918 1.1484-11.363 1.0234-16.836" fill="#969cff"/>
 <path d="m424.43 935.84c-8.7773 1.5977-16.965 4.8945-25.82 6.4414-15.125 1.918-30.32 4.1328-45.191 6.957-13.59 1.9258-28.383 2.4453-42.18 4.5469-20.676 3.5898-41.117 8.9727-61.93 11.758-38.109 4.7578-75.285 15.973-112.61 25.082-22.812 5.8125-42.059 21.836-55.004 42.27-10.887 20.465-17.711 43.281-22.816 66.062-5.1211 28.324-18.082 63.531 21.023 67.844 22.234 2.375 44.887-0.085937 66.613-5.3359 44.012-11.031 77.297-45.461 111.38-75.066 23.602-22.527 47.461-44.68 74.102-63.352 28.836-22.098 60.445-39.793 88.762-62.672 3.4844-2.5117 6.625-5.5352 9.3203-8.9648 0.015625-0.027344 0.039063-0.050781 0.054688-0.082031 1.8672-1.707 3.6992-3.4453 5.4609-5.2617 5.7578-8.1992-4.0234-12.812-11.164-10.227" fill="#969cff"/>
 <path d="m596.03 1060.1c-13.977-12.609-29.008-23.832-42.883-36.57-13.602-12.574-27.004-25.383-39.867-38.801-0.35156-0.33984-0.68359-0.70703-1.0312-1.0625-0.68359-0.86328-1.3906-1.7188-2.1289-2.543-3.0078-4.3164-7.168-7.8984-10.102-12.289-5.1367-5.7773-9.2656-12.859-15.688-17.277-1.8242-0.92188-4.1484-1.3867-6.332-1.1758-0.23828 0-0.46875 0.035157-0.70703 0.097657-1.6172 0.27734-3.1133 0.95703-4.2031 2.1914-2.668 5.125 0.17969 11.348 0.46875 16.797 1.0664 9.3281 3.6641 18.137 5.332 27.445 1.3164 13.305 7.5508 46.777 7.9219 50.566 2.5273 26.676 10.859 52.555 22.117 76.609 9.4727 21.367 23.949 42.488 48.371 42.934 21.219 1 42.629 0.30078 63.777-1.9141 11.84-2.1289 31.98 0.69531 32.852-16.863-1.082-29.734-37.555-68.836-57.898-88.145" fill="#969cff"/>
 <path d="m463.38 1025c-0.35156-19.113-0.35937-39.125-2.5195-58.211-0.43359-3.2383-1.6719-16.684-2.082-17.695-0.70703-2.5508-2.1484-4.4414-4.8242-4.8984-13.23 1.0234-34.57 31.992-44.906 41.938-9.543 10.473-19.375 21.188-28.621 32.004-0.73438 0.91406-1.4375 1.8477-2.1055 2.7969-2.3984 2.4688-4.7734 4.9531-7.1133 7.4531-17.594 19.547-35.777 40.652-50.977 62.645-5.0508 7.3984-9.7344 15.059-12.945 23.551-5.5742 14.797-5.2461 33.867 5.5469 45.938 12.387 16.805 124.5 21.75 144.75-12.484 5.9492-17.219 3.9766-36.035 4.4648-54.031 0.79688-22.992 1.6758-45.996 1.332-69.004" fill="#969cff"/>
 <path d="m785.56 908.53c-6.9453-27.801-3.582-48.922-38.566-45.613-30.684 4.5117-60.797 12.949-90.93 20.488-35.195 8.8828-69.246 22.105-103.57 34.039-0.90234 0.33984-22.344 4.9805-31.633 8.3789-5.5273 2.7422-10.211 10.449-2.4102 13.645 24.668 7.6484 51.172 9.3594 76.535 14.254 15.59 1.8672 30.102 9 45.848 10.02 0.44922 0.042969 0.78125 0.023438 1.0625-0.039062 1.9297 0.50781 3.8633 1.0039 5.7969 1.4844 31.547 7.332 63.754 11.551 95.953 13.906 12.707 0.50391 28.043 1.5312 37.613-8.9297 12.344-17.707 8.1016-41.57 4.3047-61.633" fill="#969cff"/>
 <path d="m459.98 883.44c-5.9375-6.8125-12.742-12.676-20.008-18.012-10.855-11.035-21.789-22.008-34.188-31.141-25.801-18.859-47.594-43.008-70.145-65.902-28.891-29.809-59.039-58.211-89.805-85.816-14.477-11.723-29.504-24.051-45.758-33.488-8.7031-6.0547-18.367-11.523-23.477-14.922-28.105-18.113-51.363-19.629-80.84-3.6367-19.617 11.559-35.418 29.219-49.277 47.695-7.082 9.4883-9.4102 17.879-8.3867 25.398-0.57031 3.4414-0.5 6.9688 0.5 10.574 4.0547 12.32 12.828 22.879 23.977 29.441 17.164 9.5703 33.531 20.824 51.773 28.277 23.184 9.2031 46.012 19.246 68.797 29.383 3.707 1.6758 7.5156 3 11.379 4.1445 1.2891 0.59375 2.5703 1.2109 3.8594 1.8008 23.777 10.91 48.82 17.973 73.633 25.625 50.598 16.84 97.883 43.352 148.52 59.871 0.007813 0.003906 0.019532 0.015625 0.027344 0.015625 3.6914 1.6836 7.4062 3.2969 11.121 4.8945 5.0312 2.7461 10.996 4.2383 16.762 4.332 8.2383 0.09375 20.441-6.7148 11.539-18.535" fill="#969cff"/>
 <path d="m427.2 909.65c-8.5195-2.9844-17.336-5.5273-26.414-6.8828-7.7617-1.7539-15.766-3.9062-23.719-5.1484-5.4492-1.4844-10.91-2.9375-16.375-4.375-16.082-5.3477-32.199-10.594-48.422-15.473-46.539-16.176-93.102-32.836-138.12-53.316-23.238-10.441-46.391-22.773-71.547-26.992-1.668-0.23047-3.375-0.46875-5.1094-0.69141-1.9141-0.55078-3.8398-1.0469-5.8008-1.4375-91.652-18.566-90.113 147.65-51.297 163.04 16.883 6.4766 35.402 6.9609 53.266 7.8398 12.344 0.375 24.512-1.8281 36.84-2.2656 10.652-0.26953 21.383 0.52734 31.961-1.1953 0.53906-0.09375 1.082-0.17578 1.6211-0.26562 18.219-0.73828 36.414-1.9414 54.402-4.9844 21.367-3.3047 42.383-8.4922 63.809-11.406 20.766-3.0703 42.07-5.3477 62.973-7.8086 2.1523-0.27734 4.2891-0.63281 6.4219-1 4.2852 0.003907 8.5703 0.019532 12.809-0.64062 12.668-1.7852 24.969-3.8906 37.855-4.4648 4.8203-0.39062 10.059-0.61719 14.789-2.0625 3.8164-0.34766 7.582-1.0938 11.246-2.5391 0.12109-0.039062 0.25391-0.097656 0.45313-0.16406-0.17578 0.066406-0.21094 0.074219-0.24219 0.089843-0.011719 0.007813-0.027344 0.007813-0.039062 0.011719 12.43-3.6562 6.3359-12.969-1.3594-17.871" fill="#969cff"/>
 <path d="m677.43 604.75c-3.3555-16.363-13.316-30.949-24.465-42.543-12.211-12.547-25.164-24.586-41.551-30.48-22.883-10.422-54.711-8.5039-70.129 14.469-14.758 23.781-15.391 65.758-17.312 93.957-1.0625 18.152-2.7734 36.246-4.0977 54.379-1.2344 17.207-2.4258 34.422-3.6445 51.637-1.1211 8.0977-2.2266 16.203-3.875 24.246-2.6523 20.551-4.8633 41.199-7.7148 61.754-0.48828 4.1094-0.99219 8.3047-1.4023 12.52-1.5703 8.5469-5.2227 30.312 4.7383 32.332 10.898 2.6055 18.73-19.477 25.363-26.539 6.4766-8.457 12.441-17.328 18.426-26.188 5.5195-7.543 12.051-14.32 16.59-22.543 10.43-18.07 25.105-33.211 37.012-50.242 6.9492-11.922 14.766-23.539 21.434-35.664 3.1992-4.4219 6.4062-8.8359 9.6836-13.191 16.227-20.789 29.996-44.059 36.992-70.188 2.4414-8.9648 5.2227-18.285 3.9531-27.715" fill="#969cff"/>
 <path d="m506.52 908.49c1.3789 6.3711-1.75 11.566-2.0117 17.77-1.1055 9.4492-10.199 18.617-20.008 17.641-2.9258-0.89453-5.4453-2.8594-8.3906-3.75-3.8438-0.42188-7.5273 1.4883-11.305 1.8516-12.617-0.24609-17.113-15.305-15.328-25.789 3.0078-11.844 24.672-28.691 38.625-25 15.09 3.9883 17.484 12.051 18.418 17.277" fill="#ffe45e"/>
 <path d="m481.04 869.87c-0.60547-0.20703-0.91406-0.70703-1.207-1.2344-1.9648-4.0156-3.6641-8.2969-5.7266-12.219-5.3398-8.7383-12.086-16.582-16.723-25.773-10.297-16.77-10.574-37.449-16.789-55.543-5.8555-13.387-16.609-23.746-24.129-36.039-7.1055-11.645-9.957-25.023-11.453-38.422-1.6641-15.195-8.0312-29.305-12.137-43.914-0.74609-3.5703-1.2891-7.375-0.082031-10.898 0.67578 0.91797 1.2617 2.043 2.0078 2.9961 5.3906 7.0938 6.6484 16.223 9.7422 24.402 1.75 5.1484 3.7539 10.227 4.7305 15.602 1.5781 8.5586 1.9883 17.324 4.1406 25.785 2.7461 10.676 8.3164 20.41 14.918 29.164-0.011719-0.019532-0.03125-0.039063-0.042969-0.054688-0.070313-0.097656-0.14062-0.19141-0.21484-0.28125 10.242 12.602 19.285 26.688 21.676 43.102 1.9297 9.9258 2.5469 20.527 6.4609 29.824 4.3828 10.332 10.016 19.992 16.219 29.273 2.1328 2.3359 15.898 25.5 8.6094 24.23" fill="#fff"/>
 <path d="m513.19 856.33c-2.2305-0.94141-1.793-3.7344-1.2031-5.6289 3.1836-9.3008 6.2383-18.922 10.969-27.547 6.2969-10.676 14.039-21.047 18.898-32.328 9.5195-21.75 9.918-46.094 17.531-68.414 5.5352-13.797 13.293-26.555 21.625-38.812 4.582-9.0352 8.3516-18.672 10.508-28.586 1.832-9.0508 4.4648-18.012 4.8047-27.285 0.75-16.18 2.082-33.32 10.496-47.551 3.1758-5.582 7.3516-10.957 12.629-14.484-1.9023 3.5703-3.6094 7.2539-5.6016 10.789-12.348 18.699-10.227 41.473-14.566 62.516-2.0508 11.945-3.4766 24.191-8.8008 35.238-3.375 7.7109-6.1836 15.664-10.898 22.688-8.9102 14.062-15.781 29.215-19.441 45.449-4.082 14.406-5.0352 29.645-11.562 43.305-6.9297 17.52-17.223 33.359-26.43 49.645-2.3125 5.6055-4.125 11.387-5.7852 17.207-0.41016 1.6719-1.1641 3.832-3.1719 3.8008" fill="#fff"/>
 <path d="m525.88 900.68c-1.8008-0.066407-3.1094-2.1484-2.4531-3.793 2.0625-2.9727 5.3789-5.1289 7.9727-7.6875 10.965-9.6992 20.07-21.488 32.727-29.199 11.211-7.168 23.895-12.426 34.527-20.398 14.949-11.375 28.77-24.625 43.223-36.469 10.891-8.668 23.348-14.867 35.707-21.105 4.9883-2.9141 9.3828-6.6289 13.965-10.031-4.2773 6.7461-10.047 13.293-17.277 17.176-10.371 5.7305-20.945 11.566-30.305 18.82-19.031 14.641-36.367 31.844-57.578 43.395-13.629 7.6953-27.41 15.73-38.516 26.871-5.0195 4.75-8.8242 10.535-13.316 15.758-2.3477 2.6445-4.9414 6.2305-8.6758 6.6641" fill="#fff"/>
 <path d="m448.45 891c-13.816-1.8945-25.211-10.012-35.535-18.883-10.5-8.6055-21.18-16.504-33.449-22.023-15.789-7.3906-33.641-9.1367-48.043-19.516-9.2578-5.9297-17.309-14.387-26.289-20.449-12.32-8.5508-26.07-14.859-38.441-23.348-19.547-13.879-42.402-21.918-62.785-34.312-15.078-7.707-25.551-22.023-40.031-30.445-9.7461-5.4375-20.559-7.4805-30.727-11.699-16.781-7.2812-33.191-16.883-44.52-31.57-2.2031-2.6875-4.5664-5.5234-6.332-8.3672 8.2617 4.9805 15.324 11.594 22.973 17.414 8.5898 6.1055 18.047 11.098 27.719 15.207 14.102 5.5078 29.434 8.8047 41.621 18.246 8.3906 6.1953 14.676 14.664 23.129 20.598 20.961 14.242 45.215 22.766 65.871 37.566 21.34 14.547 45.773 24.645 65.184 41.938 7.2148 5.1484 14.754 10.121 22.961 13.508 10.332 3.7578 20.961 6.7148 31.062 11.098 13.801 5.5664 25.863 14.246 37.285 23.637 5.3828 4.1406 10.902 8.9727 16.797 12.152 4.3711 2.5859 9.7266 3.4531 13.805 6.375 1.0234 1.4844-0.53906 3.3789-2.2539 2.875" fill="#fff"/>
 <path d="m403.91 921.79c-18.023-1.6328-35.977-4.1562-53.926-6.4844-8.7695-1.5742-17.547-3.3711-26.477-3.6445-30.395 0.12891-60.848 4.625-91.176 0.5-8.5078-0.90625-17.059-1.9883-25.199-4.7383-15.297-5.7734-30.309-11.871-46.645-13.668-22.75-1.0117-45.52-1.1328-68.277-2-13.941-0.61719-28.402 0.44531-41.961-3.1758-5.6211-1.9297-10.625-5.2578-15.012-9.2148 7.1758 0.92969 14.637 2.3398 21.895 3.5586 23.418 2.7344 47.082 1.6719 70.602 2.7344 14.938 0.76562 30.188-0.28125 44.789 3.5078 14.723 3.4727 28.121 10.285 42.691 13.969 19.312 4.0625 39.934 4.4531 59.461 4.0117 15.938-0.50391 31.844-2.6289 47.809-2.0039 26.953 2.2969 53.793 6.3281 80.559 10.254 3.5742 0.6875 7.4922 1.3711 9.8672 4.2695-2.5195 2.2773-5.75 2.3789-9 2.125" fill="#fff"/>
 <path d="m86.391 1110.5c7.6914-5.6289 14.055-12.66 20.965-19.156 35.25-29.199 80.684-40.336 123.82-52.254 17.363-5.4961 33.086-15.039 47.352-26.18 21.27-17.258 44.625-32.684 71.086-40.461 7.832-2.6523 16.074-3.6211 24.141-5.3008 13.902-3.5859 27.438-7.9844 39.574-15.285 2.9766-1.2578 5.6016-4.5312 8.8516-4.4648 0.99609 0.26562 1.5859 1.2734 1.457 2.2656-0.64062 2.5547-4.7227 3.5469-6.4648 5.0156-17.902 14.578-41.746 16.211-62.945 22.863-13.828 4.4766-27.551 10.695-39.855 18.27-11.723 7.4766-22.043 16.902-33.023 25.387-16.918 13.516-35.84 25.148-57.352 29.336-29.547 7.5742-59.52 15.016-86.371 29.988-7.0938 3.5938-13.977 7.5898-20.32 12.418-9.1562 7.6484-18.965 15.457-30.918 17.559" fill="#fff"/>
 <path d="m375.42 1156.4c4.3555-11.891 11.863-22.344 16.094-34.254 5.2148-16.934 6.7656-34.809 12.77-51.516 4.9297-15.91 15.574-28.094 23.051-42.602 8.7617-18.812 10.961-39.746 15.664-59.727 0.62109-1.2383 1.6367-2.3438 2.8359-2.9844 0.25391 0 0.65234 0.69531 0.77344 0.84375 3.0586 4.375 0.77344 10.332 0.66016 15.277-0.81641 6.9883-2.0352 13.945-3.5625 20.805-1.582 7.1367-3.9258 14.059-6.5547 20.871-4.4375 11.48-12.215 21.254-17.844 32.125-10.117 20.203-11.898 42.414-17.012 63.77-3.6836 17.293-12.953 27.434-26.875 37.391" fill="#fff"/>
 <path d="m598.69 1148.2c-5.6992-9.4805-11-19.539-19.32-26.902-7.25-5.625-14.398-11.363-20.582-18.195-6.5117-6.6055-13.621-12.621-19.418-19.902-12.977-16.152-17.801-36.758-28.617-54.137-5.2773-7.707-10.41-15.645-13.434-24.523-3.9609-12.422-8.0391-24.883-11.637-37.395 0.41406-5.3086 4.1094-1.0117 4.6758 1.8281 5.5938 13.711 10.719 27.676 17.109 41.039 4.7773 8.5117 10.992 15.859 14.727 24.918 5.3711 14.164 11.75 28.055 21.383 39.816 9.2188 12.414 21.359 22.285 31.965 33.488 11.703 10.152 24.984 23.223 23.148 39.965" fill="#fff"/>
 <path d="m793.04 1123c-7.3555-2.6445-15.629-4.2578-22.723-7.4883-8.168-3.1758-16.773-5.4961-24.195-10.312-5.3945-3.207-10.301-7.1328-15.301-10.91-8.9414-6.7773-18.613-12.461-27.641-19.109-11.938-8.2383-22.906-18.379-35.828-25.051-23.668-11.98-47.461-24.156-67.969-41.156-12.883-10.5-24.703-22.652-39.297-30.762-9.6602-5.2852-20.145-8.832-29.805-14.129-2.082-1.1875-4.3281-2.2344-6.1797-3.7539-0.45703-0.57422-0.77344-1.4141-0.25781-2.0469 0.92578-1.1484 2.5391-0.17188 3.5391 0.30078 1.1758 0.55469 2.3359 1.1328 3.4961 1.7227 9.6758 5.2695 20.352 8.4453 29.832 14.109 15.062 9.0977 29.051 19.938 43.195 30.285 11.914 8.3242 23.934 16.535 36.609 23.672 9.7852 5.3281 20.445 8.8086 30.133 14.355 14.438 7.2812 26.234 18.434 38.918 28.242 6.707 5.0977 13.723 9.7969 20.363 14.984 4.8633 3.8789 9.5508 8.0859 15.074 11.023 15.09 10.148 35.852 11.828 48.035 26.023" fill="#fff"/>
 <path d="m618.33 935.98c-9.1055-0.76953-17.809-3.3047-26.879-4.2773-15.191-1.332-30.547-0.90234-45.723 0.38672-4.0938 0.30078-8.5508 1.4961-12.066-1.207 0.79297-0.82422 1.8789-2.1953 3.2383-2.625 8.6523-2.2383 17.625-3.082 26.535-3.6758 28.258-1.8438 56.195 8.5078 84.383 3.0859 14.348-1.918 27.547-8.3047 41.73-11.008 12.91-3.7422 26.387-4.2305 39.605-2.1953 13.125 1.4766 26.805-0.95703 39.629 2.0312-6.0898 4.1172-13.34 4.9297-20.5 5.2031-14.527 1.8359-29.152-2.3711-43.598 0.0625-13.566 2.2188-26.777 5.457-39.684 9.7383-15.191 4.2578-30.992 5.6758-46.672 4.4805" fill="#fff"/>
 <path d="m263.92 239.71c0.097656 0.35938 0.19141 0.71484 0.30078 1.0742-0.011719 0.019531-0.019531 0.035156-0.03125 0.046875-0.089844-0.37109-0.17969-0.74609-0.26953-1.1211" fill="#969cff"/>
 <path d="m265.69 247.4c0.035156 0 0.066406 0 0.10156-0.007813 0.058593 0.46875 0.11719 0.94141 0.17969 1.4062-0.09375-0.46484-0.18359-0.93359-0.28125-1.3984" fill="#969cff"/>
 <path d="m268.14 292.13c-0.019531 0.082032-0.042969 0.16797-0.066406 0.23438 0.019531-0.078126 0.042969-0.16016 0.066406-0.23438" fill="#969cff"/>
 <path d="m245.04 290.28c0.046875 0.023438 0.097656 0.042969 0.14844 0.074219 0.035156 0.015625 0.066406 0.039062 0.10156 0.050781-0.082031-0.035156-0.16406-0.082031-0.25-0.125" fill="#969cff"/>
 <path d="m256.38 317.04c-2.9219-1.7305-6.8125-2.0039-9.918-0.60156-1.8984 1.0703-56.68 37.723-63.344 41.941-25.48 14.469-51.422 28.105-76.051 44.035-15.441 8.0703-28.484 19.688-43.016 29.199-33.848 22.125-35.633 55.84-29.367 92.328 2.1289 17.898 0.80469 36.953 7.0352 54.398 7.2227 17.395 24.328 31.285 43.609 31.383 0.77734 0.054688 1.5469 0.082032 2.3164 0.082032 17.84-0.007813 31.355-14.441 44.555-24.875 19.832-18.785 39.715-39.199 49.938-64.953 6.4609-16.711 13.219-33.328 19.453-50.121 3.1406-7.6328 6.2812-15.258 9.5547-22.938 4.8906-17.062 11.543-33.465 18.945-49.578 6.4961-13.387 13.062-26.75 19.66-40.094 1.4102-2.7539 2.8203-5.5273 4.1172-8.3281 0.89453-1.8047 1.7773-3.6133 2.6758-5.4102 3.6484-7.8867 9.957-22.449-0.16406-26.469" fill="#969cff"/>
 <path d="m239.35 297.82c-2.082-1.6602-4.3438-3.1328-6.5078-4.4844-9.8164-5.1875-19.539-10.762-30.094-14.328-0.41406-0.13672-0.82422-0.28125-1.2344-0.41797-10.09-5.6914-20-11.344-30.621-16.523-16.27-8.3125-33.566-14.625-48.988-24.547-17.672-12.855-37.719-28-60.324-27.188-15.789-4.5039-28.414 8.6875-32.305 24.484-0.57031 2.5312-0.90234 5.0977-1.125 7.6719-4.375 21.406-2.8945 43.715-1.6172 65.398 2.3516 16.723 0.53516 33.59 1.5859 50.387 0.76562 8.8359 4.75 17.73 11.145 23.652 5.1758 6.7812 13.113 11.23 25.277 11.684 9.0703 0.1875 17.738-1.7773 26.074-4.8789 6.1602-1.7695 12.07-4.4727 17.516-7.8359 10.402-4.9766 19.836-10.793 29.344-16.738 6.8984-3.7734 13.863-7.4414 20.867-10.836 12.746-5.5938 25.359-12.508 38.008-18.434 8.4258-3.3242 17.242-5.9219 25.746-9.0938 3.8203-1.5664 7.6992-3.0859 11.461-4.8242 2.9609-0.82031 5.8398-1.9219 8.5703-3.5234 4.0352-2.1875 6.043-4.2344 6.5742-6.168 0.13281-0.12891 0.24609-0.28125 0.35156-0.4375 3.0117-6.7461-4.0469-10.121-9.7031-13.02" fill="#969cff"/>
 <path d="m249.05 310.84c0.03125-0.046876 0.070313-0.097657 0.10938-0.15234-0.03125 0.0625-0.078125 0.10156-0.10938 0.15234" fill="#969cff"/>
 <path d="m170.81 262.02c0.027344 0.015625 0.050781 0.03125 0.082031 0.046875 0.027344 0.011719 0.050781 0.027344 0.078125 0.035156-0.050781-0.023437-0.10938-0.050781-0.16016-0.082031" fill="#969cff"/>
 <path d="m268.14 292.14c-0.019531 0.074219-0.042969 0.14844-0.070312 0.23438 0.023437-0.085938 0.046875-0.16016 0.070312-0.23438" fill="#969cff"/>
 <path d="m472.46 39.836c-21.039-29.805-67.453-27.379-99.984-25.422-9.8398 0.60938-42.367 1.6562-43.637 3.7812-6.7539 1.9492-13.195 4.9219-18.988 8.9453-10.672 7.6055-18.156 19.102-20.461 32.008-3.3359 12.543-4.7383 25.434-5.457 38.344-3.043 25.465-0.96094 51.09-2.5312 76.613-0.79688 14.012-3.7109 27.734-5.8711 41.559-1.2422 12.863-7.4531 66.457 8.3516 64.738 3.5312 0.94141 6.3008-2.1602 8.7266-4.3281 3.3828-2.9062 23.848-19.418 27.711-22.363 27.52-18.973 50.879-42.992 74.656-66.301 2.4219-2.0898 4.8125-4.2461 7.1875-6.4492 0.011719 0 0.011719-0.003907 0.011719-0.003907 9.5898-7.4609 18.719-15.48 26.793-24.629 5.5742-6.6172 10.652-13.637 16.102-20.367 2.168-2.6641 4.2852-5.3828 6.332-8.1523 10.863-12.801 19.863-27.086 24.902-43.293 5.8477-14.625 5.6992-31.633-3.8438-44.68" fill="#969cff"/>
 <path d="m360.27 531.73c-17.84-38.246-37.492-76.324-51.797-116.2-9.6641-25.984-17.938-52.496-28.047-78.312-1.6484-3.2383-8.9883-12.91-15 2.043-2.9883 5.5156-5.6758 13.297-6.5664 15.047-6.5156 15.383-12.387 31.074-14.969 47.652-0.53516 2.7227-1.1367 5.4297-1.7617 8.1328-3.25 8.6289-6.2578 17.363-8.8008 26.266-7.3242 23.832-11.84 48.449-15.414 73.105-3.3984 25.16-4.4727 51.359 2.1953 76.078 6.6836 23.746 19.648 48.281 42.016 59.828 48.457 25.012 130.35 3.4531 98.145-113.64" fill="#969cff"/>
 <path d="m697.01 29.242c-19.488-12.102-42.578-21.941-65.941-19.637-2.7461 0.36719-15.191 1.4297-18.5 1.5664-18.664-0.61328-37.383 4.0117-54.668 12.391-0.93359 0.39844-1.8594 0.80469-2.7812 1.2148-9.375 3.7695-16.871 10.75-23.922 17.797-16.047 16.844-31.02 34.914-42.082 55.469-10.148 15.758-23.766 28.949-35.695 43.34-12.574 14.305-24.719 28.965-38.02 42.621-12.934 15.316-27.164 29.363-43.664 40.855-7.5391 5.0977-14.668 10.691-21.523 16.602-3.0391 2.0781-5.9961 4.293-8.793 6.7617-10.586 8.207-20.332 17.445-30.23 26.508-3.6719 4.793-10.293 8.1289-11.266 14.48-1.5 4.043 0.027344 8.3164 5.4297 10.25 4.1836 1.2266 8.6094-0.98047 12.621-2.375 4.5781-2.0078 29.066-12.797 36.945-15.797 9.8906-4.125 44.426-18.484 52.199-20.742 28.551-8.3516 56.145-19.539 83.883-30.199 32.207-11.926 63.008-27.551 93.43-43.422 17.297-9.6289 35.516-17.477 52.348-27.938 16.801-10.121 35.355-18.699 48.102-34.105 18.453-15.855 36.309-39.57 35.738-64.578-1.6211-13.633-13.297-23.277-23.609-31.062" fill="#969cff"/>
 <path d="m520.61 454.07c-5.1484-9.6562-12.355-18.168-21.367-24.422-25.367-17.027-54.434-27.605-80.773-43.012-19.234-11.105-38.383-22.398-58.25-32.312-10.27-6.418-21.602-11.273-32.508-16.355-7.9844-2.6953-14.84-7.9531-23.359-9.3672-3.9062-0.089844-7.7383 3.2539-7.207 7.3281 0.21094 1.1719 1.5508 6.0664 2.1328 7.1328 14.285 27.223 31.691 52.82 45.059 80.609 13.316 27.941 28.047 55.184 43.891 81.785 7.6719 13.188 15.52 26.367 25.309 38.137 6.2031 8.3594 15.098 14.215 25.594 15.176 15.328 1.7656 30.801-2.8477 44.84-8.7109 21.086-8.4336 38.406-27.398 43.723-49.844 5.4102-16.676 1.7734-31.504-7.082-46.145" fill="#969cff"/>
 <path d="m631.99 264.93c-5.793-21.344-17.332-28.988-38.949-30.402-21.715-2.7188-42.934 2.7852-63.41 9.5938-0.23438 0.082031-0.48047 0.15625-0.72266 0.23828-23.406 7.4805-49.094 10.762-72.711 18.168-14.938 4.6445-28.941 10.051-44.184 14.156-9.1914 3.1484-45.836 9.6445-63.469 17.543-4.0039 1.2031-21.383 6.5117-25.566 8.6953-6.918 2.375-20.551 8.4414-9.9688 15.789 4.5039 3.8633 13.23 6.6328 16.773 8.5312 1.2578 0.61719 2.5547 1.0391 3.8789 1.3555 10.797 4.707 22.68 7.4766 33.691 11.016 17.762 6.1836 35.535 12.348 53.906 16.52 4.0586 1.0781 8.1016 2.2578 12.141 3.4609 27.184 9.2617 54.465 18.461 82.379 25.152 20.195 3.5234 40.188 9.1836 60.809 9.25 11.938 0.41406 26.398 0.57031 36.375-6.6914 10.285-3.8242 19.098-10.285 23.641-20.773 13.422-32.73 3.8789-68.684-4.6133-101.6" fill="#969cff"/>
 <path d="m219.89 272.2c-8.5625-0.38281-15.18-5.7812-22.898-8.7109-7.3945-3.1914-15.414-5.6914-21.863-10.57-1.5195-1.082-7.3633-5.1797-4.3828-6.8672 1.9102-0.015626 3.4609 1.5938 5.0977 2.4297 1.8672 1.1445 4.1719 1.8398 6.0664 2.8477 12.855 6.5312 28.801 8.9805 37.98 20.871" fill="#969cff"/>
 <path d="m269.91 275.27c-1.3281-8.4766-2.2461-17-3.8438-25.43-1.5898-12.848-1.3281-25.836-3.0273-38.809-0.37891-2.9453-0.72266-5.9336-1.0547-8.9219-1.6172-26.211-2.6875-52.805-3.1328-79.055-1.0586-25.992 0.20703-53.211-9.3555-77.84-6.2188-14.066-18.066-25.945-33.184-29.863-16.465-6.2109-34.012-5.6914-51.219-3.7773-24.418 1.4297-48.949 2.7617-72.977 7.6328-26.156 3.707-49.043 24.156-46.875 52.102 0.18359 11.227 4.2148 21.859 9.0352 31.863 4.8867 10.402 9.9102 20.77 15.664 30.723 16.98 30.367 36.875 59.113 60.672 84.559 8.457 9.0742 17.891 16.266 27.918 22.914 1.6602 1.4141 3.6914 2.6875 4.7578 3.6914 6.5508 5.1094 12.988 10.473 20.852 13.461 6.6875 3.332 13.426 7.4062 20.016 11.066 6.7734 3.4414 13.836 6.3633 20.586 9.8945 6.4062 3.1797 11.609 8.418 18.223 11.18 5.5508 2.8984 11.328 5.4648 17.309 7.3477 13.957 3.7344 11.691-14.348 9.6367-22.738" fill="#969cff"/>
 <path d="m273.3 294.05c-2.8867 1.7891-4.1602 4.8711-5.3555 7.875-2.5781 2.7773-4.668 6.125-3.5898 10.066 0.36719 3.0938 2.5117 5.3555 4.1523 7.8359 1.7383 4.4883 5.7656 7.7266 10.715 7.5234 6.9609 1.6133 18.641-6.1367 20.199-10.18 2.2891-5.6797 2.7266-12.422 0.92969-18.344-5.2266-9.2656-18.688-10.18-27.051-4.7773" fill="#ffe45e"/>
 <path d="m255.12 282.12c-2.7031-0.88281-3.4766-5.2422-4.9844-7.4766-8.5-15.641-15.043-32.559-24.371-47.672-12.43-20.43-30.203-36.449-45.473-54.57-20.914-28.047-31.996-61.738-44.617-93.957-4.7148-13.043-12.012-24.164-17.332-36.75-0.91797-2.7109-1.8594-5.582-2.3008-8.3203 2.6719 1.4375 5.1914 3.0859 7.4492 5.1328 6.8164 6.4453 10.137 15.641 14.172 23.922 13.68 32.195 24.023 66.121 42.945 95.82 8.8672 14.016 21.25 25.289 31.996 37.758 14.766 16.941 26.617 35.855 34.242 56.973 3.082 7.6562 6.0938 15.336 9.0078 23.062 0.67969 1.9648 2.6836 5.9141-0.73437 6.0781" fill="#fff"/>
 <path d="m288.73 263.05c-2.8242-1.0078-1.9141-5.2305-2.293-7.6055-1.043-11.445 1.1367-22.777 6.6172-32.902 3.7734-7.4453 6.9141-15.277 11.574-22.234 7.25-10.172 16.629-18.07 24.926-27.254 10.887-13.125 22.594-26.164 28.719-42.18 5.4492-14.688 5.9297-30.508 9.7656-45.598 4.1211-14.84 12.379-28.754 23.23-39.664 6.3047-5.9922 13.297-11.648 20.227-16.668-2.5469 4.6406-5.7109 8.8828-9.5898 12.496-14.211 11.211-24 25.562-27.949 43.273-2.1562 10.84-2.418 21.984-4.9883 32.758-3.6641 19.84-15.617 36.223-28.078 51.516-9.4961 12.891-22.039 23.227-31.426 36.148-6.8711 11.812-13.145 24.613-16.789 37.676-1.082 5.707-1.3438 11.512-1.4336 17.305 0.15234 1.4531-0.83984 3.3398-2.5117 2.9336" fill="#fff"/>
 <path d="m314.07 286.98c-0.54297-0.10547-1.0586-0.33203-1.2773-0.86719-0.67969-1.6875 1.207-3.0312 2.2383-4.0195 3.9453-3.7266 7.9219-7.4023 12.012-10.965 10.879-9.2148 22.684-17.73 35.145-24.484 25.059-11.367 52.082-18.469 75.02-34.211 15.848-10.121 30.305-22.105 43.457-35.523 17.191-15.973 33.965-33.25 56.129-42.211 12.23-5.2031 25.039-8.9648 37.188-14.355 19.691-9.3984 35.688-25.414 47.07-43.414 10.289-14.059 19.621-30.535 36.547-37.32 7.8242-4.0938 16.816-6.457 25.609-4.5703-5.6484 2.8789-12.34 6.5547-17.879 9.3242-23.527 10.316-34.863 34.5-49.719 53.781-14.758 18.02-35.195 30.211-57.379 36.75-39.551 12.398-55.035 29.875-83.434 57.75-11.633 10.805-24.355 20.5-38.09 28.477-17.793 10.621-38.621 15.594-57.199 24.25-15.035 6.5312-28.477 15.773-41.965 24.871-7.3086 5.0195-14.219 10.602-21.25 16-0.64453 0.46484-1.4062 0.88672-2.2227 0.73828" fill="#fff"/>
 <path d="m309.18 638.16c-5.2227-8.9336-3.293-19.445-3.4297-29.215-0.12109-5.3906-1.4844-11.586-3.0273-16.441-13.719-39.699-22.82-36.312-16.164-82.777 0.97266-11.855 0.46484-23.965-2.8047-35.438-4.1875-12.176-10.723-23.445-14.02-35.953-3-12.938-5.8047-26.359-4.2852-39.688 1.4492-15.043 7.6133-29.805 6.9336-44.984-0.027344-1.1055-0.070313-2.2461-0.36328-3.3203-0.23828-2.2031 2.7852-3.4727 4.125-1.5977 1.7109 3.1602 1.957 6.8906 2.1562 10.43 0.62109 13.648-3.1562 27.578-4.8125 40.82-0.91016 8.5859 0.16406 18.027 1.5586 26.176 1.9922 12.738 6.1328 24.949 11.094 36.805 3.8711 9.3984 5.1953 19.613 5.3867 29.715 1.418 19.32-3.7578 39.395 1.293 58.324 5.7734 14.32 14.121 27.586 18.086 42.668 1.918 6.2773 2.8828 12.828 2.6133 19.391-0.24219 8.5156-0.16406 17.414-4.3164 25.105-0.007812 0-0.019531-0.003907-0.023437-0.019532" fill="#fff"/>
 <path d="m487.3 533.39c-13.285-9.2461-17.883-26.273-28.805-37.641-17.793-21.441-41.766-36.477-60.711-56.68-13.066-13.898-16.715-34.387-30.777-47.336-7.9297-7.4688-16.934-12.988-25.703-19.207-9.9688-7.4297-16.367-18.176-24.113-27.258-1.2891-1.4609-2.5156-2.9727-3.6523-4.5547-0.60547-0.77344-0.48047-1.957 0.21875-2.6367 2.5352-2.0742 5.2031 1.168 6.8594 2.9258 6.7383 7.3984 12.023 16.066 19.289 22.984 9.1445 8.0391 20.168 13.773 28.82 22.152 16.301 14.539 21.004 37.602 36.875 52.598 33.168 30.547 63.25 51.309 81.699 94.652" fill="#fff"/>
 <path d="m62.484 578.27c2.0625-9.4062 6.2734-17.98 10.148-26.734 3.6094-9.2617 8.5625-17.859 15.16-25.32 9.6758-11.227 21.82-20.168 30.246-32.48 5.2188-7.6328 8.8047-16.672 12.984-24.648 5.7852-10.68 11.574-21.672 19.805-30.688 10.887-11.512 24.695-20.047 32.93-33.762 9.3047-12.355 15.52-26.582 23.988-39.41 9.2773-12.641 22.469-21.727 34.129-31.797 1.9414-1.4961 3.7266-3.3047 5.957-4.3594 0.66797-0.23828 1.4141-0.09375 1.918 0.42188 1.8867 2.1875-2.7891 5.6133-3.9883 7.3555-10.914 11.062-24.25 19.91-33.203 32.824-7.7344 13.145-14.906 26.695-24.711 38.488-9.4062 12.422-22.531 21.141-33.152 32.293-4.625 5.3438-8.0352 10.969-11.773 16.828-6.4219 10.262-11.141 21.441-16.504 32.254-7.3555 15.336-21.598 25.75-32.934 37.824-7.4883 7.793-13.086 17.055-16.453 27.332-3.207 8.6602-6.8711 18.031-14.547 23.578" fill="#fff"/>
 <path d="m159.76 309.29c-13.43-3.9883-27.617-5.2344-41.27-3.832-11.633 0.50391-23.695 3.8398-35.152 0.76562-7.6953-2.9258-14.332-8.7422-22.84-9.2578-8.1641-1.5078-17.953 1.6172-24.871-3.9766 11.129-3.5469 24.434-3.7578 35.344 0.98438 13.641 8.4141 26.207 5.8203 41.172 4.1406 11.223-0.96875 22.551-2.1094 33.758-0.44141 10.363 1.7227 20.398 5.0898 30.867 6.3242 19.648 2.0195 39.207-9.1406 58.297-0.68359 2.9648 0.88672 7.2344 5.0508 3.3594 7.4961-4.5898 2.4258-10.047 0.82031-14.848-0.10156-4.8711-1.3516-9.9023-1.5938-14.922-1.5312-16.234 1.9375-32.844 5.3281-48.895 0.11328" fill="#fff"/>
 <path d="m585.65 331.86c-8.2695-1.0898-15.672-5.207-23.406-8.0469-8.6602-3.0625-17.395-5.6406-26.484-6.6758-16.867-0.99609-32.656 4.4688-49.012 7.0586-15.504 2.0703-31.781 3.2266-46.766-2.1094-5.6445-2.0469-11.23-4.2461-17.105-5.6211-19.254-4.5273-38.234-1.3086-57.535 0.058593-12.938 1.207-25.781-1.3008-38.668-0.78906-4.8789 0.58594-4.8711-4.4453 0.125-4.9102 10.816-3.3438 22.375-1.2812 33.359-1.4023 19.023-1.0742 38.039-5.0352 57.137-2.3398 10.215 1.0625 19.477 5.4531 28.77 9.4805 7.1445 2.6445 15.059 3.5547 22.57 3.1562 33.953-1.4531 56.801-16.859 91.98-4.1797 8.9453 2.1836 16.961 7.4453 26.117 8.6797 13.176 1.4453 26.664-3.8086 39.348 1.1445 1.5117 0.64844 3.0938 1.3867 4.3867 2.2227-2.5547 1.0859-5.2305 1.8945-7.9414 2.5-5.9258 1.3789-12.062 0.90234-18.082 1.4531-6.2539 0.45312-12.535 1.1055-18.793 0.32031" fill="#fff"/>
 <path d="m853.72 312.05c5.6992 4.668 1.8906 10.789-2.3477 14.926-13.598 14.312-30.191 25.43-45.969 37.262-13.559 10.188-26.691 20.902-39.988 31.426-30.555 23.762-61.629 55.539-103.78 53.996-4.3945-0.16797-9.2188-2.3438-10.828-6.5781-7.0664-20.566-6.1211-42.762-5.293-64.152 1.8086-42.383 10.504-53.371 51.793-65.688 20.668-3.6211 41.832 1.3242 62.691-0.097656 12.164-0.67188 24.289-2.2695 36.5-2.0703 8.9727 0.17188 17.953 0.42969 26.926-0.058593 9.7734 0.22266 21.52-4.25 30.297 1.0352" fill="#969cff"/>
 <path d="m875.64 280.6c-12.031-13.055-24.125-26.246-37.039-38.527-0.03125-0.039062-0.058594-0.074218-0.097657-0.11328-0.007812-0.011719-0.007812-0.011719-0.015624-0.023437-2.9141-3.25-5.9492-6.3672-9.1172-9.2148-18.586-16.367-34.457-35.41-53.152-51.621-3.5664-2.875-7.4609-5.5469-11.57-7.9062-6.918-5.1094-14.426-9.3281-22.781-11.953-9.3828-2.207-19.055 0.09375-28.164 2.5078-21.52 5.2461-38.719 19.152-54.246 34.016-8.0195 7.4609-17.754 14.352-21.754 24.824-4.1055 15.957 3.4023 33.234 13.191 45.898 19.914 22.414 97.879 24.34 128.39 24.258 28.102-0.36719 56.145 1.3438 84.227 1.9219 12.438 1.5586 19.281-4.2227 12.129-14.066" fill="#969cff"/>
 <path d="m873.14 338.26c-3.1055 0.46875-5.2852 3.0938-7.6953 4.8867-4.125 3.1914-8.4766 6.0977-12.566 9.3594-19.227 16.367-39.652 31.652-57.555 49.617-7.4453 6.3867-15.297 12.355-21.816 19.719-3.7578 3.543-7.4688 7.1328-11.16 10.738-10.922 10.914-23.195 20.59-32.859 32.637-9.5273 12.168-16.078 26.48-20.316 41.156-4.1289 15.379 0.24609 33.191 11.793 44.551 5.5508 5.5859 11.984 10.301 18.633 14.566 10.996 7.2812 22.336 14.352 35.387 17.543 23.695 5.043 33.605-22.094 41.668-38.711 10.164-20.668 17.707-42.414 24.07-64.457 3.5898-15.137 8.9648-29.734 14.883-44.141 5.5312-14.426 9.5391-29.324 12.965-44.332 0.48047-2.1133 0.94141-4.2305 1.4141-6.3477 4.2031-10.906 8.1445-21.953 9.5977-33.48 0.55078-4.875-0.14844-13.012-6.4414-13.305" fill="#969cff"/>
 <path d="m987.79 599.86c-0.41797-4.5352-1.8008-9.2734-3.3398-13.773-0.015624-0.042969-0.019531-0.082032-0.035156-0.125-2.793-8.9453-6.5195-17.715-9.6602-26.445-3.3203-9.5547-6.8203-19.012-10.598-28.355-2.4609-7.0117-4.8047-14.047-6.9805-21.133-10.027-31.184-18.242-62.918-28.805-93.941-0.30859-0.81641-0.625-1.6797-0.94922-2.5781-3.0859-13.355-6.9258-26.586-11.172-39.586-3.7812-10.566-5.5469-30.074-20.922-28.02-8.5117 3.3984-6.9531 31.633-6.7969 46.504-0.023438 0.32812-0.046875 0.62109-0.0625 0.83594-0.82812 12.527-4.1641 25.176-4.0859 37.824-0.11328 2.7305-0.082031 5.457 0.007813 8.1797-1.543 16.504-3.1836 33.008-5.4141 49.582v0.011719c-0.015625 0.17188-0.027344 0.33594-0.0625 0.50781l0.019532-0.10156c-4.0312 34.695-7.9961 71.102-1.0625 105.8 3.0117 23.25 15.668 39.242 39.297 45.344 15.934 4.8945 32.723 1.9141 48.832-0.36328 14.926-0.99609 22.453-15.102 22.613-28.43 0.089844-3.9688-0.21094-7.8789-0.82422-11.738" fill="#969cff"/>
 <path d="m1161.7 519.05c-2.2227-9.0625-6.7148-17.496-13.289-24.297-20.766-20.93-41.992-41.773-66.156-59.008-18.789-13.062-39.883-22.609-60.336-33.203-9.3125-6.1758-18.559-12.477-27.75-18.832-11.609-8.418-22.301-18.07-33.824-26.637-10.797-8.375-21.031-18.508-33.016-25.066-11.695-7.3477-14.48 0.58203-14.312 4.8242 3.332 13.035 11.25 23.703 18.418 34.863 0.007813 0.015626 0.023438 0.027344 0.027344 0.046876 4.3008 9.2539 8.8398 18.051 13.5 26.871 15.602 36.434 31.184 72.441 48.996 107.98 13.082 24.488 19.426 51.422 32.945 75.391 8.2422 14.359 18.453 27.969 32.629 37.223 13.137 10.094 27.59 18.586 43.852 22.875 9.1758 2.9648 18.113-1.4414 25.363-6.7109 11.453-6.7969 20.906-16.344 26.645-28.219 6.625-15.484 10.703-32.277 12.031-48.988 0.28516-13.23-2.125-26.391-5.7227-39.113" fill="#969cff"/>
 <g clip-path="url(#b)">
  <path d="m1176.6 277.03c-8.9297-12.844-22.035-25.047-38.215-27.832-26.629-2.6914-53.754 1.5703-79.336 8.8594-20.25 5.8125-39.27 14.793-58.754 22.582-14.242 5.6172-29.066 10.531-43.566 15.605-3.5273 1.2656-28.336 6.7773-32.816 11.746-5.7812 4.6914-4.0508 9.1211 17.828 19.238 9.668 4.4648 19.609 8.1914 29.285 12.613 0.074219 0.039062 0.16016 0.066406 0.24219 0.10547 0.76953 0.35156 1.5195 0.73047 2.2891 1.0898 2.4375 1.1602 4.8789 2.3203 7.3164 3.4805 0.039062 0.019531 0.074219 0.035156 0.11328 0.050781 7.5 3.5547 14.98 7.0859 22.383 10.371 39.629 18.035 77.566 41.938 120.76 50.973 16.133 2.7617 34.102 1.7383 47.707-7.9609 10.871-8.4766 13.973-33.488 16.262-46.68 2.8594-24.742 2.6172-52.445-11.496-74.242" fill="#969cff"/>
 </g>
 <path d="m1146.5 42.672c-26.473-21.844-67.098-24.914-97-8.0039-27.254 15.648-49.176 54.203-63.969 81.113-0.89062 1.6719-1.7539 3.3516-2.6289 5.0156-6.5195 10.977-13.242 21.848-18.504 33.5-3.6602 8.957-6.9805 18.055-10.426 27.094-3.0664 7.0273-6.0469 14.074-8.9531 21.152-0.45703 1.1094-0.85938 2.2266-1.293 3.3438-2.8867 6.0664-5.9102 12.145-8.4883 18.227-4.2227 10.383-7.0742 21.238-11.312 31.617-4.1406 10.645-9.7422 21.434-11.25 33.016-0.027344 6.6094 7.1016 6.9414 10.457 5.082 2.7266-1.1758 5.3008-2.7266 7.7969-4.4492 6.5312-4.1211 13.105-9.7539 18.598-13.781 1.2891-0.89453 2.582-1.7695 3.8867-2.6406 0.24219-0.15234 0.49219-0.32422 0.71484-0.45312 0.14453-0.11328 0.29297-0.21875 0.4375-0.33203 5-3.3242 10.094-6.4961 15.352-9.4492 33.176-18.195 71.902-28.293 106.68-43.742 26.891-12.883 77.145-35.723 90.418-61.734 6.8438-14.344 4.1758-30.781 5.9492-46.102 3.4844-31.211 0.60938-48.746-26.461-68.473" fill="#969cff"/>
 <path d="m913.96 90.516c0.72266 12.891-0.19531 25.801-0.57031 38.684-0.21875 21.883 0.94141 43.785-0.42969 65.641-0.64062 20.207-2.8711 40.816-4.0586 60.902-0.88281 9.7852 2.8242 35.766-13.242 33.145-7.0977-1.1602-25.719-37.23-30.25-45.227-3.1992-5.625-5.7266-11.609-9.2461-17.082-7.4375-12.734-16.809-24.188-25.422-36.129-11.797-14.688-25.168-28.008-35.73-43.699-3.6719-3.9219-7.3242-7.7539-10.871-11.438-12.406-12.941-25.723-25.918-32.422-42.738-5.6094-12.625-6.0195-26.637-4.3438-40.121 1.0898-14.789 10.777-26.391 25.832-29.422 17.215-3.7383 34.867-4.8125 52.391-6.1836 24.355-2.1758 50.879 3.0664 69.98 18.574 14.59 14.305 17.117 35.867 18.383 55.094" fill="#969cff"/>
 <path d="m925.42 279.97c-1.9336-2.8906 1.793-5.8555 3.2461-8.1602 7.8984-9.5352 14.711-19.973 19.504-31.34 6.207-16.441 20.668-26.703 35.332-35.145 12.348-7.1875 24.34-15.426 34.105-25.902 14.043-14.535 20.945-35.672 38.797-46.461 6.1641-3.7422 12.344-6.8906 17.969-11.332 18.176-12.484 22.008-37.844 41.547-48.688 6.0469-3.2422 12.945-5.125 19.41-6.9414-2.7383 5.9297-8.9883 9.8203-14.355 12.586-17.746 9.2969-20.848 31.426-35.359 43.969-9.1523 9.6602-22.301 13.914-31.621 23.07-9.9609 10.918-16.141 23.523-25.906 34.402-8.9766 10.395-19.883 19.109-31.816 25.879-11.555 6.8594-24.242 12.812-32.453 23.797-9.5391 13.785-11.805 31.82-25.102 43.074-3.0273 2.8477-6.5273 5.5586-10.223 7.3789-0.99219 0.60547-2.2227 0.76953-3.0742-0.1875" fill="#fff"/>
 <path d="m1176.7 338.26c-9.5039-3.3203-19.492-6.1055-29.582-5.9492-13.137 1.6484-26.402 2.2305-39.078-2.3633-18.867-6.9727-31.906-17.746-53.121-10.609-10.203 3.1172-20.645 7.1445-31.477 6.5938-15.172-0.79688-28.73-8.625-43.562-10.906-10.41-1.3945-21.336 2.9883-31.422-0.36719-1.8945-1.207-1.168-4.0586 1.0078-4.4766 11.902-3.3867 24.875-2.7383 37.027-1.082 10.848 2.5742 20.719 8.2109 31.676 10.496 10.641 3.0195 21.051-1.8906 31.312-4.2539 23.324-6.3789 39.402-0.85938 60.207 9.3945 26.176 10.48 41.691-5.0352 67.012 13.523" fill="#fff"/>
 <path d="m891.69 271.71c-15.305-14.895-10.898-32.875-12.887-51.547-1.4141-10.195-3.2305-20.418-7.1016-29.996-3.582-9.5977-10.109-17.512-14.957-26.418-6.5078-13.043-8.2344-27.68-10.75-41.863-1.4453-11.711-2.8086-23.809-9.1055-34.07-3.8984-7.9688-10.883-13.645-15.762-20.918-4.0742-7.1016-8.3203-15.141-7.1133-23.582 0.35156-2.4688 0.89453-5.1523 1.9492-7.293 1.3906 9.0195 4.6523 17.457 8.9414 25.207 4.3672 7.7383 10.594 13.453 15.41 20.754 11.707 17.297 12.039 39.309 15.586 59.199 0.78906 13.547 8.332 24.793 16.18 35.328 13.738 20.238 15.25 45.543 17.375 69.168 1.082 8.0273 4.7266 15.348 7.0977 23.012 1.4609 3.9531-1.4688 6.7227-4.8633 3.0195" fill="#fff"/>
 <path d="m860.71 287.09c-17.992-6.6602-39.492-5.8945-53.57-20.672-6.7773-6.3789-13.109-13.523-21.441-17.93-24.074-10.863-52.855-5.7539-75.996-19.273-12.469-6.9414-24.863-14.059-36.531-22.285 2.4531-0.25781 5.2148-0.070312 7.7617 0.33203 14.898 3.1992 25.828 15.539 39.668 21.07 19.23 6.3438 39.445 7.2383 59.051 11.801 19.23 4.3281 29.867 23.637 47.582 30.789 10.199 3.3945 21.613 2.0703 30.98 7.9492 2.7227 1.7695 6.2773 3.418 7.4219 6.6484 0.12109 2.6719-3.2539 2.1758-4.9258 1.5703" fill="#fff"/>
 <path d="m666.76 393.14c10.262-11.797 24.414-20.25 39.359-24.426 15.285-3.9961 31.609-3.8828 46.254-10.246 20.094-7.2188 34.082-25.824 54.875-31.207 8.1914-2.3867 16.699-3.4844 25.008-5.3281 2.3398-0.30469 6.1836-1.9688 7.3359 0.96875-0.33203 7.7617-25.906 10.246-32.344 12.445-15.715 3.5469-26.32 15.805-39.816 23.469-7.5312 3.9609-15.422 7.3789-23.648 9.6133-14.242 3.043-29.141 2.3359-42.617 8.6602-12.078 4.1133-21.352 15.457-34.406 16.051" fill="#fff"/>
 <path d="m749.22 550.39c-4.8516-0.20312-3.2969-6.1328-0.375-8.0391 4.9492-4.2422 9.3984-9.1289 12.727-14.754 2.7422-4.5781 3.4844-9.8711 4.1914-15.062 1.6445-9.2734 3.7031-18.973 9.2227-26.789 5.25-7.3047 13.586-11.621 18.789-18.996 13.504-19.043 16.23-43.656 29.699-62.867 5.4492-8.4492 13.102-14.984 20.41-21.73 7.1133-7.0469 12-16.465 20.988-21.449 1.2266-0.85156 3.1562-1.582 4.2109-0.097656 0.83203 1.1914 0.050781 2.5078-0.52344 3.6133-1.668 3.2656-3.875 6.2188-6.082 9.1484-5.0742 6.5859-10.523 12.777-16.98 17.777-5.2109 3.8242-9.8359 8.6484-13.605 13.824-16.609 20.594-17.449 49.094-34.156 69.418-4.3828 5.2461-10.262 8.9648-14.469 14.348-8.9453 12.176-7.043 28.266-13.383 41.418-3.9141 7.3555-9.7344 13.488-16.254 18.609-1.2383 1.0469-2.7617 1.7266-4.4102 1.6289" fill="#fff"/>
 <path d="m940.57 626c-5.5039-12.824-10.094-26.152-12.148-40.008-1.9297-19.223-0.73047-38.777-3.2852-57.922-2.2656-11.238-9.3633-20.805-11.613-32.047-4.8906-25.484 0.74219-51.672 0.035156-77.258-0.31641-9.3867-5.8672-17.332-7.957-26.297-2.0156-8.9609-3.668-18.152-4.0859-27.332-0.23438-2.0234 0.64453-5.0586 3.2656-4.125 1.1641 0.40625 1.5664 1.6328 1.8203 2.3633 0.73047 2.0508 1.332 4.1484 1.8906 6.2578 2.6953 8.7695 3.0703 18.086 6.2266 26.695 2.2305 5.8672 4.5391 11.809 4.7188 18.172 0.94141 12.887-1.1953 25.707-2.0156 38.535-0.91016 11.281-0.23438 22.562 1.082 33.777-0.27734 14.902 9.0586 27.09 12.309 41.125 2.2891 11.535 1.332 23.395 1.2617 35.074-0.81641 14.641 0.90625 29.805 6.1055 43.371 2.5859 6.2031 4.6719 12.949 2.4492 19.617-0.011718 0.019531-0.050781 0.027344-0.058594 0" fill="#fff"/>
 <path d="m1136.5 590.28c-1.9648-1.6055-4.4648-1.9922-6.4727-3.5156-1.8633-1.3242-2.832-3.2734-3.9141-5.2109-4.5586-8.8281-10.656-16.746-18.469-22.91-9.6289-8.3242-22.051-12.117-32.723-18.785-8.8867-5.8672-16.07-14.246-21.93-23.062-8.8984-11.398-10.48-25.938-16.367-38.73-5.4336-9.5547-12.238-18.227-19.438-26.488-11.859-12.031-25.68-21.668-38.242-32.703-8.9531-6.5586-17.168-14.23-22.48-24.102-7.8242-13.883-13.629-27.566-22.484-40.586-1.8477-3.4258-5.2227-6.2344-5.9727-10.066-0.078125-2.4219 2.6719-3.5273 4.582-2.207 4.6445 4.2188 8.0469 9.7969 12.062 14.641 11.02 14.156 15.84 32.23 27.453 45.836 13.793 15.195 31.273 26.137 46.727 39.414 7.0977 6.8281 12.52 15.152 18.27 23.102 7.3086 8.9258 10.336 20.02 13.727 30.777 4.4844 11.918 12.543 22.086 20.324 32 2.168 2.4648 4.8789 4.8281 7.4688 6.3828 11.402 6.9258 23.91 12.363 34.176 20.977 7.6055 6.8086 13.645 15.527 17.93 24.66 2.7266 2.875 6.1953 6.3828 5.7734 10.578" fill="#fff"/>
 <path d="m911.71 312.79c0.03125 0.89062-0.007813 1.7852-0.10547 2.6797-0.12109 1.1406-0.33984 2.2695-0.625 3.375-0.80469 3.0273-2.2305 5.9023-4.082 8.2812-4.3359 7.4688-11.359 9.082-19.438 8.7695-4.8086-0.62891-9.8633-3.6758-12.844-7.4805-0.92578-3.0039-3.5664-4.8281-4.7344-7.7031-1.5508-2.9727-0.84375-6.2734-1.0469-9.4648-0.36328-2.8477 0.8125-5.9023 3.0742-7.6875 1.0234-0.84375 2.1055-1.1289 3.0078-1.707 1.4219-1.8086 3.3672-3.6367 5.3438-4.6406 2.4414-0.82812 4.7539-2.4922 7.3047-2.8672 5.7969-0.49219 12.082 0.83984 16.391 4.9609 2.375 2.4688 4.9375 4.9258 6.707 7.8906 0.097656 0.26172 0.1875 0.53516 0.27344 0.79688 0.48828 1.5508 0.72656 3.1641 0.77344 4.7969" fill="#ffe45e"/>
</svg>
