<?xml version="1.0" encoding="UTF-8"?>
<svg width="1587" height="1587" version="1.0" viewBox="0 0 1190.2 1190.2" xmlns="http://www.w3.org/2000/svg" zoomAndPan="magnify">
 <defs>
  <clipPath id="a">
   <path d="m0 0h1189.5v1189.5h-1189.5z"/>
  </clipPath>
 </defs>
 <g clip-path="url(#a)">
  <path d="m0 0h1189.5v1189.5h-1189.5z" fill="#fff"/>
  <path d="m0 0h1189.5v1189.5h-1189.5z" fill="#fff"/>
  <path d="m283.42 552.91c1.3398 0.51172 2.7109 0.96484 4.1172 1.3633 0.99609 0.28516 1.9961 0.50781 2.9961 0.69922 2.3672 1.1133 4.8633 1.9141 7.3906 2.4414 1.1875 0.24609 2.3711 0.41797 3.5586 0.51953 0.27734 0.54688 0.65234 1.0312 1.0898 1.4531-4.7109-0.72266-9.2344-1.8242-13.66-3.5664-1.9062-0.85547-3.7461-1.8203-5.4922-2.9102zm426.26 400.39c-0.21875 0.027344-0.4375 0.054688-0.65234 0.078125 0.21875-0.027344 0.40234-0.050781 0.65234-0.078125zm-2.5234-45.637c-0.0625 0.13281-0.125 0.26563-0.21875 0.39844 0.09375-0.13672 0.15625-0.26562 0.21875-0.39844zm2.9297-5.0586c-0.96875 2.4297-1.9023 4.8633-2.8359 7.2969-2.0273 5.2266-3.7773 10.512-5.6484 15.781l-0.375 0.20312c-0.30859-1.2422-0.62109-2.4961-0.87109-3.7539 0.55859-1.3516 1.1836-2.6914 1.7461-4.043 1.3711-3.1523 2.9609-6.2383 4.4922-9.332 1.1211-2.0703 2.2773-4.1289 3.4922-6.1523zm3.7734-24.945c-1.1836 0.80078-2.3398 1.668-3.4609 2.5781-3.3711 2.7812-6.1758 6.0312-8.7031 9.3867 0.40625-1.1562 0.84375-2.2969 1.3711-3.4219 1.0625-1.9492 2.2461-3.8242 3.7109-5.5859 0.625-0.60938 1.3125-1.1836 2.0273-1.7344 0.625-0.36719 1.2773-0.69922 1.9648-1.0039 0.34375-0.089844 0.6875-0.16406 1.0312-0.23047 0.6875-0.015626 1.375-0.011719 2.0586 0.011718zm-27.789 40.02c-0.46875 1.0391-0.90625 2.0781-1.375 3.1172-0.77734-2.6328-1.4023-5.3047-1.8672-8.0078-0.40625-2.707-0.6875-5.418-0.84375-8.1289 0.3125-1.2227 0.65234-2.4453 1.0273-3.6641 0.6875-2.3594 1.375-4.7148 2.0898-7.0859 1.375-4.668 3.3711-9.2578 5.5859-13.703 2.4648-4.7031 5.3008-9.3359 8.9219-13.496 1.8398-1.875 3.8359-3.5977 6.082-5.1328 1.3086-0.76172 2.6172-1.4297 4.0547-2 0.90234-0.25 1.8086-0.44141 2.7109-0.58594 0.9375-0.058594 1.875-0.074219 2.8398-0.046876 1.5586 0.75391 3.0586 1.5977 4.5234 2.4961 3.6484 2.4883 6.9844 5.332 10.043 8.3477-2.3711-0.92969-4.8672-1.6719-7.3008-2.2891-2.5547-0.64453-5.2695-0.92188-7.9219-1.1016-2.7734-0.1875-5.7383 0.035156-8.3281 0.88672-9.6055 3.1406-14.598 11.215-17.527 18.977-1.4375 3.9023-2.1523 7.9805-2.7773 12.027-0.65625 4.3438-0.71875 8.7891-0.53125 13.156 0.09375 2.0781 0.3125 4.1602 0.59375 6.2344zm-3.1523-4.2812c0.03125 0.22266 0.0625 0.44141 0.09375 0.66016-0.03125-0.21875-0.0625-0.4375-0.09375-0.66016zm-24.078-10.797c0.03125 2.5391 0.1875 5.0781 0.46484 7.6133 0.4375 4.2266 1.2188 8.4531 2.3398 12.59 1.1875 4.2656 2.9648 8.3555 5.1172 12.344 1.9336 3.6133 4.7734 7.0156 8.1094 9.8398 1.6836 1.4219 3.7422 2.5977 5.7695 3.6758 2.3398 1.2695 4.8984 2.1797 7.4883 3.0781 2.7109 0.9375 5.6133 1.6211 8.5742 1.9922-1.8086-0.0625-3.6484-0.17578-5.457-0.34375-3.4297-0.45703-6.707-1.1523-9.918-2.1914-2.3086-0.92188-4.4609-1.9805-6.5195-3.2305-1.9336-1.3555-3.6484-2.8359-5.2734-4.4453-1.9336-2.2383-3.5547-4.625-4.9258-7.1328-2.3711-4.9609-3.9336-10.09-4.8672-15.379-0.90234-6.1172-1.2148-12.27-0.90234-18.41zm100.19-23.27v-0.058593c1.0586 1.457 2.0273 2.9609 2.8984 4.5195 1.4961 3.1836 2.4648 6.4453 3.0898 9.8242 0.58984 4.7109 0.34375 9.3359-0.3125 14.043-0.87109 4.793-2.2773 9.4688-4.3984 13.992-2.3711 4.4688-5.332 8.6523-8.8281 12.594-3.2109 3.375-6.8281 6.4023-10.887 9.1172-3.7734 2.3438-7.7656 4.2461-12.098 5.8359-5.9922 1.9922-12.168 3.2578-18.531 4.0625-0.33984 0.035156-0.68359 0.070312-1.0273 0.097656 0.3125-0.042969 0.58984-0.089844 0.875-0.13672 2.7422-0.42969 5.4258-1.2305 8.0156-2.0469 4.582-1.4492 8.9492-3.2422 12.914-5.6523 4.3984-2.668 8.5156-5.6328 12.414-8.7969 7.1133-5.7461 12.879-12.84 15.035-20.949 0.99609-3.8047 1.5273-7.7422 1.2773-11.633-0.0625-1.4531-0.3125-2.9336-0.62109-4.3789 0.0625-3.0234-0.34375-6.0547-1-9.0156 0.65234-3.793 1.0273-7.6133 1.1836-11.418zm-55.895-34.453c-2.9648 0.09375-5.9609 0.59766-8.8281 1.2188-4.7422 1.0039-9.2656 2.7422-13.32 4.9688-1.7461 0.95703-3.3672 2.0078-4.8945 3.1445-1.5273-0.14844-3.1523-0.19922-4.6172 0.17187-1.9961 0.49219-3.8047 1.1875-5.4609 2.2383-1.9961 1.2812-3.6172 2.7422-5.1133 4.418-2.9023 3.2656-4.8672 7.0273-6.6758 10.785-7.6094 15.789-9.1367 33.52-6.5195 50.289 1.3438 8.4609 3.9961 16.77 9.2344 24.168 2.2773 3.2695 5.3672 6.2617 8.7656 8.7539 4.0234 2.918 8.5469 4.9414 13.508 6.5469 4.3008 1.4102 9.0117 1.9609 13.629 2.3594 5.0859 0.44141 10.293 0.34375 15.41-0.0625 5.0508-0.39062 10.074-1.1328 15.004-2.1641 5.207-1.1016 10.23-2.8008 15.035-4.7383 4.2109-1.7031 7.9531-3.9766 11.633-6.3828 3.8359-2.5234 7.2656-5.4805 10.355-8.6641 6.3633-6.5898 11.293-14.055 14.254-22.137 1.4062-3.8203 2.2148-7.7812 2.8086-11.73 0.6875-4.4219 0.99609-8.7852 0.55859-13.23-0.80859-8.3555-3.9297-16.402-9.6992-23.281-3.6484-4.3438-8.2344-8.0781-13.32-11.266-1.0273-1.7305-2.2773-3.375-3.7109-4.9102-2.9297-3.0977-6.707-5.6133-11.012-7.2656-4.957-1.9141-10.262-2.7383-15.719-3.0156-3.7734-0.19141-7.6133 0.0625-11.387 0.57422-0.71875-0.13281-1.4336-0.24609-2.1523-0.34766-2.1523-0.30078-4.2734-0.46094-6.4258-0.46094-0.4375 0-0.90625 0.003906-1.3398 0.019531zm257.8 176.55c1.3711 0.51172 2.7422 0.96094 4.1484 1.3633 1 0.28125 1.9961 0.50391 2.9961 0.69531 2.3359 1.1172 4.832 1.9141 7.3906 2.4453 1.1836 0.24219 2.3711 0.41406 3.5547 0.51953 0.28125 0.53906 0.625 1.0273 1.0625 1.4531-4.6797-0.72266-9.2344-1.8242-13.664-3.5703-1.9023-0.85156-3.7109-1.8164-5.4883-2.9062zm45.508-0.91797c2.8672-0.88281 5.6758-1.9023 8.4844-2.9922 3.1484-1.2109 6.2383-2.582 9.1406-4.2969 0.80859-0.46484 1.5586-0.97656 2.3359-1.5078-0.43359 0.69141-0.87109 1.3672-1.3711 2.0312-1.7148 2.0664-3.6484 3.918-5.7383 5.6055-3.2773 2.3594-6.7383 4.332-10.387 5.9883-3.6523 1.4141-7.3633 2.3867-11.199 3-3.1484 0.35156-6.332 0.41797-9.4844 0.29688 0.625-0.39453 1.2812-0.86719 1.6875-1.2969 0.49609-0.53906 0.93359-1.1055 1.3711-1.6758 4.0859-0.80078 7.9844-2.3477 11.82-3.9727 0.40625-0.17578 0.8125-0.35937 1.25-0.53906 0.6875-0.21094 1.4023-0.42578 2.0898-0.64062zm-56.613-28.801c0.03125 0.83984 0.09375 1.6797 0.21875 2.5195 0 0.24219-0.03125 0.49219-0.03125 0.73828-0.0625-0.25781-0.125-0.51953-0.15625-0.78125-0.0625-0.82812-0.0625-1.6523-0.03125-2.4766zm53.867-7.7695-0.03125-0.37891c0.65625 1.0195 1.25 2.0625 1.8125 3.1445-0.53125 0.26172-1.0625 0.53906-1.5625 0.83594-0.03125-1.1992-0.09375-2.3945-0.21875-3.6016zm-14.879-10.125c0.09375 0.30469 0.1875 0.60938 0.25 0.91797-0.74609 0.94531-1.4961 1.9062-2.2461 2.8789-4.832 6.375-8.3281 13.824-10.945 21.363-0.71875 2.1055-1.5 4.1758-1.9336 6.3516-0.5-0.11328-1-0.23438-1.5-0.37109 0.71875-3.6797 1.9336-7.2812 3.3086-10.758 2.4922-5.7109 5.6133-11.164 9.3867-16.152 1.1562-1.457 2.4023-2.8789 3.6797-4.2305zm-11.039-20.957c0.43359 0.45703 0.83984 0.92578 1.2773 1.4102-0.43359 0.21875-0.83984 0.4375-1.2773 0.66797-1.9961 1.1055-3.7773 2.5234-5.5547 3.918-0.43359 0.32031-0.83984 0.64844-1.2148 0.98438 0.34375-0.53516 0.71484-1.0586 1.0898-1.5781 1.4375-1.7383 2.9961-3.3242 4.7109-4.7734 0.3125-0.21875 0.625-0.42578 0.96875-0.62891zm21.305-4.125c2.1836 0.37891 4.3047 0.92969 6.3945 1.6953 1.0586 0.51953 2.0586 1.1055 3.0547 1.7656-1.3711-0.085938-2.8086 0.019531-4.2109 0.21484-0.46875-0.21484-0.96484-0.42578-1.4648-0.62891-1.6523-0.67578-3.3711-1.1836-5.1484-1.5-2.0586-0.36328-4.1797-0.35938-6.2695-0.097656-0.34375-0.50781-0.71875-1.0195-1.0586-1.5156 2.8984-0.23828 5.8008-0.24609 8.7031 0.066406zm-22.523-15.891c-1.1211 0.13281-2.1797 0.31641-3.2734 0.55859-2.1523 0.48828-4.2422 1.3477-6.2383 2.2422-0.65625 0.28906-1.2812 0.59766-1.9023 0.91406-0.59375 0.16406-1.1836 0.36328-1.8086 0.61719-4.0234 1.668-7.332 4.4258-10.078 7.7305-2.1172 1.9453-4.1172 4.0664-5.9883 6.2734-2.8672 3.3828-5.2383 7.0586-7.4531 10.902-4.6172 7.9883-6.3945 17.074-6.3633 26.227 0.0625 9.0469 2.4336 18.105 6.3945 26.203 3.8672 7.8711 10.512 14.094 18.152 18.227 7.8906 4.2695 16.688 6.0273 25.516 6.9375 4.2734 0.4375 8.6094 0.58984 12.879 0.24219 4.8672-0.40234 9.6719-1.3945 14.258-2.9844 8.2031-2.8516 16.125-7.7734 21.926-14.258 1.4062-1.5781 2.6523-3.3125 3.7734-5.0781 1.25-1.918 2.1211-4.0547 2.9648-6.1641 1.7461-4.3281 2.2773-9.2656 2.1836-13.898 0-0.96094-0.0625-1.9219-0.125-2.8828 1.125-2.5312 1.9961-5.1992 2.6211-7.8828 1.4961-6.1367 0.33984-12.758-3.8086-17.609-2.2773-2.6914-5.2383-4.5312-8.2656-6.25-0.55859-1.0781-1.1523-2.1367-1.7773-3.1836-2.3086-3.9297-5.207-7.543-8.2656-10.926-1.3086-1.4414-2.7422-2.7266-4.2422-3.9492-1.5586-1.2734-3.1484-2.4883-4.8633-3.5195-1.7188-0.98047-3.6211-1.6758-5.4609-2.3164-2.3398-0.8125-4.8008-1.2344-7.2383-1.5391-2.4609-0.31641-4.9258-0.38672-7.3594-0.28516-0.65234-1.3672-1.8086-2.4688-3.3359-2.7578-3.4336-0.65234-6.8633-1.3984-10.324-1.7344-0.1875-0.015625-0.375-0.027344-0.5625-0.027344-0.62109 0-1.3086 0.097657-1.9336 0.17188zm-676.57 103.49c-0.59375 0.54688-1.2188 1.0859-1.8398 1.6133-1.8398 1.2812-3.7422 2.3906-5.7734 3.3477-3.1797 1.2148-6.3906 2.0664-9.7305 2.6094-0.5 0.046875-0.99609 0.085938-1.4961 0.11719 4.5547-1.7656 8.9219-4.0273 13.133-6.4023 0.5-0.28516 0.99609-0.57812 1.4961-0.875 1.4023-0.0625 2.8086-0.20312 4.2109-0.41016zm-37.93-7.9648c0.93359 0.20703 1.8711 0.38672 2.8086 0.53125 0.18359 0.1875 0.40234 0.36719 0.65234 0.53125 0.40625 0.35547 0.84375 0.67578 1.2812 0.99219-0.125 0.03125-0.28125 0.054687-0.40625 0.078124-1.5273 0.14844-3.0273 0.21484-4.5547 0.14844-0.28125-0.058594-0.53125-0.12109-0.78125-0.18359 0-0.015625 0-0.03125 0.03125-0.046875 0.3125-0.6875 0.65625-1.3711 0.96875-2.0508zm-15.844-9.8828c0.37109 0.51172 0.80859 1.0039 1.2461 1.4922-0.1875 0.38672-0.40625 0.77734-0.59375 1.1641-0.25-0.875-0.46875-1.7617-0.65234-2.6562zm52.992-6.293c0.78125-1.1953 1.4648-2.4336 2.0586-3.7109 0.34375 0.52734 0.65625 1.0547 0.96875 1.6055 0.09375 0.38672 0.1875 0.77344 0.28125 1.1641-0.5 0.42188-1.0312 0.83984-1.5625 1.25-1.3086 0.98828-2.6172 1.9648-3.9609 2.9219 0.78125-1.0742 1.5312-2.1719 2.2148-3.2305zm8.2656-25.977c0.875 0.44922 1.6836 0.94141 2.5273 1.4883 0.71484 0.64844 1.4023 1.332 2.0586 2.0586 0.375 0.58594 0.71484 1.1875 1.0312 1.8164 0.40234 1.1484 0.71484 2.2812 0.93359 3.4648 0.03125 0.40625 0.0625 0.8125 0.09375 1.2148-0.52734-0.62109-1.0898-1.2305-1.6211-1.832-2.1523-2.4141-4.6172-4.4258-7.2383-6.3477-0.125-0.078126-0.21875-0.16016-0.3125-0.23828 0.8125-0.55469 1.6562-1.1016 2.5273-1.625zm-34.496-15.883 0.1875 0.70312c-0.59375 0.45312-1.1562 0.92578-1.7188 1.3672-1.7148 1.3594-3.0859 2.9062-4.3359 4.6992-2.0898 2.9688-3.8047 6.1836-4.457 9.7383-0.5625 2.9258-0.625 5.8828-0.40625 8.8281-0.0625 0.10156-0.15625 0.20312-0.21875 0.30469-1.2812 1.6953-2.5273 3.4219-3.7109 5.168-0.625-1.957-1.1562-3.9531-1.5625-5.9961-0.125-1.6133-0.125-3.2109 0-4.832 0.21875-1.0664 0.46875-2.0977 0.84375-3.1367 1.4062-2.9727 3.1211-5.8125 5.0547-8.4922 1.7461-2.0469 3.6797-3.8594 5.7383-5.5547 1.4648-1.0469 2.9609-1.9805 4.5547-2.793 0.03125 0 0.03125-0.003906 0.03125-0.003906zm0.93359-0.28906c0.09375 0.074219 0.1875 0.14062 0.25 0.21094-0.09375-0.066407-0.15625-0.13281-0.25-0.20312v-0.007813zm18.184-12.352c0.375 0.03125 0.78125 0.066406 1.1562 0.10156 3.1172 0.53906 6.1133 1.3633 9.043 2.4727 3.1836 1.4805 6.1172 3.2773 8.9531 5.3477 0.09375 0.085937 0.1875 0.17188 0.3125 0.25781-0.25 0.050782-0.46875 0.10156-0.71875 0.16016-2.7148 0.64453-5.332 1.8164-7.8906 2.9922-0.46875 0-0.96484 0.007812-1.4336 0.023438-2.2148 0.097656-4.3984 0.48437-6.5195 1.0781-0.28125-0.20312-0.53125-0.39062-0.8125-0.57422-0.90234-0.62891-1.9023-1.1289-2.9297-1.5117-0.0625-0.34375-0.15625-0.69141-0.25-1.0312-0.5-2.2344-1.4023-4.3398-2.3398-6.4102 0-0.039063-0.03125-0.082031-0.0625-0.125 1.4375-0.53516 2.6523-1.5156 3.4922-2.7812zm-9.6367-16.164c-3.2734 0.37891-6.4883 1.0117-9.668 1.9883-3.4336 1.0625-6.7383 2.6953-9.8594 4.4219-1.8398 1.0273-3.6172 2.1836-5.3633 3.4375-3.2422 1.7031-6.2695 3.8594-9.1406 6.1875-4.8945 4.0156-8.793 8.8906-12.07 14.32-3.0859 5.0859-5.332 10.75-7.2656 16.375-2.1836 6.3125-3.3398 12.887-4.0859 19.508-0.71875 6.5078-0.28125 12.953 0.71484 19.398 0.46875 2.9961 1.2188 5.7852 2.5273 8.5586 1.3438 2.9375 3.1523 5.418 5.2109 7.9102 3.6484 4.457 8.7305 7.9609 13.754 10.734 5.9883 3.3086 12.633 5.2656 19.34 6.2773 12.383 1.8672 24.891 0.30859 36.461-4.5 11.949-4.9727 22.305-12.688 30.195-22.965 7.5781-9.8672 12.57-22.121 12.539-34.66-0.03125-3.3281-0.625-6.7227-1.2773-9.9844-0.53125-2.7695-1.4688-5.4648-2.4648-8.0898-1.1562-2.8867-2.4648-5.6758-3.9648-8.3867-1.7773-3.1758-4.0234-6.0508-6.2656-8.8867-7.8008-9.8008-18.777-17.305-30.914-20.504-3.9297-1.0312-8.0156-1.5039-12.133-1.5039-2.0898 0.003906-4.2109 0.12891-6.2695 0.36328zm877.67 238.49c1.1562 3.375 2.8398 6.5508 4.8672 9.4961h24.547v-78.551c-3.7734 0.58594-7.4219 1.9375-10.852 3.5977-0.3125 0.14844-0.625 0.30859-0.9375 0.48047-1 0.19141-1.9648 0.46094-2.9023 0.80078-3.0547 1.0781-5.457 2.875-7.9219 4.9258-2.2148 1.8125-3.8984 4.1641-5.6133 6.3984-3.6523 4.7383-6.3633 10.168-8.8281 15.594-2.5273 5.6445-4.6484 11.465-6.457 17.391-1.9961 6.4766-3.2148 13.094-3.9922 19.816-0.375 3.1406-0.375 6.3672-0.03125 9.5508h18.152c-0.28125-3.1758-0.25-6.3438-0.03125-9.5zm24.613-41.34c0.125 1.3789 0.1875 2.7422 0.1875 4.1172-3.5586 3.5938-6.4258 7.832-8.6719 12.402 0.62109-2.3086 1.3398-4.5742 2.2461-6.8086 1.1836-2.5547 2.5234-4.9727 4.1484-7.2695 0.68359-0.83203 1.3711-1.6445 2.0898-2.4414zm-596.73 42.898c-0.0625 0.14062-0.09375 0.28125-0.15625 0.42188-0.78125 2.4531-1.4648 4.9688-1.9648 7.5195h34.652c0.5625-1.9492 1.2812-3.8633 2.0273-5.7344 1.2812-2.9414 2.8086-5.7773 4.6797-8.3984 1.2188-1.4688 2.4648-2.8594 3.8984-4.1133 1-0.68359 1.9961-1.2852 3.0898-1.8359 0.09375-0.027344 0.1875-0.0625 0.28125-0.09375-0.8125 0.85156-1.6211 1.7461-2.4023 2.668-4.0547 4.8711-7.4219 10.57-10.012 16.379-0.15625 0.375-0.34375 0.75-0.53125 1.1289h60.043c-0.28125-1.457-0.58984-2.9023-0.93359-4.3164-1.1562-4.7695-3.1523-9.3906-5.3984-13.727-2.3359-4.5469-5.4883-8.7188-8.918-12.523-2.1523-2.4062-4.6484-4.5391-7.2383-6.457 0.375-2.1641-0.68359-4.3398-2.5898-5.6133-1.5586-1.0156-3.1172-2.0703-4.8945-2.6641-2.2773-0.75391-4.5859-0.99609-6.9883-0.98438-0.21875 0.003907-0.4375 0.011719-0.65625 0.015625-2.5859-1.2617-5.2695-2.3398-8.0156-3.2773-2.2461-0.77734-4.6133-1.2227-6.9883-1.5977-2.0234-0.32031-4.0234-0.52734-6.0508-0.52734-0.90234 0-1.7773 0.039063-2.6797 0.125-4.8047 0.45703-9.2344 1.8672-13.602 3.8672-4.5234 2.0625-8.6094 5.3711-12.32 8.6328-3.4609 3.0352-6.4258 6.5977-9.2031 10.223-3.0547 4.0156-5.707 8.3086-8.0156 12.766-2.1836 4.1484-4.0234 8.625-5.1484 13.172-0.24609 0.95703-0.43359 1.918-0.58984 2.8867h13.723c0.53125-2.0312 1.2188-4 1.9961-5.9648 0.28125-0.66406 0.59375-1.3242 0.90625-1.9766zm57.328-3.5625c-0.71875 1.3359-1.5586 2.6211-2.4297 3.875-1.0938 1.3164-2.2461 2.5547-3.4648 3.7305 0.875-1.4375 1.8086-2.8477 2.8086-4.2188 0.96484-1.1797 1.9961-2.3203 3.0859-3.3867zm-645.33 11.504h69.426c1.8477-5.1602 2.8008-10.566 3.3594-16.004 0.67578-6.3516-0.23047-13.031-2.0781-19.113-1.7656-5.8984-4.8945-11.312-8.7422-16.082-3.8672-4.7695-8.4766-8.6953-13.527-12.184-4.5078-3.1133-9.4492-5.7695-14.52-7.8711-2.6406-1.1094-5.3008-2-8.0859-2.6562-2.3008-0.56641-4.6875-0.91016-7.0703-1.1602-1.1445-0.61719-2.3203-1.1641-3.5312-1.6719-2.8789-1.2031-5.7422-1.6758-8.8359-2.0039-0.81641-0.085938-1.6211-0.12891-2.4336-0.12891-1.3281 0-2.6484 0.11328-3.957 0.32031v78.555zm27.727-25.91c0.058593 0.12891 0.10547 0.25781 0.15625 0.38672-0.050781-0.12891-0.10547-0.25781-0.15625-0.38672zm-3.7812-3.9414c1.0586 0.99219 2.0469 2.0312 3 3.1484 0.4375 0.63672 0.83203 1.2891 1.1992 1.9688 0.011718 0.03125 0.011718 0.050782 0.023437 0.078126 0.019531 0.5 0.027344 0.99609 0.015625 1.5-0.17188 0.75391-0.37891 1.4883-0.63281 2.2227-1.0195 2.0938-2.1836 4.0586-3.5312 5.9727-1.75 2.1211-3.6484 4.0977-5.7539 5.8672-3.2812 2.2617-6.7266 4.2891-10.34 5.9609 0.58984-2.2383 1.3594-4.4414 2.1562-6.6172-0.28125 0.67187-0.5625 1.3398-0.84375 2 0.84375-2 1.6602-4.0195 2.5938-5.9727 1.7617-3.6953 3.8945-7.1914 6.3203-10.48 1.5977-1.9102 3.3242-3.6367 5.2266-5.2461 0.1875-0.13672 0.37891-0.26953 0.56641-0.40234zm-7.7695-28.75c0.25781 0.36719 0.51172 0.73438 0.77344 1.0938-1.7852 0.19531-3.5742 0.57812-5.293 1.0312-0.070312-0.39453-0.14844-0.78125-0.22656-1.1641-0.082032-0.38281-0.17578-0.76172-0.28125-1.1406 1.6797-0.023438 3.3516 0.046874 5.0273 0.17969zm912.5-528.89c-0.58984 0.54688-1.2148 1.0859-1.8398 1.6133-1.8398 1.2812-3.7422 2.3906-5.7695 3.3555-3.1836 1.207-6.3945 2.0625-9.7344 2.6016-0.5 0.046875-0.99609 0.085938-1.4961 0.12109 4.5547-1.7695 8.9219-4.0312 13.133-6.4062 0.49609-0.28516 0.99609-0.57812 1.4961-0.875 1.4062-0.0625 2.8086-0.19922 4.2109-0.41016zm-37.926-7.9648c0.93359 0.20703 1.8398 0.38672 2.7734 0.53125 0.21875 0.18359 0.4375 0.36719 0.65625 0.53125 0.4375 0.35156 0.875 0.67969 1.3125 0.99219-0.125 0.027343-0.28125 0.050781-0.40625 0.078124-1.5312 0.14844-3.0273 0.21484-4.5547 0.14844-0.28125-0.058594-0.53125-0.12109-0.77734-0.1875v-0.046875c0.33984-0.68359 0.65234-1.3672 0.99609-2.0469zm-15.879-9.8828c0.40625 0.51172 0.84375 1.0078 1.2812 1.4922-0.1875 0.39062-0.40625 0.77734-0.59375 1.168-0.25-0.87891-0.46875-1.7617-0.6875-2.6602zm53.027-6.293c0.77734-1.1914 1.4336-2.4297 2.0586-3.707 0.34375 0.52734 0.65234 1.0547 0.96484 1.6016 0.09375 0.38672 0.1875 0.77734 0.28125 1.168-0.49609 0.41797-1.0273 0.83984-1.5586 1.25-1.3125 0.98438-2.6211 1.9609-3.9609 2.918 0.77734-1.0742 1.5273-2.1719 2.2148-3.2305zm8.2656-25.973c0.87109 0.44531 1.6836 0.9375 2.5273 1.4883 0.71484 0.65234 1.4023 1.332 2.0273 2.0586 0.40625 0.58594 0.74609 1.1875 1.0586 1.8125 0.40625 1.1484 0.71875 2.2852 0.9375 3.4648l0.09375 1.2188c-0.53125-0.625-1.0938-1.2344-1.6211-1.8359-2.1836-2.4141-4.6484-4.4219-7.2383-6.3477-0.125-0.074219-0.21875-0.15234-0.34375-0.23438 0.84375-0.5625 1.6836-1.1016 2.5586-1.625zm-34.5-15.883c0.0625 0.23047 0.125 0.46484 0.1875 0.69922-0.58984 0.44922-1.1523 0.92969-1.7148 1.3711-1.7148 1.3555-3.0859 2.9062-4.3359 4.6953-2.0898 2.9688-3.8047 6.1836-4.4922 9.7383-0.52734 2.9297-0.59375 5.8867-0.37109 8.8242-0.0625 0.10547-0.15625 0.21484-0.25 0.3125-1.2812 1.6953-2.4961 3.418-3.6797 5.1641-0.65625-1.957-1.1875-3.9531-1.5625-5.9961-0.125-1.6133-0.125-3.2109 0-4.832 0.1875-1.0625 0.46875-2.0977 0.8125-3.1328 1.4023-2.9727 3.1484-5.8125 5.082-8.4961 1.7148-2.0469 3.6836-3.8555 5.7422-5.5547 1.4648-1.043 2.9609-1.9766 4.5508-2.7891 0 0 0-0.003906 0.03125-0.003906zm0.9375-0.28906c0.09375 0.070312 0.15625 0.13672 0.25 0.20703-0.09375-0.066407-0.15625-0.13281-0.25-0.20312v-0.003906zm18.152-12.355c0.40625 0.03125 0.8125 0.066406 1.1875 0.10547 3.1172 0.53516 6.1133 1.3594 9.043 2.4688 3.1523 1.4844 6.1133 3.2773 8.9531 5.3477 0.09375 0.085937 0.1875 0.16797 0.3125 0.25781-0.25 0.050782-0.46875 0.10156-0.71875 0.15625-2.7148 0.64844-5.3359 1.8242-7.8906 2.9961-0.46875 0-0.96875 0.007812-1.4688 0.023438-2.1836 0.097656-4.3672 0.48828-6.4844 1.0781-0.28125-0.19922-0.53125-0.38672-0.8125-0.57422-0.90625-0.62891-1.9023-1.1289-2.9336-1.5117-0.09375-0.34375-0.15625-0.6875-0.25-1.0312-0.49609-2.2344-1.4023-4.3398-2.3359-6.4102-0.03125-0.042969-0.03125-0.078125-0.0625-0.12109 1.4336-0.53906 2.6523-1.5195 3.4609-2.7852zm-9.6055-16.16c-3.2773 0.375-6.4883 1.0078-9.6719 1.9883-3.4297 1.0586-6.7344 2.6914-9.8555 4.4219-1.8398 1.0234-3.6484 2.1836-5.3633 3.4375-3.2461 1.6992-6.2695 3.8555-9.1406 6.1875-4.8945 4.0117-8.793 8.8906-12.102 14.32-3.0586 5.0859-5.332 10.75-7.2383 16.375-2.1797 6.3125-3.3359 12.883-4.0859 19.508-0.74609 6.5078-0.27734 12.953 0.71875 19.395 0.46875 3 1.2188 5.7891 2.4961 8.5625 1.3398 2.9375 3.1484 5.4141 5.207 7.9062 3.6797 4.457 8.7656 7.9609 13.789 10.734 5.9883 3.3125 12.598 5.2695 19.336 6.2812 12.383 1.8594 24.891 0.30859 36.465-4.5039 11.945-4.9727 22.27-12.688 30.195-22.965 7.5781-9.8672 12.566-22.117 12.539-34.66-0.03125-3.3281-0.625-6.7188-1.2812-9.9805-0.53125-2.7695-1.4648-5.4648-2.4961-8.0898-1.1211-2.8867-2.4336-5.6758-3.9297-8.3867-1.7773-3.1797-4.0234-6.0508-6.2695-8.8906-7.7969-9.7969-18.777-17.301-30.91-20.5-3.9297-1.0312-8.0156-1.5039-12.133-1.5039-2.0898 0-4.2109 0.125-6.2695 0.36328zm253.84-507.23c1.4062 2.0508 2.9961 3.9961 4.6797 5.8125 2.0898 2.2695 4.6758 4.1289 7.2031 5.8828 1.125 0.78906 2.3086 1.4844 3.5586 2.1211-0.9375-0.03125-1.8398-0.085937-2.7773-0.16797-2.5547-0.44922-4.9883-1.1094-7.4219-2.0156-1.7461-0.85156-3.4297-1.7891-5.0234-2.8945-1.0273-0.89844-1.9961-1.8398-2.8984-2.8633-0.53125-0.83594-1.0312-1.6875-1.4688-2.582-0.27734-1.0703-0.49609-2.1445-0.65625-3.2422l-0.027344-0.050781h-18.156c0.28125 2.625 0.84375 5.2148 1.6523 7.6914 1.5 4.5859 4.0273 8.5078 7.3008 11.84 0.40625 0.64453 0.84375 1.2773 1.3398 1.9102 3.8984 5.0781 8.7969 8.8633 14.441 11.867 7.0195 3.7266 14.848 5.8398 22.801 6.6992v-40.008zm10.637 330.36c0.96484 1.6406 2.2773 3.0469 3.8672 4.1172 1.9023 1.2852 4.0234 2.1602 6.2695 2.5938 1.2773 0.25391 2.5273 0.35938 3.7734 0.36328v-19.23c-0.77734 1.7578-1.6523 3.5117-2.3398 5.3203-0.058593-0.019531-0.089843-0.042969-0.12109-0.066406v-0.56641c0.52734-2.7656 1.4336-5.4727 2.4609-8.1094v-47.105c-0.62109 0.015625-1.2148 0.050781-1.8398 0.11328-4.8008 0.45703-9.2344 1.8633-13.598 3.8672-4.5234 2.0586-8.6406 5.3711-12.324 8.6289-3.4609 3.0352-6.4531 6.6016-9.1992 10.223-3.0586 4.0156-5.707 8.3086-8.0469 12.77-2.1523 4.1484-4.0234 8.6211-5.1133 13.172-1.3125 5.2227-1.1875 10.715 0.12109 15.914 1.1875 4.707 3.6484 8.9883 6.6133 12.773 2.2461 2.8789 4.8359 5.3555 7.707 7.5391 1.1836 3.3555 2.9922 6.4805 5.207 9.2695 5.9258 7.4766 15.191 11.562 24.453 12.949 1.9961 0.30078 3.9922 0.5 6.0195 0.57812v-36.586c-0.33984 0.058594-0.65625 0.11328-0.99609 0.16797-2.9336 0.31641-5.8672 0.41406-8.8281 0.14062-1.8086-0.30859-3.5859-0.73047-5.3359-1.3125 0.03125-0.54688 0.0625-1.1055 0.125-1.668 0.3125-1.9648 0.6875-3.918 1.125-5.8555zm11.23-7.8516c0.03125 0.12891 0.03125 0.25391 0.0625 0.38281-0.03125-0.12891-0.03125-0.25391-0.0625-0.38281zm-0.65625-0.023437c0.21875 0.25391 0.40625 0.51172 0.59375 0.76562-0.21875-0.23047-0.40625-0.48828-0.59375-0.76562zm-30.754-11.09c-0.0625 0.13281-0.09375 0.27734-0.15625 0.41797-1.5273 4.793-2.6523 9.8125-2.9648 14.844 0 0.43359-0.03125 0.86719-0.03125 1.3008-0.09375-0.46094-0.21875-0.92969-0.28125-1.4062-0.125-1.668-0.09375-3.3086 0.0625-4.9766 0.5-2.8398 1.375-5.5273 2.4648-8.2031 0.28125-0.66406 0.59375-1.3281 0.90625-1.9766zm21.926 393.43c-0.46875 1.0391-0.90234 2.0781-1.3711 3.1172-0.78125-2.6328-1.4062-5.3047-1.8711-8.0117-0.40625-2.7031-0.6875-5.4141-0.84375-8.125 0.3125-1.2227 0.65234-2.4492 1.0273-3.668 0.6875-2.3555 1.4062-4.7109 2.0898-7.0859 1.375-4.6641 3.3711-9.2539 5.5859-13.699 2.1523-4.0859 4.5547-8.1133 7.5469-11.828v-23.023c-1.3398 0.20703-2.6484 0.46094-3.9297 0.73828-4.7383 1.0078-9.2617 2.7461-13.316 4.9688-1.7461 0.96094-3.3711 2.0078-4.8984 3.1484-1.5273-0.14844-3.1484-0.19922-4.6172 0.16797-1.9961 0.49219-3.8047 1.1875-5.457 2.2383-1.9961 1.2812-3.6172 2.7422-5.1133 4.418-2.9023 3.2656-4.8672 7.0273-6.6445 10.785-7.6445 15.789-9.1719 33.52-6.5508 50.289 1.3398 8.4609 3.9922 16.77 9.2305 24.168 2.3086 3.2695 5.3672 6.2617 8.7656 8.7539 4.0273 2.918 8.5469 4.9414 13.508 6.5469 4.3047 1.4141 9.043 1.9609 13.629 2.3594 1.7812 0.15625 3.5898 0.24219 5.3984 0.27734v-92.402c-4.5859 3.9023-7.4883 9.2422-9.4219 14.445-1.4648 3.9023-2.1836 7.9844-2.7734 12.027-0.6875 4.3438-0.71875 8.7891-0.53125 13.156 0.058594 2.0859 0.27734 4.1641 0.55859 6.2383zm-3.1484-4.2852c0.027344 0.22266 0.058594 0.44141 0.089844 0.66016-0.027344-0.21875-0.058594-0.4375-0.089844-0.66016zm-24.082-10.793c0.03125 2.5391 0.1875 5.0742 0.46875 7.6094 0.4375 4.2266 1.25 8.4531 2.3711 12.594 1.1523 4.2656 2.9297 8.3555 5.0859 12.344 1.9297 3.6133 4.7695 7.0156 8.1094 9.8398 1.6836 1.4219 3.7734 2.5938 5.7695 3.6758 2.3398 1.2695 4.8984 2.1797 7.4844 3.0742 2.7148 0.9375 5.6172 1.6211 8.5781 1.9922-1.8086-0.058594-3.6484-0.17578-5.457-0.34375-3.4297-0.45703-6.707-1.1523-9.918-2.1914-2.3125-0.92188-4.4609-1.9805-6.5195-3.2305-1.9336-1.3555-3.6523-2.8359-5.2734-4.4453-1.9336-2.2383-3.5547-4.625-4.9258-7.1328-2.3711-4.957-3.9336-10.09-4.8672-15.379-0.90625-6.1133-1.2188-12.266-0.90625-18.406zm-541.95-678.71c0.96484 1.6328 2.2773 3.043 3.8672 4.1133 1.9023 1.2852 4.0547 2.1562 6.2695 2.5938 1.9648 0.39453 3.8359 0.42969 5.7383 0.28906 0.5625 0.28125 1.1562 0.51562 1.7812 0.70703-1.5625 0.39844-3.1211 0.73047-4.7109 0.98828-2.9648 0.31641-5.8945 0.41406-8.8594 0.14062-1.8086-0.30469-3.5859-0.72656-5.332-1.3086 0.03125-0.55078 0.09375-1.1094 0.15625-1.668 0.27734-1.9688 0.65234-3.9219 1.0898-5.8555zm20.211 20.484c4.6172-1.0312 9.0469-2.8867 13.258-5.0234 4.4297-2.2539 8.5781-5.3086 12.07-8.832 3.8359-3.8906 6.3633-8.7305 7.6094-13.906-0.03125 1.582-0.15234 3.1719-0.30859 4.7656-0.5 3.0078-1.25 5.8984-2.3398 8.7383-0.78125 1.6016-1.6523 3.1172-2.6836 4.5898-1.1211 1.3281-2.3398 2.5312-3.6484 3.6602-1.8398 1.3125-3.8047 2.3945-5.832 3.3555-3.0898 1.1836-6.2383 2.0039-9.5156 2.543-3.3359 0.38281-6.707 0.50391-10.074 0.42188 0.5-0.097656 0.96875-0.20312 1.4648-0.3125zm-8.9805-28.34c0.03125 0.12891 0.03125 0.25391 0.0625 0.37891-0.03125-0.125-0.03125-0.25-0.0625-0.37891zm-0.65625-0.023437c0.21875 0.25391 0.40625 0.51172 0.59375 0.76562-0.21875-0.23438-0.40625-0.48828-0.59375-0.76562zm-32.875-3.1523c-0.5 2.4219-0.84375 4.8711-0.96875 7.3242-0.03125 0.43359-0.0625 0.86719-0.03125 1.3008-0.125-0.46484-0.21875-0.93359-0.3125-1.4062-0.125-1.6719-0.09375-3.3086 0.0625-4.9805 0.125-0.75781 0.28125-1.5039 0.46875-2.2383h-13.723c-0.625 4.3359-0.375 8.7852 0.71484 13.035 1.1836 4.7031 3.6484 8.9883 6.6133 12.77 2.2461 2.8789 4.832 5.3555 7.7031 7.5391 1.1836 3.3594 2.9961 6.4805 5.2109 9.2695 5.9258 7.4766 15.188 11.566 24.453 12.949 2.5586 0.38672 5.0859 0.60547 7.7031 0.61719 2.1523 0.011718 4.3047-0.24219 6.4258-0.53125 2.4023 0.36719 4.8359 0.61719 7.2656 0.85547 4.3984 0.44141 9.1094-0.054687 13.352-1.2852 5.1172-1.4766 9.5156-4.5547 13.633-7.8086 7.2344-5.6992 12.508-13.684 15.625-22.285 1.5938-4.4141 2.2148-9.2422 2.4023-13.898 0.15625-3.7188-0.21875-7.5234-0.875-11.227h-60.043c-0.625 1.3828-1.2773 2.7734-1.8086 4.1914-0.03125-0.019531-0.09375-0.042968-0.125-0.070312v-0.5625c0.25-1.1992 0.53125-2.3867 0.90625-3.5586zm-552.81 16.027c3.7031-1.1289 7.2383-2.6758 10.504-4.6836-1.0391 1.0117-2.1172 1.9766-3.2422 2.9102-3.2344 2.3516-6.6484 4.332-10.289 6-3.2148 1.2422-6.4805 2.2148-9.8203 2.9492 2.6953-1.707 5.2617-3.6328 7.6719-5.7422 1.7461-0.41406 3.4727-0.91797 5.1758-1.4336zm-33.074 23.98c4.0977 0.44141 8.2187 0.54688 12.273 0.37109 12.418-0.51172 24.758-4.1758 35.113-11.086 4.6133-3.082 8.7578-6.8398 12.199-11.156 1.8281-2.2969 3.4883-4.6602 4.9766-7.1797 1.7031-2.8945 2.957-6.082 4.1914-9.1797 0.23828-0.58984 0.46094-1.1797 0.67188-1.7773h-69.426zm0 297.42c0.66016 0.003906 1.3164-0.023438 1.9766-0.074219 0.5625 0.28516 1.1484 0.51953 1.7617 0.70703-1.2344 0.31641-2.4766 0.58984-3.7383 0.82031v36.586c0.55859 0.023438 1.1172 0.035156 1.6758 0.039062 2.168 0.011719 4.3086-0.23828 6.4453-0.53516 2.4023 0.375 4.8398 0.62109 7.2578 0.85938 4.4102 0.4375 9.1055-0.058593 13.363-1.2852 5.1055-1.4766 9.5039-4.5547 13.629-7.8047 7.2383-5.6992 12.516-13.691 15.629-22.289 1.5898-4.418 2.1953-9.2461 2.3789-13.898 0.21875-5.1758-0.55859-10.523-1.7969-15.543-1.1641-4.7695-3.1523-9.3867-5.3984-13.727-2.3359-4.5469-5.4883-8.7188-8.9102-12.527-2.168-2.4023-4.6445-4.5391-7.2578-6.457 0.37109-2.1562-0.67578-4.3398-2.5898-5.6055-1.5508-1.0195-3.1133-2.0742-4.8945-2.668-2.2656-0.75391-4.582-0.99609-6.9727-0.98438-0.21875 0-0.44141 0.007812-0.66016 0.015625-2.5938-1.2617-5.2812-2.3398-8-3.2812-2.2656-0.77344-4.6328-1.2227-7-1.5977-2.0195-0.31641-4.0352-0.52344-6.0625-0.52344-0.27734 0-0.55469 0.003906-0.83594 0.011719v47.109c0.15625-0.39844 0.30859-0.78906 0.46484-1.1836 1.3008-2.9453 2.8281-5.7812 4.6875-8.3984 1.2031-1.4727 2.4648-2.8633 3.8906-4.1133 0.99219-0.6875 2.0156-1.2852 3.0977-1.8359 0.097657-0.03125 0.1875-0.066406 0.28125-0.097656-0.82812 0.85547-1.6211 1.75-2.3867 2.668-4.0781 4.875-7.4492 10.574-10.031 16.383v19.23zm6.3086 13.414c4.6055-1.0312 9.0586-2.8867 13.254-5.0234 4.4258-2.25 8.5859-5.3125 12.066-8.8359 3.832-3.8828 6.3516-8.7227 7.6055-13.902-0.035156 1.5859-0.14062 3.1719-0.3125 4.7656-0.48828 3.0039-1.2266 5.8984-2.3203 8.7383-0.77344 1.6055-1.6562 3.1211-2.6836 4.5898-1.125 1.3281-2.3398 2.5312-3.6758 3.6602-1.8359 1.3125-3.7773 2.3945-5.8281 3.3555-3.082 1.1836-6.2344 2.0039-9.5039 2.5469-3.3438 0.375-6.7031 0.5-10.062 0.41797 0.48828-0.097656 0.97266-0.20312 1.4609-0.3125zm16.934-43.02c-0.73047 1.3398-1.5508 2.625-2.4453 3.8789-1.082 1.3164-2.2344 2.5547-3.4453 3.7305 0.87891-1.4414 1.8086-2.8477 2.8086-4.2188 0.97656-1.1797 1.9883-2.3242 3.082-3.3906zm-11.793 432.61c-0.21875 0.027344-0.43359 0.058594-0.65234 0.082031 0.21484-0.027343 0.42969-0.058593 0.65234-0.082031zm-2.5195-45.641c-0.066406 0.14062-0.13672 0.27344-0.20312 0.40625 0.066406-0.13672 0.13672-0.26562 0.20312-0.40625zm2.9492-5.0508c-0.96875 2.4258-1.9102 4.8594-2.8516 7.293-2.0156 5.2266-3.7734 10.516-5.6406 15.777l-0.37109 0.20703c-0.33203-1.2422-0.63281-2.4961-0.89453-3.7539 0.57422-1.3477 1.1836-2.6953 1.7695-4.0391 1.3672-3.1523 2.9453-6.2383 4.4922-9.3359 1.1211-2.0703 2.2734-4.125 3.4961-6.1484zm3.7773-24.945c-1.2148 0.80078-2.3633 1.6641-3.4648 2.5781-3.3906 2.7773-6.1953 6.0273-8.7227 9.3828 0.40234-1.1523 0.85938-2.293 1.3828-3.4219 1.0469-1.9492 2.2344-3.8242 3.6992-5.582 0.64062-0.60937 1.3047-1.1875 2.0273-1.7383 0.64453-0.36328 1.293-0.69922 1.9766-1 0.33984-0.089843 0.67969-0.16406 1.0234-0.23438 0.69922-0.015625 1.3867-0.007812 2.0781 0.015625zm-15.656-9.2812c0.45703-0.5625 0.92187-1.1211 1.4023-1.668 1.8359-1.8789 3.8203-3.5977 6.0586-5.1328 1.3047-0.76172 2.6289-1.4297 4.0664-2.0039 0.89844-0.24609 1.793-0.4375 2.7188-0.58594 0.94141-0.058594 1.8789-0.070312 2.8164-0.046875 1.5742 0.75781 3.0547 1.6016 4.5195 2.4961 3.668 2.4922 7.0117 5.332 10.074 8.3477-2.3789-0.92578-4.8711-1.6719-7.3242-2.2891-2.5586-0.64062-5.2656-0.91797-7.8984-1.1016-2.7891-0.1875-5.7539 0.039063-8.3555 0.88672-3.1602 1.0352-5.8203 2.6094-8.0781 4.5312v92.402c3.3398 0.058593 6.6992-0.078125 10.02-0.33984 5.0469-0.39453 10.098-1.1328 15.016-2.168 5.1953-1.1016 10.211-2.7969 15.016-4.7383 4.2148-1.6992 7.9648-3.9766 11.633-6.3789 3.8555-2.5273 7.293-5.4844 10.371-8.668 6.3711-6.5859 11.273-14.055 14.25-22.137 1.4102-3.8164 2.2305-7.7773 2.8203-11.73 0.66406-4.418 0.99219-8.7852 0.55859-13.227-0.80469-8.3555-3.9336-16.402-9.707-23.281-3.6406-4.3438-8.2188-8.0781-13.305-11.266-1.0469-1.7305-2.3008-3.375-3.7344-4.9102-2.9062-3.0977-6.7031-5.6172-11.004-7.2656-4.9609-1.918-10.27-2.7422-15.703-3.0156-3.793-0.19141-7.6289 0.0625-11.391 0.57422-0.71875-0.13672-1.4453-0.25-2.1719-0.34766-2.1406-0.30078-4.2734-0.46484-6.4258-0.46484-0.44141 0-0.87891 0.007812-1.3242 0.019531-1.6406 0.054687-3.2891 0.23047-4.9141 0.48047v23.027zm60.801 10.949v-0.0625c1.0742 1.4609 2.043 2.9648 2.8984 4.5273 1.4961 3.1836 2.4766 6.4453 3.1094 9.8242 0.58984 4.707 0.33594 9.332-0.33984 14.039-0.84766 4.7969-2.25 9.4688-4.3906 13.996-2.375 4.4688-5.3242 8.6523-8.8086 12.59-3.2344 3.3789-6.8438 6.4062-10.891 9.1211-3.7852 2.3438-7.7852 4.2461-12.098 5.8359-5.9922 1.9883-12.184 3.2578-18.547 4.0625-0.33984 0.035156-0.67578 0.066406-1.0156 0.097656 0.29297-0.042969 0.57812-0.089844 0.87109-0.13672 2.7344-0.42969 5.4258-1.2305 8.0273-2.0469 4.5703-1.4492 8.9414-3.2422 12.898-5.6523 4.3984-2.668 8.5273-5.6367 12.43-8.7969 7.0859-5.7461 12.855-12.844 15.012-20.949 1.0195-3.8086 1.5234-7.7461 1.2891-11.637-0.074219-1.4531-0.30859-2.9297-0.63281-4.3828 0.074218-3.0195-0.33594-6.0469-0.99609-9.0117 0.66016-3.7891 1.0469-7.6094 1.1836-11.418zm857.89-483.64c1.3711 0.51562 2.7461 0.96484 4.1484 1.3633 1 0.28516 1.9961 0.50391 2.9922 0.69922 2.3398 1.1133 4.8359 1.9141 7.3945 2.4453 1.1836 0.24219 2.3711 0.41406 3.5547 0.51953 0.28125 0.54297 0.65625 1.0273 1.0625 1.4531-4.6797-0.72656-9.2344-1.8242-13.633-3.5703-1.9336-0.85156-3.7422-1.8164-5.5195-2.9102zm45.508-0.91406c2.8711-0.88672 5.6797-1.9023 8.5156-2.9961 3.1211-1.2109 6.207-2.5859 9.1094-4.293 0.8125-0.46484 1.5898-0.97656 2.3398-1.5117-0.4375 0.69141-0.875 1.3672-1.375 2.0312-1.7148 2.0703-3.6484 3.918-5.7383 5.6055-3.2461 2.3633-6.7383 4.3359-10.387 5.9883-3.6484 1.418-7.3633 2.3906-11.199 3.0039-3.1484 0.34766-6.3008 0.41797-9.4805 0.29297 0.62109-0.39062 1.3086-0.86328 1.6836-1.293 0.5-0.53906 0.9375-1.1016 1.375-1.6758 4.0859-0.80078 7.9844-2.3477 11.82-3.9727 0.40625-0.17969 0.83984-0.35938 1.2461-0.53906 0.6875-0.21484 1.4062-0.42969 2.0898-0.64062zm-56.613-28.801c0.03125 0.83984 0.125 1.6758 0.21875 2.5195 0 0.24219-0.03125 0.49219-0.03125 0.73828-0.0625-0.26172-0.125-0.51953-0.15625-0.78125-0.058594-0.83203-0.058594-1.6523-0.03125-2.4766zm53.871-7.7695-0.03125-0.38281c0.65234 1.0156 1.2461 2.0664 1.8086 3.1484-0.53125 0.25781-1.0586 0.53906-1.5586 0.83203-0.035156-1.1953-0.097656-2.3945-0.21875-3.5977zm-14.879-10.125c0.09375 0.30078 0.1875 0.60938 0.25 0.91797-0.75 0.94531-1.5 1.9062-2.2461 2.8789-4.8359 6.375-8.3281 13.82-10.949 21.363-0.71484 2.1055-1.4961 4.1758-1.9336 6.3477-0.5-0.10938-0.99609-0.23438-1.4961-0.36719 0.71484-3.6797 1.9336-7.2852 3.3047-10.758 2.4961-5.7109 5.6172-11.164 9.3906-16.152 1.1836-1.457 2.3984-2.8789 3.6797-4.2305zm-11.043-20.957c0.4375 0.45312 0.84375 0.92578 1.2773 1.4062-0.43359 0.21875-0.83984 0.4375-1.2773 0.66797-1.9961 1.1055-3.7734 2.5234-5.5508 3.918-0.4375 0.32031-0.84375 0.64844-1.2188 0.98828 0.34375-0.53516 0.71875-1.0586 1.0938-1.582 1.4648-1.7344 2.9922-3.3242 4.707-4.7695 0.3125-0.21875 0.65625-0.42578 0.96875-0.62891zm21.336-4.125c2.1836 0.37891 4.2734 0.92578 6.3633 1.6953 1.0586 0.51953 2.0898 1.1055 3.0547 1.7656-1.3711-0.085937-2.8047 0.015626-4.1797 0.21484-0.5-0.21875-1-0.42578-1.4961-0.62891-1.6562-0.67578-3.3711-1.1836-5.1484-1.5039-2.0586-0.35938-4.1797-0.35547-6.2695-0.09375-0.33984-0.51172-0.71484-1.0195-1.0586-1.5156 2.9023-0.23828 5.8008-0.24609 8.7344 0.066406zm-22.551-15.891c-1.125 0.13281-2.1836 0.30859-3.2773 0.55859-2.1523 0.48047-4.2422 1.3438-6.2383 2.2422-0.65234 0.28516-1.2773 0.59375-1.9023 0.91016-0.59375 0.16406-1.1875 0.36328-1.8086 0.61328-4.0234 1.6758-7.332 4.4336-10.043 7.7344-2.1523 1.9453-4.1484 4.0703-6.0195 6.2734-2.8711 3.3867-5.2422 7.0586-7.457 10.902-4.6172 7.9883-6.3945 17.074-6.332 26.227 0.03125 9.0469 2.4023 18.105 6.3633 26.203 3.8672 7.8711 10.512 14.094 18.152 18.227 7.8945 4.2734 16.688 6.0273 25.516 6.9336 4.2734 0.44141 8.6094 0.59766 12.883 0.24609 4.8633-0.39844 9.668-1.3945 14.254-2.9844 8.2031-2.8477 16.125-7.7695 21.93-14.262 1.4023-1.5742 2.6484-3.3086 3.7734-5.0781 1.2461-1.918 2.1211-4.0508 2.9648-6.1602 1.7461-4.3281 2.2773-9.2656 2.1836-13.898 0-0.96094-0.0625-1.9219-0.125-2.8828 1.1211-2.5312 1.9961-5.1992 2.6172-7.8828 1.5-6.1406 0.34375-12.758-3.8047-17.609-2.2734-2.6914-5.2383-4.5273-8.2656-6.25-0.55859-1.082-1.1523-2.1406-1.7773-3.1836-2.3086-3.9297-5.207-7.543-8.2656-10.926-1.3086-1.4414-2.7422-2.7266-4.2422-3.9531-1.5273-1.2734-3.1484-2.4883-4.8672-3.5156-1.6836-0.98438-3.6172-1.6758-5.457-2.3164-2.3398-0.8125-4.7734-1.2344-7.2383-1.5391-2.4648-0.31641-4.9258-0.38672-7.3594-0.28906-0.65625-1.3633-1.8086-2.4688-3.3359-2.7578-3.4336-0.65234-6.832-1.3906-10.324-1.7305-0.1875-0.019531-0.375-0.03125-0.5625-0.03125-0.625 0.003907-1.3125 0.10156-1.9336 0.17969zm-310.73 325.18c-0.21875 0.027344-0.40625 0.054687-0.625 0.082031 0.1875-0.03125 0.40625-0.058594 0.625-0.082031zm-2.4961-45.641c-0.0625 0.13672-0.15625 0.27344-0.21875 0.40234 0.0625-0.13281 0.15625-0.26953 0.21875-0.40234zm2.9297-5.0547c-0.96484 2.4258-1.9023 4.8633-2.8359 7.2969-2.0273 5.2227-3.7734 10.512-5.6484 15.777l-0.37109 0.20703c-0.34375-1.2461-0.625-2.4961-0.90625-3.75 0.59375-1.3516 1.1875-2.6953 1.7773-4.043 1.375-3.1523 2.9648-6.2422 4.4922-9.3359 1.125-2.0703 2.2773-4.125 3.4922-6.1523zm3.7773-24.945c-1.2188 0.80078-2.3398 1.668-3.4648 2.5781-3.3672 2.7812-6.1758 6.0312-8.7031 9.3828 0.40625-1.1484 0.84375-2.2891 1.375-3.418 1.0586-1.9492 2.2461-3.8242 3.7109-5.582 0.625-0.61328 1.2812-1.1875 2.0273-1.7383 0.625-0.36328 1.2812-0.69922 1.9648-1.0039 0.34375-0.085938 0.6875-0.16016 1.0312-0.23047 0.68359-0.015625 1.3711-0.007812 2.0586 0.011719zm-27.793 40.023c-0.46875 1.0352-0.9375 2.0742-1.3711 3.1172-0.8125-2.6328-1.4062-5.3086-1.8711-8.0117-0.40625-2.7031-0.6875-5.4141-0.84375-8.125 0.3125-1.2266 0.65625-2.4492 1.0273-3.668 0.6875-2.3555 1.375-4.7148 2.0898-7.082 1.375-4.668 3.3711-9.2578 5.5859-13.703 2.4648-4.707 5.3008-9.3398 8.918-13.5 1.8438-1.875 3.8398-3.5938 6.0859-5.1289 1.2773-0.76172 2.6172-1.4258 4.0547-2 0.90234-0.25 1.7773-0.44531 2.7109-0.58984 0.9375-0.058594 1.8711-0.070312 2.8086-0.042969 1.5898 0.75 3.0547 1.5977 4.5234 2.4922 3.6797 2.4961 7.0156 5.3359 10.074 8.3516-2.3711-0.92969-4.8672-1.6719-7.332-2.2891-2.5586-0.64062-5.2383-0.91797-7.8906-1.0977-2.7773-0.19141-5.7383 0.035157-8.3594 0.88281-9.5781 3.1406-14.598 11.219-17.5 18.977-1.4336 3.9023-2.1523 7.9844-2.7773 12.027-0.65234 4.3477-0.71484 8.793-0.52734 13.156 0.09375 2.0742 0.3125 4.1602 0.59375 6.2344zm-3.1523-4.2852c0.03125 0.21875 0.0625 0.44141 0.09375 0.66016-0.03125-0.21875-0.0625-0.44141-0.09375-0.66016zm-24.078-10.793c0.03125 2.5391 0.1875 5.0742 0.46875 7.6094 0.4375 4.2266 1.2148 8.4531 2.3398 12.594 1.1836 4.2656 2.9609 8.3555 5.1133 12.344 1.9336 3.6094 4.7734 7.0156 8.1094 9.8398 1.6836 1.4219 3.7422 2.5938 5.7383 3.6758 2.3711 1.2656 4.9297 2.1797 7.5195 3.0742 2.7109 0.9375 5.6133 1.6211 8.5781 1.9922-1.8438-0.058594-3.6523-0.17578-5.4609-0.34375-3.4297-0.45703-6.7031-1.1523-9.9492-2.1953-2.3086-0.91797-4.4297-1.9766-6.4883-3.2266-1.9336-1.3594-3.6484-2.832-5.2695-4.4453-1.9336-2.2383-3.5547-4.625-4.9297-7.1328-2.3711-4.957-3.9297-10.09-4.8633-15.375-0.90625-6.1172-1.2188-12.273-0.90625-18.41zm100.19-23.277v-0.058594c1.0586 1.457 2.0273 2.9648 2.9023 4.5234 1.4961 3.1836 2.4609 6.4453 3.0859 9.8203 0.59375 4.7148 0.34375 9.3398-0.34375 14.043-0.83984 4.7969-2.2461 9.4727-4.3672 13.996-2.3672 4.4688-5.332 8.6562-8.8242 12.594-3.2148 3.3789-6.832 6.4062-10.887 9.1211-3.7734 2.3398-7.7969 4.2461-12.102 5.8359-5.9883 1.9883-12.164 3.2539-18.527 4.0625-0.34375 0.035156-0.6875 0.066406-1.0312 0.097656 0.28125-0.046875 0.59375-0.089844 0.875-0.13672 2.7422-0.42969 5.4258-1.2344 8.0156-2.0469 4.5859-1.4531 8.9531-3.2422 12.914-5.6523 4.3984-2.6719 8.5156-5.6367 12.414-8.8008 7.0781-5.7461 12.852-12.84 15.035-20.945 0.99609-3.8086 1.4961-7.7461 1.2773-11.641-0.09375-1.4492-0.3125-2.9258-0.625-4.3789 0.0625-3.0195-0.33984-6.0469-0.99609-9.0117 0.65234-3.793 1.0273-7.6133 1.1836-11.422zm-55.895-34.449c-2.9648 0.09375-5.957 0.59766-8.8594 1.2188-4.707 1.0078-9.2344 2.7461-13.285 4.9688-1.7461 0.95703-3.4023 2.0039-4.8984 3.1484-1.5273-0.15234-3.1484-0.19922-4.6172 0.16797-1.9961 0.48828-3.8008 1.1836-5.457 2.2383-2.0273 1.2812-3.6172 2.7383-5.1172 4.418-2.9023 3.2656-4.8633 7.0234-6.6719 10.785-7.6133 15.789-9.1406 33.52-6.5195 50.289 1.3086 8.4609 3.9922 16.77 9.2305 24.168 2.2773 3.2695 5.3672 6.2617 8.7656 8.75 3.9922 2.9219 8.5469 4.9453 13.508 6.5508 4.3008 1.4141 9.0117 1.9648 13.598 2.3594 5.1133 0.44141 10.324 0.34375 15.441-0.058594 5.0195-0.39844 10.074-1.1367 15.004-2.168 5.207-1.1055 10.199-2.8008 15-4.7422 4.2422-1.6992 7.9844-3.9727 11.633-6.3789 3.8711-2.5273 7.3008-5.4844 10.387-8.668 6.3633-6.5859 11.262-14.051 14.258-22.133 1.4023-3.8164 2.2148-7.7812 2.8047-11.734 0.65625-4.418 1-8.7852 0.5625-13.23-0.8125-8.3477-3.9297-16.395-9.7031-23.277-3.6484-4.3438-8.2344-8.0781-13.316-11.262-1.0312-1.7305-2.3086-3.3789-3.7109-4.9141-2.9336-3.0977-6.707-5.6133-11.012-7.2656-4.9609-1.9141-10.262-2.7383-15.723-3.0156-3.7734-0.19141-7.6094 0.066407-11.383 0.57422-0.71875-0.13281-1.4375-0.24609-2.1523-0.34766-2.1523-0.29688-4.3047-0.46484-6.457-0.46484-0.4375 0-0.87109 0.011719-1.3086 0.023438zm-162.29 447.18c0.96875 1.6406 2.2773 3.0508 3.8711 4.1172 1.9023 1.2852 4.0234 2.1602 6.2695 2.5977 1.9648 0.38672 3.8359 0.42578 5.7383 0.28906 0.5625 0.28125 1.1562 0.51563 1.7461 0.70313-1.5273 0.40234-3.1211 0.73047-4.7109 0.98828-2.9609 0.31641-5.8633 0.41406-8.8242 0.14062-1.8086-0.30469-3.5898-0.73047-5.3359-1.3086 0.03125-0.55078 0.0625-1.1094 0.125-1.6719 0.3125-1.9648 0.6875-3.918 1.1211-5.8555zm20.215 20.492c4.5859-1.0312 9.0469-2.8906 13.258-5.0273 4.4258-2.25 8.5742-5.3086 12.039-8.8359 3.8672-3.8828 6.3633-8.7227 7.6094-13.902-0.03125 1.5859-0.125 3.1719-0.3125 4.7656-0.46875 3.0078-1.2148 5.8984-2.3086 8.7422-0.77734 1.6016-1.6523 3.1172-2.6797 4.5859-1.125 1.332-2.3398 2.5352-3.6836 3.6641-1.8398 1.3086-3.7734 2.3906-5.832 3.3516-3.0859 1.1875-6.2383 2.0078-9.4805 2.5469-3.3711 0.37891-6.707 0.50391-10.078 0.42188 0.5-0.10156 0.96875-0.20703 1.4688-0.3125zm-8.9844-28.34c0.03125 0.125 0.03125 0.25 0.0625 0.37891-0.03125-0.12891-0.0625-0.25391-0.0625-0.37891zm-0.65625-0.023438c0.21875 0.25 0.40625 0.51172 0.59375 0.76172-0.21875-0.23047-0.40234-0.48828-0.59375-0.76172zm-30.754-11.094c-0.0625 0.13672-0.09375 0.27734-0.15234 0.41797-1.5625 4.7891-2.6523 9.8125-2.9648 14.848 0 0.42969-0.03125 0.86328-0.03125 1.3008-0.09375-0.46875-0.21875-0.93359-0.3125-1.4062-0.125-1.6719-0.0625-3.3086 0.09375-4.9805 0.5-2.8398 1.375-5.5273 2.4336-8.2031 0.3125-0.66406 0.58984-1.3242 0.93359-1.9766zm57.332-3.5664c-0.75 1.3398-1.5586 2.625-2.4648 3.875-1.0586 1.3164-2.2148 2.5586-3.4297 3.7344 0.87109-1.4375 1.8086-2.8477 2.8086-4.2188 0.96484-1.1797 1.9922-2.3242 3.0859-3.3906zm-10.824-8.6719c-0.84375 0.85547-1.6211 1.75-2.4023 2.668-4.0859 4.875-7.4531 10.574-10.012 16.379-0.8125 1.7578-1.6523 3.5156-2.3398 5.3242-0.0625-0.023437-0.09375-0.046875-0.125-0.070313v-0.56641c0.625-3.1797 1.7148-6.2891 2.9023-9.2891 1.3086-2.9453 2.8359-5.7812 4.7109-8.4023 1.1836-1.4727 2.4609-2.8594 3.8672-4.1133 0.99609-0.68359 2.0273-1.2852 3.1172-1.832 0.09375-0.03125 0.1875-0.0625 0.28125-0.097657zm-14.254-31.371c-4.8047 0.46094-9.2344 1.8672-13.602 3.8711-4.5195 2.0586-8.6367 5.3711-12.352 8.6289-3.4297 3.0352-6.4258 6.6016-9.168 10.227-3.0586 4.0117-5.707 8.3047-8.0469 12.766-2.1523 4.1484-4.0234 8.625-5.1484 13.172-1.2773 5.2266-1.1836 10.719 0.125 15.918 1.1836 4.707 3.6484 8.9844 6.6445 12.773 2.2461 2.875 4.832 5.3555 7.7031 7.5391 1.1836 3.3594 2.9961 6.4766 5.207 9.2656 5.8984 7.4805 15.16 11.566 24.426 12.949 2.5547 0.38672 5.1133 0.60547 7.7031 0.61719 2.1836 0.011719 4.3047-0.23828 6.457-0.53125 2.4023 0.37109 4.8359 0.61719 7.2656 0.85938 4.3984 0.43359 9.0781-0.0625 13.352-1.2891 5.1133-1.4766 9.5117-4.5547 13.633-7.8047 7.2344-5.6992 12.508-13.691 15.625-22.289 1.5898-4.4102 2.1836-9.2422 2.3711-13.898 0.21875-5.1758-0.5625-10.523-1.7773-15.543-1.1875-4.7695-3.1523-9.3867-5.3984-13.727-2.3398-4.5469-5.4883-8.7188-8.9219-12.523-2.1836-2.4062-4.6445-4.543-7.2656-6.457 0.375-2.1602-0.65625-4.3398-2.5898-5.6094-1.5586-1.0156-3.1172-2.0742-4.8945-2.668-2.2461-0.75391-4.5859-0.99609-6.957-0.98047-0.21875 0-0.4375 0.007813-0.65625 0.015626-2.6172-1.2656-5.3008-2.3438-8.0156-3.2812-2.2773-0.77734-4.6133-1.2188-6.9844-1.5977-2.0273-0.31641-4.0547-0.52344-6.082-0.52344-0.875-0.003906-1.75 0.035156-2.6523 0.12109zm-140.89-545.4c-0.59375 0.54688-1.2148 1.0859-1.8398 1.6133-1.8398 1.2812-3.7422 2.3867-5.7695 3.3516-3.1836 1.2109-6.3945 2.0625-9.7305 2.6055-0.5 0.046876-1 0.082032-1.5 0.11719 4.5547-1.7695 8.9219-4.0312 13.133-6.4023 0.5-0.28906 1-0.58203 1.5-0.87891 1.4023-0.058594 2.8047-0.19531 4.207-0.40625zm-37.926-7.9648c0.93359 0.20703 1.8711 0.39062 2.7734 0.53125 0.21875 0.18359 0.4375 0.36328 0.65625 0.53125 0.4375 0.35156 0.875 0.67578 1.3125 0.99219-0.125 0.027344-0.28125 0.050781-0.40625 0.078125-1.5312 0.14844-3.0273 0.21484-4.5547 0.14844-0.28125-0.054687-0.53125-0.12109-0.77734-0.1875 0-0.015625 0-0.03125 0.03125-0.046875 0.30859-0.68359 0.65234-1.3672 0.96484-2.0469zm-15.848-9.8828c0.375 0.51172 0.8125 1.0039 1.25 1.4922-0.1875 0.39062-0.40625 0.78125-0.59375 1.168-0.25-0.87891-0.46875-1.7656-0.65625-2.6602zm52.996-6.293c0.78125-1.1914 1.4648-2.4336 2.0586-3.7109 0.34375 0.52734 0.65234 1.0586 0.96484 1.6055 0.09375 0.39062 0.1875 0.77734 0.28125 1.1641-0.49609 0.42188-1.0273 0.83984-1.5586 1.25-1.3125 0.98828-2.6211 1.9688-3.9609 2.9219 0.77734-1.0742 1.5273-2.1719 2.2148-3.2305zm8.2656-25.977c0.875 0.44922 1.6836 0.94141 2.5234 1.4883 0.71875 0.65234 1.4062 1.332 2.0586 2.0586 0.375 0.58594 0.71875 1.1914 1.0312 1.8164 0.40625 1.1484 0.71875 2.2812 0.9375 3.4648l0.09375 1.2188c-0.53125-0.625-1.0938-1.2344-1.625-1.8359-2.1523-2.4141-4.6133-4.418-7.2344-6.3477-0.125-0.078125-0.21875-0.15625-0.34375-0.23828 0.84375-0.55859 1.6836-1.0977 2.5586-1.625zm-34.5-15.883 0.1875 0.70312c-0.58984 0.45312-1.1523 0.92578-1.7148 1.3711-1.7148 1.3555-3.0859 2.9062-4.3359 4.6953-2.0898 2.9688-3.8047 6.1875-4.4609 9.7383-0.55859 2.9258-0.625 5.8828-0.40625 8.8281-0.058594 0.10156-0.15234 0.20703-0.21484 0.30859-1.2812 1.6953-2.5273 3.418-3.7109 5.1641-0.625-1.957-1.1562-3.9531-1.5625-5.9922-0.125-1.6172-0.125-3.2148 0-4.8359 0.21875-1.0664 0.46875-2.0977 0.84375-3.1367 1.4023-2.9727 3.1172-5.8086 5.0547-8.4922 1.7461-2.0469 3.6797-3.8594 5.7383-5.5547 1.4648-1.0469 2.9648-1.9805 4.5547-2.793 0.027344 0 0.027344-0.003906 0.027344-0.003906zm0.9375-0.28906c0.09375 0.074218 0.1875 0.14062 0.25 0.21094-0.09375-0.066406-0.15625-0.13281-0.25-0.20312v-0.007812zm18.184-12.348c0.375 0.027344 0.78125 0.0625 1.1562 0.10156 3.1172 0.53906 6.1133 1.3594 9.043 2.4688 3.1836 1.4844 6.1133 3.2773 8.9531 5.3438 0.09375 0.089844 0.1875 0.17188 0.3125 0.26172-0.25 0.046876-0.46875 0.10156-0.71875 0.15625-2.7148 0.64844-5.3359 1.8203-7.8906 2.9961-0.46875 0-0.96875 0.003906-1.4375 0.019532-2.2148 0.097656-4.3984 0.48828-6.5195 1.082-0.27734-0.19922-0.52734-0.39062-0.80859-0.57422-0.90625-0.62891-1.9023-1.1289-2.9297-1.5117-0.0625-0.34375-0.15625-0.69141-0.25-1.0352-0.5-2.2305-1.4062-4.3359-2.3398-6.4062 0-0.039063-0.03125-0.078125-0.0625-0.12109 1.4336-0.53906 2.6523-1.5234 3.4922-2.7812zm-9.6367-16.168c-3.2773 0.37891-6.4883 1.0117-9.6719 1.9922-3.4297 1.0586-6.7344 2.6914-9.8555 4.418-1.8398 1.0273-3.6172 2.1875-5.3633 3.4414-3.2461 1.6992-6.2695 3.8555-9.1094 6.1836-4.9297 4.0156-8.8281 8.8945-12.102 14.32-3.0898 5.0898-5.3359 10.754-7.2695 16.375-2.1797 6.3164-3.3359 12.887-4.0859 19.508-0.71484 6.5117-0.27734 12.953 0.71875 19.398 0.46875 3 1.2188 5.7891 2.5273 8.5586 1.3398 2.9375 3.1484 5.418 5.207 7.9141 3.6484 4.4492 8.7344 7.957 13.758 10.73 5.9883 3.3125 12.629 5.2656 19.336 6.2773 12.383 1.8672 24.891 0.30859 36.465-4.5 11.945-4.9727 22.301-12.688 30.191-22.965 7.5781-9.8672 12.57-22.117 12.539-34.66-0.03125-3.3281-0.625-6.7188-1.2773-9.9805-0.53125-2.7734-1.4688-5.4648-2.4648-8.0938-1.1562-2.8828-2.4648-5.6719-3.9609-8.3828-1.7812-3.1797-4.0273-6.0508-6.2695-8.8906-7.8008-9.8008-18.777-17.301-30.914-20.5-3.9297-1.0352-8.0156-1.5039-12.133-1.5039-2.0859 0-4.207 0.125-6.2656 0.35937zm20.461 496.59c2.8711-0.88672 5.707-1.9023 8.5156-2.9961 3.1523-1.2109 6.207-2.5781 9.1055-4.293 0.8125-0.46875 1.5938-0.98047 2.3398-1.5117-0.4375 0.69141-0.875 1.3672-1.3398 2.0312-1.7461 2.0703-3.6836 3.918-5.7734 5.6094-3.2422 2.3594-6.707 4.332-10.387 5.9805-3.6172 1.418-7.3594 2.3945-11.195 3-3.1523 0.35547-6.3008 0.42188-9.4531 0.29688 0.59375-0.39063 1.2812-0.85938 1.6523-1.293 0.5-0.53516 0.9375-1.1016 1.3711-1.6758 4.0898-0.80078 8.0195-2.3477 11.824-3.9727 0.40625-0.17969 0.83984-0.35547 1.2461-0.53906 0.69141-0.21094 1.4062-0.42188 2.0938-0.63672zm-56.613-28.801c0.03125 0.83984 0.125 1.6758 0.21875 2.5156v0.74219c-0.0625-0.25781-0.125-0.51953-0.1875-0.78516-0.0625-0.82812-0.0625-1.6484-0.03125-2.4727zm53.867-7.7695-0.03125-0.38281c0.65625 1.0195 1.25 2.0664 1.8086 3.1484-0.52734 0.25781-1.0273 0.54297-1.5273 0.83203-0.03125-1.1953-0.125-2.3945-0.25-3.5977zm-14.879-10.125c0.09375 0.30078 0.1875 0.60937 0.28125 0.91797-0.78125 0.94141-1.5273 1.9062-2.2461 2.875-4.832 6.375-8.3594 13.824-10.945 21.367-0.75 2.1016-1.5312 4.168-1.9648 6.3477-0.5-0.11328-0.96875-0.23438-1.4688-0.37109 0.71875-3.6836 1.9023-7.2812 3.3086-10.758 2.4922-5.7148 5.6133-11.164 9.3555-16.148 1.1875-1.457 2.4023-2.8789 3.6797-4.2305zm-11.039-20.957c0.43359 0.45312 0.87109 0.92578 1.2773 1.4102-0.4375 0.21484-0.84375 0.43359-1.25 0.66797-1.9961 1.1016-3.8047 2.5234-5.582 3.918-0.40625 0.32031-0.8125 0.64844-1.2148 0.98438 0.34375-0.53516 0.71484-1.0586 1.1211-1.5781 1.4375-1.7383 2.9648-3.3242 4.7109-4.7734 0.3125-0.21875 0.625-0.42578 0.9375-0.62891zm21.332-4.125c2.1836 0.37891 4.2734 0.92578 6.3633 1.6953 1.0625 0.51953 2.0898 1.1055 3.0586 1.7617-1.3711-0.082032-2.7773 0.019531-4.1797 0.21875-0.5-0.21875-0.99609-0.42969-1.4961-0.62891-1.6562-0.67578-3.3398-1.1836-5.1484-1.5039-2.0586-0.36328-4.1484-0.35547-6.2695-0.097656-0.33984-0.50781-0.68359-1.0156-1.0586-1.5195 2.8984-0.23047 5.8008-0.23828 8.7305 0.074218zm-22.551-15.895c-1.0898 0.13672-2.1836 0.3125-3.2734 0.55859-2.1523 0.48828-4.2422 1.3438-6.2383 2.2422-0.65625 0.28906-1.2812 0.59766-1.9023 0.91406-0.59375 0.16016-1.1875 0.35938-1.7812 0.61328-4.0234 1.6758-7.3281 4.4336-10.074 7.7344-2.1523 1.9453-4.1484 4.0703-6.0195 6.2695-2.8672 3.3867-5.2383 7.0586-7.4531 10.906-4.5859 7.9883-6.3945 17.074-6.332 26.227 0.03125 9.043 2.4297 18.102 6.3906 26.203 3.8711 7.8711 10.48 14.094 18.156 18.227 7.8594 4.2695 16.688 6.0234 25.484 6.9336 4.2734 0.44141 8.6094 0.59375 12.879 0.24609 4.8672-0.40234 9.6719-1.3945 14.258-2.9883 8.2031-2.8438 16.156-7.7695 21.957-14.258 1.4062-1.5742 2.6211-3.3086 3.7734-5.0781 1.2188-1.918 2.0898-4.0508 2.9336-6.1602 1.7461-4.3281 2.2773-9.2656 2.2148-13.898-0.03125-0.96094-0.0625-1.9219-0.15625-2.8789 1.1211-2.5352 1.9961-5.2031 2.6523-7.8867 1.4648-6.1406 0.33984-12.754-3.8086-17.609-2.3086-2.6914-5.2695-4.5273-8.2969-6.2539-0.55859-1.0703-1.1211-2.1367-1.7461-3.1758-2.3398-3.9336-5.207-7.5469-8.2656-10.93-1.3086-1.4414-2.7422-2.7266-4.2422-3.9531-1.5586-1.2734-3.1797-2.4844-4.8945-3.5156-1.6875-0.98438-3.6211-1.6719-5.4609-2.3164-2.3398-0.81641-4.7734-1.2383-7.2383-1.5391-2.4609-0.31641-4.9258-0.39063-7.3594-0.28906-0.65234-1.3672-1.8086-2.4688-3.3359-2.7578-3.4297-0.65234-6.832-1.3945-10.324-1.7305-0.1875-0.019532-0.375-0.027344-0.5625-0.027344-0.62109 0-1.2773 0.097656-1.9336 0.17188z" fill="#bcac9d"/>
 </g>
</svg>
