<?xml version='1.0' encoding='utf-8'?>
<svg xmlns="http://www.w3.org/2000/svg" width="1587" height="1587" version="1.0" viewBox="0 0 1190.2 1190.2" zoomAndPan="magnify">
 <defs>
  <clipPath id="a" fill="none">
   <path d="m0 0h1189.5v1189.5h-1189.5z" fill="none" />
  </clipPath>
 </defs>
 <g clip-path="url(#a)" fill="none">
  <path d="m0 0h1189.5v1189.5h-1189.5z" fill="none" />
  <path d="m0 0h1189.5v1189.5h-1189.5z" fill="none" />
 </g>
 <path d="m393.68 571.36c-37.305 3.043-66.453 32.852-75.855 77.566-8.2461 39.223 15.094 87.332 48.918 100.83 38.367 15.305 91.887-0.25781 113.82-33.098 22.574-33.789 12.543-96.051-19.945-123.78-16.176-13.805-42.566-23.523-59.984-22.086-0.55469 0.046875-3.6836 0.30469-6.957 0.57031m271.48 3.5117c-28.586 3.4648-56.789 36.32-65.078 75.816-0.55078 2.6133-1.5898 7.2969-2.3008 10.402-7.1328 30.898 7.9766 70.051 33.555 86.961 31.457 20.801 73.352 11.48 97.367-21.66 18.164-25.066 16.668-75.152-3.4922-116.73-11.672-24.082-35.324-37.781-60.051-34.785m-221.52 59.609c11.855 6.1055 17.5 25.848 13.23 46.277-6.4297 30.75-36.961 30.934-42.324 0.25391-5.3711-30.734 10.496-56.109 29.094-46.531m213.09 0.14844c11.754 5.4688 18 20.426 18.133 43.406 0.066406 11.371-0.66016 14.777-4.3984 20.605-11.668 18.176-34.656 6.6133-36.84-18.52-2.5898-29.77 8.7812-52.16 23.105-45.492m-112.58 101.34c-8.2812 1.3516-15.25 4.5742-16.395 7.5742-4.2227 11.113 45.055 14.539 50.094 3.4844 3.1602-6.9297-17.496-13.703-33.699-11.059" fill="#fbdc08" fill-rule="evenodd" />
 <path d="m208.14 280.29c-24.387 6.2617-38.512 28.004-54.027 83.184-11.941 42.457-15.512 73.719-12.23 107.03 1.4727 14.938 1.3281 37.789-0.32422 51.734-0.85156 7.1914-1.8359 15.488-2.1836 18.43-2.5195 21.352 0.63281 38.449 11.785 63.926 7.8242 17.863 7.8867 23.934 0.50781 47.23-10.008 31.598-12.289 55.621-6.7969 71.578 1.1094 3.2305 0.91797 4.2344-0.82422 4.2695-3.4531 0.066407-16.672 8.5-22.52 14.375l-4.5469 4.5586-4.3711-1.2422c-6.6328-1.8828-23.566-1.875-31.223 0.011718-21.348 5.2617-37.969 17.703-46.191 34.578l-3.0703 6.3008-5.7734 2.8789c-16.438 8.2031-25.52 25.848-25.594 49.746-0.070312 22.797 12.438 40.434 28.676 40.434 1.9258 0 2.3203 0.27734 3.582 2.5234 9.3086 16.559 38.043 23.457 61.242 14.703 6.2773-2.3633 16.473-7.8008 17.84-9.5117 0.89844-1.1211 2.4883-1.0547 3.4375 0.14062 15.242 19.227 48.164 23.703 72.465 9.8594 2.4648-1.4023 5.0703-2.875 5.793-3.2695 0.72266-0.39453 3.4414-2.6953 6.0391-5.1133l4.7227-4.4023 3.875 3.082c7.2305 5.7539 13.18 8.1914 21.715 8.9023 22.93 1.9102 38.926-14.562 40.672-41.891l0.36328-5.6484 36.871 0.29688c52.125 0.42188 150.15 0.37109 304.48-0.15625 228.31-0.78125 252.54-0.83984 260-0.59766l7.25 0.23047 0.67969 2.0547c9.8633 29.895 50.711 43.641 74.723 25.141l3.0781-2.3711 4.3555 3.6641c18.086 15.219 48.723 16.426 65.707 2.5977 3.1211-2.5391 2.2578-2.875 8.3438 3.2422 19.613 19.723 50.121 19.918 71.004 0.44922l2.9648-2.7656 1.9102 1.4336c19.352 14.504 51.234 0.87891 60.762-25.973 15.578-43.898-18.746-92.562-72.852-103.29-4.9609-0.98438-8.1797-1.2109-15.875-1.1289l-9.6484 0.10938-4.0273-2.7188c-30.391-20.52-78.531-22.938-110.9-5.5742-3.5039 1.8828-6.7148 3.7422-7.1406 4.1406-0.42188 0.39844-1.8359 1.4609-3.1445 2.3594-1.3047 0.90234-4.2539 3.5-6.5547 5.7812l-4.1836 4.1406-2.8984-0.87109c-12.516-3.7695-31.531 1.082-44.75 11.418-5.3359 4.168-5.5898 4.2969-6.0625 3.0156-2.6094-7.0547-4.3047-11.211-6.6016-16.199-11.426-24.793-11.742-42.086-1.2031-65.113 13.086-28.586 14.086-35.953 9.1602-67.492-6.5039-41.684 2.3711-74.828 37.68-140.62 3.2461-6.0547 7.0547-13.145 8.4609-15.762 1.4062-2.6133 3.6836-6.7617 5.0703-9.2148 25.402-45.035 41.234-77.012 48.469-97.891 14.219-41.059 2.2461-55.824-29.289-36.125-22.949 14.332-57.871 43.203-95.898 79.281-37.398 35.484-56.891 50.336-83.555 63.66-6.7383 3.3711-16.262 7.5352-22.004 9.6328-19.238 7.0195-33.617 10.902-54.574 14.73-5.6211 1.0234-6.7344 1.0469-13.973 0.30469-4.332-0.44531-13.891-1.375-21.25-2.0703-31.32-2.9414-55.527-6.4102-83.258-11.922-3.1055-0.61719-10.602-2.0781-16.652-3.2383-6.0508-1.1602-13.676-2.6406-16.949-3.2852-52.848-10.422-79.402-11.719-127.36-6.2109-42.199 4.8438-48.988 2.0312-76.141-31.547-12.738-15.754-13.812-16.922-33.172-36.273-20.113-20.094-20.34-20.438-25.602-38.352-1.7734-6.0586-1.7305-5.9297-5.9688-15.754-3.082-7.1484-9.4336-19.664-10.734-21.16-0.44922-0.51562-0.82031-1.1289-0.82031-1.3633 0-0.72266-7.918-12.531-8.7422-13.039-0.42578-0.25781-0.77344-0.74219-0.77344-1.0664 0-3.1602-18.113-18.707-26.168-22.461-8.0469-3.75-19.91-5.8477-25.273-4.4727m211.51 292.09c28.137 6.1172 48.832 22.051 61.684 47.496 13.613 26.953 15.426 66.473 4.082 89.078-14.312 28.527-46.598 46.328-84 46.32-35.164-0.007813-53.734-9.9375-70.48-37.695-24.57-40.715-18.258-90.695 15.738-124.59 12.672-12.637 24.168-18.32 44.332-21.926 4.2383-0.75391 23.105 0.11328 28.645 1.3125m260.08 2.7852c20.941 3.0625 35.59 13.828 45.332 33.305 20.137 40.258 22.152 94.027 4.3984 117.43-43.879 57.852-120.83 38.043-132.11-34.004-6.3086-40.309 15.801-91.527 47.758-110.62 10.223-6.1055 21.289-8.0625 34.617-6.1094m-247.61 58.023c-21.793 4.2695-25.238 59.324-4.3203 69.027 7.6953 3.5664 14.984 1.3711 21.594-6.5117 10.852-12.945 11.219-44.391 0.66016-56.078-4.5781-5.0625-11.773-7.6445-17.934-6.4375m214.19 2.0156c-11.52 5.2344-17.137 41.391-9.0078 57.992 8.8789 18.141 28.109 18.465 35.285 0.58594l1.7812-4.4414-0.10938-12.793c-0.24609-29.293-12.988-48.141-27.949-41.344m-80.348 101.73c22.086 5.3633 14.105 17.328-11.426 17.125-28.562-0.22656-37.91-12.848-13.078-17.664 9.4297-1.832 15.266-1.7031 24.504 0.53906" fill="#040404" fill-rule="evenodd" />
 <path d="m393.84 571.14c1.0625 0.12891 2.8008 0.12891 3.8633 0 1.0625-0.13281 0.19141-0.24609-1.9336-0.24609s-2.9922 0.11328-1.9297 0.24609m12.5 0c1.0664 0.12891 2.6719 0.125 3.5664-0.007813 0.89062-0.13672 0.019531-0.24219-1.9453-0.23828-1.9609 0-2.6914 0.11328-1.6211 0.24609m294.51 11.129c0 0.16406 0.80078 0.71484 1.7812 1.2227 0.98047 0.50781 1.7852 0.78516 1.7852 0.625 0-0.16406-0.80469-0.71094-1.7852-1.2188-0.98047-0.51172-1.7812-0.78906-1.7812-0.62891m-354.45 10.887-5.043 5.2031 5.207-5.043c4.8281-4.6797 5.4727-5.3672 5.0391-5.3672-0.089844 0-2.4336 2.3438-5.2031 5.207m366.04-2.2305c1.6133 1.6328 3.0664 2.9727 3.2266 2.9727 0.16406 0-1.0195-1.3398-2.6289-2.9727-1.6094-1.6367-3.0625-2.9766-3.2266-2.9766-0.16406 0 1.0195 1.3398 2.6289 2.9766m-82.086 1.9297-3.5469 3.7188 3.7148-3.5508c2.0469-1.9531 3.7188-3.625 3.7188-3.7148 0-0.44141-0.58984 0.097656-3.8867 3.5469m-167.38 1.8242c0 0.10156 0.86719 0.96875 1.9297 1.9297l1.9336 1.75-1.75-1.9375c-1.625-1.8008-2.1133-2.2031-2.1133-1.7422m9.1797 10.711c0.91406 1.2031 1.7852 2.1836 1.9297 2.1836 0.41406 0-2.1602-3.4805-2.9219-3.9453-0.37109-0.23438 0.074219 0.5625 0.99219 1.7617m178.6 28.172c0.73828 0.14453 1.8086 0.13672 2.375-0.007813 0.57031-0.15234-0.035156-0.26953-1.3438-0.26172-1.3086 0.007813-1.7734 0.12891-1.0312 0.26953m-202.65 3.9297c0 0.10547 0.87109 0.96875 1.9375 1.9297l1.9297 1.75-1.7461-1.9336c-1.6289-1.8047-2.1211-2.207-2.1211-1.7461m215.24 2.4922c3.5117 4.0078 4.0273 4.4844 2.5703 2.375-0.67969-0.98047-2.1172-2.5859-3.1992-3.5703-1.457-1.3164-1.2891-1.0039 0.62891 1.1953m-26.973 8.9609c-0.21875 0.87109-0.28516 1.6992-0.14453 1.8359 0.14062 0.14062 0.43359-0.45703 0.65234-1.3281 0.21875-0.87109 0.28125-1.6992 0.14453-1.8398-0.14062-0.13672-0.4375 0.45703-0.65234 1.332m-221.27 5.6055c-0.22266 1.0273-0.28516 1.9922-0.13672 2.1445 0.15625 0.14844 0.44922-0.57812 0.65625-1.625 0.49609-2.4805 0.015625-2.9609-0.51953-0.51953m76.555 0c0 1.1445 0.125 1.6133 0.27344 1.0391 0.14844-0.57422 0.14844-1.5078 0-2.082-0.14844-0.57031-0.27344-0.10156-0.27344 1.043m0.59766 6.5391c0 1.1445 0.12109 1.6133 0.26953 1.043 0.14844-0.57422 0.14844-1.5117 0-2.082-0.14844-0.57422-0.26953-0.10547-0.26953 1.0391m-34.414 6.2422c0 3.2734 0.10156 4.5352 0.22266 2.8047 0.12109-1.7266 0.11719-4.4023-0.003907-5.9414-0.12109-1.5469-0.22266-0.12891-0.21875 3.1367m175.95-3.8633c0 1.1445 0.12109 1.6133 0.27344 1.043 0.14844-0.57422 0.14844-1.5117 0-2.0859-0.15234-0.57031-0.27344-0.10156-0.27344 1.043m-318.14 1.7852c0 1.4688 0.11719 2.0703 0.25781 1.3359 0.14453-0.73438 0.14453-1.9414 0-2.6758-0.14062-0.73438-0.25781-0.13281-0.25781 1.3398m425.25 4.1641c0 2.7773 0.10156 3.918 0.22656 2.5234 0.125-1.3906 0.125-3.6641 0-5.0547-0.125-1.3867-0.22656-0.25391-0.22656 2.5312m-66.637 0c0 1.7969 0.11719 2.5312 0.25 1.6328 0.13672-0.89844 0.13672-2.3711 0-3.2734-0.13281-0.89844-0.25-0.16406-0.25 1.6406m-77.941-0.59766c0 1.1445 0.12109 1.6133 0.26953 1.043 0.15234-0.57422 0.15234-1.5117 0-2.0859-0.14844-0.57031-0.26953-0.10156-0.26953 1.043m36.895 5.3516c0 1.4688 0.11328 2.0742 0.25781 1.3398 0.14062-0.73437 0.14062-1.9414 0-2.6758-0.14453-0.73438-0.25781-0.13281-0.25781 1.3359m41.684 5.0547c0 3.2695 0.10156 4.5312 0.22266 2.8047 0.12109-1.7305 0.11719-4.4062-0.003907-5.9453-0.12109-1.543-0.22266-0.12891-0.21875 3.1406m66.613 2.9727c0.003907 3.9258 0.10156 5.4531 0.21484 3.3984 0.11719-2.0586 0.11719-5.2695 0-7.1367-0.11719-1.8711-0.21484-0.18359-0.21484 3.7383m-249.26-2.0781c0 1.1406 0.12109 1.6133 0.26953 1.0352 0.14844-0.57031 0.14844-1.5078 0-2.0781-0.14844-0.57031-0.26953-0.10156-0.26953 1.043m104.12 2.375c0 2.125 0.10937 2.9961 0.24219 1.9336s0.13281-2.8008 0-3.8633-0.24219-0.19531-0.24219 1.9297m-140.79 1.5312c-0.21875 0.87109-0.28125 1.6992-0.14062 1.8359 0.13672 0.14453 0.43359-0.45703 0.65234-1.3281 0.21484-0.86719 0.28125-1.6953 0.14062-1.8398-0.13672-0.13672-0.42969 0.46094-0.65234 1.332m36.074 2.0352c0 1.1484 0.125 1.6133 0.27344 1.043 0.14844-0.57031 0.14844-1.5078 0-2.0781-0.14844-0.57422-0.27344-0.10938-0.27344 1.0352m249.18 5.3516c0 1.1484 0.12109 1.6133 0.26953 1.043 0.14844-0.57031 0.14844-1.5078 0-2.0781-0.14844-0.57422-0.26953-0.10938-0.26953 1.0352m-321.33 4.0664c0.32031 0.59766 1.0508 1.4688 1.6211 1.9336 0.64062 0.51953 0.5 0.10547-0.375-1.0938-1.5625-2.1328-2.1484-2.5273-1.2461-0.83984m25.895 4.3086c-0.22266 0.35156-1.2383 1.1562-2.2656 1.7852-1.0273 0.625-1.5391 1.1367-1.1328 1.1367 0.75781 0.003907 4.9336-3.5156 4.2031-3.5469-0.22266-0.011718-0.58594 0.27344-0.80469 0.625m209.21 8.0898c0.57031 0.15234 1.5078 0.15234 2.082 0 0.57422-0.14844 0.10156-0.26953-1.0391-0.26953-1.1445 0-1.6133 0.12109-1.043 0.26953m-327.82 2.5664c0.66797 1.3047 1.3516 2.375 1.5117 2.375 0.16406 0-0.24609-1.0703-0.91406-2.375-0.66797-1.3086-1.3477-2.3789-1.5117-2.3789-0.16406 0 0.24609 1.0703 0.91406 2.3789m402.61 14.863c-0.69531 0.98047-1.1328 1.7852-0.96875 1.7852 0.16016 0 0.86719-0.80469 1.5664-1.7852 0.69922-0.98047 1.1367-1.7812 0.97266-1.7812-0.16406 0-0.87109 0.80078-1.5703 1.7812m-385.66 9.5156c2.2734 2.2891 4.2656 4.1641 4.4297 4.1641 0.16406 0-1.5625-1.875-3.832-4.1641-2.2734-2.2891-4.2695-4.1641-4.4297-4.1641-0.16406 0 1.5586 1.875 3.832 4.1641m376.43 1.3398-4.1484 4.3086 4.3125-4.1445c4.0039-3.8516 4.582-4.4766 4.1445-4.4766-0.089844 0-2.0273 1.9375-4.3086 4.3125m-257.79-0.67188c-2.0703 1.8164-2.0703 1.8203-0.16797 0.55078 1.0547-0.69922 2.0742-1.5273 2.2656-1.8398 0.57422-0.92969 0.10156-0.63672-2.0977 1.2891m156.7 2.8984c2.6016 2.6172 4.8633 4.7578 5.0273 4.7578 0.16016 0-1.832-2.1406-4.4336-4.7578-2.6016-2.6133-4.8633-4.7539-5.0273-4.7539s1.832 2.1406 4.4336 4.7539m-68.242-3.1445c0.73828 0.13672 1.9375 0.13672 2.6758 0 0.73828-0.14453 0.13281-0.26172-1.3359-0.26172-1.4727 0-2.0781 0.11719-1.3398 0.26172m7.4336 0.58594c0.57031 0.14453 1.5078 0.14453 2.082 0 0.57422-0.15234 0.10156-0.27734-1.0391-0.27734-1.1445 0-1.6133 0.125-1.043 0.27734m-29.105 5.2773-1.668 1.5312 1.9336-1.3438c1.0625-0.73828 1.9297-1.4258 1.9297-1.5312 0-0.46875-0.65625-0.0625-2.1953 1.3438m24.039 13.176c1.0508 0.125 2.9258 0.12891 4.1602 0 1.2344-0.125 0.37109-0.23438-1.918-0.23828-2.2891-0.003907-3.2969 0.10547-2.2422 0.23828m-167.99 0.57422c0.57031 0.14844 1.5078 0.14844 2.0781 0 0.57813-0.15234 0.10547-0.27344-1.0352-0.27344-1.1484 0-1.6133 0.12109-1.043 0.27344m30.039 0.007812c0.73828 0.14453 1.8086 0.13672 2.3789-0.007812 0.57031-0.15234-0.039062-0.26953-1.3477-0.26172-1.3047 0.007812-1.7734 0.12891-1.0312 0.26953m-23.5 0.58594c0.57422 0.14844 1.5117 0.14844 2.0859 0 0.57031-0.14844 0.10156-0.27344-1.043-0.27344s-1.6133 0.125-1.043 0.27344m17.25 0c0.57031 0.14844 1.5078 0.14844 2.0781 0 0.57422-0.14844 0.10547-0.27344-1.0391-0.27344-1.1484 0-1.6133 0.125-1.0391 0.27344m253.93 4.1914c2.2109 0.11719 5.8242 0.11719 8.0273 0 2.2109-0.11328 0.40625-0.20703-4.0117-0.20703-4.4141 0-6.2188 0.09375-4.0156 0.20703" fill="#5c4f05" fill-rule="evenodd" />
</svg>