<?xml version='1.0' encoding='utf-8'?>
<svg xmlns="http://www.w3.org/2000/svg" width="1587" height="1587" version="1.0" viewBox="0 0 1190.2 1190.2" zoomAndPan="magnify">
 <defs>
  <clipPath id="a" fill="none">
   <path d="m0 0h1189.5v1189.5h-1189.5z" fill="none" />
  </clipPath>
 </defs>
 <g clip-path="url(#a)" fill="none">
  <path d="m0 0h1189.5v1189.5h-1189.5z" fill="none" />
  <path d="m0 0h1189.5v1189.5h-1189.5z" fill="none" />
 </g>
 <path d="m782.68 317.07c51.73 67.699 61.984 161.15 79.762 173.69 1.5938 1.1367 3.1914 1.5938 5.0117 1.3672 13.219-2.0508 15.953-43.766 34.641-44.676 8.2031-0.45703 14.812 7.293 16.637 9.3438 15.496 18.465-2.0547 43.082-14.129 100.29-9.3438 44.223-4.332 59.492-20.738 78.867-11.395 13.449-25.297 20.285-35.551 24.16-3.875 17.555-10.484 41.258-22.562 67.473 0 0-3.8711 8.4336-10.023 20.059-5.0156 9.5742-11.852 21.199-19.371 32.141-1.3672 1.8203-5.2422 7.5195-11.625 15.727-12.758 44.449-18.457 96.645-1.8203 149.07 20.508 64.734 59.25 80.691 53.551 118.76-10.48 69.75-156.79 126.73-285.08 110.55-147.67-18.465-275.74-134.26-260.47-188.51 7.75-27.578 47.629-23.703 85.914-68.609 24.84-29.176 35.777-63.594 40.105-94.594-13.672-16.184-23.699-31.457-30.762-43.766-3.4219-5.6953-5.6992-10.484-7.5234-13.676-22.332-43.992-29.168-84.109-31.445-109.18-2.9648 0-7.75 0-13.219-2.0508-50.363-18.008-51.047-154.77-35.551-158.87 2.9648-0.91406 7.293 3.1914 8.8867 5.0117 7.0664 8.4336 1.8242 21.883 7.9766 25.074 0.23047 0 1.3672 0.68359 2.7344 0.45703 9.3438-1.1406 11.852-43.082 12.309-50.832 1.1367-18.461 11.395-168.45 86.594-216.09 25.523-16.184 45.121-20.516 45.121-20.516 1.5977-0.45312 3.1914-0.68359 4.5586-0.91016 1.5938-0.22656 2.9609-0.45703 4.5586-0.68359 2.2773-0.22656 4.3281-0.68359 6.3789-0.68359 6.1523-0.68359 12.078-0.91406 17.32-1.1406 9.5703-0.45703 17.773-1.1406 24.84-4.7852 2.9609-1.3672 5.6953-3.4219 8.2031-5.9297 3.875-3.875 7.9766-10.027 15.723-11.395 8.8906-1.5977 16.41 3.418 19.602 5.4688 18.684 11.172 39.195 7.75 56.969 9.3477 35.777 3.418 92.293 30.77 117.59 47.41 3.875 2.5078 7.5195 5.2422 11.164 7.9766 8.6602 6.8398 16.41 14.133 23.473 22.113 3.6484 4.1016 7.0664 8.2031 10.254 12.535" fill="#b3713d" />
 <path d="m641.62 612.94h-54.238v-258.94h54.238zm127.16 76.129v126.28c15.949-18.008 25.75-32.141 28.027-35.332 7.5234-10.941 14.129-22.566 19.371-32.141v-58.809z" fill="#fed1aa" />
 <path d="m523.12 602.68c-21.648 56.754-39.879 118.3-12.305 180.98 5.4688 12.535 29.168 64.277 84.773 86.844 43.523 17.777 86.367 9.1172 113.26-0.45703 13.215-3.6484 22.105-7.9766 26.207-10.258-16.18 20.059-59.25 67.242-123.29 73.168-82.953 7.5234-146.76-59.262-181.4-96.418-0.68359-0.68359-1.3672-1.3672-2.0508-2.0508-0.91016-0.91016-1.8242-1.8242-2.7344-2.9609-18.688-20.516-31.449-39.891-39.195-53.34-3.418-5.6992-5.6992-10.484-7.5195-13.676-22.332-43.992-29.172-84.109-31.449-109.18-2.9609 0-7.75 0-13.219-2.0508-50.359-18.008-51.043-154.77-35.547-158.88 2.9609-0.91016 7.2891 3.1914 8.8867 5.0156 7.0625 8.4336 1.8203 21.883 7.9766 25.074 0.22656 0 1.3672 0.68359 2.7344 0.45312 9.3438-1.1367 11.848-43.078 12.305-50.828 1.1406-18.465 11.395-168.45 86.598-216.09 25.52-16.184 45.121-20.516 45.121-20.516 1.5938-0.45703 3.1875-0.68359 4.5547-0.91016 1.5977-0.23047 2.9648-0.45703 4.5586-0.68359 2.2773-0.23047 4.332-0.6875 6.3828-0.6875 6.1523-0.68359 12.078-0.91016 17.316-1.1367 9.5742-0.45703 17.777-1.1406 24.84-4.7891 1.3672 2.7383-9.3438 13.223-22.332 20.059-23.016 12.309-37.828 4.5586-54.465 9.8008-29.398 9.3477-53.324 55.617-45.578 86.391 13.219 52.426 109.16 27.352 148.81 83.652 29.398 41.715 8.207 93.914-15.039 152.27m-8.2031 21.199c2.7344-7.0664 5.4688-14.133 8.2031-21.199" fill="#ee3a23" />
 <path d="m681.95 655.11c-10.254-15.047-9.8008-34.875-3.418-49.465 10.938-25.527 38.285-32.367 44.438-33.734 43.07-10.711 98.902 19.148 99.355 49.465 0.45703 27.352-42.387 51.969-78.164 54.703-10.254 0.68359-45.348 3.6484-62.211-20.969zm-265.71 48.32c35.551 5.2461 82.723-9.3438 88.422-36.012 6.3789-29.859-41.703-71.117-85.914-70.434-6.3828 0.22656-34.41 0.68359-50.82 23.02-9.3398 12.996-14.129 32.141-7.5195 49.008 10.711 27.809 45.578 32.824 55.832 34.418z" fill="#522400" />
 <path d="m611.99 532.48c-11.395-4.332-14.812-45.359 3.875-72.941 38.055-56.527 162.71-47.637 176.61-13.219 1.1406 2.7344 1.3672 6.1523 1.3672 6.1523 1.8242 18.238-16.406 33.281-17.547 34.191-25.066 20.059-59.707-17.324-102.55-3.6445-38.742 12.535-49.453 54.02-61.758 49.461zm-196.44-54.934c2.2812 16.414 51.273 26.668 92.523 52.656 5.6953 3.6445 10.023 6.8359 13.215 12.309 7.9766 14.586-2.0508 28.035 6.6094 39.203 3.6445 4.5586 10.484 9.1172 15.723 7.5234 3.418-1.1406 9.1172-6.1562 8.4336-58.125-0.45703-36.016-0.91016-54.25-8.2031-64.961-16.18-23.48-46.035-26.672-52.871-27.355-38.512-2.9609-77.707 23.023-75.43 38.75zm91.84 171.18c-7.293 6.6094-11.168 15.727-9.1172 24.16 3.875 15.5 26.891 21.199 32.586 15.73 4.5586-4.332 0.45703-14.816 3.6484-15.957 3.6445-1.3672 8.2031 13.676 21.875 18.461 4.332 1.5977 8.207 1.1406 16.18 0.68359 11.625-0.68359 20.738-1.3672 28.488-6.8359 10.48-7.5234 11.621-18.918 16.863-18.234 3.8711 0.45312 3.418 7.293 9.1133 10.027 6.8359 3.418 18.688-0.91016 24.383-10.027 5.0156-8.207 4.1055-18.922-2.5039-26.672-7.5195-15.043-15.27-30.086-22.789-44.902l-105.51-3.1914z" fill="#dfa16e" />
 <path d="m528.13 203.56c-31.902 38.523-70.871 14.133-113.26 43.539-99.812 69.52-87.277 274.44-95.938 273.3-3.1914-0.45312-1.8242-27.578-14.586-31.91-4.1016-1.3672-6.8359 0.45703-8.6602 0-18.004-5.0156-30.992-266.69 121.92-386.81 73.152-57.441 175.7-75.676 185.95-58.125 4.1016 7.293-9.1133 16.867-29.168 52.426-32.816 58.582-23.699 80.465-46.262 107.59zm101.87 11.625c68.137 7.2969 142.2 48.781 177.29 104.62 21.191 33.734 36.688 89.809 40.793 104.62 5.0117 18.465 14.355 56.074 20.281 55.16 4.1016-0.45312 1.1367-18.461 14.582-31.91 7.293-7.5234 14.812-10.258 17.547-11.625 25.297-13.676 25.297-160.7-69.73-276.26-72.922-88.668-185.95-139.73-212.16-116.25-2.5078 2.2812-1.8242 2.9648-11.625 20.285-18.684 32.598-26.434 39.664-35.094 55.391-3.418 6.3828-31.219 56.758-14.582 81.375 11.395 17.094 36.688 10.711 72.695 14.586zm-84.547 352.85c-25.75-3.418-43.754-10.027-52.414-12.535-24.84-7.75-44.891-7.75-85.227-7.5234-28.258 0-139.24 0.45703-145.39 28.949-6.8359 31.684 117.36 93.453 195.75 82.969 27.121-3.6484 59.48-7.9766 74.293-30.543 4.1016-6.3828 8.4297-16.641 20.055-22.34 15.266-7.75 31.445-1.8203 32.586-1.3672 12.078 4.5586 18.457 13.906 20.738 16.641 21.422 27.125 112.57 28.492 188-11.852 43.754-23.48 90.926-65.875 82.949-84.34-2.9609-7.0664-13.445-9.1172-32.816-10.484-11.621-0.91016-156.1-10.484-223.32 36.242-4.7852 3.418-18.914 13.676-39.426 17.094-5.9258 0.6875-15.723 1.8242-35.777-0.91016z" fill="#1a4895" />
 <path d="m486.43 627.98c-61.301 41.258-183.9-18.918-180.48-43.309 2.9648-20.742 97.535-19.832 139.92-16.414 26.434 2.0547 61.301 5.2461 65.859 21.656 3.6445 13.219-13.445 30.086-25.297 38.066zm150.41-14.59c41.02 39.434 201.22-42.852 195.07-69.52-4.1055-17.098-77.254-12.082-114.86-5.6992-28.715 4.7852-82.949 14.133-89.785 43.309-2.5078 10.711 1.3672 23.934 9.5703 31.91z" fill="#faca2a" />
 <path d="m416.92 470.48c-23.473 2.7344-41.473 16.867-55.832 6.8398-4.3281-2.9648-9.7969-9.3477-8.4297-14.816 4.1016-15.5 66.312-22.793 112.12 3.418 24.156 13.676 39.426 34.191 37.375 37.156-2.9648 4.3281-39.426-37.84-85.23-32.598zm207.83 20.289c2.2773 3.1914 41.246-44.906 92.977-39.891 34.637 3.418 60.617 29.176 72.695 18.461 4.5586-4.1016 5.2422-11.852 3.6445-17.32-6.3789-19.605-50.359-25.531-82.035-20.059-55.148 9.3438-89.559 55.617-87.281 58.809z" fill="#cfe7cd" />
 <path d="m498.73 462.04c-8.2031 3.875-16.18 3.1914-24.383 0 2.0508-16.641 3.8711-33.508 6.1523-50.145 19.598 6.6094 33.496 16.637 34.863 26.668 0.91406 8.8906-7.2891 18.918-16.633 23.477zm-24.84-52.199c-4.1016-1.1367-8.4336-2.2773-12.762-2.9609-1.5938 15.27-3.875 30.316-6.3828 45.359 4.5586 2.5078 8.8906 5.0156 13.219 7.0664 2.0508-16.41 3.6445-33.051 5.9258-49.465zm70.188 277.86c5.4688-2.5078 5.9258-19.375-1.1406-22.566-5.2383-2.2773-14.129 2.0508-15.496 8.207-1.5938 8.207 11.395 16.867 16.637 14.359zm-56.059 82.059c17.32-3.6484 34.637-5.2422 52.414-4.5586 7.2891 0.22656 16.406 0.22656 23.699 2.5078 8.8867 2.7344 14.129 8.8906 24.84 7.5195 7.9766-1.1367 11.621-6.1523 18-9.5703 5.4727-2.7383 14.812-2.7383 20.969-3.4219 19.141-2.2773 38.512-2.0508 57.652 0.23047-7.7461-10.484-28.484-33.281-61.07-35.559-19.145-1.3672-34.184 5.0156-41.703 8.8867-4.1016-2.0508-26.891-13.219-53.555-4.3281-25.066 8.4336-36.688 28.719-41.246 38.293zm127.39-87.984c5.9258-0.22656 12.988-15.5 7.5195-21.426-3.875-4.1055-13.898-3.418-17.32 1.5938-4.7852 7.0664 4.1055 20.059 9.8008 19.832zm8.2031 89.809c-7.7461 1.1406-11.164 1.5938-17.09 5.6992-4.7852 3.418-10.254 5.6953-16.18 6.6094-6.8359 1.1406-13.676 0-19.828-2.9648-8.2031-3.875-12.531-5.6992-22.559-6.6094-19.828-1.5938-39.652 0-59.25 4.1016 8.4297 12.996 38.285 53.34 90.926 56.074 44.211 2.2812 86.367-22.566 107.33-63.367-21.191-2.2773-42.387-2.5078-63.352 0.45703zm-175.24-322.99c2.2773-14.359 4.5586-28.492 5.9258-42.852-29.172-4.332-63.352-1.1406-88.422 15.957-19.824 13.676-32.812 34.875-29.852 38.52 3.6445 4.332 25.066-22.793 59.023-25.984 21.191-2.0508 38.285 6.1562 53.324 14.359zm461.01 16.184c-4.332-2.0508-11.395 4.332-15.043 8.6641-12.078 14.359-0.91016 29.859-6.3789 57.441-4.7852 23.477-17.547 37.152-15.496 38.52 2.0508 1.3672 15.039-10.484 24.383-25.758 19.824-31.91 22.332-74.309 12.535-78.867zm-278.48-61.543c-11.621 6.3828-19.371 14.133-20.965 22.793-1.3672 7.5234 1.3672 17.324 8.2031 22.566 8.8867 7.0664 20.738 2.7383 36.234-5.0117-8.2031-13.223-15.27-27.125-23.473-40.348zm164.53 2.5078c-39.648-22.793-99.129-23.707-140.15-12.082 7.9766 12.539 15.27 25.531 22.789 38.297 18.688-8.6641 41.477-17.098 68.82-17.324 35.094-0.22656 64.719 12.766 66.77 7.293 1.5977-4.5586-15.949-14.816-18.23-16.184zm-146.76-10.027c-4.1016 1.3672-7.9727 2.7344-11.391 4.3281 7.9727 13.449 15.039 27.355 23.242 40.574 3.6445-1.8242 7.5195-3.875 11.621-5.9258-7.7461-12.992-15.266-26.215-23.473-38.977zm14.586 513.32c-36.234 17.324-60.16 18.922-77.254 17.324-17.547-1.5938-33.727-6.8359-57.652-19.602-70.418-37.383-108.02-85.25-110.98-82.742-2.7344 2.2773 23.926 45.133 71.328 88.211 46.031 41.941 81.809 74.539 124.65 74.539 92.977 0 158.15-153.63 152.91-157.73-3.418-2.5078-33.953 47.184-103 80.004zm-205.32-398.66c28.031 8.4336 48.086 23.023 49.906 19.832 2.5078-4.332-29.852-42.855-79.074-48.324-44.211-4.7891-77.711 19.832-86.598 26.895 9.3438 3.6484 18.461 7.2969 27.801 10.941 5.4727-3.6445 13.219-7.75 22.789-10.941 1.1406-0.45312 2.5078-0.68359 3.6484-1.1367 0.22656 17.777 14.129 31.91 29.625 32.367 15.723 0.68359 30.309-12.539 31.902-29.633zm198.03-30.316c-20.965 14.359-32.586 38.977-28.941 42.625 2.2812 2.2773 10.027-3.875 21.422-11.625 5.9258 14.359 22.332 20.742 35.094 15.5 13.219-5.4727 20.055-22.566 13.219-36.926 5.4688-0.68359 10.938-0.91406 16.637-0.23047 20.051 2.5078 34.863 15.047 43.523 23.934 11.852-5.9258 23.699-12.078 35.551-18.004-4.7852-2.9648-84.547-50.832-136.5-15.273z" fill="#522400" />
 </svg>