<?xml version="1.0" encoding="UTF-8"?>
<svg width="1587" height="1587" version="1.0" viewBox="0 0 1190.2 1190.2" xmlns="http://www.w3.org/2000/svg" zoomAndPan="magnify">
 <defs>
  <clipPath id="a">
   <path d="m0 0h1189.5v1189.5h-1189.5z"/>
  </clipPath>
 </defs>
 <g clip-path="url(#a)" fill="#fff">
  <path d="m0 0h1189.5v1189.5h-1189.5z"/>
  <path d="m0 0h1189.5v1189.5h-1189.5z"/>
 </g>
 <path d="m361.15 495.82c-2.2383-10.715-19.531-5.2812-21.684 2.8008-13.637 51.203-21.082 110.35-56.031 152.07-10.656-26.762-12-57.09-11.285-85.473 0.86328-34.355 6.1055-68.598 12.797-102.25 1.5469-7.7656-13.789-6.2383-15.297 0.54687-7.7891 34.906-13.688 70.277-15.422 106.05-0.35547 7.25-0.51172 14.586-0.42188 21.941-2.1562-0.97266-4.7891-1.2891-7.6445-0.53125-25.996 6.9219-51.59 15.469-76.781 25.199-1.0859-9.6602-1.9883-19.348-2.7422-29.035-0.60547-7.8008-1.0195-15.621-1.3516-23.438 8.4062-2.8398 16.879-5.5078 25.387-8.1094 14.695-4.4922 32.438-6.793 45.027-16.062 4.1484-3.0586 2.6641-7.3438-1.9609-8.4961-15.121-3.75-32.695 2.375-47.285 6.2617-7.2891 1.9414-14.52 4.168-21.703 6.5742-0.125-10.402-0.066406-20.809 0.29297-31.207 0.70312-20.184 4.0078-39.855 5.9648-59.875 0.77734-7.9297-13.332-6.7734-15.566-0.97266-7.3984 19.184-8.7656 41.148-10.23 61.457-0.91016 12.684-1.3477 25.391-1.4258 38.109-3.6289 1.3711-7.25 2.7617-10.848 4.1719-8.2773 3.2383-16.461 6.6992-24.566 10.344-0.79688-36.363-1.0117-72.738-3.5273-109.04-0.56641-8.1797-17.418-4.3789-17.062 3.9453 1.6406 38.168 0.73438 76.379 0.61328 114.57-18.98 9.4375-37.473 19.875-55.406 31.172-4.5859 2.8945-6.0039 9.5508-1.5 13.16 5.0664 4.0469 12.141 2.5234 17.156-0.60938 12.957-8.0898 26.25-15.57 39.805-22.547 0.023437 3.1758 0.03125 6.3555 0.078125 9.5273 0.21484 14.938 0.79297 29.863 1.8477 44.762-25.438 12.379-50.438 25.594-74.973 39.211-13.266 7.3594-1.9648 20.957 9.7422 14.691 22.07-11.816 44.422-22.879 67.016-33.344 0.078126 0.73438 0.13281 1.4727 0.20703 2.2031 2.0547 18.602 3.2109 44.027 14.676 59.551 3.9648 5.3711 17.641 3.5898 17.895-4.1289 0.31641-9.207-2.4062-17.812-4.4531-26.711-2.5742-11.164-4.3281-22.504-5.8398-33.859-0.30078-2.2812-0.57422-4.5703-0.84766-6.8594 11.68-5.1758 23.418-10.219 35.219-15.113 0.76562 6.4492 1.625 12.891 2.5781 19.312 3.0898 20.75 5.8828 44.023 17.215 62.07 5.0391 8.0234 21.445 2.6328 20.336-6.8594-2.3945-20.48-9.4844-40.488-13.285-60.816-1.4336-7.6602-2.6797-15.355-3.793-23.074 26.719-10.645 53.711-20.695 80.945-30.312 0.50781-0.17578 0.92578-0.39453 1.3672-0.60156 1.4883 22.426 6.0117 44.609 16.137 64.699 2.5625 5.082 12.18 4.0391 15.703 0.93359 32.004-28.234 46.883-67.012 57.93-107.2 0.15234 89.66-21.773 179.26-8.9062 268.95 1.5352 10.703 22.125 5.5508 21.375-4.9375-7.875-110.55 27.438-223.17 4.5312-332.82zm-249.43 144.86c-1.1836-14.535-1.9023-29.121-2.457-43.672-0.12891-3.5078-0.23047-7.0117-0.33984-10.52 10.027-4.6836 20.176-9.1211 30.457-13.273 1.5117-0.61328 3.0508-1.1719 4.5703-1.7617 0.13281 6.1797 0.32812 12.352 0.58203 18.52 0.48828 11.773 1.2734 23.523 2.3086 35.258-11.793 4.9297-23.504 10.082-35.121 15.449z" fill="#ea82b5"/>
 <path d="m457.59 673.43c-12.082 10.32-21.508 14.902-31.793 2.9805-12.914-14.977-17.176-35.836-19.297-54.945-0.17578-1.5898-0.31641-3.2188-0.44531-4.8711 43.891-9.6211 77.785-69.414 60.484-110.41-1.3945-3.3086-4.5703-5.1992-8.2617-4.832-54.902 5.5586-74.969 61.344-75.648 110.31-2.4766 1.4297-3.7812 4.1523 0 5.0859 0.050781 4.1094 0.22656 8.1602 0.54688 12.105 1.8008 22.43 8.6641 49.242 26.77 64.18 20.555 16.953 46.277 5.8516 62.715-10.828 8.4375-8.5547-8.5977-14.316-15.07-8.7773zm-6.6445-156.48c12.555 32.305-12.148 79.336-45.312 91.203-0.83203-35.645 10.027-79.566 45.312-91.203z" fill="#ea82b5"/>
 <path d="m579.2 537.87c-2.0078-10.543-19.629-6.7891-23.059 0.67578-9.3828 20.398-16.238 41.824-25.145 62.418-6.668 15.426-15.047 31.984-28.461 42.402-5.3438-42.121 11.035-103.81 55.035-113.82 5.7812-1.3164 6.5742-8.6484-0.26562-8.2227-59.781 3.6992-83.641 89.34-73.324 138.24 1.3828 6.5625 10.141 5.832 14.734 4.2109 29.539-10.418 45.172-37.371 57.355-66.156-0.17578 7.125-0.22266 14.242 0.14062 21.32 1.25 24.414 5.8945 52.465 30.266 63.922 9.0156 4.2344 26.773-5.8711 16.738-15.516-33.66-32.34-16.203-88.473-24.016-129.48z" fill="#ea82b5"/>
 <path d="m757.63 522c-27.738 8.3945-32.746 43.855-34.742 70.363-4.2422-20.008-8.1797-40.078-11.539-60.289-2.4648-14.809-4.7383-29.836-6.5703-44.969 3.4453-3.2852 2.0938-6.7109-1.0039-8.6992-3.9531-36.207-5.0586-72.891 0.4375-108.57 1.2578-8.1367-14.281-6.4023-15.676 0.55469-7.4375 36.898-7.2773 74.844-4.0898 112.43-29.789 18.473-45.781 46.945-53.539 81.809-1.543 6.9492-2.7344 13.996-3.6562 21.102-4.6484-22.441-6.832-44.988-2.2891-67.488 2.043-10.082-17.41-8.1328-19.477 0.60156-13.113 55.457 14.852 107.62 19.746 162.05 0.99609 11.113 23.406 7.0078 24.055-3.0781 3.7539-58.195-4.918-129.61 37.145-174.8 1.1094 10.023 2.375 20 3.7148 29.906 7.3945 54.66 18.699 108.84 30.68 162.66 2.3867 10.727 20.445 7.3125 23.727-1.4961 31.91-25.379 58.727-62.039 69.82-101.17 5.4414-19.191 3.2305-40.855-11.285-55.504-11.344-11.445-29.113-20.352-45.457-15.41zm30.867 74.082c-7.8359 24.887-23.887 48.555-41.773 69.328-0.011718-15.387-1.1562-30.988-0.75391-45.961 0.42188-15.684 1.4453-31.398 4.0156-46.891 1.7812-10.727 4.2656-23.133 11.723-31.492 1.543-1.7305 2.0586-1.3984 2.5586-1.3438 6.8281 0.75391 13.043 5.707 17.914 10.137 12.754 11.605 10.984 31.387 6.3164 46.223z" fill="#ea82b5"/>
 <path d="m877.66 528.96c0.58203-0.011719 1.168-0.042969 1.7695-0.011719 6.4688 0.28906 11.938-9.4062 3.3867-10.387-40.016-4.582-56.59 41.215-58.715 73.559-1.8164 27.547 11.844 73.332 47.18 70.594 28.82-2.2305 41.695-35.254 43.918-59.977 2.7539-30.816-10.344-60.566-37.539-73.777zm-3.9219 116.39c-1.3789 0.71484-1.832 1.2109-3.9961 0.55859-4.5781-1.3789-8.3477-4.8359-11.449-8.3438-9.4766-10.711-13.387-23.359-14.695-37.363-1.4922-16.012 1.8945-46.809 15.449-62.137 20.59 11.934 33.055 33.32 33.695 57.195 0.42188 15.617-3.9648 42.281-19.004 50.09z" fill="#ea82b5"/>
 <path d="m983.15 533.23c-4.4492-2.3984-14.723 1.1719-15.219 6.6055-15.977 2.6758-27.508 19.391-34.406 32.543-8.418 16.066-13.258 35.273-11.137 53.402 1.8945 16.215 12.531 36.797 27.438 44.609 29.062 15.234 55.418-14.605 64.266-39.402 12.688-35.535 3.7461-79.039-30.941-97.758zm8.625 82.629c-1.4883 10.574-5.3125 21.266-11.625 29.934-2.5156 3.4531-5.3867 6.1992-8.9258 8.5547-1.4727 0.97266-2.1211 1-4.3008 0.61328-8.4727-1.4883-14.402-14.73-17.27-21.465-5.6367-13.246-5.6641-25.875-2.7344-39.801 2.7383-13.035 8.6914-26.25 17.238-36.5 3.4297-4.1133 6.8633-5.7734 10.207-5.8203 12.695 19.723 20.871 39.941 17.41 64.484z" fill="#ea82b5"/>
 <path d="m1176.3 688.45c-17.086-18.188-35.816-34.367-54.613-50.742-16.68-14.543-32.098-30.055-47.633-45.688 11.844-13.508 26.684-25.191 38.52-38.633 12.266-13.938 23.043-29.098 31.938-45.398 4.3203-7.9102-12.527-11.488-16.031-6.1719-9.7734 14.824-21.367 28.262-33.762 40.945-12.066 12.348-24.797 30.867-39.879 40.266-0.007812-15.031 0.14062-30.066 0.09375-45.074-0.10156-31.457-0.91797-62.93-5.9102-94.039-3.9062-24.328-10.316-59.023-29.469-76.438-3.0273-2.75-11.246-0.15625-10.367 4.5273 2.3086 12.246 8.9141 24.262 12.406 36.328 4.125 14.23 6.3672 28.973 7.9492 43.676 3.3555 31.215 2.6328 62.891 1.832 94.215-0.81641 31.793-2.125 63.582-1.1758 95.391 0.42578 14.371 1.4219 28.695 3.2695 42.957 1.6484 12.68 2.3477 32.141 12.676 40.875 4.918 4.1562 16.332 2.1875 18.621-4.3008 4.1758-11.852-2.1914-27.039-4.0898-39.199-2.4453-15.66-3.7305-31.543-4.6328-47.363-0.4375-7.668-0.71094-15.344-0.89844-23.027 28.992 34.543 66.293 63.844 100.5 92.305 9.8477 8.1953 31.664-3.6992 20.652-15.41z" fill="#ea82b5"/>
</svg>
