<?xml version="1.0" encoding="UTF-8"?>
<svg width="1587" height="1587" version="1.0" viewBox="0 0 1190.2 1190.2" xmlns="http://www.w3.org/2000/svg" zoomAndPan="magnify">
 <defs>
  <clipPath id="c">
   <path d="m0 0h1189.5v1189.5h-1189.5z"/>
  </clipPath>
  <clipPath id="d">
   <path d="m51 159.14h438v278.86h-438z"/>
  </clipPath>
  <clipPath id="a">
   <path d="m0 453h718v577.84h-718z"/>
  </clipPath>
  <clipPath id="b">
   <path d="m511 201h678.5v727h-678.5z"/>
  </clipPath>
 </defs>
 <g clip-path="url(#c)" fill="#fff">
  <path d="m0 0h1189.5v1189.5h-1189.5z"/>
  <path d="m0 0h1189.5v1189.5h-1189.5z"/>
 </g>
 <path d="m210.14 225.49c-4.0039 2.4492-7.0078 3.6758-9.0117 3.6758-2 0-5.0039-0.89062-9.0078-2.6719-4.0039-1.7812-7.1211-2.6719-9.3438-2.6719-2.2266 0-4.3398 0.66797-6.3398 2.0039-2.0039 1.3359-3.4492 3.0039-4.3398 5.0078-0.88672 2.0039-1.2227 3.3359-1 4.0039 0.22266 0.66797 0.77734 1.1133 1.668 1.3359 0.89062 0.22266 2.1133-0.77734 3.6719-3.0039 1.5547-2.2266 3.4492-3.4492 5.6719-3.6719 2.2266-0.22266 5.2266 0.55469 9.0117 2.3359 3.7812 1.7812 7.2266 2.6719 10.344 2.6719 3.1133 0 6.1172-1 9.0078-3.0039 2.8945-2.0039 5.2305-3.2266 7.0078-3.6719 1.7812-0.44531 4.0039 0.89062 6.6758 4.0039 2.668 3.1172 4.5586 5.0078 5.6719 5.6758s2.3359 1.0039 3.6719 1.0039c1.332 0 3.4492-1.1133 6.3398-3.3398 2.8906-2.2266 4.1172-4.0078 3.6719-5.3438-0.44531-1.332-1.1133-2-2.0039-2s-2.1133 0.77734-3.6719 2.3359c-1.5547 1.5586-2.8906 2.3359-4.0039 2.3359s-2.8906-1.5586-5.3398-4.6719c-2.4453-3.1172-5.1172-4.8984-8.0078-5.3438-2.8906-0.44531-6.3398 0.55859-10.344 3.0039zm129.81 0.33594c-2.0039 0.89062-3.5586 2.0039-4.6719 3.3398-1.1133 1.332-2.0039 2.7812-2.668 4.3398-0.66797 1.5547-0.66797 2.8906 0 4.0039 0.66406 1.1133 1.332 1.668 2 1.668s1.4453-1 2.3359-3.0039c0.89062-2.0039 2.2266-3.5586 4.0039-4.6719 1.7812-1.1133 3.4492-1.5586 5.0078-1.3359 1.5547 0.22266 3.8906 1.1133 7.0078 2.6719 3.1133 1.5547 5.8945 2.3359 8.3398 2.3359 2.4492 0 5.1172-0.78125 8.0078-2.3359 2.8945-1.5586 4.8945-2.3398 6.0078-2.3398 1.1133 0 2.8906 2.1172 5.3398 6.3438 2.4453 4.2305 5.4492 7.125 9.0078 8.6797 3.5625 1.5586 5.8984 2.1172 7.0078 1.6719 1.1133-0.44531 1.5586-1.3359 1.3359-2.6719-0.22266-1.3359-2.1133-2.7812-5.6719-4.3398-3.5586-1.5586-5.8945-3.7852-7.0078-6.6758-1.1133-2.8945-2.4492-5.0078-4.0039-6.3438-1.5586-1.3359-3.5586-2.0039-6.0078-2.0039-2.4453 0-5.0039 0.77734-7.6758 2.3359-2.668 1.5586-4.7812 2.3359-6.3398 2.3359-1.5547 0-3.668-0.66406-6.3398-2-2.668-1.3359-5.3398-2.2266-8.0078-2.6719-2.6719-0.44531-5.0078-0.22266-7.0078 0.66797zm-290.65 18.027c-3.5586 1.3359-6.7852 3.3398-9.6758 6.0078-2.8906 2.6719-4.7852 5.2305-5.6719 7.6797-0.89062 2.4492-0.89062 6.6758 0 12.688 0.88672 6.0078-0.33594 11.352-3.6719 16.023-3.3359 4.6758-5.4492 8.793-6.3398 12.352-0.89062 3.5625-1 6.3438-0.33594 8.3477 0.66797 2.0039 2.5586 4.4492 5.6758 7.3438 3.1133 2.8945 4.8945 5.0078 5.3359 6.3438 0.44531 1.3359-0.10938 4.5625-1.668 9.6797-1.5547 5.1211-2.3359 9.2383-2.3359 12.355 0 3.1133 0.22266 5.1172 0.66797 6.0078 0.44531 0.89062 1.3359 2.0039 2.6719 3.3398 1.332 1.332 3.668 2.5586 7.0078 3.6719 3.3359 1.1133 6.8945 4.1172 10.676 9.0117 3.7812 4.8984 7.2305 7.6797 10.344 8.3477 3.1172 0.66797 6.0078 0.55469 8.6797-0.33594 2.668-0.88672 4.2266-1.5547 4.6719-2 0.44141-0.44531 0.55469-1.3359 0.33203-2.6719-0.11328-0.66797-0.22266-1.3359-0.33203-2.0039-2.2266 0.33594-4.4531 0.66797-6.6758 1.0039-4.4492 0.66406-7.2305 0.66406-8.3438 0-1.1094-0.66797-3.1133-3.1172-6.0039-7.3477-2.8945-4.2266-5.8984-6.8984-9.0117-8.0117-3.1133-1.1133-5.3398-2.2266-6.6719-3.3359-1.3359-1.1133-2.1172-2.7852-2.3359-5.0078-0.22266-2.2266 0.44531-5.4531 2-9.6836 1.5586-4.2266 2.3359-7.457 2.3359-9.6797 0-2.2266-0.44531-4.3398-1.3359-6.3438-0.88672-2.0039-2.8906-4.5625-6.0039-7.6797-3.1172-3.1172-4.5625-5.8984-4.3398-8.3477 0.22266-2.4453 2.2266-6.4531 6.0078-12.016 3.7812-5.5664 5.6719-9.793 5.6719-12.688s-0.44531-5.6758-1.3359-8.3477c-0.88672-2.668-1.1094-5.1172-0.66406-7.3438 0.44531-2.2266 2.2227-4.7852 5.3359-7.6797 3.1172-2.8906 6.5625-4.8945 10.348-6.0078 3.7812-1.1133 5.5586-2.3359 5.3359-3.6719-0.21875-1.3359-1.1094-2.0039-2.668-2.0039s-4.1172 0.66797-7.6758 2.0039zm442.48 103.16c-0.44531 1.1133 0.66797 3.5586 3.3359 7.3438 2.6719 3.7852 4.0039 7.2344 4.0039 10.348 0 3.1172-2.1133 7.9023-6.3398 14.355-4.2266 6.457-6.6719 10.906-7.3398 13.355s-1 5.5625-1 9.3477-0.33594 6.4531-1.0039 8.0117c-0.66406 1.5586-3.668 4.2305-9.0078 8.0117-5.3398 3.7852-8.3438 6.8984-9.0117 9.3477-0.66406 2.4492-1.4453 4.2305-2.3359 5.3438-0.88672 1.1133-4.2266 2.1133-10.008 3.0039-5.7852 0.89062-10.793 3.3398-15.02 7.3438-4.2266 4.0078-7.1172 6.0078-8.6758 6.0078-1.5547 0-4.0039-0.77734-7.3398-2.3359-3.3359-1.5586-6.1172-2.3359-8.3438-2.3359-2.2227 0-4.8945 0.77734-8.0078 2.3359-3.1133 1.5586-5.6719 2.3359-7.6758 2.3359-2 0-4.0039-0.77734-6.0078-2.3359-2-1.5586-3.668-3.5586-5.0039-6.0078-1.3359-2.4492-2.4453-3.6719-3.3359-3.6719s-1.5586 0.44531-2.0039 1.3359c-0.44531 0.88672 0 2.668 1.3359 5.3398 1.3359 2.6719 2.7812 4.7852 4.3398 6.3438 1.5547 1.5586 3.1133 2.6719 4.668 3.3398 1.5586 0.66406 3.5625 1 6.0078 1 2.4492 0 5.0078-0.66797 7.6758-2.0039 2.668-1.3359 4.8945-2.1133 6.6758-2.3359 1.7773-0.22266 4.0039 0.33203 6.6719 1.668 2.668 1.3359 5.2266 2.2266 7.6758 2.6719 2.4453 0.44531 5.0039 0.10937 7.6758-1 2.668-1.1133 5.3398-3.2305 8.0078-6.3438 2.668-3.1172 6.3398-4.8984 11.012-5.3438 4.6719-0.44531 7.7852-1 9.3438-1.668s2.8906-1.5586 4.0039-2.6719c1.1133-1.1133 2.1133-3.1172 3.0039-6.0078 0.89062-2.8945 3.3359-5.5664 7.3398-8.0117 4.0039-2.4492 6.7852-4.5625 8.3438-6.3438s2.668-3.4492 3.3359-5.0078c0.66797-1.5586 1.2227-5.2305 1.668-11.016 0.44531-5.7891 2.3359-11.02 5.6758-15.691 3.3359-4.6758 5.5586-8.2344 6.6719-10.684 1.1133-2.4492 1.7812-5.2305 2.0039-8.3477 0.22266-3.1172 0-5.7852-0.66797-8.0117s-2.2266-4.8945-4.6719-8.0117c-2.4492-3.1172-4.2266-4.6758-5.3398-4.6758s-1.8906 0.55859-2.3359 1.6719z" fill="#fdd9b9"/>
 <g clip-path="url(#d)">
  <path d="m143.05 160.06c1.5586-0.66797 3.668-0.66797 6.3398 0 2.668 0.66797 4.6719 2.1133 6.0039 4.3398 1.3359 2.2266 0.66797 20.145-2 53.75-2.6719 33.605-4.5586 64.656-5.6719 93.145-1.1094 28.488-2.0039 43.512-2.6719 45.07-0.66797 1.5547-2.1094 3.1133-4.3359 4.6719-2.2227 1.5586-4.2266 2.3359-6.0078 2.3359-1.7773 0-3.3359-0.33203-4.6719-1-1.3359-0.66797-2.5547-1.7812-3.6719-3.3398-1.1055-1.5586-1.7734-3.0039-2-4.3398-0.22266-1.3359-0.55469-2.0039-1.0039-2.0039-0.4375 0-1.5547 1.0039-3.3359 3.0078-1.7734 2-4.4453 4.0039-8.0078 6.0078-3.5586 2.0039-6.5625 3.3398-9.0117 4.0078-2.4414 0.66406-5.8906 0.88672-10.344 0.66406-4.4453-0.21875-8.4492-1.1094-12.012-2.668-3.5586-1.5586-7.1133-4.0078-10.68-7.3438-3.5547-3.3398-6.6719-7.457-9.3438-12.355-2.668-4.8945-4.5586-9.125-5.6719-12.684-1.1094-3.5625-2.0039-7.6797-2.668-12.355-0.66797-4.6719-0.89062-9.9023-0.66797-15.688 0.22656-5.7891 0.78125-10.684 1.668-14.691 0.89453-4.0039 2.5625-8.793 5.0039-14.355 2.4492-5.5625 4.4531-9.457 6.0078-11.684 1.5625-2.2266 4.2305-5.0078 8.0078-8.3477 3.7852-3.3359 7.457-5.7852 11.012-7.3438 3.5664-1.5586 7.457-2.4492 11.68-2.6719 4.2305-0.22266 7.9023 0.11328 11.012 1.0039 3.1172 0.89062 5.7891 2 8.0117 3.3359 2.2266 1.3359 5.0039 3.6719 8.3398 7.0117l5.0078 5.0078 2-27.043c1.3359-18.027 2.8984-33.496 4.6719-46.402 1.7812-12.91 3.3359-20.477 4.6719-22.703 1.3359-2.2266 2.7852-3.6719 4.3398-4.3398zm-44.383 107.16c-2.2227-0.44531-4.3398-0.22266-6.3398 0.66797-2.0039 0.89062-4.2266 2.6719-6.6758 5.3438-2.4414 2.668-4.3359 5.3398-5.6719 8.0117s-2.5547 6.2305-3.6719 10.684c-1.1055 4.4492-1.668 9.457-1.668 15.023 0 5.5625 0.44922 10.238 1.3359 14.02 0.89453 3.7852 2.4492 7.6797 4.6719 11.684 2.2266 4.0078 4.7852 6.9023 7.6758 8.6836 2.8945 1.7773 5.5664 2.4453 8.0078 2 2.4492-0.44531 4.8984-1.7812 7.3398-4.0039 2.4492-2.2266 4.8984-5.7891 7.3438-10.684 2.4492-4.8984 4.6719-10.238 6.6719-16.023 2.0039-5.7891 2.4492-11.02 1.3359-15.691-1.1094-4.6758-2.8906-9.3477-5.3398-14.023-2.4414-4.6719-5.0039-8.3438-7.6758-11.016-2.668-2.6719-5.1094-4.2305-7.3398-4.6758zm78.418-17.691c2.8984-1.5586 8.7891-2.2266 17.688-2.0039 8.9023 0.22266 16.465 1 22.691 2.3359 6.2344 1.3359 10.344 2.5586 12.348 3.6719 2 1.1133 4.0039 2.6719 6.0039 4.6758 2.0039 2.0039 4.4531 6.0078 7.3438 12.02 2.8945 6.0078 4.7852 11.461 5.6719 16.355 0.89453 4.8984 1.3359 9.4609 1.3359 13.688 0 4.2305-0.89062 10.238-2.6719 18.031-1.7734 7.7891-3.8906 13.906-6.3398 18.359-2.4414 4.4531-4.7773 7.9023-7.0078 10.348-2.2227 2.4492-5.8945 5.1211-11.012 8.0156-5.1133 2.8906-10.117 4.5625-15.016 5.0078-4.8945 0.44531-8.7852 0.33203-11.68-0.33594-2.8906-0.66797-5.6719-1.668-8.3438-3.0039-2.668-1.3359-5.8906-3.8945-9.6758-7.6797-3.7773-3.7812-7.0078-8.457-9.6797-14.02-2.668-5.5664-4.5547-11.688-5.6719-18.363-1.1055-6.6758-1.2188-14.91-0.33203-24.703 0.89453-9.793 2.7812-18.918 5.6719-27.375 2.8984-8.4609 5.7852-13.469 8.6758-15.023zm25.363 21.699c-9.5664-0.89062-14.906 2.0039-16.02 8.6797-1.1094 6.6758-1.668 13.355-1.668 20.031 0 6.6758 0.33203 11.684 1 15.023s1.5625 6.3438 2.6719 9.0117c1.1133 2.6719 2.4492 5.0078 4.0039 7.0117 1.5625 2.0039 3.3359 3.5625 5.3398 4.6758 2 1.1133 4.3359 1.668 7.0078 1.668 2.668 0 4.8984-0.44531 6.6719-1.3359 1.7812-0.89062 3.4492-2.1133 5.0078-3.6719 1.5586-1.5586 3.4492-4.6719 5.6719-9.3477 2.2266-4.6719 3.5625-8.125 4.0039-10.348 0.44531-2.2266 0.44531-7.2344 0-15.023-0.44141-7.793-1.3359-13.242-2.6719-16.359-1.332-3.1172-2.7734-5.3438-4.3359-6.6758-1.5547-1.3359-7.1133-2.4492-16.684-3.3398zm65.738-30.379c2.2266-2.0039 4.7852-2.7852 7.6719-2.3398 2.8984 0.44531 4.9023 1.2266 6.0078 2.3398 1.1133 1.1133 1.8945 2.3359 2.3359 3.6719 0.44922 1.3359 0.5625 8.3438 0.33594 21.031-0.22266 12.688 0 28.934 0.66406 48.742 0.66797 19.809 0.66797 30.602 0 32.383-0.66406 1.7812-2 3.4492-4.0039 5.0078-2 1.5586-4.0039 2.3359-6.0039 2.3359-2.0039 0-3.8906-0.55469-5.6758-1.668-1.7734-1.1133-3.2227-2.8945-4.3359-5.3438-1.1094-2.4453-1.7773-5.2266-2.0039-8.3438-0.21875-3.1172-0.55469-14.133-1-33.051-0.44141-18.918-0.44141-31.938 0-39.062 0.44531-7.1211 1-12.684 1.668-16.691 0.66797-4.0039 2.1172-7.0117 4.3398-9.0117zm3-40.73c2.0039-1.1133 4.3398-1.668 7.0078-1.668 2.6719 0 4.6719 0.33203 6.0078 1 1.3359 0.66797 2.8984 2.2266 4.6719 4.6719 1.7812 2.4492 2.6719 5.0078 2.6719 7.6797 0 2.6719-0.44141 5.0078-1.3359 7.0117-0.88672 2.0039-2.5586 4.0078-5.0078 6.0078-2.4414 2.0039-5.0039 3.0039-7.6719 3.0039-2.6719 0-4.7812-0.33203-6.3438-1-1.5547-0.66797-3-1.668-4.3359-3.0039-1.3359-1.3359-2.3359-2.7812-3.0039-4.3398-0.66797-1.5586-1-3.3398-1-5.3438 0-2 0.33203-3.8945 1-5.6719 0.66797-1.7812 1.5625-3.3398 2.6719-4.6758 1.1133-1.3359 2.668-2.5586 4.668-3.6719zm43.383 33.051c1.1133-0.44531 2.5625-0.66797 4.3398-0.66797 1.7812 0 3.668 0.77734 5.6719 2.3359 2 1.5586 3.2305 4.3398 3.668 8.3477 0.23047 2.0039 0.44922 4.0039 0.66797 6.0078 2.7852-1 5.5664-2.0039 8.3438-3.0039 5.5664-2.0039 11.012-3.1172 16.352-3.3398 5.3398-0.22266 10.012 0.55859 14.016 2.3398 4.0039 1.7812 7.2344 4.0039 9.6758 6.6758 2.4492 2.6719 4.7852 6.4531 7.0078 11.352 2.2305 4.8945 4.1172 12.129 5.6719 21.699 1.5625 9.5703 2.6719 21.922 3.3398 37.059 0.66797 15.133 0.22656 23.926-1.3359 26.371-1.5547 2.4492-4.0039 3.8945-7.3398 4.3398-3.3398 0.44531-6.1133-0.44531-8.3438-2.668-2.2227-2.2266-4.3398-14.023-6.3398-35.391-2.0039-21.363-3.7773-34.273-5.3398-38.727-1.5547-4.4492-3.1094-7.3438-4.6719-8.6797-1.5547-1.3359-4.6719-1.7812-9.3438-1.3359-4.6719 0.44922-9.2305 1.7812-13.68 4.0078-4.4453 2.2266-6.4492 14.469-6.0078 36.723 0.44531 22.258 0 34.277-1.3359 36.055-1.3359 1.7812-2.668 3.0078-4.0039 3.6758-1.3359 0.66406-3.1094 0.88672-5.3398 0.66406-2.2227-0.21875-4.1094-0.88672-5.6719-2-1.5547-1.1133-2.7773-2.6719-3.6719-4.6758-0.88672-2.0039-1.4414-4.2266-1.668-6.6758-0.21875-2.4492-0.66797-11.352-1.3359-26.707-0.66406-15.359-0.88672-28.488-0.66406-39.395 0.22656-10.906 0.55859-18.363 1-22.367 0.44531-4.0078 1.3359-6.9023 2.668-8.6797 1.3359-1.7812 2.5625-2.8945 3.6719-3.3398zm123.8-0.66797c3.1172-0.89062 6.4531-1.2227 10.012-1 3.5625 0.22266 6.9023 1 10.012 2.3359 3.1172 1.3359 4.8984 2.3359 5.3398 3.0039 0.44531 0.66797 2.1133 1 5.0039 1 2.8984 0 5.1211 0.55859 6.6758 1.6719 1.5586 1.1133 2.668 2.4492 3.3359 4.0039 0.66797 1.5586 2 8.6797 4.0039 21.367 2.0039 12.688 3.3359 23.035 4.0039 31.047 0.66797 8.0156 1.1133 16.805 1.3359 26.375 0.22656 9.5703-0.10547 19.25-1 29.047-0.89062 9.793-2.0039 17.469-3.3398 23.035-1.332 5.5625-3.2227 11.238-5.6719 17.023-2.4414 5.7891-5.0039 10.684-7.6758 14.691-2.668 4.0039-5.6719 7.6758-9.0078 11.016-3.3398 3.3398-7.5625 6.5664-12.68 9.6836-5.1133 3.1133-9.5664 5.3398-13.352 6.6758-3.7773 1.3359-7.6719 2.3359-11.68 3.0039-4.0039 0.66797-8.2266 0.89062-12.68 0.66797-4.4453-0.22266-10.012-1.668-16.684-4.3398-6.6758-2.6719-12.234-5.6758-16.684-9.0156-4.4453-3.3359-9.7852-8.0117-16.02-14.02-6.2266-6.0078-9.7852-10.016-10.68-12.02-0.88672-2.0039-1.332-3.6719-1.332-5.0078s0.33203-2.7812 1-4.3398 1.8945-3.0039 3.6719-4.3398c1.7812-1.3359 4.1172-1.8906 7.0078-1.668 2.8945 0.22266 9.0078 4.4492 18.352 12.684 9.3438 8.2383 16.352 13.469 21.023 15.691 4.6719 2.2266 9.5703 3.2266 14.684 3.0039 5.1172-0.21875 9.9023-1.2227 14.348-3.0039 4.4531-1.7812 8.5703-4.2266 12.348-7.3438 3.7852-3.1172 6.5664-5.8984 8.3438-8.3477 1.7812-2.4453 3.5625-5.5625 5.3359-9.3477 1.7852-3.7812 3.4531-8.6797 5.0078-14.688 1.5625-6.0078 2.668-11.906 3.3359-17.695 0.66797-5.7852 1-12.797 1-21.031v-12.352h-0.66406c-0.44141 0-1.8906 1.668-4.3398 5.0078-2.4414 3.3359-5.0039 5.8984-7.6758 7.6758-2.668 1.7812-5.6719 3.1172-9.0078 4.0078-3.3398 0.89063-6.3398 1.2227-9.0117 1-2.668-0.21875-5.6719-1.1094-9.0078-2.668-3.3398-1.5586-6.1133-3.4492-8.3438-5.6758-2.2227-2.2266-4.4453-5.4531-6.6758-9.6836-2.2227-4.2266-3.7773-8.3438-4.6719-12.352-0.88672-4.0039-1.1055-10.348-0.66406-19.027 0.44531-8.6797 1.332-15.246 2.668-19.699 1.3359-4.4492 2.8984-8.457 4.6719-12.02 1.7812-3.5586 4.6719-7.5664 8.6758-12.016 4.0039-4.4531 7.1211-7.3438 9.3438-8.6797 2.2305-1.3359 4.8984-2.4492 8.0078-3.3398zm9.6797 20.699c-2.0039 0-4.6719 1.5586-8.0117 4.6719-3.3359 3.1172-6.2266 7.9023-8.6758 14.355-2.4414 6.457-3.668 13.02-3.668 19.699 0 6.6758 0.55859 11.461 1.668 14.355 1.1133 2.8906 2.3359 5.0078 3.668 6.3438 1.3359 1.332 2.7852 1.8906 4.3398 1.668 1.5625-0.22266 3.4492-1.668 5.6719-4.3398 2.2305-2.6719 3.8984-5.2305 5.0078-7.6797 1.1133-2.4492 2.3359-6.5664 3.668-12.352 1.3359-5.7852 2.4492-12.465 3.3398-20.031 0.89453-7.5664 0.44531-12.242-1.3359-14.02-1.7773-1.7812-3.6719-2.6719-5.6719-2.6719z" fill="#fbb436" fill-rule="evenodd"/>
 </g>
 <g clip-path="url(#a)">
  <path d="m23.59 454.18c2.4492-0.89063 8.7891-0.89063 19.02 0 10.238 0.89062 16.02 1.5586 17.352 2.0039 1.3359 0.44531 2.7852 1.668 4.3398 3.6719 1.5625 2 2.3359 7.2305 2.3359 15.691 0 8.457-0.55469 19.695-1.668 33.715-1.1094 14.023-1.5547 31.051-1.3359 51.082 0.11328 10.016 0.22656 20.031 0.33203 30.043 1.3359-4.7852 2.6719-9.5664 4.0078-14.355 2.668-9.5664 5.8984-19.363 9.6758-29.375 3.7852-10.016 7.5664-18.477 11.348-25.375s8.0078-12.797 12.68-17.691c4.6719-4.8984 8.6758-8.0156 12.012-9.3477 3.3359-1.3359 6.4531-1.8945 9.3438-1.6719 2.8984 0.22266 5.5664 1.0039 8.0078 2.3359 2.4492 1.3359 4.6719 3.2305 6.6758 5.6758 2 2.4492 3.8984 6.0117 5.6719 10.684 1.7812 4.6758 3.1172 9.3477 4.0039 14.023 0.89453 4.6719 2.0039 15.578 3.3359 32.715 0.66797 8.5703 1.3359 17.141 2.0039 25.707 1.8945-6.0078 3.7852-12.02 5.6719-18.027 3.7852-12.02 7.3438-22.145 10.68-30.379 3.3359-8.2344 7.1211-16.473 11.344-24.707 4.2344-8.2344 8.3438-15.246 12.348-21.031 4.0039-5.7852 8.2383-10.793 12.68-15.023 4.4531-4.2266 8.793-7.2344 13.016-9.0117 4.2305-1.7812 8.2344-2.4492 12.012-2.0039 3.7852 0.44531 7.2344 1.8906 10.348 4.3398 3.1172 2.4492 5.2305 4.6719 6.3398 6.6758 1.1133 2.0039 2.2266 5.0078 3.3359 9.0156 1.1133 4.0039 1.8945 10.125 2.3359 18.359 0.44531 8.2344 0.22656 18.473-0.66797 30.715-0.88672 12.242-3.0039 33.051-6.3398 62.43-3.3359 29.379-5.1133 52.75-5.3398 70.109-0.21875 17.359 0.5625 31.828 2.3359 43.402 1.7812 11.57 3.5664 19.582 5.3398 24.035 1.7812 4.4531 3.8984 7.8984 6.3398 10.348 2.4492 2.4531 4.6719 3.4531 6.6758 3.0078 2-0.44922 4.4492-2.0039 7.3398-4.6758 2.8984-2.6719 6.1211-6.8984 9.6758-12.688 3.5664-5.7891 7.457-14.133 11.68-25.035 4.2344-10.906 8.6758-23.926 13.348-39.062 4.6719-15.137 7.1211-24.484 7.3438-28.043 0.22656-3.5586-0.10937-9.5664-1-18.027-0.89062-8.4609-1.3359-19.145-1.3359-32.051 0-12.91 0.33203-21.477 1-25.707 0.66797-4.2266 1.5625-7.5664 2.6719-10.016 1.1133-2.4492 3-4.5625 5.6719-6.3438 2.668-1.7812 8.1211-2.7812 16.352-3.0039 8.2344-0.22266 13.574 0.55469 16.016 2.3359 2.4492 1.7812 4.1172 3.4531 5.0078 5.0078 0.89453 1.5586 1.1133 13.355 0.66406 35.391-0.4375 22.031-0.4375 37.84 0 47.406 0.44922 9.5703 1.3359 19.586 2.6719 30.047 1.3359 10.461 2.8945 19.477 4.6719 27.043 1.7812 7.5625 4.0039 14.574 6.6719 21.031 2.6719 6.457 5.2344 11.129 7.6758 14.02 2.4492 2.8945 4.5664 4.5625 6.3398 5.0078 1.7812 0.44922 4.3398-0.66406 7.6758-3.3359 3.3359-2.6719 5.7852-5.1211 7.3398-7.3438 1.5625-2.2266 4.6719-8.7969 9.3438-19.699 4.6719-10.902 7.3438-26.375 8.0117-46.402 0.66797-20.031 2.2266-42.738 4.6719-68.109 2.4492-25.371 4.3359-39.059 5.6719-41.062 1.3359-2.0039 3.0039-3.4492 5.0039-4.3398 2.0039-0.89062 6.5664-1.3359 13.684-1.3359 7.1211 0 11.457 0.33594 13.012 1 1.5625 0.66797 2.8984 1.5586 4.0078 2.6719 1.1133 1.1133 2.1133 3.0039 3 5.6758 0.89453 2.6719 1.6719 9.793 2.3359 21.367 0.66797 11.574 1.0039 27.93 1.0039 49.078 0 21.145-0.55469 45.516-1.668 73.113-1.1094 27.594-2.3359 48.738-3.6719 63.43-1.3359 14.688-3.0039 28.598-5.0078 41.73-2 13.133-4.3359 25.594-7.0078 37.391-2.668 11.797-5.7773 23.258-9.3398 34.387-3.5586 11.129 4.4492 21.031 24.023 29.711 19.582 8.6797 36.934 15.578 52.059 20.699 15.129 5.1211 28.812 8.793 41.043 11.02 12.242 2.2227 22.805 3.3359 31.703 3.3359 8.8945 0 15.57-0.33203 20.02-1 4.4531-0.66797 11.016-2.5586 19.691-5.6758 8.6758-3.1172 15.461-6.3438 20.355-9.6836 4.8906-3.3359 9.1211-6.7891 12.68-10.348 3.5586-3.5586 7.0078-7.8984 10.344-13.02 3.3359-5.1211 5.8945-9.6836 7.6758-13.688 1.7812-4.0078 4.7852-13.574 9.0078-28.711 4.2266-15.137 7.3438-23.484 9.3438-25.039 2.0039-1.5547 4.2266-2.3359 6.6758-2.3359 2.4492 0 4.8906 1.2188 7.3398 3.6719 2.4492 2.4492 3.5586 6.0078 3.3398 10.684-0.22266 4.6719-1.8906 12.684-5.0078 24.035-3.1172 11.352-6.1211 20.25-9.0078 26.707-2.8906 6.457-5.5625 11.688-8.0117 15.691-2.4492 4.0078-5.0039 7.6797-7.6719 11.02-2.6719 3.3359-6.2266 7.0078-10.68 11.016-4.4531 4.0039-9.0117 7.5625-13.684 10.684-4.6719 3.1172-9.3398 5.7891-14.012 8.0117-4.6719 2.2227-9.457 4.1211-14.352 5.6758-4.8906 1.5547-10.457 2.8906-16.684 4.0039-6.2266 1.1172-14.016 1.7852-23.359 2.0039-9.3438 0.22266-17.906-0.11328-25.695-1-7.7812-0.89062-17.906-2.8906-30.367-6.0117-12.453-3.1172-25.359-7.1211-38.707-12.016-13.348-4.8945-28.805-11.133-46.387-18.695-8.7812-3.7891-17.57-7.5664-26.359-11.352-2.0039 4.4531-4.0039 8.8984-6.0078 13.352-4.0039 8.9023-9.6758 19.145-17.02 30.715-7.3398 11.57-15.348 22.148-24.023 31.715-8.6758 9.5703-16.688 17.141-24.027 22.703-7.3438 5.5625-13.457 9.6797-18.355 12.352-4.8906 2.6719-10.008 5.0078-15.348 7.0117s-12.234 3.6719-20.691 5.0078c-8.4492 1.3359-16.457 1.5547-24.023 0.66797-7.5625-0.88672-14.906-3.0039-22.027-6.3438-7.1133-3.3398-12.117-6.2305-15.016-8.6797-2.8906-2.4492-6.0039-5.8945-9.3438-10.348-3.3359-4.457-6.2266-9.6836-8.6758-15.691-2.4414-6.0117-4.0039-10.797-4.6719-14.355s-1.1055-7.8984-1.332-13.02c-0.22266-5.1211 0-10.352 0.66406-15.691 0.66797-5.3438 2.1172-11.465 4.3398-18.363 2.2305-6.8984 4.6719-12.801 7.3398-17.695 2.6719-4.8906 5.2344-9.0117 7.6758-12.352 2.4492-3.3359 7.2344-8.2305 14.348-14.688 7.1211-6.457 13.465-11.238 19.023-14.355 5.5664-3.1172 11.68-5.7891 18.352-8.0117 6.6758-2.2266 12.68-3.7891 18.02-4.6758 5.3398-0.88672 12.348-1.3359 21.023-1.3359 8.6758 0 17.133 0.66797 25.363 2.0039 8.2344 1.3359 17.578 3.5586 28.027 6.6758 5.2344 1.5586 10.461 3.1211 15.688 4.6758 1.2266-4.3398 2.4492-8.6797 3.668-13.02 2.4492-8.6797 4.8984-19.477 7.3438-32.383 2.4492-12.906 4.2305-25.039 5.3359-36.391 1.1172-11.352 1.7852-22.48 2.0039-33.387 0.11328-5.4531 0.22656-10.902 0.33203-16.355-2.1094 2-4.2227 4.0039-6.3398 6.0078-4.2227 4.0078-7.7812 6.6758-10.676 8.0117-2.8906 1.3359-6.0078 2.2227-9.3438 2.6719-3.3398 0.44531-8.5625 0-15.684-1.3359-7.1172-1.3359-12.789-3.4531-17.02-6.3438-4.2266-2.8906-8.3438-6.5625-12.348-11.016-4.0039-4.4531-7.5625-9.3477-10.68-14.691-3.1094-5.3398-6.0039-11.684-8.6758-19.027l-4.0039-11.016c-1.7734 5.0078-3.5547 10.016-5.3398 15.023-3.5547 10.012-6.7773 18.141-9.6758 24.367-2.8906 6.2305-5.8945 11.688-9.0117 16.359-3.1094 4.6758-6.4453 8.793-10.008 12.352-3.5586 3.5586-7.4492 6.457-11.68 8.6836-4.2266 2.2227-8.7852 3.4492-13.684 3.6719-4.8906 0.21875-8.7812-0.22266-11.68-1.3359-2.8867-1.1172-5.8906-3.0039-9.0078-5.6758-3.1094-2.6719-6.2266-6.6758-9.3438-12.02-3.1094-5.3398-5.3398-10.016-6.6758-14.02-1.332-4.0078-2.668-9.4609-4.0039-16.359-1.3359-6.8984-2.3359-14.242-3.0039-22.035-0.66406-7.793-0.77344-20.586-0.33203-38.391 0.44531-17.809 2.4492-42.285 6.0078-73.449 3.5625-31.16 5.5664-49.855 6.0039-56.086 0.44922-6.2344 0.5625-13.02 0.33594-20.367-0.10938-3.6719-0.22266-7.3438-0.33594-11.016-2.5547 3.8945-5.1094 7.7891-7.6758 11.684-5.1094 7.793-10.785 18.586-17.016 32.383-6.2266 13.801-12.566 33.832-19.023 60.094-6.4453 26.262-11.117 41.621-14.016 46.074-2.8867 4.4531-6.1133 7.5625-9.6758 9.3477-3.5586 1.7812-8.1133 2.6719-13.68 2.6719-5.5625 0-9.0117-0.44922-10.348-1.3359-1.332-0.89062-2.5547-2.4531-3.668-4.6758-1.1094-2.2227-2.0039-5.6758-2.6719-10.348-0.66797-4.6758-1.668-22.922-3.0039-54.754-1.332-31.828-2.7734-51.637-4.3359-59.426-1.5547-7.7891-2.5547-11.906-3.0039-12.352l-0.66797-0.66797-1.668 1.668c-1.1094 1.1133-2.8906 3.5625-5.3398 7.3477-2.4414 3.7812-5.3398 9.457-8.6758 17.023-3.3359 7.5664-7.3398 19.699-12.012 36.391-4.6719 16.691-8.0078 32.27-10.012 46.742-2.0039 14.469-3.4453 31.379-4.3398 50.742-0.88672 19.363-2 29.934-3.3359 31.715-1.3359 1.7852-5.1133 3.8945-11.344 6.3438-6.2266 2.4531-11.012 3.6719-14.352 3.6719-3.3359 0-6.3398-0.55078-9.0078-1.668-2.6719-1.1133-5.1133-2.8906-7.3438-5.3398-2.2227-2.4531-4.0039-4.8945-5.3359-7.3477-1.3359-2.4492-3.5586-7.457-6.6758-15.02-3.1094-7.5664-5.7812-14.91-8.0078-22.035-2.2227-7.125-4.3398-16.023-6.3398-26.707-2.0039-10.684-3.5586-22.371-4.6719-35.059-1.1094-12.684-1.5547-28.375-1.3359-47.07 0.22656-18.695 1.5625-36.613 4.0039-53.75 2.4492-17.137 4.6719-28.711 6.6758-34.719 2-6.0117 4.0039-10.016 6.0039-12.02 2.0039-2.0039 4.2344-3.4492 6.6758-4.3398zm305.33 110.5c-1.332-0.66797-2.4414-0.55859-3.3359 0.33203-0.88672 0.89062-1.668 4.7852-2.3359 11.684-0.66797 6.9023-0.66797 18.477 0 34.723s2.3359 32.051 5.0039 47.406c2.6719 15.359 4.3398 23.703 5.0078 25.039 0.66797 1.3359 1.5625 2.1172 2.668 2.3359 1.1172 0.22266 2.0039 0 2.6719-0.66797 0.66797-0.66406 1-1.7812 1-3.3359 0-1.5547-1-7.0117-3.0039-16.359-2-9.3477-3.6719-20.918-5.0039-34.719-1.3359-13.801-2.0039-26.598-2.0039-38.395 0-11.797 0.22656-19.254 0.66797-22.367 0.44531-3.1172 0-5.0078-1.3359-5.6758zm17.02 137.88c-0.66797 0-1.3359 0.22266-2 0.66797-0.66797 0.44922-1.0039 1.2227-1.0039 2.3359 0 1.1172 0.78125 1.8906 2.3359 2.3398 1.5625 0.44531 2.5625 0.11328 3.0039-1.0039 0.44922-1.1133 0.33203-2.1172-0.33203-3.0039-0.66797-0.88672-1.3359-1.3359-2.0039-1.3359zm-15.016 175.27c-7.1133-0.21875-14.457 0.33594-22.023 1.6719-7.5625 1.332-13.348 2.7812-17.352 4.3398-4.0078 1.5547-7.8984 3.4492-11.68 5.6758-3.7773 2.2227-8.6797 6.2266-14.684 12.016-6.0078 5.7891-10.785 11.801-14.352 18.027-3.5547 6.2305-6.2266 12.906-8.0078 20.031-1.7734 7.125-2.668 13.355-2.668 18.695 0 5.3438 0.33203 9.5703 1 12.688 0.66797 3.1172 2.0039 6.457 4.0039 10.016 2.0039 3.5586 4.2305 6.5625 6.6758 9.0156 2.4492 2.4492 5.2305 4.6719 8.3398 6.6758 3.1172 2.0039 6.5703 3.2227 10.348 3.6719 3.7812 0.44531 8.2344 0 13.348-1.3359 5.1172-1.3359 12.461-5.0078 22.023-11.016 9.5703-6.0117 17.246-11.801 23.023-17.359 5.7891-5.5625 11.793-11.906 18.02-19.031 6.2344-7.125 12.461-15.242 18.688-24.371 6.2344-9.1289 11.348-17.359 15.352-24.703 4.0039-7.3477 6.0078-11.352 6.0078-12.02s-0.44141-1.2227-1.3359-1.668c-0.88672-0.44922-5.7812-1.8906-14.684-4.3398-8.8945-2.4531-16.016-4.1211-21.355-5.0078-5.3398-0.89062-11.566-1.4492-18.688-1.6719zm-288.65-216c-1.1094 0-1.8906 0.89062-2.3359 2.6719-0.44141 1.7852 0.11328 3.0039 1.668 3.6719 1.5625 0.66797 2.668 0.66797 3.3359 0 0.66797-0.66797 1-1.4492 1-2.3359 0-0.88672-0.33203-1.7812-1-2.6719-0.66797-0.88672-1.5547-1.3359-2.668-1.3359zm-7.3438-184.29c-1.5547-0.44531-2.7734 0-3.668 1.3359-0.89062 1.3359-2.2227 6.3438-4.0039 15.023-1.7773 8.6797-3.0039 15.914-3.6719 21.699-0.66797 5.7891-1.1094 14.691-1.3359 26.707-0.21875 12.02 1 31.605 3.6719 58.758 2.668 27.16 4.2305 41.398 4.6719 42.734 0.44531 1.3359 1.3359 2.2266 2.668 2.6719 1.3359 0.44922 2.3359 0.33594 3.0039-0.33203s1-2.4531 1-5.3438-1.332-15.91-4.0039-39.062c-2.668-23.145-3.7773-43.176-3.3359-60.09 0.44531-16.918 1.3359-29.938 2.668-39.062 1.3359-9.125 2.4492-14.91 3.3398-17.359 0.89453-2.4492 1.332-4.2305 1.332-5.3398 0-1.1133-0.77344-1.8945-2.3359-2.3398z" fill="#e7822a" fill-rule="evenodd"/>
 </g>
 <g clip-path="url(#b)">
  <path d="m602.22 202.12c3.3359-1.1133 12.898-1.1133 28.695 0 15.801 1.1133 25.695 2.7812 29.699 5.0078 4.0078 2.2227 7.3438 5.3398 10.012 9.3477 2.6719 4.0039 4.6719 8.1211 6.0078 12.352 1.3359 4.2266 2.4492 9.6797 3.3359 16.359 0.88672 6.6758 1.3359 14.355 1.3359 23.035 0 8.6797-0.78125 20.254-2.3359 34.719-1.5547 14.469-3.5586 28.156-6.0078 41.062-2.4492 12.91-5.4531 26.488-9.0078 40.73-3.5586 14.242-8.125 30.492-13.684 48.742-5.5586 18.25-11.566 36.277-18.02 54.082s-12.793 34.277-19.02 49.41c-6.2266 15.137-12.68 29.934-19.355 44.402-6.6719 14.469-13.016 26.707-19.02 36.727-6.0078 10.016-8.4492 22.699-7.3438 38.059 1.1172 15.355 3.1172 32.938 6.0078 52.746 2.8984 19.812 4.5664 29.934 5.0039 30.379 0.23047 0.22266 0.44922 0.44922 0.66797 0.66797 1.4492-4.8945 2.8984-9.793 4.3398-14.688 2.8945-9.7969 6.0078-19.031 9.3438-27.711 3.3359-8.6797 8.8945-21.031 16.684-37.055 7.7891-16.027 16.02-30.602 24.695-43.734 8.6758-13.137 16.797-23.594 24.359-31.387 7.5625-7.7891 13.566-13.129 18.02-16.023 4.4531-2.8906 8.8945-5.0078 13.348-6.3438 4.4531-1.3359 8.5625-1.8906 12.348-1.668 3.7852 0.22266 7.3398 1.1133 10.676 2.6719 3.3398 1.5547 6.457 4.0039 9.3438 7.3438 2.8906 3.3398 5.2266 7.2344 7.0078 11.684 1.7852 4.4531 3.0039 8.9023 3.6719 13.355 0.66797 4.4531 1 9.4609 1 15.023s-0.55078 12.238-1.668 20.031c-1.1133 7.793-3.1172 16.473-6.0039 26.039-2.8906 9.5703-5.8945 17.695-9.0117 24.371-3.1172 6.6797-7.7891 14.91-14.016 24.707-6.2266 9.793-13.902 20.586-23.023 32.383-9.125 11.797-23.027 28.262-41.715 49.41-18.688 21.145-29.812 33.27-33.367 36.387-3.5586 3.1211-6.7891 5.0078-9.6797 5.6758s-5.1094 0.66797-6.6719 0c-1.5547-0.66797-2.8906-1.668-4.0039-3.0039-1.1094-1.3359-1.6719-3.4531-1.6719-6.3438s1.5625-6.5625 4.6719-11.016c3.1172-4.4531 8.6797-10.902 16.688-19.363 8.0078-8.4609 12.566-14.023 13.68-16.691 1.1172-2.6719 5.4531-8.793 13.016-18.363 7.5625-9.5664 13.234-17.246 17.02-23.035 3.7812-5.7891 7.5586-12.465 11.344-20.031 3.7852-7.5664 7.3438-15.469 10.68-23.703 3.3359-8.2305 6.4531-17.027 9.3438-26.375s5.4531-19.477 7.6758-30.379 3.1133-20.145 2.668-27.711-0.88672-11.684-1.3359-12.352c-0.44531-0.66797-1.1133-0.89062-2-0.66797-0.88672 0.22266-5.0078 4.2266-12.348 12.02-7.3398 7.7891-13.902 16.023-19.688 24.707-5.7852 8.6797-11.68 18.695-17.688 30.043-6.0078 11.352-11.012 21.703-15.016 31.051-4.0039 9.3477-8.1211 20.145-12.348 32.383-4.2227 12.238-7.8945 24.703-11.012 37.391-3.1172 12.684-5.2266 20.477-6.3398 23.367-1.1094 2.8906-2.2227 5.0078-3.3359 6.3438-1.1094 1.3359-2.6719 2.4492-4.6719 3.3398-2.0039 0.88672-6.7812 1.2227-14.352 1-7.5586-0.21875-13.012-1-16.352-2.3359-3.3359-1.3359-5.7773-2.8906-7.3398-4.6758-1.5547-1.7812-3.0039-4.1172-4.3359-7.0078-1.3359-2.8906-4.0078-11.465-8.0117-25.707-4.0039-14.242-7.7812-31.383-11.344-51.414-3.5586-20.031-6.3398-42.176-8.3438-66.434-2-24.262-3.0039-42.625-3.0039-55.086 0-12.465 0.44922-28.492 1.3359-48.074 0.89453-19.586 2.0039-38.172 3.3359-55.754 1.3359-17.582 3.1172-35.945 5.3398-55.086 2.2305-19.141 4.4531-35.164 6.6758-48.074 2.2266-12.906 4.4492-23.812 6.6719-32.715 2.2305-8.9023 5.4531-19.922 9.6797-33.051 4.2305-13.133 8.3398-24.707 12.344-34.723 4.0039-10.016 8.3438-19.586 13.016-28.711s9.125-16.914 13.348-23.367c4.2305-6.457 7.6758-10.906 10.344-13.355 2.6719-2.4492 5.6758-4.2266 9.0117-5.3398zm-2.6719 43.734c-1.5547-0.44531-3.7812 1.332-6.6719 5.3398-2.8906 4.0078-7.1133 12.02-12.68 24.039-5.5625 12.016-10.68 24.59-15.352 37.723-4.6719 13.133-8.5625 25.484-11.68 37.059-3.1094 11.57-5.8945 24.035-8.3438 37.391-2.4414 13.352-4.4453 26.262-6.0039 38.727-1.5547 12.461-2.8906 26.816-4.0039 43.066-1.1094 16.246-2.3359 28.934-3.6719 38.059-1.3359 9.125-2.0039 15.023-2.0039 17.691 0 2.6719 0.22656 4.2305 0.66797 4.6758 0.44922 0.44531 1.2305 0.66797 2.3359 0.66797 1.1172 0 2.1172-0.89062 3.0039-2.6719 0.89453-1.7812 2.8984-19.141 6.0078-52.078 3.1172-32.941 6.4531-59.648 10.012-80.125 3.5625-20.477 6.6719-35.609 9.3398-45.402 2.6719-9.793 6.3438-21.258 11.016-34.387 4.6719-13.133 10.008-26.262 16.016-39.395 6.0078-13.133 9.8984-20.809 11.68-23.035s2.668-3.8945 2.668-5.0078c0-1.1133-0.78125-1.8906-2.3359-2.3359zm50.055-17.695c-1.1133-0.66797-2.4492-0.55469-4.0039 0.33203-1.5547 0.89062-3.8906 3.0078-7.0078 6.3438-3.1172 3.3398-7.6758 10.238-13.68 20.699-6.0078 10.461-12.129 23.926-18.355 40.395-6.2266 16.473-11.125 31.273-14.68 44.402-3.5586 13.133-7.2305 29.379-11.016 48.742-3.7773 19.363-6.8906 38.949-9.3398 58.758-2.4453 19.809-4.3398 40.172-5.6758 61.094-1.332 20.922-2 39.395-2 55.418v24.039c4.2305-9.125 8.4531-18.25 12.68-27.375 8.457-18.25 16.352-36.836 23.691-55.754 7.3438-18.918 14.129-37.836 20.355-56.754 6.2266-18.918 11.793-37.613 16.688-56.086 4.8906-18.473 8.6758-34.387 11.344-47.742 2.6719-13.352 4.7852-26.594 6.3398-39.727 1.5547-13.133 2.2227-26.152 2.0039-39.062-0.22266-12.906-0.88672-21.586-2.0039-26.039-1.1133-4.4492-2-7.3438-2.668-8.6797-0.66797-1.3359-1.5547-2.3359-2.6719-3.0039zm-114.79 348.2c-1.1094 0-1.8906 0.22266-2.3359 0.66797-0.44141 0.44531-0.55469 2.1133-0.33594 5.0078 0.22656 2.8906 0.66797 4.8945 1.3359 6.0078s1.668 1.6719 3.0039 1.6719c1.332 0 2.1133-1.1133 2.3359-3.3398 0.22656-2.2266 0.11328-4.1172-0.33594-5.6758-0.4375-1.5586-0.88672-2.6719-1.332-3.3398-0.44141-0.66797-1.2227-1-2.3359-1zm510.22-298.12c2.668-1.1133 7.2266-1.3359 13.684-0.66797 6.4531 0.66797 10.562 1.668 12.344 3.0039 1.7852 1.3359 3.3398 3.1172 4.6719 5.3398 1.3359 2.2266 1.2227 9.4609-0.33203 21.703-1.5547 12.238-4.3398 28.82-8.3438 49.742s-7.4531 40.84-10.344 59.758c-1.4492 9.4609-2.8906 18.918-4.3398 28.379 5.4531 0.10938 10.898 0.22266 16.352 0.33203 10.898 0.22266 18.574 0.11328 23.027-0.33203 4.4492-0.44531 9.7891-1.3359 16.016-2.6719 6.2266-1.3359 12.129-3.1172 17.688-5.3438 5.5586-2.2227 10.23-4.7852 14.016-7.6758 3.7852-2.8945 7.1211-6.1211 10.012-9.6836 2.8867-3.5586 5.2227-7.2305 7.0078-11.016 1.7812-3.7852 3.7812-10.129 6.0039-19.031s3.8906-14.574 5.0078-17.023c1.1133-2.4492 2.4492-4.3398 4.0039-5.6758 1.5547-1.3359 3.5547-2.1133 6.0039-2.3359 2.4492-0.22266 4.7852 0.44531 7.0078 2 2.2227 1.5586 3.6719 3.3398 4.3398 5.3438 0.66797 2.0039 0.44531 6.3438-0.66797 13.02-1.1133 6.6758-3.2227 14.355-6.3398 23.035-3.1172 8.6797-6.6758 15.914-10.68 21.699-4.0039 5.7891-8.5625 10.906-13.68 15.359-5.1211 4.4492-10.344 8.0117-15.684 10.684-5.3398 2.668-13.234 5.3398-23.695 8.0117-10.457 2.668-19.352 4.3398-26.695 5.0078-7.3398 0.66797-16.352 0.77734-27.027 0.33203-10.68-0.44531-17.238 10.129-19.688 31.715-2.4492 21.59-4.1211 42.512-5.0078 62.766s-1.1133 37.504-0.66797 51.746c0.44922 14.242 1.668 29.379 3.6719 45.406 2.0039 16.023 3.8906 27.82 5.6719 35.387 1.7812 7.5625 4.0039 15.137 6.6758 22.699 2.668 7.5664 5.4531 13.91 8.3438 19.031 2.8867 5.1211 5.1172 8.4609 6.6719 10.016 1.5547 1.5547 2.7852 2.2227 3.6719 2.0039 0.88672-0.22266 2-1.6719 3.3359-4.3398 1.3359-2.6719 2.7812-8.1289 4.3398-16.359 1.5547-8.2344 3.2227-27.488 5.0039-57.758 1.7812-30.266 3.1172-46.516 4.0039-48.738 0.88672-2.2266 2.1172-3.8945 3.6719-5.0078 1.5547-1.1172 3.2227-1.7852 5.0039-2.0039 1.7812-0.22266 3.5586 0 5.3398 0.66797s3.4492 2.2227 5.0039 4.6719c1.5586 2.4531 2.4492 5.3438 2.6719 8.6797 0.21875 3.3398-0.22266 15.914-1.3359 37.727-1.1133 21.812-2.5547 39.508-4.3359 53.082-1.7852 13.574-3.8945 23.59-6.3438 30.047-2.4492 6.4531-5.0039 11.461-7.6719 15.023-2.6719 3.5586-5.3398 6.4531-8.0117 8.6797-2.668 2.2227-5.3359 3.8906-8.0078 5.0078-2.668 1.1133-6.1211 1.8867-10.344 2.3359-4.2266 0.44531-8.1211 0.33203-11.68-0.33594-3.5586-0.66797-7.0078-1.8867-10.344-3.6719-3.3398-1.7812-6.2266-3.7852-8.6758-6.0078s-5.2266-5.457-8.3438-9.6836c-3.1172-4.2266-6.4531-10.129-10.012-17.691-3.5547-7.5664-6.8945-17.141-10.012-28.711-3.1133-11.57-5.5586-23.816-7.3398-36.723-0.88672-6.457-1.7812-12.906-2.668-19.363-5.1211 12.352-10.234 24.703-15.352 37.055-10.23 24.707-19.469 44.625-27.695 59.762-8.2305 15.133-11.566 27.488-10.012 37.055 1.5547 9.5703 2.4492 19.918 2.668 31.047 0.22266 11.133-0.33203 21.148-1.668 30.047-1.3359 8.9023-3.1172 16.809-5.3398 23.703-2.2227 6.8984-5.1172 13.574-8.6758 20.031-3.5586 6.457-7.3398 11.797-11.344 16.023-4.0078 4.2266-8.2305 7.4609-12.684 9.6836-4.4492 2.2227-8.7891 3.3398-13.012 3.3398-4.2266 0-7.8945-0.78125-11.012-2.3398-3.1172-1.5547-5.8945-4.1172-8.3438-7.6758s-4.1172-7.125-5.0039-10.684c-0.89062-3.5586-1.3359-7.4609-1.3359-11.688 0-4.2266 0.66797-9.793 2-16.691 1.3359-6.8945 3.2266-13.801 5.6758-20.699 2.4492-6.8945 5.8906-15.137 10.344-24.703s9.2305-18.914 14.348-28.043c5.1211-9.1289 6.7891-16.246 5.0078-21.367s-7.7891-17.691-18.02-37.723c-10.234-20.031-15.57-30.047-16.02-30.047-0.44531 0-2 3.6719-4.6719 11.016-2.668 7.3438-6.5586 16.578-11.68 27.711-5.1172 11.129-9.1211 19.027-12.012 23.703-2.8906 4.6719-6.0078 8.6797-9.3438 12.016-3.3359 3.3398-7.8945 6.457-13.684 9.3477-5.7852 2.8945-11.23 4.457-16.348 4.6758-5.1211 0.21875-9.5664-0.44922-13.352-2.0039-3.7812-1.5547-8.2266-4.4531-13.348-8.6797-5.1172-4.2266-9.3438-8.5664-12.68-13.02-3.3359-4.4531-6.1211-9.0156-8.3398-13.688-2.2227-4.6758-4.4531-10.797-6.6758-18.363-2.2227-7.5625-3.8906-14.574-5.0039-21.031-1.1172-6.457-1.8906-19.582-2.3359-39.395-0.44922-19.809-0.11328-34.387 1-43.734s2.4492-17.805 4.0039-25.371c1.5547-7.5664 3.8906-15.691 7.0078-24.375 3.1172-8.6797 6.1211-15.688 9.0078-21.031 2.8906-5.3398 5.8945-10.125 9.0117-14.355 3.1172-4.2266 6.8945-8.2344 11.348-12.02 4.4492-3.7812 9.4531-6.7852 15.016-9.0117 5.5586-2.2266 10.125-3.3398 13.68-3.3398 3.5586 0 8.1211 1.2266 13.684 3.6719 5.5586 2.4492 9.7891 5.5664 12.68 9.3477 2.8906 3.7852 4.7852 7.3477 5.6719 10.684 0.88672 3.3398 1.2227 8.5703 1 15.691-0.21875 7.1211-1.332 14.355-3.3359 21.699-2 7.3477-4.5586 14.355-7.6758 21.035-3.1172 6.6758-6.4531 12.688-10.008 18.027-3.5586 5.3438-7.3438 10.129-11.348 14.355-4.0039 4.2266-7.6758 7.5664-11.012 10.016-3.3359 2.4531-7.4531 4.5625-12.348 6.3438-4.8906 1.7812-7.4531 10.234-7.6758 25.371-0.21875 15.137 0.66797 28.824 2.6719 41.066 2 12.238 3.8906 20.695 5.6719 25.371 1.7812 4.6719 3.5586 8.4609 5.3398 11.352s3.7852 5.2266 6.0078 7.0078c2.2227 1.7852 4.3359 2.6719 6.3398 2.6719 2 0 4.8906-1.7812 8.6758-5.3398 3.7812-3.5586 7.6758-9.2344 11.68-17.027 4.0039-7.793 10.344-22.59 19.02-44.402s12.566-35.723 11.68-41.73c-0.88672-6.0078-1.1133-15.023-0.66797-27.043 0.44922-12.016 1.668-22.031 3.6719-30.047 2-8.0117 4.5586-15.355 7.6758-22.035 3.1133-6.6758 6.6719-12.684 10.676-18.027 4.0039-5.3398 8.0078-9.457 12.016-12.352 4.0039-2.8945 7.2266-4.7852 9.6758-5.6758 2.4492-0.89062 6.3398-1.4453 11.68-1.668 5.3398-0.22266 10.898 0.77734 16.684 3.0039 5.7891 2.2266 10.23 5.2305 13.348 9.0156 3.1172 3.7812 5.7891 9.457 8.0117 17.023 2.2227 7.5664 3.5547 13.91 4.0039 19.031 0.44531 5.1211 0.55469 11.016 0.33203 17.695-0.21875 6.6758-0.88672 13.02-2 19.027-1.1172 6.0117-2.3359 9.6836-3.6719 11.02-1.3359 1.3359-3.3359 2.1172-6.0078 2.3359-2.668 0.21875-4.5586 0.11328-5.6719-0.33203-1.1133-0.44922-2.2227-1.3359-3.3359-2.6719-1.1172-1.3359-2.0039-10.016-2.6719-26.039-0.66797-16.027-1.5547-26.379-2.668-31.051-1.1133-4.6758-2.2227-7.9023-3.3359-9.6836-1.1172-1.7812-2.2227-2.5586-3.3398-2.3359-1.1133 0.22266-2.4492 1.0039-4.0039 2.3359-1.5547 1.3359-3.8906 4.3398-7.0078 9.0156-3.1172 4.6719-5.6719 9.793-7.6758 15.355-2 5.5625-3.4492 11.355-4.3359 17.363-0.88672 6.0078-1.2227 12.352-1 19.027 0.21875 6.6797 1.2188 14.137 3 22.371 1.7852 8.2305 7.2305 24.148 16.352 47.738 4.5586 11.797 9.125 23.59 13.684 35.387 4.5586-9.5664 9.1211-19.141 13.68-28.711 9.125-19.141 19.805-44.621 32.035-76.449 12.234-31.832 18.91-59.316 20.023-82.461 1.1133-23.148 2.668-45.293 4.6719-66.438 2-21.145-12.461-35.055-43.383-41.73-30.918-6.6758-50.273-10.461-58.062-11.352-7.7891-0.89062-16.684-1.3359-26.695-1.3359s-18.801 0.55859-26.363 1.6719c-7.5586 1.1133-15.797 3.1133-24.691 6.0078-8.8984 2.8945-17.352 6.5664-25.363 11.016-8.0078 4.4531-15.129 9.6836-21.355 15.691-6.2266 6.0117-11.012 8.793-14.348 8.3477-3.3398-0.44531-5.6758-1.5586-7.0078-3.3398-1.3359-1.7812-2.0039-3.7852-2.0039-6.0078 0-2.2266 1-4.8984 3.0039-8.0117 2-3.1172 4.8906-6.6797 8.6758-10.684 3.7852-4.0078 8.8984-8.2344 15.352-12.688 6.4531-4.4531 15.348-8.9023 26.695-13.355 11.344-4.4492 21.91-7.5664 31.699-9.3477 9.793-1.7773 20.023-2.7812 30.703-3.0039 10.676-0.22266 20.574 0.11328 29.699 1.0039 9.1211 0.89063 29.586 4.6719 61.398 11.348 15.906 3.3398 31.816 6.6797 47.719 10.016 1.2227-11.906 2.4492-23.812 3.6719-35.719 2.4492-23.816 5.2266-43.957 8.3398-60.426 3.1172-16.473 5.7891-28.379 8.0117-35.723 2.2227-7.3438 4.1172-12.688 5.6719-16.027 1.5547-3.3359 3.1172-5.8945 4.6719-7.6758 1.5547-1.7812 3.6719-3.2266 6.3398-4.3398zm-278.97 451.7c-0.88672 0-1.668 0.33594-2.3359 1.0039-0.66797 0.66797-1 1.4492-1 2.3359 0 0.88672 0.33203 1.7812 1 2.6719 0.66797 0.88672 1.5547 1.3359 2.6719 1.3359 1.1133 0 1.8867-0.78125 2.3359-2.3398 0.44531-1.5547 0.33203-2.7812-0.33594-3.6719-0.66797-0.88672-1.4453-1.3359-2.3359-1.3359zm138.82-2c-0.88672 0-1.5547 0.78125-2.0039 2.3359-0.44531 1.5547-0.44531 2.5547 0 3.0039 0.44922 0.44531 1.3359 0.55469 2.6719 0.33203 1.332-0.21875 2.1133-0.88672 2.3359-2 0.21875-1.1172 0-2.0039-0.66797-2.6719-0.66797-0.66797-1.4492-1-2.3359-1zm110.79-147.56c-0.88672 0-1.668 0.55469-2.332 1.668-0.66797 1.1133-0.89062 2.6719-0.66797 4.6719 0.21875 2.0039 0.66797 3.5625 1.332 4.6758 0.66797 1.1133 1.4492 1.668 2.3359 1.668 0.89062 0 1.668-0.33203 2.3359-1 0.66797-0.66797 0.89062-2.4492 0.66797-5.3438-0.21875-2.8906-0.66797-4.6719-1.3359-5.3398-0.66406-0.66797-1.4453-1-2.3359-1zm-236.26-11.352c-1.332 0-3.8906 4.4492-7.6719 13.352-3.7852 8.9023-7.2305 20.031-10.348 33.387-3.1172 13.355-5.0039 23.59-5.6719 30.715-0.66797 7.125-1 15.578-1 25.371 0 9.7969 0.11328 16.809 0.33203 21.035 0.22266 4.2266 0.78125 7.3438 1.668 9.3477 0.89062 2.0039 1.7852 3.0039 2.6719 3.0039s1.668-0.33594 2.3359-1c0.66797-0.66797 0.88672-9.0156 0.66797-25.039-0.22266-16.027 0.21875-28.711 1.332-38.059 1.1172-9.3477 2.8906-18.918 5.3398-28.715 2.4492-9.793 5.3398-18.805 8.6758-27.043 3.3398-8.2344 4.7852-13.02 4.3398-14.355-0.44922-1.332-1.3359-2-2.6719-2zm142.82 245.71c-2.668 5.1211-5.3398 10.238-8.0078 15.359-5.3398 10.234-9.793 19.918-13.348 29.043-3.5586 9.1289-5.8945 16.141-7.0078 21.035-1.1172 4.8906-1.668 9.6797-1.668 14.355 0 4.6719 0.21875 7.457 0.66406 8.3438 0.44922 0.89062 1.5586 1.0039 3.3398 0.33594s3.7812-2.1172 6.0039-4.3398c2.2227-2.2266 4.7852-5.8984 7.6758-11.02s5.0078-9.5664 6.3398-13.352c1.3359-3.7891 2.7852-9.7969 4.3398-18.027 1.5547-8.2344 2.4492-15.578 2.668-22.035 0.22266-6.457 0.11328-11.352-0.33203-14.691-0.22266-1.668-0.44922-3.3359-0.66797-5.0078zm-18.688-243.71c-1.3359 0-2.8906 0.78125-4.6719 2.3398-1.7812 1.5586-4.4492 5.1172-8.0078 10.684-3.5586 5.5625-6.3398 10.797-8.3438 15.688-2 4.8945-3.7812 11.02-5.3398 18.367-1.5547 7.3438-2.3359 15.02-2.3359 23.035 0 8.0117 0.44922 14.906 1.3359 20.695 0.88672 5.7891 2.4492 12.242 4.6719 19.363 2.2227 7.125 4.4531 12.801 6.6758 17.027 2.2227 4.2266 4.1172 6.125 5.6719 5.6758 1.5547-0.44531 2.3359-1.4492 2.3359-3.0039 0-1.5547-0.78125-3.8945-2.3359-7.0117-1.5547-3.1172-3.3359-7.793-5.3398-14.02-2-6.2305-3.4492-12.02-4.3359-17.363-0.89062-5.3398-1.4492-11.129-1.6719-17.359-0.21875-6.2305 0-12.02 0.66797-17.359 0.66797-5.3398 2.1172-11.465 4.3398-18.363 2.2227-6.8984 4.7852-13.02 7.6758-18.363 2.8867-5.3398 5.6719-9.2344 8.3398-11.684 2.6719-2.4492 3.7852-4.4492 3.3398-6.0078-0.44922-1.5586-1.3359-2.3398-2.6719-2.3398zm-83.426-6.6758c-0.88672-0.44531-3 1.2227-6.3398 5.0078-3.3359 3.7852-6.5586 8.6797-9.6758 14.691-3.1172 6.0078-6.2266 13.688-9.3438 23.035-3.1172 9.3477-5.3398 17.695-6.6758 25.039l-2 11.016c1.7812-1.668 3.5586-3.3359 5.3398-5.0078 3.5547-3.3359 6.3398-6.3398 8.3398-9.0117 2.0039-2.6719 5.1211-7.8984 9.3438-15.691 4.2266-7.793 7.1211-14.023 8.6758-18.699 1.5586-4.6719 2.6719-9.2344 3.3398-13.688 0.66797-4.4492 0.88672-8.2344 0.66797-11.348-0.22266-3.1172-0.78125-4.8984-1.6719-5.3438zm233.59-261.07c-0.88672 0-2.1133 1.5547-3.6719 4.6719-1.5547 3.1172-3.8906 10.016-7.0078 20.699-3.1133 10.684-6.8906 27.82-11.344 51.414-4.4531 23.59-8.1211 50.074-11.012 79.453-2.8906 29.379-4.6719 49.633-5.3398 60.762-0.66797 11.129-1 18.25-1 21.367 0 3.1133 0.33203 5.0078 1 5.6719 0.66797 0.66797 1.4492 1.0039 2.3359 1.0039s1.7812-0.78125 2.668-2.3359c0.89062-1.5586 2.1172-15.246 3.6719-41.066 1.5547-25.816 3.6719-49.406 6.3398-70.773 2.6719-21.367 6.1211-42.512 10.344-63.43 4.2266-20.922 8.0117-36.613 11.348-47.074 3.3359-10.461 5.0039-16.137 5.0039-17.027 0-0.89063-0.33203-1.668-1-2.3359s-1.4492-1-2.3359-1z" fill="#7f890c" fill-rule="evenodd"/>
 </g>
</svg>
