<?xml version="1.0" encoding="UTF-8"?>
<svg width="1587" height="1587" version="1.0" viewBox="0 0 1190.2 1190.2" xmlns="http://www.w3.org/2000/svg" zoomAndPan="magnify">
 <defs>
  <clipPath id="b">
   <path d="m0 0h1189.5v1189.5h-1189.5z"/>
  </clipPath>
  <clipPath id="a">
   <path d="m26 235h1132.4v722h-1132.4z"/>
  </clipPath>
 </defs>
 <g clip-path="url(#b)" fill="#fff">
  <path d="m0 0h1189.5v1189.5h-1189.5z"/>
  <path d="m0 0h1189.5v1189.5h-1189.5z"/>
 </g>
 <g clip-path="url(#a)">
  <path d="m315.39 384.82s-184.58-29.141-265.54 161.94c-80.953 191.08 66.926 262.34 172.7 250.46 0 0-9.7148 146.82 202.93 158.7s250.42-140.73 250.42-140.73 74.48 107.26 253.66 73.793c179.18-33.465 228.84-171.55 228.84-230.98 0-59.426-47.496-183.58-265.54-180.34 0 0 32.383-101.01-61.527-154.15-93.91-53.133-218.04-20.578-218.04-20.578s-44.258-81.137-146.8-64.945c-102.54 16.195-139.24 79.891-151.11 146.82z" fill="#ff7196"/>
 </g>
 <path d="m274.35 775.69c-8.3945 0-15.48-6.4844-16.105-14.988-4.9844-67.84-6.5859-136.7-4.7617-204.65 0.23828-8.9336 7.793-16.301 16.598-15.73 8.9297 0.23828 15.973 7.668 15.727 16.602-1.793 66.875-0.21484 134.64 4.6914 201.41 0.64453 8.9062-6.043 16.66-14.949 17.316-0.39844 0.023437-0.80469 0.039062-1.1992 0.039062z" fill="#fff"/>
 <path d="m340.7 762.73c-7.9922 0-14.938-5.9219-16.016-14.062-8.7734-66.781-12.875-134.77-12.191-202.07 0.097656-8.875 7.3125-16.008 16.172-16.008h0.16406c8.9297 0.09375 16.09 7.4102 16.004 16.34-0.67188 65.785 3.3398 132.24 11.922 197.52 1.1602 8.8594-5.0781 16.977-13.93 18.145-0.71484 0.089844-1.4258 0.13672-2.125 0.13672z" fill="#fff"/>
 <path d="m210.99 673.73c-7.1172 0-13.633-4.7383-15.594-11.934-2.3438-8.6211 2.7383-17.508 11.355-19.852l152.38-41.449c8.6328-2.3516 17.496 2.7383 19.84 11.363 2.3477 8.6133-2.7383 17.508-11.359 19.844l-152.36 41.449c-1.418 0.39062-2.8477 0.57812-4.2539 0.57812z" fill="#fff"/>
 <path d="m231.14 744.16c-5.9453 0-11.66-3.2852-14.488-8.9648-3.9805-8-0.72656-17.703 7.2617-21.684 44.398-22.105 91.258-39.523 139.29-51.785 8.6992-2.25 17.461 3.0156 19.664 11.664 2.2109 8.6523-3.0039 17.465-11.66 19.668-45.816 11.703-90.527 28.324-132.87 49.402-2.3281 1.1523-4.7812 1.6992-7.1953 1.6992z" fill="#fff"/>
 <path d="m436.29 762.73c-8.9297 0-16.168-7.2383-16.168-16.168v-213.84c0-7.9297 5.7461-14.688 13.57-15.961 7.8398-1.2852 15.43 3.3125 17.93 10.836l23.055 68.965 31.453-100c2.3477-7.4531 9.6484-12.145 17.465-11.191 7.7617 0.98828 13.699 7.3867 14.109 15.203l11.875 226.57c0.46484 8.9141-6.3789 16.527-15.301 16.992-8.8906 0.32422-16.523-6.3867-16.988-15.305l-7.1875-137.1-19.535 62.102c-2.1055 6.6797-8.2734 11.254-15.281 11.316h-0.14453c-6.9453 0-13.129-4.4492-15.332-11.051l-7.3477-21.98v114.45c-0.003906 8.9297-7.2422 16.168-16.172 16.168z" fill="#fff"/>
 <path d="m607.98 719.41c-10.273 0-35.223-5.6914-45.113-58.426-10.289-54.836-2.3516-111.36 19.305-137.46 10.703-12.895 22.246-15.602 30.047-15.602 7.1289 0 17.652 2.2266 27.293 12.82 17.781 19.543 24.359 59.676 19.027 116.07-4.8203 50.957-24.188 82.605-50.559 82.605zm4.2383-179.15c-0.94531 0-2.9141 1.207-5.1562 3.918-13.316 16.047-21.602 61.895-12.41 110.84 4.2578 22.703 11.141 30.543 13.406 31.926 4.1133-1.9805 14.859-16.949 18.285-53.184 5.0195-53.051-2.2656-81.922-10.746-91.254-0.61328-0.67188-2.1758-2.2422-3.3789-2.2422z" fill="#fff"/>
 <path d="m716.21 724.81c-10.465 0-35.879-5.8281-46-59.797-10.57-56.355-2.4336-114.42 19.785-141.2 10.902-13.141 22.645-15.895 30.578-15.895 7.25 0 17.949 2.2656 27.754 13.051 18.223 20.027 24.953 61.246 19.477 119.19-4.9336 52.211-24.707 84.652-51.594 84.652zm4.3633-184.55c-1.3594 0-3.5391 1.6094-5.6914 4.207-13.785 16.613-22.375 64.02-12.887 114.58 4.5859 24.445 12.039 32.246 14.266 33.355 4.1914-1.582 15.703-16.742 19.344-55.293 5.1875-54.812-2.3867-84.691-11.195-94.383-0.84375-0.92188-2.4531-2.4688-3.8359-2.4688z" fill="#fff"/>
 <path d="m809.75 734.58c-2.3125 0-4.6406-0.5-6.8125-1.5078-5.4727-2.5352-9.0703-7.9141-9.3398-13.945-8.7539-195.92-4.6641-200.2 0.98828-206.12 3.4648-3.625 8.7148-5.5938 13.715-5 64.512 7.2344 104.83 26.684 119.86 57.805 9.918 20.539 7.6211 44.254-6.4727 66.758-23.93 38.219-98.883 96.195-102.06 98.645-2.8828 2.2148-6.3633 3.3633-9.8711 3.3633zm11.164-192.25c-0.35547 26.301 1.2617 84.34 3.6289 143.3 24.961-20.992 57.367-50.492 69.723-70.227 5.6484-9.0195 11.055-22.5 4.7617-35.527-5.0898-10.559-22.023-28.641-78.113-37.547z" fill="#fff"/>
</svg>
