<?xml version='1.0' encoding='utf-8'?>
<svg xmlns="http://www.w3.org/2000/svg" width="1587" height="1587" version="1.0" viewBox="0 0 1190.2 1190.2" zoomAndPan="magnify">
 <defs>
  <clipPath id="a" fill="none">
   <path d="m0 0h1189.5v1189.5h-1189.5z" fill="none" />
  </clipPath>
  <clipPath id="b" fill="none">
   <path d="m20 140.56h1141v871.44h-1141z" fill="none" />
  </clipPath>
 </defs>
 <g clip-path="url(#a)" fill="none">
  <path d="m0 0h1189.5v1189.5h-1189.5z" fill="none" />
  <path d="m0 0h1189.5v1189.5h-1189.5z" fill="none" />
 </g>
 <g clip-path="url(#b)">
  <path d="m1011.1 485.3c25.367-82.777 58.93-162.86 100.23-239.01 14.816-27.297 29.969-54.59 44.785-81.883 3.2539-5.9531 6.6211-12.129 2.2422-19.656l-15.375-4.043c-3.5938 4.2695-7.7461 7.75-10.438 12.242-18.633 31.34-37.715 62.449-55.227 94.348-16.16 29.43-29.07 60.652-46.016 89.406-35.469 60.316-72.621 119.73-109.1 179.38-2.1328 3.4805-5.0508 6.5156-9.875 12.469 1.0078-7.8633 1.3438-12.246 2.1328-16.402 3.8164-20.102 8.1914-39.984 11.445-60.199 2.582-16.289 4.9414-32.801 4.8281-49.199-0.11328-22.801-12.234-33.582-34.797-34.031-3.2539-0.11328-6.5078 0-10.996 0 1.1211-6.0664 2.2422-10.672 2.8047-15.387 0.89844-7.75 2.1328-15.387 2.1328-23.137 0.11328-10.559-4.3789-18.422-14.594-23.027-10.66-4.8281-19.641-3.0312-28.281 4.1562-15.941 13.141-23.91 30.438-26.379 50.43-2.1328 18.086 3.1445 33.586 19.195 43.355-1.2383 4.3828-1.6836 7.3008-2.9219 9.8867-12.234 24.258-23.906 48.969-37.262 72.555-6.3984 11.234-15.715 20.895-24.246 30.777-2.8047 3.2578-7.5195 4.9414-13.691 8.7617-2.1328-11.234-4.2656-19.656-5.2773-28.082-3.1406-28.305 0.78516-56.383 4.3789-84.238 1.7969-13.926 5.8359-27.52 8.418-41.445 1.6836-8.9844 2.6953-14.039-9.8789-17.074-1.793-0.44922-3.5898-1.1211-7.0703-2.1328-2.918 5.5039-6.5078 10.672-8.5312 16.398-3.1406 9.2109-5.3867 18.645-7.8555 28.082-3.8164 14.602-7.5195 29.199-16.836 41.555-19.867 26.398-39.621 52.793-59.488 79.188-2.4688 3.2578-5.7227 5.9531-8.6445 8.8711 1.0117-30.887 4.8281-60.539 7.2969-90.305 2.4688-29.762 7.7461-59.414 6.8477-89.293-3.9297-1.1211-6.2852-1.9102-8.6445-2.4688-2.3555-0.5625-4.4883-0.78906-7.7422-1.3477-15.379 30.438-10.215 65.145-20.543 94.797-9.875 0-18.52-2.0234-25.812 0.44922-11.227 3.5938-20.879 11.23-26.938 21.34-11.449 19.43-16.051 40.547-15.266 62.898 0.22266 4.8281 1.3477 9.6602 3.1406 14.152 6.3984 16.734 21.328 23.023 37.828 16.172 3.4766-1.457 6.7344-3.2539 12.121-5.9531-1.2344 16.961-2.6953 31.562-11.672 44.367-8.6445 12.355-17.289 24.711-25.707 37.18-33.223 49.195-52.527 102.77-50.281 162.97 0.55859 15.277 2.582 30.102 8.9766 44.031 7.0742 15.5 21.887 18.195 34.234 6.4023 3.5938-3.3711 6.5117-7.3008 8.7539-11.57 4.4922-8.6484 9.4297-17.184 12.125-26.395 8.1914-27.52 16.609-54.926 22.559-82.891 9.0938-42.234 16.164-85.027 23.91-127.48 2.0195-11.117 4.2617-21.789 11.559-31 20.43-25.945 40.633-52.004 60.949-78.062l13.02-16.734 2.918 1.125c0 6.0625-0.33594 12.129 0.11328 18.195 0.78516 12.578 0.55859 25.383 3.1406 37.625 6.2852 29.203 31.988 39.09 56.57 22.465 14.703-9.9961 26.039-23.25 35.691-37.965 19.309-29.426 33.898-61.215 46.469-93.898 4.4922-11.906 12.91-16.172 23.57-18.531 7.2969-1.6836 10.102 0 10.664 7.6367 0.5625 7.75 0.33594 15.5-0.89844 23.137-6.0586 34.484-12.906 68.852-18.969 103.34-1.5703 8.6484-1.9062 17.41-1.2344 26.059 1.5703 17.297 18.184 24.934 31.766 14.039 8.5273-6.8516 15.938-15.727 22.336-24.824 9.2031-13.141 17.059-27.18 25.367-40.883 6.2852-10.332 12.344-20.668 18.52-31-1.125 13.816-4.4922 26.73-7.9688 39.648-10.891 39.984-18.859 80.531-18.297 122.2 0.11328 10.109 1.2344 20.555 4.3789 30.102 8.8672 27.293 33.785 37.402 59.262 24.484 7.7461-4.043 15.152-8.7617 22.113-14.039 34.793-26.621 62.293-59.754 84.629-97.379 3.8164-6.1797 7.1836-12.695 9.9883-19.434 6.8477-17.859 2.2461-24.598-19.078-26.73-2.4727 3.9297-6.625 7.3008-6.8477 11.117-1.1211 14.828-10.328 25.16-18.969 35.27-18.52 21.789-37.715 43.129-57.691 63.684-7.2969 7.5273-16.836 13.145-25.93 18.645-8.3047 4.9453-11.898 3.0352-15.152-6.2891-1.0117-2.6953-1.6836-5.6133-1.9062-8.5352-0.5625-13.141-1.9102-26.281-0.89844-39.312 3.0273-42.566 13.355-83.566 25.812-124.11zm-455.48 334.26-3.7031 0.22656c-1.3477-5.2812-3.4805-10.445-4.0391-15.727-5.3867-47.285 2.582-91.875 26.711-133.32 6.5117-11.008 13.246-22.016 19.758-32.91l3.7031 1.5703c-11.562 60.652-16.727 122.77-42.43 180.16zm35.582-285.29c-2.6953-4.043-4.3789-5.5039-4.6016-7.1875-3.0312-20.441 1.6836-39.312 12.234-56.723 5.1641-8.4219 14.367-10.445 25.367-13.027-5.6133 28.191-13.246 53.688-33 76.938zm262.87-165c-4.043-13.367-3.9297-14.039 5.3867-23.586-1.6836 7.0742-3.2539 14.152-5.3867 23.586zm-434.27-49.086c-19.641 28.305-38.496 57.172-57.691 85.703-2.2461 3.2539-4.7148 6.3984-7.9688 11.004-3.0312-6.0625-4.7148-9.9961-6.957-13.703-4.8281-8.0859-11.113-16.848-20.652-16.957-14.258-0.22656-28.398 1.457-42.203 4.9414-4.3789 1.1211-7.6328 9.4336-9.9922 15.051-6.0586 14.824-10.324 30.438-17.285 44.703-11.785 23.812-24.578 47.172-37.938 70.199-10.438 18.082-22.223 35.266-33.559 52.789-1.0117 1.6836-3.2578 2.4727-6.9609 5.2773 0-7.8594-0.22266-13.027 0-18.305 1.4609-32.012 3.3672-64.023 4.6016-96.148 1.5742-38.859 3.9297-77.609 11-116.02 0.5625-2.8086 0.67578-5.8398 0.44922-8.6484-0.89844-8.0859-6.5078-11.344-14.59-9.3242-7.4102 1.9102-9.543 8.0898-10.777 14.266-3.2539 16.734-6.0586 33.473-8.8672 50.207-3.0273 17.184-7.0703 34.258-12.121 50.992-12.457-0.78516-23.234-3.4805-33.223-1.5703-27.164 5.0508-46.691 20.777-56.457 47.172-10.664 28.754-10.215 58.18-3.4805 87.609 1.5703 6.625 4.4883 12.918 8.3047 18.422 15.379 22.688 43.887 23.699 59.488 1.457 8.5312-12.242 14.594-26.281 21.664-39.535 1.6836-3.1445 3.0312-6.5156 4.6016-9.7734 2.3555 4.832 2.4688 8.9883 2.2461 13.145-0.44922 17.52-1.6836 35.043-1.3477 52.453 0.44922 14.152-3.2539 28.191-10.438 40.434-26.941 46.051-49.387 94.348-70.488 143.32-15.938 36.953-31.203 74.242-40.855 113.55-5.8398 23.699-10.102 47.621-5.3906 72.105 4.043 20.445 19.867 30.102 39.961 24.375 16.387-4.7188 29.629-14.488 40.406-27.406 15.375-18.531 26.375-39.422 34.344-62.223 17.285-49.535 22.898-101.43 28.512-153.09 4.6016-42.906 6.1719-86.262 8.418-129.5 1.0078-18.082 8.082-33.582 16.836-48.859 9.3164-16.285 17.957-33.02 26.824-49.418 1.125-2.0234 2.1328-4.1562 3.1445-6.1797 6.6211-13.477 17.848-23.699 26.039-35.941 1.6836-2.582 4.2656-4.7148 8.6445-9.2109 0 7.5273-0.22656 12.133 0 16.738 1.0078 15.051 2.0195 29.988 3.4766 44.926 0.67578 4.3828 1.9102 8.5352 3.9297 12.469 11.223 23.922 35.355 27.629 52.867 7.8633 14.816-16.848 22.223-37.516 27.945-58.633 4.4922-16.398 5.7266-34.258 13.246-49.082 19.195-38.188 40.969-74.918 61.734-112.32 4.0391-7.1875 8.9766-14.039 13.133-21.566 4.4883-8.0859-7.0742-15.5-12.461-7.9727 0 0.11328 0 0.22266-0.11328 0.22266zm-320.45 266.2c-9.2031-2.5859-11.559-7.6406-13.355-13.48-6.9609-22.465-6.3984-45.039-1.125-67.613 5.1641-22.129 21.215-32.574 42.43-36.73 4.8242-1.0117 9.5391-2.4727 16.723-4.3789-9.3164 43.355-18.742 85.922-44.672 122.2zm47.141 145.68c-2.582 48.523-6.6211 96.82-17.508 144.44-6.6211 28.645-16.387 56.047-31.09 81.207-8.082 14.039-20.316 25.16-35.02 31.898-12.797 5.8398-20.652 1.125-22.113-13.027-2.4688-24.148 3.2539-47.398 9.6523-70.312 19.645-69.75 47.59-136.36 80.703-200.82 4.375-8.5391 8.9805-16.961 13.582-25.387 0.10938-0.22266 0.89453-0.22266 2.0195-0.5625-0.11328 17.859 0.67188 35.27-0.22656 52.566zm149.51-179.6c-11.898-15.949-13.355-75.703-2.8047-99.516 5.7227 15.613 15.375 26.395 31.426 32.012-5.2734 24.598-12.906 47.176-28.621 67.504zm31.426-98.277c-9.6523-11.797-11.223-24.938-6.7344-38.863 11.227 11.23 9.3164 25.047 6.7344 38.863z" fill="none" />
 </g>
</svg>