<?xml version='1.0' encoding='utf-8'?>
<svg xmlns="http://www.w3.org/2000/svg" width="1587" height="1587" version="1.0" viewBox="0 0 1190.2 1190.2" zoomAndPan="magnify">
 <defs>
  <clipPath id="a" fill="none">
   <path d="m0 0h1189.5v1189.5h-1189.5z" fill="none" />
  </clipPath>
  <clipPath id="b" fill="none">
   <path d="m37.047 426.53h1116v336.47h-1116z" fill="none" />
  </clipPath>
 </defs>
 <g clip-path="url(#a)" fill="none">
  <path d="m0 0h1189.5v1189.5h-1189.5z" fill="none" />
  <path d="m0 0h1189.5v1189.5h-1189.5z" fill="none" />
 </g>
 <g clip-path="url(#b)">
  <path d="m868.47 621.63c0.085938-26.301 5.3359-51.75 12.77-76.84 0.82031-2.7773 1.668-5.5469 2.3867-8.3516 0.47656-1.8672 2.168-4.3477 0.3125-5.5781-2.4766-1.6367-3.8398 1.3828-5.207 2.8438-24.91 26.648-45.992 56.145-64.816 87.312-3.7969 6.293-7.5117 12.641-11.293 18.941-1.7266 2.8789-3.2383 5.7109-3.3789 9.2695-0.14062 3.5508-1.5898 6.8555-5.9102 6.6172-4.2734-0.23828-6.1758-3.2031-6.2461-7.2852-0.17969-9.9336 2.5352-19.418 5-28.871 3.7109-14.219 7.9727-28.289 11.938-42.441 0.38672-1.3945 1.6016-3.4414-0.11328-4.2227-1.7227-0.78125-2.4414 1.4805-3.2539 2.6875-13.184 19.586-25.98 39.453-41.375 57.453-5.6641 6.6211-11.707 12.859-18.621 18.176-2.6289 2.0195-5.4453 3.9688-8.4648 5.2969-13.414 5.8945-26.918-2.1875-27.887-16.734-0.70312-10.602 1.8359-20.793 4.7891-30.867 3.1406-10.699 7.2148-21.066 11.305-31.43 0.57031-1.4414 2.3984-3.5156 0.21875-4.5508-1.3242-0.625-2.25 1.7656-3.0781 3.0117-15.18 22.824-30.902 45.258-48.094 66.637-5.1797 6.4453-10.93 12.34-16.98 17.949-8.2852 7.6836-17.598 8.9961-27.793 4.2852-9.9258-4.582-11.727-13.344-11.355-22.93 0.3125-8.0352 2.0469-15.875 4.1836-23.637 0.66016-2.4023 2.9062-5.6719 0.38672-7.2383-2.0898-1.3008-4.0039 2.0703-5.7383 3.6445-15.547 14.098-32.629 25.496-53.242 30.895-8.3359 2.1836-16.777 2.7188-25.188 1.1562-23.961-4.457-35.766-21.438-32.512-46.195 0.33594-2.5586 2.3008-6.4727 0.019531-7.4531-3.1172-1.3359-4.2109 3.0703-5.8594 5.1328-12.23 15.312-23.871 31.121-37.988 44.844-4.9727 4.832-10.238 9.2383-15.953 13.172-8.3242 5.7227-16.871 7.8633-26.32 2.8125-9.2422-4.9336-12.09-13.207-12.074-22.918 0.039063-22.824 7.4453-43.746 17.027-64.023 6.8516-14.496 14.234-28.746 21.012-43.273 2.0938-4.4844 6.0742-9.9531 2.6602-14.383-3.5625-4.625-9.9336-1.7383-15.113-1.4922-1.7734 0.085937-3.5312 0.63672-5.3047 0.66016-6.2891 0.074218-9.5078 3.3086-11.199 9.2812-12.84 45.375-38.648 83.895-65.184 121.97-6.5039 9.3281-14.109 17.84-23.473 24.527-2.1484 1.5391-4.4961 2.9883-6.9727 3.8359-3.082 1.0586-6.5898 0.91797-8.2852-2.2852-1.5547-2.9258 1.7188-4.1445 3.3906-5.707 13.113-12.25 24.008-26.352 33.949-41.172 20.742-30.93 39.098-63.285 56.508-96.176 2.3789-4.4961 4.4727-9.1055 5.8047-14.156 1.1875-4.5078 3.5234-8.6523 9.9961-6.8828 2.6016 0.71094 5.6953-0.42578 8.5703-0.66406 3.9883-0.32422 8-1 11.969-0.82031 15.129 0.70312 23.031 11.574 18.918 26.137-3.6484 12.926-9.8867 24.801-15.684 36.84-9.0078 18.699-17.145 37.727-21.398 58.176-1.2266 5.8984-2.1133 11.832-1.9531 17.891 0.25781 9.7539 2.8164 11.336 11.234 6.7734 7.4961-4.0625 14.18-9.2695 20.469-14.957 22.242-20.125 41.23-43.156 59.242-67 3.9961-5.2852 6.4922-11.668 10.039-17.32 10.984-17.516 25.02-31.848 43.973-40.793 7.7891-3.6758 15.777-4.5078 23.938-0.97266 9.3594 4.0547 14.938 12.84 12.426 22.605-7.7852 30.25-26.977 50.574-56.145 61.402-5.4922 2.043-11.465 1.8828-17.023-0.53906-3.2266-1.4062-5.2031-0.59375-6.0039 2.7383-2.3672 9.8164-3.9141 19.703-1.2812 29.715 2.2617 8.6172 5.8125 11.367 14.754 11.473 14.223 0.16406 27.391-4.1094 39.48-11.059 28.457-16.367 51.277-39.156 70.801-65.188 12.062-16.082 23.984-32.074 40.832-43.594 8.1758-5.5898 16.512-10.641 26.988-10.207 9.3984 0.38672 17.125 4.0547 21.414 12.508 3.2969 6.4961 5.5352 4.4727 8.7109 0.27734 5.3867-7.1172 11.387-13.711 17.793-19.922 1.2695-1.2344 2.5586-2.5234 4.0625-3.4219 2.5156-1.5 5.1836-1.3203 7.5391 0.43359 2.457 1.832 1.9648 4.3516 0.94922 6.6758-2.8516 6.5273-5.7773 13.031-8.793 19.484-14.129 30.266-29.27 60.109-38.418 92.445-2.0078 7.082-3.8242 14.211-4.4336 21.559-0.23047 2.7734-1.457 6.4648 1.3242 8.0859 2.9883 1.7383 5.25-1.5586 7.3438-3.3086 14.109-11.797 25.836-25.793 36.895-40.379 21.953-28.965 40.941-59.973 61.691-89.77 2.4023-3.4492 4.4258-7.4844 9.793-6.5781 6.3828 1.0742 9.3164 5.9766 6.582 13.234-5.1016 13.539-10.902 26.812-16.441 40.188-5.9609 14.402-11.969 28.789-17.91 43.203-0.56641 1.3789-1.8594 3.5547-0.48828 4.2578 2.1719 1.1211 2.6367-1.625 3.4453-2.9375 18.02-29.27 37.32-57.586 60.906-82.75 2.8867-3.0781 5.9297-6.0469 9.1445-8.7734 4.4961-3.8203 9.5312-4.5234 14.922-1.7578 5.1992 2.668 8.2383 6.7656 8.3789 12.676 0.25391 10.801-2.2812 21.238-4.582 31.656-3.0703 13.914-6.668 27.711-9.8867 41.594-0.44141 1.9023-2.7266 4.6133 0.03125 5.8242 1.8555 0.81641 3.0586-2.125 4.2227-3.6367 20.508-26.754 42.844-51.863 67.402-74.977 5.3555-5.0391 10.691-10.133 17.086-13.883 6.9297-4.0664 11.434-2.9961 15.863 3.6797 3.8203 5.7539 4.0938 12.059 2.8672 18.637-3.4336 18.391-9.2734 36.254-11.938 54.816-2.3008 16.039-2.4297 31.938 2.1602 47.668 6.6016 22.609 21.41 32.711 45.043 30.754 20.695-1.7148 39.637-8.6406 56.832-19.938 21.578-14.172 39.492-31.871 50.312-55.848 2.3984-5.3164 3.7773-10.93 5.332-16.508 0.35547-1.2656 0.73438-2.8359 2.3086-2.9375 2.0234-0.13672 2.5078 1.668 2.7812 3.1602 1.0938 5.9883 0.80078 11.977-0.44531 17.914-5.4219 25.812-21.531 44.547-40.859 61.008-11.074 9.4336-23.27 17.172-36.895 22.594-52.805 21.027-86.895-6.5156-98.473-52.691-6.2734-25.016-1.8711-49.551 4.9922-73.801 1.7578-6.2148 3.6289-12.395 5.3633-18.617 0.40234-1.4414 1.1602-3.2695-0.42188-4.3125-1.582-1.043-3.0039 0.36719-4.1641 1.293-5.3945 4.3047-10.945 8.457-16.012 13.133-27.543 25.457-53.391 52.477-75.68 82.734-2.8984 3.9414-5.5391 7.7031-5.4922 13.18 0.035156 3.7734-1.332 8.5195-6.707 8.375-5.4102-0.14844-8.6719-3.3516-8.9414-8.8945-0.20703-4.4453-0.039063-8.9062-0.039063-13.359zm-141.49-89.707c-0.22266-1.9844-0.30859-4-0.6875-5.9531-1.957-10.113-5.5938-12.051-14.875-7.8281-6.75 3.0703-12.648 7.4414-18.098 12.418-25.035 22.863-42.477 50.68-53.762 82.48-3.582 10.094-6.2266 20.438-7.1172 31.145-0.19531 2.332-1.1602 5.543 1.207 6.7969 2.6484 1.4062 4.3047-1.6602 5.8633-3.3203 5.9375-6.3203 12.07-12.52 17.43-19.316 22.309-28.312 44.34-56.848 66.555-85.234 2.6445-3.3867 3.7266-7.0078 3.4844-11.188zm-137.79-7.0781c0.12109-8.7852-3.6172-11.016-12.77-6.1953-26.746 14.094-42.098 37.586-52.293 65.07-1.3008 3.5117 0.42578 5.0781 3.8828 6.1719 6.3008 1.9922 11.527-0.62891 16.48-3.4609 20.309-11.605 34.48-28.547 42.602-50.477 1.3125-3.5508 2.0898-7.2734 2.0977-11.109zm-306.39-98.074c15.203-0.0625 30.246 1.2383 44.836 5.9648 34.762 11.254 51.457 42.328 41.422 77.5-7.168 25.117-21.215 46.477-37.273 66.617-38.48 48.25-85.613 86.723-137.01 120.3-31.23 20.402-63.941 38.023-98.645 51.855-3.125 1.2461-5.5625 1.8906-4.3789 7.0078 1.0742 4.6406-4.0234 4.1992-6.3516 2.2539-4.5781-3.8242-8.9375-2.6211-13.754-1.1719-7.4531 2.25-14.867 4.7734-22.719 5.3672-2.8945 0.21875-5.832 0.33984-8.4922-1.1406-1.8555-1.0391-3.2383-2.4531-2.5664-4.8516 0.60938-2.1836 10.82-9.043 13.031-8.7109 2.4922 0.37109 2.1602 1.7031 1 3.2617-0.61328 0.82031-2.0391 1.6758-0.89062 2.6992 0.59766 0.53516 2.1445 0.39063 3.1094 0.078126 8.0742-2.6016 15.859-5.9141 23.418-9.7539 4.1055-2.0859 4.0117-6.0547 4.4219-9.8047 4.3242-39.438 9.8984-78.676 21.277-116.79 15.332-51.363 34.895-101 62.074-147.41 1.082-1.8516 3.25-3.8867 1.8594-6.0156-1.3516-2.0586-3.7188-0.50391-5.4961 0.16406-33.918 12.758-66.664 27.828-95.398 50.301-5.2969 4.1406-12.645 6.9648-13.543 15.379-0.20703 1.9453-1.7305 0.21484-2.2148-0.28906-2.5586-2.668-2.1094-5.6914-0.59375-8.6484 2.3789-4.6484 6.1016-8.2188 9.9062-11.648 21.922-19.773 47.301-34.176 74.039-46.105 44.039-19.656 89.77-33.355 138.25-36.375 3.5469-0.22266 7.1211-0.03125 10.688-0.03125zm2.082 12.086c-27.348 0.39062-54.016 5.2344-80.461 11.914-7.0664 1.7891-11.496 5.3789-14.98 11.793-25.145 46.316-45.586 94.656-63.168 144.27-13.93 39.301-26.484 78.965-33.094 120.26-0.39062 2.4453-2.1992 5.5781 0.63281 7.4023 2.332 1.5 4.668-0.70312 6.7461-1.8008 51.934-27.41 102.04-57.676 147.16-95.543 34.617-29.055 66.246-60.914 91.008-99.016 9.2578-14.25 17.367-29.109 21.023-45.918 5.3438-24.562-1.8711-37.465-25.5-46.074-1.6719-0.60938-3.375-1.1523-5.0859-1.6406-14.469-4.1172-29.23-5.9258-44.277-5.6484zm581.98 267.63c0.59375-4.5156-4.418-4.2266-7.3125-5.1211-18.969-5.8438-38.062-11.082-57.949-13.023-49.984-4.875-100.04-6.1562-150.24-4.5391-49.051 1.5859-97.938 4.8594-146.57 11.387-41.363 5.5547-82.363 12.922-121.93 26.711-7.1523 2.4922-14.34 4.9883-20.629 9.375-1.793 1.2539-3.9961 2.8672-2.6289 5.4141 1.1875 2.2188 3.5234 1.2148 5.4453 0.77734 7.6133-1.7305 14.871-4.7109 22.359-6.7344 26.918-7.2734 54.273-12.609 81.871-16.562 45.043-6.4453 90.312-10.293 135.77-12.391 54.383-2.5039 108.73-2.0039 163.04 1.2891 30.02 1.8242 60.066 3.5469 90.035 7.1484 3.3555-0.23438 8.1172 0.98438 8.7344-3.7305z" fill="none" />
 </g>
</svg>