<?xml version='1.0' encoding='utf-8'?>
<svg xmlns="http://www.w3.org/2000/svg" width="1587" height="1587" version="1.0" viewBox="0 0 1190.2 1190.2" zoomAndPan="magnify">
 <defs>
  <clipPath id="b" fill="none">
   <path d="m0 0h1189.5v1189.5h-1189.5z" fill="none" />
  </clipPath>
  <clipPath id="a" fill="none">
   <path d="m195 161.26h800v809.49h-800z" fill="none" />
  </clipPath>
 </defs>
 <g clip-path="url(#b)" fill="none">
  <path d="m0 0h1189.5v1189.5h-1189.5z" fill="none" />
  <path d="m0 0h1189.5v1189.5h-1189.5z" fill="none" />
 </g>
 <g clip-path="url(#a)">
  <path d="m625.54 970.71c-21.527 0-44.449-1.4375-69.918-4.3672-5.8242 0.32031-11.68 0.47656-17.465 0.47656-81.566 0-158.96-31.559-217.94-88.875-109.59-106.5-148.12-247.34-111.43-407.32 12.75-55.703 42.902-107.01 67.133-148.25 85.086-144.39 226.65-161.09 325.74-161.09 5.5664 0 11.141 0.0625 16.754 0.17969 113.52 2.3594 196.39 59.039 245.9 106.17 60.426 57.512 104.02 132.03 119.63 204.45 34.234 158.58-17.09 302.06-152.55 426.43-52.965 48.574-120.3 72.184-205.86 72.184" fill="none" />
 </g>
 <path d="m799 798.4c-56.43 70.445-137.26 84.949-225.72 72.691-15.852-0.72656-33.727-0.77734-51.43-2.4102-75.547-6.9648-137.99-41.07-177.33-104.72-83.023-134.26-76.504-294.65 32.48-420.71 83.699-96.785 197.01-100.38 307.84-73.812 101.17 24.273 163.91 99.996 198.75 198.59 45.855 129.6-7.707 234.42-84.594 330.37zm130-314.48c-25.113-116.62-146.8-262.85-311.72-266.28-119.39-2.4102-227.02 21.402-292.89 133.2-24.562 41.797-50.191 85.953-60.82 132.36-30.574 133.31-5.5 256 95.84 354.48 56.992 55.383 128.38 77.242 197.79 72.293 92.07 11.188 173.4 4.7852 236.18-52.805 108.42-99.539 168.84-219.37 135.62-373.24" fill="#ff7881" />
 <path d="m379.76 601.3c6.5312-2.8867 14.113 0.29297 16.711 6.9336 33.98 87.027 92.957 145.51 186.45 160.68 90.75 14.738 152.55-25.594 196.99-93.773 13.914-21.34 46.539-1.3398 33.426 20.488-2.4336 4.0664-5.1055 7.9648-7.5 11.684-62.492 97.242-184.7 132.05-293.5 84.293-56.391-24.75-104.06-60.477-127.5-119.81-7.0391-17.816-9.1523-37.566-12.5-56.828-0.97656-5.6562 1.9766-11.25 7.2188-13.578 0.070313-0.03125 0.14453-0.0625 0.20703-0.09375" fill="#ff7881" />
 <path d="m492.47 409.54c13.305-26.008 51.773-25.457 63.328 1.3828 0.3125 0.72656 0.60156 1.4766 0.86328 2.2227 19.789 56.484 13 114.22-5.7617 169.18-11.348 33.242-39.938 32.984-59.926 3.2539-29.016-43.168-27.715-118.89 1.4961-176.04" fill="#ff7881" />
 <path d="m676.72 540.74c1.582-6.3125-1.6641-12.871-7.5312-15.707-41.109-19.918-41.609-24.605-23.711-67.129 10.379-24.668 22.66-48.543 35.184-73.461 6.4492-12.848 26.113-9.0859 26.82 5.2695 0.58594 11.59-3.9805 29.148-13.676 64.582-1.207 4.418 1.3633 8.9805 5.7734 10.23 8.5781 2.4297 17.367 4.9258 27.062 7.6797 12.914 3.6719 19.301 18.117 13.414 30.188-18.418 37.691-31.824 75.602-59.832 109.16-3.8164 4.5742-11.066 3.6914-13.613-1.6953-13.031-27.48 4.8242-48.148 10.109-69.121" fill="#ff7881" />
</svg>