<?xml version='1.0' encoding='utf-8'?>
<svg xmlns="http://www.w3.org/2000/svg" width="1587" height="1587" version="1.0" viewBox="0 0 1190.2 1190.2" zoomAndPan="magnify">
 <defs>
  <clipPath id="c" fill="none">
   <path d="m0 0h1189.5v1189.5h-1189.5z" fill="none" />
  </clipPath>
  <clipPath id="b" fill="none">
   <path d="m15.723 338h323.28v496h-323.28z" fill="none" />
  </clipPath>
  <clipPath id="a" fill="none">
   <path d="m839 334h335.49v503h-335.49z" fill="none" />
  </clipPath>
  <clipPath id="d" fill="none">
   <path d="m411 327.27h365v516.73h-365z" fill="none" />
  </clipPath>
 </defs>
 <g clip-path="url(#c)" fill="none">
  <path d="m0 0h1189.5v1189.5h-1189.5z" fill="none" />
  <path d="m0 0h1189.5v1189.5h-1189.5z" fill="none" />
 </g>
 <g clip-path="url(#b)">
  <path d="m15.723 338.32v484.57s241.72 39.379 286.45-36.828c44.727-76.207 51.215-337.49 0-387.52-51.219-50.031-286.45-60.223-286.45-60.223z" fill="none" />
 </g>
 <path d="m53.73 605.62c-5.5625 26.406 46.117 33.816 63.035 62.078 16.918 28.258 50.062 73.66 76.711 41.461 26.652-32.195 7.8828-50.266 15.066-78.988 7.1836-28.719 8.3438-48.18-8.5742-62.309-16.918-14.129-49.598-1.3906-69.992-2.7773-20.395-1.3906-66.977-2.0859-76.246 40.535z" />
 <path d="m310.26 655.02c0.027344 0.90234-0.027343 1.8047-0.15625 2.707-0.12891 0.90234-0.33203 1.8008-0.61328 2.6914-0.28125 0.89453-0.64062 1.7812-1.0703 2.6562-0.43359 0.875-0.9375 1.7383-1.5156 2.5898-0.57812 0.85156-1.2266 1.6836-1.9453 2.5s-1.5039 1.6133-2.3555 2.3867c-0.85156 0.77344-1.7656 1.5234-2.7422 2.25s-2.0117 1.4219-3.1055 2.0898c-1.0898 0.67188-2.2383 1.3086-3.4336 1.9141-1.1992 0.60547-2.4453 1.1797-3.7344 1.7148-1.293 0.53906-2.625 1.0391-4 1.5039-1.3711 0.46484-2.7812 0.88672-4.2227 1.2734-1.4414 0.38672-2.9102 0.73047-4.4023 1.0352-1.4961 0.30078-3.0117 0.5625-4.5469 0.78125-1.5391 0.21875-3.0859 0.39453-4.6445 0.52734-1.5625 0.13281-3.1289 0.21875-4.6992 0.26562-1.5703 0.042968-3.1367 0.042968-4.7031-0.003906-1.5664-0.046876-3.1211-0.13281-4.6641-0.26563-1.5469-0.13672-3.0742-0.3125-4.5859-0.53125-1.5078-0.22266-2.9961-0.48437-4.4531-0.78906-1.4609-0.30469-2.8906-0.64844-4.2891-1.0391-1.3945-0.38672-2.7539-0.8125-4.0742-1.2773-1.3203-0.46484-2.5938-0.96484-3.8242-1.5039-1.2305-0.53906-2.4102-1.1133-3.5391-1.7188-1.1289-0.60938-2.1992-1.2461-3.2148-1.918-1.0156-0.66797-1.9688-1.3672-2.8633-2.0938-0.89453-0.72266-1.7227-1.4766-2.4844-2.25-0.76172-0.77734-1.457-1.5703-2.082-2.3906-0.62109-0.81641-1.1758-1.6484-1.6562-2.5-0.47656-0.85156-0.88281-1.7148-1.2148-2.5898-0.33203-0.87891-0.58594-1.7617-0.76562-2.6562s-0.28125-1.793-0.30469-2.6953c-0.027343-0.90234 0.027344-1.8047 0.15625-2.707 0.12891-0.90234 0.33203-1.8008 0.61328-2.6953 0.28516-0.89062 0.64062-1.7773 1.0742-2.6523 0.42969-0.875 0.93359-1.7383 1.5117-2.5898 0.57812-0.85156 1.2266-1.6836 1.9453-2.5s1.5039-1.6133 2.3555-2.3867c0.85156-0.77344 1.7656-1.5234 2.7422-2.25 0.97656-0.72656 2.0117-1.4219 3.1055-2.0938 1.0898-0.66797 2.2383-1.3047 3.4336-1.9102 1.1992-0.60547 2.4453-1.1797 3.7383-1.7148 1.2891-0.53906 2.6211-1.0391 3.9961-1.5039 1.375-0.46484 2.7812-0.89062 4.2227-1.2734 1.4414-0.38672 2.9102-0.73047 4.4062-1.0352 1.4961-0.30469 3.0117-0.56641 4.5469-0.78516 1.5352-0.21875 3.082-0.39453 4.6406-0.52344 1.5625-0.13281 3.1289-0.22266 4.6992-0.26562 1.5703-0.042969 3.1367-0.042969 4.7031 0.003906 1.5664 0.042969 3.1211 0.13281 4.668 0.26562 1.543 0.13281 3.0703 0.3125 4.582 0.53125 1.5078 0.21875 2.9961 0.48438 4.457 0.78906 1.4609 0.30469 2.8867 0.64844 4.2852 1.0352s2.7539 0.8125 4.0742 1.2773c1.3203 0.46484 2.5938 0.96875 3.8242 1.5078 1.2305 0.53906 2.4102 1.1094 3.5391 1.7188 1.1289 0.60547 2.1992 1.2461 3.2148 1.9141 1.0156 0.67187 1.9727 1.3672 2.8633 2.0938 0.89453 0.72656 1.7227 1.4766 2.4844 2.2539 0.76172 0.77344 1.457 1.5703 2.082 2.3867 0.625 0.81641 1.1758 1.6523 1.6562 2.5039 0.48047 0.85156 0.88281 1.7148 1.2148 2.5898 0.33203 0.87891 0.58594 1.7617 0.76562 2.6562 0.17969 0.89453 0.28125 1.793 0.30469 2.6953z" />
 <path d="m151.79 463.16c0.85547 0.28516 1.6875 0.64062 2.4883 1.0703 0.80469 0.43359 1.5781 0.93359 2.3242 1.5039 0.74219 0.57031 1.4531 1.207 2.1289 1.9141 0.67578 0.70312 1.3164 1.4727 1.918 2.3086 0.60156 0.83203 1.1602 1.7266 1.6836 2.6797 0.52344 0.95312 1 1.9648 1.4375 3.0273 0.4375 1.0664 0.82812 2.1797 1.1758 3.3477 0.34766 1.1641 0.64844 2.375 0.90234 3.6289 0.25781 1.2578 0.46484 2.5508 0.625 3.8828 0.16016 1.332 0.26953 2.6992 0.33203 4.0938 0.066406 1.3984 0.078125 2.8203 0.046875 4.2695-0.035157 1.4492-0.11719 2.918-0.24609 4.4023-0.13281 1.4844-0.3125 2.9844-0.53906 4.4922-0.22266 1.5078-0.49609 3.0195-0.81641 4.5391-0.32031 1.5156-0.68359 3.0273-1.0938 4.5391s-0.86328 3.0117-1.3633 4.5c-0.49609 1.4922-1.0312 2.9648-1.6094 4.418-0.57812 1.457-1.1953 2.8867-1.8477 4.2891-0.65625 1.4062-1.3438 2.7812-2.0664 4.125-0.72656 1.3438-1.4805 2.6484-2.2695 3.9141-0.78516 1.2695-1.5977 2.4922-2.4414 3.6719-0.83984 1.1797-1.707 2.3086-2.5938 3.3906-0.89062 1.0781-1.7969 2.1055-2.7266 3.0742-0.92578 0.97266-1.8711 1.8828-2.8242 2.7344-0.95703 0.85156-1.9258 1.6406-2.9023 2.3633-0.98047 0.72656-1.9609 1.3828-2.9492 1.9766-0.98828 0.58984-1.9766 1.1094-2.9688 1.5586-0.98828 0.45312-1.9766 0.83203-2.957 1.1367-0.98047 0.30859-1.9531 0.53906-2.918 0.69922-0.96484 0.16016-1.9141 0.24609-2.8516 0.25781-0.9375 0.007812-1.8594-0.054688-2.7578-0.19141-0.90234-0.13672-1.7812-0.35156-2.6406-0.63672-0.85547-0.28516-1.6875-0.64062-2.4883-1.0703-0.80469-0.42969-1.5781-0.92969-2.3242-1.5-0.74219-0.57031-1.4531-1.2109-2.1289-1.9141-0.67578-0.70703-1.3164-1.4766-1.918-2.3086-0.60156-0.83594-1.1602-1.7305-1.6836-2.6836-0.52344-0.95312-1-1.9609-1.4375-3.0273-0.4375-1.0664-0.82813-2.1797-1.1758-3.3477-0.34766-1.1641-0.64844-2.375-0.90625-3.6289-0.25391-1.2578-0.46094-2.5508-0.62109-3.8828-0.16016-1.332-0.26953-2.6992-0.33203-4.0938-0.066406-1.3984-0.078125-2.8203-0.046875-4.2695 0.035156-1.4492 0.11719-2.9141 0.24609-4.4023 0.13281-1.4844 0.3125-2.9805 0.53906-4.4883 0.22266-1.5117 0.49609-3.0234 0.81641-4.5391 0.32031-1.5195 0.68359-3.0312 1.0938-4.543 0.41016-1.5117 0.86328-3.0117 1.3633-4.5 0.49609-1.4883 1.0312-2.9609 1.6094-4.418 0.57812-1.4531 1.1953-2.8828 1.8477-4.2891 0.65625-1.4062 1.3438-2.7812 2.0664-4.125 0.72656-1.3398 1.4805-2.6484 2.2656-3.9141 0.78906-1.2656 1.6016-2.4922 2.4453-3.6719 0.83984-1.1797 1.707-2.3086 2.5938-3.3867 0.89062-1.082 1.7969-2.1055 2.7266-3.0781 0.92578-0.96875 1.8672-1.8828 2.8242-2.7344 0.95703-0.85156 1.9258-1.6406 2.9023-2.3633 0.98047-0.72656 1.9609-1.3828 2.9492-1.9727 0.98828-0.58984 1.9766-1.1133 2.9688-1.5625 0.98828-0.45312 1.9727-0.82812 2.957-1.1367 0.98047-0.30469 1.9531-0.53906 2.918-0.69922 0.96484-0.16016 1.9141-0.24609 2.8516-0.25391 0.9375-0.011719 1.8594 0.050781 2.7578 0.1875 0.90234 0.14062 1.7812 0.35156 2.6406 0.63672z" />
 <path d="m313.49 562.21c0.32812 0.83984 0.58594 1.707 0.76953 2.6016 0.18359 0.89062 0.29297 1.8047 0.33203 2.7422 0.035156 0.9375 0 1.8906-0.10938 2.8594-0.10938 0.97266-0.29297 1.9531-0.55078 2.9492-0.25391 0.99609-0.58203 2-0.98438 3.0117-0.39844 1.0117-0.86719 2.0234-1.4062 3.043-0.53906 1.0156-1.1445 2.0312-1.8203 3.043-0.67578 1.0117-1.4102 2.0195-2.2148 3.0156-0.80078 1-1.6641 1.9883-2.5859 2.9648-0.92188 0.97266-1.8984 1.9336-2.9336 2.875-1.0352 0.94531-2.1172 1.8672-3.2539 2.7656-1.1367 0.90234-2.3164 1.7773-3.543 2.6289-1.2266 0.84766-2.4922 1.668-3.7969 2.4609-1.3047 0.79297-2.6406 1.5508-4.0117 2.2734-1.3711 0.72656-2.7695 1.4141-4.1914 2.0664-1.4258 0.65234-2.8672 1.2617-4.332 1.8359-1.4648 0.57031-2.9375 1.1016-4.4258 1.5859-1.4883 0.48828-2.9844 0.92969-4.4844 1.3281-1.5 0.39453-2.9961 0.74609-4.4922 1.0508-1.4961 0.30078-2.9805 0.55859-4.4609 0.76562-1.4766 0.20703-2.9375 0.36328-4.3828 0.47266-1.4453 0.10547-2.8672 0.16406-4.2695 0.17188-1.3984 0.011719-2.7656-0.03125-4.1055-0.12109-1.3398-0.09375-2.6445-0.23438-3.9141-0.42188-1.2656-0.19141-2.4922-0.42969-3.6719-0.71875-1.1836-0.28516-2.3203-0.62109-3.4062-1-1.0859-0.38281-2.1172-0.80859-3.0977-1.2812-0.98047-0.47266-1.9023-0.98438-2.7656-1.543-0.86328-0.55859-1.668-1.1562-2.4062-1.7969-0.73828-0.63672-1.4141-1.3125-2.0234-2.0273-0.60547-0.71094-1.1445-1.457-1.6172-2.2383-0.46875-0.78125-0.87109-1.5898-1.1992-2.4336-0.32812-0.83984-0.58594-1.707-0.76953-2.5977-0.18359-0.89453-0.29297-1.8086-0.33203-2.7461-0.039062-0.93359 0-1.8867 0.10938-2.8594 0.10938-0.96875 0.29297-1.9531 0.54688-2.9492 0.25781-0.99609 0.58594-2 0.98438-3.0078 0.39844-1.0117 0.87109-2.0273 1.4102-3.043 0.53906-1.0195 1.1445-2.0312 1.8203-3.0469 0.67188-1.0117 1.4102-2.0156 2.2109-3.0156 0.80469-1 1.6641-1.9883 2.5898-2.9609 0.92188-0.97656 1.8984-1.9375 2.9336-2.8789 1.0312-0.94141 2.1172-1.8633 3.2539-2.7656 1.1328-0.89844 2.3164-1.7773 3.5391-2.625 1.2266-0.85156 2.4922-1.6719 3.7969-2.4648 1.3047-0.78906 2.6445-1.5469 4.0156-2.2734 1.3711-0.72656 2.7656-1.4141 4.1914-2.0664 1.4219-0.64844 2.8672-1.2617 4.332-1.8359 1.4609-0.57031 2.9375-1.0977 4.4258-1.5859 1.4883-0.48828 2.9844-0.92969 4.4805-1.3281 1.5-0.39453 3-0.74609 4.4922-1.0469 1.4961-0.30469 2.9844-0.55859 4.4609-0.76562 1.4805-0.20703 2.9414-0.36719 4.3867-0.47266 1.4453-0.10938 2.8672-0.16797 4.2656-0.17578 1.4023-0.007812 2.7695 0.03125 4.1094 0.125 1.3398 0.089844 2.6445 0.23047 3.9102 0.42188 1.2695 0.1875 2.4922 0.42578 3.6758 0.71484 1.1836 0.28516 2.3164 0.62109 3.4023 1 1.0898 0.38281 2.1211 0.80859 3.1016 1.2812 0.98047 0.47266 1.9023 0.98828 2.7656 1.543 0.86328 0.55859 1.6641 1.1562 2.4062 1.7969 0.73828 0.63672 1.4141 1.3125 2.0195 2.0273 0.60938 0.71094 1.1484 1.4609 1.6211 2.2383 0.46875 0.78125 0.86719 1.5938 1.1992 2.4336z" />
 <path d="m247.41 480.22c0.71484 0.55078 1.3789 1.1602 1.9961 1.832 0.62109 0.67187 1.1836 1.3984 1.6992 2.1836 0.51172 0.78125 0.97266 1.6172 1.3789 2.5078 0.40625 0.88672 0.75391 1.8242 1.0469 2.8086 0.29297 0.98828 0.53125 2.0156 0.70703 3.0898 0.17969 1.0703 0.29688 2.1836 0.35938 3.332 0.0625 1.1484 0.0625 2.332 0.007812 3.5469-0.058593 1.2148-0.17187 2.457-0.34766 3.7266-0.17188 1.2656-0.40234 2.5586-0.69141 3.8672-0.28906 1.3125-0.63281 2.6367-1.0352 3.9766-0.39844 1.3398-0.85547 2.6875-1.3633 4.0469-0.51172 1.3555-1.0742 2.7109-1.6875 4.0703-0.61328 1.3633-1.2734 2.7148-1.9844 4.0664-0.71094 1.3477-1.4688 2.6875-2.2734 4.0156-0.80078 1.3242-1.6445 2.6328-2.5312 3.9258-0.88281 1.2891-1.8047 2.5586-2.7656 3.8008-0.96094 1.2422-1.9531 2.457-2.9805 3.6406-1.0234 1.1797-2.0781 2.3281-3.1602 3.4414-1.0781 1.1094-2.1836 2.1797-3.3086 3.2109-1.1289 1.0273-2.2695 2.0117-3.4336 2.9492-1.1602 0.9375-2.332 1.8242-3.5156 2.6602-1.1836 0.83594-2.3711 1.6172-3.5664 2.3438-1.1953 0.73047-2.3945 1.3984-3.5898 2.0078-1.1953 0.61328-2.3828 1.1602-3.5703 1.6523-1.1836 0.48828-2.3555 0.91406-3.5195 1.2734-1.1602 0.36328-2.3047 0.66016-3.4336 0.89062-1.1289 0.23438-2.2344 0.39844-3.3164 0.5-1.082 0.097656-2.1367 0.13281-3.168 0.097656-1.0273-0.035156-2.0234-0.13672-2.9844-0.30078-0.96484-0.16797-1.8906-0.40234-2.7773-0.69922-0.88672-0.30078-1.7344-0.66016-2.543-1.0898-0.80469-0.42578-1.5625-0.91406-2.2773-1.4688-0.71484-0.55078-1.3828-1.1602-2-1.832-0.61719-0.67188-1.1836-1.3984-1.6992-2.1836-0.51172-0.78125-0.97266-1.6172-1.3789-2.5078-0.40234-0.88672-0.75391-1.8242-1.0469-2.8086-0.29297-0.98828-0.52734-2.0156-0.70703-3.0898-0.17578-1.0703-0.29687-2.1836-0.35937-3.332-0.058594-1.1484-0.0625-2.332-0.003907-3.5469 0.054688-1.2148 0.16797-2.457 0.34375-3.7266 0.17188-1.2656 0.40234-2.5586 0.69141-3.8672 0.28906-1.3125 0.63281-2.6367 1.0352-3.9766 0.40234-1.3398 0.85547-2.6875 1.3672-4.0469 0.50781-1.3555 1.0703-2.7109 1.6836-4.0703 0.61328-1.3633 1.2773-2.7148 1.9883-4.0664 0.71094-1.3477 1.4648-2.6875 2.2695-4.0156 0.80078-1.3242 1.6445-2.6328 2.5312-3.9258 0.88672-1.2891 1.8086-2.5586 2.7695-3.8008 0.95703-1.2422 1.9492-2.457 2.9766-3.6406 1.0273-1.1797 2.0781-2.3281 3.1602-3.4414 1.082-1.1094 2.1836-2.1797 3.3125-3.2109 1.125-1.0273 2.2695-2.0117 3.4297-2.9492s2.332-1.8242 3.5156-2.6602c1.1836-0.83594 2.375-1.6172 3.5703-2.3438 1.1953-0.73047 2.3906-1.3984 3.5859-2.0078 1.1953-0.61328 2.3867-1.1602 3.5703-1.6523 1.1836-0.48828 2.3594-0.91406 3.5195-1.2734 1.1602-0.36328 2.3047-0.66016 3.4336-0.89062 1.1289-0.23438 2.2344-0.39844 3.3164-0.5 1.082-0.097657 2.1406-0.13281 3.168-0.097657 1.0273 0.035157 2.0234 0.13672 2.9844 0.30078 0.96484 0.16797 1.8906 0.40234 2.7773 0.69922 0.89062 0.30078 1.7383 0.66016 2.543 1.0898 0.80469 0.42578 1.5664 0.91406 2.2812 1.4688z" />
 <g clip-path="url(#a)">
  <path d="m1095.7 458.07c2.5508 3.0117 78.797-19.688 78.797-19.688s-31.75-105.86-149.71-103.77c-100.58 1.8555-198.38 93.348-184.02 241.59 14.371 148.25 69.758 269.16 195.83 260.12 126.07-9.2656 124.92-260.12 124.92-260.12l-135.34 6.7188-3.9414 52.348 72.309 9.2656s-29.203 112.57-80.422 93.348c-73.465-27.562-85.285-170.95-69.293-235.34 10.66-44.473 81.113-129.95 150.87-44.473z" fill="none" />
 </g>
 <g clip-path="url(#d)">
  <path d="m775.41 585.7c0 4.2266-0.074218 8.4531-0.22266 12.672-0.14453 4.2227-0.36328 8.4375-0.65625 12.645-0.29297 4.207-0.65625 8.3984-1.0938 12.582-0.4375 4.1797-0.94922 8.3438-1.5312 12.488-0.57812 4.1445-1.2344 8.2695-1.957 12.367-0.72266 4.1016-1.5195 8.1758-2.3828 12.219-0.86719 4.0469-1.8008 8.0586-2.8047 12.035-1.0078 3.9805-2.0781 7.9258-3.2188 11.828-1.1406 3.9062-2.3477 7.7695-3.625 11.59-1.2734 3.8203-2.6133 7.5938-4.0195 11.324-1.4062 3.7266-2.875 7.4023-4.4062 11.027s-3.1289 7.1953-4.7852 10.711-3.3711 6.9688-5.1445 10.363c-1.7773 3.3945-3.6094 6.7266-5.5039 9.9961-1.8906 3.2656-3.8359 6.4648-5.8398 9.5977-2 3.1328-4.0547 6.1914-6.1641 9.1797s-4.2656 5.9023-6.4766 8.7422c-2.207 2.8398-4.4648 5.5977-6.7695 8.2812-2.3047 2.6797-4.6523 5.2812-7.0469 7.7969-2.3945 2.5195-4.832 4.9531-7.3086 7.3008-2.4805 2.3477-5 4.6094-7.5547 6.7812-2.5586 2.1719-5.1523 4.2539-7.7812 6.2461-2.6289 1.9961-5.2891 3.8945-7.9844 5.7031-2.6953 1.8047-5.418 3.5195-8.1758 5.1367-2.7539 1.6172-5.5312 3.1367-8.3398 4.5625-2.8086 1.4219-5.6367 2.7461-8.4883 3.9766-2.8555 1.2266-5.7266 2.3516-8.6172 3.3789-2.8945 1.0273-5.8008 1.9531-8.7266 2.7773-2.9219 0.82422-5.8594 1.5469-8.8086 2.168-2.9492 0.62109-5.9062 1.1367-8.8711 1.5508-2.9688 0.41406-5.9414 0.72656-8.918 0.93359-2.9766 0.20703-5.957 0.3125-8.9375 0.3125-2.9805 0-5.9609-0.10547-8.9375-0.3125-2.9766-0.20703-5.9492-0.51953-8.918-0.93359-2.9648-0.41406-5.9258-0.92969-8.875-1.5508-2.9453-0.62109-5.8828-1.3438-8.8086-2.168-2.9219-0.82422-5.832-1.75-8.7227-2.7773-2.8906-1.0273-5.7656-2.1523-8.6172-3.3789-2.8516-1.2305-5.6836-2.5547-8.4883-3.9766-2.8086-1.4258-5.5898-2.9453-8.3438-4.5625-2.7539-1.6172-5.4766-3.332-8.1719-5.1367-2.6953-1.8086-5.3555-3.707-7.9883-5.7031-2.6289-1.9922-5.2188-4.0742-7.7773-6.2461-2.5586-2.1719-5.0742-4.4336-7.5547-6.7812-2.4766-2.3477-4.9141-4.7812-7.3086-7.3008-2.3945-2.5156-4.7461-5.1172-7.0469-7.7969-2.3047-2.6836-4.5625-5.4414-6.7734-8.2812-2.207-2.8398-4.3672-5.7539-6.4727-8.7422-2.1094-2.9883-4.1641-6.0469-6.168-9.1797-2-3.1328-3.9453-6.332-5.8398-9.5977-1.8906-3.2695-3.7227-6.6016-5.5-9.9961-1.7734-3.3945-3.4922-6.8477-5.1484-10.363s-3.25-7.0859-4.7812-10.711c-1.5352-3.625-3.0039-7.3008-4.4062-11.027-1.4062-3.7305-2.7461-7.5039-4.0195-11.324-1.2773-3.8203-2.4844-7.6836-3.625-11.59-1.1406-3.9023-2.2148-7.8477-3.2188-11.828-1.0039-3.9766-1.9375-7.9883-2.8047-12.035-0.86328-4.043-1.6602-8.1172-2.3828-12.219-0.72656-4.0977-1.3789-8.2227-1.9609-12.367-0.58203-4.1445-1.0898-8.3086-1.5273-12.488-0.4375-4.1836-0.80078-8.375-1.0938-12.582-0.29297-4.207-0.51172-8.4219-0.65625-12.645-0.14844-4.2188-0.22266-8.4453-0.22266-12.672s0.074219-8.4492 0.22266-12.672c0.14453-4.2227 0.36328-8.4375 0.65625-12.641 0.29297-4.207 0.65625-8.4023 1.0938-12.582 0.4375-4.1836 0.94531-8.3438 1.5273-12.492 0.58203-4.1445 1.2344-8.2656 1.9609-12.367 0.72266-4.1016 1.5195-8.1719 2.3828-12.219 0.86719-4.043 1.8008-8.0547 2.8047-12.035 1.0039-3.9805 2.0781-7.9219 3.2188-11.828 1.1406-3.9023 2.3477-7.7656 3.625-11.59 1.2734-3.8203 2.6133-7.5938 4.0195-11.32 1.4023-3.7305 2.8711-7.4062 4.4062-11.031 1.5312-3.625 3.125-7.1953 4.7812-10.711 1.6562-3.5117 3.375-6.9688 5.1484-10.363 1.7773-3.3945 3.6094-6.7266 5.5-9.9922 1.8945-3.2695 3.8398-6.4688 5.8398-9.5977 2.0039-3.1328 4.0586-6.1953 6.168-9.1836 2.1055-2.9883 4.2656-5.9023 6.4727-8.7383 2.2109-2.8398 4.4688-5.6016 6.7734-8.2812 2.3008-2.6836 4.6523-5.2812 7.0469-7.8008 2.3945-2.5156 4.832-4.9492 7.3086-7.2969 2.4805-2.3477 4.9961-4.6094 7.5547-6.7812 2.5586-2.1758 5.1484-4.2578 7.7773-6.25 2.6328-1.9922 5.293-3.8906 7.9883-5.6992 2.6953-1.8086 5.418-3.5195 8.1719-5.1367 2.7539-1.6172 5.5352-3.1406 8.3438-4.5625 2.8047-1.4258 5.6367-2.75 8.4883-3.9766 2.8555-1.2266 5.7266-2.3555 8.6172-3.3828 2.8906-1.0273 5.8008-1.9531 8.7227-2.7773 2.9258-0.82422 5.8633-1.5469 8.8086-2.1641 2.9492-0.62109 5.9102-1.1406 8.875-1.5547 2.9688-0.41406 5.9414-0.72266 8.918-0.92969 2.9766-0.21094 5.957-0.3125 8.9375-0.3125 2.9805 0 5.9609 0.10156 8.9375 0.3125 2.9766 0.20703 5.9492 0.51562 8.918 0.92969 2.9648 0.41406 5.9219 0.93359 8.8711 1.5547 2.9492 0.61719 5.8867 1.3398 8.8086 2.1641 2.9258 0.82422 5.832 1.75 8.7266 2.7773 2.8906 1.0273 5.7617 2.1562 8.6172 3.3828 2.8516 1.2266 5.6797 2.5508 8.4883 3.9766 2.8086 1.4219 5.5859 2.9453 8.3398 4.5625 2.7578 1.6172 5.4805 3.3281 8.1758 5.1367 2.6953 1.8086 5.3555 3.707 7.9844 5.6992 2.6289 1.9922 5.2227 4.0742 7.7812 6.25 2.5547 2.1719 5.0742 4.4336 7.5547 6.7812 2.4766 2.3477 4.9141 4.7812 7.3086 7.2969 2.3945 2.5195 4.7422 5.1172 7.0469 7.8008 2.3047 2.6797 4.5625 5.4414 6.7695 8.2812 2.2109 2.8359 4.3672 5.75 6.4766 8.7383s4.1641 6.0508 6.1641 9.1836c2.0039 3.1289 3.9492 6.3281 5.8398 9.5977 1.8945 3.2656 3.7266 6.5977 5.5039 9.9922 1.7734 3.3945 3.4883 6.8516 5.1445 10.363 1.6562 3.5156 3.2539 7.0859 4.7852 10.711s3 7.3008 4.4062 11.031c1.4062 3.7266 2.7461 7.5 4.0195 11.32 1.2773 3.8242 2.4844 7.6875 3.625 11.59 1.1406 3.9062 2.2109 7.8477 3.2188 11.828 1.0039 3.9805 1.9375 7.9922 2.8047 12.035 0.86328 4.0469 1.6602 8.1172 2.3828 12.219 0.72266 4.1016 1.3789 8.2227 1.957 12.367 0.58203 4.1484 1.0938 8.3086 1.5312 12.492 0.4375 4.1797 0.80078 8.375 1.0938 12.582 0.29297 4.2031 0.51172 8.418 0.65625 12.641 0.14844 4.2227 0.22266 8.4453 0.22266 12.672z" fill="none" />
 </g>
 <path d="m555.48 713.57c22.945 14.359 47.742-31.504 79.957-37.527 32.215-6.0195 86.445-21.309 65.355-57.676-21.09-36.133-44.266-24.785-69.062-41.461-24.566-16.91-42.414-24.555-61.418-13.434-19.004 11.117-18.539 46.094-26.648 64.625-8.1133 18.531-25.262 62.309 11.816 85.473z" />
 <path d="m690.32 490.13c0.85547 0.28906 1.6836 0.65234 2.4883 1.082 0.80078 0.43359 1.5742 0.9375 2.3164 1.5117 0.74219 0.57422 1.4492 1.2148 2.1211 1.9219 0.67188 0.70703 1.3086 1.4805 1.9062 2.3164 0.60156 0.83594 1.1602 1.7305 1.6758 2.6875 0.51953 0.95703 0.99219 1.9648 1.4258 3.0312 0.43359 1.0703 0.82031 2.1836 1.1641 3.3516 0.34375 1.168 0.64062 2.3789 0.89062 3.6367 0.25 1.2539 0.45312 2.5508 0.60547 3.8828 0.15625 1.332 0.26172 2.6992 0.32031 4.0977 0.058594 1.3945 0.066406 2.8203 0.027344 4.2656-0.039063 1.4492-0.12891 2.918-0.26172 4.4023-0.13672 1.4844-0.32422 2.9805-0.55469 4.4883-0.23047 1.5078-0.51172 3.0195-0.83594 4.5352s-0.69531 3.0273-1.1133 4.5391c-0.41406 1.5078-0.875 3.0078-1.375 4.4922-0.50391 1.4883-1.0469 2.9609-1.6289 4.4141-0.58594 1.4492-1.207 2.8789-1.8672 4.2812-0.66016 1.4023-1.3516 2.7773-2.082 4.1172s-1.4883 2.6406-2.2812 3.9062c-0.78906 1.2617-1.6094 2.4844-2.457 3.6602-0.84375 1.1758-1.7148 2.3008-2.6094 3.3789-0.89062 1.0781-1.8047 2.0977-2.7344 3.0664-0.92969 0.96875-1.8789 1.875-2.8359 2.7227-0.96094 0.84766-1.9336 1.6328-2.9102 2.3555-0.98047 0.71875-1.9688 1.375-2.957 1.9609-0.99219 0.58594-1.9844 1.1016-2.9727 1.5508-0.99219 0.44531-1.9805 0.82031-2.9648 1.125-0.98047 0.30078-1.957 0.53125-2.918 0.6875-0.96484 0.15625-1.918 0.23828-2.8555 0.24219-0.9375 0.007812-1.8555-0.058594-2.7578-0.19922-0.89844-0.14062-1.7773-0.35547-2.6328-0.64453-0.85938-0.28906-1.6875-0.64844-2.4883-1.082-0.80469-0.43359-1.5742-0.9375-2.3164-1.5117-0.74219-0.57031-1.4492-1.2109-2.1211-1.9219-0.67578-0.70703-1.3125-1.4766-1.9102-2.3125-0.59766-0.83984-1.1562-1.7344-1.6758-2.6914-0.51562-0.95312-0.99219-1.9648-1.4258-3.0312-0.42969-1.0664-0.82031-2.1836-1.1602-3.3516-0.34375-1.168-0.64062-2.3789-0.89062-3.6328-0.25-1.2578-0.45312-2.5547-0.60938-3.8867-0.15234-1.332-0.25781-2.6992-0.31641-4.0938-0.058594-1.3984-0.070313-2.8203-0.027344-4.2695 0.039062-1.4492 0.125-2.9141 0.26172-4.4023 0.13672-1.4844 0.32031-2.9805 0.55469-4.4883 0.23047-1.5078 0.50781-3.0195 0.83594-4.5352 0.32422-1.5156 0.69531-3.0273 1.1094-4.5352 0.41797-1.5117 0.875-3.0078 1.3789-4.4961 0.50391-1.4883 1.0469-2.9609 1.6289-4.4102 0.58203-1.4531 1.207-2.8828 1.8633-4.2852 0.66016-1.4023 1.3555-2.7734 2.0859-4.1133 0.72656-1.3438 1.4883-2.6445 2.2773-3.9102 0.79297-1.2617 1.6133-2.4844 2.457-3.6602 0.84766-1.1758 1.7188-2.3008 2.6094-3.3789 0.89453-1.0781 1.8047-2.0977 2.7383-3.0664 0.92969-0.96484 1.875-1.875 2.8359-2.7227 0.96094-0.84766 1.9297-1.6328 2.9102-2.3516 0.98047-0.72266 1.9648-1.375 2.957-1.9648 0.99219-0.58594 1.9805-1.1016 2.9727-1.5508 0.99219-0.44531 1.9805-0.82031 2.9609-1.1211 0.98438-0.30469 1.957-0.53516 2.9219-0.69141 0.96484-0.15625 1.918-0.23438 2.8555-0.24219 0.9375-0.007812 1.8555 0.058594 2.7578 0.19922 0.89844 0.14062 1.7773 0.35547 2.6328 0.64453z" />
 <path d="m510.36 580.75c1.2266 0.98438 2.4219 1.9961 3.5898 3.0391 1.1641 1.0469 2.293 2.1211 3.3867 3.2188 1.0938 1.1016 2.1445 2.2227 3.1562 3.3633 1.0117 1.1445 1.9727 2.3047 2.8906 3.4805 0.91797 1.1758 1.7852 2.3633 2.6016 3.5586 0.81641 1.1992 1.5781 2.4023 2.2852 3.6094s1.3555 2.4141 1.9453 3.6172c0.58984 1.207 1.1211 2.4062 1.5898 3.5977 0.46875 1.1914 0.875 2.3711 1.2148 3.5391 0.34375 1.168 0.62109 2.3164 0.83203 3.4453 0.21484 1.1328 0.35938 2.2422 0.44141 3.3242 0.082032 1.0859 0.09375 2.1406 0.042969 3.168-0.050781 1.0234-0.16797 2.0195-0.35156 2.9766-0.18359 0.96094-0.43359 1.8828-0.74609 2.7656-0.31641 0.88281-0.69141 1.7227-1.1328 2.5195-0.44141 0.79688-0.94531 1.5508-1.5078 2.2539-0.56641 0.70703-1.1875 1.3594-1.8711 1.9648-0.67969 0.60547-1.418 1.1602-2.2109 1.6602s-1.6367 0.94531-2.5312 1.3359c-0.89844 0.38672-1.8398 0.72266-2.832 0.99609-0.99219 0.27734-2.0234 0.49609-3.1016 0.65234-1.0742 0.16016-2.1875 0.26172-3.3398 0.30078-1.1484 0.042969-2.332 0.023438-3.5469-0.050781-1.2148-0.078125-2.4531-0.21484-3.7227-0.41016-1.2656-0.19531-2.5508-0.44922-3.8594-0.75781-1.3047-0.3125-2.625-0.67969-3.957-1.1016-1.3359-0.42578-2.6758-0.90234-4.0234-1.4375-1.3477-0.53125-2.6992-1.1172-4.0469-1.7539-1.3516-0.63672-2.6953-1.3203-4.0312-2.0547-1.3398-0.73438-2.6641-1.5117-3.9766-2.3359s-2.6094-1.6914-3.8867-2.5977c-1.2734-0.91016-2.5273-1.8516-3.7539-2.832-1.2266-0.98047-2.4219-1.9961-3.5898-3.0391-1.1641-1.0469-2.293-2.1172-3.3867-3.2188-1.0938-1.0977-2.1445-2.2188-3.1562-3.3633-1.0117-1.1445-1.9766-2.3047-2.8945-3.4805-0.91406-1.1758-1.7812-2.3633-2.5977-3.5586-0.81641-1.1992-1.5781-2.3984-2.2852-3.6094-0.70703-1.207-1.3555-2.4102-1.9453-3.6172-0.58984-1.207-1.1211-2.4062-1.5898-3.5977s-0.875-2.3711-1.2148-3.5391c-0.34375-1.1641-0.62109-2.3164-0.83203-3.4453-0.21484-1.1328-0.35938-2.2383-0.44141-3.3242-0.082031-1.082-0.097656-2.1406-0.042969-3.1641 0.050781-1.0273 0.16797-2.0195 0.35156-2.9805 0.18359-0.96094 0.43359-1.8789 0.74609-2.7617 0.31641-0.88281 0.69141-1.7266 1.1328-2.5234s0.94531-1.5469 1.5078-2.2539c0.56641-0.70312 1.1875-1.3594 1.8711-1.9648 0.67969-0.60547 1.418-1.1602 2.2109-1.6602 0.79297-0.5 1.6367-0.94531 2.5312-1.332 0.89844-0.39063 1.8398-0.72266 2.832-1 0.98828-0.27734 2.0234-0.49219 3.0977-0.65234 1.0781-0.16016 2.1914-0.26172 3.3438-0.30078 1.1484-0.042968 2.332-0.023437 3.5469 0.054688 1.2148 0.074219 2.4531 0.21094 3.7227 0.40625 1.2656 0.19531 2.5508 0.44922 3.8594 0.75781 1.3047 0.3125 2.625 0.67969 3.957 1.1055 1.3359 0.42188 2.6758 0.90234 4.0234 1.4336s2.6953 1.1172 4.0469 1.7539c1.3477 0.63672 2.6914 1.3203 4.0312 2.0547 1.3359 0.73438 2.6641 1.5156 3.9766 2.3398 1.3125 0.82422 2.6094 1.6875 3.8867 2.5977 1.2734 0.90625 2.5273 1.8477 3.7539 2.8281z" />
 <path d="m632.88 502.47c0.03125 1.5703 0.015625 3.1367-0.039062 4.7031-0.058594 1.5625-0.16016 3.1172-0.30859 4.6602-0.14453 1.543-0.33594 3.0664-0.56641 4.5742-0.23438 1.5078-0.50781 2.9922-0.82422 4.4492s-0.67578 2.8828-1.0742 4.2734c-0.39844 1.3945-0.83594 2.75-1.3125 4.0625-0.47656 1.3164-0.98828 2.5859-1.5352 3.8125-0.55078 1.2227-1.1328 2.3984-1.75 3.5195-0.61719 1.125-1.2656 2.1914-1.9414 3.1992-0.67969 1.0117-1.3867 1.9609-2.1211 2.8477-0.73047 0.88672-1.4883 1.707-2.2734 2.4609-0.78125 0.75781-1.582 1.4453-2.4062 2.0625-0.82031 0.61719-1.6602 1.1602-2.5156 1.6328-0.85547 0.47266-1.7227 0.87109-2.6016 1.1953s-1.7695 0.57031-2.6641 0.74219c-0.89453 0.17188-1.793 0.26563-2.6992 0.28516-0.90234 0.015625-1.8047-0.042969-2.707-0.17969-0.89844-0.13281-1.7969-0.34766-2.6875-0.63672-0.89453-0.28906-1.7773-0.65234-2.6484-1.0898-0.875-0.44141-1.7344-0.95312-2.5781-1.5352-0.84766-0.58594-1.6758-1.2383-2.4883-1.9648-0.80859-0.72266-1.5977-1.5156-2.3672-2.3711-0.76953-0.85938-1.5117-1.7773-2.2266-2.7617-0.71875-0.98047-1.4102-2.0195-2.0703-3.1172-0.66016-1.0977-1.2891-2.25-1.8828-3.4531-0.59766-1.2031-1.1602-2.4492-1.6875-3.7461s-1.0195-2.6328-1.4688-4.0078c-0.45312-1.375-0.86719-2.7852-1.2422-4.2305-0.375-1.4414-0.70703-2.9141-1-4.4102-0.28906-1.5-0.53906-3.0156-0.74609-4.5508-0.20703-1.5391-0.37109-3.0859-0.48828-4.6445-0.12109-1.5625-0.19531-3.1289-0.22656-4.6992-0.03125-1.5703-0.015625-3.1367 0.042969-4.6992 0.054687-1.5664 0.15625-3.1211 0.30469-4.6641 0.14453-1.543 0.33594-3.0664 0.56641-4.5742 0.23438-1.5078 0.50781-2.9922 0.82422-4.4492 0.31641-1.457 0.67578-2.8828 1.0742-4.2734 0.39844-1.3945 0.83594-2.75 1.3125-4.0625 0.47656-1.3164 0.98828-2.5859 1.5352-3.8125 0.55078-1.2227 1.1328-2.3984 1.75-3.5195 0.61719-1.125 1.2656-2.1914 1.9414-3.1992 0.67969-1.0117 1.3867-1.957 2.1211-2.8438s1.4922-1.7109 2.2734-2.4648c0.78125-0.75781 1.582-1.4414 2.4062-2.0586 0.82031-0.61719 1.6602-1.1641 2.5156-1.6367 0.85547-0.47266 1.7227-0.87109 2.6016-1.1953 0.87891-0.32422 1.7695-0.57031 2.6641-0.74219 0.89453-0.17188 1.7969-0.26562 2.6992-0.28516 0.90234-0.015624 1.8047 0.042969 2.707 0.17969 0.90234 0.13672 1.7969 0.34766 2.6875 0.63672 0.89453 0.28906 1.7773 0.65234 2.6484 1.0898 0.875 0.44141 1.7344 0.95313 2.5781 1.5352 0.84766 0.58594 1.6758 1.2422 2.4883 1.9648 0.80859 0.72266 1.5977 1.5156 2.3672 2.375 0.76953 0.85547 1.5117 1.7773 2.2305 2.7578 0.71484 0.98047 1.4062 2.0234 2.0664 3.1211 0.66016 1.0977 1.2891 2.2461 1.8828 3.4492 0.59766 1.2031 1.1602 2.4492 1.6875 3.7461 0.52734 1.2969 1.0195 2.6328 1.4727 4.0078 0.44922 1.375 0.86328 2.7852 1.2383 4.2305 0.375 1.4453 0.70703 2.9141 1 4.4102 0.28906 1.5 0.53906 3.0156 0.74609 4.5508 0.20703 1.5391 0.37109 3.0859 0.48828 4.6484 0.12109 1.5586 0.19531 3.125 0.22656 4.6953z" />
 <path d="m553.32 514.79c0.83594 1.332 1.6328 2.6797 2.3867 4.0508 0.75781 1.3711 1.4688 2.7578 2.1406 4.1562 0.66797 1.3984 1.293 2.8008 1.8672 4.2148 0.57812 1.4102 1.1055 2.8242 1.5859 4.2383 0.47656 1.4102 0.90625 2.8164 1.2812 4.2148 0.375 1.4023 0.69922 2.7852 0.96484 4.1602 0.26953 1.3711 0.48438 2.7266 0.64453 4.0586 0.16016 1.332 0.26563 2.6367 0.31641 3.918 0.046875 1.2812 0.042969 2.5273-0.019531 3.7422-0.0625 1.2148-0.17969 2.3906-0.35156 3.5273-0.17188 1.1406-0.39844 2.2344-0.67969 3.2852-0.28125 1.0469-0.61719 2.0508-1.0039 3-0.38672 0.95312-0.82422 1.8516-1.3164 2.6992-0.48828 0.84375-1.0273 1.6328-1.6133 2.3633-0.58984 0.73047-1.2227 1.3984-1.9023 2.0039-0.67969 0.60938-1.4023 1.1523-2.168 1.6328-0.76562 0.48047-1.5664 0.89453-2.4102 1.2422-0.84375 0.34375-1.7227 0.625-2.6367 0.83594-0.91406 0.21094-1.8555 0.35156-2.832 0.42578-0.97266 0.074218-1.9727 0.074218-3 0.011718-1.0273-0.066406-2.0742-0.20312-3.1445-0.40625-1.0664-0.20312-2.1523-0.47656-3.25-0.81641-1.1016-0.33984-2.2109-0.74609-3.332-1.2188-1.1211-0.47266-2.25-1.0117-3.3789-1.6133-1.1328-0.60156-2.2617-1.2617-3.3945-1.9883-1.1289-0.72266-2.2539-1.5039-3.375-2.3438s-2.2266-1.7344-3.3242-2.6797c-1.0977-0.94922-2.1797-1.9453-3.2422-2.9883-1.0664-1.0469-2.1055-2.1367-3.1289-3.2695-1.0195-1.1328-2.0156-2.3047-2.9844-3.5156-0.96875-1.2109-1.9023-2.457-2.8086-3.7344s-1.7773-2.5781-2.6133-3.9102c-0.83594-1.3281-1.6289-2.6797-2.3867-4.0508-0.75391-1.3711-1.4688-2.7578-2.1367-4.1523-0.67188-1.3984-1.293-2.8047-1.8711-4.2188-0.57812-1.4102-1.1055-2.8242-1.582-4.2344-0.48047-1.4141-0.90625-2.8203-1.2812-4.2188-0.375-1.3984-0.69922-2.7852-0.96875-4.1602-0.26953-1.3711-0.48438-2.7227-0.64453-4.0547-0.16016-1.3359-0.26562-2.6406-0.3125-3.9219-0.050781-1.2773-0.042969-2.5273 0.019531-3.7422 0.058594-1.2148 0.17578-2.3906 0.34766-3.5273 0.17578-1.1367 0.40234-2.2305 0.68359-3.2812 0.28125-1.0508 0.61328-2.0508 1-3.0039 0.39062-0.95312 0.82812-1.8516 1.3164-2.6992 0.49219-0.84375 1.0273-1.6328 1.6172-2.3594 0.58594-0.73047 1.2227-1.4023 1.8984-2.0078 0.67969-0.60938 1.4023-1.1523 2.168-1.6328 0.76562-0.48047 1.5703-0.89062 2.4141-1.2383 0.84375-0.34766 1.7227-0.62891 2.6328-0.83984 0.91406-0.21094 1.8594-0.35156 2.832-0.42578 0.97656-0.070312 1.9766-0.074218 3.0039-0.007812 1.0273 0.0625 2.0742 0.19922 3.1406 0.40234 1.0703 0.20312 2.1523 0.47656 3.2539 0.81641 1.0977 0.33984 2.2109 0.74609 3.332 1.2188 1.1211 0.47656 2.2461 1.0117 3.3789 1.6133 1.1289 0.60156 2.2617 1.2656 3.3945 1.9883 1.1289 0.72266 2.2539 1.5039 3.375 2.3438 1.1172 0.83984 2.2266 1.7344 3.3242 2.6797 1.0977 0.94922 2.1758 1.9453 3.2422 2.9883 1.0625 1.0469 2.1055 2.1367 3.125 3.2695 1.0234 1.1328 2.0156 2.3086 2.9844 3.5195 0.96875 1.2109 1.9062 2.4531 2.8125 3.7305s1.7773 2.582 2.6094 3.9102z" />
</svg>