<?xml version="1.0" encoding="UTF-8"?>
<svg width="1587" height="1587" version="1.0" viewBox="0 0 1190.2 1190.2" xmlns="http://www.w3.org/2000/svg" zoomAndPan="magnify">
 <defs>
  <clipPath id="a">
   <path d="m0 0h1189.5v1189.5h-1189.5z"/>
  </clipPath>
  <clipPath id="b">
   <path d="m0 281.49h494v372.51h-494z"/>
  </clipPath>
  <clipPath id="c">
   <path d="m98 709h114v76.922h-114z"/>
  </clipPath>
 </defs>
 <g clip-path="url(#a)" fill="#fff">
  <path d="m0 0h1189.5v1189.5h-1189.5z"/>
  <path d="m0 0h1189.5v1189.5h-1189.5z"/>
 </g>
 <path d="m918.45 620.17c-16.141 0-31.707-8.3633-43.855-23.551-9.1953-11.516-16.016-25.543-21.449-44.133-4.2266-14.73-7.168-29.711-8.832-44.945-9.3789 9.5547-20.023 17.387-31.938 23.492-1.1172 3.168-2.1641 6.4609-3.2695 9.918-2.8086 8.9688-5.8164 18.25-10.5 27.277-12.035 23.195-30.375 36.52-50.316 36.52-18.094 0-35.219-10.816-48.207-30.441-3.4414-5.2969-6.4727-10.816-9.0859-16.566-14.988 21.238-34.102 34.891-57.09 40.688-7.2109 1.8086-14.535 2.7148-21.973 2.7148-34.195 0-65.301-19.207-83.191-51.371-10.301-18.512-16.316-34.926-18.387-50.172-1.6445-12.211-1.9688-24.457-0.97266-36.738 0.99609-12.281 3.2891-24.316 6.8828-36.102 8.2539-26.809 20.168-47.758 36.418-64.023 10.77-10.785 22.113-17.789 34.656-21.453 5.1992-1.5195 10.504-2.2852 15.922-2.3008 22.91 0 42.824 14.84 51.973 38.727 8.5625 22.352 8.1602 46.23-1.1875 70.953-13.047 34.531-36.586 58.598-70.07 71.707 2.0312 2.4961 4.3359 4.707 6.9102 6.6367 2.5742 1.9336 5.3438 3.5234 8.3086 4.7773 4.2461 1.8516 8.6875 2.7891 13.32 2.8086 10.855 0 21.129-5.5156 28.922-15.516 8-10.301 13.309-23.129 17.797-43.008 1.1133-4.9531 2.0234-10.039 2.9883-15.43l0.52344-2.9609c2.3906-13.277 6.9883-21.855 15.258-27.391-1.0195-23.625 3.418-43.289 13.555-60.086 11.426-18.953 29.09-29.824 48.461-29.824 11.125 0 22.355 3.6797 32.48 10.637 15.426 10.59 27.016 26.453 35.426 48.516 5.0039 13.348 8.3633 27.102 10.066 41.258 3.4297-5.0859 6.5234-10.367 9.2852-15.844 4.4375-8.7734 8.4297-17.793 12.598-27.41 1.8711-4.2305 3.6875-8.4258 5.6172-12.648 0.34766-0.77734 0.66406-1.5742 0.9375-2.3594 1.1602-3.0625 2.5586-6.0039 4.207-8.832 5.6172-9.3633 14.684-14.73 24.754-14.73 1.6133 0.003906 3.2188 0.13281 4.8125 0.39453 12.336 2.0117 21.758 11.293 24.598 24.207 1.3125 6.1484 1.625 12.348 0.9375 18.594-3.4023 31.672-6.3047 73.32 1.5547 114.62 1.6055 7.9297 3.75 15.715 6.4336 23.352 1.2773 3.6211 2.9414 7.0547 4.9922 10.301 5.5195-7.9883 10.035-16.512 13.543-25.562 11.727-30.676 19.137-64.969 24.016-111.2 2.5859-24.484 17.395-33.211 30.395-33.211h0.57031c12.938 0.22266 27.68 9.2031 30.227 33.711 3.4258 32.848 12.176 62.586 26.141 88.363 5.2852 9.7656 11.824 18.605 19.613 26.52 0.85156 0.89062 1.7891 1.6797 2.8086 2.3711 1.3164-1.2734 2.4492-2.6914 3.4023-4.2539 7.332-11.355 10.949-25.18 13.766-38.391 8.7891-41.266 10.492-83.883 10.988-116.4v-1.0664-2.9336c0.46875-18.98 13.488-33.297 30.281-33.305 2.0391 0 4.0547 0.21875 6.0469 0.64844 1.9883 0.42969 3.9141 1.0664 5.7734 1.9062 1.8555 0.83984 3.6016 1.8633 5.2422 3.0742 1.6406 1.2109 3.1328 2.582 4.4805 4.1094 1.4258 1.6211 2.6875 3.3555 3.7852 5.2148 1.1016 1.8555 2.0195 3.7969 2.7578 5.8242 0.73437 2.0273 1.2773 4.1055 1.6289 6.2344 0.34766 2.125 0.49609 4.2695 0.44531 6.4258-0.1875 20.188-0.64844 35.77-1.5 50.5-2.1719 37.672-6.3477 67.785-13.113 94.762-4.1836 16.668-10.742 38.176-24.352 56.641-13.18 17.934-30.57 27.812-48.977 27.812-13.113 0-26.301-5.0391-38.262-14.562-7.7266-6.1523-15.371-14.27-23.414-24.793-4.6016-6.0977-8.7422-12.492-12.422-19.188-3.2461 9.7852-7.2109 19.27-11.895 28.457-7.0039 13.559-14.18 24.234-21.934 32.641-11.699 12.672-25.648 19.395-40.312 19.395zm-177.26-212.5c-0.73438 1.9844-1.2539 4.0195-1.5547 6.1133-3.2891 18.812 0.87891 34.992 12.754 49.469 1.9766 2.457 4.2812 4.5508 6.9141 6.2852-0.074219-1.3203-0.14063-2.6523-0.21484-4.0078-0.19922-4.0547-0.41406-8.25-0.84375-12.125-2.0781-18.785-5.9297-30.902-12.871-40.602-1.2422-1.8359-2.6367-3.5469-4.1836-5.1328zm-140.94-0.20703c-3.9805 2.5391-7.5312 5.582-10.648 9.1289-8.4297 9.6289-14.051 21.746-17.121 36.914 12.758-7.1055 21.309-17.914 26.348-33.035 1.5234-4.2188 2.0039-8.5547 1.4414-13.008z"/>
 <path d="m675.79 516.44c-2.5781 5.4961-4.543 10.066-6.8008 14.457-12.68 24.73-30.59 42.438-56.34 48.93-33.324 8.4258-68.129-7.0156-86.457-39.977-7.3164-13.109-14.051-28.09-16.027-43.074-1.4609-10.719-1.7539-21.469-0.87891-32.25s2.8984-21.344 6.0664-31.688c6.5586-21.434 16.289-40.656 31.66-56.043 7.9531-7.957 16.906-14.043 27.414-17.098 20.352-5.8984 39.234 4.082 47.395 25.387 7.2305 18.879 5.7305 37.887-1.2188 56.266-13.281 35.137-38.25 55.312-71.098 64.867-2.7539 0.80469-5.5664 1.4297-9.1445 2.3398 6.8203 19.336 17.797 33.539 35.164 40.977 22.02 9.4102 45.895 2.3398 61.762-18.094 11.461-14.727 17.289-32.379 21.43-50.824 1.4336-6.3672 2.5391-12.82 3.6875-19.262 2.2031-12.25 5.1992-15.715 16.598-18.523-0.32812-4.043-0.76562-8.1758-0.98047-12.32-0.9375-17.738 1.5156-34.648 10.637-49.809 13.328-22.078 36.738-27.613 57.219-13.531 13.816 9.4883 22.48 23.59 28.605 39.715 8.1875 21.461 10.828 44.008 10.566 67.117v8.9258c3.5039-2.6992 6.2109-4.5234 8.6562-6.707 13.047-11.664 23.273-26.02 31.383-42.016 6.7461-13.297 12.43-27.227 18.574-40.883 1.3672-3.0312 2.4102-6.2891 4.0938-9.0898 2.9219-4.8242 7.3047-6.875 12.531-6.0234 0.63281 0.082031 1.2539 0.21484 1.8633 0.39453 0.61328 0.17969 1.2031 0.40625 1.7773 0.67969s1.125 0.58984 1.6484 0.95312c0.52344 0.35938 1.0156 0.76172 1.4766 1.1992 0.46094 0.44141 0.88281 0.91406 1.2695 1.418 0.38672 0.50781 0.72656 1.043 1.0273 1.6016 0.30078 0.5625 0.55469 1.1445 0.76562 1.7461 0.20703 0.60156 0.36719 1.2148 0.47656 1.8398 0.82031 3.9336 1.0078 7.8945 0.5625 11.883-4.3359 40.352-5.8281 80.664 1.8086 120.8 1.7773 8.8633 4.1641 17.562 7.1523 26.098 1.918 5.5039 4.4727 10.699 7.6641 15.578 8.3438 12.941 17.254 13.887 26.227 1.3867 6.9805-9.7852 12.637-20.285 16.961-31.5 14.219-37.191 21.035-76.484 25.289-116.36 1.1523-10.883 5.6211-16.492 13.422-16.352s12.176 5.9844 13.254 16.801c3.5508 34.082 12.523 66.418 28.453 95.922 6.1445 11.348 13.742 21.617 22.789 30.816 11.953 12.082 22.695 9.75 32.145-4.8867 8.7578-13.559 13.113-29.168 16.523-45.098 8.4297-39.598 10.809-79.91 11.438-120.41 0-1.2734-0.058594-2.5469 0-3.8086 0.21484-8.6055 5.6172-14.758 12.926-14.758 7.0586 0 12.848 5.8438 12.773 14.176-0.14844 16.508-0.51562 33.027-1.4609 49.496-1.7695 30.676-5.0664 61.156-12.551 90.898-4.4883 17.848-10.305 35.094-21.094 49.75-17.168 23.41-41.352 27.426-63.492 9.7852-7.5508-6.0117-14.238-13.684-20.234-21.539-11.461-15.086-19.238-32.652-26.02-50.742-0.83203-2.625-2.168-4.9688-4.0078-7.0234-0.59766 2.2578-1.2461 4.5039-1.7773 6.7695-5.1523 21.773-10.828 43.43-20.973 63.066-5.2656 10.199-11.484 20.301-19.031 28.484-18.34 19.879-41.898 18.156-58.914-3.125-8.6836-10.863-13.996-23.777-17.965-37.383-7.3164-25.027-9.8359-50.863-10.512-76.988 0.12891-2.8164-0.29688-5.5469-1.2734-8.1953-1.1875 1.6602-2.4336 3.2773-3.5781 4.9844-14.141 21.16-30.719 39.074-53.387 49.223-1.7969 0.80859-3.1094 3.8398-3.9609 6.1445-4.6445 12.238-7.6445 25.496-13.609 36.875-17.656 34.047-48.359 36.012-69.312 4.2773-7.5859-11.469-12.242-25.281-18.133-38.082-1.1406-2.3789-1.75-5.0469-2.9023-8.5586zm83.602-46.312c-0.37109-5.957-0.52344-12.527-1.2422-19.027-2.0078-18.043-5.9766-35.441-16.457-50.078-5.4727-7.6211-11.973-14.984-21.805-12.473-9.8359 2.5078-13.012 12.172-14.668 21.641-4.3477 24.887 1.4805 47.004 16.859 65.809 8.0156 9.7773 18.188 15.402 30.289 16.695 3.9805 0.42188 6.2109-0.44141 6.1719-5.5039 0.011719-5.4805 0.54297-10.93 0.85156-17.062zm-224.6 9.1953c1.8711 0.24219 2.6133 0.5625 3.3047 0.41016 28.098-6.3672 49.484-22.051 59.703-52.719 1.5586-4.418 2.4492-8.9648 2.6602-13.648 0.21484-4.6797-0.25391-9.2891-1.4062-13.832-3.0352-11.527-10.527-16.273-20.363-11.172-7.2539 3.8555-13.582 8.8711-18.984 15.059-12.609 14.457-19.492 32.406-22.629 51.988-1.2578 7.8164-1.5469 15.832-2.2852 23.914zm161.88 9.1094c3.4258 19.039 8.2578 37.25 17.887 53.375 2.6328 4.3672 5.7969 8.3008 9.5 11.809 5.0664 4.793 9.1211 4.5039 13.797-0.55469 7.9023-8.5664 11.547-19.559 14.984-31.742-23.594-1.9102-41.539-13.875-56.168-32.887z" fill="#e196b2"/>
 <g clip-path="url(#b)">
  <path d="m65.391 653.57c-11.09 0-20.41-7.4922-23.723-19.094-1.3438-4.7031-2.7031-9.3984-4.0781-14.094-5.3945-18.559-10.977-37.746-15.273-57.121-13.957-62.66-21.148-118.19-22.004-169.62-0.22266-14.23 1.3398-28.27 2.8594-41.836l0.45703-4.1562c0.66406-5.9844 3.0625-12.258 7.3438-19.168 5.8438-9.4414 15.633-15.078 26.168-15.078 2.6445 0.015625 5.2422 0.35938 7.793 1.0391 2.5547 0.67969 4.9805 1.668 7.2773 2.9688 8.207 4.5898 14.801 9.9727 19.613 16.012 13.113 16.406 23.277 30.219 32.102 43.469 27.293 40.977 54.125 85.828 84.297 140.85 16.195-6.0234 32.797-10.578 49.801-13.664 17.004-3.0859 34.148-4.6562 51.43-4.707 5.2422 0 10.562 0.14844 15.867 0.4375 4.4062-8.207 8.8008-16.434 13.188-24.672 11.977-22.473 24.352-45.688 37.09-68.355 16.102-28.609 33.184-56.906 50.738-85.785 4.2617-7.0039 9.3633-13.035 14.246-18.859 1.1797-1.3945 2.3594-2.8086 3.5195-4.2031 3.0391-3.582 6.4961-6.7031 10.371-9.3633 3.0508-2.2461 6.375-3.9766 9.9688-5.1836 3.5938-1.2109 7.2852-1.8477 11.074-1.9062 13.375 0 24.59 8.4922 29.254 22.164 4.0234 12.246 6.4844 24.797 7.3867 37.652 2.8867 36.09 1.3984 72.395-0.046875 107.5l-1.75 42.699c-1.5 36.703-2.9922 73.414-4.4766 110.13-0.58203 14.539-10.875 25.094-24.473 25.094h-0.48047c-1.6133-0.011718-3.2109-0.17969-4.7891-0.51172-1.5781-0.33203-3.1094-0.81641-4.5898-1.457-1.4844-0.63672-2.8867-1.418-4.2109-2.3359-1.3242-0.92188-2.5469-1.9648-3.6602-3.1289-1.1758-1.2891-2.2109-2.6797-3.1055-4.1719-0.89453-1.4961-1.6289-3.0625-2.2109-4.707-0.57812-1.6406-0.99219-3.3242-1.2344-5.0508-0.24219-1.7227-0.30859-3.4531-0.20312-5.1914 1.6094-42.449 3.3984-87.301 5.4766-137.02l0.375-9.1211c1.3867-32.887 2.8125-66.848 1.1445-100.05-7.1836 10.637-13.965 20.891-20.027 31.656-16.859 29.898-33.465 60.641-49.547 90.363-6.7188 12.41-13.445 24.809-20.184 37.191-0.34766 0.64844-0.69141 1.2852-1.0508 1.9219 1.0312 1.625 1.8438 3.3516 2.4453 5.1797 0.60156 1.8281 0.97266 3.7031 1.1133 5.6211 0.14062 1.918 0.042969 3.8281-0.28516 5.7227-0.33203 1.8945-0.89062 3.7227-1.6719 5.4805-3.9688 9.3633-12.379 14.777-23.066 14.777-1.5078 0-3.0117-0.10156-4.5078-0.30078l-5.2148-0.69141c-6.3867-0.87109-12.422-1.6875-18.387-2.0234-4.6094-0.25391-9.2617-0.38281-13.836-0.38281-16.559 0.023437-32.949 1.7266-49.16 5.1172-16.211 3.3867-31.91 8.3828-47.094 14.996-4.7812 2.2148-9.8047 3.3828-15.074 3.5-10.824 0-19.48-5.8125-25.746-17.273-34.457-63.152-62.68-110.57-91.5-153.75-3.7461-5.6211-7.8281-11.293-11.941-16.855-0.14453 15.223 0.53516 30.406 2.043 45.555 5.4141 60.461 15.922 118.53 31.355 172.61 1.4141 4.9727 3.1758 9.9258 5.0312 15.168l0.46094 1.3008c5.1133 14.43-0.46875 28.02-13.562 33.047-2.9375 1.1211-5.9805 1.6758-9.125 1.668z"/>
 </g>
 <path d="m167.87 535.25c3.6367-1.4141 6.9336-2.7422 10.305-3.9805 37.859-14.043 76.895-20.047 117.21-17.098 3.668 0.27344 4.9727-1.5156 6.3594-4.0898 17.297-32.156 34.188-64.539 52.086-96.348 16.203-28.812 33.324-57.117 50.492-85.379 4.6836-7.668 10.848-14.449 16.598-21.426 2.2539-2.6133 4.8086-4.8867 7.6602-6.8242 11.551-8.1836 24.355-5.2344 28.867 8.0977 3.6445 11.137 5.8711 22.547 6.6875 34.234 2.9531 36.934 1.2188 73.91-0.28906 110.87-2.0156 49.254-4.0195 98.512-6.0117 147.78-0.29297 7.1367-4.4023 11.727-10.668 11.613-6.2695-0.11328-10.492-4.7773-10.219-11.977 1.7539-45.676 3.5742-91.355 5.457-137.03 1.5859-38.195 3.5156-76.391 1.293-114.62-0.46875-8.082-1.7109-16.117-2.707-24.16-0.45703-2.3672-1.043-4.7031-1.75-7.0039-3.3984 3.8203-6.4141 6.5547-8.5781 9.7734-11.242 16.855-23.125 33.41-33.047 51.043-23.789 42.277-46.598 85.117-69.816 127.72-1.8711 3.4297-3.7461 6.8281-5.7773 10.453 0.47266 0.57031 0.98047 1.1055 1.5273 1.6094 4.7656 3.8867 6.2188 8.3438 4.2031 13.109-2.0703 4.8984-6.4727 6.8555-12.82 6.0312-8.1953-1.0703-16.402-2.3594-24.633-2.8086-9.9492-0.57422-19.895-0.56641-29.84 0.027344-9.9453 0.59766-19.82 1.7695-29.629 3.5234s-19.48 4.0742-29.012 6.9648c-9.5352 2.8867-18.871 6.3242-28 10.309-10.742 4.6328-17.355 2.5742-22.922-7.6133-28.82-52.746-58.789-104.8-92.145-154.8-7.9531-11.93-16.766-23.285-25.289-34.805-2.1992-2.9492-4.9531-5.4961-7.4922-8.2383l-1.4727 0.41797c-0.76562 4.3555-1.8047 8.6836-2.2539 13.109-2.25 22.477-1.0898 44.949 0.93359 67.301 5.3125 59.273 15.539 117.8 31.828 175.15 1.668 5.8398 3.7461 11.582 5.7617 17.312 2.5352 7.1719 0.57031 12.977-5.3516 15.242-6.1055 2.3438-12.176-0.57812-14.293-8.1172-6.6875-23.41-13.871-46.68-19.145-70.387-12.223-54.949-20.727-110.44-21.664-166.82-0.21484-14.727 1.6328-29.523 3.25-44.223 0.50781-4.5977 2.8125-9.2812 5.3203-13.309 4.9766-8.0234 14.219-10.805 22.48-6.207 5.7305 3.2031 11.426 7.4258 15.48 12.512 10.969 13.762 21.637 27.848 31.398 42.492 30.984 46.527 59.074 94.809 85.852 143.86 1.1406 2.1641 2.3984 4.2891 3.7734 6.7148z" fill="#d4e196"/>
 <path d="m768.52 663.54c-5.2617 3.043-10.105 5.9453-15.098 8.7188-27.434 15.16-57.367 26.707-92.781 28.738-50.402 2.9297-93.926-9.0273-131.7-32.109-8.0859-4.9336-8.5352-11.406-2.2109-16.031 6.3203-4.625 14.918-4.2148 22.797 1.0117 45.668 30.273 112.79 35.246 165.51 11.594 14.273-6.4062 26.898-14.648 40.18-22.137 4.3203-2.4258 8.0195-5.4336 12.508-7.6602 11.855-5.918 26.973-1.2852 26.973 8.9023 0 15.18 11.625 24.723 27.957 32.391 26.574 12.484 56.594 17.793 87.887 18.812 87.105 2.8086 164.59-14.711 230.5-55.742 8.0156-4.9922 16.859-5.2148 22.844-0.46875 5.9844 4.7461 4.9453 11.004-2.9492 16.039-54.512 34.824-119.19 53.629-191.55 60.016-40.172 3.5469-80.055 2.3945-118.83-6.4922-35.012-7.9844-65.836-20.113-82.031-45.582z"/>
 <path d="m480.96 695.62c-1.1797-0.007813-2.3516-0.11328-3.5117-0.32031-24.094-4.4141-48.363-7.4375-72.805-9.0625-6.3984-0.41406-13.824-0.84375-21.055-0.84375-5.6016-0.035156-11.184 0.27734-16.746 0.9375-1.75 0.26953-3.4688 0.65625-5.1641 1.1602-1.4648 0.41016-2.9609 0.61328-4.4844 0.61719-0.77344 0.007812-1.5391-0.042969-2.3008-0.15625-0.76563-0.11328-1.5156-0.28516-2.25-0.51562-0.73828-0.23047-1.4492-0.51562-2.1406-0.85938-0.69141-0.34375-1.3516-0.73828-1.9805-1.1875-0.62891-0.44531-1.2148-0.94141-1.7656-1.4805s-1.0586-1.1211-1.5156-1.7383c-0.46094-0.62109-0.86719-1.2734-1.2227-1.957-0.35547-0.68359-0.65625-1.3906-0.90234-2.125-0.6875-1.9844-0.94141-4.0195-0.76562-6.1133 0.17578-2.0898 0.76953-4.0586 1.7773-5.8984 0.48828-0.88281 1.0664-1.7031 1.7266-2.4609 0.66406-0.75781 1.3984-1.4414 2.207-2.043 0.80469-0.60547 1.668-1.1172 2.582-1.5391 0.91797-0.42188 1.8672-0.74219 2.8516-0.96094 5.9609-1.4883 12.004-2.4648 18.133-2.9336 2.6133-0.17578 5.3945-0.26172 8.7578-0.26172 2.1523 0 4.3086 0 6.3867 0.066406s4.1133 0.066406 6.1367 0.066406h0.30859c30.141 1.2148 60.039 4.5703 89.699 10.074 2.1641 0.32812 4.1797 1.0586 6.0508 2.1953 1.8672 1.1367 3.4453 2.5898 4.7305 4.3594 1.0938 1.6094 1.832 3.3711 2.2148 5.2773 0.38281 1.9102 0.37891 3.8203-0.011719 5.7266-1.4258 7.1797-7.418 11.977-14.941 11.977z"/>
 <path d="m384.33 664.47c29.734 1.2227 59.23 4.5391 88.492 9.9531 4.4688 0.80469 6.8594 3.8594 6.1289 7.6133-0.73047 3.7539-4 5.6172-8.5234 4.8398-24.418-4.4531-49.008-7.5117-73.77-9.1758-13.113-0.84375-26.281-1.4805-39.406 0.14844-2.1523 0.32031-4.2734 0.78906-6.3594 1.4062-3.7461 1.0312-7.1094-0.53516-8.2617-3.9414-0.15234-0.40234-0.26172-0.81641-0.32812-1.2383-0.066407-0.42578-0.085938-0.85156-0.0625-1.2812 0.027343-0.42969 0.097656-0.85156 0.21484-1.2656 0.11719-0.41406 0.27344-0.80859 0.47656-1.1875s0.44141-0.73438 0.71875-1.0625 0.58594-0.62109 0.92969-0.88281c0.33984-0.26172 0.70312-0.48438 1.0938-0.66797 0.38672-0.18359 0.79297-0.32422 1.2109-0.42188 5.5-1.3711 11.078-2.2773 16.727-2.7227 6.8945-0.42188 13.824-0.11328 20.719-0.11328z" fill="#d4e196"/>
 <path d="m54.246 730.23c-7.4297-0.11328-13.414-4.8242-14.895-11.703-0.1875-0.82812-0.30078-1.6602-0.34375-2.5039-0.042968-0.84766-0.011718-1.6875 0.09375-2.5273 0.10547-0.83984 0.28516-1.6641 0.53125-2.4727 0.25-0.80859 0.56641-1.5859 0.95313-2.3398 0.38281-0.75391 0.83203-1.4688 1.3438-2.1406 0.50781-0.67578 1.0742-1.3008 1.6914-1.8789 0.62109-0.57422 1.2852-1.0938 1.9922-1.5547 0.71094-0.46094 1.457-0.85547 2.2344-1.1875 4.4766-1.918 9.0391-3.668 13.543-5.2227 32.023-11.031 64.574-17.184 89.355-21.312 2.25-0.375 4.4961-0.73047 6.7422-1.0859l1.7422-0.27344c1.0312-0.16406 2.0664-0.25 3.1094-0.25 8.0195 0 14.051 5.1484 15.137 12.797 1.1172 8.2148-4.4297 15.113-13.477 16.801-4.4961 0.83594-9 1.6602-13.508 2.4727-12.363 2.2578-25.137 4.5781-37.566 7.2383-18.094 3.7188-35.719 9.0039-52.875 15.852-1.0664 0.42188-2.1641 0.75391-3.2852 0.99219l-0.19922 0.046875c-0.71875 0.1875-1.4492 0.28125-2.1914 0.28125z"/>
 <path d="m45.852 721.73c-3.5195-0.054688-6.0664-2.125-6.6875-4.9805-0.16797-0.69922-0.20703-1.4062-0.12891-2.1172 0.082032-0.71484 0.28516-1.3945 0.60547-2.0391 0.32031-0.64062 0.74219-1.2109 1.2656-1.7031 0.51953-0.49609 1.1133-0.88672 1.7695-1.1719 4.2539-1.8164 8.5898-3.4922 12.965-5 28.641-9.8594 58.176-16.004 87.988-20.965 2.8086-0.46875 5.6172-0.9375 8.4297-1.3516 4.625-0.73047 7.9219 1.332 8.4297 5.293 0.51562 3.7461-2.0234 6.4414-6.5586 7.293-17.109 3.1836-34.281 6.1133-51.297 9.7578-18.59 3.8281-36.699 9.2617-54.324 16.293-0.80469 0.28516-1.6211 0.51563-2.457 0.69141z" fill="#d4e196"/>
 <g clip-path="url(#c)">
  <path d="m114.11 785.91c-7.3438 0-13.262-4.25-15.078-10.812-1.8203-6.5664 0.94531-13.242 7.125-16.988l8.7227-5.2422c8.043-4.8242 16.359-9.8047 24.426-14.824 13.738-8.5312 30.824-19.156 49.016-26.703l0.55859-0.24609c0.75-0.31641 1.6797-0.71094 2.7383-1.0586 1.5508-0.49609 3.1445-0.74609 4.7734-0.74609 0.73047-0.003906 1.4609 0.050782 2.1836 0.15625 0.72266 0.10547 1.4336 0.26563 2.1328 0.47656s1.3789 0.47266 2.0391 0.78516c0.66016 0.3125 1.293 0.67578 1.9023 1.082 0.60547 0.40625 1.1797 0.85547 1.7188 1.3477 0.53906 0.49219 1.043 1.0195 1.5039 1.5859 0.46094 0.56641 0.87891 1.1641 1.25 1.793 0.375 0.62891 0.69922 1.2812 0.97266 1.957 0.76172 1.8438 1.1445 3.7617 1.1445 5.7539 0 1.9961-0.38281 3.9141-1.1445 5.7539-0.73438 1.7617-1.7852 3.3086-3.1484 4.6445-1.3594 1.3359-2.9258 2.3594-4.6992 3.0625-18.281 7.3125-34.598 17.613-51.871 28.551-4.6836 2.9414-9.4766 5.9844-14.281 8.9258-4.8086 2.9375-9.6211 5.6172-14.34 8.2656l-0.20703 0.12109c-1.3281 0.71094-2.7109 1.2812-4.1484 1.7148l-0.30078 0.10156c-0.96094 0.35937-1.9531 0.53906-2.9805 0.54297z"/>
 </g>
 <path d="m105.6 777.4c-3.6445 0-6.125-1.8711-6.875-4.5664-0.82422-2.9805 0.42188-5.7227 3.2578-7.4258 11.102-6.6875 22.254-13.289 33.25-20.133 15.445-9.5898 30.91-19.074 47.77-26.078 0.87109-0.35547 1.7344-0.75781 2.6328-1.0508 0.37891-0.13672 0.76562-0.23438 1.1641-0.29688 0.39844-0.058594 0.80078-0.082031 1.2031-0.070312 0.40234 0.015625 0.80078 0.070312 1.1914 0.16016 0.39453 0.09375 0.77344 0.21875 1.1406 0.38281 0.36719 0.16797 0.71875 0.36328 1.0469 0.59375 0.33203 0.23438 0.63672 0.49219 0.91797 0.78125 0.27734 0.29297 0.52734 0.60547 0.75 0.94141 0.21875 0.33984 0.40234 0.69531 0.55469 1.0664 0.16797 0.37109 0.29688 0.75391 0.38672 1.1484 0.089843 0.39453 0.14062 0.79297 0.15234 1.1992s-0.019531 0.80859-0.089843 1.207c-0.066407 0.39844-0.17578 0.78906-0.32422 1.168-0.14844 0.375-0.33203 0.73438-0.55078 1.0781-0.21875 0.33984-0.46875 0.65625-0.75 0.94531-0.28516 0.29297-0.59375 0.55078-0.92578 0.78125-0.33594 0.23047-0.69141 0.42578-1.0625 0.58203-24.148 9.7305-45.344 24.617-67.355 38.094-4.6797 2.8633-9.4688 5.543-14.254 8.2188-1.043 0.51562-2.1172 0.94141-3.2305 1.2734z" fill="#d4e196"/>
 <path d="m450.96 733.47c-0.30078 0-0.60156 0-0.9375-0.046875-5.957-0.62109-11.91-1.2461-17.863-1.8711-14.047-1.4688-28.621-2.9766-42.934-4.6836-8.7031-1.0078-17.422-2.3594-25.859-3.6602l-7.3164-1.1328c-7.0234-1.0586-12.055-6.1719-12.793-13.023-0.10547-0.80078-0.14062-1.6055-0.10938-2.4141s0.12891-1.6055 0.29688-2.3984c0.16406-0.78906 0.39453-1.5625 0.69141-2.3125 0.29688-0.75391 0.65234-1.4766 1.0703-2.168 0.41406-0.69141 0.88672-1.3438 1.4141-1.957 0.52734-0.61328 1.1016-1.1758 1.7227-1.6914 0.62109-0.51953 1.2812-0.98047 1.9805-1.3828 0.69922-0.40625 1.4297-0.75 2.1875-1.0352 1.9453-0.66797 3.9531-0.99609 6.0117-0.98047 0.88281-0.003906 1.7656 0.054687 2.6406 0.17578 6.1172 0.79688 12.309 1.6406 18.293 2.4648 9.5742 1.3086 19.473 2.668 29.184 3.8281 9.7148 1.1602 19.754 2.1172 29.422 3.043 4.3555 0.42188 8.7188 0.83203 13.113 1.2734h0.44922c0.72266 0.042969 1.4414 0.125 2.1523 0.24219 0.94922 0.14844 1.875 0.38281 2.7734 0.70703 0.90234 0.32812 1.7656 0.73438 2.5859 1.2305 0.82422 0.49219 1.5898 1.0586 2.3008 1.6992 0.71484 0.64453 1.3555 1.3477 1.9336 2.1133 0.57422 0.76953 1.0703 1.582 1.4844 2.4453 0.41797 0.86328 0.74609 1.7578 0.98828 2.6875 0.24219 0.92578 0.39453 1.8672 0.45312 2.8242 0.0625 0.95703 0.027343 1.9102-0.097657 2.8594-0.12109 0.91016-0.32422 1.8047-0.60547 2.6758-0.28516 0.875-0.64453 1.7148-1.082 2.5234-0.4375 0.80859-0.94141 1.5703-1.5195 2.2852-0.57422 0.71875-1.2109 1.375-1.9062 1.9727-0.69922 0.60156-1.4414 1.1328-2.2344 1.5938-0.79688 0.46484-1.625 0.85156-2.4883 1.1641s-1.75 0.54297-2.6562 0.69531c-0.90625 0.14844-1.8203 0.21484-2.7383 0.19922z"/>
 <path d="m442.4 724.96c-20.238-2.1445-40.5-4.1562-60.711-6.4961-10.996-1.2852-21.938-3.1016-32.887-4.7578-0.71484-0.058593-1.4023-0.23828-2.0586-0.53516-0.65625-0.30078-1.2383-0.70312-1.7539-1.207-0.51172-0.50391-0.92578-1.082-1.2344-1.7344-0.3125-0.64844-0.5-1.332-0.57031-2.0469-0.10547-0.66406-0.09375-1.3242 0.023438-1.9805 0.12109-0.66016 0.34375-1.2812 0.67578-1.8633 0.32812-0.58203 0.74609-1.0977 1.25-1.5391 0.5-0.44141 1.0625-0.78906 1.6836-1.043 1.5312-0.49609 3.0938-0.625 4.6836-0.39062 15.867 2.0586 31.688 4.4102 47.57 6.3008 14.191 1.6953 28.438 2.9102 42.664 4.3359 0.65625 0.066406 1.3203 0.082032 1.9766 0.19531 0.41016 0.054687 0.8125 0.15234 1.207 0.28516 0.39062 0.13281 0.76953 0.30469 1.1289 0.51172 0.35547 0.21094 0.69141 0.44922 1.0039 0.72656 0.3125 0.27344 0.59375 0.57422 0.84766 0.90234 0.25 0.32812 0.46875 0.67969 0.65234 1.0547 0.18359 0.37109 0.33203 0.75781 0.4375 1.1562 0.10937 0.40234 0.17578 0.80859 0.20312 1.2227 0.027344 0.41406 0.015626 0.82812-0.039062 1.2383-0.054688 0.40234-0.14453 0.79297-0.26953 1.1758-0.12891 0.38281-0.28906 0.75391-0.48438 1.1055-0.19531 0.35547-0.42188 0.6875-0.67969 1-0.25391 0.3125-0.53906 0.59766-0.84766 0.85547-0.30859 0.26172-0.64062 0.48828-0.99219 0.6875-0.35156 0.19922-0.71875 0.36328-1.1016 0.49219-0.38281 0.13281-0.77344 0.22656-1.1719 0.28516-0.39844 0.058593-0.80078 0.078124-1.207 0.0625z" fill="#d4e196"/>
</svg>
