<?xml version='1.0' encoding='utf-8'?>
<svg xmlns="http://www.w3.org/2000/svg" width="1587" height="1587" version="1.0" viewBox="0 0 1190.2 1190.2" zoomAndPan="magnify">
 <defs>
  <clipPath id="c" fill="none">
   <path d="m0 0h1189.5v1189.5h-1189.5z" fill="none" />
  </clipPath>
  <clipPath id="a" fill="none">
   <path d="m877 906h121.5v269.81h-121.5z" fill="none" />
  </clipPath>
  <clipPath id="b" fill="none">
   <path d="m921 248h268.5v159.57h-268.5z" fill="none" />
  </clipPath>
 </defs>
 <g clip-path="url(#c)" fill="none">
  <path d="m0 0h1189.5v1189.5h-1189.5z" fill="none" />
  <path d="m0 0h1189.5v1189.5h-1189.5z" fill="none" />
 </g>
 <path d="m994.94 825.19c0.69531 12.594 2.5508 47.723-18.918 34.598-10.391-6.7852-16.262-18.078-21.641-28.883-3.6562-6.9414-7.9219-13.551-11.945-20.277-11.84-19.148-23.895-38.277-32.25-59.266-5.293-12.363-11.277-24.828-12.703-38.344-1.625-10 2.6406-19.457 7.168-28.117 7.8594-15.828 25.648-22.254 42.309-23.379 12.363-1.4766 28.445-8.1953 37.613 3.7539 20.082 29.113 5.2578 73.234 7.3711 106.7 0.20313 17.883 1.9336 35.426 2.9961 53.219" fill="#969cff" />
 <path d="m1082.1 672.52c-8.4492-1.9609-17.059-3.3281-25.715-3.9727-8.8867-1.3711-18.754 1.7031-25.285 8.3125-20.242 18.359-19.168 48.684-24.766 73.523-5.3906 23.492-6.9453 47.664-5.9648 71.711 0.14453 5.1562-2.4922 29.84 3.6953 33.73 6.6289 2.4688 42.941-38.559 57.281-50.609 6.6406-6.3945 13.723-12.25 20.703-18.262 8.9414-7.2422 18.699-14.59 25.344-24.168 4.1562-7.1758 8.4141-15.055 9.9922-23.34 0.92187-2.0859 1.7695-4.1953 2.5273-6.3438 9.2031-22.156-16.461-55.371-37.812-60.582" fill="#969cff" />
 <path d="m1151.3 915.34c-8.7539-7.3633-19.801-11.641-30.949-14.352-13.844-4.0586-27.375-9.0859-41.234-13.133-12.422-4.0625-25.258-7.1055-38.234-9.582-5.3086-1.0156-12.5-2.4258-15.512 3.5078-6.5586 11.398 18.402 40.012 24.152 51.598 8.1992 15.195 18.828 28.531 26.473 44.102 5.2891 8.7227 9.8828 17.91 16.273 26.043 0.64844 0.91797 1.2891 1.8516 1.9297 2.7852 0.027344 0.039062 0.050782 0.082031 0.082032 0.12109 11.094 19.297 19.184 36.086 42.016 43.488 8.3047 2.7109 17.707-0.80078 22.684-7.8672 12.617-16.844 10.148-39.145 11.984-58.992 2.8477-26.754 3.4336-50.215-19.664-67.719" fill="#969cff" />
 <path d="m1127.7 1100.1c-5.3633-14.801-14.609-27.68-22.262-41.32-6.4531-11.566-13.836-23.727-21.105-35.004-17.473-27.457-32.906-55.742-48.625-84.508-6.0508-10.184-10.074-21.52-19.484-30.004-4.6797-3.1797-10.223 1.2109-10.703 6.2031-0.92188 4.5703 1.1484 38.398 2.1055 45.914 1.3047 9.7656 1.6484 19.598 2.0195 29.43 1.1055 17.84 3.1523 35.387 2.8828 53.309 0.023438 15.367 2.2188 30.586 3.3516 45.875 2.6328 27.578 6.2852 71.461 38.254 79.969 21.883 4.8945 44.973-0.15625 66.324-5.707 31.43-7.5195 14.598-43.863 7.2422-64.156" fill="#969cff" />
 <g clip-path="url(#a)">
  <path d="m986.91 908.41c-3.9219 3.6719-5.3203 9.0508-7.2109 13.914-0.84375 1.8633-1.7695 3.7266-2.7148 5.5938-5.4219 7.8008-9.2773 16.555-13.266 25.137-3.0781 5.875-6.3555 11.605-8.9805 17.703-8.5039 14.781-16.789 29.664-23.672 45.328-1.582 3.4922-3.4258 6.9883-5.1797 10.523-4.9844 8.1641-9.75 16.445-13.445 25.316-10.863 25.117-32.781 46.207-35.273 74.465-1.3086 23.77 20.586 39.828 42.027 44.73 1.4531 0.625 3.0352 1.0039 4.5703 1.3125 6.5703 1.1328 13.18 2.3789 19.828 3.0234 11.902 1.7617 27.223-2.8594 31.016-15.473 0.078125-0.25 0.13672-0.49609 0.20312-0.74219 4.6367-11.461 5.4688-27.418 6.6875-36.984 2.8672-35.781 4.9453-71.637 9.3594-107.27 2.0469-20.141 5.7266-40.281 6.2539-60.586 0.20312-5.0391 0.007812-10.066-0.16406-15.09 0.52734-8.3789 5.6211-41.375-10.039-30.906" fill="none" />
 </g>
 <path d="m976.84 898.55c-2.7422-2.0078-9.9766-1.0508-16.219 2.5-2.5938 1.2617-5.1328 2.7031-7.6719 3.8711-13.941 7.5078-25.832 18.25-40.281 24.902-12.664 5.1641-22.715 14.598-34.453 21.367-5.2695 2.9648-10.438 6.1055-15.52 9.3867-11.5 7.1016-22.395 15.137-32.91 23.695-15.531 10.699-29.422 24.27-24.836 41.688 0.050782 2.1719 0.31641 4.3633 0.85938 6.5547 6.7891 20.039 19.582 44.012 41.594 49.645 16.992 1.7422 34.684-20.68 44.938-32.457 13.77-16.164 24.305-34.559 35.039-52.777 7.918-13.195 16.676-25.867 24.488-39.133 2.832-4.8281 5.4648-9.7578 8.0469-14.719 3.2227-4.8438 6.4219-9.6992 9.3359-14.742 2.5977-2.9609 4.707-6.5078 6.7109-9.7734 4.4336-6.9375 6.5391-13.703 0.87891-20.008" fill="#969cff" />
 <path d="m967.51 882.92c-4.1758-7.3828-13.469-7.8672-20.492-11.074-9.2891-4.4961-19.07-7.6562-28.871-10.789-5.168-1.9492-10.398-3.75-15.723-5.2695-25.34-7.207-49.191-18.488-74.426-26.25-23.555-6.6641-33.848 4.5273-41.422 25.703-3.7344 13.082-0.84375 27.023 2.7578 39.824 3.3945 13.402 8.1211 29.469 24.027 31.621 13.23 2.1328 25.668-4.7852 38.363-7.3594 21.422-4.5312 42.617-9.8398 63.832-15.246 12.234-2.8203 24.578-5.1055 36.852-7.7031 4.0586-1.1406 8.6992-1.1758 12.277-3.5391 4.7656-3.5859 4.4297-7.2734 2.8242-9.918" fill="#969cff" />
 <path d="m1170.8 833.05c-0.73438-2.2969-0.066406-5.2773-0.875-7.7227-0.29297-0.73047-0.11328-2.1328-0.027344-2.9688 0.17969-1.4141-0.12891-2.7617-0.50781-4.1016 0.44531-7.2656-0.074219-14.473-3.2812-21.348-2.4414-8.0312-7.0781-15.988-15.637-18.484-4.9453-1.8867-9.8906-2.0547-14.801-1.043-5.1094 0.39453-10.297 1.7812-14.961 3.8828-8.7344 3.6758-17.043 8.4336-24.57 14.203-8.6641 7.9375-16.812 16.426-26.734 22.914-10.012 6.8398-17.902 16.227-27.836 23.148-4.4922 3.1016-23.117 14.133-23.238 21.684-0.85156 2.8242 0.64844 5.7969 5.8672 7.3438 9.2891 2.5273 19.211 3.0703 28.867 3.6641 16.941 1.4062 33.934 2.1172 50.934 1.8828 8.0156 0.26953 15.973-0.73828 23.961-1.168 8.3359 0.046875 16.762-0.60938 24.664-3.418 6.6992-1.4297 11.848-6.1289 14.387-12.438 2.6055-8.2695 5.8047-17.344 3.7891-26.031" fill="#969cff" />
 <path d="m1014.7 880.79c1.418 2.5586 2.125 5.7188 1.0938 8.5391-0.47656 1.7539-2.3359 3.1914-1.582 5.0625 0.67969 3.2266-1.3711 6.4023-4.4023 7.4648-3.625 3.5547-9.4492 5.3672-14.207 3.1289-8.6289-3.1523-17.824-8.2422-20.238-18.07-1.1094-4.5234-0.0625-9.3242 2.9219-12.969 3.3789-4.3828 6.7461-10.762 13.27-10.047 1.7734-0.050782 3.0352-0.48047 4.7227-0.61328 2.3633-0.27344 4.6016 0.71484 6.8086 1.3984 1.8203 0.33984 3.6562 0.79297 5.1406 1.9688 3.9805 3.4062 9.9141 8.4141 6.4727 14.137" fill="#ffe45e" />
 <path d="m953.93 845.58c-6.4219-9.2109-12.91-18.5-19.852-27.406-5.9961-8.8125-11.934-17.641-17.348-26.828-9.793-15.594-17.676-32.379-26.941-48.281-6.9492-11.297-14.082-22.547-19.719-34.594-5.8047-12.922-13.348-24.676-21.078-36.574-7.4023-12.012-14.375-24.676-24.836-34.359-12.176-9.9883-25.652-20.133-41.25-23.68-16.121-3.0156-31.469 3.1836-45.664 11.164-14.387 8.7383-21.203 25.211-22.832 41.367-0.49219 2.8633-0.77344 5.7656-0.80859 8.6562-0.042969 0.27344-0.078125 0.54297-0.10938 0.81641-2.8984 32.355 30.895 58.012 58.645 77.836 5.1523 3.9727 10.387 7.8164 15.625 11.566 7.6875 5.6445 14.777 11.113 23 16.824 14.176 10.109 29.391 18.547 44.379 27.379 5.918 3.6836 11.855 7.3359 17.793 10.973 7.707 5.4297 15.785 10.18 24.129 14.434 3.4453 2.0078 6.9023 4.0117 10.355 6 0.64844 0.49609 1.2891 1 1.9492 1.4844 5.1758 3.6953 10.863 6.6016 16.133 10.141 5.0156 3.7031 11.145 6 16.371 9.4336 3.0312 2.0352 5.7031 4.6367 8.9805 6.4375 4.4883 2.9961 13.812 3.8789 14.309-3.3594-1.1875-7.6641-7.3672-12.887-11.23-19.43" fill="#969cff" />
 <path d="m698.99 759.68c7.7578 17.695 22.406 45.93 4.1953 61.348-26.824 23.289-60.707 33.68-92.199 47.691-20.004 8.6367-38.797 19.98-57.977 30.418-6.4102 3.5977-12.582 7.5664-19.371 10.133-5.4102 2.8242-11.723 4.9336-17.414 1.8086-6.0742-3.418-3.9336-9.2227-0.24609-13.711 3.4805-5.1445 7.2344-10.195 10.852-15.215 11.703-16.301 23.484-32.543 35.625-48.488 13.84-17.863 28.41-35.066 42.875-52.383 16.523-19.48 34.047-38.965 55.957-51.594 18.98-10.832 30.059 16.004 37.703 29.992" fill="#969cff" />
 <path d="m754.57 1162.9c-0.38672 0-0.76953 0-1.1602-0.007813-39.141-0.55859-59.527-20.285-84.418-49.219-20.227-20.992-40.129-42.383-61.262-62.371-7.3125-6.8711-14.977-13.289-22.188-20.25-15.793-15.492-30.578-32.27-48.199-45.438-9.1172-6.957-30.473-27.035-31.602-28.527-1.8555-2.4844-3.8711-5.1055-1.5703-8.1406 2.7891-3.6719 8.2031-1.293 11.762-0.35156 16.781 5.8711 33.773 10.969 50.582 16.75 31.707 11.32 63.332 22.891 95.469 32.793 28.48 9.8086 55.125 24.594 83.051 35.926 23.344 9.7461 47.863 18.961 66.254 37.754 7.4258 7.207 15.754 14.691 19.262 24.98 2.1211 8.457-0.51172 17.199-1.7109 25.602-1.4219 8.7109-2.2031 18.656-8.9414 24.824-15.652 11.746-45.195 15.676-64.84 15.676h-0.48828" fill="#969cff" />
 <path d="m495.14 865.75c-1.4961-7.9961-1.625-16.223-3.1992-24.195 0-0.027343-0.003906-0.058593-0.003906-0.085937v-0.011719c-0.046875-1.1797-0.089844-2.3477-0.13672-3.5312-0.58984-17.285-1.4219-34.602-1.8594-51.906-0.64062-30.289 0.80078-60.668-1.5039-90.91-1.3945-17.641-1.9141-35.902-8.2109-52.527-7.543-17.949-21.176-35.348-39.801-40.301-10.863-1.8086-21.855 1.75-31.965 5.6953-15.719 6.3828-28.945 17.688-41.488 29.281-11.457 11.008-23.926 21.66-31.852 35.938-19.746 41.016 17.438 78.039 42.266 105.32 17.266 19.766 35.289 38.836 54.879 56.039 1.9648 1.6719 3.9336 3.3789 5.8828 5.0977l0.015624 0.015624c0.027344 0.023438 0.050782 0.042969 0.078126 0.066407 4.207 4.4375 8.8359 8.5 13.145 12.824 6.1641 6.5391 12.941 12.371 19.918 18.016 4.4375 3.9688 8.3711 9.2305 13.629 12.445 2.7539 1.8828 6.8945 2.4922 9.1836-0.43359 2.9961-4.918 1.1484-11.363 1.0234-16.836" fill="#969cff" />
 <path d="m424.43 935.84c-8.7773 1.5977-16.965 4.8945-25.82 6.4414-15.125 1.918-30.32 4.1328-45.191 6.957-13.59 1.9258-28.383 2.4453-42.18 4.5469-20.676 3.5898-41.117 8.9727-61.93 11.758-38.109 4.7578-75.285 15.973-112.61 25.082-22.812 5.8125-42.059 21.836-55.004 42.27-10.887 20.465-17.711 43.281-22.816 66.062-5.1211 28.324-18.082 63.531 21.023 67.844 22.234 2.375 44.887-0.085937 66.613-5.3359 44.012-11.031 77.297-45.461 111.38-75.066 23.602-22.527 47.461-44.68 74.102-63.352 28.836-22.098 60.445-39.793 88.762-62.672 3.4844-2.5117 6.625-5.5352 9.3203-8.9648 0.015625-0.027344 0.039063-0.050781 0.054688-0.082031 1.8672-1.707 3.6992-3.4453 5.4609-5.2617 5.7578-8.1992-4.0234-12.812-11.164-10.227" fill="#969cff" />
 <path d="m596.03 1060.1c-13.977-12.609-29.008-23.832-42.883-36.57-13.602-12.574-27.004-25.383-39.867-38.801-0.35156-0.33984-0.68359-0.70703-1.0312-1.0625-0.68359-0.86328-1.3906-1.7188-2.1289-2.543-3.0078-4.3164-7.168-7.8984-10.102-12.289-5.1367-5.7773-9.2656-12.859-15.688-17.277-1.8242-0.92188-4.1484-1.3867-6.332-1.1758-0.23828 0-0.46875 0.035157-0.70703 0.097657-1.6172 0.27734-3.1133 0.95703-4.2031 2.1914-2.668 5.125 0.17969 11.348 0.46875 16.797 1.0664 9.3281 3.6641 18.137 5.332 27.445 1.3164 13.305 7.5508 46.777 7.9219 50.566 2.5273 26.676 10.859 52.555 22.117 76.609 9.4727 21.367 23.949 42.488 48.371 42.934 21.219 1 42.629 0.30078 63.777-1.9141 11.84-2.1289 31.98 0.69531 32.852-16.863-1.082-29.734-37.555-68.836-57.898-88.145" fill="#969cff" />
 <path d="m463.38 1025c-0.35156-19.113-0.35937-39.125-2.5195-58.211-0.43359-3.2383-1.6719-16.684-2.082-17.695-0.70703-2.5508-2.1484-4.4414-4.8242-4.8984-13.23 1.0234-34.57 31.992-44.906 41.938-9.543 10.473-19.375 21.188-28.621 32.004-0.73438 0.91406-1.4375 1.8477-2.1055 2.7969-2.3984 2.4688-4.7734 4.9531-7.1133 7.4531-17.594 19.547-35.777 40.652-50.977 62.645-5.0508 7.3984-9.7344 15.059-12.945 23.551-5.5742 14.797-5.2461 33.867 5.5469 45.938 12.387 16.805 124.5 21.75 144.75-12.484 5.9492-17.219 3.9766-36.035 4.4648-54.031 0.79688-22.992 1.6758-45.996 1.332-69.004" fill="#969cff" />
 <path d="m785.56 908.53c-6.9453-27.801-3.582-48.922-38.566-45.613-30.684 4.5117-60.797 12.949-90.93 20.488-35.195 8.8828-69.246 22.105-103.57 34.039-0.90234 0.33984-22.344 4.9805-31.633 8.3789-5.5273 2.7422-10.211 10.449-2.4102 13.645 24.668 7.6484 51.172 9.3594 76.535 14.254 15.59 1.8672 30.102 9 45.848 10.02 0.44922 0.042969 0.78125 0.023438 1.0625-0.039062 1.9297 0.50781 3.8633 1.0039 5.7969 1.4844 31.547 7.332 63.754 11.551 95.953 13.906 12.707 0.50391 28.043 1.5312 37.613-8.9297 12.344-17.707 8.1016-41.57 4.3047-61.633" fill="#969cff" />
 <path d="m459.98 883.44c-5.9375-6.8125-12.742-12.676-20.008-18.012-10.855-11.035-21.789-22.008-34.188-31.141-25.801-18.859-47.594-43.008-70.145-65.902-28.891-29.809-59.039-58.211-89.805-85.816-14.477-11.723-29.504-24.051-45.758-33.488-8.7031-6.0547-18.367-11.523-23.477-14.922-28.105-18.113-51.363-19.629-80.84-3.6367-19.617 11.559-35.418 29.219-49.277 47.695-7.082 9.4883-9.4102 17.879-8.3867 25.398-0.57031 3.4414-0.5 6.9688 0.5 10.574 4.0547 12.32 12.828 22.879 23.977 29.441 17.164 9.5703 33.531 20.824 51.773 28.277 23.184 9.2031 46.012 19.246 68.797 29.383 3.707 1.6758 7.5156 3 11.379 4.1445 1.2891 0.59375 2.5703 1.2109 3.8594 1.8008 23.777 10.91 48.82 17.973 73.633 25.625 50.598 16.84 97.883 43.352 148.52 59.871 0.007813 0.003906 0.019532 0.015625 0.027344 0.015625 3.6914 1.6836 7.4062 3.2969 11.121 4.8945 5.0312 2.7461 10.996 4.2383 16.762 4.332 8.2383 0.09375 20.441-6.7148 11.539-18.535" fill="#969cff" />
 <path d="m427.2 909.65c-8.5195-2.9844-17.336-5.5273-26.414-6.8828-7.7617-1.7539-15.766-3.9062-23.719-5.1484-5.4492-1.4844-10.91-2.9375-16.375-4.375-16.082-5.3477-32.199-10.594-48.422-15.473-46.539-16.176-93.102-32.836-138.12-53.316-23.238-10.441-46.391-22.773-71.547-26.992-1.668-0.23047-3.375-0.46875-5.1094-0.69141-1.9141-0.55078-3.8398-1.0469-5.8008-1.4375-91.652-18.566-90.113 147.65-51.297 163.04 16.883 6.4766 35.402 6.9609 53.266 7.8398 12.344 0.375 24.512-1.8281 36.84-2.2656 10.652-0.26953 21.383 0.52734 31.961-1.1953 0.53906-0.09375 1.082-0.17578 1.6211-0.26562 18.219-0.73828 36.414-1.9414 54.402-4.9844 21.367-3.3047 42.383-8.4922 63.809-11.406 20.766-3.0703 42.07-5.3477 62.973-7.8086 2.1523-0.27734 4.2891-0.63281 6.4219-1 4.2852 0.003907 8.5703 0.019532 12.809-0.64062 12.668-1.7852 24.969-3.8906 37.855-4.4648 4.8203-0.39062 10.059-0.61719 14.789-2.0625 3.8164-0.34766 7.582-1.0938 11.246-2.5391 0.12109-0.039062 0.25391-0.097656 0.45313-0.16406-0.17578 0.066406-0.21094 0.074219-0.24219 0.089843-0.011719 0.007813-0.027344 0.007813-0.039062 0.011719 12.43-3.6562 6.3359-12.969-1.3594-17.871" fill="#969cff" />
 <path d="m677.43 604.75c-3.3555-16.363-13.316-30.949-24.465-42.543-12.211-12.547-25.164-24.586-41.551-30.48-22.883-10.422-54.711-8.5039-70.129 14.469-14.758 23.781-15.391 65.758-17.312 93.957-1.0625 18.152-2.7734 36.246-4.0977 54.379-1.2344 17.207-2.4258 34.422-3.6445 51.637-1.1211 8.0977-2.2266 16.203-3.875 24.246-2.6523 20.551-4.8633 41.199-7.7148 61.754-0.48828 4.1094-0.99219 8.3047-1.4023 12.52-1.5703 8.5469-5.2227 30.312 4.7383 32.332 10.898 2.6055 18.73-19.477 25.363-26.539 6.4766-8.457 12.441-17.328 18.426-26.188 5.5195-7.543 12.051-14.32 16.59-22.543 10.43-18.07 25.105-33.211 37.012-50.242 6.9492-11.922 14.766-23.539 21.434-35.664 3.1992-4.4219 6.4062-8.8359 9.6836-13.191 16.227-20.789 29.996-44.059 36.992-70.188 2.4414-8.9648 5.2227-18.285 3.9531-27.715" fill="#969cff" />
 <path d="m506.52 908.49c1.3789 6.3711-1.75 11.566-2.0117 17.77-1.1055 9.4492-10.199 18.617-20.008 17.641-2.9258-0.89453-5.4453-2.8594-8.3906-3.75-3.8438-0.42188-7.5273 1.4883-11.305 1.8516-12.617-0.24609-17.113-15.305-15.328-25.789 3.0078-11.844 24.672-28.691 38.625-25 15.09 3.9883 17.484 12.051 18.418 17.277" fill="#ffe45e" />
 <path d="m263.92 239.71c0.097656 0.35938 0.19141 0.71484 0.30078 1.0742-0.011719 0.019531-0.019531 0.035156-0.03125 0.046875-0.089844-0.37109-0.17969-0.74609-0.26953-1.1211" fill="#969cff" />
 <path d="m265.69 247.4c0.035156 0 0.066406 0 0.10156-0.007813 0.058593 0.46875 0.11719 0.94141 0.17969 1.4062-0.09375-0.46484-0.18359-0.93359-0.28125-1.3984" fill="#969cff" />
 <path d="m268.14 292.13c-0.019531 0.082032-0.042969 0.16797-0.066406 0.23438 0.019531-0.078126 0.042969-0.16016 0.066406-0.23438" fill="#969cff" />
 <path d="m245.04 290.28c0.046875 0.023438 0.097656 0.042969 0.14844 0.074219 0.035156 0.015625 0.066406 0.039062 0.10156 0.050781-0.082031-0.035156-0.16406-0.082031-0.25-0.125" fill="#969cff" />
 <path d="m256.38 317.04c-2.9219-1.7305-6.8125-2.0039-9.918-0.60156-1.8984 1.0703-56.68 37.723-63.344 41.941-25.48 14.469-51.422 28.105-76.051 44.035-15.441 8.0703-28.484 19.688-43.016 29.199-33.848 22.125-35.633 55.84-29.367 92.328 2.1289 17.898 0.80469 36.953 7.0352 54.398 7.2227 17.395 24.328 31.285 43.609 31.383 0.77734 0.054688 1.5469 0.082032 2.3164 0.082032 17.84-0.007813 31.355-14.441 44.555-24.875 19.832-18.785 39.715-39.199 49.938-64.953 6.4609-16.711 13.219-33.328 19.453-50.121 3.1406-7.6328 6.2812-15.258 9.5547-22.938 4.8906-17.062 11.543-33.465 18.945-49.578 6.4961-13.387 13.062-26.75 19.66-40.094 1.4102-2.7539 2.8203-5.5273 4.1172-8.3281 0.89453-1.8047 1.7773-3.6133 2.6758-5.4102 3.6484-7.8867 9.957-22.449-0.16406-26.469" fill="#969cff" />
 <path d="m239.35 297.82c-2.082-1.6602-4.3438-3.1328-6.5078-4.4844-9.8164-5.1875-19.539-10.762-30.094-14.328-0.41406-0.13672-0.82422-0.28125-1.2344-0.41797-10.09-5.6914-20-11.344-30.621-16.523-16.27-8.3125-33.566-14.625-48.988-24.547-17.672-12.855-37.719-28-60.324-27.188-15.789-4.5039-28.414 8.6875-32.305 24.484-0.57031 2.5312-0.90234 5.0977-1.125 7.6719-4.375 21.406-2.8945 43.715-1.6172 65.398 2.3516 16.723 0.53516 33.59 1.5859 50.387 0.76562 8.8359 4.75 17.73 11.145 23.652 5.1758 6.7812 13.113 11.23 25.277 11.684 9.0703 0.1875 17.738-1.7773 26.074-4.8789 6.1602-1.7695 12.07-4.4727 17.516-7.8359 10.402-4.9766 19.836-10.793 29.344-16.738 6.8984-3.7734 13.863-7.4414 20.867-10.836 12.746-5.5938 25.359-12.508 38.008-18.434 8.4258-3.3242 17.242-5.9219 25.746-9.0938 3.8203-1.5664 7.6992-3.0859 11.461-4.8242 2.9609-0.82031 5.8398-1.9219 8.5703-3.5234 4.0352-2.1875 6.043-4.2344 6.5742-6.168 0.13281-0.12891 0.24609-0.28125 0.35156-0.4375 3.0117-6.7461-4.0469-10.121-9.7031-13.02" fill="#969cff" />
 <path d="m249.05 310.84c0.03125-0.046876 0.070313-0.097657 0.10938-0.15234-0.03125 0.0625-0.078125 0.10156-0.10938 0.15234" fill="#969cff" />
 <path d="m170.81 262.02c0.027344 0.015625 0.050781 0.03125 0.082031 0.046875 0.027344 0.011719 0.050781 0.027344 0.078125 0.035156-0.050781-0.023437-0.10938-0.050781-0.16016-0.082031" fill="#969cff" />
 <path d="m268.14 292.14c-0.019531 0.074219-0.042969 0.14844-0.070312 0.23438 0.023437-0.085938 0.046875-0.16016 0.070312-0.23438" fill="#969cff" />
 <path d="m472.46 39.836c-21.039-29.805-67.453-27.379-99.984-25.422-9.8398 0.60938-42.367 1.6562-43.637 3.7812-6.7539 1.9492-13.195 4.9219-18.988 8.9453-10.672 7.6055-18.156 19.102-20.461 32.008-3.3359 12.543-4.7383 25.434-5.457 38.344-3.043 25.465-0.96094 51.09-2.5312 76.613-0.79688 14.012-3.7109 27.734-5.8711 41.559-1.2422 12.863-7.4531 66.457 8.3516 64.738 3.5312 0.94141 6.3008-2.1602 8.7266-4.3281 3.3828-2.9062 23.848-19.418 27.711-22.363 27.52-18.973 50.879-42.992 74.656-66.301 2.4219-2.0898 4.8125-4.2461 7.1875-6.4492 0.011719 0 0.011719-0.003907 0.011719-0.003907 9.5898-7.4609 18.719-15.48 26.793-24.629 5.5742-6.6172 10.652-13.637 16.102-20.367 2.168-2.6641 4.2852-5.3828 6.332-8.1523 10.863-12.801 19.863-27.086 24.902-43.293 5.8477-14.625 5.6992-31.633-3.8438-44.68" fill="#969cff" />
 <path d="m360.27 531.73c-17.84-38.246-37.492-76.324-51.797-116.2-9.6641-25.984-17.938-52.496-28.047-78.312-1.6484-3.2383-8.9883-12.91-15 2.043-2.9883 5.5156-5.6758 13.297-6.5664 15.047-6.5156 15.383-12.387 31.074-14.969 47.652-0.53516 2.7227-1.1367 5.4297-1.7617 8.1328-3.25 8.6289-6.2578 17.363-8.8008 26.266-7.3242 23.832-11.84 48.449-15.414 73.105-3.3984 25.16-4.4727 51.359 2.1953 76.078 6.6836 23.746 19.648 48.281 42.016 59.828 48.457 25.012 130.35 3.4531 98.145-113.64" fill="#969cff" />
 <path d="m697.01 29.242c-19.488-12.102-42.578-21.941-65.941-19.637-2.7461 0.36719-15.191 1.4297-18.5 1.5664-18.664-0.61328-37.383 4.0117-54.668 12.391-0.93359 0.39844-1.8594 0.80469-2.7812 1.2148-9.375 3.7695-16.871 10.75-23.922 17.797-16.047 16.844-31.02 34.914-42.082 55.469-10.148 15.758-23.766 28.949-35.695 43.34-12.574 14.305-24.719 28.965-38.02 42.621-12.934 15.316-27.164 29.363-43.664 40.855-7.5391 5.0977-14.668 10.691-21.523 16.602-3.0391 2.0781-5.9961 4.293-8.793 6.7617-10.586 8.207-20.332 17.445-30.23 26.508-3.6719 4.793-10.293 8.1289-11.266 14.48-1.5 4.043 0.027344 8.3164 5.4297 10.25 4.1836 1.2266 8.6094-0.98047 12.621-2.375 4.5781-2.0078 29.066-12.797 36.945-15.797 9.8906-4.125 44.426-18.484 52.199-20.742 28.551-8.3516 56.145-19.539 83.883-30.199 32.207-11.926 63.008-27.551 93.43-43.422 17.297-9.6289 35.516-17.477 52.348-27.938 16.801-10.121 35.355-18.699 48.102-34.105 18.453-15.855 36.309-39.57 35.738-64.578-1.6211-13.633-13.297-23.277-23.609-31.062" fill="#969cff" />
 <path d="m520.61 454.07c-5.1484-9.6562-12.355-18.168-21.367-24.422-25.367-17.027-54.434-27.605-80.773-43.012-19.234-11.105-38.383-22.398-58.25-32.312-10.27-6.418-21.602-11.273-32.508-16.355-7.9844-2.6953-14.84-7.9531-23.359-9.3672-3.9062-0.089844-7.7383 3.2539-7.207 7.3281 0.21094 1.1719 1.5508 6.0664 2.1328 7.1328 14.285 27.223 31.691 52.82 45.059 80.609 13.316 27.941 28.047 55.184 43.891 81.785 7.6719 13.188 15.52 26.367 25.309 38.137 6.2031 8.3594 15.098 14.215 25.594 15.176 15.328 1.7656 30.801-2.8477 44.84-8.7109 21.086-8.4336 38.406-27.398 43.723-49.844 5.4102-16.676 1.7734-31.504-7.082-46.145" fill="#969cff" />
 <path d="m631.99 264.93c-5.793-21.344-17.332-28.988-38.949-30.402-21.715-2.7188-42.934 2.7852-63.41 9.5938-0.23438 0.082031-0.48047 0.15625-0.72266 0.23828-23.406 7.4805-49.094 10.762-72.711 18.168-14.938 4.6445-28.941 10.051-44.184 14.156-9.1914 3.1484-45.836 9.6445-63.469 17.543-4.0039 1.2031-21.383 6.5117-25.566 8.6953-6.918 2.375-20.551 8.4414-9.9688 15.789 4.5039 3.8633 13.23 6.6328 16.773 8.5312 1.2578 0.61719 2.5547 1.0391 3.8789 1.3555 10.797 4.707 22.68 7.4766 33.691 11.016 17.762 6.1836 35.535 12.348 53.906 16.52 4.0586 1.0781 8.1016 2.2578 12.141 3.4609 27.184 9.2617 54.465 18.461 82.379 25.152 20.195 3.5234 40.188 9.1836 60.809 9.25 11.938 0.41406 26.398 0.57031 36.375-6.6914 10.285-3.8242 19.098-10.285 23.641-20.773 13.422-32.73 3.8789-68.684-4.6133-101.6" fill="#969cff" />
 <path d="m219.89 272.2c-8.5625-0.38281-15.18-5.7812-22.898-8.7109-7.3945-3.1914-15.414-5.6914-21.863-10.57-1.5195-1.082-7.3633-5.1797-4.3828-6.8672 1.9102-0.015626 3.4609 1.5938 5.0977 2.4297 1.8672 1.1445 4.1719 1.8398 6.0664 2.8477 12.855 6.5312 28.801 8.9805 37.98 20.871" fill="#969cff" />
 <path d="m269.91 275.27c-1.3281-8.4766-2.2461-17-3.8438-25.43-1.5898-12.848-1.3281-25.836-3.0273-38.809-0.37891-2.9453-0.72266-5.9336-1.0547-8.9219-1.6172-26.211-2.6875-52.805-3.1328-79.055-1.0586-25.992 0.20703-53.211-9.3555-77.84-6.2188-14.066-18.066-25.945-33.184-29.863-16.465-6.2109-34.012-5.6914-51.219-3.7773-24.418 1.4297-48.949 2.7617-72.977 7.6328-26.156 3.707-49.043 24.156-46.875 52.102 0.18359 11.227 4.2148 21.859 9.0352 31.863 4.8867 10.402 9.9102 20.77 15.664 30.723 16.98 30.367 36.875 59.113 60.672 84.559 8.457 9.0742 17.891 16.266 27.918 22.914 1.6602 1.4141 3.6914 2.6875 4.7578 3.6914 6.5508 5.1094 12.988 10.473 20.852 13.461 6.6875 3.332 13.426 7.4062 20.016 11.066 6.7734 3.4414 13.836 6.3633 20.586 9.8945 6.4062 3.1797 11.609 8.418 18.223 11.18 5.5508 2.8984 11.328 5.4648 17.309 7.3477 13.957 3.7344 11.691-14.348 9.6367-22.738" fill="#969cff" />
 <path d="m273.3 294.05c-2.8867 1.7891-4.1602 4.8711-5.3555 7.875-2.5781 2.7773-4.668 6.125-3.5898 10.066 0.36719 3.0938 2.5117 5.3555 4.1523 7.8359 1.7383 4.4883 5.7656 7.7266 10.715 7.5234 6.9609 1.6133 18.641-6.1367 20.199-10.18 2.2891-5.6797 2.7266-12.422 0.92969-18.344-5.2266-9.2656-18.688-10.18-27.051-4.7773" fill="#ffe45e" />
 <path d="m853.72 312.05c5.6992 4.668 1.8906 10.789-2.3477 14.926-13.598 14.312-30.191 25.43-45.969 37.262-13.559 10.188-26.691 20.902-39.988 31.426-30.555 23.762-61.629 55.539-103.78 53.996-4.3945-0.16797-9.2188-2.3438-10.828-6.5781-7.0664-20.566-6.1211-42.762-5.293-64.152 1.8086-42.383 10.504-53.371 51.793-65.688 20.668-3.6211 41.832 1.3242 62.691-0.097656 12.164-0.67188 24.289-2.2695 36.5-2.0703 8.9727 0.17188 17.953 0.42969 26.926-0.058593 9.7734 0.22266 21.52-4.25 30.297 1.0352" fill="#969cff" />
 <path d="m875.64 280.6c-12.031-13.055-24.125-26.246-37.039-38.527-0.03125-0.039062-0.058594-0.074218-0.097657-0.11328-0.007812-0.011719-0.007812-0.011719-0.015624-0.023437-2.9141-3.25-5.9492-6.3672-9.1172-9.2148-18.586-16.367-34.457-35.41-53.152-51.621-3.5664-2.875-7.4609-5.5469-11.57-7.9062-6.918-5.1094-14.426-9.3281-22.781-11.953-9.3828-2.207-19.055 0.09375-28.164 2.5078-21.52 5.2461-38.719 19.152-54.246 34.016-8.0195 7.4609-17.754 14.352-21.754 24.824-4.1055 15.957 3.4023 33.234 13.191 45.898 19.914 22.414 97.879 24.34 128.39 24.258 28.102-0.36719 56.145 1.3438 84.227 1.9219 12.438 1.5586 19.281-4.2227 12.129-14.066" fill="#969cff" />
 <path d="m873.14 338.26c-3.1055 0.46875-5.2852 3.0938-7.6953 4.8867-4.125 3.1914-8.4766 6.0977-12.566 9.3594-19.227 16.367-39.652 31.652-57.555 49.617-7.4453 6.3867-15.297 12.355-21.816 19.719-3.7578 3.543-7.4688 7.1328-11.16 10.738-10.922 10.914-23.195 20.59-32.859 32.637-9.5273 12.168-16.078 26.48-20.316 41.156-4.1289 15.379 0.24609 33.191 11.793 44.551 5.5508 5.5859 11.984 10.301 18.633 14.566 10.996 7.2812 22.336 14.352 35.387 17.543 23.695 5.043 33.605-22.094 41.668-38.711 10.164-20.668 17.707-42.414 24.07-64.457 3.5898-15.137 8.9648-29.734 14.883-44.141 5.5312-14.426 9.5391-29.324 12.965-44.332 0.48047-2.1133 0.94141-4.2305 1.4141-6.3477 4.2031-10.906 8.1445-21.953 9.5977-33.48 0.55078-4.875-0.14844-13.012-6.4414-13.305" fill="#969cff" />
 <path d="m987.79 599.86c-0.41797-4.5352-1.8008-9.2734-3.3398-13.773-0.015624-0.042969-0.019531-0.082032-0.035156-0.125-2.793-8.9453-6.5195-17.715-9.6602-26.445-3.3203-9.5547-6.8203-19.012-10.598-28.355-2.4609-7.0117-4.8047-14.047-6.9805-21.133-10.027-31.184-18.242-62.918-28.805-93.941-0.30859-0.81641-0.625-1.6797-0.94922-2.5781-3.0859-13.355-6.9258-26.586-11.172-39.586-3.7812-10.566-5.5469-30.074-20.922-28.02-8.5117 3.3984-6.9531 31.633-6.7969 46.504-0.023438 0.32812-0.046875 0.62109-0.0625 0.83594-0.82812 12.527-4.1641 25.176-4.0859 37.824-0.11328 2.7305-0.082031 5.457 0.007813 8.1797-1.543 16.504-3.1836 33.008-5.4141 49.582v0.011719c-0.015625 0.17188-0.027344 0.33594-0.0625 0.50781l0.019532-0.10156c-4.0312 34.695-7.9961 71.102-1.0625 105.8 3.0117 23.25 15.668 39.242 39.297 45.344 15.934 4.8945 32.723 1.9141 48.832-0.36328 14.926-0.99609 22.453-15.102 22.613-28.43 0.089844-3.9688-0.21094-7.8789-0.82422-11.738" fill="#969cff" />
 <path d="m1161.7 519.05c-2.2227-9.0625-6.7148-17.496-13.289-24.297-20.766-20.93-41.992-41.773-66.156-59.008-18.789-13.062-39.883-22.609-60.336-33.203-9.3125-6.1758-18.559-12.477-27.75-18.832-11.609-8.418-22.301-18.07-33.824-26.637-10.797-8.375-21.031-18.508-33.016-25.066-11.695-7.3477-14.48 0.58203-14.312 4.8242 3.332 13.035 11.25 23.703 18.418 34.863 0.007813 0.015626 0.023438 0.027344 0.027344 0.046876 4.3008 9.2539 8.8398 18.051 13.5 26.871 15.602 36.434 31.184 72.441 48.996 107.98 13.082 24.488 19.426 51.422 32.945 75.391 8.2422 14.359 18.453 27.969 32.629 37.223 13.137 10.094 27.59 18.586 43.852 22.875 9.1758 2.9648 18.113-1.4414 25.363-6.7109 11.453-6.7969 20.906-16.344 26.645-28.219 6.625-15.484 10.703-32.277 12.031-48.988 0.28516-13.23-2.125-26.391-5.7227-39.113" fill="#969cff" />
 <g clip-path="url(#b)">
  <path d="m1176.6 277.03c-8.9297-12.844-22.035-25.047-38.215-27.832-26.629-2.6914-53.754 1.5703-79.336 8.8594-20.25 5.8125-39.27 14.793-58.754 22.582-14.242 5.6172-29.066 10.531-43.566 15.605-3.5273 1.2656-28.336 6.7773-32.816 11.746-5.7812 4.6914-4.0508 9.1211 17.828 19.238 9.668 4.4648 19.609 8.1914 29.285 12.613 0.074219 0.039062 0.16016 0.066406 0.24219 0.10547 0.76953 0.35156 1.5195 0.73047 2.2891 1.0898 2.4375 1.1602 4.8789 2.3203 7.3164 3.4805 0.039062 0.019531 0.074219 0.035156 0.11328 0.050781 7.5 3.5547 14.98 7.0859 22.383 10.371 39.629 18.035 77.566 41.938 120.76 50.973 16.133 2.7617 34.102 1.7383 47.707-7.9609 10.871-8.4766 13.973-33.488 16.262-46.68 2.8594-24.742 2.6172-52.445-11.496-74.242" fill="none" />
 </g>
 <path d="m1146.5 42.672c-26.473-21.844-67.098-24.914-97-8.0039-27.254 15.648-49.176 54.203-63.969 81.113-0.89062 1.6719-1.7539 3.3516-2.6289 5.0156-6.5195 10.977-13.242 21.848-18.504 33.5-3.6602 8.957-6.9805 18.055-10.426 27.094-3.0664 7.0273-6.0469 14.074-8.9531 21.152-0.45703 1.1094-0.85938 2.2266-1.293 3.3438-2.8867 6.0664-5.9102 12.145-8.4883 18.227-4.2227 10.383-7.0742 21.238-11.312 31.617-4.1406 10.645-9.7422 21.434-11.25 33.016-0.027344 6.6094 7.1016 6.9414 10.457 5.082 2.7266-1.1758 5.3008-2.7266 7.7969-4.4492 6.5312-4.1211 13.105-9.7539 18.598-13.781 1.2891-0.89453 2.582-1.7695 3.8867-2.6406 0.24219-0.15234 0.49219-0.32422 0.71484-0.45312 0.14453-0.11328 0.29297-0.21875 0.4375-0.33203 5-3.3242 10.094-6.4961 15.352-9.4492 33.176-18.195 71.902-28.293 106.68-43.742 26.891-12.883 77.145-35.723 90.418-61.734 6.8438-14.344 4.1758-30.781 5.9492-46.102 3.4844-31.211 0.60938-48.746-26.461-68.473" fill="#969cff" />
 <path d="m913.96 90.516c0.72266 12.891-0.19531 25.801-0.57031 38.684-0.21875 21.883 0.94141 43.785-0.42969 65.641-0.64062 20.207-2.8711 40.816-4.0586 60.902-0.88281 9.7852 2.8242 35.766-13.242 33.145-7.0977-1.1602-25.719-37.23-30.25-45.227-3.1992-5.625-5.7266-11.609-9.2461-17.082-7.4375-12.734-16.809-24.188-25.422-36.129-11.797-14.688-25.168-28.008-35.73-43.699-3.6719-3.9219-7.3242-7.7539-10.871-11.438-12.406-12.941-25.723-25.918-32.422-42.738-5.6094-12.625-6.0195-26.637-4.3438-40.121 1.0898-14.789 10.777-26.391 25.832-29.422 17.215-3.7383 34.867-4.8125 52.391-6.1836 24.355-2.1758 50.879 3.0664 69.98 18.574 14.59 14.305 17.117 35.867 18.383 55.094" fill="#969cff" />
 <path d="m911.71 312.79c0.03125 0.89062-0.007813 1.7852-0.10547 2.6797-0.12109 1.1406-0.33984 2.2695-0.625 3.375-0.80469 3.0273-2.2305 5.9023-4.082 8.2812-4.3359 7.4688-11.359 9.082-19.438 8.7695-4.8086-0.62891-9.8633-3.6758-12.844-7.4805-0.92578-3.0039-3.5664-4.8281-4.7344-7.7031-1.5508-2.9727-0.84375-6.2734-1.0469-9.4648-0.36328-2.8477 0.8125-5.9023 3.0742-7.6875 1.0234-0.84375 2.1055-1.1289 3.0078-1.707 1.4219-1.8086 3.3672-3.6367 5.3438-4.6406 2.4414-0.82812 4.7539-2.4922 7.3047-2.8672 5.7969-0.49219 12.082 0.83984 16.391 4.9609 2.375 2.4688 4.9375 4.9258 6.707 7.8906 0.097656 0.26172 0.1875 0.53516 0.27344 0.79688 0.48828 1.5508 0.72656 3.1641 0.77344 4.7969" fill="#ffe45e" />
</svg>