<?xml version='1.0' encoding='utf-8'?>
<svg xmlns="http://www.w3.org/2000/svg" width="1587" height="1587" version="1.0" viewBox="0 0 1190.2 1190.2" zoomAndPan="magnify">
 <defs>
  <clipPath id="b" fill="none">
   <path d="m0 0h1189.5v1189.5h-1189.5z" fill="none" />
  </clipPath>
  <clipPath id="a" fill="none">
   <path d="m841 328h348.5v543h-348.5z" fill="none" />
  </clipPath>
 </defs>
 <g clip-path="url(#b)" fill="none">
  <path d="m0 0h1189.5v1189.5h-1189.5z" fill="none" />
  <path d="m0 0h1189.5v1189.5h-1189.5z" fill="none" />
 </g>
 <g clip-path="url(#a)">
  <path d="m919.2 870.88-75.496-75.516 194.79-194.84-196.71-196.76 75.496-75.516 272.21 272.28z" fill="none" />
 </g>
 <path d="m638.61 870.88-75.492-75.516 194.79-194.84-196.71-196.76 75.496-75.516 272.22 272.28z" />
 <path d="m358.02 892.66-75.5-75.512 194.8-194.84-196.71-196.76 75.492-75.512 272.22 272.27z" />
 <path d="m77.43 880.49-75.5-75.516 194.8-194.84-196.72-196.76 75.496-75.512 272.22 272.27z" />
</svg>