<?xml version="1.0" encoding="UTF-8"?>
<svg width="1587" height="1587" version="1.0" viewBox="0 0 1190.2 1190.2" xmlns="http://www.w3.org/2000/svg" zoomAndPan="magnify">
 <defs>
  <clipPath id="a">
   <path d="m0 0h1189.5v1189.5h-1189.5z"/>
  </clipPath>
 </defs>
 <g clip-path="url(#a)" fill="#fff">
  <path d="m0 0h1189.5v1189.5h-1189.5z"/>
  <path d="m0 0h1189.5v1189.5h-1189.5z"/>
 </g>
 <path d="m571.63 560.83c0.78125-0.55859 1.5898-1.1797 2.3555-1.6875 1.3359-0.84375 1.4023-1.8008 0.28516-2.9297 1.0273-0.55859 1.8672-1.3203 2.5273-2.2812 0.66016-0.96484 1.0664-2.0234 1.2148-3.1797 0.4375-1.7891 1.168-3.4453 2.1953-4.9688 2.0703-3.9961 3.6602-8.1992 5.332-12.355 0.63672-1.5938 0.94141-3.0586 3.2812-3.4219 1.2383-0.19141 1.9883-1.1016 1.0508-2.6758-0.3125-0.60938-0.49609-1.2539-0.54297-1.9375-0.050781-0.68359 0.035157-1.3477 0.25391-1.9961 1.5938-4.5703 3.4531-9.0586 5.3789-13.516 0.36719-0.82812 1.4648-1.3867 2.3242-2.168-1.3203-0.60547-0.89062-1.8438-0.31641-3.1836 2.0195-4.9336 3.9297-9.918 5.8711-14.887 0.52734-1.3047 1.0039-2.625 1.5938-4.1875-2.543-0.83203-5.1172-0.94141-7.7188-0.33203-0.67969 0.25391-1.3789 0.34766-2.1016 0.27734-0.71875-0.070313-1.3906-0.29688-2.0078-0.67578-1.7812-1.3086-3.3242 0.65234-5.125 0.30078-1.3984-0.10156-2.793-0.054688-4.1836 0.14453-3.7578 0.17578-7.5312 0.35156-11.285 0.49219-2.4375 0.097657-4.8711 0.14453-7.293 0.19141l4.4922-1.1797c-2.1523-2.8477-4.1094-0.77734-6.7344-1.1289l2.3555 2.3086c-0.42188 0.24219-0.87109 0.39844-1.3555 0.46094-0.48047 0.066406-0.95703 0.039063-1.4258-0.085937-0.47266-0.12109-0.90234-0.32812-1.2891-0.61719-0.39062-0.29297-0.71094-0.64453-0.96094-1.0625l-3.3711 0.875c-1.3555-0.89062-2.7891-1.75-4.0781-2.7539-2.082-1.5938-1.6836-3.457 0.95703-4.1094 4.9648-1.2422 9.9492-2.4844 14.992-3.4844 8.9961-1.8008 18.02-3.5508 27.059-5.082 5.4922-0.92188 11.145-1.3984 16.824-2.1016 2.0547-3.8828 4.1562-7.832 6.3672-12.004l1.8789 0.55859c0-0.46094 0.35156-1.1484 0.17578-1.2578-2.0703-1.3711-0.84375-2.5625 0.16016-3.7422 0.28516-0.35156 1.1602-0.69922 1.1289-0.76562-1.5938-3.0547 1.3672-3.4219 3.1836-4.5039 0.28516-0.17578 0.38281-0.60547 0.65234-0.8125 0.96875-0.69922-1.9883-1.2422 0-2.0078 1.5898-0.65234-0.28516-1.3047-0.11328-1.8945 0.52734-1.7812 1.1797-3.5312 1.8945-5.6172l4.0273 2.6094c-0.84375-1.5938 0.55859-3.5508-1.2422-4.9336-0.14844-0.16406-0.19141-0.34766-0.125-0.55859 1.7969-1.9258 1.8281-4.5859 3.2773-6.625 0.71094-0.67188 1.5312-1.1758 2.4531-1.5117 0.74219-0.33203 1.3477-0.82812 1.8203-1.4883 0.47266-0.66016 0.74609-1.3945 0.82031-2.207l2.8164 0.20703-3.1836-3.707c0.8125-0.60547 1.5938-1.6875 2.5625-1.8633 3.5508-0.62109 3.9023-1.0977 2.168-4.5391 1.3828-0.84375 2.6562-1.5898 2.7031-3.6758-0.0625-0.55469-0.023437-1.1016 0.125-1.6367 0.14844-0.53906 0.38672-1.0273 0.72656-1.4727 0.33594-0.44141 0.74219-0.80859 1.2188-1.0938 0.48047-0.28516 0.99219-0.47266 1.543-0.55859 0.67969-0.30469 1.2383-0.75781 1.668-1.3672 0.42969-0.60547 0.67578-1.2812 0.73438-2.0234-0.47656-2.4688 1.4023-2.4531 2.8359-3.1836 0.90625-0.48047 2.1641-1.3711 2.1797-2.0859 0-3.3281 1.8945-5.5586 4.5508-7.4688 0.42578-0.27344 0.70313-0.65625 0.82813-1.1445 0.33594-2.0078 2.0234-3.1875 3.1836-4.6523 1.2383-1.6172 2.6719-3.0391 4.2969-4.2656 1.6992-1.3906 3.1133-3.0273 4.25-4.9023 3.1836-5.0312 8.0547-8.7734 12.496-12.738 5.5391-5 12.367-5.3672 19.578-3.4219 0.76172 0.19531 1.3984 0.59375 1.9102 1.1914 2.707 3.7266 5.3633 7.3555 6.1445 12.039 0.53125 2.9141 0.64063 5.8477 0.32422 8.793-0.3125 2.9492-1.0352 5.7891-2.1719 8.5273-1.082 2.5977-2.4492 5.082-3.5156 7.6914-0.94141 2.3398-1.5938 4.7773-2.4375 7.1484-0.73438 2.4648-1.6094 4.8828-2.625 7.2461-2.8164 5.8906-4.4414 12.305-8.9141 17.512-0.79688 4.4258-4.2031 7.7539-6.2891 11.625-1.7461 3.6875-3.6992 7.2656-5.8555 10.73-2.5781 3.7734-4.7734 7.7227-7.5273 12.004 0.98047 0.050781 1.9609 0.050781 2.9414 0 9.1875-0.89062 18.371-1.9102 27.57-2.6602 3.5977-0.28516 7.1953 0 9.1055 3.6953 0.26953 0.50781 1.2891 0.68359 1.957 1.0195 2.4648 1.2734 5.793 1.2109 7.2578 4.0742 0.22266 0.42969 1.3828 0.49609 1.9102 0.66797-0.36719 1.5938-0.69922 3.0273-1.082 4.6172l-2.6133 0.65625c0.27344 1.207 0.51172 2.3242 0.76562 3.4375-2.7695 3.6445-6.6523 4.9375-11.477 4.4414-1.293-0.03125-2.5781 0.070312-3.8516 0.30469-0.78125 0-1.5898 0.31641-2.3086 0.34766-4.2812 0.14453-8.5469 0.17578-12.828 0.36719-9.5508 0.41406-19.02 0.92188-28.523 1.3047-3.3086 0.12891-5.5859 0.91016-7.4805 3.8398-4.1523 6.3828-8.6875 12.48-13.609 18.293-2.7227 3.1836-5.125 6.6055-7.7656 9.8711-6.3672 7.832-12.941 15.523-19.625 23.133-6.1133 6.9258-12.578 13.598-18.719 20.523-1.4492 1.6328-2.4805 3.4961-3.0898 5.5898-2.4648 8.5977-5.125 17.195-6.8281 25.934-1.2422 6.3711-2.6094 12.898-2.2773 19.586 0.28906 5.7461-0.22266 11.512-0.31641 17.273 0 1.3711 0.17578 2.7695 0.26953 4.2656l4.3789 1.1484c0.86328 1.2383 1.6523 2.5234 2.3711 3.8516 0.39844 0.76953 0.50391 1.5742 0.31641 2.4219-0.76172 2.5156-0.09375 5.4766-2.5938 7.5312-0.46484 0.57812-0.65625 1.2344-0.57422 1.9727 0.14453 4.7773-3.2773 7.7227-6.2852 10.859-1.6875 1.75-4.043 0.55859-5.875-0.097656-1.707-0.80859-3.2969-1.8086-4.7734-2.9922-2.832 1.7188-2.3555 1.2891-4.6016-0.73047-1.5898-1.4492-1.9258-3.4727-3.5312-4.6172-0.73047-0.54687-1.3164-1.2227-1.7578-2.0234-0.44141-0.79688-0.69922-1.6523-0.77344-2.5625-0.60547-3.3438-0.38281-6.8164-2.1016-10.031-0.39844-0.73438-0.79688-2.4375 1.4336-2.5469 0.22266 0 0.36328-1.4961 0.46094-2.3086 0.78125-7.2773 1.4805-14.555 2.3398-21.812 0.60547-5.2227 1.418-10.414 1.5898-15.922-2.7852 2.8164-5.5547 5.6523-8.3555 8.4688-8.6367 9.0352-17.949 17.309-27.934 24.824-1.418 1.0156-2.9141 1.9414-4.3594 2.9141l-0.98828-4.0781-0.98828-0.12891-1.1133 1.6719c2.0391 0.49609 0.71484 2.1836 1.4336 3.1875-4.8555 3.1836-10.109 5.3164-16.348 3.8984-1.5586-0.47266-3.0508-1.1016-4.4727-1.8945-1.2734-0.60547-1.8164-2.6914-4.0273-1.4805-0.31641 0.17578-2.0703-0.78125-2.1016-1.2734-0.22266-2.8984-3.8672-4.4258-3.582-7.5312-0.050781-0.48438-0.19922-0.93359-0.44922-1.3516-0.25-0.41797-0.57813-0.76172-0.98047-1.0352-2.2617-1.5938-1.5938-3.7891-1.5938-5.8125 0-0.26953 0.73438-0.54297 1.0195-0.74609l-2.3555-4.5703c-4.5039 4.7734-8.9141 9.5508-13.48 14.328 2.5117 0.71484 2.2891-1.5938 3.4062-2.1797 1.2773-0.86328 2.4531-1.8477 3.5312-2.9453 0.070313 0.36719 0.078126 0.74219 0.03125 1.1133-0.046874 0.375-0.15234 0.73437-0.3125 1.0742-0.16016 0.33984-0.36719 0.64844-0.625 0.92578-0.25391 0.27734-0.54687 0.50391-0.875 0.69141-4.4883 3.6133-8.9922 7.2266-13.641 10.684-2.0195 1.3906-4.1406 2.6016-6.3672 3.6289-1.043 0.54688-2.1523 0.86719-3.3281 0.96094-1.1719 0.09375-2.3203-0.046875-3.4375-0.41797-2.7227-0.6875-5.4414-0.6875-8.1641 0l1.9102 1.3203c-0.32031 0.22266-0.49609 0.44531-0.68359 0.44531-4.5703 0.12891-8.6445-1.5938-12.863-2.8828-2.0469-0.64453-3.9219-1.6172-5.6289-2.9141-1.7109-1.3008-3.1484-2.8477-4.3164-4.6484-2.9062-3.707-5.0312-7.8203-6.3672-12.34-1.9922 1.3555-3.5195 2.293-4.9375 3.3945-7.9102 6.3203-16.508 11.52-25.785 15.586-4.9805 2.1016-10.203 1.418-15.406 1.0977-0.55859 0-1.082-0.58984-1.5898-0.84375-0.85547-0.57031-1.7812-0.95703-2.7852-1.1602-5.0469 0-7.3867-3.2969-9.9023-6.3711-1.4375-1.5586-2.5898-3.3086-3.4648-5.2383-0.875-1.9336-1.4219-3.957-1.6445-6.0664-0.30859-1.8828-0.88672-3.6836-1.7344-5.3945-2.832-7.2305-1.7344-14.332 0.26953-21.48 0 0 0.23828 0 0.82812-0.19141-1.1016 2.7266-1.6914 5.5547-1.7695 8.4922-0.082031 2.9375 0.35547 5.7969 1.3086 8.5781 0.23828-3.3789 0.26953-6.0977 0.66797-8.7578 0.82812-5.4609 1.4648-10.969 3.9805-16.066 0.17578-0.56641 0.24609-1.1445 0.20703-1.7344v0.078125c0.62891-0.41406 1.1289-0.95312 1.4961-1.6133 0.36328-0.66406 0.55469-1.3711 0.57031-2.1289 0.35547-2.0586 1.0195-4.0156 1.9961-5.8672 0.97656-1.8516 2.2148-3.5039 3.7188-4.957 0.47656-0.51172 0.71875-0.62109 0.82812-1.3867 0.22266-1.4961 0.57422-3.0234 3.1836-3.1836 2.0703-0.10938 2.5469-2.1484 1.3047-4.4258 0.69922-0.78125 2.9141-0.42969 2.2773-2.5156-0.26953-0.90625 0.68359-1.7031 2.2109-2.2148 0.8125-0.39453 1.5039-0.94531 2.0742-1.6445 0.57031-0.70312 0.96484-1.4922 1.1914-2.3672 1-4.1562 3.9922-7.1953 6.2695-10.652 1.7266-2.3633 2.9883-4.9531 3.7891-7.7695-1.3828 0.27344-2.7305 0.66016-4.043 1.1641-7.4492 3.8047-15.648 5.5234-24.004 6.6875-0.98047 0.09375-1.8906 0.40234-2.7305 0.91797-0.83594 0.51562-1.5195 1.1914-2.043 2.0273-2.8516 4.0273-6.0352 7.8633-9.2188 11.688-4.1211 4.9492-8.2891 9.9023-12.605 14.727-4.0586 4.5391-8.293 8.9492-12.527 13.359-1.2383 1.2188-2.5625 2.3438-3.9609 3.375-4.7773 3.7578-8.0391 8.8359-12.574 12.848-7.1328 6.3672-14.086 12.738-21.105 19.105-4.7773 4.2812-9.2812 8.7109-14.152 12.832-5.1328 4.1523-9.9609 8.6289-14.484 13.438-0.45703 0.42969-0.94922 0.8125-1.4805 1.1484-3.1836 2.4492-6.7148 4.7773-9.707 7.4023-1.6797 1.5898-2.9375 3.4648-3.7734 5.6211-0.89453 2.543-1.6289 5.1328-2.1953 7.7695-1.8789 6.625-3.6797 13.277-5.7148 19.871-1.8789 6.0977-3.9141 12.164-6.0664 18.195-1.8438 5.207-3.8984 10.352-5.9844 15.492-1.7344 4.2539-3.6758 8.4219-5.457 12.738-1.082 2.6094-1.9922 5.2852-3.0234 7.9609-1.0352 2.6758-2.1367 5.4922-3.3594 8.168-2.6445 5.8125-5.1758 11.688-8.1328 17.355-5.7656 11.016-11.383 22.113-17.812 32.797-5.8711 9.9531-12.664 19.23-20.375 27.832-6.0703 6.707-12.797 12.676-20.18 17.902-7.3828 5.2266-15.246 9.5859-23.59 13.082-7.9609 3.3594-16.078 6.6367-24.941 7.8633-6.6875 0.94141-13.371 2.0547-20.23 1.0508-2.5977-0.3125-4.9062-1.2969-6.9258-2.9609l2.2617-1.1289c-4.2188-1.5938-7.1016-3.8555-7.9609-7.5312l-2.0039 0.23828c-1.1133-4.9375-1.1133-9.8711 0-14.809 0.71484-3.7266 0.41406-7.625 1.1602-11.336 0.75-3.7109 2.3906-7.6094 3.4727-11.445 0.68359-2.4062 2.0508-4.6172 1.9258-7.2773-0.082031-1.5938-0.097657-3.6133 1.8789-4.7773 0.27734-0.22656 0.46094-0.51562 0.55469-0.85938 1.5117-4.2461 3.2734-8.3867 5.2852-12.418 3.582-6.3711 6.4453-12.992 11.43-18.598 0.57812-0.61719 0.96484-1.3398 1.1602-2.1641 0.027344-0.36719 0.10938-0.71484 0.25391-1.0508 0.14062-0.33984 0.33203-0.64062 0.57812-0.91406 0.24219-0.27344 0.52344-0.5 0.84375-0.67578 0.31641-0.17969 0.65625-0.30469 1.0156-0.37109 0.82812-0.20703 1.3516-1.4961 1.9102-2.3398 0.55469-0.84375 0.62109-1.8281 1.2734-2.4492 5.0117-4.7773 8.1484-10.828 12.223-16.242 2.1797-2.9297 4.7773-5.6523 7.0508-8.4688 2.707-3.1836 5.3477-6.4961 8.1172-9.6797 0.92578-0.98047 1.9219-1.8789 2.9922-2.6914 2.9141-2.4375 5.9531-4.7773 8.7539-7.2773 1.3359-1.3789 2.5508-2.8555 3.6484-4.4258 0.44531-0.57422 0.65234-1.4023 1.2383-1.75 3.6289-2.1211 4.9844-6.5781 9.9648-7.4688 0.88672-0.27344 1.6875-0.70703 2.3984-1.3008 0.71094-0.59375 1.2812-1.3008 1.707-2.1211 0.82813-1.3867 1.9609-2.4453 3.3906-3.1875 1.1641-0.69922 2.0391-1.7812 3.1836-2.5312 1.1484-0.74609 2.3906-1.2227 3.8867-1.9727-0.75-1.5938 0.69922-2.5938 2.1328-3.6289 4.5977-3.3945 9.1172-6.8633 13.832-10.145 3.3711-2.3398 7.0352-4.3438 10.473-6.6055 2.2734-1.4961 4.457-3.1836 6.5391-4.7773 3.6484-2.9453 7.3555-5.8438 10.715-9.043 5.332-5.0781 10.059-10.699 15.676-15.477 4.1875-3.5508 3.1836-8.2305 4.7773-12.34 0.80078-2.5625 1.0547-5.1797 0.76172-7.8477-0.63672 2.0703-1.2734 4.1406-1.8945 6.2266 0.36719-2.7227-0.20703-5.6875 2.4688-7.8359 0.17578-0.16016 0.23438-0.35938 0.17578-0.58984-2.1484-4.6641 1.2891-8.7695 1.3672-13.23 0.16016-1.5234 0.52734-3 1.0977-4.4258 0.32422-1.5039 1.0273-2.8047 2.1016-3.8984 1.2734-1.2266 1.3867-3.457 2.0078-5.2383l-0.73438-0.22266-1.3516 2.6406c0.39844-2.832 0.68359-5.5078 1.2109-8.1367 0.15625-0.85938 1-1.5898 1.4805-2.4023 0.76172-1.3047 1.4766-2.6289 2.3555-4.2031l-5.7461 0.53906c0.47656-1.3203-0.6875-1.0664-1.2734-0.90625-0.48438 0.13672-0.92969 0.35547-1.332 0.65625-0.40234 0.30078-0.74219 0.66406-1.0117 1.0859-0.27344 0.42578-0.46094 0.88281-0.5625 1.375-0.10547 0.49219-0.11719 0.98828-0.039063 1.4844l-2.9297 3.0742c-1.3516-1.2578-1.3516-1.2578-2.7539 0.15625l2.8008-0.1875-5.1875 6.4609c-0.44531-2.5781-0.44531-2.5781-2.3867-1.6875l2.4805 1.5938c-1.832 0.40625-3.3867 1.2969-4.6641 2.6758-3.3398 3.3438-6.8594 6.5117-10.266 9.8047-0.65625 0.68359-1.1875 1.4531-1.5898 2.3086-0.89062 2.1719-2.3398 3.8672-4.3477 5.082-0.56641 0.28516-0.99609 0.70703-1.2891 1.2734-2.1953 5.2383-6.9219 8.7734-11.027 12.496-3.3281 3.043-6.0664 6.8945-10.664 8.7734-0.55859 0.22266-0.6875 1.1953-1.2109 1.5938-1.4805 1.2422-3.0078 2.418-4.6016 3.5352-0.55469 0.39844-1.4297 0.42969-2.0039 0.80859-5.6523 3.8398-11.254 7.7227-16.887 11.594-0.41016 0.28906-0.83594 0.55469-1.2734 0.79688-5.7148 3.1836-11.445 6.207-16.875 9.7109-0.67188 0.25781-1.3672 0.37109-2.082 0.33203-1.0117 1.2266-2.1758 2.2891-3.4883 3.1875-4.1523 2.1484-8.418 4.1719-12.734 5.9375-5.1875 2.1016-10.648 3.6602-15.758 5.9062-5.7031 2.2734-11.613 3.6797-17.73 4.2188-4.1719 0.34766-8.3477 0.40234-12.527 0.16016-1.7539-0.11328-3.4375-0.51172-5.0586-1.1953-1.6172-0.6875-3.0781-1.6211-4.3789-2.8008-1.1602-0.92188-2.5469-1.5938-3.7422-2.5625-3.1797-2.4375-6.3633-4.7773-9.3086-7.4531-0.85938-0.79688-1.5938-2.8164-1.1133-3.5039 1.3828-1.9258-0.14453-2.2266-1.3555-2.7383-1.1406-0.52734-2.0938-1.2891-2.8555-2.2891-0.76562-1-1.25-2.1211-1.457-3.3633-0.023438-1.2461-0.19922-2.4727-0.52734-3.6758-0.89844-2.6484-1.1094-5.3477-0.63672-8.1055 0.50391-3.0586 0.68359-6.1367 0.54297-9.2344 0-4.3789-0.50781-8.7383-0.57422-13.117 0-1.4805-1.0156-3.7109 2.0859-4.0469 0.28906-0.57031 0.32422-1.1602 0.11328-1.7656-1.5938-2.2617-1.6875-2.1797 0.49219-4.6641 0.17578-0.29297 0.26172-0.60938 0.26172-0.94922s-0.085938-0.65625-0.26172-0.94531c-1.5938-1.8945-0.76562-3.8555-0.39844-5.7656 0-0.33203 1.0508-0.50781 1.832-0.85937-2.8203-1.5898-2.0703-3.8516-1.0977-5.7148 2.418-4.6797 3.2773-9.7266 4.7734-15.156l1.8125 2.4023c1.5938-1.5938 2.0078-3.0078 0-4.5547l1.3086 0.36719c0-0.17578 0.23828-0.44531 0.15625-0.52344-1.5898-1.5938-1.5898-1.5938-0.46094-3.6797 0.26953 0.58984 0.32031 1.082 0.60547 1.2734 0.50781 0.23047 1.0391 0.375 1.5898 0.42969 0.082031-0.41406 0.38281-1.0039 0.19141-1.2109-0.84375-0.67188-1.7422-1.2734-2.6875-1.7969l2.5156-3.7891 0.9375 2.0547c2.4336-1.9922 0.82812-4.4766 0.46094-7.2461l2.7539 1.5938 1.9414-5.2383c-2.1016-1.1172-2.1016-1.1172 0.47656-4.8594l1.9922 1.3711c0-3.1836 3.8984-5.2227 1.8594-8.6445l1.5938 1.0039 2.1484-2.5-2.3555-1.7227c0.66797-1.5898 1.4023-3.1836 2.1172-4.9648 0.625-1.8906 1.4062-3.7188 2.3398-5.4766 1.6055-2.5273 3.3867-4.9219 5.3477-7.1836 1.5117-1.7812 2.9609-3.4219 1.9883-6.1758 3.6953-0.62109 4.3945-2.9141 3.3125-6.2422l-7.7852-0.84375c-3.6914-0.41406-7.4961-0.92188-10.457-3.0234-4.2812-3.0586-9.6758-3.9805-14.086-6.6406-2.8711-1.7422-5.4297-3.8672-7.6719-6.3672-0.90625-1.0039-0.42969-3.043-0.57422-4.6172 2.582-0.48047 4.1562 1.7969 6.7188 1.3672 2.1328-0.34766 4.3594 1.7539 6.6367 0.14453 0.8125 2.3867 1.3359 2.625 4.2188 2.4688 1.7031-0.097656 3.582 0.33203 4.1367-1.9609 2.0078 1.0352 3.7109 2.6445 5.6992 0.76562 0.25-0.125 0.5-0.125 0.75 0 2.5117 2.8164 5.7109 0.875 8.5312 0.97266 2.6992 0.015625 5.3516-0.33203 7.957-1.0352 1.457-0.46094 2.9414-0.78906 4.457-0.98828 3.5352-0.26953 6.6523-1.2578 8.7227-4.4258 2.7383-4.2188 6.0625-8.1211 9.1836-12.133 3.1211-4.0117 6.207-7.9922 9.3906-11.766 1.1328-1.5859 2.6328-2.6484 4.5039-3.1836 2.1641-0.55859 2.6602-2.8203 3.4531-4.5859 0.32031-0.71875 0.14453-1.9922 0.63672-2.1992 2.8516-1.1914 3.3125-3.8516 4.7773-5.8906 0.9375-1.2734 1.5898-3.3906 4.2344-2.7383 1.0352-1.6875 4.5195-2.0391 3.1836-5.1406-0.27344-0.62109 0.42969-2.1992 2.3242-2.1836 1.0664-0.19922 1.9766-0.6875 2.7344-1.4648 0.22656-0.17578-0.25391-1.0508-0.49219-1.8477 0.57422-0.73047 1.418-1.7656 2.2617-2.8008 0.45312-0.65234 1.0195-1.1953 1.6875-1.6289s1.3945-0.72266 2.1797-0.87109c3.4531-0.71484 4.918-3.7266 5.7773-6.3672 0.12891-0.67969 0.42188-1.2734 0.88672-1.7852 0.46484-0.50781 1.0273-0.85937 1.6914-1.0508 3.7891-1.3203 5.5078-4.2031 6.9883-7.4023l2.9609-0.875-1.0664-1.7344c3.1836-3.3594 6.2539-6.9609 9.6758-10.285 6.3672-6.1328 12.418-12.469 19.277-18.059 6.5586-5.3477 12.32-11.445 19.465-16.207 1.6719-1.1133 2.9453-2.4336 5.3633-1.7344 0.91016 0.082032 1.7227-0.16016 2.4375-0.73438 2.1328-1.6172 4.1758-3.3398 6.1289-5.1719 0.36328-0.35156 0-1.3398 0-2.4688 2.4023-1.6875 4.7734-4.332 9.0859-4.4102 0.35938 0 0.71094-0.050781 1.0547-0.15625s0.66797-0.26172 0.96484-0.46094c0.29688-0.20312 0.55859-0.44141 0.78516-0.72266 0.22656-0.28125 0.40625-0.58594 0.53906-0.92188 1.2891-3.3281 1.75-3.3281 5.8086-2.7227 0.51562-0.36328 0.91406-0.82812 1.1992-1.3906 0.28125-0.56641 0.41406-1.1641 0.39453-1.793 0.10937-0.875 2.082-1.5938 3.4375-2.4375v1.9453c2.0195-0.73438 4.7734-0.94141 5.5703-2.1992 1.3359-2.0195 2.9297-1.7812 4.7734-1.7812 0.22266 0 0.42969-0.22266 0.79687-0.44531l-0.89062-2.5664c0.28516-0.31641 0.46094-0.66797 0.76562-0.82812 9.7383-5.0312 19.957-7.7539 31.34-4.7734 0.64453 0.15234 1.2969 0.19531 1.957 0.125 4.6953-0.53906 8.4023 1.7031 12.352 3.3906 0.78125 2.4531 4.0586 3.5195 4.1055 6.5469 0 2.1641 1.5938 4.3281 1.6875 6.4961 0.17188 3.375-0.097657 6.7148-0.8125 10.02-0.71094 3.3047-1.8438 6.4609-3.3906 9.4648-4.332 7.9531-9.3398 15.449-15.023 22.5-11.969 15.352-25.059 29.684-39.27 42.988-10.73 10.16-22.098 19.551-34.109 28.164-6.0938 4.332-12.527 8.3125-18.957 12.242-12.848 7.9844-26.258 14.883-40.223 20.699-3.6758 1.4805-7.3984 2.8516-11.141 4.3477-1.8125 0.74609-3.5312 1.5898-5.2852 2.5l-1.875 0.30078-6.957 3.1836 0.20703 0.36719 2.1953-0.28516c-0.31641 0.39844-0.41406 0.66797-0.58984 0.69922-7.3672 1.8164-14.691 3.8203-22.156 5.2695-1.2852 0.25781-2.4609 0.77344-3.5273 1.543-1.0625 0.76953-1.918 1.7266-2.5664 2.8672-2.0547 3.4258-3.9336 6.7344-7.7539 8.8047-0.68359 0.38281-1.5898 1.0195-0.50781 1.9922 0.25391 0.23828 0.47656 0.89062 0.30078 1.082-1.5898 2.0234-2.5312 4.5547-5.125 5.9375-0.95312 0.51172-1.8438 1.082-1.5898 2.5-0.027344 1.0703-0.36719 2.0312-1.0195 2.8828-2.1953 3.5664-4.5039 7.0859-6.7656 10.617-0.125 0.20703-0.125 0.54297-0.30078 0.64062-3.3281 1.5898-2.8008 5.0312-4.3945 7.4492-1.5898 2.4219-2.9922 5.1445-4.4727 7.7227-2.4961 4.4102-5.0273 8.8047-7.4492 13.246-0.62109 1.1484-0.73047 2.5156-1.3672 3.6445-0.66406 0.91406-1.418 1.7422-2.2617 2.4844-1.4961-0.15625-2.0508-1.1445-1.0977-2.1484 0.27344-0.25 0.50391-0.53125 0.69531-0.84766 0.1875-0.31641 0.32812-0.65625 0.41797-1.0117 0.089844-0.35938 0.12891-0.72266 0.11328-1.0938-0.015625-0.36719-0.085937-0.72656-0.20703-1.0742-3.375 1.3984-2.2617 4.7773-4.5352 6.9727 2.8633 0.47656 3.4844 1.7656 3.4375 3.8711-0.011719 0.81641-0.23828 1.5742-0.67578 2.2695-0.4375 0.69141-1.0234 1.2188-1.7617 1.582 0.089843 1.4766-0.035157 2.9375-0.38281 4.3789-2.4805 5.7305-1.8281 12.547-7.207 17.512l2.2266 1.3867c-0.09375 5.2539-0.09375 10.395-0.26953 15.523-0.17578 5.125 2.0508 9.9492 3.7891 14.758 0.31641 0.52734 0.72656 0.97266 1.2266 1.332s1.0508 0.60547 1.6523 0.73828c1.8984 0.32812 3.8086 0.49219 5.7305 0.49219 1.5938 0.11328 3.1836 0.27344 4.8555 0.30469 0.62109 0 1.5898-0.097656 1.8125-0.44531 1.4648-2.4531 4.4883-1.8945 6.6562-2.9141 4.9336-2.3398 9.7383-4.8867 14.77-7.0234 6.2422-2.7578 12.289-5.8867 18.145-9.3906 2.707-1.5938 5.332-3.2656 7.957-4.9688 3.6484-2.4023 7.2422-4.8711 10.906-7.2773 0.76953-0.42578 1.5703-0.78516 2.4023-1.082-0.69922 1.2266-2.4844 2.0234-1.7344 4.3477 2.5156-1.9102 4.7734-3.5664 6.9727-5.2852 3.8828-3.0273 7.957-5.957 11.57-9.1875 2.1172-1.8789 4.4727-3.7266 5.6172-6.6562l-6.9219 3.5039c2.0664-2.2148 3.9766-4.5703 6.2227-6.625 8.1484-7.4297 16.352-14.77 24.609-22.02 11.41-10.078 22.027-20.824 32.355-31.844 6.8789-7.3047 13.484-14.805 20.168-22.289 7.418-8.2617 14.676-16.637 22.203-24.805 3.1836-3.4062 6.7344-6.4648 10.234-9.5547 0.92969-0.57422 1.9219-1 2.9766-1.2734 0.55859-0.23828 1.4023-0.34766 1.5938-0.73047 1.2891-2.4688 3.9141-3.1875 6.6211-4.0938l2.0039 3.1836 4.4414-3.1836c1.0039 1.0977 0.84375 3.457 3.6445 2.1836-0.37891 2.8945-0.50781 5.2539-1.0352 7.5469-2.4805 10.922-5.0273 21.836-7.6367 32.75-1.4961 6.3672-2.9297 12.641-4.6953 18.883-3.1836 11.031-4.6016 22.465-9.3125 33.117-0.57031 1.4375-0.95703 2.9219-1.1641 4.457-0.96875 5.4297-1.8281 10.891-2.832 16.32-0.39844 1.5547-0.89844 3.0781-1.4961 4.5703 2.4844-0.57422 4.3789-0.98828 6.2383-1.4492 0.37891-0.097656 0.68359-0.30078 0.92578-0.60547 2.4648-4.1562 6.6055-7.1172 9.5469-10.875 1.7852-2.3242 3.6641-4.6797 5.2227-7.1797 0.32813-0.62891 0.71875-1.2109 1.1797-1.7539 6.125-5.8242 12.254-11.652 18.445-17.512 0.96875-0.76953 1.9766-1.4805 3.0234-2.1328 0.78125-0.58984 1.832-1.1172 2.1836-1.8789 0.55469-1.4414 1.3984-2.6836 2.5312-3.7266 1.1328-1.0469 2.4375-1.7891 3.9141-2.2305 0.25391-0.058594 0.45703-0.19531 0.60547-0.41406 1.3359-3.8672 5.4258-5.3945 8.3086-7.9609 1.7656-1.5898 2.3555-4.0117 4.5664-5.3164 0.66797-0.38281 1.1289-1.0664 1.7656-1.5938 2.8867-1.9102 5.1562-4.3828 6.8125-7.418-1.8438-1.7852-3.4062-3.5508-5.2656-5.0312-3.1836-2.5156-3.5977-6.1953-5.2383-9.3633 1.0977-2.3398-1.2734-5.0625 0.875-7.3047 0.17578-0.19141-0.09375-0.75-0.22266-1.1328-0.125-0.38281-0.50781-0.85938-0.46094-0.89063 2.2461-1.4336 0.875-3.8516 1.7969-5.5586 0.63672-1.1758 0.87891-3.0547 3.2812-2.9141 0.53906 0 1.3672-0.77734 1.6719-1.3672 1.0977-2.1797 1.7812-4.6328 4.9648-5.1445 0.50781-3.3086 4.0742-3.5469 6.3672-5.0938 7.0352-4.7773 17.652-0.90625 20.023 6.3711 1.0039 3.0547 2.1484 6.082 3.0859 9.1523 0.23828 0.74219 0.37891 1.5 0.42969 2.2773 0.050781 0.77734 0.003906 1.5508-0.13281 2.3164-0.14062 0.76562-0.36719 1.5039-0.6875 2.2109-0.32031 0.71094-0.71875 1.3711-1.1992 1.9844l-0.69922-4.0742c-2.6602 3.9961-0.51172 6.1133 2.7539 7.9609 6.2383-2.2461 12.637-4.4766 18.957-6.8633 2.6094-0.98828 5.0273-2.3906 7.5898-3.4883s3.9492-3.4219 7.082-3.0859c0.53125-0.070312 0.95703-0.32031 1.2734-0.75 2.7227-3.375 6.9102-5.207 10.379-7.7383 3.1562-1.9219 6.5078-3.3945 10.059-4.4102 0.19922-0.046875 0.39844-0.074219 0.60156-0.082031 0.20703-0.007813 0.40625 0.011718 0.60547 0.046874 0.20312 0.039063 0.39453 0.097657 0.58203 0.17578s0.36719 0.17578 0.53125 0.29297c0.16797 0.11719 0.32031 0.25 0.45703 0.39844 0.14062 0.15234 0.26172 0.3125 0.36328 0.48828 0.10547 0.17578 0.1875 0.35938 0.25 0.55469 0.066406 0.19141 0.10547 0.39062 0.12891 0.59375-0.27344 2.2734-0.42578 4.5547-0.46094 6.8438 0.007812 0.91406-0.20313 1.7695-0.63281 2.5703-0.42969 0.80469-1.0273 1.4531-1.7891 1.9531-1.293 1.0039-2.3789 2.2031-3.2539 3.5898s-1.4883 2.8789-1.8398 4.4805c-0.28516 1.5938-1.5898 3.1875-2.3711 4.7773-2.1484 4.6484-4.0898 9.3633-6.3672 13.965-3.3867 6.8281-6.9688 13.598-10.473 20.379-2.4023 4.6641-4.9961 9.25-7.1914 14.012-1.9922 4.3281-3.5664 8.8203-5.3164 13.246-0.097656 0.22266 0 0.55859-0.17578 0.66797-3.0898 2.2617-1.5938 5.6055-2.3867 8.4219-0.28906 1.1328-0.27344 2.3438-0.55859 3.4727-1.3711 5.2852-0.71484 10.57 0.22266 15.84 0.44531 2.5508 0.89062 2.8203 3.5977 2.582s5.8086-0.28906 8.0391-2.7539c1.1445-1.2578 3.5781-1.7539 5.5391-2.168 3.0195-0.41016 5.6719-1.625 7.957-3.6445 1.7773-1.4961 3.8203-2.3828 6.1289-2.6602 0.42969-0.015626 0.85547-0.070313 1.2734-0.16406 0.42188-0.089844 0.83203-0.21875 1.2305-0.38281 0.39844-0.16016 0.78125-0.35547 1.1445-0.58594s0.70703-0.48828 1.0273-0.77734c0.31641-0.28906 0.60938-0.60156 0.875-0.94141s0.5-0.69922 0.70312-1.0781c0.19922-0.38281 0.37109-0.77734 0.50391-1.1836 0.13281-0.41016 0.23047-0.82812 0.29297-1.2539 0.20703-0.90625 0.42969-1.8008 0.65234-2.6602h0.55469v1.5938c1.5938-0.63672 1.5938-0.63672 4.0273-9.5547l-2.2891 0.42969c1.0664-2.293 2.0508-4.4258 3.1836-6.6875l1.3984 0.8125 3.4375-5.1094-0.55469-0.46094-1.8789 0.68359c-0.58984-1.1797 1.8789-2.7852 6.1133-3.8516l-2.2617-1.8008c0.16016-0.47656 0.16016-0.90625 0.38281-1.0977 1.168-0.87109 2.1836-1.8945 3.0391-3.0703 0.85938-1.1797 1.5234-2.4609 1.9883-3.8398 0.097656-0.33594 0.27344-0.79688 0.54297-0.89062 3.0547-1.0039 3.0703-3.8711 4.4883-5.875 2.6914 0.20703 3.8672-1.5938 5.1562-3.1875 2.2461-2.8008 4.3477-5.7148 6.6367-8.5 0.78125-0.75 1.6484-1.3867 2.5977-1.9102 0.28516-0.19141 0.89062-0.27344 0.92188-0.48047 0.52344-3.1836 3.4062-3.9805 6.2539-5.0781-0.42578-0.4375-0.77344-0.93359-1.0508-1.4805-0.31641-1.0195 0.35156-1.9102 1.3711-1.3359 2.2734 1.2578 2.9258-0.22266 4.0273-1.4023l-2.0234-1.2578c1.3203-1.7969 3.8516-0.98828 5.1406-2.1328 1.3008-1.3711 2.4805-2.8398 3.5352-4.4102l-2.0078-0.16016c1.1953-1.4648 1.1953-3.5039 4.0781-3.1836 0.76172 0.09375 1.9102-0.97266 2.5117-1.75 0.76953-1.1875 1.4727-2.4141 2.1016-3.6797 0.51172-0.8125 0.62109-1.8945 2.4844-1.2266 1.3047 0.46094 1.5898-0.50781 0.41406-2.8828l3.1836 0.67188c2.0039-2.5664 4.1211-5.2891 6.2539-7.9609 0.24609-0.40625 0.58203-0.72266 1.0039-0.94141 3.5156-1.0977 6.0625-3.4531 8.9609-5.3477 1.5742-0.80078 3.2266-1.3945 4.9492-1.7852 1.8164-0.58984 3.6133-1.1914 5.4766-1.5898 1.2188-0.30859 2.4531-0.44141 3.707-0.39844 5.0938 0.31641 8.6445 2.5938 9.8047 6.3672 0.38281 1.2578 1.2109 2.707-0.62109 3.8203-0.37891 0.22266-0.1875 1.2109-0.25391 1.8477-0.30078 3.3594-0.58984 6.7188-0.92188 10.078-0.089844 0.35547-0.24609 0.67188-0.47656 0.95703-3.4883 5.668-5.1758 12.18-9.8867 17.273-1 1.3164-1.875 2.7148-2.625 4.1875-2.0547 3.1836-5.8242 5.1602-7.3555 8.7109-4.5352 2.5625-6.6055 7.3711-11.141 9.9805-0.64453 0.50391-1.1758 1.1094-1.5898 1.8164-0.55859 0.74609-1.0039 1.5898-1.5938 2.293-1.5898 1.7812-3.1836 3.582-4.7734 5.2852-0.80078 0.95703-1.7773 1.6797-2.9297 2.1641-1.9414 0.55859-1.9727 3.043-4.2031 3.1875-0.28516 3.5977-3.6758 5.0938-6 7.3047-2.3242 2.2148-5.0312 4.1875-7.2266 6.5117-3.9062 3.7695-8.2227 6.9961-12.941 9.6836-2.2734 1.7188-4.6328 3.3125-7.082 4.7734-2.7227 1.3711-3.4375 4.3789-3.5664 7.0234-0.042969 3.7617 0.125 7.5117 0.51172 11.258 0.53906 7.957 10.203 10.84 16.312 8.9297 3.4961-1.1641 6.7422-2.8164 9.7422-4.9531 2.293-1.5898 5.4453-2.1797 6.875-4.7734 0.48047-0.84375 1.0508-1.5938 1.3867-2.168 1.0508-0.30078 2.3242-0.31641 2.8633-0.90625 1.0664-1.2383 2.3633-2.1562 3.8867-2.7539 1.5898-0.58984 2.4336-2.5625 3.6133-3.9492 2.0039-2.3867 4.3125-4.6328 4.7734-7.832 3.6289-2.0703 2.5625-6.6719 5.8086-8.9961 0.36719-0.26953 0.12891-1.3047 0-1.9766-0.36328-2.9102-0.078124-3.3906 3.1836-4.9023-0.69922-3.0742 0.57422-5.8281 2.2305-8.4688 0.19141-0.30469 0.23828-0.82812 0.50781-0.92578 2.6094-0.90625 2.9922-3.3438 4.2812-5.1406 0.59766-0.64844 1.0469-1.3867 1.3516-2.2148 0.30078-0.82812 0.4375-1.6836 0.39844-2.5625 0-0.72656 0.19141-1.4023 0.57422-2.0195 0.38672-0.61719 0.90625-1.0859 1.5586-1.4023 1.5625-1.2422 2.5664-2.832 3.0117-4.7773 0.76172-2.9609 1.1914-5.9219 3.8672-8.0898 0.41406-0.33203 0.46094-1.0508 0.66797-1.5898 0.20703-0.54297 0.26953-1.5938 0.76172-1.9609 3.1836-2.6094 4.6328-6.1602 6.6406-9.4102 1.082-1.7344 3.0234-2.3711 4.7734-3.1836 0.58984-0.25391 1.1289-0.58984 1.6133-1.0117 0.48828-0.41797 0.89844-0.90234 1.2383-1.4492 0.33594-0.54688 0.58203-1.1328 0.74219-1.7539 0.15625-0.625 0.21484-1.2578 0.17969-1.8984-0.27344-1.5898 0.82812-3.8984 2.3242-4.0273 0.61719-0.03125 1.1758-0.23047 1.6797-0.58984 0.50391-0.35937 0.87109-0.82422 1.1055-1.4023 1-1.5898 1.1133-1.5898 4.7734-1.2383l-0.46094 6.207c-0.8125 0.15234-1.6172 0.35156-2.4023 0.60547-0.52344 0.27734-1.0039 0.61328-1.4336 1.0195 1.6719 1.9258 1.2578 3.4219-0.35156 5.4141-1.6055 1.9883-1.9102 4.7734-2.9258 7.1328-2.0078 4.6797-4.1406 9.3281-6.1602 14.012-5.1602 12.02-10.426 24.008-15.344 36.125-1.1641 3.2344-1.832 6.5664-2.0078 9.9961-0.38281 4.207-1.8945 8.3125-1.082 12.613 0.22266 1.1602 0.33594 2.3242 0.47656 3.375 1.8789 0.71484 3.5195 1.3516 5.3984 2.1016l1.9727-1.2891c0.19922-0.089844 0.39062-0.19531 0.57422-0.32031l3.6133-2.2461-0.55859-0.71484 1.5898-1.4336c2.0703 0.95703 2.0703 0.95703 3.1836-1.4492l-3.1836 1.5938c2.9766-2.7227 5.875-5.5273 8.9609-8.1367 1.0469-0.57031 2.1562-0.96484 3.3281-1.1797 0.17578-0.77734 0-2.0859 0.71484-2.8945 1.3398-1.6328 2.8867-3.0391 4.6328-4.2227 0.69922-0.46094 2.1328-0.078125 3.7109-0.078125 0.49219-1.4805 1.1914-3.582 2.0039-6.0508l2.6914 1.832 2.6875-2.2305-2.1016-1.5898c1.9453-0.60547 2.3398-3.1836 5.3008-2.2148 0.54297-2.7227 1.0664-5.4297 4.6641-6.207l1.3555 0.9375 2.5469-2.9609-3.5195 0.62109c2.8164-2.3711 3.4219-5.7656 7.75-5.4922-0.058594-0.47266-0.050781-0.94531 0.03125-1.4141 0.078125-0.46875 0.22656-0.91797 0.44141-1.3438 0.21484-0.42578 0.48438-0.80859 0.81641-1.1562 0.32812-0.34375 0.69922-0.63281 1.1172-0.86328l-0.082031-0.12891c0 0.82812 0.12891 1.5938 0.25391 3.1836l2.6133-2.9102c0.027344-0.20703 0.039063-0.41406 0.03125-0.62109zm-459.75 72.664c-1.5898-0.69922-2.5781 0.30469-3.7852 1.0039 2.0508 1.2578 2.0508 1.2578 3.707-1.082 2.4844-0.66797 2.4844-0.66797 3.3281-2.6602zm53.258-41.793 4.6016-5.0312c-3.1836 0-4.7734 1.8789-4.6016 5.0469-0.58594 0-1.4141-0.33594-1.7188-0.097656-1.3984 1.1484-2.6719 2.4531-3.9766 3.6953l0.42969 0.33594zm-78.531-58.48c-0.65234 0.17578-1.8164 0.23828-1.8789 0.50781-0.35156 1.6875-1.8477 2.3438-3.1055 3.1875-0.15625 0.09375-0.09375 0.42969-0.17188 0.92188l2.4023 1.1289c0.95312-2.0859 1.8125-3.9805 2.6562-5.8906l2.6914-2.6562c-2.8828 0.30078-2.8828 0.30078-2.5938 2.8008zm13.91 222.2c-2.6094 1.1172-2.8633 2.6445-2.1328 3.8867 0.90625 1.5938 0.097656 2.1641-1.0195 2.8516-0.74219 0.41016-1.5078 0.78125-2.2891 1.1133 0.26953 0.94922 0.30078 1.9062 0.089844 2.8711-0.21484 0.96875-0.64062 1.8242-1.2852 2.5742-2.2109 2.6758-4.2969 5.4297-6.3672 8.1992-0.69531 0.96875-1.3047 1.9883-1.832 3.0586-1.3516 2.6406-2.4805 5.3945-3.9922 7.9609-6.7578 11.348-11.328 23.516-13.723 36.508-1.2227 6.7344-2.4961 13.453-0.95312 20.363 0.10938 0.65234 0.35547 1.2461 0.73828 1.7852 0.37891 0.53906 0.86328 0.96875 1.4414 1.2852 5.4922 3.4102 11.238 3.1875 17.094 1.418 12.941-3.9492 24.211-10.621 35.336-17.512 2.7539-1.707 5-4.0625 7.7383-5.8281 4.5508-3.0742 8.4258-6.8477 11.617-11.32 4.5703-6.0977 8.9922-12.277 13.371-18.469 5.1523-7.4023 9.7188-15.148 13.688-23.246 3.375-6.7344 6.5898-13.52 9.9023-20.27 0.23828-0.49219 0.68359-1.1602 1.1602-1.2578 3.2969-0.63672 1.7344-3.0234 2.3398-4.7773 0.60547-1.75 3.4219-2.4961 2.8164-4.9336 0-0.22266-0.33203-0.42969-0.31641-0.63672-0.011718-0.6875 0.082032-1.3633 0.28516-2.0234 0.76562-1.8633 1.5938-3.707 2.5-5.5234s1.4492-4.6172 3.1836-5.4453c0.41016-0.14844 0.77734-0.37109 1.1016-0.66016 0.32422-0.29297 0.58594-0.63281 0.77734-1.0234 0.19531-0.39453 0.30859-0.80469 0.34375-1.2422 0.035156-0.43359-0.011719-0.85938-0.13672-1.2773-0.10938-0.64062-0.039062-1.2617 0.21094-1.8633 0.25-0.60156 0.64062-1.0898 1.1719-1.4648 0.63672-0.60547 1.5938-1.5938 1.4023-2.1016-0.91016-1.8164 0.28516-3.1836 0.80859-4.6172 0.78125-2.1953 1.5938-4.3633 2.3906-6.5586 2.2891-6.6875 4.5508-13.359 6.8438-20.031 0.24219-0.55078 0.52344-1.082 0.84375-1.5898 1.043-1.8359 1.7891-3.7852 2.2305-5.8516 0.44141-2.0625 0.5625-4.1484 0.36328-6.25-2.0234 1.2734-3.7422 2.4531-5.5547 3.5039-10.156 5.875-20.566 11.414-30.449 17.625-14.898 9.3594-29.766 18.801-41.926 31.172-5.6328 5.7344-11.891 10.957-16.727 17.34-3.7266 4.9023-7.8164 9.5547-11.812 14.328-0.42969 0.51172-1.3359 0.70312-2.7695 1.418zm44.059-282.13c1.5898-0.76172 2.1328-2.6758 4.2031-2.0039 0.28516 0.09375 0.82812-0.41406 1.207-0.6875 2.3555-1.3281 4.8672-2.1719 7.5469-2.5312 0.85938-0.12891 1.6602-0.42187 2.4023-0.875 1.5938-0.85937 3.0234-1.7969 4.5039-2.7383 3.1836-1.9727 6.207-3.9805 9.3125-5.9531 2.1953-1.4023 4.3594-2.8359 6.5898-4.1875 3.1836-1.9258 6.3672-3.7109 9.4531-5.7344 2.6758-1.75 5.0625-3.8828 7.7383-5.6172 6.8125-4.4453 13.957-8.5039 20.547-13.184 13.789-10.105 26.82-21.105 39.094-33.008 5.9844-5.6523 11.141-12.066 16.535-18.18 2.2734-2.5703 3.793-5.5273 4.5547-8.8711 0.36328-1.5117-1.1797-4.6328-2.7695-4.7734-2.3242-0.11328-2.3906-1.7695-3.1836-2.7734-3.0273 0.95703-6.0039 1.8633-8.9297 2.8516-0.67188 0.28125-1.2812 0.65625-1.832 1.1289-0.66797 0.49609-1.1914 1.3555-1.9414 1.5938-2.8477 0.66797-4.7734 2.6094-7.1484 3.918-2.3711 1.3047-3.3242 3.3438-5.3164 4.6797-4.7734 3.2969-9.707 6.5586-14.578 9.8398-2.8477 1.9258-5.8086 3.7266-8.5312 5.8125-2.7227 2.082-5.9531 3.1836-7.957 5.9688-0.46484 0.65234-2.2773 0.62109-2.5469 1.2422-1.5938 3.8203-5.9688 5.1094-8.7227 7.9609-7.3242 7.5469-15.758 14.219-23.238 21.652-12.625 12.578-24.895 25.477-37.262 38.211-1.6719 1.7227-3.0898 3.6328-4.5859 5.4141 2.2305 1.7695 1.8008-1.3672 3.8359-0.60547zm484.61-6.9883c2.6758-0.38281 4.6953-0.73438 6.75-0.97266 5.1719-0.58984 10.359-1.082 15.52-1.75 1.3984-0.023437 2.6719-0.4375 3.8203-1.2422 2.2383-2.4961 4.2695-5.1484 6.0938-7.9609 3.4375-5.1914 6.6211-10.523 10.012-15.73 1.1484-1.7656 2.5469-3.4219 5.7305-2.8359l-1.3203-1.9727c2.0352-0.58984 1.9727-0.63672 4.5352-3.7891 0.53516-0.63672 0.91406-1.3555 1.1367-2.1523 0.22266-0.80078 0.26562-1.6133 0.13672-2.4336-0.09375-0.95312-0.17578-2.2617 0.41406-2.8477 0.58984-0.58984 2.1484-0.79688 3.4062-1.1953 0.51172-1.957 0.38281-4.4414 3.6758-5.1445-0.32422-0.35938-0.58984-0.75781-0.79297-1.1992-0.20313-0.44141-0.33203-0.90625-0.38672-1.3867-0.058594-0.48438-0.039063-0.96484 0.050781-1.4414 0.09375-0.47656 0.25781-0.92578 0.49219-1.3516 1.082-1.7031 1.9805-3.4961 2.6914-5.3828 0.8125-2.4844 1.7344-4.5859 5.0625-4.7773 0.26953 0 0.50781-0.49219 0.875-0.875-0.34766-0.47656-0.61719-0.99219-0.80469-1.5508s-0.28516-1.1328-0.29297-1.7227c-0.011719-0.58984 0.070312-1.1641 0.24219-1.7305 0.17188-0.5625 0.42578-1.0859 0.75781-1.5703 1.7539-2.3398 2.0547-4.9844 2.8516-7.5469 0.23828-0.73438 0.53906-1.4492 0.89062-2.4219 1.2266 2.0078 3.0391 2.4531 2.9297 1.5938-0.25391-1.9609 1.5898-3.1836 1.3828-5.0977-0.22266-2.2578-0.33203-4.5352-0.47656-6.8125-0.003906-0.69922-0.1875-1.3477-0.55469-1.9453s-0.85938-1.0547-1.4844-1.3711c-0.625-0.32031-1.2852-0.45312-1.9805-0.39844-0.69922 0.050782-1.332 0.28125-1.9023 0.69141-3.8672 2.3398-7.4492 5.0469-11.141 7.5117-1.1367 0.98828-2.4414 1.6328-3.9141 1.9453-0.52734 0-1.0391 0.082031-1.5391 0.25391-0.5 0.16797-0.95703 0.41406-1.375 0.73438-0.41797 0.32031-0.76953 0.70312-1.0625 1.1406-0.29297 0.4375-0.50781 0.91016-0.64063 1.4219-0.82031 2.2461-2.2188 4.043-4.2031 5.3789-1.8945 1.1602-3.6758 2.4688-5.3477 3.9336-1.4922 1.6523-2.8242 3.4258-3.9961 5.3164-1.082 1.5938-1.8594 3.2969-3.0859 4.7773-1.5938 1.8477-3.5352 3.4062-5.1562 5.207-1.0195 1.1289-2.375 2.4375-2.4688 3.7422-0.17578 2.4336-1.6719 4.043-3.0703 5.8125-0.74219 0.91406-1.3828 1.8984-1.9258 2.9453-1.4492 2.8477-2.5977 5.8242-4.2344 8.5625-1.9922 3.1875-3.5859 6.5625-4.7773 10.129-1.5898 5.1719-3.4688 10.57-7.3828 14.934-0.26172 0.375-0.42578 0.78906-0.49609 1.2422-0.31641 1.3203-0.49219 2.6914-0.92188 3.9961-0.68359 2.293-1.6875 4.5703-2.7227 7.3398zm-119.49 34.836c-1.4609 0.53125-2.8672 1.1836-4.2188 1.957-3.6133 2.6289-7.1758 5.3203-10.648 8.1055-1.1602 1.0859-2.1836 2.293-3.0703 3.6133-1.2578 1.5938-2.3555 3.3438-3.6602 4.9531-2.293 2.832-4.7773 5.5391-7.0195 8.4062-2.2305 2.707-4.3125 5.5195-6.2578 8.4375-1.875 2.9453-5.918 4.457-6.5234 8.2305 0 0.38281-0.73438 0.63672-1.0195 1.0195-1.0352 1.3867-2.0195 2.8047-3.0078 4.2031-2.2852 2.9258-4.2656 6.0469-5.9375 9.3633-0.68359 1.5938-1.5898 2.9766-2.5 4.457 0.67969 0.23047 1.3125 0.13281 1.8945-0.28516 3.6602-2.9297 7.5117-5.6992 10.918-8.8672 4.9531-4.5703 9.6328-9.3789 14.328-14.172 2.832-2.8828 5.4883-5.8906 8.1953-8.8672 6.0977-6.7031 11.969-13.535 16.234-21.367 0.90625-1.3516 1.5586-2.8164 1.9531-4.3945 0.39062-1.5781 0.50781-3.1758 0.33984-4.793zm99.594 17.512 0.69922 0.27344c1.0664-1.3867 2.0547-2.8203 3.1836-4.1562 3.9453-4.5859 7.957-9.1406 11.969-13.691 0.96875-1.4219 2.1641-2.6133 3.582-3.582 0.78125-0.33984 1.4336-0.83984 1.9609-1.5117 0.52344-0.66797 0.85938-1.4258 1-2.2617 0.26562-1.0156 0.70312-1.9492 1.3125-2.8008 0.60938-0.85547 1.3477-1.5703 2.2188-2.1523 1.4336-1.1641 3.3281-2.3711 3.1836-4.5703-0.26953-0.125-0.49219-0.31641-0.71484-0.30078-4.7734 0.125-9.6445 0.20703-14.438 0.49219-0.95312 0.21094-1.6758 0.74219-2.1641 1.5938-1.4492 2.6406-1.5898 5.8906-4.4883 7.9609-0.22266 0.14063 0 0.82813 0 1.2578 0.10547 0.6875 0.0625 1.3672-0.12891 2.0352-1.7812 3.8398-1.7812 8.2969-4.8516 11.688-0.25781 0.28516-0.082032 0.875-0.16016 1.3047-0.35156 1.7031-0.69922 3.4102-1.1133 5.0977-0.28906 1.0664-0.70312 2.2109-1.0508 3.3594zm-274.79-13.164c0.17188 2.2773 0.42969 4.1719 0.46094 6.0664-0.035156 0.24609-0.042969 0.49219-0.023438 0.73828 0.015625 0.24609 0.058594 0.49219 0.12891 0.73047 0.066407 0.23828 0.15625 0.46484 0.27344 0.68359 0.11328 0.22266 0.25 0.42578 0.41016 0.61719 0.15625 0.19141 0.33203 0.36719 0.52734 0.51953 0.19141 0.15625 0.39844 0.28906 0.62109 0.40234 0.21875 0.11328 0.44922 0.19922 0.69141 0.26562 0.23828 0.0625 0.48047 0.10156 0.73047 0.11719 1.5352 0.25781 3.0742 0.25781 4.6133 0 0.94922-0.23047 1.6836-0.76172 2.1992-1.5938 2.5625-4.1211 1.7344-8.2617-0.35156-12.387-0.12891-0.29297-0.30859-0.55078-0.53906-0.77344-0.23047-0.22266-0.49609-0.39062-0.79688-0.50781-0.29688-0.11328-0.60938-0.16797-0.92969-0.15625-0.32031 0.007812-0.625 0.078124-0.91797 0.21484-1.2266 0.76172-3.2773 0.80859-3.5352 2.7227-0.22266 1.082-0.53125 2.1445-0.92188 3.1836zm-262.47 49.039c0.66016-0.34766 1.2617-0.77344 1.8086-1.2812 0.54688-0.50391 1.0195-1.0703 1.4219-1.6992 0.39844-0.625 0.71094-1.2969 0.93359-2.0039 0.22656-0.71094 0.35547-1.4375 0.39063-2.1836-3.1055 1.6719-2.6133 5.0977-4.5547 7.168zm-17.762 36.141-0.78125-0.35156-2.6562 5.6992c0.54297-0.1875 1.0391-0.46484 1.4922-0.82031 0.45312-0.35547 0.83203-0.77734 1.1445-1.2617s0.53516-1.0078 0.67188-1.5664c0.13672-0.55859 0.17969-1.125 0.12891-1.6992zm-9.5508 80.801 0.71484-0.55469c-0.65234-1.9922-2.6094-2.707-4.1992-3.7734l-0.63672 0.58594zm177.79-58.48c0.21484-0.10547 0.41797-0.23438 0.60547-0.38672 0.1875-0.15234 0.35937-0.32031 0.50781-0.51172s0.27344-0.39453 0.375-0.61328 0.17969-0.44531 0.23047-0.68359c0.050781-0.23438 0.074219-0.47656 0.070312-0.71484-0.003906-0.24219-0.035156-0.48047-0.09375-0.71484-0.058593-0.23438-0.14062-0.46094-0.25-0.67578s-0.24219-0.41797-0.39453-0.60156c-0.44531 1.8789-0.78125 3.4219-1.1133 4.9688zm-134.45 153.88c0.96875-1.1797 1.3203-2.0547-0.28906-2.8164-0.90625 0.92187-1.7344 1.75 0.28906 2.8164zm86.73-186.28 0.77734 0.73047 3.0117-3.0859-0.60547-0.49609zm43.676-214.42c1.5898-0.078125 3.1836-0.37891 3.5977-2.625zm-93.766 259.89-0.52734-0.6875-2.9766 1.5 0.44531 0.71484zm385.86 5.7148 0.20703-0.875-2.9453 0.09375v0.79688zm-330.75-55.887c1.4961-0.1875 2.4062-0.80859 2.1016-2.3086zm-113.01-9.8555-0.65234-0.53906c-1.1641 0.31641-2.0547 0.79688-1.3047 2.7227zm-7.6406 13.121c1.5898-1.9922 1.5898-1.9922 0.62109-3.7422zm473.16 37.496 0.39844 0.52344 2.2148-1.3047-0.44922-0.58984zm-416.05-105.5 0.22266 0.63672 2.5312-0.65234-0.25391-0.70312zm-38.852 140.27 0.26953 0.60156 2.5312-0.9375-0.22266-0.47656zm-20.695 26.715 0.28906-0.63672-2.5-0.98828-0.30078 0.68359zm152.17-304.1-0.54297-0.42969-1.2734 1.4961 0.41406 0.32031zm-51.824 224.59-0.52734-0.55859c-0.62109 0.62109-1.2578 1.2266-1.8477 1.8633 0.15234 0.21484 0.31641 0.41797 0.49609 0.60547zm34.012-121.72-0.28516-0.44531c-0.49609 0.1875-0.98047 0.40234-1.4492 0.65234-0.40234 0.26562-0.77734 0.56641-1.1289 0.89453l0.38281 0.37891zm13.102-13.945 0.30078 0.52344 1.8008-0.63672-0.49609-0.76172zm493.23 200.26c0.76172 0.15625 1.5234 0.19141 2.293 0.09375 0.92969-0.23438 1.7266-0.70312 2.3867-1.3984 0.45312-0.81641 0.73828-1.6875 0.85937-2.6133l-2.3398-0.76172c1.0352-1.2109 1.8633-2.3906 2.8984-3.3789 3.6758-3.5 6.5898-7.2422 7.5273-12.258 0.99609-4.5039 2.3008-8.9141 3.918-13.23 0.65234-1.9258 2.4648-3.5508 1.5898-5.8438 2.1797-2.3242 1.0664-5.4453 2.2773-7.9609 0.68359-1.4648 1.5898-2.8672 2.3555-4.2812 0.22266-0.42969 0.76562-0.87891 0.68359-1.2422-0.69922-3.6172 2.5938-6.3711 2.6602-10.352-1.7812 1.2109-3.4688 2.5391-5.0625 3.9805-6.8633 7.0703-14.145 13.684-21.84 19.84-4.2148 3.4531-8.9609 6.2109-13.418 9.3125-4.5 3.0547-9.2773 5.5977-14.324 7.6289-7.543 3.1836-15.406 5.4922-24.145 3.5664-2.8516-0.62109-5.8438-0.66797-9.0898-1.5938l1.8789-2.8984c-1.543-1.168-3.1992-2.1523-4.9648-2.9453-1.1484-0.38281-2.0078 0.78125-1.7188 2.3398h2.7852c-0.34375 0.49609-0.62109 1.0273-0.82813 1.5938-0.011718 0.34766 0.0625 0.67578 0.22266 0.98828-3.0586-1.9766-6.2227-3.7578-9.0117-5.9414-0.98438-0.64453-1.7773-1.4766-2.375-2.4922s-0.94141-2.1094-1.0312-3.2852c0-1.4023 0-2.7852-0.09375-4.1719l3.0078 5.6211c-0.58984-5.2852-1.082-9.7461-1.5898-14.332-0.69141 0.60547-1.1797 1.3438-1.4648 2.2188s-0.32812 1.7578-0.12891 2.6562c0.19141 1.1953 0.30859 2.4023 0.35156 3.6133-0.30469-0.14453-0.875-0.25391-0.89062-0.39844-0.41406-3.8359-0.98828-7.6602-1.0352-11.496 0.23828-1.9922 0.69531-3.9336 1.3672-5.8281 0.54297-2.5 1.0195-5.0156 1.5938-7.7852l2.1953 0.95703c0.57422-1.0664 1.5898-2.0703-0.31641-2.8828-0.23828-0.074219-0.44531-0.19922-0.62109-0.36719-0.17969-0.17188-0.30859-0.375-0.39453-0.60547-0.082031-0.23437-0.11328-0.47266-0.085938-0.71875 0.027344-0.24609 0.10938-0.47266 0.23828-0.67969 0.65625-1.5117 1.3867-2.9961 2.168-4.457 1.3047-2.4844 1.3203-2.4688 0.50781-5.3828l-6.3672-1.1797 3.582-1.7344 3.3594-7.2617 3.0703 0.44531 4.3125-3.7227c0.49609-0.85938 0.89453-2.5664 1.7031-2.7227 2.1836-0.46094 2.8047-1.8633 3.6133-3.3281 0.58984-1.0352 1.3242-2.0078 2.1172-3.1836l-1.4961-1.4961c0.84375-0.60547 1.5938-1.5938 2.5156-1.7227 0.40625 0.007813 0.80469-0.0625 1.1875-0.19922 0.38281-0.14062 0.72656-0.34375 1.0352-0.61328 0.30859-0.26562 0.55859-0.57812 0.75-0.9375 0.19531-0.35938 0.31641-0.74219 0.37109-1.1445 0.28516-1.2578 3.0859-1.5938 1.4648-3.4727-0.16016-0.19141 0.125-0.875 0.41406-1.1797 2.0156-2.457 4.1641-4.793 6.4453-7.0039 1.8984-1.4453 3.9062-2.7227 6.0156-3.8359l-1.3359-0.85937c0.49219-0.24219 0.82812-0.41406 1.1758-0.54297 0.8125-0.28516 1.9922-0.33594 2.3906-0.875 1.4453-2.0078 2.8008-4.043 5.4414-4.9844 0.51172-2.8984 3.7109-2.1484 5.5859-3.0586 2.2617-1.082 2.4219-0.74609 3.9805-3.1836 0.16797-0.36719 0.38672-0.69922 0.66016-1 0.26953-0.30078 0.58203-0.55469 0.92969-0.75781 0.34766-0.20703 0.71875-0.35547 1.1133-0.44531 0.39453-0.089843 0.79297-0.12109 1.1953-0.089843 1.25-0.070313 2.3789-0.47266 3.3906-1.207 2.4375-1.4648 5.6523-1.7695 7.5625-3.9961 0.10937-0.082031 0.23047-0.10547 0.36328-0.082031 3.375 0.73438 6.7656 1.3555 10.078 2.2773 0.58984 0.17578 1.1602 1.5938 1.0977 2.3555-0.089844 0.73047 0.007812 1.4336 0.29297 2.1133 0.28516 0.67969 0.71484 1.2422 1.2969 1.6914 0.25391 0.20312 0.47266 0.43359 0.65625 0.69922 0.18359 0.26953 0.32031 0.55469 0.41797 0.86328 0.09375 0.30859 0.14063 0.625 0.14063 0.94922 0 0.32031-0.050782 0.63672-0.14844 0.94531-0.60156 2.7383-1.4609 5.4141-2.1484 8.1367-1.2695 4.6328-3.3945 8.8359-6.3672 12.609-2.2461 3.1641-4.6914 6.168-7.3359 9.0117-2.9727 2.9766-6.1875 5.668-9.6445 8.0703-4.2578 2.9297-8.6523 5.6367-13.18 8.1211-2.1914 1.0078-4.4414 1.8711-6.75 2.5781-2.9922 1.1641-6.0312 2.2773-8.9141 3.6484-0.54297 0.23828-1.0117 0.58203-1.4141 1.0234-0.39844 0.4375-0.69141 0.94141-0.875 1.5078-0.32031 2.6562-2.1016 4.7734-2.7891 7.2734-0.68359 2.5-2.3047 4.9688-2.8477 7.5625-0.71484 3.4258-0.60547 7.0078-1.1289 10.477-0.75 4.7773 1.1914 9.3008 1.7812 13.949 0.16016 1.2422 3.8672 2.8828 5.7148 2.8672 5.7969-0.19922 11.285-1.5977 16.473-4.1875 3.6797-1.707 7.6562-2.9141 11.145-4.7773 3.9922-2.2305 7.6211-5.0156 11.379-7.5781 2.418-1.5938 4.25-3.9648 7.543-4.5859 2.0391-0.38281 2.6445-2.0234 2.1172-4.1406 2.8203-0.10938 3.5508-3.5195 6.6875-2.707 0.18359-0.875 0.46875-1.7188 0.85156-2.5234 0.38672-0.80859 0.86328-1.5586 1.4297-2.2539 0.56641-0.69141 1.207-1.3086 1.9219-1.8438 0.71484-0.53906 1.4844-0.98438 2.3047-1.3398 0.71875-0.39062 1.3125-0.92188 1.7852-1.5898 1.2891-1.7383 2.3555-3.6484 5.0273-3.9648 0.5-0.10156 0.88672-0.36719 1.1641-0.79687 1.9102-4.1406 5.1875-7.293 8.5938-10.414 0.95703-0.77734 1.6094-1.7617 1.957-2.9453 1.1328-6.6523 4.4414-12.531 7.3867-18.547 0.16406-0.44531 0.28906-0.90234 0.36719-1.3711 0.84375-2.8008 1.5898-5.6367 2.5312-8.4219 1.2578-3.8828 2.5625-7.7539 3.9453-11.59 2.6094-7.1953 4.8555-14.52 7.9609-21.512 3.4844-7.6562 6.125-15.539 8.8789-23.418 0.54297-1.5938 1.5938-2.8828 2.2773-4.3789 0.98828-2.3906 1.2891-5.1445 2.7852-7.1836 3.9805-5.4414 5.668-11.766 8.3398-17.672 2.5625-6.1445 5.4336-12.141 8.6133-17.992 0.52344-0.90625 0.68359-1.7812 2.3867-1.7188 1.2891 0 1.5898-1.2734 0.96875-2.418-0.79297-1.4961-1.2383-2.7227 1.5938-2.3398 0.49219 0 1.3516-0.75 1.5898-1.3242 0.76562-1.4648 1.3203-3.0234 1.957-4.5547 0-0.10938 0.14453-0.26953 0.097656-0.33203-2.6406-3.6953 1.7031-5.3828 2.5781-8.3906 0.36719 0.62109 0.52344 0.92188 0.78125 1.3359 1.0781-1.082 2.0391-2.2578 2.8789-3.5352 0.48047-1.1562 0.73437-2.3594 0.76562-3.6133 0.4375-1.3242 1.207-2.418 2.3086-3.2773 0.35938-0.09375 0.68359-0.25391 0.98047-0.48047 0.29297-0.22266 0.53125-0.5 0.71484-0.82031 0.18359-0.32422 0.29688-0.66797 0.33594-1.0391 0.042969-0.36719 0.011719-0.73047-0.089844-1.0859-0.35156-2.4844 1.9727-4.3125 4.0742-5.8594 0.38281-0.25391 1.0039-0.22266 1.4648-0.41406 2.1641-0.90625 1.1289-3.7891 3.582-4.6328 2.1484-0.73047 2.8164-2.5938 3.3711-4.4414 0.12891-0.41406 0.24219-1.0977 0.54297-1.1953 3.6289-1.1758 4.3594-5.2539 8.2617-6.3672 2.1484-0.63672 3.6289-2.8828 5.6172-4.1406 2.2617-1.4336 4.3633-3.3125 7.5938-2.9141 0.80078 0.03125 1.5234-0.19922 2.1641-0.68359 3.6133-2.7227 7.3359-1.1445 10.586 0.38281 0.92578 0.56641 1.7305 1.2734 2.4141 2.1172 0.6875 0.84375 1.2148 1.7773 1.5781 2.8008 1.1016 2.9023 1.9609 5.875 2.5781 8.918 2.3398 10.461-0.65234 19.98-4.375 29.504-1.8164 4.6484-3.6758 9.2812-5.5234 13.914-0.16016 0.44922-0.35938 0.87891-0.60547 1.2891-8.3086 13.23-16.219 26.699-25.035 39.676-10.754 15.672-22.426 30.621-35.02 44.852-6.1289 6.9727-12.336 13.883-18.305 20.969-1.3008 1.6992-2.2305 3.5859-2.7852 5.6523-3.0859 10.047-4.457 20.492-7.7031 30.488-1.1133 3.4258-1.4961 6.9258-2.2773 10.383-0.77734 3.4531-1.668 7.1328-2.4492 10.699 0 0.69531 0.10938 1.375 0.31641 2.0391 4.9844-4.2031 10.555-7.2148 13.418-13.059 1.5938 0 3.0273-0.66797 3.1836-2.7695 0-0.90625 0.49609-1.7188 2.0078-1.5898 0.4375-0.082031 0.82812-0.26562 1.1758-0.54687 0.34375-0.28125 0.60156-0.63281 0.76562-1.0469 1.1758-3.9961 4.7734-6.1953 7.625-8.9648 3.2617-3.1836 6.6211-6.3672 9.9297-9.5508 0.48047-0.38281 0.88672-0.83594 1.2109-1.3555 0.55859-1.1289 0.20703-2.3711 2.4336-2.9453 1.6719-0.42969 2.6758-2.9922 3.8867-4.6641 0.90625-1.2422 1.6875-2.5625 2.5273-3.8359 0.12891-0.20703 0.24219-0.54297 0.41406-0.58984 2.6602-0.52734 3.5352-2.7227 5.1445-4.2656 0.52344-0.51172 1.4141-0.48047 1.3828-1.5938 0-0.71484 0.73437-1.4492 1.1641-2.1484 1.9062-3.1836 5.6641-4.9688 7.082-8.4727 0.25391-0.63672 1.3984-0.95312 2.1484-1.4336 1.1484 0.58203 2.3281 1.0742 3.5508 1.4844 3.6289 0.90625 5.0586 2.9102 4.0078 6.1758-0.61328 1.9258-1.375 3.793-2.2734 5.6055-2.1211 4.6445-3.7109 9.4609-4.7773 14.457-1.082 4.457-2.7695 8.7891-4.168 13.184-0.23828 0.77734-0.39844 1.5898-0.58984 2.3867-0.92188 3.8672-1.7812 7.7383-2.7852 11.574-2.4219 9.2031-3.9961 18.469-2.7852 28.023 0.50781 4.043 3.1836 5.8438 7.2891 4.0742 3.2578-1.6016 6.2773-3.5703 9.0586-5.9062 3.1797-2.4844 6.207-5.2227 9.168-7.9609 1.707-1.5547 3.2969-3.2227 4.7734-5 2.7695-3.3594 5.5859-6.7188 8.0547-10.27 1.5195-2.4258 2.8594-4.9453 4.0273-7.5625 1.5898-3.3125 3.1836-6.6875 4.9961-9.9336 1-1.4297 2.125-2.75 3.375-3.9648-0.17578-3.0742 2.7227-5.8125 4.6172-8.8828 1.4336-2.4102 3.2109-4.5352 5.332-6.3711 2.9102-2.2695 5.957-4.3438 9.1367-6.2266 0.92188-0.42578 1.8711-0.78906 2.8477-1.082 3.7891-1.5898 8.7383 0.95703 9.1055 4.875 0.1875 1.5391 0.10938 3.0664-0.24219 4.582-0.34766 1.5117-0.94922 2.918-1.7969 4.2227-3.5156 5.3477-6.7656 10.824-10.074 16.27-1.957 3.1836-3.8828 6.4648-5.7148 9.7266-0.44141 0.96875-0.74219 1.9766-0.90625 3.0273-0.097656 0.42969 0.22266 1.082 0 1.3672-1.9766 2.2617-1.8789 5.2734-3.3281 7.6914-1.0938 1.543-1.707 3.2578-1.8477 5.1445-0.17188 1.3125-0.625 2.5156-1.3672 3.6133-1.1953 2.1328-0.58984 4.7773-2.2773 6.7344 1.0664 3.2656-0.14062 6.3672-0.9375 9.3789-0.64453 2.2773-0.85156 4.5977-0.62109 6.957 0.23047 1.1367 0.52344 2.2539 0.875 3.3594 0.23828 0.95312 0.42969 1.9258 0.68359 3.0742 6.7539-1.4453 13.152-3.832 19.195-7.168 8.1914-4.7578 15.812-10.305 22.859-16.637 1.9648-1.4805 4.0195-2.8281 6.1602-4.043 0.62109-0.41406 1.4297-0.89453 1.5898-1.4805 1.4961-4.5859 5.6523-6.3711 10.059-7.7695 1.8164-0.57422 1.3555-1.7383 1.0352-2.8203 1.1797-0.50781 2.5625-0.69922 3.1836-1.4336 1.5781-2.3281 3.4727-4.3594 5.6836-6.0977 0.53906-0.38281 0.57422-1.4805 0.62109-2.2578 0.17578-2.8359 0.22266-5.6523 0.42969-8.4883 0.1875-0.92578 0.47656-1.8242 0.85938-2.6914 2.0352 2.2773 0.125 4.6172 1.1445 6.5938 1.5938-1.7695 1.832-4.3164 0.97266-12.629l-1.3047 4.0156c-0.40234-1.207-0.64453-2.4453-0.73438-3.7109 0.20312-1.2734 0.54297-2.5117 1.0195-3.7109l2.0859-0.31641c-0.25391-0.875-0.51172-1.7539-0.84375-2.9297 0.62109-0.30859 1.1836-0.69922 1.6875-1.1797 1.4297-1.5898 1.3672-1.5898-1.0508-2.5625-1.0508-0.39844-1.5938-0.94141-1.2266-2.1328 0.58984-2.0078 0.89062-4.0938 1.3867-6.1133 0.49219-2.0234 1.0469-4.3164 1.7031-6.3711 2.8164-9.0117 5.6016-18.039 8.5938-27.066 0.85938-2.6094 1.4492-5.4609 4.0273-7.3398 0.20312-0.25781 0.24219-0.53906 0.10937-0.84375-0.98437-1.9102 0.8125-2.4531 1.5938-3.1836 0.16797-1.3867 0.47266-2.7461 0.90625-4.0781 2.8672-6.3672 5.6172-12.879 8.8164-19.105 2.8672-5.6016 6.1602-11.047 9.4102-16.492 2.6406-4.3945 5.3477-8.7891 8.3242-13.008 1.9258-2.7227 2.5781-6.2734 6.0781-8.0586 0.41016-0.30078 0.64844-0.70312 0.71875-1.207 0.46094-2.8672 2.6406-4.9219 3.9922-7.3594 0.29688-0.67188 0.71484-1.2539 1.2578-1.75 3.2617-2.7305 5.7891-6.0273 7.5781-9.8867 1.0273-1.3438 2.2266-2.5117 3.5977-3.5039 0.52344-0.46094 1.0234-0.94922 1.4961-1.4648 1.7812-2.1328 3.1836-4.7773 5.3945-6.3672 3.8672-2.6133 5.2227-7.0391 9.1836-9.4102 1.3555-0.8125 2.7383-1.5938 4.1094-2.3711 0.36328-0.20703 0.95312-0.36719 1.082-0.66797 1.7656-4.1562 5.5391-6.0195 9.9141-7.3242 1.168-0.43359 2.2305-1.0469 3.1836-1.8477 1.1211-0.89844 2.3711-1.5352 3.7539-1.9141 1.3828-0.37891 2.7852-0.46875 4.2031-0.26953 3.6953 0.46484 7.5156 0.58984 10.461 3.1875 0.49219 0.32812 1.0234 0.40625 1.5898 0.23828l-2.0703-1.5938c2.0859-0.95312 8.8828 4.4922 10.027 9.0898l1.832-0.60156c1.8633 1.7812 1.3047 4.0117 1.4805 6.0469 0.078125 1.4258 0 2.8438-0.23828 4.2539-0.11719 0.65625-0.085938 1.3047 0.09375 1.9492 0.18359 0.64453 0.49609 1.2148 0.94141 1.7109 0.92188 1.125 1.3516 2.4141 1.2891 3.8711-1.1914 8.8828-2.5195 17.742-3.9961 26.57-1.7695 9.6016-4.5742 18.891-8.4219 27.863-1.4531 4.0234-3.2773 7.8711-5.4727 11.543-1.3047 2.0234-1.9766 4.3477-3.7109 6.3711-1.7344 2.0195-1.8594 4.4727-3.1016 6.5742-1.1328 2.0742-2.6562 3.8047-4.5703 5.1914-0.3125 0.17188-0.55469 0.41797-0.73047 0.73047-2.0391 5.543-6.1602 9.8711-9.8672 14.488-2.5 3.1836-4.6172 6.4648-6.9883 9.6641-3.3906 4.5391-6.6562 9.1719-10.379 13.488-2.7852 3.1836-6.2891 5.9375-9.375 8.9766-1.75 1.7227-3.2969 3.6016-4.9492 5.3984-2.7461 3.2305-5.6641 6.3008-8.7539 9.2031-3.1836 2.7539-5.5547 6.0977-8.8047 8.7734-2.3398 1.9414-4.2812 4.2344-7.1953 5.6367-1.3438 0.78125-2.5664 1.7266-3.6602 2.832-1.0312 0.84766-1.9688 1.7891-2.8164 2.8203-0.68359 1.1016-1.3125 2.2383-1.8789 3.4062-0.40625 0.61328-0.86719 1.1797-1.3828 1.7031-2.0391 2.3242-2.0391 2.3242-5.4766 2.1484 0.17188 0.69531 0.19531 1.3945 0.070313 2.0977-0.125 0.70703-0.38672 1.3555-0.78516 1.9492-0.76562 1.207 0.125 3.6914 1.0195 5.2852 3.4102 6.6328 7.9297 12.398 13.559 17.289 0.60156 0.42578 1.0859 0.95703 1.4492 1.5938 2.1172 4.7773 2.5312 5.0156 7.6094 4.1875 0.42969 4.6641 1.3203 3.7266 6.0781 3.1836 1.4258-0.054688 2.7891 0.21094 4.0898 0.79688 0.66406 0.34766 1.2188 0.82031 1.6719 1.418 2.8203 0.41406 5.1406 0.82812 7.5 1.0977 4.6016 0.81641 9.1641 0.62891 13.688-0.55859l-0.875-0.60547 18.973-5.3164-0.32031 4.4414 6.3672-3.3906c1.0195 2.9453 2.1016 5.7148 2.9297 8.5664 0.9375 3.1836-1.4023 7.7383-5.2852 9.7422-6.3672 3.3281-13.133 6.1953-20.82 6.3711-5.9688 0.20703-11.906 0.52344-17.859 0.73047-0.76172-0.085937-1.5078-0.23828-2.2422-0.46094-2.707-0.39844-5.4297-0.75-8.1328-1.1133-1.0391-0.085938-2.0703-0.23438-3.0898-0.44922-8.8242-2.0703-17.219-5.2773-25.18-9.6133-9.5508-5.6367-16.68-12.945-20.691-22.594-0.29688-0.46875-0.64844-0.89453-1.0508-1.2734-1.3125 0.33203-2.4883 0.93359-3.5273 1.8047-1.0391 0.87109-1.8359 1.9258-2.3945 3.1641-2.0859 3.6133-6.1602 5.2031-9.168 7.8633-0.33203 0.30078-1.1758 0.14453-1.7812 0.19141-0.60547 0.046875-1.082-0.16016-1.3555 0-4.9023 3.6953-9.6914 7.5-14.641 11.145-9.5508 7.0234-19.77 13.328-31.836 16.605-3.8945 1.3359-7.8672 1.6445-11.922 0.92578-2.0664-0.46484-4.2812-0.17578-6.1758-1.5938-0.66797-0.47656-2.0195-0.12891-3.0391-0.31641-2.043-0.23438-4.0312-0.6875-5.9688-1.3711-2.1797-1.0508-4.2266-2.3125-6.1445-3.7891-0.82812-0.70703-1.4805-1.5508-1.957-2.5312-3.1836-5.3672-3.5664-11.145-3.3594-16.988 0-0.19141-0.22266-0.39844-0.47656-0.84375-1.6484 0.71875-3.1562 1.6641-4.5195 2.832-3.4023 3.1406-7.0742 5.9297-11.016 8.3594-1.5273 0.92187-3.1367 1.668-4.8242 2.2422-1.6836 0.57812-3.4141 0.96484-5.1836 1.1719-1.7734 0.20312-3.5469 0.21875-5.3203 0.042969-1.7734-0.17578-3.5078-0.53516-5.2031-1.082-1.1797-0.31641-2.2422-0.85547-3.1914-1.6172s-1.707-1.6836-2.2695-2.7617c-0.93359-1.6914-1.7344-3.4414-2.4023-5.2539-2.2617-7.0391-4.8555-13.965-4.7773-21.465 0.25391-6.4023 1.4062-12.637 3.4531-18.707 1.4336-4.293 2.6406-8.6523 3.6133-13.07-0.64062 0.44141-1.2578 0.92187-1.8438 1.4336-9.5508 9.5508-19.453 18.848-30.102 27.465-4.3125 3.5-8.4648 7.1797-12.508 10.938-1.1094 1.1094-1.8516 2.4258-2.2305 3.9453-3.5469 13.758-6.8906 27.562-10.473 41.32-1.1602 4.4258-3.0078 8.707-4.25 13.117-0.98828 3.5195-1.4648 7.1328-2.2773 10.684-0.69922 3.0898-1.4453 6.1602-2.3555 9.2031-0.46875 0.94922-1.0234 1.8477-1.668 2.6914-0.36719 0.68359-1.0508 1.5898-0.78125 2.1172 0.89062 1.75 0.17578 3.2617-0.36719 4.7773-1.5898 4.4883-3.1836 8.9297-4.7734 13.422-0.51172 1.4297-0.84375 2.9297-1.2266 4.3945-0.085938 0.85156-0.35938 1.6445-0.8125 2.3711-0.45703 0.72656-1.0508 1.3164-1.7812 1.7656-0.50391 0.35156-0.84766 0.82031-1.0352 1.4023-1.1445 2.3555-2.0625 4.7969-2.7539 7.3242-0.58984 3.0234-1.9414 5.7773-2.8164 8.707-0.875 2.9297-2.7539 5.7656-3.8516 8.7422-0.98828 2.6758-3.582 4.4414-4.0586 7.5625-0.74219 2.8477-2.125 5.3438-4.1406 7.4844-2.4492 3.0742-3.707 6.6719-5.9375 9.793-2.2266 3.1172-4.4883 6.6055-6.9844 9.7422-8.293 10.414-17.289 20.254-29.512 27.164-1.9492 0.93359-3.957 1.7305-6.0156 2.3867-1.7539 0.68359-3.4883 1.3867-5.2383 2.0547-0.45312 0.24609-0.9375 0.39844-1.4492 0.46094-5.4258 0.10937-10.695 1.8164-16.25 0.79687-1.332-0.17187-2.5859-0.58203-3.7617-1.2344-1.1758-0.65234-2.1875-1.5-3.0352-2.5391-1.7422-2.25-3.0195-4.7383-3.832-7.4648-0.80859-2.7266-1.0977-5.5117-0.86328-8.3477 0.14453-4.1055 0-8.4375 2.4375-12.004 1.8438-2.7695 1.6992-5.4922 1.8906-8.4531 0.3125-2.4648 0.97266-4.832 1.9766-7.1016 1.2617-3.9531 2.8516-7.7695 4.7734-11.449 2.2617-3.8984 3.375-8.1523 5.3164-12.113 1.7656-3.5859 4.5039-6.7539 6.5117-10.238 2.0039-3.4883 3.8359-7.6133 5.8242-11.387 0.74609-1.4297 1.7969-2.7227 2.6914-4.0898 2.2266-3.4375 4.7734-6.6875 7.207-10.031 3.8711-5.4766 6.8789-11.414 11.285-16.605 3.1055-3.6641 5.4609-7.832 8.3086-11.688 1.8633-2.5156 4.3008-4.7773 5.9375-7.293 2.3906-3.7539 6.6211-6.0977 8.6914-10.109 0.92188-1.7969 3.1836-3.0391 4.6641-4.6172 1.4688-1.6602 3.1016-3.1367 4.9023-4.4258-0.38281 0.52734-0.76562 1.0508-1.1289 1.5938-1.3867 1.9727-2.8008 3.9492-4.2031 5.9219 1.2227-0.75391 2.3672-1.6094 3.4375-2.5625 0.27344-0.16797 0.50391-0.38281 0.69141-0.64844 0.18359-0.26172 0.30859-0.55078 0.375-0.86719 0.066406-0.3125 0.066406-0.62891 0.003906-0.94531-0.0625-0.3125-0.1875-0.60156-0.37109-0.86719zm343.06-231.9c0-1.5938 0.32031-2.8984-0.26953-3.6758-1.0039-1.3242-0.47656-2.4062-0.28906-3.6328 0.42188-1.8125 0.64453-3.6484 0.67188-5.5078-0.22656-4.0117-2.5-5.207-6.3672-3.5039-3.1914 1.3438-6.1445 3.082-8.8633 5.2188-2.7188 2.1367-5.1094 4.5938-7.168 7.375-4.4062 6.0664-8.7852 12.117-12.73 18.469-2.0703 3.375-3.918 6.8945-6.3672 10.062-4.3711 6.0312-8.0859 12.441-11.145 19.234-1.7344 3.6445-3.4219 7.3086-5.2188 10.938-1.8008 3.6328-3.9141 7.3711-5.6367 11.145-1.7188 3.7734-3.0703 7.4375-4.5352 11.148-2.5938 6.5742-5.3633 13.102-7.6094 19.789-1.9883 5.9375-3.3555 12.035-4.9805 18.055-0.19141 0.68359-0.55859 1.4961-0.33594 2.0859 0.84375 2.1641 0 4.1406-0.44531 6.1914-0.30078 1.1484-0.76172 2.5664 1.3047 3.5352 0.87891-0.96875 1.832-1.8945 2.6133-2.9141 2.7852-3.6289 5.043-7.6719 8.3555-10.84 3.9609-4.0508 7.4531-8.4727 10.473-13.266 5.7461-8.4531 10.68-17.383 16.078-26.047 6.1484-10.117 11.594-20.605 16.328-31.461 0.73438-1.5898 0.6875-4.0742 3.8359-3.9492 0.32031 0 0.70313-0.65234 0.97266-1.0352 1.1797-1.5117 2.2383-3.1055 3.1836-4.7734 3.9766-7.9609 7.957-15.922 11.684-24.027 1.4141-2.9922 2.4336-6.1602 3.6445-9.25zm-198.96-48.418c-0.17578 0.35156-0.79688 1.0195-0.62109 1.4023 0.60547 1.3359-0.14453 1.957-1.1445 2.625-4.3477 3.082-8.3125 6.5938-11.895 10.535s-6.7031 8.2188-9.3555 12.84c-4.2031 6.9297-8 14.074-11.398 21.43-0.84375 1.832-1.4453 3.7578-2.2422 5.6211-2.5469 5.9531-5.0625 11.941-7.7188 17.863-1.6875 3.7734-2.0703 7.9609-4.6953 11.465-1.7227 2.3242-2.293 5.3945-3.1836 8.1992-1.0664 3.375-1.8008 6.8633-2.8672 10.238-1.0664 3.375-2.5156 7.0977-3.8047 10.648-0.20703 0.9375-0.57422 1.8086-1.0977 2.6133-2.9453 3.4062-3.0234 7.6094-3.9961 11.574-0.37891 1.5938-0.74609 3.1836-1.1133 4.7773 0.8125-0.015625 1.4961-0.32031 2.0547-0.91016 5.6641-6.6094 11.32-13.23 16.965-19.852 1.8164-2.1016 3.6484-4.2031 5.332-6.3711 3.5977-4.6484 7.1172-9.3438 10.633-14.043 1.1914-1.9297 2.5234-3.7617 3.9961-5.4922 4.9844-4.7734 7.9609-10.809 11.684-16.367 4.3398-6.7227 8.2969-13.664 11.875-20.824 2.7969-5.3906 5.0977-10.984 6.9062-16.781 1.5859-5.9102 2.7812-11.895 3.582-17.961 0.57422-3.4375 0.57422-6.9727 0.84375-10.633-1.7344-0.36719-3.1836-0.54297-4.4883-0.95703-1.3047-0.41406-2.6602-0.98828-4.2969-1.6406zm-138.06 283.95c-4.7773 5.7969-9.2656 10.906-13.277 16.336-6.875 9.3477-13.465 18.867-20.102 28.355-2.2109 3.1836-4.3281 6.3711-6.2227 9.6953-1.8945 3.3281-5.0781 6.1328-5.9062 10.016 0 0.33594-0.41406 0.60547-0.58984 0.92578-3.3242 5.9062-6.875 11.734-9.9141 17.766-2.6445 5.2227-4.8867 10.621-7.0039 16.035-3.9336 10.078-7.6406 20.219-7.957 31.125-0.082031 2.8672 0.23828 5.3828 3.3398 7.1016 0.85938-0.16016 1.668-0.44531 2.4375-0.85938 2.3555-1.7852 4.6641-3.6445 6.875-5.5742 4.6836-3.7383 8.5078-8.2109 11.477-13.422 2.6562-5.1406 6.1602-9.9023 8.9141-14.996 3.7539-6.9414 7.5586-13.914 10.648-21.113 4.7734-11.145 9.1016-22.48 13.305-33.832 2.7383-7.3398 4.9648-14.84 7.3398-22.289 1.75-5.4805 3.3867-10.988 5.0898-16.496 0.16016-0.54297 0.12891-1.3047 0.52734-1.5938 2.418-1.9102 2.0195-4.1367 1.0195-7.1797zm-20.934-119.17c-4.8516 1.0352-5.3945 1.4492-5.5195 4.332 1.1367-0.39453 2.1758-0.96094 3.1211-1.7031 0.94922-0.74219 1.7461-1.6172 2.3984-2.6289zm351.77-104.18-2.1797 4.5547 0.76172 0.25391c0.53906-0.67969 0.92578-1.4336 1.1602-2.2695 0.23828-0.83203 0.30859-1.6797 0.21094-2.5391zm33.949-6.9414h0.84375l0.36719-4.9688h-0.54297zm-446.55 379.54c0.73047 1.7031 0.73047 1.7031 2.6406 1.3984zm0.96875-209.51c1.5938-1.5938 1.5938-1.5938 0.39844-3.1836-0.15625 1.3047-0.28516 2.2109-0.39844 3.1836zm157.96-152.43-0.68359-0.22266c-0.46094 0.90625-0.90625 1.8164-1.3711 2.707l0.92578 0.34766zm290.45-30.012c-0.54297 2.5938-0.48047 2.7695 0.73047 2.3867-0.23828-0.78125-0.47656-1.5898-0.73047-2.3867zm-396.33 129.66-0.85937-0.38281-1.2578 2.3594 0.875 0.37891zm103.79-95.004c-1.75 1.957-1.75 1.957-1.5117 3.8047 0.52734-1.2891 0.89063-2.2266 1.5273-3.8047zm62.586 181.7-0.84375 0.38281 1.1133 1.8008 0.60547-0.28516c-0.30078-0.64063-0.65234-1.2773-0.875-1.8984zm-7.7344-256.41 0.60547 0.66797 1.6836-1.4648-0.46094-0.44531zm-27.156 35.871c0.58984-0.69922 0.97266-0.97266 1.082-1.3203 0.11328-0.35156-0.23828-0.60547-0.37891-0.91016-0.38281 0.22266-0.91016 0.36719-1.0859 0.66797-0.17188 0.30469 0.14453 0.71875 0.38281 1.5625zm34.684 216.02h-0.84375l0.25391 1.957h0.44531zm246-90.754c3.7891 1.8477 7.6094 5.2695 12 1.082 4.6328-0.41406 6.1602-3.375 6.7344-6.9414 0.44531-2.8008 1.8945-5.5547 0.57422-8.5 2.2422-1.3086 1.2578-3.3438 1.3516-5.1445 0.078124-0.375 0.28516-0.65625 0.62109-0.84375 0.49219-0.30078 0.9375-0.66016 1.3398-1.0742 0.39844-0.41797 0.73828-0.87891 1.0156-1.3828 0.28125-0.50781 0.48828-1.0391 0.62891-1.6016 0.14062-0.55859 0.20703-1.1289 0.19922-1.7031 0.20703-2.0859 1.1914-3.8242 1.5898-5.7812 0.54297-2.9297 3.9961-4.9336 3.1836-8.3281 3.1836-2.2734 3.6445-5.8594 5.0156-8.9453 3.0078-6.7344 6-13.488 8.5156-20.363 1.3828-4.3516 3.3477-8.418 5.9062-12.199 0.90234-1.4023 1.6562-2.8828 2.2578-4.4414 0.16016-0.34766 0.14453-1.0977 0-1.207-1.2578-0.62109-0.78125-1.293-0.26953-2.0391 0.86719-1.1797 1.668-2.3984 2.4023-3.6641 0.71875-1.3203 0.39844-3.1836 2.6914-3.5977 0.125 0 0.125-0.62109 0.19141-0.95312 0.25391-1.1172 0.47656-2.2305 0.79297-3.3281 0.21484-0.91797 0.53516-1.8008 0.95703-2.6445 0.39844-0.68359 1.5898-1.1758 1.5898-1.8125 0.28906-3.8242 3.0742-6.5625 4.7773-9.7461 1-1.8633 2.6562-3.4062 3.6445-5.2695 3.0391-5.668 5.0117-11.797 8.8828-17.133 0.35938-0.72656 0.54297-1.4961 0.53906-2.3086 0-0.53906-0.22266-1.1914 0-1.5898 1.0508-2.2617 2.2148-4.4766 3.375-6.6875 2.1328-4.1094 4.1367-8.168 3.8672-12.992 0.027344-0.69922-0.042969-1.3906-0.20312-2.0703-0.16016-0.68359-0.41016-1.3281-0.74609-1.9414-0.33594-0.61719-0.75-1.1719-1.2344-1.6758-0.48828-0.50391-1.0312-0.93359-1.6367-1.2852-0.75391-0.44141-1.5547-0.78125-2.3945-1.0234-0.84375-0.23828-1.6992-0.37109-2.5742-0.39453-0.875-0.027343-1.7383 0.054688-2.5938 0.24609-0.85156 0.19531-1.668 0.48828-2.4492 0.88281-4.5977 2.4688-6.2695 6.3711-7.7812 10.492-1.5312 5-3.3594 9.8867-5.4766 14.664-2.3242 4.6328-3.7734 9.5547-6.0156 14.156-2.0234 4.1875-3.7422 8.5-5.6055 12.734-1.9883 4.5391-3.9141 9.1094-6.0156 13.613-1.5898 3.1836-3.3906 6.3711-4.918 9.5547-2.707 5.7148-5.0312 11.574-7.957 17.18-4.4023 8.0469-8.2461 16.352-11.523 24.918-1.5938 4.5195-4.0625 8.8047-5.8906 13.293-3.8672 8.8125-6.9727 17.879-9.3281 27.211-0.57422 2.5312-1.3047 5.0312-2.1016 8.0703 0.55859 0.57422 1.0352 2.0547 2.0703 2.5469zm-11.445 63.082c3.8203 0.79688 5.7148-1.9258 8.4375-3.0742 0.30859-0.21094 0.48438-0.50391 0.52344-0.875 0.27344-1.8633 1.7539-3.1836 2.5625-4.7773 0.42969-0.85938 0.82812-2.4023 0.33594-2.8633-1.8945-1.8242-3.9688-3.418-6.2227-4.7773-1.832-1.0664-4.1875-1.3555-6.0352-2.4062-3.6914-2.1172-10.582 0.35156-10.234 4.7773 0.25781 3.1836-2.4023 6.5273 0.28906 9.7461 0.23828 0.28516-0.17578 1.0195-0.19141 1.0977l4.168 3.1836c2.125-0.25781 4.2461-0.25781 6.3672 0zm-933.96-0.12891c-4.1484 3.6523-8.2812 7.3203-12.398 11.004 0.97266-0.14453 2.3242 0 2.8672-0.49609 3.6445-3.4688 7.1133-7.082 10.648-10.648-0.38281 0.046876-0.91016-0.03125-1.1172 0.14063zm431.22-50.82c-0.98438 0.26172-1.8438 0.74219-2.5898 1.4336-0.74219 0.69531-1.2812 1.5234-1.6133 2.4844l-0.078125-0.12891 2.8633 0.23828c0.13281-0.17969 0.24219-0.37109 0.33594-0.57031 0.31641-0.97266 0.69922-1.9922 1.082-3.4414zm-438.8-49.484c1.0078-0.39453 1.9805-0.86719 2.9141-1.418 0.14062 0-0.36719-0.95312-0.55859-1.4492l-1.8789 0.30469zm386.08 99.383c-1.1484 0.16406-2.2383 0.51953-3.2617 1.0664-1.0273 0.54688-1.9258 1.2539-2.707 2.1172l2.1836 0.16016c0.19922-0.085937 0.39062-0.19531 0.57031-0.32031 1.0664-1 2.1328-2.0195 3.2148-3.0234zm39.109 11.688-0.38281 5.3633h0.25781l0.39453-5.5234zm61.613-40.281 3.9961-0.67187c-2.1484-1.0312-2.1484-1.0312-3.9961 0.67187zm388.26 50.805 3.5352-0.20703v-0.47656l-3.5508-0.082031zm-655-50.949c-1.4805-1.3359-1.4805-0.35156-1.5898 1.082l1.5898-1.1797z" fill="#ff5757"/>
</svg>
