<?xml version="1.0" encoding="UTF-8"?>
<svg width="1587" height="1587" version="1.0" viewBox="0 0 1190.2 1190.2" xmlns="http://www.w3.org/2000/svg" zoomAndPan="magnify">
 <defs>
  <clipPath id="b">
   <path d="m0 0h1189.5v1189.5h-1189.5z"/>
  </clipPath>
  <clipPath id="a">
   <path d="m0 0h1188v1189h-1188z"/>
  </clipPath>
 </defs>
 <g clip-path="url(#b)" fill="none">
  <path d="m0 0h1189.5v1189.5h-1189.5z"/>
  <path d="m0 0h1189.5v1189.5h-1189.5z"/>
 </g>
 <g clip-path="url(#a)">
  <path d="m1134.7 1108.7c-15.559-14.398-44.438-24.48-63.891-33.109-30.164-13.355-60.324-26.887-90.988-38.996-21.359-8.4766-42.805-16.656-64.398-24.477-12.375-4.4648-24.867-8.5078-37.211-13.059-1.875-18.383-9.3711-18.355-20.195-30.25-5.832-6.4258-10.383-13.805-14.367-21.508-1.2812-2.5-2.5-5.0547-3.6289-7.6445-1.1328-2.5859-2.1719-5.2031-3.125-7.8516-0.94922-2.6484-1.8125-5.3242-2.6172-8.0312-0.77344-2.707-1.4883-5.4453-2.082-8.2109-1.7539-7.7031-1.4258-19.305-5.4727-25.938-10.023-16.449-61.156-35.309-80.102-40.066 23.051-26.562 40.395-52.082 50.508-86.141 13.621 18.648 28.078 35.516 44.555 51.695-9.0117-47.176-4.4023-84.801 7.5547-130.85 24.453-14.812 50.746-38.938 66.898-62.434 15.973-23.262 24.629-49.734 19.453-78.082 8.5352 5.9492 16.656 12.613 24.984 18.859 14.516 10.918 29.746 21.773 45.27 31.23-11.746-23.348-22.633-47.293-30.398-72.277-8.1797-26.414-13.059-53.809-17.727-80.996 25.195 18.68 53.062 32.57 81.68 45.242-7.7344-9.9961-16.629-19.215-23.738-29.656-21.297-31.172-33.047-66.746-41.852-103.18-3.5664-14.785-6.3633-29.629-10.648-44.234 41.496 12.941 79.656 33.645 118.5 52.59-16.418-17.906-32.242-35.605-46.043-55.68-38.73-56.367-68.414-120.86-118.24-168.77-4.6992-4.4922-9.5469-8.8359-14.512-13.059-4.9688-4.1953-10.055-8.2383-15.289-12.137-5.207-3.8984-10.562-7.6445-16.004-11.215-5.4453-3.5703-10.977-6.9883-16.629-10.23-35.723-20.227-94.051-40.188-135.39-39.324-17.344-10.766-38.969-17.906-58.688-23.082-38.668-10.113-77.695-13.445-117.55-11.66-19.781 0.89453-39.5 3.1523-59.191 4.9102-31.145 2.793-63.18 4.9375-94.41 3.5664-40.898-1.7852-83.195-12.879-122.04-25.52h-7.793c17.52 30.488 35.844 58.688 60.707 83.91 9.9648 10.113 20.824 19.273 31.562 28.496-27.277 16.031-51.996 32.539-73.5 56.098-17.641 19.336-32.512 41.793-44.676 64.934-6.1602 11.691-11.543 23.766-17.492 35.574-26.352 52.352-62.969 110.74-109.22 147.89-11.895 9.5469-25.133 17.25-38.07 25.254 48.781-7.1992 94.258-29.27 137.89-51.223 8.3594-4.1953 16.48-8.9219 24.926-12.938-4.7305 25.102-9.3086 50.059-17.012 74.48-13.953 44.141-42.238 93.133-81.086 119.63-8.418 5.7422-17.637 10.262-26.352 15.527 19.422-3.6289 38.695-7.9102 57.82-12.848 19.129-4.9375 38.074-10.531 56.812-16.75 15.23-4.9375 30.52-9.5742 44.945-16.598-6.4258 27.605-5.9492 63.895 9.25 88.523 11.543 18.68 40.84 43.875 57.824 59.312 5.1172 4.6367 10.023 9.9023 15.527 14.098 4.0156 3.0352 8.2383 5.207 12.879 7.1367-0.95313 32.988-4.7305 84.121-18.203 114.4-3.125 6.9883-7.5547 13.77-12.523 19.57 27.754-13.355 54.848-29.238 77.219-50.715 2.9414 15.051 20.672 44.5 28.91 58.211-19.125 5.1758-41.641 12.551-52.055 30.934-5.3242 9.4297-7.9102 20.586-11.359 30.816-3.3633 9.9336-8.418 19.75-14.25 28.438-3.332 4.8789-6.9297 9.5195-10.766 13.98-3.8672 4.4609-7.9727 8.6562-12.316 12.641-5.4141 4.8477-12.551 9.5781-16.773 15.379 0.59375 4.2812 1.2461 8.5664 1.9609 12.848-23.496 8.6562-46.699 17.996-70.078 27.012-53.867 20.73-107.53 42.027-159.28 67.727-13.328 6.6055-28.227 12.523-39.77 21.953-19.988 16.359-40.512 49.109-53.273 71.773v4.1953h9.043c11.93-20.047 32.898-55.742 51.25-69.902 6.8711-5.293 15.051-8.9531 22.785-12.758 25.938 24.836 36.258 48.57 45.211 82.66h10.023c-5.6211-23.766-13.77-46.82-28.109-66.867-5.3242-7.4375-11.391-14.16-17.34-21.09 28.824-13.801 57.973-26.891 87.422-39.324 29.445-12.43 59.16-24.152 89.172-35.188 18.203-6.7812 36.586-15.348 55.355-20.254l0.17969 0.47656c4.5195 11.121 6.9883 22.781 12.074 33.816 23.379 50.629 72.816 119.46 120.53 148.4h0.74219l0.17969-0.50391c1.3984-4.3438 2.2305-8.8633 3.418-13.266 2.1445-7.9453 4.5234-15.797 7.1719-23.59 13.383-39.473 38.934-92.207 65.824-123.95 14.543 22.547 25.758 47.5 41.016 69.57-3.1797-10.051-7.2266-19.84-11.035-29.652-6.8984-17.758-14.098-35.367-21.652-52.859 1.8438-3.7773 4.1641-7.1953 6.5117-10.707-34.383 16.301-73.348 98.07-85.664 132.78-4.4023 12.402-7.375 25.223-11.539 37.688-51.371-40.305-110.98-123.53-121.66-187.99 15.23-14.039 30.488-26.77 41.078-45.004 5.8594-10.055 10.441-21.031 14.07-32.094 8.6523-26.297 13.562-35.043 40.926-44.352 12.168-4.1328 25.402-7.7344 38.281-8.5664v15.02c-11.957 5.3555-39.203 24.363-44.02 37.152-1.1328 3.0352-0.71484 5.9219 0.68359 8.8047 10.914 22.844 80.012 56.129 104.37 67.285 10.562 4.8477 22.043 8.8633 32.188 14.363 14.039 39.594 26.945 79.57 38.668 119.9 6.6602 22.996 13.828 46.465 18.32 69.992h10.113c-2.5273-11.543-4.7305-23.172-7.6133-34.594-6.1562-24.539-13.773-48.812-21.477-72.906-5.8281-18.172-14.129-37.984-18.562-56.129 28.824 8.7148 59.105 7.1094 88.492 2.7383-4.1953 18.055-7.8516 36.23-10.918 54.492-3.0625 18.293-5.5898 36.645-7.5234 55.086-1.7266 16.719-3.4492 34.504-2.1406 51.312h8.8906c0.38672-50.926 9.5781-103.63 19.781-153.39 2.5898-12.613 4.4336-27.188 9.9648-38.848 26.891-14.188 88.254-44.59 97.383-75.195 1.8438-6.2461 0.74609-12.078-2.4375-17.668-8.2969-14.574-24.121-25.375-38.461-33.406 0-3.9258-0.11719-7.8516 0.35938-11.777 20.762 5.0273 61.215 20.406 76.977 34.176 5.5039 29.656 10.918 57.438 31.441 80.996 5.1758 5.9492 11.242 10.711 16.715 16.301 2.8555 10.648 3.2148 23.113 1.4609 34-5.0586 31.617-30.43 80.398-46.672 108.63-6.8398 11.629-14.098 22.961-21.773 34.027-20.344-41.406-41.789-80.965-68.383-118.74-8.7734-12.492-17.281-24.629-27.871-35.695-2.793-2.9453-7.5234-8.8633-11.301-10.23-0.68359-0.23828-0.74609-0.20703-1.3711-0.23828-0.68359 1.457-0.058594 2.9727 0.47656 4.4297 1.1328 3.0938 3.2734 6.0703 5 8.8672-10.293 14.871-16.539 67.727-16.629 86.406 2.4688-6.3945 4.1328-13.055 6.0391-19.629 5.2031-18.055 10.203-37.629 19.004-54.316 35.547 50.238 68.445 101.58 92.508 158.45 25.73-32.453 45.809-68.801 62.672-106.52 7.3477-16.449 14.871-34.238 17.965-52.086 1.043-6.0664 1.1602-12.074 0.95312-18.234 23.496 6.4844 46.223 16.211 68.977 24.867 25.82 9.8164 51.191 20.199 76.625 30.906 18.887 7.9727 37.922 15.914 56.246 25.105-8.4766 33.312-17.43 66.18-28.465 98.754h10.113c10.379-30.938 21.773-62.973 26.531-95.363 12.195 5.3516 25.402 10.945 35.871 19.246 17.371 13.77 32.035 40.184 43.039 59.52 3.0938 5.4102 6.6367 10.914 9.1914 16.625h11.395c-5.2344-8.3867-9.5195-17.52-14.336-26.145-9.1914-16.48-25.344-41.496-38.938-54.078zm-670.62-221.63c-11.359 4.1953-24.152 9.25-33.551 17.133l-0.29688-0.23828c3.1523-6.2148 27.574-22.484 33.848-26.559 0.03125 0.027344 0.089843 0.058594 0.12109 0.085937 1.6641 2.4414 0.35547 6.7852-0.12109 9.5781zm277.4-9.6055c0.23438 0.089843 0.44531 0.17578 0.68359 0.26562 9.9336 4.3125 28.852 21.359 32.957 31.621-10.77-9.5195-20.555-16.211-33.941-21.684 0-3.4219 0.0625-6.7852 0.30078-10.203zm89.32-155.69c-3.5703 21.297-3.9531 42.953-3.0312 64.488-5.2383-6.0078-10.145-12.375-15.141-18.59-6.1602-8.3008-12.852-16.184-19.426-24.125 12.344-14.84 16.926-24.598 24.66-41.73l18.828-8.9844 0.17969 0.14844c0.68359 1.875-5.3242 24.184-6.0977 28.793zm88.789-125.38c-14.246 31.977-47.562 62.316-76.832 80.73-6.8711 4.3398-13.828 8.6562-21.445 11.598 2.5-11.66 6.457-22.812 9.5195-34.293 7.9102-29.539 15.496-61.008 27.961-88.969l0.92188 8.6562c0.38672 8.2383 0.625 16.508 0.68359 24.777 2.5859-4.6992 5.2656-9.3086 8.0586-13.859 1.3398 9.5742 2.7695 19.152 4.2852 28.703-7.5859 6.9883-14.992 14.605-21.625 22.484-5.4414 6.4844-10.441 13.328-16.031 19.691 12.91-5.5312 42.207-30.102 48.246-42.621-3.4531-13.805-7.3477-27.516-11.633-41.078 6.1289-4.2266 12.078-8.7461 17.492-13.832 3.1836-3.0039 6.2461-6.9922 9.8164-9.4297 2.1406-1.457 4.7266-2.3789 7.0781-3.5117 1.5156-0.74219 4.5508-1.7227 5.0547-3.2422-0.94922-1.1875-1.4844-1.5469-3.0312-1.8125-10.113-1.668-17.758 4.9375-25.434 10.32 2.9766-6.543 5.7109-14.781 10.172-20.434 4.1055-5.207 9.8477-6.7227 16.094-7.5273 1.5781 0.0625 2.9453 0.21094 4.4336 0.83594 5.2617 2.2305 8.1797 6.957 10.141 12.133 7.5547 19.781 4.4922 41.703-3.957 60.68zm62.762-29.117c-5.5352-3.8086-10.828-7.9727-16.121-12.109-9.6367-7.2578-19.574-14.781-28.617-22.754-6.3047-5.5312-11.867-12.91-19.094-17.223-5.1484-3.0625-14.25-1.3359-19.812-0.089844 2.4102-7.1367 5.4453-14.129 8.0312-21.207 3.7188-10.172 6.9336-20.672 9.8164-31.113 4.4922-16.328 6.7812-33.016 9.2812-49.734 6.9023 6.8438 14.277 13.297 21.445 19.871 2.9453 13.832 4.4922 28.109 7.2266 42.027 6.4844 33.199 15.051 61.066 27.902 92.27zm-256.43-506.32c5.4141-0.26953 10.977 0.29688 16.332 1.0391 34.828 4.8789 72.902 17.582 103.81 34.387 21.684 11.809 43.07 26.473 61.094 43.398 56.039 52.531 88.879 130.37 135.22 191.53-15.703-7.1094-31.023-14.723-46.996-21.266-12.285-5.0273-24.836-9.0742-37.359-13.477-4.9961-9.668-10.082-19.156-16.418-28.02-18.383-25.668-50.895-55.027-79.629-67.789 6.8125 9.668 16.836 16.984 25.582 24.809 21.504 19.273 41.969 38.965 56.336 64.309 15.258 26.887 18.113 56.781 26.059 86.082 8.1797 30.07 20.434 57.168 35.988 84.027-8.1484-5.3242-16.805-9.9336-25.043-15.109-19.664-12.312-39.293-27.426-53.867-45.598-0.23828-24.809-3.9297-47.117-16.719-68.832 7.0195 43.219 8.8945 69.07 1.1016 112.59-6.3672 36.289-26.176 82.125-43.664 114.58-26.949-51.371-68.445-97.773-106.99-140.93-13.207-14.781-27.066-29.297-39.441-44.766-2.4102-38.816 2.4961-78.348 12.047-115.98 2.4375-9.6367 5.6211-19.066 8.3281-28.613-4.6992 6.9609-7.9727 14.574-10.855 22.43-19.871 54.043-26.625 122.79-10.383 178.56 3.3008 11.332 8.1211 22.16 13.059 32.867-21.953-15.766-43.102-31.082-62.645-49.914-3.9844-3.8672-7.9102-7.8203-11.746-11.867-3.8398-4.043-7.5859-8.1211-11.273-12.312-3.6914-4.1641-7.2891-8.418-10.797-12.73-3.5117-4.3164-6.9609-8.6875-10.293-13.148-3.3633-4.4336-6.6055-8.9531-9.7852-13.535-3.1836-4.582-6.2773-9.1914-9.25-13.891-3.0078-4.6992-5.9219-9.4297-8.7188-14.246-2.8242-4.7891-5.5312-9.668-8.1797-14.547-4.9648-9.1016-11.539-18.055-11.688-28.734-0.12109-7.3164-0.058594-24.984 2.3789-31.352 4.1953-11.035 12.227-21.832 18.5-31.797 7.8242-12.523 15.973-24.805 24.453-36.914 8.4766-12.074 17.219-23.945 26.293-35.602 9.0703-11.66 18.441-23.023 28.109-34.207 9.668-11.188 19.602-22.074 29.832-32.691 4.4336-4.582 10.59-12.672 17.223-12.789zm27.812 363.66-1.3398 0.14844-21.355 3.332c-3.6875-12.758-7.3789-25.906-7.8242-39.262 3.7773 4.2227 30.16 33.461 30.488 35.781zm-599.21 141.56c14.992-12.105 26.828-27.129 37.27-43.219 2.4688-3.8672 4.8789-7.7656 7.1992-11.75 2.3203-3.957 4.5195-8.0039 6.6641-12.047 2.1406-4.0742 4.1641-8.1797 6.0977-12.344 1.9336-4.1641 3.7773-8.3594 5.5312-12.613 1.7539-4.2539 3.4219-8.5352 4.9688-12.848 1.5742-4.3164 3.0312-8.6562 4.3984-13.059 1.3711-4.375 2.6484-8.8047 3.8086-13.238 1.1602-4.4297 2.2305-8.8945 3.2148-13.383 4.9648-22.223 8.207-44.945 12.641-67.316 3.7188-18.738 8.5938-37.418 13.621-55.859-12.164 20.613-19.48 43.488-25.074 66.629-37.953 20.406-76.742 39.531-117.37 54.078 43.754-35.727 75.434-86.055 101.55-135.46 8.5664-16.211 16.184-32.926 24.926-49.078 25.137-46.312 55.445-80.758 100.71-107.89 29.18-17.52 60.59-30.191 92.863-40.691 10.945-3.5664 28.406-6.8711 37.895-11.332 0.21094-0.089844 0.38672-0.20703 0.59766-0.29688-37.094 1.25-80.281 16.598-113.75 32.156-8.8633-8.418-19.215-15.23-28.078-23.828-21.832-21.148-39.203-45.895-56.961-70.406 37.359 11.395 75.609 20.406 114.81 21.477 36.617 0.98047 73.145-4.1953 109.55-7.1992 67.492-5.5898 148.81-2.8828 209.14 31.59-4.9688 5.7109-10.77 10.797-15.973 16.301-9.668 10.203-19.098 20.762-28.379 31.293-31.945 36.316-68.59 87.031-91.672 129.51-5.207 9.5781-4.5508 22.875-5.1758 33.672-4.3438 74.273 8.7148 164.52 29.715 235.73-7.375-4.1641-14.633-8.4453-21.625-13.203-54.699-37.391-91.258-88.164-110.32-151.58-7.4922-24.984-12.223-50.953-17.012-76.562 5.7695-16.184 12.074-32.305 19.898-47.621 22.34-43.816 55.027-80.82 87.301-117.46-12.254 6.8398-23.824 17.965-33.672 27.871-38.906 39.176-65.199 84.148-83.344 136.14 1.5781 8.6836 4.4336 18.531 4.4336 27.273 0 5.4727-1.7266 11.125-2.707 16.508-1.4883 8.1797-2.7656 16.539-3.4531 24.84-3.8047 46.254 2.1445 99.613 20.078 142.51-1.0117-0.80469-1.9922-1.6055-3.0039-2.4102-52.23-42.09-87.863-104.82-94.973-171.66-5.4727-51.219 6.8984-106.37 39.707-146.88-14.84 10.172-25.043 24.273-32.867 40.246-19.75 41.254-22.398 89.621-12.285 133.85 3.6289 15.855 8.9844 30.637 13.922 46.047-20.672 36.02-28.141 92.773-26.324 133.91 0.65234 14.992 2.9453 30.398 5.6523 45.184 1.7227 9.3398 3.9258 18.77 6.5117 27.898 1.9961 7.0508 4.5234 14.102 5.9805 21.297l0.14844 0.77344c-13.266-18.441-29.508-34.801-42.652-53.422-37.895-53.66-47.297-119.01-42.535-183.23-14.25 40.066-9.9375 88.965 3.5078 128.71 2.8555 8.4453 6.5742 16.449 10.293 24.539-41.793 23.945-88.816 36.824-135.4 47.828zm253.39-129.51c-10.352 1.6094-20.285 4.6719-30.191 8.0039-7.9414 3.1523-15.465 7.1953-22.992 11.184 1.875-24.719 11.273-49.199 19.363-72.398 4.8203 6.3359 9.4609 17.281 14.012 24.688 6.0352 9.8438 13.293 18.977 19.809 28.555zm-48.453 259.73c-11.719-6.8125-21.594-17.938-31.41-27.188-14.102-13.324-30.461-26.77-41.496-42.801-17.906-26.027-14.516-60.414-9.0703-89.832 5.7422-2.8242 11.066-6.125 16.359-9.6953 4.1328 5.8281 6.7812 12.73 10.828 18.68 9.2773 13.594 22.039 28.109 29.535 42.504 6.7812 13.059 9.9648 28.02 14.812 41.852l15.824 45.598c3.0938 8.8672 6.8398 17.609 9.043 26.711-4.8477-1.8125-9.668-3.7773-14.426-5.8594zm24.27 105.42c-8.5039 6.6914-17.668 12.668-26.977 18.145 1.8438-9.1328 4.668-18.086 6.75-27.188 2.5898-11.363 4.1055-22.785 5.3242-34.387 0.53516-5.0273 2.7969-46.668 3.0664-47.355 0.44531-1.0703 1.6641-1.1602 2.707-1.5469 3.5977 0.625 4.1016 2.9766 5.5625 6.0391 2.6445 5.5039 4.1328 11.602 7.0469 16.957 7.4688 13.77 22.25 23.141 33.02 34.145-9.6094 13.207-23.828 24.926-36.5 35.16zm65.469 46.906-0.80078-0.089844c-13.27-19.691-22.637-40.363-32.184-61.988 3.7461-4.6406 7.582-9.2227 11.48-13.742 12.344 7.9727 22.695 18.293 35.543 26.027-2.6445 17.133-7.4648 32.602-13.383 48.812zm15.051-1.6367c-0.44531 0.92188-1.5469 1.0703-2.4375 1.457-0.41797-0.47656-0.65625-0.98047-0.92188-1.5469 0.41406-3.2422 1.7227-6.2148 2.8828-9.25l0.89453 1.1289c0.35547 2.707 0.80078 5.5938-0.38672 8.1836zm269.07 75.195c-19.93 15.141-47.859 29.688-72.043 36.23-5.5312 1.457-11.121 2.6172-16.773 3.4219-5.6523 0.80078-11.332 1.3086-17.074 1.457-47.414 1.6953-120.41-18.949-155.36-51.52 0.77344-5.832 1.2773-11.66 1.7227-17.551 3.332-29.805-0.41406-60.055-2.9141-89.711 8.7148 5.6836 17.043 12.047 25.699 17.879 21.207 14.277 75.016 49.258 98.934 52.051 6.9297 0.80469 14.512 0.12109 21.207-1.8438 12.492-3.6875 25.105-11.152 36.168-17.934 17.551-10.828 34.504-22.488 50.895-35.012 9.9023-7.6445 19.453-15.852 29.297-23.586 1.1602 9.9648-0.98047 25.52-1.3984 36.02-1.0977 28.438-2.1719 61.988 1.6055 90.066zm-130.79-55.832c-27.457 1.2812-130.55-71.297-156.13-90.723-10.617-8.0586-20.699-16.746-30.695-25.551-6.9883-6.125-14.961-12.848-19.93-20.73-6.0977-9.7266-9.6641-22.547-13.711-33.344-11.809-31.621-21.98-63.805-33.402-95.57 12.848 15.973 24.391 30.07 41.523 42-27.844-52.234-40.215-113.06-37.418-171.98 24.121-5.2656 47.797-10.977 72.277-14.43 9.8164 9.668 19.453 19.367 30.609 27.547-15.797 0.80078-31.77 3.9844-45.242 12.641 34.473-10.828 73.109-6.2461 107.91 0.625-13.18-8.3906-27.871-10.738-43.043-12.852-5.6523-7.6445-9.2188-16.449-12.434-25.312 10.055 2.3789 62.285 17.789 69.129 16.48 0.17578-1.6953-0.21094-2.5312-1.1328-3.9883-12.879-20.168-51.902-27.484-73.883-33.074-10.203-40.84-11.363-82.426-6.9023-124.12 3.0352 9.1602 4.9375 18.738 7.7617 28.02 4.5234 14.902 10.414 29.684 16.746 43.902 17.789 40.008 43.668 71.148 77.574 98.395 11.363 9.1328 23.113 17.789 35.992 24.691 8.6562 4.6367 17.609 8.1484 26.742 11.66-24.629-68.445-35.398-146.53-36.438-219.07 3.7461 4.9102 6.3633 11.957 9.3086 17.492 4.2852 8 9.1328 15.703 14.07 23.289 15.406 23.734 33.164 46.82 53.035 66.957 11.094 11.242 23.082 21.594 34.891 32.062-15.973 7.168-40.93 18.77-50.895 33.672 9.1328-2.082 18.055-4.8164 27.277-6.5742 16-3.0039 32.332-4.8477 48.156-8.625 10.113 5.6797 19.84 12.434 29.891 18.324-0.68359 0.027343-1.3672 0.089843-2.0508 0.17578-23.945 2.4688-49.285 4.582-65.645 24.66 5.5312-3.0938 11.062-6.2148 16.863-8.7734 41.793-18.473 53.152-17.402 94.797-1.1602-4.1641-3.4531-9.0117-5.7734-13.832-8.1797-15.555-7.8242-26.352-14.488-33.996-30.668 13.027-0.089844 25.965-0.12109 38.965-1.2188 8.9805 9.25 17.309 19.691 25.402 29.715 11.719 14.516 23.555 29.18 33.969 44.707 5.2617 7.8203 9.9609 16.09 14.812 24.152-2.7383 7.9414-6.0391 15.734-8.8359 23.648-4.1328 11.957-8.0312 24.031-11.629 36.168-6.9609 22.875-12.641 46.074-19.512 68.98-3.0352 10.113-5.7734 20.434-9.9961 30.129-3.6875 8.4492-7.9727 16.121-14.098 23.023-5.5039 6.2148-12.195 11.777-18.293 17.43-30.281 28.02-131.03 113.75-168.62 115.5zm140.48-27.035-0.50391-0.625c-0.35547-5.6523 0.17969-11.512 0.29688-17.195 0.20703-11.449-0.23828-23.438 1.4883-34.77 15.527-10.59 28.672-25.074 43.129-37.094 1.1914 0.98047 1.8164 1.6055 2.4688 3.0039 0.23828 5.5938-2.1992 11.246-4.1055 16.391-10.23 27.723-24.805 46.492-42.234 69.691z"/>
 </g>
 <path d="m912.89 544.45c-5.2656 10.293-6.4844 23.707-2.918 34.711 0.74609 2.3203 1.6367 4.582 2.5312 6.8438h0.59375c2.2617-8.0039 4.7891-33.789 0.32813-40.988-0.14844-0.23828-0.35938-0.38672-0.53516-0.56641z"/>
 <path d="m320.56 620.33c3.5977-7.8516 8.2383-15.02 14.246-21.238-5.5-14.426-12.641-29.18-27.602-35.93-4.6992-2.1133-8.8359-2.5312-13.891-2.1133-4.1367 1.9648-6.0078 3.9844-7.4648 8.3867-2.4414 7.3203-1.875 15.945-1.8477 23.59 1.6367-5.9492 3.332-20.703 8.8047-23.914 2.1133-1.25 4.582-0.92188 6.7852-0.12109 10.438 3.7188 23.051 17.641 27.512 27.426 0.23828 0.50391 0.44531 1.0117 0.65625 1.5156-0.12109 0.17969-0.23828 0.35938-0.35937 0.53516-5.293 7.4062-16.566 14.695-14.605 25.016 1.7266 9.1328 17.52 22.547 24.332 29.121 5.832 5.5938 11.48 11.332 16.984 17.223-4.5781-12.73-12.879-23.41-21.625-33.523-4.3398-5.0547-9.0117-9.9648-11.984-16z"/>
 <path d="m604.8 678.9c1.8164 0 3.6914-0.44922 5.4727-0.80469 2.0234-0.71484 3.4219-1.2773 5.0273-2.7383 0.21094-0.83203 0.59766-1.3086 0.089844-2.082-1.1289-1.7227-4.2227-2.8555-6.2148-3.0625-1.5469-0.14844-3.2734-0.03125-4.8516 0.03125-2.1992 0.74219-4.8164 1.3086-5.918 3.5977-0.44531 0.89453-0.14844 1.2188 0.058594 2.1406 1.668 1.8164 3.8672 2.918 6.3672 2.9453z"/>
 <path d="m612 766.95c-6.4258-1.3398-26.68-1.3672-33.789-0.92187-1.668 1.1289-2.5898 1.6953-2.8867 3.8086-0.17578 1.1875 0.26953 2.2891 1.043 3.1836 3.6562 4.25 12.434 5.7109 17.875 5.7695 5.4453 0.089844 10.59-1.2188 15.734-2.8555 2.082-0.98047 5.3242-2.6484 6.4844-4.7305 0.12109-0.20703 0.32812-1.1289 0.38672-1.3984-1.2188-1.8125-2.707-2.4688-4.8477-2.8828z"/>
 <path d="m664.5 722.42c-19.453 6.9883-41.613 13.859-62.434 14.812-14.902 0.65625-34.773-3.2422-49.586-6.2461-5.5039-1.1289-11.273-2.9141-16.863-3.3906-2.2031-0.17969-4.3438-0.17969-6.2188 1.0703-0.50391 1.3984-0.35547 1.6055 0.058594 3.0625 1.3711 1.7266 3.6602 1.9922 5.7422 2.3789 41.852 9.8789 74.449 14.727 116.18 0.15234 5.2031-1.8164 11.363-2.6211 16-5.5938 1.4297-0.89062 2.4414-1.7852 3.4219-3.125 0.17969-1.3672 0.29688-1.3359-0.50391-2.4375-2.0547-0.86328-3.6289-0.83203-5.8008-0.65625z"/>
 <path d="m571.3 686.7c4.0156 2.2891 8.0039 4.7578 12.227 6.6328-6.3945-8.8633-11.273-18.801-17.758-27.516 8.5664-17.52 13.176-36.406 6.7812-55.355-0.29688-0.89062-0.20703-0.625-0.71484-1.4883-4.7266 12.047-10.051 24.242-16.418 35.516-2.7656 4.8789-7.0781 9.2227-9.3398 14.277-0.68359 1.5781-0.86328 2.8555-0.20703 4.4648 2.9141 6.957 18.531 19.898 25.402 23.438z"/>
 <path d="m481.03 586.51c14.484-11.391 26.234-27.602 28.523-46.312 0.92187-7.4961-0.14844-15.23-2.2305-22.457 10.41 10.203 20.613 19.453 28.406 31.918-5.7383-18.027-13.801-38.074-31.738-47.238-10.172-5.2031-41.492-7.0781-52.797-5.2031-23.855 2.5273-47.086 8.625-62.789 28.109-3.6289 4.4922-7.793 10.262-7.8828 16.211 0.68359 1.457 0.59375 1.3672 2.1133 1.9336 2.4688-0.41797 4.5195-1.3984 6.5703-2.8281 7.2305 14.664 14.816 20.227 29.656 26.742-10.5-8.9219-18.918-19.246-23.734-32.273 9.4883-9.8164 19.691-15.883 32.211-21.117-5.1133 16.418-6.957 34.441 1.3398 50.148 0.89453 1.6641 1.8438 3.2734 2.9141 4.8203 1.043 1.5469 2.1719 3.0625 3.3633 4.5195 1.1875 1.457 2.4688 2.8242 3.7773 4.1641 1.3359 1.3398 2.707 2.5898 4.1641 3.7773 2.7656 2.2891 5.7383 4.375 8.0898 7.1094-3.957 4.0156-38.371 2.1133-39.41 3.5703l2.1719 0.5625c28.82 4.6406 77.098 1.1602 105.71-5.8281-12.91-1.1016-25.492-1.043-38.43-0.29688zm-3.5703-80.309c0.058593-0.23828 0.089843-0.50781 0.12109-0.74609 7.168 1.7539 16.535 3.4492 20.789 9.9961 4.3125 6.6016 7.0508 17.934 5.2656 25.641-0.89453 3.8359-2.707 5.8594-6.0078 7.8203-2.293 0.68359-4.6719 1.3711-7.082 1.0117-5.9766-0.89062-11.422-5.3516-14.691-10.262-8.418-12.551-0.77344-21.09 1.6367-33.492zm-10.262 81.828c-4.6406-1.2227-8.8359-3.3633-12.852-5.9219-12.996-8.1797-24.328-20.195-27.867-35.484 6.6328-0.32812 13.234-1.8164 19.867-2.3516 2.0547-0.085938 2.8555 2.3516 3.75 3.8672 3.5391 6.0977 8.2383 10.738 15.02 13.238 9.9336 3.6562 21.832 2.4102 31.32-1.875-5.0859 9.7266-11.422 16.332-19.809 23.379-2.9766 2.293-5.9492 3.75-9.3984 5.1484z"/>
 <path d="m781.21 576.25c-4.6406 1.9062-9.3125 3.9883-14.188 5.2656-10.738 2.707-21.508 3.6289-32.484 1.5781 12.523-2.7969 25.672-11.961 32.602-22.785 6.5156-10.176 9.3086-24.066 6.6328-35.902-0.86328-3.8086-2.3516-7.3477-3.8672-10.945 6.6641 4.1914 13.238 7.9688 15.258 16.211 2.8867 11.688-4.043 27.602-10.023 37.328 11.422-7.9102 26.535-24.598 35.785-35.426-18.441-21.238-45.836-38.312-74.48-40.336-4.1367-0.29688-8.2695-0.32422-12.406-0.35547-15.762 0.86328-32.422 7.9727-43.098 19.871-8.5391 9.5156-14.547 22.516-16.242 35.188 9.3711-11.781 11.453-19.215 23.797-30.102-4.582 16.863-4.7305 35.484 4.1953 50.953 3.8359 6.6602 8.7734 12.223 15.227 16.418-10.438 0.80469-20.762 1.7852-31.141 3.0938 14.516 3.6875 61.066 6.6016 75.816 3.9258 6.7539-1.25 13.238-4.1055 19.129-7.5859 3.2695-1.9336 6.4531-4.0156 9.457-6.3633zm-60.531 7.2891c-0.29688-0.12109-0.59375-0.26953-0.89453-0.38672-13.383-5.9219-21.059-16.895-26.352-30.223-1.1914-3.5703-1.9023-7.3164-2.707-11.004 6.6641-0.92188 12.789-3.4492 19.066-5.7422 0.41797 8.1523 1.2188 15.734 7.1094 22.012 3.332 3.5391 7.7617 6.0078 12.699 5.918 6.0703-0.11719 11.809-3.8359 15.824-8.207 3.1523-3.4531 7.9727-12.73 7.082-17.402-0.56641-3.0039-9.3711 0.86328-14.664-1.9609-3.1562-1.6953-5.5352-5.0898-6.5469-8.4492-0.11719-0.41797-0.23828-0.83203-0.29688-1.25-0.089844-0.41406-0.14844-0.86328-0.17969-1.2773-0.027344-0.41797-0.058594-0.86328-0.027344-1.2812 0-0.41406 0.027344-0.86328 0.089844-1.2773 0.058593-0.41797 0.11719-0.86328 0.23828-1.2812 0.085938-0.41406 0.20703-0.83203 0.35547-1.2461 0.14844-0.41797 0.29688-0.80469 0.47656-1.1914 0.17969-0.38672 0.38672-0.77344 0.59375-1.1289 2.6484-4.4648 6.4844-6.5469 11.395-7.6758 5.5-0.26562 10.109 0.47656 14.574 3.9258 5.0273 3.8672 7.2852 9.668 7.9414 15.797 1.3672 12.758-2.6172 25.133-10.621 35.066-9.4883 11.781-20.285 16.66-35.156 18.266z"/>
</svg>
