<?xml version="1.0" encoding="UTF-8"?>
<svg width="1587" height="1587" version="1.0" viewBox="0 0 1190.2 1190.2" xmlns="http://www.w3.org/2000/svg" zoomAndPan="magnify">
 <defs>
  <clipPath id="a">
   <path d="m0 0h1189.5v1189.5h-1189.5z"/>
  </clipPath>
  <clipPath id="b">
   <path d="m0 0h1189.5v1189.5h-1189.5z"/>
  </clipPath>
 </defs>
 <g clip-path="url(#a)" fill="#fff">
  <path d="m0 0h1189.5v1189.5h-1189.5z"/>
  <path d="m0 0h1189.5v1189.5h-1189.5z"/>
 </g>
 <path d="m594.72 1187.2c-79.941 0-157.54-15.672-230.62-46.586-70.555-29.84-133.91-72.551-188.29-126.93-54.383-54.383-97.09-117.73-126.93-188.29-30.914-73.086-46.586-150.69-46.586-230.63 0-79.945 15.672-157.54 46.586-230.62 29.844-70.555 72.551-133.91 126.93-188.29 54.387-54.383 117.74-97.098 188.29-126.94 73.086-30.91 150.68-46.582 230.62-46.582 79.945 0 157.55 15.672 230.63 46.582 70.555 29.844 133.9 72.559 188.28 126.94 54.395 54.383 97.098 117.73 126.94 188.29 30.91 73.082 46.582 150.68 46.582 230.62 0 79.941-15.672 157.54-46.582 230.63-29.844 70.555-72.547 133.91-126.94 188.29-54.383 54.383-117.73 97.094-188.28 126.93-73.086 30.914-150.69 46.586-230.63 46.586" fill="#fff"/>
 <g clip-path="url(#b)">
  <path d="m594.72 4.6523c-79.637 0-156.93 15.613-229.72 46.402-70.281 29.727-133.39 72.266-187.56 126.44-54.172 54.172-96.715 117.28-126.44 187.55-30.789 72.797-46.402 150.09-46.402 229.73 0 79.637 15.613 156.93 46.402 229.73 29.727 70.277 72.27 133.38 126.44 187.55 54.176 54.176 117.28 96.715 187.56 126.44 72.797 30.797 150.09 46.406 229.72 46.406 79.641 0 156.93-15.609 229.73-46.406 70.277-29.723 133.38-72.262 187.55-126.44 54.176-54.176 96.715-117.28 126.44-187.55 30.801-72.805 46.41-150.09 46.41-229.73 0-79.641-15.609-156.93-46.41-229.73-29.727-70.277-72.266-133.38-126.44-187.55-54.172-54.176-117.28-96.715-187.55-126.44-72.797-30.789-150.09-46.402-229.73-46.402zm0 1184.9c-80.258 0-158.15-15.738-231.52-46.773-70.832-29.957-134.43-72.832-189.02-127.43-54.598-54.594-97.469-118.19-127.43-189.02-31.031-73.379-46.77-151.27-46.77-231.53 0-80.254 15.738-158.15 46.77-231.53 29.961-70.824 72.832-134.43 127.43-189.02 54.594-54.598 118.19-97.465 189.02-127.43 73.371-31.031 151.27-46.77 231.52-46.77s158.16 15.738 231.53 46.77c70.824 29.969 134.43 72.836 189.02 127.43 54.594 54.594 97.477 118.2 127.43 189.02 31.031 73.379 46.77 151.28 46.77 231.53 0 80.258-15.738 158.15-46.77 231.53-29.957 70.828-72.84 134.43-127.43 189.02-54.59 54.598-118.2 97.473-189.02 127.43-73.379 31.035-151.27 46.773-231.53 46.773"/>
 </g>
 <path d="m1113.3 594.78c0 286.4-232.18 518.57-518.57 518.57-286.4 0-518.57-232.17-518.57-518.57 0-286.39 232.17-518.57 518.57-518.57 286.39 0 518.57 232.18 518.57 518.57" fill="#fcee21"/>
 <path d="m594.72 78.516c-284.67 0-516.26 231.59-516.26 516.26 0 284.67 231.59 516.26 516.26 516.26 284.67 0 516.26-231.59 516.26-516.26 0-284.67-231.59-516.26-516.26-516.26zm0 1037.1c-70.316 0-138.53-13.773-202.75-40.934-62.027-26.234-117.73-63.793-165.57-111.62-47.836-47.836-85.395-103.54-111.63-165.57-27.16-64.219-40.934-132.43-40.934-202.75s13.773-138.53 40.934-202.75c26.234-62.027 63.793-117.73 111.63-165.57 47.832-47.836 103.54-85.398 165.57-111.63 64.219-27.16 132.43-40.934 202.75-40.934s138.53 13.773 202.75 40.934c62.027 26.234 117.73 63.797 165.57 111.63 47.828 47.836 85.391 103.54 111.62 165.57 27.16 64.219 40.934 132.43 40.934 202.75s-13.773 138.53-40.934 202.75c-26.234 62.027-63.797 117.73-111.62 165.57-47.844 47.832-103.55 85.391-165.57 111.62-64.219 27.16-132.43 40.934-202.75 40.934"/>
 <path d="m924.58 714.45c-0.046875 34.68-5.4062 69.184-16.121 102.18-10.285 31.656-25.465 61.652-44.727 88.793-19.078 26.887-42.312 50.996-68.508 71.023-26.352 20.148-55.746 36.414-86.926 47.809-32.195 11.77-66.152 18.48-100.42 19.805-34.832 1.3555-69.762-2.707-103.31-12.215-32.129-9.1055-62.742-23.137-90.664-41.453-27.68-18.145-52.539-40.5-73.645-65.984-21.047-25.426-38.344-54.176-50.84-84.734-12.953-31.68-20.988-65.359-23.586-99.488-0.65234-8.5586-0.96484-17.145-0.98047-25.73-0.003907-5.3477-8.3164-5.3555-8.3086 0 0.050781 35.367 5.4922 70.738 16.422 104.39 10.547 32.461 26.027 63.324 45.82 91.133 19.742 27.75 43.531 52.375 70.535 73.113 27.027 20.754 57.195 37.285 89.184 49.023 33 12.121 67.93 18.906 103.05 20.262 35.52 1.3711 71.316-2.8203 105.52-12.512 32.91-9.3281 64.43-23.734 93.012-42.531 28.238-18.566 53.727-41.332 75.242-67.383 21.719-26.309 39.367-55.699 52.355-87.242 13.391-32.484 21.477-67.035 24.188-102.06 0.67969-8.7148 0.99609-17.453 1.0195-26.191 0.003907-5.3477-8.3086-5.3555-8.3164 0"/>
 <path d="m439.8 479.1c0 129.98-27.988 235.35-62.516 235.35-34.523 0-62.512-105.37-62.512-235.35 0-129.98 27.988-235.35 62.512-235.35 34.527 0 62.516 105.37 62.516 235.35"/>
 <path d="m870.61 479.1c0 129.98-27.988 235.35-62.512 235.35-34.535 0-62.52-105.37-62.52-235.35 0-129.98 27.984-235.35 62.52-235.35 34.523 0 62.512 105.37 62.512 235.35"/>
</svg>
