<?xml version="1.0" encoding="UTF-8"?>
<svg width="1587" height="1587" version="1.0" viewBox="0 0 1190.2 1190.2" xmlns="http://www.w3.org/2000/svg" zoomAndPan="magnify">
 <defs>
  <clipPath id="b">
   <path d="m0 0h1189.5v1189.5h-1189.5z"/>
  </clipPath>
  <clipPath id="a">
   <path d="m405.55 1h501.45v1188h-501.45z"/>
  </clipPath>
 </defs>
 <g clip-path="url(#b)" fill="#fff">
  <path d="m0 0h1189.5v1189.5h-1189.5z"/>
  <path d="m0 0h1189.5v1189.5h-1189.5z"/>
 </g>
 <path d="m469.75 351.11v233.68c13.555 6.9062 27.453 13.047 41.691 18.41 23.324 8.7969 47.754 15.152 72.633 17.344 20.598 1.8086 41.594 0.54297 61.648-4.6094 9.2344-2.3867 18.199-5.543 26.891-9.4688 8.6914-3.9219 16.984-8.5586 24.879-13.906 15.969-10.777 30.027-24.133 42.281-38.957 13.105-15.844 24.113-33.324 33.52-51.586 5.5859-10.727 10.211-21.852 13.875-33.375s6.3164-23.277 7.9492-35.258c1.543-11.738 2.0625-23.523 1.5664-35.355-0.5-11.832-2.0117-23.531-4.5391-35.102-2.5859-11.773-6.125-23.258-10.613-34.449-4.4922-11.188-9.8672-21.934-16.137-32.238-6.6328-10.859-14.094-21.121-22.379-30.785-8.2852-9.6641-17.289-18.605-27.012-26.82-10.473-8.832-21.562-16.805-33.27-23.926-11.707-7.1172-23.887-13.297-36.551-18.535-12.188-5.1133-24.699-9.2422-37.535-12.395-12.84-3.1484-25.844-5.2812-39.016-6.3906-12.297-1.0234-24.594-1.0469-36.895-0.066407-12.305 0.98047-24.441 2.9492-36.422 5.9062-9.0391 2.25-17.895 5.0742-26.566 8.4688v131.94c-1.043 2.1406-1.832 4.3711-2.3672 6.6875-0.53516 2.3203-0.80078 4.668-0.80078 7.0469 0 2.3828 0.26562 4.7305 0.80078 7.0508 0.53516 2.3164 1.3242 4.5469 2.3672 6.6875z" fill="#fff"/>
 <path d="m473.36 902.77v125.26c4.7461-3.0977 9.4023-6.3281 13.969-9.6953 1.5234-1.125 3.0391-2.2656 4.5469-3.4219 0.054688-0.042969 0.28125-0.21875 0.32422-0.25 0.10547-0.085938 0.21875-0.16797 0.32031-0.25391 0.375-0.28906 0.75-0.58203 1.1211-0.875 0.78516-0.60937 1.5625-1.2305 2.3359-1.8477 2.9883-2.3945 5.9258-4.8438 8.8125-7.3516 11.375-9.875 21.93-20.562 31.664-32.059 4.9922-5.9023 9.1133-11.168 13.566-17.344 4.4102-6.1133 8.5859-12.391 12.52-18.832 3.9375-6.4375 7.6211-13.023 11.059-19.758 1.707-3.3516 3.3516-6.7305 4.9336-10.145 0.79297-1.707 1.5703-3.4219 2.3281-5.1445 0.35938-0.82031 0.71484-1.6445 1.0664-2.4648 0.16797-0.38672 0.33594-0.77734 0.5-1.168 0.035157-0.078125 0.058594-0.13281 0.078125-0.17578 0.019532-0.046875 0.042969-0.10156 0.070313-0.17969l0.33203-0.77734c5.5156-13.258 10.059-26.84 13.621-40.746-11.977 8.793-24.648 16.438-38.008 22.938-12.094 5.8633-24.57 10.738-37.43 14.637-12.863 3.8945-25.949 6.7578-39.262 8.5938-2.8125 0.39062-5.6406 0.73828-8.4688 1.0586z" fill="#fff"/>
 <path d="m473.29 710.43c0.050782 0.23828 0.074219 0.47656 0.074219 0.71875v81.246c0 0.58203 0.003906 1.1602 0.003906 1.7422 8.0234-1.707 15.91-3.8984 23.664-6.5781 2.2812-0.78906 4.5469-1.6211 6.7969-2.5 1.1406-0.44531 2.2695-0.89844 3.3945-1.3633 0.25-0.10156 0.49609-0.20312 0.74219-0.30859 0.003906 0 0.007812-0.003906 0.011718-0.007813-0.027344 0.007813-0.023437 0.007813 0.007813-0.007812 0.003906 0.007812 0.007812 0 0.019531-0.003906h0.003906c0.007813 0 0.015625-0.003906 0.023438-0.007813 0-0.003906 0-0.003906 0.003906-0.003906 0.011719-0.003906 0.019531-0.007813 0.03125-0.011719 0.011719 0 0.023438-0.003906 0.03125-0.015625 0.03125-0.011719 0.058594-0.023437 0.085938-0.03125 0.039062-0.019531 0.082031-0.035156 0.12891-0.054687 0.023437-0.007813 0.046875-0.015625 0.066406-0.027344 0.53516-0.23047 1.0703-0.45703 1.6016-0.69141 4.3359-1.8945 8.5859-3.957 12.758-6.1914 4.1914-2.2461 8.2812-4.668 12.273-7.2656 1.957-1.2773 3.8867-2.5977 5.793-3.9609 0.94922-0.68359 1.8906-1.3711 2.8281-2.0703 0.41406-0.3125 0.82031-0.625 1.2344-0.94141 0.039063-0.03125 0.078125-0.058594 0.10938-0.085937 0.066406-0.0625 0.13672-0.12109 0.21094-0.17578-0.003906 0.011718-0.015625 0.023437-0.027344 0.03125 0.035156-0.027344 0.074219-0.054688 0.10938-0.082032 0.22656-0.17969 0.45703-0.36328 0.6875-0.53906 7.4062-5.8281 14.184-12.312 20.332-19.449 0.22266-0.26172 0.4375-0.53125 0.66016-0.79297-1.0859-0.89844-2.1641-1.7969-3.2656-2.6758-0.58594-0.46875-1.1797-0.93359-1.7695-1.3945-0.058594-0.050782-0.23438-0.1875-0.38281-0.30469-0.019532-0.011718-0.039063-0.03125-0.058594-0.046875-0.35547-0.27344-0.72266-0.54297-1.082-0.81641-2.4922-1.8945-5.0312-3.7305-7.6133-5.5039-5.207-3.5742-10.574-6.8945-16.102-9.9609-5.5117-3.0586-11.164-5.8555-16.949-8.3867-0.68359-0.29687-1.3672-0.59375-2.0547-0.88672-0.003907 0-0.003907 0-0.007813-0.003906-0.015625-0.003907-0.03125-0.007813-0.054687-0.019532-0.15234-0.066406-0.3125-0.125-0.46484-0.19531l-1.2266-0.50391c-1.4453-0.58594-2.8984-1.1641-4.3555-1.7188-2.9844-1.1367-5.9922-2.2031-9.0273-3.1953-6.125-2.0078-12.336-3.7148-18.629-5.1211-2.7031 3.2227-5.6797 6.168-8.9297 8.8359-0.55469 0.45312-1.1172 0.89453-1.6875 1.3281z" fill="#fff"/>
 <path d="m490.02 181.4c10.457-2.875 21.066-4.9883 31.828-6.3398l2.3203-0.28906-0.20312-2.3281c-0.16406-1.8633-0.35156-3.5742-0.57422-5.2266-0.16406-1.1797-0.35156-2.3828-0.57031-3.6875-0.089843-0.52734-0.18359-1.0469-0.28125-1.5586v-0.11328l-0.066406-0.22656c-0.003906-0.023437-0.050781-0.26172-0.074218-0.35938-0.070313-0.35547-0.14453-0.71094-0.22266-1.0664-1.0586-4.9805-2.4805-9.8555-4.2656-14.621-0.88672-2.375-1.8672-4.7227-2.9141-6.9766l-0.40234-0.84375c-0.039062-0.085938-0.10156-0.21484-0.16797-0.34766-0.29297-0.60547-0.59375-1.2031-0.90234-1.7969-0.58984-1.1484-1.2031-2.2812-1.8242-3.3789-2.5117-4.4336-5.3633-8.6367-8.5625-12.605-0.28516-0.35156-0.56641-0.69922-0.85547-1.0391l-0.16797-0.51562-0.27734-0.14062-0.39063-0.78516h-0.40234c-0.82422-0.93359-1.6992-1.8867-2.6016-2.8281-1.8711-1.9375-3.8008-3.7695-5.7461-5.4492-2.0625-1.7734-4.2305-3.4688-6.4531-5.043l-0.20313-0.14453c-0.18359-0.125-0.36719-0.25781-0.55469-0.38281l-0.39844-0.27344c-0.57031-0.38281-1.1406-0.75391-1.7227-1.1211-1.125-0.71875-2.3086-1.4336-3.5078-2.1172-2.3203-1.3242-4.7344-2.5625-7.1836-3.6719-0.65234-0.29688-1.3125-0.58594-1.9766-0.86328l-3.3711-1.418v48.133l0.97656 0.72656c1.2031 0.89844 2.3594 1.8555 3.4336 2.8398 1.8711 1.7461 3.6055 3.625 5.1953 5.6367 3.0742 3.8711 5.4805 8.125 7.2148 12.754 1.7461 4.5898 2.6758 9.3359 2.7969 14.242 0.007813 0.28516 0.007813 0.58594 0.007813 0.88672v3.1875z" fill="#262626"/>
 <path d="m801.58 433.13c4.2617-0.52734 9.3008-1.1719 14.379-1.9492 2.9727-0.45703 5.6992-0.91406 8.332-1.4023 0.34766-0.066406 1.8008-0.33984 1.8008-0.33984l0.039062-0.011719c0.63281-0.125 1.2695-0.25391 1.9023-0.37891 1.4805-0.30859 2.8555-0.60938 4.1992-0.91797 5.6094-1.2812 11.129-2.8672 16.559-4.7656 2.7305-0.96094 5.3516-1.9844 7.7969-3.0391 0.59375-0.25391 1.1875-0.51953 1.7773-0.78906l1.3984-0.64453 0.25391-0.12109c1.2148-0.58203 2.4258-1.1953 3.6133-1.8281 4.8359-2.5508 9.4141-5.5 13.734-8.8438 0.54297-0.42578 1.082-0.85547 1.6172-1.293l0.84375-0.70313 0.35156-0.29687c1.0391-0.90234 2.0664-1.8398 3.0703-2.8047 1.9609-1.8867 3.8086-3.875 5.5508-5.9688 0.88672-1.0664 1.7461-2.168 2.5547-3.2695 0.33594-0.46094 0.66797-0.92578 0.99609-1.3906 0 0 0.38672-0.57422 0.42969-0.64062 0.18359-0.27734 0.375-0.57422 0.56641-0.87109 1.4258-2.2305 2.7031-4.5391 3.8398-6.9297 0.55859-1.1758 1.0781-2.3672 1.5508-3.543 0.22266-0.56641 0.44531-1.1289 0.65234-1.6953 0.09375-0.25781 0.37109-1.0352 0.37109-1.0352l0.097656-0.30859c0.79297-2.3945 1.4492-4.8281 1.9648-7.2969 0.52734-2.5195 0.91406-5.0625 1.1641-7.625 0.050781-0.52734 0.089844-1.0586 0.13281-1.5938l0.039062-0.67188c0.023438-0.34375 0.039063-0.71094 0.050782-1.0742 0.050781-1.3008 0.066406-2.6016 0.050781-3.8711-0.042969-2.5391-0.21094-5.0742-0.51172-7.5977-0.14453-1.2422-0.32812-2.4922-0.53516-3.7109-0.054688-0.31641-0.11328-0.63672-0.16797-0.95312l-0.097656-0.50781c-0.125-0.59375-0.25781-1.2188-0.39453-1.8398-1.1445-5.0195-2.8086-9.8594-4.9844-14.523l-0.14844-0.30859c-0.14062-0.29688-0.28516-0.58984-0.43359-0.88281-0.30859-0.60547-0.625-1.2109-0.94922-1.8125-0.61719-1.1328-1.2734-2.2656-1.9531-3.3672-1.4336-2.332-2.9922-4.5742-4.6758-6.7305-0.39453-0.50391-0.79297-1.0039-1.1992-1.4961-0.17969-0.21875-0.59766-0.72266-0.625-0.75391l-0.4375-0.50781c-0.87891-1.0039-1.7852-1.9805-2.7031-2.9336-1.8711-1.9258-3.832-3.75-5.8828-5.4805-2.0039-1.6875-4.1484-3.3203-6.3672-4.8555l-0.53906-0.36328c-0.26953-0.17969-0.52344-0.34375-0.77734-0.50781-0.59766-0.39062-1.2109-0.77734-1.8281-1.1562-1.1602-0.71094-2.3516-1.4023-3.5469-2.0586-2.332-1.2812-4.7695-2.4766-7.2461-3.5469-1.2344-0.53516-2.4766-1.0391-3.6875-1.4961-0.61328-0.23438-1.2383-0.46094-1.8672-0.6875l-0.41016-0.14062c-0.36719-0.125-0.73438-0.24609-1.1016-0.36328-5.1211-1.6484-10.352-2.8047-15.691-3.4688-1.2344-0.15625-2.5312-0.28516-3.8477-0.39453-0.20703-0.015625-0.68359-0.050781-0.68359-0.050781l-0.042969-0.007812-0.56641-0.03125c-0.64062-0.039063-1.2852-0.070313-1.9297-0.09375-1.1133-0.039063-2.2383-0.0625-3.3477-0.0625-1.4453 0-2.9062 0.03125-4.3516 0.10156-2.4766 0.11328-5.0117 0.33594-7.5273 0.65234-1.2812 0.16406-2.5625 0.35156-3.8047 0.5625-0.58984 0.10156-1.1797 0.20312-1.7695 0.3125l-0.70312 0.13672c-0.23438 0.050782-0.46875 0.097657-0.70312 0.14844-4.9766 1.0469-9.8516 2.4609-14.617 4.2422-2.3789 0.89062-4.7734 1.8867-7.1133 2.9609-0.24609 0.11719-0.77734 0.36719-0.80469 0.37891l-0.81641 0.26172-0.089844 0.17578c-0.40234 0.19922-0.80469 0.39453-1.2031 0.60156-1.1289 0.57422-2.2773 1.1797-3.4062 1.8047-1.4219 0.78906-2.9062 1.6562-4.418 2.5938l-1.9844 1.2266 1.1445 2.0273c4.9766 8.8164 9.3359 17.922 13.086 27.324 0.27344 0.67969 0.53906 1.3516 0.80078 2.0312l1.1641 2.9922 2.5625-1.9375c1.2227-0.92969 2.4961-1.7812 3.8203-2.5586 2.1953-1.2734 4.4766-2.3555 6.8516-3.2422 4.6289-1.7109 9.4141-2.6719 14.348-2.875 0.69531-0.03125 1.4023-0.042968 2.0977-0.042968 6.8867-0.023438 13.461 1.3984 19.723 4.2617 2.3359 1.0859 4.5547 2.375 6.6602 3.8633 1.9453 1.3516 3.7305 2.8867 5.3516 4.6133 1.7852 1.8516 3.3242 3.8828 4.6289 6.1016 1.2461 2.1133 2.1719 4.3633 2.7773 6.7422 0.63281 2.582 0.80078 5.1914 0.5 7.832-0.39062 2.9766-1.3203 5.7734-2.7852 8.3945-1.5078 2.7305-3.3398 5.2305-5.4922 7.4922-3.8047 4.0117-8.1016 7.4102-12.891 10.184-4.7812 2.7539-9.7891 5.0117-15.016 6.7773-5.2109 1.7617-10.496 3.2578-15.855 4.4883-0.65234 0.15625-1.3047 0.30859-1.957 0.45703l-2.4219 0.5625 0.10156 2.0273c0.035156 0.71094 0.066406 1.418 0.097656 2.1289 0.42969 10.734 0.03125 21.441-1.1953 32.117l-0.35156 3.0664z" fill="#262626"/>
 <path d="m469.75 148.34v37.129c4.543-1.7266 9.1406-3.2969 13.793-4.7188 0.10156-3.0234-0.12109-6.0234-0.67188-9-0.72266-3.5234-1.8516-6.9102-3.3828-10.164-1.7109-3.4805-3.8125-6.7109-6.3008-9.6836-1.0859-1.25-2.2305-2.4375-3.4375-3.5625z" fill="#ffc1c2"/>
 <path d="m790.16 334.88c6.3828 17.93 10.332 36.383 11.848 55.355 2.9844-0.70312 5.957-1.4453 8.9141-2.2695 3.8906-1.082 7.75-2.3008 11.523-3.7539 1.9961-0.76953 3.957-1.6094 5.8906-2.5234 3.7266-1.7891 7.25-3.9102 10.574-6.3672 0.88281-0.66016 1.7422-1.3477 2.5859-2.0547 2.8477-2.4141 5.3594-5.1406 7.5352-8.1758 1.2461-1.8633 2.2617-3.8477 3.043-5.9531 0.50391-1.5508 0.82812-3.1367 0.97656-4.7578 0.0625-1.5312-0.035157-3.0469-0.29688-4.5547-0.38281-1.7734-0.95703-3.4805-1.7227-5.1211-1.0625-2.1172-2.3555-4.0859-3.875-5.9023-1.9531-2.2344-4.1484-4.1992-6.5781-5.8984-2.9805-1.9766-6.1562-3.5586-9.5273-4.75-3.7148-1.2344-7.5234-1.9961-11.43-2.2852-3.8711-0.22266-7.7188 0.019531-11.535 0.72266-3.5234 0.71484-6.918 1.8359-10.18 3.3555-2.7656 1.3594-5.3477 3-7.7461 4.9336z" fill="#ffc1c2"/>
 <path d="m538.55 404.54c10.902 1.2617 21.078 6.4453 21.078 6.4453s10.234 5.0664 17.754 13.051c0.42578 0.45312 0.79297 0.94531 1.1094 1.4766s0.57031 1.0938 0.76562 1.6797c0.19531 0.58594 0.32422 1.1914 0.38672 1.8047 0.0625 0.61719 0.054687 1.2305-0.015626 1.8438-0.070312 0.61719-0.21094 1.2148-0.41016 1.8008-0.20312 0.58594-0.46875 1.1406-0.79297 1.668-0.32422 0.52734-0.69922 1.0117-1.1289 1.457-0.42969 0.44531-0.90625 0.83984-1.4219 1.1797-6.7617 4.4727-17.77 10.035-30.168 9.4844-1.2148-0.054687-2.3633-0.35547-3.4492-0.89844-1.0859-0.54297-2.0117-1.2852-2.7812-2.2266-7.8398-9.6133-9.9492-21.762-10.391-29.852-0.03125-0.61719 0-1.2305 0.10156-1.8398 0.10156-0.61328 0.26562-1.2031 0.49609-1.7812 0.23047-0.57422 0.51953-1.1172 0.86719-1.6289 0.34766-0.51172 0.74609-0.97656 1.1992-1.4023 0.44922-0.42578 0.94141-0.79688 1.4727-1.1133s1.0898-0.57422 1.6758-0.76953c0.58984-0.19531 1.1914-0.32422 1.8086-0.38672 0.61328-0.066406 1.2305-0.0625 1.8438 0.007812z" fill="#262626"/>
 <path d="m674.32 496.18c0.94922 0.47266 1.8789 0.97656 2.793 1.5039 0.91406 0.52734 1.8086 1.0781 2.6836 1.6562 0.87109 0.57422 1.7188 1.1719 2.543 1.7891 0.82422 0.61719 1.6211 1.2539 2.3867 1.9062 0.76953 0.65234 1.5039 1.3242 2.2031 2.0078 0.70312 0.67969 1.3711 1.375 2 2.082s1.2227 1.4219 1.7734 2.1445c0.55469 0.72266 1.0664 1.4531 1.5352 2.1836 0.47266 0.73438 0.89844 1.4648 1.2812 2.2031 0.38281 0.73438 0.71875 1.4648 1.0117 2.1953 0.28906 0.73047 0.53516 1.4531 0.73438 2.1719 0.19531 0.71875 0.34375 1.4297 0.44922 2.1289 0.10156 0.69922 0.15234 1.3867 0.16016 2.0586 0.003906 0.67578-0.039062 1.3359-0.13281 1.9766-0.089844 0.64062-0.23047 1.2656-0.41797 1.8711-0.1875 0.60156-0.42188 1.1875-0.70312 1.7461-0.28125 0.55859-0.60938 1.0977-0.98438 1.6055-0.37109 0.51172-0.78906 0.99609-1.25 1.4531s-0.96484 0.88672-1.5078 1.2852c-0.54687 0.39844-1.1289 0.76562-1.7539 1.1016-0.62109 0.33594-1.2812 0.63672-1.9727 0.90625-0.69531 0.26953-1.4258 0.50781-2.1836 0.71094-0.76172 0.19922-1.5508 0.36719-2.3672 0.5-0.82031 0.12891-1.6641 0.22656-2.5312 0.28516-0.87109 0.0625-1.7578 0.085937-2.668 0.074218-0.91016-0.011718-1.8398-0.058593-2.7812-0.14453-0.94531-0.082031-1.9023-0.20312-2.8672-0.35938-0.96875-0.15234-1.9453-0.34375-2.9258-0.56641-0.98438-0.22656-1.9688-0.48438-2.957-0.77734-0.98828-0.29297-1.9727-0.61719-2.957-0.97266-0.98047-0.35938-1.957-0.74609-2.9297-1.1641-0.96875-0.41797-1.9258-0.86328-2.875-1.3398-0.94531-0.47656-1.875-0.97656-2.7891-1.5039-0.91406-0.52734-1.8086-1.082-2.6836-1.6562-0.87109-0.57422-1.7227-1.1719-2.5469-1.7891s-1.6172-1.2539-2.3828-1.9062c-0.76953-0.65625-1.5039-1.3242-2.2031-2.0078-0.70312-0.68359-1.3711-1.375-2-2.082-0.63281-0.70703-1.2227-1.4219-1.7773-2.1445-0.55078-0.72266-1.0625-1.4531-1.5312-2.1836-0.47266-0.73438-0.89844-1.4648-1.2812-2.2031-0.38281-0.73438-0.71875-1.4648-1.0117-2.1953-0.28906-0.73047-0.53516-1.4531-0.73438-2.1719-0.19531-0.71875-0.34766-1.4297-0.44922-2.1289-0.10156-0.69922-0.15234-1.3867-0.16016-2.0586-0.003906-0.67578 0.039062-1.3359 0.12891-1.9766 0.09375-0.64062 0.23438-1.2656 0.42188-1.8711 0.1875-0.60156 0.42188-1.1875 0.70312-1.7461 0.28125-0.5625 0.60938-1.0977 0.98438-1.6094 0.37109-0.50781 0.78906-0.99219 1.25-1.4492 0.46094-0.45703 0.96484-0.88672 1.5078-1.2852 0.54688-0.39844 1.1289-0.76562 1.75-1.1016 0.625-0.33594 1.2812-0.63672 1.9766-0.90625 0.69531-0.27344 1.4219-0.50781 2.1836-0.71094 0.76172-0.19922 1.5508-0.36719 2.3672-0.5 0.82031-0.12891 1.6641-0.22656 2.5312-0.28516 0.86719-0.0625 1.7578-0.085938 2.668-0.074219s1.8398 0.058593 2.7812 0.14453c0.94531 0.082031 1.8984 0.20312 2.8672 0.35938 0.96875 0.15234 1.9453 0.34375 2.9258 0.56641 0.98438 0.22656 1.9688 0.48438 2.957 0.77734 0.98438 0.29297 1.9727 0.61719 2.957 0.97266 0.98047 0.35547 1.957 0.74609 2.9297 1.1641 0.96875 0.41797 1.9258 0.86328 2.8711 1.3398z" fill="#ffc1c2"/>
 <path d="m640.43 351.86s32.859-7.7305 69.168 42.113 32.137 79.371 5.7656 87.844c-26.371 8.4688-97.043 3.457-103.31-61.402-6.2656-64.859 28.379-68.555 28.379-68.555z" fill="#262626"/>
 <path d="m686.96 416.4c0 1.0312-0.050782 2.0586-0.15234 3.0859s-0.25 2.043-0.45312 3.0547c-0.19922 1.0117-0.44922 2.0117-0.75 2.9961-0.30078 0.98828-0.64844 1.957-1.043 2.9102-0.39453 0.94922-0.83203 1.8828-1.3203 2.7891-0.48438 0.91016-1.0156 1.793-1.5898 2.6484-0.57031 0.85938-1.1875 1.6875-1.8398 2.4805-0.65625 0.79688-1.3477 1.5625-2.0742 2.2891-0.73047 0.73047-1.4961 1.4219-2.293 2.0742-0.79688 0.65625-1.625 1.2695-2.4805 1.8398-0.85938 0.57422-1.7422 1.1016-2.6523 1.5898-0.91016 0.48438-1.8398 0.92578-2.793 1.3203-0.95313 0.39453-1.9219 0.74219-2.9102 1.0391-0.98828 0.30078-1.9883 0.55078-3 0.75-1.0117 0.20312-2.0312 0.35156-3.0547 0.45312-1.0273 0.10156-2.0586 0.15234-3.0898 0.15234s-2.0586-0.050782-3.0859-0.15234c-1.0273-0.10156-2.0469-0.25-3.0586-0.45312-1.0117-0.19922-2.0078-0.44922-2.9961-0.75-0.98828-0.29688-1.957-0.64453-2.9102-1.0391-0.95312-0.39453-1.8828-0.83594-2.793-1.3203-0.91016-0.48828-1.793-1.0156-2.6523-1.5898-0.85938-0.57031-1.6836-1.1836-2.4844-1.8398-0.79688-0.65234-1.5586-1.3438-2.2891-2.0742-0.73047-0.72656-1.4219-1.4922-2.0742-2.2891-0.65625-0.79297-1.2695-1.6211-1.8438-2.4805-0.57031-0.85547-1.1016-1.7383-1.5859-2.6484-0.48828-0.90625-0.92969-1.8398-1.3242-2.7891-0.39453-0.95312-0.74219-1.9219-1.0391-2.9102-0.30078-0.98438-0.55078-1.9844-0.75-2.9961-0.20312-1.0117-0.35547-2.0273-0.45703-3.0547-0.097656-1.0273-0.14844-2.0547-0.14844-3.0859s0.050782-2.0586 0.14844-3.082c0.10156-1.0273 0.25391-2.0469 0.45703-3.0547 0.19922-1.0117 0.44922-2.0117 0.75-2.9961 0.29688-0.98828 0.64453-1.957 1.0391-2.9102 0.39453-0.95312 0.83594-1.8828 1.3242-2.793 0.48438-0.90625 1.0156-1.7891 1.5859-2.6484 0.57422-0.85547 1.1875-1.6836 1.8438-2.4805 0.65234-0.79688 1.3438-1.5586 2.0742-2.2891 0.73047-0.72656 1.4922-1.418 2.2891-2.0742 0.80078-0.65234 1.625-1.2656 2.4844-1.8398 0.85938-0.57031 1.7422-1.1016 2.6523-1.5859 0.91016-0.48828 1.8398-0.92578 2.793-1.3203s1.9219-0.74219 2.9102-1.043c0.98828-0.29688 1.9844-0.54688 2.9961-0.75 1.0117-0.19922 2.0312-0.35156 3.0586-0.45312 1.0273-0.10156 2.0547-0.14844 3.0859-0.14844s2.0625 0.046874 3.0898 0.14844c1.0234 0.10156 2.043 0.25391 3.0547 0.45312 1.0117 0.20312 2.0117 0.45312 3 0.75 0.98828 0.30078 1.957 0.64844 2.9102 1.043 0.95312 0.39453 1.8828 0.83203 2.793 1.3203 0.91016 0.48438 1.793 1.0156 2.6523 1.5859 0.85547 0.57422 1.6836 1.1875 2.4805 1.8398 0.79688 0.65625 1.5625 1.3477 2.293 2.0742 0.72656 0.73047 1.418 1.4922 2.0742 2.2891 0.65234 0.79688 1.2695 1.625 1.8398 2.4805 0.57422 0.85938 1.1055 1.7422 1.5898 2.6484 0.48828 0.91016 0.92578 1.8398 1.3203 2.793 0.39453 0.95312 0.74219 1.9219 1.043 2.9102 0.30078 0.98438 0.55078 1.9844 0.75 2.9961 0.20312 1.0078 0.35156 2.0273 0.45312 3.0547 0.10156 1.0234 0.15234 2.0508 0.15234 3.082z" fill="#fff"/>
 <path d="m679.96 416.4c0 0.80469-0.039063 1.6016-0.11719 2.3984-0.078125 0.80078-0.19531 1.5898-0.35156 2.3789-0.15625 0.78516-0.35156 1.5625-0.58594 2.3281-0.23047 0.76562-0.5 1.5195-0.80859 2.2617-0.30469 0.74219-0.64844 1.4648-1.0273 2.1719-0.37891 0.70703-0.78906 1.3945-1.2344 2.0586-0.44531 0.66797-0.92188 1.3086-1.4336 1.9297-0.50781 0.62109-1.0469 1.2148-1.6133 1.7812-0.56641 0.56641-1.1602 1.1016-1.7812 1.6133-0.62109 0.50781-1.2617 0.98438-1.9297 1.4297s-1.3555 0.85547-2.0625 1.2344-1.4297 0.71875-2.1719 1.0273c-0.74219 0.30469-1.4961 0.57422-2.2656 0.80859-0.76562 0.23438-1.543 0.42578-2.3281 0.58203-0.78906 0.15625-1.582 0.27734-2.3789 0.35547-0.79688 0.078126-1.5977 0.11719-2.4023 0.11719-0.80078 0-1.6016-0.039062-2.3984-0.11719-0.80078-0.078124-1.5898-0.19922-2.3789-0.35547-0.78516-0.15625-1.5625-0.34766-2.332-0.58203-0.76562-0.23437-1.5195-0.50391-2.2617-0.80859-0.74219-0.30859-1.4648-0.64844-2.1719-1.0273s-1.3945-0.78906-2.0625-1.2344-1.3125-0.92188-1.9297-1.4297c-0.62109-0.51172-1.2148-1.0469-1.7812-1.6133-0.56641-0.56641-1.1055-1.1602-1.6133-1.7812-0.51172-0.62109-0.98828-1.2617-1.4336-1.9297-0.44531-0.66406-0.85938-1.3516-1.2344-2.0586-0.37891-0.70703-0.72266-1.4297-1.0273-2.1719-0.30859-0.74219-0.57812-1.4961-0.8125-2.2617-0.23047-0.76562-0.42578-1.543-0.58203-2.3281-0.15625-0.78906-0.27344-1.5781-0.35547-2.3789-0.078125-0.79688-0.11719-1.5938-0.11719-2.3984 0-0.80078 0.039063-1.6016 0.11719-2.3984 0.082031-0.79688 0.19922-1.5898 0.35547-2.375s0.35156-1.5625 0.58203-2.3281c0.23438-0.76953 0.50391-1.5234 0.8125-2.2617 0.30469-0.74219 0.64844-1.4648 1.0273-2.1719 0.375-0.70703 0.78906-1.3945 1.2344-2.0625 0.44531-0.66406 0.92188-1.3086 1.4336-1.9258 0.50781-0.62109 1.0469-1.2148 1.6133-1.7812s1.1602-1.1055 1.7812-1.6133c0.61719-0.50781 1.2617-0.98438 1.9297-1.4297 0.66797-0.44531 1.3555-0.85938 2.0625-1.2344 0.70703-0.37891 1.4297-0.72266 2.1719-1.0273 0.74219-0.30859 1.4961-0.57812 2.2617-0.80859 0.76953-0.23438 1.5469-0.42969 2.332-0.58594 0.78906-0.15625 1.5781-0.27344 2.3789-0.35156 0.79688-0.078125 1.5977-0.11719 2.3984-0.11719 0.80469 0 1.6055 0.039063 2.4023 0.11719s1.5898 0.19531 2.3789 0.35156c0.78516 0.15625 1.5625 0.35156 2.3281 0.58594 0.76953 0.23047 1.5234 0.5 2.2656 0.80859 0.74219 0.30469 1.4648 0.64844 2.1719 1.0273 0.70703 0.375 1.3945 0.78906 2.0625 1.2344 0.66797 0.44531 1.3086 0.92188 1.9297 1.4297 0.62109 0.50781 1.2148 1.0469 1.7812 1.6133 0.56641 0.56641 1.1055 1.1602 1.6133 1.7812 0.51172 0.61719 0.98828 1.2617 1.4336 1.9258 0.44531 0.66797 0.85547 1.3555 1.2344 2.0625 0.37891 0.70703 0.72266 1.4297 1.0273 2.1719 0.30859 0.73828 0.57812 1.4922 0.80859 2.2617 0.23438 0.76562 0.42969 1.543 0.58594 2.3281s0.27344 1.5781 0.35156 2.375 0.11719 1.5977 0.11719 2.3984z" fill="#262626"/>
 <path d="m664.42 404.82c0 0.56641-0.054688 1.1289-0.16797 1.6875-0.10938 0.55469-0.27344 1.0977-0.49219 1.6211-0.21484 0.52344-0.48437 1.0234-0.79687 1.4922-0.31641 0.47266-0.67578 0.91016-1.0781 1.3125-0.40234 0.39844-0.83594 0.75781-1.3086 1.0742-0.47266 0.31641-0.97266 0.58203-1.4961 0.79688-0.52734 0.21875-1.0664 0.38281-1.625 0.49219-0.55469 0.11328-1.1172 0.16797-1.6875 0.16797-0.56641 0-1.1289-0.054688-1.6875-0.16797-0.55469-0.10938-1.0977-0.27344-1.6211-0.49219-0.52734-0.21484-1.0234-0.48047-1.4961-0.79688-0.47266-0.31641-0.91016-0.67578-1.3125-1.0742-0.39844-0.40234-0.75781-0.83984-1.0742-1.3125-0.31641-0.46875-0.58203-0.96875-0.80078-1.4922-0.21484-0.52344-0.37891-1.0664-0.49219-1.6211-0.10938-0.55859-0.16406-1.1211-0.16406-1.6875 0-0.56641 0.054687-1.1289 0.16406-1.6875 0.11328-0.55469 0.27734-1.0977 0.49219-1.6211 0.21875-0.52344 0.48437-1.0234 0.80078-1.4922 0.31641-0.47266 0.67578-0.91016 1.0742-1.3125 0.40234-0.40234 0.83984-0.75781 1.3125-1.0742 0.47266-0.31641 0.96875-0.58203 1.4961-0.80078 0.52344-0.21484 1.0664-0.37891 1.6211-0.48828 0.55859-0.11328 1.1211-0.16797 1.6875-0.16797 0.57031 0 1.1328 0.054688 1.6875 0.16797 0.55859 0.10938 1.0977 0.27344 1.625 0.48828 0.52344 0.21875 1.0234 0.48438 1.4961 0.80078 0.47266 0.31641 0.90625 0.67188 1.3086 1.0742 0.40234 0.40234 0.76172 0.83984 1.0781 1.3125 0.3125 0.46875 0.58203 0.96875 0.79687 1.4922 0.21875 0.52344 0.38281 1.0664 0.49219 1.6211 0.11328 0.55859 0.16797 1.1211 0.16797 1.6875z" fill="#fff"/>
 <path d="m648.45 421.75c0 0.33594-0.035157 0.66797-0.10156 1-0.066406 0.32812-0.16016 0.64844-0.28906 0.96094-0.12891 0.30859-0.28906 0.60547-0.47656 0.88672-0.1875 0.27734-0.39844 0.53906-0.63672 0.77734-0.23828 0.23828-0.5 0.44922-0.77734 0.63672-0.28125 0.1875-0.57812 0.34375-0.88672 0.47266-0.3125 0.12891-0.63281 0.22656-0.96484 0.29297-0.32812 0.066406-0.66406 0.097656-1 0.097656-0.33594 0-0.67188-0.03125-1-0.097656-0.33203-0.066407-0.65234-0.16406-0.96484-0.29297-0.30859-0.12891-0.60547-0.28516-0.88672-0.47266-0.27734-0.1875-0.53906-0.39844-0.77734-0.63672-0.23828-0.23828-0.44922-0.5-0.63672-0.77734-0.1875-0.28125-0.34766-0.57812-0.47656-0.88672-0.12891-0.3125-0.22266-0.63281-0.28906-0.96094-0.066406-0.33203-0.10156-0.66406-0.10156-1 0-0.33984 0.035156-0.67188 0.10156-1.0039 0.066406-0.32813 0.16016-0.64844 0.28906-0.96094 0.12891-0.30859 0.28906-0.60547 0.47656-0.88672 0.1875-0.27734 0.39844-0.53906 0.63672-0.77734 0.23828-0.23828 0.5-0.44922 0.77734-0.63672 0.28125-0.1875 0.57812-0.34375 0.88672-0.47266 0.3125-0.12891 0.63281-0.22656 0.96484-0.29297 0.32812-0.066406 0.66406-0.097656 1-0.097656 0.33594 0 0.67188 0.03125 1 0.097656 0.33203 0.066406 0.65234 0.16406 0.96484 0.29297 0.30859 0.12891 0.60547 0.28516 0.88672 0.47266 0.27734 0.1875 0.53906 0.39844 0.77734 0.63672 0.23828 0.23828 0.44922 0.5 0.63672 0.77734 0.1875 0.28125 0.34766 0.57812 0.47656 0.88672 0.12891 0.3125 0.22266 0.63281 0.28906 0.96094 0.066406 0.33203 0.10156 0.66406 0.10156 1.0039z" fill="#fff"/>
 <path d="m665.94 439.41c0 0.46875-0.089844 0.91797-0.26953 1.3516-0.17969 0.43359-0.43359 0.8125-0.76562 1.1445-0.33203 0.33203-0.71094 0.58594-1.1445 0.76562-0.43359 0.17969-0.88281 0.26562-1.3516 0.26562s-0.91797-0.085937-1.3516-0.26562c-0.43359-0.17969-0.8125-0.43359-1.1445-0.76562-0.33203-0.33203-0.58594-0.71094-0.76562-1.1445-0.17969-0.43359-0.26953-0.88281-0.26953-1.3516 0-0.46484 0.089844-0.91406 0.26953-1.3477 0.17969-0.43359 0.43359-0.8125 0.76562-1.1445 0.33203-0.33203 0.71094-0.58594 1.1445-0.76562 0.43359-0.17969 0.88281-0.26953 1.3516-0.26953s0.91797 0.089843 1.3516 0.26953c0.43359 0.17969 0.8125 0.43359 1.1445 0.76562 0.33203 0.33203 0.58594 0.71094 0.76562 1.1445 0.17969 0.43359 0.26953 0.88281 0.26953 1.3477z" fill="#fff"/>
 <path d="m469.75 351.11v32.434c15.309 3.75 32.641 2.1289 51.02-8.957 55.82-33.684 38.117-63.676 38.117-63.676s-13.398-30.961-75.102-30.324c-4.9375 0.050781-9.6172 0.23047-14.035 0.53516v42.516c-1.043 2.1406-1.832 4.3672-2.3672 6.6875-0.53516 2.3203-0.80078 4.668-0.80078 7.0469s0.26562 4.7305 0.80078 7.0469c0.53516 2.3203 1.3242 4.5508 2.3672 6.6914z" fill="#262626"/>
 <path d="m469.75 351.11c0.51172 1.0547 1.082 2.0781 1.707 3.0703 0.62891 0.99219 1.3125 1.9453 2.0469 2.8633 0.73438 0.91797 1.5156 1.7891 2.3477 2.6172s1.707 1.6094 2.6289 2.3398c0.91797 0.73047 1.875 1.4062 2.8711 2.0312 0.99609 0.62109 2.0234 1.1875 3.082 1.6992 1.0586 0.50781 2.1406 0.95703 3.25 1.3438s2.2383 0.71094 3.3828 0.97266c1.1445 0.26172 2.3008 0.45703 3.4688 0.58984 1.168 0.13281 2.3359 0.19922 3.5117 0.19922 1.1758 0.003906 2.3477-0.0625 3.5156-0.19141 1.1641-0.12891 2.3242-0.32422 3.4688-0.58203 1.1445-0.25781 2.2734-0.58203 3.3828-0.96484 1.1094-0.38672 2.1953-0.83203 3.2539-1.3398 1.0586-0.50781 2.0898-1.0703 3.0859-1.6914 0.99609-0.62109 1.9531-1.2969 2.875-2.0234 0.92188-0.73047 1.8008-1.5078 2.6328-2.3359 0.83594-0.82422 1.6211-1.6953 2.3555-2.6094 0.73828-0.91406 1.4219-1.8672 2.0508-2.8594 0.62891-0.99219 1.2031-2.0156 1.7148-3.0703 0.51562-1.0547 0.97266-2.1328 1.3672-3.2383 0.39453-1.1094 0.72266-2.2305 0.99219-3.375 0.26953-1.1406 0.47266-2.2969 0.61328-3.4609 0.13672-1.168 0.21094-2.3359 0.21875-3.5117 0.007813-1.1719-0.050781-2.3438-0.17188-3.5117-0.125-1.168-0.3125-2.3242-0.5625-3.4688-0.25391-1.1484-0.57031-2.2773-0.94922-3.3867-0.37891-1.1133-0.82031-2.1992-1.3203-3.2617s-1.0586-2.0898-1.6758-3.0898c-0.61328-1-1.2852-1.9609-2.0078-2.8867-0.72266-0.92578-1.4961-1.8047-2.3203-2.6445-0.82031-0.83984-1.6875-1.6289-2.6016-2.3672-0.91016-0.74219-1.8594-1.4297-2.8477-2.0664-0.98828-0.63281-2.0078-1.2109-3.0586-1.7344-1.0547-0.51953-2.1328-0.98047-3.2383-1.3828-1.1016-0.39844-2.2266-0.73438-3.3672-1.0117-1.1445-0.27344-2.2969-0.48438-3.4648-0.62891-1.1641-0.14844-2.3359-0.22656-3.5078-0.24219-1.1758-0.015626-2.3477 0.035156-3.5156 0.15234-1.1719 0.11719-2.3281 0.29688-3.4766 0.54297-1.1484 0.24609-2.2812 0.55469-3.3945 0.92578-1.1133 0.375-2.2031 0.80859-3.2695 1.3008-1.0664 0.49609-2.1016 1.0469-3.1055 1.6562-1.0039 0.60938-1.9688 1.2734-2.8984 1.9922-0.92969 0.71875-1.8164 1.4844-2.6602 2.3008-0.84375 0.82031-1.6367 1.6797-2.3867 2.5859-0.74609 0.90625-1.4414 1.8516-2.082 2.8359-0.64062 0.98438-1.2227 2-1.75 3.0469-0.066406 0.12891-0.12891 0.26562-0.19141 0.39844-1.043 2.1406-1.832 4.3711-2.3672 6.6875-0.53516 2.3203-0.80078 4.668-0.80078 7.0469 0 2.3828 0.26562 4.7305 0.80078 7.0508 0.53516 2.3164 1.3242 4.5469 2.3672 6.6875z" fill="#fff"/>
 <path d="m522.58 337.37c0 0.80078-0.042969 1.6016-0.12109 2.3984-0.078126 0.79688-0.19531 1.5898-0.35156 2.375-0.15625 0.78906-0.35156 1.5625-0.58203 2.332-0.23438 0.76563-0.50391 1.5195-0.8125 2.2617-0.30469 0.73828-0.64844 1.4648-1.0273 2.1719-0.37891 0.70703-0.78906 1.3906-1.2344 2.0586s-0.92188 1.3086-1.4336 1.9297c-0.50781 0.61719-1.0469 1.2109-1.6133 1.7773-0.56641 0.57031-1.1602 1.1055-1.7812 1.6133-0.62109 0.51172-1.2617 0.98828-1.9297 1.4336-0.66797 0.44531-1.3555 0.85547-2.0625 1.2344-0.70703 0.375-1.4297 0.71875-2.1719 1.0273-0.74219 0.30469-1.4961 0.57422-2.2617 0.80859-0.76953 0.23047-1.5469 0.42578-2.332 0.58203-0.78906 0.15625-1.582 0.27344-2.3789 0.35156-0.79688 0.082032-1.5977 0.12109-2.4023 0.12109-0.80078 0-1.6016-0.039062-2.3984-0.12109-0.79688-0.078124-1.5898-0.19531-2.3789-0.35156-0.78516-0.15625-1.5625-0.35156-2.332-0.58203-0.76562-0.23438-1.5195-0.50391-2.2617-0.80859-0.74219-0.30859-1.4648-0.65234-2.1719-1.0273-0.70703-0.37891-1.3945-0.78906-2.0625-1.2344-0.66797-0.44531-1.3125-0.92188-1.9297-1.4336-0.62109-0.50781-1.2148-1.043-1.7812-1.6133-0.56641-0.56641-1.1055-1.1602-1.6133-1.7773-0.51172-0.62109-0.98828-1.2617-1.4336-1.9297-0.44531-0.66797-0.85547-1.3516-1.2344-2.0586-0.37891-0.70703-0.72266-1.4336-1.0273-2.1719-0.30859-0.74219-0.57813-1.4961-0.8125-2.2617-0.23047-0.76953-0.42578-1.543-0.58203-2.332-0.15625-0.78516-0.27344-1.5781-0.35156-2.375-0.082032-0.79688-0.12109-1.5977-0.12109-2.3984 0-0.80078 0.039062-1.6016 0.12109-2.3984 0.078125-0.79688 0.19531-1.5898 0.35156-2.375 0.15625-0.78906 0.35156-1.5625 0.58203-2.332 0.23437-0.76562 0.50391-1.5195 0.8125-2.2617 0.30469-0.73828 0.64844-1.4609 1.0273-2.168 0.37891-0.70703 0.78906-1.3945 1.2344-2.0625 0.44531-0.66406 0.92188-1.3086 1.4336-1.9297 0.50781-0.61719 1.0469-1.2109 1.6133-1.7773 0.56641-0.56641 1.1602-1.1055 1.7812-1.6133 0.61719-0.50781 1.2617-0.98438 1.9297-1.4297 0.66797-0.44531 1.3555-0.85938 2.0625-1.2383 0.70703-0.375 1.4297-0.71875 2.1719-1.0234 0.74219-0.30859 1.4961-0.57812 2.2617-0.8125 0.76953-0.23047 1.5469-0.42578 2.332-0.58203 0.78906-0.15625 1.582-0.27344 2.3789-0.35156s1.5977-0.11719 2.3984-0.11719c0.80469 0 1.6055 0.039062 2.4023 0.11719s1.5898 0.19531 2.3789 0.35156c0.78516 0.15625 1.5625 0.35156 2.332 0.58203 0.76562 0.23438 1.5195 0.50391 2.2617 0.8125 0.74219 0.30469 1.4648 0.64844 2.1719 1.0234 0.70703 0.37891 1.3945 0.79297 2.0625 1.2383 0.66797 0.44531 1.3086 0.92187 1.9297 1.4297s1.2148 1.0469 1.7812 1.6133 1.1055 1.1602 1.6133 1.7773c0.51172 0.62109 0.98828 1.2656 1.4336 1.9297 0.44531 0.66797 0.85547 1.3555 1.2344 2.0625 0.37891 0.70703 0.72266 1.4297 1.0273 2.168 0.30859 0.74219 0.57812 1.4961 0.8125 2.2617 0.23047 0.76953 0.42578 1.543 0.58203 2.332 0.15625 0.78516 0.27344 1.5781 0.35156 2.375 0.078124 0.79688 0.12109 1.5977 0.12109 2.3984z" fill="#262626"/>
 <path d="m515.86 330.22c0 0.56641-0.054687 1.1289-0.16797 1.6875-0.10938 0.55469-0.27344 1.0977-0.49219 1.6211-0.21484 0.52344-0.48047 1.0234-0.79688 1.4961-0.31641 0.46875-0.67578 0.90625-1.0781 1.3086-0.40234 0.40234-0.83594 0.75781-1.3086 1.0742s-0.97266 0.58203-1.4961 0.80078c-0.52344 0.21484-1.0664 0.37891-1.625 0.49219-0.55469 0.10938-1.1172 0.16406-1.6875 0.16406-0.56641 0-1.1289-0.054688-1.6875-0.16406-0.55469-0.11328-1.0977-0.27734-1.6211-0.49219-0.52344-0.21875-1.0234-0.48438-1.4961-0.80078s-0.91016-0.67188-1.3125-1.0742c-0.39844-0.40234-0.75781-0.83984-1.0742-1.3086-0.31641-0.47266-0.58203-0.97266-0.80078-1.4961-0.21484-0.52344-0.37891-1.0664-0.49219-1.6211-0.10938-0.55859-0.16406-1.1211-0.16406-1.6875s0.054687-1.1289 0.16406-1.6875c0.11328-0.55469 0.27734-1.0977 0.49219-1.6211 0.21875-0.52344 0.48438-1.0234 0.80078-1.4922 0.31641-0.47266 0.67578-0.91016 1.0742-1.3125 0.40234-0.39844 0.83984-0.75781 1.3125-1.0742s0.97266-0.58203 1.4961-0.79688c0.52344-0.21875 1.0664-0.38281 1.6211-0.49219 0.55859-0.11328 1.1211-0.16797 1.6875-0.16797 0.57031 0 1.1328 0.054687 1.6875 0.16797 0.55859 0.10938 1.1016 0.27344 1.625 0.49219 0.52344 0.21484 1.0234 0.48047 1.4961 0.79688s0.90625 0.67578 1.3086 1.0742c0.40234 0.40234 0.76172 0.83984 1.0781 1.3125 0.31641 0.46875 0.58203 0.96875 0.79688 1.4922 0.21875 0.52344 0.38281 1.0664 0.49219 1.6211 0.11328 0.55859 0.16797 1.1211 0.16797 1.6875z" fill="#fff"/>
 <path d="m506.18 350.3c0 0.33594-0.03125 0.67187-0.097657 1-0.066406 0.33203-0.16406 0.65234-0.29297 0.96094-0.12891 0.3125-0.28516 0.60938-0.47266 0.88672-0.1875 0.28125-0.40234 0.53906-0.64062 0.77734-0.23828 0.23828-0.49609 0.45312-0.77734 0.64062-0.27734 0.18359-0.57422 0.34375-0.88672 0.47266-0.30859 0.12891-0.63281 0.22656-0.96094 0.28906-0.33203 0.066407-0.66406 0.10156-1 0.10156-0.33984 0-0.67188-0.035156-1.0039-0.097656-0.32812-0.066407-0.64844-0.16406-0.96094-0.29297-0.3125-0.12891-0.60547-0.28906-0.88672-0.47266-0.28125-0.1875-0.53906-0.40234-0.77734-0.64062-0.23828-0.23828-0.45312-0.49609-0.64062-0.77734-0.18359-0.27734-0.34375-0.57422-0.47266-0.88672-0.12891-0.30859-0.22656-0.62891-0.29297-0.96094-0.0625-0.32813-0.097656-0.66406-0.097656-1 0-0.33594 0.035156-0.66797 0.097656-1 0.066406-0.32813 0.16406-0.65234 0.29297-0.96094 0.12891-0.3125 0.28906-0.60547 0.47266-0.88672 0.1875-0.28125 0.40234-0.53906 0.64062-0.77734 0.23828-0.23828 0.49609-0.44922 0.77734-0.63672s0.57422-0.34766 0.88672-0.47266c0.3125-0.12891 0.63281-0.22656 0.96094-0.29297 0.33203-0.066406 0.66406-0.097656 1.0039-0.097656 0.33594 0 0.66797 0.03125 1 0.097656 0.32812 0.066406 0.65234 0.16406 0.96094 0.29297 0.3125 0.125 0.60938 0.28516 0.88672 0.47266 0.28125 0.1875 0.53906 0.39844 0.77734 0.63672 0.23828 0.23828 0.45312 0.49609 0.64062 0.77734s0.34375 0.57422 0.47266 0.88672c0.12891 0.30859 0.22656 0.63281 0.29297 0.96094 0.066407 0.33203 0.097657 0.66406 0.097657 1z" fill="#fff"/>
 <path d="m479 345.55c0 0.46484-0.089844 0.91797-0.26953 1.3477-0.17969 0.43359-0.43359 0.8125-0.76562 1.1445-0.32813 0.33203-0.71094 0.58594-1.1445 0.76563-0.42969 0.17969-0.88281 0.26953-1.3516 0.26953-0.46484 0-0.91797-0.089844-1.3477-0.26953-0.43359-0.17969-0.81641-0.43359-1.1484-0.76563-0.32812-0.33203-0.58594-0.71094-0.76172-1.1445-0.17969-0.42969-0.26953-0.88281-0.26953-1.3477 0-0.46875 0.089844-0.91797 0.26953-1.3516 0.17578-0.43359 0.43359-0.8125 0.76172-1.1445 0.33203-0.33203 0.71484-0.58594 1.1484-0.76562 0.42969-0.17578 0.88281-0.26562 1.3477-0.26562 0.46875 0 0.92188 0.089844 1.3516 0.26562 0.43359 0.17969 0.81641 0.43359 1.1445 0.76562 0.33203 0.33203 0.58594 0.71094 0.76562 1.1445 0.17969 0.43359 0.26953 0.88281 0.26953 1.3516z" fill="#fff"/>
 <path d="m550.66 434.09-2.2031 4.3789-5.2383 10.422-6.3828 12.691-5.5 10.934c-0.89453 1.7695-1.7422 3.5703-2.6719 5.3164-0.015625 0.027344-0.027344 0.050781-0.039063 0.078125-0.14062 0.27734-0.33203 0.51953-0.57031 0.72656-0.23828 0.20313-0.50391 0.35547-0.80469 0.45313-0.29688 0.10156-0.60156 0.13672-0.91797 0.11328-0.3125-0.019531-0.60938-0.10156-0.89063-0.24609-0.28125-0.14062-0.52344-0.32812-0.72656-0.56641-0.20703-0.23828-0.35938-0.50391-0.45703-0.80469-0.10156-0.29688-0.13672-0.60156-0.11719-0.91406 0.023438-0.3125 0.10547-0.60938 0.24609-0.89062l2.2031-4.3789 5.2422-10.422 6.3828-12.691 5.4961-10.938c0.89453-1.7695 1.7422-3.5664 2.6758-5.3164 0.011719-0.023438 0.023437-0.046875 0.035156-0.074219 0.14062-0.28516 0.32812-0.53125 0.56641-0.74219 0.23828-0.20703 0.50781-0.36328 0.80859-0.46484s0.60547-0.14062 0.92188-0.12109c0.31641 0.023438 0.61719 0.10547 0.90234 0.24609 0.28125 0.14453 0.52734 0.33594 0.73438 0.57422 0.20703 0.24219 0.35938 0.51172 0.45703 0.81641 0.097656 0.30078 0.13281 0.60938 0.10547 0.92578-0.023437 0.3125-0.10938 0.61328-0.25781 0.89453z" fill="#262626"/>
 <path d="m469.78 439.99c0.011718-0.46094 0.089844-0.91016 0.24219-1.3477 0.14844-0.43359 0.35938-0.83594 0.63281-1.207 0.27344-0.37109 0.59766-0.69141 0.96875-0.96484 0.375-0.27344 0.77734-0.48047 1.2148-0.62891 0.4375-0.14844 0.88672-0.22656 1.3477-0.23828 0.46094-0.007812 0.91016 0.050782 1.3555 0.17969 0.44141 0.12891 0.85547 0.32031 1.2383 0.57422 0.38672 0.25781 0.72266 0.5625 1.0117 0.92188 7.5156 9.2773 22.453 23.719 49.992 37.547 27.539 13.832 48.047 17.188 59.984 17.676 0.46094 0.019531 0.91016 0.10547 1.3438 0.26172s0.83203 0.37109 1.2031 0.64844c0.36719 0.28125 0.68359 0.60547 0.94922 0.98438 0.26953 0.375 0.47266 0.78125 0.61328 1.2188 0.14453 0.4375 0.21484 0.88672 0.21875 1.3477 0.003906 0.46094-0.058594 0.91406-0.19531 1.3555-0.13281 0.4375-0.33203 0.84766-0.59375 1.2305-0.25781 0.37891-0.57031 0.71094-0.93359 0.99609-15.793 12.344-33.359 16.16-48.133 16.551-3.7695-6.5898-13.086-20.277-25.504-20.305-7.4297-9.9375-23.98-9.2422-31.523-8.332-8.5039-12.074-15.922-28.441-15.434-48.469z" fill="#262626"/>
 <path d="m516.73 496.79c12.418 0.027344 21.734 13.715 25.504 20.305-3.5 0.09375-6.8438-0.007812-9.9727-0.23047-3.918-0.28516-7.7695-0.94531-11.559-1.9883-3.7891-1.043-7.4375-2.4453-10.949-4.207-3.5117-1.7656-6.8164-3.8555-9.9141-6.2695-3.0977-2.4141-5.9297-5.1094-8.4961-8.082-2.0469-2.375-4.1211-4.9961-6.1367-7.8594 7.543-0.91016 24.094-1.6055 31.523 8.332z" fill="#ffc1c2"/>
 <g clip-path="url(#a)">
  <path d="m407.4 839.9c-1.2422 3.582-1.7539 7.2656-1.5352 11.051 0.12891 3.7891 1 7.4023 2.6211 10.836 1.1875 2.3555 2.7305 4.4492 4.6367 6.2812 1.9023 1.8281 4.0586 3.2852 6.4609 4.375 0.44531 0.20313 0.89453 0.39453 1.3398 0.58203-0.27344 0.25781-0.54297 0.51953-0.80859 0.78516-1.7891 1.7891-3.2617 3.8086-4.418 6.0625-1.1562 2.25-1.9453 4.6211-2.3594 7.1211-0.39453 2.5898-0.34766 5.1758 0.14062 7.7539 0.48438 2.5742 1.3867 5 2.7031 7.2656 2.8281 4.8164 7.3242 8.0508 12.582 9.793 5.3359 1.6719 10.789 2.2305 16.355 1.6797 7.4688-0.69531 14.469-2.8867 21.004-6.5625 0.003906 2.3242 0.023437 4.6523 0.023437 6.9727v270.96c0 4.6445 7.2148 4.6367 7.2148 0v-0.48047c0.0625-3.6602 0-7.3242 0-10.98v-73.047c0.66797-0.55078 1.3398-1.1055 2-1.6641 9.5586-8.0781 18.527-16.766 26.906-26.062 8.5117-9.4453 16.348-19.418 23.516-29.918 7.1016-10.395 13.445-21.234 19.031-32.52 5.6289-11.348 10.398-23.047 14.316-35.09 3.8672-11.902 6.7812-24.027 8.7344-36.387 0.015625-0.10547 0.015625-0.20703 0.023438-0.3125 0.80469-1.3164 1.6016-2.6367 2.3828-3.9688 7.7617-13.266 14.469-27.043 20.125-41.332 5.5703-14.051 10.055-28.441 13.449-43.168 6.6055-5.2656 12.891-10.887 18.852-16.867 17.93-18.012 32.809-39.23 42.961-62.551 10.688-24.551 16.258-51.398 15.477-78.199-0.75781-26.176-7.6992-52.039-20.898-74.691 4.9375-1.6914 9.7891-3.6133 14.559-5.7617 17.973-8.2461 34.199-19.098 48.684-32.555 15.004-13.801 27.832-29.805 38.926-46.871 12.59-19.363 23.348-40.125 30.391-62.156 3.5117-10.992 6.0859-22.203 7.7266-33.625 2.3164-0.28906 4.6367-0.57422 6.9492-0.87891 11.539-1.5234 23.078-3.418 34.285-6.625 10.883-3.1172 21.48-7.4922 31.008-13.652 9.4102-6.0742 17.684-13.875 23.727-23.336 2.7617-4.3906 4.9727-9.043 6.6289-13.957 1.6562-4.9141 2.7148-9.9531 3.1719-15.121 0.26172-2.6406 0.37891-5.2852 0.35156-7.9414-0.03125-2.6523-0.20312-5.2969-0.51953-7.9336-0.31641-2.6328-0.77734-5.2422-1.3789-7.8281-0.60156-2.5859-1.3438-5.1289-2.2227-7.6328-0.87891-2.5039-1.8945-4.9531-3.0391-7.3477-1.1484-2.3906-2.4219-4.7148-3.8242-6.9688s-2.9219-4.4258-4.5586-6.5156c-1.6406-2.0898-3.3867-4.082-5.2422-5.9805-3.793-3.9102-7.9258-7.418-12.402-10.516-4.4805-3.1016-9.2188-5.7422-14.211-7.9141-10.145-4.418-20.742-6.8438-31.801-7.2734-10.359-0.38281-20.512 0.87891-30.461 3.7852-9.1445 2.6562-17.77 6.4844-25.871 11.484-6.6914-11.191-14.266-21.754-22.715-31.688-8.7617-10.238-18.27-19.73-28.527-28.473-10.254-8.7461-21.133-16.633-32.629-23.668-11.957-7.3828-24.41-13.801-37.359-19.258-12.949-5.457-26.242-9.8867-39.879-13.285-12.656-3.1562-25.484-5.2891-38.48-6.3945-13-1.1055-26.004-1.1719-39.012-0.20312-1.7305 0.13672-3.4609 0.29297-5.1914 0.46484-0.14062-1.5742-0.30859-3.1445-0.51953-4.7109-1.3516-10.297-4.1992-20.16-8.543-29.594-4.4102-9.5781-10.246-18.188-17.512-25.832-7.6211-7.9336-16.441-14.176-26.465-18.719-0.30078-0.14062-0.60938-0.26562-0.91797-0.39844v-88.117c0-4.6484-7.2148-4.6367-7.2148 0v595.69c-8.6367-4.8086-18.758-7.4102-28.625-6.5195-5.8438 0.52734-11.672 2.0234-16.355 5.6953-1.9531 1.5859-3.582 3.4531-4.8867 5.6055-1.3047 2.1484-2.2109 4.4531-2.7188 6.918-0.52734 2.5586-0.62109 5.1328-0.28125 7.7227 0.34375 2.5898 1.1016 5.0547 2.2773 7.3867 1.3516 2.6992 3.1328 5.0742 5.3477 7.1289-0.90234 0.38281-1.7852 0.79688-2.6367 1.2539-2.5234 1.3555-4.7227 3.1172-6.5938 5.2852-1.875 2.168-3.2969 4.5977-4.2734 7.2891-1.2422 3.582-1.7539 7.2656-1.5352 11.051 0.12891 3.7891 1 7.4023 2.6211 10.832 1.1875 2.3594 2.7305 4.4531 4.6328 6.2812 1.9062 1.8281 4.0625 3.2891 6.4648 4.3789 0.44531 0.20312 0.89453 0.39453 1.3398 0.58203-0.27344 0.25391-0.54297 0.51953-0.80859 0.78125-1.7891 1.793-3.2617 3.8125-4.418 6.0664-1.1562 2.25-1.9414 4.625-2.3555 7.1211-0.39844 2.5938-0.35156 5.1797 0.13672 7.7539 0.48828 2.5781 1.3906 5 2.7031 7.2695 2.8281 4.8164 7.3281 8.0508 12.582 9.7891 5.3398 1.6719 10.793 2.2305 16.359 1.6836 7.4766-0.69922 14.484-2.8906 21.023-6.5742v77.043c-8.6367-4.8164-18.754-7.4141-28.625-6.5273-5.8438 0.52734-11.672 2.0234-16.355 5.6953-1.9531 1.5859-3.582 3.457-4.8867 5.6055-1.3047 2.1484-2.2109 4.457-2.7188 6.918-0.52734 2.5586-0.62109 5.1328-0.27734 7.7227 0.33984 2.5938 1.0977 5.0547 2.2734 7.3867 1.3516 2.6992 3.1328 5.0781 5.3477 7.1289-0.90234 0.38281-1.7852 0.79688-2.6328 1.2539-2.5234 1.3555-4.7227 3.1172-6.5977 5.2852s-3.2969 4.5977-4.2734 7.2891zm393.89-409.18c1.2422-10.801 1.6445-21.633 1.2031-32.496-0.027343-0.71875-0.0625-1.4336-0.09375-2.1484 0.80469-0.1875 1.6172-0.375 2.418-0.57031 5.4219-1.293 10.816-2.7266 16.09-4.5547 5.375-1.8203 10.523-4.1484 15.445-6.9766 4.9883-2.8945 9.4648-6.4336 13.434-10.617 2.293-2.4141 4.2461-5.0781 5.8516-7.9922 1.6172-2.8945 2.6367-5.9883 3.0625-9.2773 0.33203-2.9219 0.14844-5.8086-0.54687-8.668-0.65625-2.6055-1.668-5.0703-3.0352-7.3867-1.3984-2.3789-3.0508-4.5664-4.9648-6.5586-1.7383-1.8438-3.6523-3.4922-5.7383-4.9375-2.2227-1.5664-4.5664-2.9258-7.0312-4.0742-2.4531-1.1211-4.9805-2.0352-7.582-2.7422-5.0312-1.3633-10.152-1.9297-15.359-1.6992-5.1953 0.21094-10.227 1.2227-15.098 3.0273-2.5039 0.9375-4.9102 2.0781-7.2188 3.418-1.4102 0.82812-2.7656 1.7344-4.0625 2.7266-0.26562-0.6875-0.53516-1.3711-0.80859-2.0547-3.7891-9.5-8.1953-18.703-13.227-27.613 1.418-0.87891 2.8594-1.7227 4.3203-2.5352 1.0938-0.60547 2.207-1.1992 3.332-1.7656 0.54688-0.28125 1.1016-0.55469 1.6523-0.82031 0.015625-0.011719 0.03125-0.015625 0.042969-0.023438 0.007812 0 0.011718-0.007812 0.015625-0.007812 0.015625-0.007812 0.027343-0.015625 0.042969-0.019531l0.050781-0.023438c0.011719-0.007812 0.027343-0.015625 0.042969-0.019531l0.027343-0.011719c0.003907-0.003906 0.007813-0.007812 0.015625-0.007812 0.003906-0.003907 0.003906-0.003907 0.007813-0.003907 0.003906 0 0.011719-0.007812 0.015625-0.007812s0.007812-0.003906 0.007812-0.003906l0.16016-0.074219c0.24609-0.11328 0.49609-0.23438 0.74609-0.35156 2.2773-1.0469 4.5938-2.0117 6.9453-2.8906 4.6562-1.7422 9.418-3.125 14.281-4.1484l0.91797-0.1875c0.019531-0.003906 0.035156-0.003906 0.050781-0.011719 0.12109-0.023437 0.24609-0.046875 0.37109-0.070312 0.57422-0.10547 1.1523-0.20703 1.7305-0.30469 1.2266-0.20312 2.4609-0.38672 3.7031-0.54688 2.4336-0.30859 4.8789-0.51953 7.3398-0.63672 2.4961-0.11719 4.9922-0.12891 7.4922-0.039063 0.625 0.023437 1.25 0.050781 1.8711 0.089844 0.13281 0.007812 0.26953 0.015625 0.39844 0.019531 0.007812 0.003906 0.015625 0.007812 0.023437 0.003906 0.27344 0.019532 0.54688 0.039063 0.82422 0.066406 1.2461 0.10156 2.4961 0.22656 3.7422 0.38281 5.1914 0.64062 10.273 1.7656 15.254 3.3711 0.35547 0.11328 0.71094 0.22656 1.0664 0.34766 0.039063 0.015625 0.078125 0.027344 0.12109 0.042969 0.058593 0.019531 0.15234 0.054687 0.19922 0.074218 0.62891 0.21875 1.2539 0.44531 1.875 0.67969 1.2031 0.45703 2.3945 0.94141 3.5781 1.4531 2.3984 1.043 4.7461 2.1914 7.0391 3.4492 1.1641 0.63672 2.3125 1.3047 3.4492 2 0.59766 0.37109 1.1914 0.74609 1.7852 1.1289 0.24609 0.15234 0.48438 0.32031 0.72656 0.47656 0.085938 0.058594 0.39844 0.26953 0.52344 0.35156 2.1328 1.4727 4.1992 3.0469 6.1797 4.7148 1.9922 1.6797 3.8984 3.4531 5.7109 5.3203 0.89062 0.91797 1.7578 1.8594 2.6016 2.8203 0.14453 0.16797 0.28906 0.33203 0.43359 0.5 0.015625 0.019531 0.027344 0.035156 0.042969 0.054687 0.18359 0.21875 0.37109 0.44141 0.55469 0.66797 0.39062 0.47656 0.77734 0.96094 1.1562 1.4453 1.6289 2.0859 3.1406 4.2539 4.5312 6.5078 0.65234 1.0664 1.2812 2.1484 1.8789 3.25 0.3125 0.58203 0.62109 1.168 0.91797 1.7578 0.14453 0.27734 0.28516 0.55859 0.41797 0.83984 0.011719 0.015625 0.019531 0.03125 0.023438 0.050781 0.039062 0.082032 0.09375 0.19141 0.10938 0.23047 2.1055 4.5039 3.7109 9.1797 4.8164 14.027 0.13672 0.60547 0.26562 1.2188 0.39062 1.832 0.003906 0.015625 0.007813 0.027344 0.007813 0.042969 0.023437 0.125 0.050781 0.25 0.074218 0.375 0.058594 0.30859 0.10938 0.61719 0.16406 0.92188 0.20312 1.1914 0.375 2.3867 0.51953 3.5898 0.28906 2.4414 0.44922 4.8867 0.48828 7.3438 0.019531 1.25 0 2.4961-0.042969 3.7383-0.015624 0.35156-0.03125 0.70312-0.050781 1.0508-0.007812 0.15234-0.019531 0.30078-0.027343 0.44922-0.042969 0.56641-0.085938 1.1367-0.13672 1.7031-0.24219 2.4727-0.61719 4.9297-1.125 7.3633-0.50391 2.3906-1.1367 4.7461-1.9023 7.0625-0.027344 0.085938-0.050781 0.16797-0.082031 0.25-0.007813 0.023438-0.03125 0.09375-0.082032 0.22266-0.089843 0.25781-0.17969 0.51562-0.27344 0.76562-0.19922 0.54688-0.40625 1.0898-0.625 1.6289-0.46094 1.1523-0.96094 2.2852-1.4883 3.4102-1.0938 2.3008-2.3281 4.5195-3.6953 6.668-0.18359 0.28125-0.35938 0.5625-0.54688 0.83984-0.070312 0.10547-0.375 0.55469-0.39062 0.57422-0.32031 0.45312-0.63672 0.90625-0.96875 1.3516-0.78125 1.0742-1.6094 2.1289-2.4609 3.1523-1.6836 2.0234-3.4727 3.9453-5.3672 5.7695-0.96484 0.92969-1.9531 1.832-2.9609 2.707-0.035157 0.027344-0.21484 0.1875-0.3125 0.26953-0.070313 0.058594-0.14453 0.12109-0.16797 0.14453-0.22266 0.1875-0.44922 0.36719-0.67578 0.55469-0.52344 0.42969-1.043 0.84766-1.5781 1.2578-4.207 3.2617-8.668 6.1328-13.379 8.6133-1.1602 0.62109-2.3281 1.2148-3.5156 1.7812-0.082031 0.042969-0.19141 0.09375-0.23437 0.11328l-0.46484 0.21875c-0.30078 0.13672-0.60938 0.27734-0.91797 0.41797-0.57422 0.26172-1.1523 0.52344-1.7344 0.77344-2.5078 1.082-5.0586 2.0664-7.6367 2.9727-5.3477 1.8711-10.777 3.4336-16.301 4.6914-1.3789 0.31641-2.7617 0.61719-4.1445 0.90234-0.64844 0.13672-1.3008 0.26953-1.9531 0.39453 0 0.003906 0 0.003906-0.003906 0.003906-0.035157 0.007812-0.074219 0.015625-0.10547 0.019531-0.023438 0.007813-0.042969 0.007813-0.066407 0.011719l-0.51953 0.10156c-0.35156 0.066407-0.69141 0.13281-1.043 0.19531-2.7461 0.51172-5.4961 0.96484-8.2578 1.3906-4.7578 0.73047-9.5352 1.3516-14.309 1.9414zm-11.121-95.848c2.4023-1.9297 4.9844-3.5781 7.7461-4.9375 3.2617-1.5195 6.6562-2.6367 10.184-3.3477 3.8164-0.70703 7.6641-0.94922 11.539-0.72656 3.9023 0.28906 7.7109 1.0508 11.426 2.2812 3.3711 1.1953 6.5469 2.7812 9.5273 4.7539 2.4297 1.6992 4.6211 3.6641 6.5742 5.8984 1.5234 1.8125 2.8164 3.7812 3.875 5.8984 0.76562 1.6445 1.3398 3.3516 1.7227 5.125 0.26563 1.5078 0.36328 3.0273 0.29297 4.5547-0.14453 1.625-0.46875 3.2109-0.96875 4.7578-0.78516 2.1055-1.8008 4.0898-3.0469 5.957-2.1758 3.0312-4.6875 5.7539-7.5352 8.168-0.84375 0.71094-1.7031 1.3945-2.5898 2.0547-3.3203 2.4609-6.8438 4.582-10.57 6.3672-1.9336 0.91406-3.8945 1.7539-5.8906 2.5234-3.7695 1.4531-7.6328 2.6797-11.523 3.7617-2.9531 0.82031-5.9297 1.5625-8.9102 2.2617-1.5195-18.969-5.4688-37.422-11.852-55.352zm-316.8 567.9c2.8281-0.32031 5.6562-0.66797 8.4727-1.0625 13.312-1.832 26.402-4.6992 39.262-8.5938 12.863-3.8945 25.34-8.7734 37.43-14.633 13.363-6.5 26.031-14.148 38.008-22.938-3.5625 13.906-8.1016 27.488-13.617 40.742l-0.33203 0.78125c-0.03125 0.074219-0.054687 0.13281-0.074219 0.17578-0.019531 0.042968-0.042968 0.10156-0.078124 0.17969-0.16016 0.38672-0.32813 0.77734-0.5 1.168-0.35156 0.82031-0.70703 1.6406-1.0664 2.4648-0.75781 1.7188-1.5352 3.4336-2.3281 5.1406-1.5781 3.4141-3.2227 6.793-4.9336 10.145-3.4336 6.7266-7.1211 13.312-11.059 19.762-3.9336 6.4336-8.1055 12.711-12.516 18.828-4.457 6.1758-8.5781 11.441-13.57 17.344-9.7305 11.5-20.285 22.184-31.664 32.062-2.8867 2.5039-5.8203 4.9531-8.8125 7.3477-0.77344 0.62109-1.5508 1.2383-2.3359 1.8477-0.37109 0.29297-0.74609 0.58594-1.1211 0.875-0.10547 0.085938-0.21484 0.16797-0.31641 0.25781-0.046875 0.027343-0.26953 0.20703-0.32812 0.25-1.5078 1.1562-3.0195 2.2969-4.5469 3.4219-4.5625 3.3672-9.2188 6.5977-13.969 9.6914zm97.359-166.4c-0.007812 0-0.007812 0-0.007812 0.003906v-0.003906l0.011718-0.011719c0 0.003906-0.003906 0.007813-0.003906 0.011719zm-97.359-25.996c0.54297-0.41406 1.0859-0.83594 1.6133-1.2695 3.25-2.668 6.2305-5.6133 8.9297-8.8359 6.2852 1.4141 12.496 3.1211 18.633 5.1211 3.0273 0.99219 6.0391 2.0547 9.0273 3.1953 1.457 0.55469 2.9062 1.1328 4.3516 1.7188l1.2266 0.50391c0.15234 0.066406 0.3125 0.125 0.46484 0.19531 0.023437 0.011719 0.039062 0.015625 0.054687 0.019532 0.003906 0.003906 0.003906 0.003906 0.007813 0.003906 0.6875 0.29297 1.3711 0.58984 2.0547 0.88672 5.7812 2.5273 11.43 5.3242 16.949 8.3867 5.5156 3.0625 10.883 6.3828 16.102 9.9609 2.582 1.7734 5.1172 3.6094 7.6133 5.5039 0.35938 0.27344 0.72656 0.54297 1.082 0.81641 0.019531 0.015625 0.039062 0.035157 0.058594 0.046875 0.14844 0.11719 0.32812 0.25391 0.38281 0.30469 0.58984 0.46094 1.1836 0.92578 1.7695 1.3945 1.1016 0.87891 2.1836 1.7773 3.2656 2.6758-0.21875 0.26172-0.4375 0.53125-0.65625 0.79297-6.1523 7.1367-12.93 13.621-20.332 19.449-0.23047 0.17578-0.46094 0.35938-0.6875 0.53906-0.039062 0.027344-0.078125 0.054688-0.10938 0.082032-0.035156 0.023437-0.066406 0.050781-0.097656 0.074218-0.011719 0.015625-0.027344 0.023438-0.042969 0.035156-0.015625 0.007813-0.03125 0.019532-0.042969 0.03125-0.035156 0.03125-0.074218 0.058594-0.10937 0.089844-0.41406 0.31641-0.82422 0.62891-1.2383 0.94141-0.9375 0.69922-1.875 1.3867-2.8281 2.0703-1.8984 1.3594-3.8281 2.6797-5.7891 3.9609-3.9883 2.5977-8.0781 5.0234-12.273 7.2656-4.1719 2.2344-8.4219 4.2969-12.758 6.1875-0.53125 0.23828-1.0664 0.46484-1.6016 0.69531-0.019531 0.007812-0.042968 0.019531-0.066406 0.027344-0.042969 0.019531-0.085938 0.035156-0.12891 0.054687-0.027344 0.007813-0.058594 0.019531-0.085938 0.03125-0.007812 0.011719-0.019531 0.015625-0.03125 0.015625-0.011718 0.003906-0.019531 0.007813-0.03125 0.007813v0.007812c-0.003906-0.007812-0.003906 0-0.003906 0-0.007812 0.003907-0.015625 0.007813-0.023438 0.007813h-0.003906c-0.011718 0.003906-0.015625 0.007812-0.023437 0.003906l-0.003907 0.003906c-0.003906 0.007813-0.007812 0.011719-0.011718 0.011719-0.24609 0.10547-0.49219 0.20703-0.74219 0.30859-1.125 0.46484-2.2539 0.91797-3.3945 1.3633-2.2461 0.875-4.5117 1.707-6.7969 2.5-7.7539 2.6797-15.641 4.8711-23.664 6.5781 0-0.58203-0.003907-1.1641-0.003907-1.7422zm0-520.05c7.5234-2.793 15.18-5.1562 22.965-7.0977 11.977-2.9609 24.117-4.9258 36.418-5.9062 12.301-0.98047 24.598-0.95703 36.895 0.066407 13.172 1.1094 26.18 3.2422 39.016 6.3906 12.836 3.1523 25.348 7.2852 37.539 12.395 12.66 5.2383 24.844 11.418 36.547 18.539 11.707 7.1172 22.797 15.09 33.27 23.922 9.7227 8.2148 18.727 17.156 27.012 26.82 8.2852 9.6641 15.746 19.926 22.383 30.785 6.2656 10.305 11.641 21.051 16.133 32.238 4.4883 11.191 8.0273 22.676 10.613 34.449 2.5273 11.57 4.0391 23.27 4.5391 35.102 0.49609 11.832-0.023438 23.617-1.5664 35.355-1.6328 11.98-4.2852 23.734-7.9492 35.258s-8.2891 22.648-13.875 33.375c-9.4062 18.262-20.414 35.742-33.52 51.586-12.254 14.824-26.312 28.18-42.281 38.957-7.8945 5.3477-16.188 9.9844-24.879 13.906-8.6914 3.9258-17.656 7.082-26.887 9.4688-20.055 5.1523-41.055 6.418-61.652 4.6094-24.879-2.1914-49.309-8.5469-72.633-17.344-12.973-4.8945-25.668-10.43-38.086-16.605zm0-38.219c2.418 2.918 4.4609 6.0781 6.1328 9.4766 1.5352 3.2539 2.6602 6.6445 3.3867 10.168 0.55078 2.9727 0.77344 5.9766 0.66797 9-3.418 1.043-6.8164 2.1719-10.188 3.3828zm0-52.984c1.793 0.86719 3.5586 1.793 5.293 2.7773 1.1523 0.66016 2.2891 1.3477 3.4141 2.0625 0.5625 0.35547 1.1133 0.71484 1.668 1.0859 0.023437 0.019531 0.097656 0.066406 0.16406 0.10938l0.22266 0.15234c0.23828 0.16406 0.47266 0.33203 0.71484 0.5 2.1641 1.5352 4.2539 3.168 6.2695 4.9023 1.9453 1.6797 3.8047 3.4414 5.582 5.2891 0.86328 0.90625 1.7148 1.8281 2.5508 2.7695 0.21875 0.25 0.44531 0.51172 0.66797 0.76562 0.011719 0.007813 0.019531 0.019532 0.027344 0.03125 0.003906 0.007813 0.003906 0.011719 0.011718 0.011719 0.003907 0.007813 0.011719 0.015625 0.019532 0.023437 0.027344 0.035157 0.054687 0.070313 0.085937 0.10547l0.023438 0.023438c0.019531 0.023437 0.027343 0.039062 0.027343 0.039062 0.011719 0.007813 0.019532 0.015625 0.023438 0.027344 0.38281 0.44922 0.75391 0.89844 1.1211 1.3555 3.1172 3.8672 5.8945 7.9609 8.3398 12.281 0.61719 1.0859 1.2109 2.1836 1.7812 3.293 0.30078 0.58594 0.59766 1.1758 0.89062 1.7734 0.050782 0.097656 0.097657 0.19922 0.14063 0.29688 0.12891 0.27344 0.26562 0.55078 0.39453 0.82812 1.0352 2.2305 1.9844 4.5 2.8438 6.8047 1.7461 4.6641 3.1367 9.4297 4.1719 14.297 0.074218 0.34766 0.14844 0.69141 0.21484 1.0391 0.023437 0.10547 0.042968 0.20703 0.0625 0.3125 0.011718 0.03125 0.015624 0.058594 0.019531 0.089844 0.003906 0.007812 0.003906 0.015625 0.003906 0.023437 0.11328 0.57422 0.21875 1.1562 0.32031 1.7383 0.20312 1.1992 0.39062 2.4023 0.55859 3.6094 0.23047 1.6992 0.41406 3.4062 0.5625 5.1094-10.879 1.3633-21.602 3.5-32.168 6.4102 0-0.3125 0-0.625-0.007812-0.93359-0.12109-5.1875-1.1055-10.203-2.9531-15.055-1.832-4.8633-4.3633-9.3359-7.5938-13.41-1.668-2.1094-3.4883-4.0781-5.4531-5.9102l-0.015625-0.015625z" fill="#262626"/>
 </g>
 <path d="m473.36 604.77c2.8555 2.918 5.5234 5.9961 8.0117 9.2305 2.4688 3.1758 4.7266 6.4961 6.7773 9.957 4.125 6.8203 7.0234 14.125 8.6914 21.918 0.37891 1.918 0.66016 3.8555 0.84375 5.8047l0.16016 1.457 0.054688 1.4648 0.058593 1.4688c0.03125 0.48828 0.035157 0.97656 0.019531 1.4648-0.035156 3.9492-0.42578 7.8633-1.1836 11.742-1.5742 7.7812-4.5117 15.344-8.1172 22.754 5.4453-6.4727 9.3867-13.754 11.828-21.848 0.3125-1.0117 0.51562-2.0508 0.77734-3.0781l0.35938-1.5469c0.10547-0.51953 0.16797-1.0469 0.25391-1.5703 0.15625-1.0508 0.34766-2.0977 0.45703-3.1562l0.22656-3.1875c0.015625-0.26562 0.042969-0.53125 0.050781-0.79688l-0.007812-0.79688-0.015625-1.6016-0.019531-1.6016-0.12891-1.5938c-0.41406-5.3242-1.5664-10.488-3.457-15.484-1.8945-5-4.4492-9.6328-7.668-13.898-2.457-3.3945-5.1875-6.5469-8.1992-9.4609-2.9805-2.9023-6.2383-5.4492-9.7734-7.6406z" fill="#515151"/>
</svg>
