<?xml version="1.0" encoding="UTF-8"?>
<svg width="1587" height="1587" version="1.0" viewBox="0 0 1190.2 1190.2" xmlns="http://www.w3.org/2000/svg" zoomAndPan="magnify">
 <defs>
  <clipPath id="b">
   <path d="m0 0h1189.5v1189.5h-1189.5z"/>
  </clipPath>
  <clipPath id="a">
   <path d="m0 466h1189.5v311h-1189.5z"/>
  </clipPath>
 </defs>
 <g clip-path="url(#b)" fill="#fff">
  <path d="m0 0h1189.5v1189.5h-1189.5z"/>
  <path d="m0 0h1189.5v1189.5h-1189.5z"/>
 </g>
 <g clip-path="url(#a)">
  <path d="m762.48 747.08c-64.184 22.574-157.5-14.578-160.01-89.898 194.82-90.367 111.74-263.39-3.8711-155.07-70.906-94.195-213.88 15.871-16.426 150.38-2.6641 84.613-122.14 130.56-186.16 81.277-2.9609-2.7227-5.5938-5.7344-7.9023-9.0312-10.566-11.879-22.512 3.8594-12.914 14.207 56.398 68.43 185.37 37.57 217.76-40.938 28.438 60.621 105.51 90.402 168.89 73.766 18.461-5.957 60.273-22.594 47.422-47.035-13.477-14.98-21.973 16.766-46.781 22.344zm-295.34-134.74c0.089843 0.11719 0.16797 0.23828 0.23828 0.36719 8.4531 15.059 7.1797 19.133 4.8125 21.129-0.87891 0.75781-1.8984 1.1289-3.0625 1.1133-3.2227 0-6.7539-2.8477-8.707-4.4258-0.14453-0.11719-0.27734-0.24609-0.40234-0.38281-72.902-81.066-181.73-124.68-332.7-133.34-0.44531-0.023438-0.87109-0.125-1.2734-0.30859-0.40625-0.18359-0.76172-0.43359-1.0703-0.75391-0.30859-0.32031-0.54688-0.68359-0.71484-1.0977-0.16797-0.41016-0.25391-0.83594-0.26172-1.2812-0.003907-0.44531 0.074218-0.87109 0.23047-1.2891 0.16016-0.41406 0.39062-0.78516 0.69141-1.1094 0.30078-0.32812 0.65234-0.58594 1.0508-0.78125 0.40234-0.19141 0.82422-0.30469 1.2656-0.33594 57.984-4.6602 125.86 3.8555 186.2 23.395 48.223 15.617 114.04 45.484 153.71 99.102zm-462.19-11.156c-0.41797 0.13281-0.84375 0.17969-1.2773 0.15234-0.43359-0.03125-0.85156-0.14062-1.2461-0.32422-0.39453-0.1875-0.74219-0.4375-1.043-0.75391-0.29687-0.31641-0.53125-0.67578-0.69531-1.082-0.16406-0.40234-0.25391-0.82031-0.25781-1.2578-0.007813-0.4375 0.0625-0.85938 0.21484-1.2695 0.15234-0.40625 0.37109-0.77734 0.66016-1.1016 0.28906-0.32812 0.62891-0.58984 1.0195-0.78906 116.32-59.695 328.32-41.527 428 36.672 16.047 13.996 15.762 17.789 14.105 20.48-0.48438 0.75781-1.1289 1.3398-1.9375 1.7422-0.80469 0.39844-1.6602 0.5625-2.5547 0.49219-2.6406 0-5.8633-1.168-8.9023-2.4023-0.16016-0.0625-0.31641-0.14062-0.46484-0.22656-136.8-80.723-276.02-97.188-425.62-50.332zm400.91 81.359c-127.8-36.168-225.75-31.688-327.52 14.98-0.39453 0.18359-0.80469 0.28906-1.2383 0.32031s-0.85547-0.019531-1.2695-0.14844c-0.41406-0.12891-0.78906-0.32812-1.1289-0.59375-0.33984-0.26953-0.62109-0.58984-0.83984-0.96484-0.21875-0.37109-0.36328-0.77344-0.4375-1.1992-0.070313-0.42578-0.058594-0.85156 0.027344-1.2773 0.089843-0.42187 0.25-0.81641 0.48438-1.1797 0.23438-0.36719 0.52734-0.67578 0.87891-0.92969 75.094-55.445 240.98-69.312 328.71-27.484 13.102 7.5469 15.055 11.309 14.035 14.672-1.3828 4.5586-7.8633 4.1367-10.977 3.9297-0.24609-0.015625-0.48438-0.058594-0.72266-0.125zm656.41-192.7c0.44141 0.03125 0.86328 0.14453 1.2656 0.33594 0.39844 0.19531 0.75 0.45312 1.0508 0.78125 0.30078 0.32422 0.53125 0.69531 0.6875 1.1133 0.16016 0.41406 0.23828 0.84375 0.23047 1.2852-0.003906 0.44531-0.089844 0.87109-0.25781 1.2852-0.16797 0.41016-0.41016 0.77344-0.71484 1.0938-0.30859 0.32031-0.66797 0.57031-1.0703 0.75391-0.40625 0.18359-0.82812 0.28516-1.2734 0.30859-150.98 8.6562-259.8 52.273-332.71 133.34-0.12109 0.13672-0.25781 0.26562-0.39844 0.38281-1.9531 1.5742-5.4922 4.4258-8.7109 4.4258-1.1602 0.015625-2.1836-0.35547-3.0625-1.1133-2.3633-1.9961-3.6406-6.0703 4.8125-21.129 0.070313-0.12891 0.14844-0.25 0.23828-0.36719 39.672-53.617 105.48-83.484 153.71-99.102 60.344-19.539 128.21-28.047 186.2-23.395zm126.54 109.34c-0.16406 0.40234-0.39453 0.76562-0.69531 1.082s-0.64844 0.57031-1.043 0.75391c-0.39844 0.1875-0.8125 0.29297-1.25 0.32422-0.43359 0.027344-0.85938-0.023438-1.2773-0.15625-149.6-46.852-288.82-30.395-425.62 50.336-0.14844 0.085937-0.30469 0.16406-0.46484 0.22656-3.0391 1.2344-6.2617 2.4023-8.8984 2.4023-0.89844 0.070312-1.75-0.09375-2.5586-0.49219-0.80469-0.40234-1.4531-0.98047-1.9375-1.7422-1.6562-2.6953-1.9414-6.4844 13.965-20.367 99.82-78.312 311.82-96.488 428.14-36.789 0.38672 0.19922 0.72656 0.46484 1.0156 0.78906 0.28906 0.32812 0.51172 0.69531 0.66016 1.1055 0.15234 0.40625 0.22656 0.83203 0.21875 1.2656-0.007812 0.4375-0.09375 0.85547-0.26172 1.2617zm-74.129 92.371c0.35156 0.25391 0.64453 0.5625 0.87891 0.92578 0.23437 0.36328 0.39844 0.75781 0.48437 1.1836 0.089844 0.42188 0.097657 0.84766 0.027344 1.2773-0.070312 0.42578-0.21875 0.82812-0.4375 1.1992-0.21875 0.375-0.5 0.69531-0.83984 0.96094-0.33984 0.26953-0.71484 0.46875-1.1289 0.59766-0.41406 0.12891-0.83594 0.17578-1.2695 0.14844-0.42969-0.03125-0.84375-0.13672-1.2344-0.32031-101.77-46.676-199.73-51.148-327.52-14.98-0.23828 0.066406-0.47656 0.10938-0.72266 0.125-3.1172 0.21094-9.5938 0.63672-10.98-3.9258-1.0195-3.3672 0.9375-7.1289 13.793-14.551 87.969-41.953 253.86-28.086 328.95 27.359z" fill="#1e1a1b"/>
 </g>
</svg>
