<?xml version="1.0" encoding="UTF-8"?>
<svg width="1587" height="1587" version="1.0" viewBox="0 0 1190.2 1190.2" xmlns="http://www.w3.org/2000/svg" zoomAndPan="magnify">
 <defs>
  <clipPath id="a">
   <path d="m0 0h1189.5v1189.5h-1189.5z"/>
  </clipPath>
  <clipPath id="b">
   <path d="m29 126h1132v944.98h-1132z"/>
  </clipPath>
 </defs>
 <g clip-path="url(#a)" fill="#fff">
  <path d="m0 0h1189.5v1189.5h-1189.5z"/>
  <path d="m0 0h1189.5v1189.5h-1189.5z"/>
 </g>
 <path d="m1068.8 514.08c-24.684-71.344-69.715-131.94-132.57-176.76-47.086-33.613-105.6-59.453-170.52-75.918-54.398-13.949-112.91-21.266-173.03-21.266-56 0-112.91 6.4023-165.71 18.293-63.543 14.18-121.6 36.129-165.49 64.027-68.801 43.219-118.4 103.82-146.52 176.54-17.828 45.961-26.973 96.727-26.973 151.15 0 107.25 11.887 187.51 70.859 255.88 45.258 52.594 101.71 89.641 172.57 113.65 69.484 23.324 154.74 34.758 260.8 34.758 235.89 0 354.75-73.859 412.8-135.83 32.23-34.301 86.176-115.02 86.176-268.46-0.23047-48.02-7.7734-93.984-22.402-136.06z" fill="#fff"/>
 <path d="m682.29 683.07c-4.1133-1.6016-8.6836 0.68359-10.285 4.8008-12.57 34.984-46.629 58.996-85.715 61.281v-87.352c21.258-5.9453 79.773-24.008 78.859-46.875-1.1445-34.988-29.031-34.988-29.031-34.988h-108.8c-34.973 0-36.113 29.043-36.113 29.043 4.5703 30.871 58.059 47.336 78.855 52.82v86.895c-37.484-3.6562-69.484-27.211-81.598-60.824-1.6016-4.1172-6.1719-6.4023-10.289-4.8008-4.1133 1.5977-6.3984 6.1719-4.7969 10.289 15.312 42.988 58.285 72.031 106.74 72.031 48.457 0 91.203-29.043 106.75-72.031 1.8281-4.3438-0.23047-8.918-4.5742-10.289z" fill="#0c0c0c"/>
 <g clip-path="url(#b)">
  <path d="m1131.7 448.22c57.828-97.414 25.828-223.41-72-281.72-97.602-58.082-223.78-26.297-281.61 71.117-1.8281 2.9727-3.6562 6.1758-5.2578 9.375-56.457-14.633-117.71-22.637-180.12-22.637-58.285 0-117.26 6.8594-172.11 19.438-2.7461-5.7188-5.7148-11.434-9.1445-17.152-57.828-97.41-184-129.2-281.6-70.887-97.832 58.082-129.83 184.08-72.004 281.49 11.887 20.121 26.746 37.273 43.66 51.68-19.66 48.934-29.715 103.13-29.715 161.44 0 63.566 4.5703 109.76 14.629 149.55 11.656 45.734 30.629 82.777 59.887 116.85 91.656 106.56 229.26 154.12 445.49 154.12 241.83 0 364.35-76.602 424.46-141.09 33.828-36.129 90.516-120.51 90.516-279.43 0-52.137-8.457-101.07-24.688-146.12 19.43-14.863 36.344-33.844 49.602-56.023zm-40.688 202.14c0 153.43-53.941 233.93-86.172 268.46-58.059 61.969-176.69 135.83-412.8 135.83-106.29 0-191.55-11.434-260.8-34.758-70.855-24.012-127.32-61.055-172.57-113.65-58.969-68.371-70.855-148.64-70.855-255.88 0-54.422 9.1406-105.19 26.973-151.15 1.8281-4.5742 3.6562-8.918 5.4844-13.492v-0.22656c5.7148-13.266 12.344-26.297 19.656-38.645 2.2852-3.8906 4.5703-7.7773 7.0859-11.664 0.23047-0.45703 0.45703-0.6875 0.6875-1.1445 2.2852-3.6562 4.8008-7.3164 7.3125-10.977 0.23047-0.22656 0.23047-0.45703 0.45703-0.68359 5.4883-7.7734 11.199-15.32 17.145-22.41 0.22656-0.23047 0.45703-0.45703 0.68359-0.6875 2.7461-3.1992 5.2578-6.4023 8.2305-9.375 0.68359-0.68359 1.3711-1.3711 2.0586-2.2852 2.5117-2.7461 4.7969-5.2617 7.3125-8.0039l2.2852-2.2852c2.7422-2.7461 5.4883-5.4883 8.457-8.2344 0.45703-0.45703 0.91406-0.91406 1.3711-1.3711 3.4297-3.2031 6.8594-6.4023 10.285-9.375 0.46094-0.45703 0.91797-0.6875 1.375-1.1445 2.9688-2.5156 5.9414-5.0312 8.9141-7.5469 1.1406-0.91406 2.2852-1.8281 3.4258-2.7422 2.5156-2.0586 5.0312-3.8867 7.543-5.9453 1.3711-0.91406 2.5156-1.8281 3.8867-2.7461 2.5156-1.8281 5.2578-3.8867 8-5.7148 1.1445-0.91406 2.2852-1.6016 3.4297-2.5156 3.8867-2.5156 7.7695-5.2578 11.656-7.5469 2.7422-1.6016 5.2578-3.1992 8-5.0312 0.91406-0.45703 1.8281-0.91406 2.7422-1.5977 1.8281-1.1445 3.8867-2.2891 5.7148-3.2031 1.1445-0.6875 2.0586-1.1445 3.1992-1.6016 1.832-0.91406 3.6602-2.0586 5.4883-2.9727 1.1406-0.68359 2.2852-1.1406 3.4297-1.6016 1.8281-0.91406 3.8828-1.8281 5.7109-2.9727 1.1445-0.45703 2.2891-1.1406 3.4297-1.5977 2.0586-0.91797 3.8867-1.832 5.9453-2.9727 1.1406-0.45703 2.0547-0.91797 3.1992-1.375 2.0547-0.91406 4.3438-2.0547 6.3984-2.9727 0.91406-0.45703 2.0586-0.91406 2.9727-1.3711 2.2852-0.91406 4.8008-2.0586 7.3125-2.9727 0.91406-0.22656 1.6016-0.68359 2.5156-0.91406 2.7422-1.1445 5.4844-2.2852 8.2305-3.2031 0.45703-0.22656 1.1406-0.45703 1.5977-0.68359 27.887-10.75 58.059-19.668 89.602-26.754 52.801-11.891 109.49-18.293 165.71-18.293 60.117 0 118.86 7.3164 173.03 21.266 28.344 7.3164 55.543 16.234 80.918 26.754 0.22656 0 0.45703 0.22656 0.68359 0.22656 3.1992 1.375 6.6289 2.7461 9.8281 4.1172 0.6875 0.23047 1.3711 0.6875 1.8281 0.91406 2.7461 1.1445 5.4883 2.5156 8.2305 3.8867 0.91406 0.45703 1.8281 0.91797 2.7422 1.1445 2.5156 1.1445 5.0273 2.2852 7.3164 3.6602 1.1406 0.45703 2.0547 1.1406 2.9688 1.5977 2.2852 1.1445 4.5742 2.2891 6.6289 3.4336 1.1445 0.68359 2.2852 1.1406 3.4297 1.8281 2.0586 1.1445 4.1133 2.2852 6.3984 3.4297 1.1445 0.6875 2.2852 1.3711 3.4297 1.8281 2.0586 1.1445 4.1133 2.2891 5.9414 3.4297 1.1445 0.6875 2.2891 1.375 3.4297 2.0586 2.0586 1.1445 3.8867 2.5156 5.9453 3.6602 1.1406 0.68359 2.2852 1.3711 3.1992 2.0586 2.0547 1.3711 4.1133 2.7422 6.1719 3.8867 0.91406 0.6875 1.8281 1.1445 2.7422 1.8281 2.9727 2.0586 5.7148 3.8867 8.6836 5.9453 3.6602 2.5156 7.0859 5.2617 10.516 7.7773 1.1445 0.91406 2.0586 1.5977 3.1992 2.5117 2.5156 1.832 4.8008 3.8906 7.0859 5.7188 1.1445 0.91406 2.2852 1.8281 3.4297 2.7422 2.5156 2.0586 4.8008 4.1172 7.0859 6.1758 0.91406 0.91406 1.8281 1.6016 2.7422 2.5156 3.1992 2.9727 6.4023 5.9453 9.6016 8.918 0.22656 0.23047 0.22656 0.23047 0.45703 0.45703 2.9727 2.9727 5.9414 5.7188 8.6836 8.6914 0.91406 0.91406 1.6016 1.8281 2.5156 2.5117 2.2852 2.2891 4.3438 4.5742 6.4023 7.0898 0.91406 0.91406 1.5977 1.8281 2.5117 2.7461 2.2852 2.5156 4.3438 5.2578 6.6289 7.7734 0.45703 0.6875 1.1445 1.3711 1.6016 2.0586 2.7422 3.4297 5.4844 6.8594 8.2266 10.52v0.22656c2.5156 3.4297 5.0312 6.8594 7.3164 10.289 0.45703 0.6875 1.1406 1.6016 1.5977 2.5156 1.8281 2.7461 3.8867 5.7188 5.7148 8.6914 0.45703 0.91406 1.1445 1.6016 1.6016 2.5156 2.0547 3.1992 4.1133 6.6289 5.9414 9.832 0.23047 0.45703 0.45703 0.6875 0.6875 1.1445 4.3438 7.7734 8.6836 15.547 12.57 23.551 0.45703 0.6875 0.6875 1.3711 0.91406 2.0586 1.6016 3.4297 3.1992 6.6328 4.5703 10.062 0.23047 0.68359 0.6875 1.3711 0.91797 2.2852 1.5977 3.8867 3.4258 8.0039 5.0273 11.891 1.5977 4.3477 3.4297 8.6914 4.8008 13.266 14.855 42.301 22.398 88.266 22.398 136.52z" fill="#0c0c0c"/>
 </g>
 <path d="m390.41 674.15c-40 86.895-130.75 131.03-193.38 101.07-76.574-36.816-83.203-125.77-43.199-212.66 40-86.891 132.34-128.51 194.97-98.324 73.371 35.441 81.602 123.02 41.602 209.92z" fill="#0c0c0c"/>
 <path d="m771.89 686.95c40 86.895 130.75 131.03 193.38 101.07 76.57-36.816 83.199-125.77 43.199-212.66s-132.34-128.51-194.97-98.328c-73.371 35.441-81.602 123.02-41.602 209.92z" fill="#0c0c0c"/>
 <path d="m360.69 571.25c0 1.5039-0.074218 3.0078-0.22266 4.5039-0.14844 1.5-0.36719 2.9844-0.66016 4.4609-0.29297 1.4766-0.66016 2.9375-1.0977 4.3789-0.4375 1.4375-0.94141 2.8555-1.5195 4.2461-0.57422 1.3906-1.2188 2.75-1.9258 4.0781-0.71094 1.3242-1.4805 2.6172-2.3203 3.8672-0.83594 1.25-1.7305 2.4609-2.6836 3.6211-0.95312 1.1641-1.9648 2.2812-3.0273 3.3438-1.0664 1.0664-2.1797 2.0742-3.3398 3.0273-1.1641 0.95703-2.3711 1.8516-3.625 2.6875-1.25 0.83594-2.5391 1.6094-3.8672 2.3203-1.3242 0.71094-2.6836 1.3516-4.0742 1.9297-1.3906 0.57422-2.8047 1.082-4.2461 1.5195-1.4375 0.4375-2.8945 0.80078-4.3711 1.0938-1.4766 0.29297-2.9648 0.51562-4.4609 0.66406-1.4961 0.14453-3 0.21875-4.5039 0.21875s-3.0039-0.074219-4.5039-0.21875c-1.4961-0.14844-2.9844-0.37109-4.457-0.66406-1.4766-0.29297-2.9336-0.65625-4.375-1.0938s-2.8555-0.94531-4.2461-1.5195c-1.3906-0.57813-2.7461-1.2188-4.0742-1.9297s-2.6172-1.4844-3.8672-2.3203c-1.25-0.83594-2.457-1.7305-3.6211-2.6875-1.1641-0.95313-2.2773-1.9609-3.3398-3.0273-1.0664-1.0625-2.0742-2.1797-3.0312-3.3438-0.95312-1.1602-1.8477-2.3711-2.6836-3.6211s-1.6094-2.543-2.3203-3.8672c-0.70703-1.3281-1.3516-2.6875-1.9258-4.0781-0.57422-1.3906-1.082-2.8086-1.5195-4.2461-0.4375-1.4414-0.80078-2.9023-1.0938-4.3789-0.29688-1.4766-0.51562-2.9609-0.66406-4.4609-0.14453-1.4961-0.21875-3-0.21875-4.5039s0.074218-3.0078 0.21875-4.5039c0.14844-1.5 0.36719-2.9883 0.66406-4.4648 0.29297-1.4766 0.65625-2.9336 1.0938-4.375 0.4375-1.4375 0.94531-2.8555 1.5195-4.2461s1.2188-2.75 1.9258-4.0781c0.71094-1.3281 1.4844-2.6172 2.3203-3.8672 0.83594-1.2539 1.7305-2.4609 2.6836-3.625 0.95703-1.1641 1.9648-2.2773 3.0312-3.3398 1.0625-1.0664 2.1758-2.0742 3.3398-3.0312 1.1641-0.95312 2.3711-1.8477 3.6211-2.6836 1.25-0.83984 2.5391-1.6094 3.8672-2.3203 1.3281-0.71094 2.6836-1.3516 4.0742-1.9297 1.3906-0.57422 2.8047-1.082 4.2461-1.5195s2.8984-0.80078 4.375-1.0938c1.4727-0.29688 2.9609-0.51562 4.457-0.66406 1.5-0.14844 3-0.21875 4.5039-0.21875s3.0078 0.070313 4.5039 0.21875c1.4961 0.14844 2.9844 0.36719 4.4609 0.66406 1.4766 0.29297 2.9336 0.65625 4.3711 1.0938 1.4414 0.4375 2.8555 0.94531 4.2461 1.5195 1.3906 0.57812 2.75 1.2188 4.0781 1.9297 1.3242 0.71094 2.6133 1.4805 3.8672 2.3203 1.25 0.83594 2.457 1.7305 3.6211 2.6836 1.1602 0.95703 2.2734 1.9648 3.3398 3.0312 1.0625 1.0625 2.0742 2.1758 3.0273 3.3398 0.95312 1.1641 1.8477 2.3711 2.6836 3.625 0.83984 1.25 1.6094 2.5391 2.3203 3.8672 0.70703 1.3281 1.3516 2.6875 1.9258 4.0781 0.57812 1.3906 1.082 2.8086 1.5195 4.2461 0.4375 1.4414 0.80469 2.8984 1.0977 4.375 0.29297 1.4766 0.51172 2.9648 0.66016 4.4648 0.14844 1.4961 0.22266 3 0.22266 4.5039z" fill="#fff"/>
 <path d="m895.78 586.34c0 1.5039-0.074219 3.0039-0.21875 4.5039-0.14844 1.4961-0.37109 2.9844-0.66406 4.4609-0.29297 1.4766-0.65625 2.9336-1.0938 4.375-0.4375 1.4414-0.94531 2.8555-1.5195 4.2461-0.57422 1.3906-1.2188 2.75-1.9258 4.0781-0.71094 1.3281-1.4844 2.6172-2.3203 3.8711-0.83594 1.25-1.7305 2.457-2.6836 3.6211-0.95703 1.1641-1.9648 2.2773-3.0312 3.3438-1.0625 1.0625-2.1758 2.0742-3.3398 3.0273-1.1641 0.95703-2.3711 1.8516-3.6211 2.6875-1.25 0.83594-2.5391 1.6094-3.8672 2.3203-1.3281 0.70703-2.6836 1.3516-4.0742 1.9258-1.3906 0.57812-2.8047 1.082-4.2461 1.5195-1.4414 0.4375-2.8984 0.80469-4.375 1.0977-1.4727 0.29297-2.9609 0.51172-4.457 0.66016-1.5 0.14844-3 0.22266-4.5039 0.22266s-3.0078-0.074219-4.5039-0.22266c-1.4961-0.14844-2.9844-0.36719-4.4609-0.66016s-2.9336-0.66016-4.3711-1.0977c-1.4414-0.4375-2.8555-0.94141-4.2461-1.5195-1.3906-0.57422-2.75-1.2188-4.0781-1.9258-1.3242-0.71094-2.6133-1.4844-3.8672-2.3203-1.25-0.83594-2.457-1.7305-3.6211-2.6875-1.1602-0.95313-2.2734-1.9648-3.3398-3.0273-1.0625-1.0664-2.0742-2.1797-3.0273-3.3438-0.95312-1.1641-1.8516-2.3711-2.6875-3.6211-0.83594-1.2539-1.6055-2.543-2.3164-3.8711-0.71094-1.3281-1.3516-2.6875-1.9258-4.0781-0.57812-1.3906-1.082-2.8047-1.5195-4.2461-0.4375-1.4414-0.80469-2.8984-1.0977-4.375-0.29297-1.4766-0.51172-2.9648-0.66016-4.4609-0.14844-1.5-0.22266-3-0.22266-4.5039 0-1.5078 0.074219-3.0078 0.22266-4.5078 0.14844-1.4961 0.36719-2.9844 0.66016-4.4609 0.29297-1.4766 0.66016-2.9336 1.0977-4.375s0.94141-2.8555 1.5195-4.2461c0.57422-1.3906 1.2148-2.75 1.9258-4.0781 0.71094-1.3281 1.4805-2.6172 2.3164-3.8711 0.83594-1.25 1.7344-2.457 2.6875-3.6211 0.95312-1.1641 1.9648-2.2773 3.0273-3.3438 1.0664-1.0625 2.1797-2.0742 3.3398-3.0273 1.1641-0.95312 2.3711-1.8516 3.6211-2.6875 1.2539-0.83594 2.543-1.6094 3.8672-2.3203 1.3281-0.70703 2.6875-1.3516 4.0781-1.9258 1.3906-0.57812 2.8047-1.082 4.2461-1.5195 1.4375-0.4375 2.8945-0.80469 4.3711-1.0977 1.4766-0.29297 2.9648-0.51172 4.4609-0.66016 1.4961-0.14844 3-0.22266 4.5039-0.22266s3.0039 0.074219 4.5039 0.22266c1.4961 0.14844 2.9844 0.36719 4.457 0.66016 1.4766 0.29297 2.9336 0.66016 4.375 1.0977 1.4414 0.4375 2.8555 0.94141 4.2461 1.5195 1.3906 0.57422 2.7461 1.2188 4.0742 1.9258 1.3281 0.71094 2.6172 1.4844 3.8672 2.3203 1.25 0.83594 2.457 1.7344 3.6211 2.6875s2.2773 1.9648 3.3398 3.0273c1.0664 1.0664 2.0742 2.1797 3.0312 3.3438 0.95312 1.1641 1.8477 2.3711 2.6836 3.6211 0.83594 1.2539 1.6094 2.543 2.3203 3.8711 0.70703 1.3281 1.3516 2.6875 1.9258 4.0781 0.57422 1.3906 1.082 2.8047 1.5195 4.2461s0.80078 2.8984 1.0938 4.375c0.29297 1.4766 0.51562 2.9648 0.66406 4.4609 0.14453 1.5 0.21875 3 0.21875 4.5078z" fill="#fff"/>
 <path d="m236.12 785.96c0 1.0664-0.085938 2.125-0.25781 3.1836-0.16797 1.0586-0.42578 2.1094-0.76562 3.1523s-0.76172 2.0742-1.2695 3.0898c-0.50781 1.0195-1.0938 2.0195-1.7617 3-0.66797 0.98438-1.4102 1.9453-2.2344 2.8828-0.82031 0.9375-1.7188 1.8477-2.6875 2.7305-0.96875 0.88672-2.0039 1.7383-3.1133 2.5625-1.1055 0.82031-2.2773 1.6094-3.5078 2.3594-1.2344 0.75391-2.5273 1.4648-3.875 2.1406-1.3477 0.67578-2.7461 1.3086-4.1953 1.8984-1.4531 0.58984-2.9453 1.1367-4.4844 1.6367-1.5391 0.50391-3.1133 0.95703-4.7227 1.3633-1.6133 0.40625-3.2539 0.76562-4.9219 1.0742-1.6719 0.30859-3.3594 0.56641-5.0703 0.77344s-3.4336 0.36328-5.1719 0.46875c-1.7344 0.10547-3.4727 0.15625-5.2188 0.15625s-3.4844-0.050781-5.2188-0.15625c-1.7383-0.10547-3.4609-0.26172-5.1719-0.46875s-3.3984-0.46484-5.0703-0.77344c-1.668-0.30859-3.3086-0.66797-4.9219-1.0742-1.6094-0.40625-3.1836-0.85938-4.7227-1.3633-1.5391-0.5-3.0312-1.0469-4.4844-1.6367-1.4492-0.58984-2.8477-1.2227-4.1953-1.8984-1.3477-0.67578-2.6406-1.3867-3.875-2.1406-1.2305-0.75-2.4023-1.5391-3.5078-2.3594-1.1055-0.82422-2.1445-1.6758-3.1133-2.5625-0.96875-0.88281-1.8672-1.793-2.6875-2.7305-0.82422-0.9375-1.5664-1.8984-2.2344-2.8828-0.66797-0.98047-1.2539-1.9805-1.7617-3-0.50781-1.0156-0.92969-2.0469-1.2695-3.0898s-0.59766-2.0938-0.76562-3.1523c-0.17188-1.0586-0.25781-2.1172-0.25781-3.1836 0-1.0625 0.085938-2.125 0.25781-3.1836 0.16797-1.0547 0.42578-2.1055 0.76562-3.1484 0.33984-1.043 0.76172-2.0742 1.2695-3.0938 0.50781-1.0156 1.0938-2.0156 1.7617-3 0.66797-0.98047 1.4102-1.9414 2.2344-2.8789 0.82031-0.9375 1.7188-1.8516 2.6875-2.7344 0.96875-0.88281 2.0078-1.7383 3.1133-2.5586 1.1055-0.82422 2.2773-1.6094 3.5078-2.3633 1.2344-0.75 2.5273-1.4648 3.875-2.1367 1.3477-0.67578 2.7461-1.3086 4.1953-1.8984 1.4531-0.59375 2.9453-1.1367 4.4844-1.6406 1.5391-0.5 3.1133-0.95312 4.7227-1.3633 1.6133-0.40625 3.2539-0.76172 4.9219-1.0703 1.6719-0.30859 3.3594-0.56641 5.0703-0.77734 1.7109-0.20703 3.4336-0.36328 5.1719-0.46484 1.7344-0.10547 3.4727-0.15625 5.2188-0.15625s3.4844 0.050781 5.2188 0.15625c1.7383 0.10156 3.4609 0.25781 5.1719 0.46484 1.7109 0.21094 3.3984 0.46875 5.0703 0.77734 1.668 0.30859 3.3086 0.66406 4.9219 1.0703 1.6094 0.41016 3.1836 0.86328 4.7227 1.3633 1.5391 0.50391 3.0312 1.0469 4.4844 1.6406 1.4492 0.58984 2.8477 1.2227 4.1953 1.8984 1.3477 0.67187 2.6406 1.3867 3.875 2.1367 1.2305 0.75391 2.4023 1.5391 3.5078 2.3633 1.1094 0.82031 2.1445 1.6758 3.1133 2.5586 0.96875 0.88281 1.8672 1.7969 2.6875 2.7344 0.82422 0.9375 1.5664 1.8984 2.2344 2.8789 0.66797 0.98438 1.2539 1.9844 1.7617 3 0.50781 1.0195 0.92969 2.0508 1.2695 3.0938 0.33984 1.043 0.59766 2.0938 0.76562 3.1523 0.17188 1.0547 0.25781 2.1172 0.25781 3.1797z" fill="#ff329a"/>
 <path d="m1021.5 785.96c0 1.0664-0.085938 2.125-0.25781 3.1836-0.17188 1.0586-0.42578 2.1094-0.76563 3.1523-0.34375 1.043-0.76562 2.0742-1.2695 3.0898-0.50781 1.0195-1.0938 2.0195-1.7617 3-0.66797 0.98438-1.4141 1.9453-2.2344 2.8828-0.82422 0.9375-1.7188 1.8477-2.6875 2.7305-0.96875 0.88672-2.0078 1.7383-3.1133 2.5625-1.1094 0.82031-2.2773 1.6094-3.5117 2.3594-1.2305 0.75391-2.5234 1.4648-3.8711 2.1406-1.3477 0.67578-2.75 1.3086-4.1992 1.8984s-2.9453 1.1367-4.4805 1.6367c-1.5391 0.50391-3.1133 0.95703-4.7266 1.3633-1.6094 0.40625-3.25 0.76562-4.9219 1.0742-1.668 0.30859-3.3594 0.56641-5.0703 0.77344-1.7109 0.20703-3.4336 0.36328-5.168 0.46875-1.7344 0.10547-3.4766 0.15625-5.2188 0.15625-1.7461 0-3.4844-0.050781-5.2227-0.15625-1.7344-0.10547-3.457-0.26172-5.168-0.46875-1.7109-0.20703-3.4023-0.46484-5.0703-0.77344-1.668-0.30859-3.3086-0.66797-4.9219-1.0742s-3.1875-0.85938-4.7227-1.3633c-1.5391-0.5-3.0352-1.0469-4.4844-1.6367-1.4492-0.58984-2.8516-1.2227-4.1992-1.8984-1.3477-0.67578-2.6367-1.3867-3.8711-2.1406-1.2344-0.75-2.4023-1.5391-3.5117-2.3594-1.1055-0.82422-2.1445-1.6758-3.1133-2.5625-0.96875-0.88281-1.8633-1.793-2.6875-2.7305-0.82031-0.9375-1.5664-1.8984-2.2344-2.8828-0.66406-0.98047-1.2539-1.9805-1.7578-3-0.50781-1.0156-0.92969-2.0469-1.2695-3.0898-0.34375-1.043-0.59766-2.0938-0.76953-3.1523-0.17188-1.0586-0.25391-2.1172-0.25391-3.1836 0-1.0625 0.082031-2.125 0.25391-3.1836 0.17188-1.0547 0.42578-2.1055 0.76953-3.1484 0.33984-1.043 0.76172-2.0742 1.2695-3.0938 0.50391-1.0156 1.0938-2.0156 1.7578-3 0.66797-0.98047 1.4141-1.9414 2.2344-2.8789 0.82422-0.9375 1.7188-1.8516 2.6875-2.7344 0.96875-0.88281 2.0078-1.7383 3.1133-2.5586 1.1094-0.82422 2.2773-1.6094 3.5117-2.3633 1.2344-0.75 2.5234-1.4648 3.8711-2.1367 1.3477-0.67578 2.75-1.3086 4.1992-1.8984 1.4492-0.59375 2.9453-1.1367 4.4844-1.6406 1.5352-0.5 3.1094-0.95312 4.7227-1.3633 1.6133-0.40625 3.2539-0.76172 4.9219-1.0703 1.668-0.30859 3.3594-0.56641 5.0703-0.77734 1.7109-0.20703 3.4336-0.36328 5.168-0.46484 1.7383-0.10547 3.4766-0.15625 5.2227-0.15625 1.7422 0 3.4844 0.050781 5.2188 0.15625 1.7344 0.10156 3.457 0.25781 5.168 0.46484 1.7109 0.21094 3.4023 0.46875 5.0703 0.77734 1.6719 0.30859 3.3086 0.66406 4.9219 1.0703 1.6133 0.41016 3.1875 0.86328 4.7266 1.3633 1.5352 0.50391 3.0312 1.0469 4.4805 1.6406 1.4492 0.58984 2.8516 1.2227 4.1992 1.8984 1.3477 0.67187 2.6367 1.3867 3.8711 2.1367 1.2344 0.75391 2.4023 1.5391 3.5117 2.3633 1.1055 0.82031 2.1445 1.6758 3.1133 2.5586 0.96875 0.88281 1.8633 1.7969 2.6875 2.7344 0.82031 0.9375 1.5664 1.8984 2.2344 2.8789 0.66797 0.98438 1.2539 1.9844 1.7617 3 0.50391 1.0195 0.92578 2.0508 1.2695 3.0938 0.33984 1.043 0.59375 2.0938 0.76563 3.1523 0.17187 1.0547 0.25781 2.1172 0.25781 3.1797z" fill="#ff329a"/>
</svg>
