<?xml version="1.0" encoding="UTF-8"?>
<svg width="1587" height="1587" version="1.0" viewBox="0 0 1190.2 1190.2" xmlns="http://www.w3.org/2000/svg" zoomAndPan="magnify">
 <defs>
  <clipPath id="a">
   <path d="m0 0h1189.5v1189.5h-1189.5z"/>
  </clipPath>
 </defs>
 <g clip-path="url(#a)" fill="#fff">
  <path d="m0 0h1189.5v1189.5h-1189.5z"/>
  <path d="m0 0h1189.5v1189.5h-1189.5z"/>
 </g>
 <path d="m581.47 621.53c0-0.78516-3.125-17.195-16.016-23.055-9.3711-4.2969-23.824-5.8594-38.273 3.125 0 0-44.137 40.637-82.02 14.066-18.746-13.285-30.074-31.258-30.074-52.355 0-20.32 9.375-39.855 24.605-50.016 28.902-19.535 57.023-12.895 71.082-0.78125 10.156 8.5977 21.09 21.883 44.527 9.3789 9.3711-4.6875 14.059-13.285 12.105-25.008-1.5625-9.375-5.4688-29.695-10.152-53.527 10.934-9.7695 26.555-20.32 46.086-24.617 27.34-6.2539 56.633 0.78125 86.703 20.316 15.625 9.7695 32.418 36.73 35.934 74.238 2.7344 29.695-1.9531 87.914-63.273 146.13-0.39062 0.39062-37.102 37.512-78.113 69.16-0.78125-40.637-2.3398-85.57-3.1211-107.06z" fill="#fa0e00"/>
 <path d="m558.04 498.06c1.5625 9.7695-1.5586 16.801-9.3711 19.93-10.156 4.2969-24.215 0.78125-31.246-8.207-13.668-17.191-54.68-21.488-85.535-0.39062-16.402 10.941-26.949 32.039-26.559 53.922 0 22.66 11.719 42.586 32.418 55.871 45.695 29.695 86.316-7.4219 89.832-10.547 12.887-7.8164 23.043-9.7695 31.242-6.2539 10.938 5.082 13.281 19.539 13.281 19.539 1.5625 32.43 2.7344 74.629 3.125 110.18-14.844 10.941-29.684 21.098-43.742 28.133-54.68-28.133-125.77-100.03-126.55-100.81-61.316-57.828-65.613-116.44-62.879-145.74 3.5156-37.508 20.699-64.078 35.93-74.238 30.074-19.535 59.367-26.176 86.707-20.316 41.789 9.3789 64.836 46.105 64.836 46.496l1.5625-1.1719 1.5586 1.1719s5.4688-8.207 14.844-17.973c5.0781 22.27 8.9844 41.418 10.543 50.402z" fill="#fa0e00"/>
 <path d="m1186.1 538.3c-1.1719 14.066-8.5938 25.398-21.871 33.211-43.352 26.18-85.926 0.78125-91.391-6.25-3.5156-4.6914-13.672-7.4258-22.266-3.9102-6.6367 2.7383-16.793 10.941-12.887 36.34 3.9062 25.789 12.887 63.688 18.746 87.133 0.78125 3.5156 1.9531 6.6406 2.7344 10.156 17.184 74.629-22.652 112.53-62.102 121.13-16.402 3.5156-59.363 4.2969-105.06 3.9062h-3.5156l-8.5938-1.1719c-22.652-5.8633-48.43-26.961-30.855-37.512 20.309-12.504 42.965-58.219 10.547-93.383-32.418-35.164-93.738-7.4258-105.06 33.992-11.328 41.809 39.055 54.312 26.559 66.816-12.5 12.504-49.211 27.742-49.211 27.742-46.477 10.547-112.88 10.156-149.2-1.957 2.3398-10.938 2.7305-39.852 2.3398-72.672 44.527-33.605 84.754-74.629 85.535-75.02 66.008-62.52 71.082-125.82 67.961-157.86-3.9062-41.027-23.047-70.723-40.23-81.664-33.199-21.098-64.832-28.52-95.297-21.879-20.309 4.6875-36.715 14.848-48.43 25.008-8.9844-44.934-19.922-98.074-22.652-109.8 14.449-3.125 92.172-20.316 163.64-28.133 0.39062 0 25.387-1.1719 32.418 12.113 5.0781 9.3789 0 25.008-14.449 44.934l-0.39062 0.78125c-0.39062 0.78125-6.25 19.539 4.293 39.855 9.375 17.582 28.512 30.477 57.023 37.902h0.39062c1.5625 0 39.059 1.5625 56.242-22.664 10.938-15.629 10.938-38.293-1.1719-67.207l-0.78125-0.78125c-6.6406-5.8594-23.043-24.223-20.309-35.164 1.1719-4.2969 5.4688-7.8125 13.277-9.3789 35.934-8.5938 127.32-5.4688 178.49 0 0.78125 25.008 5.4688 167.62 12.109 178.56 7.4219 11.723 16.402 18.367 26.168 20.32 10.156 1.5625 21.48-2.3438 33.199-11.723 30.07-24.227 66.004-19.926 85.531-3.125 13.281 9.7656 30.465 36.727 28.512 61.344z" fill="#ebe4d1"/>
 <path d="m574.44 745c-15.234 11.332-30.855 21.488-45.305 28.914l-0.78125-1.5625-0.78125 1.5625c-58.195-29.305-134.75-107.06-135.53-107.84-66.008-62.516-71.082-125.81-67.957-157.85 3.9023-41.027 23.043-70.723 40.227-81.664 33.199-21.098 65.223-28.52 95.297-21.879 38.668 8.5977 62.102 37.508 69.133 47.668 2.7344-3.9062 8.1992-10.941 16.402-18.754-8.9844-45.715-20.699-100.81-23.043-112.53l-142.17 19.539c-1.9531 0.39062-46.867 8.2031-59.363-8.9883-4.6875-6.6406-3.9062-16.02 2.3438-28.133 25.387-45.715 9.3711-64.859-7.4219-79.316-8.5938-7.4258-27.34-14.457-48.039-12.504-12.109 1.1719-29.293 5.8594-42.184 22.27-28.121 34.777 2.3438 65.254 2.7344 65.254 3.125 2.7344 17.578 19.145 14.062 33.992-1.9531 8.9883-10.156 15.238-23.824 19.145h-0.39062c-0.78125 0-64.445 3.1289-184.74-3.125l-8.5938 175.83s0.78125 16.41 10.938 21.879c7.8086 4.3008 19.527 1.5664 34.367-8.2031 51.555-33.211 78.895-19.145 93.348-11.332 5.8594 3.125 24.996 14.457 31.637 38.684 5.4648 19.145 1.168 41.027-12.109 64.469 0 0-39.445 43.371-94.906 14.848-55.461-28.523-74.598 8.207-68.742 35.949 5.8594 27.738-17.574 146.52 22.652 165.28 40.23 18.754 151.93-17.195 151.93-17.195 24.605-5.4688 56.629-11.719 64.051-6.25 12.5 8.9883 26.949 24.227 9.7656 51.969-14.453 23.051-23.434 66.031 12.105 89.477 17.188 11.328 37.887 15.629 57.023 11.719 14.84-3.125 26.949-10.938 34.371-21.879 21.48-32.82 18.355-63.688-9.7656-94.559-0.78125-1.1719-14.059-21.879-5.0781-36.727 5.8594-10.16 20.312-14.066 42.965-12.504 152.32 11.332 170.68 6.2539 172.63 4.6914 2.7344-3.9102 3.125-33.215 2.7344-70.332z" fill="#fbdcde"/>
</svg>
