<?xml version="1.0" encoding="UTF-8"?>
<svg width="1587" height="1587" version="1.0" viewBox="0 0 1190.2 1190.2" xmlns="http://www.w3.org/2000/svg" zoomAndPan="magnify">
 <defs>
  <clipPath id="b">
   <path d="m0 0h1189.5v1189.5h-1189.5z"/>
  </clipPath>
  <clipPath id="a">
   <path d="m1 271h1165v752.97h-1165z"/>
  </clipPath>
 </defs>
 <g clip-path="url(#b)" fill="#fff">
  <path d="m0 0h1189.5v1189.5h-1189.5z"/>
  <path d="m0 0h1189.5v1189.5h-1189.5z"/>
 </g>
 <g clip-path="url(#a)">
  <path d="m1141.2 661.78c-7.6172-16.156-17.656-31.066-29.121-44.73-8.6211-10.008-17.984-19.355-26.57-29.398-3.1211-2.5703-13.422-19.777-21.004-32.359-11.109-18.953-21.863-38.117-33.102-57.004-8.3281-14.266-17.172-28.32-28.266-40.625-21.215-24.355-49.871-41.594-80.527-51.281-16.867-4.2188-34.395-5.8203-51.777-5.3828-15.477-1.7461-31.113-1.1992-46.621 0.19141-7.375 0.58203-14.762 1.5039-22.074 2.8164-0.78906-16.934-0.72656-28.656 5.4023-44.359 1.9102-6.0312 8.1484-15.848 12.062-25.035 1.2617-2.4727 1.1328-5.6445-0.83984-7.6953-1.5508-1.6172-3.8164-2.2148-5.9844-2.3945-0.45312-0.066406 0.45312 0.066407 0.85938 0.12891-2.6367-0.42188-5.3203-0.097657-7.9727 0.015624-0.89062 0.66406-10.219-1.4727-13.082 3.5742-3.3633 10.527-4.2695 21.816-4.8984 32.828-0.13281 2.7969-0.16406 5.5977-0.14844 8.4102-0.078125-0.03125-0.14453-0.046874-0.22656-0.082031-5.8516-4.6562-11.656-9.0078-17.867-10.609-11.625-3.2344-23.965-4.3789-35.832-1.8086-6.9531 1.4727-13.617 3.9922-20.359 6.1758-6.8086 2.3945-10.641 3.2852-15.137 6.293-4.9648 5.3984 3.1211 9.6367 7.5039 11.449 5.4336 2.2812 10.898 4.4961 16.527 6.2578 7.582 2.2148 15.508 2.8477 23.348 3.4766 6.9688 0.45312 14.02 0.77734 20.926-0.53516 5.2383-0.77344 10.219-2.5859 15.039-4.7383 0.097656-0.03125 0.22656-0.09375 0.37109-0.14453 0.30859-0.11328 0.875-0.32422 1.3438-0.51563 1.7109-0.67969 3.4766-1.4258 4.7695-1.9727 0.082031 1.7617 0.17578 3.5391 0.25781 5.3008 0.30859 6.1953 0.63281 12.469 2.4258 18.422-16.398 3.9453-32.227 10.09-46.57 19.164-28.25 18.078-52.684 42.434-71.781 69.941-17.012 28.832-20.906 63.02-23.754 95.785-0.89062 31.242 1.6992 59.203-3.4766 78.805-7.793 36.707-25.453 57.746-35.98 99.922-1.9062 10.527-3.3281 21.219-3.2969 31.922 0.21094 10.836 1.875 21.59 3.9297 32.23 6.7266 34.219 21.828 66.824 44.613 93.297 7.957 9.5703 17.094 18.125 27.07 25.566-0.80859-0.63281-1.6172-1.2461-2.4258-1.875 13.551 11.223 29.121 19.535 45.195 26.52 13.762 6.1953 27.715 12.145 42.562 15.203 36.574 6.9688 74.172 3.6055 111.02 0.87109 28.59-2.5039 57.293-4.4961 85.59-9.4453 25.309-4.7188 50.34-11.641 74.109-21.602 40.41-16.867 78.781-43.551 102.04-81.312 34.848-63.215 34.816-146.42 1.7305-219.66zm-493.33 96.805c-1.0977 0.74219-2.1484 1.5508-3.1523 2.4102 1.3281-3.4297 2.7969-6.9727 4.4141-10.691-0.46875 2.7656-0.87109 5.5156-1.2617 8.2812zm88.34-65.852c-0.67969-0.61328-1.375-1.1953-2.1172-1.7305 0.74219-2.4102 1.4883-4.8203 2.2305-7.2266 0.046875 1.9375 0.11328 3.8945 0.16016 5.8359-0.078124 1.0352-0.17578 2.0859-0.27344 3.1211zm256.11-126.27c-2.0391-4.25-4.1562-8.4883-6.3711-12.711 0.03125-0.12891 0.0625-0.25781 0.09375-0.40234 2.6055 4.3164 5.1758 8.7656 7.7305 13.359-0.48438-0.082031-0.96875-0.16406-1.4531-0.24609zm15.91 383.59c1.9062-0.73047 3.8008-1.4414 5.7578-2.2344 4.9609-1.9375 10.008-3.75 15.055-5.5469-6.7461 2.8008-13.68 5.418-20.812 7.7812zm-419.06-189.16c-2.4219-17.887-8.2305-35.059-12.141-52.641-5-26.164-5.7422-30.176-6.1953-63.082-0.67969-44.344 2.1172-89.156-6.6602-132.92-4.2539-21.395-12.793-41.852-23.836-60.609-8.3789-14.086-17.949-27.539-29.203-39.477-13.602-12.727-28.574-24.094-44.375-33.957-12.82-7.2773-26.551-12.922-40.746-17.031 2.8945-9.5586 5.207-19.309 6.7422-29.156 11.867 2.3125 30.738 5.3047 43.465 2.2969 8.8125-1.1484 16.914-5.2422 23.496-11.16 7.1328-6.0312 12.758-13.18 15.977-17.902 2.5391-4.3633-0.80859-8.7148-5.5469-8.7461-0.22656-0.019531-0.4375 0-0.64453 0.03125-0.13281-0.14453-1.0859-0.22656-2.6055-0.35547-0.11328-0.015625-0.19531-0.015625-0.25781-0.03125-0.21094-0.035156-0.42187-0.066406-0.63281-0.097656 3.25 0.40234-2.875-0.45312-4.0898-0.58203-4.4805-0.50391-7.6016-1.0039-14.602-1.2148-9.7656-0.03125-19.422 2.4414-28.621 5.5625-8.8281 2.7656-17.094 7.0859-24.047 13.18 0.29297-7.582 0.03125-15.215-0.90625-22.816-0.43359-4.0273-1.3086-10.109-1.2109-10.512-0.51953-2.6055 0.90625-4.4648-2.9258-7.6016-1.375-0.77734-2.9766-0.98438-4.5273-1.0195-3.3477 0-1.3906-0.0625-5.8086 0.46875 2.8164-0.38672-1.5977 0.082031-2.6992 0.26172-1.8125 0.24219-3.5078 1.2617-4.4453 2.8438-1.8438 4.0586-0.015626 8.6836 0.53125 12.875 1.7461 9.3125 2.2969 13.098 3.043 21.023 0.83984 9.2656 1.3242 19.129 0.95312 28.266-0.82422 7.6836-1.9727 14.848-3.3789 21.152-7.4883-1.6328-15.074-2.8633-22.672-3.6055-10.672-1.1172-21.426-1.5703-32.082-0.55078-0.45312-0.0625-0.92188-0.11328-1.375-0.17578-15.816-1.8594-31.809 0.12891-47.41 2.8125-11.727 3.2656-22.914 8.6016-33.312 14.895-15.703 10.594-30.852 22.461-43.125 37-21.848 27.152-38.164 58.25-53.121 89.59-8.8633 18.727-20.406 35.918-31.664 53.254-13.211 20.395-13.855 20.637-20.293 28.512-10.621 12.371-23.398 22.625-34.734 34.301-28.297 31.871-42.461 45.199-58.891 68.309-8.8789 12.758-15.508 26.941-22.008 41.012-4.0742 10.188-10.543 21.086-10.027 32.246-0.16016 1.3242-0.30469 2.6328-0.40234 3.9609-0.32422 4.2031-0.35547 8.4258-0.22656 12.629-0.12891 1.5039-0.25781 3.0391-0.24219 4.5625-0.59766 15.055 0.38672 30.273 2.6523 45.133 0.83984 6.4062 1.7461 12.793 3.457 19.02 2.2188 7.3906 5.0781 14.57 8.1367 21.652 0.75781 2.0391 1.5039 4.0898 2.7461 5.8398 8.168 15.879 18.289 30.707 29.094 44.906 9.7812 13.148 20.551 25.699 33.957 35.254 28.281 20.328 58.715 38.184 91.555 50.035 18.273 5.9844 37.422 8.4414 56.16 12.453 19.375 3.9453 38.648 8.5234 58.375 10.348 19.809 2.1367 39.781 2.1523 59.672 2.2812 52.926 0.25781 99.559-4.6719 146.99-30.109 17.625-10.027 33.988-22.203 49.512-35.207 8.5234-7.5508 15.039-17.043 21.605-26.277 6.4336-9.4453 11.707-19.648 15.945-30.258-0.71484 1.6797-1.4258 3.3789-2.1367 5.0625 0.082031-0.17969 0.17969-0.33984 0.24219-0.51953 2.8477-6.5977 5.6758-13.227 7.6328-20.164 10.461-40.82 7.9062-83.934 1.8906-125.25zm-505.82-43.016c-3.1367 4.9141-6.2266 9.8633-9.2969 14.828 1.5508-2.7188 3.1367-5.4336 4.7539-8.1172 1.5195-2.4414 3.0859-4.8672 4.7188-7.2461-0.046875 0.16016-0.11328 0.35547-0.17578 0.53516z" fill="#a2bf67"/>
 </g>
 <path d="m1123.5 665.58c-7.1016-14.488-16.43-27.848-27.102-40.105-8.0234-8.9766-16.754-17.352-24.727-26.359-2.9102-2.3125-12.5-17.723-19.566-29.012-10.348-16.996-20.344-34.188-30.805-51.117-7.7461-12.793-15.977-25.391-26.309-36.438-19.746-21.832-46.426-37.289-74.965-45.992-15.703-3.7812-32.02-5.2227-48.188-4.832-14.395-1.5703-28.961-1.0703-43.402 0.17578-26.148 1.9883-52.281 8.2656-74.629 21.879-26.293 16.223-49.027 38.055-66.812 62.73-15.832 25.859-19.473 56.504-22.121 85.887-0.82812 28.027 1.582 53.094-3.2539 70.656-7.2578 32.91-23.688 51.781-33.488 89.605-1.7773 9.4453-3.1055 19.02-3.0703 28.625 0.19141 9.7188 1.7461 19.355 3.6523 28.898 6.2578 30.676 20.312 59.914 41.527 83.656 7.4062 8.5859 15.91 16.25 25.191 22.93-0.75781-0.56641-1.5039-1.1133-2.2617-1.6797 12.613 10.059 27.117 17.512 42.074 23.785 12.809 5.5469 25.809 10.887 39.617 13.633 34.039 6.2617 69.047 3.2344 103.36 0.79297 26.617-2.2461 53.328-4.0273 79.672-8.4727 23.559-4.2383 46.859-10.445 68.98-19.375 37.613-15.117 73.336-39.055 94.969-72.898 32.473-56.699 32.457-131.32 1.6523-196.97zm-459.21 86.793c-1.0312 0.66406-2.0039 1.3906-2.9414 2.168 1.2461-3.0742 2.6055-6.2578 4.1094-9.5742-0.4375 2.457-0.82813 4.9336-1.168 7.4062zm82.227-59.043c-0.62891-0.55078-1.2773-1.0664-1.9727-1.5508 0.69531-2.168 1.3906-4.3203 2.0859-6.4844 0.050782 1.7461 0.097657 3.4922 0.14844 5.2383-0.082031 0.92188-0.17969 1.8594-0.26172 2.7969zm238.4-113.21c-1.8906-3.8164-3.8633-7.6172-5.9336-11.402 0.03125-0.11328 0.0625-0.24219 0.097657-0.35547 2.4258 3.8789 4.8164 7.8594 7.1953 11.984-0.46875-0.097656-0.92188-0.17969-1.3594-0.22656zm14.797 343.95c1.7773-0.64844 3.5391-1.293 5.3516-2.0078 4.625-1.7461 9.3125-3.3633 14.004-4.9648-6.2578 2.5078-12.711 4.8516-19.355 6.9727zm-438.77-165.97c-2.1836-16.156-7.4219-31.664-10.965-47.547-4.5117-23.625-5.1875-27.25-5.5938-56.973-0.61328-40.055 1.9102-80.535-6.0156-120.04-3.832-19.328-11.547-37.812-21.523-54.742-7.5664-12.711-16.219-24.871-26.371-35.66-12.273-11.496-25.809-21.766-40.09-30.676-21.02-11.934-44.742-19.211-68.789-21.559-9.6367-1-19.355-1.4219-28.977-0.48438-0.41797-0.046875-0.82422-0.097657-1.2422-0.16016-14.281-1.6836-28.719 0.11328-42.82 2.5391-10.594 2.9414-20.699 7.7617-30.078 13.453-14.18 9.5742-27.859 20.281-38.938 33.41-19.746 24.535-34.477 52.605-47.977 80.922-8.0078 16.918-18.438 32.441-28.59 48.098-11.934 18.418-12.516 18.629-18.32 25.742-9.5898 11.176-21.137 20.441-31.371 30.988-25.566 28.785-38.359 40.832-53.188 61.691-8.0195 11.516-14 24.34-19.887 37.051-3.6719 9.2031-9.5273 19.035-9.0586 29.125-0.14453 1.1953-0.27344 2.3789-0.37109 3.5742-0.28906 3.8008-0.30469 7.6016-0.21094 11.418-0.11328 1.3555-0.24219 2.7461-0.20703 4.1055-0.55078 13.602 0.33984 27.348 2.3906 40.77 0.76172 5.7734 1.5703 11.562 3.1367 17.176 2.0078 6.6758 4.5938 13.164 7.3594 19.566 0.69531 1.8438 1.3594 3.7031 2.4727 5.2734 7.375 14.344 16.512 27.734 26.277 40.559 8.8281 11.867 18.562 23.203 30.676 31.84 25.535 18.355 53.023 34.477 82.695 45.184 16.512 5.4023 33.797 7.6172 50.727 11.238 17.496 3.5742 34.895 7.6992 52.715 9.3477 17.887 1.9258 35.914 1.9414 53.898 2.0547 47.797 0.22656 89.922-4.2227 132.76-27.199 15.91-9.0586 30.691-20.055 44.727-31.797 7.6992-6.8242 13.586-15.395 19.52-23.738 5.8203-8.5234 10.574-17.738 14.391-27.328-0.64844 1.5195-1.293 3.0391-1.9258 4.5742 0.082031-0.16016 0.16406-0.30859 0.22656-0.46875 2.5742-5.9688 5.1289-11.949 6.8906-18.207 9.3789-36.855 7.082-75.797 1.6484-113.12zm-456.86-38.863c-2.8281 4.4492-5.625 8.9141-8.3906 13.391 1.4062-2.457 2.8281-4.8984 4.3008-7.3242 1.375-2.2148 2.7812-4.3984 4.2695-6.5508-0.066406 0.16406-0.11328 0.32422-0.17969 0.48438z" fill="#ebe8b9"/>
 <path d="m921.63 889.54c0.12891-0.015624 0.25781-0.03125 0.40625-0.046874-0.33984 0.0625-0.82422 0.14453-1.375 0.20703 0.32422-0.0625 0.64453-0.11328 0.96875-0.16016zm124.19-122.05c-1.1484-13.422-5.1289-26.23-10.805-38.406-3.3281-7.5039-6.5156-15.121-10.641-22.223-3.3945-5.5469-7.5508-10.59-11.594-15.652-30.109-34.852-80.125-54.012-125.76-46.801-0.78906 0.11328-1.5977 0.24219-2.3906 0.35547-7.082 0.03125-14.395 1.8281-21.297 2.6523-8.9102 1.5195-17.805 3.9297-25.988 7.8125-4.4141 1.7461-8.3242 4.7031-12.125 7.4688-5.7891 4.4648-11.742 8.7812-16.836 14.07-5.2539 5.9688-10.121 12.324-14.586 18.887-1.1641 1.8125-2.0664 3.7695-2.7969 5.7891-1.7773 3.6562-3.4609 7.3594-5.0117 11.129-6.7109 14.941-9.3477 31.227-13.711 46.93-2.6055 9.6875-4.4336 19.648-4.7227 29.707 0.097656 8.8438 1.3594 17.645 2.957 26.344 3.5586 14.035 9.5078 27.684 18.305 39.246 1.375 1.8789 2.8008 3.7539 4.3828 5.418-0.046875-0.03125-0.097656-0.078125-0.14453-0.11328 1.1797 1.3906 2.3945 2.7812 3.6875 4.0781 14.555 15.055 34.215 24.773 54.801 28.203 3.6055 0.69531 7.1953 1.2109 10.801 1.0508-0.54688 0.078125-1.082 0.14453-1.6328 0.22656 4.543 0.64453 9.1367 0.83984 13.73 0.88672 15.539 0.19531 30.902-2.375 46.199-4.8516-0.69531 0.097656-1.4883 0.19531-2.1836 0.26172 1.0508-0.12891 2.1016-0.27734 3.1523-0.42188 0.21094-0.03125 0.42188-0.066406 0.63281-0.097656-0.066406 0.015625-0.14844 0.03125-0.24609 0.050782 8.7812-1.1992 17.531-2.8789 26.18-4.918 27.102-7.6172 52.992-21.75 72.59-42.125 0.69531-0.80859 1.3438-1.6367 2.0234-2.4609 1.3086-1.2109 2.6016-2.4414 3.8477-3.7344 10.383-11.645 16.961-26.652 19.082-42.062 1.7148-8.8477 1.1797-17.82 0.097656-26.699zm-588.54 14.895c-2.25-21.461-7.5039-42.516-15.961-62.375-11.434-29.398-29.801-57.312-57.262-73.855-16.672-10.445-35.492-17.547-54.93-20.684-1.6328-0.62891-3.2812-1.2305-4.9648-1.793-15.992-5.0625-32.84-3.9961-49.172-1.3125-36.707 4.3672-69.727 25.828-94.582 52.414-16.77 18.613-31.34 39.246-39.117 63.277-2.5391 9.1055-3.5742 18.648-4.0898 28.074-0.03125 8.4102 1.3906 16.77 2.8633 25.035 2.6328 12.16 7.3086 23.949 13.453 34.77 4.9648 8.1484 11.109 15.523 17.238 22.816 14.68 17.387 31.418 33.41 51.762 43.953 14.066 7.3125 28.797 13.828 44.371 17.129 24.367 4.6875 49.141 7.3906 73.977 6.9688 22.77-0.015626 46.168-5.1445 65.41-17.66 29.301-19.211 48.918-51.941 51.859-86.891 1.2148-9.9297 0.37109-19.973-0.85547-29.867z" fill="#ab7660"/>
 <path d="m782.16 594.96c-2.3789-0.56641-3.1211-3.0742-4.2031-4.9648-1.4883-2.7969-3.2188-5.4805-5.0625-8.0547-0.59766-0.78906-2.5078-3.6055-5.0625-4.9961-3.6523-2.1484-9.1523-2.5859-11.465-0.89062-3.6055 1.9922-6.8711 10.934-6.7734 19.293 0.19141 3.8008 0 2.5547 0.66016 5.4336 0.82812 2.6523-1.6953 5.6289-4.4453 5.0625-2.1523-0.12891-3.5898-2.2461-3.5586-4.3008-0.03125-0.55078-0.24219-1.3594-0.43359-4.1562-0.39062-8.0195 0.90234-16.625 5.5117-23.367 5.5781-8.9609 17.367-8.5391 25.664-3.7695 6.6602 4.1875 10.477 11.484 14.164 18.195 2.0703 3.2656-1.3242 7.6641-4.9961 6.5156zm161.27-43.293c-5.9023-11.902-15.828-30.191-31.82-24.012-13.324 5.5938-18.34 22.039-17.465 35.352 1.4531 4.043 7.9062 2.7148 7.7617-1.5703 0.27344-14.004 6.3047-26.297 14.988-27.297 6.9375-0.35547 11.855 5.918 17.176 16.219 1.5352 3.2344 1.0664 1.9414 2.375 5.5156 0.30859 0.83984 0.71094 1.7148 1.5039 2.1836 4.1719 3.1367 8.8438-2.5078 5.4805-6.3906zm-73.492 45.785c-0.61328-3.3672-0.42188-7.8594-2.0234-10.805-2.3281-3.3633-7.9375-0.53516-6.7266 3.3477 2.1211 9.8008 1.3281 17.027-3.168 20.148-5.8203 4.2383-15.395-0.11328-19.695-6.9375-2.7188-4.832-1.375-2.2305-2.7969-6.0156-0.25781-1.3398-0.97266-2.6016-2.1836-3.2969-5.1445-2.2969-8.1484 2.8125-5.5469 7.5039 4.5586 12.094 18.805 22.137 31.695 16.703 7.7461-3.4922 11.203-12.582 10.445-20.648zm-84.926-223.14c-7.5195-1.7461-14.992-3.7539-22.672-4.6602-8.0547-1.0508-16.203-0.98438-24.32-1.4219-7.7461-0.38672-15.492-0.41797-23.238 0.14453-1.0664 0.066406-2.2617 0.24609-2.8125 1.2969-0.80859 1.3086-0.050782 3.1367 1.4375 3.5234 1.668 0.14453 3.6055-0.21094 6.5352-0.25781 14.406-0.11328 30.094 0.015625 40.523 2.0039 6.0312 1.1172 11.883 2.9766 17.754 4.707 2.4727 0.35547 5.1758 2.1016 7.582 0.89062 2.5898-1.375 2.0547-5.5469-0.78906-6.2266zm-488.62 153.19c-2.3281-4.7031-4.8984-9.3477-8.1641-13.469-3.3945-4.1562-7.293-7.9102-11.836-10.77-1.9102-1.0703-3.7188-3.1875-6.0977-2.4922-3.0898 0.74609-3.6875 5.2734-0.89062 6.793 6.7461 4.043 11.352 8.2461 15.09 13.73 1.9727 3.0703 4.043 6.6133 5.3984 9.3945-6.5977-2.6055-15.602-6.3867-23.398-8.1992-2.0039-0.46875-4.2539-1.5039-6.1914-0.32422-2.3125 1.2773-2.7188 4.6758-0.84375 6.5 3.2852 2.2656 4.0273 0.90625 8.7031 2.332 4.5898 1.0352 8.9727 2.7656 13.371 4.4141 5.2891 1.6953 6.3398 3.4922 12.547 4.4141 6.8594-0.5 4.5781-8.2656 2.3125-12.324zm150.45 27.621c-9.3594-10.965-24.691-8.6484-33.859 1.2773-2.5391 2.9609-8.1992 8.1211-3.25 11.453 2.6211 1.5352 5.1602-0.35938 6.3867-2.7031 0.77734-1.1172 0.875-1.2109 3.0742-3.5742 3.25-3.2031 4.2344-3.5234 8.2617-5.125 0.55078-0.25781 2.4102-0.66406 3.25-0.85938 4.043-0.046875 4.2227 0.29297 7.6172 2.0234 3.6367 2.457 3.8477 2.7969 5.4492 10.203 0.69531 3.9609 0.59766 4.5273 1.3086 9.6406 0 0.98437 0.40625 1.957 1.1016 2.6523 2.1992 2.3594 6.5312 0.58203 6.418-2.6523-1.2461-7.5195-0.96875-15.98-5.7578-22.336zm-83.84 21.93c-4.2695 10.125-9.5586 16.691-16.48 18.906-8.9883 2.3594-17.012-3.2695-19.793-12.164-2.0039-5.2539-2.0508-11.867-1.6016-14.957 0.13281-4.043-5.6562-5.6133-7.6133-2.0547-1.375 3.3984 0.015625 7.7148 0.25781 11.305 1.4727 10.383 7.4688 21.523 18.258 24.355 15.797 4.332 27.473-8.4922 32.84-21.945 2.1836-3.8477-3.6055-7.2461-5.8672-3.4453zm136.28-274.07c-6.4688 1.8438-13.098 2.8438-19.566 4.6719-9.1836 2.6055-18.547 4.4805-27.715 7.1172-5.5156 1.1133-11.059 2.1172-16.363 4.0742-1.375 0.51562-3.0586 0.75781-3.8164 2.168-1.5391 2.4414 1 5.7734 3.7656 4.8984 5.8398-2.3789 11.805-4.2695 17.887-5.8711 4.7695-1.7617 9.6367-3.2344 14.617-4.2695 6.5977-1.6484 13.098-3.6523 19.68-5.3828 3.4453-0.60156 11.109-2.3633 12.355-2.8164 4.832 0.30859 3.7969-5.9648-0.84375-4.5898z"/>
 <path d="m767.61 681.21c-7.1289 5.1758-15.297 8.5078-23.801 10.754-6.0977 2.5742-12.5 3.7383-19.035 3.4609-16.008 2.1836-29.379-2.6992-32.484-16.719-2.6836-15.121 6.9219-29.465 20.633-38.262 6.7578-4.3984 14.879-6.6328 22.703-7.4883 10.27-2.2305 20.875-1.5195 28.879 1.5195 23.594 6.8086 21.621 32.164 3.1055 46.734zm253.63-86.758c-0.79297 3.8789-2.5195 7.582-5.0781 10.512-3.25 4.1367-7.793 6.9531-12.48 9.2656-6.8398 4.3984-14.41 7.7305-22.414 9.2656-6.9023 1.4375-14.004 1.6172-21.02 1.0508-2.0391-0.0625-4.0273-0.30859-5.918-0.74219-0.94141-0.11328-2.0703-0.26172-3.6094-0.46875-0.37109-0.035156-0.74219-0.082032-1.0977-0.12891-12-2.9766-16.09-13.504-14.328-23.273 2.6055-17.078 27.586-32.18 46.992-34.363 3.4609-0.33984 5.7891-0.73047 11.625-0.95312 4.1094 0.015625 8.1367 1.1289 11.871 2.8125 11.82 4.6562 18.949 15.395 15.457 27.023zm-32.355-9.3984c-5.2227-1.4531-10.594-0.27344-15.312 2.2812 4.832-1.9883 10.121-2.8945 15.312-2.2812zm-730.79-23.738c3.4609 7.8906 5.8867 17.562 2.0352 25.73-7.293 15.41-23.98 16.559-38.34 12.727-2.5703-0.46875-5.0586-1.3281-7.4375-2.4922-3.6211-1.4531-6.9062-3.168-9.6055-4.9297-3.7344-1.7656-7.0977-4.0625-9.0391-7.7305-3.8008-4.0273-6.9531-8.6875-8.5391-14.008-2.6016-10.379 3.6719-21.637 13.586-25.422 1.2773-0.48437 2.5859-0.88672 3.9102-1.1953 11.629-4.8672 27.363-2.9258 38.211 2.6836 6.1133 3.625 12.047 8.1016 15.219 14.637zm-48.641-5.2891c-0.79297-0.33984-1.4062-0.9375-1.8281-1.6484-1.3594 0.74219-2.6055 1.6797-3.6719 2.8125 1.7461-0.61328 3.5898-0.98437 5.5-1.1641zm27.988 11.289c-2.2773-2.9922-5.3516-5.918-8.8906-8.2812 0.03125 0.050782 0.078125 0.082032 0.09375 0.12891 0.84375 0.64844 1.6016 1.3906 2.2344 2.2656 0.11328 0.17578 0.19141 0.35547 0.27344 0.53516 2.3945 1.5664 4.5273 3.3633 6.2891 5.3516zm251.86 61.129c2.3438 11.156-2.9102 18.645-10.914 22.867-3.6719 2.4414-8.0039 4.2695-12.66 5.2852-13.617 2.3477-28.234-0.85547-39.781-8.375-3.75-2.6055-7.0508-5.7891-10.316-8.9766-2.7969-3.4102-3.5898-3.3945-5.707-8.7148-2.6211-7.8125 0.54688-16.332 5.9805-22.172 6.1797-5.7266 14.879-8.1992 23.156-8.5078 11.402-0.5 26.066 3.8008 36.836 11.613 4.8516 2.4727 8.7969 6.0625 10.883 11.027 0.27734 0.60156 0.46875 1.1641 0.69531 1.7461 0.69531 1.375 1.3438 2.7656 1.8281 4.207zm-10.801 11.062c-0.5 0.17578-1.0352 0.28906-1.5703 0.35547-0.41797 0.87109-0.90625 1.7109-1.5195 2.4727 1.2148-0.82422 2.25-1.7617 3.0898-2.8281zm119.74-326.57c2.2617 1.0508 5.1094 0.88672 7-1.1484 18.871-17.238 33.781-39.992 37.258-65.691 1.082-8.8281 3.0898-17.82 0.875-26.633-4.4805-20.668-19.051-37.391-38.375-18.824-6.8398 7.0195-10.738 16.156-13.938 25.324-3.4141-3.4922-7.3086-6.5156-11.367-9.25-8.832-6.2578-19.469-10.43-30.434-8.8789-16.09 1.1992-24.5 13.715-23.898 29.16 0.83984 12.742 3.0391 17.562 10.492 28.379 9.9766 13.762 22.703 25.262 36.836 34.609 5.0117 3.3477 10.383 6.1289 15.605 9.1367 2.9766 1.6172 6.5156 3.7656 9.9453 3.8164zm198.07-91.5c9.0391 12.355-1.8125 25.422-12.336 32.312-11.547 8.1016-25.277 12.129-37.793 18.434-7.4844 3.4297-14.746 7.3086-21.879 11.402-3.6836 2.0547-7.5 3.8477-11.414 5.418-2.6836 1.1484-6 1.6797-8.6523 0.14453-4.043-2.25-5.4961-6.8398-6.5664-11.047-1.6172-5.7891-2.9727-11.66-3.9297-17.594-2.1641-12.402-3.5391-25.098-1.3711-37.598 2.7305-16.609 8.1172-40.398 27.246-44.375 13.016-2.3477 20.293 8.1172 24.043 19.453 2.5586 4.8203 3.7383 11.16 4.2539 17.352 7.5195-4.5742 16.656-6.6133 25.355-7.1133 9.2188 0.21094 17.496 6.1914 23.043 13.211zm-22.785 0c-2.6836 0.12891-3.1367 0.21094-3.7812 0.35547 0.77344 0.03125 1.5352 0.12891 2.2461 0.30859 0.35547 0.015625 0.71094 0.046875 1.0508 0.097656 0.12891-0.27734 0.30859-0.51953 0.48438-0.76172zm-99.105 152.24c-9.5117-8.3906-21.348-5.1719-30.242 2.3281-2.2773 1.6367-7.3398 5.8242-12.352 10.547-6.0664-11.145-14.035-20.379-23.27-23.078-24.191-6.9375-38.777 16.156-30.223 37.551 3.8633 9.2188 10.023 17.336 16.574 24.809 6.418 6.6289 14.051 13.5 16.688 17.789 2.7812 3.7344 6.9062 9.1016 12.031 6.5781 1.1484-0.17578 2.3438-0.67578 3.543-1.6953 10.121-8.5234 20.129-17.176 30.254-25.699 7.082-5.9023 14.375-11.77 19.16-19.809 6.2734-9.2656 6.6953-21.523-2.1641-29.32z" fill="#ffab9d"/>
</svg>
