<?xml version="1.0" encoding="UTF-8"?>
<svg width="1587" height="1587" version="1.0" viewBox="0 0 1190.2 1190.2" xmlns="http://www.w3.org/2000/svg" zoomAndPan="magnify">
 <defs>
  <clipPath id="a">
   <path d="m0 0h1189.5v1189.5h-1189.5z"/>
  </clipPath>
 </defs>
 <g clip-path="url(#a)" fill="#fff">
  <path d="m0 0h1189.5v1189.5h-1189.5z"/>
  <path d="m0 0h1189.5v1189.5h-1189.5z"/>
 </g>
 <path d="m574.02 222.57c63.203-98.973 204.25-103.59 325.25-54.844 160.81 64.773 311.59 434.73 0 523.19 41.973 110.48 57.895 172.79 55.93 292.9l-399.85 35.875s-14.742-264.59-17.004-355.11c288.78-209.16 35.68-442 35.68-442" fill="#fff"/>
 <path d="m715.27 445.3c2.9492-3.9336 8.5508 1.2773 5.6016 5.2109-4.9141 6.6836-9.8281 13.367-14.742 19.949-2.9492 3.9336-8.5508-1.2773-5.6016-5.207 4.9141-6.5859 9.8281-13.27 14.742-19.953zm24.473-1.5742c-6.9766 11.012-14.055 21.918-21.031 32.93-2.6562 4.125 4.125 7.7617 6.7812 3.6367 6.9766-11.012 14.055-21.922 21.035-32.93 2.6523-4.2266-4.2266-7.8633-6.7852-3.6367zm30.375-8.2539c-9.6328 16.215-19.168 32.336-28.801 48.555-2.5547 4.2266 4.2266 7.8633 6.7812 3.6367 9.6328-16.219 19.168-32.34 28.801-48.555 2.457-4.2266-4.3242-7.8633-6.7812-3.6367zm15.727 10.516c-7.2734 13.367-14.547 26.734-21.82 40.102-2.3594 4.3242 4.4219 7.9609 6.7812 3.6367 7.2734-13.367 14.547-26.734 21.82-40.102 2.3594-4.3242-4.4219-7.9609-6.7812-3.6367zm31.746-17.789c-10.613 17.496-21.23 35.09-31.844 52.582-2.5586 4.2266 4.2266 7.8633 6.7812 3.6367 10.613-17.492 21.23-35.086 31.848-52.582 2.5547-4.2266-4.3281-7.8633-6.7852-3.6367zm15.727 6.6836c-11.301 13.27-20.836 28.012-28.309 43.738-2.1602 4.4219 4.6211 8.0586 6.7852 3.6367 7.2734-15.137 16.316-29.289 27.227-42.168 3.1445-3.7344-2.5547-9.0391-5.7031-5.207zm16.316 4.3242c-6.5859 12.48-13.859 24.473-21.918 36.07-2.8516 4.0312 4.0312 7.5703 6.7812 3.6367 8.0625-11.5 15.336-23.59 21.922-36.07 2.2578-4.4219-4.5234-8.0586-6.7852-3.6367zm8.8477 13.562c-3.5391 7.0781-6.9805 14.156-10.516 21.23-2.1641 4.4219 4.6172 8.0586 6.7812 3.6367 3.5391-7.0742 6.9766-14.152 10.516-21.23 2.1641-4.4219-4.6172-8.0586-6.7812-3.6367z" fill="#f2aaa2"/>
 <path d="m734.92 456.21c-24.473-8.7461-51.996-4.1289-71.652 13.07-7.9609 6.9805-19.66-4.6172-11.598-11.598 16.316-14.25 37.152-22.113 58.383-22.211-15.234-9.8281-33.125-15.137-51.898-14.742-10.613 0.19531-10.613-16.316 0-16.414 32.438-0.49219 63.891 13.465 84.828 38.332 4.7188 5.5039 0.29297 16.512-8.0625 13.562zm196.78 1.375c-16.316-14.25-37.152-22.113-58.383-22.211 15.234-9.832 33.121-15.137 51.895-14.746 10.617 0.19922 10.617-16.312 0-16.414-32.434-0.48828-63.887 13.469-84.824 38.332-4.8164 5.7031-0.39453 16.711 7.9609 13.762 24.477-8.7461 51.996-4.1289 71.656 13.074 7.9609 6.7812 19.656-4.8164 11.695-11.797zm-186.56 43.938c7.1758 15.43 15.238 30.957 25.262 44.816 8.0625 11.109 19.266 21.723 34.008 20.348 32.242-2.9492 38.629-48.949 36.469-73.816-0.88672-10.418-17.398-10.516-16.414 0 1.1797 12.777 0.19531 25.555-3.9336 37.844-2.8516 8.4492-9.8281 21.621-20.641 19.461-10.617-2.0664-17.398-15.336-22.508-23.59-6.5859-10.812-12.484-22.016-17.891-33.418-4.6211-9.5352-18.773-1.2773-14.352 8.3555z"/>
 <path d="m135.54 987.26c-24.375-118.54-18.477-243.07 16.809-358.75-56.715-39.609-121-91.211-121-160.3 0-326.71 294.97-328.18 361.12-320.12 340.29 41.281 348.84 434.82 145.86 516.6-6.9766 2.8516-2.75 14.84-2.3594 22.312 6.4883 110.87 12.879 221.84 19.363 332.7z" fill="#fff"/>
 <path d="m1065.2 576.21c-30.863 61.922-90.82 99.961-155.11 120.11 16.809 44.523 32.438 89.641 41.875 136.43 9.9258 49.73 12.383 100.45 11.598 151.07-0.19531 10.617-16.613 10.617-16.414 0 0.78516-49.93-1.3789-99.957-11.402-149-9.9297-48.555-26.637-95.438-44.23-141.63-1.5742-4.2266 1.7695-8.9453 5.6992-10.125 9.5352-2.75 18.969-5.7969 28.309-9.2383 59.27-22.215 111.27-63.789 133.58-124.43 19.953-54.059 16.023-113.82-0.19531-168.27-16.316-54.844-45.312-107.04-84.434-148.91-17.203-18.379-36.566-34.988-58.582-47.375-33.32-18.773-73.129-28.895-110.58-34.891-79.812-12.68-171.32 1.6719-220.47 71.355 20.938 18.773 39.219 40.496 53.961 64.676 27.523 45.309 42.168 98.289 42.758 151.27 0.58984 49.832-11.203 100.35-36.465 143.5-12.09 20.738-27.426 39.805-45.512 55.629-9.2383 8.0625-19.164 15.434-29.684 21.723-5.0117 3.0469-10.223 5.8008-15.527 8.3555-2.8516 1.375-5.8008 2.6523-8.75 3.9297-4.6172 1.9688-3.4414 1.082-2.75 6.5859 3.1445 27.129 3.9297 54.551 5.5039 81.777 1.668 28.797 3.3398 57.598 5.0117 86.492 3.3438 58.188 6.7812 116.38 10.125 174.56 0.58984 10.617-15.824 10.52-16.414 0-1.5742-27.715-3.2461-55.434-4.8164-83.148-3.3438-56.516-6.5859-113.13-9.9297-169.65-1.5703-27.125-1.7695-54.746-4.8164-81.773-0.88281-8.0586-3.6367-17.594 2.457-24.473 3.9336-4.4258 11.5-6.1953 16.711-8.75 41.871-20.344 73.816-55.73 93.672-97.5 20.641-43.348 27.816-92.688 23.59-140.26-4.5195-51.012-23.297-100.45-53.863-141.54-34.699-46.492-84.434-79.91-138.98-98.582-40.398-13.859-82.762-20.738-125.52-19.758-39.414 0.98438-78.73 7.1758-116.18 19.66-45.707 15.332-87.875 40.887-119.92 77.156-41.086 46.488-61.43 107.33-67.523 168.37-1.9688 19.754-3.9336 40.59-1.6719 60.348 2.2617 20.148 10.812 38.922 22.113 55.531 23.984 35.387 59.664 61.824 94.262 85.906 2.9492 2.0625 4.918 5.6016 3.7383 9.3359-34.699 114.61-40.695 237.07-16.809 354.43 2.0625 10.32-13.762 14.746-15.824 4.4258-24.18-118.54-19.07-241.89 15.039-357.77-15.531-11.008-30.867-22.312-45.312-34.695-31.652-26.934-62.121-60.742-71.363-102.42-4.5195-20.543-3.2422-42.066-1.668-62.805 1.375-18.773 3.832-37.547 7.6641-56.023 12.191-59.074 40.008-114.9 85.023-155.89 36.566-33.32 81.879-55.531 129.45-68.113 37.449-10.027 76.668-14.547 115.39-13.957 50.523 0.88281 101.34 12.777 147.14 33.812 22.605 10.418 43.738 23.488 63.102 38.922 4.5234-6.293 9.3398-12.387 14.547-17.988 62.219-67.328 163.75-72.734 247.79-53.762 35.289 7.9609 71.559 19.262 101.93 39.41 23.195 15.336 43.641 34.699 61.434 55.93 39.414 46.98 68.312 103.89 82.27 163.65 13.762 59.168 12.484 123.25-15.039 178.39z"/>
 <path d="m645.09 810.73c-5.8984 18.773-17.891 35.09-31.551 49.344-22.117 22.996-48.852 41.574-78.145 54.254-14.055-8.9453-77.453-59.168-85.414-68.211-12.387-14.059-19.07-32.535-21.43-51.109-1.5703-12.191-1.1797-25.262 5.3086-35.68 8.2578-13.367 24.574-19.559 40.105-21.328 15.824-1.8672 32.633 0 46.098 8.4531 11.598 7.1719 20.246 19.852 21.328 33.316 1.7695-21.328 17.398-41.082 38.039-47.176 21.625-6.3906 46.887 2.75 59.469 21.426 11.008 16.316 11.988 37.938 6.1914 56.711z" fill="#d95031"/>
 <path d="m646.56 750.78c-0.19531-0.29688-0.39062-0.6875-0.58984-0.98438-0.19531-0.29297-0.49219-0.6875-0.6875-0.98438-15.137-20.637-41.773-31.352-66.938-24.57-16.707 4.5195-29.977 16.219-37.742 30.961-18.871-27.227-62.121-32.633-92.59-18.477-44.035 20.441-30.863 85.707-3.9336 115.19 7.1758 7.8633 16.121 14.449 24.375 21.23 12.879 10.516 25.949 20.836 39.121 31.059 5.3086 4.0312 10.52 8.0586 15.926 11.992 4.6172 3.3398 8.8438 7.4688 14.938 5.6992 11.109-3.2422 22.41-10.613 32.141-16.707 10.617-6.5859 20.645-13.957 30.176-21.918 36.762-30.961 75.488-84.332 45.805-132.49zm-32.535 96.52c-21.523 24.57-48.258 43.934-77.844 57.594-24.281-16.117-46.984-35.578-69.102-54.352-13.859-11.895-23.195-25.164-27.914-43.344-3.1445-12.188-5.4062-26.637-0.78516-38.727 4.2266-11.207 14.938-17.398 26.047-20.445 25.262-6.8789 65.168-0.39063 68.703 31.551 1.1797 10.516 15.336 10.617 16.418 0 1.8672-18.184 15.332-34.793 33.121-39.609 17.988-4.8164 38.336 2.8516 49.051 17.988 19.066 29.977 3.3398 65.262-17.695 89.344z"/>
 <path d="m310.8 435.47c3.4375-4.3242 9.5312 1.7695 6.0938 6.0938-5.8008 7.2734-11.602 14.449-17.398 21.723-3.4414 4.3242-9.5352-1.7695-6.0938-6.0938 5.7969-7.2734 11.598-14.547 17.398-21.723zm27.324-0.78516c-8.3555 11.988-16.711 23.98-24.969 35.875-3.1445 4.5195 4.3281 8.8438 7.4727 4.3242 8.3555-11.992 16.707-23.984 24.965-35.875 3.1445-4.5234-4.3242-8.8477-7.4688-4.3242zm34.402-7.7656c-11.5 17.691-22.902 35.383-34.402 53.074-3.0469 4.6211 4.4219 8.9453 7.4688 4.3242 11.5-17.691 22.902-35.383 34.402-53.074 2.9492-4.6211-4.4219-8.9453-7.4688-4.3242zm17.102 12.48c-8.7461 14.645-17.496 29.289-26.242 43.938-2.8516 4.7148 4.6172 9.0391 7.4688 4.3242 8.7461-14.645 17.496-29.293 26.242-43.938 2.8516-4.7148-4.6172-9.0391-7.4688-4.3242zm36.367-18.477c-12.68 19.164-25.262 38.332-37.941 57.398-3.0469 4.6211 4.4258 8.9453 7.4727 4.3242 12.68-19.164 25.262-38.332 37.941-57.398 3.0469-4.6211-4.4258-8.9453-7.4727-4.3242zm17.301 8.1562c-13.172 14.449-24.574 30.371-33.715 47.672-2.5547 4.9141 4.8164 9.2383 7.4688 4.3242 8.8477-16.609 19.562-32.043 32.34-45.902 3.7344-4.125-2.2617-10.223-6.0938-6.0938zm18.086 5.5039c-7.8633 13.664-16.613 26.734-26.047 39.316-3.3438 4.4219 4.125 8.6484 7.4688 4.3242 9.5352-12.582 18.184-25.652 26.047-39.316 2.6523-4.7148-4.7188-9.0391-7.4688-4.3242zm9.3359 15.629c-4.2266 7.7656-8.4531 15.531-12.68 23.293-2.6523 4.8164 4.8164 9.2422 7.4727 4.3281 4.2266-7.7656 8.4531-15.531 12.68-23.297 2.5547-4.8164-4.8164-9.1406-7.4727-4.3242z" fill="#f2aaa2"/>
 <path d="m199.33 708.51c78.73 22.312 155.7 50.816 229.91 85.316 15.727 7.2734 33.418 17.887 34.695 35.184 0.98438 14.059-10.223 26.344-22.805 32.73-17.691 9.043-38.43 9.9297-58.285 9.1406-71.656-2.75-142.43-24.668-203.07-62.805z" fill="#fff"/>
 <path d="m470.81 838.64c-4.8164 19.266-23.688 31.059-41.676 36.074-18.871 5.3047-38.922 4.6172-58.285 3.3398-21.035-1.4727-41.973-4.4219-62.613-9.043-46.688-10.418-91.605-28.797-132.2-54.156-8.5508-5.4062-1.0781-19.266 7.5703-13.859 33.027 20.641 68.805 36.664 106.35 47.082 36.566 10.223 76.176 17.004 114.21 14.645 16.414-0.98437 35.188-5.0117 46.297-18.281 4.7148-5.6016 7.1758-12.973 4.6172-20.051-2.1602-5.9961-7.2734-10.715-12.383-14.352-6.4883-4.5195-13.664-7.8633-20.84-11.203-9.9258-4.5234-19.855-9.043-29.879-13.367-19.363-8.4531-38.926-16.512-58.582-24.082-44.43-17.199-89.84-32.238-135.64-45.309-9.7305-2.7539-6.1914-18.184 3.6367-15.336 44.234 12.582 87.973 27.031 131.02 43.445 21.332 8.1562 42.562 16.707 63.496 25.848 10.617 4.6211 21.234 9.3398 31.75 14.156 7.9609 3.6367 16.02 7.3711 23.293 12.48 13.371 9.6328 24.281 24.477 19.855 41.969z"/>
 <path d="m886.39 807.98c-60.645 38.137-131.41 60.055-203.07 62.805-19.855 0.78906-40.594-0.097656-58.285-9.1406-12.582-6.3867-23.691-18.676-22.805-32.73 1.1797-17.297 18.969-27.914 34.695-35.188 74.211-34.496 151.17-63 229.91-85.312z" fill="#fff"/>
 <path d="m862.41 829.6c-35.777 22.805-75.977 38.531-118.14 46.492-18.578 3.4414-37.547 5.4062-56.715 5.8008-17.594 0.39062-35.875 0-53.371-5.9961-16.711-5.8008-34.402-18.184-39.809-37.152-4.8164-17.301 4.4219-31.16 16.414-39.906 6.3906-4.6211 13.465-7.8633 20.641-11.008 9.3398-4.2266 18.871-8.3555 28.309-12.289 18.773-7.8594 37.645-15.234 56.812-22.113 38.434-13.957 77.652-26.047 117.56-36.168 8.8438-2.2617 12.777 12.875 4.0273 15.133-41.281 10.52-81.973 23-121.68 37.645-17.594 6.4883-35.09 13.367-52.391 20.742-8.9453 3.7344-17.789 7.6641-26.637 11.598-6.3867 2.8477-12.777 5.7969-18.477 9.9258-4.5234 3.2422-8.9453 7.668-10.617 13.367-2.0625 6.7812 0.58984 14.055 5.2109 19.754 10.711 13.469 28.109 18.184 43.148 19.953 34.895 4.1289 70.672-0.6875 103.5-8.8438 33.715-8.4531 65.66-22.312 94.852-40.891 7.4727-4.7148 14.941 9.1445 7.3711 13.957z"/>
 <path d="m335.76 478.22c3.3398-10.023 19.168-5.6992 15.824 4.4219-3.7344 11.402 2.7539 22.312 9.2383 31.355 5.8008 8.0586 14.254 17.301 24.477 19.363 23.492 4.6211 33.613-36.367 35.484-52.781 1.1797-10.418 17.594-10.516 16.414 0-3.0469 27.129-18.184 75.094-53.965 69.098-15.625-2.5547-27.816-14.941-36.66-27.324-8.9453-12.777-16.023-28.504-10.812-44.133zm-7.9609-61.332c-20.938-24.77-52.488-38.824-84.828-38.332-10.613 0.19531-10.613 16.609 0 16.414 18.773-0.29297 36.664 4.9141 51.898 14.742-21.23 0.10156-42.066 7.9648-58.383 22.215-7.9648 6.9766 3.7344 18.578 11.598 11.598 19.656-17.199 47.277-21.82 71.652-13.07 8.4531 3.1445 12.879-7.9648 8.0625-13.566zm207.39 31.648c-16.316-14.25-37.156-22.113-58.387-22.211 15.234-9.8281 33.125-15.137 51.898-14.746 10.617 0.19922 10.617-16.312 0-16.414-32.438-0.48828-63.891 13.469-84.824 38.336-4.8164 5.6992-0.39453 16.707 7.9609 13.758 24.473-8.7461 51.996-4.1289 71.656 13.074 8.0586 6.7812 19.754-4.8164 11.695-11.797z"/>
</svg>
