<?xml version="1.0" encoding="UTF-8"?>
<svg width="1587" height="1587" version="1.0" viewBox="0 0 1190.2 1190.2" xmlns="http://www.w3.org/2000/svg" zoomAndPan="magnify">
 <defs>
  <clipPath id="a">
   <path d="m0 0h1189.5v1189.5h-1189.5z"/>
  </clipPath>
  <clipPath id="b">
   <path d="m1 17.102h1187v1155.8h-1187z"/>
  </clipPath>
 </defs>
 <g clip-path="url(#a)" fill="none">
  <path d="m0 0h1189.5v1189.5h-1189.5z"/>
  <path d="m0 0h1189.5v1189.5h-1189.5z"/>
 </g>
 <g clip-path="url(#b)">
  <path d="m540.01 1171.9c-126.9-4.9453-224.39-18.039-274.57-36.887-19.152-7.1875-29.172-16.367-27.059-24.781 2.8164-11.25 27.41-22.406 68.516-31.102 10.152-2.1406 20.438-4.9883 22.871-6.3164 14.016-7.6445 18-9.2539 22.973-9.2539 4.4414 0 6.3711-1.0039 10.062-5.2109 9.6172-10.953 10.488-14.363 10.488-40.855-0.015624-32.738-4.1289-97.801-6.6992-105.64-0.45703-1.3711-2.6992-0.82812-8.3945 2.0664-8.6445 4.3984-20.391 7.8984-26.586 7.9258-5 0.015625-5.0156-0.29297-0.16406-5.4453 2.1406-2.2734 5.9492-8.4414 8.4414-13.727 3.9375-8.3125 4.6328-11.586 5.1211-24.473 0.91406-24.117-4.4727-41.137-17.707-55.973-9.1914-10.285-15.449-19.82-21.246-32.398-4.9727-10.773-4.9883-10.773-16.449-16.25-27.77-13.27-51.359-14.449-72.797-3.6914-28.582 14.363-34.484 50.215-11.523 69.875 10.148 8.6797 20.211 11.898 37.43 11.941 13.957 0.046875 15.359-0.25 25.953-5.3125 6.168-2.9375 13.633-7.7773 16.598-10.746 6.1523-6.1406 6.7891-4.7969 3.2305 6.9062-9.6758 31.914-37.934 58.703-74.551 70.672-11.922 3.9141-16.879 4.6953-33.199 5.2695-10.711 0.38672-22.086 0.015625-25.773-0.83984-3.6289-0.83984-6.8633-1.2852-7.1719-0.97266-0.29297 0.30859 4.3086 3.0117 10.238 6.0078 13.5 6.7891 27.266 20.219 33.598 32.766 2.5234 5.0195 4.6016 9.5352 4.6016 10.039 0 0.48438-3.2305-1.4766-7.168-4.3711-11.656-8.5625-27.355-15.113-54.961-22.965-27.945-7.9414-46.152-15.531-60.184-25.051-35.941-24.414-61.109-65.934-70.316-115.97-3.4844-18.91-2.3477-66.289 2.0781-86.746 14.668-67.781 55.785-117.98 123.01-150.13 33.52-16.027 51.949-20.691 81.797-20.691 14.324 0 24.152 0.85547 34.848 3.0391l14.887 3.0273 8.9414-8.9766c10.375-10.406 10.449-10.258-7.082-14.184-17.926-4.0312-39.273-3.4688-56.992 1.4766-59.902 16.707-96.848 14.465-135.45-8.25-11.023-6.4961-30.469-26.066-38.227-38.527l-6.2266-9.9453 8.793 7.3047c31.426 26.172 83.684 43.172 118.73 38.641 11.211-1.4609 28.18-5.7109 27.074-6.7891-0.28125-0.26562-6.4023 0.22266-13.605 1.0938-13.84 1.6836-41.371-0.39844-44.32-3.3516-0.8125-0.8125-3.1562-1.5039-5.2227-1.5508-2.0664-0.042968-7.4062-1.2539-11.879-2.6719l-8.1133-2.582 13.781-1.0195c7.5664-0.54297 14.531-1.4727 15.461-2.0508 0.92969-0.57422-6.8906-2.2148-17.363-3.6602-21.926-3.0234-30.41-5.4766-43.055-12.414-25.289-13.902-43.188-38.051-50.945-68.707-2.6719-10.598-2.9961-15.07-2.2891-32.25 0.53125-13.402 1.832-23.824 3.9414-31.75 15.711-59.07 71.32-102.48 118.09-92.195 7.6719 1.6836 17.703 5.832 17.703 7.3086 0 0.54688-2.7461 1.1211-6.1094 1.2383-9.2344 0.37109-16.391 2.7305-23.164 7.6328-25.746 18.656-21.438 55.57 7.4805 64.176 14.828 4.3984 26.824 2.5391 53.367-8.2656 20.152-8.207 38.906-14.184 48.762-15.543 3.7344-0.51562 7.0664-1.3867 7.4219-1.9336 0.33984-0.55859-2.832-5.6094-7.0508-11.23-17.059-22.73-23.43-42.539-23.52-72.961-0.058593-22.422 2.6406-38.199 8.7344-51.07 2.0664-4.3828 3.8516-7.9688 3.9688-7.9688 0.10547 0 0.19141 6.1406 0.19141 13.652 0 9.6953 0.85547 16.223 2.9375 22.508l2.9492 8.8555 1.1055-13.18c2.3477-28.059 14.477-59.5 30.91-80.164 25.32-31.82 67.266-48.812 101.67-41.148 6.0195 1.3398 13.266 3.8945 16.098 5.668l5.1484 3.2305-9.2773 1.0938c-29.656 3.4805-48.469 27.793-41.105 53.137 3.0391 10.434 7.4805 16.898 16.035 23.363 8.75 6.5977 19.891 10.539 47.629 16.859 22.957 5.2227 35.703 9.4453 49.484 16.383 15.094 7.6016 33.109 20.309 44.527 31.41l11.391 11.082 1.6094-4.2773c0.88672-2.3477 5.8555-13.922 11.051-25.715 12.348-28.016 14.664-36.812 14.52-55.305-0.14844-17.918-3.793-28.93-12.836-38.762-11.789-12.781-27.871-17.477-44.914-13.094-13.293 3.3984-20.613 7.6328-30.156 17.391-4.6484 4.75-8.7344 8.6328-9.0898 8.6328-1.2539 0 0.83984-12.754 3.7617-22.879 10.094-35.07 41.164-62.125 83.332-72.59 14.535-3.6016 46.168-3.5703 61.746 0.074219 16.73 3.8984 32.223 10.363 44.633 18.613 5.8867 3.9102 10.695 6.4922 10.695 5.7266 0-4.8125-11.832-23.102-20.668-31.941-3.4258-3.4258-5.5508-6.2305-4.6953-6.2305 3.4258 0 25.203 11.043 33.688 17.094 16.922 12.043 32.133 32.105 40.75 53.758 3.4062 8.5586 7.832 27.617 13.027 56.09 0.96094 5.2695 2.168 19.555 2.6719 31.734l0.92969 22.141 2.4766-10.336c6.1367-25.637 6.832-60.855 1.6523-83.953-2.5664-11.395-8.5273-26.645-14.605-37.328l-4.0586-7.1328 7.7773 7.3828c17.012 16.148 32.398 45.785 39.348 75.809 6.2852 27.129 6.168 63.543-0.29297 85.504-0.87109 2.9688 0.72266 2.3477 12.789-5.0156 7.5859-4.6211 17.469-10.023 21.957-12 48.719-21.477 64.961-37.996 64.961-66.039 0-19.75-8.6289-34.656-25.23-43.57-8.9258-4.8008-10.238-5.0781-24.195-5.125-8.1133-0.027344-17.395 0.51953-20.641 1.1953l-5.8711 1.2422 2.918-3.3086c5.3867-6.0781 20.289-14.656 32.328-18.609 10.652-3.5 14.121-3.9141 32.578-3.8672 17.969 0.042969 22.336 0.54297 33.625 3.9375 47.316 14.199 83.656 49.641 99.34 96.859 3.9375 11.867 4.1602 13.934 4.1289 38.375-0.042968 38.48-5.9883 67.855-19.238 95.129l-3.6289 7.457 3.7773-4.4297c2.0781-2.4336 7.6875-12.074 12.438-21.402 21.098-41.344 26.172-81.816 14.855-118.67l-2.7734-9.0039 3.1016 3.6914c4.7188 5.6055 13.883 25.945 17.629 39.145 2.832 9.9609 3.3516 15.32 3.3633 34.656 0 19.23-0.53125 24.871-3.3789 35.422-4.4844 16.605-12.73 33.875-22.027 46.129-4.1602 5.4727-7.0352 9.9609-6.3867 9.9609 0.64844 0 5.7812-3.2305 11.391-7.1719 10.887-7.6484 25.715-22.688 29.402-29.832 5.1797-9.9922 4.3672-2.1406-1.7539 17.078-4.1602 13.035-10.934 25.18-20.879 37.387l-6.5508 8.0312 16.055-0.98828c24.445-1.5195 77.031 1.3711 91.328 5.0156 13.16 3.3516 29.582 10.703 40.145 17.949 7.9102 5.418 21.039 17.285 21.039 19.012 0 0.62109-4.2461-1.0039-9.457-3.6289-10.121-5.0938-19.297-7.5586-35.172-9.4648-9.4141-1.1328-13.352-0.058594-7.082 1.9336 6.5195 2.082 26.645 16.668 37.477 27.176 29.699 28.812 46.859 61.992 54.16 104.71 8.8672 51.941-5 104.59-36.68 139.16l-7.582 8.2812 5.9297 7.957c19.625 26.301 35.203 64.133 41.902 101.68 3.3203 18.625 4.5898 60.367 2.3906 79.012-4.9727 42.125-18.148 79.688-35.438 101.06-4.2812 5.2852-10.121 14.242-13 19.926-7.1719 14.172-14.945 25.195-23.945 33.949l-7.5859 7.3789 3.543-8.1172c1.9453-4.457 3.9531-10.289 4.4688-12.93 0.90234-4.6797 0.60547-4.5039-9.4844 5.5039-18.223 18.039-40.34 30.645-66.246 37.758-17.41 4.7812-49.664 6.5234-67.414 3.6602-28.652-4.6211-54.398-17.137-80.867-39.305-11.273-9.4336-32.621-21.27-42.641-23.633l-4.2773-1.0039 1.0312 7.7773c1.5508 11.648 1.168 43.473-0.64844 53.742-0.88672 4.9609-2.9375 13.566-4.5586 19.133-1.6367 5.5469-2.7578 10.301-2.4922 10.551s10.09 2.2148 21.863 4.3711c62.027 11.336 94.43 25.27 94.43 40.574 0 9.7734-21.176 21.594-53.855 30.082-42.727 11.102-121.84 21.965-190.33 26.156-24.875 1.5039-144.84 2.9375-168.94 1.9922m-110.82-44.621c5.5-4.1172 6.0625-9.7852 1.5312-15.559-3.8477-4.8711-7.2578-4.9141-11.742-0.14453-2.7578 2.9375-3.6445 5.7852-4.1172 13.254-0.85547 13.535 0.13281 15.379 5.4883 10.094 2.3477-2.3164 6.3281-5.7539 8.8398-7.6445m-26.309-2.4648c6.4766-8.5625 8.4414-14.555 5.7969-17.727-2.9648-3.5859-8.2461-2.582-12.391 2.3477-3.2305 3.8359-3.8242 5.9766-3.8242 13.887 0 5.1523 0.42969 10.496 0.96094 11.867 0.87109 2.2891 1.0781 2.2617 2.418-0.25 0.79688-1.5039 3.9688-6.0664 7.0391-10.125m219.54-0.92969c9.5469-8.0156 3.4375-20.93-7.8477-16.605-4.2812 1.6367-6.6992 8.7969-6.6992 19.777v10.512l4.957-4.9023c2.7305-2.6992 7.0391-6.6562 9.5898-8.7812m-235.86-14.422c0-5.1953-1.8008-6.6562-6.6992-5.4297-5.6367 1.4141-8.543 7.2617-8.4531 17.016 0.16016 15.957 1.2969 16.488 8.6445 3.9414 3.7461-6.418 6.5078-12.988 6.5078-15.527m203.61 21.461c0-1.0156 2.9805-6.0938 6.6406-11.273 9.5312-13.535 8.6016-21.965-2.0195-18.289-7.2031 2.4922-10.801 15.055-8.1328 28.414 0.87109 4.3086 3.5117 5.1641 3.5117 1.1484m-19.812-5.7422c0.55859-1.8281 2.9219-5.4883 5.2383-8.1445 7.2578-8.3242 7.3008-16.711 0.070313-17.789-5.9453-0.88281-12.098 14.57-9.8398 24.801 1.1523 5.2812 3.0859 5.7539 4.5312 1.1328m-216.25-3.2305c0-1.168 2.6562-5.1953 5.8867-8.9297 8.9258-10.305 10.047-18.805 2.6133-19.66-4.7227-0.54688-10.801 4.7383-12.293 10.688-1.2227 4.8828 0.60547 20.027 2.4219 20.027 0.75 0 1.3711-0.96094 1.3711-2.125m-13.867-11.824c5.3398-7.1875 6.8281-13.062 4.2188-16.648-2.4961-3.4102-9.4727-1.0625-12.055 4.0586-1.9922 3.9258-2.5508 17.242-0.89844 21.535 0.94141 2.4805 1.0742 2.4648 2.582-0.10156 0.86719-1.4766 3.6289-5.4609 6.1523-8.8438m312.27 4c-4.2617-0.29297-11.227-0.29297-15.488 0-4.2656 0.29688-0.76953 0.54688 7.7461 0.54688 8.5117 0 12.008-0.25 7.7422-0.54688m124.25-6.0781c4.0273-2.1406 11.449-7.75 16.512-12.473 7.2734-6.793 10.547-11.398 15.711-22.141 11.836-24.578 15.141-45.996 12.793-82.938-2.3438-37.066-6.6836-55.781-21.539-92.859-19.035-47.469-44.383-90.555-80.16-136.22-16.422-20.957-56.039-60.352-74.582-74.152-24.066-17.906-40.34-30.879-57.16-45.551-8.7188-7.6016-15.859-13.285-15.844-12.605 0.011719 3.1133 27.191 33.297 49.691 55.219 24.328 23.703 23.105 24.027-3.2305 0.83984-7.3047-6.4219-18.43-16.68-24.715-22.762-6.2852-6.0938-11.434-10.566-11.434-9.9336 0 2.4375 17.469 22.895 34.555 40.488 11.391 11.719 15.168 16.266 10.445 12.574-17.941-14.004-33.523-28.309-44.957-41.281-6.7852-7.6914-12.555-13.98-12.82-13.98-1.0938 0 9.5 16.266 17.305 26.57 8.1602 10.758 23.328 26.184 33.832 34.406 8.4688 6.625-0.23438 2.5977-10.414-4.8281-11.57-8.4258-32.758-30.641-41.227-43.23-6.918-10.289-10.016-12.871-7.082-5.9062 4.2227 9.9805 15.73 27.691 25.305 38.938 6.9336 8.1484 8.9102 11.176 5.8867 9.0195-10.355-7.3789-27.266-28.621-39.762-49.965-1.4023-2.3906-1.9609-1.4023-3.8789 6.8047l-2.2578 9.5938-0.16406-14.316c-0.20703-16.266-3.4961-43.586-6.7734-56.148-3.7031-14.184-10.473-27.691-13.883-27.691-3.8516 0-5.1055 2.1992-3.2461 5.6836 3.3633 6.2734 8.7188 28.266 9.5781 39.336l0.92969 11.809-3.4414-11.07c-3.3906-10.906-11.02-27.41-12.156-26.289-0.30859 0.32812 1.0352 5.6406 2.9961 11.809 3.3477 10.57 6.7734 31.234 6.5352 39.531-0.089844 3.4062-0.20703 3.4805-1.3711 0.78125-0.69531-1.625-1.3125-4.4727-1.3711-6.3164-0.12109-3.6328-8.8984-27.457-9.7852-26.555-0.29297 0.29297 0.75391 6.8203 2.332 14.492 2.9648 14.32 3.7344 36.68 1.4453 41.996-0.88281 2.0664-1.2969-0.015626-1.3711-6.8516-0.10156-9.9336-4.1172-25.461-8.3516-32.266-1.4609-2.3594-1.8867-2.625-1.1953-0.73828 0.58984 1.625 1.375 10.645 1.7266 20.047 0.64844 17.312-1.9453 33.949-5.8438 37.504-1.1484 1.0469-1.3867 0.79688-0.80859-0.85547 3.2734-9.4023 2.0352-37.594-1.9336-43.91-1.1211-1.8164-1.2852-0.82812-0.60547 3.8047 1.1797 7.8828-3.082 35.617-6.832 44.578l-2.8164 6.7305 1.1055-10.332c1.2852-12 0.73828-30.465-0.97266-32.176-0.63672-0.65234-1.5625 3.3359-2.0352 8.8555-1.1523 13.254-13.148 53.785-15.285 51.645-0.37109-0.36719 0.38281-5.1953 1.6641-10.746 3.4844-14.98 5.1523-28.516 3.9258-31.82-0.78125-2.1289-2.4062 1.8594-5.918 14.508-4.7031 16.988-15.902 48.43-14.102 39.586 0.5-2.4336 1.8438-8.7383 2.9648-14.02 1.1367-5.2852 2.418-14.246 2.8477-19.93l0.78125-10.332-5.2969 14.023c-2.9219 7.7188-7.5391 21.328-10.297 30.258-5.4609 17.773-6.625 15.66-2.9531-5.3438 1.1953-6.8047 2.5547-14.699 3.0234-17.535l0.85938-5.1641-3.043 5.4883c-1.6641 3.0273-5.1641 11.664-7.7461 19.191-4.2461 12.367-4.7031 15.41-4.75 31.41-0.058594 21.402 1.3594 27.082 14.594 58.863 5.3711 12.898 9.5469 24.102 9.2812 24.898-0.76953 2.2891-18.062-35.188-22.324-48.34-4.7812-14.746-8.25-34.789-8.4258-48.531-0.10156-8.8555-0.33984-9.8164-1.5195-6.082-5.457 17.328-1.7109 49.449 9.043 77.492 9.2383 24.117 10.418 29.742 11.316 54.613 1.0781 29.445-3.8477 78.953-15.164 152.03-8.293 53.625-13.09 66.434-27.578 73.625-3.8945 1.918-6.8438 3.7344-6.5508 4.0117 1.5352 1.5352 12.379-3.2461 17.176-7.5859 12.348-11.156 17.055-28.707 31.25-116.55 9.293-57.445 13.188-79.496 14.223-80.441 1.5352-1.4023-5.0039 83.469-7.8359 101.84-0.57422 3.6602-0.60547 6.2578-0.10156 5.7852 0.51562-0.45703 3.9102-18.066 7.5547-39.113 3.6406-21.031 8.2305-46.23 10.195-55.969l3.5703-17.715 0.14453 11.188c0.074219 6.1562-1.5312 24.711-3.5859 41.227-3.4375 27.691-4.1289 40.473-1.5312 28.031 0.58984-2.8359 4.3203-20.105 8.2891-38.379 3.957-18.273 8.1914-38.199 9.4141-44.281l2.2148-11.07-0.69531 16.238c-0.38281 8.9297-2.3438 27.484-4.3672 41.227-2.0352 13.742-3.6289 25.695-3.5391 26.566 0.21875 2.5117 6.7109-24.488 11.566-48.09 2.4492-11.879 4.9258-29.148 5.5195-38.375 1.0469-16.09 1.1328-16.43 2.2852-8.6367 0.64844 4.4609 0.78125 16.754 0.28125 27.309-0.50391 10.555-0.53125 18.82-0.074219 18.375 2.418-2.3594 5.3555-31.422 5.5195-54.539 0.14453-21.445 0.42578-24.457 1.5898-17.711 0.76953 4.457 1.0938 19.07 0.71094 32.473-0.69531 24.367-2.7891 36.574-9.3398 54.141-1.2695 3.3789-1.9922 7.0391-1.625 8.1172 1.0352 2.9688 11.375-30.109 14.387-46.023 5.4453-28.633 5.1797-50.332-0.85547-71.469-1.1367-4-1.8594-7.4805-1.5938-7.7344 0.26562-0.26563 2.2734 3.9141 4.4844 9.2852 5.8867 14.363 7.8516 34.953 5.7109 59.852-1.5781 18.262-7.1992 47.41-12.746 66.129-3.8672 13.031-2.6562 13.297 3.4648 0.76563 13.207-26.98 21.543-64.707 20.242-91.512-0.82422-16.977-2.5234-23.516-11.258-43.398-2.582-5.918-4.4258-11.023-4.0859-11.363s3.543 4.8555 7.1133 11.543c5.6797 10.613 23.871 32.355 25.539 30.508 0.29297-0.30859-4.6758-11.203-11.051-24.191-10.445-21.328-17.691-39.543-17.5-44.074 0.03125-0.91406 2.1094 2.3047 4.6055 7.1758 5.7383 11.23 13.043 20.25 19.738 24.398 2.8945 1.7852 5.5039 2.9961 5.8008 2.6836 0.30859-0.30859-1.7422-4.207-4.5469-8.6484-6.1055-9.668-10.223-22.332-13.16-40.488-2.0938-12.883-2.9648-30.141-1.4453-28.633 0.39844 0.41406 2.0664 6.0078 3.7031 12.426 2.8477 11.176 12.629 34.215 13.957 32.887 0.35547-0.33984 0.046875-5.2539-0.67578-10.906-1.8594-14.656-4.6328-52.652-3.8984-53.402 0.35547-0.33984 1.7852 2.9062 3.2031 7.2305 2.8906 8.8125 13.691 30.996 19.562 40.164 13.297 20.781 35.957 45.137 55.152 59.277 16.629 12.234 29.184 18.684 74.641 38.348 10.785 4.6641 19.301 8.7812 18.93 9.1367-1.1055 1.1211-41.516-12.461-58.719-19.723-17.926-7.5703-38.332-20.25-52.469-32.605-5.0742-4.4258-15.949-16.145-24.152-26.008-19.387-23.32-19.594-23.527-17.57-18.168 3.1562 8.4141 19.402 30.109 31.617 42.215 23.918 23.703 48.289 37.402 91.668 51.512 14.594 4.7383 28.859 9.7852 31.691 11.219 8.2773 4.1758 25.852 18.098 31.383 24.855 5.3711 6.5703 14.355 20.562 14.355 22.363 0 0.58984-4.1445-2.7031-9.2227-7.3086-12.391-11.262-33.031-23.215-49.941-28.914-25.848-8.7227-58-7.3945-79.055 3.2461-18.633 9.4336-35.246 28.902-42.695 50.039-3.2188 9.1367-4.0312 14.465-4.6211 30.523-0.64844 17.773-0.36719 20.621 3.1445 32.871 7.5391 26.273 22.25 48.133 42.359 62.91 9.5156 6.9805 10.137 6.3438 2.0938-2.1562-15.891-16.781-30.363-44.09-34.82-65.641-4.1445-20.145-3.4062-35.969 2.5703-54.539 3.1133-9.6367 3.582-8.207 1.1211 3.4102-3.7773 17.918-1.3164 51.25 4.2188 56.828 0.95703 0.97266 1.0898-0.03125 0.38281-2.9531-2.2148-9.1641-0.88672-39.527 2.2148-50.746 3.0391-10.965 10.887-29.695 12.438-29.695 0.47266 0-0.45703 2.5664-2.0508 5.6953-12.039 23.617-13.367 63.25-3.0273 90.082 5.1523 13.375 8.707 17.844 4.5312 5.7109-7.2891-21.18-8.0547-56.473-1.625-74.641 1.8164-5.1055 3.5-9.0938 3.75-8.8398 0.25 0.25-0.85547 5.7695-2.4648 12.25-5.7227 23.086-1.4883 51.777 11.539 78.215 18.812 38.168 58.723 66.273 101.64 71.617 16.113 2.0078 34.32-0.19141 49.043-5.9219l11.008-4.2656-3.9844 4.1641c-7.332 7.6445-32.488 17.727-44.574 17.859-3.2734 0.03125-3.7031 0.35547-1.9023 1.4023 6.0352 3.5273 33.641-3.9414 47.109-12.738l8.1172-5.2969-7.3789 7.8945c-4.0547 4.3398-7.7148 8.0742-8.1133 8.2969-0.39844 0.23438-3.3945 2.1094-6.6406 4.1602-7.6406 4.8711-1.5625 3.4258 8.793-2.0781m-338.03-0.99219c-0.92969-2.4336-5.1367-5.1211-8.0117-5.1211-1.3164 0 6.1055 6.3047 8.5547 7.2461 0.17969 0.074219-0.074219-0.88281-0.54297-2.125m56.656-8.8711c3.6719-2.9805 4.793-5.0469 4.793-8.8242 0-9.8906-8.1289-11.766-13.426-3.0859-1.9023 3.1289-2.7891 7.3516-2.8047 13.227v8.6484l3.3203-3.0391c1.832-1.668 5.4727-4.7852 8.1172-6.9258m-18.281-7.6133c2.6562-5.1836 3.1875-11.602 1.0781-12.902-4.3086-2.6719-7.6602 3.8398-9.8438 19.102l-1.0625 7.3789 3.7031-4.4297c2.0391-2.4336 4.7969-6.5508 6.125-9.1484m152.26 10.582c-1.5781-1.1953-4.2344-2.1406-5.9023-2.0977-2.4336 0.046875-2.168 0.45703 1.3867 2.082 5.875 2.7031 8.0742 2.7031 4.5156 0.015625m-210.7-1.8008c0.41406-1.2266-0.98828-1.8438-4.1172-1.8438-4.0859 0-4.4727 0.30859-2.832 2.2695 2.1367 2.5859 6.0352 2.3477 6.9492-0.42578m-24.094-1.3125c1.2695-3.3242 0.60547-3.6602-5.0312-2.5273-4.5156 0.90234-4.6797 1.125-2.168 2.9531 3.6289 2.6562 6.0625 2.5117 7.1992-0.42578m194.79-4.2656c3.7617-2.8516 11.832-2.7617 16.301 0.17578 2.0664 1.3594 4.3711 1.8438 5.4766 1.1523 1.0469-0.63672 12.438-1.3164 25.301-1.5078 21.352-0.29297 26.234-0.82422 24.434-2.625-1.207-1.2109-77.547-1.3281-79.496-0.13281-1.5625 0.97266-1.3984 1.6211 0.75391 3.2031 3.3359 2.4492 3.6602 2.4336 7.2305-0.26562m-234.31-7.6758 5.7109-2.5391-5.0039-0.51562c-2.7422-0.28125-6.6367-0.10547-8.6602 0.41016-3.5117 0.87109-3.5391 1.0039-0.89844 3.0117 1.5195 1.1523 2.8477 2.1133 2.9492 2.1406 0.10547 0.03125 2.7578-1.1055 5.9023-2.5078m16.777 1.0781c0-0.8125-1.832-1.4648-4.0586-1.4492-3.1562 0.015625-3.5703 0.32422-1.8438 1.4492 2.8906 1.8594 5.9023 1.8594 5.9023 0m8.7031-11.133c6.5195-7.4375 12.895-20.766 14.77-30.906 2.0352-10.996 2.0938-72.324 0.089844-100.86-1.7266-24.738-6.2578-56.504-7.082-49.727-0.29688 2.4336 0.23438 16.176 1.1641 30.535 2.6992 41.211 4.25 107.62 2.7422 117.21-2.3281 14.816-11.121 31.039-19.652 36.25l-4.4258 2.6992 3.9102 0.015624c2.6289 0 5.4023-1.7109 8.4844-5.2266m123.34 0.80078c-0.5-0.8125-1.6953-1.4648-2.668-1.4492-1.0469 0-0.87109 0.58984 0.45703 1.4492 2.832 1.8281 3.3477 1.8281 2.2109 0m-16.227-4.4297c0.51562-0.83984 8.6602-1.5352 18.898-1.625 9.8867-0.074219 19.637-0.67969 21.676-1.3281 2.1836-0.69141-6.6719-1.2383-21.676-1.3281-24.492-0.14844-30.172 0.82812-24.461 4.1484 3.332 1.9336 4.4258 1.9609 5.5625 0.13281m-46.949-4.707c-0.47266-1.1836-0.8125-0.82812-0.88672 0.89844-0.058593 1.5508 0.28125 2.4219 0.76953 1.9336 0.5-0.48828 0.54297-1.7695 0.11719-2.832m1.4766-5.9062c-0.47266-1.1797-0.8125-0.82812-0.88672 0.90234-0.058594 1.5469 0.28125 2.418 0.76562 1.9336 0.50391-0.48828 0.54688-1.7734 0.12109-2.8359m1.4453-7.4688c-0.41406-1.0195-0.73828-0.19141-0.73828 1.8438 0 2.0391 0.32422 2.8633 0.73828 1.8477 0.41406-1.0195 0.41406-2.6719 0-3.6914m1.5195-8.0898c-0.37109-1.4297-0.69531-0.61719-0.73828 1.8164-0.03125 2.4375 0.28125 3.6172 0.69531 2.6133 0.39453-1.0039 0.42578-2.9961 0.042968-4.4297m70.879-6.125c-6.2422-6.9062-12.172-16.824-16.629-27.777l-3.3047-8.1328-3.2734 8.6484c-1.8164 4.7539-5.1641 14.113-7.4531 20.812l-4.1602 12.176h39.984l-5.1641-5.7266m-69.449-2.0195c-0.41406-1.0195-0.73828-0.19141-0.73828 1.8438 0 2.0352 0.32422 2.8633 0.73828 1.8438 0.41406-1.0156 0.41406-2.6719 0-3.6875m1.5039-7.293c-0.46875-1.1797-0.80859-0.82812-0.88281 0.89844-0.058594 1.5508 0.28125 2.4219 0.76562 1.9336 0.50391-0.48438 0.54688-1.7695 0.11719-2.832m563.89-12.191c10.711-2.8633 22.309-8.6953 31.188-15.719 8.707-6.8789 9.6367-9.9336 1.832-5.9492-6.125 3.1289-29.539 10.566-32.902 10.449-1.1797-0.027343 0.97266-1.6836 4.7656-3.6602 3.8047-1.9766 7.3164-4.2812 7.8359-5.0938 1.1484-1.8594 1.6211-1.9023-8.1016 0.71094-11.684 3.1289-33.758 2.7891-47.215-0.73828-13.102-3.4414-12.199-3.3203-11.051-1.4609 1.4922 2.418 12.453 7.6133 23.594 11.188l10.328 3.3203-14.016 0.10547c-14.078 0.11719-32.297-3.2031-43.57-7.9141-8.8516-3.6875-4.0273 0.44531 6.9766 5.9805 5.7422 2.8906 15.141 6.4922 20.922 8 13 3.4062 38.039 3.8047 49.414 0.78125m46.148-10.895c6.0078-3.9258 12.16-9.0312 13.68-11.352 2.668-4.0703 2.5508-4.043-3.7344 1.0352-3.5547 2.8789-10.297 7.75-14.961 10.82-4.6602 3.0547-8.4844 5.8008-8.4844 6.0938 0 1.6094 3.7031-0.20703 13.5-6.5977m-59.238-21.934c-19.695-3.2891-44.172-16.25-62.719-33.195-10.609-9.6953-8.293-4.6797 3.8203 8.2812 15.816 16.898 34.586 26.008 53 25.695 5.2812-0.085938 7.9375-0.44141 5.8984-0.78125m126.11-30.359c4.5312-5.0664 9.9297-12.195 11.996-15.855l3.7617-6.6406-4.8555 5.9023c-2.6523 3.25-11.168 12.488-18.914 20.52-12.113 12.59-13.117 13.977-7.1406 9.9453 3.8203-2.5664 10.637-8.8086 15.152-13.871m-67.484 8.3828c46.062-9.5195 78.891-39.676 94.664-86.969 8.0547-24.16 8.9258-54.699 2.3164-81.18-4.5469-18.141-20.438-46.969-33.613-60.887-2.4922-2.6406-3.7617-4.7969-2.8164-4.7969 3.1133 0 26.438 24.176 32.637 33.816 3.332 5.1953 6.0625 8.3398 6.0625 6.9648 0-3.6602-7.8945-20.398-13.395-28.398-7.1133-10.348-23.934-27.543-33.125-33.891-4.4414-3.0547-8.0703-5.7852-8.0703-6.0664 0-0.27734 2.2578 0.42969 5.0312 1.5977 8.3945 3.5117 20.258 11.793 30.746 21.473 5.4766 5.0508 9.9609 8.7969 9.9609 8.3125 0-0.48828-3.7773-6.9844-8.3789-14.453-15.141-24.469-38.113-44.25-71.973-61.945-8.957-4.6953-15.727-8.5312-15.062-8.5625 0.67578-0.015625 6.5938 1.3438 13.145 3.0117 13.203 3.3789 28.785 10.359 40.59 18.215 4.2617 2.832 7.7461 4.5898 7.7461 3.9258 0-2.4961-20.172-19.984-31.648-27.441-16.23-10.539-27.871-16.191-45.562-22.109-23.887-8-39.246-10.273-68.855-10.172-23.031 0.074218-27.371 0.48828-40.164 3.9297-14.633 3.9258-24.668 8.0117-14.43 5.8594 2.8359-0.58984 15.465-1.0781 28.035-1.0781 19.785 0 24.328 0.45703 33.727 3.4102 5.9609 1.875 10.609 3.6445 10.328 3.9258-0.29297 0.29297-6.5039-0.13281-13.809-0.94531-22.605-2.4961-50.801 2.0664-71.543 11.559-12.395 5.6797-24.141 12.277-23.312 13.121 0.30859 0.29297 5.5938-1.0469 11.746-3.0117 6.1523-1.9492 14.766-3.9414 19.121-4.4297 4.3516-0.46875 10.414-1.1797 13.453-1.5625 3.2188-0.39844 5.5352-0.074219 5.5352 0.79688 0 0.8125-0.98828 1.4922-2.1992 1.4922-4.6016 0-31.484 9.4609-42.062 14.805-22.281 11.262-44.617 29.727-61.82 51.113-17.16 21.359-16.746 23.129 1.4141 5.8594 20.715-19.676 37.344-32.309 54.207-41.18 16.703-8.7969 40.309-15.867 55.625-16.68l11.801-0.62109-11.801 2.7891c-24.582 5.832-45.504 14.539-63.148 26.273-11.656 7.75-40.367 35.84-51.875 50.746-6.9375 8.9883-6.4336 8.6211 9.75-6.8477 36.34-34.73 71.824-52.887 109.57-56.031 14.68-1.2227 17.113 1.1953 2.7578 2.7305-20.125 2.1406-46.992 12.652-67 26.188-17.289 11.688-57.922 54.051-68.09 70.949-2.7734 4.6211-2.625 4.5469 2.0352-0.94141 32.668-38.48 56.438-58.246 85.988-71.516 15.699-7.0391 29.953-10.508 45.918-11.172l14.754-0.62109-13.281 2.7461c-42.105 8.707-70.496 25.891-103.68 62.746-13.09 14.539-24.566 28.93-22.945 28.75 0.66406-0.058593 6.832-6.4766 13.723-14.258 14.902-16.84 29.953-30.008 47.848-41.828 32.977-21.801 75.129-28.902 108.58-18.305 30.719 9.7266 55.562 30.688 69.109 58.289l6.875 14.023v17.711c0 16.207-0.33984 18.438-4.0312 26.332-2.2266 4.7383-6.0898 11.203-8.6133 14.391-2.5078 3.1758-3.8242 5.7734-2.9062 5.7734 3.6133 0 16.094-14.656 20.801-24.445 4.3086-8.957 5.0039-12.043 5.5469-24.68 0.51953-12.07 0.074219-16.117-2.7266-24.824-4.4258-13.758-12.66-26.246-26.012-39.41-6.0195-5.9336-9.7227-10.141-8.2617-9.3594 5.8398 3.1289 27.93 27.973 32.34 36.371 8.1719 15.527 11.332 28.707 10.418 43.336-1.3008 20.766-8.1172 35.57-23.152 50.289l-6.6836 6.5508 6.3438-3.543c13.738-7.6602 26.734-25.121 32.918-44.234l2.625-8.1172 0.089843 8.3516c0.16406 17.078-8.3516 35.012-22.973 48.387-27.605 25.238-69.609 27.762-102.66 6.1836-14.457-9.4453-23.902-21.109-29.258-36.164-2.668-7.4961-2.6836-7.5117-2.8008-2.375-0.3125 14.938 10.637 38.242 25.449 54.168 7.7148 8.2969 8.3516 9.3594 4.1758 6.9531-15.418-8.8867-32.68-35.969-36.176-56.738-2.1133-12.531-3.8828-10.891-3.8828 3.5859 0 19.027 8.8086 42.348 22.664 59.988 13.219 16.824 41.266 35.277 60.699 39.895 4.0547 0.97656 14.355 1.7578 22.867 1.7578 45.812-0.03125 87.996-25.121 109.64-65.227 7.4062-13.727 12.777-33.418 13.926-51.055 1.0625-16.309 2.8477-13.801 3.1289 4.4297 0.30859 18.922-7.0391 42.227-18.695 59.289-6.7539 9.8906-25.758 28.711-36.16 35.781-19.402 13.195-45.988 20.93-71.84 20.883-25.566-0.027343-37.18-2.8477-59.016-14.332-11.555-6.0664-12.145-6.2266-7.3789-2.0664 8.1914 7.1445 21.719 14.273 36.887 19.398 12.762 4.3086 15.668 4.7344 32.461 4.7969 36.93 0.085938 63.707-11.309 95.191-40.52l10.152-9.4297-6.3164 9.0898c-26.395 37.98-88.199 56.43-135.71 40.504-23.281-7.8086-40.34-18.082-53.617-32.297-7.332-7.8516-16.453-21.223-18.945-27.809-0.82422-2.1523-1.918-3.4961-2.4336-2.9805-1.5508 1.5508 10.754 24.77 17.293 32.621 11.328 13.594 33.902 29.609 50.191 35.602 22.531 8.293 50.238 10.434 73.301 5.668m-156-22.391c-2.375-4.6641-4.6641-9.6562-5.0781-11.102-0.41016-1.4297-2.3594-3.2188-4.3359-3.9688-5.4297-2.0547-24.301-5.7578-34.188-6.7031-8.3633-0.8125-8.1289-0.66406 5.2383 2.9102 25.613 6.8477 27.797 7.8359 31.973 14.582 3.4961 5.6367 9.25 12.766 10.301 12.766 0.23438 0-1.5195-3.8203-3.9102-8.4844m-10.328-26.762c0-0.70703-0.82812-1.9766-1.8438-2.8203-2.8203-2.3477-25.406-6.2266-35.574-6.1094l-9.0586 0.089844 16.23 3.4531c8.9258 1.9023 18.883 4.1172 22.129 4.9297 7.8672 1.9492 8.1172 1.9609 8.1172 0.45703m-777.55-5.1367c0-0.29687-4.3828-3.3633-9.7227-6.832-11.332-7.3242-30.984-26.262-41.035-39.531-14.473-19.113-23.34-44.16-26.246-74.082-1.7422-17.961-0.45703-34.258 4.1172-52.457 3.3789-13.445 15.684-37.488 25.391-49.652 12.645-15.824 16.996-18.836 6.3438-4.3828-10.828 14.684-19.148 31.363-24.727 49.609-3.7617 12.309-4.0586 15.129-4.0273 38.375 0.027343 22.953 0.36719 26.199 3.9961 38.066 3.4688 11.352 13.297 33.52 14.875 33.52 0.29297 0-1.3125-4.8086-3.6016-10.699-7.1836-18.555-9.2656-32.648-8.3789-57.035 0.48438-13.355 1.7109-24.93 3.2461-30.418 6.0039-21.523 21.156-46.379 37.77-61.996l7.8477-7.3789-5.8867 6.6406c-15.875 17.891-27.605 38.469-33.434 58.613-2.8164 9.7266-3.3164 15.027-3.3164 34.379 0 19.438 0.5 24.633 3.3633 34.539 9.6484 33.371 30.953 62.094 55.328 74.613 9.8867 5.0781 8.2031 3.1445-6.3906-7.3086-11.344-8.1484-24.578-23.586-31.41-36.68-17.75-34.008-18.09-78.551-0.87109-114.8 6.9922-14.746 24.258-36.648 34.465-43.734 3.3203-2.2891 2.5234-0.98828-2.9492 4.9023-4.1016 4.4102-10.977 13.254-15.27 19.629-16.039 23.793-22.266 43.117-22.266 68.977 0 25.09 6.1367 46.906 18.398 65.387 7.2891 10.996 10.785 13.492 4.6758 3.3672-2.7266-4.5469-7.1523-14.746-9.8398-22.703-4.2344-12.531-4.957-16.93-5.5312-33.168-0.50391-14.227-0.058594-21.473 1.8711-30.258 4.3984-19.953 15.789-41.137 30.852-57.344 6.7422-7.2617 6.7148-7.1875-2.8477 7.3359-19.52 29.641-25.156 47.219-23.902 74.586 0.88672 19.246 4.9727 34.051 13.754 49.801 7.3594 13.195 8.4844 12.633 2.7734-1.4023-2.7305-6.7031-5.6523-16.504-6.5078-21.785-2.1836-13.582-1.8867-35.84 0.64844-47.973 2.3633-11.352 13.488-35.367 18.473-39.883 2.332-2.1094 1.6094 0.046875-2.7422 8.1797-9.7539 18.227-12.777 30.273-12.777 50.891 0 14.438 0.63281 19.766 3.4531 28.785 9.7812 31.32 30.246 53.594 60.461 65.801 10.312 4.1758 34.836 7.3359 40.207 5.1953 3.2891-1.3164 3.125-1.4492-2.0078-1.5352-9.9609-0.16406-28.094-4.6641-38.672-9.5938-34.465-16.059-53.852-46.273-53.852-83.941 0-15.824 2.1523-25.301 8.8203-38.66 8.207-16.473 13.355-22.508 6.6562-7.8203-7.2734 15.984-10.02 27.777-10.031 43.246-0.046875 26.922 8.5859 45.582 30.008 64.945 4.25 3.8359 3.9844 3.2344-1.8867-4.4297-14.488-18.863-19.477-34.996-18.488-59.867 0.53125-13.652 1.1797-16.809 5.2383-25.488 11.508-24.59 31.043-41.02 59.398-49.922 15.672-4.9297 47.895-4.8984 66.277 0.03125 6.8594 1.8438 13.664 4 15.125 4.7812 1.7539 0.92969 2.6523 0.90234 2.6523-0.085938 0-2.0234-17.91-10.953-27.883-13.922-29.23-8.6797-62.336-4.8984-89.93 10.273-12.656 6.9688-9.0273 2.7773 5.9023-6.8164 18.711-12.004 42.699-19 66.172-19.277l14.02-0.17969-8.1172-2.0352c-22.293-5.5938-45.68-3.7773-69.27 5.3867-6.0352 2.3477-11.242 4.0156-11.555 3.6914-1.3555-1.3594 28.051-14.406 38.777-17.195 16.465-4.2812 44.262-4.3711 59.754-0.19531 6.0781 1.6406 11.332 2.7461 11.641 2.4375 0.85547-0.8125-11.82-6.0234-23.887-9.832-14.875-4.6758-49.355-4.6641-65.906 0.015625-6.0664 1.7266-11.23 2.9219-11.465 2.6875-1.1211-1.1094 18.309-8.6211 27.25-10.539 22.145-4.7383 55.578-3.9727 71.469 1.6367 5.5625 1.9648 5.8594 1.9336 3.9844-0.32422-3.3203-4-21.586-12.027-33.344-14.641-8.0859-1.8008-15.773-2.2891-29.301-1.832-20.645 0.67969-20.777-0.54688-0.42969-4.0859 16.555-2.8945 36.297-2.1289 53.336 2.0781 6.3164 1.5508 11.773 2.332 12.156 1.7148 1.0195-1.6523-17.746-11.027-29.52-14.746-7.3359-2.3047-15.672-3.4844-28.742-4.043-20.23-0.87109-20.141-2.5117 0.23438-4.1211 13.75-1.0898 32.312 1.0195 45.652 5.168 9 2.8047 11.906 2.0195 7.8047-2.0664-3.6602-3.6758-10.566-6.8945-24.215-11.32-8.8203-2.8516-11.227-4.0742-8.1133-4.1484 7.3789-0.16406 23.266 2.7305 29.156 5.2969 3.0508 1.3281 6.0195 1.9648 6.5781 1.3906 3.4102-3.3984-10.992-12.195-25.789-15.766-7.0664-1.6992-7.7305-2.1094-4.043-2.4961 2.4336-0.25 9.4141 0.57812 15.492 1.8477 15.875 3.2891 15.492 3.2891 15.492 0.027344 0-2.1836-2.0977-3.793-8.1172-6.2266-9.043-3.6602-6.8008-4.6055 2.8477-1.1953l6.1836 2.168 2.125-5.0781c1.1641-2.8047 2.125-5.9922 2.125-7.0977 0-2.0977-22.488-9.625-39.102-13.078-11.906-2.4805-42.062-2.4375-53.512 0.089844-5.1055 1.1211-8.957 2.3438-8.5859 2.7148 0.36719 0.36719 7.5078 1.2227 15.891 1.918 9.5898 0.78125 20.949 2.9648 30.688 5.875 15.609 4.6641 24.285 8.3984 15.52 6.6562-2.4336-0.48828-15.387-1.2695-28.77-1.7578-28.578-1.0156-39.938 0.39844-61.777 7.707-34.523 11.543-58.395 28.754-78.684 56.738l-4.8086 6.6406 9.3555-8.1172c14.723-12.781 17.512-14.836 29.492-21.684 10.18-5.8164 33.684-14.688 35.113-13.238 0.32812 0.32422-4.2461 3.4219-10.164 6.9062-24.227 14.246-40.07 28.414-56.816 50.789-24.832 33.184-35.809 65.344-35.809 104.9 0 40.77 11.078 72.828 35.777 103.56 10.609 13.18 22.16 22.641 37.004 30.316 10.062 5.1953 12.793 6.2734 12.793 5.0781m772.6-15.23c-2.1367-2.1406-14.281-3.3359-32.68-3.2188-21.539 0.14844-20.848 0.76562 4.4258 3.9844 6.4922 0.82812 15.465 2.6992 19.918 4.1914l8.1172 2.6875 0.48438-3.4531c0.25391-1.9062 0.14844-3.793-0.26562-4.1914m-0.64844-29.625c0.58984-20.355 1.168-24.695 4.6641-34.879 2.1992-6.3906 3.793-11.809 3.5703-12.016-0.23828-0.20703-5.4141 0.91406-11.492 2.5078-10.02 2.6133-40.562 15.738-39.383 16.918 0.26562 0.28125 4.3398-0.85547 9.0625-2.5234 4.707-1.6562 10.961-2.8047 13.91-2.5547l5.3438 0.44141-7.3789 2.8359c-10.52 4.0586-26.07 11.438-25.422 12.074 0.29688 0.30859 5.1484-0.42969 10.773-1.625 16.906-3.5703 19.238-2.1094 3.8477 2.4219-9.1328 2.6992-26.23 9.0469-27.367 10.168-0.38281 0.38281 4.043 0.47266 9.8398 0.19141 9.3398-0.44141 28.609 2.1992 27.09 3.7227-0.32422 0.30859-6.1523 1.1641-12.953 1.8711-6.8047 0.72656-14.695 1.9648-17.531 2.7617l-5.1641 1.4453 7.3789 0.19141c10.52 0.28125 25.465 2.3945 33.195 4.668 6.4922 1.918 6.168 1.9922-14.191 2.9492-27.34 1.2852-31.617 3.5156-9.1758 4.7695 9.2031 0.51562 21.379 2.1836 27.059 3.7188 5.6797 1.5352 11.078 2.8789 11.992 2.9805 1.1523 0.14844 1.875-6.9648 2.332-23.039m-274.74 4.2656c0-0.69531-3.5859-3.6484-7.9805-6.5703-4.3828-2.9062-13.516-9.7539-20.289-15.215-11.418-9.1953-11.418-7.5 0.015625 3.0078 4.0273 3.7227 26.574 19.898 27.887 20.016 0.20703 0.015625 0.36719-0.54688 0.36719-1.2383m-32.637-7.5273c-3.5547-3.2188-6.9922-5.875-7.6562-5.9062-0.66406-0.027344 1.875 2.5977 5.6211 5.8477 8.8242 7.6445 10.477 7.6875 2.0352 0.058594m48.867-1.168c-0.015625-0.60547-4.1602-3.2773-9.2227-5.918-9.0273-4.6953-21.805-13.832-35.012-25.02l-6.6094-5.5938 4.8984 6.2734c5.8008 7.4375 19.77 18.141 33.715 25.801 10.281 5.668 12.23 6.375 12.23 4.457m365.2-9.3125c2.9961-9.0469 2.125-15.086-3.4062-23.32-7.2148-10.73-20.832-17.922-33.965-17.922h-5.0898l0.95703 5.9805c1.418 8.8398 6.3164 18.242 13.855 26.641 6.2266 6.9219 19.52 16.047 23.445 16.074 0.94531 0.015625 2.8477-3.3516 4.2031-7.4531m-341.59 5.2695c0-0.38281-2.3438-1.6992-5.2227-2.8945-21.379-8.9453-51.535-31.762-69.977-52.945-6.0508-6.9648-11.246-12.426-11.539-12.145-0.94531 0.95703 6.6406 11.953 15.285 22.137 10.621 12.535 25.82 24.68 43.539 34.836 16.125 9.2266 27.914 13.875 27.914 11.012m-265-31.32c-7.3164-9.5938-22.25-41.066-23.312-49.137-0.75-5.7422-0.64844-6.1406 0.79688-2.9531 7.2891 16.176 11.008 22.848 17.352 31.23 7.7305 10.23 19.227 20.254 28.816 25.168l5.7812 2.9648-8.793-10.125c-15.949-18.332-28.328-40.473-33.121-59.23-3.9258-15.336-3.6602-23.883 0.29297-9.9336 5.6211 19.809 20.051 43.809 30.41 50.582 3.0234 1.9766 2.875 1.2383-1.8594-9.0195-2.832-6.125-6.5508-17.004-8.2617-24.145-5.2969-22.156-2.5391-52.488 6.8164-74.777 1.3125-3.1289 2.625-5.4453 2.9219-5.1523 0.30859 0.29688-0.50391 6.9961-1.7852 14.879-2.1836 13.301-2.1719 15.277 0.17578 27.188 3.2031 16.312 5.2227 20.164 5.2812 10.113 0.058593-7.9414 5.2383-29.051 10.285-41.848 4.6602-11.82 20.934-44.812 21.719-44.027 0.36719 0.38281-0.69531 5.2383-2.375 10.805-1.6836 5.5625-3.9844 15.023-5.1211 21.004-2.4219 12.766-1.9766 12.516 9.25-5.2852 13.234-21.02 20.82-37.301 22.914-49.227 2.1094-11.984 2.1094-11.969 4.9883 6.6445l1.1328 7.2891 5.0625-10.98c4.25-9.1797 5.1797-13.094 5.6953-23.867 0.33984-7.1016 1.1523-12.578 1.8008-12.18 0.64844 0.41406 2.0195 6.7188 3.0547 14.023 1.0312 7.3086 2.3438 12.77 2.9062 12.164 0.55859-0.62109 2.2266-5.7734 3.7031-11.453 4.9258-19.102 2.8164-47.738-4.2656-57.406-1.875-2.5664-2.2266-2.168-4.5742 5.168-4.8672 15.262-21.672 41.328-34.156 52.973l-5.5312 5.168 4.7227-7.0273c6.2969-9.3438 14.633-27.145 15.727-33.562 0.83984-4.9023 0.64844-4.7539-3.6289 2.7578-6.7148 11.809-28.137 37.094-31.426 37.094-0.72266 0 1.7109-4.25 5.4141-9.4609 6.4766-9.0781 18.484-32.637 18.484-36.266 0-0.96094-3.2734 3.1133-7.2734 9.0781-11.992 17.828-39.465 45.504-45.16 45.504-0.5625 0 3.1406-4.4414 8.2188-9.875 5.0742-5.4297 12.039-14.227 15.477-19.555 6.5195-10.125 17.469-31.059 16.656-31.855-0.25-0.26562-5.4453 5.8633-11.523 13.598-10.621 13.488-34.375 37.355-37.195 37.355-0.75391 0 0.91406-2.8203 3.7031-6.2734 8.4531-10.449 24.035-33.816 28.312-42.434 4.3555-8.7969 3.8516-8.6211-4.3945 1.4766-7.4648 9.1641-35.926 37.945-41.328 41.812-3.3477 2.3945-2.0781 0.10547 5.2227-9.3711 13.59-17.609 22.59-30.629 26.469-38.258 2.9961-5.9062 1.7578-4.9609-12.703 9.668-8.8203 8.9297-19.016 18.508-22.648 21.312l-6.6211 5.0938 3.6133-5.168c1.9922-2.8477 6.6523-9.1484 10.387-14.02 3.7188-4.8711 7.8945-10.688 9.2656-12.918 1.3867-2.2266 3.6289-5.8867 5.0156-8.1172l2.5078-4.0586-4.2773 3.6914c-2.3477 2.0352-7.6289 6.9219-11.73 10.863-9.4844 9.1484-21.465 19.203-21.465 18.02 0-0.48438 5.9727-9.4297 13.277-19.867 7.3047-10.434 13.277-19.422 13.277-19.969s-8.2305 6.3477-18.293 15.305c-18.148 16.18-22.824 19.574-17.602 12.797 10.992-14.301 25.82-35.098 25.348-35.57-0.32422-0.32422-6.2109 4.3984-13.09 10.492-13.219 11.707-22.469 18.867-19.727 15.25 14.492-18.984 23.609-32.414 22.031-32.414-0.42969 0-7.082 5.3125-14.801 11.793-7.7148 6.4961-14.031 11.41-14.031 10.938 0-1.3281 5.7266-9.3438 12.543-17.566 8.2188-9.918 9.5469-12.41 4.5273-8.457-2.3008 1.8164-4.8672 3.293-5.6797 3.293-0.82422 0-4.3828 2.375-7.9219 5.2695-3.5273 2.8906-6.418 4.8555-6.418 4.3672 0-0.48438 3.3203-5.6211 7.375-11.41 4.0742-5.7852 7.1133-10.789 6.7891-11.129-0.33984-0.32422-5.6523 3.1289-11.82 7.6758-6.1523 4.5625-11.195 7.957-11.195 7.5586s2.625-4.8867 5.8281-9.9648c3.2148-5.0742 5.6211-9.4609 5.3398-9.7266-0.63672-0.63281-13.781 8.2227-14.902 10.051-0.47266 0.76953-1.4922 1.4023-2.2578 1.4023-1.5195 0 7.6445-13.328 11.168-16.25 1.2109-1.0039 2.1992-2.3477 2.1992-2.9805 0-2.2578-5.3867 0.30859-12.555 5.9609-4 3.1602-7.5117 5.5078-7.7891 5.2109-0.29688-0.27734 1.9609-4.2656 4.9844-8.8242 4.3828-6.6133 5.1367-8.6797 3.6758-10.113-2.5234-2.4492-12.602 8.6953-19.195 21.258-2.7305 5.1797-8.5273 14.582-12.895 20.871-4.3672 6.2852-7.2891 11.438-6.5078 11.438s6.5508-2.332 12.805-5.1797c6.2578-2.8633 11.613-4.9453 11.906-4.6641 0.29688 0.29297-0.76562 2.1836-2.3594 4.207-6.8438 8.707-18 33.977-15.918 36.074 0.39844 0.39844 2.168-1.625 3.9375-4.4883 3.2617-5.2852 15.684-17.094 17.973-17.094 0.69141 0-1.0352 3.0273-3.8516 6.7031-6.0508 7.9258-14.223 24.707-17.602 36.074-2.9805 10.078-4.5742 26.406-3.1133 31.984l1.0898 4.207 1.875-6.1836c3.6445-12.09 16.613-30.406 27.664-39.07 5.4609-4.2812 5.9453-4.4453 3.7031-1.2422-5.4141 7.7344-11.242 20.383-14.918 32.383-2.1094 6.8516-3.582 12.695-3.2891 12.992 0.29688 0.29297 1.9609-1.7734 3.7031-4.5938 3.6445-5.9023 20.699-22.152 21.941-20.914 0.45703 0.45703-0.84375 2.6445-2.9062 4.8711-17.867 19.367-29.555 51.617-29.777 82.273-0.11719 15.352 2.4219 31.734 4.8984 31.734 0.62109 0 1.5352-2.9648 2.0391-6.582 1.1797-8.6367 7.2266-23.41 13.176-32.164 4.5742-6.7148 8.5859-9.8281 5.6797-4.3984-3.0273 5.668-6.0781 26.082-6.0781 40.695 0 18.996 3.9375 33.918 13.246 50.199 6.6836 11.676 14.594 20.961 12.777 14.98-4.2617-14.035-6.2266-45.328-4.0547-64.414 2.6406-23.273 4.2773-23.746 4.3945-1.2695 0.074219 14.836 0.87109 22.938 3.0859 31.734 4.293 17.035 14.707 37.227 24.816 48.18 7.0664 7.6602 18.574 17.504 20.449 17.504 0.28125 0-1.875-3.1289-4.7969-6.9492m491.04-31.602c4.1484-2.4531 12.086-6.7305 17.648-9.5352 11.375-5.7266 12.996-7.4258 4.1016-4.2812-9.918 3.4961-25.363 12.223-31.633 17.859-4.25 3.8086-4.7383 4.6055-1.7852 2.8477 2.2695-1.3438 7.5234-4.4414 11.668-6.8906m171.68-10.23c-3.3633-16.09-8.7344-25.566-22.219-39.07-30.363-30.465-74.301-38.332-118.77-21.254-20.598 7.9102-48.586 29.195-69.391 52.754-13.648 15.469-12.809 16.219 1.6836 1.4727 33.625-34.227 72.309-52.707 110.49-52.797 16.023-0.027343 29.805 3.3359 45.738 11.203 23.844 11.781 44.75 35.793 51.859 59.574 1.668 5.5781 2.0664 6.0352 2.4375 2.832 0.23438-2.0781-0.57812-8.707-1.832-14.715m-178.61-14.242c32.594-21.906 71.203-31.059 110.66-26.246 11.688 1.418 9.8867-0.058593-4.543-3.75-16.098-4.1172-40.117-4.2031-55.344-0.20312-23.312 6.125-44.676 18.539-62.941 36.543-8.75 8.6211-9.6953 9.9062-4.0586 5.4336 4.0586-3.2031 11.363-8.5 16.23-11.777m-110.01-51.367c0.13281-10.848 6.832-51.926 11.82-72.457 5.7656-23.793 17.602-59.367 24.934-75.043 11.449-24.414 28.977-50.227 46.43-68.367 8.1602-8.4727 10.078-7.9727 2.8047 0.73828-9.3984 11.23-24.922 34.891-31.516 48-12.039 23.953-22.898 56.352-33.035 98.492-4.5859 19.133-10.535 58.539-9.043 60.031 0.30859 0.32422 2.0078-8.6055 3.7617-19.836 9.2227-58.91 28.227-111.65 52.539-145.73 10.238-14.332 26.633-33.211 28.875-33.211 0.75391 0-2.2578 4.4883-6.6836 9.9648-19.949 24.664-39.246 65.02-49.234 102.95-9.5156 36.16-16.395 70.688-14.461 72.621 0.32422 0.32422 1.6992-5.582 3.0547-13.137 3.1445-17.477 11.422-49.152 18.043-68.961 10.551-31.57 28.449-60.977 50.477-82.863 12.141-12.059 32.961-27.957 36.621-27.957 0.61719 0-1.5195 1.7734-4.7539 3.9258-12.688 8.4883-33.52 30.008-42.609 44.047-14.016 21.637-24.992 45.785-31.793 69.934-5.7266 20.309-10.758 41.652-9.9922 42.418 0.33984 0.32812 2.7461-6.875 5.3438-16.027 12.539-43.941 26.66-71.5 50.031-97.566 21.863-24.426 42.227-37.695 73.078-47.602 9.6641-3.0977 15.965-4.0156 31.957-4.6328 11.301-0.42969 24.344-0.074219 30.172 0.83984 5.6367 0.88672 10.504 1.3711 10.785 1.0781 1.2383-1.2422-23.461-8.3086-34.316-9.832-18.148-2.5234-43.734 0.67969-61.793 7.75-11.609 4.5625-9.3672 2.1406 3.4961-3.7344 19.344-8.8398 34.262-11.734 56.082-10.82 32.488 1.3438 55.684 10.762 75.512 30.672 12.039 12.09 13 11.66 3.9688-1.7852-11.641-17.344-33.285-31.852-57.203-38.348-14.754-4.0156-13.852-5.2969 1.5078-2.168 14.223 2.9062 38.477 15.098 49.719 24.988 17.398 15.293 29.438 36.781 30.91 55.176 0.44531 5.6055 1.3164 8.8242 2.2148 8.2656 2.625-1.6094 0.089844-25.465-4.1328-38.867-4.8672-15.527-10.504-25.621-20.211-36.25-18.223-19.957-44.367-32.547-77.652-37.445l-8.3203-1.2266 9.7227-0.17578c25.391-0.47266 59.207 14.492 79.539 35.188 24.27 24.723 35.941 62.938 29.066 95.262-1.2109 5.6836-2.0352 10.512-1.8281 10.73 0.20312 0.22266 1.8711-3.4375 3.7305-8.1172 2.5977-6.5547 3.543-12.5 4.0859-25.711 0.96094-23.219-1.0898-34.055-9.9141-52.223-15.535-32.074-44.16-53.445-82.684-61.785-6.0781-1.3164-14.043-3.043-17.703-3.8242-5.5781-1.2109-4.6328-1.3281 5.9023-0.72266 34.008 1.9492 66.852 18.109 87.859 43.219 14.488 17.328 26.867 46.863 27.355 65.223l0.16406 6.6445 1.207-5.1094c2.8945-12.277-3.8789-43.113-12.969-59.098-11.566-20.355-36.914-44.785-52.555-50.672-1.5352-0.58984-2.375-1.4766-1.8594-1.9922 1.7148-1.7148 19.801 8.6172 31.473 17.961 19.285 15.453 31.516 32.059 39.746 53.934 2.8203 7.5156 5.5352 17.906 6.0195 23.102 0.48828 5.1797 1.5508 9.8438 2.375 10.348 2.3477 1.4453 0.074219-20.812-3.4219-33.492-9.5586-34.672-31.926-61.359-67.043-80-12.438-6.6133-10.562-7.3828 3.0117-1.2266 13.07 5.9336 28.637 16.473 39.984 27.102 16.539 15.469 31.941 42.406 35.969 62.879 2.625 13.414 1.0469 42.816-2.9648 54.715-5.7383 17.062-14.402 32.77-23.77 43.16l-8.9844 9.9453 3.9688 1.8164c3.6445 1.6523 4.2773 1.4336 7.6133-2.5664 15.652-18.805 25.48-41.906 28.535-67.086 1.7852-14.672 1.207-25.359-2.4805-45.785-6.3125-35.102-27.34-65.109-59.016-84.254-20.23-12.219-35.309-17.727-61.039-22.273l-11.066-1.9609 7.9375-0.45703c30.012-1.7148 69.184 14.98 96.816 41.238 24.348 23.129 40.973 51.16 48.027 80.988l2.625 11.07 0.11719-10.035c0.47266-36.309-25.48-80.531-62.926-107.25-37.02-26.406-72.754-36.219-118.45-32.531-49.574 4.0156-86.43 19.07-126.75 51.824-20.582 16.723-33.609 32.781-44.75 55.188-7.5117 15.102-8.1016 18.984-1.3438 8.8594 9.0898-13.625 24.211-30.703 36.547-41.227 10.031-8.5625 36.695-24.25 38.375-22.582 0.37109 0.36719-4.8398 4.6758-11.551 9.5625-14.148 10.305-37.359 33.742-47.125 47.602-18.855 26.789-34.777 57.551-43.539 84.133-4.25 12.902-13.09 58.719-11.613 60.207 0.22266 0.23828 3.543-9.4023 7.3633-21.402 7.6133-23.867 22.203-55.66 35.102-76.441 12.613-20.34 29.625-39.426 51.227-57.477 2.0039-1.668-2.3164 3.3516-9.6211 11.16-7.2891 7.8047-17.484 20.102-22.648 27.305-11.406 15.926-25.922 45.387-33.965 68.93-8.3516 24.457-20.094 72.297-23.68 96.473-3.1719 21.461-5.5195 57.965-3.0234 46.969 0.73828-3.25 1.3867-9.2266 1.4297-13.285m-52.969-70.316c-8.2031-21.789-17.348-53.816-20.742-72.621-4.4258-24.605-6.5078-66.125-4.4414-89.02 1.9609-21.844 6.0938-44.695 10.535-58.258 4.043-12.355 16.23-37.949 20.285-42.629 2.4648-2.8477 1.9648-0.98828-2.168 8.1172-19.875 43.707-25.055 89.316-17.527 154.29 2.668 22.938 4.0586 30.348 9.5898 51.129 4.4102 16.562 11.73 37.934 12.672 36.992 0.28125-0.28125-1.4883-7.4414-3.9375-15.914-7.6562-26.598-11.598-49.578-13.309-77.652-3.3633-55.543 4.4258-102.35 23.328-139.98 5.6953-11.367 18.691-31.738 20.242-31.738 0.26563 0-3.0273 6.3789-7.332 14.156-9.6641 17.508-18.828 44.637-23.195 68.711-2.9062 15.953-3.3203 23.145-3.3047 57.355 0.027344 34.008 0.45703 41.523 3.3359 57.566 3.1836 17.727 9.0586 40.473 10.164 39.367 0.29297-0.29688-0.47266-5.7891-1.7109-12.207-6.375-33.125-8.5273-77.641-5.0898-105.43 5.0742-41.211 19.402-83.512 37.137-109.65 6.6953-9.8906 23.828-28.473 28.34-30.793 1.6836-0.85547-0.011718 1.668-3.7773 5.625-35.023 36.812-55.074 101.08-50.074 160.45 0.89844 10.684 2.7891 24.367 4.207 30.406l2.5508 10.965 0.074219-36.797c0.042969-28.754 0.64844-40.031 2.7148-51.559 8.7344-48.531 33.535-93.164 66.07-118.88 11.051-8.75 10.977-7.0703-0.17969 4.1211-35.277 35.406-55.031 82.391-57.23 136.16-0.76562 18.984 1.1953 42.66 3.9102 47.043 0.62109 1.0195 1.5469-8.9883 2.0508-22.23 1.2383-32.34 4.3242-51.129 12.336-75.336 14.691-44.414 37.355-73.609 86.797-111.88 37.434-28.988 53.527-47.07 67.148-75.469 3.2461-6.7734 6.9766-17.301 8.3203-23.379 3.1289-14.363 3.0977-44.297-0.074219-57.934-2.2734-9.7891-8.6602-24.062-13.352-29.891-2.1406-2.6562-2.1406-2.375 0.058594 2.9531 11.141 26.98 13.309 59.543 5.6641 84.871-8.0391 26.672-28.812 54.891-54.707 74.332-12.16 9.1211-35.469 22.555-36.812 21.211-0.38281-0.38672 4.1328-3.75 10.047-7.4844 16.496-10.422 36.18-27.16 48.098-40.93 24.391-28.117 36.09-65.699 29.48-94.656l-1.7852-7.8242-1.1641 15.438c-1.9766 26.406-9.2969 46.555-23.992 66.113-7.8047 10.391-33.109 31.055-48.07 39.277-10.312 5.6523-26.48 13.078-26.48 12.133 0-0.3125 3.8203-2.7305 8.4805-5.3594 12.852-7.2461 28.641-18.184 40.074-27.766 19.27-16.133 30.246-31.82 37.934-54.168 3.4531-10.051 4.0273-14.125 4.0703-28.695 0.058594-19.91-2.0195-30.758-8.6758-45.238-6.5625-14.332-21.039-29.387-35.777-37.227-4.3672-2.332-4.207-1.6953 1.3125 5.1367 7.1406 8.8398 13.012 22.996 13.898 33.445l0.76562 9.1992-3.7031-9.2695c-2.0352-5.1094-4.7656-10.746-6.0781-12.547-2.3281-3.1875-2.3594-3.1289-1.1641 1.8867 2.125 8.8594 1.2539 41.344-1.2695 47.973-2.1836 5.6953-2.2266 5.2852-1.5352-11.809 0.39844-9.7422 0.35547-17.359-0.11719-16.93-0.45703 0.42578-1.5625 5.4023-2.4492 11.07-1.918 12.34-10.578 31.188-18.562 40.355-6.3281 7.2734-19.238 17.902-21.746 17.902-0.91406 0 1.3711-3.1602 5.0898-7.0117 5.8711-6.1094 12.703-15.289 16.746-22.508 0.67969-1.2109-2.7422 1.5508-7.6289 6.1406-10.281 9.7109-24.227 19.012-41.504 27.676-32.707 16.414-61.434 36.086-79.641 54.566-34.613 35.145-59.195 92.195-64.02 148.61-0.91406 10.793-1.1367 22.496-0.48828 26.57l1.168 7.293 2.6562-14.719c5.1758-28.559 15.164-54.242 29.152-74.98 4.1484-6.1719 8.1875-11.602 8.9727-12.074 0.76562-0.48828-1.8164 5.9492-5.7422 14.289-9.4258 20.016-18.398 47.07-21.672 65.344-3.9531 22.051-3.6016 66.094 0.75 90.773 3.3516 19.086 5.9336 30.199 6.8047 29.301 0.27734-0.28125-0.16406-6.8203-0.97656-14.539-2.0938-19.984-0.60156-78.836 2.3906-94.465 2.375-12.445 11.156-41.832 12.188-40.812 0.29688 0.29297-0.42578 4.207-1.5938 8.6797-4.6484 17.871-5.9609 31.82-5.8555 62.391 0.19141 53.977 9.0586 106.29 25.613 150.98 4.043 10.895 12.113 28.531 12.762 27.883 0.28125-0.28125-2.1094-7.4688-5.3281-15.969m122.4-9.7578c10.992-29.461 20.688-48.133 35.5-68.266 8.1875-11.145 30.125-32.887 39.746-39.395 9.7383-6.5977 24.211-13.684 37.625-18.422l11.801-4.1641-8.1133 0.88672c-8.957 0.98828-28.18 7.1875-38.422 12.398-36.543 18.598-64.535 57.227-78.695 108.64-2.9375 10.656-5.3438 19.777-5.3438 20.293 0 2.8203 1.5781-0.36719 5.9023-11.969m306.49-9.7578c7.9844-11.984 14.02-26.879 17.234-42.582 3.9258-19.027 2.625-20.887-2.9219-4.207-6.0625 18.273-12.926 31.07-21.926 40.887l-6.5625 7.1719 6.4297-13.281c9.9023-20.414 14.164-36.711 14.887-56.828l0.62109-16.977-2.7422 14.762c-4.7539 25.566-14.785 47.16-30.07 64.77l-7.5391 8.6758 4.3203 3.0859c2.3789 1.6992 6.3164 5.1211 8.75 7.6172l4.4258 4.5156 4.1758-3.7344c2.3047-2.0664 7.2148-8.3086 10.918-13.875m-277.54-8.6914c4.3516-8.4727 18.027-25.656 29.285-36.785 12.617-12.473 31.176-24.633 48.484-31.809 10.977-4.543 11.461-4.9141 5.4141-4.0703-9.2812 1.2695-28.359 7.6602-36.488 12.191-8.2773 4.6328-25.098 20.266-32.18 29.918-4.9844 6.8047-18.383 31.676-18.383 34.156 0 2.4336 1.4609 1.0625 3.8672-3.6016m-233.43-8.1211c-10.664-16.133-21.066-33.695-29.98-50.672-13.012-24.75-13.75-21.859-1 3.8984 9 18.156 22.66 40.324 29.301 47.512 4.1758 4.5195 4.9258 4.1797 1.6797-0.73828m472.93-16.043c8.3516-12.488 10.328-18.699 2.3008-7.2031-2.832 4.0586-8.2773 11.336-12.082 16.164-6.2695 7.9531-6.4922 8.4727-2.3008 5.4883 2.5352-1.8125 7.9805-8.3086 12.082-14.449m-518.73 6.4492c-0.60156-1.0156-3.582-5.1641-6.6094-9.2227-3.0391-4.0586-8.3945-12.414-11.906-18.586-3.7031-6.4922-7.1406-10.922-8.2188-10.566-1.0156 0.33984-1.8438 1.2969-1.8438 2.1406 0 3.3047 11.215 19.719 19.566 28.664 8.4805 9.0625 11.344 11.469 9.0117 7.5703m383.2-11.438c13.129-1.2695 45.059 0.16406 51.859 2.332 8.4844 2.6875-6.2539-8.9453-16.906-13.344-7.0078-2.9062-18.254-2.8945-29.465 0.015625-10.152 2.625-22.738 8.0742-27.016 11.676-2.8477 2.4062-2.7734 2.4492 2.2148 1.5938 2.832-0.50391 11.52-1.5195 19.312-2.2734m-353.48-29.891c-7.4492-14.82-15.727-33.078-18.41-40.59-2.6875-7.5117-5.4453-13.652-6.1523-13.652-1.8594 0-1.668 1.0195 2.625 13.918 4.4414 13.344 20.684 46.141 29.094 58.777 3.1133 4.6641 5.8281 8.4844 6.0352 8.4844 0.19141 0-5.7383-12.117-13.191-26.938m16.984 5.625c-0.75391-1.9766-2.9648-6.7891-4.9414-10.703-4.2656-8.4844-19.535-46.73-20.969-52.484-0.54297-2.2305-1.9609-4.0625-3.1562-4.0625-2.6562 0-2.2852 1.332 6.4922 23.617 8.4375 21.402 21.246 47.234 23.414 47.234 0.29688 0-0.085937-1.625-0.83984-3.6016m-87.344-13.242c5.7656-2.9805 7.9648-6.125 3.0391-4.3516-1.9336 0.69141-10.152 1.2695-18.266 1.2695-13.223 0-15.598-0.42969-22.871-4.1211-4.457-2.2695-14.414-9.1055-22.129-15.199-7.7188-6.0977-19.328-13.715-25.82-16.902-11.066-5.4609-11.48-5.8164-6.5391-5.832 10.668-0.027344 19.418 4.0469 35.176 16.371 21.613 16.914 26.645 19.012 45.664 19.027l15.27 0.011718-4.5742-4.2773c-9.6914-9.0508-4.043-22.289 9.5039-22.289h6.8438l-5.7969-7.0117c-25.289-30.656-26.309-50.48-3.3789-65.832 7.6289-5.0898 8.9258-2.2266 5.7383 12.621-1.207 5.7109-3.1133 9.2539-7.0078 13.137-2.9219 2.9062-6.2383 5.5938-7.3477 5.9648-1.5469 0.5-0.98828 2.6992 2.4648 9.5352 6.0039 11.91 7.5234 12.973 16.938 12 7.5234-0.76953 18.77-5.0195 18.77-7.0703 0-0.5625-1.9492-1.4023-4.3242-1.8906-6.832-1.3594-17.766-6.9961-19.359-9.9648-1.3711-2.5664-1.1484-2.5977 4.6641-0.54297 7.8945 2.7891 19.918 2.7422 27.93-0.074219 11.125-3.9258 11.359-5.168 1.8125-8.9883-11.535-4.6367-21.156-15.027-25.316-27.383-4.0859-12.09-3.9258-13.195 0.94531-6.7578 3.9688 5.2383 12.172 12.473 12.172 10.742 0-0.47266-2.9961-6.832-6.6562-14.125-3.6562-7.2891-8.7031-18.406-11.184-24.691-8.3945-21.168-14.707-31.336-28.223-45.492-7.4062-7.75-17.984-16.855-24.742-21.301-6.5078-4.2656-11.82-7.9414-11.82-8.1758 0-0.5 12.852-7.6758 33.199-18.508 32.309-17.211 32.191-18.512-0.38672-4.1211-24.18 10.672-36.723 16.961-38.004 19.059-0.57812 0.92969-2.7734 1.1953-5.2852 0.64844-5.3242-1.168-5.5742 0.98828-0.82422 7.2773 1.9023 2.5078 4.3086 6.2109 5.3555 8.25 1.6211 3.1719 1.1211 2.9648-3.6289-1.4766-4.293-4.0156-5.3398-4.5-4.75-2.2148 0.42578 1.625 1.1641 4.9453 1.6367 7.3828 0.85547 4.4102 0.85547 4.4102-1.5195 1.1055-3.1875-4.4414-4.957-4.1914-5.0312 0.73828-0.03125 2.2305-3.8672-7.2344-8.543-21.035-11.699-34.523-30.926-73.062-35.586-71.32-0.67969 0.26562-7.3359 8.1172-14.801 17.445-33.934 42.512-48.879 73.035-51.211 104.58l-0.91406 12.309 13.66-9.3555c7.5117-5.1523 17.75-13.242 22.738-17.965 9.2812-8.7969 9.25-8.8984-1.6367-5.9922-4.9609 1.3125-4.0586-1.2539 3.3164-9.4609 3.6602-4.0586 6.6406-7.7188 6.6406-8.1172 0-0.39844-2.6992-0.13281-5.9883 0.61719-8.5742 1.9219-9.7227 0.23828-3.293-4.8242 5.5508-4.3555 10.668-9.9922 10.727-11.809 0.015625-0.53125-2.418 0.29297-5.3984 1.8164-7.1133 3.6289-7.9688 2.418-2.4492-3.4688 5.2656-5.6562 11.418-14.379 10.121-14.379-0.5 0-2.9375 1.0508-5.3984 2.3164-5.2383 2.7188-7.1445 1.7734-3.8984-1.9297 1.2539-1.4336 3.4375-4.918 4.8555-7.7656 3.9531-7.8984 21.645-32.488 22.855-31.734 3.4961 2.1562 19.281 42.391 19.148 48.781-0.011719 0.76953-2.9922-1.918-6.625-5.9766l-6.5781-7.3789 2.0352 5.9023c1.1211 3.2461 3.4375 9.1055 5.1484 13.035 4.2344 9.7383 3.9258 10.625-2.0625 6.0508-6.625-5.0469-6.582-2.7305 0.13281 9.2969 2.918 5.2109 4.9258 9.8477 4.4688 10.305-0.45703 0.45703-2.5664-0.3125-4.6914-1.6992-2.125-1.4023-4.1328-2.2578-4.4727-1.918-1.0469 1.0469 8.1445 13.168 16.91 22.289 5.2227 5.4297 7.2148 8.3242 5.3555 7.7773-9.3086-2.7148-24.934-3.7188-36.133-2.3164-20.758 2.5977-36.887 9.7578-76.855 34.094-7.7734 4.7266-16.316 9.3594-18.988 10.289-4.3359 1.5195-4.5742 1.8594-2.1523 3.2188 3.8203 2.1406 32.531 1.9492 40.219-0.28125 9.8867-2.8477 8.957-0.89844-2.2734 4.7539-17.91 9.0312-29.996 12-48.879 12.027l-16.703 0.015625 5.6367 4.7695c15.508 13.105 32.754 18.73 57.645 18.805 9.9453 0.027344 18.074 0.20703 18.074 0.39844 0 0.89844-21.941 11.262-27.914 13.18-3.7188 1.1953-12.07 2.6406-18.562 3.2188l-11.805 1.0312 7.4102 3.8828c15.047 7.8672 25.273 10.348 45.707 11.086 14.387 0.51562 20.938 0.13281 26.188-1.5078 3.8516-1.1953 7.0078-1.7422 7.0078-1.207 0 1.4297-15.828 11.066-24.344 14.832-4.0547 1.7852-10.18 3.6445-13.602 4.1172-7.3477 1.0039-7.082 2.6445 0.67578 4.1641 7.4961 1.4453 36.594 0.98828 43.867-0.71094 8.0859-1.8711 8.3789-0.66406 0.66406 2.8047-8.1602 3.6484-6.625 4.1328 15.609 5.0039 26.188 1.0352 33.551 3.793 62.234 23.367 5.5312 3.7773 13.379 7.9258 17.438 9.2266 8.957 2.8477 26.32 2.2266 32.934-1.1992m21.656-29.652c0-0.8125-4.1445-1.668-9.2188-1.918-7.6445-0.35547-9.2227-0.03125-9.2227 1.918s1.5781 2.2734 9.2227 1.918c5.0742-0.25 9.2188-1.1055 9.2188-1.918m55.477-18.953c-3.1406-9.6055-6.1094-16.824-6.5938-16.043-1.0625 1.7109 1.5352 10.73 7.3008 25.434 6.2148 15.867 5.8281 10.551-0.70703-9.3906m-314.41-9.6055c0-1.2266-19.875-7.7344-22.871-7.5-0.8125 0.074218 2.5078 2.0078 7.3789 4.3242 8.8359 4.1914 15.492 5.5508 15.492 3.1758m-172.01-14.793c0.42969-0.69141-2.8164-1.6953-7.2148-2.2109-9.4414-1.1094-25.625-6.7031-39.496-13.668-17.453-8.7695-37.238-30.082-46.164-49.742-3.1602-6.9375-3.4844-7.2344-3.5586-3.2617-0.042969 2.4023 2.7148 10.051 6.1406 16.973 13.883 28.074 42.535 47.91 74.566 51.645 14.328 1.668 14.855 1.6836 15.727 0.26562m164.63-18.715c0-2.5547-11.449-5.0781-22.457-4.9453l-12.215 0.16406 14.488 1.9609c7.9805 1.0938 15.285 2.3047 16.23 2.6875 2.4922 1.0195 3.9531 1.0625 3.9531 0.13281m-89.262-10.48c23.723-3.8672 37.52-5.3281 51.27-5.4766 10.328-0.11719 18.797-0.54297 18.797-0.94141 0-0.39844-2.1094-2.9844-4.6758-5.7305l-4.6797-4.9883-16.332 0.97656c-9 0.54297-18.664 1.2812-21.512 1.6523-4.6914 0.58984-4.5586 0.45703 1.4766-1.5508 3.6445-1.2109 12.613-2.9375 19.918-3.8516 7.3047-0.91406 13.5-1.8594 13.766-2.082 0.26563-0.22266-0.54687-1.9922-1.8281-3.9414-1.9805-3.0234-8.6328-20.34-7.8086-20.34 0.16406 0 8.1758 1.9922 17.797 4.4297 9.6172 2.4336 19.535 4.4258 22.027 4.4258 4.1172 0 11.375-4.75 11.375-7.4531 0-0.57422-4.6484-2.2422-10.328-3.7188-5.6797-1.4766-10.328-3.2188-10.328-3.8672 0-1.6953 2.5234-1.4766 11.805 1.0195 10.18 2.7305 18.16 2.9062 17.379 0.36719-0.66406-2.1836-11.008-7.5547-20.332-10.566-10.844-3.5-1.2812-2.7773 16.23 1.2227 12.777 2.9258 15.848 3.2031 17.5 1.625 1.668-1.6094 0.92969-2.5547-4.4258-5.668-7.2461-4.207-15.094-7.3789-24.879-10.035-3.8203-1.0508-5.5625-2.0547-4.1016-2.3945 3.2344-0.73438 25.586 3.4258 33.656 6.2734 7.1406 2.5234 9.4727 1.7734 7.2891-2.3164-1.6367-3.0391-11.746-8.6328-21.086-11.66-9.0742-2.9531-5.1758-3.3945 6.5977-0.76562 15.371 3.4375 16.746 3.4375 16.746 0.011718 0-1.8438-2.1562-4.1328-5.9023-6.2578l-5.9023-3.3633 7.3164 0.36719c6.0078 0.29688 7.4219-0.11719 7.8672-2.2734 1.1953-5.7852-33.684-17.621-59.801-20.293-23.988-2.4648-43.848 0.11719-68.992 8.957-38.832 13.652-46.637 16.059-56.461 17.418-9.918 1.3711-27.148 0.22266-31.871-2.1094-0.91406-0.46094-0.54688 0.10156 0.82812 1.2227 1.3711 1.1367 6.3594 3.2617 11.062 4.7383 14.668 4.5781 15.258 5.3594 3.4102 4.5039-23.328-1.7148-43.023-16.531-51.801-38.984-3.8828-9.918-3.5273-2.2578 0.36719 8.2969 5.7969 15.645 15.062 25.711 31.691 34.48 11.688 6.1406 4.6914 5.4609-7.7305-0.76953-19.551-9.7852-31.336-25.43-34.539-45.828-1.4922-9.5664-1.3594-13.062 1.0156-25.094 0.85938-4.3672 0.82813-4.3828-2.1211-1.7422-4.0586 3.6328-13.074 22.422-15.805 32.93-1.2227 4.7109-2.2266 14.379-2.2266 21.508 0 15.688 5.9023 36.027 13.867 47.82 11.762 17.402 35.234 33.227 57.867 39.012 12.586 3.2188 38.242 3.9141 55.094 1.4766 5.25-0.76562 9.7969-1.1211 10.105-0.8125 0.30859 0.3125-2.9805 1.6406-7.3164 2.9531-29.391 8.8867-63.695 5.3125-88.129-9.1523-11.816-7.0078-30.602-25.535-36.027-35.555-6.5977-12.148-11.512-28.148-12.41-40.504-0.47266-6.2891-1.3711-11.438-1.9922-11.438-0.63281 0-1.6367 4.4844-2.2266 9.9609-2.3164 21.582 7.2891 53.891 21.098 70.926 5.9453 7.332 8.4531 7.3477 2.8633 0.011718-3.2461-4.2656-10.461-18.906-9.3125-18.906 0.22266 0 3.8359 4.2656 8.0117 9.4922 15.773 19.688 42.008 33.34 72.605 37.828 12.039 1.7578 28.035 0.38281 64.184-5.4766m404.88-11.82c-4.0273-17.758-5.5156-59.75-2.9648-83.324 1.4453-13.344 8.5273-43.586 9.9023-42.227 0.26562 0.26563-0.57812 8.4258-1.8594 18.125-2.8047 21.195-2.0391 44.398 2.2422 67.602 1.6367 8.8125 3.332 16.398 3.7773 16.855 0.45703 0.44141 0.82422-4.4414 0.83984-10.863 0-6.4336 0.66406-20.828 1.4766-31.984 1.6641-23.16 9.1914-55.234 22.07-94.113 4.1328-12.441 7.2617-23.352 6.9492-24.219-0.29297-0.87109-4.9727 7.332-10.371 18.242-5.4023 10.922-9.8125 19.039-9.8125 18.035 0-0.98828 4.9414-16.957 10.977-35.48 14.875-45.609 16.363-53.152 16.141-81.359-0.21875-26.746-2.6992-38.332-12.512-58.438-6.6211-13.562-21.805-31.305-35.188-41.137-15.301-11.23-36.148-19.352-53.453-20.781l-9.3242-0.78125 11.062 3.4688c20.082 6.2734 34.879 15.629 51.125 32.293 10.152 10.422 19.652 23.633 22.633 31.469 2.0234 5.3281 1.0039 4.6211-3.7188-2.5508-7.0234-10.672-18.648-23.203-29.965-32.328-9.0898-7.3047-20.449-14.539-22.867-14.539-0.33984 0 4.5273 5.1523 10.797 11.441 16.527 16.547 28.062 35.172 33.141 53.504 0.55859 2.0391-1.7422-1.2969-5.1211-7.3789-13.93-25.105-29.539-42.008-49.797-53.902-10.797-6.3477-27.293-12.637-32.574-12.414-1.3281 0.042968 0.25 0.92969 3.5234 1.9609 30.512 9.5664 57.145 37.285 68.625 71.441 3.9531 11.734 4.9414 17.254 5.457 30.555 0.36719 9.3281 0 17.801-0.87109 19.926-1.1797 2.8906-1.5352 0.48438-1.6094-11.129-0.11719-18.688-2.5938-28.488-12.098-47.84-6.5938-13.418-9.3398-17.195-21.023-28.84-8.2773-8.2656-16.555-14.984-21.555-17.523-6.6562-3.3633-7.3203-3.5117-3.6914-0.79688 9.9453 7.4102 25.613 24.797 30.91 34.289 3.1016 5.5508 7.3359 15.188 9.4141 21.402 3.2891 9.875 3.7617 13.773 3.7344 30.512-0.03125 10.551-0.66406 20.664-1.4023 22.465-0.96094 2.2578-1.3867-2.0391-1.418-14.023-0.058594-20.043-3.082-32.191-12.629-50.613-5.7227-11.055-18.148-26.582-23.578-29.492-4.0273-2.1523-3.5703-1.1484 3.1719 6.9258 7.1289 8.5312 16.555 27.32 19.875 39.645 2.9648 10.953 3.1562 38.508 0.33984 47.941-1.875 6.2734-1.9609 5.6094-1.9336-13.285 0.015624-15.098-0.61719-22.035-2.668-28.754-3.3086-10.906-11.391-26.582-17.191-33.328l-4.3359-5.0469 4.293 8.1172c7.5547 14.258 11.008 29.594 10.844 47.973-0.074219 8.9297-0.76562 18.227-1.5352 20.664-1.1055 3.5547-1.5469 1.0781-2.2852-12.547-0.50391-9.3281-1.9023-20.707-3.1289-25.285-2.125-7.9102-9.6641-25.477-10.551-24.574-0.23438 0.21875 0.60547 4.0742 1.8594 8.5312 1.4336 5.0781 2.332 14.746 2.4219 25.828 0.16016 21.137-1.1055 26.066-14.844 57.566-5.3125 12.176-12.156 29.461-15.195 38.406-5.5625 16.34-11.184 38.703-10.035 39.867 0.35547 0.33984 3.0547-1.0312 6.0195-3.0547 3.9688-2.7031 5.8281-5.3125 7.0078-9.918 4.6953-18.262 14.949-44.605 18.945-48.68 0.58984-0.60547-1.4023 6.375-4.4102 15.496-3.0234 9.1211-6.0938 20.738-6.832 25.816-1.1953 8.1328-1.0625 9.2266 1.0781 9.2266 4.4844 0 6.875-3.6328 8.75-13.285 1.8594-9.5508 10.207-31.75 11.477-30.48 0.37109 0.35547-1.0156 6.1992-3.0664 12.988-4.0898 13.492-6.2422 24.871-4.7227 24.871 0.54688 0 3.2031-0.92969 5.9141-2.0664 4.2656-1.7695 5.1797-3.1289 6.7891-9.9609 2.1094-8.9453 5.9609-19.383 6.8477-18.512 0.32422 0.32422-0.41406 4.8438-1.6406 10.039-2.7734 11.762-2.7891 13.121-0.13281 13.121 5.7695 0 9.6367-3.6016 12.559-11.645l3.0078-8.2812-0.83984 7.0977-0.84375 7.0859 6.375-3.2188c3.5117-1.7695 11.848-6.7734 18.547-11.113 10.742-6.9648 12.172-7.543 12.172-4.8555 0 1.6836-2.2852 13.137-5.0898 25.461-2.8047 12.324-7.4492 36.176-10.328 53.035-7.9688 46.582-7.1133 72.16 3.7617 113.16 4.6055 17.359 5.5352 19.957 6.7422 18.746 0.39844-0.38281-0.76562-7.2305-2.582-15.23m-13.883 9.4609c-5.2656-22.438-8.1719-37.922-9.0156-48-0.55859-6.7188-1.3125-11.914-1.668-11.559-2.2109 2.2148-3.0508 13.18-1.6953 22.289 1.7852 12.043 6.5234 31.586 8.9414 36.898 2.0938 4.5898 4.4844 4.8555 3.4375 0.37109m-26.793-67.16c10.238-24.297 16.215-50.508 19.52-85.609 1.2969-13.844-0.13281-13.934-16.141-0.96094-17.824 14.453-36.754 35.93-43.805 49.656l-3.6016 7.0078 4.1445 3.8555c2.2891 2.1094 4.3398 3.6016 4.5742 3.3203 0.22266-0.28125 2.125-4.3086 4.2227-8.9453 6.6211-14.715 17.098-29.238 30.258-41.965 12.246-11.852 16.289-14.684 14.594-10.285-0.42969 1.1367-1.9492 7.8828-3.3633 14.996l-2.5664 12.945-3.5742-4.2969-3.582-4.2969 0.86719 4.4297c0.47266 2.4375 1.2578 7.75 1.7148 11.809 0.80859 6.9961 0.73438 7.2344-1.5664 4.4297-1.3281-1.625-2.9805-3.9414-3.6719-5.1523-2.3906-4.1641-2.6562-0.73828-0.66406 8.7969 1.0898 5.2383 1.668 9.8438 1.2812 10.227-0.38281 0.38672-2.6406-1.5781-5.0312-4.3672l-4.3359-5.0781 1.418 5.1523c0.78125 2.832 1.3867 8.1484 1.3555 11.809l-0.058594 6.6562-2.5234-4.7227c-2.4766-4.6367-2.5078-4.3828-2.0078 14.02 0.51953 17.98 1.875 24.887 4.5898 23.219 0.69531-0.42578 4.2656-7.9258 7.9531-16.648m76.16-50.289c3.1445-10.301 8.4531-29.02 11.82-41.594 3.3477-12.574 8.1289-29.727 10.605-38.098 2.4805-8.3672 4.207-15.512 3.8359-15.867-1.5625-1.5625-30.922 63.75-33.77 75.117-3.2461 12.945-5.4766 47.762-3.5117 55.113 0.97266 3.6914 1.3398 3.0117 3.1992-5.8867 1.1523-5.5508 4.6641-18.496 7.8203-28.785m-291.11-11.336c0.44141-1.3281-21.883-11.07-25.348-11.07-0.78516 0 3.5547 2.9219 9.6328 6.4961 10.844 6.375 14.754 7.5117 15.715 4.5742m-85.25-22.508c-1.1094-1.418-4.4258-5.5664-7.3633-9.2266-7.2891-9.0469-19.387-30.996-17.07-30.996 0.28125 0 2.6836 3.3789 5.3555 7.5 5.0586 7.8086 19.844 21.016 30.762 27.48 9.1328 5.418 8.8516 3.543-0.57422-3.8203-14.371-11.234-28.625-32.578-36.812-55.117l-4.957-13.68-0.074219 8.25c-0.042969 4.5469 0.91406 11.512 2.125 15.496 2.5977 8.5938 2.5234 7.9883 1.0156 7.9883-0.67578 0-3.4961-4.8125-6.2695-10.703-3.8516-8.1328-5.1797-9.8906-5.5312-7.3359-0.67969 4.7227 4.957 21.18 11.848 34.582 4.3242 8.3867 8.7344 14.113 16.789 21.773 10.52 9.9922 14.992 13.238 10.758 7.8086m674-17.344c8.8672-22.465 12.172-45.078 9.3828-64.18-2.7852-19.082-4.2188-19.969-3.3906-2.0781 1.0742 23.48-3.6445 52.559-12.277 75.496-1.9766 5.2578-3.5703 9.9805-3.5391 10.496 0.11719 1.6523 6.2109-10.598 9.8242-19.734m-470.87 5.1523c-3.7891-5.5508-7.8633-10.895-9.0586-11.898-3.9805-3.293 0.41406 5.7578 7.8359 16.164 9.0156 12.633 10.121 8.75 1.2227-4.2656m-91.711-5.8594c7.0234-9.7305 13.191-18.852 13.738-20.297 0.53125-1.4336 2.1836-3.4844 3.6445-4.5469 3.6719-2.6406 3.3633-6.8633-0.63672-8.8867-2.9219-1.4609-2.6836-1.5625 1.9609-0.83984 4.5156 0.70703 5.6523 0.28125 7.7461-2.9219 3.2461-4.9453 3.2773-4.8438-2.8008-6.8477-6.6992-2.2148-5.9336-3.1445 1.2695-1.5234 4.9414 1.125 5.7969 0.85938 8.4219-2.6562 1.6094-2.1523 3.4531-4.5742 4.1172-5.3867 2.6406-3.2461 6.7578-11.012 6.1367-11.559-1.4141-1.2539-29.566-9.9023-45.809-14.078-9.4141-2.4062-21.703-6.5703-27.297-9.2266-5.6055-2.6562-10.844-5.0781-11.656-5.3711-3.3633-1.2266 7.9688 7.4648 15.211 11.66 4.3086 2.4922 7.5703 4.7969 7.2617 5.1055-0.3125 0.32422-3.8672-0.39844-7.9102-1.5938-13.898-4.1328-29.391-17.195-36.574-30.879-3.0547-5.8164-3.8086-6.5234-3.8086-3.6172 0 6.4062 7.6289 19.188 16.852 28.238 8.8516 8.6914 8.8789 8.7656 3.0664 5.8281-15.566-7.8672-27.883-26.832-29.996-46.199l-1.1914-10.965-1.2109 7.3203c-1.6094 9.668 0.83984 24.961 5.6953 35.559 4.3672 9.5469 1.6797 8.5-4.2656-1.668-3.5547-6.0664-6.8008-17.227-8.8945-30.66-1.0195-6.4492-2.1406-6.0352-4.7227 1.7422-1.668 5.0195-1.7266 4.6523-0.96094-4.75 0.91797-11.293 3.8516-22.406 8.1172-30.793 3.4531-6.7891 2.7578-6.9492-3.0547-0.73828-11.48 12.27-19.27 35.117-19.27 56.488 0 23.41 6.125 39.324 21.145 54.969 10.727 11.188 27.559 20.25 47.566 25.609 10.828 2.8906 12.305 3.6172 8.2461 4-6.6523 0.63281-28.918-5.918-41.324-12.164-18.254-9.1953-33.199-29.121-39.395-52.516-2.6836-10.141-3.6445-31.676-1.7578-39.113 0.73828-2.8789 0.66406-3.6641-0.21875-2.2148-3.8828 6.3008-6.375 21.711-5.5039 33.949 3.0391 42.492 29.082 71.469 80.586 89.637 13.766 4.8555 13.871 4.9297 5.9023 4.0742-10.859-1.1641-34.762-9.4336-45.191-15.633-11.598-6.875-27.043-21.652-34.613-33.09-3.4688-5.2422-6.5664-9.2695-6.875-8.9453-0.30859 0.30859 0.91406 4.1172 2.7305 8.457 8.8203 21.035 29.402 39.957 54.441 50.051 8.4258 3.3945 43.746 14.438 46.668 14.586 0.91406 0.042969 7.4062-7.8672 14.414-17.594m103.63 1.9453c-5.6953-10.742-30.629-37.711-32.84-35.496-1.8164 1.8164 4.4688 10.094 18.84 24.824 8.3945 8.6055 15.492 15.484 15.742 15.262 0.26562-0.21875-0.51562-2.2695-1.7422-4.5898m-1.8594-25.137c-8.4375-11.039-18.988-20.824-32.34-30.02-3.7344-2.5703-7.082-4.3711-7.4375-4.0156-0.35156 0.35547 0.51953 3.793 1.9492 7.6602 2.1992 5.918 4.3086 8.207 13.664 14.773 6.0781 4.2656 15.684 11.957 21.316 17.078 5.9023 5.3594 10.492 8.5469 10.848 7.5156 0.32422-0.99219-3.2773-6.8359-8-12.992m205.59-102.67c-1.4453-25.52-8.1133-48.266-18.738-63.883-6.5508-9.6211-15.047-20.102-15.758-19.395-0.30859 0.29688 2.4062 6.125 6.0352 12.945 12.055 22.703 22.93 55.633 25.305 76.637 0.54688 4.8555 1.6836 8.8242 2.5078 8.8242 0.98828 0 1.2109-5.2539 0.64844-15.129m-456.23 666.81c-3.2461-1.1641-7.4336-3.8672-9.293-6.0195-3.8086-4.3984-3.2031-6.8047 0.79687-3.2188 1.4297 1.2852 5.0586 2.7891 8.0859 3.3516 4.8398 0.89844 6.0312 0.48438 9.957-3.457 6.2422-6.2266 6.3008-14.891 0.16406-21.047-4.6328-4.6211-12.691-5.9023-16.055-2.5391-1.3711 1.375-1.7695 1.375-1.7695 0 0-2.7148 5.3867-7.4844 9.6328-8.5586 13.93-3.5 27.254 6.832 27.254 21.105-0.015625 15.32-14.402 25.504-28.773 20.383m244.18-644.48c-5.918-2.3477-11.73-8.8242-13.367-14.891-4.3086-16.047 11.035-31.426 27.621-27.676 5.1172 1.1484 14.902 8.7969 11.258 8.7969-0.96094 0-2.1406-0.66406-2.6406-1.4766-1.7734-2.8633-10.715-1.5781-15.184 2.1836-8.1289 6.8359-6.8008 20.238 2.4492 25.02 5.6367 2.9219 9 2.9219 13.145 0.015626 4.1172-2.8789 4.3086-0.20703 0.26562 3.8359-5.6367 5.6406-15.492 7.3945-23.547 4.1914m306.92-6.7461c-15.094-7.8359-15.727-28.469-1.1523-37.371 6.6719-4.0586 16.969-3.8984 23.297 0.38281 6.6406 4.5039 7.8672 8.1328 1.668 4.918-6.5352-3.3828-10.223-2.8945-15.109 1.9766-8.4688 8.4883-4.6016 23.23 6.8477 26.109 2.3906 0.58984 5.2227 0.26563 6.918-0.78125 4.2969-2.6875 4.5469-1.0781 0.41406 2.7891-4.9414 4.6484-15.906 5.5938-22.883 1.9766m-56.098 921.1c-29.859-3.9727-57.215-19.234-78.195-43.602-18.34-21.316-29.406-45.656-30.379-66.867l-0.54688-11.82 2.8789 12.957c8.8203 39.723 34.008 71.738 70.098 89.094 18.809 9.0469 28.961 11.336 50.902 11.469 15.52 0.089843 20.078-0.42578 28.77-3.3047 12.586-4.1797 19.887-8.3125 29.332-16.637 6.9023-6.082 7.0938-6.1523 4.8672-1.8281-5.457 10.551-22.602 22.773-39.363 28.043-6.9648 2.1992-29.555 3.6602-38.363 2.4961m-0.73437-15.277c-18.266-2.7461-35.277-10.465-53.117-24.09-17.469-13.328-37.254-42.996-42.652-63.941-3.7031-14.348-2.7031-15.676 1.8867-2.4961 4.8672 13.996 9.4297 22.246 20.359 36.859 9.5312 12.75 16.48 19.172 30.926 28.605 19.652 12.84 41.344 18.613 63.988 17.016 24.391-1.6953 39.512-8.0273 54.961-23.008 10.695-10.363 12.438-10.32 5.7852 0.16016-14.77 23.293-48.441 35.957-82.137 30.895m-8.8555-17.535c-27.324-6.7461-55.195-30.645-70.316-60.312-3.4102-6.6836-5.9023-12.441-5.5469-12.797 0.35156-0.35156 3.2891 4.4297 6.5352 10.629 10.652 20.414 37.238 43.793 58.266 51.262 34.348 12.176 66.125 7.1133 87.105-13.875 9.1797-9.1797 12.012-15.645 14.758-33.637 2.2852-15.07-1.875-49.465-8.9727-74.246-1.5039-5.2383-2.5391-9.7578-2.2734-10.008 0.82812-0.82422 6.4805 14.762 9.5039 26.199 7.8047 29.535 9.7969 57.301 5.3555 74.379-5.4453 20.871-22.531 36.488-47.199 43.156-10.211 2.7617-34.582 2.3789-47.215-0.75m7.5703-13.684c-18.297-3.5117-45.191-20.695-55.875-35.707-2.0664-2.9062 0.79688-1.0898 8.5586 5.418 20.566 17.242 43.746 25.699 66.262 24.18 14.074-0.94531 22.395-3.6914 32.844-10.836 14.898-10.215 20.891-23.969 22.07-50.73 0.69531-15.75-1.0625-31.719-6.1836-56.09-0.60156-2.9062-0.29297-2.6836 1.4492 1.0508 3.6289 7.8047 9.6172 43.762 9.6172 57.812 0 24.887-4.8516 39.027-17.336 50.555-14.59 13.445-37.785 18.863-61.406 14.348m-8.6914-17.934c-5.4727-1.918-14.621-6.6562-20.301-10.539-11.008-7.5273-15.98-12.516-6.8164-6.8633 18.68 11.559 34.008 15.777 52.57 14.508 26.113-1.7852 42.785-17.004 47.344-43.188 1.6992-9.8008 1.168-39.957-0.85547-47.941-0.75-2.9648-0.63281-3.2188 0.62109-1.2539 2.4648 3.8086 4.9414 31.379 4.1602 46.168-0.38281 7.3672-1.9023 16.945-3.3789 21.27-3.5273 10.379-13.293 21.125-23.977 26.348-7.3008 3.5898-10.445 4.1797-23.898 4.5469-13.176 0.35547-16.984-0.10156-25.469-3.0547m6.2852-14.23c-2.9336-1.0156-2.0039-1.2969 4.5898-1.4141 20.641-0.37109 35.957-6.6133 47.348-19.293l7.3477-8.1641-2.3906 5.832c-3.8828 9.4297-9.1172 15.086-18.074 19.453-7.0391 3.4531-10.594 4.1797-21.762 4.4883-7.3477 0.19141-15.02-0.20703-17.059-0.90234m39.219-23.836c0.88281-1.1367 3.7305-4.8125 6.3594-8.1484 2.6094-3.3359 6.4023-9.9766 8.4219-14.762 2.7891-6.582 3.4531-7.4375 2.7148-3.5273-2.1367 11.602-9.0586 23.145-16.141 26.953-2.4492 1.3008-2.6836 1.2266-1.3555-0.51562m32.52-77.418c-1.418-3.7031-1.0039-4.6641 0.73438-1.668 0.87109 1.4766 1.2539 2.9961 0.88672 3.3789-0.38281 0.38672-1.1055-0.38281-1.6211-1.7109m-108.62-72.105c-9.3398-3.4961-21.957-8.8711-28.035-11.938-38.508-19.41-74.875-55.574-93.555-93.02-5.6523-11.352-11.996-29.949-10.668-31.293 0.23438-0.22266 1.9453 3.4102 3.8359 8.0586 16.156 40.074 51.195 79.84 93.012 105.54 6.0781 3.75 20.859 11.543 32.828 17.316 19.727 9.5195 23.961 11.941 20.656 11.762-0.60547-0.027344-8.7344-2.9219-18.074-6.4219m-226.12-19.719c-7.4648-15.719-13.012-30.832-12.82-34.953 0.042969-0.87109 1.9453 3.4102 4.2344 9.4922 2.2852 6.082 7.2305 17.977 11.008 26.438 3.7617 8.4414 6.6211 15.586 6.3281 15.867-0.28125 0.27734-4.2188-7.293-8.75-16.844m46.238 7.6328c0.074219-1.7266 0.41406-2.082 0.88672-0.90234 0.42969 1.0625 0.38281 2.3477-0.11719 2.8359-0.48828 0.48438-0.82812-0.38281-0.76953-1.9336m65.777-102.84c-4.7812-7.5586-7.3633-12.914-6.2109-12.914 0.30859 0 2.1367 2.8203 4.0859 6.2734 1.9336 3.4531 4.7188 8.1016 6.1953 10.332 1.4609 2.2266 2.2578 4.0586 1.7422 4.0586-0.50391 0-3.1289-3.4844-5.8125-7.75m489.25 201.14c36.426-13.547 60.816-39.969 73.562-79.688 4.6914-14.645 5.6523-10.422 1.4023 6.1992-8.8672 34.672-36.164 63.512-70.805 74.805-14.121 4.6055-17.352 3.5859-4.1602-1.3164m-70.129-0.87109c-11.934-2.875-22.809-8.3828-30.586-15.453-5.8398-5.3125-5.8398-6.9648 0-2.0508 4.7539 4 23.387 12.164 33.199 14.57 5.6797 1.3867 12.32 3.0664 14.754 3.7305 8.1602 2.2461-7.8516 1.5234-17.367-0.79688m69.008-10.582c29.184-16.707 45.133-32.234 56.906-55.363 6.3438-12.461 8.2617-14.629 5.1641-5.832-8.6328 24.488-29.316 47.055-54.695 59.707-10.77 5.3711-15.977 6.418-7.375 1.4883m-5.2695-178.89c-5.3398-5.5195-15.195-14.109-21.895-19.082-13.324-9.8906-14.34-12.137-1.7266-3.8242 10.359 6.8203 21.086 16.547 28.418 25.758 3.2305 4.0586 5.6641 7.3477 5.3984 7.2891-0.28125-0.042969-4.8672-4.6055-10.195-10.141m-743.51-53.137c0-5.5195 4.4102-20.812 8.1133-28.117 5.918-11.691 8.4688-11.527 3.0703 0.19141-2.7578 5.9766-6.1367 15.172-7.4961 20.457-2.7305 10.598-3.6875 12.531-3.6875 7.4688m717.05-205.27c-16.438-9.0352-40.871-15.617-65.641-17.652l-13.293-1.0938 14.25-0.22266c23.488-0.33984 49.914 6.6445 66.16 17.492 7.4062 4.9453 6.4922 5.8594-1.4766 1.4766m-349.63-113.74c-0.085937-4.3242 7.0703-23.293 13.324-35.309 6.8008-13.074 21.438-29.918 35.293-40.574 8.9844-6.9219 27.781-17.785 28.875-16.68 0.36719 0.35547-2.9062 3.1133-7.2617 6.125-11.344 7.8086-38.832 36.531-48.215 50.379-4.4141 6.4922-11.156 17.785-14.992 25.09-3.8359 7.3086-6.9922 12.238-7.0234 10.969m156.35-54.805c2.832-1.7578 8.4844-5.5352 12.543-8.3828 4.9844-3.5312 6.4453-4.1328 4.5-1.875-2.9688 3.4219-18.652 13.52-20.922 13.477-0.71094-0.015625 1.0469-1.4648 3.8789-3.2188m-44.336-14.008c20.98-15.484 42.109-31.645 48.512-37.121 11.332-9.668 25.453-27.973 32.047-41.535 3.1406-6.4531 5.8867-11.527 6.1211-11.293 0.94531 0.94531-4.5586 16.914-8.4531 24.547-10.254 20.09-39.938 46.332-70.156 62.008-6.4336 3.3359-10.062 4.8555-8.0703 3.3945m20.73 2.0508c0-0.39844 8.2031-6.7461 18.234-14.109 29.375-21.551 49.043-44.977 57.234-68.105 2.8906-8.1758 3.3906-12.547 3.4219-29.52 0.027344-21.402-1.5352-29.168-9.1914-45.535-2.1406-4.5898-4.1914-9.0039-4.5469-9.8164-1.9453-4.4883 5.8594 7.0859 9.0469 13.387 11.199 22.188 12.57 54.395 3.3789 79.707-6.582 18.156-28.344 43.512-49.547 57.727-12.32 8.2656-28.031 17.387-28.031 16.266m-320.24 191.46c-6.668-6.9258-11.285-9.2266-23.945-11.855-25.199-5.2695-36.441-15.395-44.527-40.133-1.418-4.3242-2.2734-8.1445-1.918-8.5156 0.36719-0.35547 3.2617 0.44141 6.4336 1.7852 3.1562 1.3438 11.227 3.957 17.895 5.8164 24.02 6.6719 34.984 15.793 42.863 35.633 2.5078 6.332 5.6055 13.992 6.8906 17.031 1.2812 3.043 2.1094 5.5352 1.8555 5.5352-0.25 0-2.7578-2.375-5.5469-5.2969m33.477-35.293c2.4219-15.262 7.8203-23.039 17.5-25.211 4.3516-0.97266 4.3086-0.87109-2.7148 6.3906-3.9258 4.0586-9.0742 11.277-11.434 16.047-4.2188 8.5312-4.2773 8.5742-3.3516 2.7734m-35.156-5.5195c-2.6875-5.0625-8.707-13.035-13.367-17.715-6.418-6.418-7.793-8.5-5.6523-8.5 4.8828 0 15.402 9.1953 19.152 16.754 3.0547 6.1523 6.5352 18.672 5.1914 18.672-0.23438 0-2.6406-4.1484-5.3242-9.2109m10.961-18.996c-9.4883-4.6953-12.895-10.438-12.895-21.727 0-8.9453 0.23438-9.5508 5.6953-14.555 5.4141-4.9766 6.1094-5.1797 14.398-4.5898 7.4062 0.54297 9.457 1.3555 13.707 5.4766 5.7383 5.5625 9.0469 15.348 7.6719 22.684-1.0469 5.5664-6.8906 11.883-13.176 14.258-5.8711 2.2148-8.2773 1.9805-15.402-1.5469m14.652-12.605c5.8125-5.2695 1.7695-16.754-5.9023-16.754-8.8828 0-12.305 10.555-5.2227 16.133 4.707 3.6914 7.5547 3.8516 11.125 0.62109m-19.949-67.707c-3.0703-3.6602-6.1523-6.3164-6.8594-5.875-0.69531 0.42969-1.7578 0.015624-2.3477-0.94531-0.66406-1.0742-0.42578-1.3281 0.64844-0.67578 0.94531 0.58984 1.7266 0.20703 1.7578-0.87109 0.042969-1.875 4.293 2.5977 10.445 10.98 4.6016 6.2734 2.5391 4.7969-3.6445-2.6133m-347.31 86.836c1.4141-0.37109 3.7461-0.37109 5.1641 0 1.4141 0.36719 0.26562 0.67969-2.582 0.67969s-4-0.3125-2.582-0.67969m-15.125-9.2266c-29.258-3.1719-54.043-21.27-62.676-45.77-3.4961-9.9062-1.6094-8.7539 4.3984 2.6836 10.105 19.234 29.285 32.754 53.91 37.996 14.328 3.0391 40.059 2.0508 58.059-2.2617 15.742-3.7617 18.516-3.0078 4.3672 1.1992-20.156 5.9922-40.086 8.1016-58.059 6.1523m-2.6406-14.035c-7.7031-1.875-19.934-6.7617-19.078-7.6328 0.25-0.23438 4.7383 0.90234 9.9766 2.5547 18.234 5.7109 39.113 5.0469 73.711-2.375 2.0352-0.42969 0.089844 0.54297-4.293 2.1836-18.031 6.6992-44.766 9.0312-60.316 5.2695m41.004-14.082c14.488-3.0391 21.465-3.1875 11.062-0.23828-3.2461 0.93359-10.223 2.0078-15.492 2.4219-9.2656 0.72266-9.1172 0.64844 4.4297-2.1836m19.918-4.4414c4.0547-1.7422 6.3867-1.7422 3.6875 0-1.2109 0.78125-3.2188 1.3867-4.4258 1.3398-1.4609-0.042968-1.2109-0.5 0.73828-1.3398m-47.953-2.8203c1.2109-0.66406 6.8594-1.6094 12.543-2.0664 5.6797-0.47266 12.645-1.2109 15.492-1.6406 2.8438-0.42578 1.8555 0.089844-2.2148 1.1523-8.793 2.3047-28.977 4.3086-25.82 2.5547m-9.2227-1.1094c1.0195-0.41016 2.6719-0.41016 3.6914 0 1.0156 0.41406 0.19141 0.73828-1.8438 0.73828-2.0391 0-2.8633-0.32422-1.8477-0.73828m508.58-170.24c3.5586-15.176 6.7461-39.75 6.8633-52.918 0.13281-13.52 0.35156-14.891 1.6055-9.8125 2.2305 9.0469 0.38672 38.109-3.2305 50.832-3.0391 10.703-7.1406 20.016-5.2383 11.898m-5.5742-22.879c1.4297-8.9609 3.5547-14.656 2.4766-6.6406-0.48438 3.6445-1.4609 7.9688-2.1523 9.5938-0.8125 1.9023-0.92969 0.85547-0.32422-2.9531m-305.66 70.789c-5.8125-2.0078-5.8281-2.0195-0.73828-1.1641 6.0195 1.0156 12.172 3.2617 8.8516 3.2305-1.207-0.015625-4.8672-0.94531-8.1133-2.0664m1.3125-21.902c-4.957-1.8477-11.949-5.0625-15.52-7.1602-8.5898-5.0312-20.746-18.066-25.289-27.086-6.0664-12.086-6.1406-15.277-0.10547-5.0469 8.6602 14.672 21.57 26.688 36.164 33.652 6.7578 3.2188 13.941 6.5547 15.977 7.4102 7.5703 3.1758-1.9922 1.668-11.227-1.7695m1.9336-11.973c-13.547-5.6367-25.395-15.145-31.293-25.105-1.8164-3.0547-0.73828-2.3047 3.4648 2.4219 6.6406 7.4688 17.441 15.141 30.809 21.918 10.328 5.2383 8.75 5.6367-2.9805 0.76562z"/>
 </g>
</svg>
