<?xml version="1.0" encoding="UTF-8"?>
<svg width="1587" height="1587" version="1.0" viewBox="0 0 1190.2 1190.2" xmlns="http://www.w3.org/2000/svg" zoomAndPan="magnify">
 <defs>
  <clipPath id="c">
   <path d="m0 0h1189.5v1189.5h-1189.5z"/>
  </clipPath>
  <clipPath id="b">
   <path d="m461 875h259v314.5h-259z"/>
  </clipPath>
  <clipPath id="d">
   <path d="m472 582h293.17v265h-293.17z"/>
  </clipPath>
  <clipPath id="a">
   <path d="m424.89 0h326.11v301h-326.11z"/>
  </clipPath>
 </defs>
 <g clip-path="url(#c)" fill="none">
  <path d="m0 0h1189.5v1189.5h-1189.5z"/>
  <path d="m0 0h1189.5v1189.5h-1189.5z"/>
 </g>
 <g clip-path="url(#b)">
  <path d="m586.32 1039c2.0742-6.7227 4.1016-13.215 6.0977-19.711 0.22656 0.023437 0.42969 0.074218 0.66016 0.10156 0 2.8281-0.30469 5.7109 0.074219 8.4922 0.75781 5.5586 1.8711 11.043 2.9336 16.555 0.12891 0.65625 0.86328 1.2109 1.3164 1.793 4.7305 12.535 4.25 26.109 7.2344 39.43 0.60938-0.63281 1.2148-1.1641 1.6953-1.7969 9.668-12.738 19.457-25.375 28.844-38.289 2.2266-3.0352 3.0117-7.0781 4.6562-10.59 5.1836-11.07 10.523-22.09 15.711-33.16 1.7969-3.8164 3.793-7.6602 3.6172-12.031-0.074218-1.9453-0.75781-3.8672-1.3398-5.7383-0.10156-0.30469-1.3164-0.68359-1.6719-0.45312-4.2734 2.5508-8.6758 4.9766-12.699 7.9336-4.8086 3.5391-9.2617 7.582-13.914 11.324-1.543 1.2383-3.6953 0.93359-4.5312-0.42969-1.1367 0.32812-2.2773 0.70703-3.4648 0.98438-0.60547 0.15234-1.3164 0.27734-1.8711 0.078125-5.0352-1.8203-10.07-3.6641-15.055-5.5859-2.1992-0.85938-4.0469-2.2266-5.3125-4.2969-0.25391-0.40625-0.73438-0.70703-1.1133-1.0117-0.27734-0.22656-0.83594-0.35547-0.85938-0.58203-0.30469-1.9727-1.293-3.5391-2.6328-4.9531-0.023438-0.023437 0.68359-1.0859 1.0898-1.1367 2.2266-0.25391 4.5-0.48047 6.7266-0.45703 4.2266 0.078125 7.8438-1.3125 11.438-3.5625 4.0234-2.5039 8.5-4.2695 12.777-6.3672 3.9219-1.9219 7.8438-3.8203 11.711-5.7891 6.3789-3.2344 12.727-6.5234 19.18-9.832 1.3164-10.566-0.63281-21.055-5.0586-31.289-3.8203-8.8242-6.8828-17.973-10.398-26.918-1.4688-3.7422-3.418-7.332-4.9102-11.07-0.65625-1.668-0.96094-3.5664-1.0117-5.3828 0-0.50781 1.543-1.543 2.3008-1.4688 3.1641 0.32812 6.5273 0.42969 9.3867 1.6445 7.0859 3.0078 13.992 6.6211 19.457 12.133 3.8945 3.9141 8.375 7.7344 9.2578 13.773 0.28125 1.8203 0.73438 3.6406 0.76172 5.4609 0.050781 6.0391-0.027344 12.055 1.3164 18.02 0.91016 4.0703 1.4922 8.2383 2.1758 12.359 0.097656 0.63281 0.023437 1.2891 0.023437 1.9453-0.074219 3.0586-0.074219 3.0586 2.8594 2.25 6.2227-1.6953 12.473-1.8945 18.492 0.58203 4.6055 1.8711 9.0078 4.2695 12.324 8.1641 0.30078 0.37891 0.63281 0.83203 0.68359 1.2891 0.17578 1.3125 0.60547 2.2461 1.9727 2.7266 0.48047 0.17969 1.0352 0.96094 1.0352 1.4688 0.027344 1.4883-0.68359 3.0586 0.86328 4.2461 0.074218 0.050781-0.48438 1.2109-0.96484 1.5664-1.2383 0.96094-2.5547 1.8945-3.9453 2.6289-0.70703 0.37891-1.6445 0.30078-2.4805 0.45312-1.668 0.27734-3.3906 0.50781-5.0352 0.85938-7.5898 1.7188-15.203 0.53125-22.793 0.027344-2.0508-0.12891-3.0352 0.48047-2.9375 2.8281 0.10156 2.4023 0.68359 4.7539 1.0664 7.1523 0.19922 1.2656 0.35156 2.5312 0.62891 3.7695 0.20312 0.85938 0.66016 1.668 0.8125 2.5273 0.17578 1.0859 0.53125 2.3242 0.17578 3.2578-1.418 3.8672-0.9375 7.8359-1.0391 11.777-0.19922 7.4062-0.53125 14.789-0.80859 22.191-0.023437 0.58203-0.023437 1.1641-0.023437 1.7461 0.15234 8.4141 0.48047 16.855 0.37891 25.273-0.078125 6.1914-0.80859 12.359-1.0625 18.551-0.30469 7.4336-0.37891 14.887-0.68359 22.32-0.15234 3.7891-0.45703 7.5547-0.83594 11.32-0.20312 1.8711-1.5156 2.7578-3.3125 3.2617-0.60938 0.15234-0.98828 1.1875-1.4414 1.8438-0.8125 1.1367-1.4453 2.4766-2.457 3.4141-1.2891 1.1875-3.0352 1.8945-4.2734 3.1094-1.0391 1.0352-2.2031 0.98438-2.8359 0.25-1.4648-1.668-3.3906-0.91016-5.0352-1.4141-3.0352-0.93359-6.2227-1.8438-8.8008-3.5625-3.3164-2.1758-6.6797-4.375-8.9062-8.0391-2.7344-4.5-3.9727-9.375-5.0625-14.355-1.1641-5.332-2.0742-10.715-3.0586-16.074-0.12891-0.63281-0.027344-1.2891-0.027344-2.2734-0.63281 0.40234-1.1133 0.55469-1.3672 0.88281-2.3242 3.0312-4.4766 6.2188-6.9297 9.125-3.1641 3.7656-6.5781 7.3281-9.8945 10.992-1.4648 1.6445-2.8594 3.3359-4.375 4.9297-6.0234 6.2188-12.121 12.387-18.164 18.602-3.7461 3.8438-7.2891 7.9375-11.234 11.551-7.8203 7.2031-15.332 14.785-24.211 20.727-6.832 4.5977-13.738 9.0469-20.824 13.242-10.348 6.0938-20.77 12.109-31.371 17.742-6.125 3.2617-12.574 6.0664-19.531 7.3047-0.60938 0.10156-1.2656 0.027344-2-0.30078 4.7812-2.3281 9.6406-4.4766 14.293-6.9766 9.668-5.207 18.699-11.375 27.375-18.07 15.461-11.93 29.629-25.301 43.188-39.277 8.1211-8.3672 15.812-17.137 23.684-25.73 0.17578-0.20313 0.30078-0.48047 0.63281-1.0352-0.96484-0.55859-1.8242-1.0625-2.707-1.5938-1.0898-0.63281-2.1758-1.2617-3.2891-1.8945-0.55859-0.32812-1.1406-0.98828-1.6445-0.9375-2.707 0.20312-4.125-1.1094-4.7852-3.5859-0.050781-0.20312-0.17578-0.42969-0.35156-0.53125-4.5039-2.957-5.793-8.2148-8.832-12.16-1.8945-2.4766-4.6797-4.293-7.1328-6.3164-2.2773-1.8711-5.4141-2.8555-6.0234-6.3438-0.074219-0.48047-0.70703-0.85938-1.2383-1.4922 2.2266-1.5938 4.6055-1.7188 6.9844-1.1641 3.5156 0.8125 6.957 1.8203 10.449 2.7578 2.7812 0.75781 4.9805-0.50781 5.6406-3.2617 1.0352-4.3203 2.125-8.6445 3.0859-12.992 0.125-0.55469-0.17578-1.6172-0.53125-1.7695-0.50781-0.19922-1.4922 0.050781-1.8984 0.45703-1.3906 1.4141-2.6055 1.6172-3.9961 0.050782-0.30469-0.32813-0.80859-0.60547-1.2656-0.65625-4.8828-0.63281-8.8047-3.0586-12.27-6.3945-1.3398-1.2891-2.6328-2.6055-3.9727-3.8945-1.3906-1.3398-2.707-1.0352-3.8203 0.65625-2.5547 3.918-5.5156 7.6602-7.7422 11.754-3.0859 5.6602-5.5156 11.703-8.5 17.441-2.8359 5.4062-6.0234 10.641-9.1094 15.922-1.3398 2.2734-2.8594 4.4492-4.2227 6.6992-3.543 5.8633-8.9336 6.3438-14.801 5.9141-0.55859-0.050782-1.1133-0.23047-1.6719-0.33203-2.3516-0.42969-4.0234-1.6172-4.6562-4.0664-0.125-0.53125-0.78125-0.91016-1.3906-1.543 0.68359-0.35547 1.2148-0.73438 1.7969-0.91016 7.6406-2.3516 13.383-7.3555 18.066-13.547 4.8047-6.3203 9.332-12.891 13.863-19.438 4.5273-6.543 8.9062-13.191 13.281-19.863 1.1133-1.6953 1.8984-3.5898 2.8359-5.3828-0.23047-0.15234-0.45703-0.30469-0.71094-0.45703-3.1875 3.3359-7.1836 6.1914-9.3594 10.086-3.2656 5.8359-8.5508 9.4531-13.004 13.949-4.1016 4.1445-8.957 7.5586-13.387 11.398-3.6172 3.1367-7.082 6.4727-10.625 9.6836-5.1094 4.625-10.246 9.2227-15.332 13.875-1.9961 1.8203-3.9961 3.6367-5.793 5.6367-2.1758 2.4258-4.5273 4.5234-7.6406 5.5859-0.58203 0.19922-1.3672-0.078125-2.0234-0.25391-0.73438-0.20312-1.4922-0.48047-2.125-0.88672-4.0742-2.7031-8.9297-4.2461-11.207-9.4492-1.1133-2.5781-1.6953-4.6758-0.68359-7.2539 0.20312-0.53125 0-1.2656-0.078125-1.8984-0.10156-0.73047-0.45312-1.4648-0.37891-2.1719 0.17969-1.9453 0.45703-3.6133 2.582-4.8555 5.9688-3.4609 11.965-7 17.508-11.094 7.2617-5.3828 14.117-11.273 21.074-17.035 3.1641-2.6289 6.1484-5.4336 9.1836-8.2148 0.58203-0.53125 1.1133-1.1602 1.4688-1.8711 0.40234-0.75781 1.0859-2.0469 0.80859-2.3477-0.88672-1.0117-2.1016-2.1758-3.3164-2.3281-1.8438-0.25-2.6797-1.0352-3.0859-2.7031-0.17578-0.73438-0.35156-1.8203-0.85938-2.0742-2.1758-1.1602-3.2109-2.9297-3.4414-5.2812-0.023437-0.15234-0.023437-0.32812-0.125-0.40234-3.7695-3.3359-1.5195-6.8242-0.078125-10.109 1.7461-4.0195 2.3047-8.2148 2.7344-12.461 0.91016-8.6719 1.3906-17.414 2.6797-26.035 1.6211-10.918 2.5312-21.836 2.1289-32.883-0.10156-2.8555-2.3789-5.8125-5.2656-6.6211-5.6133-1.6172-10.145-4.8789-14.445-8.6953-1.9492-1.7422-3.2383-3.6641-3.6953-6.1406-0.097657-0.55469 0.35547-1.6914 0.58203-1.7188 1.875-0.050781 3.8477-0.22656 5.6445 0.22656 3.8945 0.98828 7.6641 2.4023 11.535 3.4883 3.3398 0.9375 6.8828 1.2891 10.07 2.5547 3.1641 1.2383 5.8711 3.4375 7.7422 6.4688 0.45312 0.73438 1.2656 1.2383 1.9219 1.8438 0.58203-0.65625 1.3672-1.2109 1.6953-1.9688 0.83594-1.8711 1.4922-3.8164 2.2773-5.9141-0.40625 3.1602-0.91016 6.1172-1.0625 9.0977-0.074219 1.1641 0.65625 2.375 1.0117 3.5625 0.96094 3.2383 2.2266 6.4219 2.7578 9.7305 0.55469 3.5391 0.37891 7.1797 0.53125 10.77 0.023438 0.32812 0.20312 0.63281 0.42969 1.3633 3.0625-2.0469 6.0742-3.8398 8.832-5.9648 4.6523-3.5625 9.2344-7.2266 13.684-11.043 2-1.7188 3.8711-3.5156 6.2266-4.8281 0.80859-0.45703 1.0625-2.2734 1.2383-3.5156 0.68359-4.4727 1.0625-8.9961 1.9219-13.445 0.76172-3.9414 2.5078-7.7578 2.9609-11.699 0.50781-4.3242 0.15234-8.7461-0.125-13.121-0.078125-1.2383-0.96094-2.5273-1.7461-3.5625-1.6445-2.1719-4.0469-1.1641-5.7422-0.53125-4.25 1.5938-8.6289 3.2109-12.297 5.7891-5.3398 3.7148-10.273 8.1367-13.359 14.129-0.10156 0.22656-0.30469 0.37891-0.55469 0.50391 4.4023-10.461 10.449-19.84 18.77-27.676 0.83594-0.78125 1.7461-1.4922 2.6328-2.25 4.7812-4.1172 10.07-3.2578 14.953-0.73047 3.1367 1.6172 5.8203 4.2969 8.3242 6.8984 2.4258 2.5273 4.5547 5.4336 6.4492 8.3906 2.6328 4.0938 3.0391 8.8203 2.7578 13.574-0.37891 6.7734-0.53125 13.598-1.4922 20.297-1.1133 7.6328-1.7695 15.266-2.0742 22.973-0.25391 6.4688-0.55469 12.941-0.88672 19.41-0.19922 3.8672-0.73047 7.7344-0.78125 11.602-0.10156 5.8633-0.12891 11.754 0.14844 17.617 0.23047 4.4727 0.98828 8.9219 1.4688 13.371 0.35547 3.1328 0.65625 6.2656 0.9375 9.4023 0.63281 5.9375 1.1133 11.676 1.6172 17.664zm-92.773 27.957c7.3633-3.2852 14.219-7.2031 20.441-12.184 6.3242-5.0547 12.676-10.086 19.078-15.012 5.9453-4.5781 12.016-9.0234 18.012-13.523 0.9375-0.70703 1.3164-1.5156 0.58203-2.7539-1.6445-2.7578-3.1641-5.5625-4.6562-8.3672-1.5938-3.0312-2.4766-3.3867-5.0352-1.3125-3.6914 3.0078-6.6758 6.3164-6.8555 11.648-0.15234 4.8047-1.7695 9.2266-6.6523 11.578-1.0391 0.50391-2.1016 1.1133-2.7852-0.20312-1.0625-1.9727-1.9961-1.5938-3.2383-0.20312-1.0117 1.1367-2.2773 1.5195-3.1602-0.074219-0.98828-1.7461-1.9727-1.4141-2.9883-0.22656-2.4258 2.8047-5.0078 5.5352-7.1836 8.5156-5.2891 7.3047-10.371 14.734-15.559 22.117zm162.05-24.418c-0.71094 0.96094-1.2148 1.543-1.6445 2.1758-2.8594 4.3203-5.8203 8.5664-8.4766 13.016-1.5195 2.5273-3.3398 5.082-2.4297 8.4922 0.37891 1.4141 0.50781 3.2617-0.125 4.4727-0.91016 1.7461-0.35547 3.1875 0 4.7031 1.4922 6.6211 5.1602 12.359 7.918 18.449 0.88672 1.9453 2.8867 1.6953 4.4297 1.2891 0.63281-0.15234 1.2383-1.668 1.2891-2.5781 0.125-4.4727-0.050782-8.9453 0.074218-13.395 0.15234-5.3828 0.45703-10.742 0.78516-16.125 0.22656-3.8672 0.68359-7.7109 0.88672-11.551 0.050781-1.0117-0.12891-2.3008-0.71094-3.0352-1.1602-1.3867-1.5156-2.8281-1.4414-4.5469 0-0.27734-0.22656-0.60938-0.55469-1.3672zm-97.961-79.336c-1.3164 1.7695-2.6094 3.5625-3.9727 5.3086-5.543 7-11.082 14-16.648 20.977-1.3672 1.7188 0.25391 2.957 0.75781 4.2734 0.48047 1.2109 1.7461 1.668 3.0859 0.91016 1.6953-0.9375 3.3672-1.9492 5.0859-2.8086 4.2266-2.1211 8.4766-4.1172 12.676-6.293 0.75781-0.37891 1.6953-1.3398 1.7227-2.0703 0.14844-5.3086 0.10156-10.641 0.023438-15.977 0-0.70703-0.42969-1.4375-0.83594-2.0703-0.42969-0.73438-1.0859-1.3398-1.8945-2.25zm1.5156 33.336c-2.25 2.3789-4.5781 4.8281-6.9062 7.3047-1.3398 1.418-1.6211 4.0938-0.45703 5.6875 2.1523 3.0078 4.3789 5.9648 6.707 8.8477 0.40234 0.48047 1.6953 0.93359 2.0469 0.65625 1.1133-0.78516 3.1641-0.75781 2.9609-2.8828-0.42969-4.3477-0.68359-8.6914-1.3672-12.988-0.37891-2.1758 0.33203-4.9297-2.9844-6.625zm-27.777-14.707c6.0195-4.9805 14.926-18.375 14.344-21.891-4.1484 3.3125-8.1484 6.4961-12.117 9.707-0.30469 0.22656-0.38281 0.73438-0.60937 1.0625-2.3516 3.3594-1.6445 7.1016-1.6172 11.121zm116-81.918c0.58203 5.7148 3.0859 10.414 5.4648 15.316 4.5039-4.2695 1.3672-13.242-5.4648-15.316zm8.8789 111.71c-0.20312-0.10156-0.40234-0.20313-0.58203-0.30469-4.2227 2.125-6.0469 6.1953-8.1719 9.9844-2.9609 5.3086-4.8047 10.414-4.375 13.117 4.5547-7.9336 8.8555-15.367 13.129-22.797z"/>
 </g>
 <g clip-path="url(#d)">
  <path d="m569.02 629.21c9.6914-8.7188 19.051-17.262 28.562-25.652 5.2148-4.5742 10.68-8.8711 15.992-13.32 1.8203-1.5156 3.543-3.1836 5.4375-4.6016 4.1016-3.082 8.6289-3.207 13.438-1.9453 2.5781 0.68359 4.957 1.2891 5.7656 4.2461 0.10156 0.32812 0.63281 0.50781 0.88672 0.80859 0.68359 0.85938 2.0977 1.2656 1.668 2.8828-0.074219 0.27734 1.0898 0.83203 1.6211 1.2891 0.68359 0.60547 1.8984 1.2383 1.9219 1.9219 0.35547 6.6211-0.20312 13.141-3.1133 19.207-0.53125 1.0859-1.668 1.8945-2.8555 3.1602 3.9688-1.1641 7.4375-2.2734 10.953-3.2109 4.3008-1.1367 8.2227-0.55469 11.184 3.0586 0.78516 0.9375 1.0625 2.2734 1.7188 3.3359 0.80859 1.3164 2.4062 2.4766 2.5312 3.8164 0.25391 2.6797-0.27734 5.4336-0.45703 8.1641-0.22656 3.5391-3.4414 5.2305-5.0078 7.9609-2.8086 4.9297-5.8945 9.7305-9.1094 14.406-2.9844 4.3242-5.6172 9.0508-10.246 11.98-1.7188 1.0898-3.793 1.6953-5.3867 2.9062-2.8086 2.0977-3.0391 4.3242-0.83594 6.9766 6.3008 7.6836 12.574 15.395 19.102 22.875 2.7578 3.1602 6.0195 5.9375 9.3594 8.5156 1.7227 1.3164 4.0234 2.4258 6.1484 2.5781 14.699 1.1133 28.793 5.0547 42.91 8.9492 9.9922 2.7539 20.113 5.1797 29.574 9.4766 3.9219 1.7969 7.5664 4.2461 11.336 6.3945 0.25391 0.15234 0.45312 0.40625 0.70703 0.48047 2.0508 0.63281 3.7969 1.3633 1.8242 3.918-0.078126 0.10156 0.48047 0.98438 0.88281 1.1367 1.0391 0.40625 2.1758 0.58203 3.4688 0.91016-0.12891 0.80859-0.25391 1.6172-0.43359 2.8047 2.1758 0.27734 4.4531 0.58203 6.6055 0.85938-1.8711 2.4531-3.3672 5.1328-5.543 7.0781-2.3008 2.0469-5.1328 3.5625-7.8906 5.0039-4.7812 2.4766-10.195 2.832-15.332 4.0938-6.9844 1.7188-13.867 1.1641-20.824 0.83594-0.50391-0.027344-1.0117-0.12891-1.5156-0.050781-5.0117 0.63281-8.4766-2.2266-11.941-5.207-6.4531-5.5117-13.258-10.488-21.277-13.648-2.6836-1.0625-5.0625-2.957-7.4883-4.5742-3.6719-2.4531-7.4648-4.7539-10.855-7.5586-5.0352-4.1445-9.918-8.4922-14.523-13.09-5.8945-5.8906-11.484-12.082-17.43-18.402-0.98828 2.5781-2.125 5.332-3.0625 8.1914-1.2656 3.7891-2.3789 7.6562-3.5156 11.473-0.42969 1.4141-0.91016 2.832-1.0625 4.2969-0.050781 0.48047 0.91016 1.0352 1.4141 1.5664 0.78516 0.78516 1.5195 1.6172 2.3555 2.3242 1.0859 0.9375 2.2266 1.7969 3.3398 2.6797 0.22656-0.14844 0.42969-0.27734 0.65625-0.42969-0.22656 0.71094-0.45312 1.418-0.70703 2.1484 2.6797 2.0234 2.2266 6.1953-1.543 10.641 2.3008 0 4.2734 0.12891 6.2227-0.023438 3.1875-0.25391 5.668 1.1133 7.8945 3.1094 0.32812 0.30078 0.45312 0.85938 0.65625 1.3125 0.20312 0.42969 0.32812 1.0117 0.66016 1.2891 0.73047 0.60547 2.25 1.0859 2.25 1.6172 0.050781 2.0977 0 4.3477-0.65625 6.3203-1.3945 4.0703-3.8711 7.6562-5.6445 11.574-1.6445 3.6641-3.8945 7.1016-6.1211 10.488-1.0391 1.6172-0.91016 2.6289 0.70703 3.3867 3.5938 1.6445 7.2891 3.1367 10.855 4.8047 4.7031 2.1992 9.3086 4.625 14.039 6.7227 2.1016 0.93359 4.4297 1.2891 6.6289 1.9961 2.0234 0.65625 4.0508 1.2891 5.9727 2.1992 4.7578 2.2227 9.5625 4.4492 14.168 6.9766 3.1602 1.7422 6.1992 3.7891 8.9805 6.0664 3.7969 3.1328 7.3125 6.6211 10.93 9.957 4.1992 3.8906 6.9062 8.6172 8.3242 14.18 0.45703 1.7422 1.4922 3.3594 2.25 5.0273 0.17969 0.37891 0.43359 0.80859 0.43359 1.1875 0 1.0625-4.4297 4.1211-5.5156 4.0977-0.78516-0.027344-1.6445 0.25-2.3555 0.62891-2.7305 1.5195-3.8203 1.2891-6.0469-0.95703-0.63281-0.63281-1.7695-0.91016-2.7305-1.0625-5.4414-0.80859-10.879-1.4648-16.293-2.2773-1.7461-0.25-3.4414-0.88281-5.1641-1.2383-1.4648-0.30078-2.9336-0.45312-4.7812-0.73047 0.63281-0.63281 1.1914-1.1875 1.7734-1.7461 2.125-1.9688 4.1992-3.9922 6.375-5.9141 2.4531-2.1992 2.5547-4.8281 1.5156-7.6562-0.93359-2.5039-2.3242-4.6523-4.6797-6.1914-5.1602-3.4141-10.145-7.1055-15.355-10.441-2.0508-1.3125-4.6055-1.793-6.7539-2.9805-2.1523-1.1875-3.9727-2.957-6.0742-4.1953-3.4648-2.0469-6.9844-4.0195-10.602-5.7617-2.1484-1.0391-4.5273-1.6445-6.8281-2.3008-5.0859-1.4688-9.1875-0.35547-13.008 3.6641-6.0195 6.3672-12.902 11.805-21.555 14.281-4.1484 1.1875-8.4492 2.0195-12.727 2.5-5.3633 0.58203-10.801 0.80859-16.215 0.91016-7.9961 0.125-14.852-2.8047-20.594-8.3164-1.0625-1.0352-1.9492-2.2461-2.6328-3.0586-4.8086 3.9688-9.1836 8.2148-14.168 11.527-5.0586 3.3633-11.004 5.0781-17.129 3.2852-3.2891-0.96094-5.7422-3.5391-7.5391-6.4453-3.5664-5.7617-4.707-12.309-5.6406-18.906-0.25391-1.8438-0.32812-3.7148-0.027344-5.6836 0.66016 1.4648 1.2148 2.957 1.9766 4.3438 2.0977 3.8438 4.2227 7.6602 6.4258 11.426 0.96094 1.6445 2.1992 3.1602 3.3125 4.7266 1.7969 2.5508 4.125 3.2109 6.8828 1.7695 5.8164-3.0586 10.602-7.4805 14.852-12.387 2.1992-2.5273 3.8203-5.5352 5.8164-8.2383 1.0625-1.4141 2.6055-2.5273 3.4414-4.043 1.8711-3.3359 3.418-6.8516 5.0859-10.289 1.0625-2.2227 1.543-4.4453-0.68359-6.9492-4.8828 2.4531-9.918 4.9805-14.953 7.5312-4.7031 2.4023-7.3359 6.6211-9.3359 11.199-1.0859 2.4492-3.5156 2.4492-5.2344 3.7148-0.28125 0.20312-1.0625-0.20313-1.5703-0.45703-0.83594-0.40234-1.5664-1.2109-2.4297-1.3125-3.4141-0.50781-3.6914-3.4883-4.832-5.8125-0.125-0.28125 0.15234-0.78516 0.30469-1.1875 1.9492-5.4102 3.9961-10.793 5.7695-16.277 0.37891-1.1641-0.32813-2.6797-0.48047-3.7422-3.1133 1.1875-6.0742 2.375-9.0352 3.4375-2.3008 0.83594-5.793-0.50391-5.8438-3.5117 0-0.58203 0.23047-1.3906 0.66016-1.7461 3.6914-2.957 7.5391-5.7617 11.207-8.7695 8.5508-7.1016 15.637-15.621 22.945-23.91 0.9375-1.0625 1.3438-2.6289 1.7969-4.043 0.55859-1.7188-0.58203-2.7812-1.9219-3.3359-1.3672-0.55859-2.8828-0.80859-4.3516-0.96094-4.0977-0.45703-7.1094-2.5547-10.273-5.1836-2.2266-1.8164-2.7812-4.293-4.4258-6.2148-0.9375-1.0859-0.85938-2.4258 0.125-3.7148 0.86328-1.1133 1.4453-2.4531 1.9492-3.3633-4.1992 4.0195-8.957 7.9102-12.902 12.535-3.7695 4.3984-7.9961 7.1523-13.738 7.6328-2.1992 0.17969-4.375 0.45703-6.7812 0.45703 10.703-7.8359 16.445-19.539 24.465-30.152-1.9453 0.32812-3.3125 0.58203-4.7031 0.80859-0.48047 0.074219-1.1406 0.32812-1.4453 0.125-2.375-1.6172-5.1602-1.1367-7.7148-1.7188-4.4531-1.0352-8.9297-2.1719-13.207-3.8398-3.5664-1.3906-6.8828-3.4883-10.223-5.4102-1.6172-0.93359-1.3125-4.1953 0.48438-5.0039 1.1367-0.50391 2.4531-0.78516 3.6914-0.85937 2.3789-0.125 4.7812 0.074218 7.1875-0.050782 6.375-0.37891 12.723-0.85938 19.102-1.2617 3.1875-0.20313 6.6016 0.37891 9.4844-0.58203 4.3789-1.4688 8.4258-3.9688 12.523-6.1445 0.53125-0.27734 0.96484-1.2891 0.98828-1.9453 0.050781-3.6406-1.3398-5.2812-4.8594-6.0898-4.3242-1.0117-7.7891-3.6914-11.383-6.0664-4.4297-2.9062-7.4648-6.9766-10.07-11.551-2.0742-3.6641-1.9219-6.7969 0.25391-9.5039 1.3164-1.6172 2.582-1.668 3.9219-0.074219 0.27734 0.32812 0.91016 0.73047 1.2148 0.60547 1.7969-0.63281 3.0586 0.48047 4.4766 1.1875 1.9219 0.96094 3.543 0.73438 5.3633-0.60547 7.1094-5.2812 14.422-10.312 21.531-15.594 4.0977-3.0352 8.2969-3.5898 12.98-1.7188 1.4922 0.60547 3.1367 0.80859 4.7305 1.1602 1.9961 0.42969 3.6406 1.6445 4.0703 3.4375 0.71094 2.9062 2.9102 3.793 5.1367 4.8281 1.293 0.60547 2.7578 0.83594 2.6562 2.9844-0.074219 0.88281 1.4922 1.8438 2.3789 2.8281zm-41.668 70.695c2-0.55859 4.0469-0.78516 5.7188-1.6953 3.2617-1.7422 6.2734-3.9414 9.4844-5.8359 2.2031-1.2891 4.3281-2.9336 7.1367-2.5273 2.125 0.30078 4.3242 0.35156 6.3516 0.98438 1.4141 0.45312 2.6289 1.668 3.8438 2.6523 0.73438 0.58203 1.2891 1.3672 1.9492 2.0469 0.78516 0.80859 2.3516 0.91016 2.1484 2.6055-0.050781 0.53125 0.42969 1.1133 0.66016 1.668 0.58203-0.32813 1.3125-0.50781 1.7461-0.98438 1.668-1.8203 3.1367-3.793 4.832-5.5859 3.793-4.0703 7.6406-8.0898 11.535-12.059 0.53125-0.53125 1.543-0.96094 2.2773-0.88281 1.4688 0.17578 2.8594 0.98438 4.3242 1.0625 1.5469 0.097656 2.3047 0.60547 2.9102 2.0195 0.63281 1.5156 1.6953 2.8555 2.6055 4.3242 5.668-5.0312 11.082-9.9844 18.52-12.59-0.67969-1.1602-1.2109-2.2227-1.9219-3.1562-2.125-2.8086-5.4883-2.6562-8.4766-3.4375-1.5156-0.40625-3.0352-0.78516-4.5273-1.1875 2.8359-0.53125 5.5156-0.80859 8.2227-0.96094 1.6445-0.078126 1.8711-0.73438 1.0898-2.0234-1.543-2.5781-2.8359-5.3086-4.6562-7.6562-3.7188-4.8789-7.7188-9.5547-11.613-14.309-1.0117-1.2109-2.0742-2.3984-3.5664-4.0664-0.17969 2.6016-0.27734 4.4453-0.40625 6.293-1.5156-4.0938-2.8086-8.1406-3.9219-12.258-0.53125-1.9727-0.73438-4.0469-0.98438-6.0664-0.050781-0.42969 0.42969-1.3164 0.65625-1.3164 2.3008 0.078125 4.9336-0.32812 6.832 0.66016 2.5547 1.3125 4.6289 3.6367 6.7812 5.6836 4.0195 3.8672 8.043 7.7344 11.84 11.828 3.9219 4.2461 7.6406 8.6719 11.258 13.168 1.8477 2.3008 2.707 2.832 5.4883 1.7188 0.83594-0.32813 1.6445-0.85938 2.3555-1.4375 8.9805-7.2539 15.531-16.457 21.25-26.336 1.293-2.2266 1.9492-4.1211-0.53125-6.168-1.5156 0.88281-3.1875 1.9219-4.9336 2.832-5.6914 2.9805-9.4883 7.9102-13.156 12.938-1.6445 2.2773-3.0352 4.7773-6.5273 4.375-0.60547-0.078124-1.2656 0.53125-1.9219 0.78125-0.55469 0.20313-1.1367 0.37891-1.8984 0.63281-0.050781-1.7188-0.42969-2.7031-2.2266-2.957-1.3398-0.20312-2.8086-1.0859-3.7188-2.1211-0.93359-1.0391-1.5156-2.5781-1.7969-3.9961-0.27734-1.3398-0.37891-3.0312 0.20313-4.1953 3.6445-7.707 7.4883-15.289 11.258-22.949 0.28125-0.55469 0.68359-1.6172 0.50781-1.7422-1.1641-0.88672-0.50781-1.8711-0.40625-2.8594 0.10156-1.3633-0.074218-2.2969-1.9219-1.6172-1.7969 0.66016-3.6953 1.0625-5.5664 1.4414-9.4883 1.9219-17.887 6.3203-26.109 11.172-7.0078 4.1445-12.93 9.6797-18.926 15.113-0.58203 0.53125-1.0117 1.668-0.88281 2.4258 0.96094 6.0938 0 12.082-1.0117 18.047-0.37891 2.2266-3.3398 4.1953-5.7188 4.3242-0.68359 0.050782-1.543 0.48047-2 1.0117-3.9219 4.4727-7.4883 9.2734-11.664 13.469-4.2227 4.2734-9.0039 7.9609-13.535 11.93-4.6289 4.043-9.2344 8.0625-13.836 12.133-0.53125 0.48047-0.96484 1.0625-1.6953 1.8711 1.9453-0.27734 3.3867-0.48047 4.7305-0.66016 0.45312 1.4414 0.88281 2.6289 1.543 4.4258zm55.305-13.27c-6.9062 3.0312-10.953 8.543-15.484 13.32 0.53125 0.88281 1.2422 1.6406 1.5195 2.5273 1.3398 4.1953 0.53125 8.5156 0.40625 12.789-0.050781 1.4883-0.45703 3.4102-2.9375 2.8047-0.22656-0.050781-0.68359 0.32812-0.85938 0.60547-2.7812 4.1719-6.6797 7.1523-11.082 9.25-3.4141 1.6172-4.9062 4.1953-5.3867 7.4844-0.25391 1.7422-1.0625 2.8281-2.0742 4.0938-3.7969 4.7266-7.7188 9.375-11.184 14.328-2.3789 3.4141-4.0469 7.3047-5.9961 10.973-0.23047 0.42969-0.27734 0.93359-0.50781 1.7188 3.2656-1.2656 6.0977-2.4023 8.957-3.4648 3.8477-1.4648 7.668-3.0586 11.613-4.2461 2.832-0.85937 6.3242-0.78516 7.9961 1.5156 1.793 2.4766 4.4766 4.9297 4.2227 8.4922-0.17578 2.2773-0.27734 4.6523-1.0352 6.7734-0.9375 2.6289-2.5078 5.0078-3.8477 7.582 4.6562-0.40234 9.0586-0.75781 13.461-1.1875 2.1992-0.19922 4.4023-0.50391 6.5781-0.88281 1.6172-0.27734 2.5039-1.793 1.543-3.0078-1.2148-1.543-0.32812-2.25 0.58203-3.2344 11.434-12.082 22.82-24.188 34.23-36.297 1.5938-1.6914 1.5195-2.7773-0.074219-4.4219-1.8984-1.9727-3.9219-3.6641-5.2891-6.2695-1.418-2.6758-1.9492-5.1797-0.98828-7.707 3.5703-9.4258 7.2891-18.777 11.184-28.055 1.1641-2.7812 1.7461-5.2305-0.17578-7.8867-0.25391 0.050781-0.58203 0-0.78516 0.15234-4.832 3.0312-9.6914 5.9883-14.422 9.1484-2.4805 1.6445-3.0117 4.5234-2.8828 7.1523 0.30469 7.4062 1.1133 14.812 1.4414 22.242 0.25391 5.5859 0.050782 11.172 0.023438 16.758 0 1.9961-1.5664 3.8906-3.1094 4.1211-1.3672 0.17578-2.9102 0.30078-4.0234 1.0117-1.3906 0.88281-1.9219 0.45313-2.7578-0.63281-0.63281-0.83594-1.4922-1.5664-2.4023-2.125-2.8359-1.6914-6.832-1.668-8.0977-5.6094-0.050781-0.17578-0.37891-0.25391-0.48047-0.40625-0.73438-1.0859-1.4922-2.1719-2.1758-3.2852-0.32812-0.53125-0.37891-1.3125-0.83594-1.6914-1.1875-1.0391-1.1641-2.2773-0.70703-3.5391 1.1133-3.0078 2.3281-5.9648 3.4414-8.9492 1.0117-2.7031 2.5312-5.4336 2.7305-8.2109 0.50781-7.0273 0.42969-14.078 0.53125-21.133-0.023437-0.83203-0.53125-1.6406-0.85938-2.6016zm20.594 103.2h-13.863c-1.7969 0-3.5938-0.10156-5.3906 0.027344-6.0703 0.37891-12.141 0.83203-18.215 1.2891-3.5938 0.27734-7.1836 0.62891-10.777 0.85937-2.2773 0.14844-3.8438 1.5898-4.3008 3.4609-0.27734 1.0859 0.75781 2.9336 1.7695 3.793 1.875 1.5898 4.0234 2.957 6.25 4.0156 6.4258 3.0859 13.258 1.9727 19.859 1.0898 7.5156-1.0117 14.094-4.6523 20.293-8.9219 2.125-1.4414 4.1719-2.9844 4.375-5.6133zm23.984-32.73c-10.676 6.2422-20.949 13.395-30.105 22.344 4.9062 0.37891 9.7148 0.53125 14.523 0.30078 1.8711-0.097656 4.4492-0.47656 5.4375-1.7422 3.7695-4.8281 7.1836-9.9336 10.348-15.191 0.83594-1.3867 0.30469-3.5859 0.37891-5.4062 0 0-0.125-0.050781-0.58203-0.30469z"/>
 </g>
 <g clip-path="url(#a)">
  <path d="m564.62 78.805c0.27734 0.17969 0.60937 0.40625 1.0117 0.70703-0.70703 0.58203-1.4141 1.1133-2.1758 1.7188 0.45703 0.68359 0.8125 1.2148 1.1641 1.6953-0.55469 0.32812-1.0859 0.63281-1.7461 0.98438 0.40625 0.73438 0.73438 1.3398 1.1133 2.0234-0.85938 0.37891-1.668 0.73438-2.4766 1.1133 1.0117 1.7695 2.5781 1.5391 3.9961 1.1602 6.7812-1.793 13.559-3.6367 20.266-5.6367 1.0117-0.30078 1.9492-1.3906 2.5547-2.3242 0.85938-1.2891 1.8984-1.2617 3.1641-1.0859 2.0469 0.27734 4.1211 0.45312 6.3984 0.70703 1.6445-5.6602 3.1875-11.094 4.7578-16.531 1.1641-4.043 2.5039-8.0352 3.4922-12.105 1.5664-6.4688 2.3242-13.191 4.5-19.434 1.9258-5.5117-0.67969-9.9609-1.6172-14.84-0.10156-0.50391-0.91016-1.1875-1.4688-1.2617-5.0586-0.68359-10.117-1.5156-15.203-1.7461-2.6328-0.097657-5.3125 0.98828-7.9961 1.4414-0.53125 0.10156-1.2891-0.050781-1.6445-0.37891-0.25391-0.22656-0.17578-1.0859 0.050781-1.5156 1.6211-2.9062 3.1133-5.9141 5.0078-8.6172 2.3789-3.4375 6.3008-4.1953 10.098-4.5273 3.793-0.32812 7.6641-0.32812 11.461-0.050781 7.7422 0.55859 15.051 2.5312 20.617 8.418 1.3164 1.3906 2.2773 3.1328 3.4414 4.6758 0.32813 0.42969 0.75781 1.0352 1.2148 1.1133 4.1484 0.75781 4.1992 4.4727 4.832 7.2773 1.418 6.293 1.4922 12.586-0.85938 18.832-1.2383 3.3359-1.5703 6.9727-2.5547 10.41-0.55859 2-1.5938 3.8672-2.3789 5.8164-0.78516 2.0195-1.4922 4.0664-2.3008 6.0625-0.25391 0.63281-0.91406 1.1406-1.0898 1.7695-0.60547 2.0234-0.83594 4.1719-1.6953 6.0664-1.1133 2.5273-0.96094 4.5 1.1875 6.3203 0.60938 0.50391 0.76172 1.5156 1.3438 2.0977 1.0625 1.0859 1.8984 2.6523 3.8711 2.2227 0.125-0.023437 0.32812 0 0.42969 0.078126 0.37891 0.32812 0.83594 0.62891 1.0859 1.0352 1.6719 2.6289 5.2148 4.0938 4.8594 7.9609-0.15234 1.7188-2.0234 3.5625-3.9727 3.4648-3.0859-0.15234-6.1719-0.66016-9.2617-0.73438-4.7812-0.125-9.5625-0.027344-14.699-0.027344-1.4648 3.4141-2.5547 7.6836-4.957 10.996-2.1523 2.9844-3.0859 6.418-5.0859 9.375-1.1133 1.6445-1.6172 3.7188-2.4805 5.5625-2.0977 4.5742-4.1992 9.125-6.5781 14.254 3.6211-0.30078 7.0352-0.125 10.172-0.98438 7.9688-2.125 15.789-4.8008 23.73-7.0781 10.602-3.0586 21.227-5.9375 31.855-8.9219 1.7188-0.48047 3.5391-0.85938 5.1094-1.668 2.6836-1.3906 5.6914-1.7422 8.375-1.3125 2.9336 0.48047 5.793 2.0977 8.4766 3.5859 4.3516 2.4297 5.8945 7.2812 8.6758 11.023 0.35547 0.47656 0.27734 1.3359 0.32812 2.0195 0.027344 0.17578-0.30078 0.48047-0.25 0.55469 1.543 2.0742 0.30078 4.2969 0.40234 6.4453 0.078125 1.6445-2.8086 4.8281-4.5039 4.7031-3.6914-0.25391-7.3867-0.48047-11.055-0.80859-2.832-0.25391-5.668-0.65625-8.5273-0.88672-5.9453-0.45312-11.891-0.91016-17.836-1.1367-1.6445-0.050781-3.3398 0.68359-5.0078 1.0117-4.9844 0.98438-10.02 1.5664-15.078 1.9727-4.8867 0.40234-9.6914 1.6172-14.523 2.5-0.32812 0.050781-0.60938 0.32812-0.9375 0.53125 3.6953 2.0742 7.3867 4.043 11.008 6.2188 5.793 3.4883 11.105 7.707 15.48 12.812 6.2773 7.3828 12.07 15.164 18.191 22.672 1.3906 1.7188 3.0625 3.2852 4.8594 4.5742 5.1094 3.6914 10.348 7.2031 15.535 10.793 6.0195 4.1953 12.09 8.3164 18.039 12.586 6.0195 4.3477 12.773 7.1797 19.707 9.6055 4.2773 1.4922 8.0977 3.4883 11.637 6.4453 4.0508 3.4102 8.7539 6.0156 12.879 9.3281 2.0508 1.6406 3.4922 4.0664 5.2109 6.1133 0.25391 0.30469 0.58203 0.75781 0.91016 0.78516 1.418 0.125 1.8477 0.78516 1.5703 2.1719-0.10156 0.42969 0.22656 1.1875 0.60547 1.4414 1.9258 1.3906 1.1914 3.1836 0.88672 4.9297-0.074219 0.37891-0.45703 0.91016-0.30469 1.1133 0.96094 1.4141 0.55859 2.6289-0.55469 3.6641-1.3906 1.3125-3.0859 1.0117-4.5781 0.42969-4.582-1.7969-9.1875-3.2852-14.195-2.957-2.5547 0.17578-4.832-0.50781-6.8828-2.0469-0.45312-0.32812-0.96094-0.60938-1.4648-0.83594-2.1523-0.93359-3.7969-0.60547-5.5938 1.2383-3.6406 3.793-8.4219 3.4648-13.004 2.4023-2.5781-0.60547-4.9336-2.4531-7.5117-2.8828-3.9727-0.63281-6.1758-4.3203-9.9453-5.1562-0.78516-0.17578-1.5156-0.80859-2.1484-1.3906-3.4414-3.1836-6.7578-6.4922-10.273-9.6016-2.5547-2.2773-5.3867-4.2227-7.9961-6.4219-1.5938-1.3398-3.0352-2.8555-5.0586-4.7773 0.58203 2.0977 0.88672 3.6406 1.4414 5.082 0.86328 2.25 0.88672 4.4219 0.30469 6.7461-0.35547 1.3906-0.074219 2.9336-0.27734 4.375-0.23047 1.5898-0.48047 3.2578-1.1133 4.7266-0.27734 0.67969-1.4922 1.0117-2.3281 1.3906-0.85938 0.40234-1.7969 0.70703-2.707 1.0352-2.4023 0.88281-4.7578 2.1992-7.2109 2.4766-2.3789 0.25391-4.8828-0.60547-7.3359-0.93359-4.125-0.55859-8.2734-1.1133-12.449-1.668 1.0898-1.5938 2.3047-3.3125 3.4414-5.082 1.7188-2.6523 3.2148-5.2305 2.5312-8.7695-1.0625-5.3828-1.2148-10.969-2.4805-16.277-0.63281-2.7031-2.5312-5.3594-4.5039-7.3789-1.1133-1.1406-3.668-0.78516-5.4883-1.3398-1.3438-0.40625-2.6562-1.1133-3.7969-1.9492-0.25391-0.17578 0.027344-1.7148 0.50781-2.1719 3.8711-3.7422 8.6016-5.2578 13.887-4.5234 1.3672 0.20312 2.5312 1.6172 3.9219 2.0469 1.9492 0.60547 4.0234 0.75781 5.9961 1.2383 1.0117 0.22656 1.9492 0.73438 3.1133 1.1875-0.17578-0.53125-0.27734-1.0625-0.50781-1.5156-3.3633-7.0508-6.5508-14.152-10.145-21.078-3.793-7.332-7.4609-14.785-12.094-21.586-3.3125-4.8789-8.0938-8.7461-12.219-13.043-0.58203-0.60547-1.3164-1.1094-1.7461-1.8203-1.668-2.7266-4.0234-2.9297-6.8047-2.0469-2.6562 0.85937-5.3906 1.543-8.0469 2.3281-2.1484 0.62891-4.25 1.3633-6.4766 0.25-0.32812-0.17578-1.0625 0.027344-1.3672 0.32813-3.9453 3.8164-9.2852 5.1836-13.863 7.8633-3.1875 1.8438-6.4766 3.2578-10.371 3.2578-1.6445 0-3.3164 1.2656-5.0117 1.9492 0.10156-0.28125 0.20313-0.58203 0.45703-1.3398-4.7305 3.5117-9.9961 4.3711-15.383 5.207 0.73438 0.32812 1.4688 0.67969 2.3789 1.0859-0.86328 0.83203-1.6719 1.6172-2.4805 2.375-0.30469 0.30469-0.88672 0.65625-0.83594 0.91016 0.42969 2.2734-1.4922 2.5273-2.7305 3.4375-0.40625 0.30469-0.53125 0.98438-0.8125 1.4922-0.14844 0.27734-0.35156 0.52734-0.57812 0.75781-1.3672 1.4141-3.0391 2.6523-4.1016 4.2695-2.4531 3.7656-4.6523 7.7109-6.8555 11.629-3.4414 6.1641-6.7539 12.434-10.195 18.602-1.7227 3.0586-3.668 5.9648-5.4141 8.9961-1.3906 2.4258-2.5547 4.9531-3.9219 7.4062-3.1367 5.6367-6.25 11.273-9.5117 16.809-2.8867 4.9023-5.8203 9.7812-8.9844 14.531-3.1602 4.7773-6.6016 9.3789-9.9141 14.027-4 5.6133-9.5664 9.3516-15.586 12.309-8.3008 4.0938-16.773 7.8594-25.277 11.578-3.3359 1.4648-6.9062 2.375-10.398 3.4883-0.70703 0.22656-1.5156 0.17578-2.4766-0.23047 0.68359-0.40234 1.3398-0.85938 2.0742-1.1875 15.055-6.9258 28.184-16.504 39.215-28.863 6.8555-7.6562 12.094-16.453 16.723-25.551 8.957-17.594 17.66-35.309 26.465-53.004 0.10156-0.17578 0.125-0.40234 0.22656-0.67969-3.3633-1.2656 0.85938-3.3125-0.75781-5.0547-2.3281 1.2109-4.7812 2.5-7.2383 3.7383-4.6797 2.375-9.3086 4.8516-14.039 7.1016-3.2383 1.5195-6.707 3.1875-10.297 2.5547-5.2891-0.96094-10.578-2.1992-14.699-6.293-1.543-1.543-2.6836-3.0586-3.668-5.0547-0.98828-2.0234-3.2383-3.3867-4.7852-5.207-1.0117-1.1875-1.6914-2.6289-2.8555-4.4727 1.8203-0.23047 3.3125-0.60938 4.7539-0.53125 3.1641 0.14844 6.3008 0.67969 9.4883 0.83203 7.2617 0.32812 13.965-2.1484 20.871-4.4492-1.1367-0.55469-2.0977-1.0078-3.0586-1.4648 0.023437-0.17578 0.050781-0.37891 0.050781-0.55469 1.3398-0.37891 2.7578-0.63281 4.0469-1.1367 7.0078-2.7305 13.941-5.5859 20.949-8.3164 6.6523-2.5781 13.406-4.9531 20.035-7.582 1.293-0.50781 2.5586-1.6172 3.3672-2.7539 2.8594-3.9961 5.6914-8.0156 8.1445-12.262 1.2422-2.1211 2.3281-4.75 2.1758-7.0742-0.10156-1.3906 0.66016-3.918-1.6445-4.9531-0.074219-0.027344 0.12891-1.1406 0.35547-1.2148 0.58203-0.17578 1.2656-0.050781 1.8984-0.050781 0.27734-2.6016-1.7461-4.5234-4.0977-4.3711-3.3398 0.22656-6.7305 0.48047-10.02 0.050781-2.3281-0.30469-4.582-1.5703-6.7305-2.6562-3.5156-1.793-6.9062-3.8398-10.398-5.7109-3.9961-2.1484-6.4531-5.8398-9.1836-9.2266-0.73438-0.91016-1.0898-2.1719-1.543-3.2852-0.63281-1.6406-1.3438-3.2852-1.6953-4.9805-0.48047-2.1953-0.66016-4.4727-1.0391-7.1523 4.7578 2.4297 9.3125 2.6289 13.891 2.8828 2.6055 0.15234 5.2109 0.88281 7.8164 1.2891 0.88672 0.15234 1.8242 0.023438 2.7344 0.15234 2.4805 0.32812 4.9336 0.75781 7.4141 1.1133 3.0352 0.45312 6.0703 0.98437 9.1328 1.2109 0.55469 0.050781 1.6445-1.2109 1.7188-1.9453 0.45703-4.2734 0.9375-8.5703 0.85938-12.84-0.050781-3.1836-1.0117-6.3438-1.4414-9.5273-0.27734-1.9727-0.53125-3.9961-0.45312-5.9648 0.35156-8.418-1.7734-16.277-5.0625-23.938-0.17578-0.37891-0.27734-0.78125-0.40234-1.1875-0.96484-3.0586-0.17969-4.1211 3.5156-3.8672-0.9375-0.85938-1.5703-1.4141-2.1758-2.0469-2.1016-2.1484-4.3008-4.2188-6.2227-6.5469-0.60938-0.73047-0.86328-2.7539-0.45703-3.0586 0.98828-0.67969 2.5312-1.1367 3.6953-0.91016 4.0977 0.83594 7.5898 3.0859 10.852 5.5625 4.2266 3.2109 8.5508 6.418 12.297 10.16 3.7188 3.7148 7.1328 7.8867 9.9688 12.309 1.2656 1.9727 1.1367 5.0547 1.1133 7.6094-0.078125 5.3555-0.42969 10.738-0.83594 16.098 0.074218 0.96094-0.75781 1.668-1.3164 2.4766zm6.4766 59.699c0.30469-3.0312 1.8984-4.3984 4.9609-4.2461 1.9727 0.10156 3.0859-1.0352 3.793-3.0312 1.7969-5.1836 3.8711-10.238 5.793-15.367 0.96484-2.5273 1.7969-5.1055 2.6562-7.5078-0.96094 0.42969-1.793 0.78516-2.6289 1.1641-0.078125-0.23047-0.17578-0.42969-0.25391-0.66016 1.1914-0.73047 2.4023-1.4648 3.5664-2.2461 0.30469-0.23047 0.42969-0.71094 0.66016-1.0898-0.35547-0.125-0.71094-0.27734-1.4922-0.57812 1.1641-1.3164 2.2266-2.5273 3.3125-3.7188-10.422 4.0977-20.188 9.3789-28.969 15.672 0.53125 1.0625 1.0898 1.6445 1.0117 2.125-0.32812 2.1484-0.65625 4.3438-1.2891 6.418-0.9375 3.0586-1.8711 6.2188-3.3398 9.0469-2.1758 4.2461-4.832 8.2422-7.3359 12.461 0.45313 0.15234 1.0625 0.58203 1.4922 0.45703 7.1602-2.4023 14.293-4.8789 21.43-7.3555-0.027344-0.25391-0.078126-0.48047-0.10156-0.73438-1.1133-0.27734-2.1758-0.53125-3.2656-0.80859z"/>
 </g>
 <path d="m636.09 371.94c1.0625 0.22656 1.8711 0.37891 2.125 0.42969 0.20312 1.4141 0.37891 2.3516 0.48047 3.2852 0.027344 0.25391 0 0.68359-0.15234 0.78516-1.3125 0.80859-2.5781 1.9688-4.0195 2.25-5.8477 1.1094-11.742 1.9961-17.637 2.8789-2.9609 0.42969-5.9453 0.83594-8.9297 0.9375-2.0742 0.074219-3.3906 0.95703-4.25 2.7031-0.53125 1.0859-0.80859 2.3008-1.3906 3.3359-0.50781 0.88281-1.418 1.543-1.9766 2.4258-1.1602 1.7695-2.4766 3.4883-3.2109 5.4336-0.70703 1.8711-0.75781 3.9688-1.1406 6.168 1.0898 0.17578 2.2539 0.42969 3.4414 0.50391 3.3672 0.20312 3.9492 3.6172 6.0977 5.2578 0.17969 0.12891-0.15234 0.88672-0.17578 1.3398-0.027343 0.68359 0 1.3672 0 2.5273-1.6445 1.9727-4.1992 2.7305-7.1602 3.0078-4.8828 0.45703-9.8438 1.0352-14.27 3.4648-2.8828 1.5898-5.7695 3.207-8.3477 5.2305-4.0508 3.1602-6.2266 8.8477-4.6328 12.84 0.28125 0.70703 0.71094 1.4141 0.8125 2.1484 0.30078 2.1484 0.83203 2.4492 2.7305 1.2109 7.5391-4.875 15.207-9.5273 23.984-11.902 2.8086-0.75781 5.7422-1.0859 8.6289-1.2656 2.6562-0.14844 5.2344 2 6.0195 4.4258 0.15234 0.42969 0.45703 1.0078 0.80859 1.1094 1.6211 0.48047 1.8984 2 1.6719 3.0586-0.42969 1.9492-1.3164 3.8164-2.25 5.6133-0.91406 1.7422-2.2539 3.2852-3.1914 5.0273-3.1094 5.8398-7.8398 10.16-12.953 14.18-1.0352 0.80859-1.4922 2.3008-2.4531 3.2617-1.418 1.4414-2.8828 2.957-4.6055 3.9922-3.7422 2.2734-7.6641 4.2969-11.965 6.6719 4.6523 1.543 8.8281 2.9336 13.004 4.2969 0.074218 0.027343 0.15234 0 0.20312 0.027343 4.1484 2.3477 8.4727 1.8438 12.824 0.78125 0.9375-0.22656 1.9766-0.67969 2.582-1.3633 2.9336-3.2852 5.7695-6.6484 8.5508-10.059 1.1641-1.4414 0.15234-4.1719-1.668-4.6016-2.7578-0.65625-5.5664-1.1367-8.3516-1.7422-0.96094-0.20313-1.9219-0.50781-2.8086-0.9375-1.1133-0.55469-0.98438-1.9453 0.38281-2.4492 2.707-1.0117 5.4648-2.2266 8.2969-2.5039 3.3906-0.35547 6.9336-0.15234 10.297 0.42969 3.1875 0.53125 4.8086 3.2852 6.3008 5.9922 0.85938 1.5664 2.3789 2.8281 2.9336 4.4727 0.58203 1.6406 0.42969 3.5625 0.40625 5.3555 0 0.8125-0.45703 1.5938-0.58203 1.9492 4.6797-1.1875 9.4102-2.5781 14.242-3.5664 5.1875-1.0586 10.426-1.7188 15.637-2.6289 6.3242-1.0859 12.625-2.3477 18.949-3.3867 6.0469-0.98438 12.117-2.0703 18.215-2.6016 4.1016-0.35547 7.7422 1.4648 11.258 3.7656 4.3789 2.8555 5.4922 7.4297 7.6406 11.855-10.27-0.40625-20.289-0.80859-30.41-1.2148 0.050781 0.10156 0.027344 0.027343-0.023437-0.023438 0.27734-0.12891 0.55469-0.25391 0.80859-0.35547-0.023438-0.22656-0.050782-0.42969-0.074219-0.65625-7.6914 0-15.359-0.17969-23.051 0.050781-7.2109 0.19922-14.418 0.75781-21.605 1.2891-3.7695 0.27734-7.4883 0.93359-11.258 1.2383-2.1016 0.17578-2.7852 1.5156-3.5938 3.1328-1.2891 2.5781-2.7305 5.1055-4.4766 7.3789-1.9492 2.5547-4.2773 4.8281-6.4531 7.2031-4.1484 4.6016-9.4883 7.1562-15.281 9.0742-4.6055 1.543-9.082 3.4883-13.609 5.2852-4.1484 1.6406-8.3008 3.3359-12.523 5.0547-0.35547 1.3125-0.68359 2.7773-1.1406 4.1953-0.45312 1.4141-1.3164 2.3008-2.9102 1.4141-1.4648-0.83203-2.707-0.53125-3.9453 0.45703-1.1367 0.90625-2.3281 0.93359-3.543 0.097656-0.75781-0.52734-1.8203-1.5664-2.3008-1.3633-1.3398 0.55469-3.0859 1.4414-3.5156 2.6016-0.73438 2-0.98828 4.375-0.71094 6.4961 0.32812 2.7305 1.3906 5.3594 2.2266 8.418 1.5195-1.0859 2.9844-2.0469 4.3281-3.1602 13.406-11.07 28.359-19.41 45.008-24.492 4.5781-1.3867 9.4375-2.0977 14.242-2.5273 3.8203-0.32812 7.4414 0.73438 9.0352 4.9805 0.023437 0.074219 0.023437 0.20312 0.050781 0.20312 4.1992 0.67969 0.78125 4.0938 2.0469 5.8867 0.17969 0.25391-0.53125 1.418-1.0625 1.8984-4.125 3.7656-8.2227 7.5312-12.473 11.121-1.6445 1.3867-3.7188 2.2461-5.7188 3.4102 0.71094 1.4141 3.4414 1.5664 1.9492 3.7422 0.30469 0.22656 0.50781 0.42969 0.75781 0.55469 2.9375 1.6953 3.7969 3.2852 3.1406 5.8125-0.63281 2.4531-2.7852 3.5156-5.7969 3.8672-4.0469 0.48047-8.1445 1.1641-12.043 2.375-6.5508 2.0469-12.953 4.5781-19.43 6.9023-1.7969 0.63281-3.6406 1.0625-5.3867 1.793-2.0273 0.83594-3.3906-0.45312-4.5312-1.4922-1.7969-1.6172-1.2891-3.4844 0.91016-5.1055 6.8086-4.9766 13.789-9.7539 20.344-15.062 6.3008-5.0781 12.219-10.613 18.113-16.148 1.3906-1.3164 2-3.4375 3.2148-5.5859-13.105 0.85938-24.844 4.1445-35.953 9.5273-5.668 2.7305-10.777 6.418-15.152 11.02-3.2656 3.4141-2.7852 7.5586-2.4062 11.574 0.42969 4.4492 1.4414 8.8477 1.9492 13.32 0.25391 2.3281-0.80859 4.375-2.4023 6.3203-0.76172-0.65625-1.3945-1.1875-2.0508-1.7695-0.15234 0.10156-0.35547 0.17578-0.48047 0.32813-2.1758 2.6797-2.1758 2.6797-4.0977-0.40234-0.15234-0.23047-0.25391-0.63281-0.48047-0.68359-1.875-0.55859-3.8203-0.98828-5.668-1.6172-0.78516-0.27734-1.4922-0.85937-2.125-1.4414-0.73438-0.70703-1.1914-1.7461-2-2.3008-1.7188-1.2109-3.6914-6.0664-3.4414-8.1367 0.30469-2.707 0.40625-5.4609 0.35547-8.1914-0.15234-7.125 2.1523-13.52 5.9219-19.41 1.7188-2.7031 4.5781-3.9922 7.6641-4.8281 1.6445-0.45312 3.1367-1.4414 4.5547-2.1211-2.2773-1.3672-4.25-2.6055-6.25-3.7656-0.27734-0.17969-0.73438-0.20312-1.0625-0.12891-2.3281 0.50781-3.4922-0.48047-4.1758-2.7266-0.30078-1.0117-1.543-1.7461-2.3242-2.6289-0.96484-1.0898-1.9492-2.1484-2.7578-3.3359-1.0391-1.5195-1.7734-3.2617-2.9102-4.7031-0.32812-0.42969-1.5938-0.48047-2.3047-0.25391-5.5391 1.7969-11.078 3.5664-16.52 5.6133-5.2383 1.9688-10.398 4.1445-15.508 6.4688-1.3438 0.60547-2.3281 2.0469-3.418 3.1836-2.7578 2.832-5.6172 5.3867-9.207 7.4062-3.668 2.0742-7.2383 4.7266-9.6133 8.6953-2.707 4.5508-7.668 6.5195-12.07 9.0234-0.63281 0.35156-1.8477 0.050781-2.6562-0.27734-3.3633-1.418-7.2852-1.7188-10.07-4.3984-2.0977-2.0469-4.9062-3.4375-5.8945-6.5195-0.15234-0.48047-0.73438-0.91016-1.2148-1.1406-3.9727-1.9688-7.4102-4.5469-8.9531-8.8711-0.43359-1.2383-0.40625-2.7539-0.20312-4.0938 0.73438-4.3984 3.793-6.1172 7.918-7.125 10.625-2.5781 21.176-5.5352 31.777-8.293 0.68359-0.17578 2.0234-0.10156 2.1758 0.25391 0.42969 0.96094 0.074218 1.8438-1.0898 2.4766-4.3516 2.3008-8.7266 4.5742-12.902 7.1523-3.543 2.1992-6.8555 4.8008-10.703 7.5586 1.0156 0.20312 1.6953 0.40234 2.3555 0.45312 7.1602 0.45703 13.812-1.8711 20.418-4.1172 16.695-5.6875 33.344-11.527 50.043-17.289 1.668-0.58203 3.4141-1.0117 5.0859-1.6445 0.42969-0.17578 1.0625-0.88281 0.98438-1.2109-1.6445-7.3828-0.27734-14.734 0.10156-22.09 0.027344-0.58203 0.30469-1.4922 0.73438-1.668 2.1758-0.91016 4.4023-1.6172 6.6289-2.3789 0.050781 0.17969 0.10156 0.35547 0.15234 0.55859 0.85937-1.0391 1.6172-2.1758 2.6055-3.1094 2.7812-2.6797 3.793-6.2422 5.1875-9.6562 2.6562-6.5195 5.5156-12.988 8.4219-19.41 1.1641-2.5781 2.7344-4.9805 4.1523-7.5312-2.8086 1.7188-5.668 3.5117-8.5547 5.2578-4.0469 2.4766-8.0195 5.1289-12.191 7.4062-4.5039 2.4492-9.4141 2.6758-14.371 1.6914-2.2773-0.45312-6.4258-4.9023-6.1484-7.1016 0.20312-1.7188 1.1367-3.6133 2.3281-4.8789 1.2891-1.3906 3.2383-2.1719 5.2109-2.9297-0.45703 0.93359-1.0898 1.8164-1.3164 2.8047-0.20312 0.91016-0.27734 2.1211 0.17969 2.8047 0.30078 0.48047 1.793 0.65625 2.4766 0.32812 3.7188-1.7422 7.4141-3.6133 11.008-5.5859 2.5547-1.4141 4.9844-3.082 7.3867-4.9531-3.5156-1.0117-7.0078 0.53125-10.906-0.125 0.86328-0.63281 1.4688-1.1406 2.125-1.5703 5.7188-3.6133 10.98-7.7305 15.105-13.191 1.543-2.0469 0.60938-4.5234 1.4414-6.6719 0.027344-0.050782-1.0117-0.80859-1.4414-0.70703-6.6523 1.2617-13.078 0.55469-19.277-2.1992-3.7461-1.668-7.6914-2.9062-11.285-4.8789-5.1367-2.832-9.6133-6.6484-13.41-11.145-1.0117-1.2148-1.4414-3.0078-1.7695-4.6016-0.050781-0.27734 1.543-1.2891 2.4297-1.3633 3.7695-0.30469 7.4102 0.37891 10.879 1.8945 6.1992 2.7305 12.676 2.7305 18.949 1.1875 7.2109-1.7695 14.219-4.3984 21.277-6.7227 2.3516-0.78516 3.9453-3.5664 4.1992-5.9922 0.50781-4.8242 1.2148-9.6289 1.8711-14.457 0.58203-4.2695 1.8242-8.6172-0.22656-12.762-1.2148-2.4766-3.1367-4.5742-4.375-7.0273-1.2148-2.4258-2-5.0781-2.8594-7.6836-0.078125-0.20312 0.75781-0.91016 1.2656-1.0352 2.7812-0.68359 5.5625-0.078125 7.9922 1.0117 6.0469 2.7266 11.512 6.3672 15.559 11.828 1.2656 1.6914 3.2656 2.8555 3.0117 5.4062-0.023437 0.28125 0.66016 0.78516 1.0898 0.88672 2.4258 0.53125 3.2617 2.3516 3.6172 4.4492 0.88672 5.2539 4.3242 7.4023 9.2578 7.6328 9.0859 0.40234 16.168 5.3047 23.254 10.211 2.1992 1.5156 4.1484 3.3867 6.2969 5.1797-0.22656 0.60547-0.53125 1.1367-0.91016 1.7695zm-65.629 95.562c0.30469 0.17969 0.58203 0.35547 0.88672 0.50781 1.3398-0.71094 2.7578-1.3164 4.0234-2.1758 8.2734-5.6875 15.406-12.637 21.859-20.32 1.7695-2.0977 3.1602-4.2461 2.6562-7.2539-0.35547-0.023438-0.80859-0.15234-1.1914-0.050781-7.918 2.25-15.785 4.7266-22.289 10.035-1.668 1.3633-3.5898 3.1836-4.0469 5.1055-1.0625 4.625-1.3164 9.4258-1.8984 14.152zm2.9102 40.215c8.9805-7.5078 17.434-14.586 25.906-21.664-0.023438-0.25-0.050782-0.50391-0.050782-0.75781-1.793-0.19922-3.6406-0.73047-5.3867-0.50391-3.3672 0.48047-6.6562 1.3906-9.9688 2.1211-4.3281 0.96094-8.6797 1.9492-13.359 3.0078 0.91016 5.8164 1.8477 11.527 2.8594 17.797zm14.523-25.102c-0.027343-0.14844-0.078125-0.30078-0.10156-0.45313-1.6211-0.45312-3.2383-0.93359-4.8828-1.3398-1.6445-0.40234-3.3164-0.73438-4.9844-1.0625-4.1992-0.85938-7.0352 1.6445-6.8555 6.4219 5.6406-1.1875 11.23-2.375 16.824-3.5664zm109.42-12.586c-0.023437-0.20312-0.023437-0.40234-0.050781-0.60547-2.2266 0.20312-4.4531 0.40234-6.7031 0.60547 2.2773 0.12891 4.5781 0.78516 6.7539 0z"/>
 <path d="m532.11 232.25c-2.957 5.9648-5.5625 11.449-8.3984 16.805-1.8477 3.5156-3.6406 7.2539-7.6641 8.8984-1.1133 0.45312-2.582 0.63281-3.6953 0.30469-2.1758-0.63281-4.3242-1.5195-6.25-2.707-1.2383-0.75781-2.1758-2.1484-3.0352-3.3867-0.70703-1.0625-1.3164-2.3008-1.543-3.5117-0.15234-0.83594 0.15234-2.2266 0.75781-2.6055 4.2773-2.7773 8.6797-5.3555 13.004-8.0625 1.4453-0.91016 3.1641-1.7188 4.1016-3.0312 3.3398-4.8008 6.4766-9.7578 9.4844-14.785 0.76172-1.2891 0.66016-3.0586 1.1914-4.5234 0.35547-0.98828 1.0625-1.8477 1.6172-2.7812 0.76172 0.65625 1.8984 1.1602 2.1758 1.9727 0.83594 2.6016 1.9492 5.1055 1.875 8.0117-0.25391 10.59 2.375 20.621 7.082 30.023 2.4531 4.9062 5.6406 9.4297 8.5781 14.078 1.6172 2.5781 4.375 2.6055 6.7539 0.63281 2.6562-2.1719 2.6836-5.2578 3.1641-8.0625 0.65625-3.8672 0.70703-7.8359 0.91016-11.777 0.80859-17.238 1.2891-34.477 2.5039-51.66 0.45703-6.5742-1.7188-11.68-5.4375-16.531-1.8477-2.4258-1.5938-3.1602 0.85938-4.7031 3.1094-1.9453 5.793-0.73047 8.375 0.71094 4.9336 2.7266 8.8047 6.5938 11.914 11.348 1.6719 2.5508 4.125 4.625 5.6914 7.2266 2.2539 3.7148 3.1133 7.9375 3.418 12.309 0.20313 2.9844 0.75781 5.9414 1.1641 8.9492 5.668-0.027344 10.727 1.3398 14.371 5.7383 2.3008 2.8047 4.1211 5.9648 6.2734 8.8711 1.1367 1.5664 2.7305 2.8281 3.7422 4.4727 1.3945 2.2227 2.5312 4.6016 3.5938 7.0273 0.66016 1.4883 0.9375 3.082-0.074219 4.7266-0.33203 0.55469 0 1.8438 0.45312 2.4766 0.71094 0.93359 1.1133 1.8438 0.28125 2.6523-0.76172 0.73438-1.7969 1.1875-2.8086 1.6172-0.83594 0.35547-1.9766 0.22656-2.6094 0.73438-1.3398 1.1133-2.4258 1.0352-3.2383-0.35547-1.9219-3.3086-5.5391-4.4492-8.4727-6.1641-2.1523-1.2656-3.418-2.9336-5.0859-4.3984-2.9844-2.6055-3.3398-6.5234-6.2227-9.3516v14.379c0 4.8281 0.125 9.6562-0.10156 14.484-0.20313 4.1953-0.68359 8.3633-1.2148 12.535-0.42969 3.4141-1.1406 6.7734-1.7227 10.16-0.42969 2.6055-2.5781 3.3633-4.5508 4.3477-3.2891 1.668-6.5547 3.4102-9.9453 4.8789-1.0859 0.45312-2.5781 0.37891-3.7695 0.10156-1.8711-0.45703-3.5938-1.5195-5.4648-1.8984-4.7305-1.0078-9.0586-2.6523-12.348-6.418-0.14844-0.15234-0.27734-0.35547-0.45312-0.45703-5.9727-3.5117-7.9961-9.4766-9.5117-15.668-2.582-10.641-4.9844-21.332-7.5664-31.973-0.40625-1.8711-1.3398-3.5898-2.1523-5.6602z"/>
</svg>
