<?xml version="1.0" encoding="UTF-8"?>
<svg width="1587" height="1587" version="1.0" viewBox="0 0 1190.2 1190.2" xmlns="http://www.w3.org/2000/svg" zoomAndPan="magnify">
 <defs>
  <clipPath id="b">
   <path d="m0 0h1189.5v1189.5h-1189.5z"/>
  </clipPath>
  <clipPath id="a">
   <path d="m573 663h213.05v117h-213.05z"/>
  </clipPath>
 </defs>
 <g clip-path="url(#b)" fill="none">
  <path d="m0 0h1189.5v1189.5h-1189.5z"/>
  <path d="m0 0h1189.5v1189.5h-1189.5z"/>
 </g>
 <path d="m436.89 420.5c-12.547-71.516-19.488-120.88-20.824-148.37l-9.6094-207.87c-2.668-30.156 2.6719-47.234 16.285-50.969 41.91-9.6055 67.27-11.742 76.613-5.8711 2.1328 3.2031 4.2695 15.211 6.1367 35.492 4.2734 76.316 6.9414 115.01 8.0078 116.34 0.80078 10.41 3.4727 17.348 7.7422 20.281-2.4023 5.8711 41.109 13.344 130.54 22.684 5.0703 0.80078 8.543 5.3359 10.145 13.074 3.4688 18.41 5.0703 35.223 4.8047 50.434 0.53125 19.746-1.3359 28.816-5.3398 27.484-3.4688 1.8672-9.3438 2.9336-17.352 3.2031-32.832 0.80078-72.609 1.0664-119.59 0.53125-5.0703 0-8.2734 0.80078-9.6094 2.668-2.1367 2.4023-3.2031 8.5391-3.2031 18.148 1.0664 34.688 2.1367 57.371 2.9375 68.309l-77.68 34.691z"/>
 <path d="m560.21 161.4c0.80078-6.1367 0.80078-21.883 0.53516-47.5 0.80078-13.074 2.1367-24.547 3.7383-34.422 2.1328-12.008 4.0039-20.012 5.8711-24.281 0.80078-2.1367 3.7383-3.4688 8.2773-4.2695 10.141-1.6016 24.023-1.6016 41.375-0.26562 11.746 0.53125 17.617 2.3984 18.152 5.6016 3.7344 6.6719 5.6055 14.41 5.3359 23.75 0 3.7344 0 7.2031-0.26562 10.406-1.8672 18.945-2.9375 33.09-3.2031 42.961-1.0664 9.875-1.8672 14.41-2.1367 14.145l-77.41 14.141z"/>
 <path d="m661.12 144.05c0-2.668 0.80078-7.4727 2.1328-14.41 6.9414-30.688 10.68-46.699 11.211-47.766 3.4727-11.742 6.6758-18.68 9.6133-20.812 3.2031-3.2031 7.7383-4.5391 14.145-4.5391 24.293 1.3359 39.777 2.4023 46.984 3.4727 7.4727 1.0664 10.945 2.3984 10.41 3.7344 1.0664 3.4688 1.0664 10.672-0.53516 21.348-4.0039 25.348-12.012 48.566-24.023 69.645z"/>
 <path d="m540.46 451.99c-8.8086 5.6055-18.418 9.875-28.562 12.543-1.0664 1.3359-21.887 4.5352-62.195 9.6055-10.945 2.4023-18.688 5.3359-23.223 8.2734-7.4766 1.6016-10.145 18.41-8.0117 50.965-0.80078 14.68 2.4062 21.082 10.145 19.746 7.7422 1.6016 37.371-1.8672 89.426-9.8711 5.3398-0.53516 9.0781 0.53516 11.746 2.9336 3.7383 3.4688 7.207 11.477 10.145 24.551l14.414 81.121 38.973-13.609c1.8672-0.80078 3.2031-2.1367 3.7383-4.2695 1.332-5.0703 1.6016-12.543 0.53125-21.883-6.1367-37.09-9.3398-62.707-9.6094-76.316 0-4.0039 2.4023-7.4727 7.7422-10.941 20.555-12.809 42.711-22.414 66.734-29.086 2.4023 1.3359 1.0703 6.6719-3.7344 16.012-2.9375 6.9375-12.281 21.883-28.297 45.098-1.8672 2.9336-2.4023 5.6016-1.6016 7.7383 3.4688 9.0703 23.492 19.211 60.062 30.418 30.695-27.75 51.52-54.168 62.996-79.52 3.4727-5.3359-19.754-31.484-69.672-78.715-5.6055-3.4727-24.824-0.80078-57.66 8.2695-2.1328 0.53516-4.2695 0-6.1367-1.8672-5.3398-3.4688-13.348-29.352-23.758-77.652-5.875-2.668-23.492-1.0664-53.391 4.8047l-1.0664 82.188z"/>
 <g clip-path="url(#a)">
  <path d="m586.38 663.59c-11.211 33.355-14.949 53.102-11.742 59.242 1.8672 1.8672 5.6055 2.668 11.477 2.668 72.34-2.4023 113.98-2.668 124.93-0.80078 2.4023 1.332 2.4023 3.7344 0.26563 7.7383-17.617 24.281-25.895 36.824-25.094 37.625-0.53125 5.0703 3.2031 8.0039 10.945 8.8047 12.547 1.0664 25.359-2.4023 38.172-10.672 9.0781-5.3398 22.691-15.746 41.109-31.488 5.3398-4.5352 8.543-8.5391 9.6094-11.742-3.2031-14.41-25.891-29.352-68.07-44.828z"/>
 </g>
 <path d="m634.96 741.25c-14.148 21.348-23.227 38.426-27.23 51.77-2.1328 8.5391 1.0703 13.875 9.6094 15.207 10.145 0.80078 20.824-4.8008 31.766-16.809 8.543-9.3398 15.484-24.285 20.824-45.363l-35.238-5.0703z"/>
 <path d="m498.55 855.72c10.941-19.215 18.418-29.621 22.152-30.688 2.1367-3.2031 15.75-4.5352 40.844-4.2695 24.023 0 50.984 3.2031 81.418 9.6055 16.281 3.4688 36.305 9.3398 59.793 17.078 6.9414 2.4023 11.746 5.0703 13.883 8.5391 5.3359 11.477-9.6094 35.492-44.312 72.047-3.7383 2.9375-8.543 4.2695-14.414 3.4688-6.9414-0.80078-16.285-3.4688-28.031-8.5391-0.80078-0.26562-1.8672 0-2.9336 0-1.0703 0.53516-2.6719 1.6016-4.5391 3.7383-11.211 13.34-17.352 20.277-18.418 21.078-3.7383 4.0039-7.4766 7.207-10.68 9.875-6.6719 5.6016-13.348 8.0039-19.484 7.4727-12.547-0.53516-17.621-5.6055-15.484-15.48 0.80078-19.477 7.7422-34.953 20.82-46.16 16.285-16.547 30.164-26.152 41.109-28.82 5.875 1.0664 10.68 5.6016 14.414 13.074 0.80078 1.8672 1.3359 3.7383 1.6016 5.6055v15.477c17.621-26.684 28.832-41.359 32.836-44.297l-170.84-8.8047z"/>
 <path d="m416.6 969.13c-0.26562 17.348 0.53516 31.488 2.668 42.961 1.0703 6.6719 3.4727 10.41 7.7422 11.742 2.4023 1.0664 7.4766 2.1367 14.949 3.2031l127.86 18.145c34.172 6.1367 51.789 9.875 52.59 11.207 3.2031 1.8672 2.668 5.8711-1.8711 12.008 0 1.3359-10.941 14.41-33.098 38.691-4.0039 5.0703-6.9414 10.141-9.0781 14.68-3.2031 5.8672 1.0703 9.6055 12.547 11.738 23.492 3.2031 42.977-0.53125 58.996-11.207 36.035-26.684 55.789-46.965 59.258-61.105-12.812-26.152-59.527-48.031-139.61-65.645l-152.42-26.684z"/>
 <path d="m555.41 1067.6c-21.355 28.555-42.441 61.91-64.066 100.33-3.2031 6.6719-1.332 12.277 5.3398 16.547 11.48 3.4688 24.023-1.6016 37.371-15.477 3.4727-3.7383 6.9414-8.2734 10.41-13.879 12.281-21.344 20.824-35.754 25.895-42.691 5.875-8.5391 12.547-18.148 20.289-28.285l-35.504-16.547z"/>
</svg>
