<?xml version="1.0" encoding="UTF-8"?>
<svg width="1587" height="1587" version="1.0" viewBox="0 0 1190.2 1190.2" xmlns="http://www.w3.org/2000/svg" zoomAndPan="magnify">
 <defs>
  <clipPath id="a">
   <path d="m0 0h1189.5v1189.5h-1189.5z"/>
  </clipPath>
  <clipPath id="b">
   <path d="m2 119h1185.6v950h-1185.6z"/>
  </clipPath>
 </defs>
 <g clip-path="url(#a)" fill="none">
  <path d="m0 0h1189.5v1189.5h-1189.5z"/>
  <path d="m0 0h1189.5v1189.5h-1189.5z"/>
 </g>
 <g clip-path="url(#b)">
  <path d="m929.68 1063.9c-0.89453-3.8086-1.0586-7.1094-1.0586-21.117 0-16.938 0.25-19.809 1.7383-19.809 0.71484 0 0.82422 2.2812 0.71484 15.293-0.066406 8.4102 0.11328 18.637 0.40234 22.723 0.61719 8.7227-0.14453 9.957-1.7969 2.9102zm-758.71-15.879c-0.64062-1.957-1.3516-52.98-1.4258-102.24-0.035156-22.109-0.23437-45.875-0.44531-52.812l-0.37891-12.617-1.5117-0.32812c-0.83203-0.17969-4-2.207-7.043-4.5078-19.801-14.961-39.902-35.512-59.496-60.816-15.871-20.496-38.645-55.07-58.715-89.137-5.5625-9.4375-7.8203-12.906-15.164-23.305-8.6055-12.184-17.551-28.102-18.363-32.68-0.21875-1.2539-1.0273-4.4766-1.793-7.1641-2.0234-7.1016-4.3633-25.164-4.3867-33.855-0.015626-5.8711 0.32422-8.9727 1.7539-16.02 4.9375-24.34 10.941-41.535 16.762-48.008 1.3242-1.4727 5.1133-4.6445 8.418-7.0469 12.418-9.0312 16.434-13.723 33.402-39.035 2.9023-4.3242 6.5859-10.348 8.1875-13.383 3.4531-6.543 7.1211-10.449 14.055-14.973 9.5781-6.2461 20.012-10.172 37.777-14.215 5.7656-1.3125 14.742-3.8125 19.949-5.5547 9.4766-3.1719 18.844-5.6211 24.312-6.3555 1.6016-0.21484 4.6133-0.87109 6.6953-1.4609 2.082-0.58594 10.73-2.4062 19.219-4.0391 23.137-4.4609 28.074-5.6055 38.809-9.0117 14.641-4.6484 17.82-5.2617 27.293-5.2695 7.125-0.007812 8.8789 0.19531 13.902 1.5938 3.1602 0.88281 7.9453 2.6328 10.633 3.8906l4.8867 2.293 6.5469-4.4219c9.2539-6.2461 11.715-8.2148 24.062-19.23 19.516-17.406 34.637-30.25 43.25-36.73 6.8008-5.1172 15.625-9.6484 21.93-11.258 5.9922-1.5273 20.375-2.125 28.539-1.1836 3.2031 0.36719 7.5117 0.80859 9.5781 0.97656 4.0469 0.32812 8.2539 1.9062 10.359 3.8828 0.72266 0.67969 1.4492 1.1016 1.6133 0.9375 0.16406-0.16406-0.52734-2.1094-1.5312-4.3242-2.8047-6.168-4.9883-12.863-6.0664-18.613-1.5547-8.2734-0.55859-20.129 2.0273-24.137 1.0547-1.6367 1.1797-0.20703 0.32812 3.8086-1.1055 5.2188-1.1055 13.469-0.007813 19.281 0.48047 2.5273 2.2695 8.6953 3.9727 13.707l3.1016 9.1133 4.0352-2.3438c2.2188-1.2891 5.7383-3.207 7.8203-4.2617 3.4102-1.7227 3.8633-2.1641 4.5586-4.4375 0.42578-1.3906 2.043-5.8164 3.5977-9.832 2.0195-5.2266 3.418-10.289 4.918-17.781 1.6602-8.3047 2.5273-11.32 4.1953-14.555 7.6641-14.875 10.641-20.984 12.348-25.34 1.0625-2.7266 2.8164-6.543 3.8906-8.4844 1.0742-1.9414 3.5508-7.1797 5.5-11.637 3.8203-8.7266 8.0117-16.324 9.9883-18.102 0.67578-0.60547 3.3828-3.9883 6.0117-7.5117 12.922-17.309 29.66-32.352 41.512-37.305 2.3633-0.98828 2.4883-1.0078 2.4883-0.41016 0 0.24609-1.5078 1.3398-3.3516 2.4336-9.7109 5.7539-22 16.543-30.875 27.102-5.2852 6.293-10.617 13.434-10.617 14.227 0 0.31641 0.53125 0.74219 1.1797 0.94922 1.6641 0.52734 2.918 2.6797 3.375 5.7969l0.39453 2.6719 13.102-12.746c20.023-19.477 31.426-32.273 42.27-47.434 3.3789-4.7266 6.3906-8.5938 6.6914-8.5938 1.2656 0 0.3125 2.2305-3.3086 7.7617-4.8789 7.4492-9.582 13.688-15.883 21.078-5.8828 6.8945-34.012 35.453-39.699 40.309-4.3594 3.7148-3.5977 2.1211-8.4375 17.66-1.6953 5.4492-3.207 11.172-5.2422 19.879-1.2461 5.3281-1.4961 7.4688-1.1719 10.055l0.41016 3.2891 1.5586-0.93359c2.7461-1.6484 9.7109-7.582 9.7109-8.2734 0-0.37109 1.5703-1.8203 3.4922-3.2227 1.9219-1.4023 10.824-10.082 19.777-19.289 8.957-9.207 16.758-16.996 17.336-17.305 0.78125-0.41797 1.1406-0.33203 1.3906 0.32422 0.23438 0.60156-3.1094 4.4961-10.402 12.113-14.305 14.949-16.266 17.148-14.414 16.188 2.8242-1.4648 13.746-8.9375 18.598-12.723 6.5-5.0664 19.434-17.668 25.219-24.574 2.5547-3.043 8.9336-12.02 14.176-19.953 5.4102-8.1797 9.9141-14.418 10.41-14.418 0.70312 0 0.75781 0.30078 0.28516 1.543-0.89453 2.3555-13.148 21.684-17.566 27.707-13.809 18.828-33.785 36.082-55.781 48.18-5.2969 2.9141-8.4375 5.207-7.8906 5.7539 0.82812 0.82812 25.605-13.469 34.098-19.68 6.8789-5.0234 14.723-10.363 15.891-10.812 0.48437-0.18359 1.0391-0.082032 1.2344 0.23047 0.31641 0.51563-2.0586 2.4453-16.102 13.074-6.4922 4.9141-19.34 12.414-32.762 19.117-6.4062 3.1992-13.156 6.7773-14.996 7.9453l-3.3477 2.1289v3.3477c0 1.8438-0.23828 3.4961-0.52734 3.6758-0.57031 0.35156-1.8047-2.6719-1.8047-4.4219 0-1.1055-0.94922-1.3906-2.1094-0.63281-0.35938 0.23437-1.6133 3.0508-2.7852 6.2539s-2.3867 6.4297-2.6953 7.1641c-1.1523 2.7461-0.44531 2.4414 4.0586-1.7422 2.5391-2.3633 6.668-5.4414 9.1719-6.8438 2.5039-1.4023 7.3047-4.1836 10.668-6.1797 5.8281-3.4648 18.613-10.078 23.586-12.199 3.0039-1.2812 16.902-5.875 19.344-6.3945 2.0039-0.42578 2.8281-1.3945 9.4297-11.09 1.9648-2.8828 4.9023-7.1484 6.5312-9.4805 1.6289-2.3281 4.9648-7.5703 7.4141-11.645 4.0625-6.7578 6.4922-9.3516 6.4922-6.9297 0 0.94922-4.7773 9.4375-9.7227 17.277l-3.125 4.9492 2.8555-3.0156c1.5664-1.6602 5.6406-6.4375 9.0469-10.613 6.1602-7.5547 8.0977-9.3633 8.8047-8.2227 0.40625 0.65625-7.3984 10.941-14.594 19.23-4.9805 5.7383-14.387 15.07-17.434 17.301l-1.7461 1.2773 3.8828 0.035156c2.1367 0.015625 4.2656 0.17578 4.7305 0.35547 0.60937 0.23438 0.95703-0.23828 1.2227-1.6523 0.62891-3.3477 3.9297-5.6641 8.0742-5.6641 4.2695 0 7.5977 1.582 16.582 7.875 12.273 8.6016 12.77 8.9648 17.004 12.543 5.8984 4.9766 7.5039 6.0742 13.148 8.9922 4.7656 2.4648 10.102 5.7227 24.09 14.711 2.6797 1.7227 4.9648 3.0352 5.0781 2.9219 0.35156-0.35156-3.1484-7.3789-6.1406-12.344-1.5586-2.582-3.6211-6.6602-4.5781-9.0664-0.96094-2.4023-3.2266-7.6445-5.0352-11.648-1.8086-4.0078-4.7422-10.953-6.5156-15.441-1.7734-4.4844-3.4336-8.375-3.6914-8.6445-0.86328-0.91406-1.2578 6.2461-0.55859 10.102 0.37891 2.082 0.80469 4.8359 0.94141 6.1172l0.25391 2.332-1.5586-1.7188-1.5547-1.7188 0.4375 2.0078c0.24609 1.1055 1.1836 4.3203 2.0938 7.1445 0.90625 2.8242 1.8047 6.1016 1.9961 7.2812 0.33203 2.0703 0.30859 2.1094-0.62891 0.98438-3.0078-3.5898-6.5625-14.672-7.8789-24.562-1.0352-7.7891 0.054687-20.004 1.7852-20.004 0.29297 0 0.37891 3.1016 0.19531 7.1367-0.17969 3.9258-0.078125 8.0547 0.22266 9.1758 0.50781 1.8789 0.58203 1.668 0.94531-2.6367 0.21875-2.5703 0.62891-5.4844 0.91406-6.4766 0.36719-1.2852 0.20312-3.1289-0.58203-6.3984-1.2695-5.3086-1.3945-9.2266-0.36328-11.27 0.98438-1.9414 3.9805-2.7695 6.6016-1.8242 1.8398 0.66797 2.1406 0.60547 3.7773-0.77344 0.98047-0.82422 1.9805-1.5 2.2227-1.5 1.2109 0 1.0234 0.94141-0.54297 2.7266-2.0508 2.3359-2.0898 2.5977-0.57812 3.9648 1.1289 1.0234 1.2148 0.98438 3.4375-1.5117 2.3984-2.6914 3.9336-2.7266 2.25-0.046875-3.25 5.1758-3.2734 4.5234 0.46875 11.543 1.8594 3.4844 5.2031 9.0703 7.4297 12.41 2.2305 3.3398 5.1875 8.5156 6.5742 11.504s2.7266 5.4297 2.9766 5.4258c0.99219-0.019531 3.0938-7.0898 4.2344-14.27 0.66406-4.1641 1.8477-10.883 2.6328-14.934 0.78516-4.0508 1.7227-11.785 2.082-17.188 0.73828-10.992 1.6992-17.684 2.5742-17.859 0.32031-0.0625 0.66406 1.0117 0.76172 2.3945 0.10547 1.4648 0.62891 2.9609 1.2578 3.5898 2.2695 2.2695 2.2461 13.668-0.050781 25.57-2.207 11.449-7.4961 27.512-11.031 33.504l-1.3086 2.2188 3.3867 6.793c1.8594 3.7383 4.375 8.3711 5.5898 10.301 2.4609 3.9219 4.3359 7.9062 8.3398 17.758 1.4961 3.6836 3.5586 8.2461 4.5859 10.133 1.7461 3.2227 2.0859 3.5156 5.4844 4.7266 1.9922 0.71094 5.3359 2.4102 7.4258 3.7734 6.3164 4.1133 10.18 5.0039 13.031 3 4.4531-3.1289 10.805-4.6328 15.305-3.6211 3.4219 0.76953 14 7.3242 18.492 11.465 4.6016 4.2344 5.5469 4.7734 10.738 6.1094 5.0156 1.2891 8.1797 3.3633 10.18 6.6797 1.8984 3.1406 4.3086 4.0664 11.945 4.5859 6.1367 0.41797 8.2109 1.207 11.734 4.4531 2.0039 1.8477 2.9062 3.2617 3.6523 5.7227 1.1914 3.9453 1.3281 12.801 0.24609 15.934-1.1406 3.293-0.52344 4.3945 2.707 4.8242 3.9844 0.53125 5.7227 1.3398 7.3047 3.4023 1.8828 2.4492 5.6289 3.5195 18.73 5.3438 12.805 1.7812 18.996 2.957 35.523 6.7461 7.0469 1.6172 20.543 4.4688 29.992 6.3398 18.359 3.6328 22.133 4.5195 42.516 9.9922 29.52 7.9258 54.012 15.438 55.953 17.16 0.60547 0.53906 2.332 0.81641 5.0352 0.81641 8.7812 0 28.625 2.75 40.348 5.5859 14.266 3.457 21.355 6.3281 45.133 18.277 21.258 10.688 39.148 18.742 53.148 23.941 12.996 4.8281 25.477 13.789 36.602 26.281 17.473 19.621 17.91 20.219 22.18 30.199 4.4688 10.445 5.1328 13.621 5.1133 24.469-0.011719 8.9102-0.12891 9.9375-1.5781 14.074-3.0156 8.6094-9.9414 18.75-28.984 42.438-7.3008 9.0859-14.621 19-20.652 27.965-4.2227 6.2773-7.5117 10.316-12.801 15.73-3.918 4.0039-12.465 13.18-18.996 20.391-6.5312 7.2109-17.121 18.762-23.535 25.672-6.4141 6.9102-15.984 17.262-21.27 23.008-5.2852 5.7422-18.914 19.883-30.285 31.426-11.371 11.539-22.855 23.73-25.52 27.094-7.5703 9.5508-9.6328 11.891-9.8672 11.188-0.45312-1.3555 2.1953-5.875 6.9023-11.773 2.6836-3.3633 13.926-15.301 24.984-26.523 11.055-11.223 24.668-25.379 30.25-31.461 9.4688-10.309 23.25-25.234 37.91-41.055 3.4141-3.6836 10.352-11.289 15.418-16.895 5.0625-5.6094 11.336-12.293 13.934-14.859 2.6719-2.6328 6.6016-7.4453 9.0391-11.066 7.0898-10.527 14.109-19.996 24.898-33.594 20.297-25.582 25.039-33.062 27.008-42.598 1.9492-9.457 1.2734-17.059-2.4648-27.707-3.5938-10.242-6.7227-15.285-15.953-25.73-4.6719-5.2852-10.379-11.535-12.676-13.891-7.9141-8.0938-20.059-16.336-28.934-19.633-5.4531-2.0273-18.734-7.5156-29.117-12.035-3.6836-1.6016-15.109-7.207-25.391-12.457-10.281-5.2461-21.395-10.613-24.695-11.922-18.09-7.1758-45.352-12.145-66.977-12.207-3.3633-0.011719-6.4805-0.25-6.9258-0.53125-1.1562-0.73438-0.33984-2.3828 1.1836-2.3828 0.70312 0 1.168-0.10938 1.0312-0.24609-0.44922-0.44922-25.613-7.8984-40.422-11.969-24.766-6.8008-34.387-9.1445-50.375-12.277-8.4883-1.6602-18.84-3.7891-23.004-4.7305-27.301-6.1758-30.18-6.7383-47.301-9.2148-11.219-1.625-14.633-2.75-17.496-5.7617-1.9766-2.0781-2.625-2.4062-4.7461-2.4062-3.043 0-4.4531-0.72266-5.5508-2.8438-0.74219-1.4375-0.74219-2.0469-0.011719-4.7891 0.46094-1.7305 0.83984-4.9023 0.84375-7.0508 0.019531-11.426-3.8555-15.703-14.875-16.41-5.1328-0.32812-9.5078-1.4297-11.172-2.8125-0.45312-0.375-1.3203-1.6562-1.9258-2.8477-1.3711-2.6875-3.9297-4.3086-8.7578-5.5391-5.0898-1.3008-7.7695-2.7578-11.574-6.3047-4.1445-3.8633-6.207-5.3516-12.164-8.7773l-4.8555-2.793-4.3125 0.32422c-5.207 0.39453-6.4805 1.0859-15.488 8.375-9.2656 7.4961-10.176 8.8789-12.094 18.379-0.69531 3.4297-2.1641 9.5352-3.2695 13.562-1.1016 4.0273-2.0039 7.9023-2.0039 8.6016 0 1.2539 0.019531 1.25 0.99609-0.16016 0.55078-0.79297 4.043-5.2617 7.7656-9.9336 9.5586-11.996 12.785-16.977 12.785-19.738 0-2.3516-2.3789-1.1328-7.6602 3.9258-2.5781 2.4688-3.9883 2.8086-3.9883 0.96875 0-2.0469 8.7969-8.9961 11.383-8.9961 3.3633 0 3.9531 3.8164 1.3984 9.0977-1.2266 2.5273-8.6953 12.625-16.391 22.148-6.7852 8.3984-10.84 17.562-12.414 28.051-1.5742 10.477-4.0859 22.945-6.0742 30.129-1.4648 5.293-1.4766 11.02-0.035156 18.469 1.918 9.9414 3.4023 14.422 7.0312 21.254 2.7969 5.2695 4.2656 7.2852 7.6797 10.555 4.8945 4.6836 8.9141 8.2734 9.2656 8.2734 0.13672 0 0.14453-2.4336 0.011719-5.4102-0.28906-6.6523 0.97266-15.816 3.75-27.215 2.7266-11.195 6.5195-22.355 13.359-39.324 12.043-29.879 13.648-34.695 13.648-40.918 0-2.5391-0.26562-3.3906-1.4297-4.5508-1.7266-1.7305-2.6016-1.7734-5.5234-0.28125-3.6445 1.8594-8.7539 6.7383-16.5 15.754-7.6094 8.8555-9.6797 10.586-11.383 9.5195-2.3164-1.457-0.79297-11.168 2.1797-13.855 1.6211-1.4688 1.8867-0.30469 0.67188 2.9258-1.3125 3.4883-2.0781 7.8125-1.3867 7.8125 0.69141 0 4.7852-4.3242 10.812-11.418 8.293-9.7578 13.344-13.695 18.078-14.086 2.6094-0.21484 3.2383-0.050781 4.5859 1.1992 4.7852 4.4453 3.1641 13.414-6.8164 37.703-9.5078 23.141-13.496 34.082-16.641 45.652-3.3125 12.184-5.1836 24.258-5.1836 33.422v5.4062l7.0508 5.2617c8.5742 6.3984 15.828 10.754 28.473 17.109 19.293 9.6953 33.91 16.117 44.555 19.57 2.2422 0.73047 10.758 4.0078 18.926 7.2852 8.168 3.2773 19.961 7.7969 26.207 10.047 16.301 5.8711 33.504 11.797 34.234 11.797 0.34375 0 4.3789 1.6016 8.9688 3.5547 42.164 17.961 67.371 26.242 92.82 30.504 4.8281 0.80469 9.8047 1.8438 11.066 2.3047 2.2852 0.83984 2.2852 0.84375 0.54687 0.95703-9.7656 0.63281-31.016-3.7305-52.605-10.805-12.273-4.0195-28.617-10.34-50.328-19.461-6.9453-2.918-12.867-5.3047-13.156-5.3047-0.625 0-19.531-6.3828-29.797-10.062-9.2852-3.3242-25.016-9.3828-34.309-13.211-7.5234-3.0977-17.203-6.4414-18.66-6.4414-0.46094 0-1.7812 0.65625-2.9336 1.4531-3.2539 2.2539-6.5117 2.5898-16.188 1.6562-11.797-1.1367-13.531-0.78516-22.305 4.5195-8.5508 5.168-10.52 5.5508-15.137 2.9609-1.7383-0.97656-4.4727-2.0938-6.0742-2.4805-3.9141-0.94531-4.6641-1.3789-7.5312-4.375-1.6133-1.6836-2.957-2.5664-3.9023-2.5664-0.84375 0-5.1328 2.4062-10.324 5.793-15.012 9.7891-25.707 14.676-44.559 20.367-11.773 3.5508-21.551 5.9609-31.816 7.8477-16.691 3.0625-45.445 5.1836-71.34 5.2617-15.867 0.046875-19.457-0.10547-24.168-1.0195-9.8164-1.9023-19.215-3.2578-32.906-4.7461-14.238-1.5469-18.535-2.3633-17.129-3.2539 0.45312-0.28516 2.1758-0.52344 3.832-0.53125 4.6719-0.011719 28.715 2.7617 37.465 4.3242 15.559 2.7812 16.844 2.8945 31.742 2.832 20.18-0.082031 50.816-2.1797 67.242-4.6016 11.453-1.6914 26.051-5.3086 41.328-10.246 10.789-3.4883 18.152-6.4844 25.668-10.441 6.4883-3.4141 18.168-11.145 17.586-11.637-0.22266-0.1875-1.6914-0.81641-3.2656-1.3945-3.0664-1.1289-13.883-8.1133-15.719-10.145-1.4375-1.5898-2.1953-1.5469-5.1016 0.28906-6.2969 3.9766-18.293 6.5039-38.344 8.0859-6.2461 0.49219-15.941 1.4062-21.547 2.0352-9.0391 1.0117-29.578 2.6875-57.949 4.7305-5.125 0.36719-17.18 0.71484-26.789 0.76562-20.582 0.11328-17.82-0.66797-29.992 8.4922-6.5781 4.9492-13.984 9.6797-18.402 11.75-4.2305 1.9844-6.0859 2.4883-11.391 3.0977-4.2188 0.48438-6.6875 1.0469-7.3906 1.6836-1.4492 1.3125-2.2852 1.2109-6.2578-0.73047-5.0195-2.457-8.3047-2.9922-17.438-2.8281l-8.168 0.14453-8.6133-4.3711c-8.0273-4.0703-8.8594-4.3672-12.211-4.3359-2.0234 0.015625-4.75 0.48828-6.2227 1.0742-3.7148 1.4805-10.559 1.832-14.852 0.76172-1.9219-0.47656-6.168-1.5547-9.4375-2.3906-3.2695-0.83203-6.543-1.5156-7.2773-1.5156-0.73828 0-3.1953-0.55078-5.4648-1.2227l-4.125-1.2227-3.6211 1.8281c-3.4688 1.75-3.875 1.8203-9.8477 1.668-10.992-0.27344-20.242 0.64062-24.871 2.4609-2.2422 0.88281-5.6016 1.957-7.4648 2.3906-3.2969 0.76562-3.4414 0.88281-5.2031 4.1875-2.3086 4.332-7.8359 9.4453-10.809 10-3.707 0.69141-23.395 8.9297-30.363 12.707-3.668 1.9883-9.7422 5.625-13.5 8.082-20.68 13.523-30.973 23.703-38.398 37.977-3.4805 6.6875-5.7656 10.496-6.0977 10.164-0.51562-0.51563 1.7148-7.3789 3.6367-11.203 5.7109-11.348 13.395-20.105 26.086-29.715 16.113-12.207 31.613-20.883 48.918-27.387 12.336-4.6367 12.906-4.918 15.227-7.4883 2.9492-3.2656 5.0039-8.0508 8.0547-18.762 3.5742-12.547 6.6094-18.66 12.25-24.652 4.6562-4.9531 11.758-10.164 19.184-14.074l4.5547-2.4023-13.035 0.46484c-21.93 0.78125-124.24 0.52734-133.01-0.32813-9.8711-0.96484-13.105-1.668-13.105-2.8398 0-0.98047-1.0742-1.0078 17.18 0.39062 3.8438 0.29297 25.859 0.70703 48.922 0.91797 52.754 0.48828 81.59-0.25 115.6-2.957 6.2461-0.49609 13.453-0.82422 16.016-0.72266 4.3828 0.16797 4.5391 0.21484 2.6211 0.83203-1.5586 0.5-1.8125 0.74609-1.0742 1.0586 1.1133 0.46875 8.5391-2.3594 13.195-5.0195 3.8242-2.1914 9.2734-7.1836 12.707-11.648 1.4258-1.8555 4.9023-7.8008 7.7227-13.215 5.7109-10.957 9.1602-16.211 15.16-23.098l4.0586-4.6641-1.5703-0.36719c-3.0664-0.71875-17.363-0.48828-23.066 0.37109-3.1758 0.48047-6.9766 0.86328-8.4453 0.85156-2.4297-0.015626-2.5742-0.089844-1.582-0.83984 1.4453-1.0977 7.4141-2.3984 14.918-3.2578 4.8438-0.55469 8.5117-0.53906 17.762 0.070313 6.4102 0.42188 14.312 0.78516 17.562 0.80469 5.1133 0.035157 6.0742-0.11719 7.1992-1.125 1.1992-1.0742 1.2734-1.5117 0.94141-5.5352-0.42969-5.207 0.51953-7.6875 3.7148-9.7266 5.2227-3.332 4.8594-2.6016 4.4219-8.9648-0.48438-7.0312 0.13672-8.8125 4.6758-13.414 3.8867-3.9375 4.3633-5.9648 2.8555-12.125-1.2383-5.0469-3.2422-8.4258-10.844-18.285-8.7266-11.32-27.465-29.203-34.309-32.742-1.0703-0.55469-6.2109-1.375-13.246-2.1172-10.031-1.0625-12.504-1.1367-19.363-0.58594-4.3242 0.34766-9.8203 1.1797-12.215 1.8516-8.4414 2.3711-17.398 8.0352-30.918 19.559-3.3438 2.8516-8.4375 7.1406-11.32 9.5391-2.8789 2.3945-7.8594 6.7266-11.062 9.6289-17.891 16.199-24.383 21.586-33.34 27.652-2.9648 2.0039-5.3906 3.7422-5.3906 3.8633 0 0.62891 22.273 10.926 32.324 14.949 10.867 4.3438 20.684 7.4414 39.938 12.598 2.4297 0.65234 6.8203 1.5039 9.7578 1.8945 4.5156 0.60156 5.3398 0.875 5.3398 1.7734 0 0.87891-0.48047 1.0586-2.8047 1.0586-4.082 0-8.3125-0.88672-21.363-4.4727-13.418-3.6914-23.164-6.8594-31.449-10.223-9.6602-3.9219-24.547-10.801-33.301-15.391-13.137-6.8867-20.508-9.1133-30.18-9.1172-7.9414-0.007812-13.777 1.0938-25.355 4.7695-13.113 4.168-13.473 4.2539-36.52 8.7852-11.609 2.2852-23.273 4.8086-25.918 5.6094-2.6406 0.79688-6.7734 1.6836-9.1758 1.9688-2.4023 0.28125-8.9531 1.9805-14.559 3.7695-11.539 3.6875-16.773 5.1211-29.836 8.168-23.242 5.4258-38.969 14.57-44.742 26.008-4.3867 8.6914-17.902 28.711-26.543 39.32-5.0703 6.2227-7.4141 8.3594-15.293 13.949-9.2305 6.5469-12.055 10.379-16.566 22.469-4.3633 11.684-9.6484 34.773-10.117 44.211-0.68359 13.656 3.8125 38.777 8.9648 50.102 2.8086 6.1797 11.168 19.566 15.277 24.469 4.0195 4.7969 6.3203 8.3242 11.398 17.477 3.957 7.1406 4.7305 8.4453 13.219 22.328 19.773 32.34 38.551 60.023 52.824 77.879 14.336 17.934 34.348 38.98 45.781 48.16 7.1094 5.7031 15.973 12.086 16.316 11.746 0.13672-0.14062-0.046875-12.43-0.41016-27.312-0.81641-33.508-0.003906-53.516 3.375-83.426 0.32031-2.8047 0.23438-3.3477-0.52734-3.3477-3.582 0-7.4258-14.762-6.25-24.023 0.73047-5.7852 1.4961-9.0273 3.1875-13.523 3.5312-9.3867 13.598-26.641 24.512-42.016 5.7031-8.0352 13.801-17.207 14.539-16.473 0.51953 0.51953-0.72656 2.4102-7.0312 10.684-10.141 13.301-21.254 30.91-26.734 42.363-6.6523 13.891-7.7031 24.145-3.7344 36.383 1.0508 3.2344 2.7773 5.3359 2.8984 3.5273 0.027344-0.39063 0.22656-6.4023 0.44531-13.355 0.375-12.145 0.89063-15.285 2.1602-13.227 1.1172 1.8086 0.40625 21.973-1.3867 39.273-2.8789 27.812-3.2148 36.172-2.8008 69.617 0.20312 16.504 0.61328 40.754 0.91016 53.891 0.78906 34.918 0.98438 148.74 0.25781 150.89l-0.58984 1.7461zm281.9-440.7c0.92969-0.46484 3.5273-1.0117 5.7695-1.2188 10.062-0.91406 15.762-3.7969 32.484-16.43 5.5664-4.2031 10.793-7.1289 12.758-7.1367 1.3906-0.011719 1.5312-0.87891 1.9492-11.949 0.27734-7.3828 0.058593-14.434-0.85938-27.676-1.4922-21.492-1.8711-25.141-4.0742-39.324-0.94531-6.0898-2.2734-15.906-2.9531-21.816-1.2695-11.086-2.5156-15.598-6.543-23.664-0.78906-1.582-2.5859-6.082-3.9922-10.004-1.4102-3.9219-2.7852-7.1328-3.0625-7.1367-0.27344-0.003906-1.4922 0.78125-2.707 1.7422-1.2148 0.96484-3.0117 1.9102-3.9922 2.1094-2.1484 0.42969-7.875 6.207-9.1289 9.2109-0.71094 1.6992-0.73828 2.7148-0.17578 6.0078 1.0078 5.8711 0.007812 8.6523-3.8555 10.734-4.2188 2.2773-4.5625 2.9297-4.1562 7.9727 0.42188 5.2969-0.51562 7.6875-3.5938 9.1484-1.793 0.85156-3.4141 0.95703-10.875 0.72656l-8.7695-0.27344-5.2422 6.3516c-7.4688 9.0547-9.6055 12.305-14.961 22.793-8.6523 16.945-14.969 23.449-28.332 29.168l-4.8594 2.082h-16c-10.781 0-16.402 0.21484-17.234 0.65625-0.67578 0.36328-2.7969 1.0234-4.7148 1.4727-11.703 2.7305-27.516 14.777-32.844 25.023-1.9844 3.8203-7.7227 21.258-7.7227 23.473 0 0.33984 2.9453-0.41406 6.5508-1.6758 5.6875-1.9883 7.625-2.3711 14.703-2.8945 4.4844-0.33594 10.719-0.60938 13.852-0.60938 4.9219 0 6.0898-0.20312 8.5703-1.4609 3.0742-1.5586 5.3945-1.8125 7.8828-0.86719 0.85156 0.32422 3.8164 0.98047 6.5898 1.457 2.7695 0.48047 7.9219 1.6953 11.445 2.707 8.5469 2.457 14 2.5117 19.734 0.21094 5.8477-2.3516 7.9375-1.9648 18.727 3.4531l8.7578 4.3984h9.4141c8.5 0 9.793 0.13672 13.297 1.4102 2.1328 0.77734 4.1641 1.6953 4.5078 2.0391 0.84375 0.83984 1.6367 0.79297 3.6562-0.21094zm39.691-101.16c-1.6523-0.96484-2.7109-3.6211-4.7969-12.07-2.3633-9.5859-2.9414-13.254-2.168-13.73 1.043-0.64844 1.6836 1.0039 3.9141 10.117 1.2148 4.9688 2.8281 10.441 3.5781 12.164 1.8633 4.2695 1.7734 4.8594-0.52734 3.5195zm2.3867-7.9336c-0.83984-0.89844-2.0508-2.6797-2.6914-3.9609-1.0703-2.1484-4.1992-12.262-5.9492-19.227-1.75-6.9766-4.2227-15.355-5.2734-17.879-1.3594-3.2617-1.4375-4.5508-0.27734-4.5508 1.9023 0 3.332 3.8008 7.8711 20.895 2.6406 9.9531 3.8711 13.801 7.3516 23.02 1.1562 3.0703 0.80078 3.6562-1.0312 1.7031zm-1.6562-18.66c-1.5-3.3945-5.2422-18.074-5.2422-20.566 0-3.1406 1.2656-1.6367 2.7344 3.25 3.332 11.105 5.1523 20.07 4.0742 20.07-0.19141 0-0.89453-1.2383-1.5664-2.7539zm-16.484-10.129c-1.3477-3.0234-2.1445-8.6875-2.1484-15.246-0.003906-4.6875 0.16016-5.7617 0.92969-6.0547 1.1484-0.44141 2.0664 0.89453 1.6133 2.3477-0.18359 0.59375-0.015624 5.0508 0.375 9.9062 0.82422 10.215 0.65234 12.246-0.76953 9.0469zm244.02 119.37c0.89453-0.39453 4.5938-2.4727 8.2227-4.625 7.4766-4.4336 9.6953-4.9688 18.09-4.3516 14.887 1.0938 15.41 1.0938 17.41-0.023438 1.0508-0.58594 1.918-1.3047 1.9297-1.5977 0.015626-0.29688-2.0234-1.3711-4.5273-2.3945-10.809-4.4102-34.246-15.848-44.195-21.559-7.9453-4.5664-16.91-10.934-23.789-16.898-3.1758-2.7539-6.8438-5.7539-8.1523-6.6602-3.9258-2.7305-5.8828-5.207-9.9141-12.543-4.3008-7.8242-6.0703-12.816-7.9766-22.512-1.8164-9.2266-1.7109-16.078 0.35156-22.934 1.668-5.5391 3.8828-16.504 5.2969-26.215 0.46875-3.2031 0.97266-6.168 1.1289-6.5859 0.46094-1.2617-3.125-2.2852-9.0586-2.5781l-5.5586-0.27344-0.99609 3.2617c-3.8242 12.535-6.7695 39.613-6.8008 62.477-0.019531 15.328 1.3984 35.059 3.2422 45.07 0.85156 4.6133 5.082 19.895 5.6758 20.488 0.16797 0.16797 1.4883-0.50781 2.9297-1.5 1.4414-0.99219 3.1406-1.8008 3.7734-1.8008s2.5625 1.1484 4.2852 2.5547c4.0859 3.3281 10.867 7.7031 14.289 9.2148 2.3008 1.0195 5.957 1.5391 11.371 1.6133 0.5625 0.007813 2.5938 1.457 4.5078 3.2188 1.918 1.7617 3.9648 3.207 4.5508 3.207 1.7461 0 6.6602 1.832 8.8359 3.2969 2.3242 1.5625 2.8398 1.6289 5.0781 0.64844zm-64.465-99.465c-0.88672-3.2969-1.0703-17.617-0.22656-17.91 1.0234-0.35156 1.3711 1.7969 1.7695 10.949 0.25781 5.9375 0.17578 8.625-0.27344 8.9023-0.39844 0.24609-0.87891-0.48828-1.2695-1.9414zm3.957-8.1836c-1.7266-3.832-2.7266-20.148-1.6758-27.352 0.79688-5.4453 2.6719-12.023 3.5898-12.59 1.2227-0.75781 1.2773 0.41797 0.20703 4.5469-0.89062 3.4375-1.1523 7.2109-1.4102 20.246-0.17188 8.8125-0.49219 15.629-0.71094 15.148zm-96.855 99.387c24.055-1.8164 31.43-2.4453 41.641-3.5664 4.3242-0.47266 13.82-1.3789 21.102-2.0117 7.2812-0.63281 15.012-1.4297 17.18-1.7734 4.8711-0.76562 13.609-2.7852 14.508-3.3516 0.47656-0.30078-0.074219-3.0078-1.9102-9.4062-4.5195-15.762-5.418-23.797-5.8555-52.477-0.33203-21.582 0.023438-29.109 2.1836-45.969 0.63281-4.9375 1.0547-9.0664 0.94141-9.1797-0.11328-0.11328-1.3359 1.6953-2.7188 4.0195-12.332 20.754-32.715 38.188-55.039 47.078-11.016 4.3867-24.242 7.3711-21.789 4.918 0.48438-0.48438 4.707-2.0547 9.3867-3.4883 18.66-5.7109 32.078-13.305 46.109-26.098 10.484-9.5586 22.711-27.359 26.648-38.801 0.59375-1.7266 1.3594-3.4766 1.6953-3.8828 0.47266-0.57031-0.24219-1.1992-3.0469-2.6875-2.7461-1.4531-3.8086-2.3789-4.2461-3.6875-0.78516-2.3633-1.2461-2.6016-4.9961-2.6133-5.8828-0.015625-19.586 5.6719-35.777 14.848-12.27 6.957-17.059 9.0156-21.355 9.1875-1.9336 0.078125-2.6289-0.20312-3.7617-1.5195-1.5469-1.8008-1.8906-5.3789-0.66016-6.875 0.75-0.91016 7.2852-5.8047 12.312-9.2227 3.4531-2.3438 22.355-18.457 28.02-23.879 4.8867-4.6797 5.957-5.3711 12.691-8.1914l5.2148-2.1875-2.5469-1.4883c-1.5508-0.90625-4.7148-1.8828-8.0781-2.4961-5.2539-0.96094-6.543-0.95703-26.137 0.039063-19.668 1-27.137 0.94922-34.582-0.24219-1.6797-0.26953-3.1484-0.40234-3.2617-0.29297-0.11328 0.10547 0.21484 0.79297 0.73047 1.5273 1.4375 2.0547 1.1445 4.2812-0.86328 6.5703-2.5977 2.9609-4.3438 3.2461-13.715 2.25-11.801-1.2578-29.73-1.6328-35.738-0.75l-4.9531 0.73047-9.25 9.0469 0.60938 2.668c0.82031 3.582 0.39453 4.1992-9.3945 13.648l-8.0273 7.75 1.6211 3.9023c2.9219 7.0273 9.457 19.523 13.117 25.078 4.5391 6.8828 9.4102 12.055 18.605 19.746 9.2656 7.75 15.594 11.957 21.766 14.477 5.0625 2.0664 16.457 5.1133 21.691 5.8008 3.5117 0.46484 4.6172 1.0234 4 2.0234-1.5664 2.5391-24.168-3.2969-33.48-8.6445-9.5-5.4531-29.348-23.059-33.031-29.297-1.2617-2.1289-2.1016-2.1719-1.6875-0.085937 0.46875 2.3906 2.6016 18.359 3.207 24.035 0.29297 2.7227 1.2031 9.5391 2.0195 15.145 2.8789 19.691 4.6992 56.613 3.3164 67.293-0.25 1.9219-0.32031 3.7266-0.16016 4.0078 0.53516 0.9375 35.238-0.074219 55.746-1.625zm29.117-132.64c4.2617-1.5 4.3164-1.5273 18.953-9.6406 8.0898-4.4844 14.785-7.7031 20.676-9.9414 7.7695-2.957 9.2148-3.3242 13.363-3.3945l4.6484-0.078125 0.67969-6.6562c0.37109-3.6602 1.0977-8.6211 1.6094-11.023 0.51172-2.4062 0.92969-4.5 0.92969-4.6602 0-0.16016-2.5547-0.26562-5.6758-0.23047-5.1797 0.054688-6.1016 0.24609-10.504 2.1719-5.7344 2.5039-8.8086 4.5625-12.355 8.2578-1.4414 1.5-4.9805 4.7344-7.8633 7.1797-2.8828 2.4492-7.5547 6.4844-10.379 8.9648-2.8281 2.4844-7.2812 6.0078-9.9023 7.8359-6.4883 4.5312-11.457 8.4258-11.457 8.9805 0 0.25 0.25391 1.1289 0.56641 1.9531 0.70703 1.8516 2.0703 1.9102 6.7109 0.28125zm-112.91-7.0703c3.5781-2.7422 15.254-13.312 18.762-16.988 4.2578-4.4531 4.2109-3.7617 0.85547-13.434-3.0078-8.6562-6.4883-14.293-12.656-20.5-8.9727-9.0312-17.137-13.527-25.531-14.066-4.4922-0.28516-4.5703-0.26562-9.9023 2.4805-6.625 3.4141-14.398 7.9727-14.398 8.4414 0 0.19141 2.5352 2.5664 5.6328 5.2773 3.1016 2.7109 7.6211 6.8945 10.047 9.2969 4.2734 4.2305 16.949 19.965 19.992 24.812 1.9023 3.0273 3.9492 9.6211 4.1055 13.203 0.12891 3.1094 0.64453 3.3555 3.0938 1.4766zm197.31-7.8438c0.50781-1.5 0.92578-3.3672 0.92578-4.1562 0-0.78516 0.25781-2.3789 0.57031-3.5391 0.3125-1.1562 1.1211-4.4648 1.793-7.3477 0.67578-2.8828 1.7461-7.0352 2.3828-9.2266 0.63672-2.1914 1.793-7.1133 2.5742-10.941 2.0039-9.8633 3.918-13.09 11.039-18.586 1.7539-1.3516 3.1914-2.6484 3.1914-2.8789 0-0.23438-1.0742-0.74219-2.3867-1.1367s-4.2617-1.918-6.5547-3.3867c-5.0977-3.2695-7.3398-4.2383-9.8125-4.2383-3.168 0-7.8398 2.7969-11.012 6.5977-9.5 11.371-15.555 29.332-16.629 49.348l-0.36328 6.7148 4.8086 2.2539c4.2734 2.0078 5.4805 2.3008 10.844 2.6445 3.3203 0.21094 6.2109 0.55859 6.4219 0.76953 0.67188 0.67188 1.25-0.089844 2.207-2.8906zm-170.02-25.277c1.8789-1.9414 4.0938-3.875 4.918-4.2969 2.0156-1.0234 11.418-2.0742 18.605-2.0742 3.2148 0 10.379 0.45703 15.918 1.0117 13.453 1.3516 16.895 1.3359 18.457-0.082031 1.5-1.3555 1.5898-3.9141 0.1875-5.1836-3.0547-2.7695-17.824-7.0625-40.602-11.809-8.4062-1.7539-11.715-2.1836-16.691-2.168l-6.2109 0.023437-4.8555 2.6797c-2.6719 1.4766-5.1953 2.9102-5.6133 3.1875-0.58203 0.38672-0.26562 1.0977 1.332 3.0078 3.457 4.1406 7.4727 11.602 9.8047 18.219 0.19531 0.55859 0.57812 1.0195 0.84766 1.0195 0.26953 0 2.0234-1.5898 3.9023-3.5352zm153.16-23.605 3.0039-5.9883-2.0781-0.89062c-7.4414-3.1992-22.941-6.75-29.488-6.7578-4.418-0.007813-17.387 2.1914-25.578 4.3359-1.9219 0.5-7.4258 1.3047-12.23 1.7812-14.145 1.4102-26.688 3.2031-28.25 4.0352-0.80078 0.42969-2.5742 0.96484-3.9375 1.1875-2.625 0.43359-3.6328 1.5312-3.6328 3.9531 0 2.5273 4.5117 5.4375 10.516 6.7812 5.4766 1.2305 16.727 1.75 25.434 1.1758 10.957-0.72266 47.852-1.6875 48.91-1.2812 1.2773 0.49219 0.52734 1.5586-1.5039 2.1406l-1.8672 0.53516 3.5391 2.2422c2.9805 1.8828 4.0391 2.2383 6.6875 2.2383 1.7539 0 3.3281 0.29688 3.5625 0.67188 0.22656 0.375 1.1992-1.7539 2.1641-4.7461 0.96094-2.9805 3.0977-8.1172 4.75-11.414zm-103.92 5.0391c-0.33203-0.62109-0.60547-2.2891-0.60547-3.707 0-3.2188 1.4336-5.1641 4.7969-6.5195 2.8125-1.1289 17.5-3.3867 28.402-4.3633 9.0703-0.8125 13.621-1.5078 19.293-2.9492 2.4453-0.625 7.5273-1.6523 11.293-2.2852 3.7656-0.63281 6.9258-1.2344 7.0312-1.3359 0.29297-0.29688-12.738-11.332-21.312-18.047-4.3242-3.3867-11.27-9.3398-15.434-13.234-4.1641-3.8906-9.4453-8.5-11.734-10.242-3.4336-2.6094-5.3086-4.5312-8.1875-8.3906-0.10156-0.14062-1.0352 0.55859-2.0703 1.5508-2.0352 1.9492-12.426 8.1758-19.938 11.949-5.7109 2.8711-18.082 10.27-22.422 13.414-3.6328 2.6289-3.707 2.6289 6.4062-0.066406 3.6836-0.98047 12.199-2.9609 18.926-4.4023 6.7266-1.4375 15.5-3.4141 19.496-4.3945 9.6992-2.375 10.652-2.3438 12.516 0.39453 2.1523 3.1719 1.9727 5.7383-0.64453 9.0938-4.0859 5.25-11.77 9.7969-21.465 12.707-3.2031 0.96094-13.949 4.7148-23.879 8.3398s-20.02 7.2812-22.422 8.1211c-2.4023 0.83984-5.8086 2.3789-7.5703 3.4141l-3.2031 1.8867 6.1133 0.36328c3.3633 0.20312 8.6055 0.89453 11.648 1.543 3.043 0.64844 8.8086 1.8633 12.812 2.6992 4.0039 0.83203 10.555 2.4102 14.559 3.5039 8.7852 2.3984 8.332 2.3398 7.5938 0.95703zm-63.887-3.9688c1.75-1.2031 4.8164-3.457 6.8086-5.0078 4.9688-3.8633 9.793-6.4141 16-8.4688 2.8828-0.95313 10.613-3.7383 17.18-6.1875 15.961-5.9531 21.996-8.0781 28.246-9.9375 6.6055-1.9648 12.207-4.9102 16.328-8.5859 4.9297-4.3945 5.8555-7.0195 3.293-9.3398-0.94141-0.85156-1.6445-0.78125-8.5742 0.86719-4.1562 0.98828-9.125 2.1289-11.047 2.5352-24.586 5.1992-28.34 6.1328-41.352 10.266-15.691 4.9844-21.801 8.0977-34.125 17.371-5.5742 4.1953-10.207 7.8359-10.293 8.0859s0.83203 1.0156 2.0391 1.6992c1.207 0.68359 4.293 2.9531 6.8555 5.0391 2.5625 2.0859 4.8359 3.8047 5.0586 3.8203 0.21875 0.015625 1.8281-0.95703 3.582-2.1562zm-8.1992-19.055c8.4297-6.4883 12.219-8.8164 19.508-11.977 10.793-4.6797 12.02-5.3359 17.031-9.125 5.2109-3.9414 15.727-10.352 25.527-15.559 5.043-2.6797 10.992-6.0352 13.223-7.4609 2.2305-1.4219 4.5-2.7539 5.0391-2.957 1.4102-0.52734 2.8945-3.0117 2.4648-4.125-0.39844-1.0391-3.6367-2.125-6.3594-2.1289-9.5547-0.011719-30.375 8.1133-49.211 19.211-3.6836 2.168-8.4023 4.8789-10.484 6.0195-6.043 3.3125-11.25 8.0664-15.688 14.328-2.207 3.1172-7.3477 9.1641-11.426 13.441l-7.4102 7.7773 2.5547 1.0039 2.5586 1.0078 2.9102-2.0898c1.6016-1.1523 5.9961-4.4648 9.7617-7.3672zm183.82 6.0586c1.707-1.9414 2.9336-3.7031 2.7227-3.9141-0.21094-0.21094-1.5938-1.0469-3.0703-1.8594-2.75-1.5078-4.2305-3.1406-3.5078-3.8633 0.21875-0.22266 2.3867 0.55078 4.8125 1.7188 4.793 2.3047 5.2773 2.4062 7.5273 1.5508l1.5039-0.57422-2.3398-4.6523c-1.2852-2.5586-3.3984-7.3477-4.6992-10.641-3.6562-9.2656-4.1445-10.312-7.1719-15.305-3.0156-4.9727-9.082-16.781-13.359-26.004-1.4297-3.0859-4.4297-8.3281-6.6641-11.652-2.2383-3.3242-5.4648-8.7969-7.1719-12.164-3.2891-6.4805-9.0391-13.398-11.137-13.398-2.7656 0-2.4336 7.2148 0.75781 16.512 0.98047 2.8633 2.125 6.4141 2.543 7.8906 1.0859 3.8398 4.4297 12.312 7.2734 18.418 1.3438 2.8867 3.707 8.2578 5.25 11.945 1.543 3.6836 4.3477 9.3203 6.2344 12.523 4.8242 8.2031 5.8125 10.598 4.9531 11.977-0.60938 0.97266-0.30469 1.3555 2.6602 3.3711 3.9688 2.6953 7.125 5.5508 7.125 6.4414 0 1.3047-2.1602 0.57422-5.2578-1.7734-6.6602-5.0508-30.762-20.379-36.383-23.141-5.0195-2.4648-9.4375-5.4375-13.852-9.3242-1.8516-1.6289-6.0469-4.8516-9.3203-7.1562-3.2695-2.3086-8.168-5.7578-10.879-7.668-3.4414-2.4219-6.1328-3.8125-8.8984-4.5977-3.8516-1.0898-4.0352-1.0898-6.1367-0.0625-2.9336 1.4336-3.0742 3.2266-0.61328 7.8477 1.4922 2.8008 3.2773 4.7812 8.0156 8.8945 3.3516 2.9062 9.5391 8.4492 13.75 12.312 4.2109 3.8633 10.645 9.3555 14.301 12.203 6.1211 4.7695 19.547 15.977 22.262 18.582 0.86328 0.82812 2.5078 1.2305 6.457 1.5938 2.9141 0.26562 6.6094 0.75781 8.2109 1.0977 4.3164 0.91406 16.668 4.6602 18.344 5.5664 0.80078 0.42969 1.7266 0.79688 2.0547 0.80859 0.32812 0.011719 1.9961-1.5664 3.7031-3.5039zm-206.82 0.98828c1.6797 0.039062 3.0547-0.17188 3.0547-0.46875 0-0.29297 3.0391-3.7188 6.7539-7.6133 7.1133-7.4531 7.7422-8.4688 11.293-18.281 1.0312-2.8477 3.2656-8.9805 4.9648-13.629 1.7031-4.6445 3.3594-9.9023 3.6875-11.684 0.32422-1.7773 1-4.2695 1.4961-5.5312 0.49609-1.2656 1.7031-5.8398 2.6836-10.164 0.97656-4.3281 2.4023-9.7031 3.1641-11.945 2.4805-7.2969 4.918-15.676 5.293-18.191 0.44531-3-0.5625-6.3438-2.0234-6.7266-1.3906-0.36328-1.8633-0.007812-3.4648 2.6328-0.72656 1.1992-1.6562 2.3789-2.0586 2.6211-1.0977 0.65625-3.5312 5.125-5.4883 10.086-1.5977 4.043-5.1562 11.52-16.34 34.34-2.2773 4.6445-5.1445 10.324-6.3711 12.617-1.7969 3.3555-2.543 5.8008-3.8203 12.527-1.9961 10.477-2.75 13.203-5.8633 21.172-3.6953 9.4531-3.6406 9.1641-1.668 8.625 0.90625-0.25 3.0234-0.42188 4.707-0.38672zm31.551-45.414c-0.039062-1.2305-0.058594-1.2344-0.53906-0.10938-0.69141 1.6016-0.69141 2.1719 0 1.7461 0.32031-0.19922 0.5625-0.93359 0.53906-1.6367zm172.82-44.789c-0.18359-0.46484-0.32422-0.32812-0.35156 0.35156-0.023437 0.61328 0.11328 0.95703 0.30469 0.76562 0.19531-0.19531 0.21484-0.69531 0.046875-1.1172zm2.5352-15.855c0.24609-8.9023-0.17969-8.7891-0.89453 0.23438-0.39453 4.9688-0.87109 10.34-1.0625 11.945-0.1875 1.6016 0.14453 0.57812 0.74219-2.2734 0.59766-2.8516 1.1445-7.3086 1.2148-9.9062zm-328.92 774.36c-13.418-16.344-25.285-33.285-33.234-47.438-12.859-22.895-22.551-49.492-34.676-95.152-5.5-20.703-6.375-25.051-5.0508-25.051 0.625 0 2.1484 4.8359 6.1484 19.516 17.578 64.547 26.398 86.445 47.633 118.27 2.5664 3.8438 8.4609 12.363 13.098 18.934 13.652 19.328 13.184 18.641 12.707 18.641-0.16016 0-3.1406-3.4727-6.625-7.7188zm261.25 2.1328c1.6914-3.3867 11.012-19.582 18.746-32.574 35.73-60.008 56.188-102.82 76.969-161.09 7.2148-20.23 44.246-131.1 48.16-144.19 1.918-6.4102 5.332-17.848 7.5898-25.426 4.7461-15.922 10.004-31.359 11.414-33.508 0.69141-1.0586 1.1562-1.3086 1.5977-0.86719 0.44141 0.44141-0.66797 4.4805-3.8164 13.898-2.4414 7.3047-6.8242 21.406-9.7422 31.336-7.6641 26.094-7.043 24.18-29.43 90.887-27.195 81.023-32.891 96.637-46.863 128.46-17.152 39.074-47.883 95.16-69.75 127.3-5.0039 7.3594-6.625 9.2734-4.875 5.7734zm333.22-11.465c0-6.8945 4.0977-28.191 13.09-68.008 10.742-47.566 18.59-70.555 36.297-106.32 12.348-24.941 25.254-47.707 36.844-65 15.719-23.457 40.941-51.793 68.133-76.551 5.2695-4.7969 11.734-10.762 14.367-13.254 3.375-3.1953 5.2266-4.5352 6.2617-4.5352 2.2227 0 1.7188 1.1797-1.7461 4.0781-6.6562 5.5625-30.691 28.227-39.301 37.055-33.855 34.711-53.434 62.73-78.934 112.96-17.059 33.609-24.613 53.234-33.148 86.137-4.4102 16.992-13.277 57.16-16.938 76.699-1.9023 10.152-4.1133 19.77-4.6719 20.332-0.14062 0.14062-0.25391-1.4766-0.25391-3.5938zm-253.49-0.86328c2.1914-9.6289 14.234-47.566 30.008-94.523 18.043-53.719 25.461-77.734 35.641-115.36 4.625-17.098 16.109-64.516 21.586-89.137 7.5625-33.996 10.832-46.234 14.055-52.605 1.3242-2.6172 2.7383-3.8906 3.4883-3.1406 0.17969 0.17578-0.71875 3.0273-1.9961 6.332-3.9844 10.32-5.7891 17.094-11.457 43.004-1.7891 8.1719-4.0195 18.137-4.957 22.141s-2.6484 11.348-3.8047 16.312c-6.2852 27.012-14.41 58.539-21.324 82.727-7.1289 24.953-12.973 43.359-29.324 92.344-8.7695 26.273-17.297 52.23-18.953 57.676-5.6016 18.43-9.2695 29.402-11.293 33.789-1.1094 2.4062-2.1406 4.3711-2.2891 4.3711-0.15234 0 0.12891-1.7695 0.62109-3.9336zm137.02 0.19141c0-0.94141 4.4023-12.348 8.4453-21.875 8.1641-19.254 14.762-35.387 25.133-61.48 12.152-30.57 20.074-51.723 33.805-90.262 1.25-3.5039 2.6133-6.4844 3.0312-6.625 1.1523-0.38281 0.52734 1.9414-4.8906 18.234-9.7383 29.301-25.938 71.965-42.914 113.02-12.387 29.969-15.641 37.398-19.359 44.227-2.3945 4.3906-3.25 5.6445-3.25 4.7578zm39.938-20.406c0.45703-1.8242 5.7812-16.328 11.801-32.156 4.5625-11.988 12.379-34.926 22.406-65.75 7.1289-21.902 9.293-27.125 10.676-25.742 0.32422 0.32422-3.8516 13.395-18.266 57.203-8.7695 26.645-16.5 47.141-22.797 60.445-3.3828 7.1445-4.5781 9.0273-3.8203 6zm63.93-33.238c0.19922-6.0859 1.0195-18.785 1.8281-28.215 3.0898-36.137 4.707-69.07 4.1016-83.641-1.0547-25.539-4.5117-55.805-10.48-91.762-2.625-15.82-3.3438-22.125-3.1172-27.332 0.22656-5.25 1.3945-6.3125 1.8555-1.6836 1.1094 11.137 1.8789 16.84 3.875 28.727 3.9414 23.477 6.4805 42.633 9.0352 68.164 1.3047 13.031 1.7109 37.859 0.91016 55.344-1.5859 34.531-6.4023 89.648-7.957 91.086-0.22656 0.21094-0.25-4.5977-0.050781-10.688zm-453.59 1.5547c-13.609-6.2656-37.324-18.574-52.121-27.055-19.094-10.938-32.469-21.836-45.652-37.191-10.469-12.188-20.176-27.426-17.391-27.297 0.23828 0.011718 2.4336 3.0898 4.875 6.8438 11.156 17.148 25.77 32.59 41.57 43.93 5.6992 4.0898 16.082 10.535 23.004 14.273 2.4023 1.2969 11.051 5.9688 19.219 10.379 37.848 20.441 39.375 21.293 38.129 21.238-0.3125-0.011718-5.5469-2.3164-11.633-5.1211zm302-89.602c-0.0625-1.1211 5.6758-23.109 9.8633-37.793 5.8984-20.688 7.125-25.234 11.547-42.82 7.2305-28.75 14.664-61.234 20.465-89.43 11.297-54.918 15.043-70.332 17.746-73.035 1.3242-1.3242 1.1875-0.28125-0.82422 6.2383-2.1016 6.8086-3.0625 11.219-10.797 49.613-3.3242 16.5-7.3555 35.902-8.957 43.109-1.6055 7.2109-3.8516 17.305-4.9961 22.43-2.668 11.973-12.262 50.668-15.742 63.504-7.3906 27.25-18.125 61.371-18.305 58.184zm-589.61-4.875c-2.6914-6.5625-3.9531-21.043-2.7461-31.461 0.39062-3.3633 1.875-11.887 3.3008-18.934 4.7188-23.301 6.6641-33.668 8.375-44.625 3.3789-21.66 9.2578-51.719 12.809-65.484 6.2148-24.121 19.383-58.199 23.293-60.293 2.0312-1.0898 1.8594 0.44922-0.53906 4.8242-5.5977 10.195-15.262 37.09-20.145 56.051-3.9648 15.395-9.8086 45.367-13.402 68.746-0.83594 5.4453-2.8164 16.328-4.3984 24.176-7.2344 35.887-7.8594 40.473-6.9531 50.77 0.30469 3.4062 0.84375 7.8789 1.1992 9.9297 0.35937 2.0547 0.56641 4.9023 0.46484 6.3281l-0.18359 2.5938zm56.98-43.062c-10.465-14.098-20.777-40.242-24.434-61.969-1.0352-6.1523-1.4844-17.496-0.72266-18.266 0.90234-0.90625 1.4023 1.0781 1.7617 6.9727 1.0625 17.328 8.2305 40.609 18.602 60.395 6.1875 11.805 8.707 16.961 8.4336 17.238-0.125 0.12109-1.7617-1.8438-3.6406-4.3711zm123.76-3.4141c-7.5039-5.6875-23.016-21.938-33.57-35.176-13.441-16.852-23.602-36.012-28.379-53.512-2.9375-10.758-5.8281-32.062-8.2539-60.879-1.5391-18.297-4.2461-42.074-5.875-51.656-1.0195-5.9961-0.82422-8.1289 0.625-6.9219 0.45703 0.375 1.125 2.043 1.4883 3.707 1.2188 5.5977 4.6484 34.93 6.1406 52.539 4.1914 49.504 7.3945 65.246 17.438 85.641 9.1328 18.543 19.516 32.039 43.82 56.953 9.3477 9.5859 12.219 12.859 11.082 12.641-0.082031-0.015625-2.1133-1.5156-4.5156-3.3359zm-210.57-11.297c-22.34-17.922-31.039-27.281-39.855-42.879-4.7852-8.4648-11.062-24.812-11.062-28.805 0-2.5938 1.1953-0.49609 3.4805 6.0938 7.043 20.316 18.348 37.223 34.457 51.527 6.0586 5.3789 19.102 18.238 18.504 18.238-0.17969 0-2.6641-1.8789-5.5234-4.1758zm387.32-24.43c-19.562-2.043-39.055-10.137-50.734-21.066-3.4219-3.2031-4.8477-5.3242-4.0859-6.0859 0.17578-0.17578 1.6641 0.88672 3.3047 2.3633 12.777 11.492 27.559 18.316 46.273 21.375 8.5547 1.3945 20.23 1.4961 29.695 0.25391 16.551-2.168 22.391-3.5977 55.594-13.609 7.5078-2.2617 13.738-4.0273 13.848-3.9219 0.24609 0.25-21.574 8.4531-30.555 11.484-21.777 7.3594-46.551 10.957-63.34 9.207zm-288.41-23.949c-6.4844-10.301-17.527-41.52-20.234-57.195-1.1953-6.9297-1.2539-23.082-0.082031-23.082 1.2422 0 1.5195 1.3516 1.5234 7.4766 0.007813 7.4492 0.875 14.812 2.5898 21.941 2.668 11.102 10.355 33.309 15.023 43.406 2.2852 4.9414 4.1875 10.422 3.7695 10.844-0.15625 0.15234-1.3203-1.3711-2.5898-3.3906zm680.87-28.137c-2.0586-4.6211-3.9531-11.016-6.6445-22.43-8.9883-38.141-13.137-49.266-24.746-66.414-15.359-22.684-17.727-26.379-18.859-29.41-1.3242-3.5352-1.6016-6.7109-0.58594-6.7109 0.35156 0 0.78906 0.58984 0.97266 1.3086 0.80859 3.1758 5.7305 11.559 12.766 21.754 19.992 28.965 22.195 34.039 31.637 72.824 2.2539 9.2656 4.8906 19.859 5.8555 23.543 2.293 8.7461 2.1211 11.18-0.39453 5.5352zm-57.191-4.207c-3.5117-13.352-7.5391-35.148-10.262-55.508-4.3984-32.922-5.9531-50.602-4.5352-51.477 0.40625-0.25 0.75781 0.99219 1.0078 3.5508 1.9844 20.238 8.2461 63.906 12.516 87.25 2.0273 11.086 3.6875 22.438 3.332 22.793-0.14062 0.14062-1.0664-2.832-2.0586-6.6094zm-548.71-4.6992c-10.641-6.6914-18.367-25.332-23.844-57.508-1.1055-6.5-4.9805-39.305-5.6953-48.211-0.26562-3.3008-0.17188-3.9336 0.58594-3.9336 1.2656 0 1.7891 2.8828 3.875 21.266 2.8281 24.957 3.4961 29.625 5.8711 41.188 3.9414 19.168 9.2773 32.887 16.105 41.41 2.1133 2.6367 4.1055 5.125 4.4297 5.5352 0.90625 1.1445 0.28516 1.2656-1.3281 0.25391zm129.75-6.0938c-8.2539-9.7227-16.328-22.293-24.043-37.434-5.9922-11.754-8.1914-18.316-16.586-49.52-2.9336-10.906-5.7383-20.344-8.5508-28.754-0.78516-2.3594-1.3008-4.418-1.1445-4.5742 1.7344-1.7344 6.7305 12.305 14.242 40.027 8.8477 32.629 12.008 39.891 29.391 67.535 7.1094 11.301 9.8008 15.777 9.4961 15.777-0.11328 0-1.375-1.3789-2.8047-3.0586zm40.461-4.6602c-9.0898-12.723-17.188-26.398-25.691-43.387-9.3086-18.59-12.809-29.91-13.293-42.984-0.25391-6.8438-0.15234-8.3438 0.61328-9.3203 0.85156-1.0898 0.91406-0.89844 0.92969 2.9258 0.027343 5.3672 0.96094 12.805 2.3594 18.766 3.0703 13.07 12.754 33.277 29.387 61.328 5.8633 9.8867 11.027 19.223 10.633 19.223-0.14062 0-2.3594-2.9492-4.9375-6.5508zm40.418-9.3242c-2.668-3.6055-11.617-16.762-19.887-29.242-16.566-25.008-21.039-30.441-27.883-33.863-1.8789-0.9375-3.3203-1.9688-3.2031-2.2891 0.42187-1.1523 3.9883-0.42188 6.8281 1.4023 5.8047 3.7266 11.133 10.25 23.309 28.539 14.219 21.359 27.012 42.008 26.023 42.008-0.18359 0-2.5195-2.9492-5.1875-6.5547zm472.8 2.1875c-1.9219-0.72656-7.293-3.0195-11.938-5.0977s-11.723-5.0156-15.727-6.5312c-12.016-4.5508-20.383-9.4414-22.719-13.285-1.9492-3.207-0.33594-3.1602 3.3164 0.097656 3.8008 3.3906 12.832 8.0859 22.023 11.453 10.785 3.9492 23.992 10.375 28.539 13.883 1.5469 1.1953 0.70703 1.0703-3.4961-0.51953zm-907.06-19.18c0-1.1914 3.6875-7.9688 7.1328-13.102 12.184-18.168 24.797-29.02 42.324-36.422 4.8906-2.0664 17.992-6.1328 19.828-6.1602 1.0586-0.011719-3.2422 2.0781-10.176 4.9453-13.074 5.4102-17.449 7.5781-23.762 11.762-10.488 6.9609-22.191 20.02-30.465 34-3.1406 5.3125-4.8828 7.0859-4.8828 4.9766zm914.1-2.8672c0.33984-0.89453 5.543-5.6211 11.309-10.281 1.7617-1.4258 6.2188-5.3828 9.9023-8.793 7.2695-6.7383 12.969-11.023 14.656-11.023 1.8008 0 1.1602 1.3789-1.3516 2.9141-1.3125 0.80078-5.6953 4.5625-9.7383 8.3594-10.363 9.7305-15.73 14.035-22.93 18.379-1.5938 0.96484-2.0938 1.082-1.8477 0.44531zm-868.67-10.848c0-1.1523 2.5312-2.8125 12.629-8.293 25.863-14.031 46.156-22.953 54.672-24.035l2.875-0.36328-2.6211 1.4492c-1.4414 0.79688-7.0742 3.2188-12.52 5.3789-10.484 4.1602-33.602 15.457-45.66 22.316-6.8125 3.8711-9.375 4.8398-9.375 3.5469zm846.78-3.0469c-4.4688-2.8828-28.531-26.543-28.531-28.055 0-0.86328 0.1875-0.90625 1.3086-0.30859 2.6719 1.4297 32.367 30.805 31.137 30.805-0.074219 0-1.8359-1.0977-3.9141-2.4414zm79.793 0.12109c0-2.332 10.316-12.102 20.09-19.027 8.1367-5.7656 20.746-12.566 21.641-11.672 0.37109 0.36719-5.5352 4.5469-12.797 9.0508-8.8359 5.4805-15.223 10.383-22.207 17.055-3.3086 3.1602-6.1758 5.7461-6.3711 5.7461s-0.35547-0.51953-0.35547-1.1523zm-706.65-10.789c-0.75391-4.1875 0.5625-14.879 3.9453-32.043 1.6758-8.5078 2.6641-16.422 2.6719-21.41 0.003907-1.8438 0.25781-3.3516 0.56641-3.3516 2.6133 0 2.1992 10.543-1.0898 27.676-1.2891 6.7266-2.7695 15.148-3.2852 18.715-0.51563 3.5664-1.2656 7.8906-1.6641 9.6133l-0.72266 3.1328zm-14.039-23.871c-0.51953-6.9336 0.011719-15.797 1.5312-25.648 2.293-14.844 4.4727-23.012 6.1406-23.012 0.625 0 0.80469 0.39453 0.60547 1.3086-3.5703 16.164-4.9531 25.125-5.6836 36.746-0.55078 8.7852-1.3594 15.359-1.957 15.961-0.12109 0.11719-0.40625-2.293-0.63672-5.3555zm642.94-4.1992c-4.2617-0.36719-13.5-1.8906-15.059-2.4844-0.84766-0.32031-1.5391-1.0195-1.5391-1.5508 0-0.79297 0.38281-0.89453 2.1836-0.57812 11.852 2.0898 15.352 2.3008 38.582 2.3281 40.793 0.050781 73.457-3.457 94.055-10.109 5.5547-1.793 9.0273-2.6289 9.0273-2.1719 0 0.15234-1.2422 1.0703-2.7656 2.0352-8.5938 5.4648-34.91 10.043-70.895 12.336-8.4453 0.53516-47.953 0.67969-53.59 0.19531zm-854.07-13.332c0-1.9922 5.707-5.6172 15.785-10.031 13.008-5.6953 24.863-8.5938 43.328-10.594 17.137-1.8555 40.492-3.1758 46.59-2.6328l5.2422 0.46875-4.6602 0.75391c-2.5625 0.41406-8.8516 1.0312-13.977 1.3711-25.246 1.6719-42.355 3.4375-51.535 5.3125-10.434 2.1328-23.594 7.0078-34.758 12.875-5.3672 2.8164-6.0156 3.0859-6.0156 2.4766zm810.68-1.1289c0-0.48047 0.19531-0.875 0.4375-0.875 2.8594-0.019532 21.645-1.9883 27.43-2.875 21.801-3.3438 48.965-12.055 82.785-26.555 13.316-5.7109 27.371-11.059 27.371-10.418 0 0.60938-23.746 11.852-33.766 15.984-37.332 15.398-60.453 22.086-85.539 24.73-11.227 1.1875-18.719 1.1875-18.719 0.007813zm7.8594-13.152c-5.4961-0.66406-10.773-2.082-10.773-2.8945 0-0.31641 0.58984-0.44922 1.3125-0.28906 8.7188 1.9258 23.621 2.2109 33.633 0.64453 18.461-2.8828 42.953-10.004 69.301-20.148 6.5781-2.5312 19.895-8.5508 33.488-15.137 20.492-9.9297 22.191-10.504 11.066-3.7344-24.367 14.816-59.043 28.684-92.414 36.953-6.3047 1.5625-14.168 3.2539-17.473 3.7578-7.5312 1.1523-22.004 1.5859-28.141 0.84766zm198.02-1.1055c-0.19531-0.31641-0.050781-1.1406 0.32031-1.832 1.3477-2.5156 1.7773-5.0703 2.5547-15.188 0.80859-10.484 1.418-13.371 2.1328-10.086 0.61719 2.8477 0.55859 14.848-0.097656 18.934-0.96875 6.0664-3.5547 10.363-4.9102 8.1719zm-1119.1-2.5234c-5.7383-1.125-8.1523-2.9648-8.1523-6.2148 0-4.1445 6.4883-13.535 14.914-21.594 25.078-23.977 67.273-48.691 112.34-65.797 15.043-5.7109 28.523-8.9102 29.676-7.0469 0.37891 0.61719 0.015626 0.73828-6.375 2.1016-8.5156 1.8203-27.973 9.1641-47.648 17.98-26.113 11.703-51.977 26.816-70.293 41.078-18.512 14.414-30.152 27.562-29.59 33.414 0.16406 1.6836 0.49609 2 3.0938 2.9297 2.7031 0.96875 5.3008 1.0273 36.109 0.78906 18.492-0.14062 32.453-0.035156 31.52 0.23828-0.92188 0.26953-4.8516 0.90625-8.7344 1.4102-9.7031 1.2617-51.391 1.7852-56.855 0.71094zm897.16-11.863c-21.191-2.625-39.055-6.6641-57.656-13.031-8.0586-2.7578-34.09-12.836-49.648-19.223-1.875-0.76953-1.6562-1.8281 0.28906-1.3984 4.3281 0.95313 8.4844 2.332 16.887 5.5859 5.0469 1.957 13.5 5.2344 18.785 7.2852 18.523 7.1797 31.266 10.875 53.871 15.629 9.9297 2.0859 21.973 4.9531 22.375 5.3203 0.26953 0.25-2.2305 0.16406-4.9023-0.16797zm-644.99-2.8789c-3.9492-0.69141-7.1992-1.8008-12.523-4.2852-8.8359-4.1172-11.938-7.3359-11.934-12.371 0.007812-5.6992 2.8789-10.746 10.293-18.082 6.207-6.1445 10.004-8.9102 16.34-11.895 5.2812-2.4844 7.1445-3.0156 7.1445-2.0391 0 0.88672-1.9648 2.2539-6.4062 4.4648-6.0117 2.9883-11.328 7.0391-16.707 12.73-7.582 8.0195-9.9414 14.188-7.0625 18.434 2.5078 3.6914 13.203 8.9883 20.273 10.039 6.1953 0.91797 8.9805 1.7188 7.9609 2.293-1.1211 0.625-5.4648 1.0469-7.3789 0.71094zm817-6.6328c-3.7578-0.46094-6.3242-1.3594-6.3242-2.207 0-0.23047 4.7812-0.42969 10.629-0.44141 10.098-0.023438 11.227-0.14844 22.566-2.4375 6.5664-1.3281 13.25-2.5547 14.852-2.7227l2.9102-0.3125-2.3398 1.1094c-3.8281 1.8164-12 3.9766-20.824 5.5039-9.8672 1.707-16.219 2.1523-21.469 1.5078zm36.371-26.652c-1.4766-1.5234-3.7461-4.2109-5.0352-5.9727-3.3164-4.5234-9.1602-10.523-14.949-15.344-5.5156-4.5938-5.9883-5.1172-5.2812-5.8203 0.76953-0.77344 3.375 0.87109 9.3594 5.8984 5.7383 4.8203 8.9102 8.2305 13.648 14.68 2.7383 3.7266 5.8984 9.3242 5.2656 9.3242-0.17578 0-1.5312-1.2461-3.0078-2.7656zm-159.17 0.94922c-10.516-0.58984-22.375-1.9766-29.992-3.4961-10.211-2.0391-21.988-5.8047-21.062-6.7305 0.16406-0.16406 4.5781 0.76953 9.8086 2.0781 18.801 4.7031 34.07 6.0547 68.617 6.0742 24.164 0.011718 33.426-0.41016 54.746-2.4961 6.2461-0.60938 13.715-1.2656 16.598-1.4609 2.8828-0.19141 6.2891-0.46875 7.5703-0.61328 5.75-0.65234-1.2305 0.94141-11.355 2.5977-13.629 2.2227-24.141 3.3555-38.148 4.1016-12.699 0.67969-44.34 0.64844-56.781-0.054688zm-186.93-15.902c-4.6172-12.145-12.336-43.055-18.383-73.586-1.8828-9.5156-3.5898-22.676-3.0117-23.254 0.44922-0.44922 2.6172 8.3047 5.0586 20.43 5.2852 26.234 10.543 48.453 15.93 67.316 1.418 4.957 2.4492 9.3516 2.293 9.7578-0.44922 1.168-1.3047 0.86719-1.8867-0.66406zm285.01-11.055c-3.5352-2.0508-11.52-6.8594-17.75-10.688-27.988-17.215-50.512-27.906-84.996-40.348-3.3633-1.2109-10.176-3.7852-15.141-5.7148-8.5508-3.3242-12.906-5.1406-39.293-16.387-6.0742-2.5859-11.117-4.707-11.211-4.707-0.089844 0-0.16406-0.26172-0.16406-0.58203s0.38672-0.58203 0.85938-0.58203c1.3086 0 10.535 3.5352 28.508 10.914 8.9453 3.6758 24.27 9.6914 34.059 13.367 44.926 16.875 61.41 24.664 89.742 42.402 10.09 6.3164 23.406 16.043 21.969 16.043-0.089844 0-3.0508-1.6719-6.5859-3.7188zm-179.33 1.1055c-15.43-4.7617-31.004-13.207-45.199-24.516-11.324-9.0195-25.348-23.371-34.68-35.5-4.7031-6.1055-11.266-16.785-11.266-18.328 0-1.5703 1.3281-0.089844 5.4023 6.0312 10.52 15.801 26.094 32.766 41.414 45.125 10.855 8.7539 20.816 14.785 33.844 20.488 4.4844 1.9648 10.25 4.5195 12.812 5.6797 8.1133 3.6719 7.3438 4.0078-2.3281 1.0195zm-543.86-26.789c-1.2344-0.73438-3.9844-2.7227-6.1133-4.4219-5.9062-4.7109-11.359-8.0547-15.836-9.707-2.2852-0.84375-4.0508-1.8398-4.0508-2.2852 0-1.2227 1.957-0.94922 6.9102 0.96484 6.6328 2.5586 17.031 10.02 20.738 14.883 1.7617 2.3125 1.4688 2.4141-1.6484 0.56641zm-157.62-4.8828c0-0.28125 2.0273-2.1289 4.5117-4.1016 5.2656-4.1875 22.934-13.301 34.797-17.953 26.871-10.535 46.43-14.297 58.238-11.203 3.8867 1.0195 4.1328 1.1367 3.3242 1.6367-0.39453 0.24609-2.6172 0.20703-4.9336-0.085937-12.914-1.6211-32.754 2.8398-57.832 13.004-8.4336 3.418-21.551 9.832-27.293 13.348-5.25 3.2148-10.812 5.9688-10.812 5.3555zm674.82-23.055c-2.3945-2.3945-2.8125-10.25-0.75391-14.23 1.0273-1.9883 5.3516-6.4961 6.2305-6.4961 0.92969 0 0.53906 1.0078-1.6094 4.1641-3.5586 5.2344-4.4375 9.6445-2.8242 14.18 0.91016 2.5586 0.37109 3.7969-1.043 2.3828zm-141.04-1.4688c-1.082-1.7539 3.1992-25.016 6.4883-35.262 4.9883-15.535 11.727-30.16 16.18-35.113 4.3594-4.8477 8.5586-4.7422 10.297 0.26562 1.4336 4.125 0.91016 16.629-1.1602 27.84-2.4336 13.184-2.9492 17.43-3.5234 29.004-0.57422 11.621-1.1602 13.297-2.3867 6.8242-0.80859-4.2773 0.15625-17.824 2.0586-28.836 3.043-17.633 3.2773-19.672 3.0586-26.887-0.23047-7.5586-0.71094-8.9453-3.1055-8.9453-2.793 0-7.3398 7.1562-12.949 20.391-5.6953 13.43-9.75 27.977-11.457 41.074-0.54297 4.1641-1.1016 8.1641-1.2461 8.8828-0.26172 1.3242-1.625 1.7812-2.2539 0.76172zm-347.12-23.953c11.621-7.8555 42.805-19.742 42.805-16.32 0 0.30078-1.5078 0.97656-3.3477 1.5117-4.6172 1.332-19.418 7.3672-27.512 11.211-13.02 6.1875-17.992 7.6836-11.945 3.5977zm48.922-25.066c-2.8828-0.26953-9.4375-1.0391-14.562-1.7031-19.02-2.4648-29.219-4.9883-33.566-8.3164-4.5469-3.4805-3.2266-4.5508 1.9805-1.6094 5.9531 3.3594 20.711 6.3008 43.816 8.7344 12.23 1.2852 14.727 1.6875 15.188 2.4375 0.17578 0.27734-0.94531 0.51172-2.4844 0.51562-1.543 0.003906-3.3242 0.10547-3.9648 0.22266-0.64063 0.12109-3.5234-0.007812-6.4062-0.28125zm22.941-9.082c-0.83203-0.90625-2.3125-2.8242-3.2852-4.2695-2.5312-3.7422-3.957-4.9023-8.8828-7.2148-7.7734-3.6484-16.945-5.5078-34.938-7.0742-5.918-0.51562-10.867-1.0391-10.988-1.1641-0.125-0.12109-0.074219-0.62891 0.11719-1.125 0.41406-1.0781 1.8008-1.1133 11.852-0.28125 28.051 2.3203 41.188 7.3281 46.43 17.695 2.0391 4.0273 1.8828 5.8047-0.30469 3.4336zm-20.484-58.246c-3.5703-7.4609-5.0078-13.961-5.4609-24.672-0.41406-9.7734 0.33594-16.785 2.4922-23.301 1.5742-4.7656 3.6836-8.2578 3.6914-6.1211 0.007813 0.64062-0.64844 3.2227-1.4531 5.7383-2.0312 6.3633-2.8516 17.07-2.0352 26.598 0.66406 7.7695 1.1367 10.098 4.0508 19.992 1.0234 3.4688 1.7695 6.5742 1.6602 6.9023s-1.4336-1.9844-2.9453-5.1367zm264.93-11.125c0.64062-10.867 0.47266-24.812-0.42578-35.031-0.38281-4.3633-0.74609-10.559-0.80859-13.762-0.11719-6.4141-0.49609-7.7266-6.9883-24.18-5.8281-14.77-11.129-25.109-16.969-33.09-0.73047-1-0.80859-1.5039-0.3125-2 3.8984-3.9023 24.18 39.645 29.488 63.324 0.84375 3.7617 1.4453 7.0938 1.3398 7.4141-0.10547 0.31641-0.93359-1.3477-1.8398-3.6992-2.1016-5.4453-2.6367-6.0039-2.0508-2.125 2.2812 15.047 2.2109 41.625-0.13281 49.453-1.375 4.5859-1.8164 2.4414-1.3008-6.3047zm-18.398 1.0195c-0.011719-1.1211 0.36719-4.2695 0.83594-6.9922 0.46484-2.7227 1.1328-7.8125 1.4805-11.309 0.65234-6.5312 1.332-8.8203 2.4219-8.1484 0.41797 0.26172 0.49219 2.3125 0.21875 6.2812-0.76172 11.219-2.1758 18.547-4.0586 21.039-0.84375 1.1133-0.88281 1.0742-0.89844-0.87109zm4.6523 0.24609c-0.007812-0.98438 0.76172-4.3945 1.707-7.5742 2.0742-6.9688 2.6836-10.738 3.5273-21.805 0.67969-8.9414 0.89062-10.402 1.8594-12.961 1.0156-2.6875 1.7031-1.8164 1.3828 1.7461-0.16406 1.8438-0.45703 6.75-0.64453 10.906-0.19141 4.1523-0.73047 9.7891-1.1992 12.523-1.0938 6.3867-3.9805 15.625-5.4648 17.5l-1.1562 1.457zm-245.46-7.8203c0.16797-4.6484 0.73828-11.203 1.2656-14.566 0.67969-4.3203 0.91406-8.9375 0.80078-15.73-0.17578-10.469 0.17578-13.355 3.1758-25.926 2.1328-8.957 5.6719-19.129 9.625-27.672 6.6523-14.379 14.668-26.887 16.75-26.133 0.31641 0.11328-1.0898 2.6914-3.125 5.7266-11.445 17.082-21.383 44.41-23.863 65.637-1.25 10.688-1.0703 11.27 1.1328 3.707 7.7852-26.676 20.129-51.371 35.238-70.492 6.5469-8.293 21.039-22.578 28.855-28.457 8.3711-6.293 23.012-13.52 23-11.352 0 0.26562-2.9648 1.9805-6.582 3.8164-18.812 9.5234-41.328 31.922-55.422 55.125-10.152 16.711-20.105 41.008-24.75 60.391-0.6875 2.8828-2.1406 10.75-3.2266 17.477-2.8164 17.461-3.2422 18.719-2.875 8.4492zm234.25-6.8555c-4.1094-4.2812-8.7617-12.766-11.098-20.234-3.3711-10.777-2.3164-13.402 1.2812-3.1836 2.1523 6.1133 4.6211 11.434 7.2344 15.57 1.9336 3.0664 5.1602 9.5273 4.8906 9.7969-0.12109 0.125-1.1602-0.75391-2.3086-1.9492zm1.7266-6.1094c-2.3086-3.5273-4.6914-9.1875-6.375-15.133-1.6836-5.957-1.8594-7.3477-1.8906-14.961-0.046875-11.156 0.94531-11.57 1.8789-0.79297 0.62891 7.2734 2.832 17.988 4.2422 20.625 0.60156 1.1211 3.4805 11.574 3.1875 11.574-0.10156 0-0.57031-0.58984-1.043-1.3125zm1.8945-3.4141c0-1.0859 0.52344-6.3008 1.1602-11.586 1.2773-10.582 1.4844-20.391 0.55469-26.219-0.33203-2.082-1.6758-7.9805-2.9805-13.105-3.1094-12.184-3.1641-12.527-2.0273-12.527 1.1328 0 4.3203 9.7188 6.5625 20.039 1.2227 5.6172 1.5508 8.7461 1.6055 15.375l0.070313 8.3281 2.4336-9.9609c2.3398-9.5977 3.5742-12.809 4.9297-12.809 0.35938 0 0.50781 0.57031 0.34375 1.3125-6.7227 29.918-9.125 38.633-11.469 41.613l-1.1875 1.5078 0.007813-1.9688zm-262.63-3.7227c-0.070313-6.6328 6.4492-23.863 15.066-39.797 27.523-50.906 58.594-86.148 89.734-101.77 8.8438-4.4375 14.922-6.1211 22.113-6.1211 5.2188 0 9.3398 0.73438 9.3359 1.6602 0 0.21094 3.9297 0.28906 8.7344 0.17969 6.4805-0.14453 9.9609 0.050781 13.488 0.76562 4.7852 0.96875 11.633 3.6797 12.387 4.8984 0.60938 0.98437-0.68359 0.79297-5.375-0.80078-8.1992-2.7812-17.875-3.3711-29.277-1.7734-3.3359 0.46484-8.9531 0.98438-12.477 1.1523-5.9609 0.28125-6.2461 0.25-4.0742-0.49609 1.2812-0.4375 4.8164-1.2656 7.8594-1.832 7.7891-1.457 8.0273-2.2109 0.58203-1.8398-10.203 0.51562-20.676 4.6758-34.066 13.535-27.652 18.297-58.086 56.395-79.801 99.906-4.5273 9.0703-6.3516 13.449-10.793 25.926-1.0273 2.8828-2.2148 5.8984-2.6406 6.6992l-0.77734 1.457zm258.71-7.2812c-2.2031-6.4219-3.168-12.711-3.4766-22.723-0.28906-9.3672 0.11328-13.395 1.3789-13.816 0.41797-0.14062 0.72656 3.2656 0.94531 10.445 0.21094 7 0.74609 13.031 1.5625 17.582 0.68359 3.8086 1.1602 8.1328 1.0664 9.6133l-0.17578 2.6836zm-57.387-1.7891c-4.2344-3.4922-6.8984-10.078-8.0352-19.887-0.64062-5.5078-0.44531-13.488 0.40234-16.629 0.19531-0.72266 0.71875-1.3125 1.1641-1.3125 0.64844 0 0.80469 1.6797 0.80469 8.6875 0 13.008 1.6211 19.805 6.4141 26.867 1.2773 1.8789 2.3203 3.5625 2.3203 3.7383 0 0.71484-1.0078 0.23438-3.0703-1.4648zm-14.246-7.9922c-3.3203-6.6406-5.3789-17.098-5.3906-27.402-0.007812-3.1953 0.12891-3.6562 1.0156-3.4883 0.8125 0.15625 1.1016 1.0664 1.4336 4.5586 0.83594 8.8008 1.7266 15.246 2.4375 17.641 0.70703 2.3984 0.73047 2.3125 1.0703-3.957 0.50391-9.3242 4.4102-23.078 7.2188-25.406 1.2578-1.043 1.0156 0.41016-1.1836 7.125-2.5703 7.8672-3.4414 13.703-3.3672 22.652 0.035157 4.0039-0.13672 8.5898-0.37891 10.195l-0.44141 2.9102zm-17.293-9.8828c-2.4297-4.9102-3.2344-8.5352-3.207-14.418 0.027343-5.457 1.2539-10.141 2.793-10.652 0.63281-0.21094 0.69141 0.23828 0.28906 2.2812-0.92188 4.7031-0.51953 13.852 0.80469 18.277 2.5391 8.4922 2.25 10.438-0.67969 4.5117zm-84.195-7.4375c2.082-2.1953 9.0273-8.9648 15.434-15.039 31.188-29.574 59.352-60.547 78.895-86.758 2.3281-3.125 4.4648-5.6797 4.7461-5.6797 3.4609 0-11.277 19.504-36.094 47.773-15.145 17.246-46.457 47.812-60.652 59.203-6.1758 4.957-6.6523 5.0586-2.3281 0.5zm-5.2422-0.70312c0-2.3711 2.2812-6.4688 6.8945-12.379 6.6133-8.4727 11.168-13.414 12.363-13.414 1.6406 0 1.3828 1.2305-0.80469 3.8281-5.6445 6.6875-11.598 14.406-13.91 18.02-1.4336 2.2422-3.043 4.4375-3.5742 4.875-0.86719 0.71484-0.96875 0.61719-0.96875-0.92969zm146.78-6.9453c-0.023437-1.6875 2.668-6.6875 6.9727-12.977 3.5586-5.2031 5.0234-6.5312 5.5859-5.0703 0.32422 0.84766-7.8164 13.91-10.754 17.258-1.5938 1.8164-1.793 1.9023-1.8047 0.78906zm-50.102-9.8008c0-0.1875 4.4492-4.9336 9.8906-10.543 10.164-10.488 18.801-21.281 23.234-29.035 2.1367-3.7344 3.9492-7.6602 7.125-15.438 0.42188-1.0312 0.74219-1.2266 1.2227-0.74609 1.7852 1.7812-2.9219 13.02-9.6797 23.117l-3.8945 5.8281 9.2422-9.1758c5.082-5.0469 9.6953-9.1758 10.246-9.1758 0.69531 0 0.86328 0.25 0.54297 0.80859-1.2109 2.1016-21.996 23.809-28.301 29.555-7.2344 6.5938-19.629 15.945-19.629 14.805zm49.137-9.1953c2-3.9219 4.8516-9.2305 6.3359-11.797 1.4805-2.5625 3.6562-6.6914 4.832-9.1758 2.5547-5.3906 4.2031-6.25 2.7969-1.457-0.49609 1.6836-1.5195 4.3594-2.2734 5.9492-0.75391 1.5898-1.2773 2.9883-1.1602 3.1055 0.26953 0.26953 2.625-3.7773 4.7578-8.1797 1.7188-3.543 3.457-4.6406 2.7734-1.7461-0.73047 3.0703-3.0312 8.2305-4.918 11.023-4.6484 6.8828-15.211 19.414-16.363 19.414-0.23438 0 1.2148-3.2109 3.2188-7.1367zm47.984-5.2148c-0.79688-1.375-3.9609-7.6133-7.0391-13.863-3.1875-6.4766-7.1016-13.441-9.1094-16.203-1.9336-2.6641-3.5156-5.0898-3.5156-5.3906 0-0.30078 0.50781-0.54297 1.125-0.54297 2.2773 0 7.8516 8.3711 13.848 20.805 3.2969 6.8359 6.9492 16.883 6.3555 17.477-0.12109 0.12109-0.87109-0.90625-1.6641-2.2812zm-93.043-8.3086c0-1.2344 4.1562-7.6484 11.297-17.426 4.2383-5.8086 9.8711-13.641 12.516-17.406 4.3828-6.2383 6.4688-8.1836 6.4688-6.0352 0 1.1406-7.2188 11.816-17.102 25.281-7.5898 10.344-13.18 16.957-13.18 15.586zm71.598-14.961c-1.4219-1.4922-3.1758-3.0078-3.8984-3.3711-1.6641-0.84375-1.7109-2.3711-0.066406-2.3711 3.0664 0 7.3711 4.625 6.8008 7.3047-0.21094 0.98438-0.60547 0.76953-2.8359-1.5625zm-182.8-8.6523c5.25-8.7266 14.621-19.027 22.93-25.215 7.3047-5.4297 17.809-10.164 17.809-8.0234 0 0.30469-2.1641 1.582-4.8047 2.8398-8.9492 4.25-18.348 12.055-27.078 22.484-4.2539 5.082-6.4883 7.4453-9.4219 9.9531-1.1641 0.99609-1.082 0.70312 0.56641-2.0391zm176.91-4.3789c-0.16406-0.16797 0.33984-2.9844 1.125-6.2656 1.1289-4.7305 1.5-8.2695 1.8047-17.129 0.21094-6.1445 0.55078-11.34 0.76172-11.547 0.20703-0.20703 0.73047 0.625 1.1641 1.8477 1.2891 3.6445 0.95313 17.961-0.56641 24.199-1.8359 7.5352-3.0742 10.105-4.2891 8.8945zm-15.93-6.5469c0.023438-5.6211-0.007812-5.75-3.043-12.508-4.7109-10.488-4.3438-9.9492-13.887-20.203-5.6484-6.0664-14.863-12.75-24.105-17.48-9.7383-4.9844-15.973-7.1992-24.605-8.7461-9.8359-1.7617-10.652-2.3008-3.5586-2.3438 4.5391-0.027344 7.2344 0.30859 11.648 1.4531 9.4336 2.4492 24.473 10.219 33.988 17.566l2.0352 1.5742-2.0352-2.2109c-7.5898-8.2344-25.598-19.516-40.016-25.07-6.6797-2.5742-15.516-6.8047-13.273-6.3594 6.7227 1.3398 16.711 4.8086 24.004 8.332 26.281 12.699 43.754 30.746 53.391 55.145 2.4141 6.1094 2.7891 10.969 1.1172 14.473-0.53906 1.1328-1.1367 2.0586-1.332 2.0586-0.19141 0-0.33984-2.5547-0.32812-5.6797zm-21.734-17.57c-8.0586-10.605-15.289-17.285-22.41-20.707-6.3711-3.0586-8.7422-3.4414-21.059-3.3906l-11.066 0.046875 4.3672-1.1211c6.3828-1.6406 15.012-2.0117 20.383-0.875 5.5 1.1602 12.578 4.6719 17.449 8.6602 5.4492 4.457 17.496 18.66 17.496 20.625 0 1.9609-2.3086 0.51172-5.1602-3.2383zm34.309-5.1523c-1.1094-4.4219-4.957-12.59-8.4961-18.02-15.535-23.84-38.59-38.543-69.137-44.086-2.4844-0.44922-4.5156-0.72266-4.5156-0.60937 0 0.11719 1.1172 0.76562 2.4766 1.4453 1.3633 0.68359 2.8672 1.6953 3.3477 2.25 0.55859 0.64453 2.4609 1.2461 5.2422 1.6602 9.6016 1.4297 21.652 5.9336 29.078 10.871 3.9219 2.6094 5.2734 4.0195 4.5469 4.7461-0.16406 0.16406-2.0977-0.80469-4.2969-2.1562-8.3125-5.1133-17.711-8.5703-29.176-10.742-4.4062-0.83203-9.457-1.9531-11.219-2.4922l-3.2031-0.97656 3.7891-0.3125c3.6406-0.30078 3.7188-0.33984 2.0977-1.0391-0.92969-0.39844-3.8125-1.3008-6.4062-2-5.3477-1.4414-16.023-1.6875-29.668-0.68359-4.1133 0.30078-7.5742 0.39453-7.6914 0.20703-0.11328-0.19141 1.6758-0.77344 3.9844-1.3008 11.074-2.5195 15.566-2.75 33.312-1.7148 14.66 0.85547 21.066 2.2148 32.516 6.8789 16.824 6.8594 30.141 16.742 41.551 30.84 7.5273 9.3008 14.145 22.57 14.16 28.402 0.007812 2.6719-1.5312 1.8945-2.293-1.168zm-7.5078-0.28516c-0.37109-0.37109-0.67578-0.92188-0.67578-1.2227 0-1.5781-7.4531-11.379-13.055-17.16-9.2305-9.5312-19.359-16.699-32.664-23.117-12.988-6.2656-22.727-9.0508-39.891-11.406-4.9648-0.67969-10.863-1.5781-13.105-1.9922l-4.0781-0.75 8.0117-0.070313c17.059-0.14844 33.836 3.8633 50.812 12.145 14.988 7.3164 28.098 17.113 36.66 27.406 6.3555 7.6406 10.758 15.547 9.1953 16.516-0.29297 0.17969-0.83984 0.027344-1.2109-0.34766zm-16.055-46.648c-4.0781-6.1953-11.305-14.379-17.406-19.703-2.6289-2.2969-8.9336-6.9062-14.012-10.242s-9.1016-6.1992-8.9375-6.3633c0.55859-0.55859 9.2227 3.2773 13.117 5.8047 10.023 6.5078 22.043 18.203 27.992 27.234 3.2578 4.9453 4.4258 8.1133 2.9961 8.1133-0.30859 0-1.9961-2.1797-3.75-4.8438zm-10.68-3.8633c-1.0391-1.25-4.3125-4.1055-7.2773-6.3398-8.2695-6.2266-10.172-8.793-4.3516-5.8555 6.2773 3.1641 15.895 11.766 15.195 13.586-0.55078 1.4414-1.5352 1.0547-3.5664-1.3906z"/>
 </g>
</svg>
