<?xml version="1.0" encoding="UTF-8"?>
<svg width="1587" height="1587" version="1.0" viewBox="0 0 1190.2 1190.2" xmlns="http://www.w3.org/2000/svg" zoomAndPan="magnify">
 <defs>
  <clipPath id="a">
   <path d="m0 0h1189.5v1189.5h-1189.5z"/>
  </clipPath>
  <clipPath id="d">
   <path d="m14 10h1162v1173h-1162z"/>
  </clipPath>
  <clipPath id="b">
   <path d="m21.84 83.684v73.484c65.902 0 123.55 30.68 172.35 92.039l17.734-18.562v-17.789c-11.398-48.984-34.848-73.48-69.699-73.48v-92.043l-33.574-37.129c-17.742 0-34.848 24.496-51.961 73.48zm344.7 310.16v18.566l17.113-18.566h328.83l86.812 18.566c-53.859-97.973-134.33-146.96-242.05-146.96-127.35 51.566-190.71 94.363-190.71 128.39zm-152.7 107.52v37.125h103.29c14.566 184.09 93.137 282.58 236.33 295.47l67.156-4.6367c143.21-25.27 214.8-116.03 214.8-272.27v-18.562l-17.105-18.559v-18.566h17.105l51.965 37.125h69.695v-37.125l-121.66-17.793-11.398-9.2773-19.652-4.6445-3.7969-4.6367-241.41-18.566zm278.16 40.223 51.957 73.477v54.918l-51.957 55.688h-69.695c-25.973 0-43.086-30.68-51.316-92.039 15.84-61.363 56.379-92.043 121.01-92.043zm241.41 0 51.953 73.477v54.918l-51.953 55.688h-69.062c-25.977 0-43.078-30.68-51.324-92.039 15.844-61.363 55.766-92.043 120.39-92.043zm-155.23 184.08 34.848 36.359-34.848 37.125-34.215-37.125zm-563.28 328.73v54.918c34.215 0 51.961 18.305 51.961 54.914l17.102 18.566h17.746c22.18 0 33.578-18.305 33.578-54.918l-16.477-55.688c30.422-7.7383 58.934-38.16 86.172-91.27l-17.734-18.566h-17.113c-62.09 61.363-114.05 92.043-155.23 92.043zm896.56-836.13c43.719 47.438 77.934 104.81 102.65 172.1 24.07 67.293 36.109 141.68 36.109 223.15 0 81.992-12.039 156.5-37.383 223.54-24.719 67.031-59.566 124.01-103.92 170.94-43.082 46.406-93.137 82.242-150.16 107.51-57.027 25.266-117.86 37.898-182.49 37.898-68.426 0-131.79-13.406-190.09-40.215-58.285-26.816-108.34-64.461-150.16-112.93-41.816-46.922-74.773-104.03-98.844-171.32-23.449-67.293-35.477-139.1-35.477-215.42 0-84.051 12.676-158.95 38.02-224.69 24.695-65.746 59.547-122.6 103.27-170.55 43.719-47.957 94.406-84.441 152.07-109.45 57.652-25.008 117.84-37.512 181.21-37.512 65.902 0 127.37 12.762 185.02 38.285 57.66 25.527 107.71 61.754 150.17 108.68zm-34.848 709.28c32.309-41.254 55.758-88.051 70.324-140.39 14.578-52.34 21.547-111 20.914-175.97-1.2578-66.516-10.137-127.49-27.25-182.93-17.734-55.43-42.445-102.74-74.762-141.93-32.953-38.672-74.137-68.836-122.92-90.496-48.781-21.656-104.54-32.484-167.27-32.484-70.332 0-129.89 12.508-178.68 37.516-48.793 25.012-88.703 58.398-119.75 100.16-29.148 40.219-50.059 87.273-63.996 141.16-13.301 53.883-20.281 110.22-19.637 169 0.62891 65.488 8.8594 124.66 24.07 177.52 15.84 52.855 40.551 99.91 74.141 141.16 31.68 39.703 72.219 70.902 120.39 93.586 48.781 22.691 106.44 34.039 172.97 34.039 62.73 0 119.12-11.348 169.81-34.039 50.062-22.684 90.602-54.656 121.66-95.906zm155.23 232.04c3.7969-42.281-24.719-96.945-84.91-163.98l1.2734-17.793 20.902-16.242c55.133 31.453 84.91 62.91 90.613 94.363l60.195-13.922c39.277 2.5781 58.285 15.473 55.762 38.676l-1.2734 17.785-20.902 16.25c-39.289-2.582-60.191 13.66-62.734 48.723zm0 0c3.7969-42.281-24.719-96.945-84.91-163.98l1.2734-17.793 20.902-16.242c55.133 31.453 84.91 62.91 90.613 94.363l60.195-13.922c39.277 2.5781 58.285 15.473 55.762 38.676l-1.2734 17.785-20.902 16.25c-39.289-2.582-60.191 13.66-62.734 48.723zm118.49-976.13 2.5234-54.914c-36.109-1.5469-53.211-20.625-51.953-57.238l-17.102-19.34-17.746-0.76953c-24.082-0.51562-36.109 17.531-37.383 54.141l15.84 55.691c-32.312 6.7031-63.359 36.098-93.141 88.176l17.734 19.34 17.113 0.77344c66.531-58.781 121.02-87.402 164.11-85.859zm-792.02 250.61v6.9648l17.098-6.9648h328.85l86.172 6.9648c-53.223-36.098-133.06-46.668-238.24-31.715-129.26 4.125-193.88 12.375-193.88 24.75zm108.34 455.58c-1.9023 27.848 27.887 58.266 90.602 91.273 67.176 15.98 118.49-14.441 152.71-91.273l-49.426 11.602-65.27 9.2812-78.555-6.1836zm188.81-67.293 34.848 36.352-34.848 37.129-34.203-37.129zm-77.297 11.602 34.848 36.359-34.848 37.121-34.215-37.121zm-76.035-7.7305 34.852 36.352-34.852 37.125-34.215-37.125z"/>
  </clipPath>
  <linearGradient id="e" x1="-.080331" x2="1.0594" gradientTransform="matrix(16.162 1044.4 -1044.4 16.163 -2375.7 131.12)" gradientUnits="userSpaceOnUse">
   <stop stop-color="#5db8ee" offset="0"/>
   <stop stop-color="#5db8ee" offset=".0625"/>
   <stop stop-color="#5cb8ee" offset=".078125"/>
   <stop stop-color="#5bb8ee" offset=".085938"/>
   <stop stop-color="#5bb7ee" offset=".09375"/>
   <stop stop-color="#5ab7ee" offset=".10156"/>
   <stop stop-color="#59b6ed" offset=".10938"/>
   <stop stop-color="#58b6ed" offset=".11719"/>
   <stop stop-color="#57b5ed" offset=".125"/>
   <stop stop-color="#56b5ed" offset=".13281"/>
   <stop stop-color="#56b5ed" offset=".14062"/>
   <stop stop-color="#55b4ec" offset=".14844"/>
   <stop stop-color="#54b4ec" offset=".15625"/>
   <stop stop-color="#53b3ec" offset=".16406"/>
   <stop stop-color="#52b3ec" offset=".17188"/>
   <stop stop-color="#51b2ec" offset=".17969"/>
   <stop stop-color="#51b2eb" offset=".1875"/>
   <stop stop-color="#50b1eb" offset=".19531"/>
   <stop stop-color="#4fb1eb" offset=".20312"/>
   <stop stop-color="#4eb1eb" offset=".21094"/>
   <stop stop-color="#4db0ea" offset=".21875"/>
   <stop stop-color="#4cb0ea" offset=".22656"/>
   <stop stop-color="#4cafea" offset=".23438"/>
   <stop stop-color="#4bafea" offset=".24219"/>
   <stop stop-color="#4aaeea" offset=".25"/>
   <stop stop-color="#49aee9" offset=".25781"/>
   <stop stop-color="#48ade9" offset=".26562"/>
   <stop stop-color="#47ade9" offset=".27344"/>
   <stop stop-color="#47ade9" offset=".28125"/>
   <stop stop-color="#46ace9" offset=".28906"/>
   <stop stop-color="#45ace8" offset=".29688"/>
   <stop stop-color="#44abe8" offset=".30469"/>
   <stop stop-color="#43abe8" offset=".3125"/>
   <stop stop-color="#42aae8" offset=".32031"/>
   <stop stop-color="#42aae8" offset=".32812"/>
   <stop stop-color="#41a9e7" offset=".33594"/>
   <stop stop-color="#40a9e7" offset=".34375"/>
   <stop stop-color="#3fa9e7" offset=".35156"/>
   <stop stop-color="#3ea8e7" offset=".35938"/>
   <stop stop-color="#3ea8e6" offset=".36719"/>
   <stop stop-color="#3da7e6" offset=".375"/>
   <stop stop-color="#3ca7e6" offset=".38281"/>
   <stop stop-color="#3ba6e6" offset=".39062"/>
   <stop stop-color="#3aa6e6" offset=".39844"/>
   <stop stop-color="#39a5e5" offset=".40625"/>
   <stop stop-color="#39a5e5" offset=".41406"/>
   <stop stop-color="#38a5e5" offset=".42188"/>
   <stop stop-color="#37a4e5" offset=".42969"/>
   <stop stop-color="#36a4e5" offset=".4375"/>
   <stop stop-color="#35a3e4" offset=".44531"/>
   <stop stop-color="#34a3e4" offset=".45312"/>
   <stop stop-color="#34a2e4" offset=".46094"/>
   <stop stop-color="#33a2e4" offset=".46875"/>
   <stop stop-color="#32a1e3" offset=".47656"/>
   <stop stop-color="#31a1e3" offset=".48438"/>
   <stop stop-color="#30a1e3" offset=".49219"/>
   <stop stop-color="#2fa0e3" offset=".5"/>
   <stop stop-color="#2fa0e3" offset=".50781"/>
   <stop stop-color="#2e9fe2" offset=".51562"/>
   <stop stop-color="#2d9fe2" offset=".52344"/>
   <stop stop-color="#2c9ee2" offset=".53125"/>
   <stop stop-color="#2b9ee2" offset=".53906"/>
   <stop stop-color="#2a9de2" offset=".54688"/>
   <stop stop-color="#2a9de1" offset=".55469"/>
   <stop stop-color="#299de1" offset=".5625"/>
   <stop stop-color="#289ce1" offset=".57031"/>
   <stop stop-color="#279ce1" offset=".57812"/>
   <stop stop-color="#269be0" offset=".58594"/>
   <stop stop-color="#259be0" offset=".59375"/>
   <stop stop-color="#259ae0" offset=".60156"/>
   <stop stop-color="#249ae0" offset=".60938"/>
   <stop stop-color="#2399e0" offset=".61719"/>
   <stop stop-color="#2299df" offset=".625"/>
   <stop stop-color="#2199df" offset=".63281"/>
   <stop stop-color="#2198df" offset=".64062"/>
   <stop stop-color="#2098df" offset=".64844"/>
   <stop stop-color="#1f97df" offset=".65625"/>
   <stop stop-color="#1e97de" offset=".66406"/>
   <stop stop-color="#1d96de" offset=".67188"/>
   <stop stop-color="#1c96de" offset=".67969"/>
   <stop stop-color="#1c95de" offset=".6875"/>
   <stop stop-color="#1b95dd" offset=".69531"/>
   <stop stop-color="#1a95dd" offset=".70312"/>
   <stop stop-color="#1994dd" offset=".71094"/>
   <stop stop-color="#1894dd" offset=".71875"/>
   <stop stop-color="#1793dd" offset=".72656"/>
   <stop stop-color="#1793dc" offset=".73438"/>
   <stop stop-color="#1692dc" offset=".74219"/>
   <stop stop-color="#1592dc" offset=".75"/>
   <stop stop-color="#1491dc" offset=".75781"/>
   <stop stop-color="#1391dc" offset=".76562"/>
   <stop stop-color="#1291db" offset=".77344"/>
   <stop stop-color="#1290db" offset=".78125"/>
   <stop stop-color="#1190db" offset=".78906"/>
   <stop stop-color="#108fdb" offset=".79688"/>
   <stop stop-color="#0f8fda" offset=".80469"/>
   <stop stop-color="#0e8eda" offset=".8125"/>
   <stop stop-color="#0d8eda" offset=".82031"/>
   <stop stop-color="#0d8dda" offset=".82812"/>
   <stop stop-color="#0c8dda" offset=".83594"/>
   <stop stop-color="#0b8dd9" offset=".84375"/>
   <stop stop-color="#0a8cd9" offset=".85156"/>
   <stop stop-color="#098cd9" offset=".85938"/>
   <stop stop-color="#088bd9" offset=".86719"/>
   <stop stop-color="#088bd9" offset=".875"/>
   <stop stop-color="#078ad8" offset=".88281"/>
   <stop stop-color="#068ad8" offset=".89062"/>
   <stop stop-color="#0589d8" offset=".89844"/>
   <stop stop-color="#0489d8" offset=".90625"/>
   <stop stop-color="#0389d7" offset=".91406"/>
   <stop stop-color="#0388d7" offset=".92188"/>
   <stop stop-color="#0288d7" offset=".92969"/>
   <stop stop-color="#0187d7" offset=".9375"/>
   <stop stop-color="#0087d7" offset=".94531"/>
   <stop stop-color="#0086d6" offset=".95312"/>
   <stop stop-color="#0086d6" offset=".96875"/>
   <stop stop-color="#0086d6" offset="1"/>
  </linearGradient>
  <clipPath id="c">
   <path d="m4 0h1182v1189.5h-1182z"/>
  </clipPath>
 </defs>
 <g clip-path="url(#a)" fill="none">
  <path d="m0 0h1189.5v1189.5h-1189.5z"/>
  <path d="m0 0h1189.5v1189.5h-1189.5z"/>
 </g>
 <g clip-path="url(#d)">
  <g clip-path="url(#b)">
   <path d="m1177.9-7.7969-1181.2 18.277 18.422 1190.3 1181.2-18.281z" fill="url(#e)"/>
  </g>
 </g>
 <g clip-path="url(#c)">
  <path transform="matrix(6.3361 0 0 6.3363 -107640 -186.24)" d="m16992 42.6v11.597c10.401 0 19.5 4.8419 27.201 14.526l2.7989-2.9295v-2.8075c-1.799-7.7307-5.4998-11.597-11-11.597v-14.526l-5.2988-5.8597c-2.8002 0-5.4998 3.866-8.2007 11.597zm54.401 48.95v2.9301l2.7009-2.9301h51.898l13.701 2.9301c-8.5003-15.462-21.201-23.193-38.201-23.193-20.099 8.1382-30.099 14.892-30.099 20.263zm-24.1 16.968v5.8591h16.301c2.2989 29.053 14.699 44.597 37.299 46.631l10.599-0.73177c22.602-3.988 33.901-18.311 33.901-42.97v-2.9295l-2.6997-2.9289v-2.9301h2.6997l8.2013 5.8591h11v-5.8591l-19.201-2.8081-1.799-1.4641-3.1016-0.733-0.59924-0.73177-38.1-2.9301zm43.9 6.3479 8.2001 11.596v8.6671l-8.2001 8.7886h-11c-4.0991 0-6.8-4.8419-8.099-14.526 2.4999-9.6843 8.898-14.526 19.099-14.526zm38.1 0 8.1995 11.596v8.6671l-8.1995 8.7886h-10.9c-4.0997 0-6.7988-4.8419-8.1002-14.526 2.5005-9.6843 8.8012-14.526 19-14.526zm-24.5 29.052 5.4998 5.7382-5.4998 5.8591-5.4-5.8591zm-88.9 51.88v8.6671c5.4 0 8.2007 2.8888 8.2007 8.6665l2.6991 2.9301h2.8008c3.5005 0 5.2995-2.8888 5.2995-8.6671l-2.6004-8.7886c4.8013-1.2213 9.3012-6.0224 13.6-14.404l-2.7989-2.9301h-2.7009c-9.7993 9.6843-18 14.526-24.5 14.526zm141.5-131.96c6.8999 7.4866 12.3 16.541 16.201 27.16 3.7989 10.62 5.699 22.359 5.699 35.217 0 12.94-1.9001 24.699-5.8999 35.279-3.9012 10.579-9.4011 19.571-16.401 26.977-6.7994 7.3238-14.699 12.979-23.699 16.967-9.0003 3.9874-18.601 5.9811-28.801 5.9811-10.799 0-20.799-2.1158-30-6.3467-9.1988-4.2322-17.099-10.173-23.699-17.823-6.5997-7.4052-11.801-16.418-15.6-27.038-3.7009-10.62-5.5991-21.953-5.5991-33.997 0-13.265 2.0006-25.085 6.0004-35.461 3.8975-10.376 9.398-19.348 16.299-26.917 6.8999-7.5686 14.9-13.327 24-17.273 9.099-3.9467 18.599-5.9201 28.599-5.9201 10.401 0 20.102 2.0141 29.201 6.0422 9.1002 4.0287 17 9.746 23.7 17.151zm-5.4998 111.94c5.0991-6.5107 8.8-13.896 11.099-22.156 2.3008-8.2603 3.4006-17.517 3.3008-27.771-0.19851-10.497-1.5998-20.121-4.3007-28.87-2.7989-8.7479-6.6989-16.215-11.799-22.4-5.2008-6.1032-11.701-10.864-19.4-14.282-7.6989-3.4178-16.499-5.1267-26.4-5.1267-11.1 0-20.5 1.974-28.2 5.9207-7.7007 3.9473-14 9.2164-18.9 15.808-4.6003 6.3473-7.9005 13.773-10.1 22.278-2.0992 8.5038-3.2009 17.395-3.0992 26.672 0.099257 10.335 1.3982 19.674 3.7989 28.016 2.4999 8.3416 6.3999 15.768 11.701 22.278 4.9998 6.2659 11.398 11.19 19 14.77 7.6989 3.5812 16.799 5.372 27.299 5.372 9.9004 0 18.8-1.7909 26.8-5.372 7.9011-3.5799 14.299-8.6258 19.2-15.136zm24.5 36.621c0.59924-6.6728-3.9012-15.3-13.401-25.879l0.20098-2.8081 3.2989-2.5633c8.7013 4.9639 13.401 9.9285 14.301 14.892l9.5003-2.1971c6.1989 0.40688 9.1988 2.4419 8.8006 6.1038l-0.20098 2.8069-3.2989 2.5646c-6.2008-0.4075-9.4997 2.1558-9.901 7.6894zm0 0c0.59924-6.6728-3.9012-15.3-13.401-25.879l0.20098-2.8081 3.2989-2.5633c8.7013 4.9639 13.401 9.9285 14.301 14.892l9.5003-2.1971c6.1989 0.40688 9.1988 2.4419 8.8006 6.1038l-0.20098 2.8069-3.2989 2.5646c-6.2008-0.4075-9.4997 2.1558-9.901 7.6894zm18.701-154.05 0.39826-8.6665c-5.699-0.24413-8.398-3.255-8.1995-9.0333l-2.6991-3.0522-2.8008-0.12145c-3.8007-0.081376-5.699 2.7668-5.8999 8.5445l2.4999 8.7892c-5.0997 1.0579-9.9997 5.6969-14.7 13.916l2.7989 3.0522 2.7009 0.12206c10.5-9.2769 19.1-13.794 25.901-13.55zm-125 39.551v1.0992l2.6984-1.0992h51.9l13.6 1.0992c-8.3999-5.6969-21-7.3651-37.6-5.0052-20.4 0.65101-30.599 1.953-30.599 3.906zm17.099 71.899c-0.30024 4.3949 4.4012 9.1955 14.299 14.405 10.602 2.522 18.701-2.2791 24.102-14.405l-7.8006 1.831-10.301 1.4648-12.398-0.97589zm29.799-10.62 5.4998 5.737-5.4998 5.8597-5.3981-5.8597zm-12.199 1.831 5.4998 5.7382-5.4998 5.8584-5.4-5.8584zm-12-1.22 5.5004 5.737-5.5004 5.8591-5.4-5.8591z" fill="none" stroke="#000" stroke-linejoin="round" stroke-miterlimit="2" stroke-width="3.13"/>
 </g>
 <path d="m577.54 725.67 34.848 36.359-34.848 37.125-33.582-37.125z" fill-rule="evenodd"/>
 <path d="m1031.8 1159.6c3.793-42.281-24.719-96.945-84.91-163.98l1.2734-17.793 20.902-16.242c54.504 31.453 84.91 62.91 90.613 94.363l60.191-13.922c39.277 2.5781 57.66 15.473 55.766 38.676l-1.2734 17.785-20.902 16.25c-39.293-2.582-60.195 13.66-62.734 48.727z" fill="none" fill-rule="evenodd"/>
 <path d="m14.887 1054.4c41.188 0 93.148-30.68 155.24-92.043h17.113l17.734 18.566c-27.238 53.109-56.398 83.531-86.805 91.27l17.105 55.688c0 36.613-11.398 54.918-33.574 54.918h-18.379l-16.469-18.566c0-36.609-17.75-54.914-51.965-54.914z" fill="none" fill-rule="evenodd"/>
 <path d="m21.852 83.684h34.848c17.113-48.984 34.223-73.48 51.965-73.48l33.574 37.129v92.043c34.848 0 57.672 24.496 69.699 73.48v17.785l-17.738 18.566c-48.793-61.359-106.45-92.039-172.35-92.039z" fill="#fff" fill-rule="evenodd"/>
 <path d="m1150.3 183.46c-43.094-1.543-97.582 27.078-164.11 85.859l-17.113-0.77344-17.734-19.34c29.777-52.078 60.824-81.473 93.141-88.176l-15.84-55.691c1.2734-36.609 13.297-54.656 37.383-54.141l17.746 0.76953 17.102 19.34c-1.2617 36.613 15.84 55.691 51.324 57.238z" fill="#fff" fill-rule="evenodd"/>
 <path d="m492 541.59 51.957 73.477v54.918l-51.957 55.688h-69.699c-25.969 0-43.719-30.68-51.961-92.039 16.484-61.363 56.398-92.043 121.66-92.043z" fill="#020000" fill-rule="evenodd"/>
 <path d="m733.41 541.59 51.949 73.477v54.918l-51.949 55.688h-69.062c-25.98 0-43.727-30.68-51.957-92.039 16.473-61.363 56.398-92.043 121.02-92.043z" fill="#020000" fill-rule="evenodd"/>
 <path d="m502.14 826.23 34.848 36.352-34.848 37.125-34.215-37.125z" fill="#fff" fill-rule="evenodd"/>
 <path d="m577.54 833.96 34.848 36.359-34.848 37.121-33.582-37.121z" fill="#fff" fill-rule="evenodd"/>
 <path d="m655.46 822.36 34.223 36.352-34.223 37.129-34.203-37.129z" fill="#fff" fill-rule="evenodd"/>
 <path d="m466.66 889.65 50.062 14.699 77.926 6.1836 65.895-9.2812 49.43-11.602c-34.223 76.832-85.539 107.25-152.71 91.273-62.715-33.008-93.133-63.426-90.598-91.273z" fill="#fff" fill-rule="evenodd"/>
 <path d="m358.31 434.07c0-12.375 64.625-20.625 193.88-24.75 105.18-14.953 185.02-4.3828 238.24 31.715l-86.801-6.9648h-328.22l-17.102 6.9648z" fill="#ff1400" fill-rule="evenodd"/>
 <path d="m366.54 393.85c0-34.031 63.363-76.828 190.71-128.39 107.71 0 188.19 48.988 242.05 146.96l-86.809-18.566h-328.84l-17.113 18.566z" fill="#ffcd00" fill-rule="evenodd"/>
 <path d="m213.84 501.36 345.32-54.918 241.41 18.566 3.793 4.6367 19.656 4.6445 11.398 9.2773 121.66 17.793v37.125h-69.695l-51.965-37.125h-17.105v18.566l17.105 18.559v18.562c0 156.24-71.59 247-214.8 272.27l-67.789 4.6367c-142.57-12.887-221.13-111.38-235.7-295.47h-103.29zm278.16 40.223c-65.262 0-105.18 30.68-121.66 92.043 8.2422 61.359 25.992 92.039 51.961 92.039h69.699l51.957-55.688v-54.918zm241.41 0c-64.621 0-104.55 30.68-121.02 92.043 8.2305 61.359 25.977 92.039 51.957 92.039h69.062l51.949-55.688v-54.918zm-155.87 184.08-33.582 36.359 33.582 37.125 34.848-37.125z" fill="#fff" fill-rule="evenodd"/>
</svg>
