<?xml version="1.0" encoding="UTF-8"?>
<svg width="1587" height="1587" version="1.0" viewBox="0 0 1190.2 1190.2" xmlns="http://www.w3.org/2000/svg" zoomAndPan="magnify">
 <defs>
  <clipPath id="b">
   <path d="m0 0h1189.5v1189.5h-1189.5z"/>
  </clipPath>
  <clipPath id="a">
   <path d="m14.129 0h1161.8v1042h-1161.8z"/>
  </clipPath>
  <clipPath id="c">
   <path d="m31 1133h1128v56.5h-1128z"/>
  </clipPath>
 </defs>
 <g clip-path="url(#b)" fill="none">
  <path d="m0 0h1189.5v1189.5h-1189.5z"/>
  <path d="m0 0h1189.5v1189.5h-1189.5z"/>
 </g>
 <g clip-path="url(#a)">
  <path d="m595.01 0c-320.66 0-580.58 259.8-580.58 580.32 0 188.16 89.57 355.32 228.4 461.37h704.36c138.83-106.04 228.4-273.21 228.4-461.37 0-73.117-13.574-143.09-38.281-207.52-35.328 3.5586-57.188 4.168-65.523 1.8789-14.133-4.9258-26.129-6.6055-36.094-4.9258-13.824 6.4531-25.57 6.707-35.125 0.71094-169.07-4.0156-227.84-7.7734-176.39-11.18 122.61-1.2695 187.38-2.6406 194.14-4.1172 10.824-1.168 19.062-3.25 24.551-6.1484 8.8984-6.3008 29.332-6.707 61.461-1.2188 8.9453 1.9844 17.078 3.2031 24.297 3.6602-7.5742-17.582-16.012-34.758-25.215-51.422-393.91 0.8125-591.1-4.7773-591.25-16.82 25.418-1.5234 139.69-3.5547 342.83-6.0469 19.012 0.25391 33.957-2.3867 44.734-7.9258 21.301-16.664 43.461-18.75 66.543-6.3008 12.859 5.3867 22.062 3.3555 27.652-6.0469 7.4727-11.43 19.875-14.531 37.16-9.2461 10.422 10.621 21.047 11.078 31.871 1.3711 1.2734-2.5391 2.6953-4.625 4.2734-6.3516-105.33-146.95-277.61-242.68-472.25-242.68z" fill="#fb0" fill-rule="evenodd"/>
 </g>
 <g clip-path="url(#c)">
  <path d="m595.01 1133.2c310.95 0 563.04 12.602 563.04 28.152 0 15.547-252.09 28.148-563.04 28.148s-563.04-12.602-563.04-28.148c0-15.551 252.09-28.152 563.04-28.152z" fill-rule="evenodd"/>
 </g>
 <path d="m172.43 736.52c0.15234-12.805 3.2539-25.762 10.117-37.094l-2.0352-3.9648 1.8828-7.418c5.5898-22 17.844-43.746 34.465-61.684 16.012-17.277 36.145-31.148 58.359-38.363l4.5742-1.4727 4.3711 0.66016c9.7617-5.8438 18.148-9.3516 26.434-11.332 10.727-2.5391 20.234-2.2344 31.57-0.66016l7.9297 1.0664 5.0312 6.0469 3.1016 3.7617 10.219 12.348-5.2383 6.9609 0.30469 3.9102c2.3906-0.71094 4.6289-1.7773 6.8633-2.8438 5.7969-2.7969 11.742-5.6406 19.57-7.3164 9.8125-9.9102 12.914-11.383 26.027-17.074l9.9141-13.719 2.1875-3.0469 3.0977-2.0352c3.1523-2.082 6.9648-3.8086 11.387-5.2344 1.5273-0.50781 3.1016-0.91406 4.832-1.3203 3.5586-3.6055 7.3203-6.9609 11.285-10.109 2.7969-2.2383 5.7422-4.3711 8.793-6.3516-1.625-2.8477-3-5.793-4.1172-8.8438-1.9805-5.4844-3.1016-11.176-3.2031-17.121-0.76172-13.465 2.5938-24.695 10.066-33.688-8.4375-7.3203-15.148-13.824-20.133-19.461-7.2656-8.2344-11.539-15.805-12.707-22.715-3.7617-13.82-6.6602-26.066-8.7422-36.738-2.1875-11.227-3.7109-21.441-4.4727-30.535-1.2734-5.2852-1.7305-10.469-1.3242-15.551 0.10156-1.0156 0.20312-2.0312 0.35547-3.0469l-3.8633-3.8633 3.3555-11.531c1.9844-6.8086 4.7266-13.109 8.1836-19.004 13.523-23.172 37.719-40.395 64.867-49.746 26.535-9.1445 56.426-10.977 81.996-3.5547 7.8281 2.2852 15.199 5.332 21.961 9.2969l3.7617 2.1836 2.4883 3.457 29.027 39.988 3.6094 4.9805 0.20312 6.3516 0.71094 24.234c6.9648 8.793 10.371 16.668 10.27 23.73 2.082 0 4.1172 0.15234 6.1523 0.45703 17.383 1.0156 33.652 9.8594 48.801 26.473 12.859 14.176 25.262 34.449 37.109 60.871l27.957 36.027 3.3047 4.2188 0.76172 5.1797 3.7617 25.66 4.2695 4.1172c17.844 17.227 45.906 44.359 52.309 63.059 2.543 7.418 5.3398 18.188 7.5742 31.094 0.66016 3.9648 1.3242 8.2344 1.832 12.652 6.457-0.25391 13.52-0.25391 21.297 0.050781 17.59 0.66016 38.891 2.6953 63.852 6.0977l6.1992 0.86328 4.5742 4.0664 0.66406 0.55859c12.504 0.71094 19.367 1.4727 19.418 1.4727l13.012 1.1211 4.3711 12.344c3.4062 9.6562 3.3047 19.309 0.81641 28-2.6953 9.3477-8.2891 17.68-15.301 23.625l-1.5781 1.3242-0.25391 0.15234-134.46 89.629c5.543-1.7773 11.336 0.050781 13.676 1.0664 34.82-10.82 70.152-11.176 102.84-2.082 35.789 9.9609 68.273 31.199 93.383 62.297 14.387 17.781 26.078 38.363 34.773 60.109 5.5391 13.82 9.8594 28.098 12.961 42.477 10.371 97.102-20.996 154.98-94.145 173.62-48.852 1.7773-104.97-30.285-168.41-96.188 0 0-131.71-13.973-395.14-41.867-25.773 87.699-87.637 131.25-185.5 130.74-57.949-10.926-100.14-47.867-126.52-110.72-10.219-32.875-12.305-68.902-6.457-101.78 5.2852-29.672 17.078-57.16 35.328-78.148l-10.625-8.0273 20.793-16.207c17.234-13.465 35.484-23.527 54.852-30.285-1.4258-0.71094-2.7969-1.4727-4.1172-2.3359-9.9141-6.1992-18.047-16.16-23.488-27.898-5.0312-10.871-7.9297-23.676-7.8281-36.531zm83.828 61.277 11.082 0.8125 6.7578-13.82z" fill="#fff" fill-rule="evenodd"/>
 <path d="m206.43 701.5c-30.246 30.438-5.5898 92.531 25.469 85.672 0 0 18.25-9.5039 54.75-28.559 6.1992-1.3711 11.438-1.2695 15.707 0.25391 0 0-3.1016 8.9453-9.3047 26.879 0 0-1.3711 1.0156-4.0664 3.1016 0 0-3.8633 8.332-11.641 25-41.227-2.2383-78.539 9.6523-111.89 35.668 0 0 2.9492 2.2344 8.7969 6.6562-51.141 37.551-63.188 126.47-34.469 193.19 31.723 73.676 107.87 128.65 199.63 100.3 46.359-14.328 75.539-49.797 87.637-106.45 0 0 2.543 3.8086 7.625 11.43 0 0-6.5039 16.973-19.52 50.914 8.0312 3.3555 34.516 6.0469 79.504 8.0781 0 0 7.1172-7.7734 21.402-23.32 1.5273 9.7031 5.8477 16.359 12.863 19.969 0 0 56.629 0.15234 169.94 0.45703 11.438-1.0664 38.734-12.348 81.895-33.789 20.945 42.984 55.918 70.07 94.5 82.465 83.93 26.984 174.11-10.617 190.63-102.08 2.7461-15.191 3.457-31.047 1.8828-46.492-4.2695-41.82-20.945-85.617-47.582-118.64-44.633-55.336-114.99-75.457-182.55-50.863 0 0-2.7969-2.3398-6.9141-3.9141-0.45703-0.50781-6.6055 1.7773-15.707 7.9766-6.5586-3.5547-15.098-12.602-25.723-27.133 0 0 53.328-35.516 159.98-106.6 7.625-6.5039 12.453-18.09 8.4375-29.523 0 0-11.539-1.2188-25.824-1.8789 0 0-0.20312-0.20312-5.9453-5.2852-48.852-6.707-82.504-7.9258-100.91-3.8086-1.168-25.965-6.1016-47.715-10.168-59.652-5.8945-17.176-43.359-50.812-56.477-64.074 0 0-1.5742-10.773-4.7773-32.367 0 0-9.8633-12.703-29.535-38.059-22.52-50.914-46.004-76.777-70.457-77.539-5.8984-1.0664-12.453 0.20312-19.773 3.8125-5.7969-4.7773-14.133-6.0469-25.012-3.8125 0 0 6.8125-6.9609 20.484-20.934 1.2734-1.9805-2.082-7.2148-10.012-15.699 0 0-0.30469-10.469-0.96484-31.402 0 0-9.6602-13.312-29.027-39.988-47.43-27.594-131.92-1.8828-147.32 51.164 0 0 1.2734 1.2734 3.8125 3.8125-3.2539 6.8594-3.8125 14.023-1.6758 21.391 1.3711 17.48 5.7422 39.684 13.113 66.617 0.71484 6.2461 10.574 17.426 29.637 33.535 3.5586 3.1992 8.3398 3.6055 14.438 1.168 0.20312 0.30469 8.1328-2.6445 23.793-8.793 4.6758-1.0156 6.25 1.2227 4.7773 6.6562-1.2695 6.1484-3.9648 11.129-8.082 14.992 0 0-9.8633 1.8281-29.535 5.4883-8.5938 5.8438-12.559 14.328-11.895 25.457 0.050782 7.7227 2.7422 15.09 8.082 22.102 0 0-0.55859 5.6406-1.6289 16.867-10.98 5.9961-20.688 13.672-29.074 23.07-6.8633 1.0664-12 2.7422-15.457 4.9805 0 0-4.3711 6.0469-13.113 18.09-16.676 7.3164-16.98 6.6562-29.535 19.766-21.605 1.9297-28.926 18.695-55.004 10.211 0 0-0.40625-4.7773-1.168-14.277 0 0-2.7969-1.7266-8.3359-5.2344 0 0 2.4375-3.25 7.3711-9.7539 0 0-1.0703-1.2734-3.1016-3.7617-17.996-2.4883-29.586-1.1172-51.648 13.566-1.8789-0.55859-3.8125-1.168-6.3047-1.5234-38.48 12.551-69.945 48.777-79.402 85.77 2.8984 5.6406 4.3203 8.4844 4.3203 8.4844zm-15.707 248.82c7.2695-14.328 18.91-24.895 34.973-31.652 0.15234-8.9961 1.375-16.465 3.5586-22.359-19.824 10.062-32.684 28.102-38.582 54.012zm127.59 122.05c24.301-6.5547 40.008-17.633 47.125-33.332-11.793 46.441-57.496 68.953-104.97 49.035 27.906 1.0156 47.172-4.2188 57.848-15.703zm89.164-432.3c5.543-6.0469 8.3359-9.043 8.3359-9.043 11.133-1.0703 19.164-5.082 24.047-12.145 4.7773-0.60938 19.062-3.3555 19.062-3.3555-18.961 15.855-28.52 21.953-51.395 24.492zm177.31-5.6406c-6.7617-7.5703-14.336-17.48-16.777-18.953-7.168 15.805-12.555 17.227-32.332 31.453 16.371-1.4219 56.988 3.1523 56.988 3.1523 10.828-18.598-3.7617-11.027-7.8789-15.652zm-240.6 10.164c0.15234-6.6562 0.25391-10.012 0.25391-10.012 34.617 4.8789 33.195-7.418 52.816-8.7891-9.6562 10.465-14.539 15.699-14.539 15.699-19.062 11.434-17.484 8.2812-38.582 3.1016zm636.14 417.11c-5.793 1.4219-15.453 3.1992-26.738 1.4727l-23.18-3.5078c-11.641 12.043-26.129 16.008-43.414 11.891 26.18 25.812 81.234 35.566 93.332-9.8555z" fill-rule="evenodd"/>
 <path d="m838.15 717.97c24.707-13.414 48.699-24.695 71.883-33.789-45.652-5.8438-74.98-5.6914-88.098 0.45703 11.133 3.1484 16.672 4.7773 16.672 4.7773-0.050781 4.875-1.9805 12.496-5.6914 22.863-0.8125-6.0469-3.2031-9.3477-7.1172-10.008-7.3203 14.277-10.93 21.391-10.93 21.391 6.1016-0.30469 11.031-1.0664 14.742-2.3906-6.9648 14.891-10.473 22.359-10.473 22.359 12.711-17.125 19.062-25.711 19.062-25.711zm-593.59 45.781c-2.6914-6.5039-4.0664-9.7578-4.0664-9.7578-2.2344 11.738-3.3516 17.582-3.3516 17.582 15.555-7.6211 23.332-11.434 23.332-11.434-10.625 2.3906-15.965 3.5586-15.965 3.5586zm83.32-133.89c4.7773 3 7.1172 4.5234 7.1172 4.5234s-1.7305-4.1172-5.2383-12.348c-3 4.168-3.6602 6.8086-1.8789 7.875zm165.36-14.074c-28.57 19.359-42.852 29.016-42.852 29.016s1.2695 1.8789 3.8125 5.6914c0 0-7.625-2.0859-22.879-6.1992 0 0 4.9336-1.2734 14.742-3.8125 0 0 10.016-7.6211 29.992-22.863 11.441-1.2734 17.133-1.8828 17.133-1.8828zm75.285-83.535c13.32-8.2305 19.98-12.344 19.98-12.344s-8.0859 0.76172-14.387 0.40625c0 0-2.3398-12.5-0.35547-29.93-6 18.902-7.7266 32.875-5.2383 41.867zm181.79 437.23c29.23-10.414 60.289-22.965 77.473-49.895 5.8438-9.1484 13.164-17.836 22.008-25.965 1.1719-1.5742-0.55859-4.5234-3.1484-6.9102 0 0-12.254 11.637-17.793 15.445 0 0 7.2695-10.773 15.098-19.562 1.6758-2.6914-5.082-9.3984-10.219-13.668-6.6602-5.5391-15.25-6.1484-28.672-19.309 4.9336 11.129 12.66 16.008 11.184 25 5.543-0.45703 8.3398-0.71094 8.3398-0.71094-2.4414 11.176-16.016 16.004-40.719 14.531-3.8633-1.3711-7.6758 0.55859-11.438 5.793-2.1367-1.8281-5.0352-4.1172-8.543-6.9609-1.0156-0.55859 0.81641 3.5039 5.4414 12.094-2.7461 5.1797-5.3906 12.094-8.082 20.781-14.234 17.07-21.504 26.777-21.91 29.012-5.1836 12.551 4.3711 23.324 10.93 20.477zm-5.1367-16.309c2.6953 8.2812 5.6953 9.5 8.6953 8.2305 17.996-7.4688 38.074-18.191 49.918-27.438 8.6914-6.8086 14.996-16.668 20.336-24.441-4.7812 5.0312-12.406 12.551-20.031 17.836-12.961 8.8906-27.043 17.379-51.188 27.031-1.4258 0.55859-2.6953 1.5742-7.6797-1.2188zm25.977-251.67c6.3555 0.96875 9.5078 1.4258 9.5078 1.4258-31.723 20.324-47.582 30.434-47.582 30.434 25.367-21.238 38.074-31.859 38.074-31.859zm36.348-13.719c0.10156-1.9805 1.5781-7.1133 4.4219-15.293-1.8789-18.242-5.793-38.617-11.844-61.074-3.457-12.906-38.074-39.84-48.598-49.289l2.543 3.6094 0.20312 0.30469 10.574 15.09-0.20312-0.050781c15.148 17.531 22.215 28.352 21.859 29.367-27.098-4.5703-104.98 13.059-104.98 13.059 92.062-14.582 111.02 8.7422 111.02 8.7422 6.2031 19.156 7.7266 27.59 8.4883 37.906-11.59 2.082-16.367 3.0469-14.281 2.8438 7.4727 0.91406 14.434 5.8438 20.789 14.785zm-320.66-90.75c2.9492 8.6406-0.20313 10.723-9.6055 6.1992 0 0 1.6758-0.60938 4.9805-1.8789-28.312 3.1016-51.496 10.316-69.492 21.645-5.9961 8.9453-12.809 14.332-20.484 16.16 6.457-6.5547 12.605-13.211 18.352-19.969 22.469-14.125 47.836-21.496 76.25-22.105zm-32.887-5.4844c4.0156-7.3711 4.1172-9.9609 0.25391-7.8789-4.7812 0.8125-7.1172 1.1719-7.1172 1.1719-4.0664 6.3477-6 10.059-5.6953 11.176 8.3867-2.9961 12.609-4.5195 12.609-4.5195zm16.062-1.3242c3.3047-14.887 4.7773-18.492 4.4219-10.82 0 0-0.45703 2.8945-1.3203 8.6875 0.91406 0.86328 3.5586 0.55859 7.9805-0.8125 0 0 0.60938-6.0469 3-13.109 0 0 0.60938 5.7422 0.71094 12.246 0 0 1.8281-0.45703 5.4883-1.4219 0 0 0.8125-4.4219 2.3906-13.312 0 0 0.55859 4.6719 1.6758 14.023 0 0 1.8828 0.40625 5.6953 1.168 0 0 0.60937 1.8281 1.8789 5.4883 6.5586 4.2148 7.5234 2.2344 2.8477-5.9453-0.25391-0.66016 0.55859-4.7266 2.3906-12.145 0 0-0.86328-1.1172-2.6445-3.3555 0 0 1.5742-1.6758 4.7773-4.9766 0 0-1.168-1.2734-3.5586-3.8125-3.3008-5.4883-7.168-7.5703-11.641-6.1992-14.078 6.707-23.637 14.48-28.82 23.324-3 7.5703-3 11.992 0.10156 13.211 3.0977-1.5273 4.625-2.2383 4.625-2.2383zm65.676-111.84c3.1523-6.9609 4.7812-10.465 4.7812-10.465 6.0469 6.9609 9.0469 10.465 9.0469 10.465h-13.828zm59.527 61.84c8.6953-9.0469 13.066-13.566 13.066-13.566 5.0312-7.2148 19.621-9.1484 43.82-5.6914-2.7969-8.5391-15.305-10.621-37.621-6.1992 16.523-31.25 25.926-29.523 62.832-34.758-12.504-6.043-30.703-10.109-55.664 0.050781 2.2383-31.094 9.8125-44.965 23.742-53.809-17.438 6.1484-29.18 22.309-35.23 48.527-4.3203-9.6055-6.1484-18.75-5.4883-27.391-1.4258-5.9922-1.6797-14.379-0.71094-25.199-1.7812 1.4219-9.4062 10.211-22.875 26.422 3.9648-20.324 9.6562-32.773 17.129-37.348 7.625-3.2539 16.012-3.1523 25.215 0.25391-1.5781 10.773-2.3906 16.156-2.3906 16.156 13.93-15.395 26.129-21.086 36.652-17.121 17.742 3.25 37.262 28.961 58.562 77.082 14.895 21.238 22.367 31.859 22.367 31.859 2.0312 18.441 3 26.371 2.8438 23.777-4.625-12.094-7.7773-18.09-9.5039-18.09-13.625 5.082-20.488 7.625-20.488 7.625 6.5078-14.078-17.332-77.793-22.875-85.672 5.543 44.207 12.66 62.5-13.672 98.375-2.1875-9.5039-9.3047-13.672-16.32-10.367 6.2539 9.7031 9.5586 20.477 10.016 32.367-6.9648-13.312-15.25-24.746-15.25-24.746-8.2344 8.6367-15.91 14.836-20.996 12.246-5.1836-3.2539-8.7422-4.6758-15.656 2.0312 4.1172 15.398 9.3555 26.625 9.0508 24.289-8.9492 7.6211-13.066 11.738-12.355 12.348 2.8477-8.5859 4.2695-12.855 4.2695-12.855-6.3516-10.164-18.758-15.242-37.109-15.242 6.457 9.5 9.9648 16.512 10.473 20.934-24.449 1.6758-37.77 2.793-40.004 3.3516-5.1875-12.5-7.7812-18.699-18.098-27.59 8.5898 11.738 4.8789 20.629-3.457 20.832-4.5742 0.10156-8.4922-5.2852-7.9805-13.211-15.559-20.324-23.336-30.434-23.336-30.434-1.8789-17.43-2.8438-26.168-2.8438-26.168-3.1523 3.8086-4.7812 5.6875-4.7812 5.6875-1.0156-13.008 1.0195-20.68 6.2031-23.066 22.875-4.9297 34.262-7.3672 34.262-7.3672 5.7461-0.60938 10.32 3.0469 13.828 10.922-2.1367 9.9609-3.0508 15.195-2.8477 15.703-1.8789-6.8086-2.8477-10.215-2.8477-10.215-23.484 10.469-35.227 15.703-35.227 15.703 0.96484 9.8555 1.4219 14.734 1.4219 14.734 12.203 11.891 18.352 17.836 18.352 17.836 14.488 1.0664 22.469 2.6406 24.047 4.7734 4.4219 3.1523 6.6562 4.7773 6.6562 4.7773-1.5742-5.5391-2.3867-8.332-2.3867-8.332 15.199-6.7578 23.738-9.707 25.469-8.7891 5.2344 0.15234 7.8789 0.25391 7.8789 0.25391 10.012 1.8789 14.996 2.8438 14.996 2.8438-3.5078-5.6914-5.2383-8.5859-5.2383-8.5859zm-59.73-37.551c-22.062 2.3867-33.094 3.5547-33.094 3.5547 0.46094 5.082 0.71484 7.625 0.71484 7.625 21.602-7.4688 32.379-11.18 32.379-11.18zm-3.6602 64.074c2.3906-0.15234 4.4766 2.5391 4.6797 5.8945 0.20312 3.4023-1.6289 6.25-4.0156 6.3516-2.3906 0.15234-4.4766-2.543-4.6797-5.8945-0.20312-3.4062 1.6289-6.25 4.0156-6.3516zm0.20312-116.21c-4.2188 0.40625-9.6562 1.7773-16.418 4.168-0.10156-1.2734 12.453-13.465 37.617-36.637 0 0-7.4727 10.469-24.602 29.523 2.9961 2.6406 3.4531 2.9961 3.4531 2.9961zm37.363 6.0469c1.8828-18.039 4.2227-31.402 7.1172-39.988-20.281 17.527-30.703 28.707-31.16 33.535 7.4727 7.6211 11.184 11.434 11.184 11.434-0.30469-6.9609-0.45703-10.469-0.45703-10.469 6.9648 8.1289 9.1992 13.516 6.6602 16.16 4.7773-1.8828 7.0156-5.4375 6.6562-10.723zm-94.043-49.035c7.6758-4.7227 15.453-9.1445 23.332-13.312-12.301 8.5898-24.195 18.395-35.684 29.523-3.9648-15.754-7.625-34.957-10.93-57.57 12.859-5.4883 23.129-9.1445 30.703-10.926-0.25391 7.625 0.10156 17.938 0.96484 30.945-6.9609-6.8086-10.469-10.211-10.469-10.211 0.25391 10.16 0.96484 20.73 2.1328 31.652zm130.19-77.535c0.71094 1.0664 0.60938 2.082-0.25391 3.0977 0 0-10.777 11.992-32.383 35.922 0 0 12.051-8.6367 36.195-25.91 0 0 0.8125 8.8906 2.3906 26.625 3.1523 2.6406 5.2852 5.1797 6.4023 7.6211 0 0-3.8125 4.418-11.438 13.312 0 0 1.6797-3.6602 4.9844-10.926 0 0-10.32-0.8125-30.961-2.3867-3.9648 3.0977-9.4023 7.8242-15.605 13.516 0.20312-3.4062-0.45703-5.9961-1.9805-7.8242 0 0-2.2891-1.9844-6.9141-5.9453-2.6445-1.8828-5.1875-1.5781-7.625 0.96484-8.1328 12.195-13.371 20.984-15.707 26.32l-30.555 33.078 30.195-26.371 5.2383 5.7422c-17.844 17.375-35.434 35.312-43.465 44.004-9.25-17.684-10.98-17.125-11.184-26.883 0 0-0.30469-3.3516-0.96484-10.008 0 0-5.2344 2.9453-15.707 8.7891 1.2695-5.6406 22.824-24.285 64.609-55.992-0.76172-3.7109-2.3398-11.789-4.7266-24.238 12.809-4.5234 20.941-5.0312 24.449-1.5234-2.4375 6.3008-5.3359 12.145-8.6914 17.426l0.50781-0.35547c7.0664-7.4688 11.945-14.785 14.742-21.898-4.2695-9.0938-17.742-8.8906-40.465 0.45703 0 0 1.5781 5.2344 4.7812 15.699-5.6445-11.531-13.473-17.02-23.59-16.41-17.895 2.6406-33.449 7.4688-46.664 14.531 7.4727-18.141 23.332-34.652 47.633-49.488-4.2227 0.35547-9.6094 2.5391-16.168 6.6562-0.20313 0.10156-1.7773-0.40625-4.7773-1.6797 0 0-3.8633 5.1328-11.641 15.449 0 0-4.625 2.3867-13.828 7.1133 23.535-38.363 58.918-54.777 106.14-49.238 8.2852 1.2188 15.402 3.2539 21.449 6.1992-2.4375 13.312-6.4531 25.457-12.148 36.383 13.168-18.09 19.773-27.133 19.773-27.133 11.895 16.816 17.844 25.203 17.844 25.203zm-285.38 665.43c-9.5586 17.125-28.723 13.414-37.16 0.40625-7.2188-11.176-7.625-27.793 8.9453-38.973 3-1.6758 2.4414-3.707-1.6758-6.1953-25.875 9.5-24.707 36.734-11.539 52.691 15.758 19.105 44.328 11.531 41.43-7.9805zm-61.055-91.816c3.1523 3.8125 4.7812 5.6914 4.7812 5.6914-43.465 17.023-52.359 81.555-13.828 130.84-37.922-35.617-44.785-112.39 9.0469-136.58zm-57.34-46.391c-38.176 26.777-62.121 68.953-66.188 129.42-1.7773-57.723 16.574-103 51.395-129.42 9.6094-3.0469 14.539-3.0469 14.742 0zm62.629 242.22c78.387 28.863 141.22-10.617 138.52-102.79-2.4922-30.59-12.25-56.148-29.281-76.625-1.2695-0.66016-1.625 0.71094-1.168 4.0625 10.777 16.059 18.301 34.91 22.621 56.605 0.30469 3.1523-0.91406 4.0664-3.5586 2.8477-1.168-1.832-4.8281-2.2891-10.93-1.4258 0 0 1.4219-1.7266 4.2695-5.2305-0.20312-8.1836-4.3203-22.41-12.352-42.582 1.5742-4.9805-3.2539-6.6562-14.539-4.9805-6 0.96484-7.4219 3.457-4.2695 7.3672 4.4219 0.30469 6.6562 0.45703 6.6562 0.45703-6.3008 7.9297-5.3359 15.855 2.8477 23.781-0.96484 9.25 1.4258 15.648 7.1172 19.258-1.3711 3.6602-2.2344 5.3359-2.6445 4.9805 4.1719 2.8438 5.3906 5.3867 3.5586 7.6211-11.539 1.4727-22.723-0.35547-33.551-5.4883 11.234 8.4844 23.844 11.434 37.875 8.7891 9.5039-3.1484 14.281-4.7734 14.281-4.7734 3.1016-3.2031 5.1875-2.0352 6.2031 3.5547 3 86.992-51.852 124.64-131.61 104.47zm75.438-349.73c-4.2695-0.30469-6.4062-0.45703-6.4062-0.45703 7.168-14.688 10.422-27.234 9.7617-37.602 7.625 10.316 11.438 15.445 11.438 15.445-6.8125 19.816-10.219 29.727-10.219 29.727-3-4.7773-4.5234-7.1133-4.5234-7.1133zm-61.051-3.3555c5.5391 0.66016 8.3867 0.91406 16.469 0.25391 21.199-16.664 36.805-41.055 30.906-67.578 0 0 2.7969 1.9805 8.3398 5.9453 43.766-13.922 4.7266-16.008-16.168-19.766 0 0 2.6445 2.082 4.4219 6.0469 0 0-6.1484-4.5742-12.758-5.5898-25.062-4.168-55.562 21.137-69.34 42.629-7.7266 12.094-3.5039 23.426 2.4922 29.32 6.8125 6.6562 16.777 6.9102 29.23 5.4375 28.266-7.3672 52.156-55.488 30.703-71.188 29.484 15.648 5.2891 58.637-13.828 72.559-4.7773 1.4219-10.469 1.8789-10.469 1.8789zm21.805-40.902c-12.25 32.012-57.035 43.344-58.559 14.531 4.625-9.043 12.25-17.836 22.875-26.422-8.8945 18.852-11.285 23.984-11.285 23.984 10.879 13.617 31.109 6.0469 46.969-12.094zm-78.438 68.75c10.066-27.949 3.2031-56.809-11.18-64.48-16.828 15.141-6.3555 64.121 11.18 64.48zm-2.6406-17.582c-1.1211 5.3867-1.6797 8.0781-1.6797 8.0781-6.3516-5.4883-9.9102-16.309-10.727-32.367 4.9336 13.312 9.0508 21.391 12.355 24.289zm10.219-61.281c-1.9844-4.2656-3-6.4023-3-6.4023s-1.1211 3.2539-3.3555 9.7578c0 0-3.1523-0.35547-9.5078-1.0664 4.9336 7.875 7.3711 11.789 7.3711 11.789 5.6445-9.3516 8.4414-14.027 8.4414-14.027zm33.551-52.945c-9.6602 10.316-19.27 24.289-23.336 30.234 0.8125-0.50781 2.4414 0.66016 4.7812 3.5586 0 0-4.375 9.2969-13.117 27.844 0 0 6.4062-9.3008 19.266-27.844 6.5586-4.8789 25.062-15.652 55.461-32.367 0 0 7.0664 3.4023 21.199 10.211 0 0-5.8984-4.5234-17.641-13.566 2.4414-8.2812 8.9453-21.188 19.52-38.77-12.605 0.35547-27.043 5.9453-43.309 16.871 0 0-2.4414-0.55859-7.3711-1.6797-22.98 7.9805-44.633 30.184-64.969 66.617 20.996-29.625 38.688-46.492 53.07-50.66-2.3867 6.3516-3.5547 9.5-3.5547 9.5zm129.98 13.312c10.828 3.2031 15.352 8.3359 13.574 15.449-7.4727-6.4531-15.301-8.6914-23.434-6.6562-2.1367-1.4219-3.2031-2.1367-3.2031-2.1367 3.4062-9.6523 5.1328-14.531 5.1328-14.531 7.7773-1.0664 13.93 0.40625 18.453 4.5234-0.30469 2.6914-0.45703 4.0625-0.45703 4.0625-6.6602-0.45703-10.016-0.71094-10.016-0.71094zm-83.773 127.54c2.1328-17.633 3.2031-26.422 3.2031-26.422-8.082 21.898-12.152 32.824-12.152 32.824-2.8438 2.3867-4.2695 3.5547-4.2695 3.5547-7.1172 15.145-10.062 22.359-8.793 21.648 3.7617 0.50781 6.0508-0.35547 6.9141-2.6445 6.2539-6.9102 8.5898-7.8242 6.9141-2.8438-2.7461 4.3203-3.5586 6.25-2.3906 5.6914 8.3867 1.2695 12.605 1.8789 12.605 1.8789 1.9844-5.4883 3-9.2461 3.1016-11.18-3.5078-3.1484-5.2344-4.7734-5.2344-4.7734 23.332-12.703 34.973-19.055 34.973-19.055 8.5898-4.2188 17.031-4.1172 25.215 0.25391-8.8438-1.3711-14.844 0.15234-18.098 4.5195-11.438 35.215-17.129 52.797-17.129 52.797 2.082 7.6211 3.0977 11.43 3.0977 11.43-4.9297 19.207-7.3711 28.812-7.3711 28.812 5.2383 1.3711 8.5938 3.0977 10.016 5.2305-6.6602 0.61328-10.016 0.96875-10.016 0.96875-13.469 46.797-20.23 70.168-20.23 70.168-0.8125-4.9258-1.168-7.3672-1.168-7.3672-2.7969 0.35547-5.6953 2.5938-8.7969 6.6562-1.7266 11.586-2.6406 17.379-2.6406 17.379-5.0352 7.8242-5.543 12.043-1.4258 12.602 7.7773-3 11.641-4.5234 11.641-4.5234-1.0664-4.0117-1.0156-6.9609 0.25391-8.7891 1.9844 6.0469 4.8828 7.418 8.5938 4.0625 2.1328-3.3008 1.168-5.9922-2.8477-8.0781 2.543-6.1992 3.8125-9.2969 3.8125-9.2969 1.7773 3.3516 4.0156 4.5703 6.6602 3.5547 3.9648-1.5234 5.2344-5.793 3.8125-12.855-3.5078-3.1484-6.5078-2.4883-9.0508 1.8828 2.8477-7.1641 5.543-10.012 8.082-8.5898 3.6602 1.1172 5.4922 1.6797 5.4922 1.6797 15.859-54.879 23.789-82.316 23.789-82.316-5.8438-3.6602-8.7422-7.0625-8.5898-10.215 6.9648-28.707 10.473-43.086 10.473-43.086 2.1836-2.8984 6.3047-3.8125 12.352-2.8477 2.2383 0 3.6602-0.86328 4.2695-2.5898 2.6953-10.926 4.0664-16.414 4.0664-16.414 3.3555-15.242 4.9844-22.863 4.9844-22.863-3.9648-2.6914-5.9492-4.0664-5.9492-4.0664 2.0859-1.5742 3.1016-2.3867 3.1016-2.3867 15.098-54.418 22.621-81.605 22.621-81.605-5.2344-7.6719-12.555-9.2969-21.91-4.9766-15.098 55.688-22.621 83.535-22.621 83.535 6.0508 0.76172 10.016 2.2344 11.895 4.5195-7.4219-1.5742-13.367-0.60938-17.945 2.8477-28.871 14.125-43.309 21.188-43.309 21.188zm-22.316 72.711c-9.5078 14.633-14.234 21.949-14.234 21.949s6.0508 17.43 18.098 52.336c0 0 1.1172-0.60937 3.3555-1.8789 0 0 4.1172 1.0156 12.352 3.1016 0 0 2.2383-7.7773 6.6602-23.324-2.2891 1.625-5.0312 2.1328-8.3359 1.4219 6.0977-1.5234 1.168-10.414-4.3203-2.8945-1.6797-11.18 10.469-12.652 13.824-4.9805 0 0 4.0664-14.023 12.148-42.121-3.8633-1.6797-6.0977-0.76562-6.6562 2.8438-0.60938 8.7383-3.9648 8.9414-10.016 0.71094 0 0-8.1836 3.5078-24.504 10.469 0 0 8.9492-7.875 26.895-23.578 0 0 5.4883-0.10156 16.418-0.25391 0 0-1.6758-3.25-4.9805-9.7539-5.3398-1.375-18.352-2.1367-39.043-2.3906-4.2695 7.3164-6.4023 10.926-6.4023 10.926 5.8945 4.9297 8.793 7.3672 8.793 7.3672zm-43.109-18.344c26.332-8.6875 53.938-11.484 82.812-8.332-56.227-13.516-103.6-8.3828-142.09 15.445 18.656-2.8945 41.074-3.6055 67.102-2.1328-5.2344-3.3555-7.8789-4.9805-7.8789-4.9805zm107.57 79.723c-2.6953 4.0156-1.4219 4.9297 3.8125 2.6445 33.195-29.727 52.816-57.672 58.816-83.738 1.0156-6.1992-2.543-10.723-10.727-13.566-7.4727-1.8281-12.301-7.2656-14.539-16.414-10.879 8.6914 2.1367 19.512 11.641 21.902 6.3047 2.6914 8.2852 7.3672 5.9492 14.023-6.3555 19.258-24.707 44.309-55.004 75.199zm219.15-180.38s-26.18-7.3672-45.699-10.723c0 0 18.809 7.3672 26.637 17.277 0 0-0.50781 0.35547-10.168 7.5195-1.625-1.168-5.5938-3.9648-11.438-3.8633 7.5742 6.7578 20.688 36.738 24.758 45.934 0 0-6.4062-9.8047-19.219-29.469-5.8438-8.9922-12.707-10.113-24.297-7.0625 0 0-29.23 10.211-92.418 32.266-1.5742-1.8828-0.60938-4.9805 2.8477-9.3008 0 0 21.758-17.121 65.219-51.371 0 0-18.555 5.6406-26.941 11.434 0 0 16.828-13.922 21.199-16.562-16.113-2.0352-38.023-3.7109-61.512-4.3711-4.0664-0.10156-8.1836 9.8086-11.844 28.758-0.30469-31.551-1.3203-36.43 4.2695-39.43 21.25-1.6758 157.95 6.6055 158.55 28.965zm12.605-57.367c10.93-5.7422 21.047-8.7383 30.246-9.043-8.5391-3.5586-23.23-2.6953-44.023 2.6406 0 0 4.1211-4.7266 12.355-14.176-49.82-8.4336-107.87 1.7266-174.26 30.438 0.15234 2.6914 5.4414 3.3008 11.895 2.8438 23.133-1.7266 61.715-3.1523 115.7-4.2695 9.6094-1.0664 18.352-4.2656 26.18-9.6523-1.1172 4.9297-1.6758 7.3672-1.6758 7.3672 5.0312 1.625 12.859-0.40625 23.586-6.1992zm354.16 204.97c78.996 9.707 126.43 123.73 84.742 194.61 10.012-10.77 17.332-25.051 21.906-42.832 0 0 3.6602-4.3711 8.0859-7.8789-2.1367 87.348-91.961 125.05-161.4 76.828 34.164 14.684 60.191 12.957 79.051 6.1992-44.836 4.9805-82.402-14.531-112.8-58.535 1.0195-1.2188 3.8633-0.10156 8.5938 3.3555 22.977 31.605 51.492 47.457 85.707 47.508 40.461 0.10156 64.609-22.508 74.32-53.352 18.91-59.957-22.215-148.88-88.148-165.95zm-69.289 88.363c36.043 17.074 54.039 25.609 54.039 25.609s0.8125 3.1484 2.3867 9.5c0 0 6.7109 8.1328 21.605 26.219 10.574 0.86328 18.504-1.2695 25.113-4.7227l-7.6758-16.973 13.879 12.957c22.52-17.734 19.875-55.742-8.6445-77.895 0 0-1.4219 1.1172-4.2695 3.3555 0 0-1.2695-2.543-3.8125-7.625-1.2695-3.9609-10.168-6.8086-26.637-8.5859 0 0-3.9648-4.1172-11.895-12.398 35.633-2.5391 68.117 16.617 81.031 44.918 12.961 28.402 4.8281 67.934-26.895 79.367-13.52 4.8789-31.262 5.4375-52.969 0.50781 0 0-52.664-13.312-158.04-39.988-11.488-4.0625-12.555-6.9609-3.3555-8.5859 0 0 52.512 13.312 157.59 39.988 0 0-14.285-13.312-42.852-39.988 0 0-2.8477-8.5859-8.5938-25.711zm29.789 34.855c-12.605-13.059-15.504-18.445-8.5898-16.156 15.859 6.5039 23.789 9.7539 23.789 9.7539 0.46094 4.7773 0.71484 7.1133 0.71484 7.1133-10.625-0.45703-15.965-0.71094-15.965-0.71094zm38.078 29.016c-3.8125-0.96484-5.6953-1.4258-5.6953-1.4258s-7.1172-5.7891-21.402-17.375h9.5078c11.742 12.551 17.59 18.801 17.59 18.801zm-79.457-134.65c3.5078-2.4375 5.2891-6.5547 3.6094-9.957 58.715 41.867 88.047 62.801 88.047 62.801 18.707 10.773 28.109 16.16 28.109 16.16-11.133 0.60938-16.672 0.96484-16.672 0.96484 4.3203 5.082 5.8945 9.3477 4.7773 12.855 4.2695 3.6055 7.1172 2.4883 8.5898-3.3555 5.0859 4.9297 5.0859 9.0469 0 12.348-25.059-9.5-37.617-14.277-37.617-14.277-3.8125 5.082-5.6914 7.6211-5.6914 7.6211-6.9648-6.9609-10.473-10.465-10.473-10.465 6.0508 0.60938 9.0469 0.96484 9.0469 0.96484-32.074-19.664-48.086-29.523-48.086-29.523-30.809-7.6211-46.16-11.434-46.16-11.434 26.637 1.5781 40.008 2.3906 40.008 2.3906 3.1523-6.3516 4.7773-9.5039 4.7773-9.5039 33.652 14.586 50.48 21.902 50.48 21.902-46.008-32.367-72.645-49.492-72.645-49.492zm-13.062-43.035c10.117 11.582 17.641 17.578 17.641 17.578 50.324-32.367 110.97-22.863 159.01 32.824-47.582-63.77-116.11-81.297-176.6-50.453zm-111.18 121.23s-11.895-3.1484-35.688-9.5c-3.9141-8.0312-1.6758-12.5 6.6602-13.312 2.7969 0.20312 6.2031-1.4766 10.219-4.9805 0 0-5.3359-3.1016-15.961-9.3008 1.1172 4.9805-1.0195 9.7578-6.4062 14.281-4.2695 3.707-8.7422 1.7266-13.32-5.9453v23.066c-0.25391 2.8477-2.2344 4.0156-5.9453 3.5586 0 0-1.2695-26.828-3.8125-80.438-0.20312-6.5547 2.1836-10.516 7.1172-11.887 0 0 0.40625 17.121 1.168 51.367 0.30469-1.9297 1.4727-3.8594 3.5586-5.6875 0.050782-1.6797 9.6602-6.0977 20.383-10.57 15.965-6.6562 35.535-13.82 38.891-14.633 8.6406 0.96484 9.1992 3.4531 1.6758 7.3672-21.859 14.328-42.598 16.258-17.586 27.133-4.6797 11.992-0.35547 30.742 9.0469 39.48zm-43.211-29.621c2.1367-0.96875 2.9492-2.4414 2.3906-4.4219-4.9297 0.35547-7.625-2.8984-8.082-9.7578-2.1367 2.9492-2.8984 5.6914-2.2383 8.2344 2.3398 5.4844 4.9844 7.4688 7.9805 5.9453zm73.203 104.82c-8.5391 10.312-27.703 23.879-57.34 40.699 43.207-19.512 69.234-34.348 78.082-44.512 1.9805-3.0469-0.5625-9.043-7.625-18.09-15.711 3.3555-23.59 4.9805-23.59 4.9805-29.688 2.2344-44.531 3.3555-44.531 3.3555-12.047-0.20703-20.688 2.793-25.926 9.043 53.938 2.9961 80.93 4.5234 80.93 4.5234zm-176.04-147.51h-8.5898c-8.6445 13.363-9.1523 32.062-1.8828 46.137 0 0-5.5391-0.30469-16.672-0.96484 0 0 3.6602 4.8281 10.93 14.531 0 0-1.6797 2.6445-4.9844 7.875 0 0 3.8633 2.6445 11.641 7.8789-6.5039-2.1875-12.453-4.9805-17.84-8.3359-0.25391-3.4531-1.1719-6.4023-2.8477-8.7891-1.7305-2.1328-3.9648-1.4219-6.6602 2.1328-1.2188-0.35547-3.9648-3.3008-8.3359-8.7891 0 0 0.96484 2.2344 2.8477 6.6562 0 0-1.1719 0.86328-3.5586 2.6406-7.9297-9.9062-7.625-21.645 0.96484-35.211 0 0 11.336-14.023 34.059-42.121 2.8984-4.8789 5.1836-8.2852 6.9141-10.215 11.133-4.1172 16.672-6.1992 16.672-6.1992 7.4727-1.168 12-0.91406 13.574 0.71094 6.9648 12.703 10.473 19.055 10.473 19.055-4.9336-1.2695-7.3711-1.8789-7.3711-1.8789 10.32 10.668 22.824 26.422 27.449 42.172 5.5938 19.156-3.5078 33.332-16.672 37.805-34.211 11.637-61.41-34.195-40.059-64.938zm37.719 50.203c3.9648-4.6758 6.5078-10.57 5.2344-18.801 0 0-10.215-2.3398-32.887-7.5703-1.5781 2.4883-1.5781 10.008-0.40625 20.223-12.66-18.344-4.5273-47.305 19.164-40.598 24.805 7.0117 23.891 45.219 8.9453 46.797zm-79.25-19.258c-2.4414 4.8242-1.1172 6.4531 3.9141 4.875 3.6602-3.6055 2.3398-5.2305-3.9141-4.875zm41.328-78.402c-6.6602-16.82-10.016-25.203-10.016-25.203 8.8984-9.3516 13.32-14.023 13.32-14.023 5.2344 7.4688 5.6406 8.0273 5.6406 8.0273 20.438 8.3828 60.902 18.902 55.309 27.895-36.5-13.16-54.75-19.766-54.75-19.766-6.3516 15.398-9.5039 23.07-9.5039 23.07zm-26.18-32.215c1.168 9.5508-3.4062 14.531-13.828 14.988-9.4531-1.0156-15.199-5.7422-17.129-14.023-2.0859 1.625-2.7969 4.7266-2.1367 9.2969 0 0-6.6602 2.543-19.977 7.625 1.5742 4.5195 0.15234 5.1797-4.2695 1.8789-4.2734-5.9453-3.1523-10.875 3.3516-14.734 0 0 1.0195 1.4219 3.1016 4.2656 0.81641-2.0312 1.7812-4.5703 2.8477-7.6211 0 0 8.1836-4.1172 24.504-12.348 9.0469-1.3203 16.926 2.2383 23.586 10.723zm40.465 175.81c6.25 1.2188 11.539 1.0156 15.961-0.71094-6.8125 4.3164-20.691 5.5859-41.633 3.8086 0 0-13.473-4.625-40.465-13.82-25.875-7.418-33.805-38.617-21.656-60.414 4.5234-7.2656 8.7461-14.328 12.609-21.188 2.2344-4.625 2.2344-9.0469 0-13.312-10.93-21.801-12.305-19.156-28.316-21.902-6-0.45703-9.3008-5.5391-9.9648-15.242 3.7109 1.625 6.6602 2.5898 8.7461 2.8438 12.301 1.6289 26.586 1.0156 32.891 11.891 5.1328 8.8906 8.6914 15.602 10.672 20.223 5.9492 12.703 2.9492 21.598-2.7422 30.641-6.1523 9.7539-13.473 19.156-13.727 29.773-0.20312 8.4375 4.0156 18.496 17.184 24.543 40.309 15.246 60.441 22.816 60.441 22.816zm-63.188 79.113c53.121 0.25391 81.691 0.35547 96.637 0.40625 10.777 0.050781 13.977 2.3867 15.25-7.2656 0.71094-5.2344 1.8281-13.262 3.3047-24.086 0.91406-4.5234-1.0195-10.977-8.5938-10.008 0 0-39.344 5.5352-118.04 16.664 0 0 15.098-0.8125 45.242-2.3867 0 0-11.285 8.8906-33.805 26.625zm94.754-19.055c3.5586 0 6.4062 2.6914 6.4062 6.0469 0 0.45703-0.050781 0.91406-0.15234 1.3203-0.45703-1.5234-1.9844-2.6914-3.7617-2.6914-2.1875 0-3.9141 1.6758-3.9141 3.707 0 1.6758 1.2188 3.1016 2.8477 3.5586-0.46094 0.10156-0.91797 0.15234-1.4258 0.15234-3.5586 0-6.4062-2.6953-6.4062-6.0469 0-3.3555 2.8984-6.0469 6.4062-6.0469zm-196.12 8.0781-7.1172 26.574c37.617-16.562 66.492-42.273 99.43-66.562 0 0 21.605-4.7773 64.766-14.277 0 0-27.758-1.4219-83.32-4.2695 0 0-5.082 2.543-15.25 7.6211 7.625 4.7773 13.828 7.8789 13.828 7.8789-19.621 22.406-44.328 40.801-66.289 54.113l-6.0469-11.078zm14.641-8.332c4.3711 0 7.8281-2.0312 10.469-6.1992-11.184-7.8242-12.555-20.984-11.133-33.332 1.0703-9.1992 4.9336-28.355 9-56.809-11.59 3.6602-16.93 28.965-18.352 61.125-1.0664 18.648 2.2891 30.387 10.016 35.215zm17.129-94.715c6.1523 6.0977 8.6445 13.059 7.4219 20.938 0 0-1.7266 8.5352-5.1328 25.609-2.1367 10.719-0.71094 19.406 7.9805 27.641 0 0-2.7461 2.8438-8.2852 8.5859-10.168-7.3672-13.879-18.801-11.234-34.246 0 0 3.0508-16.16 9.1992-48.527zm-5.4883-141.66c10.777 42.172 16.164 63.309 16.164 63.309s-4.4219 5.2344-13.32 15.703c0 0 3 0.45703 9.0508 1.4219 0 0 1.5742 9.5 4.7773 28.555 0.60938 3.5078-8.5898 10.469-27.602 20.938 11.336-8.4883 16.723-15.602 16.164-21.395 0 0-15.859-45.223-47.582-135.61 13.27-5.4883 22.316-5.793 27.148-0.96875 10.164 18.699 15.25 28.102 15.25 28.102zm-21.555-23.07c0.91406 0 1.7266 0.25391 2.4922 0.66016-1.6289 0.050781-2.9492 1.4727-2.9492 3.1523 0 1.7266 1.3711 3.1484 3.1016 3.1484 1.0156 0 1.9297-0.50781 2.4883-1.2695-0.20312 2.6914-2.4375 4.7773-5.082 4.7773-2.8477 0-5.1328-2.3398-5.1328-5.2344 0-2.8945 2.2852-5.2344 5.1328-5.2344zm23.688 69.613c0.91797 0 1.7305 0.25391 2.4922 0.66016-1.625 0.050781-2.9492 1.4727-2.9492 3.1484 0 1.7305 1.375 3.1523 3.1016 3.1523 1.0156 0 1.9336-0.50781 2.4922-1.2695-0.20312 2.6914-2.4414 4.7734-5.0859 4.7734-2.8438 0-5.1328-2.3359-5.1328-5.2305 0-2.8984 2.2891-5.2344 5.1328-5.2344zm294.69 2.9961c-32.84-0.20312-89.52-63.105-132.32-81.348 0 0 0.86328-0.86328 2.6406-2.6445-15.707-7.6719-27.906-13.516-36.648-17.629-11.285-10.316-14.793-23.477-10.473-39.48 7.4727-21.293 28.262-42.684 62.375-64.227 25.82-0.66016 43.207 3.0977 52.152 11.18-19.062-3.6602-34.465-3.8125-46.156-0.46094 12.711 6.9648 9.5078 5.2344 9.5078 5.2344-13.016 13.414-18.402 20.68-16.168 20.934 3.8125 3.8125 15.25 10.469 15.25 10.469-14.586-2.793-46.816-1.7266-55.711 0.45703 22.875 3.8125 40.664 6.3516 42.852 14.277-22.52 6.0469-27.602 12.855-27.602 12.855 13.164 2.0352 23.992 0.76172 24.145 2.2383-4.1172 3.1484-1.3203 5.8438-1.3203 5.8438 12.961 4.5195 35.531-12.652 52.867-13.672 18.961-1.1172 28.465 33.438 39.957 46.039-7.3711-7.5234-32.027-34.148-44.023-33.438-14.945 0.86719-41.734 14.484-58.309 13.465-2.2344 6.3516-3.3555 9.5039-3.3555 9.5039 4.3711 3.5547 9.7109 6.6562 15.965 9.2969-1.8828 2.3906-2.8477 3.5586-2.8477 3.5586 21.605 10.723 41.684 23.32 60.238 37.805 12.047 4.7227 23.027 1.2695 32.84-10.469 0.30469 9.3477 0.45703 14.023 0.45703 14.023 12.656 7.6719 7.4727 7.0625 13.266 7.3164 7.7266-6.7578 26.23-10.262 26.742-19.664 0.96484 14.891 1.4219 22.359 1.4219 22.359-3.7617 2.9961-30.652 10.008-33.652 20.02-1.2188 4.1133 11.844 14.277 16.062 16.156zm7.3711-81.602c10.168 6.3516 15.25 9.5 15.25 9.5 13.676-8.332 121.24-69.355 42.754-33.84-5.0859 2.2852-11.59-2.9453-18.961-3.25 0 0-21.402 2.9961-64.258 9.043 41.277-1.5742 61.867-2.3867 61.867-2.3867-24.453 13.973-36.652 20.934-36.652 20.934zm171.62-99.691c-44.277 17.273-66.391 25.91-66.391 25.91-1.0156-8.0781 14.438-19.152 46.414-33.332 19.367 1.1211 30.805 1.5273 30.805 1.5273-1.1172 6.6055-3.2031 11.531-6.3047 14.887-3-6.0469-4.5234-9.043-4.5234-9.043z" fill="#fff" fill-rule="evenodd"/>
</svg>
