<?xml version="1.0" encoding="UTF-8"?>
<svg width="1587" height="1587" version="1.0" viewBox="0 0 1190.2 1190.2" xmlns="http://www.w3.org/2000/svg" zoomAndPan="magnify">
 <defs>
  <clipPath id="a">
   <path d="m0 0h1189.5v1189.5h-1189.5z"/>
  </clipPath>
  <clipPath id="b">
   <path d="m560 111.41h629.5v544.59h-629.5z"/>
  </clipPath>
  <clipPath id="c">
   <path d="m183 683h390v395.3h-390z"/>
  </clipPath>
 </defs>
 <g clip-path="url(#a)" fill="none">
  <path d="m0 0h1189.5v1189.5h-1189.5z"/>
  <path d="m0 0h1189.5v1189.5h-1189.5z"/>
 </g>
 <path d="m246.04 350.35c2.4062 2.1562 5.0898 3.6602 8.0234 4.5156 2.4102 0.52734 4.7422 0.52734 6.9766 0 2.2305-0.52734 4.3125-1.457 6.2188-2.8359s3.6641-2.9336 5.293-4.668c1.6289-1.7305 3.1367-3.4336 4.5156-5.168 2.2305-2.4062 4.3906-4.9141 6.4727-7.5 2.0547-2.582 3.9609-5.3438 5.6914-8.2773 2.7617-4.9922 4.1406-10.012 4.1406-15.004 0-1.2031-0.074219-2.457-0.25-3.7617-0.17578-1.3047-0.42578-2.5352-0.77734-3.7656-0.52734-1.0273-1.082-2.1055-1.6836-3.2344-0.60156-1.1289-1.2539-2.1094-1.9297-2.9883-2.2344-2.9336-4.8164-5.168-7.75-6.7227-1.0312-0.52734-2.1602-0.77734-3.3633-0.77734l0.25-0.25c-0.17578 0.17578-0.52344 0.25-1.0273 0.25-1.3789 0.17578-2.832 0.70312-4.3906 1.5547-3.6094 1.3828-7.1484 3.5391-10.609 6.4727l-4.6641 4.668c-1.9062 2.0586-3.7656 4.1406-5.5703 6.2227-1.8047 2.082-3.5859 4.2383-5.293 6.4727-1.3789 1.7305-2.6836 3.4609-3.8867 5.168-1.2031 1.7305-2.2344 3.6133-3.1094 5.6953-2.4102 5.5195-2.082 11.113 1.0273 16.809 1.3789 2.6094 3.2852 4.9648 5.6953 7.125zm6.9727-38.688c0.17578 0 0.30078-0.050781 0.375-0.125 0.10156-0.074218 0.22656-0.125 0.40234-0.125 0.70312-0.52734 1.9062-1.1289 3.6094-1.8047 0 0.17578 0.10156 0.17578 0.25391 0l0.52734-0.52734c1.5547-0.67969 3.0078-1.1289 4.3867-1.3047 2.7617-0.17578 5.293 0.90234 7.625 3.2344 2.3359 2.3359 4.1914 4.6914 5.5703 7.125 1.7305 2.9375 2.6836 5.9961 2.8359 9.1836 0.17578 3.1875-0.17578 6.3477-1.0312 9.4336-2.0547 0.85156-4.2109 1.1289-6.4688 0.77734-1.9062-0.17578-3.6641-0.65234-5.293-1.4297-1.6328-0.77734-3.1367-1.7578-4.5156-2.9883-3.2852-2.7578-5.6953-6.043-7.25-9.832-1.5312-3.7656-1.8828-7.6523-1.0273-11.617z" fill="#ff5e00"/>
 <path d="m530.34 375.59h-516.88c-0.35156 0-0.78125 0.30078-1.3047 0.90234-0.52734 0.60156-0.85547 1.0039-1.0312 1.1523-0.85156 0.85547-1.6797 1.7812-2.457 2.7109-0.77734 0.95313-1.582 1.8555-2.457 2.7109-0.85547 1.0273-1.6328 2.0312-2.332 2.9844-0.67969 0.95312-1.3828 1.8555-2.082 2.7109l-1.7813 2.6094h30.273c-0.35156 0.69922-0.77734 1.3047-1.3047 1.8047-0.52344 0.52734-0.95312 1.0273-1.3008 1.5547l-0.25391 0.25c-0.17578 0.17578-0.30078 0.35156-0.375 0.52734-0.10156 0.17578-0.22656 0.35156-0.375 0.52734-0.35156 0.52734-0.60156 0.95312-0.77734 1.3047 5.3398 2.2344 9.4062 6.1211 12.164 11.641 1.2031 2.5859 1.8047 5.3438 1.8047 8.2812 0 2.9336-0.42578 5.7695-1.3047 8.5273-0.34766 0.70312-0.65234 1.332-0.90234 1.9336s-0.55078 1.2539-0.90234 1.9297c-0.35156 0.17578-0.55078 0.35156-0.65234 0.52734-0.10156 0.17578-0.30078 0.35156-0.65234 0.52734-1.7305 1.3789-3.3594 2.8359-4.9141 4.3906-1.5586 1.5547-3.1133 3.1094-4.668 4.668-0.52734 0.52734-1.0781 1.0273-1.6797 1.5547-0.60156 0.52734-1.2539 1.1289-1.9336 1.8047-0.34766 0-1.2031 0.82812-2.582 2.4609-1.3789 1.6289-2.8359 3.4102-4.3906 5.293-0.85156 1.0273-1.7812 2.1055-2.707 3.2344-0.95312 1.1289-1.8555 2.2852-2.7109 3.4883-0.35156 0.52734-0.65234 1.0039-0.90234 1.4297-0.25 0.42578-0.22656 1.0039 0.125 1.6797 0.17578 0.85547 0.52734 1.5586 1.0273 2.0586 0.52734 0.52734 1.0312 1.1289 1.5586 1.8047 1.0273 1.3828 2.1562 2.5859 3.3594 3.6133 1.2031 1.0312 2.5078 2.082 3.8867 3.1133 1.3828 0.85156 2.7617 1.7812 4.1406 2.707 1.3789 0.95312 2.7578 1.9336 4.1367 2.9883 1.5586 1.2031 3.0117 2.457 4.3906 3.7617 1.3789 1.3047 2.7617 2.6328 4.1406 4.0156 2.9336 2.9336 5.8672 5.7695 8.8047 8.5273 2.9336 2.7617 5.7695 5.5977 8.5273 8.5312 4.6641 4.8398 7.8516 10.359 9.582 16.559 0.85156 3.1094 1.4297 6.2461 1.6797 9.4336 0.25391 3.1836 0.30078 6.4219 0.125 9.707-0.17578 3.2891-0.47656 6.4727-0.90234 9.5859-0.42578 3.1094-1.0781 6.2969-1.9297 9.582-0.17578 0.35156-0.35156 0.77734-0.52734 1.3047-0.17578 0.52734-0.35156 0.95312-0.52734 1.3047-0.70312 2.0586-1.6289 4.3164-2.8359 6.7227-0.17578 0-0.25 0.074218-0.25 0.25-0.85156 0.85547-1.7305 1.8086-2.582 2.8359-0.85547 1.0273-1.7305 2.082-2.5859 3.1133-0.69922 0.85156-1.3281 1.6797-1.9297 2.457-0.60156 0.77734-1.1523 1.6055-1.6797 2.457 0.17578-0.35156 0-0.17578-0.52734 0.52734-0.52734 0.67969-0.52734 0.85547 0 0.52734 2.582-2.0586 4.9922-4.3906 7.25-6.9727 2.2305-2.5859 4.3867-5.168 6.4688-7.7539 1.5586-1.9062 3.0625-3.8398 4.5156-5.8203 1.457-1.9805 2.8867-4.1875 4.2656-6.5977 1.5547-2.9336 2.8086-5.8945 3.7617-8.9297 0.95312-3.0117 1.6797-6.0742 2.207-9.1836 0.52734-3.2852 0.90234-6.5469 1.1562-9.8359 0.25-3.2852 0.22266-6.5469-0.125-9.832-0.35156-6.2227-1.9102-12.168-4.668-17.863-1.3789-2.7617-3.0586-5.2695-5.043-7.5039-1.9805-2.2305-4.0117-4.3867-6.0703-6.4727-1.9062-1.9062-3.8867-3.8359-5.9414-5.8203-2.0586-1.9805-4.0664-3.9102-5.9453-5.8203h38.527c0.22656 2.9102 0.62891 5.7461 1.3047 8.5312 1.3789 5.0195 3.4375 9.7109 6.2188 14.102 2.7617 4.3867 6.2969 8.0508 10.613 10.988 4.8164 3.2852 9.9062 4.8398 15.25 4.6641 2.4062 0 4.793-0.42578 7.125-1.3047 2.332-0.85156 4.4375-1.9805 6.3438-3.3594 1.3828-1.0312 2.6836-2.1602 3.8906-3.3633 1.2031-1.2031 2.4062-2.5078 3.6094-3.8906 2.2344-2.4062 4.3906-4.8672 6.4727-7.375 0.62891-0.75 1.2031-1.5547 1.8047-2.332v55.52l2.3359-2.0586 4.6641-5.4414c0.85156-0.85547 1.6289-1.8086 2.332-2.8359 0.67969-1.0273 1.457-1.9805 2.332-2.8359 0.17578-0.35156 0.52734-0.77734 1.0312-1.3047 0.52734-0.52734 0.77734-0.95313 0.77734-1.3047v-134.8h22.75c-0.35156 0.35156-0.72656 0.77734-1.1523 1.3047-0.42578 0.52734-0.65234 0.95313-0.65234 1.3047v147.99l2.332-2.0547 4.6641-5.4453c0.85547-0.85156 1.6328-1.8047 2.3359-2.8359 0.67578-1.0273 1.4531-1.9805 2.332-2.832 0.17578-0.35156 0.52734-0.78125 1.0273-1.3047 0.52734-0.52734 0.77734-0.95312 0.77734-1.3047v-134.8h95.719c-0.34766 0.35156-0.72656 0.77734-1.1523 1.3047-0.42578 0.52734-0.65234 0.95312-0.65234 1.3047v27.223c-1.6055 0.097656-3.1836 0.17578-4.7891 0.32422-6.4727 0.60156-12.895 1.6836-19.266 3.2383-6.2227 1.5547-11.891 3.7109-17.082 6.4727-2.7578 1.5547-5.168 3.1836-7.25 4.918-1.7305 1.3789-3.3594 2.8828-4.918 4.5156-1.5547 1.6289-3.1094 3.4102-4.6641 5.293-2.7578 3.1094-5.4414 6.3477-8.0273 9.707-2.582 3.3633-4.5625 7.0273-5.9453 10.988-1.5547 3.9648-2.1562 8.457-1.8047 13.449 0.17578 5.0156 1.0273 9.832 2.582 14.5 1.5586 4.668 3.4375 9.1328 5.6953 13.449 2.0586 4.1367 4.4414 8.1523 7.125 12.039 2.6836 3.8906 5.4688 7.5547 8.4023 10.988 1.5547-1.3789 2.707-2.5312 3.4883-3.4844 0.77734-0.95312 1.9297-2.2852 3.4844-4.0156 0.85156-1.0273 1.6797-2.0312 2.457-2.9844 0.78125-0.95312 1.5078-1.8555 2.2109-2.7109 0.34766-0.52734 0.67578-0.95312 1.0273-1.3047 0.52734-0.52734 0.77734-0.95312 0.77734-1.3047-3.2852-3.7891-6.2969-7.7266-9.0547-11.766-2.7617-4.0391-5.2695-8.3281-7.5-12.793-2.0586-4.4922-3.8398-9.0586-5.293-13.727-1.4805-4.6641-2.207-9.4805-2.207-14.5 0-4.3125 0.60156-8.2773 1.8047-11.891 0.35156-0.35156 0.52734-0.67578 0.52734-1.0273 1.3789-1.0312 2.5078-1.7344 3.3594-2.082 4.1406-2.4102 8.5039-4.2656 13.07-5.5703 4.5664-1.3047 9.1797-2.3594 13.848-3.2383 9.3789-1.4805 18.711-2.2305 27.941-2.3086v105.55l2.332-2.0586 4.668-5.4414c0.85156-0.85547 1.6289-1.8086 2.332-2.8359 0.67578-1.0273 1.4531-1.9844 2.332-2.8359 0.17578-0.35156 0.52734-0.77734 1.0273-1.3047 0.52734-0.52734 0.77734-0.95313 0.77734-1.3047v-103.99c0.10156-0.10156 0.15234-0.17578 0.25391-0.27734 0.35156-0.35156 0.67578-0.77734 1.0273-1.3047-0.42578 0-0.85156 0.027343-1.3047 0.027343v-29.277h114.36l-0.52734 0.52344c0.17578 0-0.10156 0.37891-0.77734 1.1562-0.70312 0.77734-0.95312 1.2539-0.77734 1.4297 2.582 3.1094 5.4688 5.9961 8.6758 8.6797 3.1875 2.6836 5.7461 5.8203 7.6289 9.4336 2.2305 3.9648 3.2344 8.4062 2.9844 13.32-0.25 4.918-1.0781 9.4336-2.4609 13.574-0.85156 2.2344-1.7305 4.1406-2.582 5.6953-0.35156 0.52734-0.55078 1.0039-0.65234 1.4297s-0.30078 0.82812-0.65234 1.1523l-0.52734 1.0312c-1.8555 1.6562-3.7617 3.1836-5.6914 4.6641-5.0938-3.4102-10.312-6.4961-15.652-9.207-5.6211-2.8359-11.164-5.8203-16.684-8.9297-5.3398-3.1133-10.434-6.6484-15.25-10.613-2.4062-2.082-4.6641-4.3164-6.7227-6.7227-0.35156-0.52734-0.77734-1.0781-1.3047-1.6797-0.52734-0.60547-0.95312-1.2578-1.3047-1.9336-0.52734-0.52734-0.95313-1.1289-1.3047-1.8047-0.17578 0-0.60156 0.125-1.3047 0.375-0.69922 0.25-1.1289 0.47656-1.3047 0.65234-3.6094 1.5547-7.0234 3.4609-10.207 5.6953-3.1875 2.2305-6.2461 4.6172-9.1797 7.125-2.9375 2.5078-5.9219 5.0156-8.9297 7.5-3.0117 2.5078-6.1719 4.6914-9.4336 6.5977-0.35156 0.17578-0.67578 0.35156-1.0273 0.52734-0.35156 0.17578-0.67969 0.35156-1.0273 0.52734-0.52734 0.35156-0.95313 0.70312-1.3047 1.0273-0.35156 0.35156-0.67969 0.70312-1.0312 1.0312-0.85156 0.85156-1.6797 1.7812-2.457 2.707-0.77734 0.95312-1.6055 1.8594-2.457 2.7109-0.85547 1.0273-1.6328 2.0312-2.332 2.9844-0.67969 0.95312-1.3828 1.8555-2.0586 2.7109-0.35156 0.35156-0.55078 0.60156-0.65234 0.77734-0.074219 0.17578-0.22656 0.35156-0.375 0.52734-0.17578 0.35156-0.30078 0.55078-0.40234 0.65234-0.074219 0.097657-0.22656 0.30078-0.375 0.65234 3.2852-1.5547 6.3711-3.4375 9.3047-5.6953 2.9336-2.2344 5.8203-4.5156 8.6797-6.8477 2.832-2.3359 5.6953-4.6172 8.5273-6.8516 2.8359-2.2305 5.8203-4.3164 8.9297-6.2227 0.67969-0.35156 1.332-0.67578 1.9336-1.0273s1.2539-0.67578 1.9297-1.0273c0.35156-0.17578 0.67578-0.30078 1.0273-0.37891 0.35156-0.074219 0.67969-0.22266 1.0312-0.375 0.17578-0.17578 0.35156-0.25 0.52734-0.25 0.17188 0 0.34766-0.074219 0.52344-0.25l0.77734 1.3047c1.5586 2.2305 3.6133 4.6641 6.2227 7.25 2.0586 2.2305 4.3633 4.3125 6.8477 6.2188 2.5078 1.9102 5.043 3.7148 7.625 5.4453 4.9922 3.1133 10.184 5.9961 15.527 8.6797 5.3438 2.6875 10.512 5.5703 15.527 8.6836-8.8047 5.8672-17.207 12.293-25.234 19.266-8.0273 6.9727-15.828 14.352-23.402 22.129-4.668 4.8398-9.1836 9.7578-13.57 14.75-4.3906 4.9922-8.832 10.012-13.32 15.004-0.85156 1.0273-1.6797 2.0547-2.457 3.1094-0.77734 1.0312-1.6055 2.0586-2.4609 3.1133-0.52734 0.69922-1.0273 1.3281-1.5547 1.9297-0.52734 0.60156-0.95312 1.2539-1.3047 1.9336-0.35156 0.70312-0.25 0.72656 0.25 0.125 0.52734-0.60156 0.70312-0.82812 0.52734-0.65234 0.85547-0.85547 1.6055-1.6328 2.207-2.332 0.60547-0.67969 1.2539-1.457 1.9336-2.3359 0.67578-0.67578 1.3047-1.3281 1.8047-1.9297 0.52734-0.60156 1.0273-1.2539 1.5547-1.9336 0.35156-0.35156 0.60156-0.52734 0.77734-0.52734 0.67969-1.0273 1.207-1.7305 1.5586-2.082 0.67578-0.67578 1.3008-1.3281 1.8047-1.9297 0.52734-0.60156 1.1289-1.2539 1.8047-1.9336 0.17578-0.17578 0.30078-0.35156 0.37891-0.52734 0.074219-0.17578 0.30078-0.35156 0.64844-0.52734 0.17578-0.17578 0.40234-0.47656 0.65234-0.90234 0.25391-0.42578 0.55469-0.72656 0.90625-0.90234 0.52344-0.67578 1.0273-1.3281 1.5547-1.9336 0.52734-0.60156 1.1289-1.1523 1.8047-1.6797 0.52734-0.67578 1.1289-1.3047 1.8047-1.8047 0.17578-0.35156 0.42969-0.67969 0.78125-1.0312l0.52344-0.52734c1.207-1.2031 2.3594-2.4062 3.4883-3.6094 1.1289-1.207 2.3594-2.5117 3.7617-3.8906 4.9922-4.8164 10.133-9.5312 15.402-14.098 5.2656-4.5664 10.734-8.9336 16.43-13.07 3.6875-2.7852 7.5-5.3945 11.414-7.8789-0.027343 0.125-0.074219 0.27734-0.027343 0.35156 2.4102 6.0469 5.6445 11.641 9.7109 16.809 4.0625 5.168 8.5781 9.8359 13.57 13.973 2.4062 1.9062 4.8633 3.7148 7.3711 5.4453 2.5117 1.7305 5.2188 3.1094 8.1523 4.1406 4.1406 1.7305 8.707 2.832 13.723 3.3594 3.9648 0.52734 7.9258 0.65234 11.891 0.37891 3.9609-0.25391 7.6758-1.332 11.137-3.2383 1.5547-0.67578 3.1094-1.7305 4.6641-3.1094 0.85547-0.85547 1.6328-1.6836 2.3359-2.4609 0.67578-0.77734 1.4531-1.6055 2.332-2.457 1.1289-1.2539 2.2305-2.5352 3.3594-3.8398v33.316l2.332-2.0547 4.668-5.4453c0.85156-0.85156 1.6289-1.8047 2.332-2.8359 0.67578-1.0273 1.4531-1.9805 2.332-2.832 0.17578-0.35156 0.52734-0.78125 1.0273-1.3047 0.52734-0.52734 0.78125-0.95703 0.78125-1.3047v-134.8h26.664c0.34766 0 0.77734-0.30078 1.3008-0.90234 0.52734-0.60156 0.85547-0.97656 1.0312-1.1523l4.6641-5.4453c0.85156-0.85156 1.6328-1.8047 2.332-2.8359 0.67969-1.0273 1.457-1.9805 2.3359-2.832l0.77734-1.3047c0.35156-0.52734 0.67578-0.95312 1.0273-1.3047h-8.2266zm-491.52 78.398c-0.35156 0-0.77734 0.30078-1.3047 0.90234-0.52734 0.60547-0.85547 1.0039-1.0312 1.1562-0.34766 0.35156-0.55078 0.60156-0.65234 0.77734-0.097656 0.17578-0.30078 0.35156-0.64844 0.52734l-3.1133-2.332c-1.3789-0.85547-2.582-1.7578-3.6094-2.7109-1.0312-0.95313-2.082-1.9336-3.1133-2.9844-0.35156-0.35156-0.77734-0.77734-1.3047-1.3047-0.52344-0.52734-0.95312-1.1289-1.3047-1.8086 0.85547-0.67578 1.6328-1.3281 2.3359-1.9297 0.67578-0.60156 1.3789-1.2539 2.082-1.9336 2.4062-2.4062 4.7383-4.918 6.9727-7.5 2.2305-2.5859 4.4883-5.168 6.7227-7.7539 1.7305-2.0547 3.4102-4.2148 5.043-6.4727 1.6289-2.2305 3.0586-4.5664 4.2617-6.9727 1.3789-2.9375 2.2852-5.8984 2.7109-8.9336 0.42578-3.0078 0.22266-5.9961-0.65234-8.9297-0.35156-0.85156-0.65234-1.6328-0.90234-2.332-0.25391-0.67969-0.55469-1.3828-0.90625-2.0586h102.47c-0.35156 0.35156-0.72656 0.77734-1.1523 1.3047-0.42578 0.52734-0.65234 0.95313-0.65234 1.3047v19.996c-1.2812-0.35156-2.5586-0.65234-3.8906-0.82812-4.3125-0.67969-8.7031-0.77734-13.191-0.25-4.4922 0.52344-8.8047 1.4766-12.945 2.832-2.0547 0.85547-3.9102 1.8594-5.5664 2.9883-1.6328 1.1289-3.2383 2.457-4.793 4.0117-5.168 5.168-10.082 11.039-14.75 17.586-1.7305 2.2344-3.1094 4.668-4.1367 7.25-0.90234 2.1094-1.6055 4.2656-2.1562 6.4727h-50.82zm111.5 22.754c-0.70312 1.0312-1.4531 1.9844-2.332 2.8359-0.17578 0.35156-0.47656 0.77734-0.90234 1.3047s-0.65234 0.95312-0.65234 1.3047c-0.35156 2.5859-0.85547 5.168-1.5547 7.7539-4.1406 1.9062-8.4531 2.6836-12.945 2.332-2.9336-0.35156-5.6172-1.1289-8.0273-2.332-2.4062-1.207-4.7383-2.7617-6.9727-4.668-3.9609-3.1094-7.1484-6.9727-9.582-11.641-2.4062-4.668-4.0625-9.4844-4.9141-14.5-0.17578-0.77734-0.30469-1.582-0.42969-2.3828 0.078125-0.078125 0.10156-0.15234 0.17578-0.20312l0.77734-1.3047c0.35156-0.52734 0.67969-0.95312 1.0312-1.3047h-2.3359c-0.22266-2.3555-0.27344-4.7656-0.125-7.25 0.25391-4.3125 1.0781-8.4531 2.4609-12.418 0.17578-0.35156 0.25-0.55078 0.25-0.65234 0-0.074219 0.074219-0.30078 0.25-0.65234 3.4375-1.9062 7.1992-3.1367 11.262-3.7617 4.0391-0.60156 8.0547-0.90234 12.043-0.90234 3.7852 0.17188 7.75 0.82422 11.887 1.9297 4.1406 1.1289 7.3281 3.4141 9.582 6.8477 0.52734 0.70312 0.90625 1.4336 1.1562 2.2109s0.47656 1.6055 0.65234 2.457v33.969c-0.22656 0.40234-0.52734 0.67969-0.75391 1.0273zm335.15-84.094c-0.42969 0.52734-0.65234 0.95312-0.65234 1.3047v107.3c-0.10156 0.10156-0.15234 0.22656-0.25391 0.32812-0.17188 0.35156-0.47656 0.77734-0.90234 1.3047-0.42578 0.52734-0.65234 0.95313-0.65234 1.3047s-0.050781 0.60156-0.125 0.77734c-0.097656 0.17578-0.125 0.42578-0.125 0.77734-3.7891 1.3789-7.7266 2.1055-11.766 2.207-4.0625 0.10156-8.0508-0.22656-12.039-0.90234-2.4062-0.52734-4.7891-1.1289-7.125-1.8086-2.332-0.67578-4.6133-1.5547-6.8477-2.582-2.9336-1.5547-5.6172-3.2852-8.0273-5.168-2.4062-1.9062-4.8398-3.9648-7.2461-6.2227-3.4609-3.1094-6.6992-6.4961-9.707-10.211-2.8867-3.5625-5.3438-7.3008-7.3516-11.266 0.52734-0.17578 1.5039-1.1289 2.9609-2.832 0.35156-0.42969 0.75-0.90625 1.1289-1.3555 1.6797-1.4805 3.2852-3.0117 4.8398-4.6172 2.8359-2.9336 5.6445-5.9453 8.4023-9.0547 3.1133-3.6133 6.2227-7.3789 9.3086-11.266 3.1094-3.8906 5.5938-8.0547 7.5-12.543 2.7578-6.0469 4.1367-12.07 4.1367-18.113 0.35156-6.7266-1.6289-12.773-5.9453-18.117l-0.52344-0.52344h42.188c-0.375 0.34766-0.75 0.77734-1.1758 1.2773z" fill="#ff5e00"/>
 <path d="m610.53 166.5c0-0.027344-0.023438-0.027344-0.023438-0.050781 0 0.023437-0.027344 0.023437-0.027344 0.050781z" fill="#ff5e00"/>
 <g clip-path="url(#b)">
  <path d="m1162.9 375.59h-410.3c-0.17578-0.17578-0.25391-0.52734-0.25391-1.0312-0.17578 0-0.60156 0.35156-1.3047 1.0312h-116.66c-10.359-5.5195-19.438-12.496-27.289-20.949-7.8516-8.4531-14.352-17.863-19.543-28.199-6.3711-12.594-10.434-25.84-12.164-39.715-1.7305-13.871-1.457-27.82 0.77734-41.797 1.5547-9.4805 4.0625-19.066 7.5-28.723 2.582-7.2539 5.5195-14.152 8.8047-20.699l5.4414-10.086c0.35156-0.85156 0.77734-1.6289 1.3047-2.332 0.52734-0.67969 1.0312-1.457 1.5547-2.332 0.17578-0.52734 0.60156-1.3047 1.3047-2.3359 0.35156-0.35156 0.52734-0.67578 0.52734-1.0273 0.17578 0 0.35156-0.074219 0.52734-0.25s0.25-0.35156 0.25-0.52734c0.35156-0.67969 0.77734-1.3789 1.3047-2.082 0.52734-0.67969 0.95313-1.3828 1.3047-2.0586 0.35156-0.35156 0.85156-1.0273 1.5547-2.082l0.77734-0.77734v-0.25l0.25-0.25391c0.35156-0.34766 0.55469-0.65234 0.65234-0.90234 0.10156-0.25 0.30078-0.55078 0.65234-0.90234-0.17578 0.17578-0.25 0.22656-0.25 0.125 0-0.074219 0.10156-0.22656 0.25-0.375v0.25c0.17578-0.17578 0.25391-0.35156 0.25391-0.52734h0.25c0.050781-0.074219 0.14844-0.17578 0.19922-0.25h-0.19922c0.14844-0.15234 0.19922-0.125 0.22656-0.050782 0.32422-0.45312 0.75-0.92969 1.3047-1.5039h0.25c0.17578-0.35156 0.35156-0.55469 0.52734-0.65234 0.17578-0.078124 0.35156-0.30078 0.52344-0.65234 1.3828-1.3789 2.5586-2.5078 3.4883-3.3633 0.95312-0.85156 2.1055-1.9805 3.4883-3.3594 3.4609-2.9375 6.8984-5.6484 10.359-8.1562 3.4336-2.5078 7.1484-4.8672 11.109-7.125 11.566-6.5469 23.98-10.863 37.25-12.945 6.3711-0.85156 12.82-1.2031 19.266-1.0273 6.4727 0.17578 12.895 0.85156 19.266 2.082 12.941 2.4102 25.133 6.8242 36.598 13.195 11.461 6.375 21.695 14.402 30.652 24.059 9.1289 10.012 16.504 21.176 22.121 33.52 5.5938 12.344 9.3594 25.238 11.266 38.684 1.9062 11.742 2.2812 23.508 1.1523 35.324-1.1289 11.816-3.6602 23.332-7.625 34.547-1.0273 2.5859-2.082 5.168-3.1094 7.7539-1.0312 2.582-2.2344 5.0898-3.6133 7.5-0.70312 1.2031-1.3281 2.4102-1.9297 3.6133-0.60547 1.2031-1.332 2.4062-2.2109 3.6133-0.34766 0.70312-0.64844 1.2031-0.90234 1.5547-0.25 0.35156-0.65234 0.85156-1.1523 1.5547 0 0.17578-0.050781 0.25-0.125 0.25-0.10156 0-0.125 0.10156-0.125 0.25391-0.52734 0.52344-1.0312 1.0273-1.5547 1.5547-0.52734 0.52734-1.207 1.1289-2.0586 1.8047-4.1406 3.4609-8.5273 6.5469-13.195 9.3086-4.8398 2.582-9.7812 4.6914-14.875 6.3477-5.0898 1.6289-10.309 2.6328-15.652 2.9844-0.35156 0-0.77734 0.30078-1.3047 0.90234-0.52344 0.60156-0.85156 1.0039-1.0273 1.1562-0.85156 0.85156-1.6797 1.7812-2.457 2.707-0.77734 0.95312-1.6055 1.9336-2.457 2.9883-0.85547 0.85156-1.6328 1.7812-2.3359 2.707-0.69922 0.95312-1.3789 1.9336-2.0547 2.9883l-0.25 0.25c-0.17578 0.17578-0.30078 0.35156-0.37891 0.52734-0.097656 0.17578-0.22656 0.35156-0.39844 0.52734-0.35156 0.52344-0.60547 0.95312-0.78125 1.3047 7.0742-0.67969 13.848-2.3359 20.32-4.918 6.4727-2.5859 12.543-5.8711 18.234-9.8359 3.4375-2.4062 6.5977-4.9922 9.4336-7.75 2.832-2.7617 5.6445-5.6953 8.4023-8.8086 3.7891-4.3125 7.4492-8.6797 10.988-13.07 3.5352-4.3906 6.7695-9.0078 9.707-13.848 7.25-12.066 12.289-25.141 15.125-39.215 2.832-14.047 3.7617-28.07 2.707-42.047-1.0273-13.445-3.8867-26.566-8.5273-39.336-4.6641-12.77-11.113-24.586-19.414-35.449-8.1016-10.363-17.633-19.191-28.598-26.52-10.961-7.3242-22.801-12.719-35.566-16.18-12.594-3.4375-25.438-4.8672-38.555-4.2656-13.121 0.60156-25.711 3.6641-37.777 9.1797-6.2188 2.7617-12.113 6.0742-17.707 9.9609-5.5938 3.8906-10.914 8.0547-15.906 12.543-3.2852 2.9375-6.3711 5.9961-9.3047 9.1836-2.9336 3.1875-5.8711 6.4219-8.8047 9.7109-3.4375 3.9609-6.6719 7.9023-9.707 11.766-3.0117 3.8867-5.9961 7.9766-8.9297 12.293-8.6289 12.418-15.727 25.613-21.348 39.59-5.5938 13.973-9.1797 28.547-10.734 43.727-1.3789 13.973-0.77734 27.695 1.8047 41.145 2.5859 13.445 7.4258 26.215 14.5 38.285 2.9336 4.8398 6.1211 9.4336 9.582 13.848 3.4609 4.3906 7.25 8.5039 11.387 12.293h-11.637c-0.35156 0-0.73047 0.30078-1.1562 0.90234-0.42578 0.60156-0.72656 1.0039-0.90234 1.1562-0.85156 0.85156-1.6797 1.7812-2.457 2.707-0.77734 0.95312-1.6055 1.8594-2.4609 2.7109-0.85156 1.0273-1.6289 2.0312-2.332 2.9844-0.67578 0.95312-1.4531 1.8555-2.332 2.7109-0.17578 0.17578-0.25 0.35156-0.25 0.52734-0.17578 0.17578-0.25 0.30078-0.25 0.375 0 0.10156-0.078125 0.22656-0.25391 0.40234-0.35156 0.52734-0.60156 0.95312-0.77734 1.3047h46.832c0.85156 0.52734 1.7812 1.0039 2.7109 1.4297 0.95312 0.42578 1.8555 0.82812 2.707 1.1523v148l2.332-2.0586 4.668-5.4453c0.85156-0.85156 1.6289-1.8047 2.332-2.832 0.67578-1.0312 1.4531-1.9844 2.332-2.8359 0.17578-0.35156 0.47656-0.77734 0.90234-1.3047 0.42969-0.52734 0.65234-0.95312 0.65234-1.3047v-134.8h99.633c1.0312 3.9648 0.85547 7.9258-0.52344 11.891v0.25c-1.9062 1.3789-3.8398 2.7109-5.8203 4.0156-1.9844 1.3047-3.9141 2.6328-5.8203 4.0117-3.4609 2.2344-6.7734 4.6172-9.957 7.125-3.1875 2.5117-6.2461 5.1445-9.1836 7.9062-5.1641 4.6641-10.082 9.4805-14.746 14.5-4.668 5.0156-9.2344 10.184-13.723 15.527-2.4062 2.5859-4.7422 5.6211-6.9727 9.0586-1.3789 1.7305-2.4102 3.3594-3.1094 4.918-0.35156 1.0273-0.60547 2.1055-0.77734 3.2344-0.17578 1.1289-0.35156 2.2852-0.52734 3.4883-0.17578 3.2852 0 6.8984 0.52734 10.863 0.52344 3.4609 1.5039 6.7227 2.9844 9.832 1.4531 3.1133 3.4102 5.8711 5.8164 8.2812 4.8164 4.6641 10.438 7.75 16.809 9.3086 3.4375 0.85156 6.8984 1.0039 10.359 0.375 3.4375-0.60156 6.7227-1.6797 9.832-3.2383 2.4102-1.2031 4.793-2.4062 7.125-3.6094 2.332-1.207 4.5156-2.6875 6.5977-4.3906 1.3789 2.0547 2.8828 4.0625 4.5156 5.9453 1.6289 1.9062 3.2344 3.7891 4.7891 5.6953 2.0586 2.582 4.0156 5.2656 5.8203 8.0273 1.8047 2.7578 3.6602 5.5195 5.5664 8.2773 1.9062 2.9375 3.7891 5.9492 5.6953 9.0586s3.6133 6.2969 5.168 9.582c1.5547 3.4648 2.8828 6.9023 4.0117 10.363 1.1289 3.4375 1.9336 7.0742 2.4609 10.863 0.85156 6.5469 0.95312 13.094 0.25 19.668-0.70312 6.5469-2.082 12.945-4.1406 19.141-1.5547 3.6133-3.1836 7.1523-4.9141 10.613-0.35156 0.85547-0.72656 1.6328-1.1562 2.332-0.42578 0.67969-0.90234 1.3828-1.4297 2.0586l-0.77734 0.77734c-1.3789 1.2031-2.8086 2.332-4.2617 3.3633-1.4805 1.0273-2.9883 1.9805-4.5156 2.8359-6.5469 3.6094-13.547 5.7695-20.945 6.4727-7.4258 0.67578-14.574-0.42969-21.473-3.3633-5.5195-2.5859-10.211-6.3477-14.098-11.266-3.8867-4.918-6.5977-10.309-8.1523-16.18-1.9062-7.6016-1.6289-15.105 0.77734-22.504 0.35156-0.70312 0.60156-1.3047 0.77734-1.8086 0.17578-0.52734 0.42578-1.1289 0.77734-1.8047 0.67969-0.52734 1.3828-1.0039 2.082-1.4297 0.67969-0.42578 1.3828-0.82812 2.0586-1.1562 6.7227-3.9609 14.047-5.7695 22-5.4414 0.34766 0.17578 0.77734-0.10156 1.3008-0.77734 0.52734-0.70312 0.85547-1.1289 1.0312-1.3047l4.6641-5.4453c0.85156-0.85156 1.6328-1.7812 2.332-2.7109 0.67969-0.95312 1.457-1.9297 2.3359-2.9844-0.17578 0.17578 0.074218-0.25 0.77734-1.3047 0.35156-0.52734 0.67578-0.95312 1.0273-1.3047-6.7227-0.35156-12.844 0.77734-18.363 3.3633-6.043 2.7578-11.461 6.8242-16.305 12.168-2.582 2.7578-5.1406 5.5938-7.625 8.5273-2.5078 2.9375-4.8672 6.0469-7.1211 9.3086-1.5586 2.4102-3.1133 5.3438-4.668 8.8047-2.2305 5.8711-2.9336 11.816-2.0547 17.863 0.67578 6.0469 2.6328 11.715 5.8164 17.086 3.1875 5.3438 7.2773 9.7344 12.293 13.195 6.043 3.9648 12.816 6.0703 20.316 6.3477 7.5 0.25 14.523-0.90234 21.098-3.4883 3.2852-1.3789 6.3711-3.0078 9.3047-4.918 2.9336-1.9062 5.6953-4.0625 8.2773-6.4727 2.2344-2.082 4.3906-4.2383 6.4727-6.4727 2.082-2.2305 4.0625-4.5625 5.9453-6.9727 1.9062-2.2344 3.7617-4.5156 5.5664-6.8477 1.8086-2.3359 3.4883-4.6914 5.043-7.125 8.6289-12.77 13.195-26.996 13.723-42.703 0.35156-8.1016-0.52734-15.602-2.5859-22.504-0.85156-3.4336-2.0312-6.8477-3.4844-10.207-1.457-3.3633-3.1602-6.6016-5.043-9.7109-1.7305-3.2852-3.5859-6.4219-5.5703-9.4336-1.9805-3.0117-4.0117-5.9961-6.0703-8.9297-0.85156-1.3828-1.7305-2.7109-2.582-4.0156-0.85156-1.3047-1.7305-2.5352-2.582-3.7617-0.85547-1.207-1.8086-2.3594-2.8359-3.4883-1.0273-1.1289-1.9805-2.207-2.8359-3.2344-0.85156-0.85547-1.6289-1.8086-2.332-2.8359-0.70312-1.0312-1.4805-2.0586-2.332-3.1133 0.85156-1.2031 1.7305-2.332 2.582-3.3594 0.85547-1.0312 1.6328-2.2344 2.3359-3.6133 0.85156-1.3789 1.5039-2.7617 1.9297-4.1406 0.42578-1.3789 0.82812-2.7578 1.1523-4.1406 0.35156-1.3789 0.60156-2.8086 0.77734-4.2617 0.17578-1.457 0.078126-2.8867-0.25-4.2656-0.35156-1.3789-1.0781-2.4609-2.207-3.2383-1.1289-0.77734-2.3828-0.97656-3.7617-0.65234-1.0273 0.17578-2.2344 0.70312-3.6133 1.5586l-1.5547 1.5547c0-0.17578-0.70312 0.52734-2.082 2.0547-0.85156 0.85547-1.6797 1.8086-2.457 2.8359-0.77734 1.0273-1.6055 1.9844-2.4609 2.8359-1.9062 2.2305-3.7109 4.4922-5.4414 6.7227-1.7305 2.2344-2.9336 4.7422-3.6133 7.5-0.52734 2.0586-0.65234 4.0664-0.375 5.9492 0.25 1.9062 0.82812 3.7852 1.6797 5.6914-3.1094 1.207-6.1211 1.9102-9.0547 2.0586-3.4609 0.35156-6.7227-0.050781-9.832-1.1523-3.1094-1.1289-6.1211-2.6367-9.0547-4.5156-2.9375-2.082-5.4453-4.1406-7.5-6.2227-1.0312-1.2031-1.9336-2.5352-2.7109-4.0156-0.77734-1.4531-1.5039-2.8828-2.207-4.2656-1.3789-3.4336-2.2305-6.9727-2.582-10.609-0.35156-3.6133-0.25391-7.25 0.25-10.863 0-0.85547 0.17578-1.8086 0.52734-2.8359l0.77734-1.5547c0-0.35156 0.17578-0.67969 0.52734-1.0312v-0.25c0.52344-0.35156 0.95312-0.77734 1.3047-1.3047 0.52344-0.52734 1.0273-0.97656 1.5547-1.4297 0.52734-0.42578 0.95312-0.90234 1.3047-1.4297 0.52344-0.35156 1.0273-0.77734 1.5547-1.3047 0.52734-0.52734 0.95312-0.95312 1.3047-1.3047l2.332-2.332c1.7305-1.7305 3.6133-3.3633 5.6914-4.918 1.3828-1.3789 2.8125-2.6836 4.2656-3.8867 1.457-1.207 2.9844-2.4102 4.5156-3.6133 1.7305-1.3828 3.4375-2.6367 5.168-3.7656 1.7305-1.1289 3.5352-2.2812 5.4414-3.4844 2.4102-1.5586 4.793-3.1875 7.125-4.918 2.332-1.7305 4.5156-3.5391 6.5977-5.4453 2.4062-2.2344 4.6641-4.6172 6.7227-7.125 2.082-2.5078 4.1367-5.043 6.2188-7.625 1.0312-1.3828 2.0312-2.7109 2.9883-4.0156 0.95313-1.3047 1.8555-2.6328 2.707-4.0156h122.61c-0.35156 0.35156-0.72656 0.78125-1.1523 1.3047-0.42578 0.52734-0.65234 0.95312-0.65234 1.3047v32.992c-1.457 0.55078-2.9102 1.1523-4.3906 1.6797-6.7227 2.4102-13.117 5.3438-19.137 8.8086-6.8984 4.1367-13.445 8.8789-19.668 14.223-5.8711 4.8438-11.289 10.062-16.305 15.656-5.0156 5.6172-9.7578 11.441-14.223 17.461-2.4062 3.2852-4.5664 6.8477-6.4727 10.738-1.9062 3.8867-2.582 7.9023-2.0547 12.043 0.17578 1.9062 0.65234 3.6602 1.4297 5.293 0.77734 1.6289 1.7539 3.1602 2.9844 4.5156 1.7305 1.9062 3.6641 3.4883 5.8203 4.7891 2.1562 1.3047 4.4375 1.7812 6.8477 1.4336 2.2305-0.17578 4.3125-0.95312 6.2188-2.3359 1.3828-1.0273 2.4102-1.9062 3.1133-2.582 1.3789-1.3789 2.6836-2.8125 3.8867-4.2656 1.2031-1.457 2.5078-2.8867 3.8867-4.2656 2.5859-3.1094 4.9922-6.2461 7.25-9.4336 2.2344-3.1836 3.9648-6.7734 5.168-10.738 0.85156-2.9336 1.3047-5.9453 1.3047-9.0547 0-3.1133-0.17578-6.2227-0.52734-9.3086-0.35156-2.9336-0.85156-5.7695-1.5547-8.5312-0.70312-2.7578-1.6289-5.4414-2.8359-8.0273 0.52734-0.35156 1.0781-0.72656 1.6836-1.1523 0.60156-0.42578 1.2539-0.82812 1.9297-1.1562 6.0469-3.4375 12.316-6.2969 18.887-8.5273 5.8203-1.9844 11.414-4.293 16.809-6.8242v104.64l2.332-2.0586 4.6641-5.4414c0.85547-0.85547 1.6328-1.8086 2.3359-2.8359 0.67578-1.0273 1.4531-1.9805 2.332-2.8359 0.17578-0.35156 0.52734-0.77734 1.0273-1.3047 0.52734-0.52734 0.77734-0.95312 0.77734-1.3047v-102.63c0.074219-0.10156 0.17578-0.25 0.25-0.35156 0.52734-0.52734 0.85547-0.95312 1.0312-1.3047 0.17578-0.35156 0.30078-0.55078 0.375-0.65234 0.074219-0.074218 0.22656-0.30078 0.375-0.65234-0.67578 0.30078-1.3789 0.57812-2.082 0.87891v-30.105h22.777c-0.35156 0.35156-0.72656 0.77734-1.1523 1.3047-0.42969 0.52734-0.65234 0.95312-0.65234 1.3047v147.99l2.332-2.0586 4.6641-5.4414c0.85547-0.85547 1.6328-1.8086 2.332-2.8359 0.67969-1.0273 1.457-1.9805 2.3359-2.8359 0.17578-0.35156 0.52344-0.77734 1.0273-1.3047 0.52734-0.52734 0.77734-0.95312 0.77734-1.3047v-134.8h126.22l-0.52734 0.52734c0.17578 0-0.10156 0.375-0.77734 1.1523-0.70312 0.78125-0.95312 1.2578-0.77734 1.4297 2.582 3.1133 5.4688 5.9961 8.6797 8.6836 3.1836 2.6836 5.7422 5.8203 7.625 9.4336 2.2305 3.9609 3.2344 8.4023 2.9844 13.32s-1.0781 9.4336-2.457 13.57c-0.85547 2.2344-1.7305 4.1406-2.5859 5.6953-0.35156 0.52734-0.55078 1.0039-0.65234 1.4336-0.097656 0.42578-0.30078 0.82422-0.65234 1.1523l-0.52734 1.0273c-3.1094 2.7617-6.3438 5.293-9.707 7.6289-3.3594 2.332-6.7695 4.5156-10.207 6.5977-0.70312 0.35156-1.1289 0.52734-1.3047 0.52734l-1.0273 1.0273c-0.35156 0.35156-0.70312 0.70312-1.0312 1.0273-0.046875 0.050781-0.074219 0.078125-0.125 0.125 1.2539-1.6523 2.5078-3.3086 3.7383-4.9141 2.0586-2.6875 3.9648-5.4688 5.6953-8.4062 0.85156-1.3789 1.7305-3.0117 2.582-4.918 0.35156-0.85156 0.67969-1.7305 1.0273-2.582 0.35156-0.85547 0.52734-1.8086 0.52734-2.8359-0.52734 0.35156-0.95312 0.70312-1.3047 1.0273l-1.0273 1.0312c-0.85156 0.85156-1.6289 1.7812-2.332 2.707-0.70312 0.95312-1.4805 1.9336-2.332 2.9883-0.85547 0.85156-1.6328 1.7812-2.3359 2.707-0.69922 0.95312-1.4531 1.9336-2.332 2.9883-0.17578 0.17187-0.52734 0.55078-1.0273 1.1523-0.52734 0.60156-0.77734 1.0781-0.77734 1.4297 0 1.0273-0.10156 1.8047-0.25 2.332-1.0312 2.9375-2.332 5.5195-3.8906 7.7539v0.25l-0.25 0.25c-0.35156 0.35156-0.65234 0.60156-0.90234 0.77734s-0.55078 0.42969-0.90234 0.78125c-1.3789 1.0273-2.7617 2.0312-4.1406 2.9844s-2.7578 1.8555-4.1367 2.707c-3.7891 2.0859-7.8008 3.6133-12.043 4.668-4.2383 1.0273-8.5 0.95312-12.789-0.25-5.0195-1.5547-9.1055-4.5664-12.293-9.0586-3.1875-4.4883-5.293-9.2305-6.3477-14.223-0.69922-4.3164-0.25-8.707 1.3047-13.199 0.35156-0.85156 0.72656-1.7539 1.1562-2.707 0.42578-0.95312 0.90234-1.8555 1.4297-2.7109 0.35156-0.52734 0.60156-0.97656 0.77734-1.4297 0.17578-0.42578 0.42578-0.90234 0.77734-1.4297 0.17578 0 0.25-0.074218 0.25-0.25 0.17578-0.17578 0.25-0.35156 0.25-0.52734 0.52734-0.52734 0.85547-0.95312 1.0312-1.3047 0.34766-0.67578 0.60156-1.1289 0.77734-1.3047h0.25c0-0.35156 0.074218-0.52734 0.25-0.52734 0.17578-0.17578 0.30078-0.35156 0.375-0.52734 0.078124-0.17578 0.22656-0.35156 0.37891-0.52734h12.414c0.35156 0 0.73047-0.35156 1.1562-1.0273 0.42578-0.67578 0.72656-1.0273 0.90234-1.0273 1.7305-1.7305 3.3594-3.6133 4.9141-5.6953 0.85547-0.85547 1.6328-1.7578 2.3359-2.7109 0.67578-0.95312 1.4531-1.9297 2.332-2.9844-0.17578 0.17578 0.074219-0.25 0.77734-1.3047 0.35156-0.52734 0.60156-0.95312 0.77734-1.3047h-73.473c-0.17578 0-0.60156 0.35156-1.3008 1.0273-0.35156 0.35156-0.60547 0.70312-0.78125 1.0312-0.85156 0.85156-1.6797 1.8047-2.457 2.832-0.77734 1.0312-1.6055 1.9844-2.457 2.8359-0.85156 0.85156-1.6328 1.7812-2.332 2.7109-0.67969 0.95312-1.457 1.9297-2.3359 2.9844 0.17578-0.17578-0.074219 0.22656-0.77734 1.1523-0.67578 0.95312-0.95312 1.4336-0.77734 1.4336h59.25c-0.70312 0.85156-1.3281 1.6797-1.9336 2.457-0.60156 0.77734-1.2539 1.6055-1.9297 2.457-0.17578 0.17578-0.25 0.30078-0.25 0.40234 0 0.10156-0.10156 0.22656-0.25 0.375-0.35156 0.35156-0.60547 0.65234-0.78125 0.90625-0.17188 0.25-0.34766 0.55078-0.52344 0.90234l-3.1133 3.8867c-1.0273 1.5586-2.1055 3.1133-3.2344 4.668-1.1289 1.5547-2.207 3.1094-3.2344 4.668-1.5586 2.4062-2.8359 5.0391-3.8906 7.9023-1.0273 2.832-1.6289 5.7422-1.8047 8.6523 0 3.2891 0.55078 6.4258 1.6797 9.4336 1.1289 3.0117 2.5352 5.8203 4.2656 8.4062 2.7578 4.3125 6.1211 7.4258 10.082 9.3086 3.9648 1.9062 8.1016 2.5586 12.418 1.9297 4.3125-0.60156 8.4531-1.8555 12.418-3.7617 5.6914-2.5859 10.809-6.0742 15.398-10.488 2.4609-2.3828 4.8438-4.8164 7.125-7.3242-0.35156 0.5-0.70312 0.97656-1.0547 1.5039-0.17578 0-0.55078 0.35156-1.1523 1.0273-0.60156 0.70312-0.82813 1.207-0.65234 1.5586 2.4062 6.043 5.6445 11.641 9.707 16.809 4.0391 5.168 8.5781 9.832 13.57 13.973 2.4102 1.9062 4.8672 3.7148 7.375 5.4453 2.5078 1.7305 5.2188 3.1094 8.1523 4.1367 4.1406 1.7344 8.7031 2.8359 13.723 3.3633 3.9609 0.52734 7.9258 0.65234 11.887 0.375 3.9648-0.25 7.6758-1.3281 11.141-3.2344 1.5547-0.67969 3.1094-1.7305 4.6641-3.1133 0.85156-0.85156 1.6289-1.6797 2.332-2.457 0.67578-0.77734 1.457-1.6055 2.332-2.457 1.1289-1.2539 2.2344-2.5352 3.3633-3.8398v33.316l2.332-2.0586 4.6641-5.4414c0.85547-0.85547 1.6328-1.8086 2.3359-2.8359 0.67578-1.0273 1.4531-1.9805 2.332-2.8359 0.17578-0.35156 0.52734-0.77734 1.0273-1.3047 0.52734-0.52734 0.77734-0.95312 0.77734-1.3047v-134.8h22.777c-0.35156 0.35156-0.72656 0.77734-1.1562 1.3047-0.42578 0.52734-0.65234 0.95312-0.65234 1.3047v148l2.3359-2.0586 4.6641-5.4453c0.85156-0.85156 1.6289-1.8047 2.332-2.8359 0.67969-1.0273 1.457-1.9805 2.332-2.832 0.17578-0.35156 0.52734-0.77734 1.0312-1.3047 0.52734-0.52734 0.77734-0.95312 0.77734-1.3047v-134.8h18.637c0.35156 0 0.77734-0.30469 1.3047-0.90625 0.52734-0.60156 0.85156-0.97656 1.0273-1.1523l4.6641-5.4453c0.85547-0.85156 1.6328-1.8047 2.3359-2.8359 0.67578-1.0273 1.4531-1.9805 2.332-2.832l0.77734-1.3047c0.35156-0.52734 0.67578-0.95312 1.0273-1.3047h-26.688zm-482.46 81.109c0.17578-0.25 0.42578-0.55078 0.77734-0.90234-0.70312 0.85156-0.95312 1.1523-0.77734 0.90234zm128.71 14.875c0.074219 0-0.050781 0.17578-0.37891 0.52734 0.15234-0.35156 0.27734-0.52734 0.37891-0.52734zm12.539 35.703c-2.582 0.69922-5.2656 0.52734-8.0273-0.52734-1.9062-0.67969-3.5859-1.7305-5.0391-3.1133-1.4805-1.3789-2.7109-2.832-3.7617-4.3906-1.9062-2.582-2.8867-5.3438-2.9883-8.2773-0.097656-2.9336 0.37891-5.8711 1.4297-8.8047l2.3359-5.4453c0.35156-0.35156 0.60156-0.77734 0.77734-1.3047s0.42578-0.95312 0.77734-1.3047c0.35156-0.17578 0.55078-0.35156 0.65234-0.52734 0.074219-0.17578 0.22266-0.35156 0.39844-0.52734 0.17578 0 0.35156-0.074219 0.52734-0.25l1.5547-1.5547c1.207-1.2031 2.1602-2.082 2.8359-2.5859 0.52734-0.35156 0.98047-0.72656 1.4297-1.1523 0.42578-0.42578 0.90234-0.82812 1.4297-1.1562v0.25391c2.2344 3.1094 3.8867 6.5469 4.918 10.359 1.0273 3.7891 1.7305 7.6758 2.0547 11.641 0.35156 3.1133 0.47656 6.2227 0.37891 9.3086-0.10156 3.1602-0.65234 6.2461-1.6836 9.3594zm288.32-114.63c-0.42578 0.52734-0.65234 0.95312-0.65234 1.3047v107.3c-0.10156 0.10156-0.15234 0.22656-0.25 0.32812-0.17578 0.35156-0.47656 0.77734-0.90234 1.3047-0.42969 0.52734-0.65234 0.95313-0.65234 1.3047s-0.050782 0.60156-0.125 0.77734c-0.10156 0.17578-0.12891 0.42578-0.12891 0.77734-3.7852 1.3789-7.7227 2.1055-11.762 2.207-4.0664 0.10156-8.0547-0.22656-12.043-0.90234-2.4062-0.52734-4.7891-1.1289-7.1211-1.8086-2.332-0.67578-4.6172-1.5547-6.8477-2.582-2.9375-1.5547-5.6211-3.2852-8.0273-5.168-2.4102-1.9062-4.8438-3.9648-7.25-6.2227-3.4609-3.1094-6.6992-6.4961-9.707-10.211-3.0117-3.7109-5.5703-7.625-7.625-11.766 3.2852-2.5859 6.3438-5.3438 9.1797-8.2773 2.8359-2.9375 5.6445-5.9492 8.4023-9.0586 3.1094-3.6133 6.2227-7.375 9.3086-11.266 3.1094-3.8867 5.5938-8.0508 7.5-12.543 2.7578-6.0469 4.1367-12.066 4.1367-18.113 0.35156-6.7227-1.6289-12.77-5.9453-18.113l-0.52734-0.52734h42.168c-0.32812 0.32422-0.70312 0.75391-1.1289 1.2539z" fill="#ff5e00"/>
 </g>
 <path d="m302.1 723.2-0.027344 0.027344h0.050782c0-0.027344-0.023438-0.027344-0.023438-0.027344z" fill="#0c0"/>
 <g clip-path="url(#c)">
  <path d="m475 874.94h-44.426l0.50391-0.75391c-2.7617 0.375-5.4688 0.35156-8.1797-0.10156-2.6836-0.42578-5.1641-1.4023-7.4219-2.9102-1.3047-0.82812-2.4609-1.7539-3.5117-2.7852 3.5859-1.6523 7.0234-3.5859 10.258-5.8438 2.5078-1.7578 4.793-3.6367 6.8477-5.6211 2.0586-2.0039 4.0898-4.1367 6.0977-6.3711 2.7578-3.1367 5.418-6.2969 7.9766-9.4844 2.5586-3.1836 4.9141-6.5469 7.0469-10.035 5.2695-8.7539 8.9062-18.238 10.988-28.449 2.0547-10.211 2.7344-20.371 1.9805-30.508-0.75391-9.7578-2.8086-19.266-6.1953-28.523-3.3867-9.2578-8.0781-17.836-14.074-25.715-5.8945-7.5-12.793-13.926-20.742-19.242-7.9531-5.3203-16.555-9.2344-25.812-11.742-9.1289-2.5078-18.461-3.5352-27.969-3.0859-9.5078 0.45312-18.637 2.6602-27.418 6.6758-4.5117 2.0039-8.8047 4.4141-12.867 7.2227-4.0625 2.8125-7.9258 5.8477-11.539 9.1094-2.3828 2.1289-4.6406 4.3398-6.7461 6.6719-2.1328 2.3086-4.2656 4.668-6.3711 7.0508-2.5078 2.8828-4.8398 5.7188-7.0508 8.5547-2.1797 2.8086-4.3359 5.793-6.4688 8.9062-6.2461 9.0039-11.414 18.59-15.477 28.727-4.0664 10.133-6.6719 20.723-7.8008 31.734-1.0039 10.137-0.55469 20.098 1.3008 29.855 1.8828 9.7578 5.3945 19.016 10.512 27.797 2.1328 3.5117 4.4414 6.8477 6.9492 10.035s5.2656 6.1719 8.2539 8.9062h-100.21c-0.25391 0-0.55469 0.22656-0.92969 0.65234-0.375 0.45313-0.625 0.72656-0.75391 0.85156l-3.3828 3.9414c-0.62891 0.75-1.2305 1.4805-1.7812 2.1562-0.55469 0.67578-1.1055 1.3555-1.6055 1.9805l-1.3047 1.8828h78.461c-0.25 0.25-0.375 0.45313-0.375 0.55078-0.125 0.25391-0.37891 0.55469-0.75391 0.92969s-0.55078 0.67578-0.55078 0.92969c0.125 1.7539 0.14844 3.4375 0.10156 5.0664-0.078125 1.6289-0.22656 3.2617-0.47656 4.8906-1.7578 0.62891-3.5898 0.98047-5.5469 1.0312-1.9297 0.074219-3.8359 0.097656-5.7188 0.097656-2.7578 0-5.4414 0.10156-8.0742 0.27734-2.6367 0.17578-5.2695 0.60156-7.8789 1.2305-2.5078 0.5-4.9648 1.2266-7.4219 2.1562-2.4336 0.92969-4.793 2.1094-7.0508 3.4609-1.1289 0.75391-2.1328 1.5586-3.0117 2.4336-3.0078 3.0117-5.8945 6.375-8.6289 10.137-0.75 1.0039-1.3789 2.0312-1.8789 3.0859-0.50391 1.0547-0.87891 2.2852-1.1289 3.6641-0.25 2.1328 0.125 4.2148 1.1289 6.2969 1.0039 2.0547 2.2578 3.7891 3.7617 5.168 1.6328 1.6289 3.6367 2.9336 5.9961 3.9375-1.8828 1.8828-3.6875 3.8398-5.4453 5.9219-1.7539 2.0586-3.4336 4.1641-5.0664 6.2969-0.87891 1.1289-1.6562 2.2578-2.3555 3.3867-0.67969 1.1289-1.3555 2.3828-1.9844 3.7617-1.0039 2.2578-1.7812 4.6445-2.3555 7.125-0.55469 2.5117-0.90234 5.0195-1.0312 7.5039-0.125 2.6328 0.15234 5.1406 0.85547 7.5 0.67578 2.3828 1.6562 4.7656 2.9102 7.125 2.5078 5.0195 5.4414 9.6602 8.8281 13.973 3.3867 4.3164 7.0742 8.4805 11.086 12.496 4.0156 3.8867 7.9766 7.75 11.918 11.641 3.9375 3.8867 7.2227 8.3281 9.8555 13.32 1.7578 3.5117 2.9336 7.1992 3.5625 11.09 0.62891 3.8867 0.30078 7.625-0.92969 11.266l-0.17578 0.375c-1.7539 1.0039-3.8125 1.6289-6.1953 1.8828-0.25 0-0.55078 0.22266-0.92578 0.65234-0.37891 0.42578-0.62891 0.72656-0.75391 0.85156-0.625 0.62891-1.2305 1.2812-1.7812 1.9805-0.55078 0.67969-1.1523 1.3555-1.7812 1.9844-0.625 0.625-1.1797 1.3047-1.6797 2.0547-0.5 0.75391-1.0039 1.4336-1.5039 2.0586l-0.17578 0.17578c-0.125 0.125-0.22656 0.25-0.27734 0.375-0.074218 0.12891-0.14844 0.25391-0.27344 0.37891-0.25391 0.375-0.45312 0.67578-0.55469 0.92578 2.3828-0.25 4.543-0.90234 6.4727-1.9805 1.9297-1.0547 3.7109-2.4102 5.3438-4.0391 2.2578-2.2578 4.5156-4.8164 6.7461-7.7031 0.87891-1.0039 1.6797-2.0312 2.4336-3.0859 0.75391-1.0508 1.5039-2.1055 2.2578-3.0859 1.1289-1.7539 2.0586-3.7617 2.8086-5.9961 1.5039-5.1406 1.3789-10.16-0.375-15.102-1.7578-4.9414-4.0625-9.4062-6.9492-13.422-3.3867-4.6406-7.1992-8.8047-11.438-12.496-4.2656-3.6875-8.2539-7.6758-12.016-11.914-1.8828-2.1328-3.6367-4.2891-5.2695-6.4727-1.6289-2.1836-3.1836-4.4648-4.6875-6.8516-1.3828-2.2578-2.7344-4.5898-4.0391-7.0469-1.3047-2.4336-2.2852-4.9688-2.9102-7.6016-0.75391-3.1367-0.92969-6.2969-0.55078-9.4844 0.375-3.1875 1.0508-6.2969 2.0547-9.2812 0.25-0.62891 0.50391-1.1797 0.75391-1.6836 0.25-0.5 0.5-1.0039 0.75-1.5039 0.37891-0.25 0.73047-0.52734 1.0312-0.85156 0.30078-0.30078 0.65234-0.60547 1.0273-0.85547 0.87891-0.625 1.7578-1.2266 2.6328-1.7812 0.87891-0.55078 1.7578-1.1016 2.6367-1.6055l1.1289-1.1289c0.5 0.25 0.97656 0.375 1.4023 0.375s0.90234 0.078125 1.4062 0.17578c2.6328 0.37891 5.2656 0.40234 7.875 0.10156 2.6328-0.30078 5.1914-0.60156 7.6992-0.85156 2.6367-0.25 5.2695-0.37891 7.8789-0.37891s5.1914 0.30469 7.6992 0.92969c2.8867 0.62891 5.4961 1.8086 7.8789 3.5625 2.3828 1.7578 4.0117 4.0664 4.8906 6.9492 0.75 2.5078 0.92578 5.043 0.55078 7.6016-0.375 2.5586-1.0039 5.043-1.8828 7.4258-0.625 1.3789-1.2266 2.7109-1.7812 4.0391-0.55078 1.3047-1.2266 2.6602-1.9805 4.0391-0.25 0.50391-0.17578 0.52734 0.17578 0.10156 0.375-0.42578 0.50391-0.60156 0.375-0.47656 0.62891-0.62891 1.1562-1.1797 1.6055-1.6797 0.42969-0.50391 0.90625-1.0547 1.4062-1.6836 0.62891-0.75 1.2539-1.5039 1.8828-2.2578 0.625-0.75 1.2539-1.5039 1.8789-2.2578 0.87891-0.87891 1.5547-1.8047 2.0586-2.8086 1.8789-3.2617 3.4609-6.8242 4.7891-10.715 1.3047-3.8867 1.6055-7.6992 0.85547-11.438-0.50391-2.5078-1.5078-4.5664-3.0117-6.1992-1.5039-1.6289-3.3125-2.9336-5.4414-3.9375-2.1328-1.0039-4.3906-1.6797-6.75-2.0586-2.3828-0.375-4.6914-0.55078-6.9453-0.55078-2.2578 0-4.543 0.15234-6.8516 0.47656-2.3047 0.32812-4.6406 0.55078-6.9453 0.75391-2.3086 0.17578-4.5898 0.17578-6.8477 0-2.2578-0.17578-4.5156-0.65234-6.75-1.4062-3.0078-1.0039-5.7695-2.8828-8.25-5.6172-2.5117-2.7617-3.7656-5.7461-3.7656-9.0078 4.3906-2.0078 8.8828-3.2852 13.523-3.8398 4.6133-0.55078 9.3281-0.85156 14.07-0.85156 2.6328 0 5.2188-0.22656 7.8008-0.65234 2.5586-0.42578 4.918-1.4062 7.0469-2.9102 0.75391-0.50391 1.4336-1.1055 2.0586-1.7812 0.62891-0.67969 1.2539-1.3555 1.8828-1.9844 1.3789-1.5039 2.707-3.0352 4.0391-4.5898 1.3008-1.5547 2.5312-3.2109 3.6602-4.9648 0.62891-0.87891 1.0547-1.7578 1.3047-2.6367 0.25-0.87891 0.5-1.8047 0.75391-2.8086 0.125-0.50391 0.22266-0.92969 0.27344-1.3047s0.15234-0.80469 0.27734-1.3047h20.066c-0.25 0.25-0.52734 0.55078-0.85156 0.92969-0.32812 0.375-0.47656 0.67578-0.47656 0.92578v107.4l1.6797-1.5039 3.3867-3.9414c0.625-0.625 1.1797-1.3047 1.6797-2.0547 0.50391-0.75391 1.0547-1.4297 1.6797-2.0586 0.125-0.25 0.37891-0.55078 0.75391-0.92969 0.375-0.375 0.55078-0.67578 0.55078-0.92578v-97.996h11.09c0.625 0.37891 1.2773 0.73047 1.9805 1.0312 0.67578 0.30078 1.3555 0.60156 1.9805 0.85156v107.4l1.6797-1.5039 3.3867-3.9414c0.62891-0.625 1.1797-1.3047 1.6836-2.0547 0.5-0.75391 1.0508-1.4336 1.6797-2.0586 0.125-0.25 0.35156-0.55078 0.65234-0.92969 0.30078-0.375 0.47656-0.67578 0.47656-0.92578v-97.871h72.266c0.75391 2.8867 0.62891 5.7734-0.375 8.6328v0.17578c-1.3789 1.0039-2.7852 1.9805-4.2148 2.9102-1.4297 0.92578-2.8594 1.9062-4.2148 2.9102-2.5078 1.6289-4.9141 3.3594-7.2227 5.168-2.3086 1.8047-4.543 3.7109-6.6719 5.7188-3.7656 3.3867-7.3242 6.875-10.711 10.512-3.3867 3.6367-6.6992 7.375-9.9609 11.266-1.7539 1.8828-3.4336 4.0625-5.0664 6.5742-1.0039 1.2539-1.7539 2.4336-2.2578 3.5625-0.25 0.75-0.44922 1.5273-0.55078 2.3555-0.125 0.82812-0.25 1.6562-0.375 2.5352-0.125 2.3828 0 5.0156 0.375 7.8789 0.375 2.5078 1.1055 4.8906 2.1562 7.125 1.0547 2.2578 2.4609 4.2617 4.2148 5.9961 3.5117 3.3867 7.5742 5.6172 12.191 6.7461 2.5078 0.62891 5.0156 0.73047 7.5 0.27734 2.5078-0.42578 4.8906-1.2305 7.125-2.3594 1.7539-0.87891 3.4609-1.7539 5.1641-2.6328 1.6836-0.87891 3.2891-1.9336 4.793-3.1875 1.0039 1.5078 2.082 2.9375 3.2852 4.3164 1.1797 1.3789 2.3594 2.7578 3.4609 4.1406 1.5078 1.8789 2.9102 3.8125 4.2148 5.8203 1.3047 2.0039 2.6602 4.0117 4.0391 5.9961 1.3789 2.1328 2.7578 4.3125 4.1406 6.5703 1.3789 2.2578 2.6328 4.5664 3.7617 6.9492 1.1289 2.5117 2.082 5.0195 2.9102 7.5039 0.80078 2.5078 1.4023 5.1406 1.7812 7.875 0.625 4.7695 0.67578 9.5078 0.17578 14.277-0.50391 4.7656-1.5078 9.3828-3.0117 13.898-1.1289 2.6328-2.3086 5.1914-3.5625 7.7031-0.25 0.625-0.52734 1.1758-0.85156 1.6797-0.30078 0.5-0.65234 1.0039-1.0312 1.5039l-0.55078 0.55469c-1.0039 0.875-2.0312 1.6797-3.0859 2.4297-1.0508 0.75391-2.1562 1.4336-3.2852 2.0586-4.7656 2.6328-9.832 4.1914-15.199 4.6914-5.3945 0.50391-10.586-0.32422-15.578-2.4336-4.0117-1.8828-7.4258-4.5898-10.234-8.1797-2.8086-3.5625-4.7891-7.4766-5.918-11.738-1.3828-5.5195-1.1797-10.965 0.55078-16.332 0.25-0.50391 0.42578-0.92969 0.55078-1.3047 0.125-0.37891 0.30078-0.80469 0.55078-1.3047 0.50391-0.37891 1.0039-0.73047 1.5078-1.0312 0.5-0.30078 1.0039-0.60156 1.5039-0.85156 4.8906-2.8867 10.211-4.1914 15.953-3.9375 0.25 0.125 0.55078-0.078125 0.92969-0.55469 0.375-0.5 0.625-0.80078 0.75-0.92578l3.3867-3.9414c0.62891-0.625 1.1797-1.2773 1.6797-1.9805 0.50391-0.67578 1.0547-1.4062 1.6836-2.1562-0.125 0.125 0.046876-0.17578 0.55078-0.92969 0.25-0.375 0.5-0.67578 0.75391-0.92969-4.8945-0.25-9.332 0.55469-13.32 2.4336-4.3906 2.0078-8.3281 4.9453-11.816 8.832-1.8789 2.0078-3.7109 4.0664-5.543 6.1953-1.8047 2.1328-3.5352 4.3906-5.168 6.75-1.1289 1.7578-2.2578 3.8906-3.3867 6.3711-1.6289 4.2656-2.1289 8.582-1.5039 12.945 0.5 4.3906 1.9062 8.5078 4.2148 12.395 2.3086 3.8906 5.293 7.0742 8.9023 9.5859 4.3906 2.8828 9.2812 4.4141 14.727 4.5898 5.4414 0.17578 10.535-0.65234 15.301-2.5352 2.3828-1.0039 4.6406-2.1797 6.7461-3.5625 2.1328-1.3789 4.1406-2.9336 5.9961-4.6914 1.6328-1.5039 3.1875-3.0586 4.6914-4.6914 1.5039-1.6289 2.9336-3.3125 4.3125-5.0664 1.3828-1.6328 2.7109-3.2852 4.0391-4.9688 1.332-1.6797 2.5352-3.4102 3.6641-5.168 6.2461-9.2578 9.582-19.594 9.957-30.984 0.25-5.8945-0.375-11.312-1.8789-16.332-0.62891-2.5078-1.4805-4.9648-2.5352-7.4258-1.0547-2.4336-2.2812-4.7891-3.6641-7.0469-1.2539-2.3867-2.6055-4.668-4.0352-6.8516-1.4297-2.1836-2.9102-4.3398-4.418-6.4727-0.625-1.0039-1.2539-1.9805-1.8789-2.9102-0.62891-0.92578-1.2539-1.8555-1.8828-2.7344-0.625-0.87891-1.3047-1.7305-2.0547-2.5352-0.75391-0.80078-1.4297-1.6055-2.0586-2.3555-0.625-0.62891-1.1797-1.3047-1.6797-2.0586-0.50391-0.75391-1.0547-1.5039-1.6797-2.2578 0.625-0.87891 1.2539-1.6797 1.8789-2.4336 0.62891-0.75391 1.1797-1.6289 1.6797-2.6328 0.62891-1.0039 1.1055-2.0078 1.4062-3.0117s0.60156-2.0078 0.85156-3.0117c0.25391-1.0039 0.42969-2.0312 0.55469-3.1094 0.125-1.0547 0.046875-2.082-0.17578-3.0859-0.25391-1.0039-0.77734-1.7812-1.6055-2.3594-0.80469-0.55078-1.7305-0.72656-2.7109-0.47656-0.75 0.125-1.6289 0.50391-2.6328 1.1289l-1.1289 1.1289c0-0.125-0.5 0.37891-1.5039 1.5078-0.62891 0.625-1.2305 1.3047-1.7812 2.0547-0.55469 0.75391-1.1562 1.4297-1.7812 2.0586-1.3789 1.6289-2.6836 3.2617-3.9375 4.8906-1.2539 1.6328-2.1328 3.4375-2.6367 5.4453-0.375 1.5039-0.47656 2.9336-0.27344 4.3164 0.17578 1.3789 0.60156 2.7578 1.2266 4.1367-2.2578 0.87891-4.4375 1.3828-6.5703 1.5078-2.5078 0.25-4.8906-0.027344-7.125-0.85547-2.2578-0.80078-4.4375-1.9062-6.5703-3.2852-2.1328-1.5039-3.9375-3.0117-5.4453-4.5156-0.75-0.87891-1.4023-1.8555-1.9805-2.9102-0.55078-1.0547-1.1016-2.082-1.6055-3.0859-1.0039-2.5078-1.6289-5.0664-1.8828-7.7031-0.25-2.6328-0.17188-5.2695 0.17578-7.875 0-0.62891 0.12891-1.3047 0.37891-2.0586l0.55078-1.1289c0-0.25 0.125-0.50391 0.375-0.75391v-0.17578c0.37891-0.25 0.67969-0.55078 0.92969-0.92578 0.375-0.37891 0.75391-0.73047 1.1289-1.0312s0.67578-0.65234 0.92969-1.0273c0.375-0.25 0.75-0.55078 1.125-0.92969 0.37891-0.375 0.67969-0.67578 0.92969-0.92578l1.1289-1.1289 0.55078-0.55469c1.2539-1.2539 2.6367-2.4336 4.1406-3.5625 1.0039-1.0039 2.0312-1.9297 3.0859-2.8086 1.0508-0.87891 2.1562-1.7578 3.2852-2.6328 1.2539-1.0039 2.5078-1.9062 3.7617-2.7109 1.2539-0.80078 2.5586-1.6562 3.9375-2.5352 1.7578-1.1289 3.4609-2.3047 5.168-3.5625 1.6797-1.2539 3.2852-2.5586 4.793-3.9375 1.7539-1.6289 3.3867-3.3359 4.8906-5.168 1.5039-1.8047 3.0078-3.6641 4.5156-5.543 0.75-1.0039 1.4805-1.9844 2.1562-2.9102 0.67578-0.92969 1.3555-1.9062 1.9805-2.9102h7c0.22656 0.046875 0.44922 0.14844 0.70312 0.17578 3.0078 0.625 6.0703 0.75 9.2031 0.375 0.17578-0.10156 0.42578-0.30078 0.67969-0.55078h67.648c-0.375 0.375-0.55078 0.80078-0.55078 1.3047v32.863c-3.2617-4.6172-7.8242-7.4492-13.695-8.4531-3.6367-0.62891-7.2227-0.60156-10.785 0.097656-3.5625 0.67969-6.9727 1.9102-10.234 3.6641-2.7617 1.5039-5.168 3.3633-7.2266 5.543-2.0547 2.1836-4.0859 4.543-6.0938 7.0508-1.6289 1.8828-3.0859 3.8125-4.4141 5.8203-1.3047 2.0078-2.3594 4.2656-3.1094 6.75-1.1289 3.3867-1.6328 6.875-1.5078 10.512s0.82812 7.125 2.0586 10.512c0.625 1.6289 1.3555 3.1875 2.1562 4.6914 0.80469 1.5039 1.8555 2.8867 3.0859 4.1406 2.2578 2.6328 5.1914 4.6406 8.8281 5.9961 4.2656 1.7539 8.6562 2.4062 13.246 1.9805 4.5664-0.42578 8.8555-1.7305 12.867-3.8398 3.1367-1.7539 5.8711-3.8125 8.2539-6.1953 1.1289-1.2539 2.2578-2.457 3.3867-3.6641 1.1289-1.1797 2.1797-2.4062 3.1836-3.6602v44.129l1.5039-1.5039c1.2578-1.2578 2.4336-2.6367 3.5625-4.1406 0.62891-0.62891 1.1797-1.2812 1.6836-1.9844 0.5-0.67578 1.0508-1.4023 1.6797-2.1562 0.125-0.125 0.35156-0.40234 0.65234-0.85156 0.30078-0.42578 0.47656-0.77734 0.47656-1.0312v-46.184c0.125 0 0.17578-0.027344 0.17578-0.10156 0-0.050782 0.050782-0.10156 0.17578-0.10156v-0.17578l2.0547-2.0547c0.125 0 0.17578-0.050781 0.17578-0.17578 0.125-0.12891 0.22656-0.17578 0.27734-0.17578 0.050782 0 0.14844-0.050782 0.27344-0.17578 0.37891-0.37891 0.75391-0.73047 1.1289-1.0312 0.37891-0.30078 0.75391-0.65234 1.1289-1.0273 0.75391-0.62891 1.5078-1.1797 2.2578-1.6797 0.75391-0.50391 1.5547-1.0039 2.4336-1.5078 1.3789-0.75 2.8086-1.3789 4.3164-1.8789 1.5039-0.50391 3.0586-0.67969 4.6875-0.55469 1.7578 0.25391 3.3398 0.80469 4.793 1.6836 1.4297 0.875 2.6602 2.0039 3.6641 3.3867 3.2578 4.0117 5.2656 8.3281 5.9922 12.945 0.37891 2.1328 0.42578 4.2148 0.17578 6.2969-0.25 2.0547-0.67578 4.0898-1.3047 6.0938-0.5 1.3828-1.1016 2.6875-1.7812 3.9414-0.67578 1.2539-1.4023 2.5078-2.1562 3.7617 0 0.125-0.023437 0.17578-0.10156 0.17578-0.074219 0-0.097657 0.074219-0.097657 0.17578l-0.17578 0.17578c-0.125 0.125-0.22656 0.25-0.27734 0.375-0.074219 0.125-0.14844 0.25391-0.27344 0.37891-1.0039 1.2539-2.0078 2.4844-3.0117 3.6602-1.0039 1.1797-2.0078 2.4844-3.0117 3.8398 0.125-0.125 0.027344 0.023438-0.27344 0.47656-0.32812 0.45313-0.27734 0.52734 0.097656 0.27734 0.50391-0.37891 0.92969-0.77734 1.3047-1.2305 0.37891-0.42578 0.75391-0.90234 1.1289-1.4062 2.6367-2.8828 5.2188-5.918 7.8008-9.1055 2.5586-3.1875 4.918-6.4727 7.0508-9.8594 1.2539-2.1328 2.3086-4.2891 3.1836-6.4727 0.87891-2.1836 1.4297-4.4648 1.6836-6.8477 0.25-2.5117 0.046875-4.9688-0.55469-7.4258-0.625-2.4336-1.5039-4.793-2.6328-7.0508-1.0039-2.0078-2.2578-3.8398-3.7617-5.5469-1.5039-1.6797-3.3125-2.9102-5.4453-3.6602-2.8828-1.0039-5.7695-0.85547-8.6289 0.47656-2.8828 1.3047-5.3906 2.8594-7.5 4.5898-1.5039 1.1289-2.9336 2.3828-4.3125 3.7617-1.3789 1.3828-2.7578 2.7617-4.1406 4.1406-1.1289 1.2539-2.2578 2.4844-3.3867 3.6641s-2.1797 2.4062-3.1836 3.6641v-60.039h65.695c0.25 0 0.55078-0.22266 0.92578-0.65234 0.37891-0.42578 0.62891-0.72656 0.75391-0.85156l3.3867-3.9375c0.625-0.62891 1.2305-1.3047 1.7812-2.0586s1.1016-1.4297 1.6055-2.0586l0.55078-0.92578c0.25-0.37891 0.50391-0.67969 0.75391-0.92969h-97.953zm-122.21 58.855c0.125-0.17578 0.30078-0.40234 0.55469-0.65234-0.47656 0.60156-0.67969 0.82812-0.55469 0.65234zm21.801-58.855h-55.188c-7.5-4.0156-14.094-9.082-19.816-15.203-5.6914-6.1211-10.406-12.945-14.172-20.473-4.6406-9.1328-7.5742-18.742-8.8281-28.828-1.2539-10.082-1.0547-20.168 0.55078-30.328 1.1289-6.875 2.9375-13.824 5.4453-20.852 1.8789-5.2656 4.0117-10.258 6.3711-15.027l3.9375-7.3242c0.25-0.62891 0.55078-1.1797 0.92578-1.6797 0.37891-0.50391 0.75391-1.0547 1.1289-1.6836 0.12891-0.375 0.45313-0.92578 0.92969-1.6797 0.25-0.25 0.375-0.5 0.375-0.75391 0.125 0 0.25391-0.046875 0.37891-0.17578 0.125-0.125 0.17578-0.25 0.17578-0.375 0.25-0.5 0.55078-1.0039 0.92578-1.5039 0.37891-0.50391 0.67969-1.0039 0.92969-1.5078 0.25-0.25 0.625-0.75 1.1289-1.5039l0.55078-0.55078v-0.17578l0.17578-0.17578c0.25-0.25 0.40234-0.47656 0.47656-0.65234 0.074218-0.17578 0.22656-0.40234 0.47656-0.65234-0.125 0.125-0.17578 0.14844-0.17578 0.10156 0-0.050782 0.074219-0.15234 0.17578-0.27734v0.17578c0.125-0.125 0.17578-0.25 0.17578-0.375h0.17578c0.050782-0.050781 0.10156-0.12891 0.14844-0.17578h-0.14844c0.10156-0.10156 0.14844-0.10156 0.17578-0.027344 0.25-0.32422 0.55078-0.67578 0.95312-1.1016h0.17578c0.125-0.25391 0.25-0.40234 0.375-0.47656 0.125-0.050781 0.25-0.22656 0.37891-0.48047 1-1 1.8555-1.8047 2.5312-2.4336 0.67578-0.625 1.5312-1.4297 2.5352-2.4297 2.5078-2.1328 4.9922-4.0898 7.5-5.9219 2.5078-1.8086 5.1914-3.5391 8.0742-5.168 8.3789-4.7695 17.383-7.8789 27.043-9.3828 4.6406-0.62891 9.2812-0.87891 13.996-0.75391 4.6914 0.125 9.3555 0.62891 13.996 1.5039 9.3828 1.7578 18.238 4.9453 26.562 9.5859 8.3281 4.6406 15.73 10.461 22.25 17.461 6.625 7.25 11.992 15.352 16.055 24.309 4.0625 8.957 6.7969 18.316 8.1758 28.074 1.3828 8.5039 1.6562 17.059 0.85547 25.617-0.80469 8.5781-2.6602 16.934-5.543 25.062-0.75391 1.8789-1.5078 3.7617-2.2578 5.6172-0.75391 1.8555-1.6328 3.6875-2.6367 5.4453-0.5 0.87891-0.97656 1.7578-1.4023 2.6328-0.45312 0.87891-0.98047 1.7578-1.6055 2.6367-0.25 0.5-0.47656 0.875-0.65234 1.1289-0.17578 0.25-0.47656 0.625-0.85156 1.1289 0 0.125-0.027344 0.17578-0.10156 0.17578-0.074219 0-0.10156 0.074219-0.10156 0.17578l-1.1289 1.1289c-0.375 0.375-0.875 0.80078-1.5039 1.3047-3.0117 2.5078-6.1953 4.7656-9.582 6.7461-3.5117 1.8828-7.0977 3.4141-10.785 4.5938-2.6602 0.85156-5.3945 1.4531-8.1523 1.8281-0.125-0.32422-0.27734-0.65234-0.40234-0.97656-1.7539-4.7656-2.0586-9.5078-0.92969-14.273 2.2578-1.0039 4.5938-1.6328 7.0508-1.8828 2.4336-0.25 4.9141-0.25 7.4258 0 0.125 0 0.44922-0.25 0.92578-0.75391 0.25-0.25 0.50391-0.55078 0.75391-0.92578 0.75-0.75391 1.4297-1.5078 2.0547-2.2578 0.62891-0.75391 1.2539-1.5078 1.8828-2.2617 0.62891-0.75 1.2539-1.5039 1.8828-2.2578 0.625-0.75 1.2539-1.5039 1.8789-2.2578-0.125 0.12891 0.078125-0.17578 0.55469-0.92578l0.75-1.1289c-3.0078-0.25-5.9961-0.15234-9.0039 0.27344-3.0117 0.45313-5.8203 1.5312-8.4531 3.2891-0.62891 0.375-1.1797 0.82812-1.6797 1.3047-0.50391 0.5-1.0547 1.0039-1.6836 1.5039-1.7539 1.6328-3.3359 3.3633-4.7891 5.168-1.4297 1.8086-2.9102 3.5898-4.4141 5.3438-1.0039 1.3789-1.9844 2.7852-2.9102 4.2148-0.92969 1.4297-1.7305 3.0352-2.3594 4.793-0.75391 2.2578-1.1523 4.5664-1.2305 6.9492-0.046875 2.3828 0.25391 4.6914 0.92969 6.9492 0.023438 0.074218 0.050782 0.125 0.074219 0.19922l-0.17578 0.17578c-0.125 0.125-0.22266 0.25-0.27344 0.37891-0.078124 0.125-0.15234 0.25-0.27734 0.375-0.25 0.375-0.44922 0.67578-0.55078 0.92969 0.65234-0.050781 1.2773-0.17578 1.9062-0.25391 0.25 0.65234 0.52734 1.3047 0.82812 1.9336h-22.324zm33.762-34.371c0.125-0.25 0.17578-0.35156 0.17578-0.27734 0.023437 0.050782-0.050782 0.15234-0.17578 0.27734zm79.793 119.22-0.55469 0.55078c-1.3789 1.2539-2.8828 2.2578-4.5117 3.0117-4.0156 2.2578-8.2305 3.5625-12.668 3.9375-4.4414 0.375-8.8555-0.25-13.246-1.8828-3.5117-1.1289-6.4961-3.0586-9.0039-5.8203-2.2578-2.3828-4.0625-5.3672-5.4453-9.0039-1.2539-3.3867-1.9297-6.9766-2.0547-10.789s0.42578-7.4766 1.6797-10.988l0.375-0.75391c0.25391-0.25 0.42969-0.40234 0.55469-0.47656 0.125-0.050781 0.25-0.14844 0.375-0.27344 3.0117-1.6328 6.3477-2.7852 10.035-3.4648 3.6875-0.67578 7.2461-0.75 10.711-0.17578 3.4336 0.55469 6.5938 1.8086 9.4805 3.7656 2.8828 1.9297 5.0664 4.7148 6.5703 8.3516 0 0.125 0.027344 0.17578 0.10156 0.17578 0.050781 0 0.10156 0.078125 0.10156 0.17578l1.5039-1.5039c0.62891-0.62891 1.2305-1.3047 1.7812-2.0586 0.55078-0.75 1.1523-1.4297 1.7812-2.0547 0.375-0.50391 0.77734-0.98047 1.2266-1.4062 0.42969-0.42578 0.85547-0.90234 1.2305-1.4062v32.09z" fill="#0c0"/>
 </g>
 <path d="m946.33 874.94h-65.898c-0.25 0-0.55078 0.22656-0.92578 0.65234-0.37891 0.44922-0.62891 0.72656-0.75391 0.85156-0.625 0.62891-1.2305 1.2812-1.7812 1.9805-0.55078 0.67969-1.1523 1.3555-1.7812 1.9844-0.625 0.75-1.1797 1.4805-1.6797 2.1562-0.5 0.67969-1.0039 1.3555-1.5039 1.9844l-1.3047 1.8789h56.113c-0.25391 0.25-0.52734 0.55469-0.85547 0.92969-0.30078 0.375-0.47656 0.67578-0.47656 0.92578v30.586c-0.25 0.25-0.375 0.44922-0.375 0.55078-1.3789 1.3789-2.6836 2.8086-3.9375 4.3164-1.2539 1.5039-2.5078 3.0078-3.7617 4.5156-1.6328 2.0039-3.0859 4.0625-4.418 6.1953-1.3008 2.1328-2.1562 4.4414-2.5312 6.9492-0.375 3.2617 0.25 6.4961 1.8789 9.7578 1.0039 1.8828 2.1836 3.6406 3.5625 5.2695 1.3828 1.6328 2.7617 3.2617 4.1406 4.8906 1.1289 1.3828 2.2812 2.7617 3.4609 4.1406s2.082 2.9375 2.7344 4.6914l0.75391-0.75c0.25-0.25391 0.55078-0.50391 0.92578-0.75391l3.3867-3.9375c0.62891-0.62891 1.1797-1.2812 1.6797-1.9844 0.50391-0.67578 1.0547-1.4062 1.6836-2.1562 0.125-0.25 0.30078-0.50391 0.55078-0.75391 0.375-0.375 0.55078-0.75391 0.55078-1.1289-0.375-1.2539-0.92578-2.4062-1.6797-3.4609-0.75391-1.0547-1.5547-2.082-2.4336-3.0859-1.0039-1.2539-2.0312-2.4336-3.0859-3.5625-1.0547-1.1289-2.1055-2.3086-3.1094-3.5625-1.0039-1.3789-1.9062-2.7109-2.7109-4.0391-0.82422-1.3047-1.4766-2.7852-1.9805-4.418-1.0039-3.0078-1.0039-6.0703 0-9.207 2.5078-0.625 4.8398-0.35156 7.0508 0.85547 2.1797 1.1797 4.1641 2.6562 5.918 4.4141 2.2578 2.5078 4.1641 5.293 5.7188 8.3555 1.5547 3.0586 2.6602 6.2227 3.2852 9.4805 0.50391 2.5117 0.55469 5.0195 0.17578 7.5039-0.375 2.5078-0.92578 4.9414-1.6797 7.3242-0.375 1.0039-0.77734 1.9844-1.2305 2.9102-0.44922 0.92969-0.90234 1.8555-1.4023 2.7344-0.25 0.25-0.45312 0.40234-0.55469 0.47656-0.125 0.078124-0.25 0.22656-0.375 0.47656-1.0039 0.62891-1.9297 1.2539-2.8086 1.8828-0.87891 0.62891-1.8047 1.1797-2.8086 1.6797-6.75 3.8906-14.125 5.9453-22.051 6.1992-7.9492 0.25-15.301-1.7578-22.047-5.9961-2.8867-1.8828-5.5938-4.1641-8.1523-6.8516-2.5586-2.6836-4.6914-5.6953-6.3711-9.0039-1.6836-3.3125-2.7852-6.75-3.2852-10.336-0.50391-3.5625-0.12891-7.1016 1.1289-10.613 0.125-0.25 0.25-0.50391 0.375-0.75391l0.375-0.75c0.25-0.25391 0.42578-0.50391 0.55078-0.75391l0.37891-0.375c1.3789 0.625 2.6562 1.2539 3.8359 1.8789 1.1797 0.62891 2.4609 1.1797 3.8398 1.6836 0 0.125 0.097657 0.097656 0.27344-0.10156 0.17578-0.17578 0.40234-0.40234 0.65234-0.65234l0.75391-0.75391 3.3867-3.9375c0.625-0.62891 1.1797-1.2812 1.6797-1.9844 0.50391-0.67578 1.0547-1.4023 1.6797-2.1562 0-0.125 0.22656-0.47656 0.65234-1.0273 0.42578-0.55469 0.60156-0.85547 0.47656-0.85547-3.2578-1.3789-6.4453-3.0078-9.582-4.8906-3.1328-1.8828-6.0703-3.9375-8.8281-6.1953-2.8867-2.2578-5.5703-4.8164-8.0781-7.7031-2.5078-2.8867-4.2617-6.0703-5.2656-9.582-1.0039-3.5156-0.92969-6.875 0.17578-10.137 0.25-0.50391 0.44922-0.92969 0.55078-1.3047 0.5-0.62891 1.0039-1.2305 1.5039-1.7812 0.074219-0.10156 0.15234-0.20312 0.22656-0.27734h6.5234c0.25 0 0.55078-0.22656 0.92578-0.65234 0.37891-0.42578 0.62891-0.72656 0.75391-0.85156l3.3867-3.9375c0.625-0.62891 1.2266-1.3047 1.7812-2.0586 0.55078-0.75391 1.1016-1.4297 1.6055-2.0586l0.55078-0.92578c0.25-0.37891 0.5-0.67969 0.75391-0.92969h-104.5c0.17578-0.25 0.375-0.5 0.57422-0.75391 1.0547-1.5039 2.1094-3.1367 3.0859-4.8906 1.1289-2.0078 2.0586-4.2656 2.8086-6.75 0.62891-2.2578 1.0547-4.5664 1.3047-6.9492 0.25391-2.3828 0.25391-4.8164 0-7.3242-0.625-5.1445-2.2305-9.7617-4.7891-13.898-2.5586-4.1406-5.8438-7.7539-9.8594-10.891-4.2617-3.3867-8.9023-6.0703-13.973-8.0781-5.0664-2.0039-10.234-3.5625-15.477-4.6914-5.6172-1.2539-11.363-2.0312-17.18-2.3555-5.8203-0.30078-11.664-0.40234-17.559-0.27734-5.9961 0.125-12.066 0.375-18.211 0.75391-6.1211 0.375-12.242 0.625-18.312 0.75-6.0703 0.125-12.141 0-18.211-0.375s-12.117-1.3047-18.109-2.8086c-4.6172-1.1289-9.1562-2.6602-13.621-4.5938-4.4414-1.9297-8.6289-4.2656-12.566-6.9492-3.9414-2.6836-7.5273-5.8203-10.789-9.3828-3.2578-3.5625-5.8672-7.6016-7.875-12.117-2.6328-5.6172-4.0391-11.566-4.2148-17.836-0.17578-6.2461 0.77734-12.32 2.9102-18.215 0.5-1.1289 0.97656-2.2578 1.4062-3.3867 0.44922-1.1289 0.97656-2.2578 1.6055-3.3867 0.25-0.25 0.39844-0.5 0.47656-0.75391 0.074219-0.25 0.22266-0.5 0.47656-0.75l0.375-0.75391c0.125-0.125 0.17578-0.22656 0.17578-0.27734 0-0.050781 0.074219-0.14844 0.17578-0.27344 0.25-0.25391 0.375-0.42969 0.375-0.55469 0.75391-0.875 1.5039-1.7812 2.2578-2.707 0.75391-0.92969 1.0547-1.4805 0.92969-1.6055s-0.42578 0.097656-0.92969 0.65234c-0.5 0.55078-1.0547 1.1523-1.6797 1.7812-0.62891 0.625-1.1797 1.2539-1.6797 1.8789-0.50391 0.62891-0.75391 1.0039-0.75391 1.1289-2.1328 2.6367-4.2148 5.3203-6.2969 8.0781-2.0547 2.7617-3.7852 5.6953-5.168 8.832-1.8789 4.3906-3.1328 9.0078-3.7617 13.898-1.3789 10.012 0.25 19.469 4.8906 28.352 2.2578 4.3906 5.0938 8.2539 8.5312 11.641 3.4336 3.3867 7.1992 6.3477 11.262 8.9062s8.3789 4.7148 12.941 6.4727c4.5664 1.7539 9.1836 3.1367 13.797 4.1367 5.9961 1.2578 12.09 2.0352 18.211 2.3594 6.1211 0.30078 12.266 0.375 18.387 0.17578 6.1445-0.17578 12.293-0.5 18.488-0.92969 6.1953-0.42578 12.367-0.65234 18.484-0.65234 5.7695-0.125 11.539 0.078125 17.359 0.55469 5.8203 0.5 11.539 1.4297 17.184 2.8086 5.1406 1.3789 10.133 3.1602 15.023 5.3438s9.332 5.0938 13.32 8.7305c2.7578 2.3828 5.0938 5.0664 7.0508 8.0781 1.9297 3.0117 3.4102 6.2461 4.4141 9.7617 1.7031 6.6953 1.4297 13.395-0.75391 20.094h-138.34c-0.25391 0-0.55469 0.22656-0.92969 0.65234-0.375 0.45313-0.62891 0.72656-0.75391 0.85156-0.625 0.62891-1.2266 1.2812-1.7812 1.9844-0.55078 0.67578-1.1523 1.3555-1.7812 1.9805-0.625 0.75391-1.1758 1.4805-1.6797 2.1562-0.5 0.67969-1.0039 1.3555-1.5039 1.9844l-1.3047 1.8828h25.336v21.598c-1.3789 0.25391-2.7109 0.50391-4.0391 0.75391-1.3047 0.25-2.6602 0.5-4.0391 0.75391-1.0039 0.125-1.9805 0.25-2.9102 0.375-0.92578 0.125-1.9062 0.17578-2.9102 0.17578-0.25 0-0.55078 0.22656-0.92578 0.65234-0.37891 0.45312-0.62891 0.72656-0.75391 0.85156-0.62891 0.62891-1.2305 1.2812-1.7812 1.9844-0.55078 0.67578-1.1523 1.3555-1.7812 1.9805-0.625 0.62891-1.2031 1.3047-1.6797 2.0586-0.50391 0.75-1.0039 1.4297-1.5039 2.0547l-1.3047 1.8828c1.2539 0 2.457-0.050781 3.6602-0.17578 1.1797-0.125 2.4102-0.30078 3.6641-0.55078 1.5039-0.25 3.0078-0.52734 4.5156-0.85547 1.5039-0.30078 3.0078-0.60156 4.5117-0.85156 2.3867-0.5 4.8164-0.87891 7.3281-1.1289v0.75391l0.92578-0.92969c1.7578-0.25 3.4609-0.35156 5.168-0.27734 1.6797 0.078125 3.4102 0.27734 5.168 0.65234 1.7539 0.37891 3.3359 1.0039 4.7891 1.8828 1.4297 0.87891 2.6602 2.1328 3.6641 3.7656 1.6289 2.7578 2.1328 5.8945 1.5039 9.3828-2.8828 1.5039-5.8438 2.6836-8.9023 3.5625-3.0625 0.875-6.1719 1.6289-9.2812 2.2578-2.8867 0.625-5.8203 1.0508-8.832 1.3047-3.0078 0.25-5.9453 0.44922-8.8281 0.55078h-1.6797c-0.25391 0-0.55469 0.22656-0.92969 0.65234-0.375 0.44922-0.62891 0.72656-0.75391 0.85156-0.625 0.62891-1.2266 1.2812-1.7812 1.9844-0.55078 0.67578-1.1523 1.3516-1.7812 1.9805-0.625 0.62891-1.1758 1.3047-1.6797 2.0586-0.5 0.75-1.0039 1.4297-1.5039 2.0547l-0.17578 0.17578c-0.125 0.125-0.22656 0.25-0.27734 0.37891-0.074219 0.125-0.14844 0.25-0.27344 0.375-0.25 0.375-0.45312 0.67578-0.55469 0.92969h0.55469c3.8867 2.5078 7.625 5.0898 11.262 7.8008 3.6367 2.6836 7.125 5.5938 10.512 8.7305 3.6367 3.2617 7.0469 6.7227 10.234 10.41 3.1836 3.6875 6.168 7.5508 8.9023 11.543 2.8867 4.3906 5.3203 8.9062 7.3242 13.621 2.0078 4.6914 3.1875 9.6602 3.5625 14.926l1.5039-1.5039c0.62891-0.625 1.2305-1.2773 1.7812-1.9805 0.55469-0.67969 1.1562-1.3555 1.7812-1.9844 0.62891-0.625 1.1797-1.3047 1.6797-2.0547 0.22656-0.35156 0.52734-0.62891 0.78125-0.95312-0.12891 1.5781-0.027343 3.1602 0.32422 4.7148 0.375 1.8828 1.1797 3.4609 2.4336 4.793 1.2539 1.3047 2.7578 2.3594 4.5156 3.1094 1.2539 0.50391 2.5078 0.80469 3.7617 0.92969 1.2539 0.125 2.5586 0.17578 3.9375 0.17578 0.25 0 0.55078-0.22656 0.92969-0.65234 0.375-0.45312 0.625-0.72656 0.75-0.85547l3.3867-3.9375c0.62891-0.625 1.1797-1.3047 1.6836-2.0586 0.5-0.75 1.0508-1.4297 1.6797-2.0547l0.55078-0.92969c0.25-0.375 0.50391-0.67578 0.75391-0.92578-2.2578 0-4.4648-0.27734-6.6719-0.85547-2.1836-0.55078-4.0898-1.7305-5.7227-3.4609-1.3789-1.6328-2.207-3.5391-2.5312-5.7188-0.30078-2.1836-0.22656-4.3438 0.27734-6.4727 3.5117-1.3828 6.8711-1.6328 10.133-0.75391 2.1328 0.625 4.1367 1.6562 5.9961 3.0859 1.8789 1.4297 3.5117 3.0352 4.8906 4.793 2.6328 3.2578 4.4141 6.9961 5.3438 11.262 0.92578 4.2656 0.72656 8.3789-0.65234 12.395-0.12891 0.25-0.22656 0.5-0.27734 0.75391-0.074219 0.25-0.15234 0.5-0.27734 0.75-0.125 0.125-0.25 0.17578-0.375 0.17578-0.62891 0.62891-1.2773 1.1289-1.9805 1.5078-0.67969 0.375-1.4062 0.80078-2.1602 1.3047-3.6367 2.0039-7.4219 3.5859-11.359 4.7891-3.9414 1.1797-7.9766 1.9062-12.117 2.1602-9.5078 0.375-18.336-1.9336-26.465-6.9492-2.8828-1.8828-5.5938-4.1406-8.1758-6.75-2.5586-2.6328-4.5898-5.5703-6.0977-8.832-1.7539-3.6367-2.7812-7.4258-3.082-11.363-0.30078-3.9414-0.47656-7.9023-0.47656-11.918-0.37891 0.25-0.67969 0.50391-0.92969 0.75391l-0.75391 0.75c-0.625 0.62891-1.1758 1.2812-1.6797 1.9844-0.5 0.67578-1.0547 1.4023-1.6797 2.1562-0.62891 0.62891-1.1797 1.2812-1.6797 1.9844-0.50391 0.67578-1.0547 1.4023-1.6836 2.1562-0.125 0.125-0.34766 0.375-0.65234 0.75391-0.30078 0.375-0.47656 0.67578-0.47656 0.92578-0.125 2.7617-0.125 5.4688 0 8.1797 0.12891 2.6836 0.50391 5.3438 1.1289 7.9766 1.1289 4.9922 3.2617 9.5078 6.3711 13.523 2.8867 3.6367 6.3242 6.6992 10.336 9.207 4.0156 2.5078 8.2539 4.3906 12.77 5.6211 4.3867 1.1289 8.8047 1.5547 13.242 1.3047 4.4414-0.25391 8.8047-1.0547 13.043-2.4336 4.1406-1.1289 7.8789-2.6875 11.266-4.6914 3.6367-2.1328 7.0703-4.8945 10.332-8.2539 1.7578-2.0078 3.5117-4.0391 5.2695-6.0977 1.7539-2.0586 3.3867-4.1641 4.8906-6.2969 0.62891-0.75391 1.1797-1.5547 1.6797-2.4336 0.50391-0.87891 0.92969-1.8047 1.3047-2.8086 1.6328-3.5156 2.1328-7.4531 1.5039-11.816-0.25-2.1328-0.82422-4.2148-1.6797-6.2969-0.87891-2.0586-2.0078-3.9648-3.3867-5.7227-1.2539-1.8789-2.707-3.5625-4.4141-5.0664-1.6797-1.5039-3.5859-2.6836-5.7188-3.5625-2.0078-0.75391-4.0898-1.0547-6.2969-0.92969-1.9062 0.10156-3.7109 0.57812-5.3906 1.3555 0.023438-0.023438 0.023438-0.023438 0.046875-0.050782 0.37891-0.375 0.55469-0.67578 0.55469-0.92578v-98.047h31.73c-1.0039 1.2539-2.0078 2.4844-3.0117 3.6641-1.0039 1.1797-2.0039 2.4102-3.0078 3.6641s-1.9336 2.5078-2.8086 3.7617c-0.87891 1.2539-1.5586 2.6328-2.0586 4.1406-0.375 1.0039-0.62891 1.9297-0.75391 2.8086-0.125 0.87891-0.25 1.8086-0.375 2.8086-0.125 3.3906 0.375 6.8242 1.5039 10.34 1.1289 3.5117 2.9375 6.4453 5.4453 8.8281 1.5039 1.5078 3.2617 2.5117 5.2656 3.0117 2.0078 0.5 4.0664 0.45312 6.1953-0.17578 0.25391 0 0.52734-0.17578 0.85547-0.55078 0.30078-0.37891 0.52734-0.67969 0.65234-0.92969 0.625-0.625 1.2266-1.2773 1.7812-1.9805 0.55078-0.67969 1.1523-1.3555 1.7812-1.9844 0.25-0.25 0.39844-0.42578 0.47656-0.55078 0.046875-0.125 0.22266-0.30078 0.47656-0.55078 0.125 2.5078 0.22266 5.043 0.27344 7.6016 0.050781 2.5586 0.10156 5.0938 0.10156 7.6016l-2.2578 0.55078c-1.3789 0.375-2.7852 0.82812-4.2148 1.3047-1.4297 0.5-2.8594 1.0547-4.2148 1.6797-1.5039 0.75391-2.8594 1.6328-4.0391 2.6367-1.1758 1.0039-2.3555 2.0547-3.4609 3.1836-1.7539 1.8828-3.4336 3.7891-5.0664 5.7227-1.6289 1.9297-3.1367 3.9609-4.5156 6.0938-0.25 0.62891-0.5 1.2305-0.75 1.7812-0.25391 0.55469-0.50391 1.1562-0.75391 1.7812-0.375 1.6328-0.47656 3.2617-0.27734 4.8945 0.17578 1.6289 0.77734 3.1367 1.7812 4.5156 1.0039 1.6289 2.4102 2.8086 4.2148 3.5625 1.8047 0.75 3.5859 1.0547 5.3438 0.92578 2.7578-0.125 5.1406-1.0273 7.125-2.7344 2.0039-1.6797 3.8125-3.4609 5.4414-5.3438 2.5078-2.8828 4.8906-5.7422 7.125-8.6289 2.2578-2.8867 4.0117-6.1211 5.2656-9.7578 0.25391-0.62891 0.40234-1.1562 0.47656-1.6055 0.050782-0.42969 0.15234-0.90625 0.27734-1.4062 1.2539-0.125 2.4336-0.22656 3.5625-0.27734s2.3086-0.14844 3.5625-0.27344c1.3789-0.25391 2.6836-0.42969 3.9375-0.55469s2.5586-0.30078 3.9375-0.55078v50.328l1.6797-1.5078 3.3867-3.9375c0.62891-0.62891 1.1797-1.3047 1.6797-2.0586 0.50391-0.75 1.0547-1.4297 1.6836-2.0547 0.125-0.25391 0.375-0.55469 0.75-0.92969 0.37891-0.375 0.55469-0.67578 0.55469-0.92969v-97.918h82.148c-1.3789 1.5312-2.7578 3.0859-4.0391 4.6914-1.0039 1.3828-2.0312 2.7109-3.0859 4.0391-1.0508 1.3047-1.9062 2.7109-2.5312 4.2148-1.5078 3.2617-2.0078 6.5742-1.5078 9.9609 0.62891 3.6367 2.1094 6.875 4.418 9.7578 2.3047 2.8867 4.7891 5.5195 7.4219 7.8789 1.0781 0.95312 2.207 1.8828 3.3633 2.7852-0.30078 0.35156-0.65234 0.70312-0.90234 1.0547-0.50391 0.67578-1.0547 1.4023-1.6836 2.1562-0.125 0.125-0.375 0.40234-0.75 0.85547-0.37891 0.44922-0.55469 0.77734-0.55469 1.0273 0 0.75391-0.074218 1.3047-0.17188 1.6797-0.75391 2.1328-1.6836 4.0156-2.8125 5.6211v0.22656l-0.17578 0.17578c-0.25 0.25-0.47656 0.44922-0.65234 0.55078-0.17578 0.125-0.39844 0.32422-0.65234 0.55078-1 0.75391-2.0039 1.4805-3.0078 2.1562-1.0039 0.67969-2.0078 1.3555-3.0117 1.9844-2.7578 1.5039-5.668 2.6328-8.7266 3.3867-3.0625 0.75391-6.1719 0.67578-9.2812-0.17578-3.6406-1.1289-6.5977-3.3125-8.9062-6.5742-2.3086-3.2617-3.8359-6.6992-4.5898-10.336-0.50391-3.1367-0.17578-6.3203 0.92578-9.582 0.25391-0.62891 0.52734-1.2812 0.85547-1.9844 0.30078-0.67578 0.65234-1.3516 1.0273-1.9805 0.25-0.375 0.42578-0.72656 0.55078-1.0273s0.30078-0.65234 0.55469-1.0312c0.125 0 0.17578-0.050781 0.17578-0.17578 0.125-0.125 0.17578-0.25 0.17578-0.375 0.375-0.375 0.625-0.67578 0.75-0.92969 0.25-0.5 0.42578-0.80078 0.55078-0.92578h0.17578c0-0.25 0.050782-0.37891 0.17578-0.37891 0.125-0.125 0.22656-0.25 0.27734-0.375 0.050781-0.125 0.15234-0.25 0.27734-0.375h9.0039c0.25 0 0.52734-0.25 0.85156-0.75391 0.30078-0.5 0.52734-0.75391 0.65234-0.75391 1.2539-1.2539 2.4336-2.6328 3.5625-4.1367 0.62891-0.62891 1.1797-1.2812 1.6797-1.9844 0.50391-0.67578 1.0547-1.4023 1.6836-2.1562-0.12891 0.125 0.046875-0.17578 0.55078-0.92969 0.25-0.375 0.42578-0.67578 0.55078-0.92578h-53.277c-0.125 0-0.42578 0.25-0.92969 0.75-0.25 0.25391-0.42578 0.50391-0.55078 0.75391-0.62891 0.62891-1.2305 1.3047-1.7812 2.0586-0.55078 0.75-1.1523 1.4297-1.7812 2.0547-0.625 0.62891-1.1797 1.2812-1.6797 1.9844-0.50391 0.67578-1.0547 1.4023-1.6797 2.1562 0.125-0.125-0.050781 0.15234-0.55469 0.85156-0.5 0.67969-0.67578 1.0312-0.55078 1.0312h42.992c-0.5 0.625-0.97656 1.2266-1.4023 1.7812-0.45312 0.55078-0.90234 1.1523-1.4062 1.7812-0.125 0.125-0.17578 0.22656-0.17578 0.27344 0 0.078125-0.074219 0.15234-0.17578 0.27734-0.25 0.25-0.44922 0.47656-0.55078 0.65234-0.125 0.17578-0.25 0.40234-0.375 0.65234l-2.2578 2.8086c-0.75391 1.1289-1.5312 2.2578-2.3594 3.3867-0.80078 1.1289-1.6055 2.2578-2.3555 3.3867-1.1289 1.7578-2.0586 3.6641-2.8125 5.7227-0.75 2.0547-1.1758 4.1641-1.3047 6.2969 0 2.3828 0.40234 4.6641 1.2305 6.8477 0.80469 2.1836 1.8555 4.2148 3.0859 6.0977 2.0078 3.1367 4.4414 5.3945 7.3242 6.75 2.8867 1.3789 5.8711 1.8555 9.0039 1.4023 3.1367-0.42578 6.1211-1.3555 9.0078-2.707 4.1367-1.8828 7.8516-4.418 11.16-7.6016 3.3125-3.1875 6.4219-6.5508 9.2812-10.035 1.5039-2.0078 3.0117-3.9648 4.5156-5.9219 1.3047-1.6797 2.5078-3.4609 3.6133-5.293 1.9062 1.3789 3.8867 2.6562 5.9453 3.8867-1.5078 1.7578-2.9883 3.5391-4.418 5.3438-1.4297 1.8086-2.7812 3.7148-4.0352 5.7227-1.7578 3.1328-2.7617 6.6211-3.0117 10.512-0.125 3.8867 0.55078 7.6016 2.0586 11.164 1.5039 3.5625 3.3828 6.8477 5.6172 9.8594 4.8906 6.2695 11.188 10.637 18.965 13.145 3.7617 1.2539 7.5977 1.9062 11.539 1.9805 3.9375 0.078125 7.8008-0.39844 11.535-1.4023 3.7656-0.87891 7.375-2.207 10.887-4.0391 3.5117-1.8086 6.6992-3.9648 9.582-6.4727 1.0039-1.0039 2.0078-2.0078 3.0117-3.0117 1.0039-1.0039 2.0078-2.0586 3.0117-3.1875 1.6289-1.7539 3.207-3.5625 4.7891-5.4414 1.5547-1.8828 3.0352-3.8164 4.4141-5.8203 2.3828-3.6406 4.1914-7.25 5.4453-10.891 1.1289-3.5117 1.6797-7.125 1.6797-10.887-0.125-1.6328-0.375-3.2109-0.75391-4.793-0.375-1.5547-0.875-3.0352-1.5039-4.4141-1.2539-3.0117-2.8594-5.9219-4.793-8.7305-1.9297-2.8125-4.3359-5.0938-7.2227-6.8516-2.3828-1.2539-4.6406-1.8047-6.7461-1.6797 0.25-0.5 0.55078-0.92969 0.92578-1.3047 0.37891-0.375 0.75391-0.80078 1.1289-1.3047 0.125-0.25 0.37891-0.55078 0.75391-0.92578 0.375-0.37891 0.55078-0.67969 0.55078-0.92969v-24.613h27.043c-0.25391 0.25391-0.52734 0.55469-0.85547 0.92969-0.32422 0.375-0.47656 0.67578-0.47656 0.92969v107.4l1.6797-1.5039 3.3867-3.9375c0.62891-0.62891 1.1797-1.3047 1.6836-2.0586 0.5-0.75391 1.0508-1.4297 1.6797-2.0586 0.125-0.25 0.375-0.55078 0.75-0.92578 0.37891-0.375 0.55469-0.67969 0.55469-0.92969v-97.844h13.52c0.25 0 0.55078-0.22266 0.92969-0.65234 0.375-0.42578 0.625-0.72656 0.75-0.85156l3.3867-3.9375c0.62891-0.62891 1.1797-1.3047 1.6797-2.0586 0.50391-0.75391 1.0547-1.4297 1.6836-2.0586l0.55078-0.92578c0.25-0.37891 0.5-0.67969 0.75-0.92969h-47.656zm-29.477 54.715c0-0.050782 0.125-0.14844 0.37891-0.27344-0.25391 0.25-0.37891 0.32422-0.37891 0.27344zm-250.76 7.7773c-0.25 0.25-0.35156 0.35156-0.27734 0.27734 0.050781-0.050781 0.15234-0.15234 0.27734-0.27734zm24.031 56.324c-1.2578 1.5039-2.5117 3.0078-3.7656 4.5156-0.625 0.75-1.2266 1.5312-1.7812 2.3594-0.55078 0.82422-1.1523 1.6523-1.7812 2.5312-0.25 0.45312-0.44922 0.98047-0.67578 1.4805-0.44922-3.3867-1.2773-6.6719-2.5078-9.9102-1.6289-4.2656-3.6367-8.3281-5.9961-12.191-2.5078-4.2656-5.3164-8.2305-8.4531-11.918-3.1367-3.6875-6.4453-7.2227-9.957-10.613-1.8828-1.7539-3.7891-3.5117-5.7188-5.2656-1.9336-1.7578-3.9141-3.4375-5.9219-5.0703 2.1328-0.5 4.2656-1.0508 6.3711-1.6797 2.1328-0.625 4.2656-1.4297 6.3711-2.4336 3.0117-1.3789 5.5703-3.1367 7.7031-5.2695 1.7539-1.7539 3.4375-3.5625 5.0664-5.4414 1.6289-1.8828 3.1367-3.7656 4.5156-5.6211 0.625-0.75391 1.1797-1.5039 1.6797-2.2578s0.92969-1.5547 1.3047-2.4336c1.0039-2.5078 1.2305-5.2695 0.65234-8.2539-0.55078-3.0117-1.9062-5.3672-4.0391-7.125s-4.6914-2.7109-7.6992-2.9102c-3.0117-0.17578-5.8203-0.15234-8.4531 0.10156-0.37891 0-0.67969 0.074219-0.92969 0.17578v-20.098h36.047c-0.25391 0.25-0.52734 0.55078-0.85547 0.92969-0.32422 0.375-0.47656 0.67578-0.47656 0.92578v104.7c-0.19922 0.25-0.47656 0.5-0.69922 0.77734zm53.68-38.66c-0.37891 2.3828-1.0039 4.6914-1.8828 6.9492l-0.55078 1.6797c-2.2578 1.0039-4.5898 1.3789-7.0508 1.1289-2.4336-0.25-4.5391-1.2539-6.2969-3.0117-1.2539-1.2539-2.1055-2.6562-2.5312-4.2148-0.45312-1.5547-0.52734-3.2109-0.27734-4.9648 2.5078-1.1289 5.0938-2.0078 7.8008-2.6367 2.6836-0.625 5.418-1.1797 8.1797-1.6797 0.625-0.125 1.2266-0.22656 1.7812-0.27734 0.55078-0.046875 1.1523-0.14844 1.7812-0.27344-0.27734 2.4844-0.57812 4.918-0.95312 7.3008zm-6.1992-39.516c-2.0039-1.6797-3.6367-3.7891-4.8906-6.2969-1.2539-2.5078-2.0547-5.2188-2.4336-8.1797-0.375-2.9336-0.375-5.668 0-8.1523 1.6328-0.125 3.1602 0.15234 4.5898 0.85156 1.4297 0.67969 2.6602 1.6562 3.6641 2.9102 1.3789 1.7578 2.457 3.6406 3.2852 5.6211 0.80469 2.0078 1.4062 4.0664 1.7812 6.1953 0.25 1.6328 0.42578 3.2383 0.55078 4.793 0.125 1.5547 0.25391 3.2383 0.37891 4.9688-2.6094-0.125-4.918-1.0312-6.9258-2.7109zm24.582 19.996c-1.3789 0.125-2.6836 0.22656-3.9375 0.27734-1.2539 0.074219-2.5586 0.22266-3.9375 0.47656v-0.92969c0.25-2.7617 0.375-5.4961 0.375-8.2539v-8.2539l-0.55078-15.781c-0.25-2.1328-0.55078-4.2148-0.92578-6.2969-0.37891-2.082-0.92969-4.0898-1.6836-6.0977-0.625-1.7539-1.4297-3.1836-2.4336-4.3125h19.895c-0.25391 0.25-0.52734 0.55078-0.85547 0.92578-0.32422 0.37891-0.47656 0.67969-0.47656 0.92969v46.914c-1.8555 0.10156-3.6602 0.20312-5.4688 0.40234zm178.88 33.039c0.074218-0.023437 0.10156-0.074219 0.15234-0.097656-0.050782 0.074219-0.10156 0.17578-0.15234 0.27344z" fill="#0c0"/>
 <path d="m1036.4 999.57c-0.50391-1.3789-1.3828-2.9375-2.6367-4.6914-0.75-1.0039-1.5547-1.9062-2.4336-2.7344-0.875-0.80469-1.8789-1.4805-3.0078-1.9844-1.0039-0.375-1.8047-0.55078-2.4336-0.55078l0.17578-0.17578c-0.375 0-0.62891 0.074219-0.75391 0.17578-1.2539 0-2.3047 0.375-3.1836 1.1289-2.6328 1.0039-5.1914 2.5586-7.7031 4.6914-1.1289 0.87891-2.3047 2.0078-3.5586 3.3867-1.3828 1.3789-2.6875 2.8594-3.9414 4.4141-1.2539 1.5586-2.5078 3.1641-3.7617 4.793-1.0039 1.2539-1.9297 2.5078-2.8086 3.7656-0.87891 1.2539-1.6289 2.5586-2.2578 3.9375-1.7578 4.2656-1.5547 8.3281 0.55078 12.191 1.1289 2.0078 2.5586 3.7656 4.3164 5.2695 1.7539 1.5039 3.6875 2.5586 5.8203 3.1875 1.7539 0.5 3.4336 0.52734 5.0664 0.097656 1.6289-0.44922 3.1328-1.1523 4.5156-2.1562 1.3789-1.0039 2.6328-2.1055 3.7617-3.2852 1.1289-1.1797 2.2578-2.4844 3.3867-3.8398 1.6289-1.7578 3.1836-3.5625 4.6875-5.4453 1.5078-1.8789 2.8125-3.8867 3.9414-5.9961 2.0039-3.3867 3.0078-6.9492 3.0078-10.711 0.25-2.0078 0-3.8398-0.75-5.4688zm-10.711 23.859c-0.75391 0.25-1.5078 0.42578-2.2578 0.55078-0.75391 0.125-1.5547 0.125-2.4336 0-2.5078-0.125-4.8906-1.2539-7.125-3.3867-2.2578-1.8828-3.9609-4.1914-5.168-6.9492-1.1797-2.7617-1.4023-5.5703-0.65234-8.457l0.37891-0.375c0.5-0.25 0.97656-0.47656 1.4023-0.65234 0.42578-0.17578 0.85547-0.40234 1.2305-0.65234 0 0.125 0.125 0.125 0.375 0l0.17578-0.17578c0.62891-0.25 1.1562-0.42578 1.6055-0.55078 0.42578-0.125 0.98047-0.30078 1.6055-0.55078 2.1328 0 4.0391 0.85156 5.7188 2.5312 1.6797 1.6836 3.0352 3.3633 4.0391 4.9688 1.2539 2.1328 1.9062 4.3906 1.9805 6.75 0.027344 2.3828-0.25 4.6914-0.875 6.9492z" fill="#0c0"/>
 <path d="m1013.3 981.56c0.125-0.125 0.17578-0.25 0.17578-0.375 0.62891-0.625 1.2812-1.3047 1.9844-2.0586 0.67578-0.75 1.3516-1.5039 1.9805-2.2578 0.625-0.75 1.2305-1.5039 1.7812-2.2578 0.55078-0.75 1.1523-1.5547 1.7812-2.4336 0.25-0.125 0.52734-0.39844 0.85156-0.85156 0.30078-0.42578 0.47656-0.77734 0.47656-1.0273v-111.52c0-0.12891-0.30078 0.125-0.92578 0.75-0.42969 0.42578-0.67969 0.67969-0.75391 0.75391l-3.9375 4.5156c-0.62891 0.75391-1.2305 1.5039-1.7812 2.2578s-1.1562 1.5039-1.7812 2.2578c-0.25 0.25-0.52734 0.60156-0.85156 1.0273-0.30469 0.45312-0.47656 0.77734-0.47656 1.0312v111.52c0.375-0.25 0.67578-0.50391 0.92578-0.75391z" fill="#0c0"/>
</svg>
