<?xml version="1.0" encoding="UTF-8"?>
<svg width="1587" height="1587" version="1.0" viewBox="0 0 1190.2 1190.2" xmlns="http://www.w3.org/2000/svg" zoomAndPan="magnify">
 <defs>
  <clipPath id="b">
   <path d="m0 0h1189.5v1189.5h-1189.5z"/>
  </clipPath>
  <clipPath id="a">
   <path d="m492 511h663.5v558h-663.5z"/>
  </clipPath>
 </defs>
 <g clip-path="url(#b)" fill="none">
  <path d="m0 0h1189.5v1189.5h-1189.5z"/>
  <path d="m0 0h1189.5v1189.5h-1189.5z"/>
 </g>
 <g clip-path="url(#a)">
  <path d="m943.97 922.28c-6.9258 10.145-12.047 19.652-19.09 27.41-7.4922 8.2266-15.969 16.297-25.516 21.785-22.703 13.059-38.633 8.4023-57.453-14.004-7.9922 10.164-15.25 21.34-24.469 30.496-3.1289 2.9883-6.5781 5.5508-10.344 7.6836-3.7656 2.1328-7.7383 3.7734-11.91 4.9258-17.113 4.6172-24.875 0.25-37.02-17.965-1.8398 2.9961-3.9336 5.8047-6.2891 8.418-10.125 9.2539-19.246 20.719-31.043 26.812-24.371 12.57-47.031-0.58203-49.359-28.09-1.2852-14.898-0.30078-29.641 2.9492-44.234 5.8203-25.434 14.105-50.301 21.34-75.387 0.62109-2.0938 1.3398-4.1523 2.0781-6.4023-11.641-1.1055-18.082 2.3672-21.711 14.473-9.4492 31.41-24.641 59.676-51.574 80.199-2.2305 1.707-3.3555 5.2578-4.25 8.1875-7.8945 25.703-16.219 51.234-33.18 72.746-9.9336 12.594-21.129 23.688-37.562 27.551-23.129 5.4102-41.113-3.8828-49.457-26.133-8.5195-22.68-8.5-46.211-5.6875-69.84 4.543-38.141 15.273-73.914 39.914-104.47 4.8789-6.2812 10.473-11.852 16.777-16.711 6.3008-4.8555 13.117-8.8438 20.438-11.961 24.797-10.32 47.516 0.66016 52.387 27.004 2.9688 16.336 2.6211 33.312 3.3945 50.035 0.25391 5.6055-0.66016 11.25 0.79688 17.594 2.7539-3.7617 6.2656-7.1992 8.1094-11.367 6.3086-14.105 12.07-28.441 17.93-42.68 4.5391-11.098 3.9961-19.188-5.8203-29.586-17.289-18.312-15.215-42.543-8.6562-65.164 1.4961-5.0781 3.5625-9.9141 6.2031-14.504 2.6406-4.5898 5.7773-8.8086 9.418-12.656 14.203-14.625 33.973-8.5156 36.398 11.641 2.1367 17.711 0.42969 35.93 0 53.914-0.11719 4.7695-1.6875 9.5039-2.8125 15.402 9.0039 0.75781 15.059-3.8789 20.043-9.5273 6.8125-7.7578 12.809-16.199 19.402-24.211 4.3203-5.6367 9-10.949 14.051-15.945 0.60156-0.60938 1.25-1.1641 1.9492-1.6602 0.69922-0.5 1.4336-0.9375 2.2031-1.3086 0.77344-0.37109 1.5742-0.67578 2.3984-0.91406 0.82422-0.23438 1.6602-0.39844 2.5156-0.48828 0.85156-0.09375 1.707-0.11328 2.5625-0.058594 0.85547 0.054688 1.6992 0.17969 2.5352 0.37891 0.83203 0.19922 1.6445 0.46875 2.4336 0.80859 0.78906 0.33594 1.543 0.73828 2.2617 1.207 6.6133 3.8789 6.3633 10.59 4.3047 16.41-4.2695 12.863-9.3672 25.387-15.289 37.578-15.852 30.902-30.422 62.234-35.234 97-1.4766 12.492-1.9453 25.023-1.3984 37.594 0.097656 3.7656 4.0195 10.535 6.0938 10.516 4.4062 0 10.438-2.5781 12.824-6.1094 14.047-20.699 24.488-42.527 26.875-68.426 5.8203-62.855 18.781-124.52 34.496-185.63 0.5625-2.1367 0.99219-4.2891 1.5742-6.8711-1.2383-0.58203-2.5312-0.97656-3.8828-1.1797-61.078 2.4414-122.33 3.9961-181.69 20.484-20.703 5.8203-40.379 15.191-60.535 22.891-5.9961 2.2891-11.973 4.7734-18.164 6.4805-6.6719 1.8438-13.582-0.25391-15.055-6.8281-0.16797-1.3398-0.17969-2.6836-0.046875-4.0273 0.13672-1.3438 0.42188-2.6523 0.85156-3.9336 0.43359-1.2773 1.0039-2.4961 1.707-3.6445 0.70703-1.1523 1.5312-2.2109 2.4727-3.1758 6.7812-5.543 14.277-9.8398 22.488-12.883 35.957-13.969 73.926-18.855 111.94-21.844 46.371-3.668 92.918-5.2578 139.39-7.7617 1.5898 0 3.1992-0.26953 5.6836-0.50391 3.3164-10.902 7.7617-21.707 9.7031-32.98 3.2383-18.641 13.582-28.305 32.012-30.184 4.6953-0.48438 9.2969-1.668 16.477-3.0273-5.2969 22.367-10.168 42.895-15.406 64.949 13.465-0.77344 25.961-0.83203 38.301-2.3281 35.254-4.2461 70.453-9.1367 105.69-13.578 6.5977-0.83594 9.6992-4.2305 12.086-10.379 15.02-39.285 31.047-78.199 55.531-112.73 9.9727-14.102 22.586-26.402 34.656-38.797 3.8789-4.0156 9.5469-6.7109 14.879-8.8086 18.184-7.1211 34.172 0.36719 39.836 18.992 9.7031 31.504 0.75781 60.023-15.637 86.852-19.406 31.586-47.422 52.383-81.766 65.379-3.707 1.418-8.207 4.7148-9.4102 8.1484-22.391 64.191-40.863 129.41-49.34 197.08-1.2773 9.6719-1.5547 19.371-0.83594 29.098 0.36719 4.793 3.1641 11.641 6.7891 13.289 3.6289 1.6484 11.645-0.23047 14.496-3.4531 12.242-13.969 25.027-27.953 34.363-43.844 14.145-24.133 20.391-51.504 25.902-78.84 4.5195-22.309 11.312-43.863 24.797-62.621 9.0781-12.629 19.984-23.066 36.359-25.219 13.352-1.707 24.254 7.0195 25.051 19.609 0.42578 6.9648-2.1562 10.961-9.2539 13.738-6.2305 2.4219-13.352 6.7305-16.418 12.238-8.8828 16.078-16.695 32.656-23.438 49.742-7.957 20.098-13.484 41.148-21.559 61.188-2.4219 6.2695-5.2305 12.359-8.4219 18.277-3.1875 5.9141-6.7383 11.609-10.645 17.078-3.9023 5.4688-8.1367 10.676-12.695 15.613-4.5586 4.9414-9.4102 9.5742-14.551 13.902-15.523 12.941-33.199 21.168-53.98 20.895-21.344-0.26953-33.527-10.184-38.301-31.039-0.46484-2.2109-0.98828-4.0742-1.9609-7.7773zm43.773-219.88c-2.9883 0-4.9102-0.15234-6.7891 0-44.629 3.8828-89.41 7.7617-134.13 11.445-5.5312 0.44922-7.8984 2.4453-9.082 7.7617-8.0898 36.238-18.004 72.148-24.273 108.64-6.5938 38.434-10.051 77.426-14.145 116.25-0.58203 5.7031 2.9688 11.852 4.6172 17.789 4.8125-4.1719 11.004-7.4883 14.203-12.668 13.953-22.582 20.219-47.59 23.906-73.914 5.1016-36.395 18.605-69.84 43.93-97.465 15.328-16.684 34.457-25.219 57.277-22.133 8.0508 1.0664 15.715 4.9844 23.941 7.7578 6.6758-20.621 13.426-41.438 20.547-63.457zm-103.86 206.84c0 4.832-0.94922 9.8945 0.23438 14.414 1.375 5.2188 3.3945 12.027 7.3711 14.375 6.4023 3.8828 10.945-2.7539 14.98-7.3711 17.637-20.312 29.766-44.055 37.797-69.219 5.8203-18.527 7.7617-38.508 9.6992-58.004 0.52734-5.3945-4.0156-13.133-8.6328-16.742-6.168-4.8125-13.254-0.36719-17.832 4.9453-6.0078 6.7461-11.312 14.008-15.91 21.789-16.801 29.68-25.34 61.902-27.707 95.812zm163.61-245.89c1.6992-0.17188 3.3672-0.49609 5.0078-0.96875 41.094-19.188 63.602-52.168 70.566-96.242 1.0938-7.3945 0.92578-14.762-0.50391-22.098-1.9414-9.6992-7.8984-11.098-15-4.1914-1.4219 1.3281-2.7148 2.7695-3.8789 4.3281-25.922 35.965-40.496 77.152-56.191 119.17zm-453.54 238.89c-0.94922-10.512-0.92969-19.398-2.832-27.738-0.98828-4.4062-4.6562-9.9922-8.4414-11.371-2.8516-1.0273-9.2539 2.8125-11.641 6.2109-14.727 21.164-18.277 44.367-9.7031 68.887 0.29297 0.92969 0.65234 1.832 1.0742 2.7109 0.42187 0.87891 0.90625 1.7227 1.4453 2.5312 0.54297 0.80859 1.1406 1.5742 1.793 2.2969 0.65234 0.72656 1.3555 1.3984 2.1016 2.0234 0.75 0.62109 1.5391 1.1914 2.3672 1.6992 0.83203 0.51172 1.6914 0.96094 2.5859 1.3477 0.89453 0.38672 1.8125 0.71094 2.75 0.96875 0.94141 0.25391 1.8945 0.44531 2.8633 0.5625 5.6641 0.93359 9.1953-0.13281 9.9727-6.8086 1.6094-15.016 3.8008-29.992 5.5859-43.32zm-57.742 61.035c-1.0664 9.5625-2.7734 16.855-2.5234 24.074 0.52344 14.395 0.73828 29.098 3.6875 43.027 2.5781 12.34 12.418 13.988 20.391 4.3477 14.105-17.016 19.402-37.715 24.645-60.141-17.387 3.7227-32.402 2.832-46.277-11.309zm131.94-141.23h3.0859v-38.512h-3.0859z"/>
 </g>
 <path d="m547.98 382.73c-7.5469 10.164-13.582 20.66-21.984 28.906-7.7617 7.7578-17.211 15.266-27.32 18.914-20.625 7.4102-39.191-3.707-40.859-25.414-1.4961-19.398 0.17188-39.344 2.9688-58.703 7.9336-55.742 19.73-110.66 35.391-164.74 0.097656-1.2227 0.039063-2.4414-0.17578-3.6484-16.957 6.4023-33.297 13.039-49.984 18.723-14.285 5.0664-28.828 9.2695-43.617 12.609-12.184 2.5781-20.215-1.9414-21.73-9.2344-1.6094-7.7617 5.4141-17.691 15.176-21.34 2.7344-1.0117 5.5508-1.7227 8.4375-2.1328 32.984-4.5039 64.031-15.52 94.746-27.512 1.2109-0.36719 2.3516-0.88672 3.4219-1.5586 1.0703-0.67578 2.0312-1.4805 2.8867-2.4141 0.85156-0.93359 1.5664-1.9648 2.1445-3.0898 0.57422-1.125 0.99219-2.3086 1.2461-3.5469 5.918-21.805 12.109-43.594 19.406-64.969 1.1719-3.0742 2.8516-5.8359 5.0312-8.2969 2.1836-2.457 4.7266-4.4531 7.6367-5.9844 11.469-5.3516 23.984-8.5156 38.805-13.578-8.2461 27.488-15.52 51.699-23.457 78.199 8.6523-2.9883 15.523-5.1016 22.121-7.7578 75.145-29.41 151.9-53.176 231.92-65.012 16.879-2.4805 34.129-2.7539 51.223-3.1797 6.8203 0.089844 13.469 1.2031 19.945 3.3359 8.9844 2.6406 15.523 8.2266 15.738 18.488 0.11328 8.8867-7.3359 16.723-17.852 18.973-4.4297 0.96094-8.9141 1.4297-13.445 1.3984-96.336-0.58203-188.34 22.055-278.94 52.086-11.352 3.7656-22.566 7.9766-33.508 12.727-3.375 1.457-7.3164 5.0078-8.1875 8.3438-18.008 68.094-36.75 136.07-43.637 206.49-0.57812 5.8359-0.46875 11.656 0.32812 17.461 1.1055 7.7617 7.3164 10.281 12.031 4.2891 13.133-16.664 25.863-33.621 28.812-55.891 5.1992-39.168 19.113-75.117 43.695-106.27 12.633-16.004 28.773-27.992 49.207-32.629 25.398-5.8203 41.441 7.9922 37.465 33.562-0.99219 6.1953-2.5508 12.25-4.668 18.156-2.1133 5.9102-4.7578 11.574-7.9219 16.996-15.523 26.324-38.344 45.258-66.398 57.363-6.6367 2.8516-9.9727 6.8086-9.7031 13.578 0.3125 9.3125 0.17578 18.801 1.9414 27.879 2.2305 11.641 10.98 16.723 21.809 11.969 10.633-4.707 20.402-10.805 29.301-18.293 28.25-23.805 44.062-54.688 51.492-90.828 5.6094-27.16 14.012-53.758 20.703-80.723 1.6719-6.6953 4.8906-11.039 11.391-12.961 11.254-3.3164 22.527-6.5742 36.168-10.551-3.8828 14.141-6.7734 25.219-9.7031 36.219l1.1641 0.98828c3.5312-4.1719 6.6367-8.8281 10.691-12.418 11.004-9.6992 21.168-21.336 33.898-28.051 22.234-11.641 42.957-0.17188 46.566 24.676 1.9414 13.176-0.15625 26.93-0.62109 40.41-0.32812 3.3906-0.86719 6.7461-1.6094 10.07 15.27-3.8828 29.102-8.0898 43.285-11.156 29.105-6.3047 58.211-8.2852 87.469-1.0273 38.34 9.5234 53.359 41.105 36.613 76.957-14.727 31.527-41.52 47.105-74.371 52.633-13.133 2.2305-26.949 1.1836-40.375 0.30859-3.3789-0.21094-6.4453-5.4297-9.7031-8.3594 3.5312-3.0469 6.7539-8.2266 10.652-8.8281 22.215-3.3945 41.852-12.105 57.004-28.477 7.3984-8.1836 13-17.449 16.805-27.801 5.8203-15.891-0.89453-28.539-17.113-33.27-9.9727-2.832-20.137-4.2734-30.5-4.3281-27.75-0.32813-54.66 5.2188-80.68 14.59-3.8789 1.375-7.2969 5.8203-9.4102 9.6992-12.496 22.543-23.285 46.094-37.215 67.723-7.4297 11.641-19.402 20.547-30.152 29.742-7.4883 6.4219-17.035 8.9219-26.078 3.0078-9.0391-5.918-7.4688-15.133-5.5469-23.785 6.75-30.188 23.941-53.504 48.973-70.867 8.6328-5.9766 13.969-13.172 15.793-23.066 2.8711-13.906 5.0352-27.918 6.5-42.039 0.42578-5.2188-3.5508-10.785-5.5117-16.199-5.082 2.1914-11.234 3.2188-15.055 6.7695-23.031 21.34-38.457 48.016-47.828 77.602-19.402 61.09-32.656 123.69-42.164 187.01-1.8242 12.125-6.1094 20.543-16.996 25.859-8.1094 3.8789-15.969 8.4766-24.059 12.512-3.707 1.8242-7.7617 3.0859-13.777 5.4727l31.625-140.88-1.0664-1.4531c-4.6562 5.1211-8.9453 10.59-13.988 15.285-3.332 3.1953-6.8711 6.1406-10.617 8.8398-3.7422 2.6992-7.6562 5.1211-11.742 7.2734-4.082 2.1523-8.2969 4.0078-12.641 5.5664-4.3438 1.5625-8.7734 2.8125-13.293 3.7539-22.277 4.5039-41.93 1.3398-54.426-21.145zm42.105-76.996c21.227-11.641 34.188-27.414 43.441-46.094 3.6094-7.2969 5.1211-15.773 6.7148-23.883 0.52344-2.5781-1.0703-7.1562-3.0469-8.1875-1.9805-1.0273-6.3633 0.67969-8.3438 2.582-20.898 20.137-29.977 46.27-38.766 75.582zm162.48 25.082 4.2891 3.2227c6.7148-11.176 13.414-22.352 20.102-33.523l-3.5117-2.1562c-6.9336 10.828-13.891 21.645-20.879 32.457z"/>
 <path d="m311.88 1112.1c-13.992 17.887-27.164 36.59-42.301 53.484-1.5664 1.8086-3.2305 3.5312-4.9805 5.1602-1.7539 1.6328-3.5859 3.168-5.5 4.6055-1.918 1.4375-3.9023 2.7656-5.9609 3.9922-2.0547 1.2266-4.1719 2.3398-6.3477 3.3398s-4.3984 1.8828-6.668 2.6484-4.5703 1.4062-6.9102 1.9258c-2.3359 0.51953-4.6953 0.91406-7.0742 1.1836s-4.7656 0.41016-7.1602 0.42578c-20.141 0.26953-33.898-9.0586-40.746-27.996-3.4766-9.6406-5.75-19.559-6.8242-29.75-1.0742-10.195-0.91406-20.367 0.48047-30.523 5.2578-40.293 12.164-80.391 18.957-120.49 5.9922-35.324 13.387-70.422 18.859-105.82 1.6289-10.555 0-21.961-2.0586-32.648-2.582-14.047-11.875-20.703-26.176-21.109-15.852-0.44531-29.645 5.7031-42.781 13.582-53.027 32.105-77.34 102.82-53.359 157.14 4.1523 9.4297 12.188 17.109 18.027 25.879 2.4453 3.668 6.4219 9.4688 5.1406 11.812-2.3867 4.3672-8.168 9.7031-12.418 9.7031-4.1523-0.15625-8.2383-0.78125-12.246-1.875-4.0117-1.0938-7.8477-2.6289-11.504-4.6055-22.137-12.086-33.199-31.934-35.641-56.648-0.59375-5.9609-0.79297-11.938-0.59766-17.93 0.19531-5.9883 0.78516-11.938 1.7695-17.848 0.98047-5.9141 2.3516-11.734 4.1016-17.465 1.7539-5.7305 3.875-11.32 6.3672-16.77 23.438-51.875 58.559-92.324 114.94-109.16 7.125-2.0391 14.383-3.3594 21.77-3.9648 7.3867-0.60156 14.758-0.47656 22.121 0.375 26.562 3.0859 42.473 20.156 48.684 45.98 5.8203 24.113 3.3555 48.246-1.0703 72.203-8.8477 47.977-18.957 95.738-26.68 143.91-3.8789 24.113-4.1133 48.867-5.0039 73.367-0.3125 8.6914-0.46484 19.73 9.8945 23.281 10.363 3.5508 15.871-5.8203 21.188-12.262 20.625-25.219 34.926-54.32 46.336-84.621 1.9375-5.375 0.96875-12.066 0.64062-18.121-2.0586-38.797-2.6211-77.598 7.082-115.68 3.3555-12.816 7.7852-25.254 13.289-37.305 3.2227-7.1797 8.6758-13.582 14.066-19.398 5.957-6.5 13.973-10.031 22.82-7.0039 9.2734 3.1797 13.871 11.094 13.738 20.387-0.23438 15.52-0.25391 31.156-3.1445 46.25-5.9375 31.039-14.184 61.691-20.586 92.691-4.8125 23.281-5.668 46.891 0.34766 70.207 4.4805 17.461 14.551 20.625 28.055 8.8086 17.969-15.695 28.891-36.512 38.438-57.676 5.5742-12.387 10.535-25.012 14.887-37.883 4.3477-12.867 8.0664-25.914 11.148-39.145 3.0859-13.227 5.5234-26.574 7.3125-40.035 1.7891-13.465 2.9219-26.984 3.4023-40.559 0.95313-24.113-1.7266-47.82-12.32-69.977-5.4141-11.328-12.613-20.855-25.223-25.566-3.6094-1.3594-8.9844-6.0742-8.5977-8.4219 0.45703-2.5781 1.375-4.9844 2.7461-7.2148 1.375-2.2344 3.1133-4.1328 5.2109-5.7031 21.188-13.195 51.164-5.0664 60.848 18.562 7.082 17.305 12.223 36.57 12.863 55.137 2.8906 81.961-11.273 161.02-48.141 234.91-8.6328 17.305-21.34 33.211-34.594 47.434-26.582 28.496-72.566 30.359-92.918-7.1992z"/>
 <path d="m430.74 112.96c-0.83203-10.902-1.125-18.586-2.0742-26.188-2.6016-20.664-7.9961-40.391-30.461-47.57-23.402-7.4883-44.629-0.8125-61.121 16.723-24 25.59-29.105 56.262-15.66 88.152 7.8125 17.777 17.617 34.379 29.418 49.801 19.207 25.938 41.5 49.625 60.285 75.871 30.305 42.352 40.336 89.453 27.375 140.77-18.723 74.164-87.934 128.71-161.41 126.82-67.25-1.7461-115.62-48.887-118.69-116.15-1.9414-42.27 9.0586-80.391 40.434-110.15 25.438-24.113 55.785-31.812 89.582-20.176 18.434 6.3438 30.289 20.004 34.926 38.684 0.85547 3.25 1.543 6.5352 2.0625 9.8516 0.51953 3.3203 0.86719 6.6562 1.0469 10.008 0.17969 3.3555 0.1875 6.7109 0.023438 10.066-0.16406 3.3555-0.49609 6.6914-1.0039 10.012-0.50391 3.3242-1.1758 6.6094-2.0156 9.8594-0.83984 3.2539-1.8398 6.457-3.0078 9.6055s-2.4883 6.2344-3.9727 9.2461c-1.4805 3.0156-3.1094 5.9492-4.8906 8.7969-2.793 4.5781-6.4805 9.6992-11.039 11.812-2.6328 1.2148-5.3906 1.9297-8.2812 2.1445-2.8867 0.21094-5.7227-0.089844-8.5039-0.90234-6.6328-2.4453-5.8203-9.1562-4.6758-15.828 3.2227-18.004 6.7539-36.125 7.5859-54.32 0.60156-13.23-2.5977-27.469-17.598-32.668-14.996-5.1992-27.164 1.668-37.41 12.277-13.27 13.754-19.711 30.867-23.012 49.316-5.043 28.129-2.2109 55.406 9.9375 81.477 17.461 37.387 54.539 53.875 93.578 40.352 43.832-15.188 67.098-49.023 77.379-92.266 11.738-49.273-4.6758-91.566-35.527-129.63-19.73-24.344-39.852-48.496-58.5-73.582-15.715-21.34-27.164-44.988-29.008-71.934-3.082-43.262 11.469-79.539 48.004-103.79 36.535-24.25 75.809-29.293 115.84-9.0195 32.461 16.449 39.078 55.871 14.766 82.758-3.2773 3.5898-8.2656 5.6836-14.379 9.7773z"/>
 <path d="m497.14 682.67c-5.082 6.8516-8.9844 13.758-14.453 19.016-5.543 5.4414-11.867 9.7305-18.977 12.859-9.9922 4.1914-16.34 0.40625-24.352-12.105-3.8828 4.8125-7.043 10.07-11.41 14.125-5.0039 5.0352-10.676 9.1562-17.016 12.355-11.641 5.2383-20.605 0.48438-21.344-12.184-0.36719-11.297 0.69922-22.457 3.2031-33.48 2.9297-14.551 7.5273-28.734 11.176-43.148 0.62891-2.3867 0.94141-4.8125 0.94141-7.2812 0-2.4727-0.3125-4.8984-0.94141-7.2852-2.9414 2.4062-5.7188 4.9922-8.3242 7.7578-16.184 19.73-23.613 43.574-30.949 67.355-3.7227 12.027-6.6328 24.309-9.8359 36.473-1.5508 5.8203-18.141 13.832-23.77 10.961-1.1445-0.60156-1.3203-3.1445-1.8242-4.5-7.5859 4.5781-14.785 10.203-22.934 13.578-9.0039 3.668-15.23-0.26953-21.344-11.641-2.3008 3.0781-4.8516 5.9375-7.6445 8.5781-7.9336 6.3633-15.734 13.133-24.465 18.195-6.1133 3.5703-11.934 1.0859-14.086-6.7695 29.492-12.531 42.859-37.754 51.707-66.094 6.1484-19.73 10.902-39.867 16.668-59.734 3.4531-11.891 16.879-19.398 31.238-17.246-8.5586 37.383-23.012 73.41-27.164 111.66l2.9883 1.5938c2.8633-2.6016 5.5586-5.3594 8.0898-8.2852 15.93-20.641 20.84-45.531 26.582-70.074 2.2695-9.6992 4.8125-19.398 6.1523-29.406 1.4141-10.496 6.7695-16.18 17.035-17.887 4.3242-0.71875 8.5938-1.9414 13.988-3.2031-0.89062 5.5859-1.5898 9.8945-2.2695 14.219l1.7656 1.5352c5.043-5.3945 9.7969-11.078 15.191-16.102 3.3594-3.0742 7.1094-5.5508 11.254-7.4297 11.469-5.3164 21.48 0 22.082 12.609 0.058594 7.7539-0.94922 15.363-3.0273 22.832-4.6953 19.789-10.207 39.363-14.785 59.168-0.875 3.8828 1.0273 8.2852 1.6484 12.457 3.2578-2.6406 8.0117-4.5977 9.5469-8.0117 7.082-15.832 14.824-31.602 19.5-48.191 10.109-36.043 18.508-72.574 27.57-108.91 0.125-1.4258 0.125-2.8555 0-4.2852-20.41 8.3008-39.93 16.43-59.625 24.113-6.2383 2.5859-12.703 4.3086-19.402 5.1602-3.375 0.35156-9.3516-1.9414-10.109-4.4219-0.92969-3.0078 1.418-8.2461 4.0156-10.77 3.0273-2.9297 7.7617-4.3242 11.973-5.8164 25.012-8.5391 50.156-16.723 75.09-25.531 2.9297-1.0469 5.6836-4.8711 6.8672-8.0312 3.125-8.4805 5.2383-17.305 7.9375-25.938 5.2383-16.801 13.582-23.027 33.953-24.23-3.8789 13.578-7.6055 26.559-11.91 41.613 6.8867-2.8711 12.047-5.1055 17.266-7.1602 16.531-6.4805 32.984-13.152 49.711-19.188 6.1914-2.25 14.551-5.0234 17.211 4.0938 2.4844 8.5742-4.6367 12.531-11.816 14.957-23.285 7.8789-46.449 15.832-69.852 23.438-6.8477 2.2305-10.379 6.168-12.086 13.305-11.469 47.727-23.48 95.293-34.809 143.05-1.0273 4.2695 1.4727 9.3906 2.3281 14.125 3.8789-2.9883 8.6133-5.2969 11.312-9.082 3.8867-5.3789 7.0117-11.172 9.3789-17.375 2.3633-6.2031 3.8867-12.609 4.5703-19.211 1.1133-10.336 3.4609-20.379 7.043-30.137 3.5781-9.7578 8.2891-18.938 14.125-27.539 9.4297-14.027 22.023-23.551 38.805-26.926 17.113-3.4141 28.641 5.6836 29.242 23.105 0.30859 9.2344 0 18.488 0 27.723l2.3477 1.7812 34.051-38.68 3.0273 1.5898c-1.4531 4.5391-1.707 10.125-4.5781 13.406-10.77 12.258-22.547 23.668-33.664 35.637-3.6562 3.7891-6.7305 8.0039-9.2188 12.648-6.8867 13.461-11.816 28.148-20.254 40.469-5.6875 8.2422-15.23 15.09-24.508 19.398-14.164 6.3438-27.242 0.48438-35.836-13.66zm28.426-45.664c-1.2031 2.8359-2.1836 5.75-2.9375 8.7383-0.75781 2.9883-1.2812 6.0195-1.5703 9.0859-0.28906 3.0703-0.34375 6.1445-0.16016 9.2188 0.18359 3.0781 0.60156 6.125 1.2539 9.1367 0.66016 3.3555 3.2969 8.2461 5.8203 8.7695 2.5234 0.52344 7.5469-2.4844 9.1562-5.2773 6.6172-11.504 12.379-23.531 18.355-35.211zm38.125-40.855c-0.17969-4.5117-0.67578-8.9883-1.4922-13.426-1.3594-5.6641-5.5508-6.9062-10.402-4.0742-10.785 6.2852-14.918 34.918-6.1094 44.094 1.2695 1.1406 2.707 2.0078 4.3086 2.5977 1.6055 0.58984 3.2578 0.86328 4.9648 0.81641 1.6875 0 4.1133-3.8789 4.6758-6.2852 1.6875-7.4883 2.6602-15.168 4.0547-23.723z"/>
 <path d="m721.86 648.25c-0.42578-3.0625-0.71484-5.2969-1.0273-7.5469l-3.2969-2.4414c-3.668 4.8477-6.7539 10.359-11.137 14.43-6.4258 5.957-14.34 9.3125-23.129 5.2773-8.4609-3.8789-9.9336-12.164-8.8086-19.863 3.1602-22.02 6.9844-43.941 11.234-65.766 3.6445-18.625 8.2461-37.055 13.02-58.199-13.777 6.5-25.789 12.125-37.758 17.828-2.3281 1.1055-4.4648 2.6367-6.8125 3.6875-5.4531 2.4805-12.008 3.4531-13.91-3.0664-1.1836-4.0547 1.9375-10.012 4.4219-14.258 1.3008-2.1758 5.6484-2.7188 8.7109-3.6094 3.7188-1.1016 7.4922-1.9805 11.312-2.6406 26.836-4.6914 45.891-16.082 49.789-46.75 2.4844-19.52 16.066-27.742 34.266-25.859-3.6875 13.578-7.375 27.043-11.508 42.289 8.8516-3.6641 15.758-6.1484 22.258-9.4258 1.1602-0.76172 2.1602-1.6914 3.0039-2.793 0.83984-1.1016 1.4766-2.3125 1.9023-3.6289 3.125-8.4805 5.8242-17.133 8.5781-25.707 5.082-15.52 12.902-20.543 31.043-19.281-3.1406 11.504-6.2461 22.852-9.9336 36.297 7.4336-2.8711 13.156-5.2188 18.977-7.3164 15.793-5.6445 31.473-11.637 47.5-16.527 6.3242-1.9414 15.984-4.2656 17.695 5.5273 1.6094 9.293-7.1992 11.059-14.672 13.27-23.805 7.043-47.438 14.629-71.07 22.254-1.2031 0.36328-2.2812 0.94922-3.2383 1.7578-0.95703 0.80859-1.7148 1.7734-2.2734 2.8984-4.8867 15.496-8.6758 31.254-11.371 47.277 5.375-5.4727 10.48-11.215 16.203-16.258 3.582-3.3281 7.6367-5.9141 12.164-7.7617 13.953-5.1602 23.285 1.4961 20.59 16.102-3.8828 21.555-10.129 42.68-14.863 64.02-1.5312 7.4727-1.8242 14.996-0.875 22.562 12.281-9.4648 20.645-20.816 23.07-35.676 4.4648-27.293 12.844-52.922 32.984-72.863 6.2227-6.1602 13.406-10.836 21.559-14.027 15.113-5.7031 25.57 3.2969 24.156 19.398-1.418 16.102-8.9648 29.605-20.762 40.43-5.5547 4.9531-11.543 9.3047-17.969 13.055-14.512 8.7695-17.461 14.609-14.84 31.039 1.9375 11.641 8.6133 15.715 19.402 11.039 3.3633-1.4023 6.6016-3.0508 9.7148-4.9453 3.1094-1.8984 6.0625-4.0195 8.8477-6.3672 2.7891-2.3477 5.3789-4.8945 7.7773-7.6367 2.3984-2.7461 4.5742-5.6562 6.5273-8.7344 1.6094-2.5195 4.832-4.0156 7.3164-5.9922 0.73438 3.4727 2.793 7.3516 1.9375 10.34-0.62109 2.3438-1.5664 4.5547-2.8359 6.625-1.2695 2.0703-2.8047 3.9141-4.6133 5.5391-10.324 8.0312-20.684 16.625-32.383 22.152-16.008 7.5469-32.695 9.6055-44.629-9.4648-3.082 4.8438-6.4531 9.4805-10.105 13.91-4.3477 4.6562-8.8867 9.6992-14.359 12.629-13.816 7.6055-26.969 0.73438-27.453-14.918-0.082031-11.949 1.0938-23.77 3.5312-35.465 1.9375-10.766 5.8203-21.184 8.4961-31.816 1.2617-4.8672 1.9414-9.8906 2.9492-14.84l-2.582-1.6094c-3.2383 3.5703-6.7109 6.9648-9.6992 10.746-21.578 27.512-32.055 59.598-37.059 93.527-1.3984 9.5039-4.8516 13.91-14.012 14.664-3.8398 0.56641-7.5469 1.6328-11.953 2.4844zm-20.215-14.586 3.1797 1.4922c2.543-2.0938 6.0547-3.6875 7.4922-6.3633 6.0508-11.289 12.98-22.445 16.84-34.512 6.9453-21.766 11.934-44.172 17.754-66.328 3.1797-12.027 6.3633-24.055 9.9922-37.809-5.8203 2.25-9.7031 4.1875-13.93 5.3516-9.2188 2.582-14.203 8.0508-16.359 17.734-7.6445 34.297-16.16 68.383-23.961 102.64-1.3008 5.707-0.71875 11.836-1.0078 17.793zm159.88-85.129c21.75-12.824 34.168-35.074 27.805-48.672-16.473 11.543-21.074 29.176-27.805 48.672z"/>
 <path d="m335.4 575.93c5.4141 0.32812 10.012 2.9883 10.168 10.32 0.15234 7.7578-8.1133 15.965-16.551 15.906-7.0039 0-11.777-3.1992-11.645-11.039 0.019531-8.1836 7.7422-15.09 18.027-15.188z"/>
</svg>
