<?xml version="1.0" encoding="UTF-8"?>
<svg width="1587" height="1587" version="1.0" viewBox="0 0 1190.2 1190.2" xmlns="http://www.w3.org/2000/svg" zoomAndPan="magnify">
 <defs>
  <clipPath id="a">
   <path d="m0 0h1189.5v1189.5h-1189.5z"/>
  </clipPath>
 </defs>
 <g clip-path="url(#a)" fill="none">
  <path d="m0 0h1189.5v1189.5h-1189.5z"/>
  <path d="m0 0h1189.5v1189.5h-1189.5z"/>
 </g>
 <path d="m952.2 714.29c-14.383 48.746-20.523 99.914-31.488 150.06-1.7109 7.625-3.0938 15.387-5.1289 25.508 9.7461-6.3242 17.41-11.059 24.832-16.137 30.785-21.082 61.488-42.504 86.441-70.695 17.957-20.293 32.496-42.555 36.449-70.25 6.0859-42.297-17.84-71.945-60.617-74.457-29.863-1.7109-57.57 6.207-83.703 20.055-11.188 5.9336-21.996 12.582-35.148 20.141 31.727-37.77 65.371-67.961 115.09-71.809 25.16-1.9141 49.07 3.1484 69.371 18.809 32.496 25.129 39.34 59.035 31.25 97.312-6.9961 32.965-25.656 59.309-48.695 82.852-30.137 30.773-66.242 53.805-102.5 76.473-10.621 6.6523-21.773 12.48-32.172 19.422-1.7812 1.2383-3.2852 2.75-4.5195 4.5352-1.2344 1.7812-2.1172 3.7266-2.6484 5.8281-6.6875 34.672-12.535 69.496-19.238 104.15-4.7227 24.379-14.641 46.059-35.473 61.375-5.0234 3.8125-10.473 6.8672-16.344 9.1641-5.875 2.2969-11.949 3.75-18.223 4.3594-36.758 3.4219-62.242-25.078-57.434-62.812 4.5469-35.781 23.344-63.258 49.598-85.996 16.746-14.547 34.566-27.902 52.492-41.031 1.3789-0.90234 2.6172-1.9688 3.7109-3.1992 1.0977-1.2305 2.0156-2.582 2.7578-4.0547 0.73828-1.4727 1.2734-3.0156 1.6016-4.6289 0.33203-1.6172 0.44531-3.2461 0.34375-4.8906-8.125 7.7305-15.785 16.242-24.645 23.199-20.918 16.434-43.375 8.875-51.312-17.746-3.4219 5.7109-6.1406 10.754-9.1836 15.645-9.1328 14.738-19.617 28.09-36.738 34.195-24.117 8.6836-44.469-3.0781-49.02-28.281-3.9336-21.781 0.54688-42.621 8.1914-62.762 6.1406-16.172 13.82-31.781 20.527-46.93-7.9883 1.7109-17.293 3.6602-26.461 6.1055-1.7109 0.44141-3.4219 2.9219-4.1914 4.8203-11.082 24.5-26.168 45.289-51.086 57.617-1.8477 0.92188-2.582 5.1289-2.8398 7.9844-3.1484 33.098-13.254 63.496-35.062 89.176-11.27 13.266-24.938 23.422-42.059 27.988-24.457 6.5117-42.125-0.39453-56.441-22.227-2.0859 3.418-3.9492 6.375-5.7969 9.3867-9.3555 15.18-19.992 29.32-35.832 38.262-6.4141 3.7617-13.258 6.4336-20.523 8.0156-19.789 3.8984-35.371-7.3164-39.477-27.148-3.7773-18.207 0.96094-35.699 4.5508-53.203 8.5508-41.512 17.445-82.953 26.816-127.32l-57.535 21.387c1.9688-8.5469 4.0391-19.215 7.2188-29.629 0.85547-2.8203 4.6875-5.625 7.7656-6.7344 13.684-4.9414 27.363-9.5742 41.355-13.68 5.5938-1.707 8.4492-4.2891 9.5625-10.137 3.418-17.883 7.625-35.629 11.082-53.512 1.0938-5.6953 3.418-8.7031 9.2188-10.566 12.398-4.0195 24.492-9.0117 35.148-13.027-5.2852 22.07-10.828 45.168-16.867 70.387l76.113-26.621c-4.4844 12.105-7.6133 22.98-12.605 32.914-1.9336 3.8438-7.75 6.5469-12.367 8.1016-16.453 5.5234-33.094 10.551-49.805 15.387-4.9766 1.4219-7.457 3.5586-8.5508 8.875-10.16 51.391-20.645 102.71-30.926 154.09-0.66797 3.6523-0.94141 7.332-0.82031 11.043 0.27344 14.395 8.5508 19.523 19.719 10.395 18.902-15.539 34.09-34.023 35.578-60.387 0.42969-8.6133 1.3711-17.168 2.8203-25.672 1.4492-8.5 3.3984-16.887 5.8477-25.156s5.3789-16.363 8.793-24.285c3.4141-7.9219 7.2852-15.613 11.613-23.07 11.973-20.637 32.977-31.734 57.742-29.289-6.3281 8.5508-13 16.516-18.438 25.254-6.125 9.8125-12.23 19.898-16.367 30.637-4.8359 12.699-8.207 25.773-10.113 39.227-1.9062 13.457-2.2969 26.953-1.1758 40.496 0.73438 9.7422 2.3242 20.207 13.324 23.781 10.996 3.5742 19.582-2.4961 26.32-10.258 17.855-20.516 25.125-45.309 27.246-71.586-1.1797-0.83594-1.5742-1.332-2.0703-1.4336-19.137-4.207-28.066-12.191-30.684-27.543-3.2148-18.809 4.8398-40.18 18.266-48.641 0.91406-0.58984 1.8594-1.1289 2.8359-1.6133 0.97266-0.48047 1.9727-0.91016 2.9961-1.2812 1.0195-0.37109 2.0625-0.6875 3.1172-0.94141 1.0586-0.25391 2.1289-0.44922 3.207-0.58594 1.0781-0.13281 2.1641-0.20703 3.25-0.22266 1.0898-0.011718 2.1758 0.035156 3.2578 0.14453 1.082 0.10547 2.1562 0.27734 3.2188 0.50391 1.0625 0.23047 2.1094 0.51562 3.1445 0.86328 1.0312 0.34766 2.0391 0.75 3.0234 1.207 0.98828 0.46094 1.9453 0.97266 2.875 1.5391 0.92578 0.57031 1.8203 1.1836 2.6797 1.8516s1.6797 1.3828 2.457 2.1406c0.78125 0.75781 1.5156 1.5586 2.2031 2.4023 0.69141 0.83984 1.3281 1.7188 1.9219 2.6328 0.58984 0.91016 1.125 1.8555 1.6133 2.8281 0.48437 0.97266 0.91016 1.9727 1.2852 2.9922 3.043 8.1758 4.2422 17.098 6.5156 26.605 2.875-2.0703 6.4844-3.7969 8.8594-6.582 5.1328-6.0195 9.8359-12.516 14.539-18.945 5.5078-7.4883 7.1641-14.02 1.3867-23.543-11.117-18.273-3.4219-41.508 14.246-49.578 12.57-5.7461 23.105 0.42578 23.945 14.309 0.27344 5.1289-0.39453 10.258-0.68359 16.805 28.512-1.3828 51.652-12.598 71.422-32.363 8.2461 3.5898 11.41 11.012 7.2539 21.422-3.6953 8.6406-7.9609 16.988-12.793 25.047-15.395 27.117-28.582 55.156-34.312 86.066-1.2383 6.7344-1.6055 13.516-1.1094 20.344 0.73438 9.25 6.8398 12.551 14.914 7.9492 5.1758-3.0703 9.5508-7.0312 13.117-11.879 18.316-24.328 28.906-52.129 35.371-81.637 4.7383-21.695 9.5078-43.375 13.766-65.156 1.4727-7.5898 4.6211-11.73 12.59-13.68 11.973-2.9219 23.535-7.5039 33.883-10.922-14.078 44.348-21.738 91.434-29.539 138.48-0.94141 5.6758 0.42969 14.859 4.1914 17.508 6.5859 4.6328 13.254-1.707 18.422-6.6484 16.043-15.387 23.941-35.188 28.664-56.285 6.8398-31.137 13.188-62.379 19.035-93.723 1.625-8.5469 4.8398-13.438 13.82-15.387 11.441-2.8555 22.594-7.0625 32.977-10.277zm-87.227 242.47-2.5859-0.875c-19.258 16.738-38.805 33.289-51.891 55.82-8.5508 14.672-12.52 30.555-9.4258 47.547 3.1328 17.27 18.234 23.492 31.387 11.867 3.457-3.125 6.3945-6.6758 8.8164-10.656 2.418-3.9844 4.2188-8.2266 5.3984-12.734 7.0977-30.105 12.449-60.625 18.332-90.969zm-253.85-116.8c-9.0977 10.633-5.1328 25.762 6.9258 29.062 0.27344-10.324 1.2852-20.5-6.9258-29.062z"/>
 <path d="m922.83 336.61c13.684 15.797 20.012 33.219 19.875 52.453-0.35938 54.898-23.773 99.383-63.66 135.8-17.922 16.379-38.414 28.465-62.598 33.355-19.516 3.9492-34.773-0.70312-46.059-14.719-2.0898 3.6562-3.918 7.0234-5.9023 10.258-7.3711 12.207-16.676 22.465-30.016 28.227-17.223 7.4531-30.293 1.8125-36.723-15.969-4.1367 6.6328-7.9336 13.078-12.125 19.266-1.6367 2.4297-3.4648 4.7031-5.4844 6.8203-2.0234 2.1172-4.207 4.0469-6.5586 5.7969-2.3477 1.7461-4.8281 3.2812-7.4375 4.6094-2.6094 1.3242-5.3125 2.4219-8.1094 3.2891-16.965 5.5234-28.801 0.49609-36.77-16-4.293 6.293-8.1602 12.41-12.504 18.172-8.5508 11.285-19.121 19.578-33.746 21.168-0.84375 0.10547-1.6953 0.16797-2.5469 0.18359-0.85156 0.015625-1.6992-0.011718-2.5508-0.082031-0.84766-0.074219-1.6914-0.19141-2.5273-0.35156-0.83594-0.16016-1.6641-0.36328-2.4766-0.60937-0.81641-0.25-1.6172-0.53906-2.4023-0.87109-0.78516-0.33203-1.5508-0.70312-2.2969-1.1133-0.74219-0.41406-1.4648-0.86328-2.1641-1.3516-0.69922-0.48438-1.3711-1.0078-2.0156-1.5664-0.64062-0.55859-1.2539-1.1484-1.8359-1.7695-0.58203-0.625-1.1289-1.2773-1.6445-1.957-0.51172-0.67969-0.98828-1.3828-1.4258-2.1133-0.44141-0.73047-0.83984-1.4805-1.1992-2.2539-0.35938-0.76953-0.67969-1.5586-0.95703-2.3633-0.27734-0.80469-0.51172-1.625-0.70312-2.4531-0.19141-0.83203-0.33984-1.668-0.44141-2.5117-0.10547-0.84766-0.16406-1.6953-0.17969-2.5469-0.21875-5.6094 0-11.234 0-16.945-14.656 4.7031-14.656 4.7031-14.586 18.707 0.13672 30.891-23.945 54.707-52.203 51.391-12.809-1.4883-19.344-8.207-20.301-21.164-1.418-19.422 9.2891-32.195 23.945-42.418 12.195-8.5469 12.367-8.2578 5.2344-21.953-1.4023-2.6836-2.9062-5.2812-5.1328-9.1797-4.9766 10.258-8.9766 19.66-13.902 28.516-12.574 22.602-25.262 45.188-38.551 67.398-1.4727 2.5391-3.1602 4.9297-5.0625 7.1641-1.9062 2.2383-3.9961 4.2852-6.2734 6.1406-2.2734 1.8555-4.6992 3.4922-7.2734 4.9062-2.5742 1.418-5.2539 2.5898-8.0391 3.5156-18.969 6.293-33.199-2.5781-33.645-22.566 0-12.809 1.4609-25.449 4.3789-37.922 3.543-16.668 8.707-32.977 13.102-49.477 0.66797-1.9102 0.88281-3.8711 0.63281-5.8789-0.92578-3.1094-2.0664-6.1367-3.4219-9.082-2.75 1.1484-6.6016 1.5078-8.0547 3.5586-9.3203 13.148-20.984 25.645-26.492 40.297-10.496 28.574-19.121 57.699-25.879 87.379-3.5234 14.926-8.5508 24.723-24.781 26.91-5.6094 0.75391-10.844 4.2578-16.609 6.6523 5.5781-23.062 11.258-45.613 16.422-68.285 6.6797-29.43 13.102-58.91 19.258-88.441 1.4727-7.1289 4.6172-10.703 11.871-11.965 7.7969-1.4219 15.391-4.1719 23.945-6.6016-1.3359 6.5312-2.6016 12.719-3.8516 18.926l1.5078 0.89062c2.3086-2.957 4.207-6.3789 6.9922-8.7891 9.375-8.1211 18.047-17.848 28.82-23.355 18.543-9.4531 35.73 1.8633 34.449 22.551-0.875 13.953-5.5078 27.73-9 41.461-3.1445 12.395-7.5586 24.5-10.262 36.98-1.3164 5.9141-4.0352 14.395 3.6445 17.523 6.9453 2.8398 11.562-4.0508 14.57-9.3164 17.754-31.129 35.207-62.438 52.355-93.93 1.3516-2.4805 0.35938-6.6172-0.35938-9.7969-4.0039-17.883-3.2148-35.152 6.6875-51.121 5.1328-8.1719 11.664-14.77 21.516-17.094 9.8516-2.3281 17.105 2.3594 15.395 12.086-2.0664 12.039-5.75 23.562-11.051 34.57-4.3945 9.043-4.6328 16.328 0.37891 24.652 6.6016 10.961 12.742 22.227 19.086 33.289 17-3.2148 26.031-11.969 29.469-28.246 3.5078-16.719 7.1836-33.391 10.605-50.125 1.1445-5.5938 3.6406-8.9766 9.6953-10.258 9.0664-1.8633 17.926-4.6523 26.031-6.8398-7.1289 33.938-14.52 67.496-20.898 101.23-1.043 5.4883 0.53125 14.926 4.1367 17.094 6.3633 3.7461 11.973-2.9375 15.617-8.5469 7.8828-12.105 15-24.176 17.102-39.32 3.6445-26.707 11.805-52.301 28.445-74.184 4.6406-6.1641 10.016-11.602 16.129-16.312 18.969-14.43 33.453-13.914 51.582 1.4023l15.789-71.805c0.28906-1.125 0.48047-2.2656 0.57812-3.4219 0.70312-11.812 6.8438-18.273 18.578-20.344 6.2734-1.1094 12.227-3.9648 16.707-5.4883-11.973 57.84-24.25 116.26-36.41 174.62-0.69531 2.1953-0.96875 4.4414-0.82422 6.7383 0.93359 3.9375 2.0742 7.8125 3.4219 11.625 4.3945-1.3516 10.059-1.418 12.949-4.2734 10.262-10.121 17.82-21.492 17.77-37.219-0.085937-7.4961 0.42969-14.949 1.5547-22.359 1.1211-7.4102 2.8359-14.68 5.1406-21.812 2.3047-7.1328 5.168-14.031 8.5938-20.699 3.4219-6.6641 7.3633-13.012 11.82-19.043 9.3906-12.871 21.121-23.113 37.184-27.199 21.309-5.418 36.48 5.832 34.719 27.715-0.83984 10.375-4.9102 21.062-9.75 30.449-10.656 20.668-28.117 35.578-45.957 49.957-3.1289 2.5469-9.1172 3.5391-6.8398 10.121 2.2734 6.582 5.8125 11.965 12.859 11.965 7.957 0.125 15.688-1.1328 23.195-3.7773 15.203-5.9492 26.973-17.098 36.652-29.918 33.367-44.348 47.891-95.043 49.703-149.89 0.085937-2.8555 0-5.6953-0.085937-8.5508-0.085938-0.015625 0.035156-0.28906 0.46094-2.2734zm-271.12 222.26c-0.015625 3.3789 0.15625 6.7461 0.51562 10.105 1.707 11.199 9.8828 14.414 18.18 6.5469 5.5234-5.3789 10.152-11.445 13.887-18.191 11.051-19.559 17.105-41.031 20.25-63.051 0.97656-6.8398-1.3516-14.531-3.2305-21.543-1.9844-7.4531-8.0547-8.5469-13.223-4.0508-6.3672 5.2422-11.742 11.355-16.129 18.344-12.945 22.02-18.078 46.52-20.25 71.859zm147.09-64.352c15.223-11.336 27.129-22.602 33.18-38.383 2.668-7.7578 4.1445-15.734 4.4297-23.934 0.20703-3.1992-3.1797-6.6172-4.9414-9.9336-3.0625 1.7109-7.0117 2.7695-9.0312 5.3164-14.879 18.91-21.582 40.828-23.586 66.949zm-299.5 111.37c-10.758 5.7305-18.383 12.191-18.812 23.695-0.10156 3.4219 2.7891 6.8398 4.3086 10.141 3.4219-1.5742 7.8008-2.3086 9.9375-4.9062 6.707-8.0195 6.3477-17.66 4.6211-28.91z"/>
 <path d="m329.1 853.63c4.2422-5.4023 7.3711-9.3516 10.449-13.352 2.7891-3.5352 5.2188-7.3008 7.2852-11.301 2.0664-4 3.7383-8.1562 5.0078-12.477 1.2695-4.3203 2.1172-8.7188 2.543-13.199 0.42969-4.4805 0.42578-8.9609-0.003906-13.441-2.1211-25.016-23.074-35-44.145-21.133-1.2031 0.77344-2.3672 1.5977-3.5039 2.4648-1.1328 0.86719-2.2344 1.7773-3.2969 2.7305-1.0625 0.95703-2.0859 1.9531-3.0703 2.9883-0.98047 1.0352-1.9219 2.1094-2.8203 3.2188-0.89844 1.1094-1.7539 2.2539-2.5625 3.4297-0.80469 1.1797-1.5664 2.3867-2.2773 3.625-0.71484 1.2383-1.375 2.5039-1.9883 3.793-0.60938 1.293-1.1719 2.6055-1.6797 3.9375-0.50781 1.3359-0.96094 2.6875-1.3633 4.0586-0.39844 1.3711-0.74609 2.7578-1.0352 4.1523-0.29297 1.3984-0.52734 2.8086-0.70703 4.2227-0.17578 1.418-0.30078 2.8398-0.36719 4.2656-0.066406 1.4297-0.078125 2.8555-0.03125 4.2812 0.046875 1.4297 0.15234 2.8516 0.3125 4.2695 0.15625 1.4219 0.375 2.832 0.64453 4.2344 0.27344 1.4023 0.59766 2.7891 0.98047 4.168 1.9883 6.9492 4.5859 13.664 7.7891 20.145 3.2031 6.4844 6.9648 12.625 11.281 18.426 14.52 19.285 31.504 36.738 47.375 55.016 18.543 21.336 33.266 44.879 39.902 72.68 20.355 85.207-31.352 165.84-119.4 186.35-24.426 5.6953-49 7.3711-73.75 2.1562-54.27-11.453-89.676-48.949-98.09-103.85-8.6719-56.672 16.66-113.76 64.277-141.63 31.125-18.223 64.273-22.977 98.223-7.5898 34.48 15.629 53.996 56.949 45.617 95.094-8.8789 40.348-42.453 68.574-81.672 68.609-2.3945 0-4.7891-0.32422-9.4219-0.66797l9.1328-4.9766c31.625-17.25 50.012-52.453 44.18-84.594-5.9531-32.809-32.5-50.074-64.859-42.281-23.121 5.5742-39.457 20.09-50.828 40.145-1.7891 3.0469-3.4141 6.1758-4.8789 9.3906-1.4609 3.2109-2.7578 6.4922-3.8867 9.8359-1.1289 3.3438-2.0859 6.7383-2.8672 10.184-0.78125 3.4414-1.3828 6.918-1.8086 10.422-0.42578 3.5039-0.67188 7.0234-0.73828 10.555-0.066406 3.5273 0.050781 7.0547 0.34766 10.57 0.29297 3.5195 0.76953 7.0117 1.4219 10.484 0.65625 3.4688 1.4844 6.8945 2.4883 10.281 10.555 37.613 39.645 61.258 78.676 64.113 55.773 4.0664 104.67-23.406 122.17-70.215 16.16-43.223 7.2852-83.23-20.527-118.84-14.195-18.105-30.785-34.398-46.18-51.566-19.188-21.387-33.504-45.031-37.285-74.352-7.0781-54.812 30.547-102.58 85.742-106.99 24.68-1.9844 45.496 6.3594 57.09 29.406 12.145 24.176 9.9023 48.211-6.2578 70.098-12.332 16.566-29.59 24.992-51.637 28.652z"/>
 <path d="m638.76 275.91c-1.2148-15.27 6.582-19.629 17.699-21.336 5.2344-0.80469 10.262-3.1289 14.762-4.5664-6.125 26.672-12.332 53.359-18.352 80.082-1.2695 5.2617-2.0117 10.594-2.2227 16 0 2.3945 1.6055 6.1211 3.418 6.8398 0.66016 0.14844 1.3281 0.21484 2 0.19531 0.67578-0.019531 1.3398-0.12109 1.9883-0.30859 0.64844-0.1875 1.2656-0.45312 1.8477-0.79687 0.58203-0.33984 1.1094-0.75 1.5898-1.2266 4.5977-6.3945 9.8828-12.891 12.16-20.207 5.3867-17.355 9.4219-35.152 13.578-52.863 5.7812-24.637 11.188-49.359 17.242-76.254l-155.01 35.051c1.8789-5.6953 4.0703-13.234 6.9766-20.516 0.63672-1.043 1.4531-1.9102 2.4531-2.6055 1-0.69531 2.0977-1.1602 3.293-1.3984 41.75-8.957 83.379-18.602 125.39-26.141 16.418-2.9375 25.398-9.3164 26.219-26.207 0.78906-16.141 7.6289-27.066 25.418-28.246 2.8906-0.1875 5.6758-1.8945 7.9336-2.7188-3.3164 14.398-6.582 28.586-10.156 44.043l40.105-9.8477c-3.4219 13.676-6.6172 25.543-22.047 26.586-18.812 1.2656-25.055 12.121-27.98 29.746-5.457 32.828-13.684 65.191-20.523 97.777-1.5039 7.0625-3.0469 15.523 3.6758 19.66 7.3906 4.5312 14.215-1.4688 19.516-6.582 13.957-13.508 26.562-28.176 37.82-44.004 11.258-15.828 20.977-32.547 29.156-50.164 0.625-1.6992 0.98438-3.4531 1.0742-5.2578 0.089844-1.8086-0.09375-3.5898-0.54297-5.3398-0.74609-3.418-1.1914-6.875-1.3398-10.367-0.14453-3.4961 0.007812-6.9766 0.46484-10.445 0.45312-3.4648 1.2031-6.8711 2.2461-10.207 1.043-3.3398 2.3633-6.5625 3.9648-9.6719 3.9688-8.0195 9.8867-13.953 18.812-15.984 11.031-2.5156 16.59 2.0312 14.199 12.957-2.1719 9.7422-5.4883 19.078-9.957 28.004-3.7461 7.5234-3.7461 13.68 0.51562 20.672 6.0547 9.9336 11.629 20.172 17.258 30.02 36.445-6.1172 61.57-39.457 60.219-79.004 7.0469 6.1406 10.965 19.938 9.2539 32.367-3.1992 23.301-16.352 39.68-36.191 50.98-8.5508 4.9062-17.941 8.5508-27.914 13.27 0.15625 2.3047 0.41016 5.3164 0.60156 8.3242 0.085937 1.2812 0.11719 2.5625 0.085937 3.8438-0.027343 1.2852-0.11328 2.5625-0.25391 3.8359-0.14453 1.2773-0.34375 2.543-0.60156 3.8008-0.25781 1.2578-0.57031 2.5-0.94141 3.7266-0.36719 1.2305-0.79297 2.4414-1.2695 3.6328-0.48047 1.1875-1.0117 2.3555-1.5938 3.5-0.58203 1.1406-1.2148 2.2539-1.8984 3.3438-0.68359 1.082-1.418 2.1367-2.1953 3.1562s-1.6016 2.0039-2.4688 2.9492c-0.86719 0.94531-1.7734 1.8516-2.7227 2.7148-0.94922 0.86328-1.9375 1.6836-2.9609 2.4609-1.0195 0.77344-2.0781 1.5039-3.1641 2.1836-1.0898 0.67969-2.207 1.3125-3.3516 1.8906-1.1445 0.57812-2.3125 1.1055-3.5039 1.582-1.1953 0.47266-2.4062 0.89453-3.6367 1.2617-1.2305 0.36328-2.4727 0.67578-3.7305 0.92578-20.199 4.0703-32.992-10.137-26.75-29.832 3.3164-10.516 10.262-18.258 19.293-24.262 2.582-1.707 5.2344-3.3164 8.5508-5.4531-3.4219-6.957-6.8398-13.676-10.879-21.73-1.5508 1.9531-2.9492 4.0117-4.1914 6.1719-14.707 32.484-36.668 59.617-61.758 84.34-7.2422 6.918-15.398 12.508-24.461 16.773-13.68 6.6484-25.652 2.4102-34.207-10.859-2.9414 4.4297-5.043 9.2695-8.5508 12.535-7.1992 6.582-14.434 13.934-23.07 17.984-10.793 5.1289-18.68 0.59766-24.441-10.633-4.9961 5.7773-9.6133 11.676-14.812 17.094-6.8398 7.1289-15.152 12.09-25.469 12.465-10.312 0.375-19.309-2.1211-24.32-14.48-2.2227 3.5742-3.418 6.4102-5.3359 8.4102-7.5234 7.5391-14.246 16.773-23.262 21.766-15.289 8.5469-29.723 0-29.742-17.473 0-14.004 3.1641-28.09 5.7656-41.973 1.7109-9.4727 5.5391-18.586 7.2852-28.055 0.78516-4.3086-1.1641-9.1328-1.8828-13.68-3.9492 2.207-8.9766 3.5391-11.715 6.8398-7.9961 9.5273-14.844 19.82-20.539 30.879-5.6914 11.059-10.094 22.609-13.207 34.652-3.418 13.199-6.2422 26.602-8.8398 40.008-1.2344 6.2734-3.6289 10-10.504 11.25-7.1836 1.2969-14.094 4.1523-21.617 6.4766-0.023437-1.6562 0.097656-3.3008 0.35938-4.9414 14.023-61.906 28.273-123.78 42.023-185.75 1.8789-8.5469 5.2148-13.559 14.109-15.387 6.8398-1.3672 13.426-4.3086 18.918-6.1367-6.8438 30.121-13.871 60.691-20.852 91.262l1.1133 0.63281c4.1562-5.0117 7.7305-10.688 12.59-14.891 7.2148-6.2578 14.621-13.082 23.207-16.738 14.18-6.0352 27.023 3.1602 26.648 18.566-0.23828 10.105-2.4297 20.277-4.668 30.227-2.7383 12.207-6.4844 24.176-9.6992 36.277-0.87891 2.4336-1.2539 4.9414-1.1289 7.5234 0.46094 2.8398 1.4883 6.8398 3.4219 7.7969 1.9336 0.95703 6.9961-0.63281 7.9688-2.5117 5.7148-10.926 12.914-21.781 15.395-33.527 5.3359-25.988 11.543-51.102 29.262-71.809 7.6797-8.9727 16.918-15.145 29.078-16.273 9.0625-0.83984 16.965 1.1602 24.508 11.352zm-52.441 77.172c0.13672 1.9492-0.41016 5.6445 0.78906 8.668 1.4336 3.6602 3.6914 8.3633 6.8398 9.5742 2.5156 0.97656 7.6953-1.707 10.074-4.2539 4.1914-4.4961 8.4297-9.6953 10.398-15.387 6.5664-18.996 12.777-38.16 17.582-57.637 1.0781-4.3594-3.0625-11.316-6.8398-14.941-1.5391-1.4883-9.0508 1.9492-12.898 4.5469-3.418 2.2773-5.6953 6.293-7.8828 9.918-10.895 17.816-16.625 37.27-18.062 59.512zm235.89-64.691-3.5039-1.3008c-7.5938 4.207-13.957 9.8125-15.395 18.809-0.51172 2.9922 2.0195 6.4766 3.1484 9.7422 3.1797-1.2305 8.2773-1.707 9.168-3.8438 2.9219-7.5234 4.4805-15.559 6.582-23.406z"/>
 <path d="m292.6 271.62c-3.418 0.94141-7.7617 1.8828-11.973 3.4219-31.383 11.043-58.422 28.207-77.477 56.16-9.1523 13.422-15.051 28.09-14.605 44.742 0.35938 13.559 6.4805 23.938 15.957 26.809 9.1328 2.8398 21.531-2.1016 28.852-12.359 3.4141-4.9258 6.1562-10.195 8.2266-15.816 1.8281-5.5312 3.3242-11.148 4.4844-16.855 7.6094 10.086 7.3516 28.449-0.55078 41.766-10.02 16.875-32 26.586-49.891 22.039-17.188-4.3789-28.867-20.398-29.52-41.445-1.0586-33.766 15.395-59.445 39.34-80.984 27.879-25.148 61.965-37.613 97.934-45.871 8.2969-1.8828 16.691-3.2656 26.766-5.1289-3.9141 5.3164-7.1992 9.2656-9.918 13.559-12.23 19.371-17.891 41.031-22.613 63.258-7.4062 34.602-12.656 69.48-11.527 105.01 0.14062 5.707 0.96484 11.312 2.4648 16.824 1.7109 5.9141 5.6094 6.4766 8.8945 1.3477 3.0859-4.7969 5.6016-9.8828 7.5391-15.25 9.0156-25.184 18.355-50.281 26.273-75.805 3.5898-11.574 3.418-24.246 6.3438-36.094 2.668-11.648 6.4688-22.914 11.41-33.801 6.7031-14.172 14.621-15.539 29.449-7.0078-0.63281 2.3945-1.3906 4.7461-2.2734 7.0625-17.516 41.031-21.379 84.148-19.961 128.07 0.36328 6.2695 1.5664 12.371 3.6094 18.309 0.78906 2.4453 4.1562 5.8164 6.1914 5.7109 0.78516-0.11328 1.5469-0.31641 2.2852-0.60937 0.73828-0.29297 1.4297-0.66797 2.0781-1.125 0.64844-0.45703 1.2344-0.98438 1.7578-1.582 0.52344-0.59766 0.96875-1.2461 1.3359-1.9492 4.3984-12.293 8.5547-24.738 11.734-37.406 11.973-48.043 23.297-96.273 44.707-141.39 14.473-30.5 34.207-55.754 65.816-69.961 14.094-6.3398 28.922-8.8906 44.125-4.4102 9.5781 2.8203 17.207 8.5469 22.973 18.809-31.66-17.098-57.57-6.5508-79.586 15.043-11.969 11.73-21.754 26.348-29.945 41.031-15.566 28.023-24.305 58.812-31.949 89.844-6.1914 25.133-11.973 50.418-19.141 75.227-2.8711 9.9141-7.5 18.922-13.887 27.031-16.797 20.91-41.887 16.43-51.039-8.5508-2.7539-7.5547-3.9141-15.711-6.0547-24.637-3.418 8.5508-6.0547 16.535-9.7656 24.059-4.2578 8.5469-8.2266 17.812-14.469 24.875-14.074 15.934-32.805 11.848-39.543-8.0703-2.7188-7.5391-4.3359-15.309-4.8594-23.305-1.6055-39.117-0.69922-78.164 11.668-115.79 5.043-15.391 12.141-29.906 18.332-44.797z"/>
 <path d="m326.64 474.46c-22.066 26.328-26.887 57.121-33.594 86.988-9.6445 43.051-18.027 86.375-27.535 129.46-4.9258 22.227-12.297 43.887-24.816 63.258-10.266 15.883-23.691 27.715-42.879 31.34-13.836 2.6133-26.391-0.10547-38.004-10.789 34.461-3.9688 52.438-26.227 61.57-55.258 9.6484-30.57 16.453-62.113 23.195-93.52 8.5508-39.492 14.758-79.531 35.23-116.12-1.5508-0.17578-3.1016-0.17578-4.6523 0-35.914 10.531-71.168 22.5-103.8 41.031-16.504 9.4219-31.281 20.945-42.16 36.762-8.4297 12.223-13.684 25.645-12.57 40.844 1.1133 15.199 10.621 24.191 25.656 24.156 23.566 0 41.047-11.727 52.387-31.371 6.6523-11.559 9.9883-25.031 14.676-37.254 6.6172 10.258 8.3633 23.047 5.8477 36.328-7.5938 39.938-51.309 67.637-90.785 57.977-26.371-6.4453-42.074-30.586-39.336-59.992 2.8398-31.785 19.051-55.395 44.262-73.637 26.273-19.012 56.34-29.645 87.008-38.656 32.203-9.4531 64.633-18.242 96.941-27.355 3.6602-0.90625 7.3867-2.2383 13.359-4.1875z"/>
 <path d="m412.19 73.828c4.207-12.121 8.875-21.883 10.809-32.156 2-10.723-4.6523-20.277-12.879-22.414-9.9883-2.6016-20.215 2.6836-24.922 13.301-6.3086 14.293-3.0273 27.543 6.0234 39.32 7.6445 9.918 16.383 18.98 24.473 28.555 27.008 32.055 28.121 72.23 2.9414 103.18-24.25 29.816-72.688 39.633-106.59 21.578-24.184-12.875-35.047-44.453-25.656-74.609 8.3789-27.254 35.148-47.395 62.922-48.539 38.414-1.5898 48.047 37.953 36.211 58.984-7.2344 12.906-18.387 20.172-34.84 24.293 13.461-10.805 19.547-22.961 19.992-37.613 0.68359-23.199-15.289-34.105-36.703-25.301-21.824 8.9727-33.336 34.191-27.094 59.172 5.3711 21.559 25.844 35.406 49.309 33.355 50.508-4.3945 73.547-52.094 45.309-94.359-4.6602-6.4648-9.7383-12.586-15.238-18.359-11.477-12.926-21.5-26.434-24.133-44.297-0.13672-0.83594-0.24609-1.6758-0.33594-2.5156-0.089843-0.84375-0.16016-1.6836-0.20703-2.5312-0.046875-0.84375-0.070312-1.6875-0.070312-2.5352-0.003907-0.84766 0.019531-1.6914 0.058593-2.5352 0.042969-0.84766 0.10938-1.6914 0.19531-2.5312 0.085937-0.84375 0.19141-1.6797 0.32422-2.5156 0.12891-0.83594 0.28125-1.668 0.45312-2.4961s0.36719-1.6523 0.58594-2.4727c0.21484-0.81641 0.45312-1.6289 0.71094-2.4336 0.25781-0.80469 0.53906-1.6055 0.83984-2.3945 0.30078-0.79297 0.62109-1.5742 0.96094-2.3477 0.34375-0.77344 0.70312-1.5391 1.0859-2.293 0.37891-0.75781 0.78125-1.5039 1.1992-2.2383 0.42188-0.73438 0.85938-1.457 1.3164-2.168 0.46094-0.71094 0.93359-1.4102 1.4297-2.0977s1.0078-1.3594 1.5352-2.0195c0.53125-0.66016 1.0781-1.3047 1.6406-1.9375 0.5625-0.63281 1.1406-1.25 1.7383-1.8516 0.59375-0.60156 1.207-1.1836 1.832-1.7539 0.625-0.57031 1.2656-1.1211 1.9219-1.6602 0.65234-0.53516 1.3203-1.0547 2.0039-1.5547 0.67969-0.5 1.375-0.98438 2.082-1.4492 0.70703-0.46484 1.4258-0.91016 2.1562-1.3398 0.73047-0.42578 1.4727-0.83594 2.2227-1.2227 0.75391-0.39062 1.5156-0.75781 2.2852-1.1094 0.76953-0.34766 1.5508-0.67578 2.3398-0.98438 0.78516-0.30859 1.582-0.59766 2.3867-0.86328 0.80469-0.26953 1.6133-0.51172 2.4297-0.73828 0.81641-0.22656 1.6367-0.42969 2.4609-0.60938 0.82812-0.18359 1.6602-0.34375 2.4922-0.48047 0.83594-0.14062 1.6758-0.25781 2.5156-0.35156s1.6836-0.16797 2.5273-0.21875c12.605-0.75 23.621 2.8906 29.828 14.344 6.6719 12.309 7.2188 25.75-1.707 37.051-6.2266 7.7422-14.898 13.574-23.176 20.77z"/>
 <path d="m807.5 632.28c2.0195 4.4414 3.7305 9 5.1289 13.676 0.66797 3.6758 0.74609 7.3633 0.24219 11.062-2.3789 28.57-34.891 68.098-62.516 75.5-10.465 2.8047-21.004 3.5547-27.672-7.9141-4.6172 5.793-8.4141 11.453-13.102 16.238-5.457 5.5586-12.367 8.5508-20.184 5.3359-7.8164-3.2148-9.2188-10.77-8.207-18.039 1.4023-10.102 4.1016-20.02 5.9492-30.055 1.0977-5.8984 1.6094-11.969 2.3789-17.832l-3.1484-1.332c-3.2773 3.1797-6.3281 6.5664-9.1484 10.156-11.871 17.215-18.062 36.621-21.773 57-3.1484 17.316-3.2852 17.301-21.516 20.516l1.418-10.996c-4.1367 4.9961-6.9961 9.6094-10.945 12.91-6.1758 5.1289-13.582 7.6953-21.43 3.8477-7.2695-3.5742-8.6562-10.738-7.5938-17.629 2.1523-14.035 5.1289-27.953 8.0898-41.816 2.6484-12.242 5.8828-24.348 9.3047-38.332-15.309 4.8047-28.395 11.199-39.547 21.543-11.781 10.906-17.254 24.242-15.152 40.672-9.2188-4.1875-13.016-11.352-11.512-20.875 1.7109-10.395 6.8438-19.285 15.395-24.738 14.605-9.25 30.137-16.996 45.016-25.781 3.7812-2.2422 9.2891-5.8984 9.4609-9.1641 0.83594-15.027 8.668-22.57 23.105-24.5-1.5234 6.9766-3.1484 14.531-5.0469 23.336l17.309-5.3164c-1.1445 8.0508-1.707 15.523-11.73 16.703-7.4922 0.87109-10.812 5.1289-12.297 12.602-4.2422 21.508-9.6836 42.742-13.871 64.281-0.91016 4.6523 1.4023 9.918 2.2383 14.895 4.5508-2.7539 10.109-4.6367 13.445-8.4453 8.9609-10.262 11.234-23.34 14.008-36.195 4.8398-22.535 10.262-44.949 14.809-67.551 1.5234-7.6055 4.3984-12.43 12.574-13.539 3.418-0.49609 6.8398-2.3438 9.6445-3.418-4.4297 18.684-8.8438 37.32-13.391 56.57 6.2773-5.7617 11.543-11.23 17.477-15.848 5.2852-4.1055 11.582-7.0117 18.148-2.8047s6.4297 10.926 4.7383 17.609c-2.6016 10.258-5.4922 20.348-8.0898 30.535-0.95703 2.9922-1.3906 6.0586-1.3008 9.1992 0.16797 1.1992 0.56641 2.3164 1.1953 3.3516 0.63281 1.0312 1.4414 1.8984 2.4297 2.5977 1.0781 0.63281 4.8438-0.92188 5.5273-2.375 3.6914-7.7461 8.8398-15.543 9.6797-23.715 1.9648-19.32 6.0195-37.168 21.465-50.383 3.2148-2.8477 6.8242-5.0469 10.828-6.6016 10.738-3.8633 20.523 2.6836 19.496 13.969-0.33594 3.793-1.1328 7.4844-2.3906 11.078-1.2539 3.5938-2.9336 6.9805-5.0312 10.156-5.7695 7.793-12.508 14.633-20.219 20.516-4.4453 3.5586-5.1289 7.4883-2.7344 10.789 2.0156 2.7695 7.7109 5.8633 10.039 4.8359 7.6602-3.418 15.562-7.4688 21.5-13.23 20.25-19.715 31.297-44.316 35.18-72.184zm-72.707 60.641 2.6523 1.4727c9.918-5.832 16.332-14.277 17.668-26.023 0.28906-2.5977-1.25-5.4023-1.9336-8.1211-2.4805 1.5586-6.1758 2.5664-7.1992 4.7891-4.1758 9.0938-7.5273 18.551-11.188 27.883z"/>
 <path d="m524.4 139.74c-11.973 8.7188-22.406 18.805-34.789 24.961-27.945 14.121-50.762-1.6094-49.273-32.93 0.97266-20.328 5.4727-39.73 20.215-54.879 5.4609-5.4297 11.633-9.8828 18.508-13.352 7.0781-3.7109 15-3.8984 21.668 1.707 6.6719 5.6094 7.9023 13.68 5.3047 21.133-2.9258 8.5469-6.6367 17.184-12.145 24.09-6.4648 8.1367-15.395 14.273-22.887 21.625-2.2734 2.2422-5.418 6.5312-4.6328 8.3438 1.7109 3.9492 5.6094 9.5742 8.8438 9.7461 6.3594 0.32422 14.125-0.92188 19.121-4.5312 12.945-9.3359 23.805-19.73 23.465-38.758-0.32422-17.098 7.0469-33.289 17.684-47.238 1.4648-2.0273 3.1016-3.9102 4.9062-5.6445 1.8047-1.7305 3.7461-3.2891 5.832-4.6719 2.0859-1.3828 4.2773-2.5664 6.5781-3.5547 2.3008-0.98828 4.668-1.7617 7.1094-2.3203 15.117-3.418 25.773 5.4219 22.543 20.379-1.1445 4.793-2.7617 9.418-4.8594 13.875-2.0977 4.4609-4.6289 8.6562-7.5938 12.594-5.8164 7.8633-14.023 14.121-21.824 20.258-4.7383 3.7266-8.1562 6.8398-5.2344 13.234 3.0781 6.8359 8.2461 11.641 15.395 8.9219 9.082-3.418 18.676-7.8125 25.656-14.344 21.344-20.121 33.488-45.699 39.336-74.301 1.1641-5.7109 1.5742-11.574 2.4648-18.414 1.7812 2.0078 3.3398 4.1797 4.6797 6.5039 1.3398 2.3281 2.4336 4.7695 3.2734 7.3164 0.84375 2.5508 1.4219 5.1602 1.7305 7.8281 0.30859 2.668 0.34766 5.3398 0.11719 8.0156-1.7109 28.551-14.898 51.684-35.371 70.777-13.035 12.141-27.621 22.227-45.922 24.773-12.777 1.832-24.168-0.16797-29.898-11.145zm-61.367-18.277 3.5391 1.7109c9.8359-8.7188 19.758-17.695 22.973-31.133 1.0586-4.4805-1.7109-9.8672-2.6875-14.84-4.1211 2.8008-10.262 4.7344-11.973 8.5469-4.8906 11.473-8.0195 23.746-11.852 35.715zm78.914-18.992c12.691-8.875 22.047-18.312 24.477-32.484 0.66797-3.8672-1.8477-8.2773-2.9062-12.43-3.6445 2.3086-8.4141 3.793-10.727 7.0586-7.5078 10.566-10.348 22.91-10.844 37.922z"/>
 <path d="m793.11 171.37c2.6523-11.609 5.3398-23.305 8.5547-37.082l-11.719 3.7773c-3.1445-19.609 3.0625-26.621 31.984-35.238-4.0352 25.953-1.0938 54.027-28.82 68.543z"/>
 <path d="m614.35 435.92c-0.11719 12.992-11.816 23.934-25.176 23.68-8.6875-0.20703-14.93-7.1484-14.727-16.379 0.24219-11.797 11.973-22.707 24.375-22.672 9.3203-0.015625 15.719 6.2227 15.527 15.371z"/>
</svg>
