<?xml version='1.0' encoding='utf-8'?>
<svg xmlns="http://www.w3.org/2000/svg" width="1056" height="1056" version="1.2" viewBox="0 0 792 792" zoomAndPan="magnify">
 <defs>
  <clipPath id="a" fill="none">
   <path d="m112.45 66.727h591.38v262h-591.38z" fill="none" />
  </clipPath>
  <clipPath id="b" fill="none">
   <path d="m775 453.37h17v27.629h-17z" fill="none" />
  </clipPath>
 </defs>
 <g id="c" fill="none">
  <g clip-path="url(#a)">
   <path d="m124.34 306.83c11.145-0.24219 14.832 3.0859 16.141 14.34 0.089843 0.78906 0.17188 1.5898 0.35156 2.3633 0.95312 4.1328 2.6445 6.2969 6.8828 2.875 2.9336-2.3711 6.1758-3.3242 10.027-1.8555 7.1484 2.7227 8.2227 1.9336 8.1133-5.7969-0.09375-6.7031 2.5625-11.578 8.957-13.992 2.2734-0.85547 3.4609-2.4883 4.543-4.4492 7.0312-12.77 13.75-15.922 28.367-13.141 3.0273 0.57812 4.8359 0.21875 4.2578-3.3516-0.5625-3.4648 1.375-5.1484 4.2148-6.2891 3.1875-1.2852 6.2578-2.668 9.2812 0.60547 3.7344 4.0508 6.2852 1.7852 8.1641-2 1.1211-2.2578 1.0977-5.2812 4.0508-6.2383 3.6211-1.1758 3.1211-3.3438 1.0977-5.3008-2.8711-2.7773-1.3906-4.2812 1.3555-4.9453 6.582-1.6055 11.84-7.3945 20.254-4.7422-4.8008-6.7734-3.5586-6.9062-4.2617-13.398-1.3438-12.383 5.0312-18.559 15.02-23.09 3.457-1.5664 6.0312-5.0078 10.531-5.3125-0.19531 1-0.26562 1.5742-0.42188 2.1133-1.043 3.5859-6.7422 6.7109-0.41016 11.043 1.7656 1.207 0 4.4844-2.0273 6.1211-2.0156 1.625-4.1094 3.1484-6.1484 4.7422-3.6445 2.8438-5.0781 6.5547-4.1602 11.094 1.4258 7.1016 2.3984 14.156-0.92188 21.07-0.49219 1.0234-0.84375 2.5234 0.6875 3.0352 1.3789 0.46484 2.1836-0.76562 2.707-1.8164 1.5117-3.0273 2.75-6.1992 4.3867-9.1523 2.7305-4.9336 6.5742-8.1055 12.66-6.3516 2.5859 0.74609 4.0195-0.32031 5.582-2.1758 7.3164-8.6758 12.773-9.7852 22.906-4.2461 3.1836 1.7422 5.7695 2.1211 8.8359 0.10547 1.2734-0.83984 2.9297-1.2461 4.4688-1.4883 6.9844-1.1133 11.484-5.2305 10.77-12.348-0.88281-8.8828 3.3398-14.34 9.6797-19.023 21.125-15.617 42.332-31.129 63.441-46.77 3.1055-2.3008 5.9023-1.7344 8.8594-0.089844 3.5977 1.9961 5.7539 4.9609 5.5352 9.1836-0.22266 4.2617-1.5469 8.1719-4.2344 11.598-2.1133 2.6914-3.7227 5.6016-3.6953 9.2422 0.023438 3.0312 0.89062 4.9453 4.3125 5.1484 2.5391 0.15625 6.3164-0.09375 7.0312 2.1328 0.94141 2.918-2.8984 4.2539-4.8516 6.0352-2.3398 2.1445-5.0078 3.9414-7.6055 5.7852-8.125 5.7539-16.348 11.367-24.383 17.238-2.6758 1.9531-6.0781 3.5664-6.8047 7.6758 3.4219 0.47266 5.2891-1.6055 7.3555-2.9648 12.996-8.5234 25.727-17.406 37.785-27.242 5.4297-4.4297 7.375-3.8047 9.875 2.707 0.69531 1.8203 1.0078 3.8477 1.1562 5.8008 0.61719 7.9648-0.54688 15.477-5.6016 22.055-1.6641 2.1602-2.2344 4.8203-0.64844 7.2695 1.3203 2.0469 3.5508 1.5312 5.4492 0.91797 2.7773-0.90234 4.707 0.27344 6.1992 2.332 1.7305 2.3828 3.25 4.9219 5.332 8.1211 1.6719-3.5664 4.1914-6.1367 7.6914-6.1758 5.7305-0.0625 9.082-2.3008 11.207-7.7734 1.6484-4.2461 5.8945-4.5586 7.6055-0.69141 2.2188 5.0039 5.8203 7.5938 10.844 8.6445-0.77344 2.2109-4.2266 2.9648-2.6914 5.2188 1.6562 2.4453 3.9297 0.20312 5.7891-0.51172 2.0273-0.77734 3.9219-1.9297 5.8477-2.9648 23.301-12.512 46.379-25.43 69.367-39.184 0.23047 1.7305 0.058593 3.8789 0.61719 4.0898 5.3867 2.0273 5.1016 7.3711 7.3125 11.305 1.8555 3.3086 0.64844 4.2344-1.6914 5.8906-5.0312 3.5625-9.9453 7.3008-14.754 11.16-1.8359 1.4727-4.2656 2.7617-4.5 5.8203 7.2695-0.96875 102.29-66.191 104.36-72.395-10.535 6.3398-20.223 12.164-31.164 18.746 1.918-8.1797 0.67578-14.328-3.1094-20.172-1.9336-2.9922-1.0938-6.4258 2.1484-8.3164 3.832-2.2266 5.1445-5.8984 6.4609-9.6367 0.52734-1.4961 0.88672-2.8828 2.1172-4.1289 7.5703-7.6367 15.129-15.297 22.461-23.16 13.84-14.848 28-29.371 42.801-43.281-0.3125-0.40625-0.62109-0.8125-0.92578-1.2227-10.234 7.125-20.469 14.242-30.695 21.367-16.961 11.824-33.898 23.688-50.895 35.469-5.6992 3.9492-12.918 3.3477-19.09 6.4922-28.742 14.648-57.715 28.859-86.66 43.117-11.012 5.4297-11.02 5.2852-14.379-6.6055-0.60938-2.1328-0.23047-3.6094 0.86719-5.5117 2.1328-3.6875 4.7383-6.9492 7.9062-9.668 7.2031-6.1836 10.719-13.715 9.1602-23.246-0.72266-4.4219 1.0508-7.3477 4.3359-10.293 25.047-22.504 50.91-44.113 74.777-67.918 2.3047-2.3008 4.8555-4.4219 5.9648-7.9883-23.934 13.996-49.879 23.547-74.293 36.66 1.4023-6.5078 8.3086-10.422 5.7578-17.832-2.1875-6.3633-5.2734-12.191-11.527-14.969-10.16-4.5117-18.758 0.46484-24.523 14.066-3.4961-5.6016-8.8477-5.5312-14.258-5.4297-1.8359 0.03125-3.7109-0.50391-4.375-2.5-2.4648-7.4102-8.3984-6.7891-14.277-6.2461-1.8125 0.17188-3.5547 1.3359-5.4492 0.75391 0.13672-2.3672 2.1562-3.7969 1.4883-6.1016-1.5898-0.17188-2.5859 0.93359-3.6484 1.6992-24.926 17.875-49.422 36.367-74.969 53.375-2.3398 1.5586-4.4609 3.582-7.5625 2.2812-3.2383-1.3516-6.25-0.19141-9.3203 0.61328-1.9141 0.5-4.1992 3.0273-5.6758 0.11719-1.1797-2.3164 1.2852-3.9922 2.8438-5.3984 10.371-9.3203 20.816-18.562 31.262-27.805 2.0781-1.8438 4.2578-3.5703 6.3906-5.3516-1.9766-0.26172-3.2305 0.3125-4.4023 1.0195-8.1875 4.9414-16.305 10.004-25.242 13.547-1.4453 0.57031-3.0977 1.8164-4.4258 0.375-1.7812-1.9297 0.51172-3.1953 1.375-4.5352 1.7031-2.6367 4.5078-4.6055 5.4609-8.9805-10.266 7.1133-17.785 15.707-26.23 23.223-16.211 14.434-32.867 28.426-46.789 45.223-1.8438 2.2188-3.6875 1.7266-5.8555 1.0352-11.441-3.6445-23.902 1.9844-28.43 12.98-0.79297 1.9297-1.3711 4.2031-3.5312 4.3633-8.5391 0.63672-12.227 7.043-15.637 13.277-6.3789 11.652-17.844 16.801-28.859 24.367 1.0508-3.1328 1.8164-5.1406 2.3906-7.1992 0.51172-1.832 1.8359-4.0312-0.39062-5.3984-1.8164-1.1094-3.4141 0.51953-4.7109 1.6719-6.8867 6.1172-13.641 12.52-17.156 21.172-2.0234 4.9727-5.2188 8.1445-9.4766 10.973-25.465 16.887-48.281 37.156-71.859 56.449-3.6406 2.9727-6.75 6.2695-4.543 11.742 2.1094 5.2656 6.3906 5.1992 10.918 5.1016z" fill="none" />
  </g>
  <path d="m776.17 459.63c4.0039-4.1719 7.9648-8.375 11.785-12.711 1.7109-1.9375 3.3125-4.2305 2.1289-7.0312-1.2578-2.9648-4.2734-0.90234-6.6758-1.9219 1.8594-5.0938 5.5547-8.6719 8.8594-12.566 2.1719-2.5547 7.3281-5.7578 4.7422-8.2969-3.293-3.2305-6.2539 2.1836-8.8867 4.3984-7.2266 6.0664-14.168 12.477-23.242 17.102 0.68359-6.4453 1.2656-12.172 1.9062-17.891 2-17.906-1.2773-36.199 4.7305-53.867 3.0352-8.9375-0.77734-18.109-1.4258-27.176-0.10938-1.5391-1.1055-2.4609-2.6758-2.793-1.125-0.23828-2.2617-0.039062-2.3438 1.0938-0.37891 5.1133-4.0352 9.4414-3.918 16.52 2.5977-5.0469 4.3789-8.5195 6.2227-12.105 5.2812 7.7539 2.0547 14.449-1.6914 21.242 0.92969-0.76172 1.8555-1.5273 2.7852-2.2891-0.87109 2.1016-1.3242 5.8281-3.9883 4.4766-3.0312-1.5391-0.91797-4.5898 0.44531-6.7266 0.94922-1.4844 2.3086-2.707 3.5234-4.0078 0.95312-1.0195 1.1875-2.1445 0.1875-3.1406-1.1406-1.1367-2.3047-0.42969-3 0.58203-1.6211 2.3711-3.0742 4.8594-4.6016 7.3047-1.4336-0.8125-0.87891-2.1211-1.043-3.2344-0.82422-5.7891-6.4648-12.715-11.258-13.391-6.3906-0.89844-9.1523 3.7773-11.809 8.3164-4.1406 7.0742-7.4141 14.59-9.4492 22.504-6.3828 24.812-8.3672 50.219-9.7852 75.688-0.1875 3.3789 0.20313 5.8633-2.2617 8.4648-2.4883 2.625-5.4414 4.7812-8.5352 6.6602-6.2969 3.8203-13.23 6.4219-20.102 8.9922-6.4336 2.4062-12.906 4.8555-18.859 8.3203-2.9219 1.6992-5.5508 3.6836-8.1367 5.8398-2.2148 1.8516-5.1055 2.957-7.5195 4.6406-4.2891 2.9844-8.5664 5.9922-12.828 9.0195-8.5234 6.0547-16.984 12.188-25.379 18.418-20.305 15.062-40.121 30.816-59.844 46.578-1.043 0.83203-2.0938 1.668-3.2969 2.2422-0.96094 0.45312-2.0859 0.78906-3.1406 0.59766 0.082031-1.5469 3.2031-3.6992 4.3359-4.793 1.7266-1.6602 3.4727-3.3008 5.2344-4.9219 3.5156-3.2344 7.1094-6.3984 10.75-9.5 7.1875-6.1211 14.578-12.008 22.047-17.785 9.4609-7.3242 19.055-14.477 28.555-21.754 9.9648-7.6289 20.051-14.812 28.137-24.52-2.7734 2.8594-19.867 15.719-20.789 13.395-0.28516-0.72266-0.14453-1.5312-0.003906-2.2969 1-5.3398 1.9336-10.695 3-16.023 0.91797-4.5977 2.3047-9.125 3.0938-13.824 1.7148-10.172 2.8906-20.438 5.0469-30.527 0.48438-2.2656-0.089844-4.5938-1.7695-6.0703-1.8945-1.668-3.918-0.050781-5.3672 1.0938-10.188 8.0352-21.566 14.324-32.008 21.977-8.9609 6.5664-18.062 12.949-27.172 20.934-0.23047-2.4922 0.066407-6.1484 2.0547-7.957 2.0703-1.875 4.875-3.457 7.1133-5.2383 5.8828-4.8398 12.652-9.0898 17.824-14.676-1.0859-1.1992-1.9102-1.0234-2.5156-0.49219-12.297 10.832-26.785 18.539-40.02 28.035-9.4375 6.7695-9.5469 6.6094-16.141-2.6133-0.69531-0.96875-1.4688-1.8867-2.2383-2.8008-10.07-11.945-21.965-12.945-33.816-2.7383-8.1641 7.0352-13.758 16.016-18.109 25.684-2.1797 4.8477-5.4336 7.8711-9.9883 10.383-20.395 11.25-40.633 22.773-60.914 34.227-2.8125 1.5898-5.7891 3.1133-6.3789 7.7773 23.816-15.508 47.641-29.109 72.645-41.902-1.5859 5.668-1.6094 5.6406-4.3125 8.2812-10.156 9.9297-21.648 18.324-33.574 25.754-23.512 14.652-48.762 25.969-74.27 36.852-21.695 9.2578-44.008 13.445-67.355 13.848-32.285 0.5625-64.562 1.9023-96.848 1.918-33.449 0.019531-66.816-1.2422-99.852-7.9648-31.199-6.3555-58.23-20.82-83.496-39.336-5.625-4.1211-5.6797-6.1836-1.3516-11.652 5.7891-7.3164 11.621-14.602 17.438-21.898-10.52 6.0859-17.141 15.641-22.695 26.062-1.4219 2.6758-0.12109 4.7656 2.25 6.6211 20.723 16.172 43.016 29.547 68.285 37.227 35.035 10.637 71.223 12.82 107.54 13.277 31.293 0.39062 62.578-0.44922 93.855-1.2188 29.586-0.72266 58.762-3 86.379-15.453 29.406-13.262 59.297-25.43 84.695-46.043 0-0.77344 4.2539-3.2227 4.9492-3.7188 1.8047-1.2852 3.625-2.5391 5.4219-3.8398 3.5469-2.5664 6.5703-5.293 9.5312-8.4492-2.2969 9.1094-4.4727 18.289-6.2539 27.523-4.8203 24.957-6.7305 50.539-4.168 75.871 0.34766 3.4453-0.91406 5.2031-4.3008 5.7734-9.3633 1.582-18.633 2-27.465-2.2695-4.332-2.0938-8.7266-3.918-13.496-4.6406-14.645-2.2109-27.535 5.6953-29.91 18.301-1.7031 9.0352 6.0938 16.227 14.805 12.863 7.0312-2.7109 13.746-6.2969 21.027-8.6016-7.2734 1.2812-14.32 3.207-21.371 5.1328-6.3125 1.7188-9.7422-0.15625-11.738-8.0742 2.9922 6.0781 6.5352 5.6562 10.434 4.3945 3.0273-0.98047 6.1523-1.668 9.2461-2.4258 10.508-2.5508 21.199-2.3906 33.301-3.0977-8.9648 5.4219-16.598 9.7461-23.93 14.52-23.5 15.293-49.004 25.332-76.5 30.824-11.812 2.3633-21.648-0.054687-30.121-8.3477-1.1367-1.1094-2.1055-1.4766-3.6172-1.375-15.75 1.1016-31.488-1.082-47.191-0.57812-21.574 0.6875-40.668-4.0781-55.789-20.418-0.79687-0.86328-1.8555-1.5-2.8242-2.1953-9.1367-6.5703-18.559-12.305-30.367-12.684-5.2969-0.16797-10.004-2.5469-14-6.0703-5.6172-4.9414-12.305-6.8867-19.582-7.8672-28.25-3.7891-56.16-9.2188-83.375-17.91-5.8945-1.8789-10.203-6.3711-11.707-11.156-3.2891-10.453-10.316-15.941-19.574-20.168-7.5938-3.4727-14.461-8.2422-20.746-13.824-2.2227-1.9688-2.707-3.2891-0.32812-5.7031 2.1719-2.207 4.4805-4.6562 5.7422-9.0586-2.0938 2.2305-3.293 3.5625-4.5469 4.8398-8.3164 8.4805-8.5195 12.57 0.67578 19.875 5.8672 4.6641 9.3281 11.223 14.758 16.105 1.5469 1.3906 1.1445 3.2656 0.97656 5.0508-0.57422 6.2109-2.3477 12.043-5.0273 17.699-3.8477 8.125-1.8477 21.117 3.7852 26.734-3.3945-6.9453-4.8906-14.699-2.4102-22.191 0.58203-1.7539 1.6406-5.8906 4.0664-5.4805 2.1914 0.37109 2.1602 3.2773 2.543 4.9375 1.7148 7.375 4.6172 13.832 11.406 18.152 3.0859 1.9609 1.8789 4.7891-0.30469 7.043-2.0547 2.1211-5.0195 3.3086-6.3984 6.1445 0.27344-0.5625 3.0273-1.4688 3.6797-1.8789 1.2539-0.79688 2.4219-1.7305 3.4883-2.7617 1.8672-1.8164 3.7188-4.0977 4.8867-6.4414 2.2969-4.6094 3.9062-9.5273 5.5195-14.406 1.3633-4.125 2.8672-10.816 8.3945-10.84 1.0742 0 2.1289 0.25781 3.1719 0.51562 23.566 5.8594 46.855 12.328 71.012 15.746 21.48 3.0391 39.215 13.457 55.188 27.496 4.7852 4.207 9.6289 8.3438 14.418 12.547 1.5781 1.3828 3.3594 2.3594 3.1328 5.2383-0.26953 3.4531 2.9688 3.0859 5.2344 3.2578 8.8906 0.67969 17.785 1.2617 27.078 2.957-6.7031 2.7539-13.402 5.5117-17.227 7.082 32.445-4.668 67.57-5.6992 102.04 5.0312 11.449 3.5625 21.668 0.36328 32.121-2.168 11.293-2.7422 22.41-6.2266 33.199-10.543 15.777-6.3086 29.859-15.41 44.508-23.855 12.059-6.9492 22.723-15.797 34.008-24.82 0.49219 3.3867-1.5898 4.582-3.1289 5.7969-9.2383 7.2852-19.059 13.805-29.043 20.016-12.242 7.6133-24.637 15.449-37.762 21.461-7.8438 3.5938-16.055 6.2969-24.234 8.9961-11.66 3.8555-23.586 6.9297-35.688 9.0352-7.543 1.3164-15.109 0.77734-22.652 0.78125-38.645 0.003906-77.289-0.25-115.93-0.10156-6.2461 0.027344-9.5039-2.2852-12.531-7.6797-8.9609-15.965-19.5-30.957-30.234-45.789-4.832-6.6758-11.594-9.8711-19.656-11.18-24.957-4.043-49.719-9.0508-73.969-16.301-2.7305-0.81641-3.3711 0.10938-4.1484 2.3516-3.1172 8.9961-6.2344 18.012-9.6875 26.883-3.0391 7.8086-11 10.77-17.742 6.9805 0.69922 1.6211 1.5078 3.2031 2.082 4.8672 2.2383 6.4609 6.4531 9.0703 13.266 8.2031 3.2383-0.41016 6.1016-1.832 8.9414-3.2422 2.8203-1.3984 4.8398-1.75 6.7812 1.5938 1.918 3.2969 5.3242 5.3516 8.6211 7.2383 18.121 10.348 37.879 16.703 57.777 22.293 13.199 3.7031 27.062 4.7227 40.723 6.2148 6.3438 0.69141 12.066 2.2148 16.305 7.4492 3.2578 4.0195 7.875 5.1133 12.82 5.3594 26.469 1.3203 52.852 4.3477 79.367 4.543 24.273 0.17578 48.602 2.6445 72.812-0.72266 36.008-5.0078 70.195-14.871 98.781-38.77 6.8828-5.7539 13.465-11.77 23.324-11.23 0.76172 0.039063 1.6094-0.23828 2.3047-0.58594 13.492-6.793 26.984-13.598 40.434-20.48 1.3906-0.71094 2.6211-1.832 3.7578-2.9375 11.191-10.938 24.449-19.133 37.195-28.004 3.3125-2.3047 6.707-4.4805 10.062-6.7148-4.9297 8.6094-10.797 16.094-16.594 23.629-1.0352 1.3477-3.2266 2.9219-1.8828 4.5547 1.8164 2.2148 3.6875-0.22656 5.0195-1.293 7.5938-6.0742 15.918-10.504 25.531-12.414 3.0117-0.59766 5.3242-2.4336 7.4922-4.6328 15.395-15.586 30.086-31.902 47.098-45.824 2.1875-1.7852 3.9102-3.9844 4.9609-6.6406 0.71484-1.7969 0.63672-3.5195-0.82812-4.9609-1.4453-1.4141-3.0586-1.5859-4.9375-0.80078-4.1172 1.7227-7.3984 4.6367-10.852 7.3242-3.3477 2.6055-6.7695 5.1094-10.156 7.6562-0.32813-0.41016-0.65625-0.82812-0.98438-1.2422 9.2148-9.0547 17.75-18.816 28.742-26.43-0.65625 2.793-1.3086 5.543 1.4062 7.1133 2.6875 1.5508 5.0156-0.38281 7.1484-1.7031 5.7891-3.5859 10.773-8.1758 15.656-12.895 1.3789-1.332 3.2422-4.0156 4.668-3.1875 6.9414 4.0508 10.141-1.793 14.195-4.9492 7.9453-6.1797 15.668-12.648 23.777-19.234 0.55859 6.9297 1.6797 7.7109 7.293 4.9531 4.7344-2.3203 9.2539-5.0781 13.867-7.6445-3.1719 4.4961-7.7383 7.1523-12.16 10-4.0156 2.5938-8.25 4.9688-10.762 9.2617-1.4961 2.5547-3.6328 5.6562-0.67188 8.0703 2.6211 2.1328 5.8281 0.74609 8.0859-1.5 16.02-15.93 34.219-29.227 51.801-43.27 1.8281-1.4648 3.3359-3.4023 4.75-5.3047 1.2305-1.6562 1.9023-3.7109 0.30859-5.4883-1.7773-1.9883-3.8516-0.82422-5.3516 0.35938-3.7422 2.9648-7.2461 6.2227-10.875 9.3281-1.8672 1.5938-3.5156 3.6562-7.5078 3.6953 6.1836-6.5273 11.59-12.324 17.117-18.012 2.7578-2.8438 4.9961-6.5938 10.227-5.0352 1.8164 0.54297 3.6875-1.3711 5.0586-2.8008zm-721.71 179.16c3.8906 0.046875 7.375 1.8789 10.84 3.4805 5.7422 2.6602 10.945 5.8594 16.926 7.9453 6.1836 2.1641 12.363 4.3867 18.754 5.8906 8.1172 1.9102 16.246 3.8008 24.434 5.3984 8.3828 1.6367 16.816 3.0469 25.266 4.3047 8.3828 1.25 25.105 4.7109 25.047 5.4336-41.781-5.6992-84.465-7.918-121.27-32.453zm472.5-32.941c-3.4141 6.3984-7.9609 11.902-14.352 15.641-7.0938 4.1523-14.059 3.5586-20.477-1.6484-8.5977-6.9766-11.898-16.797-13.969-27.012-7.1523-35.293-1.1094-68.77 14.812-100.69 2.5742-5.168 6.2266-9.707 10.539-13.648 9.5664-8.7383 21.254-7.3086 28.355 3.7656 6.1172 9.5273 9.1328 20.262 11.059 31.293 1.4453 8.2539 1.8789 16.605 1.7266 27.266 0.70312 21.887-6.4766 44.008-17.695 65.031zm82.582-145.39c0.69531-4.6484 2.0664-9.1953 4.7695-13.09 2.6641-3.8438 7.2305-5.3164 11.359-7.293-0.46484 10.992-2.543 21.395-4.2344 31.82-1.9336 11.965-4.4023 23.844-6.4062 35.797-0.41406 2.4688-1.6875 3.9141-3.457 5.2461-4.2578 3.2031-8.5273 6.3945-13.574 10.168 4.9961-17.949 7.6562-35.559 10.191-53.191 0.45312-3.1562 0.87891-6.3086 1.3555-9.457zm-20.176 11.922c0.41016-3.9844 1.1602-7.0195 4.1289-10 2.1953-2.2031 5.1367-4.3555 7.9844-5.6055-0.039063 0.015625-0.28516 6.5508-0.40625 7.3359-0.4375 2.7773-0.44531 5.6875-0.71094 8.4922-1.2188 12.934-3.0664 25.805-5.5352 38.559-1.0508 5.4023-1.4023 11.84-4.5391 16.461-2.9102 4.2891-7.2266 7.625-11.801 9.9766 5.6367-18.137 7.8086-36.633 9.918-55.137 0.38281-3.3555 0.61719-6.7266 0.96094-10.082zm-17.094 19.656c0.30859-5.0312 0.48047-9.5781 2.375-14.305 1.6523-4.1133 6.1719-7.0312 9.3867-10.016-0.10938 0.10547-0.125 0.85156-0.11328 1.668 0.011719 0.95312 0.070313 2 0.058594 2.2344-0.09375 1.832-0.21094 3.6641-0.34766 5.4961-0.27344 3.6406-0.63281 7.2773-1.0391 10.906-0.81641 7.2227-1.8398 14.418-2.8047 21.621-1.2148 9.0391-2.9375 18.004-4.4492 27-0.64062 3.8164-2.5859 6.4961-7.0469 7.543 2-17.34 2.9023-34.715 3.9766-52.148zm-24.527-5.9062c0.83203-3.543 6.3008-6.3086 8.9922-8.332 4.0234-3.0312 8.0508-6.0586 12.07-9.0898 2.7969 17.73 0.27344 34.77-0.99609 51.824-0.57422 7.7266-1.7852 15.422-1.9648 23.145-0.11328 5.1211-1.9609 8.625-5.9727 11.508-3.5117 2.5234-6.7812 5.3828-10.73 8.5508 1.3555-12.555 2.4922-25.168 2.4688-37.805-0.015625-6.2031-0.30859-12.41-0.99609-18.574-0.60156-5.3789-1.8125-10.77-2.7031-16.125-0.28125-1.6914-0.55859-3.4336-0.16797-5.1016zm207.11-26.371c-4.1133 9.082-12.27 9.4141-17.941 0.96484-4.3242-6.4453-5.6328-14.039-6.7266-21.484-3.1836-21.711-2.2578-43.301 3.2734-64.586 1.4023-5.4062 3.6406-10.555 7.2227-14.941 2.1836-2.6758 4.7148-4.9414 9.2383-2.8984-7.1172 1.082-9.8594 6.1562-12.191 11.453-5.7148 12.988-7.2461 26.801-7.7305 40.797-0.058594 1.7695-0.26562 2.9844 2.582 2.5898 2.4297-0.33594 4.3633 1.6992 4.4297 4.5469 0.078126 3.3047-2.4766 1.793-3.8984 1.8672-2.7148 0.14062-3.4883 1.6406-3.1836 3.9336 1.5312 11.598 1.6992 23.5 7.1016 34.277 1.0547 2.1055 2.3711 4.207 4.0234 5.8555 4.0742 4.0703 8.582 3.4141 10.98-1.8438 5.3828-11.805 8.4258-24.332 10.824-36.969 0.21875 12.832-2.7969 24.945-8.0039 36.438z" />
  <path d="m646.84 486.2c0.14453-0.15234 0.26172-0.28516 0.32422-0.375-0.10547 0.13281-0.21875 0.24609-0.32422 0.375z" />
  <path d="m37.113 507.92c-0.11328 0.14453-0.22656 0.28906-0.33594 0.42578 0.14844-0.089844 0.29688-0.17969 0.44922-0.26953 0 0-0.11328-0.15625-0.11328-0.15625z" />
  <path d="m370.7 309.56c0.007812-0.003906 0.015625-0.011719 0.023437-0.015625l-0.14844-0.14062c0.039062 0.058594 0.082031 0.10156 0.125 0.15625z" />
  <path d="m342.65 329.71c-10.312 7.7695-20.543 15.648-30.68 23.645-5.0703 3.9922-10.121 8.0195-15.148 12.074-3.4062 2.7422-8.8281 9.6406-13.73 7.0625-1.7734-0.92969-3.0195-2.6172-3.9766-4.375-0.26563-0.48438-0.51172-0.98828-0.57422-1.5352-0.31641-2.7578 2.8945-5.9336 3.6562-8.6172 1.1484-4.0547-1.2656-10.836-6.0117-11.312-7.4453-0.74219-15.555-0.25-19.574 6.5234-7.4062 12.477 7.1055 15.824 12.676 15.961 3.293 0.078125 5.6836 1.5039 7.2656 4.3633 1.1055 1.9883 2.5 4.7422 1.7031 7.0312-1.6055 4.6055-7.9766 6.5078-11.746 8.8164-6.0898 3.7188-12.391 7.2695-19.355 9.0391-19.836 5.0312-39.754 9.8672-59.824 13.863-39.652 7.9023-72.766 27.609-102.04 54.641 8.2344-3.2578 14.367-9.6055 21.125-14.945 14.32-11.316 29.488-21.195 46.793-27.152 29.762-10.242 60.848-15.312 92.582-23.234-5.375 3.9492-9.5547 7.2539-13.965 10.207-14.367 9.6211-27.656 20.809-43.258 28.637-21.77 10.926-42.414 23.715-61.43 39.012-1.707 1.3711-3.3398 2.8359-5.0039 4.2578 24.613-18.645 51.309-33.488 78.844-47.133 0 1.0508-2.5586 3.8555-3.1641 4.8555-1.0781 1.7852-2.1016 3.6055-3.2852 5.3242-2.3984 3.4961-5.5508 6.3203-8.5352 9.3008-6.7617 6.7578-13.516 13.512-20.273 20.27-3.8008 3.7969-7.7578 7.3164-11.684 10.867-4.1562 3.7656-7.5234 9.0977-10.738 13.66-2.4453 3.4727-1.7773 4.9297 1.4062 6.9023 8.9141 5.5156 19.438 6.7383 29.062 7.7109 14.973 1.5156 30.051 3.0312 45.129 4.0547 11.957 0.80859 22.25-0.37109 32.219-8.2266 13.199-10.391 29.418-15.656 44.508-22.84 26.051-12.395 51.766-25.52 77.465-38.633 9.9414-5.0703 20.176-9.668 29.422-16.035-16.863 8.0195-33.566 16.355-50.305 24.602-9.0273 4.4492-18.672 6.8281-28.613 8.0977-17.684 2.2578-35.355-0.10938-53.031-0.25391-4.0859-0.035156-7.1797 1.0039-10.25 3.6172-16.523 14.07-33.219 27.938-49.742 42.008-2.9453 2.5039-5.9961 3.6211-9.7812 3.2656-12.457-1.1797-24.918-2.2656-37.375-3.4375-1.5312-0.14063-3.6094-0.0625-4.0859-1.7461-0.48438-1.6992 1.4922-2.6094 2.5312-3.75 0.9375-1.0273 1.9375-2.0195 3.0039-2.9062 33.688-28.082 68.422-54.691 107.11-75.715 6.4453-3.5039 12.766-7.2383 19.145-10.867-19.973 9.5508-39.742 19.406-57.691 32.445-12.352 8.9727-12.383 8.9297-21.816-3.2344 0.25391 3.7461 3.1641 5.7812 5.2891 8.3477 1.1914 1.4375 3.1523 2.8984 1.3906 5.1367-1.5273 1.9453-3.5 2.3477-5.8672 1.5039-4.6523-1.6602-7.9844-4.4648-8.6211-9.6406-0.96875-7.8906 0.53906-15.031 6.4062-20.855 5.4727-5.4258 11.574-9.8984 18.734-12.898-5.6602 5.2695-11.297 10.488-16.109 16.473-2.6406 3.2734-5.125 6.8867-1.5078 11.152-2.3164-4.8438-0.019531-8.5195 3.2695-11.695 10.957-10.555 24.008-18.129 37.129-25.555 1.5664-0.88672 3.1328-1.0312 3.2227-3.4336 0.28516-7.375 6.1875-9.6367 11.926-12.598-2.6328 3.918-0.60938 5.1758 2.543 6.3398 12.992 4.8164 26.766 5.5586 40.246 7.6289 9.7891 1.5039 19.789 1.6719 29.645 2.4297-0.37891 2.0625-2.6719 2.2539-2.5742 4.3789 4.3984-2.4453 8.7227-4.0039 13.754-3.4805 12.012 1.2461 24.016 2.3242 36.156 2.1875 26.273-0.29297 52.559 0.86328 78.816-1.0664 13.695-1.0039 27.418-1.6797 41.121-2.6367 3.5781-0.25 4.1875 0.88672 2.7695 4-1.6289 3.5781-4.625 5.4648-8.0547 6.6328-4.0625 1.3828-8.1484 2.6953-12.234 3.9922-3.4805 1.1055-8.3398 1.7539-11.434 3.6406-0.40625 0.24609-0.67188 0.80078-0.4375 1.2148 0.30859 0.55469 1.125 0.44141 1.7266 0.25781 4.0039-1.2227 8.1016-2.2031 12.016-3.6172 2.9883-1.0781 6.0781-1.8828 9.0742-2.9492 3.8203-1.3594 8.3008-2.957 10.336-6.7344 0.70312-1.3047 1.1133-2.7539 1.8867-4.0234 1.3281-2.1758 4.7383-2.9727 7.1289-3.1953 2.2695-0.20312 4.5508-0.13672 6.8281-0.03125 1.9531 0.089844 7.2031-0.96094 7.707 1.7891 0.24609 1.3438-0.66797 3.957-0.78125 5.3945-0.19922 2.5117-0.39844 5.0234-0.59766 7.5312-0.16406 2.1094 1.4766 1.4727 1.7148-0.23438 1.7539-12.484 5.1992-24.809 7.3828-37.277 2.2266-12.738 4.0273-25.551 5.4688-38.402 0.83203-7.3516 2.1836-15.027 2.1836-22.426 0.60938-7.3555-0.83594-8.7461-7.7852-9.9023-23.031-3.8359-46.266-5.6484-69.551-5.8828-32.574-0.33203-65.266-2.9766-97.633 3.2227-1.3711 0.26172-2.6758 0.17578-3.5898-1.0469-1.3633 0.79297-2.8086 1.4727-4.0703 2.3945-8.0469 5.8633-16.039 11.781-23.98 17.766zm-13.848 66.234c0.25 1.1133 1.4258 1.7305 2.5 2.1016 3.7266 1.2852 7.5547 0.64844 11.438 0.80469 4.1953 0.17188 8.3789 0.59766 12.559 1.0039 0.91406 0.089843 1.793 0.52344 2.6875 0.80078-8.8164-0.21875-17.508-0.33203-26.195-0.55469-4.0234-0.10547-8.0508-0.042968-11.633 1.8125-3.0273 1.5664-4.8164 0.75781-6.3672-1.8945-2.3945-4.1016-5.2188-7.8984-8.7461-11.699 15.359-10.516 32.672-16.371 49.277-23.668 1.3008-0.56641 2.6758-1.3711 3.4922 0.52344 0.69922 1.625-0.57422 2.5742-1.5898 3.4961-8.7188 7.9141-18.195 15.434-26.051 24.18-0.78906 0.875-1.6289 1.9492-1.3711 3.0938zm26.77-37.793c-13.488 6.1133-27.074 12.02-40.625 17.988 5.6719-8.9453 13.301-15.883 21.066-22.641 2.4609-2.1406 5.3477-2.8867 8.4805-0.19531 2.5156 2.1562 5.4961 2.7578 8.6406 0.25391 1.8398-1.4648 4.5352-2.5156 6.0117 0.66406 1.6797 3.6172-2.0508 3.2383-3.5742 3.9297zm130.86 18.168c10.941 3.8203 20.164 10.32 30.383 17.062-7.125 0.74609-13.258 1.9844-18.57 4.8203-6.5039 3.4688-11.293-0.89062-16.734-2.2422-1.3828-0.33984-2.5625-1.8477-3.6406-2.9961-6.7578-7.207-14.953-10.184-24.988-8.8359 10.605-5.4883 20.484-12.371 33.551-7.8047zm-6.8477 26.027c-3.8906 1.3398-46.078-0.80859-51.41-2.7578 15.203-16.676 43.699-12.754 51.41 2.7578zm-78.434-76.98c1.3047 2.75 1.2461 6.207 4.8516 6.1211 3.3516-0.082031 4.6836-2.3633 5.8164-5.082 0.74609-1.793 1.8086-3.582 4.3789-3.0078-3.1367 12.508-13.355 15.355-24.832 17.953 3.3789-5.5156 6.3555-10.387 9.7852-15.984z" />
  <path d="m674.68 190.95c4.4609-0.60156 6.2383-4.5273 9.8203-3.4883 3.5117 2.9688-0.027344 4.2461-1.7422 5.5977-15.484 12.172-32.164 22.812-46.602 36.32-1.9844 1.8633-4.6016 3.3477-5.9219 7.6641 16.797-9.8867 29.91-22.527 45.582-31.906-0.49609 14.195-0.25 14.422-4.4961 19.062-3.8398 4.1953-3.6367 7.957 0.58984 11.086 5.4141 4.0078 2.8477 6.3594-1.0742 9.0156-11.938 8.082-20.703 19.5-32.285 29.734 1.9883 0 2.5664 0.15234 3.0195-0.019531 16.391-6.207 32.844-12.352 44.688-26.262 2.8984-3.4062 5.6523-5.0781 9.9922-1.9492 3.2891 2.3711 5.5938 1.1562 5.8828-3.1328 0.10938-1.5781 0.375-3.1719 0.77344-4.7031 2.7344-10.469 9.7578-13.543 19.406-8.5664 0.63672 0.32812 1.4297 0.35547 2.5 0.60547 0-1.3398 0.12891-2.3047-0.023437-3.2227-1.7578-10.742 2.1289-18.535 10.902-25.172 7.4688-5.6523 15.27-10.598 23.234-15.41 5.3242-3.2148 7.7734-9.7578 5.1172-14.293-7.2734-12.426-4.25-24.152 3.7109-34.266 8.8242-11.215 18.258-22.094 29.227-31.438 1.4844-1.2656 3.4805-2.3438 4.2891-6.2578-7.1836 4.5703-13.176 8.3477-19.133 12.18-29.977 19.266-59.609 39.059-90.25 57.297-7.7422 4.5977-11.613 13.328-17.207 21.523z" />
  <path d="m222.64 610.06c-7.1523 0.125-14.383 0.039062-21.402 1.7227-5.1523 1.2383-9.6914 4.1758-10.156 9.6562-0.47266 5.6211 0 11.852 5.7383 15.293 10.625 6.375 20.156 14.238 30.105 21.527 5.6836 4.1602 11.926 6.1992 18.891 6.4688 17.52 0.67188 35.039 1.293 52.547 2.1719 9.5664 0.47656 18.469-1.0781 27.102-5.5352 6.375-3.2891 13.078-6.2422 20.422-7.0742-8.7188 4.9805-18.469 7.7969-28.293 13.559 7.8555 0.054688 14.012-0.98828 20.125-2.9688 6.5703-2.125 12.23-6.8359 19.602-6.707 10.398 0.17969 20.59-1.8984 30.84-3.207 5.1641-0.66016 9.668-2.9531 13.652-6.1914-5.4102 0.79688-10.559 2.2891-15.789 3.3438-20.105 4.0547-38.438 2.7422-53.648-13.945-13.117-14.391-30.539-17.055-49.414-14.926-21.348 2.4102-42.766 4.4258-64.281 4.4062-3.4102-0.003906-6.8203-0.058594-10.234-0.17188-1.9766-0.0625-4.6406 0.13281-6.2148-1.3047-1.5312-1.4023-1.5781-4.1445 0.035157-5.5039 0.85547-0.72266 1.9883-1.0078 3.0859-1.2344 5.4883-1.1406 11.285-1.3594 16.844-1.3359 5.2305 0.023437 10.465-0.55469 15.734-0.76562 11.809-0.46875 23.613-1.0195 35.41-1.793 11.93-0.78125 23.824-2.1133 35.734-3.2031-18.637-1.1094-37.051 2.7617-55.648 1.3789 26.977-1.7812 53.953-3.5625 81.086-5.3516-0.96875-2.0742-2.9648-0.22266-3.582-2.1367 7.4922-2.7031 15.41-3.9141 22.523-7.5859-13.301 3.9961-26.844 6.9023-40.656 7.7773-30.016 1.9102-60.074 3.125-90.156 3.6367z" />
  <path d="m575.69 407.31c3.9336-6.6016 10.414-9.4414 17.625-10.789 5.2734-0.98047 10.633-1.4961 15.965-2.1289 6.5508-0.76953 13.062-1.7969 18.898-5.043 3.5273-1.9609 6.9844-4.5508 6.2578-9.2461-0.67969-4.3633-4.8398-3.9883-8-4.8438-0.23047-0.0625-0.35938-0.51953-0.85156-1.2734 16.512-6.6758 28.035-19.324 39.09-32.426 5.4102-6.418 9.8242-13.535 11.43-22 1.168-6.1367-1.1328-10.969-7.0234-11.734-10.316-1.3672-20.219-4.6758-30.383-6.7891-10.391-2.1641-20.832-2.2656-31.34-0.85938-11.789 1.5742-23.625 4.9258-34.328 10.16-8.4023 4.1094-14.051 11.863-15.531 21.062-1.2969 8.0547-2.6328 16.102-4.1094 24.121-3.0391 16.496-6.1836 32.973-9.332 49.73 1.9375-0.10547 3.7383-0.035156 5.4844-0.32422 5.0508-0.83984 7.4688 0.49219 5.7188 6.0977-0.82422 2.6367-1.2227 5.4141-1.7305 8.1406-0.64844 3.4648-2.1328 5.2773-6.1602 5.7578-13.02 1.5703-26.008 3.5039-38.922 5.7773-8.793 1.5469-17.973 2.9648-25.172 8.5469-3.1875 2.4688-5.8828 3.2344-9.5508 3.293-8.6719 0.12891-17.438-0.80469-25.551 3.8945-22.238 12.883-44.055 26.43-65.492 40.59-1.3281 0.875-2.9844 1.5977-3.6719 3.9531 16.156-10.094 31.727-19.723 47.199-29.504 15.559-9.832 30.941-20.043 50.805-16.953 1.8945 0.29688 3.543-0.57031 4.8633-1.8633 5.5195-5.4023 12.594-7.3906 19.801-9.0469 16.707-3.8242 33.879-4.7227 50.672-8.0039 2.7852-0.54688 3.8359-1.0273 5.1836-2.8047 0.31641-0.41406 0.64453-0.90234 1.0195-1.4766 2.1211-3.2617 3.9688-6.9531 6.2695-10.051 2.0156-2.7148 5.5273-4.2812 8.1914-6.2656 3.332-2.4805 1.1367 1.918 2.6758 2.3008zm91.301-95.699c5.0469 1.3398 6.6055 5.625 4.4453 11.621-4.7695 13.23-13.531 23.527-24.828 31.883 3.0977-3.9336 6.1406-7.9141 9.3047-11.793 5.4453-6.6836 9.6055-14.059 12.863-22.047 1.7852-4.3672 0.85156-6.6797-3.6523-8-6.3477-1.8555-13.094-2.3984-18.938-6.1211 6.9414 1.4531 13.957 2.6406 20.805 4.457zm-34.004-6.3984c2.7812 0.43359 4.7266 1.9297 4.2422 4.7812-0.6875 4.0703-1.8555 8.1289-2.7617 12.156 1.5977-3.0078 2.9766-6.3672 4.875-9.1836 1.6562-2.4648 3.3711-1.9141 5.582-0.36719 10.457 7.3242 11.176 9.8398 5.8242 23.703-0.64062 1.6523-1.3711 3.2695-2.0586 4.9023-2.543 6.0156-9.0703-2.8398-10.387-5.5195-1.3398-2.7305-3.1602-5.3867-5.0742-7.9844-1.7148-2.332-3.5039-4.6133-5.0898-6.8711-3.6289-5.1523-7.332-10.262-11.227-15.215 5.6758-1.7461 10.883-1.2148 16.074-0.40234zm-65.344 87.496c-3.4766-0.88672-2.1523-5.6562-3.3594-8.5898-1.5273-3.7227-3.1641-7.4688-5.8906-10.297-3.0508-3.1562-3.3086-6.3789-2.582-10.324 1.9531-10.547 3.9023-21.109 5.4453-31.719 1.5195-10.488 7.6602-16.641 17.25-20.043 7.0547-2.5 14.387-4.125 21.625-5.9961 2.2188-0.57422 4.4688-1.1523 6.75-1.2422 0.30859-0.011719 0.61328-0.015625 0.92578-0.007813 5.1172 0.10938 7.75 3.6133 10.469 7.4844 6.3125 8.9766 11.758 18.414 16.781 28.152 2.9453 5.707 1.8516 10.207-2.9062 14.211-4.7188 3.9727-9.3164 8.082-14.023 12.062-2.9688 2.5078-6.3594 3.8594-10.363 3.9141-6.7773 0.085938-12.188 3.1094-14.605 9.457-2.2852 5.9961-6.7422 8.4531-12.289 9.9961-1.1484 0.32031-2.2812 0.69922-3.4453 0.97266-3.2812 0.77734-6.8789 2.7109-9.7812 1.9688z" />
  <path d="m294 578.34c6.5742 0.17188 13.191-0.16016 19.719 0.45312 16.801 1.5898 29.832-4.9414 40.242-17.656h0.003907c25.266-22.375 50.527-44.75 75.789-67.125-3.5586 0.37891-5.4766 3.6367-9.2852 3.3711-14.719-1.0312-29.523-0.38672-44.188-1.2695-5.8281-0.35156-8.8477 1.7305-12.215 4.6016-18.969 16.168-36.781 33.59-54.727 50.863-6.4492 6.2109-12.527 12.816-18.68 19.328-1.4883 1.5742-3.1641 3.5312-2.0625 5.8359 1.0234 2.1367 3.4688 1.5508 5.4023 1.5977zm22.441-17.75c12.5 0.10938 25.004 0.35547 37.504 0.54688-4.8594 1.6797-8.1133 5.6094-11.852 8.7656-5.2891 4.4766-11.172 6.582-18.047 6.5-9.3086-0.11328-18.617-0.027344-28.141-0.027344 2.668-7.4648 13.738-15.848 20.535-15.785z" />
  <path d="m370.73 309.54c0.074219-0.066407 0.15625-0.13281 0.23438-0.20312-0.125 0.019531-0.25391 0.039062-0.375 0.066406-0.007813-0.003906 0.14062 0.13672 0.14062 0.13672z" />
  <path d="m749.21 315c6.2305 1.4453 9.1523-1.4805 10.57-11.492 0.72656-5.1016-3.332-5.4023-6.9766-5.9062-28.508-3.9688-57.191-3.9062-85.883-3.625-2.6562 0.023438-5.4414 0.37109-7.3828 1.9688-3.1211 2.5625-6.3672 2.0352-9.5742 1.1953-28.957-7.582-58.332-12.008-88.191-14.684-51.938-4.6484-103.05 0.058594-153.78 10.625-13.254 2.7578-26.395 6.9648-37.012 16.273 0.66406-0.097656 1.3633-0.14062 1.9102-0.44922 15.793-8.9648 33.086-13.223 50.727-16.676 10.215-2.0039 20.605-1.3398 30.777-3.0859 18.891-3.2461 37.875-4.9688 58.453-4.2656-16.207 1.5195-31.531 0.10938-45.184 8.0586 7.2461-1.5742 14.551-1.5117 21.715-0.29688 13.152 2.2305 26.383 3.1602 39.684 3.6016 3.0469 0.10547 5.75-0.42578 8.5625-1.8438 11.574-5.8281 23.781-8.8164 36.895-8.0586 10.363 0.60156 20.617 1.9219 30.863 3.4375 18.332 2.7031 35.938 8.793 54.16 11.855 11.316 1.8984 21.93 6.8398 33.746 6.7461 5.793-0.042969 10.801-3.125 15.93-3.2578 14.121-0.36328 28.043 2.6953 41.918 5.2969 1.0938 0.20313 2.6562 0.34766 2.3477 2.0273-0.33203 1.7695-1.8125 1.1367-2.8789 0.88672-19.898-4.6641-34.332 6.7891-49.348 16.43 7.4883-2.8828 13.949-7.8125 21.293-11.172 8.6055-3.9336 17.324-5.7461 26.656-3.5898zm1.3906-7.6016c-13.465-3.5312-27.238-5.8555-41.199-5.7773-16.145 0.097656-32.098-2.0508-48.469-2.9102 0.95703-1.8867 1.9844-1.9766 2.9531-1.9688 29.637 0.34375 59.316-0.26172 88.766 4.043 1.6914 0.24609 5.4688-1.2852 4.1055 3.4648-1.0508 3.6719-2.2188 4.1797-6.1562 3.1484z" />
  <path d="m692.79 441.92c6.3672-13.188 8.6445-27.625 8.7969-42.328 0.058594-5.4609-2.875-7.4023-7.8164-7.5-3.1953-0.066406-5.6367 1.6719-8.2109 3.1758-11.918 6.9688-19.906 18.547-31.199 26.293 6.293-2.1172 9.9531-8.2891 16.973-10.934-5.3555 18.199-9.0781 35.898-17.047 52.793 18.398 1.7148 31.078-6.125 38.504-21.5z" />
  <path d="m74.84 468.86c-1.1523 1.5312-2.8008 2.7227-3.7617 4.3984-0.21094 0.36328-0.61328 1.0586-0.42578 1.3867 0.066406 0.11719 0.21094 0.19141 0.47266 0.17578 0.74609-0.03125 2.4648-2.375 2.9453-2.8945 0.87891-0.94531 3.3672-4.7695 4.6602-4.6172 2.8438 0.33203-2.5391 5.8828-3.1914 6.6172-10.211 11.438-20.625 22.691-30.781 34.18-6.8242 7.7227-6.7227 9.4375 0.42578 16.812 1.3711 1.4141 1.125 2.0078 0.21094 3.3477-2.2773 3.3359-5.3125 6.8711-9.6289 4.7422-0.78516-0.38672-4.5117-3.6797-5.0273-3.1133-1.2422 1.3672 3.1406 3.8242 3.7422 4.1992 2.1719 1.3398 2.9023 2.8633 0.88672 5.3867 23.621-21.93 46.309-44.203 71.711-63.84-7.8633-3.6523-15.934-3.6367-22.297-8.2852 0.17188-0.16016 0.34375-0.31641 0.51562-0.47656-0.25391 0.10156-0.50391 0.21094-0.76172 0.30469-3.7852-3.207-6.8594-2.0938-9.6914 1.6758z" />
  <path d="m700.57 347.56c-3.5508 1.2383-6.2188 3.6406-8.4844 6.3789-6.9805 8.4297-13.816 16.98-20.562 25.605-1.418 1.8125-3.3906 3.8242-2.7656 6.3711 1.1445 4.6484-1.7539 7.1055-4.7031 9.4844-8.9844 7.25-18.066 14.379-27.105 21.562-5.5 4.3398-10.969 8.7266-16.445 13.09-2.7891 2.2188-5.5859 4.4453-8.375 6.6641-0.84375 0.67188-3.2031 1.875-3.6641 2.7969-0.070312 0.14062-0.125 0.26562-0.16797 0.37891-0.60156 1.6836 1.9766 0.42969 2.5938 0.003907 1.875-1.2852 3.7344-2.5938 5.6016-3.8906 3.625-2.5156 7.2422-5.0586 10.676-7.832 18.758-15.137 38.141-29.414 57.938-43.141 5.5547-3.8516 11.09-7.8164 15.715-12.801 4.6797-5.0391 8.2656-10.793 8.9766-17.801 0.67188-6.6758-2.8477-9.1055-9.2266-6.875z" />
  <path d="m158.7 217.23c2.2227-0.22656 3.7852-1.6094 4.7422-3.3164 3.1367-5.6094 8.4453-8.8008 13.246-12.621 5.1328-4.0859 10.289-8.2109 14.906-12.848 5.4609-5.4805 12.02-8.9062 19.055-11.539 9.3438-3.4922 17.57-7.832 18.754-19.211 0.26953-2.5859 2.1914-4.1367 4.0312-5.6875 2.5898-2.1719 5.4141-4.1406 7.6562-6.625 1.8516-2.0547 6.2695-4.4102 4.3711-6.7734-2.7266-3.3828-5.6406 0.96094-7.8359 2.6367-25.805 19.637-49.438 41.934-75.273 61.547-3.0195 2.2969-5.4492 5.3398-6.4766 9.1055-0.67188 2.4453-0.58984 4.8789 2.8242 5.332z" />
  <path d="m767.3 241.69c-2.2109-2.7109-4.8672-0.45312-6.9219 0.80469-8.5977 5.2383-15.207 12.777-22.254 19.785-1.3047 1.293-1.6758 3.1406-1.543 5.0156-0.12109 4.5156 2.3633 4.2852 5.4531 2.9844 10.625-4.4648 16.957-13.559 23.762-22.117 1.4688-1.8594 3.2734-4.2969 1.5039-6.4727z" />
  <path d="m70.031 333.65c13.207-3.1484 21.73-11.418 30.762-19.105 1.9609-1.6641 4.375-3.8672 2.4648-6.25-2.375-2.9688-5.7891-1.043-8.3867-0.050781-10.852 4.1602-19.547 10.859-28.727 16.969-1.6914 1.1289-2.3242 2.9219-2.3633 4.8008-0.59766 4.4766 2.4102 4.5508 6.25 3.6367z" />
  <path d="m460.91 547.06c3.5234-2.0625 7.4648-6.8203 6.8555-11.277-0.58203-4.2852-5.8555-1.75-8.2344-0.76172-3.2461 1.3516-6.2852 3.125-9.3164 4.8906-2.6289 1.5352-6.6055 3.0078-6.082 6.6055 0.58594 4.0156 5.2188 0.98438 8.4727 3.4883-11.246 6.9141-21.914 13.469-32.582 20.027 15.031-5.3086 27.406-15.09 40.887-22.973z" />
  <path d="m557.52 447.88c2.1289 3.6094 3.3359 7.5078 4.8594 11.656 2.7422-5.3164 5.2461-10.637 4.2891-16.781-1.2031-7.6992-4.4609-11.008-10.625-11.508-3.5469-0.28906-4.082 1.1797-3.2539 4.1172 1.0352 3.6875 3.7383 5.9961 6.7344 7.9492 2.2227 1.4492 2.2695 4.0078 1.6328 5.4453-0.75391 1.7148-1.832-1.3906-3.6367-0.87891z" />
  <path d="m410.55 580.82c-8.6875 13.773-23.484 18.719-36.656 25.766-13.668 7.3086-28.59 9.3867-44.043 8.1016 22.5 7.9922 75.008-14.211 80.699-33.867z" />
  <path d="m473.54 428.8c-2.3398-1.2812-4.5547-0.47266-6.8828 0.1875-27.824 7.8906-54.199 19.539-80.602 31.094-3.375 1.4766-7.125 2.457-10.375 5.5625 23.434-9.4609 46.133-18.895 69.051-27.754 9.3711-3.625 18.66-7.8203 28.809-9.0898z" />
  <path d="m473.58 428.8c-0.011719 0.003907-0.027343 0.003907-0.035156 0.003907 0.007813 0.007812 0.019531 0.011718 0.03125 0.015624 0.007813 0.011719 0.003906-0.019531 0.003906-0.019531z" />
  <path d="m278.16 556.47c27.238-20.977 52.816-43.984 80.023-65.117-28.273 19.68-53.949 42.641-80.023 65.117z" />
  <g clip-path="url(#b)">
   <path d="m778.34 474.86c-1.5 1.1914-4.3828 2.8242-2.2305 5.1562 1.9102 2.082 4.125-0.046875 5.668-1.4531 7.0625-6.4141 14.023-12.938 20.965-19.48 1.207-1.1367 2.875-2.0898 2.7969-5.2773-9.457 7.2852-18.398 14.086-27.199 21.055z" fill="none" />
  </g>
  <path d="m57.133 355.8c7.9023-5.3398 15.723-10.805 23.527-16.293 1.3555-0.95312 3.1406-1.6602 3.5195-4.8281-10.395 5.8711-20.219 11.316-29.922 16.965-1.6523 0.96484-4.7344 2.168-2.9453 4.7852 1.5938 2.3281 4.0898 0.54297 5.8203-0.62891z" />
  <path d="m29.91 521.33c-0.41016 1.1328-0.74219 2.2344-0.73828 3.4492 0.003906 1.3398 0.80469 2.4961 0.88672 3.7266-0.26562-4.1016 2.2539-7.0117 4.3047-10.133 8.8203-13.449 19.996-24.926 30.727-36.773 1.4141-1.5625 3.4961-2.7539 3.2266-5.3438-6.25 6.3984-12.496 12.793-18.746 19.188-3.125 3.1992-6.25 6.3984-9.3711 9.5977-0.72656 0.74609-1.7188 1.4961-2.3008 2.3516-0.47656 0.70703-0.42969 1.3164-0.66406 2.1641-0.46875 1.6992-1.5352 3.1836-2.5469 4.5938-1.6211 2.25-3.8398 4.5859-4.7773 7.1797z" />
  <path d="m321.66 296.32c-12.711 8.2578-24.242 17.816-34.387 28.93 0.66016 0.69922 1.3242 1.3945 1.9883 2.0977 10.66-10.488 22.77-19.406 32.398-31.027z" />
  <path d="m525.81 478.86c-5.9688-4.8203-12.219-5.1562-18.695-0.97266-3.4102 2.2031-5.9375 5.25-8.1523 8.5977-15.516 23.512-20.98 49.844-21.82 77.461-0.007813 15.324 2.3086 30.227 8.7656 44.148 7.0664 15.238 21.031 17.223 32.504 5.0039 1.4922-1.5859 2.9023-3.3008 4.0508-5.1484 22.293-35.828 26.594-73.801 13.289-113.78-1.9609-5.8828-4.957-11.289-9.9414-15.316zm-34.762 42.086c4.0742 2.9805 7.1484 6.7109 7.4922 11.941 0.18359 2.8438 1.2305 3.0156 3.668 2.7227 11.414-1.3633 14.395-4.5664 14.473-16.055 0.027343-3.2461 0.003906-6.4961 0.003906-11.363 4.1836 6.9766 4.7539 16.062 2.2891 21.176-1.8242 3.7812-5.0469 5.3906-8.9805 6.0117-4.6797 0.73828-9.332 1.582-14.133 3.9258 2.3711-7.3242-1.6836-12.648-4.8125-18.359zm6.0625 90.496c13.961-16.598 3.082-31.605-2.8633-46.938 17.391 19.453 13.379 38.102 2.8633 46.938zm23.805-44.746c-1.582 13.777-6.6289 26.445-12.18 38.965-0.95312 2.1484-2.1094 4.1758-4.3398 5.8398 5.9453-15.535 9.8906-30.875 12.781-46.512 1.6914 0.70312 0.29688 2.8828 1.4258 3.793 2.082-5.4688-1.043-8.9258-5.4453-12.238 6.707 1.6641 8.4375 4.2539 7.7578 10.152zm11.219-21.504c-2.6484-0.82031 1.8711-5.9961-3.4883-5.3008-4.4414 0.57812-6.9922 2.5-7.1641 6.9961-0.10547 2.8203-0.62891 5.4961-1.7344 8.3516-0.82422-4.1211 0.85547-7.7031 1.2852-11.414 0.28516-2.4727-0.24609-3.0977-2.7852-2.9102-3.9492 0.28516-7.9375 0.074219-11.91 0.074219 4.0391-3.4609 10.527 0.03125 14.145-4.7656 1.2266 2.4336 2.9453 2.9844 5.6836 2.293 2.6172-0.66406 3.9922-1.7617 3.5117-4.4453-0.56641-3.1562-0.078125-6.2383 0.59375-9.332-0.99609 6.9062 4.5234 13.363 1.8633 20.453zm6.7305 4.1797c-0.054687-17.254-2.9102-34.031-7.6445-50.527-0.44141-1.5234-0.97656-3.0273-1.5742-4.4961-1.9922-4.8945-5.0703-8.9102-9.2969-12.156-4.9844-3.8281-9.2891 0.83594-14.262 1.0664 8.5117-6.9883 17.621-4.9297 22.66 5.0117 5.8555 11.543 7.4609 24.227 9.3945 36.789 1.2383 8.0625 1.5391 16.191 0.72266 24.312z" />
 </g>
</svg>