<?xml version="1.0" encoding="UTF-8"?>
<svg width="1587" height="1587" version="1.0" viewBox="0 0 1190.2 1190.2" xmlns="http://www.w3.org/2000/svg" zoomAndPan="magnify">
 <defs>
  <clipPath id="a">
   <path d="m0 0h1189.5v1189.5h-1189.5z"/>
  </clipPath>
 </defs>
 <g clip-path="url(#a)" fill="none">
  <path d="m0 0h1189.5v1189.5h-1189.5z"/>
  <path d="m0 0h1189.5v1189.5h-1189.5z"/>
 </g>
 <path d="m238.17 6.9375s-102.38 48.98-21.824 175.07c0 0 45.305 68.191 74.125 90.934 0 0 7.4414-10.109 17.789-3.8555 10.348 6.2578 24.34 17.434 27.574 22 3.2305 4.5664-1.7812 18.383 9.2188 26.684 11 8.3008 18.145 10.406 19.926 10.109 1.7773-0.29687 3.8516-2.0742-2.9648-8.332-6.8203-6.2539-16.961-19.004-8.8945-36.555 0 0-18.441-6.8203-9.2227-34.75 0 0-22.887-19.328-5.6328-44.887 0 0-13.164-57.52 34.035-99.113 47.203-41.598 106.98-42.727 106.98-42.727s-81.715 49.781-75.043 96.598c6.6719 46.812 24.164 83.578 36.055 96.594 11.887 13.016 11.531 16.395 23.301 16.574 11.773 0.17578 59.566-13.758 86.664-21.141 27.102-7.3828 37.121-30.418 37.832-36.617 0.71094-6.1953-10.703-36.141-12.363-39.461-1.6602-3.3203 37.09-9.043 40.414 2.6094 0 0-11.859 24.254-8.8945 37.328 2.9648 13.074 19.508 28.789 33.531 33.77 14.023 4.9805 66.293 19.566 79.133 22.176 12.836 2.6094 23.543 2.6406 35.578-19.242 12.039-21.879 89.035-123.9-60.363-187.85 0 0 95.055-9.457 137.87 57.309 0 0 25.852 38.871 22.648 68.906 0 0-3.7344 10.762 1.4844 16.719 5.2188 5.9609-0.38672 20.043-4.0898 31.578-3.707 11.531-6.3164 14.496-4.4805 19.301 1.8398 4.8008-10.02 21.941-11.117 26.387-1.0977 4.4492 2.2227 6.6992 1.0977 12.629-1.125 5.9297-14.824 23.422-14.824 23.422l8.5391 10.023 20.426-15.238 1.4844-22.297s27.129-23.395 30.094-23.395 12.629 0.74219 16.367 4.8359c0 0 207.27-189.4 38.691-265.71 0 0 93.629-7.2656 160.1 86.543 66.473 93.809-84.113 269.42-181.45 338.56 0 0 4.1484 9.2773 8.8945 8.8945 4.7422-0.38672 18.055-10.703 31.133-10.23 13.074 0.47656 50.164 21.586 30.477 59.859 0 0 63.211 11.387 89.895-137.8 0 0 47.824 48.18 36.203 130.84 0 0 21.406 8.7148 23.215 17.344 0 0 18.113-0.89062 25.559 8.0352 7.4414 8.9219 20.07 61.461-35.105 68.43-55.176 6.9648-71.395-9.2539-71.395-9.2539s-53.367 43.824-109.41 47.172c0 0 12.66 0 16.367 10.406s-6.6992 50.168-13.371 61.672c0 0 47.023 8.0625 49.988 39.637 2.9648 31.578-1.4844 43.109-30.836 59.445 0 0 8.5391 5.5742 22.297 15.98 13.758 10.41 42.34 62.055-17.465 93.633 0 0 25.973 10.91 20.25 42.277 0 0 38.309 15.953 26.688 43.289l-114.71 144.95-5.3945 5.0703s-19.926-83.816-29.145-95.113c-9.2227-11.293-26.152 3.8555-44 19.926-17.848 16.07-126.69 95.141-150.76 98.402-24.078 3.2617-53.371 14.648-62.531 24.52-9.1602 9.875-29.648 8.1836-35.785 2.9648s-50.996-50.578-96.863-52.891c-45.867-2.3164-47.055-12.219-47.055-12.219s-96.949-92.293-106.26-88.945c-9.3086 3.3516-15.535 11.09-35.578 87.496l-2.6094 8.4492s-4.8008-0.26953-20.754-16.07c-15.949-15.805-32.168-49.156-75.664-88.086-43.492-38.93-24.52-80.289 2.9648-81.387 0 0-4.4453-37.18 22.297-44.234 0 0-36.766-18.203-33.445-42.367s5.2188-35.578 18.59-44.949c13.375-9.3672 15.98-14.824 12.633-20.07-3.3516-5.25-45.512-15.535-28.109-58.527 17.406-42.988 51.68-40.617 51.68-40.617s-35.578-64.488 0.47266-74.121c0 0-84.379-4.1836-115.96-50.641 0 0 5.9297 24.223-78.004 11.148 0 0-41.332-21.406-29.648-49.957 11.68-28.555 37-25.234 37-25.234s2.6992-13.016 22-16.719c0 0-3.4375-93.305 38.367-128.41 0 0 23.215 141.69 88.262 137.04 0 0-11.621-40.055 8.6875-52.238 0.99609-0.63281 2.0195-1.2227 3.0625-1.7695 1.0469-0.54687 2.1133-1.0508 3.1992-1.5078 1.0898-0.46094 2.1953-0.87109 3.3164-1.2383 1.1211-0.36719 2.2539-0.6875 3.4023-0.96094 1.1484-0.26953 2.3086-0.49609 3.4727-0.67188 1.168-0.17578 2.3398-0.30469 3.5156-0.38281 1.1797-0.078125 2.3594-0.10547 3.5391-0.089844 1.1797 0.019531 2.3555 0.089844 3.5312 0.20703 1.1719 0.11719 2.3398 0.28125 3.5 0.49609s2.3086 0.47656 3.4492 0.78906c1.1367 0.30859 2.2617 0.66406 3.3711 1.0664 1.1094 0.40625 2.1992 0.85156 3.2695 1.3477 1.0742 0.49219 2.1211 1.0312 3.1484 1.6133s2.0273 1.2031 3.0039 1.8672c0.97656 0.66406 1.9219 1.3672 2.8398 2.1133 0.91406 0.74219 1.8008 1.5234 2.6523 2.3398 0 0 9.8711-5.9297 9.8711-10.051 0-4.1211-30.328-30.926-30.328-30.926h-10.703s-123.58-102.46-143.89-178.36c-20.312-75.902-19.184-76.109-3.5-125.45 15.684-49.336 103.95-98.168 152.43-92.711z" fill="#030604" fill-rule="evenodd"/>
 <path d="m262.6 300.58 15.004-13.312-6.5234-10.406 8.7148 6.5508 3.6172-2.4297s-84.914-79.34-100.63-144.71c-15.711-65.375 4.2422-106.73 31.461-119.54 0 0-43.109 12.184-56.691 25.199 0 0-72.371 124.52 82.039 250.86 0 0 1.9258-8.8945 7.5-5.0117 5.5742 3.8828 15.508 12.809 15.508 12.809z" fill="#e1c6a9" fill-rule="evenodd"/>
 <path d="m161.09 212.14s59.594 76.254 106.11 121.56c0 0 41.953-45.957 44.145-46.668 2.1953-0.71094 15.477 1.9258 15.242 8.7188-0.23828 6.7891-64.102 65.789-86.191 100.6 0 0-7.6797-4.2695-5.9297-7.6211 1.75-3.3516 84.824-93.008 84.824-93.008s-4.8008-3.8242-6.6406-3.3516c-1.8359 0.47656-46.488 47.438-46.488 47.438s-80.824-80.82-105.2-127.84z" fill="#8f7b62" fill-rule="evenodd"/>
 <path d="m261.95 342.44s-1.2148 4.1211-2.9648 3.8828-96.742-118-96.742-118z" fill="#8f7b62" fill-rule="evenodd"/>
 <path d="m194.62 351.69s1.5703 5.5742 4.6562 4.6562c3.082-0.92188 26.504-29.145 26.504-29.145s-0.62109-3.4102-2.1641-2.4609c-1.543 0.94531-28.996 26.949-28.996 26.949z" fill="#8f7b62" fill-rule="evenodd"/>
 <path d="m203.72 364.41s0-5.4531 2.9648-3.5859c2.9648 1.8672 23.188 17.223 23.188 17.223s0.35547 8.3047-3.6172 6.9414c-3.9727-1.3672-22.445-20.578-22.445-20.578z" fill="#8f7b62" fill-rule="evenodd"/>
 <path d="m264.32 314.72 19.867-21.703 2.4609 1.3633-19.094 22.09z" fill="#8f7b62" fill-rule="evenodd"/>
 <path d="m293.38 286.82 9.0703-10.703 4.2695 3.4102z" fill="#8f7b62" fill-rule="evenodd"/>
 <path d="m276.68 421.6s-5.9297 0.59375-5.9297-2.1328c0-2.7305 24.996-39.906 49.988-58.914 0 0 1.9297 7-0.97656 10.469-15.551 15.848-29.91 32.707-43.082 50.578z" fill="#8f7b62" fill-rule="evenodd"/>
 <path d="m306.25 335.83s-0.92188-9.1289 2.6367-8.8945c3.5586 0.23828 30.242 28.82 30.242 28.82s-2.3398 7.9141-4.6562 7.4414c-2.3125-0.47656-28.223-27.277-28.223-27.277z" fill="#8f7b62" fill-rule="evenodd"/>
 <path d="m321.99 315.25s0.26562-5.9297 2.1367-5.9297c1.8672 0 33.324 25.32 33.324 25.32l-2.1367 4.0625-33.324-23.305z" fill="#8f7b62" fill-rule="evenodd"/>
 <path d="m127.38 63.805s5.4531 0.62109 2.7266 4.5664c-2.7266 3.9414-66.77 50.816-36.617 135.85s98.789 137.33 98.789 137.33-2.2539 8.3633-8.3008 6.2266c-6.0469-2.1328-185.16-184.45-56.598-283.97z" fill="#8f7b62" fill-rule="evenodd"/>
 <path d="m349.32 192.51s-5.1602 3.3203-6.9688 0c-1.8086-3.3203-2.9648-105.22 123.79-123.4 0 0-78.449 35.578-73.145 100.8 0 0-5.3047 1.2461-6.8789-1.4805-1.5703-2.7266 4.6875-67.688 37.094-79.488 0 0-66.324 9.9922-73.887 103.77z" fill="#8f7b62" fill-rule="evenodd"/>
 <path d="m348.55 231.85s-6.1992-5.0391-2.9648-11.059c3.2305-6.0195 28.668-31.785 45.539-33.504 0 0 2.9648-1.8359 3.2617 4.8633 0.29688 6.6992 3.7344 12.512 5.3359 12.777 2.1758 0.51562 4.3203 1.1367 6.4336 1.8672 0 0-6.4336-23.719-4.9492-32.02 0 0-56.125 13.699-62.5 46.637 0 0-2.1953 8.1836 9.9609 10.438z" fill="#8f7b62" fill-rule="evenodd"/>
 <path d="m358.4 271.34s-6.1992-5.0391-3.1133-11.059c3.082-6.0195 28.699-31.785 45.57-33.531 0 0 2.9648-1.8086 3.2617 4.8906 0.29687 6.6992 3.7031 12.512 5.3359 12.777 2.1758 0.51562 4.3203 1.1367 6.4336 1.8672 0 0-6.4336-23.719-4.9531-32.02 0 0-56.125 13.699-62.527 46.637 0 0-2.1953 8.1836 9.9922 10.438z" fill="#8f7b62" fill-rule="evenodd"/>
 <path d="m360.09 305.47c-0.25391-0.1875-0.49609-0.39062-0.72656-0.60938-0.23047-0.21484-0.44531-0.44531-0.65234-0.68359-0.20312-0.24219-0.39453-0.49219-0.57031-0.75781-0.17969-0.26172-0.33984-0.53125-0.48438-0.8125-0.14844-0.28125-0.27734-0.57031-0.39062-0.86328-0.11328-0.29688-0.21094-0.59766-0.28906-0.90234-0.078125-0.30859-0.14062-0.61719-0.1875-0.92969-0.042968-0.3125-0.070312-0.62891-0.082031-0.94531-0.007813-0.31641 0-0.63281 0.027344-0.94531 0.027343-0.31641 0.070312-0.62891 0.13281-0.94141 0.0625-0.30859 0.14062-0.61328 0.23438-0.91406 0.097656-0.30469 0.21094-0.59766 0.33984-0.88672 0.12891-0.28906 0.27344-0.57031 0.43359-0.83984 0.16406-0.27344 0.33984-0.53516 0.52734-0.78906 0.19141-0.25391 0.39453-0.49219 0.61328-0.72266s0.44922-0.44531 0.69141-0.64844c7.1719-7.1758 46.34-43.023 66.68-40.887 0 0 9.9023 7.7383 6.4023 11.859-0.26172 0.32812-0.55469 0.62109-0.88281 0.88281-0.32422 0.26172-0.67969 0.48047-1.0547 0.66406-0.37891 0.17969-0.76953 0.32031-1.1797 0.41406-0.40625 0.089843-0.82031 0.13672-1.2383 0.13672-0.42188 0-0.83203-0.046875-1.2422-0.13672-0.41016-0.09375-0.80078-0.23438-1.1797-0.41406-0.375-0.18359-0.72656-0.40234-1.0547-0.66406-0.32812-0.26172-0.62109-0.55469-0.88281-0.88281-0.20703-1.1875-4.0625-2.3438-11.859 2.3125-19.234 10.875-36.609 24.176-52.125 39.906z" fill="#8f7b62" fill-rule="evenodd"/>
 <path d="m438.84 278.34s10.285 0.26953 3.4688 7.7109c-6.8203 7.4414-91.113 38.926-124.88 171.43-0.98047-1.3164-1.8281-2.7148-2.5391-4.1914-0.71484-1.4805-1.2812-3.0117-1.6992-4.5977-0.41797-1.5898-0.68359-3.2031-0.79297-4.8398-0.10938-1.6367-0.0625-3.2734 0.14062-4.9023 1.8984-9.8398 22.176-99.648 126.3-160.61z" fill="#8f7b62" fill-rule="evenodd"/>
 <path d="m364.3 504.82 1.4219-18.262-8.2422-7.2656 9.4297 0.23828s-6.9688-124.52 96.211-191.62c0 0 2.3711-7.1445-3.2031-4.9805-5.5742 2.1641-95.496 54.465-103.18 174.57 0 0-12.129 37.355 7.5586 47.438z" fill="#8f7b62" fill-rule="evenodd"/>
 <path d="m907.41 280.3 9.6953 0.5625s4.4453 14.172 16.277 13.582l6.7891 10.852s95.203-88.266 104.81-154.56c9.6055-66.297 4.7422-120.7-73.352-134.9 0 0 129.57 60.957-64.07 264.46z" fill="#e1c6a9" fill-rule="evenodd"/>
 <path d="m870.55 296.55s77.977 78.805 85.566 91.227c0 0 0.56641 8.0664-5.2461 4.1797 0 0-59.742-69.645-88.234-92.652 0 0 3.6445-15.355 13.547-12.008 9.9062 3.3516 45.719 45.512 45.719 45.512s102.14-106.73 107.98-129.3c0 0 13.312 13.344-108.49 133.92l-43.938-45.301c-0.74609-0.097656-1.4805-0.066406-2.2148 0.097656-0.73047 0.16406-1.4141 0.44922-2.043 0.85156-0.63281 0.40234-1.1758 0.90234-1.6328 1.5-0.45312 0.59375-0.79297 1.25-1.0195 1.9688z" fill="#8f7b62" fill-rule="evenodd"/>
 <path d="m927.71 343.48 2.3125 2.9648s96.625-109.7 100.98-123.67c0 0-71.75 85.566-103.3 120.76z" fill="#8f7b62" fill-rule="evenodd"/>
 <path d="m885.58 282.25s-3.5273-2.4297 0-3.8828c3.5312-1.4531 6.6445-1.6914 7.7383 2.4297 1.0977 4.1211 31.191 32.613 31.191 32.613s-2.7852 4.0039-4.3555 3.3789c-1.5742-0.62109-34.574-34.539-34.574-34.539z" fill="#8f7b62" fill-rule="evenodd"/>
 <path d="m905.27 284.86 16.574 16.93 4.7148 1.2148-2.6367-3.5273-15.746-15.953z" fill="#8f7b62" fill-rule="evenodd"/>
 <path d="m838.5 334.76c0.29688 0.91797 0.44531 4.7148 4.0938 4.8633 3.6445 0.14844 28.105-25.855 28.105-25.855s-3.1719-5.3047-5.6016-4.832c-2.4336 0.47656-26.684 25.824-26.684 25.824z" fill="#8f7b62" fill-rule="evenodd"/>
 <path d="m856.47 359.34c0.29688 0.91797 0.44531 4.6836 4.0625 4.832s28.137-25.824 28.137-25.824-3.2031-5.3047-5.6055-4.8594c-2.3984 0.44531-26.684 25.852-26.684 25.852z" fill="#8f7b62" fill-rule="evenodd"/>
 <path d="m880.81 363.25s4.5664-1.7188 4.6562-5.0117c0.089844-3.2891-5.7812-4.7422-8.2734-1.5703-2.4883 3.1719-6.4609 5.9297-0.67969 14.172s43.051 52.625 43.051 52.625l4.2109-5.9297-42.965-54.227z" fill="#8f7b62" fill-rule="evenodd"/>
 <path d="m963.86 325.96c0.21484-0.29688 0.47266-0.54297 0.77734-0.74609 0.30078-0.19922 0.63281-0.33984 0.98828-0.41797 0.35547-0.082031 0.71094-0.09375 1.0742-0.042969 0.35938 0.054688 0.69922 0.16797 1.0156 0.34766 2.2539 1.4219 28.906 27.066 28.906 27.066s-0.44141 3.9727-3.2578 3.8281c-2.8203-0.14844-29.504-30.035-29.504-30.035z" fill="#8f7b62" fill-rule="evenodd"/>
 <path d="m962.91 379.8c1.2422 1.2461 0.17578 3.7383 3.1992 3.9141 3.0234 0.17969 20.371-17.551 20.754-18.617 0.054688-0.53516-0.03125-1.0469-0.25391-1.5352-0.22266-0.48438-0.55469-0.88281-0.99609-1.1914-0.44141-0.30859-0.92578-0.48047-1.4609-0.52344s-1.043 0.050781-1.5273 0.28516c-3.2031 1.6016-19.688 17.789-19.688 17.789z" fill="#8f7b62" fill-rule="evenodd"/>
 <path d="m999.82 343.15s2.2227 5.543 5.3359 3.5586c3.1133-1.9883 185.34-189.19 54.23-281.66 0 0 117.59 87.164-59.566 278.22z" fill="#8f7b62" fill-rule="evenodd"/>
 <path d="m794.23 166.92 7.3555 2.6094s5.9297-58.824-38.543-80.051c0 0 63.148 16.867 79.16 102.49l6.8789-1.0078s-8.1836-112.39-137.93-122.18c0 0 90.309 28.047 83.016 98.047z" fill="#8f7b62" fill-rule="evenodd"/>
 <path d="m785.28 205.85s1.7812 2.9648 5.6641 0.17578c3.8828-2.7852 5.9297-14.824 5.9297-19.332 0-4.5039 55.086 23.512 49.84 42.309 0 0 6.6406-2.4883 5.5156-15.207-1.1289-12.719-45.957-37.09-60.07-37.656 0 0-1.8984 23.188-6.9688 29.648z" fill="#8f7b62" fill-rule="evenodd"/>
 <path d="m772.59 248.1s1.7773 2.9648 5.6602 0.17969c3.8867-2.7891 5.9297-14.824 5.9297-19.332 0-4.5039 55.059 23.512 49.812 42.309 0 0 6.6406-2.4883 5.543-15.207-1.0977-12.723-45.957-37.094-60.098-37.656 0 0-1.8672 23.188-6.9688 29.648z" fill="#8f7b62" fill-rule="evenodd"/>
 <path d="m766.45 252.01s-3.8828 5.5469-2.2227 7.207c1.6602 1.6602 52.895 19.922 59.535 41.805 0 0 7.4414 0 6.375-6.6719-1.0664-6.6719-27.543-27.543-63.688-42.34z" fill="#8f7b62" fill-rule="evenodd"/>
 <path d="m744.66 283.44s-2.2266-5.5469 3.7656-5.5469c5.9883 0 129.21 69.852 131.91 175.96l-7.5898 7.3242s23.719-88.945-128.08-177.74z" fill="#8f7b62" fill-rule="evenodd"/>
 <path d="m726.25 286.11s0.92188-5.9297 5.1914-3.1445c4.2656 2.7891 120.79 68.609 102.38 220.94 0 0-17.078 14.559-21.375 13.461 0 0 7.6172-11.531 8.8945-19.152 1.2734-7.6211 10.051-7.9766 10.051-7.9766l-9.875-4.6523s33.059-102.53-95.262-199.48z" fill="#8f7b62" fill-rule="evenodd"/>
 <path d="m416.57 483.06s7.4102 6.4961 1.3906 11.625c-6.0195 5.1289-28.344 16.008-22.77 32.258 0 0-8.8945 4.1797-10.91-5.5742s10.672-30.273 32.289-38.309z" fill="#8f7b62" fill-rule="evenodd"/>
 <path d="m795.75 526.26s8.125 0.94922 9.5195-4.8633c1.3945-5.8086-4.418-34.836-29.945-36.703 0 0-5.9297 0.94922-2.3438 7.9141 3.5898 6.9688 25.945 6.4648 22.77 33.652z" fill="#8f7b62" fill-rule="evenodd"/>
 <path d="m478.21 276.12s31.312-18.117 58.055-10.883c0 0-53.043 38.543-66.652 68.488-13.609 29.945-33.797 199 56.57 266.34 90.371 67.332 169.21-14.172 185.13-67.332 15.922-53.16 64.961-186.79-53.367-268.41 0 0 34.004-1.7188 55.559 19.836 21.555 21.555 40.738 35.934 46.938 87.316 6.1953 51.379 18.676 165.05-31.785 249.52 0 0-25.914 53.754-90.133 65.73 0 0 0.98047 22.355-2.7266 24.906s-16.961 6.9688-18.59-0.91797c-1.6328-7.8867-2.7891-20.191-1.3945-22.297 1.3945-2.1055 47.438-13.461 59.922-28.344 0 0-82.664 35.578-162.57-2.9648 0 0 17.789 19.508 64.102 27.633 0 0 1.1562 28.105-3.2617 29.945-4.418 1.8359-19.715 4.418-19.953-4.8633s-2.1055-23.246-2.1055-23.246-94.875-16.422-110.27-117.35c-15.387-100.92-36.141-224.23 36.676-293.07z" fill="#a5573e" fill-rule="evenodd"/>
 <path d="m442.75 503.25s18.617 104.04 96.297 137.33c77.68 33.297 162.3 5.6953 207.54-124.02 0 0-2.8164 83.016-56.156 120.05-53.336 37.031-111.77 42.812-184 7.9766-72.223-34.836-63.805-141.34-63.805-141.34z" fill="#2d0d07" fill-rule="evenodd"/>
 <path d="m215.4 483.18c0-1.75-2.9648-20.043 4.3555-24.402 4.6719-2.6992 9.7031-4.1523 15.094-4.3594 0 0-5.2188-14.824-13.047-10.434-7.8281 4.3867-26.418 22.918-6.4023 39.195z" fill="#8f7b62" fill-rule="evenodd"/>
 <path d="m247.07 454.72s4.0625-10.73 7.2344-2.0156c3.1719 8.7188 6.9688 56.008 16.84 66.176 0 0-21.762-2.0469-24.074-64.16z" fill="#8f7b62" fill-rule="evenodd"/>
 <path d="m224.98 512.21s5.5469 6.0781-1.4219 6.0781-111.78-8.5391-114.95-113.32c0 0-61.254 119.28 116.58 199.12 0 0 1.3633 2.9648-3.2891 4.2109-4.6562 1.2422-206.65-49.988-113.5-238.91 0 0 16.75 139.35 116.58 142.82z" fill="#8f7b62" fill-rule="evenodd"/>
 <path d="m44.711 507.02s7.1484 1.3945 2.2852 6.9688c-4.8633 5.5742-45.66 38.305 36.23 58.289 0 0-44.148 4.418-55.977-23.215-11.832-27.633 17.461-42.043 17.461-42.043z" fill="#8f7b62" fill-rule="evenodd"/>
 <path d="m71.039 498.42s4.8047 0.91797 1.543 4.6836-30.688 25.824 24.402 39.285c0 0-29.648 2.9648-37.715-15.652-8.0625-18.621 11.859-28.316 11.859-28.316z" fill="#8f7b62" fill-rule="evenodd"/>
 <path d="m960.92 454.51s-0.38672-9.1016 6.3164-9.1016c6.6992 0 27.129 22.297 18.59 38.277-1.4492-6.0859-3.375-12.016-5.7812-17.789-3.8867-9.2812-19.125-11.504-19.125-11.504z" fill="#8f7b62" fill-rule="evenodd"/>
 <path d="m938.62 449.12s4.832 56.48-18.027 68.191c0 0 13.016-25.824 18.027-68.191z" fill="#8f7b62" fill-rule="evenodd"/>
 <path d="m959.86 513.16s-2.0469 4.4766 1.8672 6.3164c3.9141 1.8398 109.17-10.465 119.6-123.43 0 0 79.668 126.51-118.59 208.16 0 0-0.14844 5.6641 2.1641 6.6133 2.3125 0.94922 220.65-59.711 116.88-247.42 0 0-14.172 146.49-121.91 149.75z" fill="#8f7b62" fill-rule="evenodd"/>
 <path d="m432.31 566.05-2.0469-7.8281s-113.97-40.379-133.75-128.23c0 0-38.898 123.43 145.75 171.81l-5.0977-23.066s-61.848-7.5273-84.203-36.586c0 0 0.59375-15.684 2.9648-15.949 0 0 35.133 32.227 76.582 39.848z" fill="#8f7b62" fill-rule="evenodd"/>
 <path d="m358.07 517.78c-26.922-20.754-53.012-49.867-61.551-87.789 0 0-23.719 75.398 54.02 131.43l2.2852-19.273s0.59375-15.684 2.9648-15.949l2.3398-8.4219z" fill="#a5573e" fill-rule="evenodd"/>
 <path d="m1116.1 500.02s0.47656-6.9688 7.918-1.1562c7.4414 5.8125 11.859 14.379 7.4102 26.684-4.4453 12.305-15.801 27.633-37.387 12.305 0 0 14.617 5.9297 24.164-3.9453 9.5469-9.8711 9.043-20.457-2.1055-33.918z" fill="#8f7b62" fill-rule="evenodd"/>
 <path d="m1144 513.21s-0.71094-5.9297 4.8633-3.4688c5.5742 2.4609 16.039 15.539 15.328 25.766-0.71094 10.23-7.8867 40.203-61.078 38.336 0 0 28.344-5.9297 39.938-16.246 11.594-10.32 23.719-25.559 0.94922-44.473z" fill="#8f7b62" fill-rule="evenodd"/>
 <path d="m759.81 562.02 0.35547-8.332s101.88-28.492 135.76-120.52c0 0 44.684 112.66-145.84 167.48l7.4688-24.727s67.809-17.078 87.082-41.953l-7.207-11.145s-16.723 22.293-77.621 39.195z" fill="#8f7b62" fill-rule="evenodd"/>
 <path d="m823.5 522.59c27.574-18.855 57.016-47.438 72.43-89.422 0 0 23.723 60.129-37.684 113.94l-13.605-13.137-7.207-11.145z" fill="#a5573e" fill-rule="evenodd"/>
 <path d="m583.4 723.54s11.328 24.105 23.719 1.4531c0 0 1.75-30.184 0.29688-33.086-1.4531-2.9062-23.719-12.84-24.34 2.9648-0.625 15.801 0.23438 28.785 0.23438 28.785z" fill="#df6d66" fill-rule="evenodd"/>
 <path d="m304.67 534.27c7.0352 11.312 15.141 21.801 24.312 31.461 9.1719 9.6602 19.223 18.297 30.152 25.91 37.035 26.121 102.73 58.793 104.9 60.988 2.1641 2.1914 0.38672 5.9297-8.332 5.4258-8.7148-0.50391-169.18-48.625-151.03-123.79z" fill="#8f7b62" fill-rule="evenodd"/>
 <path d="m888.04 534.65s22.121 80.613-162.65 121.97c0 0-2.8164-1.8945 0.41406-6.5195 3.2344-4.625 90.195-30.57 162.24-115.45z" fill="#8f7b62" fill-rule="evenodd"/>
 <path d="m341.26 618.73s-5.9297 7.7109-1.3672 14.055c4.5664 6.3438 165.65 94.875 165.65 94.875l-32.613-29.469-131.61-79.43z" fill="#a5573e" fill-rule="evenodd"/>
 <path d="m475.72 692.92c3.7656 2.6094 28.758 22.918 35.133 30.18 6.375 7.2656 25.559 20.043 36.32 17.137s-0.59375-14.824-7.5625-14.824c-6.9648 0-19.746-10.465-24.992-16.574-5.2461-6.1055-21.762-17.137-38.898-15.949z" fill="#a5573e" fill-rule="evenodd"/>
 <path d="m656.01 723.39s-14.824-6.6719-15.98 0.89062c-1.1562 7.5586-2.0469 18.293 11.031 17.996 13.074-0.29688 57.223-48.504 66.203-52.27 8.9844-3.7656-20.754-5.9297-61.254 33.383z" fill="#a5573e" fill-rule="evenodd"/>
 <path d="m848.05 616.54c0.34375 6.1641-0.14062 12.262-1.4531 18.293-2.0156 6.4023-161.17 91.762-161.17 91.762l34.273-31.34z" fill="#a5573e" fill-rule="evenodd"/>
 <path d="m369.46 718.09 24.105 18.293c-3.7773-0.41797-7.3633-1.4766-10.766-3.1758-3.4688-2.3398-13.34-15.117-13.34-15.117z" fill="#a5573e" fill-rule="evenodd"/>
 <path d="m393 745.81s5.5156 15.953 30.215 31.074c24.695 15.121 39.789 22.355 74.328 21.492-12.555 1.9648-24.949 4.6719-37.18 8.125-14.824 4.6562-27.008 7.2656-52.832-8.125-25.824-15.387-37.477-28.758-39.523-74.355 0 0 13.074 9.9883 17.02 19.27 3.9414 9.2812 18.145 46.934 62.5 55.086 0 0-44.148-12.332-54.527-52.566z" fill="#a5573e" fill-rule="evenodd"/>
 <path d="m409.75 740.56s32.613 52.508 92.238 33.918c0 0-4.8633 12.098-12.07 11.621-7.2031-0.47266-64.516 1.8672-80.051-45.539z" fill="#a5573e" fill-rule="evenodd"/>
 <path d="m691.68 775.13c1.8906 2.3789 4.082 4.4414 6.5781 6.1836 2.4922 1.7422 5.1836 3.0898 8.0703 4.043 9.9922 3.4688 52.508-0.47266 74.359-43.227 0 0-44.148 48.566-88.949 33z" fill="#a5573e" fill-rule="evenodd"/>
 <path d="m408.09 809.5s11.059 13.34 42.723 8.1211 67.098-11.859 71.156-6.668c4.0625 5.1875-5.9297 10.465-13.934 11.324-8.0039 0.85937-15.121-5.9297-26.445 0.59375-11.328 6.5234-54.023 36.883-73.5-13.371z" fill="#a5573e" fill-rule="evenodd"/>
 <path d="m822.61 716.37s-11.027 14.824-17.789 17.789c-3.3828 1.5469-6.875 2.8008-10.465 3.7656l28.164-21.492z" fill="#a5573e" fill-rule="evenodd"/>
 <path d="m825.19 723.25-14.172 15.094s-23.008 58.555-73.676 59.738c0 0 51.824-10.465 65.051-56.48 0 0-34.395 55.297-99.207 56.336l33.445 10.344c11.176 3.5 39.758 1.8711 62.973-19.746 23.215-21.613 22.562-24.844 25.586-65.227z" fill="#a5573e" fill-rule="evenodd"/>
 <path d="m670.01 810.3c0.74219 1.0938-6.3164 7.6172 4.832 10.02 11.148 2.4023 24.551-4.832 31.785 0.5625 7.2344 5.3984 18.23 16.367 39.223 17.285 20.992 0.91797 39.047-29.172 39.047-29.172s-20.426 11.859-40.527 8.8945c-20.102-2.9648-27.516-6.1406-35.578-6.7031-8.0664-0.5625-30.836-3.3477-38.543-0.91797z" fill="#a5573e" fill-rule="evenodd"/>
 <path d="m357.12 798.61s19.156 34.273 19.746 55.473c0 0-17.996-16.543-19.746-55.473z" fill="#a5573e" fill-rule="evenodd"/>
 <path d="m358.43 771.01s-2.9648 13.668 2.3125 19.746c5.2773 6.0781 23.246 37.18 24.402 55.797 0 0 7.8555-2.9648 7.2656-10.465-0.59375-7.5-1.4531-37.477-1.4531-37.477s-6.375 1.75-32.613-27.602z" fill="#a5573e" fill-rule="evenodd"/>
 <path d="m835 797.22s-21.613 45.098-20.457 56.719c0 0 20.457-10.465 20.457-56.719z" fill="#a5573e" fill-rule="evenodd"/>
 <path d="m831.5 769.8s-23.215 22.531-26.949 26.684c-3.7383 4.1484-4.8633 43.434-4.8633 43.434l5.5742 7.2031c2.9922-10.102 7.0156-19.777 12.066-29.023 9.0742-17.195 19.984-24.402 14.172-48.359z" fill="#a5573e" fill-rule="evenodd"/>
 <path d="m581.15 763.95s11 15.035 27.664 2.8164c0.23047-1.9141 0.003906-3.7695-0.68359-5.5742-1.1562-2.9648-12.008-13.695-12.008-13.695s-13.695 6.5508-14.973 16.453z" fill="#a5573e" fill-rule="evenodd"/>
 <path d="m570.77 774.86c1.0352 0 12.184 9.2227 17.789 10.559 1.5 0.41406 3.0273 0.69141 4.582 0.82812 1.5508 0.13281 3.1055 0.125 4.6562-0.027344s3.0742-0.44531 4.5703-0.87891c1.5-0.43359 2.9453-1 4.3359-1.7031 5.8789-2.9414 10.887-6.9648 15.031-12.066l-13.402 0.47266s-15 6.375-23.184 2.5234c-2.6875-1.4453-5.4648-2.6914-8.332-3.7383l-6.9961 0.29688s2.4609 4.5078 1.0352 3.7344z" fill="#a5573e" fill-rule="evenodd"/>
 <path d="m568.19 778.04s9.2227 11.59 18.355 12.836c9.1289 1.2461 24.844-2.1953 29.648-6.0781 2.7305-2.2031 5.1406-4.7148 7.2344-7.5312 0 0-1.2773 85.746-3.8867 100.57-2.6094 14.824-32.613 34.867-47.438 0l-3.9414-99.797z" fill="#a5573e" fill-rule="evenodd"/>
 <path d="m592.71 807.75h-11.859l9.0742-16.633 10.586-0.89062s20.754 22.621 16.602 51.469c-4.1523 28.848-0.91797 39.969-14.824 43.91-13.906 3.9453-21.613 0.71094-23.926-13.695-2.3125-14.41-11.387-55.801 18.113-59.062 0 0 5.1602-2.3984 8.7188 9.6055 0 0 3.2305-14.824-12.422-14.824z" fill="#d8604f" fill-rule="evenodd"/>
 <path d="m550.58 877.54s17.789 8.332 14.141-12.215c-3.6445-20.547-32.137-26.18-37.355-19.184s-18.59 26.684 11.324 33.918c0 0-9.9609-4.4766-5.9297-12.066 4.0312-7.5898 17.789 9.5469 17.789 9.5469z" fill="#a5573e" fill-rule="evenodd"/>
 <path d="m565.2 849.7-13.402-16.84 1.0391-21.109 14.289 12.629s-1.6289 27.098-1.9258 25.32z" fill="#a5573e" fill-rule="evenodd"/>
 <path d="m626.3 846.38s-0.91797-20.281-0.74219-22.328c0.17969-2.043 14.824-12.273 14.824-12.273l3.1719 18.055-17.137 16.547z" fill="#a5573e" fill-rule="evenodd"/>
 <path d="m642.05 874.43c0.23828-1.3945 5.3672-13.016 12.574-10.438 7.2031 2.5781-5.9336 12.305-5.5742 14.172 0.35547 1.8672 15.328 5.9297 20.219-7.4727 4.8906-13.398 3.5859-27.691-10.258-27.543-13.848 0.14844-40.176 14.441-33.473 32.289 6.6992 17.848 16.512-1.0078 16.512-1.0078z" fill="#a5573e" fill-rule="evenodd"/>
 <path d="m506.38 855.48c0 1.125-4.832 13.398 3.1445 24.371 7.9727 10.969 23.273 8.5391 32.375 14.824 4.5898 2.8906 8.6211 6.418 12.098 10.582 0 0-15.449-5.1875-21.023-3.7031-5.5742 1.4805-14.32 5.9297-24.934-1.8672-10.613-7.8008-14.32-27.902-1.6602-44.266z" fill="#a5573e" fill-rule="evenodd"/>
 <path d="m493.33 892.69c1.5117 2.4023 11.355 15.242 11.355 15.242l-20.07 10.969z" fill="#a5573e" fill-rule="evenodd"/>
 <path d="m488.7 848.78s-25.32 18.234-36.469 25.676c-11.145 7.4414-26.684 27.336-12.273 45.926 0 0 11.859 10.793 26.684-1.4805 14.824-12.273 15.062-45.75 22.148-70.121z" fill="#a5573e" fill-rule="evenodd"/>
 <path d="m464.81 895.21s5.0977-2.1641 5.6914 2.0195c0.59375 4.1797-10.23 19.863-18.918 14.824-8.6836-5.043-8.2109-20.133-8.2109-20.133s14.41 27.871 21.438 3.3516z" fill="#2d0d07" fill-rule="evenodd"/>
 <path d="m642.2 902.62c6.9922-3.8555 14.277-7.0469 21.852-9.5781 13.016-4.4453 25.113-20.754 22.328-38.809 0 0 11.145 21.73 2.3125 35.281-8.8359 13.551-9.668 11.859-16.961 13.641-7.293 1.7773-29.648-0.53516-29.648-0.53516z" fill="#a5573e" fill-rule="evenodd"/>
 <path d="m685.1 907.48 12.363-18.918 10.406 29.027z" fill="#a5573e" fill-rule="evenodd"/>
 <path d="m701.38 847.06c3.8945 10.59 6.6797 21.461 8.3633 32.613 2.1016 16.039 3.2578 32.082 15.832 40.945 12.57 8.8633 29.973 4.625 32.762-14.824 2.7852-19.449-11.148-25.824-27.426-34.895-11.016-6.4922-20.898-14.398-29.648-23.719z" fill="#a5573e" fill-rule="evenodd"/>
 <path d="m730.96 890.41s0-5.2188-3.5859-1.9297c-3.5898 3.293-2.375 14.113-2.375 14.113l-6.6992-15.918s0.29687 10.879 2.8164 15.918c2.5195 5.043 15.477 15.18 24.254 6.8516 8.7773-8.332 1.2148-18.441 1.2148-18.441-0.61719 0.31641-1.1133 0.76562-1.4883 1.3477-0.375 0.58203-0.58203 1.2188-0.61719 1.9141 0.14844 2.1016 0 10.879-6.8477 9.6914-6.8477-1.1836-12.633-1.3633-6.6719-13.547z" fill="#2d0d07" fill-rule="evenodd"/>
 <path d="m392.7 847.09s12.219 63.953 22.09 75.574c9.875 11.621 26.445 35.578 60.75 12.215 34.305-23.363 47.438-40.68 95.914-8.125 0 0 17.789 17.434 50.879-1.4531 33.086-18.887 58.258-24.695 85.98 4.832 0 0 41.508 31.902 65.227-0.88672 23.723-32.793 25.352-81.594 25.352-81.594l5.3672 6.2578s6.4922 68.902-22 90.691c-28.492 21.793-59 12.809-71.781-0.29297-12.777-13.105-45.363-27.012-68.191-17.434-22.828 9.5742-37.832 38.125-87.195 4.3555 0 0-37.211-15.121-61.051 3.5-23.836 18.617-46.516 32.613-79.664 9.8711-33.148-22.738-26.684-93.301-26.684-93.301l5.2188-4.2109z" fill="#8f7b62" fill-rule="evenodd"/>
 <path d="m451.7 965.8c-0.11719 0.46094-0.16797 0.92578-0.15625 1.3984 0.015625 0.47266 0.09375 0.9375 0.23828 1.3867 0.14453 0.44922 0.34766 0.875 0.60938 1.2656 0.26562 0.39453 0.57812 0.74609 0.9375 1.0508 2.5508 2.7852 21.379 4.8906 37.891-1.6328 16.516-6.5195 30.688-33.234 63.953-16.957s47.676 15.801 66.266 7.2031 38.367-17.789 67.215 2.0781c28.848 19.863 54.645 9.0703 59.297 5.1289 0 0-32.789 2.1016-44.473-6.9688-11.68-9.0742-22.324-26.062-49.543-20.25s-60.219 22.887-94.164 4.418c-33.949-18.473-49.07 2.9648-64.871 12.332-15.805 9.3711-43.258 9.5469-43.258 9.5469z" fill="#8f7b62" fill-rule="evenodd"/>
 <path d="m429.02 970.93s-1.3906-8.5977 7-4.418c8.3906 4.1836 23.48 23.246 25.586 23.246s29.055-8.5977 29.055-8.5977-19.773 14.645-17.434 17.789c2.3438 3.1406 6.9688 11.621 6.9688 11.621s-3.5 9.3125-9.7539 5.1289c-6.2578-4.1797-41.508-44.887-41.508-44.887z" fill="#8f7b62" fill-rule="evenodd"/>
 <path d="m758.04 965s6.2852-2.9648 4.8906 2.9648c-1.3945 5.9297-36.496 45.57-45.57 47.438-9.0703 1.8711-7.4414-7.6758-5.9297-11.176s8.3633-7.6797 8.3633-7.6797l-16.398-14.586s21.289 6.5508 25.59 7.2031c4.2969 0.65234 29.055-24.191 29.055-24.191z" fill="#8f7b62" fill-rule="evenodd"/>
 <path d="m523.16 977.6c2.7852 0.44531 26.508 0.68359 35.105 3.707 8.5977 3.0234 53.723 6.5234 74.121 1.8672 12.824-2.8984 25.77-5.0742 38.84-6.5234 0 0 3.2617-5.5742-20.934-2.9648-24.191 2.6094-51.648 6.2852-67.449 3.5-15.805-2.7891-46.965-5.5742-59.535 0.47266z" fill="#8f7b62" fill-rule="evenodd"/>
 <path d="m516.52 987.06s-5.3672 5.3672-2.9648 7c2.4023 1.6289 30.922 1.5977 49.305 3.7031 18.383 2.1055 26.508 7.918 64.664 0.23828 38.16-7.6797 50.672-3.7344 50.672-3.7344 0.28906-0.31641 0.53125-0.66406 0.72266-1.043 0.19141-0.38281 0.32813-0.78516 0.41016-1.2031 0.078125-0.42188 0.097656-0.84375 0.0625-1.2695-0.039063-0.42578-0.13672-0.83594-0.29297-1.2344-0.15234-0.39844-0.35938-0.76953-0.61719-1.1094-0.25781-0.33984-0.55859-0.64062-0.90234-0.89453-0.33984-0.25781-0.71094-0.46094-1.1094-0.61328-0.40234-0.15234-0.8125-0.24609-1.2383-0.28516-7.2344-1.8672-32.793-2.1016-50.02 2.9648-17.227 5.0703-43.496 3.2617-59.059-1.1562-15.566-4.4141-49.543-1.3906-49.543-1.3906z" fill="#8f7b62" fill-rule="evenodd"/>
 <path d="m508.84 1032.4s-1.6914 7.8555 1.543 11.68c3.2305 3.8281 13.934 0 18.559-7.2617 4.625-7.2656 1.8086-16.07-2.9648-16.188-0.9375-0.035156-1.8672 0.007812-2.7969 0.12109-0.92969 0.11719-1.8438 0.30469-2.7422 0.56641-0.90234 0.26172-1.7734 0.59375-2.6211 0.99609-0.84375 0.39844-1.6523 0.86719-2.4258 1.3945-0.77344 0.53125-1.4961 1.1211-2.1758 1.7656-0.67578 0.64844-1.2969 1.3438-1.8633 2.0898s-1.0703 1.5312-1.5117 2.3555c-0.44141 0.82813-0.81641 1.6836-1.1172 2.5703z" fill="#a5573e" fill-rule="evenodd"/>
 <path d="m674.37 1045.9s10.465 1.8984 11.324-6.9102c0.85938-8.8047-9.6641-17.789-14.824-17.996-5.1602-0.20703-10.348 1.3047-9.3984 7.6211s12.984 17.285 12.984 17.285z" fill="#a5573e" fill-rule="evenodd"/>
 <path d="m502.7 1050.5c0.59375 1.0664 5.9297 12.66 17.789 5.2148 11.859-7.4414 35.578-38.543 43.465-42.426s53.16-3.4102 63.715 0.59375c10.555 4.0039 21.734 30.391 37.805 38.543 16.066 8.1523 24.578 1.1875 27.988-2.4023 3.4062-3.5859 4.4766 10.438 1.3633 14.586-3.1133 4.1523-18.324 3.8867-25.32-0.88672 0 0-2.5195 7.5898 6.9961 9.9922 9.5156 2.3984 17.285 2.3711 26.445-3.8242 9.1641-6.1992 13.699-7.1484 15.598-4.5078 1.8984 2.6367 0.74219 7.2617-3.4414 11.531-4.1797 4.2695-32.996 26.684-35.844 26.094-2.8477-0.59375-30.48-70.863-60.988-80.527-30.508-9.6641-50.609-0.17578-68.668 23.453-18.055 23.629-28.668 57.875-34.422 56.746-5.75-1.125-36.496-30.121-37.859-34.215-1.3633-4.0898 4.0898-9.4883 11.859-2.6094 7.7656 6.8789 19.539 13.223 30.539 7.2656 10.996-5.9609 12.629-13.578 12.629-13.578s-15.805 10.051-25.676 7.6172c-9.875-2.4297-12.84-12.629-4.0039-16.66z" fill="#a5573e" fill-rule="evenodd"/>
 <path d="m544.12 1087.7s36.469 32.375 40.559 35.34c4.0938 2.9648 21.023 4.4766 28.465-0.17578 7.4414-4.6562 38.543-36.289 38.543-36.289s-32.375-56.188-42.25-59.922c-9.8711-3.7344-25.496 0.5625-25.496 0.5625s-21.586 19.719-39.82 60.484z" fill="#a5573e" fill-rule="evenodd"/>
 <path d="m585.66 1119.2c2.0742-0.23828 17.641 2.5469 20.754-4.1836 3.1133-6.7266 0.47266-47.82 0.47266-47.82l-4.8906-3.707 6.9688-7.4414s4.8633-11.859 1.1562-15.773c-2.5156-3.1602-4.1367-6.7266-4.8633-10.703l0.74219-3.9414c-7.4375-1.0898-14.758-0.57422-21.973 1.5391 0 0-2.9648 6.3477 0.56641 10.141 3.5273 3.7969 13.074 13.195 13.074 13.195s-14.379-13.078-14.617-8.6875c-0.13281 5.9766 0.34375 11.906 1.4219 17.789 0.71484 1.4219 9.6367 5.9297 9.6367 8.5664 0 2.6406-10.465-3.1133-10.465-3.1133s4.3867 10.469 5.6914 11.18c1.3047 0.71094 5.7227 6.1953 3.2305 6.9062-2.4883 0.71094-7.7383-2.1328-7.7383-2.1328l0.92188 38.246z" fill="#ca5a4e" fill-rule="evenodd"/>
 <path d="m535.82 1116.4c0.29688-0.89062 4.8906-14.824 8.8945-13.52 4.0039 1.3047 25.113 27.188 25.113 27.188l4.8633-6.2539s-27.129-32.141-33.98-32.613c-6.8477-0.47656-14.824 21.02-14.824 21.02s-0.20703 6.1055 9.7539 4.2695z" fill="#a5573e" fill-rule="evenodd"/>
 <path d="m621.86 1122.4c0.35938 0.82812 5.2188 7.6172 5.2188 7.6172s17.258-23.926 22-24.133c4.7461-0.20703 9.9922 9.4883 10.348 10.32 0.35547 0.82812 8.2148 1.4492 8.6875-3.3242 0.47266-4.7734-9.1602-18.676-13.461-18.914-4.2969-0.23828-18.766 8.332-32.793 28.434z" fill="#a5573e" fill-rule="evenodd"/>
 <path d="m584.17 1133.4c2.9648 0 27.484-0.59375 27.961 0.35547 0.8125 3.1719 1.4062 6.3828 1.7773 9.6367 0 0.83203 11.859-2.1328 13.312-6.2852 0.003906 1.5781-0.1875 3.1289-0.57422 4.6602-0.39063 1.5273-0.96094 2.9844-1.7188 4.3672-0.75781 1.3867-1.6719 2.6523-2.75 3.8047-1.0781 1.1523-2.2812 2.1523-3.6133 3-0.48047 0.82422-0.71875 1.7148-0.71875 2.668s0.23828 1.8438 0.71875 2.668c1.6602 2.9648 12.125-6.4023 12.125-6.4023l40.352-30.539s2.9648 1.6289 2.9648 7.8867c0 6.2539-72.695 52.477-72.695 52.477s-10.914 0.94922-14.828-1.1562c-3.9102-2.1055-67.805-52.477-67.805-52.477 0.15234-0.9375 0.52734-1.7734 1.125-2.5078 0.60156-0.73438 1.3438-1.2695 2.2305-1.6055 0.88672-0.33984 1.8008-0.42969 2.7344-0.27734 0.9375 0.15234 1.7734 0.52734 2.5078 1.1289 6.9688 3.9414 50.789 39.641 50.789 39.641s5.1875-1.3359 3.2617-5.4844c-1.9297-4.1523-16.484-6.7031-16.336-24.996 0 0 15.297 13.996 19.449 12.809l-0.29688-13.281z" fill="#8f7b62" fill-rule="evenodd"/>
 <path d="m510.73 365.77s-5.1016 21.852 4.418 26.477c9.5156 4.625 24.164 2.5195 24.637-4.6836 0.47266-7.2031-15.18-49.691-10.465-77.977 4.7148-28.285 54.434-59.535 54.434-59.535s-48.27 41.746-47.91 72.938c0.35547 31.191 66.055 50.816 94.016 33.027 27.957-17.789 45.363-43.91 4.3594-80.051 0 0 31.309 9.3398 31.988 38.84 0.68359 29.5-13.695 67.301-13.223 74.508 0.47656 7.2031 29.441 16.246 31.664-2.9648 2.2266-19.215 0.74219-19.301 7.2344-26.004 6.4961-6.6992 15.625-37.98-22.473-72.785-38.098-34.809-64.93-51.531-72.551-71.84 0 0-43.258 58.023-85.27 88.145 0 0-36.262 43.613-0.85938 62.262z" fill="#a5573e" fill-rule="evenodd"/>
 <path d="m598.11 298c18.145 0 32.852 13.402 32.852 29.945 0 16.547-14.824 29.945-32.852 29.945s-32.883-13.398-32.883-29.945c0-16.543 14.824-29.945 32.883-29.945z" fill="#2d0d07" fill-rule="evenodd"/>
 <path d="m598.11 306.12c13.461 0 24.371 9.7852 24.371 21.82 0 12.039-10.91 21.824-24.371 21.824s-24.402-9.7578-24.402-21.824 10.91-21.82 24.402-21.82z" fill="#df6d66" fill-rule="evenodd"/>
 <path transform="matrix(2.9649 0 0 2.9649 -152.84 -180.26)" d="m233.18 177.08s1.469 11.85 4.9999 16.549c3.5296 4.7009 18 14.191 28.59 0.090908 1.6917-2.7931 3.0737-5.7312 4.1449-8.8142 1.0724-3.0843 1.8103-6.2464 2.2147-9.4861 0 0-14.78 23.59-39.94 1.6601z" fill="#a5573e" fill-rule="evenodd" stroke="#a5573e" stroke-miterlimit="2.61" stroke-width=".22"/>
 <path d="m581.09 396.67s26.359 12.809 45.125-5.2188c0 0-12.273 29.918-45.125 5.2188z" fill="#030604" fill-rule="evenodd"/>
 <path d="m543.14 428.6s-0.29688 23.93-7.5898 25.559c-7.2969 1.6328-14.262 3.4414-19.035-2.0742s-3.2617-28.078 2.6953-36.41c5.9609-8.332 24.227-18.707 24.227-18.707s53.605 65.699 106.55-0.94922c0 0 25.531 13.934 27.633 20.43 2.1055 6.4922 0.92188 38.098-1.3906 40.172-2.3125 2.0742-21.824-1.1562-23.215-9.043-1.3945-7.8867-1.8711-26-1.8711-26s-32.613 65.699-108.01 7.0234z" fill="#a5573e" fill-rule="evenodd"/>
 <path d="m548.09 444.7 32.23 14.824s-42.102 8.418-35.996 62.707c0 0-18.887-9.5781-26.414-60.691 0 0 25.824 6.4023 30.18-16.812z" fill="#a5573e" fill-rule="evenodd"/>
 <path d="m618.86 460.14s20.25-4.4453 27.484-14.824c0 0 10.051 20.074 29.176 16.336 0 0 1.125 44.031-33.059 64.664 0 0 20.25-48.297-23.723-66.324z" fill="#a5573e" fill-rule="evenodd"/>
 <path d="m596.83 461.66c23.957 0 43.379 18.473 43.379 41.242 0 22.77-19.422 41.211-43.379 41.211-23.953 0-43.406-18.469-43.406-41.211 0-22.738 19.422-41.242 43.406-41.242z" fill="#a5573e" fill-rule="evenodd"/>
 <path d="m614.09 484.46c-2.3438-1.8945-4.9258-3.3789-7.7422-4.4492-2.8164-1.0664-5.7305-1.6719-8.7422-1.8047-9.8164-0.29688-25.883 6.8477-24.52 22.59 1.3633 15.746 10.82 22.445 21.82 24.074 11 1.6328 22.117-10.523 21.734-22.117 0 0-3.3516-2.1055-3.8281-0.50391-0.47266 1.6016-8.6562 15.625-19.598 12.898-10.938-2.7266-16.781-9.2812-14.824-17.969s20.461-14.379 27.129-12.48c6.6719 1.8984 5.9297 3.5586 8.5117-0.23828z" fill="#2d0d07" fill-rule="evenodd"/>
 <path d="m595.11 489.2c0.64453 0.082031 1.2773 0.23047 1.8945 0.43359 0.61719 0.20703 1.2109 0.46875 1.7773 0.78906 0.56641 0.32031 1.0977 0.69141 1.5938 1.1133 0.49609 0.41797 0.94922 0.88281 1.3555 1.3906 0.41016 0.50781 0.76562 1.0508 1.0664 1.625 0.30469 0.57812 0.55078 1.1758 0.73828 1.8008 0.19141 0.62109 0.31641 1.2578 0.38672 1.9062 0.066407 0.64453 0.070313 1.293 0.015625 1.9414-0.058594 0.64844-0.17578 1.2852-0.35547 1.9141-0.17969 0.625-0.41406 1.2266-0.71094 1.8086-0.29297 0.57812-0.64062 1.1289-1.0391 1.6406-0.39844 0.51562-0.84375 0.98828-1.332 1.4141-0.49219 0.42969-1.0156 0.80859-1.5781 1.1367-0.5625 0.32812-1.1484 0.60156-1.7656 0.81641-0.61328 0.21875-1.2422 0.37109-1.8867 0.46875-0.64453 0.09375-1.2891 0.12891-1.9414 0.10156-0.64844-0.03125-1.293-0.12109-1.9258-0.27344-0.63281-0.14844-1.2461-0.35938-1.8359-0.62891-0.59375-0.26953-1.1562-0.58984-1.6875-0.96875-0.53125-0.375-1.0234-0.79687-1.4727-1.2695-0.44922-0.46875-0.85156-0.97656-1.2031-1.5234-0.35156-0.54688-0.64844-1.125-0.89453-1.7266-0.24219-0.60547-0.42188-1.2266-0.54688-1.8672s-0.18359-1.2852-0.18359-1.9336c0.046875-0.71094 0.16406-1.4102 0.35156-2.0977 0.18359-0.68359 0.4375-1.3477 0.75391-1.9844 0.3125-0.63672 0.6875-1.2383 1.1211-1.8008 0.43359-0.56641 0.91797-1.082 1.4531-1.5508 0.53516-0.46875 1.1133-0.88281 1.7266-1.2383 0.61719-0.35547 1.2617-0.64844 1.9336-0.87891 0.67578-0.23047 1.3633-0.39062 2.0703-0.48438 0.70312-0.09375 1.4102-0.12109 2.1211-0.074219z" fill="#df6d66" fill-rule="evenodd"/>
 <path d="m500.77 431.3s5.9297-4.9492 7.5625-0.85938c1.6289 4.0938-2.9648 60.957 15.652 85.328 18.621 24.371 45.602 48.801 105.7 30.211 60.098-18.59 56.898-113.52 56.898-113.52s0.85938-13.043 6.9648 0.59375c6.1094 13.637 2.6094 90.578-41.508 116.99-44.117 26.418-110.62 15.391-132.11-19.746-21.496-35.133-21.199-68.812-19.156-98.996z" fill="#8f7b62" fill-rule="evenodd"/>
 <path d="m543.38 578.03-7.4414-10.199s53.371 26.684 118.6 0.53516l-6.8516 11.711 14.113 2.9648c-2.4805 1.2891-4.9961 2.5039-7.5508 3.6484-2.5508 1.1406-5.1367 2.2031-7.7539 3.1914-2.6172 0.98828-5.2578 1.8945-7.9297 2.7266-2.668 0.83203-5.3633 1.582-8.0781 2.2539-2.7148 0.67188-5.4453 1.2617-8.1953 1.7695-2.75 0.50781-5.5117 0.93359-8.2891 1.2812-2.7734 0.34375-5.5547 0.60547-8.3477 0.78516-2.7891 0.17969-5.582 0.27734-8.3789 0.29297-2.7969 0.011719-5.5938-0.054687-8.3828-0.20703-2.793-0.15234-5.5781-0.38672-8.3594-0.70312-2.7773-0.31641-5.543-0.71484-8.2969-1.1953-2.7578-0.48437-5.4961-1.0469-8.2148-1.6875-2.7227-0.64453-5.4219-1.3672-8.1016-2.1719-2.6758-0.80469-5.3281-1.6875-7.957-2.6484-2.625-0.96094-5.2188-2-7.7852-3.1133-2.5625-1.1172-5.0938-2.3047-7.5859-3.5703l10.672-5.6641z" fill="#8f7b62" fill-rule="evenodd"/>
 <path d="m548.15 597.18s52.391 20.102 102.5-3.2891c0 0-41.508 34.629-102.58 3.2891z" fill="#8f7b62" fill-rule="evenodd"/>
 <path d="m239.62 609.25s2.1641-12.336 14.141-5.4258c11.98 6.9062 66.801 51.172 69.707 59.887 2.9023 8.7188-43.082-40.172-83.848-54.461z" fill="#8f7b62" fill-rule="evenodd"/>
 <path d="m322.85 715.12s0.91797 6.7266-2.9648 3.4688c-3.8828-3.2617-53.902-82.008-65.492-82.691-11.594-0.68359-6.9688 29.977 6.2539 48.328 13.223 18.352 26.031 39.938 26.031 39.938l-2.7852-23.008s12.539 23.895 20.16 28.609c7.6211 4.7148 6.8789 27.098 7.2656 30.836 0.38281 3.7344-8.7461-4.0938-13.195-9.4883-4.4453-5.3984-54.258-55.621-60.957-86.691-6.7031-31.074-0.85937-42.695 11.621-41.242 12.484 1.4531 55.176 65.641 74.121 91.91z" fill="#a5573e" fill-rule="evenodd"/>
 <path d="m872.6 664.72s52.242-49.723 82.363-56.988c0 0 0.41797-4.1211-6.5508-4.3555-6.9688-0.23828-57.164 23.984-75.812 61.344z" fill="#8f7b62" fill-rule="evenodd"/>
 <path d="m862.66 716.04s4.4766 1.8359 5.5742-0.38672c1.0977-2.2227 27.129-24.34 42.754-49.809s27.871-36.793 31.398-22.473-30.836 80.051-39.582 81.949l4.0938-25.648s-13.105 29.648-22.711 33c0 0-8.8945 24.52-5.4258 27.039 3.4688 2.5195 16.367-4.832 20.219-19.629 0 0 21.883-8.3594 42.516-53.957 20.637-45.602 20.043-62.266 6.9688-64.457-13.074-2.1953-32.82 21.762-36.023 31.336-3.2031 9.5781-27.277 40.383-49.781 63.035z" fill="#a5573e" fill-rule="evenodd"/>
 <path d="m254.8 717.64s-35.848-13.164-46.312 9.5156c-10.465 22.68-5.9297 32.613 9.1016 40.41 15.031 7.8008 29.945 29.473 3.6172 43.082-26.328 13.605-19.508 49.008-3.1719 64.453 16.336 15.449 4.9805 16.781 2.2539 14.973 0 0-30.926-20.547-27.664-41.238 3.2617-20.695 9.2812-31.605 22.059-42.992 12.781-11.387 11.859-17.789 7.6797-21.82-4.1797-4.0312-26.504-6.9688-27.426-33-0.91797-26.031 12.781-48.801 50.406-42.043l8.8945 2.0469s6.5195 6.4922 0.44531 6.6133z" fill="#665848" fill-rule="evenodd"/>
 <path d="m243.18 966.07c2.5195 4 3.9727 24.34 11.859 25.406 7.8867 1.0703 13.785 2.1953 12.332-7.9727-1.4531-10.172-4.3594-23.246-14.172-29.414-9.8125-6.168-27.574-1.4531-35.578-11.621s-6.5234-23.215 2.1953-27.93c8.7148-4.7148 29.23-20.367 21.789-32.613-7.4414-12.246-16.484-16.277-10.672-23.48 5.8086-7.207 5.0977-5.9297 19.508-5.9297 14.41 0 22.594-3.293 20.961-12.809-1.6289-9.5195-0.47266-27.871 10.23-30.211 10.703-2.3438 35.074 3.2617 43.91-2.9648s9.2812-8.5703 9.2812-8.5703c-0.12109-0.26953-0.27344-0.52344-0.45312-0.75781-0.18359-0.23438-0.38672-0.44141-0.62109-0.62891-0.23047-0.18359-0.48047-0.33984-0.74609-0.46484-0.26953-0.125-0.55078-0.21484-0.83984-0.27344-0.28906-0.058594-0.58203-0.082032-0.87891-0.070313-0.29687 0.011719-0.58594 0.058594-0.87109 0.14062-0.28516 0.082031-0.55469 0.19922-0.8125 0.34375-0.25781 0.14844-0.49219 0.32031-0.70703 0.52344-3.707 2.7891-9.5195 8.8945-31.133 3.7383-21.613-5.1602-25.082-6.7617-32.051 6.9648-6.9688 13.73-2.9648 28.109-10.465 33.238-7.5039 5.1289-26.477 0.44531-31.371 9.9609-4.8906 9.5195-5.9297 10.465 2.9648 22.09 8.8945 11.621 5.9297 19.062 1.6328 25.32-4.3008 6.2539-34.629 9.5156-22.77 44.473 0 0-38.871 9.1016-32.613 30.094 6.2539 20.988 21.465 40.734 42.516 59.621 21.051 18.887 69.348 85.684 69.348 85.684s18.855-83.016 33.77-99.469c0 0 0.17969-6.4062-6.0781-3.1445-6.2539 3.2617-33.918 78.066-33.918 78.066s-76.285-86.07-82.336-96.625c-6.0469-10.555-16.957-21.379-7.8867-33 9.0742-11.621 24.875-12.539 28.82-10.91 3.9414 1.6289 25.855 13.105 25.855 13.105z" fill="#665848" fill-rule="evenodd"/>
 <path d="m938.48 709.67s-5.9297 3.5 0 4.3594c5.9297 0.85938 20.605-6.375 35.727 4.6523 15.121 11.031 12.484 39.195 6.375 42.695-6.1055 3.5-28.164 11.621-28.164 24.105 0 12.48-3.2031 13.934 13.371 20.605 16.574 6.6719 29.648 23.242 30.18 37.477 0.53516 14.23-25.555 39.52-25.555 39.52s0.29688 6.375 8.1523 3.4688 22.918-24.105 24.668-44.145c1.75-20.043-31.934-38.543-38.898-47.055-6.9688-8.5078-1.1875-12.777 6.375-16.84 7.5586-4.0625 29.055-8.7148 22.945-43.582-6.1055-34.867-55.176-25.262-55.176-25.262z" fill="#665848" fill-rule="evenodd"/>
 <path d="m857.27 793.93s-3.6172 5.9297 0.74219 9.8125c4.3555 3.8828 23.215 8.7188 38.84 5.457s21.496-1.8672 24.965 11.859c3.4688 13.727 0.71094 25.32 10.938 29.023 10.23 3.707 18.117-3.2617 26.477 4.6562 8.3633 7.918 5.1289 13.699 2.1055 17.434-3.0234 3.7344-20.309 25.41-1.4219 33.77 18.887 8.3594 20.34 15.238 18.176 25.41-2.1641 10.168-6.5547 13.785-13.816 13.785-7.2656 0-44.059 25.824-36.5 41.508 7.5625 15.684 26.152-8.125 29.648-18.293 3.5-10.168 18.887-22.09 26.684-19.184 7.8008 2.9062 20.934 13.371 23.723 22.09 2.7852 8.7148-19.836 38.543-37.98 55.855-18.148 17.316-57.016 63.539-57.016 69.707 0 0-5.1602-68.191-32.613-84.559-27.457-16.367-47.203-50.105-51.203-49.75-4.0039 0.35547-5.1016 7.9766 1.4492 11.621 6.5547 3.6484 20.34 24.668 21.051 31.219 0.71484 6.5547-150.68 123.81-150.68 123.81s1.0977 8.7188 6.5234 7.6211 152.87-118.59 160.11-119.1 11.859 6.9062 16.691 20.754c4.832 13.844 21.465 80.199 21.465 80.199s95.145-114.38 110.74-134.34c15.598-19.953-23.719-42.84-33.414-39.934 0.41016-1.957 0.70312-3.9297 0.875-5.918s0.22266-3.9805 0.15625-5.9766c-0.066407-1.9961-0.25391-3.9844-0.5625-5.957-0.30469-1.9727-0.73047-3.9219-1.2695-5.8438-0.54297-1.9219-1.1992-3.8047-1.9648-5.6484-0.76953-1.8438-1.6445-3.6328-2.6289-5.3711-0.98438-1.7383-2.0703-3.4102-3.2539-5.0195-1.1836-1.6055-2.4609-3.1367-3.832-4.5898-18.887-19.449 5.9297-29.027 6.4023-35.727 0.47656-6.7031-7.6758-19.305-29.945-22.355-22.266-3.0547-8.6836-35.578-26.414-42.992-17.73-7.4102-34.57 9.3086-45.898 4.0625-5.9727-2.6641-11.754-5.6992-17.344-9.1016z" fill="#665848" fill-rule="evenodd"/>
 <path d="m259.02 872.73s8.7148 12.363 3.2617 18.887c-5.457 6.5234-10.527 5.0703-10.527 5.0703s1.0977-27.574-11.859-34.125c0.68359-0.63281 1.4414-1.1523 2.2734-1.5664 0.83203-0.41016 1.7031-0.69531 2.6211-0.85938 0.91406-0.16016 1.832-0.1875 2.7539-0.082031 0.92578 0.10547 1.8125 0.33594 2.668 0.69922 5.3672 2.7852 22.562 2.9648 26.688-12.098 4.1211-15.062 5.0977-28.789 7.2031-26.238 2.1055 2.5508 2.3125 21.852 2.5508 23.926 0.23437 2.0742 1.1562-1.6289 1.8672 2.1055s-12.781 20.754-29.441 24.281z" fill="#2f302a" fill-rule="evenodd"/>
 <path d="m279.38 885.87-0.47266 21.375s-17.199-7.2031-23.215-3.5c-6.0195 3.707-9.3125 19.746-0.23828 16.961 9.0703-2.7891 18.352-3.2617 34.836-23.926 9.8242-12.301 18.719-25.238 26.684-38.812l-10.227-1.3906-27.426 29.293z" fill="#2f302a" fill-rule="evenodd"/>
 <path d="m265.68 954.42c0-1.8672 4.625-18.828 11.859-22.562 7.2344-3.7383 13.492-3.2344 17.434-12.543 3.9453-9.3086 26.688-45.539 26.688-45.539s-62.266 53.367-60.902 69.258c1.3672 15.891 7.6797 34.629 15.332 39.492 0.35938 0.26172 0.73828 0.49219 1.1367 0.6875 0.40234 0.19531 0.81641 0.35547 1.2422 0.47656 0.42969 0.12109 0.86328 0.20703 1.3086 0.25391 0.44141 0.042969 0.88672 0.050782 1.3281 0.019532 0.44531-0.03125 0.88281-0.10156 1.3164-0.21094 0.42969-0.10938 0.84766-0.25781 1.2539-0.4375 0.40625-0.18359 0.79297-0.40234 1.1602-0.65234 0.36719-0.25 0.71094-0.53125 1.0312-0.84375 0.31641-0.30859 0.60547-0.64844 0.86328-1.0078 0.26172-0.36328 0.48438-0.74609 0.67969-1.1484 0.19141-0.39844 0.34375-0.81641 0.46484-1.2461 0.11719-0.42969 0.19922-0.86328 0.24219-1.3086 0.039062-0.44141 0.042968-0.88672 0.007812-1.3281-0.035156-0.44531-0.10938-0.88281-0.22266-1.3125-0.11328-0.42969-0.26172-0.84766-0.44922-1.2539-0.1875-0.40234-0.40625-0.78906-0.66016-1.1523-4.1836-6.9688-21.141-17.789-21.141-17.789z" fill="#2f302a" fill-rule="evenodd"/>
 <path d="m280.54 951.63c0.23828-1.8672 9.0742-9.5469 10.703-6.9648 1.6328 2.5781 11.621 7.6484 13.461 1.3906 0.18359-0.74609 0.26562-1.5039 0.24219-2.2734-0.019531-0.76562-0.14453-1.5195-0.37109-2.2539-0.22656-0.73438-0.55078-1.4258-0.96484-2.0742s-0.90625-1.2266-1.4805-1.7422c-0.57031-0.51172-1.2031-0.9375-1.8906-1.2812-0.69141-0.33984-1.4141-0.58594-2.168-0.73047-0.75391-0.14453-1.5156-0.1875-2.2812-0.125-0.76562 0.0625-1.5117 0.22656-2.2344 0.48828-6.7305 2.0781-23.008 14.824-13.016 15.566z" fill="#2f302a" fill-rule="evenodd"/>
 <path d="m291.21 928.89s8.1523 5.543 16.277 2.5195c8.1211-3.0234 30.684-36.023 30.684-36.023l-9.2773 1.8672s-30.066 17.344-37.684 31.637z" fill="#2f302a" fill-rule="evenodd"/>
 <path d="m342.89 931.08 0.91797 5.5742s-22.531 35.578-21.137 34.867c1.3906-0.71094 27.898-23.926 27.898-23.926l7.6484 4.8633s-33.68 40.676-39.965 40.914-14.617-3.9414-12.305-16.039c2.3125-12.098 26.031-36.707 36.941-46.254z" fill="#2f302a" fill-rule="evenodd"/>
 <path d="m320 1010.7c2.9648-2.6094 49.66-48.77 49.66-48.77v4.3281s-27.309 34.004-26.418 40.113 14.23 12.48 14.23 12.48l3.7656-8.418 6.9688 17.996 105.49 91.91-25.855-4.0625s-65.672-65.938-127.84-105.55z" fill="#665848" fill-rule="evenodd"/>
 <path d="m271.68 1036.4c0-4.9492-5.2188-19.746-7.5625-24.695-2.3398-4.9531-30.477-2.3125-22.652 12.48 7.8281 14.793 22.949 33.117 36.32 27.898 0 0 0.29688-11.324-6.1055-15.684z" fill="#2f302a" fill-rule="evenodd"/>
 <path d="m230.73 1009.4s12.184-2.3438 8.1211-10.172c-3.8828-8.707-7.2734-17.602-10.168-26.684 0 0-18.293 30.211 2.0469 36.914z" fill="#2f302a" fill-rule="evenodd"/>
 <path d="m251.36 767.9c-0.44141 4.418 1.6328 9.5156 5.9297 9.0703 4.3008-0.44141 5.9297-15.594 6.9688-24.43 1.0391-8.8359-4.8633-10.199-7.6484-6.7305-2.7891 3.4688-5.9297 7.207-5.3672 22.09z" fill="#2f302a" fill-rule="evenodd"/>
 <path d="m242.77 739.08s4.2109 7.6797 7.207 4.8633c2.9922-2.8164 8.8945-14.617 6.7578-18.59-2.1328-3.9727-7.2031-5.5742-8.3906-0.20703-1.4023 4.8281-3.2578 9.4727-5.5742 13.934z" fill="#2f302a" fill-rule="evenodd"/>
 <path d="m277.63 778.12s4.1797-9.3086 7.207-4.418c3.0234 4.8945 16.75 19.984 41.832 3.9453 0 0-13.016 36.734-49.039 0.47266z" fill="#2f302a" fill-rule="evenodd"/>
 <path d="m295.72 760.99c1.3008 0.85156 2.6719 1.5625 4.1172 2.1289 1.4453 0.56641 2.9336 0.97656 4.4648 1.2305s3.0742 0.35156 4.625 0.28516c1.5508-0.066406 3.0781-0.29297 4.582-0.67969 0 0-11.859 16.16-17.789-2.9648z" fill="#2f302a" fill-rule="evenodd"/>
 <path d="m936.46 764.55s5.9297 2.668 5.9297 8.0352c0 5.3672-11.324 6.375-15.328-0.59375-4.0039-6.9648 2.668-28.73 2.668-28.73s9.668 3.8867 9.8125 7.1484c0.14844 3.2617-8.1523 7.7383-2.9648 14.141z" fill="#2f302a" fill-rule="evenodd"/>
 <path d="m928.7 725.68s4.2656-8.5703 10.02 0.5625c5.75 9.1328 10.406 22.859 6.3164 22.297-4.0938-0.56641-10.023-16.723-16.336-22.859z" fill="#2f302a" fill-rule="evenodd"/>
 <path d="m896.52 760.28c0.17969 1.2773-12.66 22.297-21.199 8.7188 0 0 13.938-2.9648 21.199-8.7188z" fill="#2f302a" fill-rule="evenodd"/>
 <path d="m864.54 778.48c1.3008 0.56641 26.684 13.195 37.18-6.3125 10.492-19.508 17.789 4.832 11.711 9.1016s-30.125 25.676-48.891-2.7891z" fill="#2f302a" fill-rule="evenodd"/>
 <path d="m899.96 846.5c0.64844 0.26562 1.2617 0.60156 1.8359 1.0078 3.5898 2.2227 10.91 7.293 15.598 7.9766 5.9297 0.88672 8.8945 4.0625 15.98 5.9297 7.0859 1.8672 17.789-4.3594 20.34 0.88672 2.5469 5.25-13.047 38.336-17.434 35.582-4.3906-2.7578-7.2656-2.3164-8.125-9.875-0.28125-5.9258 0.39844-11.734 2.0469-17.434 0 0-23.246 4.9219-30.242-24.105z" fill="#2f302a" fill-rule="evenodd"/>
 <path d="m854.66 836.89c10.168 8.1523 26.148 20.754 36.32 29.648 6.6016 5.7383 13.52 11.066 20.754 15.98l0.5625 24.402-57.52-70.031z" fill="#2f302a" fill-rule="evenodd"/>
 <path d="m916.54 908.67s20.039-7.2617 22.086-1.4531c2.0469 5.8125 2.6094 15.094 0.29688 14.824-2.3125-0.26562-22.383-13.34-22.383-13.34z" fill="#2f302a" fill-rule="evenodd"/>
 <path d="m865.27 873.54s36.469 33.652 44.266 40.531c7.8008 6.8789 35.578 37.059 20.992 49.543 0 0 1.1289-20.398-22.473-29.5-12.137-21.691-26.398-41.883-42.785-60.574z" fill="#2f302a" fill-rule="evenodd"/>
 <path d="m857.66 895.8c0.26953 5.4023 1.6914 10.484 4.2695 15.242 3.5547 5.2148 29.023 31.988 33.473 36.082 4.4453 4.0898 26.684 8.8945 26.684 8.8945-5.4883-8.1484-11.801-15.59-18.945-22.328-9.6953-8.3594-45.395-37.918-45.395-37.918z" fill="#2f302a" fill-rule="evenodd"/>
 <path d="m876.54 976.45s-2.2266-24.371-18-38.215c4.9805 1.9492 9.6445 4.4766 13.996 7.5898 2.0312 1.7578 3.8516 3.7188 5.457 5.875 1.6094 2.1562 2.9609 4.4609 4.0664 6.9141 1.1016 2.4531 1.9297 4.9961 2.4766 7.6289 0.55078 2.6328 0.80859 5.293 0.77734 7.9844-0.59375 12.809-1.6289 20.754-8.6289 19.211-6.9961-1.5391-30.656-43.02-41.508-48.801 0 0 3.4102-3.8828 6.8516-1.3633 3.4375 2.5195 22.266 13.785 34.512 33.176z" fill="#2f302a" fill-rule="evenodd"/>
 <path d="m911.55 1005.7s-4.4766 8.332-10.73 0.44531c-6.2578-7.8867 18.32-31.102 18.32-31.102-0.26562 2.2812-0.26562 4.5664 0 6.8477 0.44531 3.707-8.8945 15.773-7.5898 23.719z" fill="#2f302a" fill-rule="evenodd"/>
 <path d="m914.52 1044.2s11-14.145 14.41-24.551c3.4102-10.406 18.621-15.328 21.438-13.25 2.8164 2.0742 3.707 19.805-8.0352 31.988-11.742 12.188-28.254 15.773-27.812 5.9297z" fill="#2f302a" fill-rule="evenodd"/>
 <path d="m959.59 1006.3c1.0703 0.44531 11.859 5.4844 16.398-2.2539 4.5352-7.7383-4.9219-27.215-4.9219-27.215s-9.2227 7.5898-9.668 9.9609c-0.44141 2.3711-1.8086 19.508-1.8086 19.508z" fill="#2f302a" fill-rule="evenodd"/>
</svg>
