<?xml version="1.0" encoding="UTF-8"?>
<svg width="1587" height="1587" version="1.0" viewBox="0 0 1190.2 1190.2" xmlns="http://www.w3.org/2000/svg" zoomAndPan="magnify">
 <defs>
  <clipPath id="a">
   <path d="m0 0h1189.5v1189.5h-1189.5z"/>
  </clipPath>
  <clipPath id="c">
   <path d="m166 119.23h873v386.77h-873z"/>
  </clipPath>
  <clipPath id="b">
   <path d="m1144 690h45.5v41h-45.5z"/>
  </clipPath>
 </defs>
 <g clip-path="url(#a)" fill="none">
  <path d="m0 0h1189.5v1189.5h-1189.5z"/>
  <path d="m0 0h1189.5v1189.5h-1189.5z"/>
 </g>
 <g clip-path="url(#c)">
  <path d="m183.55 473.67c16.453-0.35547 21.898 4.5547 23.828 21.168 0.13281 1.168 0.25781 2.3477 0.52344 3.4883 1.4062 6.1016 3.9023 9.2969 10.16 4.2461 4.3281-3.5 9.1133-4.9062 14.801-2.7422 10.551 4.0195 12.137 2.8555 11.977-8.5547-0.14063-9.8984 3.7812-17.094 13.219-20.656 3.3594-1.2656 5.1094-3.6719 6.707-6.5703 10.383-18.848 20.301-23.504 41.879-19.395 4.4688 0.85156 7.1367 0.32031 6.2852-4.9492-0.82812-5.1172 2.0273-7.5977 6.2188-9.2852 4.707-1.8945 9.2422-3.9375 13.703 0.89453 5.5156 5.9805 9.2773 2.6367 12.055-2.9531 1.6523-3.332 1.6172-7.793 5.9766-9.207 5.3438-1.7383 4.6094-4.9375 1.6211-7.8242-4.2383-4.1016-2.0508-6.3203 2-7.3047 9.7188-2.3672 17.48-10.914 29.902-7-7.0859-9.9961-5.2539-10.195-6.293-19.777-1.9844-18.281 7.4258-27.398 22.172-34.086 5.1055-2.3125 8.9062-7.3906 15.547-7.8438-0.28906 1.4766-0.39062 2.3242-0.62109 3.1211-1.5391 5.2969-9.9531 9.9062-0.60938 16.301 2.6094 1.7812 0.003906 6.6211-2.9922 9.0352-2.9727 2.3984-6.0625 4.6523-9.0742 7.0039-5.3789 4.1992-7.4961 9.6758-6.1445 16.375 2.1094 10.484 3.543 20.898-1.3594 31.105-0.72656 1.5117-1.2422 3.7227 1.0156 4.4805 2.0352 0.6875 3.2227-1.1328 3.9961-2.6836 2.2305-4.4648 4.0625-9.1484 6.4766-13.508 4.0312-7.2812 9.707-11.965 18.688-9.375 3.8164 1.1016 5.9336-0.47656 8.2422-3.2148 10.801-12.809 18.855-14.445 33.812-6.2656 4.7031 2.5703 8.5156 3.1289 13.047 0.15234 1.875-1.2383 4.3203-1.8359 6.5938-2.1953 10.312-1.6445 16.953-7.7227 15.902-18.23-1.3047-13.113 4.9258-21.164 14.285-28.082 31.188-23.055 62.492-45.953 93.652-69.043 4.5859-3.3945 8.7148-2.5586 13.082-0.13281 5.3125 2.9492 8.4961 7.3242 8.168 13.562-0.32812 6.2891-2.2812 12.059-6.25 17.117-3.1172 3.9766-5.4961 8.2734-5.4531 13.645 0.035156 4.4766 1.3125 7.3008 6.3672 7.6016 3.7461 0.22656 9.3203-0.14063 10.379 3.1445 1.3867 4.3086-4.2812 6.2812-7.1641 8.9141-3.4531 3.1641-7.3906 5.8164-11.227 8.5352-11.992 8.4961-24.133 16.781-35.996 25.449-3.9492 2.8867-8.9727 5.2656-10.043 11.332 5.0547 0.69531 7.8086-2.3711 10.859-4.375 19.184-12.582 37.98-25.695 55.781-40.219 8.0117-6.5352 10.883-5.6133 14.574 4 1.0273 2.6875 1.4883 5.6758 1.7109 8.5625 0.91016 11.754-0.80859 22.844-8.2734 32.555-2.457 3.1914-3.2969 7.1172-0.95703 10.73 1.9531 3.0234 5.2422 2.2617 8.0469 1.3555 4.0977-1.3281 6.9453 0.40625 9.1523 3.4453 2.5547 3.5195 4.7969 7.2656 7.8711 11.988 2.4648-5.2656 6.1836-9.0586 11.352-9.1172 8.457-0.089844 13.406-3.3984 16.543-11.473 2.4336-6.2695 8.7031-6.7305 11.23-1.0195 3.2734 7.3867 8.5898 11.207 16.004 12.758-1.1406 3.2656-6.2344 4.3789-3.9727 7.7031 2.4492 3.6094 5.8047 0.30078 8.5469-0.75391 2.9961-1.1484 5.7891-2.8477 8.6328-4.375 34.398-18.473 68.465-37.543 102.4-57.844 0.34375 2.5508 0.089844 5.7227 0.91406 6.0352 7.9492 2.9961 7.5273 10.883 10.793 16.688 2.7422 4.8828 0.95703 6.25-2.4961 8.6953-7.4297 5.2578-14.68 10.781-21.781 16.477-2.7109 2.1758-6.2969 4.0781-6.6406 8.5938 10.727-1.4297 151-97.715 154.05-106.87-15.555 9.3555-29.852 17.957-46.004 27.672 2.832-12.074 0.99609-21.152-4.5898-29.781-2.8555-4.4141-1.6172-9.4844 3.1719-12.273 5.6523-3.2891 7.5898-8.707 9.5352-14.227 0.77734-2.207 1.3125-4.2578 3.1289-6.0938 11.172-11.277 22.332-22.582 33.156-34.191 20.43-21.918 41.332-43.359 63.18-63.891-0.45703-0.60156-0.91406-1.2031-1.3672-1.8047-15.105 10.516-30.215 21.02-45.312 31.543-25.039 17.453-50.043 34.965-75.129 52.355-8.4141 5.832-19.07 4.9453-28.18 9.5859-42.434 21.625-85.203 42.602-127.93 63.652-16.258 8.0117-16.266 7.8008-21.23-9.7539-0.89453-3.1484-0.33984-5.3281 1.2852-8.1328 3.1484-5.4492 6.9922-10.262 11.668-14.277 10.637-9.125 15.824-20.246 13.523-34.316-1.0664-6.5234 1.5508-10.844 6.3984-15.195 36.977-33.219 75.156-65.117 110.39-100.26 3.4023-3.3984 7.168-6.5273 8.8047-11.793-35.328 20.66-73.633 34.762-109.67 54.117 2.0703-9.6016 12.266-15.383 8.5-26.32-3.2305-9.3945-7.7852-18-17.016-22.098-15.004-6.6602-27.695 0.6875-36.203 20.762-5.1641-8.2695-13.062-8.1602-21.047-8.0156-2.7109 0.046875-5.4805-0.74219-6.4609-3.6875-3.6367-10.941-12.395-10.02-21.078-9.2188-2.6758 0.25-5.2461 1.9727-8.043 1.1094 0.20312-3.4922 3.1836-5.6055 2.1992-9.0078-2.3477-0.25-3.8203 1.3828-5.3867 2.5078-36.797 26.391-72.957 53.688-110.67 78.793-3.4531 2.3008-6.5859 5.2891-11.164 3.3711-4.7812-1.9961-9.2266-0.28125-13.762 0.90234-2.8242 0.73828-6.1953 4.4688-8.375 0.17578-1.7422-3.4219 1.8984-5.8945 4.1992-7.9688 15.309-13.762 30.727-27.406 46.145-41.047 3.0703-2.7188 6.2852-5.2695 9.4375-7.8984-2.918-0.39062-4.7695 0.46094-6.5 1.5039-12.086 7.293-24.07 14.77-37.266 19.996-2.1328 0.84375-4.5703 2.6836-6.5312 0.55469-2.6289-2.8477 0.75781-4.7188 2.0273-6.6914 2.5156-3.8945 6.6562-6.8008 8.0664-13.262-15.156 10.504-26.258 23.188-38.723 34.285-23.93 21.305-48.523 41.961-69.074 66.758-2.7188 3.2773-5.4414 2.5469-8.6406 1.5273-16.891-5.3828-35.289 2.9297-41.969 19.164-1.1719 2.8438-2.0273 6.2031-5.2148 6.4414-12.602 0.9375-18.047 10.395-23.082 19.598-9.4141 17.199-26.344 24.801-42.602 35.969 1.5508-4.6211 2.6797-7.5859 3.5273-10.625 0.75391-2.7031 2.7109-5.9531-0.57422-7.9688-2.6836-1.6406-5.043 0.76562-6.957 2.4688-10.164 9.0273-20.137 18.48-25.328 31.254-2.9844 7.3398-7.6992 12.023-13.988 16.195-37.59 24.93-71.273 54.855-106.08 83.332-5.3711 4.3906-9.9648 9.2578-6.707 17.336 3.1172 7.7734 9.4336 7.6758 16.121 7.5312z"/>
 </g>
 <path d="m1145.8 699.24c5.9062-6.1562 11.758-12.363 17.395-18.762 2.5234-2.8594 4.8906-6.2461 3.1406-10.379-1.8516-4.3789-6.3086-1.332-9.8516-2.8359 2.7422-7.5195 8.1992-12.805 13.078-18.551 3.2031-3.7734 10.82-8.5 7-12.25-4.8594-4.7695-9.2305 3.2227-13.121 6.4922-10.664 8.957-20.91 18.418-34.309 25.25 1.0117-9.5195 1.8672-17.969 2.8125-26.41 2.9531-26.434-1.8828-53.438 6.9844-79.52 4.4844-13.195-1.1445-26.734-2.1055-40.121-0.16016-2.2695-1.6328-3.6328-3.9453-4.1211-1.6641-0.35156-3.3398-0.058594-3.4648 1.6133-0.55859 7.5469-5.9531 13.941-5.7812 24.387 3.832-7.4531 6.4648-12.578 9.1875-17.871 7.7969 11.445 3.0312 21.332-2.5 31.359 1.3711-1.125 2.7422-2.2539 4.1133-3.3789-1.2852 3.1016-1.9531 8.6016-5.8867 6.6055-4.4766-2.2695-1.3555-6.7734 0.65625-9.9297 1.3984-2.1875 3.4102-3.9922 5.2031-5.9141 1.4023-1.5039 1.75-3.168 0.27344-4.6367-1.6836-1.6797-3.4023-0.63281-4.4258 0.85938-2.3945 3.5-4.5391 7.1758-6.793 10.785-2.1172-1.2031-1.3008-3.1328-1.5391-4.7734-1.2188-8.5469-9.543-18.773-16.621-19.77-9.4336-1.3242-13.512 5.5781-17.43 12.277-6.1133 10.445-10.945 21.539-13.953 33.223-9.4219 36.625-12.348 74.133-14.441 111.73-0.27734 4.9883 0.29688 8.6523-3.3398 12.492-3.6758 3.8789-8.0312 7.0625-12.602 9.8359-9.293 5.6406-19.531 9.4766-29.672 13.27-9.5 3.5547-19.055 7.168-27.844 12.285-4.3086 2.5078-8.1914 5.4375-12.008 8.6211-3.2734 2.7344-7.5352 4.3672-11.102 6.8516-6.332 4.4062-12.645 8.8438-18.938 13.316-12.582 8.9336-25.074 17.988-37.465 27.184-29.973 22.238-59.227 45.496-88.34 68.762-1.5391 1.2266-3.0938 2.4648-4.8672 3.3086-1.4219 0.67188-3.0781 1.168-4.6367 0.88281 0.12109-2.2852 4.7266-5.4609 6.4023-7.0742 2.5469-2.4531 5.125-4.8711 7.7227-7.2656 5.1953-4.7773 10.496-9.4453 15.871-14.023 10.609-9.0391 21.52-17.727 32.547-26.258 13.969-10.812 28.129-21.371 42.152-32.109 14.711-11.266 29.598-21.871 41.539-36.199-4.0977 4.2188-29.332 23.203-30.691 19.773-0.42188-1.0664-0.21484-2.2617-0.007813-3.3906 1.4766-7.8828 2.8555-15.789 4.4297-23.652 1.3555-6.7891 3.4023-13.473 4.5703-20.41 2.5312-15.016 4.2656-30.168 7.4453-45.066 0.71875-3.3438-0.13281-6.7812-2.6094-8.9609-2.7969-2.4609-5.7812-0.074219-7.9258 1.6133-15.039 11.863-31.836 21.148-47.246 32.445-13.23 9.6953-26.668 19.113-40.113 30.902-0.34375-3.6797 0.097656-9.0742 3.0352-11.746 3.0547-2.7695 7.1914-5.1016 10.496-7.7305 8.6836-7.1484 18.68-13.422 26.312-21.664-1.6016-1.7734-2.8164-1.5156-3.7109-0.72656-18.152 15.988-39.543 27.363-59.078 41.383-13.934 9.9961-14.094 9.7578-23.828-3.8555-1.0234-1.4336-2.168-2.7891-3.3008-4.1367-14.871-17.633-32.43-19.109-49.922-4.043-12.055 10.387-20.309 23.641-26.734 37.918-3.2188 7.1523-8.0234 11.617-14.746 15.324-30.105 16.609-59.984 33.621-89.922 50.527-4.1523 2.3438-8.5469 4.5977-9.4141 11.48 35.156-22.895 70.328-42.969 107.24-61.859-2.3438 8.3672-2.3789 8.3281-6.3711 12.227-14.992 14.66-31.957 27.051-49.559 38.02-34.711 21.629-71.984 38.332-109.64 54.398-32.027 13.668-64.965 19.848-99.43 20.445-47.66 0.82812-95.312 2.8086-142.97 2.832-49.375 0.027344-98.633-1.8359-147.4-11.762-46.059-9.3789-85.965-30.73-123.26-58.066-8.3047-6.0859-8.3828-9.1289-1.9961-17.203 8.5469-10.801 17.156-21.551 25.742-32.324-15.531 8.9844-25.301 23.086-33.5 38.473-2.1016 3.9492-0.18359 7.0352 3.3203 9.7734 30.59 23.871 63.5 43.621 100.8 54.953 51.719 15.707 105.14 18.926 158.75 19.602 46.191 0.57812 92.375-0.66406 138.55-1.7969 43.676-1.0703 86.742-4.4297 127.51-22.812 43.41-19.578 87.539-37.539 125.03-67.969 0-1.1445 6.2812-4.7617 7.3086-5.4922 2.6602-1.8984 5.3516-3.75 8-5.668 5.2383-3.7891 9.6992-7.8125 14.07-12.473-3.3867 13.445-6.5977 27-9.2266 40.633-7.1172 36.84-9.9375 74.602-6.1562 112 0.51562 5.0859-1.3516 7.6797-6.3477 8.5234-13.82 2.3359-27.504 2.9531-40.547-3.3516-6.3945-3.0898-12.879-5.7812-19.922-6.8477-21.617-3.2656-40.645 8.4023-44.152 27.016-2.5156 13.336 8.9961 23.949 21.855 18.984 10.379-4 20.293-9.293 31.039-12.695-10.734 1.8906-21.137 4.7344-31.547 7.5742-9.3164 2.5391-14.383-0.22656-17.328-11.914 4.4141 8.9688 9.6484 8.3477 15.402 6.4844 4.4688-1.4453 9.082-2.4648 13.648-3.5781 15.512-3.7656 31.293-3.5312 49.16-4.5742-13.234 8-24.5 14.387-35.328 21.434-34.688 22.574-72.34 37.395-112.93 45.504-17.434 3.4844-31.953-0.082031-44.461-12.324-1.6797-1.6406-3.1094-2.1836-5.3398-2.0312-23.254 1.6289-46.488-1.5977-69.668-0.85156-31.848 1.0156-60.035-6.0195-82.355-30.141-1.1797-1.2773-2.7422-2.2148-4.1719-3.2422-13.488-9.6992-27.395-18.164-44.824-18.723-7.8242-0.25-14.77-3.7617-20.672-8.9609-8.2891-7.2969-18.164-10.168-28.906-11.613-41.703-5.5977-82.902-13.613-123.08-26.441-8.6992-2.7734-15.062-9.4062-17.281-16.469-4.8555-15.434-15.23-23.531-28.898-29.773-11.207-5.125-21.344-12.168-30.625-20.406-3.2773-2.9102-3.9922-4.8555-0.48438-8.418 3.207-3.2617 6.6172-6.8789 8.4766-13.375-3.0898 3.293-4.8594 5.2578-6.7109 7.1445-12.277 12.52-12.574 18.559 0.99609 29.34 8.6641 6.8828 13.773 16.566 21.789 23.773 2.2852 2.0547 1.6875 4.8203 1.4414 7.457-0.84766 9.1719-3.4688 17.781-7.4219 26.129-5.6797 11.992-2.7305 31.176 5.5898 39.465-5.0117-10.25-7.2227-21.699-3.5586-32.758 0.85547-2.5898 2.4219-8.6953 6.0039-8.0898 3.2344 0.54688 3.1836 4.8359 3.7539 7.2891 2.5312 10.887 6.8125 20.418 16.836 26.793 4.5547 2.8945 2.7734 7.0703-0.44922 10.398-3.0352 3.1328-7.4102 4.8828-9.4453 9.0742 0.40234-0.83203 4.4688-2.168 5.4297-2.7734 1.8516-1.1797 3.5742-2.5547 5.1484-4.082 2.7578-2.6797 5.4922-6.0469 7.2188-9.5078 3.3906-6.8047 5.7617-14.062 8.1445-21.266 2.0156-6.0898 4.2344-15.965 12.391-16 1.5859-0.003906 3.1445 0.37891 4.6836 0.76172 34.789 8.6484 69.172 18.195 104.83 23.242 31.711 4.4844 57.891 19.867 81.469 40.59 7.0625 6.2109 14.211 12.32 21.281 18.523 2.332 2.043 4.9609 3.4805 4.6289 7.7305-0.39844 5.1016 4.3789 4.5586 7.7266 4.8125 13.121 1.0039 26.254 1.8594 39.969 4.3633-9.8906 4.0664-19.781 8.1367-25.43 10.457 47.898-6.8906 99.75-8.4141 150.64 7.4258 16.902 5.2617 31.988 0.53906 47.418-3.2031 16.672-4.0469 33.082-9.1914 49.008-15.559 23.293-9.3125 44.082-22.75 65.703-35.215 17.801-10.262 33.543-23.324 50.207-36.641 0.72656 4.9961-2.3477 6.7617-4.6211 8.5547-13.641 10.758-28.133 20.379-42.875 29.547-18.07 11.242-36.367 22.805-55.746 31.684-11.578 5.3047-23.699 9.293-35.773 13.281-17.215 5.6914-34.82 10.227-52.684 13.336-11.133 1.9414-22.301 1.1484-33.441 1.1523-57.043 0.003906-114.09-0.37109-171.13-0.14844-9.2188 0.039062-14.031-3.375-18.5-11.34-13.227-23.566-28.785-45.699-44.629-67.59-7.1328-9.8594-17.117-14.574-29.02-16.504-36.84-5.9688-73.395-13.363-109.19-24.066-4.0312-1.2031-4.9805 0.16406-6.125 3.4688-4.6055 13.285-9.2031 26.59-14.301 39.688-4.4883 11.527-16.238 15.895-26.191 10.305 1.0312 2.3906 2.2227 4.7266 3.0703 7.1836 3.3047 9.5391 9.5273 13.391 19.586 12.113 4.7812-0.60547 9.0078-2.707 13.199-4.7891 4.1641-2.0625 7.1445-2.582 10.012 2.3555 2.8281 4.8633 7.8555 7.8984 12.723 10.684 26.754 15.277 55.918 24.656 85.293 32.906 19.484 5.4688 39.949 6.9727 60.117 9.1758 9.3633 1.0234 17.809 3.2695 24.07 11 4.8047 5.9336 11.621 7.5469 18.926 7.9102 39.07 1.9453 78.016 6.4141 117.16 6.7031 35.836 0.26172 71.75 3.9062 107.49-1.0664 53.152-7.3906 103.62-21.949 145.82-57.23 10.16-8.4922 19.879-17.375 34.434-16.578 1.1211 0.058594 2.3711-0.35156 3.3984-0.86328 19.922-10.031 39.836-20.078 59.691-30.238 2.0508-1.0508 3.8711-2.7031 5.5469-4.3359 16.523-16.148 36.094-28.242 54.906-41.34 4.8906-3.3984 9.9062-6.6133 14.859-9.9102-7.2812 12.707-15.938 23.754-24.496 34.879-1.5312 1.9883-4.7656 4.3125-2.7812 6.7266 2.6836 3.2695 5.4414-0.33594 7.4102-1.9102 11.211-8.9688 23.5-15.504 37.691-18.324 4.4414-0.88281 7.8555-3.5938 11.059-6.8398 22.723-23.008 44.41-47.094 69.527-67.648 3.2266-2.6367 5.7695-5.8828 7.3242-9.8008 1.0547-2.6562 0.9375-5.1992-1.2266-7.3242-2.1289-2.0898-4.5156-2.3398-7.2852-1.1836-6.0781 2.543-10.922 6.8477-16.02 10.812-4.9414 3.8438-9.9922 7.543-14.996 11.305-0.48047-0.60938-0.96484-1.2266-1.4492-1.8359 13.602-13.367 26.199-27.777 42.43-39.016-0.96875 4.1211-1.9336 8.1797 2.0742 10.5 3.9648 2.2891 7.4062-0.5625 10.555-2.5156 8.543-5.293 15.902-12.07 23.109-19.035 2.0352-1.9648 4.7891-5.9258 6.8906-4.7031 10.25 5.9805 14.969-2.6445 20.957-7.3047 11.73-9.125 23.129-18.672 35.098-28.398 0.82422 10.23 2.4805 11.387 10.77 7.3164 6.9883-3.4297 13.66-7.5 20.469-11.289-4.6836 6.6367-11.426 10.562-17.949 14.766-5.9297 3.8242-12.184 7.332-15.887 13.668-2.2109 3.7734-5.3672 8.3516-0.99609 11.918 3.8711 3.1484 8.6055 1.1016 11.941-2.2188 23.645-23.512 50.512-43.141 76.465-63.875 2.7031-2.1602 4.9258-5.0234 7.0117-7.8281 1.8164-2.4453 2.8125-5.4766 0.45703-8.1055-2.625-2.9336-5.6875-1.2148-7.8984 0.53516-5.5234 4.375-10.695 9.1836-16.055 13.766-2.7539 2.3555-5.1914 5.4023-11.082 5.457 9.1289-9.6328 17.109-18.195 25.27-26.59 4.0664-4.1953 7.375-9.7344 15.094-7.4336 2.6836 0.80078 5.4414-2.0195 7.4688-4.1328zm-1065.4 264.48c5.7461 0.074219 10.887 2.7734 16.004 5.1406 8.4766 3.9258 16.156 8.6484 24.984 11.73 9.1289 3.1914 18.254 6.4766 27.684 8.6953 11.988 2.8164 23.988 5.6094 36.074 7.9688 12.371 2.418 24.82 4.4961 37.293 6.3555 12.379 1.8438 37.062 6.9531 36.977 8.0195-61.68-8.4141-124.69-11.688-179.02-47.91zm697.51-48.629c-5.043 9.4492-11.754 17.574-21.188 23.094-10.469 6.1289-20.754 5.25-30.23-2.4375-12.688-10.297-17.559-24.793-20.617-39.871-10.562-52.105-1.6367-101.52 21.863-148.64 3.8047-7.6289 9.1953-14.328 15.559-20.145 14.121-12.902 31.375-10.789 41.863 5.5586 9.0273 14.062 13.477 29.91 16.324 46.195 2.1289 12.184 2.7695 24.512 2.5469 40.246 1.0352 32.312-9.5625 64.969-26.121 96.004zm121.91-214.62c1.0234-6.8633 3.0508-13.574 7.0391-19.324 3.9297-5.6758 10.672-7.8477 16.77-10.766-0.6875 16.227-3.7578 31.586-6.25 46.977-2.8594 17.66-6.5 35.195-9.457 52.84-0.61328 3.6484-2.4922 5.7812-5.1055 7.7461-6.2852 4.7305-12.59 9.4375-20.039 15.008 7.375-26.496 11.301-52.492 15.043-78.523 0.66797-4.6562 1.3008-9.3125 2-13.957zm-29.785 17.602c0.60547-5.8867 1.7109-10.367 6.0938-14.766 3.2422-3.2539 7.5859-6.4297 11.785-8.2734-0.054687 0.023438-0.41797 9.6719-0.59766 10.832-0.64453 4.0977-0.65625 8.3945-1.0508 12.531-1.7969 19.094-4.5234 38.094-8.1719 56.922-1.5469 7.9766-2.0703 17.477-6.6992 24.301-4.293 6.332-10.668 11.258-17.422 14.73 8.3242-26.777 11.527-54.082 14.645-81.395 0.5625-4.9531 0.90625-9.9297 1.418-14.883zm-25.238 29.012c0.45703-7.4258 0.71094-14.137 3.5078-21.113 2.4414-6.0742 9.1094-10.383 13.859-14.785-0.16406 0.15625-0.1875 1.2578-0.16797 2.4609 0.019532 1.4062 0.10156 2.9492 0.085938 3.2969-0.14062 2.7031-0.30859 5.4102-0.51172 8.1133-0.40625 5.375-0.93359 10.742-1.5352 16.102-1.2031 10.66-2.7148 21.285-4.1406 31.918-1.793 13.34-4.3359 26.578-6.5664 39.855-0.94922 5.6367-3.8164 9.5938-10.406 11.137 2.957-25.598 4.2891-51.246 5.875-76.984zm-36.203-8.7148c1.2266-5.2305 9.3008-9.3125 13.273-12.301 5.9414-4.4727 11.883-8.9453 17.82-13.418 4.1289 26.172 0.40234 51.324-1.4727 76.504-0.84766 11.402-2.6367 22.762-2.8984 34.164-0.17188 7.5586-2.8945 12.734-8.8164 16.988-5.1875 3.7266-10.016 7.9453-15.844 12.625 2-18.535 3.6797-37.152 3.6445-55.812-0.019531-9.1562-0.45703-18.316-1.4688-27.414-0.88672-7.9414-2.6758-15.902-3.9922-23.809-0.41406-2.4922-0.82422-5.0664-0.24609-7.5273zm305.73-38.93c-6.0742 13.406-18.109 13.895-26.484 1.4258-6.3867-9.5195-8.3164-20.727-9.9297-31.719-4.6992-32.047-3.3359-63.918 4.832-95.34 2.0703-7.9844 5.3711-15.586 10.66-22.059 3.2266-3.9492 6.9609-7.293 13.637-4.2812-10.504 1.5977-14.555 9.0898-17.996 16.91-8.4336 19.172-10.695 39.566-11.41 60.223-0.089843 2.6133-0.39453 4.4102 3.8086 3.8242 3.5898-0.49609 6.4414 2.5078 6.543 6.7148 0.11328 4.875-3.6602 2.6445-5.7578 2.7539-4.0078 0.20703-5.1484 2.4219-4.6992 5.8047 2.2617 17.125 2.5117 34.695 10.484 50.605 1.5586 3.1055 3.5 6.2109 5.9375 8.6406 6.0156 6.0078 12.672 5.0391 16.211-2.7227 7.9492-17.426 12.441-35.914 15.977-54.57 0.32812 18.941-4.1289 36.824-11.812 53.789z"/>
 <path d="m954.88 738.46c0.21484-0.22266 0.38672-0.41797 0.48047-0.55078-0.15625 0.19141-0.32422 0.36328-0.48047 0.55078z"/>
 <path d="m54.785 770.53c-0.16406 0.21094-0.33203 0.42188-0.49609 0.62891 0.22266-0.13281 0.44141-0.26953 0.66797-0.40234 0 0.003907-0.17188-0.22656-0.17188-0.22656z"/>
 <path d="m547.23 477.7c0.011719-0.007813 0.023437-0.015625 0.035156-0.019531l-0.21875-0.21094c0.058594 0.085938 0.125 0.14844 0.18359 0.23047z"/>
 <path d="m505.83 507.45c-15.223 11.469-30.324 23.102-45.293 34.902-7.4844 5.8984-14.941 11.84-22.359 17.824-5.0273 4.0508-13.035 14.234-20.273 10.43-2.6133-1.375-4.457-3.8672-5.8672-6.4609-0.39062-0.71484-0.75781-1.457-0.84766-2.2656-0.46875-4.0703 4.2734-8.7578 5.3984-12.719 1.6953-5.9844-1.8672-16-8.875-16.699-10.992-1.0977-22.961-0.37109-28.898 9.6289-10.934 18.418 10.492 23.359 18.711 23.559 4.8633 0.11719 8.3945 2.2227 10.73 6.4414 1.6289 2.9336 3.6875 7 2.5117 10.383-2.3672 6.7969-11.777 9.6055-17.34 13.012-8.9883 5.4922-18.293 10.734-28.574 13.344-29.281 7.4297-58.684 14.566-88.309 20.465-58.539 11.664-107.42 40.758-150.63 80.66 12.16-4.8047 21.211-14.176 31.188-22.059 21.141-16.707 43.531-31.293 69.074-40.082 43.938-15.121 89.828-22.609 136.67-34.301-7.9336 5.8281-14.102 10.711-20.613 15.07-21.211 14.199-40.824 30.715-63.859 42.273-32.133 16.125-62.609 35.008-90.684 57.586-2.5195 2.0273-4.9297 4.1875-7.3867 6.2852 36.336-27.523 75.746-49.434 116.39-69.574 0 1.5508-3.7734 5.6914-4.668 7.1641-1.5938 2.6367-3.1055 5.3242-4.8477 7.8633-3.543 5.1602-8.1953 9.3281-12.602 13.73-9.9805 9.9727-19.953 19.945-29.93 29.918-5.6094 5.6055-11.449 10.801-17.246 16.047-6.1367 5.5547-11.109 13.43-15.852 20.164-3.6094 5.125-2.625 7.2773 2.0781 10.191 13.156 8.1406 28.691 9.9453 42.898 11.383 22.105 2.2344 44.363 4.4727 66.621 5.9805 17.652 1.1953 32.848-0.54688 47.566-12.141 19.48-15.34 43.422-23.113 65.703-33.715 38.453-18.301 76.414-37.672 114.35-57.031 14.676-7.4844 29.785-14.273 43.434-23.672-24.895 11.84-49.547 24.141-74.258 36.316-13.328 6.5664-27.566 10.078-42.242 11.953-26.102 3.3359-52.191-0.16016-78.285-0.375-6.0312-0.050781-10.598 1.4844-15.129 5.3438-24.395 20.77-49.039 41.238-73.434 62.008-4.3438 3.6992-8.8477 5.3477-14.438 4.8203-18.387-1.7383-36.785-3.3438-55.172-5.0703-2.2617-0.21094-5.3281-0.09375-6.0352-2.582-0.71484-2.5078 2.2031-3.8516 3.7383-5.5352 1.3867-1.5156 2.8594-2.9766 4.4336-4.2891 49.734-41.457 101.01-80.734 158.12-111.77 9.5156-5.1719 18.844-10.688 28.258-16.043-29.484 14.098-58.668 28.648-85.164 47.898-18.234 13.246-18.281 13.18-32.203-4.7734 0.375 5.5273 4.668 8.5312 7.8086 12.32 1.7578 2.1211 4.6484 4.2773 2.0508 7.582-2.2539 2.875-5.168 3.4688-8.6602 2.2227-6.8711-2.4531-11.789-6.5898-12.73-14.234-1.4297-11.648 0.79688-22.188 9.4609-30.785 8.0781-8.0117 17.086-14.613 27.656-19.043-8.3555 7.7812-16.676 15.484-23.785 24.316-3.8945 4.8359-7.5625 10.168-2.2227 16.465-3.418-7.1523-0.03125-12.578 4.8281-17.262 16.172-15.582 35.441-26.762 54.805-37.727 2.3125-1.3086 4.6289-1.5234 4.7617-5.0703 0.42188-10.887 9.1328-14.227 17.605-18.598-3.8867 5.7891-0.90234 7.6406 3.7539 9.3633 19.176 7.1094 39.512 8.207 59.41 11.262 14.453 2.2188 29.211 2.4688 43.762 3.5859-0.55859 3.0469-3.9453 3.3281-3.8008 6.4609 6.4922-3.6094 12.879-5.9062 20.305-5.1328 17.734 1.8398 35.453 3.4258 53.375 3.2266 38.785-0.42969 77.59 1.2734 116.35-1.5742 20.219-1.4844 40.477-2.4766 60.703-3.8945 5.2812-0.36719 6.1836 1.3086 4.0898 5.9062-2.4062 5.2812-6.8281 8.0664-11.891 9.793-5.9961 2.043-12.027 3.9766-18.062 5.8945-5.1367 1.6328-12.309 2.5898-16.875 5.3711-0.60156 0.36719-0.99219 1.1836-0.64844 1.7969 0.45703 0.81641 1.6602 0.65234 2.5508 0.37891 5.9062-1.8047 11.957-3.2539 17.734-5.3398 4.4141-1.5898 8.9727-2.7812 13.398-4.3555 5.6367-2.0078 12.25-4.3633 15.258-9.9375 1.0352-1.9258 1.6445-4.0703 2.7852-5.9414 1.9609-3.2109 6.9961-4.3906 10.52-4.7148 3.3555-0.30469 6.7227-0.20313 10.082-0.050782 2.8867 0.13281 10.633-1.418 11.379 2.6445 0.35938 1.9805-0.98828 5.8398-1.1562 7.9648-0.29297 3.7031-0.58594 7.4141-0.87891 11.117-0.24609 3.1094 2.1758 2.1719 2.5312-0.34766 2.5859-18.43 7.6758-36.625 10.895-55.027 3.2891-18.809 5.9453-37.723 8.0781-56.695 1.2266-10.848 3.2227-22.184 3.2227-33.102 0.89844-10.859-1.2344-12.91-11.496-14.621-33.996-5.6602-68.297-8.3359-102.67-8.6836-48.086-0.48828-96.348-4.3906-144.13 4.7578-2.0234 0.38672-3.9453 0.26172-5.2969-1.543-2.0117 1.168-4.1445 2.1719-6.0117 3.5352-11.875 8.6523-23.672 17.387-35.395 26.223zm-20.441 97.777c0.36719 1.6406 2.1016 2.5547 3.6875 3.1016 5.5039 1.8945 11.152 0.95703 16.887 1.1875 6.1914 0.25391 12.367 0.88281 18.539 1.4805 1.3477 0.13281 2.6445 0.77734 3.9648 1.1836-13.016-0.32422-25.844-0.49219-38.668-0.82031-5.9414-0.15234-11.883-0.0625-17.176 2.6758-4.4688 2.3125-7.1094 1.1211-9.3984-2.7969-3.5352-6.0547-7.7031-11.66-12.91-17.266 22.672-15.527 48.23-24.168 72.746-34.941 1.918-0.83984 3.9492-2.0234 5.1562 0.77344 1.0312 2.3945-0.84766 3.7969-2.3477 5.1602-12.875 11.68-26.863 22.785-38.457 35.695-1.1641 1.293-2.4062 2.8789-2.0234 4.5664zm39.516-55.793c-19.914 9.0234-39.965 17.746-59.973 26.559 8.375-13.207 19.637-23.449 31.098-33.426 3.6367-3.1602 7.8945-4.2578 12.52-0.28906 3.7148 3.1875 8.1172 4.0742 12.758 0.375 2.7148-2.1602 6.6914-3.7148 8.8711 0.98047 2.4844 5.3398-3.0234 4.7812-5.2734 5.8008zm193.18 26.824c16.156 5.6367 29.77 15.23 44.852 25.188-10.516 1.0977-19.57 2.9297-27.41 7.1133-9.6055 5.1211-16.672-1.3164-24.707-3.3086-2.0391-0.50391-3.7812-2.7266-5.375-4.4219-9.9727-10.641-22.07-15.035-36.887-13.047 15.656-8.1016 30.238-18.262 49.527-11.523zm-10.109 38.418c-5.7422 1.9805-68.016-1.1914-75.887-4.0703 22.441-24.617 64.504-18.828 75.887 4.0703zm-115.78-113.64c1.9219 4.0625 1.8359 9.1641 7.1602 9.0352 4.9453-0.12109 6.9141-3.4844 8.5859-7.5 1.1016-2.6445 2.6719-5.2891 6.4648-4.4414-4.6328 18.465-19.719 22.672-36.66 26.504 4.9883-8.1445 9.3867-15.332 14.449-23.598z"/>
 <path d="m995.98 302.61c6.5859-0.89062 9.207-6.6836 14.496-5.1523 5.1836 4.3828-0.039062 6.2695-2.5703 8.2617-22.859 17.969-47.484 33.676-68.797 53.621-2.9297 2.7461-6.793 4.9375-8.7383 11.309 24.793-14.59 44.152-33.254 67.285-47.098-0.73047 20.957-0.36719 21.289-6.6367 28.141-5.668 6.1953-5.3672 11.746 0.87109 16.363 7.9961 5.918 4.207 9.3867-1.582 13.309-17.625 11.93-30.562 28.785-47.66 43.898 2.9336 0 3.7852 0.22266 4.4531-0.03125 24.199-9.1641 48.484-18.234 65.973-38.766 4.2773-5.0273 8.3398-7.5 14.75-2.8789 4.8555 3.5 8.2539 1.707 8.6836-4.625 0.16016-2.332 0.55078-4.6836 1.1406-6.9453 4.0391-15.453 14.406-19.988 28.648-12.645 0.9375 0.48828 2.1094 0.52734 3.6875 0.89453 0-1.9766 0.19141-3.4023-0.03125-4.7578-2.5977-15.859 3.1445-27.359 16.094-37.156 11.027-8.3438 22.539-15.648 34.297-22.75 7.8633-4.7461 11.477-14.406 7.5547-21.102-10.734-18.34-6.2734-35.652 5.4766-50.582 13.027-16.555 26.953-32.613 43.145-46.41 2.1914-1.8672 5.1406-3.457 6.332-9.2344-10.602 6.7461-19.449 12.324-28.242 17.977-44.25 28.441-87.996 57.66-133.23 84.582-11.43 6.7891-17.145 19.68-25.402 31.777z"/>
 <path d="m328.66 921.31c-10.559 0.18359-21.23 0.054688-31.594 2.543-7.6055 1.8281-14.309 6.1641-14.992 14.254-0.69922 8.2969-0.003906 17.496 8.4688 22.574 15.684 9.4102 29.758 21.02 44.445 31.781 8.3867 6.1406 17.605 9.1523 27.887 9.5469 25.859 0.99219 51.723 1.9141 77.57 3.207 14.121 0.70312 27.262-1.5898 40.004-8.168 9.4141-4.8594 19.309-9.2148 30.148-10.445-12.871 7.3555-27.262 11.512-41.766 20.016 11.598 0.082031 20.684-1.4609 29.711-4.3828 9.6992-3.1367 18.055-10.09 28.934-9.8984 15.352 0.26172 30.395-2.8047 45.527-4.7383 7.625-0.97266 14.273-4.3555 20.156-9.1406-7.9883 1.1797-15.586 3.3789-23.309 4.9375-29.684 5.9844-56.742 4.0508-79.199-20.586-19.363-21.242-45.082-25.176-72.945-22.031-31.516 3.5547-63.129 6.5312-94.895 6.5-5.0312-0.003906-10.066-0.082031-15.105-0.25-2.918-0.09375-6.8516 0.19531-9.1758-1.9297-2.2578-2.0664-2.332-6.1172 0.050781-8.125 1.2617-1.0625 2.9375-1.4844 4.5547-1.8203 8.1016-1.6836 16.664-2.0039 24.867-1.9688 7.7188 0.03125 15.449-0.82422 23.227-1.1328 17.434-0.69141 34.859-1.5039 52.273-2.6445 17.609-1.1562 35.172-3.1211 52.75-4.7305-27.512-1.6367-54.695 4.0781-82.148 2.0352 39.824-2.6289 79.648-5.2578 119.7-7.8984-1.4258-3.0664-4.375-0.32812-5.2852-3.1562 11.059-3.9883 22.746-5.7773 33.246-11.199-19.633 5.8984-39.625 10.191-60.016 11.484-44.309 2.8164-88.68 4.6094-133.09 5.3672z"/>
 <path d="m849.84 622c5.8047-9.7422 15.371-13.938 26.02-15.926 7.7812-1.4492 15.695-2.207 23.566-3.1406 9.668-1.1406 19.281-2.6562 27.895-7.4453 5.2109-2.8984 10.316-6.7188 9.2383-13.652-1-6.4414-7.1445-5.8867-11.805-7.1484-0.34375-0.09375-0.53125-0.76562-1.2578-1.8789 24.371-9.8594 41.383-28.527 57.703-47.871 7.9883-9.4727 14.504-19.98 16.875-32.473 1.7227-9.0625-1.6719-16.195-10.371-17.324-15.23-2.0195-29.848-6.9023-44.848-10.023-15.344-3.1914-30.754-3.3438-46.266-1.2695-17.402 2.3281-34.879 7.2734-50.676 15-12.406 6.0664-20.742 17.512-22.926 31.094-1.9141 11.887-3.8906 23.766-6.0664 35.605-4.4883 24.352-9.1289 48.676-13.781 73.414 2.8633-0.15234 5.5234-0.050781 8.0977-0.48047 7.457-1.2383 11.027 0.73047 8.4414 9.0039-1.2148 3.8945-1.8047 7.9922-2.5547 12.02-0.95312 5.1133-3.1445 7.7852-9.0898 8.5-19.219 2.3164-38.395 5.1719-57.461 8.5234-12.977 2.2852-26.527 4.3789-37.16 12.621-4.7031 3.6406-8.6797 4.7734-14.098 4.8594-12.797 0.19141-25.738-1.1875-37.719 5.75-32.824 19.016-65.031 39.016-96.68 59.918-1.9609 1.293-4.4023 2.3594-5.418 5.8359 23.848-14.898 46.832-29.113 69.676-43.551 22.969-14.516 45.676-29.59 75-25.027 2.793 0.4375 5.2266-0.84375 7.1758-2.7539 8.1484-7.9766 18.59-10.91 29.23-13.352 24.664-5.6484 50.012-6.9727 74.805-11.82 4.1133-0.80469 5.6641-1.5156 7.6523-4.1367 0.46875-0.61328 0.95312-1.332 1.5039-2.1797 3.1289-4.8164 5.8594-10.266 9.2578-14.84 2.9727-4.0039 8.1562-6.3203 12.09-9.2461 4.918-3.6641 1.6758 2.832 3.9492 3.3945zm134.78-141.27c7.4492 1.9766 9.75 8.3008 6.5625 17.156-7.043 19.531-19.973 34.73-36.652 47.066 4.5742-5.8086 9.0664-11.684 13.738-17.414 8.0352-9.8633 14.176-20.754 18.988-32.543 2.6328-6.4492 1.2578-9.8633-5.3906-11.809-9.375-2.7383-19.332-3.5391-27.957-9.0391 10.246 2.1484 20.602 3.9023 30.711 6.582zm-50.195-9.4453c4.1055 0.64062 6.9727 2.8438 6.2617 7.0547-1.0156 6.0117-2.7383 12-4.0781 17.949 2.3555-4.4414 4.3906-9.4023 7.1953-13.562 2.4453-3.6367 4.9766-2.8242 8.2383-0.53906 15.441 10.809 16.5 14.527 8.5977 34.992-0.94141 2.4375-2.0195 4.8242-3.0391 7.2344-3.7539 8.8789-13.387-4.1914-15.332-8.1484-1.9766-4.0312-4.6641-7.9492-7.4883-11.785-2.5312-3.4414-5.1719-6.8125-7.5156-10.141-5.3555-7.6094-10.82-15.148-16.574-22.465 8.3828-2.5742 16.066-1.7891 23.734-0.58984zm-96.465 129.16c-5.1289-1.3086-3.1758-8.3477-4.957-12.68-2.2578-5.4922-4.6719-11.027-8.6992-15.199-4.5-4.6602-4.8828-9.418-3.8086-15.242 2.8828-15.57 5.7617-31.16 8.0352-46.824 2.2461-15.484 11.312-24.566 25.465-29.586 10.414-3.6914 21.242-6.0898 31.926-8.8555 3.2773-0.84766 6.5977-1.6992 9.9648-1.8281 0.45312-0.019531 0.90625-0.027344 1.3633-0.015625 7.5547 0.16406 11.441 5.3359 15.457 11.051 9.3164 13.25 17.359 27.184 24.77 41.559 4.3477 8.4258 2.7344 15.066-4.2891 20.98-6.9648 5.8594-13.75 11.93-20.703 17.805-4.3828 3.7031-9.3867 5.6992-15.297 5.7773-10.004 0.12891-17.988 4.5898-21.562 13.961-3.3711 8.8516-9.9531 12.48-18.141 14.758-1.6953 0.47266-3.3672 1.0312-5.082 1.4336-4.8477 1.1484-10.156 4.0039-14.441 2.9062z"/>
 <path d="m434 874.48c9.707 0.25391 19.477-0.23828 29.113 0.67188 24.797 2.3438 44.035-7.2969 59.406-26.066h0.003906c37.297-33.031 74.59-66.062 111.88-99.09-5.25 0.55469-8.0859 5.3672-13.703 4.9766-21.73-1.5234-43.586-0.57422-65.234-1.8789-8.6016-0.51562-13.062 2.5547-18.031 6.793-28 23.871-54.297 49.586-80.785 75.086-9.5234 9.168-18.496 18.922-27.578 28.535-2.1992 2.3203-4.6719 5.2109-3.043 8.6133 1.5117 3.1523 5.1211 2.2891 7.9727 2.3594zm33.129-26.203c18.457 0.16406 36.914 0.52734 55.367 0.80859-7.1758 2.4805-11.977 8.2773-17.496 12.941-7.8086 6.6055-16.496 9.7148-26.641 9.5938-13.742-0.16797-27.484-0.042969-41.543-0.042969 3.9414-11.02 20.281-23.395 30.312-23.301z"/>
 <path d="m547.27 477.68c0.11328-0.10156 0.23438-0.19922 0.35156-0.30078-0.1875 0.027344-0.375 0.054688-0.55859 0.09375-0.011719-0.003906 0.20703 0.20703 0.20703 0.20703z"/>
 <path d="m1106 485.73c9.1953 2.1289 13.508-2.1875 15.605-16.965 1.0703-7.5352-4.9219-7.9766-10.301-8.7227-42.086-5.8555-84.426-5.7656-126.78-5.3516-3.9219 0.035156-8.0352 0.55078-10.902 2.9062-4.6055 3.7852-9.3984 3.0078-14.133 1.7656-42.746-11.191-86.113-17.727-130.19-21.676-76.672-6.8633-152.13 0.089844-227.01 15.684-19.566 4.0742-38.965 10.285-54.633 24.023 0.98047-0.14453 2.0117-0.20703 2.8164-0.66406 23.316-13.23 48.844-19.516 74.887-24.617 15.074-2.9531 30.418-1.9727 45.434-4.5547 27.883-4.793 55.91-7.3359 86.289-6.2969-23.93 2.2461-46.547 0.16406-66.703 11.895 10.695-2.3203 21.48-2.2305 32.055-0.4375 19.418 3.2969 38.949 4.668 58.582 5.3203 4.5 0.15234 8.4883-0.62891 12.641-2.7227 17.086-8.6055 35.105-13.016 54.465-11.895 15.297 0.88672 30.434 2.8359 45.559 5.0703 27.062 3.9922 53.055 12.984 79.953 17.504 16.707 2.8047 32.371 10.098 49.816 9.9609 8.5547-0.066406 15.945-4.6172 23.516-4.8125 20.844-0.53516 41.395 3.9805 61.883 7.8203 1.6094 0.30078 3.918 0.51172 3.4609 2.9922-0.48828 2.6133-2.6758 1.6758-4.2461 1.3086-29.375-6.8867-50.684 10.02-72.848 24.254 11.051-4.2578 20.59-11.531 31.43-16.492 12.707-5.8086 25.578-8.4805 39.352-5.2969zm2.0508-11.223c-19.875-5.2148-40.207-8.6445-60.82-8.5273-23.832 0.14063-47.383-3.0312-71.551-4.2969 1.4141-2.7891 2.9336-2.9219 4.3594-2.9062 43.75 0.50781 87.566-0.38672 131.04 5.9688 2.4961 0.36328 8.0742-1.8984 6.0625 5.1133-1.5547 5.418-3.2773 6.1719-9.0898 4.6484z"/>
 <path d="m1022.7 673.1c9.4023-19.469 12.762-40.781 12.988-62.488 0.085937-8.0625-4.2422-10.93-11.539-11.074-4.7188-0.09375-8.3242 2.4727-12.121 4.6914-17.594 10.285-29.387 27.379-46.059 38.812 9.2891-3.125 14.695-12.238 25.059-16.137-7.9062 26.863-13.402 52.992-25.164 77.934 27.16 2.5312 45.875-9.043 56.836-31.738z"/>
 <path d="m110.48 712.87c-1.7031 2.2578-4.1328 4.0156-5.5547 6.4922-0.30859 0.53516-0.90625 1.5625-0.62891 2.0469 0.10156 0.17578 0.3125 0.28125 0.69922 0.26172 1.1016-0.046875 3.6367-3.5078 4.3477-4.2734 1.2969-1.3945 4.9727-7.043 6.8828-6.8203 4.1953 0.49219-3.7539 8.6875-4.7148 9.7695-15.074 16.887-30.449 33.5-45.441 50.457-10.074 11.402-9.9219 13.934 0.63281 24.82 2.0234 2.0898 1.6562 2.9648 0.30859 4.9414-3.3594 4.9258-7.8438 10.141-14.215 7-1.1562-0.57031-6.6602-5.4336-7.4219-4.5938-1.832 2.0156 4.6367 5.6445 5.5273 6.1953 3.207 1.9805 4.2812 4.2305 1.3086 7.957 34.867-32.375 68.359-65.258 105.86-94.246-11.609-5.3906-23.52-5.3672-32.918-12.227 0.25391-0.23828 0.51172-0.46875 0.76562-0.70313-0.375 0.14844-0.74609 0.30859-1.125 0.44531-5.5898-4.7344-10.129-3.0859-14.309 2.4766z"/>
 <path d="m1034.2 533.8c-5.2422 1.832-9.1797 5.3789-12.523 9.4219-10.305 12.441-20.398 25.066-30.355 37.797-2.0938 2.6758-5.0078 5.6445-4.082 9.4062 1.6875 6.8594-2.5898 10.488-6.9453 14-13.262 10.703-26.672 21.227-40.012 31.832-8.1211 6.4062-16.191 12.879-24.277 19.32-4.1211 3.2773-8.2461 6.5625-12.367 9.8398-1.2422 0.99219-4.7266 2.7695-5.4062 4.1289-0.10547 0.20703-0.1875 0.39062-0.24609 0.55859-0.89062 2.4844 2.918 0.63281 3.8242 0.007812 2.7695-1.8984 5.5156-3.832 8.2734-5.7461 5.3516-3.7148 10.688-7.4688 15.758-11.562 27.688-22.344 56.301-43.418 85.527-63.684 8.2031-5.6875 16.371-11.539 23.199-18.895 6.9062-7.4414 12.203-15.934 13.25-26.281 0.99219-9.8516-4.2031-13.441-13.617-10.145z"/>
 <path d="m234.27 341.4c3.2773-0.33594 5.5859-2.375 7-4.8984 4.6289-8.2773 12.465-12.988 19.555-18.633 7.5742-6.0273 15.188-12.117 22.004-18.961 8.0625-8.0938 17.742-13.152 28.129-17.035 13.793-5.1562 25.934-11.562 27.684-28.363 0.39844-3.8164 3.2344-6.1055 5.9531-8.3945 3.8203-3.207 7.9922-6.1094 11.301-9.7812 2.7344-3.0312 9.2539-6.5078 6.4492-9.9961-4.0234-4.9961-8.3242 1.418-11.566 3.8906-38.094 28.988-72.98 61.906-111.12 90.859-4.457 3.3867-8.043 7.8789-9.5625 13.441-0.98828 3.6094-0.86719 7.1992 4.1719 7.8711z"/>
 <path d="m1132.7 377.51c-3.2617-4.0039-7.1797-0.66797-10.215 1.1836-12.695 7.7344-22.449 18.867-32.855 29.211-1.9219 1.9102-2.4688 4.6367-2.2773 7.4023-0.17578 6.6641 3.4922 6.3242 8.0508 4.4062 15.684-6.5938 25.035-20.016 35.078-32.652 2.168-2.7422 4.8359-6.3398 2.2188-9.5508z"/>
 <path d="m103.38 513.26c19.5-4.6445 32.078-16.855 45.414-28.199 2.8906-2.4609 6.457-5.7109 3.6367-9.2305-3.5078-4.3828-8.5469-1.5391-12.379-0.070312-16.023 6.1406-28.859 16.027-42.406 25.047-2.4961 1.668-3.4336 4.3125-3.4883 7.0859-0.88281 6.6094 3.5547 6.7188 9.2227 5.3672z"/>
 <path d="m680.41 828.3c5.2031-3.043 11.02-10.066 10.121-16.648-0.86328-6.3242-8.6445-2.5781-12.156-1.1211-4.793 1.9922-9.2812 4.6133-13.754 7.2188-3.8828 2.2656-9.7539 4.4375-8.9805 9.75 0.86719 5.9297 7.7031 1.457 12.508 5.1484-16.602 10.207-32.348 19.887-48.094 29.566 22.188-7.8359 40.453-22.273 60.355-33.914z"/>
 <path d="m823.02 681.89c3.1445 5.3281 4.9219 11.086 7.1758 17.211 4.043-7.8477 7.7422-15.703 6.3281-24.773-1.7734-11.367-6.5859-16.25-15.684-16.992-5.2344-0.42578-6.0234 1.7461-4.8047 6.0781 1.5312 5.4453 5.5195 8.8555 9.9414 11.734 3.2852 2.1445 3.3516 5.918 2.4141 8.043-1.1172 2.5273-2.707-2.0547-5.3711-1.3008z"/>
 <path d="m606.07 878.15c-12.828 20.332-34.672 27.629-54.117 38.035-20.176 10.789-42.203 13.855-65.016 11.957 33.215 11.801 110.73-20.977 119.13-49.992z"/>
 <path d="m699.05 653.73c-3.4531-1.8945-6.7227-0.69922-10.156 0.27344-41.078 11.648-80.012 28.844-118.99 45.902-4.9805 2.1797-10.516 3.625-15.312 8.2148 34.59-13.969 68.098-27.895 101.93-40.973 13.836-5.3516 27.547-11.543 42.531-13.418z"/>
 <path d="m699.11 653.73c-0.019531 0.003907-0.039063 0.003907-0.054687 0.003907 0.015624 0.011719 0.03125 0.015625 0.046874 0.023437 0.015626 0.019532 0.007813-0.027344 0.007813-0.027344z"/>
 <path d="m410.62 842.2c40.211-30.965 77.969-64.93 118.13-96.129-41.738 29.051-79.641 62.949-118.13 96.129z"/>
 <g clip-path="url(#b)">
  <path d="m1149 721.72c-2.2148 1.7578-6.4688 4.168-3.2969 7.6133 2.8203 3.0703 6.0938-0.070312 8.3711-2.1445 10.422-9.4688 20.699-19.098 30.945-28.758 1.7852-1.6797 4.2461-3.0859 4.1328-7.793-13.961 10.758-27.16 20.793-40.152 31.082z"/>
 </g>
 <path d="m84.34 545.96c11.664-7.8867 23.211-15.953 34.73-24.055 2.0039-1.4062 4.6406-2.4492 5.1992-7.125-15.348 8.6641-29.848 16.707-44.172 25.043-2.4414 1.4219-6.9922 3.2031-4.3477 7.0664 2.3516 3.4336 6.0391 0.79688 8.5898-0.92969z"/>
 <path d="m44.156 790.32c-0.60547 1.668-1.0977 3.2969-1.0938 5.0898 0.007812 1.9766 1.1914 3.6836 1.3086 5.5039-0.39062-6.0547 3.332-10.352 6.3555-14.961 13.02-19.855 29.52-36.793 45.363-54.285 2.0859-2.3047 5.1602-4.0664 4.7578-7.8906-9.2227 9.4453-18.445 18.887-27.668 28.328-4.6133 4.7227-9.2266 9.4453-13.836 14.168-1.0703 1.0977-2.5352 2.207-3.3945 3.4727-0.70703 1.043-0.63672 1.9414-0.98438 3.1953-0.6875 2.5078-2.2617 4.6992-3.7578 6.7773-2.3906 3.3203-5.668 6.7695-7.0508 10.602z"/>
 <path d="m474.84 458.16c-18.762 12.191-35.789 26.301-50.762 42.703 0.97656 1.0352 1.9531 2.0625 2.9336 3.0977 15.738-15.48 33.617-28.645 47.828-45.801z"/>
 <path d="m776.21 727.63c-8.8125-7.1172-18.039-7.6094-27.598-1.4336-5.0391 3.2539-8.7695 7.75-12.035 12.691-22.906 34.707-30.973 73.582-32.211 114.35-0.011719 22.621 3.4062 44.621 12.938 65.172 10.43 22.492 31.047 25.422 47.98 7.3867 2.2031-2.3438 4.2852-4.875 5.9805-7.5977 32.91-52.895 39.258-108.95 19.617-167.96-2.8945-8.6875-7.3164-16.668-14.672-22.613zm-51.32 62.129c6.0156 4.3984 10.555 9.9062 11.059 17.629 0.27344 4.1992 1.8203 4.4492 5.418 4.0195 16.848-2.0156 21.25-6.7422 21.367-23.699 0.035157-4.793 0.003907-9.5898 0.003907-16.777 6.1758 10.297 7.0195 23.711 3.3789 31.258-2.6953 5.5859-7.4531 7.9609-13.258 8.8789-6.9062 1.0859-13.777 2.3359-20.863 5.793 3.5-10.812-2.4844-18.672-7.1055-27.102zm8.9531 133.59c20.609-24.5 4.5508-46.652-4.2266-69.285 25.668 28.715 19.746 56.242 4.2266 69.285zm35.141-66.051c-2.3359 20.336-9.7852 39.039-17.984 57.52-1.4023 3.168-3.1133 6.1641-6.4062 8.6211 8.7773-22.934 14.605-45.578 18.867-68.664 2.5 1.0391 0.44141 4.2539 2.1055 5.6016 3.0781-8.0742-1.5391-13.176-8.0391-18.07 9.9023 2.457 12.457 6.2812 11.457 14.992zm16.559-31.746c-3.9102-1.2109 2.7617-8.8516-5.1484-7.8242-6.5547 0.85156-10.324 3.6875-10.574 10.328-0.15625 4.1641-0.92969 8.1094-2.5625 12.328-1.2188-6.082 1.2617-11.375 1.8945-16.852 0.42188-3.6484-0.36328-4.5703-4.1094-4.2969-5.832 0.42578-11.719 0.11328-17.582 0.11328 5.9609-5.1094 15.543 0.046876 20.883-7.0352 1.8086 3.5898 4.3477 4.4062 8.3906 3.3828 3.8633-0.98047 5.8906-2.6016 5.1836-6.5625-0.83594-4.6602-0.11719-9.207 0.875-13.777-1.4688 10.195 6.6758 19.727 2.75 30.195zm9.9375 6.168c-0.082031-25.469-4.2969-50.234-11.289-74.586-0.64844-2.25-1.4414-4.4727-2.3203-6.6406-2.9414-7.2227-7.4844-13.152-13.723-17.945-7.3594-5.6523-13.715 1.2383-21.055 1.5742 12.566-10.312 26.012-7.2734 33.453 7.4023 8.6406 17.039 11.012 35.762 13.867 54.309 1.8281 11.902 2.2734 23.898 1.0664 35.887z"/>
</svg>
