<?xml version='1.0' encoding='utf-8'?>
<svg xmlns="http://www.w3.org/2000/svg" width="1056" height="1056" version="1.2" viewBox="0 0 792 792" zoomAndPan="magnify">
 <defs>
  <clipPath id="b" fill="none">
   <path d="m83 6.7539h648.23v785.25h-648.23z" fill="none" />
  </clipPath>
  <clipPath id="a" fill="none">
   <path d="m49.219 308.04h232.78v275.96h-232.78z" fill="none" />
  </clipPath>
 </defs>
 <g id="c" fill="none">
  <path d="m402.58 473.66s73.934-103.66 135.08-123.83l-13.387-13.781 1.9961 10.324s-68.039 42.344-133.89 131.24l-19.98 12.523-5.9961 22.707-17.504 5.9883 4.9141 19.973-24.34 11.988 3.8203 19.43-15.867 6.832 3.2773 17.496-17.227 9.5859 6.8359 22.426-25.98 15.324-3.2773 31.176-21.621-4.9336 1.3594 23.527-14.969-5.6953 11.992 15.859 62.406-17.234 14.309-62.656s98.172-118.36 67.941-148.2z" fill="#f07221" fill-rule="evenodd" />
  <g clip-path="url(#b)">
   <path d="m229.96 40.641s11.215-21.07 16.969-1.3789c5.7539 19.691-3.5586 38.59 65.941 93.031 0 0-5.1953-131.68 135.88-125.27 0 0-125.89 1.2578-131.98 124.39l8.4922-3.8516s1.6758-108.99 124.48-112.41c0 0 14.605-0.80078 29.973 11.383 2.0469 1.3594 4.2344 2.4297 6.5586 3.2148 2.3281 0.78516 4.7188 1.2578 7.168 1.418-2.582 0.96094-5.2461 1.332-7.9922 1.1172 0 0 5.457 9.3867 14.148 11.984 0 0-13.449-2.793-18.645 1.2812-5.1953 4.0742-17.805 19.328-30.555 18.91 0 0 8.4141 10.227 21.023 12.184 0 0-84.59-10.305-109.39 40.168 0 0 92.402-26.527 127.49 40.621 0 0-1.7578-18.676 7.5547-23.047 0 0-6.293-8.4883-1.6367-14.5s20.32 8.8477 20.32 8.8477-0.81641-31.195 5.4766-41.324c-0.23047 8.2812 0.4375 16.488 1.9961 24.629 1.5664-0.95703 3.082-1.9844 4.5469-3.082 1.4648-1.1016 2.875-2.2695 4.2266-3.5078 1.3516-1.2383 2.6406-2.5352 3.8672-3.9023 1.2266-1.3594 2.3828-2.7773 3.4727-4.2539 1.0859-1.4688 2.1016-2.9961 3.043-4.5703 0.94141-1.5664 1.8047-3.1836 2.5859-4.8398 0.78906-1.6562 1.4883-3.3477 2.1094-5.0703 0.62109-1.7227 1.1562-3.4727 1.6094-5.2461 0 0-3.0195 28.457-6.8555 38.305l20.742-22.188-3.0156 26.262s8.2109-4.6562 11.488-18.895c0 0 2 25.727-1.8984 36.129h17.984s-22.719 12.324-23.816 19.973l10.129 0.28125s-3.7578 15.238-24.559 17.234c0 0-14.789 34.754-34.23 8.7695 0 0-7.3945 2.457-3.2969 7.1094 4.0977 4.6562 1.9961 8.75 2.7578 13.402 0.75781 4.6523 5.5352 15 27.656 15.438 22.117 0.4375 36.348 1.7578 40.285 18.832 3.9375 17.078-4.1562 26.27-12.25 29.762 0 0 19.762 12.523 20.863 29.379 1.0977 16.855 15.105 20.57 15.105 20.57l104.87-136.47 20.723 15.98-103.85 132.89 5.1328 1.6992-8.2109 3.4336 8.5547 5.8125-8.5547 0.33984s-1.3594 7.9883 18.344 23.324c19.707 15.34 23.98 33.637 20.445 52.551 0 0 1.7969-12.785-4.2578-21.133l1.0391 9.9883c-0.41406-2.6562-1.1133-5.2344-2.0977-7.7305-0.98438-2.5039-2.2305-4.8633-3.7383-7.0898 0 0 5.6367 12.105 3.5391 23.969 0 0-0.19922-10.844-5.418-18.355 0 0 5.0391 14.262 1.3008 21.75 0 0 2.1367-7.0898-5.0938-21.109 0 0 2.9531 17.094 1.2188 22.445 0 0-0.14453-19.973-14.848-30.195 0 0 9.9883 19.973 10.828 24.305 0 0-9.75-12.684-16.965-23.508l9.0742 18.176s-10.152-10.285-16.824-13.621l7.3516 8.668s-9.4922-7.3281-12.57-8.2695c-3.0742-0.9375-3.875 4.1367 0.14062 8.5469 4.0156 4.4141 23.383 24.969 30.594 28.441l4.9766 20.535 23.977 3.3516 0.94141 13.402 8.2148 11.484-6.4141 6.6914s17.562 16.137 23.68 28.363c6.1133 12.223 13.047 14.676 13.047 14.676s-94.316-21.711-176.39 43.523c-82.07 65.227-149.37 154.37-314.55 219.02 0 0 44.898-43.82 45.68-50.871 0.78125-7.0508-7.2148-13.145-26.098-9.3086-18.883 3.8359-35.41 5.9922-35.41 5.9922l45.781-43.078s-9.9922-14.121 9.4531-11.066l7.2148 0.67969s-13.891-19.633 6.5508-19.773c0 0-5.9922-22.707 11.492-18.977 17.484 3.7383 16.305 31 31.969 37.012 0 0-5.4727-21.969-14.684-33.395-9.2148-11.422-14.848-26.324-13.508-29.379 1.3359-3.0586 37.426-2 42.102 0.66016l-11.852-28.66s20.984-10.426 26.719-9.4883c0 0-7.5742-12.844-7.7148-15.98-0.13672-3.1328 17.648-8.8086 17.648-8.8086l-2.9375-15.238 24.535-8.8086-7.7305-23.125 32.371-15.98-3.2344-23.008s78.508-107.01 135.26-122.65l-13.066-14.68 1.3164 10.109s-66.582 41.742-132.81 131.12l-12.73-23.488s-7.7891 25.582-5.7109 28.52-1.2422 0-1.2422 0l-2.5156-5.9922-2.7188 16.699-3.3359-17.758-0.83984 19.633-4.5938-12.324 0.41797 11.684-5.4336-13.141 0.63672 14.398-4.1758-12.941 2 14.621-5.418-15.238 0.62109 13.359-3.9961-13.578-0.19922 5.9883-2.3008-8.125-1.2578 10.223-3.7578-14.398-0.83984 7.0898-4.9922-15.238-1.8984 6.6914s-4.5781-33.395 5.4336-44.879c10.012-11.484 11.289-12.523 11.289-12.523l-13.988 1.9961s-22.539-13.559-14.188-23.387c8.3555-9.8242 12.109-3.7539 7.5156-11.266-4.5977-7.5078-7.3125-11.48-11.492-11.684-4.1758-0.19922-14.828 4.375-14.828 4.375l-3.7148 0.21875-5.9922 1.3398-7.4961-0.39844s0.51953-46.777-1.4766-55.926l-9.8711-13.18-11.992 8.9648s-16.445 27.105-17.504 30.18c0 0-9.2344 9.4258-40.965 19.492 0 0 27.797-15.738 33.273-26.902 0 0-101.73 37.949-126.25 40.566 0 0 45.32-12.684 55.391-19.477 0 0-50.137 6.3516-71.375-4.1523 0 0 52.773 6.1289 71.375-3.0547 0 0-50.578 1.5352-78.59-27.363 0 0 52.098 33.953 93.477 21.23 41.387-12.723 46.422-21.668 46.422-21.668s-50.137 29.758-95.68 15.977c0 0 43.961 1.9961 49.699-3.0547 0 0-74.875-11.824-91.918-47.719 0 0 67.441 71.781 141.44 27.801 0 0-56.051 18.598-92.402 2.4023 0 0 79.434 19.691 111.49-35.793 0 0 20.48-0.59766 25.676-6.9102l-8.7539-16.199s46.523-18.633 175.85-39.422c0 0-56.809 3.4727-189.5 34.77l-1.1562-5.7695 11.988-4.4766s-11.41-72.465 38.527-96.965l-21.98-17.375s-66.766-43.941-67.203-91.992c0 0 10.73-8.4453 16.207 0.51953 5.4727 8.9688 6.293 18.355 10.789 23.246 0 0-5.4766-20.168-6.1953-24.664z" fill="none" fill-rule="evenodd" />
  </g>
  <path d="m291.97 280.17 50.035-19.434 3.0195 20.992z" fill="#f07221" fill-rule="evenodd" />
  <path d="m409.49 279.98s3.5352-16.441 15.406-14.742c11.871 1.6953 25.34 20.75 7.5938 43.32l1.0391 6.5312s17.785-19.512 12.688-38.07c-5.0938-18.551-25.098-20.391-31.414-15.977-6.3125 4.4141-8.1719 14.262-5.3125 18.855z" fill="#611e22" fill-rule="evenodd" />
  <path d="m418.02 286.52s9.6914 1 10.551 7.4102c0.43359-0.39453 0.80469-0.84766 1.1094-1.3477 0.30469-0.50391 0.53516-1.0391 0.68359-1.6055 0.15234-0.57031 0.21484-1.1484 0.19922-1.7344-0.015625-0.58984-0.11328-1.1641-0.29297-1.7227-1.418-3.5547-7.2734-5.832-12.25-1z" fill="#611e22" fill-rule="evenodd" />
  <path d="m412.3 299s13.547 31.477 12.129 40.324c0 0 13.246 6.4102 14.668-7.6914 0 0 10.309 27.086 4.457 41.543-5.8555 14.461-19.484 49.812-23.98 50.371-4.4961 0.55859-15.027-11.402-15.027-11.402s2.7773 22.25-0.5625 25.965c-3.332 3.7109-8.6289 7.2305-9.9883 1.6758-1.3594-5.5547-3.3398-41.465-26.156-60.379l1.1172-21.969 2.5 8.6289 2.4961-2.5156s5.5742 24.227 6.4141 22.27 3.0586-8.9102 3.0586-8.9102 1.9961 11.406 2.4961 9.4688 7.5312-14.461 7.5312-14.461l2.5 23.09 3.8984-6.4141s1.1172 15.859 1.9961 14.203c0.87891-1.6602 3.0781-9.1875 3.0781-9.1875l7.793 18.371 3.3359-40.621 12.809 8.8867-2.2969-33.812s-8.2539-6.6094-10.75-14.082c-2.4961-7.4688-3.5156-33.395-3.5156-33.395z" fill="#611e22" fill-rule="evenodd" />
  <path d="m396.64 569.55s53.555-150.57 193.69-163.97v11.98s-79.395-9.9844-193.69 152.01z" fill="#f07221" fill-rule="evenodd" />
  <path d="m422.9 588.66s76.055-164.91 252.54-131.93l0.94141 13.402s-117.6-43.504-253.48 118.53z" fill="#f07221" fill-rule="evenodd" />
  <path d="m204.66 40.859 4.6953 0.98047s-4.8945 41.324 68.965 93.391l19.605 15.477s-44.906 14.184-38.172 97.086l-11.988 3.9961 1.3789 6.2695s133.89-31.016 189.38-34.852c0 0-148.45 25.246-176.01 39.785 0 0 8.4141 13.383 8.4141 16.438 0 3.0547-22.184 7.6484-25.637 6.1328-3.457-1.5156-10.711-28.68-7.2539-35.57l10.352-1.5586s-12.371-76.836 44.441-97.871l3.0938-0.41797s-44.777-33.137-55.293-43.938c-10.508-10.805-35.969-41.586-35.969-65.391z" fill="#f57c1d" fill-rule="evenodd" />
  <path d="m298.66 376.4s3.6562 135.62-44.223 161.26c0 0 43.262-19.41 39.504-160.95z" fill="#bf3b21" fill-rule="evenodd" />
  <path d="m288.36 378.2v1.8164c0.31641 17.375 0.66016 154.66-67.938 186.35 0 0 24.637-17.156 33.828-33.797 9.1914-16.637 33.371-63.23 31.172-154.33h2.8594z" fill="#bf3b21" fill-rule="evenodd" />
  <g clip-path="url(#a)">
   <path d="m104.51 454.39s44.344-73.32 85.668-84.805c41.324-11.484 50.098-22.152 50.098-22.152l17.785-30.098 11.77-9.0234 10.41 13.68s21.641 193.48-95.719 261.86c0 0 50.297-30.441 66.703-102.94 16.402-72.504 7.5312-93.012 7.5312-93.012s12.668 86.863-115.3 135.41c0 0 40.723-19.832 70.141-55.723 0 0-48.578 23.965-73.938 35.551-25.359 11.582-62.965 59.918-62.965 59.918s35.59-55.746 87.242-78.312c0 0-92.039 25.965-114.62 15.379 0 0 148.85 0.33984 176.21-79.672 0 0-44.82 43.758-68.078 47.195 0 0 56.453-25.664 71.938-71.902l8.3711-32.715s-22.34 16.613-43.801 25.383c-21.461 8.7695-62.625 52.527-64.387 58.219 0 0 25.641-42.461 45.961-52.309 0 0-21.238-6.1289-71.016 60.039z" fill="none" fill-rule="evenodd" />
  </g>
  <path d="m153.47 397.45c0.83594-0.41797 21.719-4.75 30.129-10.922 8.4141-6.1719 15.148-17.496 15.148-17.496s-30.414 12.602-45.277 28.418z" fill="none" fill-rule="evenodd" />
  <path d="m200.15 377c0.83984-1.5391 17.223-13.582 21.719-15.68 4.4961-2.0977 15.988-9.1094 15.988-9.1094-3.3359 5.2227-7.3984 9.7969-12.191 13.723-8.4102 7.1484-36.086 19.633-38.664 23.688 0 0 4.6133-9.3867 13.168-12.621z" fill="none" fill-rule="evenodd" />
  <path d="m256.3 323.31s-5.0547 56.961-27.613 86.5c0 0 9.1719-37.266 15.348-58.219 6.1719-20.953 12.266-28.281 12.266-28.281z" fill="none" fill-rule="evenodd" />
  <path d="m263.52 318.34s-10.27 122.54-48.438 144.89l-15.469 11.266s19.727-18.637 28.48-33.137c8.7461-14.5 28.371-82.211 31.969-111.11l1.1172-12.32 2.3398 0.41797z" fill="none" fill-rule="evenodd" />
  <path d="m263.33 386.87s8.6328-51.93 5.9961-70.238c0 0 11.992 24.723-6.1367 84.262l-1.2188-9.9844 1.3594-3.9922z" fill="none" fill-rule="evenodd" />
  <path d="m269.57 414.62s-0.82031 68.668-25.457 102.06c0 0 16.707-52.809 25.457-102.06z" fill="none" fill-rule="evenodd" />
  <path d="m296.58 309.97c-0.41797 0.97656 1.2578 4.4922 1.2578 4.4922s7.7148-8.2656 13.051-9.9844c5.332-1.7188-7.7344-1.9961-14.309 5.4531z" fill="#984a34" fill-rule="evenodd" />
  <path d="m299.27 324.33s-2 3.9961 0.89844 3.6953c2.8984-0.29688 16.805-12.223 16.805-13.98-0.050781-0.26953-0.13672-0.52344-0.26172-0.76562-0.125-0.24219-0.28516-0.45703-0.48047-0.65234-0.19141-0.19141-0.40625-0.35156-0.64844-0.48047-0.24219-0.125-0.49609-0.21094-0.76562-0.26172-0.26953-0.046874-0.53516-0.054687-0.80859-0.023437-0.27344 0.035156-0.53125 0.10938-0.77734 0.22266-0.25 0.10938-0.47656 0.25781-0.67969 0.4375-0.20312 0.18359-0.375 0.39062-0.51562 0.625-1.9961 2.4766-12.766 11.223-12.766 11.223z" fill="#f07221" fill-rule="evenodd" />
  <path d="m306.63 335.85c0.10156-0.77734 13.988-13.102 21.863-14.457 0 0-8.4141 17.598-13.789 20.633 0 0 40.445 44.938 45.48 51.07 5.0352 6.1289 4.8164 9.625 4.8164 9.625l2-4.1523c3.9258 7.6211 8.668 14.699 14.227 21.23 0 0-23.66-8.7461-24.738-17.297-1.0781-8.5469-45.121-52.969-45.121-52.969l-4.1797 5.2539s-3.5547-8.4648-2.6562-10.387c0.89844-1.918 9.3125-7.8477 9.3125-7.8477l-9.3125 2.5781 2.1172-3.2773z" fill="#f07221" fill-rule="evenodd" />
  <path d="m322.87 399.03s13.469 7.0742 13.566 7.8516-7.3906 9.8633-7.3906 9.8633l-7.9961-6.1719s10.391-4.8125 1.8984-11.543z" fill="#e98e44" fill-rule="evenodd" />
  <path d="m357.54 625.22c7.5547 0 13.668 4.3906 13.668 9.8047 0 5.4141-6.1133 9.8047-13.668 9.8047-7.5547 0-13.648-4.3906-13.648-9.8047 0-5.4102 6.1133-9.8047 13.648-9.8047z" fill="#e8761b" fill-rule="evenodd" />
 </g>
</svg>