<?xml version='1.0' encoding='utf-8'?>
<svg xmlns="http://www.w3.org/2000/svg" width="1056" height="1056" version="1.2" viewBox="0 0 792 792" zoomAndPan="magnify">
 <defs>
  <clipPath id="e" fill="none">
   <path d="m9.3164 6.6562h773.23v780.55h-773.23z" fill="none" />
  </clipPath>
  <clipPath id="a" fill="none">
   <path d="m14.531 55.688v48.898c43.855 0 82.215 20.414 114.69 61.246l11.801-12.352v-11.84c-7.5859-32.594-23.191-48.895-46.383-48.895v-61.25l-22.34-24.707c-11.809 0-23.191 16.301-34.578 48.898zm229.38 206.39v12.355l11.387-12.355h218.81l57.77 12.355c-35.84-65.195-89.387-97.793-161.07-97.793-84.742 34.312-126.9 62.793-126.9 85.434zm-101.61 71.547v24.703h68.73c9.6953 122.5 61.977 188.04 157.27 196.62l44.688-3.0859c95.297-16.816 142.93-77.211 142.93-181.18v-12.355l-11.383-12.348v-12.355h11.383l34.578 24.703h46.379v-24.703l-80.957-11.84-7.5859-6.1719-13.074-3.0898-2.5273-3.0859-160.64-12.355zm185.1 26.766 34.574 48.895v36.543l-34.574 37.059h-46.379c-17.281 0-28.672-20.418-34.148-61.246 10.543-40.832 37.52-61.25 80.527-61.25zm160.64 0 34.574 48.895v36.543l-34.574 37.059h-45.957c-17.285 0-28.664-20.418-34.152-61.246 10.543-40.832 37.109-61.25 80.113-61.25zm-103.29 122.49 23.188 24.195-23.188 24.703-22.77-24.703zm-374.83 218.75v36.543c22.77 0 34.578 12.18 34.578 36.543l11.379 12.355h11.809c14.762 0 22.344-12.184 22.344-36.547l-10.965-37.055c20.246-5.1523 39.219-25.395 57.344-60.734l-11.801-12.355h-11.387c-41.316 40.832-75.895 61.25-103.3 61.25zm596.6-556.39c29.094 31.566 51.859 69.746 68.309 114.52 16.016 44.781 24.027 94.281 24.027 148.49 0 54.562-8.0117 104.14-24.875 148.75-16.449 44.602-39.637 82.52-69.152 113.75-28.668 30.883-61.977 54.73-99.922 71.543-37.949 16.812-78.43 25.219-121.43 25.219-45.535 0-87.699-8.9219-126.49-26.762-38.785-17.844-72.094-42.895-99.922-75.148-27.828-31.223-49.758-69.223-65.777-114-15.602-44.781-23.605-92.562-23.605-143.35 0-55.93 8.4336-105.77 25.301-149.52 16.43-43.75 39.625-81.582 68.719-113.49 29.09-31.91 62.82-56.188 101.19-72.832 38.363-16.641 78.414-24.961 120.58-24.961 43.855 0 84.758 8.4922 123.12 25.477 38.367 16.988 71.672 41.094 99.926 72.32zm-23.188 471.98c21.5-27.453 37.102-58.594 46.797-93.422 9.6992-34.828 14.336-73.863 13.914-117.1-0.83594-44.262-6.7422-84.836-18.133-121.73-11.801-36.883-28.242-68.367-49.746-94.445-21.93-25.734-49.336-45.805-81.797-60.219-32.461-14.41-69.566-21.617-111.31-21.617-46.801 0-86.434 8.3242-118.9 24.965-32.469 16.645-59.027 38.859-79.688 66.652-19.395 26.762-33.309 58.074-42.582 93.93-8.8516 35.855-13.496 73.348-13.07 112.46 0.42188 43.578 5.8984 82.953 16.02 118.13 10.539 35.168 26.984 66.48 49.336 93.93 21.082 26.422 48.055 47.184 80.109 62.277 32.461 15.098 70.832 22.648 115.1 22.648 41.742 0 79.266-7.5508 113-22.648 33.312-15.094 60.293-36.371 80.957-63.82zm103.3 154.41c2.5234-28.137-16.449-64.512-56.504-109.12l0.84766-11.84 13.91-10.809c36.688 20.93 56.5 41.863 60.297 62.793l40.055-9.2656c26.137 1.7148 38.785 10.297 37.105 25.738l-0.84766 11.832-13.91 10.816c-26.145-1.7188-40.051 9.0898-41.742 32.422zm0 0c2.5234-28.137-16.449-64.512-56.504-109.12l0.84766-11.84 13.91-10.809c36.688 20.93 56.5 41.863 60.297 62.793l40.055-9.2656c26.137 1.7148 38.785 10.297 37.105 25.738l-0.84766 11.832-13.91 10.816c-26.145-1.7188-40.051 9.0898-41.742 32.422zm78.844-649.55 1.6797-36.543c-24.027-1.0273-35.406-13.723-34.57-38.086l-11.379-12.871-11.809-0.51172c-16.027-0.34375-24.031 11.668-24.879 36.027l10.543 37.059c-21.504 4.4609-42.164 24.023-61.98 58.676l11.801 12.871 11.387 0.51172c44.273-39.113 80.531-58.16 109.21-57.133zm-527.04 166.77v4.6328l11.379-4.6328h218.83l57.34 4.6328c-35.418-24.02-88.543-31.055-158.53-21.102-86.016 2.7422-129.02 8.2344-129.02 16.469zm72.094 303.16c-1.2656 18.531 18.555 38.773 60.289 60.738 44.699 10.633 78.848-9.6094 101.62-60.738l-32.891 7.7227-43.43 6.1758-52.273-4.1133zm125.64-44.777 23.188 24.191-23.188 24.707-22.762-24.707zm-51.438 7.7188 23.191 24.195-23.191 24.703-22.766-24.703zm-50.598-5.1406 23.195 24.188-23.195 24.703-22.766-24.703z" fill="none" />
  </clipPath>
  <clipPath id="b" fill="none">
   <path d="m783.82-5.1875-786.01 12.16 12.258 792.07 786.01-12.164z" fill="none" />
  </clipPath>
  <linearGradient id="c" x1="-.080332" x2="1.0593" gradientTransform="matrix(10.755 694.98 -694.98 10.755 -1580.9 87.252)" gradientUnits="userSpaceOnUse">
   <stop stop-color="#5db8ee" offset="0" />
   <stop stop-color="#5db8ee" offset=".0625" />
   <stop stop-color="#5db8ee" offset=".070312" />
   <stop stop-color="#5cb8ee" offset=".078125" />
   <stop stop-color="#5cb8ee" offset=".085938" />
   <stop stop-color="#5bb8ee" offset=".09375" />
   <stop stop-color="#5bb7ee" offset=".10156" />
   <stop stop-color="#5ab7ed" offset=".10547" />
   <stop stop-color="#59b6ed" offset=".10938" />
   <stop stop-color="#58b6ed" offset=".11719" />
   <stop stop-color="#57b6ed" offset=".12109" />
   <stop stop-color="#57b5ed" offset=".125" />
   <stop stop-color="#56b5ed" offset=".13281" />
   <stop stop-color="#56b5ed" offset=".14062" />
   <stop stop-color="#55b5ec" offset=".14453" />
   <stop stop-color="#55b4ec" offset=".14844" />
   <stop stop-color="#54b4ec" offset=".15625" />
   <stop stop-color="#53b4ec" offset=".16406" />
   <stop stop-color="#53b3ec" offset=".17188" />
   <stop stop-color="#52b3ec" offset=".17969" />
   <stop stop-color="#51b2ec" offset=".1875" />
   <stop stop-color="#51b1eb" offset=".19141" />
   <stop stop-color="#50b1eb" offset=".19531" />
   <stop stop-color="#50b1eb" offset=".20312" />
   <stop stop-color="#4fb1eb" offset=".21094" />
   <stop stop-color="#4eb0eb" offset=".21875" />
   <stop stop-color="#4db0ea" offset=".22656" />
   <stop stop-color="#4cafea" offset=".23047" />
   <stop stop-color="#4cafea" offset=".23438" />
   <stop stop-color="#4bafea" offset=".24219" />
   <stop stop-color="#4aaeea" offset=".25" />
   <stop stop-color="#49aeea" offset=".25781" />
   <stop stop-color="#48ade9" offset=".26172" />
   <stop stop-color="#48ade9" offset=".26562" />
   <stop stop-color="#47ade9" offset=".26953" />
   <stop stop-color="#47ade9" offset=".27344" />
   <stop stop-color="#47ade9" offset=".28125" />
   <stop stop-color="#47ade9" offset=".28906" />
   <stop stop-color="#46ace9" offset=".29688" />
   <stop stop-color="#45ace8" offset=".30469" />
   <stop stop-color="#44abe8" offset=".30859" />
   <stop stop-color="#43abe8" offset=".3125" />
   <stop stop-color="#43abe8" offset=".31641" />
   <stop stop-color="#42aae8" offset=".32031" />
   <stop stop-color="#42aae8" offset=".32812" />
   <stop stop-color="#42aae8" offset=".33594" />
   <stop stop-color="#41a9e7" offset=".34375" />
   <stop stop-color="#40a9e7" offset=".35156" />
   <stop stop-color="#3fa9e7" offset=".35547" />
   <stop stop-color="#3ea8e7" offset=".35938" />
   <stop stop-color="#3ea8e6" offset=".36719" />
   <stop stop-color="#3da8e6" offset=".375" />
   <stop stop-color="#3ca7e6" offset=".38281" />
   <stop stop-color="#3ba7e6" offset=".39062" />
   <stop stop-color="#3aa6e6" offset=".39453" />
   <stop stop-color="#3aa6e6" offset=".39844" />
   <stop stop-color="#39a5e5" offset=".40625" />
   <stop stop-color="#39a5e5" offset=".41406" />
   <stop stop-color="#39a5e5" offset=".42188" />
   <stop stop-color="#38a4e5" offset=".42969" />
   <stop stop-color="#37a4e5" offset=".4375" />
   <stop stop-color="#36a3e4" offset=".44141" />
   <stop stop-color="#35a3e4" offset=".44531" />
   <stop stop-color="#35a3e4" offset=".45312" />
   <stop stop-color="#34a2e4" offset=".46094" />
   <stop stop-color="#34a2e4" offset=".46875" />
   <stop stop-color="#33a1e3" offset=".47656" />
   <stop stop-color="#31a1e3" offset=".48047" />
   <stop stop-color="#31a1e3" offset=".48438" />
   <stop stop-color="#30a1e3" offset=".49219" />
   <stop stop-color="#2fa0e3" offset=".5" />
   <stop stop-color="#2ea0e2" offset=".51562" />
   <stop stop-color="#2d9fe2" offset=".51953" />
   <stop stop-color="#2d9fe2" offset=".52344" />
   <stop stop-color="#2c9fe2" offset=".53125" />
   <stop stop-color="#2c9ee2" offset=".53906" />
   <stop stop-color="#2b9ee2" offset=".54688" />
   <stop stop-color="#2a9de1" offset=".55469" />
   <stop stop-color="#2a9de1" offset=".5625" />
   <stop stop-color="#299de1" offset=".56641" />
   <stop stop-color="#289ce1" offset=".57031" />
   <stop stop-color="#279ce1" offset=".57812" />
   <stop stop-color="#269ce0" offset=".58203" />
   <stop stop-color="#269be0" offset=".58594" />
   <stop stop-color="#259be0" offset=".58984" />
   <stop stop-color="#259be0" offset=".59375" />
   <stop stop-color="#259be0" offset=".60156" />
   <stop stop-color="#249ae0" offset=".60547" />
   <stop stop-color="#249ae0" offset=".60938" />
   <stop stop-color="#2399e0" offset=".61328" />
   <stop stop-color="#2399e0" offset=".61719" />
   <stop stop-color="#2299df" offset=".625" />
   <stop stop-color="#2199df" offset=".63281" />
   <stop stop-color="#2199df" offset=".64062" />
   <stop stop-color="#2098df" offset=".64453" />
   <stop stop-color="#2098df" offset=".64844" />
   <stop stop-color="#1f97df" offset=".65625" />
   <stop stop-color="#1f97df" offset=".66016" />
   <stop stop-color="#1e97de" offset=".66406" />
   <stop stop-color="#1e96de" offset=".67188" />
   <stop stop-color="#1d96de" offset=".67969" />
   <stop stop-color="#1c95de" offset=".6875" />
   <stop stop-color="#1c95de" offset=".69141" />
   <stop stop-color="#1b95dd" offset=".69531" />
   <stop stop-color="#1a95dd" offset=".70312" />
   <stop stop-color="#1994dd" offset=".71094" />
   <stop stop-color="#1894dd" offset=".71875" />
   <stop stop-color="#1793dd" offset=".72656" />
   <stop stop-color="#1793dd" offset=".73047" />
   <stop stop-color="#1793dc" offset=".73438" />
   <stop stop-color="#1692dc" offset=".74219" />
   <stop stop-color="#1592dc" offset=".74609" />
   <stop stop-color="#1592dc" offset=".75" />
   <stop stop-color="#1492dc" offset=".75781" />
   <stop stop-color="#1491dc" offset=".76562" />
   <stop stop-color="#1391dc" offset=".76953" />
   <stop stop-color="#1291db" offset=".77344" />
   <stop stop-color="#1291db" offset=".78125" />
   <stop stop-color="#1290db" offset=".78906" />
   <stop stop-color="#1190db" offset=".79297" />
   <stop stop-color="#108fdb" offset=".79688" />
   <stop stop-color="#108fdb" offset=".80469" />
   <stop stop-color="#0f8fda" offset=".8125" />
   <stop stop-color="#0e8eda" offset=".81641" />
   <stop stop-color="#0d8eda" offset=".82031" />
   <stop stop-color="#0d8dda" offset=".82812" />
   <stop stop-color="#0c8dda" offset=".83594" />
   <stop stop-color="#0b8dda" offset=".84375" />
   <stop stop-color="#0a8dd9" offset=".85156" />
   <stop stop-color="#098cd9" offset=".85547" />
   <stop stop-color="#098cd9" offset=".85938" />
   <stop stop-color="#088bd9" offset=".875" />
   <stop stop-color="#078ad8" offset=".88281" />
   <stop stop-color="#078ad8" offset=".89062" />
   <stop stop-color="#0689d8" offset=".89453" />
   <stop stop-color="#0589d8" offset=".89844" />
   <stop stop-color="#0589d8" offset=".90625" />
   <stop stop-color="#0489d7" offset=".91406" />
   <stop stop-color="#0388d7" offset=".92188" />
   <stop stop-color="#0388d7" offset=".92969" />
   <stop stop-color="#0287d7" offset=".93359" />
   <stop stop-color="#0187d7" offset=".9375" />
   <stop stop-color="#0187d7" offset=".94141" />
   <stop stop-color="#0087d7" offset=".94531" />
   <stop stop-color="#0086d6" offset=".95312" />
   <stop stop-color="#0086d6" offset=".96875" />
   <stop stop-color="#0086d6" offset="1" />
  </linearGradient>
  <clipPath id="d" fill="none">
   <path d="m4 0h785.21v791.54h-785.21z" fill="none" />
  </clipPath>
 </defs>
 <g id="f" fill="none">
  <g clip-path="url(#e)">
   <g clip-path="url(#a)">
    <g clip-path="url(#b)">
     <path d="m782.37-5.1641-784.52 12.141 12.258 792.05 784.52-12.141z" fill="none" />
    </g>
   </g>
  </g>
  <g clip-path="url(#d)">
   <path transform="matrix(4.2163 0 0 4.2164 -71627 -123.93)" d="m16992 42.6v11.597c10.4 0 19.499 4.8416 27.2 14.526l2.7998-2.9294v-2.8071c-1.7992-7.7312-5.5005-11.597-11-11.597v-14.526l-5.2994-5.8598c-2.8007 0-5.4995 3.866-8.2011 11.596zm54.4 48.951v2.9294l2.7016-2.9294h51.898l13.701 2.9294c-8.4995-15.461-21.2-23.193-38.2-23.193-20.1 8.1379-30.1 14.892-30.1 20.263zm-24.099 16.968v5.8588h16.301c2.2977 29.053 14.699 44.597 37.298 46.631l10.6-0.73189c22.602-3.9874 33.901-18.31 33.901-42.969v-2.9294l-2.6988-2.9294v-2.9294h2.6988l8.2021 5.8588h11v-5.8588l-19.202-2.809-1.7983-1.4638-3.1018-0.73282-0.60036-0.73189-38.098-2.9303zm43.9 6.348 8.1993 11.595v8.6678l-8.1993 8.7882h-11c-4.0987 0-6.8003-4.8416-8.0983-14.526 2.4996-9.685 8.8978-14.527 19.098-14.527zm38.1 0 8.1993 11.595v8.6678l-8.1993 8.7882h-10.901c-4.0987 0-6.7985-4.8416-8.0992-14.526 2.5006-9.685 8.8015-14.527 19-14.527zm-24.5 29.051 5.4995 5.7384-5.4995 5.8588-5.4013-5.8588zm-88.902 51.88v8.6678c5.4013 0 8.2021 2.8887 8.2021 8.666l2.6997 2.9303h2.8007c3.5002 0 5.2976-2.8887 5.2976-8.6669l-2.5988-8.7892c4.801-1.2211 9.3009-6.0219 13.599-14.403l-2.7979-2.9303h-2.7016c-9.7984 9.6841-18 14.526-24.501 14.526zm141.5-131.96c6.9013 7.4866 12.301 16.541 16.202 27.161 3.7976 10.62 5.6987 22.359 5.6987 35.217 0 12.94-1.9011 24.699-5.9007 35.279-3.9005 10.579-9.4 19.571-16.4 26.977-6.7985 7.3235-14.698 12.979-23.698 16.967-9.0007 3.9874-18.603 5.9811-28.801 5.9811-10.799 0-20.799-2.116-30-6.3471-9.199-4.232-17.1-10.173-23.699-17.823-6.6002-7.4051-11.8-16.418-15.6-27.038-3.7013-10.62-5.5987-21.953-5.5987-33.997 0-13.265 2.0003-25.085 5.9998-35.461 3.8977-10.376 9.3981-19.349 16.298-26.918 6.9013-7.5681 14.901-13.327 24-17.273 9.0998-3.9467 18.6-5.92 28.6-5.92 10.4 0 20.102 2.0141 29.201 6.0423 9.1007 4.0282 17 9.7462 23.699 17.151zm-5.4995 111.94c5.0993-6.511 8.8006-13.896 11.1-22.156 2.3004-8.2602 3.3992-17.517 3.301-27.771-0.19919-10.498-1.6-20.121-4.3016-28.87-2.7989-8.7484-6.6984-16.216-11.799-22.4-5.2012-6.1034-11.701-10.863-19.4-14.282-7.699-3.4177-16.498-5.1269-26.401-5.1269-11.099 0-20.5 1.9743-28.199 5.9209-7.7008 3.9476-14 9.2163-18.9 15.808-4.5999 6.348-7.901 13.773-10.1 22.278-2.0985 8.5038-3.201 17.395-3.0981 26.672 0.098206 10.334 1.3971 19.674 3.7976 28.016 2.4996 8.3417 6.401 15.768 11.702 22.278 4.9992 6.2655 11.397 11.19 19 14.77 7.699 3.5807 16.798 5.3715 27.298 5.3715 9.9012 0 18.801-1.7908 26.801-5.3715 7.901-3.5798 14.299-8.6261 19.199-15.136zm24.5 36.62c0.60036-6.6722-3.9005-15.299-13.4-25.878l0.20104-2.8081 3.2982-2.5635c8.7014 4.9639 13.401 9.9287 14.301 14.892l9.5001-2.1966c6.199 0.40671 9.199 2.4412 8.8015 6.1034l-0.20197 2.8071-3.2982 2.5644c-6.2018-0.40764-9.5001 2.1558-9.9012 7.6895zm0 0c0.60036-6.6722-3.9005-15.299-13.4-25.878l0.20104-2.8081 3.2982-2.5635c8.7014 4.9639 13.401 9.9287 14.301 14.892l9.5001-2.1966c6.199 0.40671 9.199 2.4412 8.8015 6.1034l-0.20197 2.8071-3.2982 2.5644c-6.2018-0.40764-9.5001 2.1558-9.9012 7.6895zm18.702-154.05 0.39838-8.666c-5.6987-0.24458-8.3985-3.2555-8.1993-9.0338l-2.6988-3.0517-2.8007-0.12136c-3.8013-0.081527-5.6997 2.7664-5.9016 8.5446l2.5006 8.7892c-5.0993 1.0571-10 5.6967-14.699 13.915l2.7989 3.0526 2.7016 0.12229c10.5-9.2774 19.099-13.794 25.9-13.55zm-125 39.552v1.0988l2.6988-1.0988h51.9l13.6 1.0988c-8.4003-5.6967-20.999-7.3652-37.6-5.0056-20.4 0.65129-30.599 1.9539-30.599 3.9068zm17.099 71.899c-0.3011 4.395 4.4007 9.1959 14.299 14.405 10.602 2.5218 18.701-2.2791 24.102-14.405l-7.8018 1.8307-10.301 1.4656-12.398-0.97647zm29.799-10.62 5.4995 5.7365-5.4995 5.8598-5.3986-5.8598zm-12.199 1.8307 5.4995 5.7384-5.4995 5.8588-5.4013-5.8588zm-12.001-1.2201 5.5005 5.7375-5.5005 5.8588-5.4004-5.8588z" fill="none" stroke="#000" stroke-linejoin="round" stroke-miterlimit="2" stroke-width="3.13" />
  </g>
  <path d="m384.32 482.89 23.188 24.195-23.188 24.703-22.348-24.703z" fill-rule="evenodd" />
  <path d="m14.543 55.688h23.188c11.387-32.598 22.773-48.898 34.578-48.898l22.344 24.707v61.25c23.188 0 38.375 16.301 46.379 48.895v11.836l-11.805 12.355c-32.469-40.832-70.836-61.246-114.69-61.246z" fill="none" fill-rule="evenodd" />
  <path d="m765.45 122.08c-28.676-1.0273-64.934 18.016-109.2 57.133l-11.391-0.51562-11.801-12.871c19.816-34.652 40.477-54.215 61.98-58.672l-10.539-37.059c0.84766-24.363 8.8477-36.371 24.875-36.027l11.809 0.51172 11.379 12.867c-0.83984 24.363 10.543 37.059 34.156 38.09z" fill="none" fill-rule="evenodd" />
  <path d="m327.39 360.39 34.574 48.891v36.547l-34.574 37.055h-46.383c-17.277 0-29.09-20.414-34.574-61.246 10.969-40.832 37.527-61.246 80.957-61.246z" fill="#020000" fill-rule="evenodd" />
  <path d="m488.04 360.39 34.57 48.891v36.547l-34.57 37.055h-45.957c-17.285 0-29.094-20.414-34.57-61.246 10.961-40.832 37.527-61.246 80.527-61.246z" fill="#020000" fill-rule="evenodd" />
  <path d="m334.14 549.8 23.191 24.191-23.191 24.703-22.766-24.703z" fill="none" fill-rule="evenodd" />
  <path d="m384.32 554.95 23.188 24.195-23.188 24.699-22.348-24.699z" fill="none" fill-rule="evenodd" />
  <path d="m436.16 547.23 22.773 24.191-22.773 24.707-22.758-24.707z" fill="none" fill-rule="evenodd" />
  <path d="m310.53 592 33.312 9.7812 51.855 4.1133 43.848-6.1758 32.895-7.7188c-22.773 51.125-56.922 71.367-101.62 60.734-41.73-21.965-61.973-42.203-60.285-60.734z" fill="none" fill-rule="evenodd" />
  <path d="m238.43 288.84c0-8.2344 43-13.723 129.01-16.469 69.992-9.9492 123.12-2.9141 158.54 21.105l-57.762-4.6367h-218.41l-11.379 4.6367z" fill="#ff1400" fill-rule="evenodd" />
  <path d="m243.91 262.08c0-22.645 42.16-51.125 126.9-85.438 71.676 0 125.23 32.602 161.07 97.793l-57.766-12.352h-218.82l-11.387 12.352z" fill="#ffcd00" fill-rule="evenodd" />
  <path d="m142.3 333.62 229.79-36.543 160.64 12.355 2.5234 3.0859 13.082 3.0898 7.582 6.1719 80.957 11.84v24.703h-46.375l-34.582-24.703h-11.383v12.355l11.383 12.348v12.355c0 103.96-47.637 164.36-142.93 181.18l-45.109 3.0859c-94.871-8.5742-147.15-74.117-156.84-196.62h-68.73zm185.1 26.766c-43.43 0-69.992 20.418-80.957 61.25 5.4844 40.832 17.297 61.246 34.574 61.246h46.383l34.574-37.059v-36.543zm160.64 0c-43 0-69.57 20.418-80.531 61.25 5.4766 40.832 17.289 61.246 34.574 61.246h45.957l34.57-37.059v-36.543zm-103.72 122.5-22.348 24.191 22.348 24.707 23.188-24.707z" fill="none" fill-rule="evenodd" />
 </g>
</svg>