<?xml version="1.0" encoding="UTF-8"?>
<svg width="1587" height="1587" version="1.0" viewBox="0 0 1190.2 1190.2" xmlns="http://www.w3.org/2000/svg" zoomAndPan="magnify">
 <defs>
  <clipPath id="a">
   <path d="m0 0h1189.5v1189.5h-1189.5z"/>
  </clipPath>
  <clipPath id="b">
   <path d="m140 10h959.84v1166h-959.84z"/>
  </clipPath>
  <clipPath id="c">
   <path d="m90.227 456h344.77v409h-344.77z"/>
  </clipPath>
 </defs>
 <g clip-path="url(#a)" fill="none">
  <path d="m0 0h1189.5v1189.5h-1189.5z"/>
  <path d="m0 0h1189.5v1189.5h-1189.5z"/>
 </g>
 <path d="m489.72 1181.7c116.55 0 211.04 1.5938 211.04 3.5156s-94.484 3.5195-211.04 3.5195c-116.55 0-211.06-1.5664-211.06-3.5195 0-1.9492 94.484-3.5156 211.06-3.5156z" fill="#666" fill-rule="evenodd"/>
 <path d="m613.32 701.19s109.45-153.45 199.97-183.31l-19.82-20.402 2.957 15.285s-100.72 62.684-198.2 194.28l-29.578 18.539-8.875 33.617-25.914 8.8672 7.2773 29.566-36.031 17.742 5.6523 28.766-23.488 10.113 4.8516 25.898-25.5 14.191 10.117 33.203-38.457 22.68-4.8516 46.152-32.008-7.3047 2.0117 34.832-22.156-8.4297 17.75 23.477 92.383-25.516 21.18-92.75s145.33-175.21 100.58-219.38z" fill="#f07221" fill-rule="evenodd"/>
 <g clip-path="url(#b)">
  <path d="m357.79 60.164s16.598-31.195 25.117-2.043-5.2656 57.125 97.617 137.72c0 0-7.6914-194.93 201.15-185.44 0 0-186.36 1.8633-195.38 184.14l12.57-5.707s2.4844-161.34 184.27-166.4c0 0 21.621-1.1836 44.371 16.852 3.0273 2.0117 6.2656 3.5977 9.7109 4.7617 3.4453 1.1602 6.9805 1.8633 10.609 2.0977-3.8203 1.4219-7.7656 1.9727-11.832 1.6562 0 0 8.0781 13.895 20.945 17.738 0 0-19.91-4.1367-27.602 1.8945-7.6914 6.0312-26.355 28.617-45.23 27.996 0 0 12.457 15.141 31.121 18.039 0 0-125.22-15.258-161.93 59.457 0 0 136.79-39.266 188.73 60.137 0 0-2.6016-27.645 11.184-34.121 0 0-9.3203-12.562-2.4258-21.465 6.8906-8.8984 30.082 13.098 30.082 13.098s-1.2109-46.18 8.1055-61.172c-0.33984 12.262 0.64844 24.41 2.957 36.457 2.3203-1.4141 4.5625-2.9336 6.7305-4.5625 2.168-1.6289 4.2539-3.3594 6.2578-5.1914 2-1.832 3.9102-3.7539 5.7227-5.7734 1.8164-2.0156 3.5273-4.1133 5.1406-6.2969 1.6094-2.1797 3.1133-4.4375 4.5078-6.7656 1.3906-2.3242 2.668-4.7148 3.8281-7.168 1.1641-2.4492 2.2031-4.9531 3.1211-7.5039 0.91797-2.5508 1.7109-5.1406 2.3789-7.7695 0 0-4.4648 42.129-10.145 56.707l30.703-32.848-4.4648 38.879s12.156-6.8906 17.008-27.969c0 0 2.9609 38.082-2.8086 53.484h26.621s-33.633 18.242-35.258 29.566l14.996 0.41406s-5.5625 22.559-36.355 25.516c0 0-21.891 51.445-50.672 12.98 0 0-10.945 3.6367-4.8828 10.523 6.0664 6.8906 2.957 12.953 4.082 19.84 1.125 6.8906 8.1953 22.203 40.941 22.855 32.746 0.64844 53.809 2.6016 59.637 27.879 5.8281 25.281-6.1523 38.883-18.133 44.055 0 0 29.254 18.539 30.883 43.492 1.625 24.953 22.363 30.453 22.363 30.453l155.24-202.03 30.676 23.656-153.73 196.73 7.6016 2.5156-12.156 5.0859 12.66 8.6016-12.66 0.50391s-2.0117 11.824 27.156 34.531c29.168 22.707 35.496 49.793 30.262 77.789 0 0 2.6602-18.922-6.3008-31.281l1.5391 14.785c-0.61719-3.9297-1.6523-7.7461-3.1094-11.445-1.457-3.7031-3.3008-7.1992-5.5312-10.492 0 0 8.3438 17.918 5.2383 35.477 0 0-0.29688-16.051-8.0195-27.168 0 0 7.457 21.109 1.9258 32.195 0 0 3.1641-10.496-7.543-31.25 0 0 4.375 25.309 1.8047 33.23 0 0-0.21094-29.566-21.98-44.703 0 0 14.789 29.566 16.031 35.984 0 0-14.434-18.777-25.113-34.801l13.43 26.906s-15.027-15.227-24.906-20.164l10.887 12.828s-14.055-10.848-18.609-12.238c-4.5547-1.3906-5.7383 6.1211 0.20703 12.652 5.9453 6.5352 34.613 36.961 45.289 42.105l7.3672 30.395 35.496 4.9648 1.3906 19.84 12.16 17-9.4961 9.9062s26 23.887 35.055 41.984c9.0508 18.094 19.316 21.73 19.316 21.73s-139.62-32.141-261.12 64.426c-121.49 96.562-221.12 228.52-465.64 324.22 0 0 66.469-64.871 67.625-75.305 1.1523-10.438-10.68-19.457-38.637-13.781-27.953 5.6797-52.418 8.8711-52.418 8.8711l67.773-63.773s-14.793-20.902 13.992-16.379l10.68 1.0039s-20.562-29.062 9.6992-29.27c0 0-8.8711-33.617 17.012-28.09 25.883 5.5312 24.137 45.887 47.328 54.789 0 0-8.1055-32.523-21.742-49.438-13.637-16.91-21.977-38.969-19.996-43.492 1.9805-4.5234 55.406-2.957 62.328 0.97656l-17.543-42.426s31.062-15.434 39.551-14.047c0 0-11.211-19.012-11.418-23.652-0.20703-4.6406 26.121-13.039 26.121-13.039l-4.3477-22.559 36.324-13.039-11.445-34.238 47.922-23.652-4.793-34.059s116.22-158.42 200.23-181.57l-19.344-21.73 1.9492 14.961s-98.562 61.793-196.6 194.1l-18.844-34.77s-11.535 37.871-8.457 42.219c3.0742 4.3477-1.8359 0-1.8359 0l-3.7266-8.8711-4.0234 24.719-4.9414-26.285-1.2422 29.062-6.8008-18.242 0.62109 17.297-8.0469-19.453 0.94531 21.316-6.1836-19.16 2.9609 21.645-8.0195-22.559 0.91797 19.777-5.9141-20.102-0.29688 8.8672-3.4023-12.031-1.8633 15.137-5.5625-21.316-1.2422 10.496-7.3945-22.559-2.8086 9.9023s-6.7773-49.434 8.043-66.434c14.82-17 16.715-18.539 16.715-18.539l-20.707 2.957s-33.367-20.074-21.004-34.621c12.367-14.547 17.926-5.5586 11.125-16.676-6.8047-11.117-10.828-17-17.012-17.297-6.1797-0.29688-21.949 6.4766-21.949 6.4766l-5.5 0.32422-8.875 1.9805-11.094-0.58984s0.76953-69.246-2.1875-82.789l-14.613-19.512-17.75 13.273s-24.348 40.125-25.914 44.676c0 0-13.668 13.957-60.641 28.855 0 0 41.148-23.297 49.254-39.824 0 0-150.6 56.176-186.9 60.051 0 0 67.094-18.777 82-28.828 0 0-74.219 9.4023-105.66-6.1484 0 0 78.125 9.0742 105.66-4.5234 0 0-74.871 2.2734-116.34-40.508 0 0 77.121 50.262 138.38 31.43 61.262-18.836 68.719-32.078 68.719-32.078s-74.219 44.051-141.64 23.652c0 0 65.078 2.957 73.57-4.5234 0 0-110.84-17.504-136.07-70.637 0 0 99.836 106.26 209.38 41.156 0 0-82.977 27.527-136.79 3.5508 0 0 117.59 29.152 165.04-52.984 0 0 30.32-0.88672 38.012-10.23l-12.957-23.977s68.867-27.586 260.32-58.363c0 0-84.098 5.1445-280.52 51.473l-1.7148-8.543 17.75-6.625s-16.891-107.27 57.031-143.54l-32.539-25.723s-98.832-65.047-99.484-136.18c0 0 15.887-12.504 23.992 0.76953 8.1055 13.277 9.3164 27.172 15.973 34.414 0 0-8.1055-29.859-9.168-36.512z" fill="#1b1b16" fill-rule="evenodd"/>
 </g>
 <path d="m449.58 414.75 74.07-28.766 4.4688 31.074z" fill="#f07221" fill-rule="evenodd"/>
 <path d="m623.55 414.46s5.2344-24.336 22.805-21.82c17.574 2.5117 37.512 30.719 11.242 64.129l1.5391 9.668s26.328-28.887 18.785-56.355c-7.543-27.465-37.156-30.188-46.504-23.652-9.3477 6.5352-12.098 21.109-7.8672 27.91z" fill="#611e22" fill-rule="evenodd"/>
 <path d="m636.18 424.15s14.348 1.4805 15.621 10.969c0.64062-0.58594 1.1875-1.2539 1.6406-1.9961 0.44922-0.74609 0.78906-1.5391 1.0117-2.3789s0.32031-1.6992 0.29688-2.5664c-0.023438-0.87109-0.16797-1.7188-0.43359-2.5469-2.1016-5.2656-10.77-8.6367-18.137-1.4805z" fill="#611e22" fill-rule="evenodd"/>
 <path d="m627.72 442.63s20.055 46.594 17.953 59.691c0 0 19.613 9.4922 21.715-11.383 0 0 15.262 40.094 6.5977 61.5-8.668 21.406-28.844 73.738-35.5 74.566-6.6562 0.82813-22.246-16.883-22.246-16.883s4.1133 32.938-0.82813 38.438c-4.9375 5.4961-12.777 10.703-14.789 2.4805-2.0117-8.2188-4.9414-61.379-38.723-89.379l1.6562-32.52 3.6992 12.77 3.6953-3.7227s8.2539 35.863 9.4961 32.965c1.2422-2.8984 4.5273-13.188 4.5273-13.188s2.957 16.883 3.6953 14.016c0.74219-2.8672 11.152-21.406 11.152-21.406l3.6992 34.18 5.7695-9.4922s1.6562 23.477 2.957 21.023c1.3008-2.457 4.5547-13.602 4.5547-13.602l11.539 27.199 4.9375-60.137 18.961 13.156-3.3984-50.055s-12.219-9.7852-15.918-20.844c-3.6953-11.059-5.2031-49.434-5.2031-49.434z" fill="#611e22" fill-rule="evenodd"/>
 <path d="m604.53 843.14s79.281-222.9 286.73-242.74v17.738s-117.53-14.781-286.73 225.03z" fill="#f07221" fill-rule="evenodd"/>
 <path d="m643.4 871.43s112.59-244.13 373.85-195.31l1.3906 19.84s-174.09-64.398-375.24 175.47z" fill="#f07221" fill-rule="evenodd"/>
 <path d="m320.34 60.488 6.9531 1.4492s-7.25 61.172 102.09 138.25l29.02 22.914s-66.473 20.992-56.504 143.72l-17.746 5.9141 2.0391 9.2812s198.2-45.914 280.34-51.59c0 0-219.76 37.371-260.55 58.895 0 0 12.453 19.809 12.453 24.332s-32.836 11.324-37.953 9.0781c-5.1172-2.2461-15.855-42.457-10.738-52.656l15.324-2.3086s-18.312-113.74 65.789-144.88l4.582-0.62109s-66.289-49.051-81.852-65.043c-15.559-15.996-53.246-61.559-53.246-96.801z" fill="#f57c1d" fill-rule="evenodd"/>
 <path d="m459.49 557.2s5.4141 200.76-65.465 238.72c0 0 64.043-28.738 58.484-238.27z" fill="#bf3b21" fill-rule="evenodd"/>
 <path d="m444.23 559.86v2.6875c0.47266 25.723 0.97656 228.96-100.57 275.86 0 0 36.473-25.398 50.078-50.027 13.609-24.629 49.402-93.605 46.148-228.46h4.2305z" fill="#bf3b21" fill-rule="evenodd"/>
 <g clip-path="url(#c)">
  <path d="m172.08 672.66s65.641-108.54 126.82-125.54c61.172-17 74.16-32.789 74.16-32.789l26.328-44.555 17.422-13.363 15.414 20.254s32.035 286.41-141.7 387.64c0 0 74.457-45.059 98.742-152.38 24.285-107.33 11.152-137.69 11.152-137.69s18.754 128.59-170.68 200.46c0 0 60.285-29.359 103.83-82.492 0 0-71.91 35.48-109.45 52.629-37.539 17.148-93.211 88.699-93.211 88.699s52.684-82.52 129.15-115.93c0 0-136.25 38.438-169.68 22.766 0 0 220.35 0.50391 260.85-117.94 0 0-66.352 64.777-100.78 69.863 0 0 83.566-37.992 106.49-106.44l12.395-48.43s-33.074 24.598-64.844 37.578-92.707 77.758-95.312 86.184c0 0 37.953-62.855 68.039-77.434 0 0-31.445-9.0742-105.13 88.879z" fill="#f07221" fill-rule="evenodd"/>
 </g>
 <path d="m244.55 588.36c1.2422-0.62109 32.152-7.0352 44.605-16.172 12.457-9.1367 22.426-25.898 22.426-25.898s-45.023 18.656-67.031 42.07z" fill="#fff" fill-rule="evenodd"/>
 <path d="m313.66 558.09c1.2422-2.2773 25.496-20.105 32.152-23.211 6.6562-3.1055 23.668-13.484 23.668-13.484-4.9375 7.7305-10.953 14.5-18.047 20.312-12.453 10.586-53.422 29.066-57.238 35.066 0 0 6.832-13.895 19.492-18.684z" fill="#fff" fill-rule="evenodd"/>
 <path d="m396.78 478.61s-7.4844 84.324-40.879 128.05c0 0 13.578-55.168 22.719-86.184 9.1406-31.016 18.16-41.867 18.16-41.867z" fill="#fff" fill-rule="evenodd"/>
 <path d="m407.46 471.25s-15.203 181.39-71.703 214.48l-22.898 16.676s29.199-27.586 42.156-49.051c12.953-21.465 42.004-121.7 47.328-164.48l1.6562-18.242 3.4609 0.62109z" fill="#fff" fill-rule="evenodd"/>
 <path d="m407.19 572.7s12.781-76.875 8.875-103.98c0 0 17.75 36.602-9.082 124.74l-1.8047-14.781 2.0117-5.9141z" fill="#fff" fill-rule="evenodd"/>
 <path d="m416.42 613.79s-1.2148 101.65-37.688 151.09c0 0 24.73-78.176 37.688-151.09z" fill="#fff" fill-rule="evenodd"/>
 <path d="m456.41 458.86c-0.62109 1.4492 1.8633 6.6523 1.8633 6.6523s11.418-12.238 19.316-14.781-11.445-2.957-21.18 8.0703z" fill="#984a34" fill-rule="evenodd"/>
 <path d="m460.38 480.12s-2.957 5.9141 1.332 5.4688c4.2891-0.44141 24.879-18.094 24.879-20.695-0.074219-0.39844-0.20312-0.77344-0.38672-1.1328-0.1875-0.35938-0.42578-0.67969-0.71094-0.96484-0.28516-0.28516-0.60547-0.52344-0.96484-0.71094-0.35547-0.1875-0.73438-0.31641-1.1289-0.39063-0.39844-0.070312-0.79688-0.082031-1.1992-0.035156-0.40234 0.050782-0.78516 0.16016-1.1523 0.32812-0.36719 0.16406-0.70312 0.38281-1.0039 0.65234s-0.55469 0.57812-0.76172 0.92578c-2.957 3.6641-18.902 16.613-18.902 16.613z" fill="#f07221" fill-rule="evenodd"/>
 <path d="m471.29 497.18c0.14844-1.1523 20.707-19.395 32.363-21.402 0 0-12.453 26.047-20.41 30.539 0 0 59.871 66.523 67.328 75.602 7.4531 9.0781 7.1289 14.25 7.1289 14.25l2.957-6.1484c5.8125 11.285 12.832 21.762 21.062 31.43 0 0-35.023-12.949-36.621-25.605-1.5977-12.652-66.797-78.41-66.797-78.41l-6.1836 7.7773s-5.2656-12.535-3.9336-15.375c1.332-2.8398 13.785-11.621 13.785-11.621l-13.785 3.8164 3.1367-4.8516z" fill="#f07221" fill-rule="evenodd"/>
 <path d="m495.32 590.7s19.938 10.469 20.082 11.621c0.14844 1.1523-10.941 14.605-10.941 14.605l-11.836-9.1367s15.383-7.125 2.8125-17.09z" fill="#e98e44" fill-rule="evenodd"/>
 <path d="m546.64 925.54c11.184 0 20.234 6.5039 20.234 14.516 0 8.0117-9.0508 14.516-20.234 14.516-11.18 0-20.203-6.5039-20.203-14.516 0-8.0117 9.0508-14.516 20.203-14.516z" fill="#e8761b" fill-rule="evenodd"/>
</svg>
