<?xml version='1.0' encoding='utf-8'?>
<svg xmlns="http://www.w3.org/2000/svg" width="1056" height="1056" version="1.2" viewBox="0 0 792 792" zoomAndPan="magnify">
 <defs>
  <clipPath id="a" fill="none">
   <path d="m0 5.3203h792v774.68h-792z" fill="none" />
  </clipPath>
 </defs>
 <g id="b" fill="none">
  <g clip-path="url(#a)">
   <path d="m358.99 779.58c-85.082-3.3164-150.45-12.094-184.09-24.73-12.844-4.8203-19.559-10.973-18.145-16.617 1.8906-7.543 18.379-15.02 45.938-20.852 6.8086-1.4336 13.703-3.3438 15.336-4.2344 9.3984-5.125 12.07-6.207 15.402-6.207 2.9766 0 4.2734-0.67188 6.7461-3.4922 6.4492-7.3438 7.0312-9.6289 7.0312-27.391-0.007812-21.953-2.7656-65.574-4.4883-70.832-0.30859-0.91797-1.8125-0.55469-5.6289 1.3867-5.7969 2.9492-13.672 5.2969-17.828 5.3125-3.3516 0.011719-3.3594-0.19531-0.10938-3.6484 1.4375-1.5234 3.9883-5.6602 5.6602-9.2031 2.6406-5.5742 3.1055-7.7695 3.4336-16.41 0.61328-16.168-3-27.582-11.871-37.527-6.1641-6.8984-10.359-13.289-14.246-21.723-3.332-7.2227-3.3438-7.2227-11.027-10.895-18.621-8.8984-34.434-9.6875-48.809-2.4766-19.164 9.6289-23.121 33.668-7.7266 46.852 6.8047 5.8164 13.551 7.9766 25.098 8.0039 9.3555 0.03125 10.297-0.16797 17.398-3.5625 4.1367-1.9688 9.1406-5.2148 11.129-7.2031 4.125-4.1172 4.5508-3.2148 2.168 4.6289-6.4883 21.398-25.434 39.359-49.984 47.387-7.9961 2.6211-11.32 3.1445-22.262 3.5312-7.1797 0.25781-14.809 0.011718-17.281-0.5625-2.4297-0.5625-4.6016-0.86328-4.8086-0.65234-0.19531 0.20703 2.8906 2.0195 6.8672 4.0273 9.0508 4.5508 18.281 13.555 22.527 21.969 1.6914 3.3672 3.082 6.3945 3.082 6.7305 0 0.32422-2.1641-0.98828-4.8047-2.9297-7.8164-5.7422-18.34-10.133-36.852-15.398-18.734-5.3242-30.941-10.414-40.352-16.797-24.098-16.367-40.969-44.207-47.145-77.754-2.3359-12.68-1.5742-44.445 1.3945-58.16 9.8359-45.445 37.402-79.102 82.477-100.66 22.473-10.746 34.828-13.871 54.84-13.871 9.6055 0 16.195 0.57422 23.367 2.0352l9.9805 2.0312 5.9961-6.0195c6.9531-6.9766 7.0039-6.875-4.75-9.5078-12.02-2.7031-26.332-2.3281-38.211 0.98828-40.164 11.203-64.934 9.6992-90.816-5.5312-7.3906-4.3555-20.43-17.477-25.629-25.832l-4.1758-6.668 5.8945 4.8984c21.07 17.547 56.109 28.945 79.605 25.906 7.5156-0.97656 18.895-3.8281 18.152-4.5508-0.1875-0.17578-4.293 0.14844-9.1211 0.73438-9.2773 1.1289-27.738-0.26562-29.715-2.2461-0.54688-0.54688-2.1172-1.0078-3.5039-1.043-1.3828-0.027344-4.9648-0.83984-7.9609-1.7891l-5.4414-1.7305 9.2383-0.68359c5.0742-0.36719 9.7422-0.98828 10.367-1.375s-4.6211-1.4844-11.641-2.457c-14.703-2.0234-20.391-3.6719-28.867-8.3203-16.957-9.3203-28.957-25.512-34.156-46.066-1.793-7.1055-2.0117-10.105-1.5352-21.625 0.35547-8.9844 1.2266-15.973 2.6406-21.285 10.535-39.605 47.82-68.711 79.176-61.816 5.1445 1.1289 11.871 3.9102 11.871 4.9023 0 0.36328-1.8398 0.75-4.0977 0.82813-6.1914 0.25-10.988 1.832-15.531 5.1172-17.262 12.508-14.371 37.258 5.0156 43.031 9.9414 2.9453 17.984 1.6992 35.781-5.543 13.512-5.5039 26.086-9.5117 32.695-10.422 2.5039-0.34766 4.7383-0.92969 4.9766-1.2969 0.22656-0.375-1.8984-3.7617-4.7266-7.5273-11.438-15.242-15.711-28.523-15.77-48.922-0.039063-15.031 1.7695-25.609 5.8555-34.238 1.3828-2.9414 2.582-5.3438 2.6602-5.3438 0.070312 0 0.12891 4.1172 0.12891 9.1523 0 6.5 0.57422 10.879 1.9688 15.09l1.9766 5.9375 0.74219-8.8359c1.5742-18.812 9.707-39.895 20.723-53.746 16.977-21.336 45.102-32.727 68.168-27.59 4.0352 0.89844 8.8945 2.6094 10.793 3.8008l3.4531 2.1641-6.2188 0.73438c-19.887 2.332-32.5 18.633-27.562 35.629 2.0391 6.9922 5.0156 11.328 10.754 15.664 5.8633 4.4219 13.336 7.0664 31.934 11.301 15.391 3.5039 23.938 6.3359 33.176 10.984 10.121 5.0977 22.199 13.617 29.855 21.062l7.6367 7.4297 1.0781-2.8672c0.59766-1.5742 3.9258-9.3359 7.4102-17.242 8.2812-18.785 9.832-24.684 9.7344-37.082-0.097656-12.012-2.543-19.395-8.6055-25.988-7.9023-8.5703-18.688-11.719-30.113-8.7773-8.9141 2.2773-13.82 5.1172-20.219 11.66-3.1172 3.1836-5.8555 5.7852-6.0938 5.7852-0.83984 0 0.5625-8.5508 2.5234-15.34 6.7656-23.512 27.598-41.652 55.871-48.668 9.7461-2.4141 30.953-2.3945 41.398 0.050781 11.219 2.6133 21.605 6.9453 29.926 12.477 3.9453 2.625 7.1719 4.3555 7.1719 3.8398 0-3.2266-7.9336-15.488-13.859-21.414-2.2969-2.2969-3.7227-4.1797-3.1484-4.1797 2.2969 0 16.898 7.4062 22.586 11.461 11.348 8.0781 21.547 21.527 27.324 36.047 2.2812 5.7383 5.25 18.516 8.7344 37.605 0.64453 3.5312 1.4531 13.109 1.7891 21.277l0.625 14.844 1.6602-6.9297c4.1133-17.188 4.582-40.801 1.1094-56.289-1.7227-7.6406-5.7188-17.863-9.793-25.027l-2.7227-4.7812 5.2148 4.9492c11.406 10.828 21.723 30.699 26.383 50.828 4.2148 18.191 4.1367 42.605-0.19531 57.328-0.58594 1.9922 0.48438 1.5742 8.5742-3.3633 5.0859-3.0977 11.711-6.7188 14.719-8.043 32.668-14.402 43.559-25.477 43.559-44.277 0-13.242-5.7891-23.238-16.918-29.215-5.9844-3.2188-6.8633-3.4062-16.223-3.4375-5.4375-0.015625-11.664 0.35156-13.84 0.80469l-3.9336 0.83203 1.9531-2.2188c3.6133-4.0742 13.605-9.8281 21.676-12.477 7.1445-2.3477 9.4688-2.625 21.844-2.5938 12.047 0.027344 14.977 0.36328 22.543 2.6406 31.727 9.5195 56.09 33.281 66.605 64.941 2.6406 7.957 2.7891 9.3438 2.7695 25.73-0.027344 25.797-4.0156 45.492-12.898 63.781l-2.4336 5 2.5312-2.9727c1.3945-1.6289 5.1562-8.0938 8.3398-14.348 14.148-27.719 17.551-54.855 9.9609-79.566l-1.8594-6.0352 2.0781 2.4727c3.1641 3.7617 9.3086 17.398 11.82 26.246 1.8984 6.6797 2.25 10.273 2.2578 23.238 0 12.891-0.35938 16.676-2.2656 23.75-3.0078 11.133-8.5352 22.711-14.77 30.926-2.7891 3.6719-4.7188 6.6797-4.2812 6.6797 0.43359 0 3.875-2.168 7.6367-4.8086 7.2969-5.1289 17.242-15.211 19.711-20 3.4727-6.7031 2.9297-1.4375-1.1758 11.449-2.7891 8.7383-7.3281 16.883-13.996 25.066l-4.3945 5.3867 10.766-0.66406c16.391-1.0195 51.648 0.91797 61.234 3.3633 8.8203 2.2461 19.832 7.1758 26.914 12.035 5.3047 3.6328 14.105 11.586 14.105 12.746 0 0.41406-2.8438-0.67188-6.3398-2.4336-6.7852-3.4141-12.938-5.0664-23.582-6.3477-6.3125-0.75781-8.9531-0.039063-4.7461 1.2969 4.3711 1.3984 17.863 11.176 25.125 18.223 19.914 19.316 31.418 41.562 36.312 70.203 5.9453 34.828-3.3516 70.125-24.594 93.305l-5.082 5.5508 3.9766 5.3359c13.156 17.637 23.602 43 28.094 68.176 2.2266 12.488 3.0781 40.473 1.6016 52.977-3.332 28.242-12.168 53.426-23.758 67.758-2.8711 3.543-6.7852 9.5469-8.7188 13.359-4.8086 9.5-10.02 16.891-16.055 22.762l-5.0859 4.9453 2.375-5.4414c1.3047-2.9883 2.6523-6.8984 2.9961-8.668 0.60547-3.1367 0.40625-3.0195-6.3555 3.6875-12.219 12.098-27.047 20.547-44.418 25.316-11.672 3.207-33.297 4.375-45.199 2.457-19.211-3.1016-36.473-11.492-54.219-26.355-7.5586-6.3242-21.871-14.262-28.59-15.844l-2.8672-0.67578 0.69141 5.2148c1.0391 7.8125 0.78125 29.148-0.4375 36.035-0.59375 3.3242-1.9688 9.0938-3.0547 12.828-1.0977 3.7188-1.8477 6.9062-1.6719 7.0742 0.17969 0.16797 6.7656 1.4844 14.66 2.9297 41.586 7.6016 63.312 16.941 63.312 27.203 0 6.5547-14.199 14.48-36.109 20.172-28.648 7.4414-81.691 14.727-127.61 17.535-16.68 1.0078-97.113 1.9688-113.27 1.3359m-74.301-29.918c3.6875-2.7617 4.0664-6.5586 1.0273-10.43-2.582-3.2695-4.8672-3.2969-7.875-0.097656-1.8477 1.9688-2.4414 3.8789-2.7578 8.8867-0.57422 9.0742 0.089844 10.309 3.6797 6.7656 1.5742-1.5508 4.2422-3.8555 5.9258-5.125m-17.641-1.6523c4.3438-5.7422 5.6602-9.7578 3.8867-11.887-1.9883-2.4023-5.5273-1.7305-8.3047 1.5742-2.168 2.5742-2.5664 4.0078-2.5664 9.3125 0 3.4531 0.28906 7.0352 0.64453 7.957 0.58594 1.5352 0.72266 1.5156 1.6211-0.16797 0.53516-1.0078 2.6602-4.0664 4.7188-6.7891m147.2-0.625c6.3984-5.3711 2.3047-14.031-5.2617-11.133-2.8711 1.0977-4.4922 5.8984-4.4922 13.262v7.0469l3.3203-3.2852c1.832-1.8125 4.7227-4.4648 6.4336-5.8906m-158.14-9.668c0-3.4844-1.207-4.4609-4.4922-3.6406-3.7773 0.94922-5.7266 4.8711-5.668 11.41 0.10938 10.699 0.87109 11.055 5.7969 2.6406 2.5117-4.3008 4.3633-8.707 4.3633-10.41m136.52 14.391c0-0.68359 2-4.0859 4.4531-7.5586 6.3906-9.0742 5.7656-14.727-1.3555-12.262-4.8281 1.6719-7.2422 10.094-5.4531 19.051 0.58594 2.8867 2.3555 3.4609 2.3555 0.76953m-13.281-3.8516c0.37109-1.2227 1.957-3.6797 3.5117-5.4609 4.8633-5.5781 4.8945-11.203 0.046876-11.926-3.9883-0.59375-8.1133 9.7695-6.5977 16.629 0.77344 3.5391 2.0664 3.8594 3.0391 0.75781m-144.99-2.1641c0-0.78516 1.7812-3.4844 3.9453-5.9883 5.9844-6.9102 6.7383-12.609 1.7539-13.18-3.168-0.36719-7.2422 3.1758-8.2422 7.1641-0.82031 3.2734 0.40625 13.43 1.625 13.43 0.5 0 0.91797-0.64453 0.91797-1.4258m-9.2969-7.9297c3.5781-4.8164 4.5781-8.7578 2.8281-11.16-1.6719-2.2852-6.3516-0.71094-8.082 2.7227-1.3359 2.6289-1.7109 11.559-0.60156 14.438 0.62891 1.6641 0.71875 1.6523 1.7305-0.070312 0.58203-0.98828 2.4336-3.6602 4.125-5.9297m209.37 2.6836c-2.8555-0.19531-7.5273-0.19531-10.383 0-2.8594 0.19922-0.51562 0.36719 5.1953 0.36719 5.7031 0 8.0508-0.16797 5.1875-0.36719m83.309-4.0742c2.6992-1.4375 7.6758-5.1953 11.07-8.3633 4.875-4.5547 7.0703-7.6406 10.535-14.844 7.9336-16.48 10.152-30.84 8.5781-55.609-1.5742-24.852-4.4844-37.398-14.441-62.262-12.766-31.824-29.758-60.715-53.746-91.332-11.012-14.051-37.574-40.461-50.008-49.715-16.133-12.008-27.047-20.703-38.324-30.543-5.8438-5.0938-10.633-8.9062-10.621-8.4492 0.007813 2.0859 18.23 22.324 33.316 37.023 16.312 15.891 15.492 16.109-2.168 0.5625-4.8945-4.3047-12.355-11.184-16.57-15.262-4.2148-4.0859-7.6641-7.0859-7.6641-6.6602 0 1.6328 11.711 15.352 23.168 27.145 7.6367 7.8594 10.168 10.906 7.0039 8.4336-12.031-9.3906-22.477-18.98-30.145-27.68-4.5508-5.1562-8.418-9.3711-8.5938-9.3711-0.73438 0 6.3672 10.902 11.602 17.812 5.4688 7.2148 15.641 17.555 22.684 23.07 5.6758 4.4414-0.15625 1.7383-6.9844-3.2383-7.7578-5.6484-21.961-20.543-27.641-28.984-4.6367-6.8984-6.7148-8.6289-4.7461-3.9609 2.8281 6.6914 10.543 18.566 16.965 26.105 4.6484 5.4648 5.9727 7.4961 3.9453 6.0508-6.9414-4.9492-18.281-19.191-26.656-33.504-0.94141-1.6016-1.3164-0.9375-2.6016 4.5625l-1.5156 6.4336-0.10938-9.5977c-0.13672-10.906-2.3438-29.223-4.543-37.645-2.4805-9.5117-7.0195-18.566-9.3047-18.566-2.5859 0-3.4258 1.4727-2.1797 3.8086 2.2578 4.207 5.8477 18.953 6.4219 26.375l0.625 7.918-2.3086-7.4219c-2.2734-7.3125-7.3867-18.379-8.1484-17.629-0.20703 0.22266 0.69141 3.7852 2.0078 7.918 2.2461 7.0898 4.543 20.941 4.3828 26.508-0.0625 2.2812-0.14062 2.332-0.92188 0.52344-0.46484-1.0898-0.87891-3-0.91797-4.2383-0.082031-2.4336-5.9648-18.406-6.5586-17.801-0.19922 0.19531 0.50391 4.5703 1.5625 9.7148 1.9883 9.6016 2.5039 24.594 0.96875 28.156-0.59375 1.3867-0.87109-0.007812-0.91797-4.5938-0.070312-6.6602-2.7617-17.07-5.6016-21.633-0.98047-1.582-1.2656-1.7617-0.80078-0.49609 0.39453 1.0898 0.92188 7.1367 1.1562 13.441 0.4375 11.609-1.3047 22.762-3.918 25.145-0.76953 0.70312-0.92969 0.53516-0.54297-0.57031 2.1953-6.3047 1.3672-25.207-1.293-29.441-0.75391-1.2188-0.86328-0.55469-0.40625 2.5508 0.78906 5.2852-2.0664 23.879-4.582 29.887l-1.8867 4.5156 0.73828-6.9297c0.86328-8.0469 0.49609-20.426-0.65234-21.574-0.42578-0.4375-1.0469 2.2383-1.3633 5.9375-0.77344 8.8867-8.8164 36.062-10.25 34.629-0.24609-0.24609 0.25781-3.4844 1.1172-7.207 2.3359-10.043 3.4531-19.117 2.6328-21.332-0.52344-1.4297-1.6133 1.2461-3.9688 9.7266-3.1523 11.391-10.66 32.473-9.4531 26.543 0.33203-1.6328 1.2344-5.8594 1.9883-9.4023 0.76172-3.543 1.6211-9.5508 1.9062-13.363l0.52344-6.9258-3.5508 9.4023c-1.957 5.1758-5.0547 14.301-6.9023 20.285-3.6602 11.918-4.4414 10.5-1.9805-3.582 0.80078-4.5625 1.7109-9.8555 2.0273-11.758l0.57422-3.4609-2.0391 3.6797c-1.1133 2.0312-3.4609 7.8203-5.1914 12.867-2.8477 8.293-3.1562 10.332-3.1875 21.059-0.039062 14.352 0.91406 18.16 9.7852 39.469 3.6016 8.6445 6.4023 16.16 6.2227 16.691-0.51562 1.5352-12.109-23.594-14.965-32.41-3.207-9.8867-5.5352-23.324-5.6523-32.539-0.066407-5.9375-0.22656-6.582-1.0195-4.0781-3.6562 11.617-1.1445 33.156 6.0664 51.957 6.1914 16.168 6.9844 19.941 7.5859 36.617 0.72266 19.742-2.5781 52.934-10.168 101.93-5.5586 35.953-8.7773 44.539-18.488 49.363-2.6133 1.2852-4.5898 2.5039-4.3945 2.6875 1.0312 1.0312 8.3008-2.1758 11.516-5.0859 8.2812-7.4805 11.438-19.246 20.953-78.145 6.2305-38.516 8.8438-53.301 9.5352-53.934 1.0312-0.9375-3.3516 55.965-5.2539 68.281-0.38281 2.457-0.40234 4.1953-0.066407 3.8789 0.34766-0.30469 2.6211-12.113 5.0664-26.223 2.4414-14.102 5.5156-30.996 6.8359-37.527l2.3906-11.875 0.097657 7.5c0.050781 4.1289-1.0273 16.566-2.4023 27.641-2.3047 18.566-2.7695 27.137-1.0273 18.793 0.39453-1.8984 2.8945-13.477 5.5586-25.73 2.6523-12.25 5.4922-25.609 6.3125-29.688l1.4844-7.4219-0.46875 10.887c-0.25391 5.9844-1.5703 18.426-2.9258 27.641-1.3672 9.2148-2.4336 17.227-2.375 17.812 0.14844 1.6836 4.5-16.418 7.7578-32.246 1.6406-7.9609 3.3008-19.543 3.6992-25.727 0.70312-10.789 0.75781-11.016 1.5312-5.793 0.43359 2.9922 0.52344 11.234 0.1875 18.312-0.33594 7.0742-0.35547 12.617-0.046875 12.32 1.6211-1.582 3.5898-21.07 3.6992-36.57 0.097657-14.375 0.28516-16.395 1.0664-11.875 0.51562 2.9883 0.73438 12.789 0.47656 21.773-0.46484 16.34-1.8711 24.523-6.2617 36.301-0.85156 2.2656-1.3359 4.7188-1.0898 5.4414 0.69531 1.9922 7.625-20.188 9.6445-30.855 3.6523-19.199 3.4727-33.746-0.57422-47.918-0.76172-2.6836-1.2461-5.0156-1.0664-5.1875 0.17969-0.17578 1.5234 2.625 3.0078 6.2266 3.9453 9.6289 5.2617 23.434 3.8281 40.129-1.0586 12.246-4.8281 31.789-8.5469 44.34-2.5938 8.7344-1.7812 8.9141 2.3242 0.51172 8.8555-18.09 14.441-43.383 13.57-61.355-0.55078-11.383-1.6914-15.77-7.5469-29.098-1.7305-3.9688-2.9688-7.3906-2.7383-7.6211 0.22656-0.22656 2.375 3.2578 4.7656 7.7422 3.8086 7.1133 16.008 21.691 17.125 20.453 0.19531-0.20703-3.1367-7.5117-7.4102-16.219-7.0039-14.301-11.859-26.512-11.734-29.551 0.023438-0.61328 1.418 1.5469 3.0898 4.8125 3.8477 7.5273 8.7461 13.574 13.234 16.355 1.9414 1.1992 3.6914 2.0117 3.8906 1.8008 0.20312-0.20703-1.1719-2.8203-3.0508-5.7969-4.0938-6.4844-6.8555-14.977-8.8242-27.148-1.4023-8.6367-1.9883-20.207-0.96875-19.195 0.26953 0.27734 1.3867 4.0273 2.4844 8.3281 1.9102 7.4961 8.4648 22.941 9.3555 22.051 0.23828-0.22656 0.03125-3.5234-0.45312-7.3125-1.2461-9.8242-3.1055-35.301-2.6133-35.805 0.23828-0.22656 1.1992 1.9492 2.1484 4.8477 1.9375 5.9102 9.1797 20.781 13.117 26.93 8.9141 13.934 24.105 30.262 36.977 39.742 11.148 8.2031 19.566 12.527 50.047 25.715 7.2305 3.125 12.938 5.8867 12.691 6.125-0.74219 0.75-27.836-8.3555-39.371-13.223-12.02-5.0781-25.699-13.578-35.18-21.863-3.4023-2.9648-10.691-10.824-16.191-17.438-13-15.637-13.137-15.773-11.781-12.18 2.1172 5.6406 13.008 20.188 21.199 28.305 16.035 15.891 32.375 25.074 61.461 34.535 9.7852 3.1758 19.348 6.5625 21.246 7.5234 5.5508 2.8008 17.336 12.133 21.043 16.664 3.6016 4.4062 9.625 13.785 9.625 14.992 0 0.39844-2.7773-1.8125-6.1836-4.8984-8.3086-7.5508-22.148-15.566-33.484-19.387-17.332-5.8477-38.887-4.957-53.004 2.1758-12.492 6.3242-23.633 19.379-28.625 33.551-2.1602 6.125-2.7031 9.6992-3.1016 20.465-0.43359 11.918-0.24609 13.828 2.1094 22.039 5.0547 17.617 14.918 32.273 28.402 42.18 6.3789 4.6797 6.7969 4.2539 1.4023-1.4453-10.652-11.25-20.355-29.562-23.344-44.012-2.7812-13.504-2.2852-24.117 1.7227-36.566 2.0859-6.4609 2.4023-5.5039 0.75 2.2852-2.5312 12.016-0.88281 34.363 2.8281 38.102 0.64453 0.65234 0.73047-0.019532 0.25781-1.9766-1.4844-6.1445-0.59375-26.504 1.4844-34.027 2.0391-7.3516 7.3008-19.906 8.3398-19.906 0.31641 0-0.30469 1.7188-1.375 3.8164-8.0703 15.836-8.9609 42.406-2.0312 60.398 3.457 8.9688 5.8398 11.965 3.0391 3.8281-4.8867-14.199-5.3984-37.863-1.0898-50.043 1.2188-3.4258 2.3477-6.0977 2.5156-5.9297s-0.57422 3.8711-1.6523 8.2148c-3.8359 15.48-1 34.715 7.7344 52.441 12.613 25.59 39.375 44.434 68.148 48.016 10.805 1.3477 23.012-0.125 32.883-3.9688l7.3789-2.8594-2.6719 2.793c-4.9141 5.125-21.781 11.883-29.883 11.973-2.1953 0.019531-2.4844 0.23828-1.2773 0.94141 4.0469 2.3633 22.555-2.6445 31.586-8.543l5.4414-3.5508-4.9453 5.293c-2.7188 2.9102-5.1719 5.4141-5.4414 5.5625-0.26562 0.15625-2.2734 1.4141-4.4531 2.7891-5.1211 3.2656-1.0469 2.2969 5.8984-1.3906m-226.64-0.66797c-0.625-1.6289-3.4453-3.4336-5.375-3.4336-0.88281 0 4.0938 4.2266 5.7383 4.8594 0.12109 0.050781-0.050781-0.59375-0.36328-1.4258m37.984-5.9453c2.4609-2 3.2148-3.3867 3.2148-5.918 0-6.6328-5.4492-7.8906-9.0039-2.0703-1.2734 2.0977-1.8672 4.9297-1.8789 8.8711v5.7969l2.2266-2.0391c1.2266-1.1172 3.668-3.207 5.4414-4.6406m-12.258-5.1055c1.7812-3.4766 2.1367-7.7773 0.72266-8.6523-2.8867-1.7891-5.1328 2.5742-6.5977 12.809l-0.71484 4.9492 2.4844-2.9727c1.3672-1.6289 3.2148-4.3906 4.1055-6.1328m102.09 7.0938c-1.0547-0.80078-2.8359-1.4336-3.957-1.4062-1.6289 0.03125-1.4531 0.30859 0.92969 1.3984 3.9414 1.8125 5.4141 1.8125 3.0273 0.007813m-141.27-1.207c0.27734-0.82031-0.66406-1.2344-2.7617-1.2344-2.7383 0-3 0.20703-1.8984 1.5195 1.4336 1.7344 4.0469 1.5742 4.6602-0.28516m-16.156-0.87891c0.85156-2.2305 0.40625-2.4531-3.375-1.6953-3.0273 0.60547-3.1367 0.75391-1.4531 1.9805 2.4336 1.7812 4.0664 1.6836 4.8281-0.28516m130.6-2.8594c2.5234-1.9141 7.9336-1.8516 10.93 0.11719 1.3867 0.91016 2.9297 1.2344 3.6719 0.77344 0.70312-0.42578 8.3398-0.88281 16.965-1.0117 14.316-0.19531 17.59-0.55078 16.383-1.7617-0.80859-0.80859-51.996-0.89062-53.301-0.085937-1.0469 0.65234-0.9375 1.0859 0.50391 2.1445 2.2383 1.6445 2.4531 1.6328 4.8477-0.17578m-157.1-5.1484 3.8281-1.6992-3.3555-0.34766c-1.8359-0.1875-4.4492-0.070312-5.8047 0.27344-2.3555 0.58594-2.375 0.67578-0.60156 2.0195 1.0156 0.77344 1.9062 1.418 1.9766 1.4375 0.070312 0.019531 1.8477-0.74219 3.957-1.6836m11.25 0.72266c0-0.54297-1.2305-0.98047-2.7227-0.96875-2.1172 0.007812-2.3945 0.21484-1.2383 0.96875 1.9414 1.25 3.9609 1.25 3.9609 0m5.832-7.4609c4.3711-4.9883 8.6484-13.926 9.9023-20.723 1.3672-7.375 1.4062-48.492 0.0625-67.625-1.1562-16.586-4.1953-37.883-4.75-33.34-0.19922 1.6289 0.16016 10.844 0.78125 20.473 1.8086 27.629 2.8516 72.156 1.8398 78.586-1.5625 9.9336-7.457 20.812-13.176 24.305l-2.9688 1.8086 2.6211 0.011719c1.7617 0 3.6211-1.1484 5.6914-3.5039m82.695 0.53516c-0.33594-0.54297-1.1367-0.98047-1.7891-0.96875-0.70312 0-0.58594 0.39453 0.30469 0.96875 1.8984 1.2266 2.2461 1.2266 1.4844 0m-10.879-2.9688c0.34375-0.5625 5.8047-1.0312 12.668-1.0898 6.6289-0.050781 13.168-0.45703 14.535-0.89062 1.4648-0.46484-4.4727-0.82812-14.535-0.89062-16.422-0.097656-20.23 0.55469-16.398 2.7812 2.2344 1.2969 2.9648 1.3164 3.7266 0.089844m-31.477-3.1562c-0.31641-0.79297-0.54297-0.55469-0.59375 0.60156-0.039063 1.0391 0.1875 1.625 0.51562 1.2969 0.33594-0.32813 0.36328-1.1875 0.078125-1.8984m0.99219-3.9609c-0.32031-0.78906-0.54688-0.55469-0.59766 0.60547-0.039063 1.0391 0.19141 1.6211 0.51562 1.2969 0.33594-0.32812 0.36719-1.1875 0.082031-1.9023m0.96875-5.0078c-0.27734-0.68359-0.49609-0.12891-0.49609 1.2383 0 1.3672 0.21875 1.918 0.49609 1.2383 0.27734-0.68359 0.27734-1.793 0-2.4766m1.0156-5.4219c-0.24609-0.96094-0.46484-0.41406-0.49219 1.2188-0.023438 1.6328 0.1875 2.4219 0.46484 1.75 0.26563-0.67188 0.28516-2.0078 0.027344-2.9688m47.523-4.1094c-4.1836-4.6289-8.1602-11.277-11.148-18.621l-2.2148-5.4531-2.1953 5.7969c-1.2188 3.1875-3.4609 9.4648-4.9961 13.953l-2.7891 8.1641h26.805l-3.4609-3.8398m-46.562-1.3516c-0.27734-0.68359-0.49609-0.12891-0.49609 1.2344 0 1.3672 0.21875 1.9219 0.49609 1.2383s0.27734-1.793 0-2.4727m1.0078-4.8906c-0.31641-0.78906-0.54297-0.55469-0.59375 0.60156-0.039062 1.0391 0.19141 1.625 0.51562 1.2969 0.33594-0.32422 0.36719-1.1875 0.078125-1.8984m378.07-8.1719c7.1797-1.9219 14.957-5.832 20.91-10.539 5.8398-4.6133 6.4609-6.6602 1.2305-3.9922-4.1094 2.0977-19.809 7.0859-22.062 7.0078-0.78906-0.019531 0.65234-1.1289 3.1953-2.4531 2.5508-1.3281 4.9062-2.8711 5.2539-3.418 0.76953-1.2461 1.0859-1.2734-5.4297 0.47656-7.8359 2.0977-22.637 1.8711-31.656-0.49219-8.7852-2.3086-8.1797-2.2266-7.4102-0.98047 1 1.6211 8.3477 5.1055 15.816 7.5l6.9258 2.2266-9.3984 0.070313c-9.4375 0.078124-21.652-2.1484-29.211-5.3047-5.9336-2.4727-2.6992 0.29688 4.6758 4.0078 3.8516 1.9414 10.152 4.3555 14.031 5.3633 8.7148 2.2852 25.504 2.5547 33.129 0.52734m30.941-7.3047c4.0273-2.6328 8.1523-6.0586 9.1719-7.6133 1.7891-2.7305 1.7109-2.7109-2.5039 0.69531-2.3828 1.9297-6.9023 5.1953-10.031 7.2539-3.125 2.0469-5.6875 3.8906-5.6875 4.0859 0 1.0781 2.4805-0.14062 9.0508-4.4258m-39.719-14.703c-13.203-2.207-29.613-10.898-42.051-22.258-7.1133-6.5-5.5586-3.1367 2.5625 5.5508 10.605 11.332 23.188 17.438 35.535 17.23 3.5391-0.058594 5.3203-0.29688 3.9531-0.52344m84.555-20.355c3.0391-3.3984 6.6562-8.1758 8.043-10.633l2.5234-4.4492-3.2578 3.957c-1.7773 2.1758-7.4883 8.3711-12.68 13.758-8.1211 8.4414-8.7969 9.3711-4.7891 6.668 2.5625-1.7227 7.1328-5.9062 10.16-9.3008m-45.246 5.6211c30.883-6.3828 52.895-26.602 63.469-58.312 5.4023-16.199 5.9844-36.672 1.5547-54.43-3.0508-12.16-13.703-31.488-22.539-40.82-1.668-1.7734-2.5195-3.2188-1.8867-3.2188 2.0859 0 17.727 16.211 21.883 22.676 2.2344 3.4805 4.0625 5.5898 4.0625 4.668 0-2.4531-5.293-13.676-8.9805-19.039-4.7695-6.9375-16.047-18.469-22.207-22.723-2.9805-2.0508-5.4141-3.8789-5.4141-4.0703 0-0.18359 1.5156 0.28906 3.375 1.0742 5.6289 2.3516 13.582 7.9062 20.613 14.395 3.6719 3.3867 6.6797 5.8984 6.6797 5.5742 0-0.32812-2.5312-4.6836-5.6172-9.6914-10.152-16.406-25.555-29.668-48.258-41.531-6.0039-3.1484-10.543-5.7188-10.098-5.7422 0.45312-0.007813 4.4219 0.90234 8.8125 2.0195 8.8516 2.2656 19.301 6.9453 27.215 12.215 2.8594 1.8984 5.1953 3.0742 5.1953 2.6289 0-1.6719-13.527-13.398-21.219-18.398-10.883-7.0625-18.688-10.855-30.551-14.82-16.016-5.3672-26.312-6.8906-46.164-6.8203-15.441 0.046875-18.352 0.32422-26.93 2.6328-9.8125 2.6328-16.539 5.3711-9.6758 3.9297 1.9023-0.39453 10.371-0.72266 18.797-0.72266 13.266 0 16.312 0.30469 22.613 2.2852 3.9961 1.2578 7.1133 2.4453 6.9258 2.6328-0.19531 0.19531-4.3594-0.089844-9.2578-0.63281-15.156-1.6758-34.062 1.3828-47.969 7.75-8.3125 3.8086-16.188 8.2305-15.629 8.7969 0.20703 0.19531 3.75-0.70312 7.875-2.0195 4.125-1.3086 9.8984-2.6445 12.82-2.9688 2.918-0.31641 6.9805-0.79297 9.0195-1.0508 2.1562-0.26562 3.7109-0.046875 3.7109 0.53516 0 0.54688-0.66406 1-1.4766 1-3.082 0-21.109 6.3438-28.199 9.9258-14.941 7.5508-29.914 19.934-41.449 34.273-11.508 14.32-11.227 15.504 0.94922 3.9258 13.887-13.191 25.035-21.66 36.344-27.609 11.199-5.8984 27.023-10.637 37.293-11.184l7.9141-0.41797-7.9141 1.8711c-16.48 3.9102-30.508 9.75-42.34 17.617-7.8125 5.1953-27.062 24.027-34.777 34.023-4.6523 6.0273-4.3164 5.7812 6.5352-4.5898 24.367-23.289 48.156-35.461 73.465-37.57 9.8438-0.82031 11.473 0.80078 1.8477 1.832-13.492 1.4336-31.508 8.4844-44.922 17.559-11.59 7.8359-38.836 36.238-45.652 47.57-1.8594 3.0977-1.7578 3.0469 1.3633-0.63281 21.906-25.801 37.844-39.051 57.656-47.949 10.523-4.7188 20.082-7.0469 30.785-7.4922l9.8906-0.41406-8.9023 1.8398c-28.23 5.8398-47.266 17.359-69.516 42.07-8.7773 9.7461-16.469 19.398-15.383 19.277 0.44531-0.039062 4.5781-4.3438 9.1992-9.5625 9.9922-11.289 20.082-20.117 32.082-28.043 22.109-14.617 50.371-19.379 72.801-12.273 20.594 6.5234 37.254 20.574 46.336 39.082l4.6094 9.4023v11.875c0 10.867-0.23047 12.363-2.7031 17.652-1.4922 3.1797-4.082 7.5117-5.7773 9.6523-1.6797 2.1289-2.5625 3.8711-1.9453 3.8711 2.4219 0 10.789-9.8281 13.945-16.391 2.8867-6.0078 3.3555-8.0742 3.7188-16.547 0.34766-8.0938 0.050781-10.809-1.8281-16.645-2.9688-9.2266-8.4883-17.598-17.441-26.426-4.0352-3.9766-6.5195-6.7969-5.5391-6.2734 3.918 2.0977 18.727 18.754 21.684 24.387 5.4805 10.41 7.5977 19.246 6.9844 29.055-0.87109 13.922-5.4414 23.848-15.523 33.719l-4.4805 4.3906 4.2539-2.375c9.2109-5.1367 17.926-16.844 22.07-29.656l1.7617-5.4453 0.058593 5.6016c0.10938 11.449-5.5977 23.473-15.402 32.441-18.508 16.922-46.672 18.613-68.832 4.1445-9.6914-6.332-16.023-14.152-19.617-24.246-1.7891-5.0273-1.7969-5.0352-1.875-1.5938-0.21094 10.016 7.1289 25.641 17.062 36.32 5.1719 5.5625 5.5977 6.2734 2.8008 4.6602-10.34-5.957-21.914-24.113-24.258-38.039-1.418-8.4023-2.6016-7.3047-2.6016 2.4023 0 12.758 5.9062 28.395 15.195 40.223 8.8633 11.277 27.668 23.652 40.695 26.746 2.7188 0.65625 9.625 1.1797 15.332 1.1797 30.715-0.019531 59-16.844 73.512-43.734 4.9648-9.2031 8.5664-22.406 9.3359-34.23 0.71484-10.934 1.9102-9.2539 2.0977 2.9727 0.20703 12.684-4.7188 28.309-12.531 39.75-4.5312 6.6328-17.273 19.25-24.246 23.992-13.008 8.8438-30.832 14.031-48.168 14-17.141-0.019531-24.926-1.9102-39.566-9.6094-7.75-4.0664-8.1445-4.1758-4.9492-1.3867 5.4922 4.793 14.562 9.5703 24.73 13.008 8.5586 2.8867 10.508 3.1719 21.766 3.2148 24.762 0.058594 42.715-7.582 63.824-27.168l6.8047-6.3203-4.2344 6.0938c-17.695 25.465-59.133 37.836-90.988 27.156-15.609-5.2344-27.047-12.125-35.949-21.652-4.918-5.2656-11.031-14.23-12.703-18.648-0.55078-1.4414-1.2852-2.3438-1.6328-1.9961-1.0391 1.0391 7.2109 16.605 11.598 21.871 7.5938 9.1133 22.73 19.852 33.648 23.871 15.109 5.5586 33.684 6.9961 49.148 3.8008m-104.59-15.016c-1.5938-3.125-3.1289-6.4727-3.4062-7.4414-0.27344-0.96094-1.582-2.1602-2.9062-2.6602-3.6406-1.3789-16.293-3.8633-22.922-4.4961-5.6094-0.54297-5.4492-0.44531 3.5117 1.9531 17.172 4.5898 18.637 5.25 21.438 9.7734 2.3438 3.7812 6.2031 8.5625 6.9062 8.5625 0.15625 0-1.0195-2.5625-2.6211-5.6914m-6.9258-17.941c0-0.47656-0.55469-1.3242-1.2344-1.8906-1.8906-1.5742-17.035-4.1758-23.852-4.0977l-6.0742 0.0625 10.883 2.3125c5.9844 1.2773 12.66 2.7617 14.836 3.3047 5.2734 1.3086 5.4414 1.3164 5.4414 0.30859m-521.33-3.4453c0-0.19922-2.9375-2.2539-6.5195-4.582-7.5977-4.9102-20.773-17.605-27.512-26.504-9.7031-12.812-15.648-29.605-17.598-49.668-1.168-12.043-0.30469-22.969 2.7617-35.172 2.2656-9.0156 10.516-25.137 17.023-33.289 8.4766-10.609 11.395-12.629 4.2539-2.9414-7.2617 9.8477-12.84 21.027-16.578 33.262-2.5234 8.2539-2.7227 10.145-2.7031 25.73 0.019531 15.391 0.24609 17.566 2.6797 25.523 2.3281 7.6094 8.9141 22.473 9.9727 22.473 0.19922 0-0.87891-3.2227-2.4141-7.1719-4.8164-12.441-6.2109-21.891-5.6172-38.242 0.32422-8.9531 1.1484-16.715 2.1758-20.395 4.0273-14.43 14.184-31.094 25.324-41.566l5.2617-4.9453-3.9453 4.4492c-10.645 11.996-18.512 25.793-22.418 39.301-1.8867 6.5195-2.2227 10.074-2.2227 23.051 0 13.031 0.33594 16.516 2.2539 23.156 6.4688 22.375 20.754 41.633 37.098 50.027 6.6289 3.4023 5.5 2.1055-4.2852-4.9023-7.6055-5.4609-16.48-15.812-21.062-24.594-11.898-22.801-12.129-52.664-0.58203-76.969 4.6875-9.8867 16.266-24.57 23.109-29.324 2.2227-1.5352 1.6914-0.66016-1.9805 3.2891-2.75 2.957-7.3594 8.8867-10.238 13.16-10.754 15.953-14.926 28.91-14.926 46.246 0 16.824 4.1133 31.449 12.332 43.84 4.8906 7.375 7.2344 9.0469 3.1367 2.2578-1.8281-3.0469-4.7969-9.8867-6.5977-15.219-2.8398-8.4023-3.3242-11.352-3.707-22.238-0.33984-9.5391-0.039062-14.398 1.2539-20.289 2.9492-13.379 10.586-27.582 20.684-38.449 4.5234-4.8672 4.5039-4.8164-1.9062 4.9219-13.09 19.871-16.867 31.656-16.027 50.008 0.59375 12.902 3.3359 22.828 9.2227 33.391 4.9336 8.8438 5.6875 8.4688 1.8594-0.94141-1.832-4.4961-3.7891-11.066-4.3633-14.605-1.4648-9.1094-1.2656-24.031 0.43359-32.164 1.5859-7.6133 9.043-23.715 12.387-26.742 1.5625-1.4141 1.0781 0.03125-1.8398 5.4844-6.5391 12.219-8.5664 20.297-8.5664 34.121 0 9.6797 0.42578 13.254 2.3164 19.301 6.5586 20.996 20.277 35.934 40.535 44.117 6.9141 2.8008 23.359 4.918 26.961 3.4844 2.2031-0.88281 2.0938-0.97266-1.3477-1.0312-6.6797-0.10938-18.836-3.125-25.93-6.4336-23.105-10.766-36.105-31.023-36.105-56.277 0-10.609 1.4414-16.965 5.9141-25.922 5.5039-11.047 8.9531-15.09 4.4609-5.2422-4.875 10.715-6.7148 18.621-6.7227 28.992-0.03125 18.051 5.7539 30.562 20.117 43.547 2.8516 2.5703 2.6719 2.168-1.2656-2.9727-9.7109-12.645-13.059-23.461-12.395-40.137 0.35547-9.1523 0.79297-11.27 3.5117-17.09 7.7188-16.488 20.816-27.504 39.824-33.473 10.508-3.3047 32.113-3.2852 44.438 0.023437 4.6016 1.2344 9.1641 2.6797 10.141 3.2031 1.1758 0.625 1.7812 0.60547 1.7812-0.054688 0-1.3594-12.008-7.3438-18.695-9.3359-19.598-5.8203-41.797-3.2852-60.297 6.8867-8.4844 4.6719-6.0508 1.8633 3.957-4.5703 12.547-8.0469 28.629-12.738 44.367-12.926l9.3984-0.11719-5.4414-1.3672c-14.945-3.75-30.625-2.5312-46.441 3.6133-4.0469 1.5742-7.5391 2.6914-7.75 2.4766-0.90625-0.91406 18.809-9.6602 26-11.531 11.039-2.8711 29.676-2.9297 40.062-0.12891 4.0781 1.0977 7.5977 1.8398 7.8047 1.6328 0.57422-0.54297-7.9219-4.0391-16.016-6.5938-9.9727-3.1328-33.09-3.125-44.188 0.011719-4.0664 1.1562-7.5273 1.9609-7.6875 1.8008-0.75-0.74219 12.277-5.7773 18.27-7.0664 14.852-3.1758 37.266-2.6602 47.922 1.0977 3.7266 1.3203 3.9258 1.2969 2.668-0.21484-2.2227-2.6836-14.473-8.0664-22.355-9.8164-5.4219-1.207-10.574-1.5352-19.645-1.2305-13.844 0.45703-13.93-0.36719-0.28906-2.7383 11.102-1.9414 24.336-1.4258 35.762 1.3945 4.2344 1.0391 7.8945 1.5625 8.1484 1.1484 0.68359-1.1094-11.898-7.3945-19.793-9.8867-4.918-1.5469-10.504-2.3359-19.27-2.7109-13.562-0.58594-13.504-1.6836 0.15625-2.7617 9.2188-0.73047 21.664 0.68359 30.609 3.4648 6.0352 1.8789 7.9844 1.3516 5.2344-1.3867-2.4531-2.4648-7.0859-4.6211-16.238-7.5898-5.9102-1.9102-7.5273-2.7305-5.4375-2.7812 4.9453-0.10938 15.598 1.832 19.547 3.5508 2.0469 0.89062 4.0352 1.3164 4.4102 0.93359 2.2891-2.2773-7.3672-8.1758-17.289-10.57-4.7383-1.1406-5.1836-1.4141-2.7109-1.6758 1.6328-0.16797 6.3125 0.39062 10.387 1.2383 10.645 2.207 10.387 2.207 10.387 0.019531 0-1.4648-1.4062-2.543-5.4414-4.1758-6.0625-2.4531-4.5586-3.0859 1.9102-0.80078l4.1445 1.4531 1.4258-3.4023c0.78125-1.8828 1.4219-4.0195 1.4219-4.7617 0-1.4062-15.074-6.4531-26.215-8.7656-7.9844-1.6641-28.203-1.6367-35.879 0.058594-3.4219 0.75391-6.0039 1.5703-5.7578 1.8203 0.24609 0.24609 5.0352 0.82031 10.656 1.2852 6.4297 0.52344 14.047 1.9883 20.574 3.9414 10.465 3.125 16.285 5.6289 10.406 4.4609-1.6328-0.32812-10.316-0.85156-19.289-1.1758-19.16-0.68359-26.777 0.26562-41.422 5.1641-23.145 7.7422-39.152 19.281-52.754 38.043l-3.2227 4.4531 6.2695-5.4414c9.875-8.5703 11.742-9.9492 19.777-14.539 6.8242-3.9023 22.582-9.8477 23.539-8.8789 0.22266 0.21875-2.8438 2.2969-6.8125 4.6328-16.246 9.5508-26.867 19.051-38.094 34.051-16.648 22.25-24.012 43.812-24.012 70.336 0 27.332 7.4297 48.828 23.988 69.434 7.1133 8.8359 14.859 15.18 24.812 20.324 6.7461 3.4844 8.5781 4.207 8.5781 3.4062m518.01-10.211c-1.4336-1.4375-9.5742-2.2383-21.91-2.1602-14.441 0.10156-13.98 0.51563 2.9648 2.6719 4.3555 0.55469 10.371 1.8086 13.355 2.8125l5.4414 1.8008 0.32812-2.3164c0.16797-1.2773 0.097656-2.543-0.17969-2.8086m-0.43359-19.863c0.39453-13.648 0.78125-16.559 3.125-23.387 1.4766-4.2852 2.543-7.918 2.3945-8.0547-0.16016-0.14062-3.6289 0.61328-7.707 1.6797-6.7148 1.7539-27.195 10.551-26.402 11.344 0.17578 0.1875 2.9102-0.57422 6.0742-1.6914 3.1562-1.1094 7.3516-1.8789 9.3281-1.7148l3.582 0.29688-4.9492 1.9023c-7.0508 2.7227-17.477 7.668-17.043 8.0938 0.19922 0.20703 3.4531-0.28516 7.2227-1.0898 11.336-2.3906 12.898-1.4141 2.582 1.625-6.125 1.8086-17.59 6.0664-18.352 6.8164-0.25781 0.25781 2.7109 0.32031 6.5977 0.12891 6.2617-0.29688 19.184 1.4766 18.164 2.4961-0.21875 0.20703-4.125 0.78125-8.6836 1.2539-4.5625 0.48828-9.8555 1.3203-11.754 1.8516l-3.4648 0.96875 4.9492 0.12891c7.0508 0.19141 17.074 1.6055 22.254 3.1328 4.3555 1.2852 4.1367 1.332-9.5117 1.9766-18.332 0.85938-21.199 2.3555-6.1523 3.1953 6.168 0.34766 14.332 1.4648 18.141 2.4961 3.8086 1.0273 7.4297 1.9297 8.0391 1.9961 0.77344 0.10156 1.2578-4.668 1.5664-15.445m-184.21 2.8594c0-0.46484-2.4062-2.4453-5.3516-4.4062-2.9375-1.9492-9.0625-6.5391-13.602-10.199-7.6562-6.168-7.6562-5.0312 0.007813 2.0156 2.7031 2.4961 17.816 13.34 18.699 13.422 0.13672 0.007812 0.24609-0.36719 0.24609-0.83203m-21.883-5.0469c-2.3828-2.1562-4.6875-3.9375-5.1328-3.9609-0.44531-0.015625 1.2578 1.7422 3.7695 3.9219 5.9141 5.125 7.0234 5.1523 1.3633 0.039063m32.766-0.78125c-0.011719-0.40625-2.7891-2.1992-6.1836-3.9688-6.0547-3.1484-14.621-9.2734-23.477-16.777l-4.4297-3.75 3.2812 4.207c3.8906 4.9883 13.258 12.164 22.605 17.297 6.8945 3.8008 8.2031 4.2773 8.2031 2.9883m244.86-6.2422c2.0078-6.0664 1.4258-10.113-2.2852-15.637-4.8359-7.1914-13.965-12.016-22.77-12.016h-3.4141l0.64062 4.0117c0.95313 5.9258 4.2344 12.23 9.2891 17.859 4.1758 4.6445 13.09 10.762 15.723 10.777 0.63281 0.011718 1.9062-2.2461 2.8164-4.9961m-229.03 3.5352c0-0.25781-1.5703-1.1406-3.5039-1.9414-14.332-6-34.551-21.297-46.918-35.5-4.0547-4.668-7.5391-8.332-7.7344-8.1406-0.63281 0.64062 4.4531 8.0117 10.246 14.84 7.1211 8.4062 17.312 16.547 29.195 23.359 10.809 6.1836 18.715 9.3008 18.715 7.3828m-177.68-21c-4.9062-6.4336-14.918-27.535-15.633-32.945-0.5-3.8516-0.43359-4.1172 0.53516-1.9805 4.8867 10.848 7.3828 15.32 11.633 20.938 5.1836 6.8594 12.895 13.582 19.32 16.875l3.8789 1.9883-5.8945-6.7891c-10.695-12.289-18.996-27.137-22.207-39.711-2.6328-10.281-2.457-16.012 0.19531-6.6602 3.7695 13.281 13.441 29.371 20.387 33.914 2.0273 1.3242 1.9297 0.82812-1.2461-6.0469-1.8984-4.1094-4.3906-11.402-5.5391-16.191-3.5508-14.852-1.7031-35.191 4.5703-50.133 0.88281-2.0977 1.7617-3.6523 1.9609-3.457 0.20703 0.19922-0.33984 4.6914-1.1992 9.9766-1.4609 8.918-1.4531 10.242 0.12109 18.23 2.1445 10.938 3.5 13.52 3.5391 6.7812 0.039062-5.3281 3.5117-19.48 6.8945-28.059 3.125-7.9258 14.039-30.047 14.562-29.52 0.24609 0.25781-0.46484 3.5117-1.5898 7.2422-1.1289 3.7305-2.6719 10.074-3.4336 14.086-1.625 8.5586-1.3281 8.3906 6.1992-3.5469 8.875-14.094 13.961-25.008 15.363-33.004 1.4141-8.0352 1.4141-8.0234 3.3438 4.4531l0.76172 4.8906 3.3945-7.3633c2.8477-6.1562 3.4727-8.7812 3.8164-16.004 0.23047-4.7617 0.77344-8.4336 1.2109-8.1641 0.43359 0.27734 1.3516 4.5039 2.0469 9.4023 0.69141 4.8984 1.5703 8.5625 1.9492 8.1562 0.375-0.41797 1.4922-3.8711 2.4805-7.6797 3.3047-12.809 1.8906-32.008-2.8594-38.488-1.2578-1.7227-1.4922-1.457-3.0664 3.4648-3.2617 10.23-14.531 27.707-22.902 35.516l-3.707 3.4648 3.168-4.7109c4.2188-6.2656 9.8086-18.199 10.543-22.504 0.5625-3.2852 0.43359-3.1875-2.4336 1.8516-4.5 7.9141-18.863 24.867-21.07 24.867-0.48437 0 1.1484-2.8477 3.6289-6.3398 4.3438-6.0898 12.395-21.883 12.395-24.316 0-0.64453-2.1953 2.0859-4.875 6.0859-8.043 11.953-26.461 30.508-30.281 30.508-0.375 0 2.1055-2.9766 5.5117-6.6211 3.4023-3.6406 8.0703-9.5391 10.375-13.109 4.3711-6.7891 11.715-20.824 11.168-21.359-0.16797-0.17578-3.6484 3.9336-7.7227 9.1172-7.1211 9.043-23.051 25.047-24.941 25.047-0.50391 0 0.61328-1.8906 2.4844-4.207 5.668-7.0039 16.113-22.672 18.98-28.449 2.9219-5.8984 2.5859-5.7812-2.9453 0.98828-5.0039 6.1445-24.086 25.441-27.707 28.035-2.2461 1.6055-1.3945 0.070313 3.5-6.2852 9.1133-11.805 15.145-20.535 17.746-25.648 2.0078-3.9609 1.1797-3.3281-8.5156 6.4805-5.9141 5.9883-12.75 12.41-15.188 14.289l-4.4375 3.4141 2.4219-3.4648c1.3359-1.9062 4.4609-6.1328 6.9648-9.3984 2.4922-3.2656 5.293-7.1641 6.2109-8.6602 0.92969-1.4922 2.4336-3.9492 3.3633-5.4414l1.6836-2.7227-2.8672 2.4727c-1.5742 1.3672-5.1172 4.6445-7.8672 7.2852-6.3594 6.1328-14.391 12.875-14.391 12.082 0-0.32422 4.0039-6.3242 8.9023-13.32 4.8984-6.9961 8.9023-13.023 8.9023-13.391 0-0.36328-5.5195 4.2578-12.266 10.262-12.168 10.852-15.305 13.125-11.801 8.582 7.3672-9.5898 17.309-23.531 16.992-23.848-0.21484-0.21875-4.1641 2.9492-8.7734 7.0352-8.8633 7.8477-15.066 12.648-13.227 10.223 9.7148-12.727 15.828-21.734 14.77-21.734-0.28906 0-4.75 3.5625-9.9219 7.9102-5.1758 4.3555-9.4102 7.6484-9.4102 7.332 0-0.89062 3.8398-6.2656 8.4102-11.777 5.5117-6.6484 6.4023-8.3203 3.0352-5.6719-1.543 1.2188-3.2617 2.2109-3.8086 2.2109-0.55078 0-2.9375 1.5898-5.3086 3.5312-2.3672 1.9375-4.3047 3.2578-4.3047 2.9297 0-0.32422 2.2266-3.7695 4.9453-7.6523 2.7305-3.8789 4.7695-7.2344 4.5508-7.4609-0.22656-0.21875-3.7891 2.0977-7.9258 5.1484-4.125 3.0586-7.5039 5.332-7.5039 5.0664s1.7578-3.2773 3.9062-6.6797c2.1562-3.4023 3.7695-6.3438 3.582-6.5234-0.42969-0.42578-9.2422 5.5117-9.9922 6.7383-0.31641 0.51562-1 0.94141-1.5156 0.94141-1.0156 0 5.1289-8.9375 7.4883-10.895 0.8125-0.67578 1.4766-1.5742 1.4766-2 0-1.5117-3.6133 0.20703-8.418 3.9961-2.6836 2.1211-5.0391 3.6953-5.2227 3.4961-0.19922-0.1875 1.3125-2.8594 3.3398-5.918 2.9414-4.4336 3.4453-5.8203 2.4648-6.7812-1.6914-1.6406-8.4492 5.832-12.867 14.254-1.832 3.4727-5.7188 9.7773-8.6484 13.992-2.9258 4.2148-4.8867 7.6719-4.3633 7.6719 0.52344 0 4.3945-1.5664 8.5859-3.4727 4.1953-1.9219 7.7852-3.3164 7.9844-3.1289 0.19922 0.19531-0.51562 1.4648-1.582 2.8203-4.5898 5.8398-12.07 22.781-10.672 24.188 0.26563 0.26562 1.4531-1.0898 2.6367-3.0078 2.1875-3.5469 10.516-11.465 12.051-11.465 0.46484 0-0.69141 2.0312-2.582 4.4961-4.0547 5.3125-9.5352 16.566-11.801 24.188-2 6.7578-3.0664 17.703-2.0859 21.445l0.73047 2.8203 1.2578-4.1484c2.4414-8.1055 11.137-20.387 18.547-26.195 3.6602-2.8711 3.9844-2.9805 2.4805-0.83203-3.6289 5.1875-7.5352 13.668-10 21.711-1.4141 4.5938-2.4023 8.5117-2.207 8.7109 0.19922 0.19922 1.3164-1.1875 2.4844-3.0781 2.4453-3.957 13.879-14.852 14.711-14.023 0.30469 0.30859-0.56641 1.7734-1.9492 3.2656-11.98 12.984-19.816 34.609-19.965 55.164-0.078125 10.293 1.625 21.277 3.2852 21.277 0.41797 0 1.0273-1.9883 1.3672-4.4141 0.78906-5.793 4.8438-15.695 8.832-21.566 3.0703-4.5 5.7578-6.5898 3.8086-2.9492-2.0273 3.8008-4.0742 17.488-4.0742 27.285 0 12.738 2.6406 22.742 8.8828 33.656 4.4805 7.832 9.7852 14.055 8.5664 10.047-2.8594-9.4102-4.1758-30.395-2.7188-43.191 1.7695-15.602 2.8672-15.918 2.9453-0.84766 0.050781 9.9453 0.58594 15.379 2.0703 21.273 2.8789 11.422 9.8594 24.961 16.637 32.305 4.7383 5.1367 12.453 11.738 13.711 11.738 0.1875 0-1.2578-2.0977-3.2148-4.6602m329.23-21.188c2.7812-1.6445 8.1016-4.5156 11.832-6.3945 7.625-3.8398 8.7109-4.9805 2.75-2.8711-6.6523 2.3438-17.008 8.1953-21.211 11.973-2.8477 2.5547-3.1758 3.0898-1.1953 1.9102 1.5195-0.89844 5.043-2.9766 7.8242-4.6172m115.11-6.8594c-2.2539-10.789-5.8555-17.145-14.898-26.195-20.355-20.426-49.816-25.703-79.633-14.25-13.809 5.3008-32.574 19.574-46.523 35.367-9.1523 10.371-8.5898 10.875 1.1289 0.98828 22.543-22.949 48.48-35.34 74.082-35.398 10.742-0.019532 19.984 2.2344 30.664 7.5117 15.988 7.8984 30.004 23.996 34.77 39.941 1.1211 3.7422 1.3867 4.0469 1.6367 1.8984 0.15625-1.3906-0.38672-5.8359-1.2305-9.8633m-119.75-9.5508c21.855-14.688 47.742-20.824 74.195-17.598 7.8359 0.95312 6.6289-0.039063-3.043-2.5156-10.797-2.7578-26.898-2.8164-37.109-0.13281-15.629 4.1055-29.953 12.43-42.199 24.5-5.8672 5.7812-6.5 6.6406-2.7227 3.6445 2.7227-2.1484 7.6211-5.6992 10.883-7.8984m-73.758-34.441c0.089844-7.2734 4.5781-34.812 7.9258-48.578 3.8633-15.953 11.801-39.805 16.715-50.316 7.6758-16.367 19.43-33.676 31.133-45.836 5.4688-5.6836 6.7539-5.3477 1.8789 0.49219-6.3008 7.5312-16.711 23.395-21.133 32.184-8.0703 16.062-15.352 37.785-22.148 66.039-3.0742 12.828-7.0625 39.246-6.0625 40.246 0.20703 0.21875 1.3477-5.7695 2.5234-13.297 6.1836-39.5 18.926-74.859 35.227-97.711 6.8633-9.6094 17.855-22.266 19.359-22.266 0.50391 0-1.5156 3.0078-4.4805 6.6797-13.375 16.539-26.316 43.594-33.012 69.027-6.3789 24.242-10.992 47.395-9.6953 48.691 0.21875 0.21484 1.1406-3.7461 2.0469-8.8086 2.1094-11.719 7.6602-32.957 12.098-46.238 7.0742-21.168 19.074-40.883 33.844-55.559 8.1406-8.082 22.102-18.742 24.555-18.742 0.41406 0-1.0195 1.1875-3.1875 2.6328-8.5078 5.6914-22.477 20.117-28.57 29.531-9.3945 14.508-16.754 30.699-21.316 46.891-3.8398 13.613-7.2109 27.926-6.6992 28.438 0.23047 0.22266 1.8438-4.6094 3.5859-10.746 8.4062-29.461 17.871-47.938 33.543-65.414 14.66-16.379 28.312-25.273 48.996-31.918 6.4805-2.0742 10.703-2.6914 21.426-3.1055 7.5781-0.28516 16.324-0.046875 20.23 0.5625 3.7812 0.59766 7.043 0.92188 7.2305 0.72266 0.83203-0.83203-15.73-5.5703-23.008-6.5898-12.168-1.6914-29.32 0.45703-41.43 5.1953-7.7852 3.0586-6.2812 1.4375 2.3438-2.5039 12.969-5.9258 22.973-7.8672 37.602-7.2539 21.781 0.90234 37.336 7.2148 50.629 20.566 8.0703 8.1055 8.7148 7.8164 2.6602-1.1992-7.8047-11.629-22.316-21.355-38.352-25.711-9.8945-2.6914-9.2891-3.5508 1.0117-1.4531 9.5352 1.9492 25.797 10.121 33.332 16.754 11.668 10.254 19.738 24.66 20.727 36.992 0.29688 3.7617 0.88281 5.918 1.4844 5.543 1.7617-1.0781 0.0625-17.074-2.7695-26.059-3.2656-10.41-7.043-17.18-13.551-24.305-12.219-13.383-29.75-21.82-52.066-25.105l-5.5781-0.82422 6.5195-0.11719c17.023-0.31641 39.695 9.7188 53.328 23.594 16.273 16.574 24.098 42.199 19.488 63.871-0.8125 3.8086-1.3633 7.0469-1.2266 7.1914 0.13672 0.15234 1.2578-2.3047 2.5039-5.4414 1.7422-4.3945 2.375-8.3789 2.7383-17.238 0.64453-15.566-0.73047-22.832-6.6484-35.012-10.414-21.508-29.605-35.836-55.438-41.426-4.0742-0.88281-9.4141-2.043-11.867-2.5664-3.7422-0.8125-3.1055-0.89062 3.957-0.48438 22.801 1.3086 44.82 12.141 58.906 28.977 9.7148 11.621 18.016 31.422 18.34 43.73l0.11328 4.457 0.80859-3.4258c1.9414-8.2305-2.6016-28.906-8.6953-39.625-7.7578-13.648-24.75-30.027-35.238-33.973-1.0273-0.39844-1.5938-0.99219-1.2461-1.3359 1.1484-1.1523 13.277 5.7773 21.102 12.043 12.93 10.359 21.129 21.492 26.648 36.16 1.8906 5.0391 3.7109 12.004 4.0352 15.488 0.32813 3.4727 1.0391 6.6016 1.5938 6.9375 1.5742 0.96875 0.050782-13.953-2.293-22.453-6.4102-23.246-21.406-41.141-44.953-53.641-8.3398-4.4336-7.082-4.9492 2.0195-0.82031 8.7656 3.9766 19.199 11.043 26.809 18.172 11.09 10.371 21.414 28.43 24.117 42.156 1.7578 8.9961 0.70312 28.707-1.9883 36.688-3.8477 11.438-9.6562 21.969-15.938 28.938l-6.0234 6.668 2.6602 1.2188c2.4453 1.1055 2.8672 0.96094 5.1055-1.7227 10.492-12.609 17.082-28.098 19.133-44.98 1.1953-9.8359 0.80859-17-1.6641-30.695-4.2344-23.535-18.332-43.656-39.57-56.492-13.562-8.1914-23.672-11.883-40.922-14.934l-7.4219-1.3125 5.3242-0.30859c20.121-1.1484 46.383 10.043 64.91 27.648 16.324 15.508 27.473 34.305 32.203 54.301l1.7578 7.4219 0.078124-6.7266c0.31641-24.344-17.082-53.996-42.188-71.91-24.824-17.703-48.781-24.281-79.418-21.809-33.238 2.6914-57.949 12.785-84.984 34.746-13.801 11.211-22.535 21.977-30.004 37-5.0352 10.129-5.4336 12.73-0.90234 5.9414 6.0977-9.1367 16.234-20.586 24.504-27.641 6.7266-5.7422 24.605-16.258 25.73-15.141 0.25 0.24609-3.2461 3.1328-7.7422 6.4102-9.4883 6.9102-25.051 22.625-31.598 31.918-12.641 17.961-23.316 38.586-29.191 56.406-2.8516 8.6523-8.7773 39.371-7.7852 40.367 0.14844 0.16016 2.375-6.3008 4.9336-14.348 5.1055-16.004 14.887-37.32 23.535-51.254 8.457-13.637 19.863-26.434 34.348-38.535 1.3438-1.1172-1.5547 2.2461-6.4492 7.4844-4.8867 5.2305-11.723 13.477-15.188 18.305-7.6445 10.68-17.379 30.434-22.773 46.215-5.5977 16.398-13.469 48.477-15.875 64.684-2.125 14.391-3.6992 38.863-2.0273 31.492 0.49609-2.1797 0.92969-6.1875 0.95703-8.9062m-35.512-47.145c-5.5-14.609-11.633-36.082-13.906-48.691-2.9688-16.496-4.3633-44.336-2.9805-59.688 1.3164-14.645 4.0859-29.965 7.0625-39.059 2.7109-8.2852 10.883-25.445 13.602-28.582 1.6523-1.9102 1.3164-0.66406-1.4531 5.4414-13.324 29.305-16.797 59.887-11.75 103.45 1.7891 15.379 2.7188 20.348 6.4297 34.281 2.957 11.102 7.8633 25.434 8.4961 24.801 0.1875-0.1875-1-4.9883-2.6406-10.668-5.1328-17.836-7.7773-33.242-8.9219-52.066-2.2578-37.238 2.9648-68.621 15.641-93.852 3.8164-7.6211 12.531-21.281 13.57-21.281 0.17969 0-2.0312 4.2773-4.9141 9.4922-6.4805 11.738-12.625 29.93-15.555 46.07-1.9492 10.695-2.2266 15.516-2.2148 38.453 0.019531 22.801 0.30859 27.84 2.2383 38.598 2.1328 11.887 6.0703 27.137 6.8125 26.395 0.19922-0.19922-0.31641-3.8828-1.1445-8.1836-4.2773-22.211-5.7188-52.059-3.4141-70.688 3.4023-27.633 13.008-55.996 24.898-73.52 4.4883-6.6328 15.977-19.09 19.004-20.645 1.1289-0.57422-0.007812 1.1172-2.5352 3.7695-23.48 24.684-36.926 67.773-33.574 107.58 0.60547 7.1641 1.8711 16.336 2.8242 20.387l1.707 7.3516 0.050782-24.672c0.027343-19.277 0.43359-26.84 1.8203-34.57 5.8555-32.535 22.484-62.461 44.297-79.703 7.4102-5.8672 7.3633-4.7422-0.11719 2.7617-23.652 23.738-36.898 55.242-38.371 91.293-0.51562 12.727 0.80078 28.602 2.6211 31.539 0.41406 0.68359 1.0352-6.0234 1.375-14.902 0.82812-21.684 2.8984-34.281 8.2695-50.512 9.8516-29.777 25.047-49.352 58.195-75.012 25.098-19.438 35.887-31.562 45.02-50.602 2.1797-4.543 4.6797-11.602 5.582-15.676 2.0977-9.6289 2.0742-29.699-0.050782-38.844-1.5234-6.5625-5.8086-16.133-8.9531-20.039-1.4336-1.7812-1.4336-1.5938 0.039062 1.9805 7.4688 18.09 8.9219 39.922 3.7969 56.902-5.3906 17.883-19.316 36.805-36.68 49.84-8.1523 6.1133-23.781 15.121-24.68 14.219-0.25781-0.25781 2.7695-2.5117 6.7344-5.0156 11.062-6.9883 24.258-18.211 32.25-27.445 16.352-18.852 24.195-44.047 19.766-63.465l-1.1953-5.2461-0.78125 10.352c-1.3281 17.707-6.2344 31.215-16.086 44.328-5.2344 6.9648-22.199 20.82-32.23 26.336-6.9141 3.7891-17.754 8.7656-17.754 8.1328 0-0.21094 2.5586-1.832 5.6836-3.5938 8.6172-4.8594 19.203-12.191 26.871-18.617 12.918-10.816 20.277-21.332 25.434-36.316 2.3164-6.7383 2.6992-9.4727 2.7266-19.238 0.042969-13.352-1.3516-20.625-5.8164-30.332-4.3984-9.6094-14.105-19.703-23.988-24.961-2.9258-1.5625-2.8203-1.1367 0.88281 3.4453 4.7852 5.9258 8.7227 15.418 9.3164 22.422l0.51562 6.168-2.4844-6.2148c-1.3633-3.4258-3.1953-7.2031-4.0742-8.4102-1.5625-2.1367-1.582-2.0977-0.78125 1.2656 1.4258 5.9375 0.83984 27.719-0.85156 32.164-1.4648 3.8164-1.4922 3.543-1.0273-7.918 0.26562-6.5312 0.23828-11.641-0.082031-11.352-0.30469 0.28516-1.0469 3.6211-1.6406 7.4219-1.2852 8.2734-7.0938 20.91-12.445 27.059-4.2422 4.875-12.898 12-14.578 12-0.61328 0 0.91797-2.1172 3.4102-4.6992 3.9375-4.0977 8.5195-10.25 11.227-15.09 0.45703-0.8125-1.8359 1.0391-5.1133 4.1172-6.8945 6.5078-16.242 12.746-27.828 18.555-21.93 11.004-41.188 24.195-53.398 36.586-23.207 23.562-39.688 61.812-42.922 99.637-0.61328 7.2383-0.76172 15.086-0.32812 17.816l0.78516 4.8906 1.7812-9.8711c3.4688-19.148 10.164-36.367 19.543-50.27 2.7812-4.1406 5.4922-7.7812 6.0156-8.0977 0.51562-0.32812-1.2148 3.9883-3.8477 9.582-6.3203 13.418-12.336 31.559-14.531 43.812-2.6523 14.781-2.4141 44.312 0.50391 60.859 2.2461 12.797 3.9766 20.246 4.5625 19.645 0.18359-0.1875-0.11328-4.5703-0.65625-9.7461-1.4023-13.398-0.40234-52.859 1.6016-63.336 1.5938-8.3438 7.4805-28.051 8.1719-27.363 0.19922 0.19531-0.28516 2.8203-1.0664 5.8164-3.1172 11.984-3.9961 21.336-3.9258 41.832 0.12891 36.191 6.0742 71.266 17.172 101.23 2.7109 7.3047 8.1211 19.129 8.5547 18.695 0.19141-0.19141-1.4141-5.0078-3.5703-10.707m82.066-6.543c7.3711-19.754 13.871-32.273 23.801-45.77 5.4883-7.4727 20.199-22.051 26.648-26.414 6.5312-4.4258 16.234-9.1758 25.227-12.352l7.9141-2.793-5.4414 0.59375c-6.0039 0.66406-18.895 4.8203-25.762 8.3125-24.5 12.469-43.266 38.371-52.762 72.84-1.9688 7.1445-3.582 13.262-3.582 13.605 0 1.8945 1.0586-0.24609 3.957-8.0234m205.49-6.543c5.3555-8.0352 9.4023-18.02 11.555-28.551 2.6328-12.754 1.7617-14.004-1.957-2.8203-4.0664 12.254-8.668 20.832-14.699 27.414l-4.4023 4.8086 4.3125-8.9023c6.6367-13.688 9.4961-24.617 9.9805-38.102l0.41797-11.383-1.8398 9.8945c-3.1875 17.145-9.9141 31.621-20.16 43.43l-5.0547 5.8164 2.8945 2.0664c1.5938 1.1406 4.2344 3.4336 5.8672 5.1094l2.9688 3.0273 2.7969-2.5039c1.5469-1.3867 4.8398-5.5703 7.3203-9.3047m-186.08-5.8242c2.918-5.6836 12.086-17.203 19.633-24.664 8.4609-8.3633 20.906-16.516 32.508-21.328 7.3594-3.0469 7.6875-3.293 3.6328-2.7305-6.2227 0.85156-19.016 5.1367-24.465 8.1758-5.5508 3.1055-16.828 13.586-21.578 20.059-3.3398 4.5625-12.324 21.238-12.324 22.902 0 1.6289 0.98047 0.71094 2.5938-2.418m-156.51-5.4414c-7.1484-10.82-14.121-22.594-20.098-33.977-8.7266-16.594-9.2188-14.656-0.67188 2.6133 6.0352 12.176 15.191 27.035 19.645 31.855 2.8008 3.0312 3.3047 2.8047 1.1289-0.49219m317.09-10.758c5.6016-8.375 6.9258-12.539 1.543-4.8281-1.8984 2.7188-5.5508 7.5977-8.1016 10.836-4.2031 5.332-4.3516 5.6797-1.543 3.6797 1.6992-1.2148 5.3516-5.5703 8.1016-9.6875m-347.8 4.3242c-0.40234-0.67969-2.3984-3.4648-4.4297-6.1836-2.0391-2.7227-5.6289-8.3242-7.9844-12.461-2.4805-4.3555-4.7852-7.3242-5.5078-7.0859-0.68359 0.23047-1.2383 0.87109-1.2383 1.4375 0 2.2148 7.5195 13.219 13.121 19.219 5.6836 6.0742 7.6055 7.6875 6.0391 5.0742m256.93-7.668c8.8047-0.85156 30.211 0.10938 34.773 1.5625 5.6875 1.8008-4.1953-5.9961-11.336-8.9453-4.6992-1.9492-12.238-1.9414-19.758 0.007812-6.8047 1.7617-15.242 5.4141-18.113 7.8281-1.9062 1.6133-1.8594 1.6445 1.4883 1.0703 1.8984-0.33984 7.7227-1.0195 12.945-1.5234m-237-20.043c-4.9922-9.9375-10.543-22.176-12.344-27.215-1.8008-5.0352-3.6484-9.1523-4.125-9.1523-1.2461 0-1.1172 0.68359 1.7617 9.332 2.9766 8.9453 13.867 30.938 19.508 39.406 2.0859 3.1289 3.9062 5.6914 4.0469 5.6914 0.125 0-3.8477-8.125-8.8438-18.062m11.387 3.7734c-0.50781-1.3281-1.9883-4.5547-3.3125-7.1797-2.8633-5.6875-13.098-31.328-14.062-35.188-0.36328-1.4961-1.3125-2.7227-2.1133-2.7227-1.7812 0-1.5352 0.89062 4.3516 15.832 5.6562 14.352 14.246 31.672 15.699 31.672 0.19922 0-0.058594-1.0898-0.5625-2.418m-58.562-8.875c3.8633-2 5.3398-4.1094 2.0352-2.918-1.293 0.46094-6.8047 0.85156-12.246 0.85156-8.8633 0-10.457-0.28906-15.332-2.7656-2.9883-1.5195-9.6641-6.1055-14.84-10.191-5.1758-4.0859-12.957-9.1953-17.309-11.332-7.4219-3.6602-7.6992-3.8984-4.3867-3.9102 7.1523-0.015626 13.02 2.7148 23.586 10.977 14.492 11.34 17.863 12.75 30.617 12.758l10.238 0.007813-3.0664-2.8672c-6.5-6.0703-2.7109-14.945 6.3711-14.945h4.5859l-3.8867-4.6992c-16.953-20.555-17.637-33.848-2.2617-44.141 5.1133-3.4102 5.9844-1.4922 3.8438 8.4648-0.80859 3.8281-2.0859 6.2031-4.6953 8.8047-1.9609 1.9492-4.1836 3.7539-4.9297 4-1.0352 0.33594-0.66016 1.8086 1.6523 6.3945 4.0273 7.9844 5.0469 8.6992 11.359 8.0469 5.043-0.51953 12.582-3.3672 12.582-4.7422 0-0.37891-1.3047-0.94141-2.8984-1.2695-4.5781-0.91016-11.91-4.6875-12.98-6.6797-0.91797-1.7188-0.76953-1.7422 3.1289-0.36328 5.293 1.8711 13.355 1.8398 18.727-0.050781 7.457-2.6328 7.6172-3.4648 1.2148-6.0273-7.7344-3.1055-14.184-10.074-16.973-18.359-2.7422-8.1055-2.6328-8.8438 0.63281-4.5312 2.6602 3.5156 8.1602 8.3633 8.1602 7.2031 0-0.31641-2.0078-4.5781-4.4609-9.4688-2.4531-4.8867-5.8359-12.344-7.5-16.555-5.6289-14.195-9.8594-21.012-18.922-30.504-4.9648-5.1953-12.059-11.301-16.59-14.281-4.3633-2.8594-7.9258-5.3242-7.9258-5.4805 0-0.33594 8.6172-5.1484 22.262-12.41 21.66-11.539 21.582-12.41-0.26172-2.7617-16.211 7.1562-24.621 11.371-25.48 12.777-0.38672 0.625-1.8594 0.80078-3.543 0.43359-3.5703-0.78125-3.7383 0.66406-0.55078 4.8828 1.2734 1.6797 2.8867 4.1641 3.5898 5.5312 1.0859 2.125 0.75 1.9844-2.4336-0.99219-2.8789-2.6914-3.582-3.0156-3.1836-1.4844 0.28516 1.0898 0.77734 3.3164 1.0977 4.9492 0.57031 2.957 0.57031 2.957-1.0195 0.74219-2.1367-2.9766-3.3242-2.8086-3.375 0.49609-0.019532 1.4961-2.5938-4.8516-5.7266-14.105-7.8438-23.145-20.734-48.984-23.859-47.816-0.45703 0.17578-4.918 5.4414-9.9258 11.695-22.75 28.504-32.77 48.969-34.336 70.117l-0.61328 8.2539 9.1602-6.2734c5.0352-3.4531 11.902-8.8789 15.246-12.043 6.2227-5.8984 6.2031-5.9688-1.0977-4.0195-3.3281 0.87891-2.7227-0.83984 2.2227-6.3438 2.4531-2.7188 4.4531-5.1758 4.4531-5.4414s-1.8086-0.089844-4.0156 0.41406c-5.75 1.2891-6.5195 0.16016-2.207-3.2344 3.7227-2.9219 7.1523-6.6992 7.1914-7.918 0.011719-0.35547-1.6211 0.19531-3.6172 1.2188-4.7695 2.4336-5.3438 1.6211-1.6445-2.3281 3.5312-3.7891 7.6562-9.6406 6.7852-9.6406-0.33203 0-1.9688 0.70703-3.6172 1.5547-3.5117 1.8242-4.793 1.1875-2.6133-1.293 0.83984-0.96094 2.3047-3.2969 3.2539-5.207 2.6523-5.2969 14.512-21.781 15.324-21.277 2.3438 1.4453 12.926 28.422 12.84 32.707-0.007812 0.51562-2.0078-1.2852-4.4453-4.0078l-4.4102-4.9492 1.3672 3.9609c0.75 2.1758 2.3047 6.1016 3.4492 8.7383 2.8398 6.5273 2.6328 7.125-1.3828 4.0547-4.4414-3.3828-4.4102-1.8281 0.089843 6.2344 1.957 3.4961 3.3047 6.6016 2.9961 6.9102-0.30469 0.30469-1.7188-0.21094-3.1445-1.1406-1.4258-0.9375-2.7695-1.5117-3-1.2852-0.69922 0.70313 5.4609 8.8281 11.34 14.945 3.5 3.6406 4.8359 5.582 3.5898 5.2148-6.2422-1.8203-16.719-2.4961-24.227-1.5547-13.918 1.7422-24.73 6.543-51.531 22.859-5.2109 3.168-10.938 6.2773-12.73 6.8984-2.9062 1.0195-3.0664 1.2461-1.4414 2.1602 2.5625 1.4336 21.812 1.3047 26.965-0.19141 6.6289-1.9062 6.0078-0.60156-1.5234 3.1875-12.008 6.0547-20.113 8.0469-32.773 8.0664l-11.199 0.007812 3.7812 3.1992c10.398 8.7852 21.961 12.559 38.648 12.609 6.668 0.015625 12.117 0.13672 12.117 0.26562 0 0.60156-14.711 7.5508-18.715 8.8359-2.4922 0.80078-8.0938 1.7734-12.445 2.1602l-7.9141 0.69141 4.9688 2.6016c10.086 5.2773 16.945 6.9375 30.645 7.4336 9.6445 0.34766 14.039 0.089843 17.559-1.0117 2.582-0.80078 4.6992-1.168 4.6992-0.80859 0 0.95703-10.613 7.418-16.324 9.9453-2.7188 1.1953-6.8242 2.4414-9.1172 2.7617-4.9258 0.67188-4.75 1.7695 0.45312 2.7891 5.0234 0.96875 24.535 0.66406 29.41-0.47656 5.4219-1.2539 5.6172-0.44531 0.44531 1.8828-5.4727 2.4453-4.4414 2.7695 10.465 3.3555 17.559 0.69141 22.496 2.543 41.727 15.664 3.7109 2.5352 8.9727 5.3164 11.691 6.1875 6.0078 1.9102 17.648 1.4922 22.082-0.80469m14.52-19.879c0-0.54688-2.7773-1.1211-6.1797-1.2891-5.125-0.23828-6.1836-0.019532-6.1836 1.2891 0 1.3047 1.0586 1.5234 6.1836 1.2852 3.4023-0.16797 6.1797-0.74219 6.1797-1.2852m37.195-12.707c-2.1055-6.4414-4.0938-11.281-4.418-10.758-0.71484 1.1484 1.0273 7.1953 4.8945 17.051 4.1641 10.641 3.9062 7.0742-0.47656-6.293m-210.8-6.4414c0-0.82422-13.324-5.1875-15.332-5.0273-0.54688 0.046875 1.6797 1.3438 4.9453 2.8984 5.9258 2.8086 10.387 3.7227 10.387 2.1289m-115.33-9.918c0.28906-0.46484-1.8867-1.1367-4.8359-1.4844-6.332-0.74219-17.18-4.4922-26.48-9.1641-11.703-5.8789-24.969-20.168-30.953-33.352-2.1172-4.6484-2.3359-4.8477-2.3867-2.1836-0.027344 1.6094 1.8203 6.7383 4.1172 11.379 9.3086 18.824 28.52 32.121 49.996 34.625 9.6055 1.1211 9.9609 1.1289 10.543 0.17969m110.38-12.547c0-1.7148-7.6758-3.4062-15.059-3.3164l-8.1875 0.10938 9.7109 1.3164c5.3516 0.73047 10.25 1.543 10.883 1.8008 1.6719 0.68359 2.6523 0.71094 2.6523 0.089844m-59.848-7.0273c15.902-2.5938 25.156-3.5742 34.375-3.6719 6.9219-0.078125 12.602-0.36328 12.602-0.63281 0-0.26562-1.4141-2-3.1367-3.8398l-3.1367-3.3477-10.949 0.65625c-6.0352 0.36328-12.516 0.85938-14.422 1.1094-3.1484 0.39453-3.0586 0.30469 0.98828-1.0391 2.4453-0.8125 8.457-1.9727 13.355-2.5859 4.8984-0.60938 9.0508-1.2461 9.2305-1.3945 0.17578-0.14844-0.36719-1.3359-1.2266-2.6406-1.3281-2.0273-5.7891-13.641-5.2344-13.641 0.10938 0 5.4805 1.3359 11.93 2.9727 6.4492 1.6289 13.098 2.9648 14.77 2.9648 2.7617 0 7.625-3.1836 7.625-4.9961 0-0.38281-3.1133-1.5039-6.9219-2.4922-3.8086-0.99219-6.9258-2.1602-6.9258-2.5938 0-1.1367 1.6914-0.98828 7.9141 0.68359 6.8281 1.832 12.176 1.9492 11.652 0.24609-0.44531-1.4648-7.3789-5.0664-13.633-7.0859-7.2695-2.3438-0.85938-1.8594 10.883 0.82031 8.5664 1.9609 10.625 2.1484 11.734 1.0898 1.1172-1.0781 0.62109-1.7109-2.9688-3.8008-4.8594-2.8203-10.121-4.9453-16.68-6.7266-2.5625-0.70312-3.7305-1.3789-2.75-1.6055 2.168-0.49219 17.156 2.2969 22.566 4.207 4.7852 1.6914 6.3516 1.1875 4.8867-1.5547-1.0977-2.0391-7.875-5.7891-14.137-7.8164-6.0859-1.9805-3.4727-2.2773 4.4219-0.51563 10.305 2.3047 11.227 2.3047 11.227 0.007813 0-1.2344-1.4453-2.7695-3.957-4.1953l-3.957-2.2539 4.9062 0.24609c4.0273 0.19922 4.9766-0.078125 5.2734-1.5234 0.80078-3.8789-22.582-11.816-40.094-13.605-16.082-1.6523-29.398 0.078125-46.258 6.0039-26.035 9.1523-31.27 10.766-37.855 11.68-6.6484 0.91797-18.203 0.14844-21.367-1.4141-0.61328-0.30859-0.36719 0.066406 0.55469 0.82031 0.91797 0.76172 4.2617 2.1836 7.4141 3.1758 9.8359 3.0703 10.23 3.5938 2.2891 3.0195-15.641-1.1484-28.848-11.086-34.73-26.137-2.6055-6.6523-2.3672-1.5156 0.24609 5.5625 3.8867 10.488 10.098 17.238 21.246 23.117 7.8359 4.1172 3.1445 3.6602-5.1836-0.51562-13.109-6.5625-21.008-17.051-23.156-30.727-1-6.4141-0.91016-8.7578 0.67969-16.824 0.57812-2.9297 0.55469-2.9414-1.4219-1.168-2.7227 2.4336-8.7656 15.031-10.598 22.078-0.82031 3.1562-1.4922 9.6406-1.4922 14.418 0 10.52 3.957 24.156 9.2969 32.062 7.8867 11.668 23.625 22.277 38.801 26.156 8.4375 2.1602 25.641 2.625 36.938 0.99219 3.5195-0.51562 6.5703-0.75391 6.7773-0.54688 0.20312 0.21094-2 1.1016-4.9062 1.9805-19.707 5.9609-42.707 3.5625-59.09-6.1367-7.9219-4.6953-20.516-17.117-24.156-23.836-4.4219-8.1445-7.7188-18.875-8.3203-27.16-0.31641-4.2148-0.91797-7.668-1.3359-7.668-0.42188 0-1.0977 3.0078-1.4922 6.6797-1.5508 14.469 4.8867 36.133 14.145 47.555 3.9883 4.9141 5.668 4.9258 1.9219 0.007813-2.1758-2.8594-7.0156-12.676-6.2422-12.676 0.14844 0 2.5703 2.8594 5.3711 6.3633 10.574 13.199 28.164 22.355 48.68 25.363 8.0703 1.1797 18.797 0.25781 43.031-3.6719m271.46-7.9258c-2.7031-11.906-3.6992-40.062-1.9883-55.867 0.96875-8.9453 5.7148-29.223 6.6367-28.312 0.17969 0.17969-0.38672 5.6484-1.2461 12.152-1.8789 14.211-1.3672 29.77 1.5039 45.328 1.0977 5.9062 2.2344 10.992 2.5312 11.301 0.30859 0.29297 0.55469-2.9805 0.56641-7.2852 0-4.3125 0.44531-13.965 0.98828-21.445 1.1172-15.527 6.1641-37.031 14.797-63.098 2.7734-8.3438 4.8711-15.66 4.6602-16.238-0.19531-0.58594-3.3359 4.9141-6.9531 12.23-3.6211 7.3203-6.5781 12.766-6.5781 12.09 0-0.66016 3.3125-11.367 7.3594-23.789 9.9727-30.578 10.969-35.637 10.82-54.547-0.14453-17.934-1.8086-25.703-8.3867-39.184-4.4414-9.0898-14.621-20.988-23.594-27.578-10.258-7.5312-24.238-12.977-35.84-13.934l-6.25-0.52344 7.4141 2.3242c13.465 4.207 23.387 10.48 34.281 21.652 6.8047 6.9883 13.176 15.844 15.172 21.098 1.3594 3.5742 0.67578 3.0977-2.4922-1.7109-4.707-7.1523-12.504-15.555-20.09-21.672-6.0938-4.8984-13.711-9.75-15.332-9.75-0.22656 0 3.0352 3.4531 7.2383 7.6719 11.082 11.094 18.816 23.582 22.223 35.871 0.37109 1.3672-1.1719-0.86719-3.4336-4.9453-9.3398-16.832-19.809-28.168-33.391-36.141-7.2383-4.2578-18.297-8.4727-21.84-8.3242-0.89062 0.03125 0.16797 0.625 2.3633 1.3164 20.457 6.4141 38.312 24.996 46.012 47.898 2.6484 7.8672 3.3125 11.57 3.6602 20.488 0.24609 6.2539 0 11.934-0.58594 13.359-0.78906 1.9375-1.0273 0.32422-1.0781-7.4648-0.078126-12.527-1.7383-19.098-8.1133-32.074-4.4219-8.9961-6.2617-11.527-14.094-19.336-5.5508-5.543-11.102-10.047-14.453-11.75-4.4609-2.2539-4.9062-2.3516-2.4766-0.53125 6.6719 4.9648 17.176 16.625 20.727 22.988 2.0781 3.7227 4.918 10.184 6.3125 14.348 2.2031 6.6211 2.5195 9.2344 2.5039 20.461-0.023438 7.0742-0.44531 13.852-0.94141 15.059-0.64453 1.5156-0.92969-1.3672-0.94922-9.3984-0.039062-13.441-2.0664-21.586-8.4688-33.938-3.8359-7.4102-12.168-17.82-15.809-19.773-2.6992-1.4414-2.3945-0.76953 2.125 4.6445 4.7812 5.7188 11.102 18.316 13.328 26.582 1.9883 7.3438 2.1172 25.816 0.22656 32.141-1.2578 4.207-1.3125 3.7617-1.2969-8.9062 0.011719-10.121-0.41406-14.773-1.7891-19.277-2.2188-7.3125-7.6367-17.824-11.523-22.348l-2.9102-3.3828 2.8789 5.4414c5.0664 9.5586 7.3828 19.844 7.2734 32.164-0.050781 5.9883-0.51562 12.223-1.0312 13.855-0.74219 2.3828-1.0352 0.72266-1.5312-8.4102-0.33984-6.2539-1.2773-13.887-2.0977-16.953-1.4258-5.3047-6.4805-17.082-7.0742-16.477-0.15625 0.14453 0.40625 2.7305 1.2461 5.7188 0.96094 3.4062 1.5625 9.8867 1.625 17.316 0.10547 14.172-0.74219 17.477-9.9531 38.598-3.5625 8.1641-8.1523 19.754-10.188 25.75-3.7305 10.957-7.5 25.949-6.7305 26.73 0.23828 0.22656 2.0508-0.69141 4.0352-2.0469 2.6641-1.8125 3.9102-3.5625 4.6992-6.6523 3.1484-12.242 10.023-29.906 12.703-32.637 0.39453-0.40625-0.94141 4.2734-2.957 10.387-2.0273 6.1172-4.0859 13.906-4.582 17.312-0.80078 5.4492-0.71094 6.1836 0.72266 6.1836 3.0078 0 4.6133-2.4336 5.8672-8.9062 1.2461-6.4023 6.8438-21.289 7.6953-20.438 0.25 0.23828-0.67969 4.1562-2.0547 8.7109-2.7422 9.043-4.1836 16.672-3.168 16.672 0.36719 0 2.1484-0.62109 3.9648-1.3828 2.8633-1.1875 3.4727-2.0977 4.5547-6.6797 1.4141-5.9961 3.9961-12.996 4.5898-12.41 0.21875 0.21484-0.27734 3.2461-1.1016 6.7305-1.8594 7.8867-1.8672 8.7969-0.085938 8.7969 3.8672 0 6.4609-2.4141 8.418-7.8086l2.0195-5.5508-0.56641 4.7578-0.5625 4.75 4.2734-2.1562c2.3555-1.1875 7.9414-4.543 12.434-7.4531 7.2031-4.668 8.1641-5.0547 8.1641-3.2539 0 1.1289-1.5352 8.8086-3.4141 17.07-1.8789 8.2617-4.9961 24.254-6.9258 35.559-5.3438 31.23-4.7695 48.383 2.5234 75.871 3.0859 11.641 3.7109 13.379 4.5195 12.57 0.26562-0.25781-0.51172-4.8477-1.7305-10.211m-9.3086 6.3398c-3.5312-15.043-5.4805-25.426-6.043-32.18-0.375-4.5078-0.88281-7.9883-1.1211-7.75-1.4805 1.4844-2.043 8.8359-1.1367 14.941 1.1992 8.0742 4.375 21.18 5.9961 24.742 1.4023 3.0742 3.0078 3.2539 2.3047 0.24609m-17.965-45.027c6.8633-16.293 10.871-33.863 13.09-57.398 0.86719-9.2812-0.089844-9.3438-10.824-0.64453-11.949 9.6914-24.641 24.09-29.371 33.293l-2.4141 4.6992 2.7812 2.582c1.5352 1.4141 2.9062 2.418 3.0664 2.2266 0.14844-0.1875 1.4219-2.8867 2.832-5.9961 4.4375-9.8672 11.461-19.605 20.285-28.137 8.2109-7.9453 10.922-9.8438 9.7852-6.8945-0.28906 0.76172-1.3086 5.2852-2.2539 10.055l-1.7227 8.6797-2.3945-2.8828-2.4023-2.8828 0.58203 2.9727c0.31641 1.6328 0.84375 5.1953 1.1484 7.918 0.54297 4.6914 0.49219 4.8477-1.0508 2.9688-0.89062-1.0898-1.9961-2.6445-2.4609-3.4531-1.6016-2.793-1.7812-0.49609-0.44531 5.8984 0.73047 3.5117 1.1172 6.5977 0.85938 6.8555-0.25781 0.25781-1.7695-1.0586-3.375-2.9297l-2.9062-3.4023 0.95312 3.4531c0.52344 1.8984 0.92969 5.4648 0.90625 7.918l-0.039062 4.4609-1.6914-3.1641c-1.6602-3.1094-1.6797-2.9375-1.3477 9.3984 0.35156 12.055 1.2578 16.688 3.0781 15.57 0.46875-0.28516 2.8594-5.3164 5.332-11.164m51.066-33.719c2.1055-6.9062 5.6641-19.457 7.9219-27.887 2.2461-8.4297 5.4531-19.93 7.1133-25.543 1.6602-5.6094 2.8203-10.402 2.5703-10.637-1.0469-1.0508-20.734 42.742-22.641 50.363-2.1797 8.6797-3.6719 32.023-2.3555 36.949 0.65234 2.4766 0.89844 2.0195 2.1445-3.9453 0.77344-3.7227 3.1289-12.402 5.2422-19.301m-195.18-7.5977c0.29297-0.89062-14.672-7.4219-16.996-7.4219-0.52734 0 2.3828 1.957 6.457 4.3555 7.2734 4.2734 9.8945 5.0352 10.539 3.0664m-57.16-15.094c-0.74219-0.94922-2.9648-3.7305-4.9375-6.1836-4.8867-6.0664-12.996-20.785-11.445-20.785 0.19141 0 1.8008 2.2656 3.5938 5.0312 3.3906 5.2344 13.305 14.09 20.625 18.426 6.1211 3.6289 5.9336 2.375-0.38672-2.5625-9.6367-7.5312-19.191-21.844-24.68-36.957l-3.3242-9.1719-0.050781 5.5312c-0.027344 3.0508 0.61328 7.7188 1.4258 10.391 1.7422 5.7617 1.6914 5.3555 0.67969 5.3555-0.45312 0-2.3438-3.2266-4.2031-7.1758-2.582-5.4531-3.4727-6.6289-3.707-4.918-0.45703 3.168 3.3203 14.199 7.9414 23.188 2.8984 5.6211 5.8555 9.4609 11.258 14.598 7.0547 6.6992 10.051 8.875 7.2109 5.2344m451.9-11.629c5.9453-15.062 8.1602-30.223 6.2891-43.031-1.8672-12.793-2.8281-13.387-2.2734-1.3906 0.72266 15.742-2.4414 35.238-8.2305 50.617-1.3242 3.5234-2.3945 6.6914-2.3711 7.0352 0.078125 1.1094 4.1641-7.1055 6.5859-13.23m-315.71 3.457c-2.5391-3.7227-5.2734-7.3047-6.0742-7.9805-2.668-2.207 0.27734 3.8633 5.2539 10.84 6.0469 8.4688 6.7852 5.8672 0.82031-2.8594m-61.488-3.9297c4.707-6.5234 8.8438-12.641 9.2109-13.609 0.35547-0.96094 1.4609-2.3359 2.4414-3.0469 2.4609-1.7734 2.2578-4.6016-0.42578-5.9609-1.9609-0.97656-1.8008-1.0469 1.3164-0.5625 3.0273 0.47656 3.7891 0.1875 5.1914-1.957 2.1758-3.3164 2.1992-3.25-1.8789-4.5938-4.4922-1.4844-3.9766-2.1055 0.85156-1.0195 3.3125 0.75391 3.8867 0.57422 5.6484-1.7812 1.0781-1.4414 2.3125-3.0664 2.7578-3.6133 1.7734-2.1758 4.5312-7.3828 4.1172-7.75-0.94922-0.83984-19.824-6.6367-30.715-9.4375-6.3125-1.6133-14.551-4.4062-18.301-6.1875-3.7578-1.7812-7.2734-3.4023-7.8164-3.6016-2.2539-0.82031 5.3438 5.0078 10.199 7.8203 2.8867 1.6719 5.0742 3.2148 4.8672 3.4219-0.20703 0.21875-2.5898-0.26562-5.3008-1.0703-9.3203-2.7695-19.707-11.527-24.523-20.703-2.0469-3.8984-2.5547-4.3711-2.5547-2.4219 0 4.293 5.1172 12.863 11.301 18.93 5.9336 5.8281 5.9531 5.8789 2.0547 3.9102-10.438-5.2773-18.695-17.992-20.109-30.977l-0.80078-7.3516-0.8125 4.9062c-1.0781 6.4844 0.5625 16.738 3.8203 23.844 2.9258 6.3984 1.125 5.6992-2.8594-1.1172-2.3867-4.0703-4.5625-11.551-5.9648-20.559-0.68359-4.3242-1.4336-4.0469-3.168 1.168-1.1172 3.3672-1.1562 3.1211-0.64453-3.1836 0.61719-7.5742 2.582-15.023 5.4453-20.648 2.3125-4.5508 1.8477-4.6562-2.0508-0.49219-7.6953 8.2266-12.918 23.543-12.918 37.871 0 15.695 4.1055 26.367 14.176 36.855 7.1914 7.5039 18.477 13.578 31.891 17.172 7.2617 1.9375 8.25 2.4258 5.5312 2.6797-4.4609 0.42578-19.391-3.9648-27.707-8.1523-12.238-6.168-22.258-19.527-26.414-35.211-1.8008-6.8008-2.4414-21.238-1.1797-26.227 0.49609-1.9297 0.44531-2.457-0.14453-1.4844-2.6055 4.2266-4.2734 14.559-3.6914 22.762 2.0391 28.492 19.5 47.918 54.031 60.102 9.2305 3.2539 9.3008 3.3047 3.957 2.7305-7.2812-0.78125-23.305-6.3242-30.301-10.48-7.7734-4.6094-18.129-14.52-23.207-22.188-2.3242-3.5156-4.4023-6.2148-4.6094-5.9961-0.20703 0.20703 0.61328 2.7578 1.832 5.668 5.9141 14.105 19.715 26.789 36.5 33.559 5.6523 2.2773 29.332 9.6797 31.293 9.7812 0.60937 0.027344 4.9648-5.2773 9.6641-11.797m69.48 1.3047c-3.8203-7.2031-20.535-25.285-22.02-23.801-1.2188 1.2188 2.9961 6.7695 12.633 16.645 5.6289 5.7695 10.387 10.383 10.555 10.23 0.17578-0.14453-0.34766-1.5195-1.168-3.0742m-1.2461-16.855c-5.6602-7.4023-12.73-13.961-21.684-20.129-2.5039-1.7227-4.75-2.9297-4.9883-2.6914-0.23438 0.23828 0.34766 2.543 1.3086 5.1367 1.4727 3.9688 2.8867 5.5039 9.1602 9.9062 4.0742 2.8594 10.516 8.0156 14.293 11.449 3.957 3.5938 7.0352 5.7305 7.2734 5.0391 0.21484-0.66406-2.1992-4.582-5.3633-8.7109m137.84-68.836c-0.96875-17.113-5.4375-32.363-12.562-42.832-4.3906-6.4531-10.086-13.48-10.566-13.004-0.20312 0.19531 1.6133 4.1055 4.0469 8.6758 8.0859 15.223 15.375 37.301 16.969 51.387 0.36719 3.2539 1.1289 5.9141 1.6797 5.9141 0.66406 0 0.8125-3.5234 0.4375-10.145m-305.89 447.08c-2.1758-0.78125-4.9844-2.5938-6.2305-4.0352-2.5508-2.9492-2.1445-4.5625 0.53516-2.1602 0.96094 0.86328 3.3906 1.8711 5.4219 2.2461 3.2461 0.60547 4.043 0.32812 6.6758-2.3164 4.1836-4.1758 4.2266-9.9844 0.10937-14.113-3.1055-3.0977-8.5078-3.957-10.766-1.6992-0.91797 0.92188-1.1836 0.92188-1.1836 0 0-1.8203 3.6094-5.0195 6.457-5.7383 9.3398-2.3477 18.273 4.5781 18.273 14.148-0.011718 10.273-9.6562 17.102-19.293 13.668m163.72-432.11c-3.9688-1.5742-7.8633-5.918-8.9609-9.9844-2.8906-10.758 7.3984-21.07 18.516-18.555 3.4336 0.76953 9.9922 5.8984 7.5508 5.8984-0.64453 0-1.4375-0.44531-1.7695-0.99219-1.1914-1.918-7.1875-1.0586-10.184 1.4648-5.4492 4.582-4.5586 13.57 1.6445 16.777 3.7773 1.957 6.0352 1.957 8.8125 0.007812 2.7617-1.9297 2.8906-0.13672 0.17969 2.5742-3.7812 3.7812-10.387 4.957-15.789 2.8086m205.78-4.5234c-10.121-5.2539-10.543-19.086-0.77344-25.055 4.4766-2.7227 11.379-2.6133 15.621 0.25391 4.4531 3.0195 5.2773 5.4531 1.1172 3.3008-4.3789-2.2695-6.8516-1.9414-10.129 1.3242-5.6758 5.6914-3.0859 15.574 4.5938 17.504 1.6016 0.39453 3.5 0.17969 4.6367-0.52344 2.8789-1.8008 3.0469-0.72266 0.27734 1.8711-3.3125 3.1172-10.664 3.75-15.344 1.3242m-37.609 617.57c-20.02-2.6641-38.363-12.895-52.43-29.234-12.297-14.289-19.715-30.609-20.367-44.832l-0.36719-7.9258 1.9297 8.6875c5.9141 26.633 22.801 48.102 47 59.738 12.609 6.0625 19.418 7.5977 34.129 7.6875 10.406 0.0625 13.461-0.28516 19.289-2.2148 8.4375-2.8008 13.332-5.5742 19.664-11.156 4.6289-4.0781 4.7578-4.125 3.2656-1.2227-3.6602 7.0742-15.156 15.266-26.395 18.801-4.668 1.4727-19.812 2.4531-25.719 1.6719m-0.49219-10.242c-12.246-1.8398-23.652-7.0156-35.613-16.152-11.715-8.9336-24.98-28.828-28.598-42.871-2.4844-9.6172-1.8125-10.508 1.2656-1.6719 3.2617 9.3828 6.3203 14.914 13.648 24.711 6.3906 8.5508 11.051 12.855 20.734 19.18 13.176 8.6094 27.723 12.48 42.902 11.41 16.355-1.1367 26.492-5.3828 36.852-15.426 7.1719-6.9492 8.3398-6.9219 3.8789 0.10547-9.9023 15.617-32.48 24.109-55.07 20.715m-5.9375-11.758c-18.32-4.5195-37.008-20.547-47.145-40.438-2.2891-4.4805-3.957-8.3398-3.7188-8.5781 0.23438-0.23438 2.2031 2.9688 4.3789 7.125 7.1445 13.688 24.969 29.363 39.066 34.371 23.031 8.1641 44.336 4.7695 58.402-9.3047 6.1562-6.1523 8.0547-10.488 9.8945-22.551 1.5312-10.105-1.2578-33.164-6.0156-49.781-1.0078-3.5117-1.7031-6.543-1.5234-6.7109 0.55469-0.55078 4.3438 9.8984 6.3711 17.566 5.2344 19.805 6.5703 38.418 3.5898 49.871-3.6484 13.992-15.105 24.465-31.645 28.934-6.8477 1.8516-23.188 1.5938-31.656-0.50391m5.0742-9.1719c-12.266-2.3555-30.297-13.875-37.461-23.941-1.3867-1.9492 0.53516-0.73047 5.7383 3.6328 13.789 11.559 29.328 17.23 44.426 16.211 9.4375-0.63281 15.016-2.4727 22.023-7.2656 9.9883-6.8477 14.004-16.07 14.797-34.012 0.46484-10.562-0.71484-21.266-4.1484-37.609-0.40234-1.9453-0.19531-1.7969 0.97266 0.70703 2.4336 5.2305 6.4492 29.34 6.4492 38.762 0 16.684-3.2539 26.164-11.625 33.895-9.7812 9.0156-25.332 12.648-41.172 9.6211m-5.8242-12.023c-3.6719-1.2891-9.8047-4.4648-13.613-7.0664-7.3789-5.0469-10.715-8.3945-4.5703-4.6016 12.523 7.75 22.801 10.578 35.246 9.7266 17.508-1.1992 28.688-11.402 31.742-28.957 1.1406-6.5703 0.78516-26.789-0.57031-32.145-0.50391-1.9883-0.42578-2.1562 0.41406-0.83984 1.6523 2.5547 3.3125 21.039 2.7891 30.953-0.25391 4.9414-1.2734 11.363-2.2656 14.262-2.3633 6.9609-8.9102 14.164-16.074 17.668-4.8945 2.4062-7.0039 2.8008-16.023 3.0469-8.8359 0.23828-11.387-0.066406-17.078-2.0469m4.2148-9.543c-1.9648-0.67969-1.3438-0.86719 3.0781-0.94531 13.84-0.25 24.109-4.4375 31.746-12.938l4.9258-5.4727-1.6016 3.9102c-2.6055 6.3203-6.1133 10.113-12.117 13.043-4.7227 2.3125-7.1055 2.8008-14.594 3.0078-4.9258 0.12891-10.07-0.13672-11.438-0.60547m26.297-15.98c0.58984-0.76172 2.5-3.2266 4.2617-5.4648 1.75-2.2344 4.293-6.6875 5.6484-9.8945 1.8711-4.4141 2.3164-4.9883 1.8203-2.3672-1.4336 7.7812-6.0742 15.52-10.824 18.07-1.6406 0.875-1.7969 0.82422-0.90625-0.34375m21.805-51.906c-0.95312-2.4844-0.67578-3.1289 0.49219-1.1211 0.58203 0.99219 0.83984 2.0117 0.59375 2.2656-0.25781 0.26172-0.74219-0.25391-1.0859-1.1445m-72.828-48.344c-6.2617-2.3438-14.723-5.9492-18.797-8.0039-25.82-13.016-50.203-37.262-62.727-62.371-3.7891-7.6094-8.043-20.078-7.1523-20.98 0.15625-0.14844 1.3047 2.2891 2.5703 5.4023 10.832 26.871 34.324 53.531 62.363 70.762 4.0742 2.5156 13.984 7.7422 22.012 11.613 13.227 6.3828 16.062 8.0039 13.848 7.8828-0.40625-0.015625-5.8555-1.957-12.117-4.3047m-151.61-13.219c-5.0039-10.539-8.7227-20.672-8.5938-23.438 0.027344-0.58203 1.3047 2.2891 2.8398 6.3633 1.5312 4.0781 4.8477 12.055 7.3789 17.727 2.5234 5.6602 4.4375 10.453 4.2422 10.641-0.1875 0.18359-2.8281-4.8906-5.8672-11.293m31.004 5.1172c0.046874-1.1602 0.27734-1.3984 0.59375-0.60547 0.28906 0.71094 0.25781 1.5742-0.078126 1.9023-0.32812 0.32422-0.55469-0.25781-0.51562-1.2969m44.102-68.953c-3.207-5.0664-4.9375-8.6562-4.1641-8.6562 0.20703 0 1.4297 1.8906 2.7383 4.2031 1.2969 2.3164 3.1641 5.4336 4.1523 6.9297 0.98047 1.4922 1.5156 2.7188 1.168 2.7188-0.33594 0-2.0977-2.3359-3.8945-5.1953m328.03 134.86c24.426-9.082 40.777-26.797 49.324-53.43 3.1445-9.8164 3.7891-6.9883 0.9375 4.1562-5.9453 23.25-24.246 42.586-47.473 50.156-9.4648 3.0898-11.633 2.4062-2.7891-0.88281m-47.02-0.58203c-8-1.9297-15.293-5.6211-20.508-10.363-3.9141-3.5625-3.9141-4.668 0-1.375 3.1875 2.6836 15.684 8.1562 22.262 9.7695 3.8086 0.92969 8.2578 2.0547 9.8906 2.5 5.4727 1.5078-5.2656 1.0234-11.645-0.53125m46.27-7.0977c19.566-11.199 30.262-21.609 38.152-37.117 4.2539-8.3555 5.5391-9.8086 3.4648-3.9102-5.7891 16.418-19.656 31.547-36.672 40.031-7.2227 3.6016-10.715 4.3008-4.9453 0.99609m-3.5352-119.94c-3.5781-3.6992-10.188-9.457-14.68-12.793-8.9336-6.6328-9.6133-8.1367-1.1562-2.5625 6.9453 4.5703 14.137 11.094 19.055 17.27 2.1641 2.7188 3.7969 4.9258 3.6172 4.8867-0.1875-0.027344-3.2617-3.0898-6.8359-6.8008m-498.5-35.625c0-3.7031 2.957-13.953 5.4414-18.852 3.9648-7.8398 5.6758-7.7305 2.0586 0.12891-1.8516 4.0039-4.1172 10.172-5.0273 13.715-1.832 7.1055-2.4727 8.4023-2.4727 5.0078m480.77-137.63c-11.023-6.0586-27.402-10.473-44.012-11.836l-8.9141-0.73438 9.5547-0.14844c15.75-0.22656 33.469 4.457 44.359 11.727 4.9648 3.3164 4.3516 3.9297-0.98828 0.99219m-234.42-76.262c-0.058594-2.8984 4.7383-15.617 8.9336-23.672 4.5586-8.7656 14.371-20.059 23.66-27.203 6.0234-4.6406 18.629-11.926 19.359-11.184 0.24609 0.23828-1.9453 2.0859-4.8672 4.1055-7.6055 5.2344-26.035 24.492-32.328 33.777-2.957 4.3516-7.4805 11.926-10.051 16.824-2.5703 4.8984-4.6875 8.2031-4.707 7.3516m104.83-36.742c1.8984-1.1797 5.6875-3.7148 8.4102-5.6211 3.3398-2.3672 4.3203-2.7734 3.0156-1.2578-1.9922 2.293-12.504 9.0625-14.027 9.0352-0.47656-0.011719 0.70312-0.98047 2.6016-2.1562m-29.727-9.3945c14.066-10.379 28.23-21.215 32.523-24.887 7.6016-6.4844 17.066-18.758 21.488-27.848 2.1055-4.3281 3.9492-7.7305 4.1055-7.5742 0.63281 0.63672-3.0586 11.34-5.668 16.461-6.875 13.469-26.777 31.062-47.039 41.574-4.3125 2.2344-6.7461 3.2539-5.4102 2.2734m13.898 1.375c0-0.26562 5.5-4.5234 12.227-9.457 19.695-14.449 32.883-30.156 38.375-45.664 1.9375-5.4805 2.2695-8.4141 2.293-19.793 0.019531-14.348-1.0312-19.555-6.1641-30.531-1.4336-3.0742-2.8086-6.0352-3.0469-6.5781-1.3047-3.0117 3.9258 4.75 6.0664 8.9727 7.5078 14.879 8.4258 36.473 2.2656 53.441-4.4141 12.176-19.004 29.176-33.223 38.707-8.2578 5.5391-18.793 11.656-18.793 10.906m-214.71 128.37c-4.4688-4.6445-7.5664-6.1875-16.055-7.9492-16.895-3.5312-24.43-10.32-29.852-26.906-0.95312-2.8984-1.5234-5.4609-1.2852-5.7109 0.24609-0.23828 2.1836 0.29688 4.3125 1.1992 2.1172 0.89844 7.5273 2.6523 11.996 3.8984 16.105 4.4727 23.457 10.59 28.738 23.891 1.6836 4.2461 3.7617 9.3828 4.6211 11.418 0.85938 2.043 1.4141 3.7109 1.2461 3.7109s-1.8516-1.5898-3.7188-3.5508m22.445-23.664c1.6211-10.23 5.2422-15.445 11.73-16.902 2.918-0.65234 2.8906-0.58203-1.8203 4.2852-2.6289 2.7227-6.082 7.5625-7.6641 10.758-2.8281 5.7227-2.8672 5.75-2.2461 1.8594m-23.574-3.6992c-1.8008-3.3945-5.8359-8.7383-8.9609-11.879-4.3047-4.3008-5.2266-5.6992-3.7891-5.6992 3.2734 0 10.324 6.168 12.84 11.234 2.0469 4.125 4.3828 12.52 3.4805 12.52-0.15625 0-1.7695-2.7812-3.5703-6.1758m7.3516-12.734c-6.3633-3.1484-8.6484-7-8.6484-14.57 0-5.9961 0.16016-6.4023 3.8203-9.7578 3.6289-3.3359 4.0938-3.4727 9.6523-3.0781 4.9648 0.36328 6.3398 0.91016 9.1914 3.6719 3.8477 3.7305 6.0664 10.293 5.1445 15.211-0.70312 3.7305-4.6211 7.9648-8.8359 9.5586-3.9375 1.4844-5.5508 1.3281-10.328-1.0352m9.8242-8.4531c3.8984-3.5312 1.1875-11.234-3.957-11.234-5.9531 0-8.25 7.0781-3.5 10.816 3.1562 2.4766 5.0664 2.5859 7.457 0.41797m-13.375-45.395c-2.0586-2.457-4.125-4.2344-4.5977-3.9414-0.46484 0.28906-1.1797 0.011719-1.5742-0.63281-0.44531-0.71875-0.28516-0.89062 0.43359-0.45312 0.63672 0.39453 1.1602 0.14062 1.1797-0.58203 0.027344-1.2578 2.8789 1.7383 7.0039 7.3594 3.0859 4.207 1.7031 3.2148-2.4453-1.75m-232.86 58.219c0.94922-0.24609 2.5117-0.24609 3.4648 0 0.94531 0.24609 0.17578 0.45703-1.7305 0.45703-1.9102 0-2.6836-0.21094-1.7344-0.45703m-10.141-6.1836c-19.617-2.1289-36.234-14.262-42.023-30.688-2.3438-6.6445-1.0781-5.8711 2.9492 1.7969 6.7773 12.898 19.637 21.961 36.148 25.477 9.6055 2.0391 26.855 1.375 38.926-1.5156 10.555-2.5234 12.414-2.0195 2.9297 0.80469-13.516 4.0156-26.879 5.4297-38.93 4.125m-1.7695-9.4102c-5.1641-1.2578-13.367-4.5352-12.793-5.1211 0.16797-0.15625 3.1797 0.60547 6.6914 1.7148 12.227 3.8281 26.223 3.3828 49.422-1.5938 1.3633-0.28906 0.058594 0.36328-2.8789 1.4648-12.09 4.4922-30.016 6.0547-40.441 3.5352m27.492-9.4453c9.7148-2.0352 14.391-2.1367 7.418-0.15625-2.1758 0.625-6.8555 1.3438-10.387 1.6211-6.2148 0.48438-6.1133 0.4375 2.9688-1.4648m13.355-2.9766c2.7188-1.168 4.2812-1.168 2.4727 0-0.8125 0.52344-2.1602 0.92969-2.9688 0.89844-0.98047-0.027344-0.8125-0.33594 0.49609-0.89844m-32.152-1.8906c0.8125-0.44531 4.5977-1.0781 8.4102-1.3867 3.8086-0.31641 8.4766-0.80859 10.387-1.0977 1.9062-0.28516 1.2422 0.058594-1.4844 0.77344-5.8945 1.543-19.43 2.8867-17.312 1.7109m-6.1836-0.74219c0.68359-0.27734 1.793-0.27734 2.4766 0 0.67969 0.27734 0.12891 0.49219-1.2383 0.49219-1.3672 0-1.918-0.21484-1.2383-0.49219m340.99-114.14c2.3828-10.176 4.5234-26.648 4.6016-35.48 0.085938-9.0625 0.23438-9.9844 1.0742-6.5781 1.4961 6.0664 0.26172 25.551-2.1641 34.082-2.0391 7.1758-4.7891 13.422-3.5117 7.9766m-3.7383-15.34c0.95703-6.0078 2.3828-9.8242 1.6602-4.4531-0.32422 2.4453-0.98047 5.3438-1.4414 6.4336-0.54688 1.2773-0.625 0.57422-0.21875-1.9805m-204.94 47.465c-3.8984-1.3477-3.9102-1.3555-0.49609-0.78125 4.0352 0.67969 8.1602 2.1875 5.9336 2.1641-0.80859-0.007813-3.2617-0.63281-5.4375-1.3828m0.87891-14.688c-3.3242-1.2383-8.0117-3.3945-10.406-4.8008-5.7578-3.3711-13.91-12.113-16.953-18.16-4.0703-8.1016-4.1172-10.242-0.074219-3.3828 5.8086 9.8359 14.465 17.895 24.25 22.562 4.5312 2.1602 9.3477 4.3945 10.711 4.9688 5.0742 2.1289-1.3359 1.1172-7.5273-1.1875m1.2969-8.0273c-9.082-3.7773-17.027-10.152-20.98-16.832-1.2188-2.0469-0.49609-1.543 2.3203 1.625 4.4531 5.0078 11.695 10.152 20.66 14.695 6.9219 3.5117 5.8633 3.7773-2 0.51172z" fill="none" />
  </g>
 </g>
</svg>