<?xml version="1.0" encoding="UTF-8"?>
<svg width="1587" height="1587" version="1.0" viewBox="0 0 1190.2 1190.2" xmlns="http://www.w3.org/2000/svg" zoomAndPan="magnify">
 <defs>
  <clipPath id="b">
   <path d="m0 0h1189.5v1189.5h-1189.5z"/>
  </clipPath>
  <clipPath id="a">
   <path d="m0 508.64h1189.5v172.39h-1189.5z"/>
  </clipPath>
 </defs>
 <g clip-path="url(#b)" fill="none">
  <path d="m0 0h1189.5v1189.5h-1189.5z"/>
  <path d="m0 0h1189.5v1189.5h-1189.5z"/>
 </g>
 <g clip-path="url(#a)">
  <path d="m647.72 565.56h-27.477v50.16h-28.59v35.871h-18.449v-6.3828h-10.254v-70.078h-1.9766l-5.4766-9.5234h-24.891v35.816h-9.582v8.5703h-5.3203v18.648h-7.0469v-74.234h-6.332v-9.7227h-7.0508v-9.125h-7.4023v-8.8125h-3.5977v-18.094h-2.7344v18.094h-3.5977v8.8203h-7.3516v9.125h-7.0469v9.7227h-6.3359v103.64h-3.4492v-29.809h-10.695v16.672h-3.5469v-34.105h-49.531v-77.723h-66.918v124.34h-8.1602v-81.68h-20.836v46.922h-4.2617v-29.898h-24.34v53.102h-36.906v-33.641h-21.898v46.719h-8.0586v-91.883l-32.648-14.645-12.266 7.2969v62.121h-9.3828v-38.004l-17.336 15.203v50.621h-25.746v-31.668h-28.391v38.621h-2.125v-22.461h-22.066v36.332h-18.852v-18.543h-13.535v13.527h-7.9609v11.555h-8.1094v4.0039h1189.1v-9.2188h-10.805v-7.2969h-8.0547v-14.594h-14.855v11.609h-6.0352v-58.727h-24.035v48.695h-2.5312v-83.098l-23.016-29.645v33.336h-3.5469v-54.625l-23.016 22.898v83.148l-3.0391-1.5234v-10.188h-34.016v44.945h-18.809v-86.691h-36.191v67.996h-15.012v-40.988l-8.918-10.492-13.18 23.664v48.75h-9.3828v-98.352h-30.672v58.371h-35.582v27.258h-11.867v-48.234h-15.609v-31.266l-17.492-14.695-5.5234 3.2891v25.895h-15.008v40.383h30.723v55.383h-2.5352v-52.852h-37.309v-98.949h-34.469v85.176h-8.918v56.75h-4.4609v-93.734h-23.066v73.172h-13.484v-58.781h-16.324v66.73h-3.5469v-99.266l-10.035-2.7852v-17.23l-9.0781-2.5352v-12.215h-4.0586v11.102l-11.203-3.1445v17.18l-7.5508-2.082v22zm-316.04-43.828h19.312v-1.4727h-19.312zm-2.2812 2.8398h26.461v1.418h-26.461zm-6.3438 2.8281h66.918v1.418h-66.918zm4.9727 2.8398h34.934v1.418h-34.934zm-22.41 25.285h-2.2305v-8.3086h2.2305zm2.1836 1.3633h-6.5938v11.609h6.5938zm6.1875 16.98h-19.008v-3.0391h19.008zm598.91-28.934h2.1758v13.625h-2.1758zm-3.6523 0h2.1797v13.625h-2.1797zm10.953 0h2.1758v13.625h-2.1758zm-3.6523 0h2.1797v13.625h-2.1797zm10.949 0h2.1797v13.625h-2.1797zm-3.6484 0h2.1758v13.625h-2.1758zm-152.39-35.062h17.797v8.2109h-17.797zm-10.488 13.121h31.43v-3.543h-31.43z" fill-rule="evenodd"/>
 </g>
 <path d="m463.39 559.28h6.4922v2.9453h-6.4922z" fill="#fff" fill-rule="evenodd"/>
 <path d="m637.37 569.72h3.1484v3.4453h-3.1484v-3.4453z" fill="#fff" fill-rule="evenodd"/>
 <path d="m632.41 569.72h2.8398v3.4453h-2.8398v-3.4453z" fill="#fff" fill-rule="evenodd"/>
 <path d="m627.75 569.72h2.4844v3.4453h-2.4844v-3.4453z" fill="#fff" fill-rule="evenodd"/>
 <path d="m623.38 569.72h2.1797v3.4453h-2.1797z" fill="#fff" fill-rule="evenodd"/>
 <path d="m642.7 569.72h3.4492v3.4453h-3.4492z" fill="#fff" fill-rule="evenodd"/>
 <path d="m637.37 576.05h3.1484v3.4492h-3.1484v-3.4492z" fill="#fff" fill-rule="evenodd"/>
 <path d="m632.41 576.05h2.8398v3.4492h-2.8398v-3.4492z" fill="#fff" fill-rule="evenodd"/>
 <path d="m623.38 576.05h2.1797v3.4492h-2.1797z" fill="#fff" fill-rule="evenodd"/>
 <path d="m642.7 576.05h3.4492v3.4492h-3.4492z" fill="#fff" fill-rule="evenodd"/>
 <path d="m637.37 582.39h3.1484v3.3945h-3.1484v-3.3945z" fill="#fff" fill-rule="evenodd"/>
 <path d="m632.41 582.39h2.8398v3.3945h-2.8398v-3.3945z" fill="#fff" fill-rule="evenodd"/>
 <path d="m627.75 582.39h2.4844v3.3945h-2.4844v-3.3945z" fill="#fff" fill-rule="evenodd"/>
 <path d="m623.38 582.39h2.1797v3.3945h-2.1797z" fill="#fff" fill-rule="evenodd"/>
 <path d="m642.7 582.39h3.4492v3.3945h-3.4492z" fill="#fff" fill-rule="evenodd"/>
 <path d="m637.37 588.66h3.1484v3.4453h-3.1484v-3.4453z" fill="#fff" fill-rule="evenodd"/>
 <path d="m627.75 588.66h2.4844v3.4453h-2.4844v-3.4453z" fill="#fff" fill-rule="evenodd"/>
 <path d="m623.38 588.66h2.1797v3.4453h-2.1797z" fill="#fff" fill-rule="evenodd"/>
 <path d="m637.37 595h3.1484v3.4492h-3.1484v-3.4492z" fill="#fff" fill-rule="evenodd"/>
 <path d="m632.41 595h2.8398v3.4492h-2.8398v-3.4492z" fill="#fff" fill-rule="evenodd"/>
 <path d="m627.75 595h2.4844v3.4492h-2.4844v-3.4492z" fill="#fff" fill-rule="evenodd"/>
 <path d="m623.38 595h2.1797v3.4492h-2.1797z" fill="#fff" fill-rule="evenodd"/>
 <path d="m642.7 595h3.4492v3.4492h-3.4492z" fill="#fff" fill-rule="evenodd"/>
 <path d="m632.41 601.33h2.8398v3.4453h-2.8398v-3.4453z" fill="#fff" fill-rule="evenodd"/>
 <path d="m623.38 601.33h2.1797v3.4453h-2.1797z" fill="#fff" fill-rule="evenodd"/>
 <path d="m642.7 601.33h3.4492v3.4453h-3.4492z" fill="#fff" fill-rule="evenodd"/>
 <path d="m637.37 607.67h3.1484v3.4492h-3.1484v-3.4492z" fill="#fff" fill-rule="evenodd"/>
 <path d="m632.41 607.67h2.8398v3.4492h-2.8398v-3.4492z" fill="#fff" fill-rule="evenodd"/>
 <path d="m627.75 607.67h2.4844v3.4492h-2.4844v-3.4492z" fill="#fff" fill-rule="evenodd"/>
 <path d="m623.38 607.67h2.1797v3.4492h-2.1797z" fill="#fff" fill-rule="evenodd"/>
 <path d="m637.37 614h3.1484v3.4453h-3.1484v-3.4453z" fill="#fff" fill-rule="evenodd"/>
 <path d="m632.41 614h2.8398v1.7227h-2.8398z" fill="#fff" fill-rule="evenodd"/>
 <path d="m627.75 614h2.4844v1.7227h-2.4844z" fill="#fff" fill-rule="evenodd"/>
 <path d="m623.38 614h2.1797v1.7227h-2.1797z" fill="#fff" fill-rule="evenodd"/>
 <path d="m642.7 614h3.4492v3.4453h-3.4492z" fill="#fff" fill-rule="evenodd"/>
 <path d="m637.37 620.34h3.1484v3.3984h-3.1484v-3.3984z" fill="#fff" fill-rule="evenodd"/>
 <path d="m642.7 620.34h3.4492v3.3984h-3.4492z" fill="#fff" fill-rule="evenodd"/>
 <path d="m637.37 626.61h3.1484v3.4492h-3.1484v-3.4492z" fill="#fff" fill-rule="evenodd"/>
 <path d="m642.7 626.61h3.4492v3.4492h-3.4492z" fill="#fff" fill-rule="evenodd"/>
 <path d="m637.37 632.95h3.1484v3.4492h-3.1484v-3.4492z" fill="#fff" fill-rule="evenodd"/>
 <path d="m642.7 632.95h3.4492v3.4492h-3.4492z" fill="#fff" fill-rule="evenodd"/>
 <path d="m642.7 639.29h3.4492v3.4453h-3.4492z" fill="#fff" fill-rule="evenodd"/>
 <path d="m637.37 645.62h3.1484v3.4492h-3.1484v-3.4492z" fill="#fff" fill-rule="evenodd"/>
 <path d="m642.7 645.62h3.4492v3.4492h-3.4492z" fill="#fff" fill-rule="evenodd"/>
 <path d="m637.37 651.95h3.1484v3.4453h-3.1484v-3.4453z" fill="#fff" fill-rule="evenodd"/>
 <path d="m642.7 651.95h3.4492v3.4453h-3.4492z" fill="#fff" fill-rule="evenodd"/>
 <path d="m637.37 658.29h3.1484v3.3945h-3.1484v-3.3945z" fill="#fff" fill-rule="evenodd"/>
 <path d="m145.93 625.96h6.1406v4.7109l-3.5-2.8359-1.168 1.4688 4.668 3.6992v2.9883l-3.5-2.7852-1.168 1.4688 4.668 3.6914v2.9961l-3.5-2.7852-1.168 1.418 4.668 3.7461v2.9922l-3.5-2.7852-1.168 1.4219 4.668 3.7422v2.9961l-3.5-2.7891-1.168 1.4141 4.668 3.75v2.9883l-3.5-2.7891-1.168 1.4219 4.668 3.75v2.9883l-3.5-2.8398-1.168 1.4727 4.668 3.6992v1.0117h-6.1406z" fill="#fff" fill-rule="evenodd"/>
 <path d="m350.09 665.68h29.652v4.457h-29.652z" fill="#fff" fill-rule="evenodd"/>
 <path d="m350.09 658.29h29.652v4.457h-29.652z" fill="#fff" fill-rule="evenodd"/>
 <path d="m345.22 650.84h34.523v4.5117h-34.523z" fill="#fff" fill-rule="evenodd"/>
 <path d="m345.22 643.44h34.523v4.457h-34.523z" fill="#fff" fill-rule="evenodd"/>
 <path d="m345.22 636.04h34.523v4.4609h-34.523z" fill="#fff" fill-rule="evenodd"/>
 <path d="m345.22 628.59h34.523v4.4609h-34.523z" fill="#fff" fill-rule="evenodd"/>
 <path d="m345.22 621.2h34.523v4.457h-34.523z" fill="#fff" fill-rule="evenodd"/>
 <path d="m345.22 613.75h34.523v4.5117h-34.523z" fill="#fff" fill-rule="evenodd"/>
 <path d="m345.22 606.35h42.684v4.4648h-42.684z" fill="#fff" fill-rule="evenodd"/>
 <path d="m329.66 538.7h3.8516v118.71h-3.8516z" fill="#fff" fill-rule="evenodd"/>
 <path d="m335.54 538.7h3.8516v118.71h-3.8516z" fill="#fff" fill-rule="evenodd"/>
 <path d="m345.22 598.95h42.684v4.457h-42.684z" fill="#fff" fill-rule="evenodd"/>
 <path d="m345.22 591.5h42.684v4.4609h-42.684z" fill="#fff" fill-rule="evenodd"/>
 <path d="m345.22 584.11h42.684v4.457h-42.684z" fill="#fff" fill-rule="evenodd"/>
 <path d="m345.22 576.66h42.684v4.5117h-42.684z" fill="#fff" fill-rule="evenodd"/>
 <path d="m345.22 569.25h42.684v4.4609h-42.684z" fill="#fff" fill-rule="evenodd"/>
 <path d="m345.22 561.86h42.684v4.457h-42.684z" fill="#fff" fill-rule="evenodd"/>
 <path d="m345.22 554.41h42.684v4.457h-42.684z" fill="#fff" fill-rule="evenodd"/>
 <path d="m345.22 547.02h42.684v4.457h-42.684z" fill="#fff" fill-rule="evenodd"/>
 <path d="m345.22 539.57h42.684v4.457h-42.684z" fill="#fff" fill-rule="evenodd"/>
 <path d="m1103 574.43h2.0273v1.875h-2.0273v-1.875z" fill="#fff" fill-rule="evenodd"/>
 <path d="m1107.5 574.43h2.0312v1.875h-2.0312v-1.875z" fill="#fff" fill-rule="evenodd"/>
 <path d="m1111.9 574.43h2.082v1.875h-2.082v-1.875z" fill="#fff" fill-rule="evenodd"/>
 <path d="m1116.4 574.43h2.082v1.875h-2.082v-1.875z" fill="#fff" fill-rule="evenodd"/>
 <path d="m1103 578.74h2.0273v1.8711h-2.0273v-1.8711z" fill="#fff" fill-rule="evenodd"/>
 <path d="m1107.5 578.74h2.0312v1.8711h-2.0312v-1.8711z" fill="#fff" fill-rule="evenodd"/>
 <path d="m1111.9 578.74h2.082v1.8711h-2.082v-1.8711z" fill="#fff" fill-rule="evenodd"/>
 <path d="m1116.4 578.74h2.082v1.8711h-2.082v-1.8711z" fill="#fff" fill-rule="evenodd"/>
 <path d="m1103 583.04h2.0273v1.9219h-2.0273v-1.9219z" fill="#fff" fill-rule="evenodd"/>
 <path d="m1107.5 583.04h2.0312v1.9219h-2.0312v-1.9219z" fill="#fff" fill-rule="evenodd"/>
 <path d="m1111.9 583.04h2.082v1.9219h-2.082v-1.9219z" fill="#fff" fill-rule="evenodd"/>
 <path d="m1116.4 583.04h2.082v1.9219h-2.082v-1.9219z" fill="#fff" fill-rule="evenodd"/>
 <path d="m1103 587.4h2.0273v1.8711h-2.0273v-1.8711z" fill="#fff" fill-rule="evenodd"/>
 <path d="m1107.5 587.4h2.0312v1.8711h-2.0312v-1.8711z" fill="#fff" fill-rule="evenodd"/>
 <path d="m1111.9 587.4h2.082v1.8711h-2.082v-1.8711z" fill="#fff" fill-rule="evenodd"/>
 <path d="m1116.4 587.4h2.082v1.8711h-2.082v-1.8711z" fill="#fff" fill-rule="evenodd"/>
 <path d="m1103 591.71h2.0273v1.8711h-2.0273v-1.8711z" fill="#fff" fill-rule="evenodd"/>
 <path d="m1107.5 591.71h2.0312v1.8711h-2.0312v-1.8711z" fill="#fff" fill-rule="evenodd"/>
 <path d="m1111.9 591.71h2.082v1.8711h-2.082v-1.8711z" fill="#fff" fill-rule="evenodd"/>
 <path d="m1116.4 591.71h2.082v1.8711h-2.082v-1.8711z" fill="#fff" fill-rule="evenodd"/>
 <path d="m1103 596.01h2.0273v1.8711h-2.0273v-1.8711z" fill="#fff" fill-rule="evenodd"/>
 <path d="m1107.5 596.01h2.0312v1.8711h-2.0312v-1.8711z" fill="#fff" fill-rule="evenodd"/>
 <path d="m1116.4 596.01h2.082v1.8711h-2.082v-1.8711z" fill="#fff" fill-rule="evenodd"/>
 <path d="m1103 600.32h2.0273v1.8711h-2.0273v-1.8711z" fill="#fff" fill-rule="evenodd"/>
 <path d="m1107.5 600.32h2.0312v1.8711h-2.0312v-1.8711z" fill="#fff" fill-rule="evenodd"/>
 <path d="m1111.9 600.32h2.082v1.8711h-2.082v-1.8711z" fill="#fff" fill-rule="evenodd"/>
 <path d="m1116.4 600.32h2.082v1.8711h-2.082v-1.8711z" fill="#fff" fill-rule="evenodd"/>
 <path d="m1103 604.63h2.0273v1.9219h-2.0273v-1.9219z" fill="#fff" fill-rule="evenodd"/>
 <path d="m1107.5 604.63h2.0312v1.9219h-2.0312v-1.9219z" fill="#fff" fill-rule="evenodd"/>
 <path d="m1111.9 604.63h2.082v1.9219h-2.082v-1.9219z" fill="#fff" fill-rule="evenodd"/>
 <path d="m1116.4 604.63h2.082v1.9219h-2.082v-1.9219z" fill="#fff" fill-rule="evenodd"/>
 <path d="m1107.5 608.98h2.0312v1.8711h-2.0312v-1.8711z" fill="#fff" fill-rule="evenodd"/>
 <path d="m1111.9 608.98h2.082v1.8711h-2.082v-1.8711z" fill="#fff" fill-rule="evenodd"/>
 <path d="m1116.4 608.98h2.082v1.8711h-2.082v-1.8711z" fill="#fff" fill-rule="evenodd"/>
 <path d="m1103 613.29h2.0273v1.8711h-2.0273v-1.8711z" fill="#fff" fill-rule="evenodd"/>
 <path d="m1107.5 613.29h2.0312v1.8711h-2.0312v-1.8711z" fill="#fff" fill-rule="evenodd"/>
 <path d="m1111.9 613.29h2.082v1.8711h-2.082v-1.8711z" fill="#fff" fill-rule="evenodd"/>
 <path d="m1116.4 613.29h2.082v1.8711h-2.082v-1.8711z" fill="#fff" fill-rule="evenodd"/>
 <path d="m1103 617.59h2.0273v1.875h-2.0273v-1.875z" fill="#fff" fill-rule="evenodd"/>
 <path d="m1107.5 617.59h2.0312v1.875h-2.0312v-1.875z" fill="#fff" fill-rule="evenodd"/>
 <path d="m1111.9 617.59h2.082v1.875h-2.082v-1.875z" fill="#fff" fill-rule="evenodd"/>
 <path d="m1116.4 617.59h2.082v1.875h-2.082v-1.875z" fill="#fff" fill-rule="evenodd"/>
 <path d="m1103 621.91h2.0273v1.8711h-2.0273v-1.8711z" fill="#fff" fill-rule="evenodd"/>
 <path d="m1111.9 621.91h2.082v1.8711h-2.082v-1.8711z" fill="#fff" fill-rule="evenodd"/>
 <path d="m1116.4 621.91h2.082v1.8711h-2.082v-1.8711z" fill="#fff" fill-rule="evenodd"/>
 <path d="m1103 626.21h2.0273v1.9258h-2.0273v-1.9258z" fill="#fff" fill-rule="evenodd"/>
 <path d="m1107.5 626.21h2.0312v1.9258h-2.0312v-1.9258z" fill="#fff" fill-rule="evenodd"/>
 <path d="m1111.9 626.21h2.082v1.9258h-2.082v-1.9258z" fill="#fff" fill-rule="evenodd"/>
 <path d="m1116.4 626.21h2.082v1.9258h-2.082v-1.9258z" fill="#fff" fill-rule="evenodd"/>
 <path d="m1103 630.57h2.0273v1.875h-2.0273v-1.875z" fill="#fff" fill-rule="evenodd"/>
 <path d="m1107.5 630.57h2.0312v1.875h-2.0312v-1.875z" fill="#fff" fill-rule="evenodd"/>
 <path d="m1111.9 630.57h2.082v1.875h-2.082v-1.875z" fill="#fff" fill-rule="evenodd"/>
 <path d="m1116.4 630.57h2.082v1.875h-2.082v-1.875z" fill="#fff" fill-rule="evenodd"/>
 <path d="m1103 634.88h2.0273v1.8711h-2.0273v-1.8711z" fill="#fff" fill-rule="evenodd"/>
 <path d="m1107.5 634.88h2.0312v1.8711h-2.0312v-1.8711z" fill="#fff" fill-rule="evenodd"/>
 <path d="m1111.9 634.88h2.082v1.8711h-2.082v-1.8711z" fill="#fff" fill-rule="evenodd"/>
 <path d="m1103 639.19h2.0273v1.8711h-2.0273v-1.8711z" fill="#fff" fill-rule="evenodd"/>
 <path d="m1107.5 639.19h2.0312v1.8711h-2.0312v-1.8711z" fill="#fff" fill-rule="evenodd"/>
 <path d="m1103 643.49h2.0273v1.8711h-2.0273v-1.8711z" fill="#fff" fill-rule="evenodd"/>
 <path d="m1107.5 643.49h2.0312v1.8711h-2.0312v-1.8711z" fill="#fff" fill-rule="evenodd"/>
 <path d="m1103 647.8h2.0273v1.9258h-2.0273v-1.9258z" fill="#fff" fill-rule="evenodd"/>
 <path d="m1103 652.15h2.0273v1.8711h-2.0273v-1.8711z" fill="#fff" fill-rule="evenodd"/>
 <path d="m1103 656.46h2.0273v1.8711h-2.0273v-1.8711z" fill="#fff" fill-rule="evenodd"/>
 <path d="m1103 660.77h2.0273v1.875h-2.0273v-1.875z" fill="#fff" fill-rule="evenodd"/>
 <path d="m1103 665.07h2.0273v1.8711h-2.0273v-1.8711z" fill="#fff" fill-rule="evenodd"/>
 <path d="m1103 669.38h2.0273v1.9219h-2.0273z" fill="#fff" fill-rule="evenodd"/>
 <path d="m1103 570.12h2.0273v1.8711h-2.0273z" fill="#fff" fill-rule="evenodd"/>
 <path d="m1107.5 570.12h2.0312v1.8711h-2.0312z" fill="#fff" fill-rule="evenodd"/>
 <path d="m1111.9 570.12h2.082v1.8711h-2.082z" fill="#fff" fill-rule="evenodd"/>
 <path d="m1116.4 570.12h2.082v1.8711h-2.082z" fill="#fff" fill-rule="evenodd"/>
 <path d="m1083.1 549.7h2.9453v2.6406h-2.9453v-2.6406z" fill="#fff" fill-rule="evenodd"/>
 <path d="m1088.4 549.7h2.125v2.6406h-2.125v-2.6406z" fill="#fff" fill-rule="evenodd"/>
 <path d="m1092.8 549.7h1.3672v2.6406h-1.3672v-2.6406z" fill="#fff" fill-rule="evenodd"/>
 <path d="m1077.2 549.7h3.7539v2.6406h-3.7539v-2.6406z" fill="#fff" fill-rule="evenodd"/>
 <path d="m1083.1 554.82h2.9453v2.6367h-2.9453v-2.6367z" fill="#fff" fill-rule="evenodd"/>
 <path d="m1088.4 554.82h2.125v2.6367h-2.125v-2.6367z" fill="#fff" fill-rule="evenodd"/>
 <path d="m1092.8 554.82h1.3672v2.6367h-1.3672v-2.6367z" fill="#fff" fill-rule="evenodd"/>
 <path d="m1077.2 554.82h3.7539v2.6367h-3.7539v-2.6367z" fill="#fff" fill-rule="evenodd"/>
 <path d="m1083.1 559.94h2.9453v2.6367h-2.9453v-2.6367z" fill="#fff" fill-rule="evenodd"/>
 <path d="m1088.4 559.94h2.125v2.6367h-2.125v-2.6367z" fill="#fff" fill-rule="evenodd"/>
 <path d="m1092.8 559.94h1.3672v2.6367h-1.3672v-2.6367z" fill="#fff" fill-rule="evenodd"/>
 <path d="m1077.2 559.94h3.7539v2.6367h-3.7539v-2.6367z" fill="#fff" fill-rule="evenodd"/>
 <path d="m1083.1 565.05h2.9453v2.6367h-2.9453v-2.6367z" fill="#fff" fill-rule="evenodd"/>
 <path d="m1088.4 565.05h2.125v2.6367h-2.125v-2.6367z" fill="#fff" fill-rule="evenodd"/>
 <path d="m1092.8 565.05h1.3672v2.6367h-1.3672v-2.6367z" fill="#fff" fill-rule="evenodd"/>
 <path d="m1077.2 565.05h3.7539v2.6367h-3.7539v-2.6367z" fill="#fff" fill-rule="evenodd"/>
 <path d="m1083.1 570.17h2.9453v2.6367h-2.9453v-2.6367z" fill="#fff" fill-rule="evenodd"/>
 <path d="m1088.4 570.17h2.125v2.6367h-2.125v-2.6367z" fill="#fff" fill-rule="evenodd"/>
 <path d="m1092.8 570.17h1.3672v2.6367h-1.3672v-2.6367z" fill="#fff" fill-rule="evenodd"/>
 <path d="m1077.2 570.17h3.7539v2.6367h-3.7539v-2.6367z" fill="#fff" fill-rule="evenodd"/>
 <path d="m1083.1 575.29h2.9453v2.6367h-2.9453v-2.6367z" fill="#fff" fill-rule="evenodd"/>
 <path d="m1088.4 575.29h2.125v2.6367h-2.125v-2.6367z" fill="#fff" fill-rule="evenodd"/>
 <path d="m1092.8 575.29h1.3672v2.6367h-1.3672v-2.6367z" fill="#fff" fill-rule="evenodd"/>
 <path d="m1077.2 575.29h3.7539v2.6367h-3.7539v-2.6367z" fill="#fff" fill-rule="evenodd"/>
 <path d="m1083.1 580.41h2.9453v2.6367h-2.9453v-2.6367z" fill="#fff" fill-rule="evenodd"/>
 <path d="m1088.4 580.41h2.125v2.6367h-2.125v-2.6367z" fill="#fff" fill-rule="evenodd"/>
 <path d="m1092.8 580.41h1.3672v2.6367h-1.3672v-2.6367z" fill="#fff" fill-rule="evenodd"/>
 <path d="m1077.2 580.41h3.7539v2.6367h-3.7539v-2.6367z" fill="#fff" fill-rule="evenodd"/>
 <path d="m1083.1 585.53h2.9453v2.6406h-2.9453v-2.6406z" fill="#fff" fill-rule="evenodd"/>
 <path d="m1088.4 585.53h2.125v2.6406h-2.125v-2.6406z" fill="#fff" fill-rule="evenodd"/>
 <path d="m1077.2 585.53h3.7539v2.6406h-3.7539v-2.6406z" fill="#fff" fill-rule="evenodd"/>
 <path d="m1083.1 590.64h2.9453v2.6367h-2.9453v-2.6367z" fill="#fff" fill-rule="evenodd"/>
 <path d="m1088.4 590.64h2.125v2.6367h-2.125v-2.6367z" fill="#fff" fill-rule="evenodd"/>
 <path d="m1077.2 590.64h3.7539v2.6367h-3.7539v-2.6367z" fill="#fff" fill-rule="evenodd"/>
 <path d="m1083.1 595.76h2.9453v2.6406h-2.9453v-2.6406z" fill="#fff" fill-rule="evenodd"/>
 <path d="m1088.4 595.76h2.125v2.6406h-2.125v-2.6406z" fill="#fff" fill-rule="evenodd"/>
 <path d="m1077.2 595.76h3.7539v2.6406h-3.7539v-2.6406z" fill="#fff" fill-rule="evenodd"/>
 <path d="m1083.1 600.88h2.9453v2.6367h-2.9453v-2.6367z" fill="#fff" fill-rule="evenodd"/>
 <path d="m1088.4 600.88h2.125v2.6367h-2.125v-2.6367z" fill="#fff" fill-rule="evenodd"/>
 <path d="m1077.2 600.88h3.7539v2.6367h-3.7539v-2.6367z" fill="#fff" fill-rule="evenodd"/>
 <path d="m1083.1 606h2.9453v2.6406h-2.9453v-2.6406z" fill="#fff" fill-rule="evenodd"/>
 <path d="m1088.4 606h2.125v2.6406h-2.125v-2.6406z" fill="#fff" fill-rule="evenodd"/>
 <path d="m1077.2 606h3.7539v2.6406h-3.7539v-2.6406z" fill="#fff" fill-rule="evenodd"/>
 <path d="m1083.1 611.12h2.9453v2.6367h-2.9453v-2.6367z" fill="#fff" fill-rule="evenodd"/>
 <path d="m1088.4 611.12h2.125v2.6367h-2.125v-2.6367z" fill="#fff" fill-rule="evenodd"/>
 <path d="m1077.2 611.12h3.7539v2.6367h-3.7539v-2.6367z" fill="#fff" fill-rule="evenodd"/>
 <path d="m1083.1 616.23h2.9453v2.6406h-2.9453v-2.6406z" fill="#fff" fill-rule="evenodd"/>
 <path d="m1088.4 616.23h2.125v2.6406h-2.125v-2.6406z" fill="#fff" fill-rule="evenodd"/>
 <path d="m1077.2 616.23h3.7539v2.6406h-3.7539v-2.6406z" fill="#fff" fill-rule="evenodd"/>
 <path d="m1083.1 621.35h2.9453v2.6367h-2.9453v-2.6367z" fill="#fff" fill-rule="evenodd"/>
 <path d="m1088.4 621.35h2.125v2.6367h-2.125v-2.6367z" fill="#fff" fill-rule="evenodd"/>
 <path d="m1077.2 621.35h3.7539v2.6367h-3.7539v-2.6367z" fill="#fff" fill-rule="evenodd"/>
 <path d="m1083.1 626.47h2.9453v2.6367h-2.9453v-2.6367z" fill="#fff" fill-rule="evenodd"/>
 <path d="m1088.4 626.47h2.125v2.6367h-2.125v-2.6367z" fill="#fff" fill-rule="evenodd"/>
 <path d="m1077.2 626.47h3.7539v2.6367h-3.7539v-2.6367z" fill="#fff" fill-rule="evenodd"/>
 <path d="m1083.1 631.59h2.9453v2.6406h-2.9453v-2.6406z" fill="#fff" fill-rule="evenodd"/>
 <path d="m1088.4 631.59h2.125v2.6406h-2.125v-2.6406z" fill="#fff" fill-rule="evenodd"/>
 <path d="m1077.2 631.59h3.7539v2.6406h-3.7539v-2.6406z" fill="#fff" fill-rule="evenodd"/>
 <path d="m1083.1 636.7h2.9453v2.6367h-2.9453v-2.6367z" fill="#fff" fill-rule="evenodd"/>
 <path d="m1088.4 636.7h2.125v2.6367h-2.125v-2.6367z" fill="#fff" fill-rule="evenodd"/>
 <path d="m1077.2 636.7h3.7539v2.6367h-3.7539v-2.6367z" fill="#fff" fill-rule="evenodd"/>
 <path d="m1083.1 641.82h2.9453v2.6367h-2.9453v-2.6367z" fill="#fff" fill-rule="evenodd"/>
 <path d="m1088.4 641.82h2.125v2.6367h-2.125v-2.6367z" fill="#fff" fill-rule="evenodd"/>
 <path d="m1077.2 641.82h3.7539v2.6367h-3.7539v-2.6367z" fill="#fff" fill-rule="evenodd"/>
 <path d="m1083.1 646.94h2.9453v2.6367h-2.9453v-2.6367z" fill="#fff" fill-rule="evenodd"/>
 <path d="m1088.4 646.94h2.125v2.6367h-2.125v-2.6367z" fill="#fff" fill-rule="evenodd"/>
 <path d="m1077.2 646.94h3.7539v2.6367h-3.7539v-2.6367z" fill="#fff" fill-rule="evenodd"/>
 <path d="m1083.1 652.05h2.9453v2.6406h-2.9453v-2.6406z" fill="#fff" fill-rule="evenodd"/>
 <path d="m1088.4 652.05h2.125v2.6406h-2.125v-2.6406z" fill="#fff" fill-rule="evenodd"/>
 <path d="m1077.2 652.05h3.7539v2.6406h-3.7539v-2.6406z" fill="#fff" fill-rule="evenodd"/>
 <path d="m1077.2 657.18h3.7539v2.6367h-3.7539v-2.6367z" fill="#fff" fill-rule="evenodd"/>
 <path d="m1077.2 662.29h3.7539v2.6406h-3.7539z" fill="#fff" fill-rule="evenodd"/>
 <path d="m1083.1 544.58h2.9453v2.6367h-2.9453v-2.6367z" fill="#fff" fill-rule="evenodd"/>
 <path d="m1088.4 544.58h2.125v2.6367h-2.125v-2.6367z" fill="#fff" fill-rule="evenodd"/>
 <path d="m1092.8 544.58h1.3672v2.6367h-1.3672z" fill="#fff" fill-rule="evenodd"/>
 <path d="m1077.2 544.58h3.7539v2.6367h-3.7539z" fill="#fff" fill-rule="evenodd"/>
 <path d="m985.61 592.67h27.578v3.5h-27.578z" fill="#fff" fill-rule="evenodd"/>
 <path d="m985.61 597.43h27.578v1.9766h-27.578z" fill="#fff" fill-rule="evenodd"/>
 <path d="m985.61 579.75h27.578v3.543h-27.578z" fill="#fff" fill-rule="evenodd"/>
 <path d="m985.61 584.56h27.578v1.9766h-27.578z" fill="#fff" fill-rule="evenodd"/>
 <path d="m985.61 605.54h27.578v3.543h-27.578z" fill="#fff" fill-rule="evenodd"/>
 <path d="m985.61 610.3h27.578v2.0273h-27.578z" fill="#fff" fill-rule="evenodd"/>
 <path d="m985.61 618.46h27.578v3.5h-27.578z" fill="#fff" fill-rule="evenodd"/>
 <path d="m985.61 623.22h27.578v1.9766h-27.578z" fill="#fff" fill-rule="evenodd"/>
 <path d="m985.61 631.34h27.578v3.5h-27.578z" fill="#fff" fill-rule="evenodd"/>
 <path d="m985.61 636.1h27.57v1.9766h-27.57z" fill="#fff" fill-rule="evenodd"/>
 <path d="m1001.6 644.2h11.559v3.543h-11.559z" fill="#fff" fill-rule="evenodd"/>
 <path d="m1001.6 649.02h11.559v1.9766h-11.559z" fill="#fff" fill-rule="evenodd"/>
 <path d="m1001.6 657.12h11.559v3.5h-11.559z" fill="#fff" fill-rule="evenodd"/>
 <path d="m1001.6 661.89h11.559v1.9766h-11.559z" fill="#fff" fill-rule="evenodd"/>
 <path d="m978.3 654.99h4.7656v3.0391h-4.7656z" fill="#fff" fill-rule="evenodd"/>
 <path d="m985.86 654.99h3.9023v3.0391h-3.9023z" fill="#fff" fill-rule="evenodd"/>
 <path d="m992.5 654.99h2.4297v3.0391h-2.4297z" fill="#fff" fill-rule="evenodd"/>
 <path d="m978.3 661.13h4.7656v2.9844h-4.7656z" fill="#fff" fill-rule="evenodd"/>
 <path d="m985.86 661.13h3.9023v2.9844h-3.9023z" fill="#fff" fill-rule="evenodd"/>
 <path d="m978.3 642.79h4.7656v2.9844h-4.7656z" fill="#fff" fill-rule="evenodd"/>
 <path d="m985.86 642.79h3.9023v2.9844h-3.9023z" fill="#fff" fill-rule="evenodd"/>
 <path d="m992.5 642.79h2.4297v2.9844h-2.4297z" fill="#fff" fill-rule="evenodd"/>
 <path d="m978.3 648.86h4.7656v3.0391h-4.7656z" fill="#fff" fill-rule="evenodd"/>
 <path d="m985.86 648.86h3.9023v3.0391h-3.9023z" fill="#fff" fill-rule="evenodd"/>
 <path d="m992.5 648.86h2.4297v3.0391h-2.4297z" fill="#fff" fill-rule="evenodd"/>
 <path d="m920.97 603.25h2.8906v4.6602h-2.8906z" fill="#fff" fill-rule="evenodd"/>
 <path d="m920.97 583.55h2.8906v4.6602h-2.8906z" fill="#fff" fill-rule="evenodd"/>
 <path d="m916.1 587.5h2.8945v4.6602h-2.8945z" fill="#fff" fill-rule="evenodd"/>
 <path d="m911.48 570.83h2.8945v4.6562h-2.8945z" fill="#fff" fill-rule="evenodd"/>
 <path d="m884.71 636.65h4.0586v4.8672h-4.0586z" fill="#fff" fill-rule="evenodd"/>
 <path d="m884.71 642.88h4.0586v2.125h-4.0586z" fill="#fff" fill-rule="evenodd"/>
 <path d="m890.64 636.65h4.0078v4.8672h-4.0078z" fill="#fff" fill-rule="evenodd"/>
 <path d="m890.64 642.88h4.0078v2.125h-4.0078z" fill="#fff" fill-rule="evenodd"/>
 <path d="m884.71 623.88h4.0586v4.8672h-4.0586z" fill="#fff" fill-rule="evenodd"/>
 <path d="m884.71 630.11h4.0586v2.125h-4.0586z" fill="#fff" fill-rule="evenodd"/>
 <path d="m890.64 623.88h4.0078v4.8672h-4.0078z" fill="#fff" fill-rule="evenodd"/>
 <path d="m890.64 630.11h4.0078v2.125h-4.0078z" fill="#fff" fill-rule="evenodd"/>
 <path d="m884.71 649.42h4.0586v4.8672h-4.0586z" fill="#fff" fill-rule="evenodd"/>
 <path d="m884.71 655.65h4.0586v2.125h-4.0586z" fill="#fff" fill-rule="evenodd"/>
 <path d="m890.64 649.42h4.0078v4.8672h-4.0078z" fill="#fff" fill-rule="evenodd"/>
 <path d="m890.64 655.65h4.0078v2.125h-4.0078z" fill="#fff" fill-rule="evenodd"/>
 <path d="m884.71 662.19h4.0586v4.8672h-4.0586z" fill="#fff" fill-rule="evenodd"/>
 <path d="m884.71 668.43h4.0586v2.1211h-4.0586z" fill="#fff" fill-rule="evenodd"/>
 <path d="m890.64 662.19h4.0078v4.8672h-4.0078z" fill="#fff" fill-rule="evenodd"/>
 <path d="m890.64 668.43h4.0078v2.1211h-4.0078z" fill="#fff" fill-rule="evenodd"/>
 <path d="m871.79 636.65h4.0078v4.8672h-4.0078z" fill="#fff" fill-rule="evenodd"/>
 <path d="m871.79 642.88h4.0078v2.125h-4.0078z" fill="#fff" fill-rule="evenodd"/>
 <path d="m877.68 636.65h4.0586v4.8672h-4.0586z" fill="#fff" fill-rule="evenodd"/>
 <path d="m877.68 642.88h4.0586v2.125h-4.0586z" fill="#fff" fill-rule="evenodd"/>
 <path d="m871.79 623.88h4.0078v4.8672h-4.0078z" fill="#fff" fill-rule="evenodd"/>
 <path d="m871.79 630.11h4.0078v2.125h-4.0078z" fill="#fff" fill-rule="evenodd"/>
 <path d="m877.68 623.88h4.0586v4.8672h-4.0586z" fill="#fff" fill-rule="evenodd"/>
 <path d="m877.68 630.11h4.0586v2.125h-4.0586z" fill="#fff" fill-rule="evenodd"/>
 <path d="m871.79 649.42h4.0078v4.8672h-4.0078z" fill="#fff" fill-rule="evenodd"/>
 <path d="m871.79 655.65h4.0078v2.125h-4.0078z" fill="#fff" fill-rule="evenodd"/>
 <path d="m877.68 649.42h4.0586v4.8672h-4.0586z" fill="#fff" fill-rule="evenodd"/>
 <path d="m877.68 655.65h4.0586v2.125h-4.0586z" fill="#fff" fill-rule="evenodd"/>
 <path d="m871.79 662.19h4.0078v4.8672h-4.0078z" fill="#fff" fill-rule="evenodd"/>
 <path d="m871.79 668.43h4.0078v2.1211h-4.0078z" fill="#fff" fill-rule="evenodd"/>
 <path d="m877.68 662.19h4.0586v4.8672h-4.0586z" fill="#fff" fill-rule="evenodd"/>
 <path d="m877.68 668.43h4.0586v2.1211h-4.0586z" fill="#fff" fill-rule="evenodd"/>
 <path d="m897.69 636.65h4.0586v4.8672h-4.0586z" fill="#fff" fill-rule="evenodd"/>
 <path d="m897.69 642.88h4.0586v2.125h-4.0586z" fill="#fff" fill-rule="evenodd"/>
 <path d="m903.62 636.65h4.0078v4.8672h-4.0078z" fill="#fff" fill-rule="evenodd"/>
 <path d="m903.62 642.88h4.0078v2.125h-4.0078z" fill="#fff" fill-rule="evenodd"/>
 <path d="m897.69 623.88h4.0586v4.8672h-4.0586z" fill="#fff" fill-rule="evenodd"/>
 <path d="m897.69 630.11h4.0586v2.125h-4.0586z" fill="#fff" fill-rule="evenodd"/>
 <path d="m903.62 623.88h4.0078v4.8672h-4.0078z" fill="#fff" fill-rule="evenodd"/>
 <path d="m903.62 630.11h4.0078v2.125h-4.0078z" fill="#fff" fill-rule="evenodd"/>
 <path d="m897.69 649.42h4.0586v4.8672h-4.0586z" fill="#fff" fill-rule="evenodd"/>
 <path d="m897.69 655.65h4.0586v2.125h-4.0586z" fill="#fff" fill-rule="evenodd"/>
 <path d="m903.62 649.42h4.0078v4.8672h-4.0078z" fill="#fff" fill-rule="evenodd"/>
 <path d="m903.62 655.65h4.0078v2.125h-4.0078z" fill="#fff" fill-rule="evenodd"/>
 <path d="m897.69 662.19h4.0586v4.8672h-4.0586z" fill="#fff" fill-rule="evenodd"/>
 <path d="m897.69 668.43h4.0586v2.1211h-4.0586z" fill="#fff" fill-rule="evenodd"/>
 <path d="m903.62 662.19h4.0078v4.8672h-4.0078z" fill="#fff" fill-rule="evenodd"/>
 <path d="m903.62 668.43h4.0078v2.1211h-4.0078z" fill="#fff" fill-rule="evenodd"/>
 <path d="m910.67 636.65h4.0078v4.8672h-4.0078z" fill="#fff" fill-rule="evenodd"/>
 <path d="m910.67 642.88h4.0078v2.125h-4.0078z" fill="#fff" fill-rule="evenodd"/>
 <path d="m916.61 636.65h4.0039v4.8672h-4.0039z" fill="#fff" fill-rule="evenodd"/>
 <path d="m916.61 642.88h4.0039v2.125h-4.0039z" fill="#fff" fill-rule="evenodd"/>
 <path d="m910.67 623.88h4.0078v4.8672h-4.0078z" fill="#fff" fill-rule="evenodd"/>
 <path d="m910.67 630.11h4.0078v2.125h-4.0078z" fill="#fff" fill-rule="evenodd"/>
 <path d="m916.61 623.88h4.0039v4.8672h-4.0039z" fill="#fff" fill-rule="evenodd"/>
 <path d="m916.61 630.11h4.0039v2.125h-4.0039z" fill="#fff" fill-rule="evenodd"/>
 <path d="m910.67 649.42h4.0078v4.8672h-4.0078z" fill="#fff" fill-rule="evenodd"/>
 <path d="m910.67 655.65h4.0078v2.125h-4.0078z" fill="#fff" fill-rule="evenodd"/>
 <path d="m916.61 649.42h4.0039v4.8672h-4.0039z" fill="#fff" fill-rule="evenodd"/>
 <path d="m916.61 655.65h4.0039v2.125h-4.0039z" fill="#fff" fill-rule="evenodd"/>
 <path d="m910.67 662.19h4.0078v4.8672h-4.0078z" fill="#fff" fill-rule="evenodd"/>
 <path d="m910.67 668.43h4.0078v2.1211h-4.0078z" fill="#fff" fill-rule="evenodd"/>
 <path d="m916.61 662.19h4.0039v4.8672h-4.0039z" fill="#fff" fill-rule="evenodd"/>
 <path d="m916.61 668.43h4.0039v2.1211h-4.0039z" fill="#fff" fill-rule="evenodd"/>
 <path d="m825.25 573.46 5.7773 4.3086v3.5h-0.60156l-5.1758-3.8555z" fill="#fff" fill-rule="evenodd"/>
 <path d="m825.25 564.85 5.7773 4.3086v3.9531l-5.7773-4.3086z" fill="#fff" fill-rule="evenodd"/>
 <path d="m820.74 645.93h6.082v12.258h-6.082z" fill="#fff" fill-rule="evenodd"/>
 <path d="m820.74 629.61h6.082v12.215h-6.082z" fill="#fff" fill-rule="evenodd"/>
 <path d="m811.91 629.61h6.0391v12.215h-6.0391z" fill="#fff" fill-rule="evenodd"/>
 <path d="m803.05 629.61h6.0391v12.215h-6.0391z" fill="#fff" fill-rule="evenodd"/>
 <path d="m762.13 530.24h16.883l-0.25391 1.7734h-16.629v-1.7734z" fill="#fff" fill-rule="evenodd"/>
 <path d="m790.53 530.24h2.125v1.7734h-2.125z" fill="#fff" fill-rule="evenodd"/>
 <path d="m762.13 533.49h16.43l-0.30469 1.7773h-16.125v-1.7773z" fill="#fff" fill-rule="evenodd"/>
 <path d="m790.53 533.49h2.125v1.7773h-2.125z" fill="#fff" fill-rule="evenodd"/>
 <path d="m762.13 536.68h15.914l-0.25391 1.7773h-15.66v-1.7773z" fill="#fff" fill-rule="evenodd"/>
 <path d="m790.53 536.68h2.125v1.7773h-2.125z" fill="#fff" fill-rule="evenodd"/>
 <path d="m762.13 539.92h15.461l-0.25391 1.7773h-15.207v-1.7773z" fill="#fff" fill-rule="evenodd"/>
 <path d="m790.53 539.92h2.125v1.7773h-2.125z" fill="#fff" fill-rule="evenodd"/>
 <path d="m762.13 543.11h14.957l-0.25391 1.7773h-14.703v-1.7773z" fill="#fff" fill-rule="evenodd"/>
 <path d="m790.53 543.11h2.125v1.7773h-2.125z" fill="#fff" fill-rule="evenodd"/>
 <path d="m762.13 546.36h14.496l-0.25391 1.7773h-14.242v-1.7773z" fill="#fff" fill-rule="evenodd"/>
 <path d="m790.53 546.36h2.125v1.7773h-2.125z" fill="#fff" fill-rule="evenodd"/>
 <path d="m762.13 549.55h13.988l-0.25 1.7773h-13.738v-1.7773z" fill="#fff" fill-rule="evenodd"/>
 <path d="m790.53 549.55h2.125v1.7773h-2.125z" fill="#fff" fill-rule="evenodd"/>
 <path d="m762.13 552.79h13.535l-0.25 1.7734h-13.285v-1.7734z" fill="#fff" fill-rule="evenodd"/>
 <path d="m790.53 552.79h2.125v1.7734h-2.125z" fill="#fff" fill-rule="evenodd"/>
 <path d="m762.13 555.99h13.074l-0.30469 1.7734h-12.777c0.007812-0.56641 0.007812-1.1641 0.007812-1.7734z" fill="#fff" fill-rule="evenodd"/>
 <path d="m790.53 555.99h2.125v1.7734h-2.125z" fill="#fff" fill-rule="evenodd"/>
 <path d="m762.13 559.23h12.57l-0.25391 1.7734h-12.316v-1.7734z" fill="#fff" fill-rule="evenodd"/>
 <path d="m790.53 559.23h2.125v1.7734h-2.125z" fill="#fff" fill-rule="evenodd"/>
 <path d="m762.13 562.42h12.117l-0.25391 1.7773h-11.863v-1.7773z" fill="#fff" fill-rule="evenodd"/>
 <path d="m790.53 562.42h2.125v1.7773h-2.125z" fill="#fff" fill-rule="evenodd"/>
 <path d="m762.13 565.66h11.609l-0.25 1.7773h-11.359v-1.7773z" fill="#fff" fill-rule="evenodd"/>
 <path d="m790.53 565.66h2.125v1.7773h-2.125z" fill="#fff" fill-rule="evenodd"/>
 <path d="m762.13 568.86h11.148l-0.25 1.7773h-10.898v-1.7773z" fill="#fff" fill-rule="evenodd"/>
 <path d="m790.53 568.86h2.125v1.7773h-2.125z" fill="#fff" fill-rule="evenodd"/>
 <path d="m762.13 572.09h10.645l-0.25391 1.7773h-10.391v-1.7773z" fill="#fff" fill-rule="evenodd"/>
 <path d="m790.53 572.09h2.125v1.7773h-2.125z" fill="#fff" fill-rule="evenodd"/>
 <path d="m762.13 575.29h10.191l-0.25391 1.7773h-9.9375v-1.7773z" fill="#fff" fill-rule="evenodd"/>
 <path d="m790.53 575.29h2.125v1.7773h-2.125z" fill="#fff" fill-rule="evenodd"/>
 <path d="m762.13 578.53h9.7305l-0.30469 1.7773h-9.4258v-1.7773z" fill="#fff" fill-rule="evenodd"/>
 <path d="m790.53 578.53h2.125v1.7773h-2.125z" fill="#fff" fill-rule="evenodd"/>
 <path d="m762.13 581.72h9.2227l-0.25 1.7773h-8.9727v-1.7773z" fill="#fff" fill-rule="evenodd"/>
 <path d="m790.53 581.72h2.125v1.7773h-2.125z" fill="#fff" fill-rule="evenodd"/>
 <path d="m762.13 584.97h8.7695l-0.25 1.7734h-8.5195v-1.7734z" fill="#fff" fill-rule="evenodd"/>
 <path d="m790.53 584.97h2.125v1.7734h-2.125z" fill="#fff" fill-rule="evenodd"/>
 <path d="m762.13 588.16h8.2656l-0.25391 1.7773h-8.0039c-0.007813-0.55859-0.007813-1.168-0.007813-1.7773z" fill="#fff" fill-rule="evenodd"/>
 <path d="m790.53 588.16h2.125v1.7773h-2.125z" fill="#fff" fill-rule="evenodd"/>
 <path d="m762.13 591.41h7.8047l-0.25391 1.7773h-7.5508v-1.7773z" fill="#fff" fill-rule="evenodd"/>
 <path d="m790.53 591.41h2.125v1.7773h-2.125z" fill="#fff" fill-rule="evenodd"/>
 <path d="m762.13 594.59h7.3008l-0.25391 1.7734h-7.0469v-1.7734z" fill="#fff" fill-rule="evenodd"/>
 <path d="m790.53 594.59h2.125v1.7734h-2.125z" fill="#fff" fill-rule="evenodd"/>
 <path d="m762.13 597.84h6.8477l-0.25391 1.7773h-6.5938v-1.7773z" fill="#fff" fill-rule="evenodd"/>
 <path d="m790.53 597.84h2.125v1.7773h-2.125z" fill="#fff" fill-rule="evenodd"/>
 <path d="m762.13 601.03h6.4883v1.7734h-6.4883v-1.7734z" fill="#fff" fill-rule="evenodd"/>
 <path d="m790.53 601.03h2.125v1.7734h-2.125z" fill="#fff" fill-rule="evenodd"/>
 <path d="m762.13 604.27h6.4883v1.7773h-6.4883v-1.7773z" fill="#fff" fill-rule="evenodd"/>
 <path d="m790.53 604.27h2.125v1.7773h-2.125z" fill="#fff" fill-rule="evenodd"/>
 <path d="m762.13 607.46h6.4883v1.7773h-6.4883v-1.7773z" fill="#fff" fill-rule="evenodd"/>
 <path d="m790.53 607.46h2.125v1.7773h-2.125z" fill="#fff" fill-rule="evenodd"/>
 <path d="m762.13 610.71h6.4883v1.7773h-6.4883v-1.7773z" fill="#fff" fill-rule="evenodd"/>
 <path d="m790.53 610.71h2.125v1.7773h-2.125z" fill="#fff" fill-rule="evenodd"/>
 <path d="m762.13 613.9h6.4883v1.7773h-6.4883v-1.7773z" fill="#fff" fill-rule="evenodd"/>
 <path d="m790.53 613.9h2.125v1.7773h-2.125z" fill="#fff" fill-rule="evenodd"/>
 <path d="m762.13 617.14h6.4883v1.7773h-6.4883v-1.7773z" fill="#fff" fill-rule="evenodd"/>
 <path d="m790.53 617.14h2.125v1.7773h-2.125z" fill="#fff" fill-rule="evenodd"/>
 <path d="m762.13 620.34h6.4883v1.7773h-6.4883v-1.7773z" fill="#fff" fill-rule="evenodd"/>
 <path d="m790.53 620.34h2.125v1.7773h-2.125z" fill="#fff" fill-rule="evenodd"/>
 <path d="m762.13 623.58h6.4883v1.7734h-6.4883v-1.7734z" fill="#fff" fill-rule="evenodd"/>
 <path d="m790.53 623.58h2.125v1.7734h-2.125z" fill="#fff" fill-rule="evenodd"/>
 <path d="m762.13 626.77h6.4883v1.7734h-6.4883v-1.7734z" fill="#fff" fill-rule="evenodd"/>
 <path d="m790.53 626.77h2.125v1.7734h-2.125z" fill="#fff" fill-rule="evenodd"/>
 <path d="m762.13 630.01h6.4883v1.7734h-6.4883v-1.7734z" fill="#fff" fill-rule="evenodd"/>
 <path d="m790.53 630.01h2.125v1.7734h-2.125z" fill="#fff" fill-rule="evenodd"/>
 <path d="m762.13 633.21h6.4883v1.7734h-6.4883v-1.7734z" fill="#fff" fill-rule="evenodd"/>
 <path d="m790.53 633.21h2.125v1.7734h-2.125z" fill="#fff" fill-rule="evenodd"/>
 <path d="m762.13 636.45h6.4883v1.7773h-6.4883v-1.7773z" fill="#fff" fill-rule="evenodd"/>
 <path d="m790.53 636.45h2.125v1.7773h-2.125z" fill="#fff" fill-rule="evenodd"/>
 <path d="m762.13 639.64h6.4883v1.7773h-6.4883v-1.7773z" fill="#fff" fill-rule="evenodd"/>
 <path d="m790.53 639.64h2.125v1.7773h-2.125z" fill="#fff" fill-rule="evenodd"/>
 <path d="m762.13 642.88h6.4883v1.7773h-6.4883v-1.7773z" fill="#fff" fill-rule="evenodd"/>
 <path d="m790.53 642.88h2.125v1.7773h-2.125z" fill="#fff" fill-rule="evenodd"/>
 <path d="m762.13 646.07h6.4883v1.7773h-6.4883v-1.7773z" fill="#fff" fill-rule="evenodd"/>
 <path d="m790.53 646.07h2.125v1.7773h-2.125z" fill="#fff" fill-rule="evenodd"/>
 <path d="m762.13 649.32h6.4883v1.7773h-6.4883v-1.7773z" fill="#fff" fill-rule="evenodd"/>
 <path d="m790.53 649.32h2.125v1.7773h-2.125z" fill="#fff" fill-rule="evenodd"/>
 <path d="m762.13 652.51h6.4883v1.7773h-6.4883v-1.7773z" fill="#fff" fill-rule="evenodd"/>
 <path d="m790.53 652.51h2.125v1.7773h-2.125z" fill="#fff" fill-rule="evenodd"/>
 <path d="m762.13 655.76h6.4883v1.7734h-6.4883v-1.7734z" fill="#fff" fill-rule="evenodd"/>
 <path d="m790.53 655.76h2.125v1.7734h-2.125z" fill="#fff" fill-rule="evenodd"/>
 <path d="m762.13 658.94h6.4883v1.7773h-6.4883v-1.7773z" fill="#fff" fill-rule="evenodd"/>
 <path d="m790.53 658.94h2.125v1.7773h-2.125z" fill="#fff" fill-rule="evenodd"/>
 <path d="m762.13 662.19h6.4883v1.7734h-6.4883v-1.7734z" fill="#fff" fill-rule="evenodd"/>
 <path d="m790.53 662.19h2.125v1.7734h-2.125z" fill="#fff" fill-rule="evenodd"/>
 <path d="m762.13 665.38h6.4883v1.7734h-6.4883v-1.7734z" fill="#fff" fill-rule="evenodd"/>
 <path d="m790.53 665.38h2.125v1.7734h-2.125z" fill="#fff" fill-rule="evenodd"/>
 <path d="m762.13 668.62h6.4883v1.7773h-6.4883v-1.7773z" fill="#fff" fill-rule="evenodd"/>
 <path d="m790.53 668.62h2.125v1.7773h-2.125z" fill="#fff" fill-rule="evenodd"/>
 <path d="m762.13 671.81h6.4883v1.7734h-6.4883z" fill="#fff" fill-rule="evenodd"/>
 <path d="m790.53 671.81h2.125v1.7734h-2.125z" fill="#fff" fill-rule="evenodd"/>
 <path d="m762.13 527.05h30.516v1.7773h-30.516z" fill="#fff" fill-rule="evenodd"/>
 <path d="m726.96 585.32 5.2188 8.3672v5.0586l-5.2188-8.3086z" fill="#fff" fill-rule="evenodd"/>
 <path d="m726.96 629.25 2.6289 4.1523v5.1211l-2.6289-4.1562z" fill="#fff" fill-rule="evenodd"/>
 <path d="m741.35 575.34 1.6289 2.5859v5.1133l-4.8711-7.6992z" fill="#fff" fill-rule="evenodd"/>
 <path d="m737.7 580.36 5.2266 8.3086v5.1172l-5.2266-8.3047-5.168-8.3164h3.1875z" fill="#fff" fill-rule="evenodd"/>
 <path d="m732.33 581.62 0.45312 0.71094v5.1211l-0.45312-0.71484-3.9102-6.3281h3.1953z" fill="#fff" fill-rule="evenodd"/>
 <path d="m735.21 586.23 2.3359 3.6992v5.1211l-2.3359-3.7031z" fill="#fff" fill-rule="evenodd"/>
 <path d="m671.7 561.81h15.207v13.832h-15.207z" fill="#fff" fill-rule="evenodd"/>
 <path d="m671.7 580.96h15.207v13.887h-15.207z" fill="#fff" fill-rule="evenodd"/>
 <path d="m671.7 600.16h15.207v13.887h-15.207z" fill="#fff" fill-rule="evenodd"/>
 <path d="m671.7 619.37h15.207v13.887h-15.207z" fill="#fff" fill-rule="evenodd"/>
 <path d="m671.7 638.58h15.207v13.887h-15.207z" fill="#fff" fill-rule="evenodd"/>
 <path d="m595.75 625.61h3.3477v40.789h-3.3477z" fill="#fff" fill-rule="evenodd"/>
 <path d="m602.55 625.61h3.3438v43.934h-3.3438z" fill="#fff" fill-rule="evenodd"/>
 <path d="m609.29 625.61h3.3438v43.934h-3.3438z" fill="#fff" fill-rule="evenodd"/>
 <path d="m616.08 625.61h3.3477v47.676h-3.3477z" fill="#fff" fill-rule="evenodd"/>
 <path d="m622.88 625.61h3.3438v47.676h-3.3438z" fill="#fff" fill-rule="evenodd"/>
 <path d="m629.67 625.61h3.3438v47.676h-3.3438z" fill="#fff" fill-rule="evenodd"/>
 <path d="m556.32 589.32 4.1562 5.6758v3.3984l-4.1562-5.6797z" fill="#fff" fill-rule="evenodd"/>
 <path d="m557.94 677.04-1.6211-2.1758v-3.3945l4.1055 5.5703z" fill="#fff" fill-rule="evenodd"/>
 <path d="m556.32 581.88 4.1562 5.625v3.3867l-4.1562-5.625z" fill="#fff" fill-rule="evenodd"/>
 <path d="m556.32 574.38 4.1562 5.6758v3.3984l-4.1562-5.6797z" fill="#fff" fill-rule="evenodd"/>
 <path d="m556.32 611.72 4.1562 5.6758v3.3945l-4.1562-5.6758z" fill="#fff" fill-rule="evenodd"/>
 <path d="m556.32 604.27 4.1562 5.625v3.3945l-4.1562-5.625z" fill="#fff" fill-rule="evenodd"/>
 <path d="m556.32 596.78 4.1562 5.668v3.3945l-4.1562-5.6758z" fill="#fff" fill-rule="evenodd"/>
 <path d="m556.32 634.12 4.1562 5.668v3.3945l-4.1562-5.668z" fill="#fff" fill-rule="evenodd"/>
 <path d="m556.32 626.67 4.1562 5.625v3.3945l-4.1562-5.625z" fill="#fff" fill-rule="evenodd"/>
 <path d="m556.32 619.17 4.1562 5.6758v3.3945l-4.1562-5.6758z" fill="#fff" fill-rule="evenodd"/>
 <path d="m556.32 656.52 4.1562 5.6211v3.4492l-4.1562-5.6758z" fill="#fff" fill-rule="evenodd"/>
 <path d="m556.32 649.06 4.1562 5.6211v3.3984l-4.1562-5.625z" fill="#fff" fill-rule="evenodd"/>
 <path d="m556.32 641.56 4.1562 5.6797v3.3945l-4.1562-5.6758z" fill="#fff" fill-rule="evenodd"/>
 <path d="m556.32 663.96 4.1562 5.6758v3.3984l-4.1562-5.6797z" fill="#fff" fill-rule="evenodd"/>
 <path d="m533.09 593.69 19.059 25.988-3.0391 2.2812-16.02-21.793z" fill="#fff" fill-rule="evenodd"/>
 <path d="m533.09 580.61 20.227 27.566v6.4336l-20.227-27.566z" fill="#fff" fill-rule="evenodd"/>
 <path d="m538.47 574.79 14.852 20.27v6.4844l-14.852-20.32z" fill="#fff" fill-rule="evenodd"/>
 <path d="m546.48 572.7 6.8359 9.2734v6.4336l-6.8359-9.2734z" fill="#fff" fill-rule="evenodd"/>
 <path d="m533.09 606.81 13.59 18.492v6.4844l-13.59-18.543z" fill="#fff" fill-rule="evenodd"/>
 <path d="m533.09 632.95 13.59 18.547v6.4336l-13.59-18.492z" fill="#fff" fill-rule="evenodd"/>
 <path d="m533.09 619.88 13.59 18.547v6.4336l-13.59-18.547z" fill="#fff" fill-rule="evenodd"/>
 <path d="m533.09 646.07 13.59 18.492v6.4883l-13.59-18.547z" fill="#fff" fill-rule="evenodd"/>
 <path d="m533.09 659.15 10.898 14.898h-4.7148l-6.1836-8.4219z" fill="#fff" fill-rule="evenodd"/>
 <path d="m550.84 570.53 2.4805 3.3945v3.3945l-4.9648-6.7891z" fill="#fff" fill-rule="evenodd"/>
 <path d="m465.16 552.04h35.543v2.3828h-35.543z" fill="#fff" fill-rule="evenodd"/>
 <path d="m473.48 559.28h32.09v2.9453h-32.09z" fill="#fff" fill-rule="evenodd"/>
 <path d="m463.39 563.68h42.18v2.9414h-42.18z" fill="#fff" fill-rule="evenodd"/>
 <path d="m463.39 568.05h20.637v2.9414h-20.637z" fill="#fff" fill-rule="evenodd"/>
 <path d="m487.62 568.05h3.5977v2.9414h-3.5977z" fill="#fff" fill-rule="evenodd"/>
 <path d="m494.87 568.05h10.695v2.9414h-10.695z" fill="#fff" fill-rule="evenodd"/>
 <path d="m463.39 572.45h14.297v2.9453h-14.297z" fill="#fff" fill-rule="evenodd"/>
 <path d="m481.29 572.45h24.285v2.9453h-24.285z" fill="#fff" fill-rule="evenodd"/>
 <path d="m463.39 578.74h20.176v2.9414h-20.176z" fill="#fff" fill-rule="evenodd"/>
 <path d="m487.17 578.74h18.406v2.9414h-18.406z" fill="#fff" fill-rule="evenodd"/>
 <path d="m463.39 583.14h8.2148v2.9414h-8.2148z" fill="#fff" fill-rule="evenodd"/>
 <path d="m475.2 583.14h30.367v2.9414h-30.367z" fill="#fff" fill-rule="evenodd"/>
 <path d="m463.39 587.5h30.168v2.9453h-30.168z" fill="#fff" fill-rule="evenodd"/>
 <path d="m497.15 587.5h8.4141v2.9453h-8.4141z" fill="#fff" fill-rule="evenodd"/>
 <path d="m463.39 591.91h35.082v2.9414h-35.082z" fill="#fff" fill-rule="evenodd"/>
 <path d="m502.12 591.91h3.4492v2.9414h-3.4492z" fill="#fff" fill-rule="evenodd"/>
 <path d="m463.39 598.19h22.617v2.9414h-22.617z" fill="#fff" fill-rule="evenodd"/>
 <path d="m489.6 598.19h15.965v2.9414h-15.965z" fill="#fff" fill-rule="evenodd"/>
 <path d="m463.39 602.6h7.25v2.9453h-7.25z" fill="#fff" fill-rule="evenodd"/>
 <path d="m474.24 602.6h3.3984v2.9453h-3.3984z" fill="#fff" fill-rule="evenodd"/>
 <path d="m481.24 602.6h24.328v2.9453h-24.328z" fill="#fff" fill-rule="evenodd"/>
 <path d="m463.39 606.96h20.176v2.9414h-20.176z" fill="#fff" fill-rule="evenodd"/>
 <path d="m487.17 606.96h18.406v2.9414h-18.406z" fill="#fff" fill-rule="evenodd"/>
 <path d="m463.39 611.37h32.188v2.9414h-32.188z" fill="#fff" fill-rule="evenodd"/>
 <path d="m499.18 611.37h6.3828v2.9414h-6.3828z" fill="#fff" fill-rule="evenodd"/>
 <path d="m463.39 617.65h11.613v2.9414h-11.613z" fill="#fff" fill-rule="evenodd"/>
 <path d="m478.65 617.65h26.918v2.9414h-26.918z" fill="#fff" fill-rule="evenodd"/>
 <path d="m463.39 622.06h19.723v2.9414h-19.723z" fill="#fff" fill-rule="evenodd"/>
 <path d="m486.71 622.06h18.859v2.9414h-18.859z" fill="#fff" fill-rule="evenodd"/>
 <path d="m463.39 626.41h1.9805v2.9453h-1.9805z" fill="#fff" fill-rule="evenodd"/>
 <path d="m468.96 626.41h36.602v2.9453h-36.602z" fill="#fff" fill-rule="evenodd"/>
 <path d="m463.39 630.82h7.9102v2.9414h-7.9102z" fill="#fff" fill-rule="evenodd"/>
 <path d="m474.89 630.82h30.672v2.9414h-30.672z" fill="#fff" fill-rule="evenodd"/>
 <path d="m463.39 637.11h18.555v2.9883h-18.555z" fill="#fff" fill-rule="evenodd"/>
 <path d="m485.54 637.11h11.707v2.9883h-11.707z" fill="#fff" fill-rule="evenodd"/>
 <path d="m463.39 641.51h12.875v2.9414h-12.875z" fill="#fff" fill-rule="evenodd"/>
 <path d="m479.87 641.51h10.539v2.9414h-10.539z" fill="#fff" fill-rule="evenodd"/>
 <path d="m463.39 645.88h5.4805v2.9414h-5.4805z" fill="#fff" fill-rule="evenodd"/>
 <path d="m472.46 645.88h21.699v2.9414h-21.699z" fill="#fff" fill-rule="evenodd"/>
 <path d="m463.39 650.28h16.379v2.9414h-16.379z" fill="#fff" fill-rule="evenodd"/>
 <path d="m479.87 533.54h6.1328v2.0273h-6.1328z" fill="#fff" fill-rule="evenodd"/>
 <path d="m472.57 542.61h20.68v2.082h-20.68z" fill="#fff" fill-rule="evenodd"/>
 <path d="m396.27 617.75h2.3867v7.6562h-2.3867z" fill="#fff" fill-rule="evenodd"/>
 <path d="m400.37 617.75h2.3359v7.6562h-2.3359z" fill="#fff" fill-rule="evenodd"/>
 <path d="m404.43 617.75h2.332v7.6562h-2.332z" fill="#fff" fill-rule="evenodd"/>
 <path d="m408.48 617.75h2.332v7.6562h-2.332z" fill="#fff" fill-rule="evenodd"/>
 <path d="m420.15 617.75h2.332v7.6562h-2.332z" fill="#fff" fill-rule="evenodd"/>
 <path d="m424.21 617.75h2.332v7.6562h-2.332z" fill="#fff" fill-rule="evenodd"/>
 <path d="m428.26 617.75h2.3867v7.6562h-2.3867z" fill="#fff" fill-rule="evenodd"/>
 <path d="m432.37 617.75h2.3359v7.6562h-2.3359z" fill="#fff" fill-rule="evenodd"/>
 <path d="m383.9 617.75h8.0039v11.66h-8.0039z" fill="#fff" fill-rule="evenodd"/>
 <path d="m396.27 633.46h2.3867v7.6562h-2.3867z" fill="#fff" fill-rule="evenodd"/>
 <path d="m400.37 633.46h2.3359v7.6562h-2.3359z" fill="#fff" fill-rule="evenodd"/>
 <path d="m404.43 633.46h2.332v7.6562h-2.332z" fill="#fff" fill-rule="evenodd"/>
 <path d="m408.48 633.46h2.332v7.6562h-2.332z" fill="#fff" fill-rule="evenodd"/>
 <path d="m420.15 633.46h2.332v7.6562h-2.332z" fill="#fff" fill-rule="evenodd"/>
 <path d="m424.21 633.46h2.332v7.6562h-2.332z" fill="#fff" fill-rule="evenodd"/>
 <path d="m428.26 633.46h2.3867v7.6562h-2.3867z" fill="#fff" fill-rule="evenodd"/>
 <path d="m432.37 633.46h2.3359v7.6562h-2.3359z" fill="#fff" fill-rule="evenodd"/>
 <path d="m383.9 633.46h8.0039v11.66h-8.0039z" fill="#fff" fill-rule="evenodd"/>
 <path d="m396.27 649.11h2.3867v7.707h-2.3867z" fill="#fff" fill-rule="evenodd"/>
 <path d="m400.37 649.11h2.3359v7.707h-2.3359z" fill="#fff" fill-rule="evenodd"/>
 <path d="m404.43 649.11h2.332v7.707h-2.332z" fill="#fff" fill-rule="evenodd"/>
 <path d="m408.48 649.11h2.332v7.707h-2.332z" fill="#fff" fill-rule="evenodd"/>
 <path d="m420.15 649.11h2.332v7.707h-2.332z" fill="#fff" fill-rule="evenodd"/>
 <path d="m424.21 649.11h2.332v7.707h-2.332z" fill="#fff" fill-rule="evenodd"/>
 <path d="m428.26 649.11h2.3867v7.707h-2.3867z" fill="#fff" fill-rule="evenodd"/>
 <path d="m432.37 649.11h2.3359v7.707h-2.3359z" fill="#fff" fill-rule="evenodd"/>
 <path d="m383.9 649.11h8.0039v11.703h-8.0039z" fill="#fff" fill-rule="evenodd"/>
 <path d="m396.27 664.82h2.3867v7.6523h-2.3867z" fill="#fff" fill-rule="evenodd"/>
 <path d="m400.37 664.82h2.3359v7.6523h-2.3359z" fill="#fff" fill-rule="evenodd"/>
 <path d="m404.43 664.82h2.332v7.6523h-2.332z" fill="#fff" fill-rule="evenodd"/>
 <path d="m408.48 664.82h2.332v7.6523h-2.332z" fill="#fff" fill-rule="evenodd"/>
 <path d="m420.15 664.82h2.332v7.6523h-2.332z" fill="#fff" fill-rule="evenodd"/>
 <path d="m424.21 664.82h2.332v7.6523h-2.332z" fill="#fff" fill-rule="evenodd"/>
 <path d="m428.26 664.82h2.3867v7.6523h-2.3867z" fill="#fff" fill-rule="evenodd"/>
 <path d="m432.37 664.82h2.3359v7.6523h-2.3359z" fill="#fff" fill-rule="evenodd"/>
 <path d="m383.9 664.82h8.0039v11.656h-8.0039z" fill="#fff" fill-rule="evenodd"/>
 <path d="m285.45 597.28h2.8398v2.8398h-2.8398z" fill="#fff" fill-rule="evenodd"/>
 <path d="m281.14 597.28h2.8906v2.8398h-2.8906z" fill="#fff" fill-rule="evenodd"/>
 <path d="m276.89 597.28h2.8398v2.8398h-2.8398z" fill="#fff" fill-rule="evenodd"/>
 <path d="m272.57 597.28h2.8398v2.8398h-2.8398z" fill="#fff" fill-rule="evenodd"/>
 <path d="m285.45 601.54h2.8398v2.8398h-2.8398z" fill="#fff" fill-rule="evenodd"/>
 <path d="m281.14 601.54h2.8906v2.8398h-2.8906z" fill="#fff" fill-rule="evenodd"/>
 <path d="m272.57 601.54h2.8398v2.8398h-2.8398z" fill="#fff" fill-rule="evenodd"/>
 <path d="m267 601.54h4.1523v2.8398h-4.1523z" fill="#fff" fill-rule="evenodd"/>
 <path d="m285.45 605.79h2.8398v2.8398h-2.8398z" fill="#fff" fill-rule="evenodd"/>
 <path d="m281.14 605.79h2.8906v2.8398h-2.8906z" fill="#fff" fill-rule="evenodd"/>
 <path d="m276.89 605.79h2.8398v2.8398h-2.8398z" fill="#fff" fill-rule="evenodd"/>
 <path d="m272.57 605.79h2.8398v2.8398h-2.8398z" fill="#fff" fill-rule="evenodd"/>
 <path d="m267 605.79h4.1523v2.8398h-4.1523z" fill="#fff" fill-rule="evenodd"/>
 <path d="m285.45 610.05h2.8398v2.8398h-2.8398z" fill="#fff" fill-rule="evenodd"/>
 <path d="m272.57 610.05h2.8398v2.8398h-2.8398z" fill="#fff" fill-rule="evenodd"/>
 <path d="m267 610.05h4.1523v2.8398h-4.1523z" fill="#fff" fill-rule="evenodd"/>
 <path d="m285.45 614.3h2.8398v2.8359h-2.8398z" fill="#fff" fill-rule="evenodd"/>
 <path d="m281.14 614.3h2.8906v2.8359h-2.8906z" fill="#fff" fill-rule="evenodd"/>
 <path d="m276.89 614.3h2.8398v2.8359h-2.8398z" fill="#fff" fill-rule="evenodd"/>
 <path d="m272.57 614.3h2.8398v2.8359h-2.8398z" fill="#fff" fill-rule="evenodd"/>
 <path d="m285.45 618.56h2.8398v2.8359h-2.8398z" fill="#fff" fill-rule="evenodd"/>
 <path d="m276.89 618.56h2.8398v2.8359h-2.8398z" fill="#fff" fill-rule="evenodd"/>
 <path d="m267 618.56h4.1523v2.8359h-4.1523z" fill="#fff" fill-rule="evenodd"/>
 <path d="m285.45 622.82h2.8398v2.8359h-2.8398z" fill="#fff" fill-rule="evenodd"/>
 <path d="m281.14 622.82h2.8906v2.8359h-2.8906z" fill="#fff" fill-rule="evenodd"/>
 <path d="m276.89 622.82h2.8398v2.8359h-2.8398z" fill="#fff" fill-rule="evenodd"/>
 <path d="m272.57 622.82h2.8398v2.8359h-2.8398z" fill="#fff" fill-rule="evenodd"/>
 <path d="m267 622.82h4.1523v2.8359h-4.1523z" fill="#fff" fill-rule="evenodd"/>
 <path d="m285.45 627.08h2.8398v2.8359h-2.8398z" fill="#fff" fill-rule="evenodd"/>
 <path d="m281.14 627.08h2.8906v2.8359h-2.8906z" fill="#fff" fill-rule="evenodd"/>
 <path d="m272.57 627.08h2.8398v2.8359h-2.8398z" fill="#fff" fill-rule="evenodd"/>
 <path d="m285.45 631.34h2.8398v2.8359h-2.8398z" fill="#fff" fill-rule="evenodd"/>
 <path d="m276.89 631.34h2.8398v2.8359h-2.8398z" fill="#fff" fill-rule="evenodd"/>
 <path d="m272.57 631.34h2.8398v2.8359h-2.8398z" fill="#fff" fill-rule="evenodd"/>
 <path d="m267 631.34h4.1523v2.8359h-4.1523z" fill="#fff" fill-rule="evenodd"/>
 <path d="m285.45 635.58h2.8398v2.8398h-2.8398z" fill="#fff" fill-rule="evenodd"/>
 <path d="m281.14 635.58h2.8906v2.8398h-2.8906z" fill="#fff" fill-rule="evenodd"/>
 <path d="m276.89 635.58h2.8398v2.8398h-2.8398z" fill="#fff" fill-rule="evenodd"/>
 <path d="m272.57 635.58h2.8398v2.8398h-2.8398z" fill="#fff" fill-rule="evenodd"/>
 <path d="m267 635.58h4.1523v2.8398h-4.1523z" fill="#fff" fill-rule="evenodd"/>
 <path d="m285.45 639.84h2.8398v2.8398h-2.8398z" fill="#fff" fill-rule="evenodd"/>
 <path d="m281.14 639.84h2.8906v2.8398h-2.8906z" fill="#fff" fill-rule="evenodd"/>
 <path d="m276.89 639.84h2.8398v2.8398h-2.8398z" fill="#fff" fill-rule="evenodd"/>
 <path d="m267 639.84h4.1523v2.8398h-4.1523z" fill="#fff" fill-rule="evenodd"/>
 <path d="m285.45 644.05h2.8398v2.8906h-2.8398z" fill="#fff" fill-rule="evenodd"/>
 <path d="m276.89 644.05h2.8398v2.8906h-2.8398z" fill="#fff" fill-rule="evenodd"/>
 <path d="m272.57 644.05h2.8398v2.8906h-2.8398z" fill="#fff" fill-rule="evenodd"/>
 <path d="m267 644.05h4.1523v2.8906h-4.1523z" fill="#fff" fill-rule="evenodd"/>
 <path d="m285.45 648.3h2.8398v2.8906h-2.8398z" fill="#fff" fill-rule="evenodd"/>
 <path d="m281.14 648.3h2.8906v2.8906h-2.8906z" fill="#fff" fill-rule="evenodd"/>
 <path d="m276.89 648.3h2.8398v2.8906h-2.8398z" fill="#fff" fill-rule="evenodd"/>
 <path d="m272.57 648.3h2.8398v2.8906h-2.8398z" fill="#fff" fill-rule="evenodd"/>
 <path d="m285.45 652.56h2.8398v2.8906h-2.8398z" fill="#fff" fill-rule="evenodd"/>
 <path d="m281.14 652.56h2.8906v2.8906h-2.8906z" fill="#fff" fill-rule="evenodd"/>
 <path d="m272.57 652.56h2.8398v2.8906h-2.8398z" fill="#fff" fill-rule="evenodd"/>
 <path d="m267 652.56h4.1523v2.8906h-4.1523z" fill="#fff" fill-rule="evenodd"/>
 <path d="m285.45 656.82h2.8398v2.8906h-2.8398z" fill="#fff" fill-rule="evenodd"/>
 <path d="m276.89 656.82h2.8398v2.8906h-2.8398z" fill="#fff" fill-rule="evenodd"/>
 <path d="m272.57 656.82h2.8398v2.8906h-2.8398z" fill="#fff" fill-rule="evenodd"/>
 <path d="m267 656.82h4.1523v2.8906h-4.1523z" fill="#fff" fill-rule="evenodd"/>
 <path d="m285.45 661.07h2.8398v2.8906h-2.8398z" fill="#fff" fill-rule="evenodd"/>
 <path d="m281.14 661.07h2.8906v2.8906h-2.8906z" fill="#fff" fill-rule="evenodd"/>
 <path d="m276.89 661.07h2.8398v2.8906h-2.8398z" fill="#fff" fill-rule="evenodd"/>
 <path d="m272.57 661.07h2.8398v2.8906h-2.8398z" fill="#fff" fill-rule="evenodd"/>
 <path d="m276.89 665.33h2.8398v2.8906h-2.8398z" fill="#fff" fill-rule="evenodd"/>
 <path d="m272.57 665.33h2.8398v2.8906h-2.8398z" fill="#fff" fill-rule="evenodd"/>
 <path d="m267 665.33h4.1523v2.8906h-4.1523z" fill="#fff" fill-rule="evenodd"/>
 <path d="m267 669.58h4.1523v2.8906h-4.1523z" fill="#fff" fill-rule="evenodd"/>
 <path d="m209.56 615.62h2.6406v12.262h-2.6406z" fill="#fff" fill-rule="evenodd"/>
 <path d="m214.02 615.62h2.6836v12.262h-2.6836z" fill="#fff" fill-rule="evenodd"/>
 <path d="m218.53 615.62h2.6836v12.262h-2.6836z" fill="#fff" fill-rule="evenodd"/>
 <path d="m223.04 615.62h2.6836v12.262h-2.6836z" fill="#fff" fill-rule="evenodd"/>
 <path d="m209.56 630.98h2.6406v12.215h-2.6406z" fill="#fff" fill-rule="evenodd"/>
 <path d="m218.53 630.98h2.6836v12.215h-2.6836z" fill="#fff" fill-rule="evenodd"/>
 <path d="m223.04 630.98h2.6836v12.215h-2.6836z" fill="#fff" fill-rule="evenodd"/>
 <path d="m209.56 646.33h2.6406v12.215h-2.6406z" fill="#fff" fill-rule="evenodd"/>
 <path d="m214.02 646.33h2.6836v12.215h-2.6836z" fill="#fff" fill-rule="evenodd"/>
 <path d="m218.53 646.33h2.6836v12.215h-2.6836z" fill="#fff" fill-rule="evenodd"/>
 <path d="m223.04 646.33h2.6836v12.215h-2.6836z" fill="#fff" fill-rule="evenodd"/>
 <path d="m218.53 661.63h2.6836v12.258h-2.6836z" fill="#fff" fill-rule="evenodd"/>
 <path d="m223.04 661.63h2.6836v12.258h-2.6836z" fill="#fff" fill-rule="evenodd"/>
 <path d="m162.41 666.74h1.875v8.6133h-1.875z" fill="#fff" fill-rule="evenodd"/>
 <path d="m158.86 666.74h1.875v2.4297h-1.875z" fill="#fff" fill-rule="evenodd"/>
 <path d="m158.86 671.16h1.875v4.2031h-1.875z" fill="#fff" fill-rule="evenodd"/>
 <path d="m155.26 666.74h1.875v8.6133h-1.875z" fill="#fff" fill-rule="evenodd"/>
 <path d="m167.58 666.74h1.8711v6.9414h-1.8711z" fill="#fff" fill-rule="evenodd"/>
 <path d="m171.39 666.74h1.875v6.9414h-1.875z" fill="#fff" fill-rule="evenodd"/>
 <path d="m175.18 666.74h1.875v3.9023h-1.875z" fill="#fff" fill-rule="evenodd"/>
 <path d="m179.04 666.74h1.875v3.9023h-1.875z" fill="#fff" fill-rule="evenodd"/>
 <path d="m162.41 644.1h1.875v19.25h-1.875z" fill="#fff" fill-rule="evenodd"/>
 <path d="m158.86 644.1h1.875v7.6016h-1.875z" fill="#fff" fill-rule="evenodd"/>
 <path d="m158.86 653.68h1.875v9.6797h-1.875z" fill="#fff" fill-rule="evenodd"/>
 <path d="m155.26 644.1h1.875v12.312h-1.875z" fill="#fff" fill-rule="evenodd"/>
 <path d="m155.26 658.39h1.875v4.9609h-1.875z" fill="#fff" fill-rule="evenodd"/>
 <path d="m167.58 644.1h1.8711v19.25h-1.8711z" fill="#fff" fill-rule="evenodd"/>
 <path d="m171.39 644.1h1.875v3.1953h-1.875z" fill="#fff" fill-rule="evenodd"/>
 <path d="m171.39 649.27h1.875v14.086h-1.875z" fill="#fff" fill-rule="evenodd"/>
 <path d="m175.18 644.1h1.875v15.508h-1.875z" fill="#fff" fill-rule="evenodd"/>
 <path d="m175.18 661.58h1.875v1.7734h-1.875z" fill="#fff" fill-rule="evenodd"/>
 <path d="m179.04 644.1h1.875v19.25h-1.875z" fill="#fff" fill-rule="evenodd"/>
 <path d="m182.84 644.1h1.8711v9.8828h-1.8711z" fill="#fff" fill-rule="evenodd"/>
 <path d="m182.84 655.96h1.8711v7.3984h-1.8711z" fill="#fff" fill-rule="evenodd"/>
 <path d="m186.69 644.1h1.875v13.582h-1.875z" fill="#fff" fill-rule="evenodd"/>
 <path d="m186.69 659.66h1.875v3.6992h-1.875z" fill="#fff" fill-rule="evenodd"/>
 <path d="m190.5 644.1h1.8711v2.5352h-1.8711z" fill="#fff" fill-rule="evenodd"/>
 <path d="m190.5 648.61h1.8711v10.387h-1.8711z" fill="#fff" fill-rule="evenodd"/>
 <path d="m194.3 644.1h1.8711v14.898h-1.8711z" fill="#fff" fill-rule="evenodd"/>
 <path d="m162.41 621.4h1.875v12.418h-1.875z" fill="#fff" fill-rule="evenodd"/>
 <path d="m162.41 635.79h1.875v4.9102h-1.875z" fill="#fff" fill-rule="evenodd"/>
 <path d="m158.86 621.4h1.875v19.305h-1.875z" fill="#fff" fill-rule="evenodd"/>
 <path d="m155.26 621.4h1.875v5.6797h-1.875z" fill="#fff" fill-rule="evenodd"/>
 <path d="m155.26 629.05h1.875v11.656h-1.875z" fill="#fff" fill-rule="evenodd"/>
 <path d="m162.41 598.7h1.875v19.301h-1.875z" fill="#fff" fill-rule="evenodd"/>
 <path d="m158.86 598.7h1.875v12.414h-1.875z" fill="#fff" fill-rule="evenodd"/>
 <path d="m158.86 613.09h1.875v4.9102h-1.875z" fill="#fff" fill-rule="evenodd"/>
 <path d="m155.26 598.7h1.875v19.301h-1.875z" fill="#fff" fill-rule="evenodd"/>
 <path d="m162.41 573.51h1.875v16.066h-1.875z" fill="#fff" fill-rule="evenodd"/>
 <path d="m162.41 591.55h1.875v3.75h-1.875z" fill="#fff" fill-rule="evenodd"/>
 <path d="m158.86 573.51h1.875v5.4258h-1.875z" fill="#fff" fill-rule="evenodd"/>
 <path d="m158.86 580.91h1.875v14.391h-1.875z" fill="#fff" fill-rule="evenodd"/>
 <path d="m155.26 573.51h1.875v11.25h-1.875z" fill="#fff" fill-rule="evenodd"/>
 <path d="m155.26 586.74h1.875v3.2383h-1.875z" fill="#fff" fill-rule="evenodd"/>
 <path d="m155.26 591.96h1.875v3.3438h-1.875z" fill="#fff" fill-rule="evenodd"/>
 <path d="m167.58 573.51h1.8711v21.785h-1.8711z" fill="#fff" fill-rule="evenodd"/>
 <path d="m171.39 573.51h1.875v15.656h-1.875z" fill="#fff" fill-rule="evenodd"/>
 <path d="m171.39 591.15h1.875v4.1523h-1.875z" fill="#fff" fill-rule="evenodd"/>
 <path d="m175.18 573.51h1.875v12.469h-1.875z" fill="#fff" fill-rule="evenodd"/>
 <path d="m175.18 587.96h1.875v7.3477h-1.875z" fill="#fff" fill-rule="evenodd"/>
 <path d="m179.04 573.51h1.875v21.785h-1.875z" fill="#fff" fill-rule="evenodd"/>
 <path d="m182.84 573.51h1.8711v4.0078h-1.8711z" fill="#fff" fill-rule="evenodd"/>
 <path d="m182.84 579.5h1.8711v15.809h-1.8711z" fill="#fff" fill-rule="evenodd"/>
 <path d="m186.69 573.51h1.875v18.902h-1.875z" fill="#fff" fill-rule="evenodd"/>
 <path d="m186.69 594.39h1.875v0.91406h-1.875z" fill="#fff" fill-rule="evenodd"/>
 <path d="m190.5 573.51h1.8711v15.605h-1.8711z" fill="#fff" fill-rule="evenodd"/>
 <path d="m190.5 591.1h1.8711v4.2031h-1.8711z" fill="#fff" fill-rule="evenodd"/>
 <path d="m194.3 573.51h1.8711v9.6328h-1.8711z" fill="#fff" fill-rule="evenodd"/>
 <path d="m194.3 585.12h1.8711v10.184h-1.8711z" fill="#fff" fill-rule="evenodd"/>
 <path d="m167.58 598.7h1.8711v5.3164h-1.8711z" fill="#fff" fill-rule="evenodd"/>
 <path d="m167.58 606h1.8711v12.008h-1.8711z" fill="#fff" fill-rule="evenodd"/>
 <path d="m171.39 598.7h1.875v2.6367h-1.875z" fill="#fff" fill-rule="evenodd"/>
 <path d="m171.39 603.31h1.875v14.695h-1.875z" fill="#fff" fill-rule="evenodd"/>
 <path d="m175.18 598.7h1.875v19.301h-1.875z" fill="#fff" fill-rule="evenodd"/>
 <path d="m179.04 598.7h1.875v9.9766h-1.875z" fill="#fff" fill-rule="evenodd"/>
 <path d="m179.04 610.66h1.875v7.3477h-1.875z" fill="#fff" fill-rule="evenodd"/>
 <path d="m182.84 598.7h1.8711v8.1055h-1.8711z" fill="#fff" fill-rule="evenodd"/>
 <path d="m182.84 608.79h1.8711v9.2188h-1.8711z" fill="#fff" fill-rule="evenodd"/>
 <path d="m186.69 598.7h1.875v19.301h-1.875z" fill="#fff" fill-rule="evenodd"/>
 <path d="m190.5 598.7h1.8711v3.3945h-1.8711z" fill="#fff" fill-rule="evenodd"/>
 <path d="m190.5 604.07h1.8711v13.93h-1.8711z" fill="#fff" fill-rule="evenodd"/>
 <path d="m194.3 598.7h1.8711v19.301h-1.8711z" fill="#fff" fill-rule="evenodd"/>
 <path d="m167.58 621.4h1.8711v19.305h-1.8711z" fill="#fff" fill-rule="evenodd"/>
 <path d="m171.39 621.4h1.875v19.305h-1.875z" fill="#fff" fill-rule="evenodd"/>
 <path d="m175.18 621.4h1.875v5.4766h-1.875z" fill="#fff" fill-rule="evenodd"/>
 <path d="m175.18 628.84h1.875v11.859h-1.875z" fill="#fff" fill-rule="evenodd"/>
 <path d="m179.04 621.4h1.875v14.75h-1.875z" fill="#fff" fill-rule="evenodd"/>
 <path d="m179.04 638.12h1.875v2.5859h-1.875z" fill="#fff" fill-rule="evenodd"/>
 <path d="m182.84 621.4h1.8711v11.145h-1.8711z" fill="#fff" fill-rule="evenodd"/>
 <path d="m182.84 634.47h1.8711v6.2344h-1.8711z" fill="#fff" fill-rule="evenodd"/>
 <path d="m186.69 621.4h1.875v7.9062h-1.875z" fill="#fff" fill-rule="evenodd"/>
 <path d="m186.69 631.28h1.875v2.1758h-1.875z" fill="#fff" fill-rule="evenodd"/>
 <path d="m186.69 635.43h1.875v5.2695h-1.875z" fill="#fff" fill-rule="evenodd"/>
 <path d="m190.5 621.4h1.8711v19.305h-1.8711z" fill="#fff" fill-rule="evenodd"/>
 <path d="m194.3 621.4h1.8711v4.7109h-1.8711z" fill="#fff" fill-rule="evenodd"/>
 <path d="m194.3 628.09h1.8711v12.617h-1.8711z" fill="#fff" fill-rule="evenodd"/>
 <path d="m133.67 650.94h7.6055v4.6133h-7.6055z" fill="#fff" fill-rule="evenodd"/>
 <path d="m133.67 643.39h7.6055v4.6133h-7.6055z" fill="#fff" fill-rule="evenodd"/>
 <path d="m133.67 628.29h7.6055v4.6172h-7.6055z" fill="#fff" fill-rule="evenodd"/>
 <path d="m133.67 658.49h7.6055v4.6172h-7.6055z" fill="#fff" fill-rule="evenodd"/>
 <path d="m133.67 635.84h7.6055v4.6133h-7.6055z" fill="#fff" fill-rule="evenodd"/>
 <path d="m133.67 620.74h7.6055v4.6133h-7.6055z" fill="#fff" fill-rule="evenodd"/>
 <path d="m133.67 605.64h7.6055v4.6133h-7.6055z" fill="#fff" fill-rule="evenodd"/>
 <path d="m133.67 613.19h7.6055v4.6133h-7.6055z" fill="#fff" fill-rule="evenodd"/>
 <path d="m77.246 657.27h8.0156v2.4844h-8.0156z" fill="#fff" fill-rule="evenodd"/>
 <path d="m77.246 665.03h8.0156v2.4297h-8.0156z" fill="#fff" fill-rule="evenodd"/>
 <path d="m77.246 661.17h8.0156v2.4297h-8.0156z" fill="#fff" fill-rule="evenodd"/>
 <path d="m77.246 653.42h8.0156v2.4297h-8.0156z" fill="#fff" fill-rule="evenodd"/>
 <path d="m77.246 649.57h8.0156v2.4297h-8.0156z" fill="#fff" fill-rule="evenodd"/>
 <path d="m77.246 645.68h8.0156v2.4805h-8.0156z" fill="#fff" fill-rule="evenodd"/>
 <path d="m77.246 631.23h8.0156v2.4297h-8.0156z" fill="#fff" fill-rule="evenodd"/>
 <path d="m77.246 638.93h8.0156v2.4805h-8.0156z" fill="#fff" fill-rule="evenodd"/>
 <path d="m77.246 635.08h8.0156v2.4805h-8.0156z" fill="#fff" fill-rule="evenodd"/>
 <path d="m77.246 627.38h8.0156v2.4258h-8.0156z" fill="#fff" fill-rule="evenodd"/>
 <path d="m77.246 623.47h8.0156v2.4805h-8.0156z" fill="#fff" fill-rule="evenodd"/>
 <path d="m88.754 649.98h8.0156v2.4805h-8.0156z" fill="#fff" fill-rule="evenodd"/>
 <path d="m88.754 657.73h8.0156v2.4258h-8.0156z" fill="#fff" fill-rule="evenodd"/>
 <path d="m88.754 653.88h8.0156v2.4297h-8.0156z" fill="#fff" fill-rule="evenodd"/>
 <path d="m88.754 646.12h8.0156v2.4297h-8.0156z" fill="#fff" fill-rule="evenodd"/>
 <path d="m88.754 642.28h8.0156v2.4297h-8.0156z" fill="#fff" fill-rule="evenodd"/>
 <path d="m88.754 627.38h8.0156v2.4258h-8.0156z" fill="#fff" fill-rule="evenodd"/>
 <path d="m88.754 635.08h8.0156v2.4805h-8.0156z" fill="#fff" fill-rule="evenodd"/>
 <path d="m88.754 623.47h8.0156v2.4805h-8.0156z" fill="#fff" fill-rule="evenodd"/>
 <path d="m841.07 601.89h12.52v43.98h-12.52z" fill="#fff" fill-rule="evenodd"/>
 <path d="m949.76 616.69h8.2148v2.0781h-8.2148z" fill="#fff" fill-rule="evenodd"/>
 <path d="m949.76 612.48h2.7344v2.125h-2.7344z" fill="#fff" fill-rule="evenodd"/>
 <path d="m955.24 612.48h2.7344v2.125h-2.7344z" fill="#fff" fill-rule="evenodd"/>
 <path d="m949.76 627.48h8.2148v2.082h-8.2148z" fill="#fff" fill-rule="evenodd"/>
 <path d="m949.76 623.27h2.7344v2.1211h-2.7344z" fill="#fff" fill-rule="evenodd"/>
 <path d="m955.24 623.27h2.7344v2.1211h-2.7344z" fill="#fff" fill-rule="evenodd"/>
 <path d="m949.76 638.27h8.2148v2.082h-8.2148z" fill="#fff" fill-rule="evenodd"/>
 <path d="m949.76 634.07h2.7344v2.082h-2.7344z" fill="#fff" fill-rule="evenodd"/>
 <path d="m955.24 634.07h2.7344v2.082h-2.7344z" fill="#fff" fill-rule="evenodd"/>
 <path d="m949.76 649.06h8.2148v2.0781h-8.2148z" fill="#fff" fill-rule="evenodd"/>
 <path d="m949.76 644.86h2.7344v2.082h-2.7344z" fill="#fff" fill-rule="evenodd"/>
 <path d="m955.24 644.86h2.7344v2.082h-2.7344z" fill="#fff" fill-rule="evenodd"/>
 <path d="m954.38 605.89h3.5977v2.0781h-4.7656z" fill="#fff" fill-rule="evenodd"/>
 <path d="m956.7 601.69h1.2734v2.125h-2.4297z" fill="#fff" fill-rule="evenodd"/>
 <path d="m843.09 604.02h8.4648v14.141h-8.4648z" fill-rule="evenodd"/>
 <path d="m843.09 620.54h8.4648v13.277h-8.4648z" fill-rule="evenodd"/>
 <path d="m843.09 636.19h8.4648v7.6016h-8.4648z" fill-rule="evenodd"/>
</svg>
