<?xml version="1.0" encoding="UTF-8"?>
<svg width="1587" height="1587" version="1.0" viewBox="0 0 1190.2 1190.2" xmlns="http://www.w3.org/2000/svg" zoomAndPan="magnify">
 <defs>
  <clipPath id="i">
   <path d="m0 0h1189.5v1189.5h-1189.5z"/>
  </clipPath>
  <clipPath id="e">
   <path d="m951 1145h86v44.5h-86z"/>
  </clipPath>
  <clipPath id="b">
   <path d="m879 1117h69v72.5h-69z"/>
  </clipPath>
  <clipPath id="c">
   <path d="m870 1124h62v65.5h-62z"/>
  </clipPath>
  <clipPath id="l">
   <path d="m541 1172h56v17.5h-56z"/>
  </clipPath>
  <clipPath id="g">
   <path d="m685 1172h56v17.5h-56z"/>
  </clipPath>
  <clipPath id="m">
   <path d="m267 1106h139v83.5h-139z"/>
  </clipPath>
  <clipPath id="j">
   <path d="m322 1187h26v2.5h-26z"/>
  </clipPath>
  <clipPath id="f">
   <path d="m1073 1015h116.5v145h-116.5z"/>
  </clipPath>
  <clipPath id="h">
   <path d="m1182 162h7.5v27h-7.5z"/>
  </clipPath>
  <clipPath id="k">
   <path d="m1100 213h89.5v27h-89.5z"/>
  </clipPath>
  <clipPath id="d">
   <path d="m1138 610h51.5v21h-51.5z"/>
  </clipPath>
  <clipPath id="a">
   <path d="m844 592h345.5v274h-345.5z"/>
  </clipPath>
 </defs>
 <g clip-path="url(#i)" fill="none">
  <path d="m0 0h1189.5v1189.5h-1189.5z"/>
  <path d="m0 0h1189.5v1189.5h-1189.5z"/>
 </g>
 <path d="m852.32 460.45c-12.574-9.5-28.223-15.133-45.191-15.133-16.977 0-32.625 5.6328-45.195 15.133-4.9844-5.1602-7.9102-11.402-7.9102-18.133 0-17.691 20.18-32.043 45.066-32.043h16.07c24.887 0 45.062 14.352 45.062 32.043 0 6.7305-2.918 12.973-7.9023 18.133zm-11.762 27.508c-1.207-13.301-15.168-23.805-32.246-23.805-17.086 0-31.039 10.504-32.242 23.805-0.054687-0.62109-0.11719-1.2344-0.11719-1.8594 0-14.172 14.488-25.664 32.359-25.664 17.875 0 32.363 11.492 32.363 25.664 0 0.625-0.0625 1.2383-0.11719 1.8594zm-32.246 45.613c-17.871 0-32.359-12.586-32.359-28.117 0-0.6875 0.0625-1.3594 0.11719-2.0391 1.2031 14.57 15.156 26.082 32.242 26.082 17.078 0 31.039-11.512 32.246-26.082 0.054687 0.67969 0.11719 1.3516 0.11719 2.0391 0 15.531-14.488 28.117-32.363 28.117zm57.793-59.598c6.3203-9.3477 10.008-20.613 10.008-32.742 0-32.336-26.219-58.547-58.551-58.547h-20.875c-32.336 0-58.547 26.211-58.547 58.547 0 12.129 3.6875 23.395 10 32.742-10.066 12.773-16.09 28.883-16.09 46.414 0 25.191 12.418 47.465 31.457 61.082h87.242c19.035-13.617 31.449-35.891 31.449-61.082 0-17.531-6.0234-33.641-16.094-46.414" fill="#686868"/>
 <path d="m1020.3 13.527c3.0859-1.1953 7.7969-3.6055 10.762-1.5117 0.57031 0.40625 0.61328 1.4453 0.12109 1.918-0.83594 0.79688-1.3867 1.3398-2.5938 1.2461-2.3711-0.17578-5.0547 0.54297-7.3125 1.1523-3.4297 0.92969-6.6562 2.082-10.145 2.7734-0.082031 0.019531-0.14453-0.10547-0.082031-0.16016 2.8477-2.5195 5.7109-4.043 9.25-5.418" fill="#686868"/>
 <path d="m980.33 8.3438c7.0938 3.5039 15.508 2.8047 22.879 0.59766 8.2617-2.4727 16.418-7.0547 25.121-7.7188 1.6875-0.125 3.9805-0.35547 5.7148-1.2227h-60.262c1.3359 3.4062 3.1016 6.6445 6.5469 8.3438" fill="#686868"/>
 <path d="m990.99 11.195c-12.906-2.9375-27.055-2.8555-39.129-8.7422-1.6094-0.78516-3.2031-1.6016-4.7812-2.4531h-7.6523c15.805 7.8867 34.168 9.7812 51.543 11.297 0.066406 0.007813 0.089844-0.089844 0.019531-0.10156" fill="#686868"/>
 <path d="m932.16 11.41c10.035 4.7188 21.457 7.6484 32.496 8.668 11.566 1.0625 23.797 0.82812 35.285-0.92969 10.691-1.6367 19.777-9.1289 30.586-9.6875 3.7891-0.19922 3.2109-5.6328-0.42969-5.7617-9.9102-0.34375-17.352 5.8438-26.59 8.1016-10.758 2.6367-23.285 2.2969-34.133 0.41406-10.277-1.7852-20.441-4.1914-30.086-8.2227-2.8438-1.1875-5.3242-2.5117-7.6953-3.9922h-12.988c3.6523 4.7266 7.8242 8.7148 13.555 11.41" fill="#686868"/>
 <path d="m871.96 1143.1c1.25 1.2578 2.6445 2.293 4.0234 3.4219 2.7188 2.2266 5.6641 4.1445 8.5625 6.125 2.875 1.9688 5.6016 4.0703 8.2305 6.3477 1.5312 1.3242 3.0195 2.8281 4.3633 4.3477 0.39453 0.44531 0.75 0.95312 1.1602 1.3828-0.93359-0.95703-2.2891-1.7617-3.3906-2.5312-1.3008-0.90234-2.6406-1.7422-4.0312-2.4961-2.8477-1.5625-5.7031-3.2305-8.6484-4.5938-0.78125-0.35547-1.5703-0.71875-2.3555-1.0703-0.37891-0.16797-0.76562-0.33984-1.1445-0.52344-2.1367-1.043-4.3359-2.0586-6.375-3.3203-1.7812-1.1055-3.7812-2.1992-5.0742-3.8984-1.1953-1.5664-1.1562-4.3438 0-5.8867 0.34375-0.46094 0.73047-0.875 1.1133-1.293 0.33984-0.37109 0.62891-0.97656 1.0664-1.2109 0.32812 1.6523 0.48438 2.8945 1.6289 4.2578 0.28516 0.33203 0.57422 0.64453 0.87109 0.94141" fill="#686868"/>
 <g clip-path="url(#e)">
  <path d="m1036.3 1187.2c1.4336-3.8164-1.5547-9.418-5.082-11.004-4.5781-2.0586-10.449-0.57422-15.043 0.64844-5.6836 1.5078-10.836 3.3398-16.824 3.2383-6.7461-0.125-13.422-1.0039-20.043 0.03125-0.32422-0.78516-0.66797-1.5625-1.0664-2.3203-3.4922-6.5859-7.457-13.133-12.207-18.984-2.0625-2.5469-4.2812-4.9609-6.6758-7.1953-2.168-2.0273-4.9766-3.793-6.8633-6.0547-0.22266 1.375-0.53125 2.6055-0.73047 3.9062 4.0898 2.4688 6.6055 7.2148 9.0195 11.156 2.4805 4.0586 4.7031 8.3906 6.375 12.816 1.8203 4.8086 4.2188 9.2422 5.9219 14.082 0.23438 0.65625 0.48047 1.3125 0.73438 1.9609h60.262c1.0039-0.50781 1.8203-1.2266 2.2227-2.2812" fill="#686868"/>
 </g>
 <g clip-path="url(#b)">
  <path d="m926.65 1175.7c-3.9141-3.6523-6.3633-7.6953-8.1875-12.719-2.7109-7.4805-9.3789-11.711-15.691-15.871-3.9531-2.6055-7.8594-5.4375-11.117-8.9023-3.1719-3.3789-4.9102-6.9531-5.5312-11.562-0.40625-3.0391 1.3672-6.1953-1.0117-8.9375-1.1211-1.2852-2.3359-0.45703-3.1875 0.52344-0.19141 0.21875-0.36328 0.45312-0.50781 0.66406-1.2305 1.7695-1.793 3.5039-1.9414 5.6602-0.097656 1.4492-0.097656 2.7266 0.16016 4.168 0.46875 2.6484 1.2422 5.6055 2.7617 7.8672 3.1016 4.6172 7.9609 7.668 12.32 10.992 3.4141 2.6133 6.793 5.2617 9.6133 8.4688 2.543 2.8945 5.6406 5.707 7.4219 9.1719 1.6836 3.2773 3.6211 6.1914 6.2031 8.9492 4.5547 4.8711 10.648 9.0781 16.332 12.547 1.6719 1.0234 3.3945 1.9453 5.1367 2.8125h7.6523c-1.6562-0.89062-3.2969-1.8164-4.9141-2.7812-5.3828-3.2266-10.91-6.7617-15.512-11.051" fill="#686868"/>
 </g>
 <g clip-path="url(#c)">
  <path d="m911.41 1170.4c-3.3008-5.8633-9.1875-11.496-14.293-15.789-4.1719-3.5156-8.0391-7.2695-12.258-10.711-3.043-2.4766-7.2461-6.3945-8.0195-10.484-0.54297-2.8789 0.097656-5.6914 0.74219-8.5898-2.6328 1.9844-5.1328 3.6797-6.1562 6.9805-0.046876 0.13672-0.089844 0.28125-0.12109 0.42188-1.2266 4.7539 1.2539 8.207 4.6719 11.16 2.2305 1.9336 4.5039 3.6758 6.918 5.375 2.3438 1.6602 4.9102 3.418 7.0938 5.2578 7.3086 6.1602 15.242 12.117 20.035 20.621 1.8125 3.2109 2.9102 6.6562 4.9336 9.7227 1.1836 1.7852 2.3867 3.5078 3.6484 5.1445h12.988c-2.5781-1.6133-5.0195-3.418-7.6172-5.4727-5.2031-4.1133-9.3477-7.918-12.566-13.637" fill="#686868"/>
 </g>
 <path d="m966.75 1133.5c0.25781-0.054687 0.51562-0.11328 0.76172-0.19531 4.3633-1.4062 0.64453-4.3086-2.0703-4.918-0.39844-0.089844-0.98437-0.14062-1.7031-0.14844-0.34766-0.63672-0.71484-1.2656-1.0508-1.9062 0.35156-0.066406 0.70312-0.14844 1.0352-0.25391 4.3633-1.4102 0.64844-4.3203-2.0664-4.9219-0.38281-0.089844-0.94531-0.13672-1.625-0.14844-0.30469-0.63672-0.58594-1.2773-0.88281-1.9141 0.29688-0.0625 0.58984-0.13672 0.87109-0.22266 4.3633-1.4102 0.64844-4.3125-2.0664-4.9219-0.3125-0.070313-0.73828-0.11719-1.2578-0.14062-1.3984-2.8945-2.9258-6.0586-2.8164-9.082 0.050782-1.5547 2.0078-3.125 3.3594-1.6641 2.1445 2.3164 2.8711 5.2773 4.0469 8.1875 1.7539 4.3594 3.6914 8.6406 5.5508 12.957 3.207 7.4453 6.4023 14.887 9.5273 22.359 7.9062 5.2656 15.852 10.316 24.09 15.051 8.1367 4.6836 18.02 7.0625 25.59 12.504 0.046875 0.03125 0.011719 0.11719-0.042969 0.11719-8.6836-0.0625-17.586-5.2695-25.281-8.8516-3.7852-1.7656-7.4844-3.7109-11.102-5.8047-2.3438-1.3555-4.4844-3.2812-6.6211-4.9531-2.3789-1.8633-4.5117-4.0547-6.4297-6.3828-1.9414-2.3672-3.6953-4.8867-5.3516-7.4531-0.44141-0.68359-4.0898-7.375-4.4648-7.293" fill="#686868"/>
 <path d="m947.63 1120.2c-2.5039 0.79297-5.168 1.3672-5.5938-0.29688-1.0273-4.0078 12.004-5.9609 14.742-5.4922 2.3281 0.40234 5.6328 2.6523 2.0078 3.9531-2.0664 0.74219-4.6133 0.46484-6.7891 0.51562-0.71875 0.019532-2.5039 0.73047-4.3672 1.3203" fill="#686868"/>
 <path d="m951.38 1127.7c-2.5039 0.80859-5.1641 1.3867-5.5938-0.26953-1.0508-4 11.973-6.0273 14.711-5.5664 2.332 0.39062 5.6445 2.6211 2.0273 3.9375-2.0625 0.75391-4.6094 0.48828-6.7852 0.55078-0.72266 0.023437-2.5 0.74609-4.3594 1.3477" fill="#686868"/>
 <path d="m955.2 1134.9c-2.5234 0.73828-5.1953 1.2461-5.582-0.42188-0.94531-4.0312 12.129-5.7031 14.859-5.1719 2.3164 0.45312 5.5703 2.7734 1.918 3.9961-2.082 0.69531-4.6211 0.35938-6.7969 0.36719-0.72266 0.003906-2.5195 0.67578-4.3984 1.2305" fill="#686868"/>
 <path d="m891.31 1085.8c2.4609-5.1797 7.0898-9.293 13.344-7.9453 12.141 2.6133 17.996 16.379 29.211 20.586 0.10938 0.042969 0.042969 0.20312-0.0625 0.18359-9.2812-1.5312-16.355-8.8906-24.703-12.879-2.0898-0.99219-4.8047-2.0352-7-0.75781-1.2031 0.69922-1.6367 1.7773-2.2656 2.9336-0.87109 1.6133-2.0625 3.0234-2.9219 4.6602-1.0117 1.9297-1.3828 3.957-1.8125 6.1289-0.44531 2.2695-0.93359 4.8438-0.28516 7.0977 0.64062 2.2188 2.1328 4.4023 4.3047 5.3477 2.2188 0.96484 4.3047-0.26172 6.2031-1.3906 3.4492-2.043 6.6875-3.793 10.641-4.5742 3.3789-0.66797 7.4531-0.73438 10.48-2.5039 1.8516-1.082 1.6523-2.2891 3.9727-1.3203 1.8906 0.79688 3.3516 2.0469 4.707 3.5742 0.83594 0.94922 1.582 1.9648 2.3906 2.9453 1.4492 1.7461 2.6133 3.332 3.7578 5.2891 0.67969 1.1602 1.2891 2.7695 2.2031 3.7617-1.9336 0.92578-3.1641 2.125-2.8906 3.6211 0.33203 1.7734 2.7656 1.5898 5.3789 0.95703 0.10156 0.19141 0.20703 0.39062 0.31641 0.58203 0.35938 0.64844 0.69922 1.3125 1.0195 1.9883-2 0.93359-3.293 2.1562-3.0117 3.6797 0.20312 1.0664 1.2422 1.3711 2.1992 1.3984 0.73047 0.023438 1.4414-0.097656 2.1641-0.074219 0.80859 0.019532 0.97656-0.097656 1.293 0.66016 0.16406 0.38281 1.0039 1.2148 0.89062 1.625-0.078125 0.29297-1.0938 0.72656-1.3594 0.92578-0.87891 0.64844-1.6172 1.5312-1.3984 2.6953 0.22266 1.2148 1.4414 1.5078 3.0234 1.3711-0.16797 1.0977-0.40234 2.2148-0.57812 3.3594-0.72266 4.6484-1.8984 9.1797-3.2969 13.668-2.1445 6.8711-5.5625 17.496-11.875 21.605-2.4766 1.6094-6.3477-0.54297-5.5117-3.668 0.92969-3.4727 3.2656-6.3359 5.1211-9.3984 2.1094-3.4727 3.8203-7.1719 5.5938-10.824 1.7891-3.6797 3.3906-7.4961 4.8867-11.301 0.26172-0.66016 0.48828-1.3398 0.70703-2.0273-1.4219-4.7383-4.0039-8.8555-6.9258-12.938-3.3281-4.6484-7.0703-11.953-13.645-12.059-2.1562-0.039063-4.3672 0.29688-6.4844 0.63672-4.7773 0.76172-9.4062 2.5938-14.293 2.6719-4.1875 0.074219-8.6719-2.4727-11.668-5.2422-3.1445-2.9102-3.1797-6.75-3.2852-10.715-0.082031-3.1875-0.80859-6.1602-0.17969-9.3438 0.32813-1.6797 0.88281-3.3867 1.6445-4.9922" fill="#686868"/>
 <path d="m935.26 1099.1c0.16016-0.40625 0.35547-0.80859 0.58203-1.1836 2.1328-3.5273 6.207-4.6641 9.9609-2.9492 2.9141 1.3242 5.2109 4.2031 6.6094 7.0156-0.69531-0.48438-1.2617-1.1914-1.9531-1.6914-1.7578-1.2891-4.3633-2.7656-6.6211-2.1172-0.9375 0.26953-1.6523 0.89844-2.207 1.6797-0.91016 1.293-1.6016 3.0195-3.207 3.5859-1.6875 0.60156-3.8789-0.86719-3.5859-2.7852 0.082031-0.53125 0.22266-1.0508 0.42187-1.5547" fill="#686868"/>
 <g clip-path="url(#l)">
  <path d="m568.86 1172.6c-11.992 0-22.371 6.8711-27.434 16.895h54.844c-5.0586-10.012-15.422-16.895-27.41-16.895" fill="#686868"/>
 </g>
 <g clip-path="url(#g)">
  <path d="m712.67 1172.6c-11.988 0-22.352 6.8828-27.414 16.895h54.848c-5.0586-10.023-15.441-16.895-27.434-16.895" fill="#686868"/>
 </g>
 <path d="m568.86 44.551c13.352 0 24.711-8.5234 28.945-20.422 11.461 2.1328 26.488 3.4258 42.961 3.4258 16.465 0 31.496-1.293 42.957-3.4258 4.2305 11.898 15.594 20.422 28.945 20.422 16.969 0 30.723-13.754 30.723-30.723 0-4.9766-1.1875-9.668-3.2891-13.828h-54.848c-0.57422 1.1367-1.1016 2.3086-1.5312 3.5273-11.461-2.1328-26.492-3.4258-42.957-3.4258-16.473 0-31.5 1.293-42.961 3.4258-0.43359-1.2188-0.95703-2.3906-1.5352-3.5273h-54.844c-2.0977 4.1602-3.293 8.8516-3.293 13.828 0 16.969 13.758 30.723 30.727 30.723" fill="#686868"/>
 <g clip-path="url(#m)">
  <path d="m328.57 1133.6h16.074c24.887 0 45.066 14.348 45.066 32.035 0 6.7344-2.9297 12.973-7.9102 18.133-12.574-9.5-28.223-15.129-45.195-15.129-16.965 0-32.617 5.6289-45.191 15.129-4.9844-5.1602-7.9023-11.398-7.9023-18.133 0-17.688 20.18-32.035 45.059-32.035zm6.8516 50.152c7.7109 0 14.789 2.1406 20.352 5.7148h44.262c3.5625-7.5586 5.5547-16.008 5.5547-24.918 0-32.332-26.207-58.547-58.543-58.547h-20.879c-32.328 0-58.551 26.215-58.551 58.547 0 8.9102 2 17.359 5.5625 24.918h41.891c5.5586-3.5742 12.637-5.7148 20.352-5.7148" fill="#686868"/>
 </g>
 <g clip-path="url(#j)">
  <path d="m322.92 1189.5h25.012c-3.8477-1.2812-8.0703-1.9961-12.508-1.9961-4.4336 0-8.6562 0.71484-12.504 1.9961" fill="#686868"/>
 </g>
 <path d="m303.18 37.266c1.207 14.57 15.164 26.078 32.246 26.078s31.043-11.508 32.242-26.078c0.058594 0.68359 0.12109 1.3555 0.12109 2.0391 0 15.527-14.496 28.117-32.363 28.117-17.871 0-32.363-12.59-32.363-28.117 0-0.68359 0.058594-1.3555 0.11719-2.0391zm-41.645 16.973c0 25.195 12.422 47.469 31.457 61.082h87.242c19.031-13.613 31.453-35.887 31.453-61.082 0-17.527-6.0273-33.641-16.09-46.414 1.6719-2.4766 3.1602-5.0938 4.4414-7.8242h-44.262c7.3203 4.707 12.012 11.891 12.012 19.949 0 0.625-0.0625 1.2422-0.12109 1.8633-0.89062-9.8477-8.7734-18.16-19.734-21.812h-25.012c-10.961 3.6523-18.848 11.965-19.742 21.812-0.058593-0.62109-0.11719-1.2383-0.11719-1.8633 0-8.0586 4.6875-15.242 12.012-19.949h-41.891c1.2891 2.7305 2.7695 5.3477 4.4492 7.8242-10.07 12.773-16.098 28.887-16.098 46.414" fill="#686868"/>
 <path d="m506.91 562.57c-3.082-1.1953-7.793-3.6055-10.762-1.5117-0.56641 0.40234-0.61328 1.4492-0.11719 1.918 0.83594 0.80078 1.3828 1.3398 2.5859 1.25 2.375-0.17578 5.0625 0.54297 7.3203 1.1523 3.4297 0.92969 6.6484 2.0781 10.145 2.7734 0.082031 0.015625 0.14062-0.10938 0.078125-0.16406-2.8438-2.5195-5.707-4.043-9.25-5.418" fill="#686868"/>
 <path d="m655.21 502.7c-1.25 1.2539-2.6484 2.2891-4.0273 3.418-2.7188 2.2266-5.6641 4.1445-8.5625 6.125-2.8789 1.9688-5.6016 4.0703-8.2266 6.3477-1.5391 1.3281-3.0195 2.8281-4.3672 4.3477-0.39062 0.45312-0.75 0.95312-1.1641 1.3789 0.94141-0.94922 2.293-1.7578 3.3984-2.5273 1.3008-0.90625 2.6406-1.7422 4.0273-2.5 2.8477-1.5547 5.7031-3.2227 8.6484-4.5859 0.78516-0.35938 1.5703-0.71875 2.3594-1.0703 0.375-0.17188 0.76172-0.34375 1.1445-0.52734 2.1328-1.043 4.3281-2.0547 6.3711-3.3203 1.7812-1.1016 3.7852-2.1992 5.0781-3.8984 1.1875-1.5625 1.1562-4.3398-0.007813-5.8867-0.34375-0.46094-0.72266-0.875-1.1094-1.293-0.33984-0.37109-0.625-0.97266-1.0625-1.2148-0.33594 1.6602-0.48438 2.9023-1.6367 4.2617-0.27734 0.33203-0.56641 0.64062-0.86328 0.94531" fill="#686868"/>
 <path d="m561.17 518.37c-4.75 5.8516-8.7148 12.402-12.203 18.984-0.39844 0.75781-0.75 1.5352-1.0742 2.3242-6.6172-1.0391-13.289-0.15625-20.035-0.035157-5.9922 0.10547-11.141-1.7305-16.824-3.2422-4.5977-1.2148-10.465-2.6992-15.047-0.64453-3.5312 1.5859-6.5117 7.1875-5.0781 11.004 1.0781 2.8672 5.2695 3.3047 7.9375 3.5078 8.6992 0.66016 16.852 5.2422 25.117 7.7188 7.3711 2.2031 15.789 2.9023 22.879-0.60156 4.1094-2.0234 5.8359-6.2266 7.2773-10.305 1.7109-4.8359 4.1094-9.2695 5.9258-14.082 1.6758-4.4258 3.8906-8.7617 6.375-12.816 2.4102-3.9375 4.9297-8.6875 9.0234-11.152-0.19922-1.3047-0.51172-2.5312-0.73047-3.9102-1.8867 2.2656-4.6992 4.0273-6.8672 6.0508-2.3945 2.2383-4.6094 4.6562-6.6758 7.1992" fill="#686868"/>
 <path d="m645.24 477.74c-0.84766-0.98047-2.0664-1.8086-3.1797-0.52344-2.3867 2.7383-0.60547 5.8984-1.0156 8.9375-0.62109 4.6094-2.3594 8.1836-5.5312 11.566-3.2539 3.4648-7.1602 6.2891-11.117 8.8984-6.3125 4.1562-12.977 8.3945-15.691 15.875-1.8203 5.0234-4.2734 9.0664-8.1914 12.719-4.5977 4.2891-10.125 7.8242-15.508 11.043-3.1523 1.8867-6.3945 3.6289-9.6953 5.2422-12.07 5.8867-26.219 5.8008-39.125 8.7344-0.070312 0.019531-0.046875 0.11328 0.015625 0.10547 19.293-1.6836 39.809-3.8086 56.684-14.109 5.6836-3.4688 11.77-7.6719 16.332-12.551 2.5781-2.75 4.5156-5.6641 6.2031-8.9492 1.7773-3.4609 4.8789-6.2773 7.4219-9.1641 2.8203-3.2109 6.1992-5.8594 9.6133-8.4727 4.3516-3.3281 9.2188-6.375 12.316-10.992 1.5195-2.2578 2.2969-5.2188 2.7617-7.8672 0.25391-1.4375 0.25781-2.7188 0.16016-4.1641-0.14844-2.1602-0.71484-3.8945-1.9414-5.6641-0.14844-0.21484-0.32031-0.44141-0.51172-0.66406" fill="#686868"/>
 <path d="m655.87 491.76c-0.039063-0.14062-0.082032-0.28125-0.12109-0.41797-1.0234-3.3047-3.5234-4.9961-6.1641-6.9805 0.65234 2.8945 1.293 5.707 0.74609 8.5859-0.77734 4.0898-4.9727 8.0078-8.0156 10.488-4.2188 3.4375-8.0859 7.1914-12.262 10.707-5.1016 4.293-10.988 9.9219-14.293 15.789-3.2227 5.7188-7.3672 9.5234-12.566 13.641-4.9844 3.9336-9.375 6.9844-15.309 9.4648-9.6445 4.0312-19.812 6.4414-30.086 8.2188-10.852 1.8828-23.375 2.2266-34.133-0.41016-9.2422-2.2617-16.688-8.4492-26.594-8.1016-3.6367 0.125-4.2188 5.5625-0.42578 5.7578 10.805 0.5625 19.887 8.0547 30.578 9.6914 11.492 1.75 23.719 1.9883 35.289 0.92578 11.035-1.0195 22.457-3.9492 32.492-8.668 7.7188-3.6211 12.617-9.6016 17.203-16.555 2.0273-3.0664 3.1211-6.5156 4.9375-9.7227 4.7969-8.5 12.723-14.457 20.039-20.617 2.1836-1.8398 4.7461-3.6016 7.0938-5.2578 2.4102-1.7031 4.6836-3.4453 6.918-5.3789 3.4102-2.9492 5.8984-6.4062 4.6719-11.16" fill="#686868"/>
 <path d="m560.42 493c-0.25781-0.054688-0.51172-0.10938-0.75781-0.19531-4.3633-1.4023-0.64453-4.3125 2.0664-4.918 0.39453-0.089843 0.98438-0.14062 1.707-0.15234 0.34766-0.63281 0.71094-1.2617 1.0508-1.9023-0.35547-0.066406-0.70312-0.14844-1.0391-0.25781-4.3633-1.4062-0.64453-4.3125 2.0703-4.918 0.37891-0.085938 0.94141-0.13672 1.625-0.14844 0.30078-0.63281 0.58594-1.2812 0.87891-1.9141-0.29297-0.0625-0.58594-0.13281-0.875-0.22656-4.3633-1.4062-0.64062-4.3086 2.0703-4.918 0.3125-0.070312 0.74219-0.11328 1.2578-0.14062 1.4023-2.8945 2.9219-6.0547 2.8203-9.0781-0.054688-1.5586-2.0078-3.1289-3.3594-1.668-2.1523 2.3164-2.8711 5.2812-4.0469 8.1914-1.7617 4.3516-3.6953 8.6406-5.5547 12.953-3.2031 7.4453-6.4062 14.887-9.5273 22.363-7.9062 5.2617-15.855 10.312-24.09 15.051-8.1406 4.6836-18.016 7.0586-25.586 12.504-0.046875 0.03125-0.019531 0.11328 0.035156 0.11328 8.6914-0.0625 17.59-5.2695 25.289-8.8516 3.7852-1.7656 7.4844-3.7109 11.098-5.8008 2.3438-1.3594 4.4805-3.2812 6.6211-4.957 2.3789-1.8633 4.5117-4.0586 6.4258-6.3867 1.9492-2.3594 3.6992-4.8789 5.3555-7.4531 0.44141-0.67969 4.0938-7.3672 4.4648-7.2891" fill="#686868"/>
 <path d="m579.54 479.75c2.5039 0.79297 5.168 1.3594 5.5898-0.29688 1.0312-4.0117-12.008-5.9688-14.742-5.4922-2.3281 0.39844-5.6289 2.6484-2.0039 3.9492 2.0625 0.74219 4.6094 0.46484 6.7891 0.51562 0.71875 0.019531 2.5 0.73438 4.3672 1.3242" fill="#686868"/>
 <path d="m575.79 487.25c2.5039 0.80859 5.1562 1.3867 5.5938-0.26953 1.0508-4.0039-11.973-6.0273-14.715-5.5664-2.332 0.38672-5.6406 2.6172-2.0273 3.9375 2.0625 0.75781 4.6094 0.48828 6.7891 0.55469 0.72266 0.019531 2.4961 0.74219 4.3594 1.3438" fill="#686868"/>
 <path d="m571.98 494.43c2.5234 0.73828 5.1953 1.25 5.5859-0.41797 0.9375-4.0312-12.137-5.707-14.859-5.1719-2.3242 0.44922-5.5703 2.7695-1.9219 3.9922 2.082 0.69922 4.6211 0.35937 6.8008 0.37109 0.71875 0 2.5195 0.67188 4.3945 1.2266" fill="#686868"/>
 <path d="m635.87 445.36c-2.4609-5.1758-7.0938-9.2891-13.344-7.9453-12.141 2.6133-17.996 16.379-29.215 20.586-0.10547 0.039062-0.039063 0.20312 0.066406 0.18359 9.2773-1.5273 16.352-8.8906 24.695-12.875 2.0898-1 4.8086-2.0391 7.0078-0.76172 1.1992 0.70312 1.6289 1.7734 2.2617 2.9375 0.875 1.6133 2.0625 3.0234 2.9219 4.6562 1.0117 1.9336 1.3867 3.957 1.8125 6.1289 0.44922 2.2695 0.92969 4.8438 0.28516 7.1016-0.63672 2.2188-2.1328 4.4023-4.3047 5.3438-2.2148 0.96484-4.3008-0.26172-6.207-1.3867-3.4453-2.0469-6.6797-3.7969-10.637-4.5781-3.375-0.66406-7.457-0.73438-10.48-2.5039-1.8477-1.082-1.6484-2.2852-3.9727-1.3164-1.8867 0.78906-3.3516 2.0391-4.7031 3.5703-0.83984 0.95312-1.582 1.9648-2.3984 2.9453-1.4453 1.7461-2.6055 3.332-3.7539 5.293-0.67578 1.1562-1.2852 2.7695-2.2031 3.7578 1.9336 0.92969 3.1641 2.1289 2.8867 3.6211-0.32422 1.7734-2.7656 1.5859-5.3711 0.95703-0.10547 0.19531-0.20703 0.39063-0.31641 0.58594-0.36328 0.64844-0.69922 1.3086-1.0234 1.9844 2.0039 0.9375 3.293 2.1523 3.0078 3.6797-0.19531 1.0664-1.2344 1.3711-2.1992 1.4023-0.72266 0.023438-1.4336-0.10156-2.1602-0.078125-0.80859 0.023438-0.97266-0.097656-1.2891 0.66016-0.16406 0.38281-1.0078 1.2188-0.89844 1.625 0.082031 0.29297 1.1016 0.73047 1.3672 0.92578 0.87891 0.65234 1.6133 1.5312 1.3984 2.6992-0.22266 1.2109-1.4453 1.5039-3.0273 1.3633 0.16797 1.1016 0.40625 2.2188 0.58203 3.3594 0.72266 4.6523 1.8906 9.1836 3.293 13.672 2.1484 6.875 5.5625 17.492 11.879 21.605 2.4727 1.6094 6.3477-0.54297 5.5117-3.6719-0.93359-3.4688-3.2695-6.332-5.1211-9.3906-2.1094-3.4805-3.8203-7.1719-5.5938-10.824-1.7891-3.6797-3.3945-7.4961-4.8945-11.301-0.26172-0.66016-0.48438-1.3438-0.70312-2.0273 1.4219-4.7422 4.0039-8.8555 6.9297-12.945 3.3281-4.6406 7.0625-11.945 13.641-12.055 2.1562-0.035156 4.3633 0.30078 6.4883 0.63672 4.7734 0.76172 9.4023 2.5898 14.289 2.6758 4.1836 0.070312 8.668-2.4727 11.672-5.2422 3.1445-2.9102 3.1719-6.75 3.2852-10.715 0.082031-3.1914 0.80078-6.1602 0.17969-9.3438-0.32812-1.6836-0.88281-3.3867-1.6445-4.9961" fill="#686868"/>
 <path d="m591.91 458.6c-0.15625-0.40625-0.35547-0.80078-0.57812-1.1836-2.1367-3.5273-6.207-4.6602-9.9648-2.9492-2.9102 1.3281-5.2109 4.2031-6.6094 7.0195 0.69141-0.48828 1.2617-1.1914 1.957-1.6953 1.7539-1.2891 4.3633-2.7617 6.6211-2.1133 0.9375 0.26172 1.6523 0.89453 2.1992 1.6758 0.91797 1.293 1.6055 3.0234 3.207 3.5898 1.6914 0.59766 3.8867-0.87109 3.5938-2.7852-0.085938-0.53516-0.23047-1.0547-0.42578-1.5586" fill="#686868"/>
 <path d="m953.15 284.23c13.348 0 24.711 8.5234 28.949 20.422 11.457-2.1328 26.484-3.4258 42.953-3.4258s31.5 1.293 42.957 3.4258c4.2383-11.898 15.594-20.422 28.949-20.422 16.969 0 30.723 13.754 30.723 30.723s-13.754 30.723-30.723 30.723c-13.355 0-24.711-8.5195-28.949-20.422-11.457 2.1328-26.488 3.4258-42.957 3.4258s-31.496-1.293-42.953-3.4258c-4.2383 11.902-15.602 20.422-28.949 20.422-16.969 0-30.723-13.754-30.723-30.723s13.754-30.723 30.723-30.723" fill="#686868"/>
 <path d="m744.02 840.85-6.4492-18.664-20.23 50.152-21.652-40.895-8.4219 35.484-22.25-70.969-22.254 42.348h-27.664v0.14844c-0.59766-1.7734-1.1445-3.5586-1.6133-5.3516-10.062-38.375 19.875-61.645 46.562-61.645 19.66 0 37.555 12.617 36.406 41.117 2.2695-28.852 20.434-41.727 39.238-41.727 25.387 0 51.926 23.461 42.062 62.742-0.61328 2.4375-1.3398 4.8555-2.1562 7.2578zm-46.293 92.078s-56.379-37.938-78.129-83.449h23.164l22.254-42.344 22.25 70.965 8.4219-35.48 21.652 40.895 20.23-50.156 6.4492 18.664h27.016c-21.414 45.277-73.309 80.906-73.309 80.906zm78.457-149.77c-9.7188-12.457-24.852-19.898-40.492-19.898-11.797 0-22.816 4.3086-31.047 12.133-2.6562 2.5273-5.0039 5.3945-7.0195 8.5703-1.5703-2.668-3.4219-5.1172-5.5469-7.3242-7.9062-8.2344-19.281-12.77-32.031-12.77-17.441 0-34.801 8.4531-45.297 22.059-10.34 13.395-13.391 30.84-8.6016 49.102 14.285 54.379 84.367 102 87.082 104l4.2812 3.6719c2.9609-1.8633 68.445-47.734 85.812-101.11l0.76953-0.74609h-0.52344c0.56641-1.793 1.082-3.6016 1.5391-5.4102 5.0039-19.918 1.8359-38.484-8.9258-52.281" fill="#686868"/>
 <path d="m156.97 86.012-4.1055-11.883-12.879 31.926-13.781-26.031-5.3633 22.59-14.164-45.18-14.164 26.957h-17.609v0.097656c-0.38281-1.1367-0.72656-2.2695-1.0273-3.4062-6.4062-24.434 12.652-39.246 29.641-39.246 12.512 0 23.906 8.0352 23.176 26.18 1.4414-18.367 13.004-26.562 24.98-26.562 16.156 0 33.051 14.934 26.773 39.938-0.39062 1.5547-0.85156 3.0898-1.3789 4.6211zm-29.469 58.613s-35.891-24.152-49.738-53.121h14.75l14.164-26.953 14.164 45.172 5.3633-22.586 13.781 26.031 12.879-31.926 4.1055 11.883h17.195c-13.629 28.816-46.664 51.5-46.664 51.5zm49.945-95.34c-6.1836-7.9297-15.82-12.668-25.773-12.668-7.5156 0.007812-14.531 2.7461-19.766 7.7305-1.6914 1.6055-3.1836 3.4336-4.4727 5.4531-0.99609-1.6992-2.1797-3.2578-3.5312-4.6641-5.0312-5.2422-12.27-8.1289-20.387-8.1289-11.105 0-22.156 5.3828-28.836 14.039-6.582 8.5312-8.5273 19.629-5.4766 31.262 9.0938 34.609 53.707 64.93 55.434 66.203l2.7227 2.3359c1.8867-1.1836 43.57-30.383 54.629-64.363l0.48828-0.47266h-0.32812c0.35547-1.1445 0.6875-2.293 0.97266-3.4453 3.1875-12.68 1.1719-24.5-5.6758-33.281" fill="#686868"/>
 <path d="m28.172 1077.5h-0.42188c0.45312-1.4414 0.86719-2.8906 1.2344-4.3477 4.0156-15.992 1.4688-30.898-7.1641-41.973-5.5469-7.1094-13.293-12.172-21.82-14.508v6.3555c16.285 5.3125 29.602 22.66 23.074 48.645-0.48828 1.957-1.0703 3.9023-1.7266 5.8281h-21.348v8.9727h17.684c-4.5742 9.6719-10.891 18.789-17.684 26.973v9.0547c11.504-12.887 22.285-28.215 27.551-44.402l0.62109-0.59766" fill="#686868"/>
 <g clip-path="url(#f)">
  <path d="m1148.3 1151.4s-45.273-30.461-62.738-67.004h18.602l17.867-34 17.867 56.984 6.7617-28.492 17.383 32.836 16.246-40.273 5.1836 14.988h4.0039v-8.9727h-4.0039l-5.1836-14.984-16.246 40.27-17.383-32.836-6.7617 28.492-17.867-56.984-17.867 34h-22.215v0.12109c-0.48047-1.4258-0.91016-2.8594-1.293-4.2969-8.082-30.816 15.961-49.5 37.387-49.5 15.789 0 30.156 10.137 29.234 33.02 1.8164-23.168 16.406-33.508 31.504-33.508 3.5898 0 7.2109 0.59766 10.695 1.7344v-6.3555c-3.4648-0.95703-7.0625-1.4688-10.695-1.4688-9.4688 0-18.32 3.4609-24.93 9.7422-2.1328 2.0273-4.0156 4.332-5.6367 6.8789-1.2578-2.1406-2.7461-4.1094-4.4492-5.8828-6.3516-6.6133-15.488-10.25-25.723-10.25-14.004 0-27.945 6.7852-36.371 17.707-8.3008 10.758-10.754 24.762-6.9023 39.43 11.469 43.66 67.734 81.898 69.914 83.508l3.4414 2.9453c1.4805-0.92969 22.398-15.547 41.352-36.781v-9.0547c-18.738 22.57-41.176 37.988-41.176 37.988" fill="#686868"/>
 </g>
 <path d="m212.1 628.73c16.488 0 30.512 10.52 35.742 25.211 14.148-2.6289 32.707-4.2266 53.039-4.2266 20.34 0 38.895 1.5977 53.043 4.2266 5.2305-14.691 19.258-25.211 35.742-25.211 20.953 0 37.934 16.98 37.934 37.934 0 20.949-16.98 37.934-37.934 37.934-16.484 0-30.512-10.52-35.742-25.211-14.148 2.6289-32.703 4.2266-53.043 4.2266-20.332 0-38.891-1.5977-53.039-4.2266-5.2305 14.691-19.254 25.211-35.742 25.211-20.953 0-37.938-16.984-37.938-37.934 0-20.953 16.984-37.934 37.938-37.934" fill="#686868"/>
 <path d="m62.418 916.64c9.0508 0 16.75 5.7812 19.621 13.84 7.7617-1.4375 17.953-2.3164 29.113-2.3164 11.168 0 21.352 0.87891 29.121 2.3164 2.8711-8.0586 10.57-13.84 19.621-13.84 11.5 0 20.824 9.3242 20.824 20.824 0 11.504-9.3242 20.828-20.824 20.828-9.0508 0-16.75-5.7773-19.621-13.844-7.7695 1.4453-17.953 2.3242-29.121 2.3242-11.16 0-21.352-0.87891-29.113-2.3242-2.8711 8.0664-10.57 13.844-19.621 13.844-11.508 0-20.828-9.3242-20.828-20.828 0-11.5 9.3203-20.824 20.828-20.824" fill="#686868"/>
 <path d="m340.97 247.39c9.0508 0 16.746 5.7734 19.617 13.836 7.7695-1.4414 17.953-2.3203 29.121-2.3203 11.164 0 21.352 0.87891 29.117 2.3203 2.8711-8.0625 10.57-13.836 19.625-13.836 11.5 0 20.82 9.3203 20.82 20.82 0 11.504-9.3203 20.824-20.82 20.824-9.0547 0-16.754-5.7734-19.625-13.84-7.7656 1.4414-17.953 2.3203-29.117 2.3203-11.168 0-21.352-0.87891-29.121-2.3203-2.8711 8.0664-10.566 13.84-19.617 13.84-11.504 0-20.824-9.3203-20.824-20.824 0-11.5 9.3203-20.82 20.824-20.82" fill="#686868"/>
 <path d="m446.01 750.02c9.0508 0 16.75 5.7734 19.621 13.84 7.7656-1.4453 17.953-2.3242 29.117-2.3242s21.348 0.87891 29.117 2.3242c2.8711-8.0664 10.57-13.84 19.621-13.84 11.5 0 20.828 9.3203 20.828 20.824 0 11.5-9.3281 20.824-20.828 20.824-9.0508 0-16.75-5.7773-19.621-13.84-7.7695 1.4453-17.953 2.3164-29.117 2.3164s-21.352-0.87109-29.117-2.3164c-2.8711 8.0625-10.57 13.84-19.621 13.84-11.504 0-20.824-9.3242-20.824-20.824 0-11.504 9.3203-20.824 20.824-20.824" fill="#686868"/>
 <path d="m553.8 244.84c18.344 0 33.949 11.703 39.766 28.051 15.742-2.9297 36.387-4.707 59.012-4.707 22.621 0 43.266 1.7773 59.008 4.707 5.8164-16.348 21.422-28.051 39.762-28.051 23.312 0 42.203 18.891 42.203 42.203 0 23.305-18.891 42.199-42.203 42.199-18.34 0-33.945-11.707-39.762-28.047-15.742 2.9219-36.387 4.7031-59.008 4.7031-22.625 0-43.27-1.7812-59.012-4.7031-5.8164 16.34-21.422 28.047-39.766 28.047-23.305 0-42.199-18.895-42.199-42.199 0-23.312 18.895-42.203 42.199-42.203" fill="#686868"/>
 <path d="m914.73 172.03h15.918v-77.605h-15.918v77.605" fill="#686868"/>
 <path d="m935.3 180.05h15.918v-93.664h-15.918v93.664" fill="#686868"/>
 <path d="m1105.8 94.422v77.605h15.922v-77.605h-15.922" fill="#686868"/>
 <path d="m1085.2 180.05h15.918v-93.664h-15.918v93.664" fill="#686868"/>
 <path d="m1064.6 116.27h-92.863v-37.465h-15.926v108.83h15.926v-37.465h92.863v37.465h15.922v-108.83h-15.922v37.465" fill="#686868"/>
 <path d="m494.75 160.09h7.6406v-37.25h-7.6406v37.25" fill="#686868"/>
 <path d="m504.62 163.95h7.6445v-44.953h-7.6445v44.953" fill="#686868"/>
 <path d="m586.45 122.84v37.25h7.6406v-37.25h-7.6406" fill="#686868"/>
 <path d="m576.57 163.95h7.6406v-44.953h-7.6406v44.953" fill="#686868"/>
 <path d="m566.7 133.34h-44.574v-17.988h-7.6367v52.242h7.6367v-17.988h44.574v17.988h7.6445v-52.242h-7.6445v17.988" fill="#686868"/>
 <path d="m236.06 344.15c-13.352 0-24.707 8.5195-28.945 20.422-11.461-2.1328-26.484-3.4258-42.957-3.4258s-31.5 1.293-42.957 3.4258c-4.2383-11.902-15.594-20.422-28.949-20.422-16.969 0-30.723 13.758-30.723 30.723 0 16.969 13.754 30.723 30.723 30.723 13.355 0 24.711-8.5234 28.949-20.418 11.457 2.1289 26.484 3.4258 42.957 3.4258s31.496-1.2969 42.957-3.4258c4.2383 11.895 15.594 20.418 28.945 20.418 16.969 0 30.723-13.754 30.723-30.723 0-16.965-13.754-30.723-30.723-30.723" fill="#686868"/>
 <g clip-path="url(#h)">
  <path d="m1183 175.31c-0.16016 5.1992 2.1172 9.8125 6.5039 13.609v-9.8047c-0.39453-1.1211-0.59766-2.3281-0.55859-3.625 0.027344-0.98828 0.23828-1.9297 0.55859-2.8281v-9.7266c-3.7305 3.0469-6.3477 7.3008-6.5039 12.375" fill="#686868"/>
 </g>
 <g clip-path="url(#k)">
  <path d="m1173.4 213.64v5.3984c-7.7227-1.2734-17.504-2.0391-28.152-2.0391-24.961 0-45.199 4.1875-45.199 9.3555 0 5.1602 20.238 9.3477 45.199 9.3477 10.648 0 20.43-0.76562 28.152-2.0391v5.3984h16.059v-25.422h-16.059" fill="#686868"/>
 </g>
 <path d="m174.88 240.79 2.0391 0.36719c9.7852 1.7539 35.773 6.3906 42.273 16.672 1.4219 2.2539 1.7656 4.6328 1.0469 7.2773-0.75391 2.7383-2.2266 4.5586-4.5078 5.5664-6.2734 2.7773-18.457-0.12109-34.312-8.1641-13.332-6.7617-25.133-16.734-36.551-26.379-0.097656-0.082031-0.19922-0.16406-0.29688-0.25 10.137 1.4258 20.238 3.0625 30.309 4.9102zm-173.89-10.816c44.227-2.5391 88.641-1.0547 132.59 4.4414 0.3125 0.26562 0.62891 0.52734 0.94141 0.78906 2.1758 1.8086 4.3398 3.6367 6.5117 5.4688 11.672 9.8672 23.746 20.066 37.699 27.145 9.5039 4.8164 21.672 9.7891 31.41 9.7891 2.9336 0 5.6406-0.44922 7.9961-1.4922 3.9648-1.7578 6.5977-4.9297 7.8359-9.4375 1.1719-4.2891 0.57812-8.3359-1.7539-12.023-7.9023-12.5-34.777-17.297-46.254-19.348l-2.0117-0.36328c-13.254-2.4336-26.559-4.5039-39.922-6.207-7.1719-5.8945-14.5-11.598-21.969-17.105 32.914 2.7969 66.008 3.4688 99.062 2.0234v9.7734h17.047v-5.3984c7.7227 1.2734 17.504 2.0391 28.152 2.0391 24.961 0 45.203-4.1836 45.203-9.3516 0-5.1641-20.242-9.3477-45.203-9.3477-10.648 0-20.43 0.76562-28.152 2.0391v-5.3945h-17.047v9.6953c-36.238 1.5938-72.523 0.61719-108.57-2.9219-21.238-14.934-43.586-28.301-66.781-39.941-7.6797-3.8555-15.914-7.5742-24.699-7.0469-4.5703 0.26953-9.3672 2.1094-13.07 5.1328v9.7266c1.8125-5.0625 7.8242-8.5938 13.422-8.9258 0.44922-0.023437 0.89844-0.039063 1.3438-0.039063 6.8516 0 13.535 3.0547 20.34 6.4688 19.68 9.875 38.742 21.012 57.023 33.301-23.641-2.7148-47.164-6.5312-70.484-11.445-5.957-1.2539-18.809-4.8555-21.645-12.906v9.8047c4.5898 3.9727 11.5 7.043 20.418 8.9219 27.098 5.707 54.473 9.9492 81.984 12.711 7.6562 5.418 15.152 11.035 22.504 16.852-41.113-4.6094-82.602-5.7422-123.92-3.3867v-10.371h-0.98828v25.422h0.98828v-9.0898" fill="#686868"/>
 <path d="m457.29 429.91-5.1797-14.988-16.246 40.27-17.383-32.836-6.7617 28.492-17.867-56.984-17.867 34.004h-22.215v0.12109c-0.48047-1.4258-0.91406-2.8594-1.293-4.3008-8.082-30.812 15.957-49.496 37.387-49.496 15.785 0 30.152 10.133 29.23 33.016 1.8203-23.168 16.41-33.504 31.508-33.504 20.379 0 41.688 18.836 33.77 50.375-0.49219 1.957-1.0703 3.9023-1.7266 5.832zm-37.172 73.93s-45.266-30.457-62.738-67h18.605l17.867-34.004 17.867 56.984 6.7617-28.492 17.383 32.836 16.246-40.27 5.1797 14.988h21.688c-17.188 36.352-58.859 64.957-58.859 64.957zm62.996-120.25c-7.8008-10.004-19.957-15.977-32.512-15.977-9.4688 0-18.324 3.4609-24.926 9.7461-2.1328 2.0312-4.0195 4.3281-5.6445 6.875-1.2578-2.1406-2.7461-4.1055-4.4492-5.8828-6.3516-6.6055-15.48-10.25-25.719-10.25-14.004 0-27.945 6.7852-36.371 17.715-8.3008 10.754-10.754 24.754-6.9062 39.422 11.469 43.664 67.742 81.906 69.922 83.508l3.4375 2.9453c2.375-1.4883 54.957-38.324 68.902-81.176l0.61719-0.60156h-0.42188c0.46094-1.4453 0.875-2.8906 1.2344-4.3438 4.0195-15.996 1.4727-30.902-7.1641-41.98" fill="#686868"/>
 <path d="m833.46 189.95c3.0781-1.1953 7.7891-3.6055 10.762-1.5156 0.56641 0.41016 0.60547 1.4492 0.11328 1.9219-0.83594 0.79688-1.3828 1.3398-2.5859 1.2461-2.375-0.17578-5.0625 0.54297-7.3203 1.1523-3.4297 0.92969-6.6523 2.082-10.141 2.7734-0.085938 0.019531-0.14453-0.10938-0.085938-0.16016 2.8477-2.5234 5.7109-4.043 9.2578-5.418" fill="#686868"/>
 <path d="m685.16 130.07c1.25 1.2578 2.6484 2.293 4.0312 3.4219 2.7109 2.2266 5.6641 4.1445 8.5586 6.125 2.8789 1.9688 5.5977 4.0664 8.2266 6.3477 1.5391 1.3242 3.0195 2.8281 4.3633 4.3477 0.39453 0.44922 0.75391 0.95312 1.1641 1.3828-0.93359-0.95703-2.293-1.7617-3.3945-2.5352-1.3008-0.90625-2.6367-1.7383-4.0273-2.4922-2.8477-1.5625-5.707-3.2305-8.6484-4.5938-0.78516-0.35547-1.5703-0.71875-2.3594-1.0703-0.375-0.16797-0.76172-0.33984-1.1445-0.52344-2.1328-1.043-4.3281-2.0586-6.3672-3.3203-1.7852-1.1055-3.7891-2.1992-5.0781-3.9023-1.1914-1.5625-1.1602-4.3398 0.003906-5.8867 0.34375-0.46094 0.72266-0.87109 1.1094-1.2891 0.33984-0.37109 0.62891-0.97656 1.0625-1.2109 0.33594 1.6523 0.48438 2.8945 1.6367 4.2578 0.27734 0.33203 0.56641 0.64453 0.86328 0.94141" fill="#686868"/>
 <path d="m779.2 145.75c4.75 5.8516 8.7188 12.398 12.207 18.988 0.40234 0.75391 0.75 1.5312 1.0703 2.3164 6.6211-1.0352 13.293-0.15625 20.039-0.035157 5.9961 0.10547 11.145-1.7266 16.824-3.2344 4.5977-1.2227 10.465-2.707 15.047-0.64844 3.5312 1.5859 6.5156 7.1836 5.0781 11.004-1.0781 2.8672-5.2695 3.3008-7.9375 3.5039-8.6953 0.66406-16.855 5.2461-25.117 7.7188-7.375 2.207-15.789 2.9023-22.879-0.59766-4.1094-2.0234-5.8359-6.2227-7.2773-10.309-1.7109-4.8359-4.1055-9.2695-5.9219-14.082-1.6797-4.4219-3.8945-8.7539-6.375-12.812-2.4141-3.9414-4.9336-8.6914-9.0234-11.156 0.19922-1.3008 0.50391-2.5312 0.72656-3.9062 1.8867 2.2617 4.6992 4.0273 6.8633 6.0508 2.3984 2.2344 4.6133 4.6523 6.6758 7.1992" fill="#686868"/>
 <path d="m695.13 105.12c0.84375-0.98047 2.0625-1.8047 3.1836-0.52344 2.3789 2.7422 0.60156 5.9023 1.0117 8.9375 0.62109 4.6094 2.3594 8.1836 5.5273 11.562 3.2578 3.4648 7.168 6.2969 11.121 8.9023 6.3086 4.1602 12.977 8.3906 15.691 15.871 1.8203 5.0234 4.2734 9.0664 8.1914 12.719 4.6016 4.2891 10.129 7.8242 15.512 11.043 3.1484 1.8867 6.3867 3.6289 9.6914 5.2422 12.07 5.8867 26.219 5.8047 39.129 8.7422 0.066406 0.011718 0.042969 0.10547-0.019531 0.10156-19.293-1.6836-39.812-3.8047-56.684-14.113-5.6836-3.4688-11.77-7.6719-16.332-12.543-2.5781-2.7578-4.5156-5.6719-6.2031-8.9492-1.7734-3.4648-4.8789-6.2773-7.4219-9.1719-2.8203-3.207-6.1953-5.8555-9.6133-8.4688-4.3555-3.3242-9.2188-6.375-12.316-10.992-1.5195-2.2617-2.2969-5.2188-2.7617-7.8711-0.25391-1.4375-0.25781-2.7148-0.16016-4.1641 0.14844-2.1562 0.71484-3.8867 1.9414-5.6602 0.14453-0.21094 0.32031-0.44531 0.51172-0.66406" fill="#686868"/>
 <path d="m684.51 119.14c0.035157-0.14453 0.078126-0.28516 0.12109-0.42188 1.0195-3.3008 3.5195-4.9961 6.1602-6.9805-0.65234 2.8945-1.293 5.7109-0.74219 8.5898 0.76953 4.0859 4.9688 8.0078 8.0117 10.484 4.2188 3.4414 8.0859 7.1992 12.258 10.711 5.1094 4.293 10.996 9.918 14.293 15.785 3.2266 5.7227 7.3711 9.5273 12.57 13.641 4.9805 3.9414 9.375 6.9844 15.309 9.4648 9.6484 4.0312 19.812 6.4414 30.086 8.2227 10.852 1.8828 23.379 2.2227 34.133-0.41406 9.2383-2.2578 16.688-8.4453 26.594-8.1016 3.6367 0.12891 4.2188 5.5625 0.42578 5.7617-10.809 0.55859-19.887 8.0508-30.582 9.6875-11.492 1.7578-23.719 1.9922-35.285 0.92578-11.039-1.0156-22.461-3.9453-32.492-8.668-7.7188-3.6211-12.621-9.6016-17.207-16.551-2.0273-3.0703-3.1172-6.5117-4.9336-9.7227-4.7969-8.5039-12.723-14.461-20.035-20.621-2.1836-1.8398-4.75-3.6016-7.0977-5.2578-2.4102-1.6992-4.6875-3.4453-6.918-5.375-3.4102-2.9531-5.8945-6.4062-4.668-11.16" fill="#686868"/>
 <path d="m779.95 120.38c0.25781-0.054688 0.51172-0.11328 0.75781-0.19531 4.3633-1.4062 0.64844-4.3086-2.0664-4.918-0.39453-0.089844-0.98438-0.14062-1.707-0.15625-0.34766-0.63281-0.71094-1.2578-1.0469-1.8984 0.35156-0.066406 0.69922-0.14844 1.0352-0.26172 4.3633-1.4023 0.64453-4.3086-2.0703-4.9141-0.37891-0.089844-0.94141-0.14062-1.625-0.14844-0.30078-0.63672-0.58594-1.2773-0.87891-1.9141 0.29297-0.0625 0.58594-0.13672 0.87109-0.23047 4.3672-1.4023 0.64453-4.3086-2.0703-4.9141-0.30859-0.074219-0.73828-0.11719-1.2539-0.14062-1.4023-2.8945-2.9219-6.0586-2.8203-9.082 0.058594-1.5508 2.0078-3.125 3.3594-1.6641 2.1523 2.3203 2.8711 5.2773 4.0469 8.1875 1.7617 4.3516 3.6992 8.6406 5.5547 12.957 3.207 7.4453 6.4062 14.891 9.5234 22.359 7.9102 5.2656 15.859 10.316 24.094 15.051 8.1406 4.6836 18.02 7.0625 25.586 12.504 0.046874 0.03125 0.019531 0.11719-0.035157 0.11719-8.6914-0.0625-17.586-5.2695-25.285-8.8516-3.7891-1.7656-7.4883-3.707-11.102-5.8047-2.3477-1.3555-4.4805-3.2812-6.6211-4.9531-2.3789-1.8633-4.5117-4.0547-6.4258-6.3828-1.9492-2.3672-3.6992-4.8828-5.3555-7.4531-0.44141-0.68359-4.0898-7.375-4.4648-7.293" fill="#686868"/>
 <path d="m760.83 107.12c-2.5039 0.79297-5.1641 1.3594-5.5898-0.29688-1.0312-4.0078 12.008-5.9609 14.746-5.4922 2.3281 0.40234 5.625 2.6523 2 3.9531-2.0625 0.74219-4.6133 0.46094-6.7891 0.51563-0.71875 0.019531-2.4961 0.73047-4.3672 1.3203" fill="#686868"/>
 <path d="m764.58 114.62c-2.5039 0.80859-5.1562 1.3867-5.5938-0.26953-1.0508-4 11.973-6.0273 14.715-5.5703 2.3281 0.38672 5.6406 2.625 2.0273 3.9414-2.0625 0.75391-4.6094 0.48828-6.7891 0.55078-0.71875 0.023437-2.4961 0.74609-4.3594 1.3477" fill="#686868"/>
 <path d="m768.39 121.81c-2.5234 0.74219-5.1953 1.25-5.5859-0.41797-0.9375-4.0312 12.133-5.707 14.859-5.1719 2.3242 0.45312 5.5703 2.7695 1.9258 3.9961-2.0898 0.69531-4.625 0.36328-6.8047 0.36719-0.71875 0-2.5195 0.67578-4.3945 1.2266" fill="#686868"/>
 <path d="m704.5 72.734c2.4648-5.1797 7.0898-9.293 13.344-7.9453 12.145 2.6094 17.996 16.379 29.215 20.586 0.10547 0.042969 0.042969 0.20312-0.066406 0.18359-9.2773-1.5312-16.355-8.8945-24.699-12.879-2.0859-0.99219-4.8047-2.0352-7.0039-0.75781-1.1992 0.69922-1.6289 1.7773-2.2617 2.9336-0.875 1.6133-2.0625 3.0234-2.9219 4.6602-1.0078 1.9297-1.3867 3.957-1.8125 6.1289-0.44531 2.2656-0.93359 4.8398-0.28906 7.0977 0.64063 2.2188 2.1367 4.4023 4.3086 5.3516 2.2148 0.96094 4.3008-0.26562 6.2031-1.3945 3.4453-2.043 6.6836-3.793 10.641-4.5742 3.375-0.66797 7.4531-0.73828 10.48-2.5039 1.8516-1.082 1.6523-2.2891 3.9688-1.3203 1.8906 0.79688 3.3555 2.0391 4.707 3.5742 0.83594 0.94922 1.5859 1.9648 2.3984 2.9414 1.4453 1.75 2.6055 3.3359 3.7539 5.293 0.67969 1.1602 1.2852 2.7695 2.2031 3.7578-1.9336 0.92969-3.1641 2.1289-2.8906 3.625 0.32812 1.7734 2.7656 1.5859 5.375 0.95703 0.10938 0.19141 0.21094 0.39062 0.31641 0.58203 0.36328 0.64844 0.70312 1.3125 1.0234 1.9844-2.0039 0.9375-3.2891 2.1602-3.0117 3.6836 0.19922 1.0664 1.2422 1.3711 2.2031 1.3984 0.72266 0.023438 1.4336-0.097656 2.1602-0.078125 0.80859 0.023438 0.97656-0.097656 1.293 0.66406 0.16016 0.38281 1.0078 1.2148 0.89453 1.625-0.082031 0.28906-1.1016 0.72656-1.3672 0.92578-0.875 0.64844-1.6094 1.5273-1.3984 2.6953 0.22266 1.2148 1.4453 1.5078 3.0273 1.3711-0.16797 1.0977-0.40625 2.2148-0.58203 3.3594-0.71875 4.6484-1.8906 9.1797-3.293 13.668-2.1484 6.8711-5.5625 17.496-11.879 21.605-2.4688 1.6094-6.3477-0.54297-5.5078-3.6758 0.92578-3.4648 3.2656-6.3281 5.1172-9.3906 2.1094-3.4805 3.8203-7.1719 5.5977-10.824 1.7891-3.6797 3.3906-7.4961 4.8906-11.301 0.25781-0.66016 0.48438-1.3398 0.70312-2.0273-1.4219-4.7383-4-8.8555-6.9297-12.938-3.3281-4.6484-7.0625-11.953-13.641-12.059-2.1562-0.039062-4.3633 0.29688-6.4844 0.63672-4.7812 0.75781-9.4062 2.5938-14.289 2.6719-4.1875 0.074218-8.6758-2.4727-11.672-5.2422-3.1484-2.9102-3.1758-6.75-3.2852-10.715-0.085938-3.1875-0.80469-6.1602-0.18359-9.3438 0.33203-1.6758 0.88281-3.3867 1.6445-4.9922" fill="#686868"/>
 <path d="m748.46 85.98c0.15625-0.41016 0.35156-0.80859 0.58594-1.1875 2.1328-3.5312 6.2031-4.6641 9.957-2.9492 2.9141 1.3242 5.2109 4.2031 6.6094 7.0156-0.69531-0.48438-1.2617-1.1914-1.9531-1.6953-1.7578-1.2891-4.3633-2.7617-6.6211-2.1133-0.94141 0.26953-1.6562 0.89844-2.2031 1.6758-0.91797 1.293-1.6094 3.0234-3.207 3.5938-1.6914 0.59766-3.8828-0.875-3.5938-2.7891 0.085938-0.53125 0.22656-1.0508 0.42578-1.5508" fill="#686868"/>
 <path d="m127.52 1110.6c-3.0859-1.1953-7.7969-3.6094-10.762-1.5117-0.57031 0.40234-0.61328 1.4492-0.12109 1.918 0.83594 0.80078 1.3867 1.3398 2.5938 1.25 2.3672-0.17578 5.0547 0.53906 7.3125 1.1523 3.4297 0.92969 6.6523 2.0781 10.145 2.7734 0.082032 0.015625 0.14453-0.10938 0.082032-0.16797-2.8477-2.5156-5.7109-4.0391-9.25-5.4141" fill="#686868"/>
 <path d="m275.82 1050.8c-1.25 1.2539-2.6484 2.2891-4.0273 3.418-2.7188 2.2266-5.6641 4.1445-8.5625 6.125-2.8789 1.9688-5.6016 4.0703-8.2305 6.3477-1.5352 1.3281-3.0195 2.8281-4.3633 4.3477-0.39453 0.44922-0.75391 0.95312-1.1602 1.3789 0.93359-0.94922 2.2891-1.7578 3.3945-2.5273 1.3008-0.90625 2.6367-1.7422 4.0234-2.5 2.8477-1.5547 5.707-3.2227 8.6523-4.5859 0.78125-0.36328 1.5703-0.71875 2.3555-1.0742 0.38281-0.17188 0.76172-0.34375 1.1445-0.52344 2.1367-1.0469 4.3359-2.0547 6.375-3.3203 1.7852-1.1016 3.7812-2.1992 5.0742-3.8984 1.1914-1.5625 1.1562-4.3398 0-5.8867-0.34375-0.46094-0.73047-0.875-1.1133-1.293-0.33594-0.37109-0.62891-0.97266-1.0664-1.2148-0.33203 1.6602-0.48047 2.9023-1.6328 4.2617-0.28125 0.33203-0.57031 0.64062-0.86328 0.94531" fill="#686868"/>
 <path d="m181.79 1066.4c-4.75 5.8516-8.7188 12.402-12.203 18.984-0.40234 0.75781-0.74609 1.5352-1.0742 2.3242-6.6211-1.0391-13.293-0.15625-20.039-0.035157-5.9883 0.10547-11.141-1.7305-16.82-3.2422-4.5977-1.2148-10.469-2.6992-15.051-0.64453-3.5312 1.5859-6.5078 7.1875-5.0742 11.004 1.0742 2.8672 5.2656 3.3047 7.9336 3.5078 8.7031 0.66016 16.855 5.2422 25.121 7.7188 7.3711 2.1992 15.785 2.9023 22.875-0.60156 4.1094-2.0234 5.8438-6.2266 7.2812-10.305 1.707-4.8359 4.1055-9.2695 5.9258-14.082 1.6719-4.4258 3.8945-8.7617 6.375-12.816 2.4102-3.9375 4.9297-8.6875 9.0195-11.152-0.19922-1.3047-0.50781-2.5312-0.72656-3.9102-1.8906 2.2656-4.7031 4.0273-6.8672 6.0508-2.3984 2.2383-4.6133 4.6562-6.6758 7.1992" fill="#686868"/>
 <path d="m265.86 1025.8c-0.85156-0.98047-2.0703-1.8086-3.1875-0.52344-2.3789 2.7383-0.60547 5.8984-1.0156 8.9375-0.61719 4.6094-2.3555 8.1836-5.5273 11.566-3.2539 3.4648-7.1641 6.2891-11.121 8.8984-6.3086 4.1562-12.977 8.3906-15.691 15.875-1.8164 5.0234-4.2695 9.0625-8.1836 12.719-4.6016 4.2891-10.133 7.8242-15.512 11.043-3.1562 1.8867-6.3945 3.6289-9.6992 5.2422-12.07 5.8867-26.219 5.8008-39.125 8.7344-0.070313 0.019531-0.046875 0.11328 0.023437 0.10547 19.289-1.6836 39.805-3.8086 56.676-14.109 5.6836-3.4688 11.773-7.6719 16.336-12.551 2.5742-2.75 4.5117-5.6641 6.1992-8.9492 1.7812-3.4609 4.8789-6.2773 7.4219-9.1641 2.8203-3.2109 6.1992-5.8594 9.6172-8.4727 4.3555-3.3281 9.2188-6.375 12.32-10.992 1.5117-2.2578 2.2891-5.2188 2.7578-7.8672 0.25391-1.4375 0.25391-2.7188 0.16016-4.1641-0.15234-2.1602-0.71094-3.8945-1.9453-5.6641-0.14453-0.21484-0.31641-0.44141-0.50391-0.66406" fill="#686868"/>
 <path d="m276.48 1039.8c-0.035156-0.14062-0.074218-0.28125-0.12109-0.41797-1.0195-3.3047-3.5234-4.9961-6.1562-6.9805 0.64453 2.8945 1.2852 5.707 0.74219 8.5859-0.77734 4.0898-4.9766 8.0078-8.0195 10.488-4.2188 3.4375-8.082 7.1914-12.258 10.707-5.1055 4.293-10.992 9.9219-14.293 15.785-3.2188 5.7227-7.3633 9.5273-12.57 13.645-4.9805 3.9336-9.3711 6.9844-15.309 9.4648-9.6445 4.0312-19.809 6.4375-30.086 8.2188-10.848 1.8828-23.371 2.2266-34.133-0.41406-9.2383-2.2578-16.68-8.4453-26.594-8.0977-3.6367 0.125-4.2188 5.5625-0.42578 5.7578 10.809 0.5625 19.891 8.0508 30.582 9.6875 11.492 1.7539 23.723 1.9922 35.285 0.92969 11.043-1.0195 22.461-3.9492 32.5-8.668 7.7188-3.625 12.613-9.6016 17.199-16.555 2.0273-3.0664 3.125-6.5156 4.9375-9.7266 4.793-8.5 12.727-14.453 20.035-20.613 2.1836-1.8477 4.7539-3.6016 7.0938-5.2578 2.418-1.7031 4.6875-3.4453 6.9219-5.3789 3.4102-2.9492 5.8984-6.4062 4.668-11.16" fill="#686868"/>
 <path d="m181.03 1041.1c-0.25781-0.054688-0.51172-0.11719-0.76172-0.19531-4.3633-1.4023-0.64062-4.3125 2.0664-4.9219 0.40234-0.085937 0.98828-0.13672 1.707-0.14844 0.34766-0.63672 0.71484-1.2617 1.0508-1.9023-0.35547-0.066406-0.70312-0.14844-1.0391-0.25781-4.3594-1.4062-0.64453-4.3125 2.0703-4.918 0.37891-0.085938 0.94141-0.13672 1.6289-0.14844 0.30469-0.63281 0.58594-1.2812 0.87891-1.918-0.29687-0.058594-0.58984-0.12891-0.87109-0.22266-4.3633-1.4062-0.64844-4.3086 2.0664-4.918 0.3125-0.070312 0.73828-0.11719 1.2578-0.14062 1.3984-2.8945 2.9219-6.0547 2.8164-9.0781-0.050782-1.5586-2.0078-3.1289-3.3594-1.668-2.1484 2.3164-2.8711 5.2812-4.0469 8.1914-1.7578 4.3516-3.6953 8.6406-5.5508 12.953-3.207 7.4453-6.4062 14.887-9.5273 22.363-7.9062 5.2617-15.855 10.312-24.086 15.051-8.1406 4.6836-18.02 7.0586-25.594 12.5-0.046875 0.03125-0.015625 0.12109 0.042969 0.12109 8.6836-0.066406 17.586-5.2734 25.285-8.8594 3.7812-1.7656 7.4844-3.707 11.094-5.7969 2.3477-1.3633 4.4844-3.2812 6.6211-4.957 2.3789-1.8633 4.5117-4.0586 6.4336-6.3867 1.9414-2.3594 3.6992-4.8789 5.3516-7.4531 0.44141-0.67969 4.0898-7.3711 4.4648-7.2891" fill="#686868"/>
 <path d="m200.15 1027.8c2.5078 0.79297 5.168 1.3594 5.5938-0.29688 1.0273-4.0117-12.008-5.9688-14.742-5.4922-2.3281 0.39844-5.6289 2.6484-2.0078 3.9492 2.0664 0.74219 4.6133 0.46484 6.793 0.51562 0.71484 0.019531 2.5 0.73438 4.3633 1.3242" fill="#686868"/>
 <path d="m196.4 1035.3c2.5039 0.80469 5.1641 1.3867 5.5977-0.26953 1.0469-4.0039-11.977-6.0273-14.715-5.5664-2.332 0.38672-5.6445 2.6172-2.0312 3.9375 2.0664 0.75781 4.6094 0.48828 6.7891 0.55469 0.72266 0.019531 2.5 0.74219 4.3594 1.3438" fill="#686868"/>
 <path d="m192.59 1042.5c2.5234 0.73828 5.1953 1.25 5.5859-0.41797 0.94531-4.0312-12.133-5.707-14.859-5.1719-2.3164 0.44922-5.5664 2.7695-1.918 3.9883 2.082 0.70312 4.6211 0.36328 6.8008 0.375 0.71875 0 2.5156 0.67188 4.3906 1.2266" fill="#686868"/>
 <path d="m256.48 993.42c-2.457-5.1758-7.0898-9.293-13.344-7.9453-12.141 2.6133-17.996 16.379-29.215 20.586-0.10156 0.039062-0.035157 0.20312 0.066406 0.18359 9.2773-1.5273 16.355-8.8945 24.699-12.875 2.0938-1 4.8047-2.0391 7.0039-0.76172 1.2031 0.70312 1.6367 1.7734 2.2617 2.9375 0.875 1.6133 2.0625 3.0234 2.9258 4.6562 1.0117 1.9297 1.3867 3.957 1.8086 6.1289 0.44922 2.2695 0.9375 4.8438 0.28906 7.1016-0.63672 2.2188-2.1328 4.4023-4.3086 5.3438-2.2148 0.96094-4.3008-0.26563-6.1992-1.3867-3.4492-2.0469-6.6836-3.7969-10.641-4.5781-3.3789-0.66797-7.4531-0.73438-10.48-2.5039-1.8516-1.082-1.6523-2.2852-3.9727-1.3164-1.8906 0.78906-3.3555 2.0391-4.707 3.5703-0.83594 0.95312-1.582 1.9648-2.3906 2.9453-1.4492 1.7461-2.6133 3.332-3.7617 5.293-0.67578 1.1562-1.2852 2.7695-2.1992 3.7578 1.9297 0.92969 3.168 2.1289 2.8867 3.6211-0.32812 1.7734-2.7617 1.5859-5.3711 0.95703-0.10547 0.19531-0.21094 0.39063-0.32031 0.58594-0.36328 0.64844-0.69922 1.3086-1.0195 1.9805 2.0039 0.94141 3.293 2.1562 3.0078 3.6836-0.19922 1.0664-1.2344 1.3672-2.1953 1.4023-0.72656 0.023438-1.4414-0.10156-2.168-0.078125-0.80859 0.023438-0.97266-0.097656-1.2891 0.65625-0.16406 0.38672-1.0039 1.2227-0.89453 1.6289 0.082031 0.29297 1.0977 0.73047 1.3672 0.92187 0.87891 0.65625 1.6133 1.5352 1.3945 2.7031-0.22266 1.2109-1.4414 1.5039-3.0234 1.3633 0.16406 1.1016 0.40234 2.2188 0.57812 3.3594 0.72266 4.6523 1.8984 9.1836 3.2969 13.672 2.1445 6.875 5.5586 17.492 11.875 21.605 2.4766 1.6094 6.3477-0.54297 5.5117-3.6719-0.92969-3.4688-3.2695-6.332-5.1211-9.3906-2.1094-3.4805-3.8164-7.1719-5.5938-10.824-1.7891-3.6797-3.3945-7.4961-4.8906-11.301-0.25781-0.66016-0.48828-1.3438-0.70312-2.0273 1.4219-4.7422 4.0039-8.8555 6.9297-12.945 3.3242-4.6445 7.0625-11.945 13.637-12.055 2.1562-0.035156 4.3711 0.30078 6.4883 0.63672 4.7773 0.76172 9.4102 2.5898 14.293 2.6758 4.1875 0.070312 8.6719-2.4727 11.668-5.2422 3.1445-2.9102 3.1758-6.75 3.2852-10.715 0.085938-3.1914 0.80859-6.168 0.18359-9.3438-0.33203-1.6836-0.88672-3.3867-1.6484-4.9961" fill="#686868"/>
 <path d="m212.53 1006.7c-0.16406-0.40625-0.35938-0.80859-0.58594-1.1836-2.1328-3.5273-6.2031-4.6602-9.9609-2.9492-2.9141 1.3281-5.2109 4.2031-6.6094 7.0156 0.69141-0.48438 1.2656-1.1914 1.9531-1.6914 1.7539-1.2891 4.3633-2.7617 6.6211-2.1133 0.9375 0.26172 1.6523 0.89453 2.207 1.6758 0.91016 1.293 1.6016 3.0234 3.207 3.5898 1.6875 0.59766 3.8789-0.87109 3.5859-2.7852-0.085938-0.53516-0.22266-1.0547-0.41797-1.5586" fill="#686868"/>
 <path d="m551.27 1020.8c-13.355 0-24.711 8.5195-28.949 20.422-11.457-2.1328-26.484-3.4258-42.957-3.4258-16.469 0-31.496 1.293-42.957 3.4258-4.2344-11.902-15.594-20.422-28.945-20.422-16.969 0-30.723 13.754-30.723 30.723s13.754 30.723 30.723 30.723c13.352 0 24.711-8.5234 28.945-20.422 11.461 2.1328 26.488 3.4219 42.957 3.4219 16.473 0 31.5-1.2891 42.957-3.4219 4.2383 11.898 15.594 20.422 28.949 20.422 16.969 0 30.723-13.754 30.723-30.723s-13.754-30.723-30.723-30.723" fill="#686868"/>
 <path d="m1066.1 906.74c-13.355 0-24.711 8.5234-28.949 20.422-11.457-2.1289-26.488-3.4258-42.957-3.4258-16.473 0-31.496 1.2969-42.957 3.4258-4.2344-11.898-15.598-20.422-28.945-20.422-16.969 0-30.723 13.758-30.723 30.723 0 16.969 13.754 30.723 30.723 30.723 13.348 0 24.711-8.5156 28.945-20.414 11.461 2.125 26.484 3.4219 42.957 3.4219 16.469 0 31.5-1.2969 42.957-3.4219 4.2383 11.898 15.594 20.414 28.949 20.414 16.969 0 30.723-13.754 30.723-30.723 0-16.965-13.754-30.723-30.723-30.723" fill="#686868"/>
 <path d="m243.86 833.62c12.57-9.4961 28.223-15.133 45.188-15.133 16.977 0 32.629 5.6367 45.199 15.133 4.9844-5.1562 7.9102-11.398 7.9102-18.129 0-17.695-20.184-32.039-45.07-32.039h-16.066c-24.887 0-45.066 14.344-45.066 32.039 0 6.7305 2.9219 12.973 7.9062 18.129zm11.762 27.508c1.207-13.297 15.168-23.805 32.246-23.805 17.082 0 31.039 10.508 32.242 23.805 0.054687-0.61328 0.11719-1.2305 0.11719-1.8555 0-14.176-14.492-25.668-32.359-25.668-17.875 0-32.363 11.492-32.363 25.668 0 0.625 0.0625 1.2422 0.11719 1.8555zm32.246 45.613c17.867 0 32.359-12.586 32.359-28.113 0-0.68359-0.0625-1.3594-0.11719-2.043-1.2031 14.574-15.16 26.082-32.242 26.082-17.078 0-31.039-11.508-32.246-26.082-0.054688 0.68359-0.11719 1.3594-0.11719 2.043 0 15.527 14.488 28.113 32.363 28.113zm-57.797-59.594c-6.3203-9.3516-10.004-20.617-10.004-32.746 0-32.328 26.215-58.543 58.547-58.543h20.875c32.34 0 58.551 26.215 58.551 58.543 0 12.129-3.6914 23.395-10 32.746 10.066 12.773 16.086 28.887 16.086 46.414 0 25.191-12.414 47.469-31.453 61.082h-87.242c-19.035-13.613-31.449-35.891-31.449-61.082 0-17.527 6.0195-33.641 16.09-46.414" fill="#686868"/>
 <path d="m848.73 1074h-13.965v-68.09h13.965v68.09" fill="#686868"/>
 <path d="m830.7 1081.1h-13.969v-82.176h13.969v82.176" fill="#686868"/>
 <path d="m681.13 1005.9v68.09h-13.969v-68.09h13.969" fill="#686868"/>
 <path d="m699.17 1081.1h-13.969v-82.176h13.969v82.176" fill="#686868"/>
 <path d="m717.21 1025.1h81.477v-32.867h13.969v95.48h-13.969v-32.871h-81.477v32.871h-13.965v-95.48h13.965v32.867" fill="#686868"/>
 <path d="m263.19 548.93h-11.418v-55.656h11.418v55.656" fill="#686868"/>
 <path d="m248.45 554.68h-11.418v-67.168h11.418v67.168" fill="#686868"/>
 <path d="m126.2 493.27v55.656h-11.418v-55.656h11.418" fill="#686868"/>
 <path d="m140.94 554.68h-11.414v-67.168h11.414v67.168" fill="#686868"/>
 <path d="m155.69 508.95h66.594v-26.867h11.414v78.043h-11.414v-26.867h-66.594v26.867h-11.418v-78.043h11.418v26.867" fill="#686868"/>
 <path d="m563.63 934.57h-11.418v-55.656h11.418v55.656" fill="#686868"/>
 <path d="m548.88 940.33h-11.414v-67.168h11.414v67.168" fill="#686868"/>
 <path d="m426.63 878.91v55.656h-11.418v-55.656h11.418" fill="#686868"/>
 <path d="m441.38 940.33h-11.418v-67.168h11.418v67.168" fill="#686868"/>
 <path d="m456.12 894.59h66.594v-26.863h11.418v78.047h-11.418v-26.871h-66.594v26.871h-11.418v-78.047h11.418v26.863" fill="#686868"/>
 <path d="m1140.4 511.7h-11.414v-55.656h11.414v55.656" fill="#686868"/>
 <path d="m1125.6 517.45h-11.418v-67.172h11.418v67.172" fill="#686868"/>
 <path d="m1003.4 456.04v55.656h-11.418v-55.656h11.418" fill="#686868"/>
 <path d="m1018.1 517.45h-11.418v-67.172h11.418v67.172" fill="#686868"/>
 <path d="m1032.9 471.71h66.598v-26.867h11.41v78.043h-11.41v-26.863h-66.598v26.863h-11.418v-78.043h11.418v26.867" fill="#686868"/>
 <path d="m741.45 685.12c11.414 9.6406 23.219 19.617 36.551 26.375 15.859 8.0391 28.039 10.945 34.309 8.1641 2.2812-1.0078 3.7578-2.8281 4.5078-5.5664 0.72266-2.6406 0.37891-5.0195-1.043-7.2734-6.5-10.285-32.488-14.926-42.273-16.672l-2.043-0.36719c-10.07-1.8516-20.172-3.4922-30.305-4.9141 0.097656 0.085937 0.19531 0.16406 0.29688 0.25391zm-109.76-65.973c-6.8047-3.4141-13.488-6.4688-20.34-6.4688-0.44531 0-0.89453 0.015624-1.3398 0.039062-6.5938 0.39453-13.781 5.207-13.984 11.754-0.32422 10.633 15.414 15.102 22.199 16.535 23.324 4.9102 46.844 8.7305 70.484 11.441-18.277-12.289-37.34-23.426-57.02-33.301zm-79.316 46.84c10.648 0 20.43 0.76562 28.152 2.043v-5.4023h17.047v10.371c41.316-2.3555 82.801-1.2188 123.91 3.3906-7.3477-5.8203-14.852-11.441-22.504-16.855-27.508-2.7578-54.883-7-81.98-12.711-17.434-3.6719-27.246-11.887-26.922-22.531 0.30859-10.109 10.398-16.965 19.57-17.512 8.793-0.52734 17.023 3.1953 24.707 7.0469 23.195 11.641 45.539 25.012 66.777 39.945 36.047 3.543 72.332 4.5156 108.57 2.9219v-9.6992h17.047v5.3984c7.7227-1.2734 17.504-2.0391 28.152-2.0391 24.961 0 45.203 4.1875 45.203 9.3477 0 5.168-20.242 9.3477-45.203 9.3477-10.648 0-20.43-0.76172-28.152-2.0352v5.3945h-17.047v-9.7695c-33.055 1.4453-66.148 0.77344-99.066-2.0273 7.4727 5.5117 14.801 11.219 21.973 17.109 13.359 1.6992 26.668 3.7734 39.922 6.207l2.0117 0.36328c11.477 2.0469 38.352 6.8477 46.254 19.348 2.3359 3.6875 2.9258 7.7344 1.7539 12.023-1.2383 4.5078-3.875 7.6836-7.8359 9.4375-2.3555 1.043-5.0625 1.4922-8 1.4922-9.7344 0-21.902-4.9727-31.406-9.7891-13.953-7.0781-26.027-17.277-37.699-27.145-2.1719-1.832-4.3359-3.6641-6.5117-5.4688-0.31641-0.26172-0.625-0.52734-0.94141-0.78516-43.941-5.4961-88.359-6.9844-132.59-4.4414v9.082h-17.047v-5.3945c-7.7227 1.2734-17.504 2.0352-28.152 2.0352-24.961 0-45.199-4.1836-45.199-9.3477 0-5.1641 20.238-9.3516 45.199-9.3516" fill="#686868"/>
 <path d="m9.3672 610.3c-2.7148-0.60156-5.9492-0.25391-9.3672 0.56641v18.215c2.3242 0.38281 4.6484 0.67578 6.9727 0.75 11.129 0.37109 11.691-17.473 2.3945-19.531" fill="#686868"/>
 <path d="m55.656 781.73-55.656 1.9805v6.543l55.895-1.9922-0.23828-6.5312" fill="#686868"/>
 <path d="m130.98 779.77c0-47.523-38.531-86.047-86.055-86.047-16.465 0-31.848 4.6367-44.926 12.664v18.059l41.234 57.375 7.3164-5.2617-42.348-58.922c11.234-7.0156 24.504-11.078 38.723-11.078 40.434 0 73.211 32.777 73.211 73.207 0 40.43-32.777 73.211-73.211 73.211-16.934 0-32.523-5.7617-44.926-15.418v15.598c13.074 8.0234 28.461 12.66 44.926 12.66 47.523 0 86.055-38.523 86.055-86.047" fill="#686868"/>
 <g clip-path="url(#d)">
  <path d="m1167.8 618.12c-6.3164 1.5156-12.867 1.7344-19.027 3.9062-1.4648 0.51562-15.516 5.8398-7.3672 8.0039 3.1602 0.83594 7.3477-1.5039 10.387-2.2617 4.2539-1.0703 8.6562-1.7344 13.039-2.0703 8.207-0.62891 16.418 2.0156 24.652 3.3789v-18.215c-7.4844 1.7969-15.871 5.8711-21.684 7.2578" fill="#686868"/>
 </g>
 <path d="m1005.4 582.8c14.008-15.34 37.801-16.418 53.141-2.4062 3.2305 2.9492 5.7891 6.3516 7.7461 9.9961 1.1172 1.5586 2.2227 3.1367 3.332 4.7031 1.4492-1.2891 2.9141-2.5625 4.4102-3.8086-2.3984-5.8281-6.0781-11.23-11.039-15.762-18.031-16.469-45.996-15.199-62.465 2.8281-1.6875 1.8516-3.1406 3.8203-4.457 5.8555 2.4453 0.097656 4.8398 0.52734 7.0781 1.3242 0.70703-0.93359 1.4492-1.8477 2.2539-2.7305" fill="#686868"/>
 <g clip-path="url(#a)">
  <path d="m1148.6 785.17-34.438 1.2266 44.07-105.52 22.676 31.555c-19.789 15.762-32.48 40.07-32.48 67.34 0 1.8125 0.066407 3.6094 0.17188 5.3945zm-159.23-138.29-1.5312 1.4922 2.1367-5.1172 154.6 36.645-37.012 88.625zm14.344 132.09c0 40.426-32.777 73.207-73.211 73.207-40.426 0-73.203-32.781-73.203-73.207 0-40.434 32.777-73.211 73.203-73.211 6.3359 0 12.477 0.80469 18.336 2.3164l-27.52 65.895 11.969 5 27.789-66.535c25.168 11.582 42.637 37.016 42.637 66.535zm158.45 12.254 27.387-0.97266v-6.543l-28.109 1c-0.10938-1.6289-0.16797-3.2812-0.16797-4.9375 0-22.977 10.59-43.477 27.145-56.898l1.1328 1.5781v-18.059c-0.43359 0.26562-0.875 0.52734-1.3047 0.80078l-25.93-36.086 14.992-35.891-11.977-5.0039-14.383 34.445 0.39844-1.6719-154.33-36.582 12.207-29.23-11.969-5-43.418 103.95c-7.4219-2.082-15.246-3.1992-23.332-3.1992-47.523 0-86.047 38.523-86.047 86.047s38.523 86.043 86.047 86.043c47.527 0 86.051-38.52 86.051-86.043 0-34.852-20.723-64.867-50.523-78.391l15.148-36.262 119.61 123.09 6.082 6.2031 42.387-1.9297c3.6016 26.02 18.84 48.312 40.289 61.477v-15.598c-14.348-11.176-24.434-27.574-27.387-46.34" fill="#686868"/>
 </g>
</svg>
