<?xml version='1.0' encoding='utf-8'?>
<svg xmlns="http://www.w3.org/2000/svg" width="1587" height="1587" version="1.0" viewBox="0 0 1190.2 1190.2" zoomAndPan="magnify">
 <defs>
  <clipPath id="a" fill="none">
   <path d="m0 0h1189.5v1189.5h-1189.5z" fill="none" />
  </clipPath>
 </defs>
 <g clip-path="url(#a)" fill="none">
  <path d="m0 0h1189.5v1189.5h-1189.5z" fill="none" />
  <path d="m0 0h1189.5v1189.5h-1189.5z" fill="none" />
 </g>
 <path d="m806.11 27.465c-25.195 0.34766-61.016 4.8047-110.27 13.637-26.859 4.8164-33.48 7.1562-40.574 14.344-8.1094 8.2148-8.5156 10.09-9.4102 43.559-0.91797 34.359-0.79297 35.066 6.7344 39.98 4.2148 2.75 18.309 14.344 31.32 25.762 30.402 26.68 35.703 26.98 66.215 3.7734 13.273-10.098 13.961-13.684 2.6602-13.875-5.6875-0.097656-24.699-8.7383-19.82-9.0117 1.0742-0.058593 12.719 3.5078 25.875 7.9297 40.711 10.102 56.551-32.48 88.824-47.754 66.301 14.52 41.477 104.62 94.289 181.44 30.09 56.195 55.691 63.418 123.91 34.977 4.0859-1.7031 5.2266-1.3828 3.7227 1.0508-3.3789 5.4688-49.879 19.07-65.199 19.07-19.219 0-32.098-6.2188-44.973-21.719l-11.047-13.305c-58.113-8.8242-96.457 17.109-113.32 45.168-2.9688 3.5625-66.645 47.367-72.527 68.535-3.2617-53.414 58.996-67.977 55.023-68.527-53.945 9.8398-187.77 4.3516-221.88 55.004-33.707-53.992 3.5625-108.83 9.6445-129.95 7.6484-25.73 2.9805-53.48-10.754-75.84-1.7773-7.5234-7.543-14.051-13.176-19.43-9.3438-8.9297-21.434-14.828-29.875-24.562-8.957-10.332-14.402-24.871-28.648-29.684-24.27-8.207-50.223-0.5625-73.09 8.1875-13.426 5.1367-27.328 8.7266-41.836 9.6875-12.273 0.8125-36.949-12.738-36.801-0.49219 0.089844 7.4492 25.766-4.9961 18.637-0.69141-6.6992 4.043-13.621 6.168-22.18 7.375-14.699 2.0781-29.383 3.8242-44.316 4.2578-3.25 0.097656-8.6523-1.8711-1.9492 0.47656 10.605 3.7148 19.133 10.031 30.281 14.129 11.02 4.0469-6.9961 6.1484-11.012 6.4453-23.176 1.6992-48.211 7.4883-69.699-1.5273-4.3359-1.8203-7.4102-1.5234-3.6914 3.3984 7.9688 10.559 21.977 13.324 33.949 17.137 4.6523 1.4844 17.184 3.6367 16.398 3.707-15.34 1.375-26.699 16.762-42.664 14.492-4.3945-0.62109-7.9609-0.32813-2 2.25 23.32 10.082 44.316 26.891 69.207 32.734-4.2617 10.305-3.4531 19.277 2 33.562 4.9219 12.895 4.8633 13.77-2.0547 28.539-3.9219 8.3789-26.551 22.211-30.492 24.797-9.6289 6.3086 14.859 7.1133 25.895 18.66 8.168 8.5508 4.3477 20.664 1.3398 28.262 17.855-2.0664 11.406 1.0508 26.707 5.0742-14.465 1.6055-23.105 5.9883-20.336 10.219 9.1211 13.941 21.688 28.266 41.918 49.883 35.176-12.273 47.105-26.531 55.379-22.254 21.797 11.277 24.094 23.934 9.0078 49.68-8.9844 15.332-14.039 17.824-49.414 24.352-52.828 9.75-97.715 38.691-113.88 73.43-18.57 26.469 1.4922 79.059 1.4922 79.059s-27.629-26.816-17.664-64.852c-51.855 18.344-84.434-18.109-134.9 37.547-10.91 16.492-12.777 12.875-2.4492-4.75 7.5234-12.84 8.1133-16.008 6.2266-33.613-1.1445-10.691-6.1328-31.062-11.09-45.266-10.727-30.746-16.965-72.484-13.895-92.957 1.7695-11.816 3.0234-14.082 6.3047-11.359 14.965 12.426 38.98 9.1875 53.078-7.1523 4.668-5.418 12.281-11.77 16.914-14.117 14.887-7.5469 20.781-25.32 20.781-62.617 0-31.512 16.594-50.371 4.9023-47.68-15.891 3.6523-92.988-46.516-103.06-37.355-27.742 9.5508-45.652 90.27-69.398 112.41 0.11328 56.012-8.5195 115.9-22.688 161.14-20.746 65.117-22.914 75.723-22.891 112.25 0.03125 37.559 7.6289 72.207 21.223 96.59 4.1523 7.457 6.7969 15.941 5.8711 18.855-1.2383 3.9062 1.6094 6.9219 10.805 11.473 12.344 6.1094 12.785 6.1172 40.828 0.48828 76.367-23.734 105.43 66.008 231.16-12.988 19.723 20.383-27.004 102.94 10.023 123.88 0 0 75-6.9609 93.02-15.078-9.7188 21.031-92.887 38.238-92.887 38.238-31.688 23.715 26.613 114.12-20.312 188.07-0.26562 0.41797-0.50781 0.79688-0.50781 0.87109 0 4.668 69.707-36.223 114.76-31.449 26.207 2.7773 109.97 22.223 135.98 47.176 43.559 41.789 132.57 4.9023 154.62-5.668 12.973-52.516-10.336-152.51-45.207-192.14-8.6523-9.5938-10.102-13.16-8.5312-21.004 1.3516-6.7734 0.80469-9.1055-1.9297-8.2305-37.383 38.844-73.309 57.211-82.199 126.77-0.035156-93.684 59.559-107.38 78.176-133.25 29.508-40.996 81.648-89.219 122.72-119.82 9.0039-6.7109-111.22-14.191-111.73-76.43 12.383 60.035 149.17 50.684 155.4 45.48 22.969-19.195 45.988-47.07 65.746-79.953 14.746-24.539 32.965-63.922 30.648-66.238-11.355 9.4258-38.109 21.789-44.184 7.3047 11.402 9.5039 37.383-16.613 51.355-21.125 97.289-25.512 146.92-78.145 209.96-175.81 15.723-24.359 52.164-96.164 55.023-108.42 9.3047-39.902-62.914-125.9-158.11-188.28-73.023-47.852-119.01-65.734-193.7-75.324-6.1367-0.78516-13.352-1.1289-21.746-1.0156z" />
</svg>