<?xml version='1.0' encoding='utf-8'?>
<svg xmlns="http://www.w3.org/2000/svg" width="1587" height="1587" version="1.0" viewBox="0 0 1190.2 1190.2" zoomAndPan="magnify">
 <defs>
  <clipPath id="b" fill="none">
   <path d="m0 0h1189.5v1189.5h-1189.5z" fill="none" />
  </clipPath>
  <clipPath id="a" fill="none">
   <path d="m76 15h1055.7v1169h-1055.7z" fill="none" />
  </clipPath>
 </defs>
 <g clip-path="url(#b)" fill="none">
  <path d="m0 0h1189.5v1189.5h-1189.5z" fill="none" />
  <path d="m0 0h1189.5v1189.5h-1189.5z" fill="none" />
 </g>
 <g clip-path="url(#a)">
  <path d="m428.93 1045.6-39.047 1.0508-60.152 25.32-70.699-7.3906c-103.43-86.492-177.3-300.6-182.59-323.8-5.2812-23.195 106.59-258.41 106.59-258.41-8.4453-81.211 90.754-270.01 90.754-270.01l22.156-112.86 211.07-84.375 142.48 95.98-30.613 71.723 5.2773 70.672-117.14 48.516-66.496-27.422-33.766-16.883-34.82 47.469c-14.773 62.23 87.59 336.45 87.59 336.45v32.699l39.578-10.023c144.05-167.7 378.33-56.953 378.33-56.953 98.148-98.094 234.28-41.141 234.28-41.141 2.7383-9.1367 9.0156-17.891 17.238-26.031 1.8711 20.031 2.8672 40.309 2.8672 60.832 0 256.14-148.92 477.5-364.95 582.35-19.965-34.242-36.117-60.781-36.117-60.781-165.7 0-301.83-76.984-301.83-76.984" fill="none" />
 </g>
 <path d="m714.25 596.16c38.773 0.6875 74.293 10.98 107.91 29.781 30.758 17.191 9.7969 70.203-24.359 57.746-29.645-10.812-62.203-11.215-93.402-12.254-28.02-0.93359-61.684 3.3594-82.672-18.941-6.6562-7.0781-10.105-20.043-3.6992-28.574 22.418-29.848 61.906-28.383 96.219-27.758" fill="#ffe2d2" />
 <path d="m522.85 1087.8 3.2812-1.8945s119.14-35.016 155.02-35.016c35.883 0 131.38-50.629 173.34 44.285 4.0078 9.0781 8.3672 18.258 12.984 27.477-30.25 22.219-62.512 41.875-96.449 58.664l-39.215-62.93-208.96-30.586" fill="#eeb387" />
 <path d="m910 888.05c46.676-37.027 114.62-79.945 193.08-95.824-37.906 122.65-111.33 229.7-208.27 309.2-9.6797-21.082-18.797-43.863-27.242-68.508-17.941-52.391-0.96094-110.45 42.43-144.87" fill="#ffe1cc" />
 <path d="m209.58 588.66c37.918 6.4688 59.375 66.109 47.93 133.23-11.465 67.105-51.484 116.28-89.402 109.81s-59.375-66.109-47.934-133.23c11.469-67.109 51.488-116.27 89.406-109.82" fill="#ffe1cc" />
 <path d="m425.79 1058.5-33.145 0.87891-60.973 25.672-77.887-8.1406-3.0078-2.5039c-107.79-90.145-181.85-308.84-186.86-330.8-5.3828-23.684 63.398-173.89 106.02-263.63-5.4219-82.383 81.223-251.95 91.598-271.93l23.145-117.89 223.88-89.5 156.9 105.72-33.547 78.594 5.7461 76.805-130.63 54.102-71.398-29.441-24.918-12.422-26.75 36.457c-8.7188 51.965 59.945 252.57 87.602 326.66l0.80469 2.1797v18.512l19.68-4.9766c61.566-69.703 148.35-101.73 251.36-92.703 62.125 5.4609 112.25 24.078 131.31 32 84.941-78.309 194.31-53.172 230.08-41.93 5.3555-9.3086 13.27-17.98 22.48-25.93 1.3086 11.148 2.3359 22.379 3.0859 33.684-2.9688 3.9805-5.1758 7.9727-6.3438 11.914l-4.0859 13.625-13.164-5.457c-5.2422-2.1797-129.54-52.289-220.26 38.363l-6.3984 6.3789-8.1719-3.8516c-2.2422-1.0625-227.24-104.45-363.1 53.715l-2.6562 3.0859-59.504 15.066v-46.883c-13.805-37.117-102.14-278.96-87.254-341.73l0.60938-2.5273 42.77-58.289 43.043 21.508 61.152 25.219 103.65-42.93-4.8125-64.527 27.672-64.836-128.04-86.258-198.27 79.254-21.184 107.86-0.87109 1.6445c-0.97266 1.8555-97.293 186.24-89.34 262.73l0.375 3.5781-1.5547 3.2539c-51.824 108.96-105.21 231.96-105.53 250.64 5.6953 23.102 76.785 228.52 175.22 313.71l63.461 6.6133 59.348-24.957 45.016-1.2188 3.0977 1.75c1.3398 0.75 135.34 75.34 295.51 75.34h7.2148l3.7461 6.1562c6.0859 9.9727 20.355 33.566 36.754 61.688-7.6562 3.9023-15.414 7.625-23.234 11.242-11.055-18.969-21.988-37.379-31.746-53.469-151.85-1.9688-275.97-65.148-297.7-76.855" fill="#dd9666" />
 <path d="m1105.5 658.77c-3.3984-0.039063-7.3828 0.16797-9.2383 0.38672-0.94531-0.21875-3.0586 0.79297-4.668 1.3242-0.83203 0.41406 0.76562-0.44141 0.48047-0.28516l-0.33984 0.15234-0.66016 0.33984-1.3086 0.64844-2.6094 1.2812c-6.9258 3.2148-13.594 5.4453-19.938 7.2617-12.727 3.5391-24.141 5.5625-34.078 7.168-9.9258 1.6094-18.422 2.4922-25.309 3.1406-13.754 1.332-21.121 1.5039-21.121 1.5039s7.2266-1.4531 20.574-4.707c13.246-3.4492 33.055-8.0664 56.312-17.555 5.7734-2.3359 11.727-5.0977 17.344-8.4805l2.0625-1.3086 1.0391-0.66016 0.53125-0.32422 0.26172-0.16797 1.0742-0.58594c1.7656-0.77734 2.8789-1.6602 5.6562-2.3477 2.4414-0.71094 5.1523-1.3984 7.0195-1.5664 2.0508-0.26172 4.2266-0.69922 6.2656-0.80469 8.3398-0.66016 16.875-0.62109 25.621-0.078125-0.39062 6.0273-0.85938 12.031-1.4023 18.008-8.2266-1.2578-16.152-2.0742-23.57-2.3438" fill="#dd9666" />
 <path d="m812.59 1039.6c-1.375-1.582-2.7266-3.0742-4.2305-4.3047-1.3867-1.3516-2.8281-2.5312-4.2422-3.6172-1.3242-1.2461-2.7383-2.207-4.0352-3.2305-1.2852-1.0508-2.5273-2.0469-3.8125-2.8789-2.3984-1.9453-4.7617-3.3945-6.7969-4.9648-2.2188-1.5039-4.1797-3.0078-5.6953-4.1484-3.0117-2.4883-4.4766-4.1484-4.4766-4.1484s2.0742-0.71484 5.9414-1.4258c1.9062-0.22266 4.2422-0.69922 7.0586-0.76563 2.9297 0.078126 6.4961 0.12891 10.285 1.1797 1.9219 0.46875 3.957 1.0234 5.9414 1.9844 2.0625 0.81641 4.1641 1.8164 6.2148 3.1484 2.0742 1.2852 4.1914 2.7383 6.1602 4.5391 2.1016 1.6719 4.0469 3.6562 6.0195 5.7812 2.0117 1.9453 3.9297 4.7852 5.9414 7.3672 0.87109 1.2578 1.4648 2.332 2.2305 3.5234l1.1172 1.7773 0.77734 1.3633 0.51953 0.93359c2.7617 5.0039 5.6953 10.305 8.8086 15.918 9.1211 16.543 19.719 35.695 31.562 57.137-5.9023 4.5117-11.859 8.9609-17.914 13.289-11.844-22.945-22.418-43.379-31.473-60.906-5.9141-11.086-11.027-22.832-15.902-27.551" fill="#dd9666" />
 <path d="m666.92 894.23h0.078125l0.17969-0.011719h0.17187l0.32422 0.023438c-0.35156-0.011719 0.97266 0.027343-0.75391-0.011719" fill="#dd9666" />
 <path d="m432.79 879.77 12.906-2.5156-6.9141 5.2266c-2.0117-0.89453-4.0352-1.8008-5.9922-2.7109" fill="#dd9666" />
 <path d="m432.2 856.46 9.7539 1.6445c4.9688 0.93359 9.5742 2.0859 14.52 3.0742l15.59 2.9023c10.262 2.1523 20.953 3.6836 31.344 5.7461 10.43 2.0469 21 3.6289 31.469 5.5742 10.457 2.0078 20.977 3.5234 31.434 5.4453 10.469 1.9844 20.922 3.4336 31.352 5.1445 5.2031 0.81641 10.496 1.7773 15.609 2.4922l15.059 1.9961c5.0742 0.63281 9.9258 1.4492 15.191 1.9688l16.098 1.1953 7.7344 0.57031h-0.17187l-0.17969 0.011719h-0.078125c1.7266 0.039062 0.40234 0 0.75391 0.011719l-0.32422-0.023438h0.19141l0.71484-0.015625 1.4414-0.011719c0.93359 0.039063 1.9453-0.039062 2.9961-0.17969 4.0469-0.22266 8.5469-1.2344 13.051-2.2852 9.0391-2.293 18.535-5.7148 27.914-9.6719 9.3945-3.9922 18.887-8.3477 28.305-13.055 18.875-9.375 37.789-19.523 57.25-29.289 9.6875-4.9375 19.574-9.75 30.004-13.938 5.2148-2.1133 10.547-4.1094 16.305-5.6758 2.8555-0.80469 5.8516-1.4805 9.1094-1.8828 1.6445-0.15625 3.1367-0.375 5.4844-0.23047 1.0273 0.050781 2.2344 0.089844 3.0781 0.23047l1.957 0.49219 0.49219 0.13281 0.98828 0.21875 0.21875 0.066406 0.89453 0.26953 1.7773 0.55859 3.5938 1.1406 3.6328 1.1172 3.7734 0.73828c5.0195 1.1406 10.211 1.7617 15.465 2.3828 10.52 0.89844 21.273 1.0508 32.105 0.33984-10.262 3.5781-21 5.8984-32.004 7.2578l-8.3125 0.76562c-2.8047 0.22266-5.6172 0.027344-8.4453 0.066407l-4.2539-0.050781-4.2812-0.46875-4.3203-0.51953-2.168-0.26953-1.0742-0.13281-0.28906-0.035156c1.4414 0.32031 0.33984 0.089844 0.625 0.15234h-0.12891l-0.50781-0.039062-2.0234-0.11328c-0.50391 0.050782-0.64844 0.24609-0.96094 0.32031l-2.5039 0.71484c-2.0352 0.59766-4.2266 1.4375-6.4336 2.4648-4.3984 1.9805-8.8711 4.4844-13.309 7.1406-8.8359 5.3945-17.656 11.281-26.543 17.195l-26.684 18.176c-9.043 5.9648-18.148 11.98-27.551 17.723-9.418 5.6914-19.008 11.355-29.137 16.426-10.145 5.0703-20.602 9.957-32.262 13.535-5.8906 1.7266-11.859 3.4258-18.539 4.2656-1.6094 0.27344-3.2695 0.49219-5.0352 0.57031l-2.5938 0.18359-1.2969 0.078125-0.66016 0.039063-0.32422 0.011718-0.15625 0.011719-1.0117-0.023437-8.0703-0.30078-16.137-0.62109c-5.4609-0.29687-11.262-1.1914-16.875-1.7617l-16.984-2.0117c-5.5391-0.78906-10.844-1.7617-16.277-2.6445-10.793-1.8398-21.613-3.6445-32.25-6.0156-10.637-2.332-21.34-4.4336-31.887-7.1953-10.559-2.7227-21.094-5.4062-31.586-8.3867-5.2539-1.4531-10.457-3.1406-15.684-4.7227-5.2148-1.5938-10.43-3.1484-15.66-5.043l-15.566-5.5742c-3.3477-1.3594-6.7578-2.8516-10.156-4.3555l6.9141-5.2266-12.906 2.5156c1.957 0.91016 3.9805 1.8164 5.9922 2.7109l-42.926 32.438-4.4883-4.4727 37.684-49.812 3.1523-4.1719" fill="#dd9666" />
 <path d="m184.16 833.73c3.1133 3.5391 6.3945 7.2734 9.8047 11.125 1.6992 1.9453 3.4375 3.9141 5.1914 5.9102 1.6211 2.0898 3.2539 4.2148 4.9023 6.3438 3.3086 4.3008 6.668 8.6602 10.027 13.027 1.6602 2.2031 3.3984 4.3711 5.0078 6.6133 1.543 2.2539 3.0859 4.5 4.6172 6.7422 3.0625 4.4844 6.0703 8.9062 9.0039 13.184 2.9961 4.2539 5.6562 8.4805 8.1055 12.523 2.4922 4.0352 4.8516 7.8594 7.0312 11.371 4.4375 7.0273 7.9023 13.004 10.238 17.207 2.3867 4.1719 3.7461 6.5703 3.7461 6.5703s0.88281 2.6211 2.4258 7.1836c1.6094 4.5508 3.6719 11.098 6.0742 18.941 2.4102 7.8711 5.3555 16.984 8.1445 26.801l0.54688 1.8516 0.089843 0.72656 0.17969 1.4805c0.19531 1.1641 0.39062 2.332 0.58594 3.5234l0.40234 2.0391 0.21875 1.0859 0.81641-0.16797 3.8281-1.3867 4.3477-1.6992c1.8125-0.73828 3.6172-1.4883 5.4062-2.2305 4.9961-2.0742 9.9141-4.1211 14.672-6.0938 9.418-4.0703 18.527-7.0391 26.129-9.9805 7.6641-2.8008 14.152-4.8867 18.629-6.457 4.4883-1.543 7.0547-2.4258 7.0547-2.4258s-2.3477 1.3633-6.4609 3.7461c-4.0977 2.4141-10.027 5.6953-16.965 9.8945-6.8633 4.3438-15.129 8.957-23.441 14.676-4.1797 2.7891-8.5117 5.6797-12.895 8.6094-5.9297 4.1367-11.949 8.3477-17.957 12.551-3.3438 2.332-6.6914 4.6523-10.039 6.9727l-1.2852 0.88281-0.64844 0.45312c-0.20703 0.14453-0.45312 0.40234-0.51953 0.039063l-1.2695-2.6445-2.582-5.3945c-1.7891-3.7461-3.5547-7.4648-5.3047-11.137-0.91016-1.918-1.8047-3.8242-2.6992-5.7148l-1.3477-2.8555-0.87109-1.6953c-4.6289-9.0391-9.1953-17.258-13.012-24.363-3.8008-7.1172-7.0156-12.992-9.3906-17.023-2.3359-4.043-3.6602-6.3633-3.6602-6.3633s-0.85547-2.5312-2.332-6.9648c-1.4414-4.4727-3.6094-10.785-6.4883-18.215-1.3984-3.7461-2.918-7.8047-4.5273-12.098-1.5703-4.3164-3.3203-8.8281-5.3555-13.379-1.9609-4.5898-3.9961-9.3359-6.0586-14.156-1.0391-2.4258-2.0781-4.8633-3.1289-7.3125-1.1016-2.4258-2.332-4.7734-3.5-7.1719-2.3867-4.7852-4.7617-9.582-7.0977-14.285-1.1797-2.375-2.3477-4.7227-3.5156-7.0273-1.2969-2.2305-2.582-4.4219-3.8398-6.6016-2.5273-4.3438-4.9805-8.543-7.3164-12.523-2.3477-3.9922-4.4492-7.8711-6.8594-11.098-9.2383-13.34-15.414-22.234-15.414-22.234s7.8086 7.5703 19.539 18.941c3.0586 2.7734 5.8867 6.1836 9.0156 9.6836" fill="#dd9666" />
 <path d="m587.75 1071.6-3.1641-0.3125v-5.3945c0.93359 0.54688 1.8828 0.98828 2.8281 1.375 0.11719 1.4531 0.21875 2.8906 0.33594 4.332" fill="#dd9666" />
 <path d="m607.48 1040.1c7.7188 0.16797 15.543 0.09375 23.43-0.0625 15.773-0.3125 31.848-1 48.012-1.0898 8.082 0 16.176 0.050782 24.453 0.53125 7.9492 0.62109 15.629 1.2188 23.012 0.42969 7.3438-0.75391 14.336-3.332 19.562-8.832 5.2422-5.4062 8.7031-12.797 11.184-20.316-1.207 7.8438-3.2695 15.832-8.043 22.871-4.6992 7.1445-12.871 11.992-21.082 14.199-8.2227 2.332-16.566 3.0586-24.504 3.7852-7.6133 0.85547-15.387 2.125-23.156 3.4609-15.527 2.7344-31.016 6.0664-46.867 9.1016-7.9414 1.5156-15.945 2.9688-24.105 4.1875-6.3164 0.94531-12.828 1.6992-19.289-0.22266l-2.2969-29.066c6.5664 0.51953 13.023 0.88281 19.691 1.0234" fill="#dd9666" />
 <path d="m587.75 1038.6 0.039062 0.46484-0.66016-0.050781z" fill="#dd9666" />
 <path d="m587.41 1067.2c-0.94531-0.38672-1.8945-0.82812-2.8281-1.375v-25.137l0.67578-0.44141c0.71094 8.9727 1.4258 17.957 2.1523 26.953" fill="#dd9666" />
 <path d="m584.59 1040.7v-1.8438l0.57031 0.039062c0.039062 0.45703 0.066406 0.91016 0.10547 1.3633l-0.67578 0.44141" fill="#dd9666" />
 <path d="m496.49 1013.9c11.57 5.9102 22.195 12.25 32.246 17.113 9.9922 4.9258 19.047 8 26.648 9.1016 7.5859 1.1797 13.891 0.6875 18.355 0.15625 4.4609-0.59766 7.0312-1.2305 7.0312-1.2305 1.4375 0.011719 2.918-0.10547 4.3555-0.30078l0.027344 0.20703-0.57031-0.039062v32.375l3.1641 0.3125c-0.11719-1.4414-0.21875-2.8789-0.33594-4.332 0.88281 0.39062 1.7773 0.6875 2.6719 0.94531l0.23437 2.918c-1.9062 0.48047-3.8008 1.0234-5.7617 1.4414 0 0-3.5938 0.25781-10.027-0.027344-6.3828-0.3125-15.84-1.2852-26.332-4.875-10.535-3.4883-21.445-9.6836-31.367-16.895-9.9766-7.1406-19.574-15.348-29.188-22.508-19.562-14.43-41.355-26.887-57.273-36.793-16.035-9.8164-26.242-17.051-26.242-17.051s11.27 5.4062 28.617 12.344c17.305 7.0664 40.785 15.609 63.746 27.137" fill="#dd9666" />
 <path d="m585.26 1040.3 1.8672-1.2188 0.66016 0.050781 2.2969 29.066c-0.89453-0.25781-1.7891-0.55469-2.6719-0.94531-0.72656-8.9961-1.4414-17.98-2.1523-26.953" fill="#dd9666" />
 <path d="m585.16 1038.9c0.64844 0.066406 1.3125 0.09375 1.9727 0.14453l-1.8672 1.2188c-0.039063-0.45312-0.066407-0.90625-0.10547-1.3633" fill="#dd9666" />
 <path d="m754.65 751.1c5.3711-1.2578 11.586-2.6211 18.137-4.6445 6.5625-1.75 13.465-4.2109 20.316-6.4688 6.8477-2.5664 13.621-4.9766 19.938-7.6094 6.3281-2.4883 12.207-5.0039 17.238-7.1445 10.094-4.3828 16.812-7.3008 16.812-7.3008s7.3555-0.94531 18.371-2.3594c11.051-1.4258 25.945-3.2383 40.875-4.5898 7.5234-0.53125 14.969-1.2031 22.027-1.3594 7.0039-0.375 13.582-0.3125 19.172-0.25781 5.5664-0.078125 10.25 0.4375 13.48 0.54297 3.2148 0.16797 5.0703 0.27344 5.0703 0.27344s-1.8008 0.42578-4.9688 1.1641c-3.1367 0.83203-7.6406 1.6211-12.918 3.2422-5.3086 1.5156-11.441 3.2539-17.918 5.5352-6.4961 2.0625-13.336 4.7734-20.133 7.2891-13.582 5.3789-26.98 11.16-37.102 15.609-10.156 4.4609-16.926 7.4297-16.926 7.4297s-7.4219 0.91797-18.539 2.293c-5.6055 0.66016-12.102 1.4258-19.16 2.0625-6.9805 0.75-14.582 1.1914-22.066 1.7227-7.5742 0.26172-15.047 0.67578-22.129 0.50781-7.0312 0.089844-13.609-0.36328-19.199-0.67578-5.5781-0.21875-10.211-1.0352-13.43-1.3086-3.2148-0.36328-5.043-0.57031-5.043-0.57031s1.8281-0.32422 5.0195-0.88281c3.1758-0.64844 7.7188-1.1523 13.074-2.5" fill="#dd9666" />
 <path d="m464.64 215.85c3.3203-0.17188 7.3008-0.64844 11.637-1.0508 4.3164-0.42969 8.9375-0.88281 13.527-1.3477 9.2891-0.96094 18.422-1.4023 24.984-2.3086 3.2461-0.49219 6.0195-0.72656 7.7578-1.2188 1.7773-0.39062 2.7891-0.60938 2.7891-0.60938 0.35156 0.011719 0.66406 0.039062 1.6992-0.027344l2.5312-0.11719 2.4922-0.11719 2.0859 0.32422c0.72656 0.054688 1.2734 0.37891 1.8945 0.58594 0.60938 0.16797 1.1562 0.66016 1.7266 1.0234 0.55859 0.375 1.0117 0.98438 1.5039 1.4531 0.6875 0.28516 0.88281 0.98438 1.6328 1.1914 0.39062 1.0742 0.71484 2.1406 1 3.1758 0.27344 1.0781 0.69922 1.9961 0.66406 3.2305l0.15234 3.4336c0.054688 0.77734 0 0.84375-0.011718 1.0781l-0.089844 0.64844 0.21875 0.53125c-0.375 4.9531-0.48047 10.074-1.1406 14.676l-0.88281 7.0117c-0.28516 2.3359-0.90625 4.8359-1.3477 7.2109-0.39062 2.4258-1.168 4.7188-1.8828 7.0273-0.69922 2.293-1.3984 4.5742-2.4258 6.7539-0.99609 2.1797-1.7383 4.4219-2.9297 6.4844l-3.4375 6.1445 1.918-6.7188c0.66406-2.2031 0.87109-4.5469 1.3242-6.793 0.48047-2.2305 0.60938-4.5234 0.75391-6.793 0.16797-2.2695 0.38672-4.5117 0.21875-6.7539-0.11719-2.2695-0.050781-4.3711-0.3125-6.6914l-0.75-6.9219c-0.41797-4.6953-1.3906-8.8672 0.10156-13.434-0.67188 0.26172-1.3594 0.51953-1.3477 0.63672l-0.36328-1.168c-0.10547-0.375-0.24609-0.90625-0.29688-0.77734l-0.42969-0.35156c-0.29688-0.17969-0.55859-0.25781-0.40234-0.62109-0.32422-0.12891-0.87109 0.15625-1.1172 0.49219l-0.20703 0.45312 0.039063 0.21094c0.20703 0.050781-0.28516 0.16797-0.76562 0.26953 0 0-1.2695-0.011719-3.4766-0.050781-2.2422 0.066406-5.1875-0.36328-8.793-0.64844-7.1602-0.67578-16.309-2.3594-25.336-3.5-4.5273-0.58203-9.082-1.1797-13.324-1.75-4.2422-0.58594-8.2734-1.0117-11.789-1.6484-3.4922-0.67187-6.3203-1.6719-8.1211-2.6289-1.7266-1.0508-2.7109-1.6484-2.7109-1.6484s1.0742 0.35156 2.9805 0.97266c1.8945 0.50391 4.7109 0.81641 8.0586 0.67578" fill="#dd9666" />
 <path d="m478.75 165.33c1.8672 0.37891 3.9805 0.80469 6.2891 1.2734 4.5938 0.89453 10.004 1.6328 15.852 2.2422 5.8906 0.60938 12.184 1.2578 18.461 1.9062 3.1797 0.3125 6.3555 0.71094 9.5078 1.2305 3.1523 0.41406 6.2656 0.96094 9.3281 1.6992 6.3164 1.2852 11.09 2.6953 15.633 3.5664 4.3711 0.63281 7.9648 1.4648 10.453 1.3867 2.4805 0.12891 3.8789 0.19531 3.8789 0.19531s0.35156 0.089844 1 0.24609c0.32422 0.078125 0.72656 0.16797 1.1953 0.28516 0.90625 0.0625 1.9453 0.12891 3.1133 0.20703 2.3203 0.12891 5.1367 0.30859 8.3672 0.50391 1.5547 0.10547 3.2148 0.19531 4.9688 0.3125 0.62109-0.18359 0.47656 0.46484 0.4375 1.0234l-0.089844 1.6211c-0.039063 1.0898-0.10156 2.2031-0.16797 3.332-0.11719 2.2031-0.24609 4.5-0.375 6.8711-0.066406 1.0898-0.12891 2.1797-0.19531 3.293-0.066406 0.6875-0.11719 1.375-0.19531 2.0742-0.25781 2.7891-0.80469 5.668-1.2305 8.6602-0.79297 6.0156-2.2188 12.254-3.4648 18.488-1.375 6.1602-2.7891 12.355-4.2305 18.203-0.60938 2.9062-1.7891 5.707-2.5938 8.3242-0.45312 1.3086-0.82812 2.5938-1.3086 3.8125-0.59766 1.1797-1.1797 2.3203-1.7383 3.4219-2.4023 4.2031-4.6055 7.418-5.957 9.8164-1.3203 2.4102-2.0625 3.7969-2.0625 3.7969s0.50781-1.4922 1.4023-4.1094c0.94531-2.6055 2.6211-6.2344 4.2031-10.578 0.33594-1.0781 0.6875-2.207 1.0508-3.3711 0.27344-1.207 0.41406-2.5156 0.63672-3.8242 0.33594-2.6484 0.99609-5.293 1.1133-8.2344 0.42969-5.7969 0.79297-12.043 1.1172-18.348 0.19531-6.2461 0.54297-12.457 0.32422-18.227-0.078125-2.8789-0.011719-5.668-0.20703-8.2852-0.050781-0.64844-0.10547-1.2969-0.15625-1.9336-0.050781-0.55469-0.10547-0.375-0.15625-0.57031l-0.29688-0.49219-0.37891-0.16797c-0.41406 0.089844-0.78906 0.16797-1.1523 0.24609-0.59766 0.15625-1.1172 0.28516-1.543 0.40234l-0.55859 0.12891c-0.58594-0.039063-1.0898-0.0625-1.4922-0.089844-0.81641-0.050781-1.2578-0.078125-1.2578-0.078125s-1.6875-0.375-4.6562-1.0234c-3.0352-0.49219-6.9688-2.0625-11.754-3.6445-4.5391-1.6953-10.027-4.3281-15.062-6.2227-2.5664-1.0898-5.3438-2.0859-8.25-2.9805-2.8398-0.98438-5.8242-1.8672-8.832-2.6992-6.0742-1.6836-12.156-3.3555-17.852-4.9375-5.7227-1.5938-11.066-3.2695-15.527-4.9531-2.2305-0.84375-4.2695-1.6211-6.0859-2.3203-1.7383-0.83203-3.2695-1.5547-4.5273-2.1641-2.4766-1.1953-3.9023-1.8672-3.9023-1.8672s1.5156 0.42578 4.1641 1.1914c1.3242 0.375 2.9297 0.84375 4.7617 1.3594" fill="#dd9666" />
 <path d="m504.29 116.12c6.3828-4.9531 14.895-11.551 23.402-18.164l0.89844-0.69922 1.2422-0.75c0.83203-0.49609 1.6875-0.87109 2.582-1.1055 1.8672-0.51563 3.75 0.14453 5.3711 1.0508l1.2578 0.74219 0.83203 0.66016 1.6836 1.3203c1.1172 0.89453 2.2344 1.7773 3.3242 2.6328 2.0859 1.6875 4.6445 3.6289 6.1719 4.9805 1.6992 1.4375 3.3242 2.8008 4.8125 4.0547 3 2.4531 5.4102 4.8125 7.125 6.3945 1.7227 1.5938 2.6953 2.5 2.6953 2.5l5.9688 8.2852c2.1797 2.9961 3.4102 4.8359 5.4727 7.2109 1.9609 2.2656 4.2188 4.4844 6.5781 6.7656 2.4141 2.2422 4.8516 4.707 7.2539 7.2109l6.6797 7.4648c2.1914 2.4141 4.332 4.9023 6.668 7.0938 2.2578 2.3086 4.7227 4.3555 7.3398 6.2227 1.3516 0.82812 2.6602 1.8281 4.1016 2.5664 1.4648 0.6875 2.9453 1.375 5.0586-0.54297 0 0.97266 0.12891 1.8906 0.48047 1.9453 0.41406 0.23047 0.90625 0.49219 1.2461 0.73828l1.2461 0.73828c-0.88281-0.011719-1.7773-0.027344-2.6484-0.11719-0.375 0.011719-0.76562 0.078125-1.1289-0.023437l-4.9023-1.168c-1.6367-0.44141-3.1641-1.1797-4.7734-1.7656-3.1016-1.3594-6.1484-3.0078-8.9648-4.8867-2.918-1.7891-5.5898-3.8516-8.2891-5.8203l-7.9414-5.8594c-2.6055-1.7891-5.2148-3.5547-8.0781-5.2773-2.8281-1.8047-5.7344-3.6562-8.6289-5.8594-2.8008-2.0625-5.9805-5.1367-8.1602-7.0938l-7.1211-6.5352s-0.72656-1.0234-2.0117-2.8398c-1.2969-1.7891-3.0352-4.4062-5.5234-7.4531-2.2578-2.8516-4.9062-6.1719-7.7344-9.7383-1.2422-1.5273-2.5273-3.1094-3.8398-4.7188-0.32422-0.42578-0.81641-1.0234-1.3984-0.93359l-0.82031 0.20703-0.42578 0.14453-0.72656 0.34766c-9.0156 4.4375-18.02 8.8711-24.777 12.188-3.0742 2.0117-5.8242 4.2031-7.9766 5.0586-2.1953 0.93359-3.582 0.64844-3.5547 0.72656-0.015624-0.066406 1.375-0.09375 3.2031-1.3633 1.8789-1.2578 3.8281-3.6172 6.7305-6.5352" fill="#dd9666" />
 <path d="m390.31 698.15c1.6992 0.15234 3.6562-0.039063 5.7461-0.054688 2.1016-0.050781 4.3594-0.050781 6.7344-0.44141 2.3711-0.38672 4.875-0.4375 7.3906-1.1406 2.5195-0.63281 5.1523-0.98438 7.6953-1.9297 2.5664-0.83203 5.1602-1.582 7.6523-2.7227 2.5312-0.97266 4.957-2.1406 7.3047-3.4102 2.3867-1.1172 4.5664-2.6211 6.7188-3.8633 4.1914-2.7734 7.9258-5.5352 10.871-8.1953 2.9961-2.5938 5.2422-4.9648 6.7188-6.5977 0.76562-0.85547 1.2852-1.4805 1.5586-1.8438 0.375-0.46484 0.57031-0.71094 0.57031-0.71094l11.961 11.254s-0.30078 0.25781-0.85547 0.75c-0.64844 0.58594-1.5312 1.2969-2.6094 2.1289-2.1797 1.6836-5.3047 3.9414-9.2344 6.2461-3.9062 2.3984-8.668 4.7461-13.844 6.9492-2.6719 0.96094-5.3047 2.1406-8.1719 2.9062-2.8008 0.90625-5.668 1.6719-8.6016 2.2305-2.8789 0.73828-5.8359 1.0508-8.7148 1.4258-2.8555 0.49219-5.75 0.375-8.4727 0.55859-2.7227 0.21875-5.3828-0.18359-7.875-0.23438-2.4883-0.039063-4.8125-0.46875-6.9531-0.79297-2.1289-0.375-4.0977-0.53125-5.7852-1.0078-1.6875-0.44141-3.1641-0.83203-4.3711-1.1445-2.4023-0.63281-3.7773-0.98437-3.7773-0.98437s1.4141 0.10547 3.8945 0.28516c1.2305 0.089844 2.7344 0.20703 4.4492 0.33984" fill="#dd9666" />
 <path d="m897.05 600.39c1.8164 3.9805 4.4648 9.5547 6.875 15.18 1.168 2.918 2.3359 5.707 3.2305 8.5078 0.98828 2.6953 1.6758 5.3398 2.2188 7.543 0.62109 2.1523 0.77734 4.1367 1.0117 5.3711 0.19531 1.2695 0.28516 1.9961 0.28516 1.9961s-0.55859-0.48047-1.5547-1.2969c-1.0508-0.79297-2.2734-1.9961-4.1406-3.1523-1.7773-1.2031-3.7852-2.5273-6.1484-3.7734-2.2188-1.3086-4.8242-2.5156-7.2891-3.7344-5.125-2.3594-10.301-4.5117-14.398-6.2734-4.1406-1.8398-6.8906-3.0742-6.8906-3.0742l23.871-23.855s1.1797 2.6328 2.9297 6.5625" fill="#dd9666" />
 <path d="m511.36 652.62c0.58594 1.5586 1.6875 3.8633 2.2852 6.3281 0.76562 2.5547 1.5039 5.3945 2.0625 8.2461 0.57031 2.7891 1.168 5.7578 1.7656 8.7266 0.60938 2.8125 1.2305 5.6641 2.0625 8.1797 0.6875 2.6836 1.7773 4.8242 2.6445 6.9219 0.90625 2.0352 2.0117 3.4883 2.6836 4.6836 0.74219 1.1523 1.1562 1.8125 1.1562 1.8125s-0.72656-0.23438-2.0117-0.64844c-1.2461-0.46484-3.2812-0.94531-5.4492-2.0078-2.1016-1.0781-4.875-2.3086-7.3516-4.0859-2.6992-1.6719-5.293-3.6562-7.9141-5.7031-2.4648-1.9727-4.9297-3.9414-7.2383-5.7969-2.2461-1.8125-4.2812-3.2383-5.957-4.3047-1.6992-1.2578-3.0469-1.6719-3.9688-2.1758-0.89453-0.44141-1.4141-0.6875-1.4141-0.6875l25.621-21.965s0.375 0.91016 1.0234 2.4766" fill="#dd9666" />
 <path d="m385.51 249.15c0.24609-2.1133 0.50781-4.3438 0.77734-6.6484 0.44141-4.5898 1.4922-9.3867 2.2852-14.121 1.1406-4.7461 1.9844-9.3984 3.3594-13.73 0.62109-2.1367 1.2305-4.2148 1.8047-6.1719 0.69922-1.9297 1.3594-3.7578 1.9688-5.4297 0.63672-1.6758 1.1055-3.1914 1.7773-4.5 0.60938-1.2969 1.1445-2.4375 1.582-3.3711 0.87109-1.8281 1.3633-2.8789 1.3633-2.8789s0.027343 1.168 0.050781 3.2148c0.015625 1 0.039062 2.2031 0.066406 3.6055-0.027344 1.3477 0.23438 2.957 0.39062 4.6406 0.17969 1.6875 0.38672 3.5 0.59375 5.4336 0.33984 1.9062 0.70312 3.9297 1.0664 6.0273 0.62109 4.125 1.8945 8.5312 2.8516 12.824 1.3125 4.2891 2.3477 8.5547 3.8281 12.395 0.67578 1.9062 1.3359 3.7578 1.957 5.5078 0.72656 1.6758 1.4023 3.2539 2.0273 4.707 0.63281 1.4258 1.1406 2.8125 1.7617 3.8242 0.57031 1.0391 1.0625 1.9609 1.4805 2.7109 0.80469 1.4766 1.2578 2.3203 1.2578 2.3203l-32.535 9.0391s-0.039062-1.3633-0.12891-3.75c-0.027344-1.1641-0.066406-2.6055-0.10547-4.2383-0.10156-1.6602 0.078124-3.3711 0.15625-5.2891 0.11719-1.9062 0.23437-3.957 0.36328-6.1211" fill="#dd9666" />
</svg>