<?xml version="1.0" encoding="UTF-8"?>
<svg width="1587" height="1587" version="1.0" viewBox="0 0 1190.2 1190.2" xmlns="http://www.w3.org/2000/svg" zoomAndPan="magnify">
 <defs>
  <clipPath id="a">
   <path d="m0 0h1189.5v1189.5h-1189.5z"/>
  </clipPath>
  <clipPath id="b">
   <path d="m146 309h898v574.51h-898z"/>
  </clipPath>
 </defs>
 <g clip-path="url(#a)" fill="none">
  <path d="m0 0h1189.5v1189.5h-1189.5z"/>
  <path d="m0 0h1189.5v1189.5h-1189.5z"/>
 </g>
 <g clip-path="url(#b)">
  <path d="m818.29 501.95c-6.0391 17-14.621 47.797-12.73 81.387 0 0-38.828-9.6719-42.992 37.086 0 0-32.324-5.2422-70.762 40.668-2.9922 3.5859-7.1406 5.5977-11.434 5.4375-15.32-0.57031-49.496-6.9531-45.109-53.23 4.9336-7.9492 8.6641-17.359 10.805-27.695 1.0195 0.42578 2.1719 0.57422 3.3789 0.25 2.7812-0.73047 4.6953-3.7422 4.6953-7.0625v-16.84c0-2.8398-0.94531-5.5938-2.6914-7.5781-1.6406-1.8594-2.9062-1.9453-4.1133-1.7656-4.3359-34.727-26.23-61.145-52.586-61.145-26.359 0-48.25 26.418-52.586 61.145-0.26172-0.035156-0.51953-0.066406-0.78516-0.066406-3.3242 0-6.0195 3.1328-6.0195 6.9883v19.516c0 3.8594 2.6953 6.9844 6.0195 6.9844 0.72266 0 1.4141-0.15234 2.0547-0.42578 2.1406 10.336 5.8711 19.746 10.809 27.695 4.3867 46.277-29.793 52.66-45.109 53.23-4.3008 0.16016-8.4414-1.8516-11.438-5.4375-38.445-45.91-70.758-40.668-70.758-40.668-4.1641-46.758-42.992-37.086-42.992-37.086 1.8906-33.59-6.6992-64.387-12.73-81.387-3.1992-9.0234-2.3125-19.281 2.3789-27.371l26.578-45.832c0.88672-1.5352 1.5312-3.25 1.8203-5.0586 37.969-5.875 99.793-12.227 143.16-16.367 33.008-3.1445 66.18-3.1445 99.184 0 43.379 4.1406 105.21 10.492 143.18 16.367 0.26953 1.7148 0.83203 3.3672 1.6758 4.832l26.715 46.059c4.6875 8.0898 5.582 18.348 2.3828 27.371zm202.59-187.36-24.141-4.8867c-14.746-2.9844-28.777 8.4727-31.344 25.574l-14.578 97.031c-13.617-5-63.82-22.738-133.55-39.027-33.855-7.9102-109.38-17.414-163.05-23.57-39.547-4.5195-79.363-4.5195-118.91 0-53.68 6.1562-129.21 15.66-163.06 23.57-69.73 16.289-119.94 34.027-133.56 39.027l-14.574-97.031c-2.5664-17.102-16.598-28.559-31.34-25.574l-24.145 4.8867c-14.742 2.9844-24.609 19.266-22.039 36.375l37.938 252.57c2.5703 17.102 16.598 28.559 31.344 25.574l24.141-4.8867c14.746-2.9844 24.609-19.266 22.039-36.375l-18.863-125.58 1.4492 5.0938c0.46484-0.17578 35.301-13.422 89.219-28.082v147.89c0 13.941 5.2734 27.18 14.422 36.215 11.988 28.637 36.984 52.938 73.801 72.836 0.69922 37.887 47.242 65.301 47.242 65.301 0 60.465 40.289 99.965 40.289 99.965v21.766h170.29v-21.766s40.289-39.5 40.289-99.965c0 0 46.547-27.414 47.234-65.301 36.816-19.898 61.824-44.199 73.809-72.836 9.1523-9.0352 14.422-22.273 14.422-36.215v-147.89c53.914 14.66 88.75 27.906 89.215 28.082l1.457-5.0938-18.871 125.58c-2.5664 17.109 7.3086 33.391 22.043 36.375l24.137 4.8867c14.75 2.9844 28.777-8.4727 31.344-25.574l37.945-252.57c2.5664-17.109-7.2969-33.391-22.043-36.375" fill="#231f20"/>
 </g>
 <path d="m1092.5 363.41-15.734-3.1953c-14.746-2.9844-28.777 8.4727-31.344 25.574l-27.934 185.95c-2.5703 17.113 7.2969 33.395 22.043 36.379l15.73 3.1797c14.75 2.9844 28.777-8.4648 31.344-25.578l27.938-185.94c2.5664-17.105-7.293-33.395-22.043-36.367" fill="#231f20"/>
 <path d="m1181.1 485.72-2.5234-0.51172 5.5586-36.98c2.5664-17.102-7.2969-33.391-22.039-36.379l-13.691-2.7656c-14.734-2.9844-28.777 8.4727-31.344 25.574l-17.906 119.23c-2.5625 17.109 7.2969 33.391 22.031 36.375l13.691 2.7656c14.746 2.9883 28.777-8.4609 31.34-25.574l5.5625-36.98 2.5273 0.51172c5.0273 1.0195 9.8203-2.8789 10.691-8.7266l3.625-24.129c0.87109-5.832-2.4922-11.391-7.5234-12.41" fill="#231f20"/>
 <path d="m144.06 385.79c-2.5703-17.102-16.605-28.559-31.344-25.574l-15.738 3.1953c-14.738 2.9727-24.609 19.262-22.039 36.367l27.93 185.94c2.5703 17.113 16.602 28.562 31.344 25.578l15.738-3.1797c14.738-2.9844 24.609-19.266 22.039-36.379l-27.93-185.95" fill="#231f20"/>
 <path d="m72.426 434.66c-2.5703-17.102-16.605-28.559-31.344-25.574l-13.688 2.7656c-14.742 2.9883-24.605 19.277-22.039 36.379l5.5547 36.98-2.5234 0.51172c-5.0352 1.0195-8.3984 6.5781-7.5234 12.41l3.625 24.129c0.87891 5.8477 5.6641 9.7461 10.699 8.7266l2.5234-0.51172 5.5547 36.98c2.5664 17.113 16.602 28.562 31.34 25.574l13.688-2.7656c14.742-2.9844 24.609-19.266 22.039-36.375l-17.906-119.23" fill="#231f20"/>
</svg>
