<?xml version="1.0" encoding="UTF-8"?>
<svg width="1587" height="1587" version="1.0" viewBox="0 0 1190.2 1190.2" xmlns="http://www.w3.org/2000/svg" zoomAndPan="magnify">
 <defs>
  <clipPath id="c">
   <path d="m0 0h1189.5v1189.5h-1189.5z"/>
  </clipPath>
  <clipPath id="a">
   <path d="m145.5 122h229.5v886h-229.5z"/>
  </clipPath>
  <clipPath id="b">
   <path d="m322 0.14062h347.42v1189.1h-347.42z"/>
  </clipPath>
  <clipPath id="d">
   <path d="m773 180h271.02v987h-271.02z"/>
  </clipPath>
 </defs>
 <g clip-path="url(#c)" fill="none">
  <path d="m0 0h1189.5v1189.5h-1189.5z"/>
  <path d="m0 0h1189.5v1189.5h-1189.5z"/>
 </g>
 <g clip-path="url(#a)">
  <path d="m374.4 122.19s-2.0156 8.3164-1.5352 11.93c0.48047 3.6172-16.52 17-16.52 17l-8.5156 21.648s1.7461 12.84-9.0117 21.422c-10.777 8.5625-11.125 39.867-11.125 39.867l4.8359 2.8555s-11.57 6.3555-15.25 26.238c-3.6992 19.871 1.2852 23.105 1.2852 23.105s4.4922 16.898-1.6641 28.844c-6.1758 11.949 1.582 20.48 1.582 20.48l-30.531 30.547 0.52734 22.129-4.6719 16.039 3.0391 18.68-4.1953 19.656s-2.8047 19.984-18.531 29.934c-15.73 9.9688-5.9609 32.098-5.9609 32.098s-12.312-6.0234-17.988 9.5391c-5.6953 15.543 0.28125 22.641 0.28125 22.641l-5.4297 7.0469 17.809 36.023-22.711 36.949-10.348 1.6836 1.1875 14.734-25.352 58.551 5.4453 19.488 5.0352-3.5117 2.8242 6.5508-3.5664 15.625 3.8125 10.398-15.629 35.629 2.0469 5.5586-3.0039 4.4727-11.555 15.613s-1.8789 30.594 4.7383 60.184c6.6172 29.605-10.926 46.125-10.926 46.125s-8.5156 9.0078-0.37891 34.688c8.1172 25.66-7.6445 34.391-7.6445 34.391l9.6562 26.367-5.5117 4.5391-2.9062-18.301-1.9297-6.4688-8.4688-7.0117 5.5312-7.9219s1.0703-6.2891-4.8711-29.391c-5.9219-23.102 7.4609-45.266 7.4609-45.266l-0.46094-16.273 4.918-7.2773-9.6055-33.137 1.7812-3.1836s0.10156-69.902 10.434-98.172c8.5312-23.301-0.85938-42.656-0.85938-42.656l-11.637-26.074-4.6875 11.402 0.85938-18.418-6.8828-21.09-4.125-4.3711 5.9414-2.1797s7.1953-19.488 21.688-24.785c14.488-5.2969 2.8555-31.371 2.8555-31.371l-3.1211-8.5469s5.793 10.098 14.309 5.7266c0 0 2.7734-11.984 15.777-16.734 13.008-4.7539-4.8516-34.027-4.8516-34.027s-8.418-31.043 26.16-68.965l-0.36328-12.508 4.7539-4.2734-2.3789-13.449 4.707-10.148-4.6211-12.625-8.2031 6.3711s1.1055-22.312 28.141-31.355c0 0 6.0547-32.973 24.805-38.137 0 0 2.1133-26.469 12.906-38.434l-6.0234-17.594 5.5938-10.047 2.2773-16.832 3.3359 11.402s27.43-48.715 37.102-58.633c0 0 1.8477-16.766 12.359-27.277l10.73-27.098 12.129-17.492 3.5508-7.6094 9.3398-5.5273" fill="#1e0e00"/>
 </g>
 <g clip-path="url(#b)">
  <path d="m354.95 1189.3 5.7734-12.441-3.4141-25.199s-11.473-11.934 5.3945-25.844c0 0-22.559-17.559 9.0625-51.059l-1.1719-13.762 4.457-5.4961-5-13.664-9.1133 3.332 6.8984-19.949-4.7852-13.086 7.1484 1.8984-3.9609-10.809s-6.2422-17.066-2.1797-28.879c0 0-6.3047-52.543 12.477-59.41 0 0 6.2383-9.3711 6.4375-15.906 0 0 6.5352-26.258 1.8477-35.516l3.7148-11.023-6.75-34.309s-1.2227-15.691 17.871-25.246c0 0-11.156-14.637 14.375-33.004l3.1055-32.113 5.4453 2.5391-7.293-19.918 23.832-44.211-6.2383-17.078 18.434 1.0078s3.168-16.008 13.93-21.867c10.762-5.875-14.918-65.512-14.918-65.512s-0.49609-10.152 22.594-14.078l-16.027-43.812s-6.0391-16.504 37.828-37.707l-1.1719-13.766 14.227-5.2148 16.043-28.449-3.9453-10.809 11.883-13.367-3.3672-23.301 19.113 4.6211-8.9141-36.734 27.879-43.746-5-13.648-6.3711-28.004 13.648-12.082-20.039 3.4492 24.148-20.445s10.43-36.719 31.934-55.547c0 0 2.543-24.801-1.1367-33.137 0 0 6.1406-32.574 22.742-41.867l4.3086 2.9375s-10.035-48.582 30.465-66.633l6.5039-13.98-2.707-7.4062 4.1289-9.8867-16.293 13.695s-47.234 43.734-40.086 72.082c0 0-9.707 15.812-23.473 16.965-13.781 1.1719-19.129 21.832-19.129 21.832l-9.6055 5.4648 2.082 5.6914-10.812 3.9453 5.1836 7.1445s-19.391 12.246-22.66 31.52c-3.2852 19.258-8.7148 23.828-8.7148 23.828s-10.035 4.3086 0.57812 33.336c10.629 29.012-25.219 22.773-25.219 22.773s-13.152-4.2266-16.785-3.5469c-3.6133 0.69141 15.398 8.5625 15.398 8.5625l-15.496 14.062s-7.707 38.945-17.629 47.094c0 0-2.9219 11.387 0.49609 17.23 3.4336 5.8594-6.1406 39.672-26.258 46.387l2.5586 8.7461-8.4531-0.14844 1.8828 5.1328s-10.891 21.402-28.949 26.719c-18.055 5.3125-0.49609 42.758-0.49609 42.758s-17.461 19.289-17.41 40.562c0 0 5.2148 21.32-11.898 32.738-17.117 11.422-21.473 40.117-21.473 40.117l16.289 39.211-4.3398 46.32 3.3008 3.7305-14.145 54.852 8.582 18.152-8.1211 30.711s-26.523 17.461-34.129 46.043l13.664 2.0938s10.859 17.328-8.418 66.949c-19.262 49.641 11.258 64.277 11.258 64.277l-12.809 21.453 10.562 20.02 0.72656 31.996 2.2617 18.531-5.5625 13.004s9.2109 26.949 1.1211 45.398c0 0 12.578 4.4219 12.148 22.641l1.7656 27.742s-3.9609 15.645 4.3594 31.32" fill="#1e0e00"/>
 </g>
 <path d="m535.01 252.34-15.219-10.859h9.2266z" fill="#1e0e00"/>
 <path d="m649.55 687.66c0.3125 0.10156 0.57812 0.19922 0.79297 0.26562-0.26562-0.082031-0.52734-0.17969-0.79297-0.26562zm1.1562 0.38281c0.046875 0.015626 0.097656 0.03125 0.13281 0.046876-0.050782-0.015626-0.10156-0.03125-0.13281-0.046876zm-3.7305-1.207c0.11328 0.035157 0.23047 0.066407 0.34766 0.10156-0.13281-0.035156-0.25-0.066406-0.34766-0.10156zm-2.0469-0.66016c0.37891 0.11719 0.75781 0.23047 1.1211 0.36328-0.39453-0.13281-0.77344-0.26172-1.1211-0.36328zm-1.9648-0.64453c0.42969 0.13281 0.875 0.28125 1.3359 0.42969-0.49219-0.16406-0.9375-0.29688-1.3359-0.42969zm-2.0117-0.66016c0.41016 0.13281 0.92188 0.29687 1.4844 0.49609-0.60938-0.19922-1.1055-0.36328-1.4844-0.49609zm-0.57812-0.17969c0.14844 0.050781 0.34766 0.11719 0.55859 0.17969-0.23047-0.0625-0.41016-0.12891-0.55859-0.17969zm-0.44531-0.13281c0.03125 0 0.066407 0.015624 0.097657 0.015624-0.03125 0-0.066407-0.015624-0.097657-0.015624zm7.5898 2.4609c0.37891 0.11328 0.74219 0.23047 1.0898 0.34375-0.37891-0.12891-0.74219-0.24609-1.0898-0.34375" fill="#1e0e00"/>
 <path d="m543.61 1165.8s95.297-111.11 99.473-137.46c4.1758-26.352 27.809-23.73 27.809-23.73l17.082-45.957 24.492-27.395-13.582-7.6914 66.445-161.57-4.6055-45.676 14.625-25.809 22.117-102.35 8.4648-14.934 15.398-27.164-36.688-20.793 32.348-57.047-18.801-55.531 8.4688-14.934 6.2539-39.523-6.8984-41.602-15.68-48.387 5.5312-79.426-25.812-14.621 12.312-21.734-26.887-101.39 7.2773 142.31s26.488 41.934 6.7344 98.949l-19.738 57 20.004 18.531-11.473 32.973-30.961 70.398s26.391 16.766 1.2539 29.438c-25.137 12.676 16.406 34.41 16.406 34.41l-13.008 48.266-27.184 38.453 2.082 40.66-12.41 50.398-16.391 19.422-13.73 62.215-14.543 104.82-28.223 18.121-1.0859 20.91-12.727 16.121-10.148 33.73-30.484 34.785 3.6289 37.941-23.883 42.113-3.2656 62.758" fill="#1e0e00"/>
 <g clip-path="url(#d)">
  <path d="m1007 180.76s34.859 109.49 26.887 155.24l-7.9727 45.727 13.586 7.707-21.555 38.02 26.043 23.73-20.797 36.684 12.312 32.113-9.918 42.824 7.293 34.641-1.9961 38.367-16.172 28.516 17.656 10.016-17.609 2.5742-8.25 24.043-4.9375 27.707-24.773 59.543 14.031 25.906-23.008 12.098 2.9883 23.219-22.332 39.406-9.3242 44.953-16.949 29.887s-24.676 30.891-32.332 57.047l-7.6602 26.172-43.324 19.426 1.8828 37.855-67.57 62.211s38.309-64.422 41.246-113.91l15.777-27.855 4.125-38.945 41.988-13.895 16.969-77.43 18.812-45.859-22.098-5.3633 23.418-6.4688 13.848-24.438-8.418-26.324 20.07-22.723 1.4023-40.48-14.242-28.715 43.949-58.547 11.57-128.06 9.8203-14.16-4.1602-27.492-0.57812-55.957 19.344-62.629s7.4297-142.96 0.95703-166.38" fill="#1e0e00"/>
 </g>
</svg>
