<?xml version="1.0" encoding="UTF-8"?>
<svg width="1587" height="1587" version="1.0" viewBox="0 0 1190.2 1190.2" xmlns="http://www.w3.org/2000/svg" zoomAndPan="magnify">
 <defs>
  <clipPath id="a">
   <path d="m0 0h1189.5v1189.5h-1189.5z"/>
  </clipPath>
  <clipPath id="b">
   <path d="m0 164.34h1189.5v861.21h-1189.5z"/>
  </clipPath>
 </defs>
 <g clip-path="url(#a)" fill="none">
  <path d="m0 0h1189.5v1189.5h-1189.5z"/>
  <path d="m0 0h1189.5v1189.5h-1189.5z"/>
 </g>
 <g clip-path="url(#b)">
  <path d="m442.98 738.93c0.44141 0.32422 0.91406 0.67969 1.418 1.0547 0.48828 0.39453 0.98047 0.84375 1.5078 1.3086 1.1016 0.88281 2.1289 2.0508 3.3047 3.2578 0.53516 0.65234 1.0859 1.332 1.6602 2.0391 0.58594 0.6875 1.0742 1.5078 1.6406 2.2891 0.90625 1.3711 1.7578 2.9062 2.5625 4.5312 1.0195 0.57422 2.0508 1.1406 3.0781 1.6719-1.3203-2.6602-2.793-5.0703-4.3555-7.1133-0.64453-0.78516-1.1992-1.5898-1.8516-2.2695-0.64844-0.68359-1.2695-1.3398-1.8672-1.9766-1.3125-1.1445-2.4531-2.2617-3.6523-3.0742-0.58203-0.41797-1.1133-0.83594-1.6328-1.1992-0.55078-0.33594-1.0625-0.64453-1.543-0.92969-0.46875-0.28906-0.91016-0.55078-1.3125-0.78906-0.41797-0.21094-0.80859-0.40234-1.1484-0.57422-1.3711-0.67578-2.0977-1.0312-2.0977-1.0312s0.69141 0.42578 1.9805 1.2227c0.32812 0.20312 0.69141 0.42969 1.0859 0.67578 0.37109 0.27734 0.78125 0.58203 1.2227 0.90625zm40.746 115.05c-2.1914-2.0781-4.2383-4.3477-6.0938-6.7852-1.8047-2.4805-3.375-5.1367-4.707-7.9375-0.61328-1.4258-1.2539-2.8438-1.7266-4.3203l-0.38672-1.1016-0.078125-0.22656-0.25391-0.88281c-0.21094-0.77344-0.46484-1.5703-0.64453-2.3203-1.5234-6.0039-2.2383-12.461-2.7031-18.758-0.38672-6.3672-0.75781-12.641-1.1289-18.711-0.36328-6.1016-0.91406-12.02-1.8203-17.602-0.78125-4.9336-1.8789-9.582-3.3516-13.809-0.625-0.24609-1.2461-0.48047-1.8711-0.74219-0.35938-0.16406-0.71484-0.33594-1.0703-0.49609 0.039063 0.11719 0.085938 0.22266 0.125 0.34766 1.4688 4.5469 2.4219 9.6641 3.1172 15.133 0.68359 5.4688 0.98438 11.297 1.2422 17.363 0.26953 6.0547 0.34766 12.359 0.78125 18.793 0.44141 6.4531 1.0664 12.973 2.707 19.586 0.20312 0.82813 0.44922 1.5742 0.67578 2.3633l0.16797 0.58984 0.085937 0.28516c0.054687 0.20703 0.078125 0.23047 0.11719 0.35547l0.43359 1.1914c0.52734 1.6055 1.2305 3.1367 1.9102 4.6875 1.4648 3.0273 3.207 5.918 5.1875 8.5938 2.0234 2.6602 4.2891 5.0664 6.707 7.2344 2.4297 2.168 5.0312 4.043 7.6719 5.7305 1.7188 1.0781 3.4727 2.0156 5.2383 2.8984 0.054688-1.2852 0.125-2.5625 0.22656-3.8438-1.1836-0.65625-2.3633-1.3555-3.5078-2.1133-2.4453-1.6406-4.8477-3.4531-7.0508-5.5039zm59.801 41.664c1.8047-2.0859 3.4844-3.8281 4.9336-5.1914 1.4609-1.3555 2.6602-2.375 3.5039-3.043 0.84375-0.65625 1.3242-0.97656 1.3242-0.97656s-0.51562 0.25781-1.4453 0.80078c-0.92188 0.54688-2.2852 1.3789-3.9023 2.5859-1.6172 1.2227-3.5312 2.7734-5.5586 4.7461-2.0195 1.9844-4.1797 4.3516-6.293 7.1406-2.082 2.8125-4.1523 6.0156-5.9922 9.5938-1.7734 3.6094-3.4688 7.5352-4.6914 11.766-0.72266 2.5625-1.3789 5.2266-1.8984 7.9375 1.2227 0.14844 2.5156 0.26172 3.8633 0.37891 0.41016-2.5 0.92188-4.957 1.5273-7.332 1.0664-4.0586 2.4531-7.8789 3.9688-11.426 1.6016-3.4922 3.3516-6.707 5.1562-9.5625 1.8594-2.8203 3.7227-5.3047 5.5039-7.418zm-4.4727 47.387c1.5547 0.39453 3.3047 0.88281 5.2383 1.2852 1.9531 0.33984 4.0586 0.84375 6.3281 1.0625 1.1367 0.12891 2.3047 0.26172 3.4961 0.39453 1.2031 0.097657 2.4414 0.089844 3.6953 0.14453 1.2539 0.078126 2.5391-0.023437 3.8398-0.0625h0.089844c1.5273-0.75 3.0898-1.4531 4.7305-2.0586 4.0898-1.5078 8.457-2.625 12.945-3.2891 0.49609-0.34375 0.97656-0.69922 1.4336-1.0938 2.1602-1.7734 3.9844-3.918 5.2773-6.2422 1.3086-2.3086 2.1055-4.7461 2.6094-7.0625 0.49609-2.3242 0.59766-4.5469 0.58203-6.5664-0.007813-2.0312-0.26562-3.8672-0.52734-5.4609-0.26953-1.6016-0.62109-2.9727-0.9375-4.0898-0.46484-1.5938-0.88281-2.6328-1.082-3.1133-0.015625 0.0625-0.039063 0.13281-0.0625 0.19531 0.085937 0.56641 0.21484 1.5781 0.33984 3.0664 0.10156 1.1367 0.14844 2.5078 0.17969 4.082-0.007813 1.5625-0.0625 3.3203-0.27344 5.2109-0.23047 1.8828-0.59375 3.8945-1.1992 5.9258-0.63281 2.0195-1.5469 4.0352-2.7305 5.9375-1.1875 1.9141-2.8438 3.5391-4.668 4.9883-1.8125 1.4727-4.0117 2.5078-6.2578 3.4141-1.1602 0.36719-2.2734 0.85938-3.5 1.0938l-1.7852 0.43359c-0.58984 0.15625-1.2188 0.20703-1.8203 0.31641-1.207 0.19531-2.4141 0.40234-3.6328 0.48047-1.207 0.10156-2.3984 0.26953-3.5977 0.25781-1.1914 0.027344-2.3633 0.058594-3.5156 0.089844-1.1523-0.023438-2.2852-0.046876-3.3828-0.070313-1.1055 0.007813-2.1758-0.089844-3.2109-0.16016-1.0469-0.054688-2.0547-0.11719-3.0195-0.17188-1.9453-0.17578-3.7188-0.33984-5.2891-0.48828-1.5859-0.12109-2.957-0.34766-4.0938-0.45703-2.2773-0.26172-3.5938-0.37109-3.5938-0.37109s1.2305 0.45703 3.4219 1.1719c1.0977 0.33984 2.4062 0.85156 3.9727 1.207zm5.4492-70.387c2.8242-0.41406 5.0234-0.87891 6.5117-1.2109 1.4844-0.33984 2.2734-0.52734 2.2734-0.52734s-0.80469 0.10938-2.3125 0.3125c-1.5195 0.19922-3.7344 0.41016-6.5586 0.60938-5.6367 0.32812-13.766 0.41016-23.277-1.1289-4.7383-0.78906-9.832-1.9453-15.004-3.75-2.1367-0.71875-4.2734-1.625-6.4102-2.5859-0.054688 1.1797-0.10156 2.3555-0.125 3.5391 1.875 0.73828 3.7344 1.418 5.5898 1.9688 5.4336 1.7031 10.738 2.6172 15.629 3.168 9.8242 1.0898 18.047 0.39453 23.684-0.39453zm177.65-36.348 0.42578-1.1914c0.039062-0.125 0.0625-0.14844 0.11719-0.35547l0.085937-0.28516 0.17578-0.58984c0.21875-0.78906 0.47266-1.5352 0.66797-2.3633 1.6406-6.6133 2.2656-13.133 2.707-19.586 0.43359-6.4336 0.51172-12.738 0.78516-18.793 0.26172-6.0664 0.55469-11.895 1.2383-17.363 0.69531-5.4688 1.6484-10.586 3.1172-15.133 0.039062-0.125 0.085937-0.23047 0.125-0.34766-0.35547 0.16016-0.71094 0.33203-1.0664 0.49609-0.62891 0.26172-1.25 0.48828-1.875 0.74219-1.4727 4.2266-2.5703 8.875-3.3516 13.809-0.90625 5.582-1.457 11.5-1.8203 17.602-0.37109 6.0703-0.74219 12.344-1.1289 18.711-0.46484 6.2969-1.1797 12.754-2.7031 18.758-0.17188 0.75-0.43359 1.5469-0.64062 2.3203l-0.25781 0.88281-0.078125 0.22656-0.38672 1.1016c-0.47266 1.4766-1.1133 2.8945-1.7266 4.3203-1.332 2.8008-2.9023 5.457-4.707 7.9375-1.8555 2.4375-3.9023 4.707-6.0898 6.7852-2.2148 2.0508-4.6094 3.8633-7.0547 5.5039-1.1445 0.75781-2.3203 1.457-3.5078 2.1133 0.10156 1.2812 0.17187 2.5586 0.22656 3.8438 1.7656-0.88281 3.5234-1.8203 5.2422-2.8984 2.6367-1.6875 5.2461-3.5625 7.6719-5.7305 2.4141-2.168 4.6836-4.5742 6.7031-7.2344 1.9805-2.6758 3.7148-5.5664 5.1875-8.5938 0.67969-1.5508 1.3828-3.082 1.918-4.6875zm-86.719 184.11c-0.76172-2.9258-2.3398-7.1289-5.6523-11.305-1.6484-2.082-3.707-4.1445-6.2031-5.9336-2.4766-1.8047-5.3398-3.3672-8.4766-4.5156-3.125-1.1523-6.4766-2.0039-9.9219-2.4688-1.7188-0.26953-3.4688-0.37109-5.2188-0.50391-1.7344-0.039063-3.4844-0.13281-5.2188-0.0625-1.7344-0.070313-3.4844 0.023437-5.2188 0.0625-1.75 0.13281-3.4922 0.23438-5.2148 0.50391-3.4453 0.46484-6.8008 1.3164-9.9258 2.4688-3.1367 1.1484-6 2.7109-8.4766 4.5156-2.4922 1.7891-4.5547 3.8516-6.2031 5.9336-3.3125 4.1758-4.8828 8.3789-5.6484 11.305-0.39844 1.4727-0.55859 2.6641-0.66016 3.4648-0.10156 0.80469-0.10938 1.2383-0.10938 1.2383s0.27344-1.7188 1.3477-4.5156c1.0781-2.7734 3.0195-6.6367 6.418-10.348 1.7031-1.8477 3.7695-3.6211 6.1562-5.1797 2.3984-1.5547 5.1406-2.8438 8.0898-3.8477 2.957-1.0078 6.1367-1.6445 9.4062-2.0703 1.6328-0.23828 3.2969-0.31641 4.9609-0.43359 1.6797-0.015625 3.3594-0.089843 5.0469 0h0.0625c1.6875-0.089843 3.3672-0.015625 5.0469 0 1.6641 0.11719 3.3281 0.19531 4.9648 0.43359 3.2656 0.42578 6.4453 1.0625 9.4023 2.0703 2.9531 1.0039 5.6914 2.293 8.0898 3.8477 2.3867 1.5586 4.4609 3.332 6.1562 5.1797 3.3984 3.7109 5.3438 7.5742 6.418 10.348 1.0742 2.7969 1.3477 4.5156 1.3477 4.5156s-0.007812-0.43359-0.10938-1.2383c-0.10156-0.80078-0.26172-1.9922-0.65625-3.4648zm-162.99-123.37c-25.516-19.672-41.055-41.141-50.117-57.34-9.293-17.992-15.375-36.289-19.27-51.043-0.71484-0.54297-1.4336-1.1094-2.168-1.6875-7.5859 1.2305-15.414 1.8359-23.324 1.918 11.246 94.133 60.5 149.64 60.5 149.64l19.668 17.023c-9.9297-21.336-19.461-50.758-20.871-86.809 19.566 21.051 35.582 28.301 35.582 28.301zm338.85-143.95c-0.71875 0.085937-1.0977 0.13281-1.0977 0.13281s0.37891 0.03125 1.1055 0.09375c0.63672 0.042969 1.5703 0.12109 2.7031 0.16797 0.20703-0.27734 0.42578-0.55078 0.63281-0.82812-0.070313 0.007813-0.16016 0.023437-0.23047 0.03125-1.3398 0.17969-2.3945 0.30859-3.1133 0.40234zm-24.859 35.578c-3.8906 14.754-9.9766 33.043-19.266 51.035-9.0664 16.199-24.605 37.668-50.121 57.34 0 0 16.02-7.25 35.582-28.301-1.4102 36.051-10.941 65.465-20.871 86.809l19.672-17.023s49.25-55.504 60.5-149.64c-7.9141-0.082031-15.738-0.6875-23.32-1.918-0.74219 0.57812-1.4609 1.1445-2.1758 1.6953zm-519.49-316.59c-15.035-6.9922-42.578-17.16-73.621-15.945-14.902 0.58203-30.602 3.7891-46.125 11.223-12.551 34.812-24.773 44.219-24.773 44.219 8.9727-10.664 14.809-26.137 18.594-41.027-0.023438 0.007812-0.042969 0.023438-0.066407 0.039062 2.9727-13.344 6.3633-34.16 8.668-65.277 2.9805-40.109 13.371-79.324 30.457-115.73 0 0 21.133 7.3945 39.984 11.02 1.5312 0.28516 23.496 7.418 33.535-2.0664 14.09 3.2812 17.691-9.0938 17.836-9.6523 0 0 0.33594-0.089843 0.88281-0.30078 1.1172-0.53516 3.0898-1.6406 4.7773-2.7188 5-3.9648 9.9727-12.516-1.0352-29.488 0 0 7.2305 6.5352 9.0547 15.742 4.3906-1.4648 7.457-6.2109 8.0391-10.941 3.1094-25.371-25.363-54.305-46.77-62.234-3.7383-1.3945-7.8086-1.5703-11.664-0.54297-15.453 4.1289-60.418 17.93-101.73 48.047-5.2617 3.832-9.7383 8.5898-13.277 13.988-6.5312 9.9727-12.918 20.055-19.715 29.859-59.566 85.969-88.488 174.76-88.551 174.95-6.8359 20.281-11.488 40.562-11.238 57.848 0.20703 14.328 7.4297 27.633 19.262 35.711 19.754 13.477 59.152 38.426 105.1 57.137 4.1797 1.75 26.336 10.836 56.961 19.523 4.7305-11.934 11.914-28.738 21.617-47.852-3.6875-1.5391-7.1758-3.2461-10.422-4.957-1.6641-0.83594-3.25-1.7109-4.7617-2.5938-1.5156-0.875-2.9727-1.7344-4.3359-2.625-1.3594-0.89062-2.6992-1.6641-3.8984-2.5312-1.2109-0.85938-2.3477-1.6758-3.4219-2.4414-2.1211-1.5469-3.8711-3.043-5.3516-4.2031-2.8242-2.5117-4.3828-3.9805-4.3828-3.9805s1.875 1.082 5.0508 3.043c1.625 0.91406 3.5977 2.0195 5.8672 3.2891 2.2969 1.2031 4.8672 2.5742 7.7344 3.9414 1.4141 0.72266 2.9258 1.4023 4.4883 2.0938 1.5664 0.70312 3.1602 1.4609 4.8398 2.1367 1.6797 0.70312 3.3828 1.4492 5.1719 2.1133 1.7891 0.66797 3.5664 1.4414 5.4414 2.0898 0.10156 0.039062 0.19922 0.070312 0.30078 0.10938 8.9883-17.324 19.957-36.289 32.98-55.078 4.8906-7.0625 9.4922-14.316 14.199-21.504 2.5469-3.8867 5.7734-7.3125 9.5586-10.066 7.0625-5.1523 14.27-9.6211 21.305-13.508-5.5664-4.2148-11.117-7.8047-16.559-10.859zm245.73-83.336 35.539 39.109c4.707 5.1797 9.8164 9.9453 15.242 14.32 14.262-4.4375 26.957-4.4219 29.227-4.375 2.4141-0.046875 16.551-0.070312 31.855 5.2344 5.1719-4.3594 9.957-9.1836 14.238-14.465l32.312-39.824c27.961-6.4492 45.164-47.324 45.164-47.324 23.652-53.777-25.809-46.629-25.809-46.629 29.008-129.92-89.859-129.95-98.559-129.78-8.7109-0.17188-127.57-0.14062-98.566 129.78 0 0-49.453-7.1484-25.801 46.629 0 0 17.199 40.875 45.156 47.324zm-15.711 272.28c29.188-14.043 37.488-43.5 39.832-57.758l22.906 25.215c3.3086 3.6328 6.8672 6.9844 10.645 10.066 4.707 4.0977 9.8711 7.6602 15.477 10.602 1.8906 0.99219 3.9492 1.6367 6.0625 1.9531v-0.22656c0-0.63281 0.007812-1.2695 0.015625-1.9023-1.5898-0.29688-3.1523-0.80469-4.6133-1.5898-9.7773-5.2188-18.598-12.086-26.051-20.297l-25.594-28.156c-20.129-4.6484-32.523-34.086-32.523-34.086-9.5391-21.691-2.5625-29.613 5.418-32.395-0.32422-0.058594-0.67969-0.12109-0.99609-0.17578-1.9453-0.24219-3.6562-0.38672-5.0625-0.55859-2.8203-0.31641-4.4453-0.54297-4.4453-0.54297s1.6172-0.13672 4.4648-0.30859c1.4258-0.070312 3.168-0.22656 5.1562-0.23438 1.9922 0.070313 4.2344 0.14844 6.6914 0.28906 0.71875 0.015624 1.4531 0.070312 2.207 0.14062 2.9922-0.10937 5.1523 0.19922 5.1523 0.19922-12.758-57.121 14.191-79.379 38.539-88.023-5.0078-4.1328-9.7539-8.6016-14.152-13.449l-31.816-35.012c-3.2539 19.801-14.777 60.707-55.305 80.199 22.449 23.07 26.164 49.508 26.164 49.508-7.1211-21.379-20.367-36.102-34.016-46.141-0.03125 0.007813-0.0625 0.023438-0.09375 0.03125 0 0-81.703-57.02-165.49-4.3125 1.8906 1.625 3.6953 3.2695 5.4531 4.9258 19.633-9.8984 36.941-15.125 44.48-17.137 2.7734-0.74609 5.707-0.61328 8.4023 0.37891 15.418 5.7227 35.918 26.555 33.676 44.824-0.41797 3.4062-2.625 6.8281-5.7852 7.8828-1.3164-6.6289-6.5195-11.34-6.5195-11.34 7.9297 12.223 4.3516 18.379 0.74609 21.238-1.2148 0.77344-2.6406 1.5703-3.4375 1.957-0.39453 0.15625-0.63672 0.21875-0.63672 0.21875-0.10547 0.39453-2.6992 9.3086-12.844 6.9531-4.75 4.4766-13.176 3.8008-18.734 2.7578 0.43359 1.1211 0.64453 1.7422 0.64453 1.7422-0.36328-0.62109-0.73438-1.2148-1.1016-1.8281-2.668-0.53516-4.6055-1.1172-4.9609-1.1836-13.578-2.6094-28.797-7.9375-28.797-7.9375-10.785 22.977-17.863 47.5-20.895 72.664 5.9609 0.92188 10.961 1.6172 14.523 2.0898 1.8555 0.23828 3.3125 0.43359 4.3086 0.55859 1 0.11328 1.5352 0.17578 1.5352 0.17578s-0.53516 0.046875-1.543 0.13281c-0.99609 0.078125-2.4766 0.21094-4.3555 0.26172-1.8828 0.070312-4.168 0.14844-6.7891 0.13281-2.3867-0.007812-5.0859-0.054687-7.9844-0.18359-0.26953 2.5-0.54688 4.9922-0.73438 7.5117-1.3477 18.145-3.2031 31.426-5 40.918 3.6211 0.26562 7.2461 0.46484 10.875 0.59766 8.6562-3.1211 17.297-4.5938 25.594-4.918 22.359-0.875 42.191 6.4531 53.023 11.492 15.422 8.6211 31.918 23.227 46.109 47.797 0 0-8.5234-25.547-32.727-46.379 13-8.1797 25.922-12.668 38.207-14.715-0.26562-3.8789-0.58984-7.6602-1.0469-11.32-0.96484-7.582-2.2891-14.699-4.3359-21.012-2.0352-6.3125-4.668-11.824-7.6484-16.316-0.78125-1.0938-1.4531-2.2305-2.2656-3.1914-0.79688-0.97656-1.5664-1.9219-2.3008-2.8359-1.6328-1.6641-3.0664-3.2969-4.5898-4.5195-0.73438-0.63672-1.4258-1.2656-2.0977-1.8125-0.70703-0.51953-1.3555-1.0078-1.9688-1.4648-0.61719-0.45703-1.1836-0.875-1.7031-1.2617-0.54688-0.33984-1.0508-0.65234-1.4922-0.92969-1.8047-1.1094-2.7656-1.7031-2.7656-1.7031s1.0156 0.50391 2.9219 1.4336c0.46875 0.23828 1.0039 0.5 1.5859 0.78906 0.5625 0.33203 1.168 0.70312 1.8359 1.0977 0.65625 0.40234 1.3672 0.83594 2.1289 1.293 0.72656 0.50391 1.4688 1.0781 2.2734 1.6758 1.6562 1.1211 3.2539 2.6641 5.0703 4.2578 0.82812 0.88281 1.6953 1.7969 2.5859 2.75 0.91406 0.94531 1.6797 2.0586 2.5703 3.1445 3.4062 4.4531 6.5508 10.035 8.9727 16.512 2.4766 6.4492 4.2188 13.738 5.457 21.488 0.59766 3.6641 1.0781 7.4258 1.4727 11.277 42.57-5.0508 76.316 18.469 76.316 18.469 0.023437-0.007813 0.046875-0.015625 0.070312-0.023438 9.8242 7.2266 19.359 17.836 24.492 33.23 0 0-2.6758-19.043-18.844-35.652zm34.793 321.32c-0.49609-1.9805-1.168-3.9727-1.625-6.0391-0.46484-2.0664-0.9375-4.1758-1.418-6.3047-0.36328-2.1445-0.75-4.3125-1.1523-6.4961-0.28906-2.1992-0.56641-4.4141-0.85156-6.6445-0.14063-2.2305-0.33594-4.4766-0.43359-6.7148-0.125-4.4844-0.125-8.9844 0.39453-13.359 0.070313-0.76562 0.16797-1.5352 0.26172-2.3008-1.3633-0.27734-2.6484-0.61719-3.8555-0.95313-0.13672 0.92969-0.27734 1.875-0.37109 2.8203-0.58203 4.5859-0.63281 9.2773-0.55078 13.949 0.10938 2.3359 0.34375 4.6602 0.51172 6.9766 0.31641 2.3008 0.63672 4.5898 0.95312 6.8594 0.20703 1.0781 0.42578 2.1328 0.63281 3.1992 1.5586 3.6016 2.4102 5.6602 2.4102 5.6602s-0.69141-1.1211-1.9141-3.1875c0.070312 0.33203 0.13281 0.67188 0.20312 1.0039 0.5625 2.168 1.1133 4.3086 1.6641 6.4141 0.24609 1.0586 0.59375 2.082 0.92187 3.0977 0.32422 1.0156 0.64063 2.0195 0.96484 3.0195 0.33594 0.99219 0.63672 1.9766 0.97656 2.9336 0.36328 0.95312 0.72656 1.8984 1.0781 2.8281 0.72656 1.8516 1.3672 3.6719 2.0977 5.3906 0.75781 1.6953 1.5 3.3438 2.207 4.9258 1.3438 3.1914 2.8867 5.9609 4.1484 8.4648 0.64844 1.2461 1.207 2.4297 1.8203 3.4766 0.60938 1.0508 1.168 2.0117 1.6719 2.8867 2.0195 3.4805 3.2109 5.4375 3.2109 5.4375s-0.875-2.1289-2.4766-5.8086c-0.40234-0.91406-0.84375-1.9258-1.332-3.0352-0.47266-1.1055-0.9375-2.332-1.4648-3.625-1.0039-2.5938-2.2734-5.4648-3.3906-8.7031-0.57812-1.6055-1.1836-3.2773-1.8086-5.0117-0.59766-1.7344-1.1641-3.5547-1.7656-5.4141-0.30078-0.92969-0.60547-1.8633-0.91406-2.8164-0.28516-0.96094-0.53516-1.9453-0.80469-2.9297zm60.484-259.03c-0.8125-0.64062-1.8203-1.3711-2.9805-2.1992-1.1836-0.80469-2.5-1.7422-4.0039-2.6641-1.4844-0.94531-3.1016-1.9648-4.8672-2.9414-1.75-1.0234-3.6328-2.0234-5.6055-3.0117-0.97656-0.51172-1.9883-0.98438-3.0195-1.4648-1.0312-0.48828-2.0664-0.97656-3.1289-1.4492-2.1602-0.85938-4.3203-1.8047-6.5312-2.6094-2.2383-0.74219-4.4453-1.5938-6.6914-2.1914-2.2266-0.66016-4.4336-1.2695-6.6094-1.6953-2.1602-0.48047-4.2578-0.92188-6.2773-1.1484-2.0156-0.24609-3.9023-0.59375-5.6836-0.61719-1.7656-0.10156-3.3828-0.16406-4.8164-0.21094-1.4297 0-2.6875 0.11719-3.707 0.16406-2.0586 0.125-3.2227 0.22266-3.2227 0.22266s1.1719 0.16406 3.207 0.39453c1.0078 0.11719 2.2461 0.22656 3.6367 0.40625 1.4023 0.24609 2.9727 0.51562 4.6836 0.78906 0.42578 0.0625 0.86719 0.12891 1.3086 0.20703 0.44141 0.085938 0.89062 0.20312 1.3477 0.30469 0.91406 0.19922 1.8516 0.40234 2.8281 0.61719 1.9414 0.36328 3.9453 0.97656 6.0352 1.5195 2.1055 0.49609 4.2148 1.2617 6.3867 1.9023 2.1836 0.61328 4.3281 1.4883 6.5117 2.2383 2.1758 0.75391 4.3047 1.6523 6.4336 2.4648 2.0742 0.92969 4.1797 1.7031 6.1484 2.6172 1.9727 0.90625 3.9062 1.7188 5.6953 2.5938 1.8125 0.84375 3.5 1.6719 5.0703 2.4414 1.5586 0.78125 2.9883 1.4922 4.2578 2.1367 1.2617 0.64844 2.3555 1.2227 3.2617 1.6953 0.90625 0.48047 1.6172 0.85938 2.1055 1.1133 0.48047 0.26563 0.73438 0.40625 0.73438 0.40625s-0.22266-0.19531-0.64062-0.54297c-0.42578-0.34766-1.0469-0.875-1.8672-1.4883zm144.74 25.586c0.57422-0.78125 1.0547-1.6016 1.6445-2.2891 0.57031-0.70703 1.1211-1.3867 1.6562-2.0391 1.1758-1.207 2.207-2.375 3.3047-3.2578 0.52734-0.46484 1.0234-0.91406 1.5078-1.3086 0.50391-0.375 0.97656-0.73047 1.418-1.0547s0.85156-0.62891 1.2227-0.90625c0.39453-0.24609 0.75781-0.47266 1.0781-0.67578 1.3008-0.79688 1.9883-1.2227 1.9883-1.2227s-0.72656 0.35547-2.0977 1.0312c-0.33984 0.17188-0.72656 0.36328-1.1445 0.57422-0.40234 0.23828-0.84375 0.5-1.3164 0.78906-0.48047 0.28516-0.99219 0.59375-1.543 0.92969-0.51562 0.36328-1.0508 0.78125-1.6328 1.1992-1.1992 0.8125-2.3359 1.9297-3.6523 3.0742-0.59766 0.63672-1.2148 1.293-1.8672 1.9766-0.64844 0.67969-1.207 1.4844-1.8516 2.2695-1.5625 2.043-3.0312 4.4531-4.3555 7.1133 1.0273-0.53125 2.0586-1.0977 3.0781-1.6719 0.80859-1.625 1.6602-3.1602 2.5625-4.5312zm-89.59-44.684c0.97266-0.21484 1.9102-0.41797 2.8242-0.61719 0.45703-0.10156 0.90625-0.21875 1.3477-0.30469 0.44922-0.078125 0.88281-0.14453 1.3086-0.20703 1.7109-0.27344 3.2812-0.54297 4.6836-0.78906 1.3984-0.17969 2.625-0.28906 3.6367-0.40625 2.0352-0.23047 3.207-0.39453 3.207-0.39453s-1.1641-0.097656-3.2227-0.22266c-1.0195-0.046875-2.2734-0.16406-3.707-0.16406-1.4336 0.046874-3.0508 0.10937-4.8164 0.21094-1.7812 0.023437-3.668 0.37109-5.6797 0.61719-2.0234 0.22656-4.1211 0.66797-6.2812 1.1484-2.1758 0.42578-4.3789 1.0352-6.6094 1.6953-2.2461 0.59766-4.4531 1.4492-6.6914 2.1914-2.2188 0.80469-4.3711 1.75-6.5312 2.6094-1.0625 0.47266-2.0977 0.96094-3.1289 1.4492-1.0273 0.48047-2.043 0.95313-3.0195 1.4648-1.9727 0.98828-3.8555 1.9883-5.5977 3.0117-1.7695 0.97656-3.3906 1.9961-4.875 2.9414-1.5039 0.92188-2.8203 1.8594-4.0039 2.6641-1.1602 0.82812-2.168 1.5586-2.9805 2.1992-0.82031 0.61328-1.4375 1.1406-1.8633 1.4883-0.41797 0.34766-0.64453 0.54297-0.64453 0.54297s0.25391-0.14062 0.73438-0.40625c0.48828-0.25391 1.2031-0.63281 2.1055-1.1133 0.90625-0.47266 2-1.0469 3.2617-1.6953 1.2695-0.64453 2.6992-1.3555 4.2578-2.1367 1.5703-0.76953 3.2578-1.5977 5.0703-2.4414 1.7891-0.875 3.7227-1.6875 5.6992-2.5938 1.9648-0.91406 4.0703-1.6875 6.1445-2.6172 2.1289-0.8125 4.2578-1.7109 6.4414-2.4648 2.1758-0.75 4.3203-1.625 6.5039-2.2383 2.1758-0.64062 4.2812-1.4062 6.3867-1.9023 2.0898-0.54297 4.0938-1.1562 6.0391-1.5195zm0.31641 285.05c-1.7109 0.16797-3.625 0.48828-5.7305 0.57812-1.043 0.078125-2.1367 0.14844-3.2656 0.22656-1.1211 0.015625-2.2852 0.03125-3.4844 0.046875-1.1914 0.054687-2.4062-0.046875-3.6445-0.125-0.62109-0.046875-1.2461-0.085938-1.875-0.10938-0.625-0.054688-1.2539-0.16016-1.8906-0.24609-0.63281-0.085937-1.2695-0.17188-1.9102-0.25781-0.63672-0.097656-1.2539-0.29297-1.8906-0.42578-0.63281-0.15234-1.2695-0.30859-1.9023-0.46484-0.62109-0.19922-1.2383-0.41016-1.8594-0.61719-1.2773-0.34766-2.4219-0.99219-3.6211-1.5195-0.59766-0.26953-1.125-0.66406-1.6953-0.99219-0.55859-0.33203-1.1328-0.66406-1.6211-1.0898l-1.5625-1.1758-1.4102-1.3555c-0.49219-0.42578-0.87891-0.95313-1.3047-1.4492-0.41016-0.49609-0.85156-0.97656-1.1953-1.5352-1.5234-2.082-2.6758-4.4219-3.5977-6.7734-0.92969-2.3555-1.543-4.7656-2.0273-7.0781-0.45703-2.3164-0.73047-4.5625-0.9375-6.6445-0.13281-2.0859-0.26562-4.0195-0.26562-5.7344-0.015625-1.7188 0.007813-3.2188 0.054688-4.457 0.10156-2.4805 0.24219-3.9062 0.24219-3.9062s-0.48828 1.3477-1.0547 3.7969c-0.55078 2.4453-1.1758 6.0078-1.332 10.359-0.046876 2.1719-0.054688 4.5469 0.25781 7.0586 0.31641 2.4922 0.71094 5.1562 1.6406 7.8125 0.18359 0.67188 0.44922 1.332 0.71875 1.9961 0.26953 0.66016 0.48828 1.3477 0.84375 1.9922 0.32422 0.64844 0.65234 1.3086 0.98438 1.9648 0.37891 0.64453 0.80469 1.2578 1.207 1.8906 0.37891 0.64453 0.88281 1.2148 1.3555 1.8125 0.48828 0.58203 0.92969 1.1992 1.5 1.7188l1.6328 1.6133 1.8125 1.4219c0.58984 0.49609 1.2617 0.875 1.9219 1.2656 0.66406 0.36328 1.3008 0.80469 1.9961 1.1133 1.3945 0.58984 2.7422 1.3008 4.1797 1.6719 0.70703 0.22656 1.418 0.44141 2.1133 0.66016 0.72266 0.15234 1.4336 0.27734 2.1445 0.41016 0.70703 0.11719 1.4102 0.28516 2.1133 0.35547 0.69922 0.0625 1.3945 0.125 2.0898 0.17969 0.69141 0.054688 1.3711 0.13672 2.0547 0.16016 0.67188 0 1.3438-0.007813 2.0039-0.023438 1.3242-0.023437 2.6172-0.03125 3.8555-0.19141 1.2461-0.13281 2.4609-0.22656 3.6211-0.37109 1.1484-0.21875 2.2617-0.42578 3.3242-0.62891 2.1406-0.33203 4.0312-0.94531 5.7266-1.3867 1.6953-0.41016 3.1289-0.94531 4.3125-1.3633 2.3594-0.82812 3.6836-1.3555 3.6836-1.3555s-1.4219 0.17969-3.8867 0.55859c-1.2227 0.19531-2.707 0.43359-4.4258 0.61328zm266.88-385.91c-2.8945 0.12891-5.5977 0.17578-7.9883 0.18359-2.625 0.015626-4.9102-0.0625-6.793-0.13281-1.8789-0.050781-3.3594-0.18359-4.3555-0.26172-1.0078-0.085937-1.543-0.13281-1.543-0.13281s0.53516-0.0625 1.5352-0.17578c0.99609-0.125 2.4531-0.32031 4.3125-0.55859 3.5508-0.47266 8.5625-1.168 14.523-2.0898-3.0352-25.164-10.105-49.688-20.895-72.664 0 0-15.223 5.3281-28.801 7.9375-0.35547 0.066406-2.2852 0.64844-4.9609 1.1836-0.36328 0.61328-0.73828 1.207-1.1016 1.8281 0 0 0.21094-0.62109 0.64453-1.7422-5.5586 1.043-13.98 1.7188-18.734-2.7578-10.141 2.3555-12.734-6.5586-12.844-6.9531 0 0-0.24219-0.0625-0.63672-0.21875-0.79688-0.38672-2.2188-1.1836-3.4375-1.957-3.6055-2.8594-7.1758-9.0156 0.74609-21.238 0 0-5.2031 4.7109-6.5195 11.34-3.1602-1.0547-5.3633-4.4766-5.7812-7.8828-2.2461-18.27 18.254-39.102 33.676-44.824 2.6914-0.99219 5.625-1.125 8.3984-0.37891 7.5391 2.0117 24.852 7.2383 44.484 17.137 1.7461-1.6562 3.5586-3.3008 5.4492-4.9258-83.781-52.707-165.49 4.3125-165.49 4.3125-0.03125-0.007812-0.0625-0.023437-0.09375-0.03125-13.648 10.039-26.895 24.762-34.016 46.141 0 0 3.7148-26.438 26.168-49.508-43.469-20.91-53.582-66.469-55.895-84.18-0.37109 0.11328-0.73828 0.23828-1.1094 0.34766l-31.414 38.699c-4.2891 5.2891-9.0195 10.105-14.121 14.48 23.527 9.3555 47.938 32.047 35.672 86.938 0 0 3.4297-0.49609 7.6484-0.023437 1.3164-0.16406 2.5938-0.29297 3.8398-0.31641 2.457-0.14063 4.6992-0.21875 6.6914-0.28906 1.9883 0.007813 3.7305 0.16406 5.1562 0.23438 2.8477 0.17188 4.457 0.30859 4.457 0.30859s-1.6172 0.22656-4.4336 0.54297c-1.4102 0.17188-3.1211 0.31641-5.0664 0.55859-1.1914 0.20703-2.4922 0.44141-3.8516 0.66406 7.4141 3.1758 13.176 11.379 4.1484 31.906 0 0-12.395 29.438-32.523 34.086l-23.27 28.668c-6.6523 8.1836-14.887 14.938-24.223 19.84-1.4727 0.77344-3.0352 1.2695-4.6406 1.5586 0.007813 0.625 0.015625 1.2539 0.015625 1.8789v0.23438c2.1133-0.31641 4.1758-0.96875 6.0703-1.9609 9.7539-5.125 18.23-12.062 25.176-20.629l22.629-27.871c0.26172-0.078125 0.52734-0.17188 0.78906-0.25 1.6719 12.754 8.9492 45.562 40.258 60.625-16.164 16.609-18.844 35.652-18.844 35.652 5.1328-15.395 14.668-26.004 24.492-33.23 0.023437 0.007813 0.046875 0.015625 0.070312 0.023438 0 0 33.738-23.52 76.316-18.469 0.40234-3.8516 0.875-7.6133 1.4727-11.277 1.2383-7.75 2.9805-15.039 5.457-21.488 2.4219-6.4766 5.5664-12.059 8.9727-16.512 0.89062-1.0859 1.6562-2.1992 2.5703-3.1445 0.89844-0.95312 1.7578-1.8672 2.5859-2.75 1.8203-1.5938 3.4141-3.1367 5.0703-4.2578 0.80469-0.59766 1.5469-1.1719 2.2773-1.6758 0.75781-0.45703 1.4688-0.89062 2.1367-1.293 0.65625-0.39453 1.2617-0.76562 1.8242-1.0977 0.58203-0.28906 1.1172-0.55078 1.5898-0.78906 1.9023-0.92969 2.918-1.4336 2.918-1.4336s-0.96094 0.59375-2.7578 1.7031c-0.44922 0.27734-0.95312 0.58984-1.5 0.92969-0.51953 0.38672-1.0859 0.80469-1.7031 1.2617-0.61328 0.45703-1.2617 0.94531-1.9688 1.4648-0.67188 0.54688-1.3594 1.1758-2.0977 1.8125-1.5234 1.2227-2.957 2.8555-4.5898 4.5195-0.73438 0.91406-1.5 1.8594-2.3008 2.8359-0.8125 0.96094-1.4844 2.0977-2.2656 3.1914-2.9805 4.4922-5.6133 10.004-7.6484 16.316-2.0469 6.3125-3.3672 13.43-4.3359 21.012-0.45703 3.6602-0.78125 7.4414-1.0469 11.32 12.285 2.0469 25.207 6.5352 38.207 14.715-24.203 20.832-32.727 46.379-32.727 46.379 14.191-24.57 30.688-39.176 46.109-47.797 10.832-5.0391 30.664-12.367 53.023-11.492 8.2969 0.32422 16.938 1.7969 25.602 4.918 3.6211-0.13281 7.2461-0.33203 10.867-0.59766-1.793-9.4922-3.6523-22.773-5-40.918-0.18359-2.5195-0.46484-5.0117-0.72656-7.5117zm-535.28 149.88s-0.38672-0.046875-1.1055-0.13281c-0.71875-0.09375-1.7656-0.22266-3.1133-0.40234-0.066406-0.007813-0.16016-0.023437-0.23047-0.03125 0.20703 0.27734 0.42578 0.55078 0.63281 0.82812 1.1328-0.046875 2.0703-0.125 2.7031-0.16797 0.72656-0.0625 1.1133-0.09375 1.1133-0.09375zm282.82 178.17c1.3477-0.11719 2.6406-0.23047 3.8633-0.37891-0.51953-2.7109-1.1758-5.375-1.8984-7.9375-1.2227-4.2305-2.918-8.1562-4.6914-11.766-1.8398-3.5781-3.9062-6.7812-5.9922-9.5938-2.1133-2.7891-4.2734-5.1562-6.293-7.1406-2.0273-1.9727-3.9414-3.5234-5.5586-4.7461-1.6172-1.207-2.9727-2.0391-3.9023-2.5859-0.92578-0.54297-1.4453-0.80078-1.4453-0.80078s0.48047 0.32031 1.3242 0.97656c0.84375 0.66797 2.043 1.6875 3.5039 3.043 1.4492 1.3633 3.1289 3.1055 4.9336 5.1914 1.7812 2.1133 3.6445 4.5977 5.5039 7.418 1.8047 2.8555 3.5547 6.0703 5.1562 9.5625 1.5156 3.5469 2.9023 7.3672 3.9727 11.426 0.60156 2.375 1.1133 4.832 1.5234 7.332zm-59.34-24.309c-0.023437-0.0625-0.046875-0.13281-0.0625-0.19531-0.19922 0.48047-0.61719 1.5195-1.082 3.1133-0.31641 1.1172-0.66797 2.4883-0.9375 4.0898-0.26172 1.5938-0.51172 3.4297-0.52734 5.4609-0.015625 2.0195 0.085938 4.2422 0.58203 6.5664 0.50391 2.3164 1.3008 4.7539 2.6094 7.0625 1.293 2.3242 3.1211 4.4688 5.2773 6.2422 0.45703 0.39453 0.94531 0.75 1.4336 1.0938 4.4922 0.66406 8.8555 1.7812 12.945 3.2891 1.6406 0.60547 3.2031 1.3086 4.7305 2.0586h0.089844c1.3008 0.039063 2.5859 0.14063 3.8398 0.0625 1.2539-0.054687 2.4961-0.046874 3.6953-0.14453 1.1914-0.13281 2.3594-0.26562 3.5-0.39453 2.2656-0.21875 4.3711-0.72266 6.3242-1.0625 1.9336-0.40234 3.6836-0.89062 5.2383-1.2852 1.5664-0.35547 2.875-0.86719 3.9727-1.207 2.1914-0.71484 3.4219-1.1719 3.4219-1.1719s-1.3164 0.10937-3.5898 0.37109c-1.1406 0.10938-2.5117 0.33594-4.0977 0.45703-1.5703 0.14844-3.3438 0.3125-5.2852 0.48828-0.96875 0.054687-1.9766 0.11719-3.0195 0.17188-1.0391 0.070312-2.1055 0.16797-3.2148 0.16016-1.0977 0.023437-2.2305 0.046875-3.3828 0.070313-1.1523-0.03125-2.3203-0.0625-3.5156-0.089844-1.1992 0.011718-2.3906-0.15625-3.5977-0.25781-1.2148-0.078125-2.4258-0.28516-3.6328-0.48047-0.60156-0.10937-1.2305-0.16016-1.8164-0.31641l-1.7891-0.43359c-1.2227-0.23437-2.3398-0.72656-3.5-1.0938-2.2461-0.90625-4.4453-1.9414-6.2539-3.4141-1.8281-1.4492-3.4844-3.0742-4.668-4.9883-1.1797-1.9023-2.1016-3.918-2.7344-5.9375-0.60547-2.0312-0.96875-4.043-1.1992-5.9258-0.21094-1.8906-0.26562-3.6484-0.27344-5.2109 0.03125-1.5742 0.085937-2.9453 0.17969-4.082 0.125-1.4883 0.25391-2.5 0.33984-3.0664zm80.574-40.125c-5.1719 1.8047-10.266 2.9609-15.004 3.75-9.5117 1.5391-17.641 1.457-23.277 1.1289-2.8242-0.19922-5.0391-0.41016-6.5586-0.60938-1.5078-0.20312-2.3125-0.3125-2.3125-0.3125s0.78906 0.1875 2.2734 0.52734c1.4883 0.33203 3.6875 0.79687 6.5117 1.2109 5.6367 0.78906 13.859 1.4844 23.684 0.39453 4.8906-0.55078 10.203-1.4648 15.629-3.168 1.8594-0.55078 3.7148-1.2305 5.5898-1.9688-0.023437-1.1836-0.070312-2.3594-0.125-3.5391-2.1367 0.96094-4.2734 1.8672-6.4102 2.5859zm-125.36 126.42c0.66016 0.015625 1.332 0.023438 2.0078 0.023438 0.67969-0.023438 1.3594-0.10547 2.0508-0.16016 0.69531-0.054687 1.3906-0.11719 2.0977-0.17969 0.69531-0.070313 1.4023-0.23828 2.1055-0.35547 0.71094-0.13281 1.4258-0.25781 2.1445-0.41016 0.70312-0.21875 1.4102-0.43359 2.1133-0.66016 1.4414-0.37109 2.7852-1.082 4.1797-1.6719 0.69531-0.30859 1.332-0.75 1.9961-1.1133 0.66016-0.39063 1.332-0.76953 1.9219-1.2656l1.8125-1.4219 1.6328-1.6133c0.57031-0.51953 1.0117-1.1367 1.5-1.7188 0.47266-0.59766 0.97656-1.168 1.3555-1.8125 0.40234-0.63281 0.82812-1.2461 1.207-1.8906 0.33594-0.65625 0.66016-1.3164 0.98438-1.9648 0.35547-0.64453 0.57422-1.332 0.85156-1.9922 0.26172-0.66406 0.52734-1.3242 0.71094-1.9961 0.92969-2.6562 1.3242-5.3203 1.6406-7.8125 0.3125-2.5117 0.30469-4.8867 0.26562-7.0586-0.16406-4.3516-0.78906-7.9141-1.3398-10.359-0.56641-2.4492-1.0547-3.7969-1.0547-3.7969s0.14062 1.4258 0.24219 3.9062c0.046875 1.2383 0.070313 2.7383 0.054688 4.457 0 1.7148-0.13281 3.6484-0.26562 5.7344-0.20703 2.082-0.47656 4.3281-0.93359 6.6445-0.49609 2.3125-1.1016 4.7227-2.0312 7.0781-0.91797 2.3516-2.0742 4.6914-3.5977 6.7734-0.33984 0.55859-0.78125 1.0391-1.1992 1.5352-0.41797 0.49609-0.80859 1.0234-1.3008 1.4492l-1.4102 1.3555-1.5547 1.1758c-0.49609 0.42578-1.0703 0.75781-1.6289 1.0898-0.57031 0.32812-1.0977 0.72266-1.6953 0.99219-1.1992 0.52734-2.3438 1.1719-3.6211 1.5195-0.62109 0.20703-1.2383 0.41797-1.8594 0.61719-0.63281 0.15625-1.2695 0.3125-1.9023 0.46484-0.63672 0.13281-1.2539 0.32812-1.8906 0.42578-0.64062 0.085938-1.2773 0.17188-1.9102 0.25781-0.63672 0.085937-1.2617 0.19141-1.8906 0.24609-0.625 0.023437-1.2539 0.0625-1.875 0.10938-1.2383 0.078125-2.4531 0.17969-3.6445 0.125-1.1992-0.015625-2.3594-0.03125-3.4844-0.046875-1.1289-0.078125-2.2227-0.14844-3.2656-0.22656-2.1055-0.089844-4.0195-0.41016-5.7305-0.57812-1.7188-0.17969-3.2031-0.41797-4.4336-0.61328-2.457-0.37891-3.8789-0.55859-3.8789-0.55859s1.3242 0.52734 3.6836 1.3555c1.1836 0.41797 2.6172 0.95312 4.3125 1.3633 1.6953 0.44141 3.5859 1.0547 5.7305 1.3867 1.0586 0.20312 2.1758 0.41016 3.3203 0.62891 1.1602 0.14453 2.375 0.23828 3.6211 0.37109 1.2383 0.16016 2.5312 0.16797 3.8555 0.19141zm620.05-528.14c-0.0625-0.19531-28.984-88.984-88.551-174.95-6.7969-9.8047-13.184-19.887-19.715-29.859-3.5391-5.3984-8.0117-10.156-13.277-13.988-41.316-30.117-86.281-43.918-101.73-48.047-3.8555-1.0273-7.9297-0.85156-11.668 0.54297-21.406 7.9297-49.879 36.863-46.766 62.234 0.58594 4.7305 3.6445 9.4766 8.0352 10.941 1.8242-9.207 9.0547-15.742 9.0547-15.742-11.008 16.973-6.043 25.523-1.0352 29.488 1.6875 1.0781 3.6602 2.1836 4.7773 2.7188 0.54687 0.21094 0.88281 0.30078 0.88281 0.30078 0.14453 0.55859 3.7461 12.934 17.836 9.6523 10.047 9.4844 32.004 2.3516 33.535 2.0664 18.852-3.625 39.984-11.02 39.984-11.02 17.094 36.406 27.477 75.621 30.457 115.73 2.3047 31.117 5.6992 51.934 8.6719 65.277-0.023437-0.015624-0.046875-0.03125-0.070313-0.039062 3.7852 14.891 9.6211 30.363 18.602 41.027 0 0-12.23-9.4062-24.781-44.219-15.52-7.4336-31.223-10.641-46.125-11.223-31.043-1.2148-58.586 8.9531-73.621 15.945-5.4492 3.0547-10.992 6.6445-16.559 10.859 7.0352 3.8867 14.246 8.3555 21.305 13.508 3.793 2.7539 7.0156 6.1797 9.5625 10.066 4.707 7.1875 9.3047 14.441 14.195 21.504 13.023 18.789 23.992 37.754 32.98 55.078 0.10156-0.039063 0.19922-0.070313 0.30078-0.10938 1.875-0.64844 3.6562-1.4219 5.4414-2.0898 1.7891-0.66406 3.5-1.4102 5.1719-2.1133 1.6875-0.67578 3.2852-1.4336 4.8398-2.1367 1.5625-0.69141 3.0742-1.3711 4.4883-2.0938 2.8672-1.3672 5.4453-2.7383 7.7344-3.9414 2.2695-1.2695 4.2422-2.375 5.875-3.2891 3.168-1.9609 5.043-3.043 5.043-3.043s-1.5586 1.4688-4.3828 3.9805c-1.4805 1.1602-3.2266 2.6562-5.3516 4.2031-1.0742 0.76563-2.2109 1.582-3.418 2.4414-1.1953 0.86719-2.543 1.6406-3.9023 2.5312-1.3633 0.89062-2.8203 1.75-4.3359 2.625-1.5117 0.88281-3.0977 1.7578-4.7617 2.5938-3.2422 1.7109-6.7344 3.418-10.422 4.957 9.7031 19.113 16.887 35.918 21.617 47.852 30.625-8.6875 52.781-17.773 56.961-19.523 45.945-18.711 85.344-43.66 105.1-57.137 11.828-8.0781 19.051-21.383 19.258-35.711 0.25-17.285-4.3945-37.566-11.238-57.848zm-581.77 296.09c-0.082031-2.6328-0.22266-5.1328-0.35547-7.4414-0.23828-4.6055-0.53906-8.4492-0.77344-11.137-0.23047-2.6875-0.41016-4.2266-0.41016-4.2266s-0.17969 1.5391-0.41016 4.2266c-0.23047 2.6875-0.53516 6.5312-0.77344 11.137-0.13281 2.3086-0.26562 4.8086-0.35547 7.4414-0.10156 2.6484-0.22656 5.4297-0.28125 8.3125-0.054688 2.8789-0.17578 5.8633-0.17578 8.8828-0.023437 3.0273-0.039062 6.1016-0.070312 9.1758 0.03125 3.0742 0.054687 6.1484 0.078125 9.168 0.007812 3.0312 0.12109 6.0039 0.17578 8.8906 0.046875 2.8828 0.17969 5.6641 0.28125 8.3047 0.082031 2.6484 0.22266 5.1406 0.34766 7.4414 0.24609 4.6133 0.55078 8.457 0.77344 11.145 0.10938 1.3477 0.23047 2.3984 0.30078 3.1211 0.070313 0.71875 0.10938 1.1055 0.10938 1.1055s0.039062-0.38672 0.10938-1.1055c0.070313-0.72266 0.19141-1.7734 0.30078-3.1211 0.22656-2.6875 0.52734-6.5312 0.76562-11.145 0.13281-2.3008 0.27344-4.793 0.35547-7.4414 0.10156-2.6406 0.23438-5.4219 0.28125-8.3047 0.054688-2.8867 0.16797-5.8594 0.17578-8.8906 0.023438-3.0195 0.046875-6.0938 0.070313-9.168-0.023438-3.0742-0.039063-6.1484-0.0625-9.1758-0.007813-3.0195-0.12109-6.0039-0.17578-8.8828-0.054687-2.8828-0.17969-5.6641-0.28125-8.3125zm70.133 172.2c-1.207 0.33594-2.4922 0.67578-3.8555 0.95313 0.09375 0.76562 0.19531 1.5352 0.26172 2.3008 0.51953 4.375 0.51953 8.875 0.39453 13.359-0.097656 2.2383-0.29297 4.4844-0.43359 6.7148-0.28516 2.2305-0.5625 4.4453-0.85156 6.6445-0.40234 2.1836-0.78906 4.3516-1.1445 6.4961-0.48828 2.1289-0.96094 4.2383-1.4258 6.3047-0.45313 2.0664-1.1289 4.0586-1.625 6.0391-0.26953 0.98438-0.51563 1.9688-0.80469 2.9297-0.30859 0.95312-0.60938 1.8867-0.91406 2.8164-0.60156 1.8594-1.1602 3.6797-1.7656 5.4141-0.61719 1.7344-1.2305 3.4062-1.8086 5.0117-1.1172 3.2383-2.3867 6.1094-3.3906 8.7031-0.51953 1.293-0.99219 2.5195-1.4648 3.625-0.48828 1.1094-0.92969 2.1211-1.332 3.0352-1.6016 3.6797-2.4766 5.8086-2.4766 5.8086s1.1914-1.957 3.2148-5.4375c0.5-0.875 1.0586-1.8359 1.6719-2.8867 0.60938-1.0469 1.168-2.2305 1.8242-3.4766 1.2539-2.5039 2.7969-5.2734 4.1445-8.4648 0.70312-1.582 1.4375-3.2305 2.2031-4.9258 0.73047-1.7188 1.3711-3.5391 2.0977-5.3906 0.35156-0.92969 0.71484-1.875 1.0781-2.8281 0.33984-0.95703 0.64844-1.9414 0.97656-2.9336 0.32422-1 0.64062-2.0039 0.96484-3.0195 0.32031-1.0156 0.67578-2.0391 0.92187-3.0977 0.55078-2.1055 1.1094-4.2461 1.6641-6.4141 0.070313-0.33203 0.13281-0.67187 0.20312-1.0039-1.2227 2.0664-1.9141 3.1875-1.9141 3.1875s0.85156-2.0586 2.4102-5.6602c0.20703-1.0664 0.43359-2.1211 0.63281-3.1992 0.31641-2.2695 0.63672-4.5586 0.95312-6.8594 0.17188-2.3164 0.40234-4.6406 0.51172-6.9766 0.085938-4.6719 0.03125-9.3633-0.55078-13.949-0.09375-0.94531-0.22266-1.8906-0.37109-2.8203" fill="#393536"/>
 </g>
</svg>
