<?xml version="1.0" encoding="UTF-8"?>
<svg width="1587" height="1587" version="1.0" viewBox="0 0 1190.2 1190.2" xmlns="http://www.w3.org/2000/svg" zoomAndPan="magnify">
 <defs>
  <clipPath id="b">
   <path d="m0 0h1189.5v1189.5h-1189.5z"/>
  </clipPath>
  <clipPath id="a">
   <path d="m0.88281 332.07h1187.8v486.45h-1187.8z"/>
  </clipPath>
 </defs>
 <g clip-path="url(#b)" fill="#fff">
  <path d="m0 0h1189.5v1189.5h-1189.5z"/>
  <path d="m0 0h1189.5v1189.5h-1189.5z"/>
 </g>
 <g clip-path="url(#a)">
  <path d="m907.14 571.79c6.7852 31.184 2.375 54.809-13.129 70.312-7.3125 7.3242-12.785 8.9727-17.664 5.3281-15.094-11.277-9.9062-43.574 10.344-64.406 5.0312-5.1758 16.84-13.961 18.93-14.086 0.5-0.027344 1.1562 1.2109 1.5195 2.8516zm-685.01-19.047c2.1094 1.3555 6.5195 18.543 8.6797 33.816 2.4414 17.27 2.4297 53.652-0.027344 78.141-4.2773 42.668-14.656 92.027-25.242 120.05-3.6719 9.7188-10.879 23.039-12.809 23.676-3.6484 1.2031-3.5469-33.523 0.19922-68.109 1-9.2344 2.7266-25.879 3.8359-36.988 1.1133-11.109 2.8438-28.152 3.8516-37.871 1.0039-9.7188 2.6797-26.762 3.7227-37.871 1.0391-11.109 2.4531-25.879 3.1406-32.82 5.043-50.875 4.0547-46.125 9.2227-44.324 2.2695 0.78906 4.6445 1.793 5.4258 2.3008zm-4.1055-10.492c-1.0273 1.1719-5.7617-4.7969-4.9062-6.1836 0.625-1.0117 1.6719-0.31641 3.1445 2.082 1.2383 2.0195 2.0117 3.8164 1.7617 4.1016zm547.67-9.9727c5.6172 4.9492 8.9062 13.258 8.0977 20.449-1.168 10.363-28.035 61.855-38.727 74.23l-3.8164 4.418-0.058594-4.168c-0.25781-20.07 17.32-86.91 25.566-97.199 1.9453-2.4297 4.2656-1.8398 8.9375 2.2695zm-248.34-7.4453c2.2969 4.418 2.3398 11.359 0.11719 16.66-2.2266 5.3008-10.223 12.246-14.102 12.246-1.7656 0-3.1523-0.16797-3.1523-0.37891 0-2.7891 9.0117-30.926 10.879-33.957 0.94531-1.5391 4.0273 1.1367 6.2578 5.4297zm-217.75-56.555c0 3.0273-0.30859 3.5625-1.2227 2.1445-1.6289-2.5234-1.6602-7.9805-0.042969-6.9727 0.71094 0.44531 1.2656 2.5547 1.2656 4.8281zm594.41-87.035c7.3242 2.6094 13.5 8.2148 17.047 15.457 2.9688 6.0781 3.3164 8.0781 2.7891 16.031-0.85547 12.879-5.5039 21.754-17.812 34.031-15.797 15.754-36.594 24.52-63.594 26.812-5.2969 0.44922-9.2734 0.24609-9.7383-0.5-1.293-2.0977 10.469-35.473 17.621-49.988 16.352-33.203 35.688-48.27 53.688-41.844zm-639.96-40.105c6.0469 5.0391 9.2773 12.391 9.9453 22.617 1.2266 18.895-8.6992 38.754-31.676 63.367-4.125 4.4219-7.8125 7.793-8.1406 7.4492-0.63281-0.67188 2.7852-27.77 5.5156-43.676 5.7109-33.328 12.695-53.02 18.805-53.02 0.89844 0 3.4062 1.4727 5.5508 3.2617zm-14.258-7.7461c-6.9688 2.5742-12.629 8.6484-18.285 19.629-10.426 20.258-18.141 50.75-23.473 92.785-1.2812 10.098-1.7695 11.203-6.0625 13.703-9.5391 5.5547-31.543 16.125-43.781 21.031-60.691 24.332-85.621 38.047-107.63 59.215-23.094 22.211-35.051 44.156-38.988 71.547-1.7578 12.246-0.13281 27.605 4.1328 39.008 3.2109 8.582 11.535 18.305 15.676 18.305 3.7773 0 3.7891-0.50391 0.10156-5.4297-20.277-27.094-14.43-72.586 13.871-107.93 20.391-25.469 45.332-41.102 104.51-65.496 16.023-6.6055 35.027-15.027 42.203-18.703l13.062-6.6914-0.63281 6.5c-0.34766 3.5938-2.0781 18.367-3.8672 33.012-3.1484 25.793-3.8203 31.559-7.668 65.645-1.9258 17.074-4.3906 40.773-7.6211 73.215-9.25 93.039-11.062 135.09-6.582 152.75 4.3867 17.297 10.977 23.949 22.711 22.934 10.555-0.91406 16.984-9.4258 25.422-33.664 11.375-32.68 21.965-85.336 25.895-128.76 3.3711-37.238 0.25391-82.559-6.9844-101.49-0.50391-1.3164 0.71094-1.9922 4.75-2.6406 10.453-1.6875 25.738-10.27 36.34-20.398 5.4219-5.1836 10.156-8.8945 10.547-8.2695 1.7383 2.8047 14.559 10.199 20.996 12.113 3.7539 1.1172 11.227 2.0273 16.652 2.0273s9.8438 0.28125 9.8438 0.63281c0 0.34375-1.3789 5.9297-3.0547 12.367-5.2461 20.199-8.6914 46.547-8.0352 61.477 0.89062 20.199 5.6094 28.758 16.516 29.953 12.141 1.332 16.941-4.1992 47.707-54.945 8.2656-13.637 14.973-23.922 14.938-22.914-0.035156 1.0117-0.87109 7.7656-1.8672 15.086-3.2969 24.238-2.0664 46.965 3.0625 56.555 3.7617 7.0312 16.152 10.02 24.23 5.8398 7.1836-3.7188 21.32-25.406 31.613-48.508l4.2188-9.4648 1.4844 11.992c3.5781 28.906 15.867 43.109 35.738 41.309 9.3164-0.84766 16.477-4.8281 25.93-14.422 7.5-7.6094 19.969-25.625 28.215-40.773l5.1523-9.4688-0.92188 16.41c-1.4102 24.871-1.168 36.359 0.83594 40.145 3.3086 6.2383 13.969 7.1094 24.316 1.9922 4.8633-2.4062 4.75-2.1211 8.1719-20.676 1.6914-9.1836 9.7227-31.434 15.305-42.418 7.8281-15.398 14.211-24.984 22.953-34.461 6.168-6.6914 16.52-14.645 19.055-14.645 1.9766 0 2.6094 9.0898 1.2109 17.297-0.80469 4.707-4.3633 18.555-7.8828 30.672-13.578 46.711-17.426 67.918-17.426 95.941 0 20.07 2.0234 30.832 7.0469 37.492 5.8164 7.7031 18.375 8.6484 25.125 1.8945 4.8086-4.8125 14.336-25.375 31.047-67.031l14.379-35.852 0.71875 10.602c1.1992 17.676 5.3789 28.355 12.531 32.047 4.6641 2.4141 12.996 2.4258 17.664 0.027343 6.5234-3.3516 16.051-16.797 28.266-39.898l6.8047-12.879v21.336c0 28.91 3.0352 50.391 8.6914 61.477 2.2109 4.3477 8.7266 8.4609 13.395 8.4609 8.7695 0 13.004-5.5586 29.84-39.137 10.402-20.746 31.781-58.824 48.898-87.102 15.051-24.871 18.652-30.145 19.734-28.906 1.6523 1.8906 14.012 36.477 13.188 36.91-0.20703 0.11328-2.9023 1.4727-6.0547 3.0586-33.562 16.895-52.66 63.559-34.637 84.625 5.2578 6.1445 11.039 8.2812 22.02 8.1484 21.352-0.26562 42.113-17.492 50.586-41.98 4.5664-13.188 4.7148-34.84 0.33594-49.738-0.63281-2.1523-0.20312-2.3047 4.2188-1.4961 10.277 1.8828 24.602 7.6406 50.215 20.191 49.336 24.176 61.07 27.762 90.848 27.762 18.797 0 20.883-0.24219 30.281-3.4883 30.738-10.625 49.391-28.07 70.648-66.07 3.957-7.0664 6.8398-13.441 6.4062-14.137-1.4062-2.2188-5.6328-1.3906-7.6992 1.5156-1.0898 1.5312-6.5938 9.8438-12.285 18.555-32.914 50.367-71.734 67.719-118.26 52.852-12.703-4.0586-21.199-7.7539-50.477-21.938-29.398-14.246-45.953-20.426-58.035-21.664l-7.6992-0.79297-7.3672-15.273c-12.059-24.996-22.18-34.816-34.27-33.246-6.7266 0.87109-7.6641 1.8164-14.527 14.562-3.2695 6.0664-12.801 22.848-21.309 37.492-8.4609 14.582-23.066 40.145-32.438 56.809-24.434 43.426-25.918 45.789-26.961 43.043-1.2148-3.1836 0.52734-48.598 2.6484-68.922 3.2227-30.895 7.8008-57.691 15.988-93.543l3.918-17.168 12.117-0.85156c30.531-2.1562 53.754-11.363 71.668-28.418 23.344-22.23 28.332-48.984 12.438-66.668-17.828-19.832-52.566-18.461-78.43 3.1016-15.465 12.887-31.625 39.312-41.414 67.719-2.3477 6.8164-4.543 12.652-4.8906 13-1.8281 1.8242-36.211-9.6836-74.062-24.785-51.988-20.746-62.844-23.926-90.723-26.574-46.938-4.4609-91.207 16.609-107.36 51.109-4.7344 10.098-5.5742 14.098-3.1641 15.027 3.1602 1.2266 5.2031-0.38672 6.7148-5.3086 1.9922-6.4805 10.82-19.566 18.141-26.891 18.93-18.941 42.77-28 73.559-27.945 25.863 0.039063 38.738 3.4961 90.465 24.293 33.941 13.645 58.738 22.289 74.574 25.996 5.2969 1.2422 9.7148 2.6445 9.7148 3.0938s-1.3867 6.5-3.0469 13.316c-2.8633 11.742-5.6523 25.098-7.5898 36.359l-0.84766 4.9219-4.0352-3.9102c-14.113-13.672-38.797-8.3359-50.215 10.852-1.5039 2.5273-3.8555 5.8594-5.1133 7.2617-1.2773 1.4141-7.1094 13.945-12.895 27.707-23.816 56.68-34.219 80.438-42.832 97.832l-9.0664 18.305-0.41016-5.6797c-0.92188-12.664 4.9023-50.367 13.648-88.363 7.5859-32.949 8.8359-39.578 9.6094-51.004 1.2031-17.672-2.875-27.688-13.004-31.926-19.035-7.957-41.316 9.7109-61.281 48.59l-6.1016 11.867 1.0156-15.59c0.55469-8.5859 1.0078-22.199 1.0078-30.297 0-12.75-0.32031-15.059-2.3867-17.355-4.9961-5.5586-17.973-6.2383-23.355-1.2305-3.0859 2.8711-4.7734 8.6758-7.1641 24.707-1.5195 10.18-3.0078 14.52-9.8164 28.656-11.973 24.871-22.18 40.602-34.734 53.523-5.6406 5.8086-15.902 12.879-18.688 12.879-0.96094 0-2.9492-2.6523-4.3516-5.8086-3.7266-8.3711-4.4336-25.371-1.8086-43.426 2.8086-19.312 2.6523-18.934 7.8008-18.934 14.406 0 25.742-13.004 25.742-29.539 0-8.8359-2.4961-13.965-9.2148-18.934-5.1406-3.8008-20.816-3.7188-28.137 0.14844-10.672 5.6367-19.668 20.805-23.793 40.117-3.375 15.781-26.617 59.836-39.297 74.48l-3.2773 3.7852 0.69141-10.098c0.38281-5.5469 3.6016-24.613 7.1406-42.289 7.4805-37.363 8.9336-51.309 5.8438-56.047-2.9297-4.4922-10.773-6.582-17.336-4.6172-5.6758 1.6992-8.8906 5.8789-11.715 15.219-2 6.6094-5.1367 12.246-24.602 44.184-19 31.18-35.336 54.281-38.379 54.281-2.1719 0 0.44141-16.41 9.25-58.07 2.1367-10.098 4.2109-23.766 4.6289-30.484 0.73828-11.863 0.67187-12.266-2.5234-15.426-4.2422-4.1953-12.113-4.4609-17.539-0.58984-4.0547 2.8945-13.754 4.4492-19.18 3.0742-4.918-1.2461-11.902-8.0781-15.492-15.148-5.6367-11.117-5.7812-12.875-1.9531-24.109 2.9414-8.6289 3.4414-12.117 3.4414-23.984 0-11.992-0.40234-14.695-2.9414-19.82-3.2969-6.6523-8.668-9.3359-15.734-7.8672-6.4688 1.3438-9.7891 4.207-12.926 11.152-7.1094 15.723-6.7266 38.879 0.94141 57.309l3.7852 9.0898-4.1523 4.7969c-10.934 12.625-28.035 23.691-38.746 25.082-5.1211 0.66406-5.2031 0.60937-8.0117-5.4531-1.5586-3.3555-5.5469-9.6562-8.832-13.949l-5.9961-7.8281 1.1992-12.367c0.66016-6.8164 1.7383-16.906 2.3984-22.473 0.66406-5.5977 1.8438-16.281 2.6484-23.984l1.4531-13.887 13.516-13.887c23.598-24.234 34.207-43.094 35.156-62.484 0.58984-12.121-0.78516-18.586-5.5-25.879-6.3672-9.8477-16.5-13.77-26.266-10.164" fill="#231f20"/>
 </g>
 <path d="m435.93 461.58c-1.3242 2.4766-3.7734 19.691-3.8086 26.762-0.015625 3.6602 3 5.5156 6.6562 4.1016 3.707-1.4375 8.2148-24.172 5.9688-30.105-1.5312-4.0391-6.8203-4.4961-8.8164-0.75781" fill="#231f20"/>
</svg>
