<?xml version="1.0" encoding="UTF-8"?>
<svg width="1587" height="1587" version="1.0" viewBox="0 0 1190.2 1190.2" xmlns="http://www.w3.org/2000/svg" zoomAndPan="magnify">
 <defs>
  <clipPath id="a">
   <path d="m0 0h1189.5v1189.5h-1189.5z"/>
  </clipPath>
  <clipPath id="b">
   <path d="m1 277.28h1174v643.09h-1174z"/>
  </clipPath>
 </defs>
 <g clip-path="url(#a)" fill="#fff">
  <path d="m0 0h1189.5v1189.5h-1189.5z"/>
  <path d="m0 0h1189.5v1189.5h-1189.5z"/>
 </g>
 <g clip-path="url(#b)">
  <path d="m1157.8 818.32c-11.348 12.199-27.332 19.07-43.836 19.242l-70.484 0.34375c-9.9688 20.961-31.285 34.535-54.664 34.535-2.2344 0-4.2969-0.17188-6.5312-0.34375-8.082-0.85938-15.301-1.7188-21.66-2.5781-12.207-1.5469-22.004-2.75-34.383-3.2656h-0.34375c-8.7656-0.34375-17.707-1.0312-26.301-1.7148-10.316-0.85937-20.113-1.5469-28.539-1.7188h-2.2344l-6.5312-0.6875c-25.441-1.375-47.273-2.5781-68.59-7.2188l-30.086-6.1836c-7.3906-1.5469-14.094-4.2969-20.113-8.0742-3.2656 3.6055-6.5312 7.043-9.9688 10.309-46.414 46.047-103.14 69.41-168.12 69.41h-4.8125c-49.336-0.85938-97.816-17.523-136.49-46.73-0.51563-0.34375-0.85938-0.6875-1.375-1.0312-13.926-11.168-25.789-23.539-36.273-36.941-7.0508 10.309-17.363 18.727-29.742 23.195-13.062 4.6406-37.473 12.715-55.008 14.434-3.7812 0.34375-7.9102 0.51562-12.551 0.51562-11.688 0-26.816-1.2031-46.414-3.6094-17.707-2.2344-33.004-12.027-42.633-25.945-17.191 4.9844-27.676 7.2188-37.477 8.0781-2.2344 0.17188-8.9375 0.85938-26.129 0.85938-6.875 0-14.613-0.17188-22.176-0.34375-29.91-0.85938-54.836-23.367-58.621-53.09l-6.7031-53.438c-21.66-7.5586-37.992-27.145-40.227-51.371l-7.0469-72.848c-1.5469-15.977 3.4375-31.957 13.578-44.328 3.7852-4.6367 8.4258-8.7617 13.41-12.027l-17.535-155.14c-3.2656-28.352 13.926-55.152 41.086-64.258 25.098-8.4219 43.836-13.059 58.965-14.434 2.9219-0.34375 7.5625-0.6875 14.098-0.6875 6.7031 0 15.125 0.51562 26.988 1.5469 5.3281-16.84 17.707-30.926 34.723-37.973 25.617-10.652 42.461-15.461 58.105-17.008 3.7812-0.34375 7.7383-0.51562 12.207-0.51562 10.312 0 22.691 1.0312 45.727 3.6094 28.707 3.2617 51.227 26.285 53.633 55.152l10.316 119.75c30.941-48.449 78.047-85.219 139.93-108.93 1.3789-0.6875 2.9258-1.2031 4.3008-1.8906 23.035-8.7617 48.477-13.059 75.637-13.059h4.4688c60.512 1.0312 115.35 24.055 159.36 66.836 5.3281-21.477 22.004-38.832 44.008-44.5 22.52-5.6719 39.883-8.418 54.664-8.418h2.0664c18.047 0.34375 40.051 4.9805 65.496 14.086 18.562 6.7031 32.316 21.648 37.816 39.863 7.2227-16.152 21.488-28.695 39.539-33.676 24.754-6.7031 52.262-8.0742 71.172-8.0742 17.703 0 34.895 1.1992 46.93 3.2617 26.301 4.6406 46.414 25.773 49.68 52.23 2.2344 17.871 2.0625 34.191 1.8906 49.828-0.17188 11.168-0.17188 21.648 0.51562 31.957v0.51562c1.0312 17.18 1.5469 38.656 2.0625 61.508 0.51562 21.82 0.85938 44.5 1.8906 67.008 0.51562 13.574 1.375 35.223 2.0625 58.07 1.0312 33.504 2.4102 71.305 3.4414 90.719 1.0312 16.664-4.8164 32.988-16.16 45.188z" fill="#ec008c"/>
 </g>
 <path d="m1157 767.64c-1.0312-20.277-2.0625-59.449-2.9219-93.984-0.6875-23.367-1.2031-45.359-1.7188-59.102-1.0312-23.539-1.2031-48.109-1.5508-69.758-0.34375-23.023-0.6875-44.672-1.5469-61.336-0.85938-12.371-0.6875-24.57-0.51562-36.254 0.17188-14.945 0.51562-30.41-1.375-46.043-1.2031-10.137-8.9375-18.387-18.91-20.277-9.9688-1.8867-25.441-2.918-41.254-3.0898v11.684-11.684c-16.848-0.17188-41.602 0.85938-62.918 6.5273-10.832 2.75-18.223 13.059-17.363 24.227 2.4062 35.738 9.625 158.41 10.484 186.93 0 2.918 0 5.668 0.17188 8.0742 0 2.0625 0.17188 4.1211 0 5.4961v1.5469c0.51562 13.23 0.85938 28.352 1.0312 45.703 0.17188 11.168 0.34375 23.711 0.51562 37.109-0.6875-0.17188-1.5469-0.34375-2.2344-0.34375l-26.129-1.7148c-25.613-1.8906-41.43-3.6094-59.824-5.8438-5.5-0.6875-11.516-1.375-18.051-2.0625 0.34375-3.0898 0.85938-6.0117 1.2031-8.9336 6.1914-45.531 8.7695-64.43 10.66-90.371l10.484-153.26v-0.17187l1.7188-31.098c0.51953-10.309-5.6719-19.758-15.297-23.195-22.004-8.0742-40.398-12.199-54.668-12.543h-1.5469c-11.688 0-26.988 2.2344-46.586 7.043-9.8008 2.4062-17.02 10.996-17.707 20.961l-7.3906 106.7c-9.8008-28.18-24.41-54.637-43.492-78.348-0.17188-0.17188-0.34375-0.51562-0.51562-0.6875-39.883-45.703-91.629-70.617-149.56-71.988h-3.9531c-23.207-0.17188-44.695 3.4336-63.949 10.48-0.85938 0.34375-1.8906 0.6875-2.7539 1.1992-52.945 19.59-94.031 49.484-122.05 89.172-19.598 27.664-32.836 59.965-39.711 96.902h-1.8906c-4.6406 0.34375-11.004 1.0312-18.566 1.8906-2.4062 0.17188-4.9844 0.51562-7.3906 0.85938l-18.395-233.49c-0.85938-11.168-9.457-19.934-20.457-21.305-21.66-2.5781-33.695-3.6094-42.633-3.6094-3.2656 0-6.0156 0-8.7695 0.34375-11.859 1.0312-26.301 5.3242-48.648 14.434-9.4531 3.7773-15.301 13.398-14.441 23.535 3.2695 40.551 6.707 84.191 9.9727 126.29 2.75 35.219 5.5 71.301 8.25 106.01l-5.5 0.51563-20.457-193.46c-1.2031-10.996-9.7969-19.586-20.801-20.789-17.363-1.8906-28.02-2.5781-35.414-2.5781-4.8125 0-7.9062 0.17188-10.656 0.51563-12.207 1.0312-29.223 5.1523-51.914 12.715-10.488 3.4336-17.02 13.742-15.988 24.566l20.285 191.4-10.145 0.85938c-6.1875 0.51172-11.859 3.6055-15.812 8.2461-3.957 4.8086-5.8477 10.824-5.332 17.008l6.707 74.738c1.0312 12.027 11.172 21.133 23.035 21.305 0.6875 0 1.5469 0 2.2344-0.17188l11.688-1.0312 10.316 86.766c1.375 11.512 10.828 20.273 22.348 20.617 7.5625 0.17188 14.957 0.34375 21.832 0.51562 10.484 0 18.223-0.17188 23.035-0.51562 10.141-0.85938 23.379-4.1211 50.367-12.367 10.66-3.2656 17.535-13.574 16.332-24.742-1.5469-15.121-3.6094-31.613-5.6719-49.141-1.2031-10.824-2.5781-21.992-3.7812-32.816l3.2656-0.34375 6.7031 85.051v0.17188l2.9219 32.129c1.0312 10.824 9.457 19.586 20.285 21.133 18.223 2.4023 32.664 3.6055 42.805 3.6055 3.4375 0 6.5312 0 9.2852-0.34375 14.781-1.375 39.879-9.793 47.102-12.371 10.141-3.6055 16.504-13.398 15.473-24.051-1.8945-20.789-3.6133-43.812-5.5039-68.211-1.375-16.836-2.75-34.02-4.125-50.684l16.676-1.8906c9.1094 62.023 33.863 126.62 82.344 165.97 0.17188 0.17188 0.34375 0.34375 0.51562 0.34375 33.176 25.43 74.605 39.863 117.07 40.895h4.125c56.215 0.34375 105.21-19.59 145.61-59.105 20.285-19.414 37.133-42.438 51.059-68.383l-3.4414 30.758c-1.375 11.855 6.707 22.852 18.395 25.426l31.117 6.5312c18.91 4.1211 39.023 5.4961 64.465 7.043l6.7031 0.34375h0.85938c9.8008 0.17187 20.973 1.2031 31.633 2.0625 8.4219 0.6875 17.188 1.5469 25.613 1.8906 14.609 0.6875 25.785 2.2305 38.68 3.9492 6.5312 0.85938 13.406 1.8906 21.316 2.75 0.85938 0.17188 1.7188 0.17188 2.5781 0.17188 9.9688 0 19.082-6.3555 22.348-15.98 2.0625-6.1836 3.7812-13.398 5.3281-21.133 2.9219 1.375 6.1875 2.2344 9.625 2.2344h0.17188 90.941c6.3594 0 12.547-2.5781 17.02-7.2148 4.4688-4.8125 6.875-11.168 6.5312-17.523zm-504.38-151.88c0 0.17188 0 0.34375-0.17188 0.51562-8.5938 48.449-21.832 83.156-39.023 103.09-19.254 21.648-31.457 21.477-35.41 21.477h-0.51562c-7.7383-0.17188-19.254-2.4062-30.258-11.684-25.957-21.82-36.785-60.477-35.238-125.25 1.375-58.246 27.848-99.137 76.84-118.55 1.375-0.34375 2.5781-0.6875 3.9531-1.2031 5.332-2.0625 10.316-3.0938 14.613-3.0938h0.51562c12.895 0.34375 23.895 14.605 29.223 23.195 0.17578 0.17188 0.34766 0.51562 0.51953 0.6875 12.719 18.727 18.562 45.875 17.875 80.75-0.34375 7.9062-1.7188 18.73-2.9219 30.07z" fill="#632262"/>
 <path d="m345.41 787.22c-16.16 5.8398-33.18 10.652-41.43 11.34-8.7656 0.85938-25.27-0.17188-46.93-2.9219l-3.0938-32.129-9.2852-108.41-50.367 4.8125c3.7812 34.703 9.1094 74.051 12.719 105.49-24.41 7.7305-37.301 10.996-45.555 11.855-7.2188 0.6875-24.582 0.6875-41.945 0.34375l-13.578-109.1-34.383 3.2617-7.2188-74.738 33.863-3.2617-24.238-214.77c24.41-8.25 38.336-11.168 46.586-11.855 6.1914-0.51562 11.52-1.0312 41.602 1.8906l24.41 215.8 51.402-4.9844c-7.3906-82.641-14.613-173.88-21.832-255.31 21.66-8.9336 33.52-12.199 41.773-13.059 8.25-0.85938 20.973 0.17188 46.414 2.9219l22.004 257.03c18.223-1.7188 39.023-4.2969 49.336-5.3281l7.0508 73.707-49.855 5.8438c4.3008 45.703 8.4258 98.965 12.551 141.57z" fill="#00aeef"/>
 <path d="m788.76 623.31v-0.51562c-11.004 72.848-37.82 129.72-79.766 170.61-36.789 36.426-80.625 54.121-132.71 53.262-38.336-0.6875-75.297-14.086-103.66-35.395-61.543-49.137-80.453-145.01-79.25-213.91 1.8906-110.64 53.637-184.36 153.86-220.95h-0.51562c19.082-7.2148 39.023-9.793 59.137-9.4492 52.605 0.85938 98.16 23.711 132.88 63.227 34.211 41.75 55.012 97.074 53.98 154.97 0 10.312-1.375 24.227-3.9531 38.145zm-124.8-135.39c-14.441-22.852-31.461-33.504-48.652-33.848-6.3594-0.17188-14.266 0.85938-24.066 4.8086l0.51562-0.51562c-58.273 21.648-94.031 70.789-95.234 141.92-1.0312 57.387 6.7031 111.85 44.523 143.29 14.098 11.855 30.082 16.664 44.867 17.008 18.91 0.34375 36.273-9.793 53.809-29.723 20.457-24.055 34.895-63.055 43.836-115.11v0.51562c1.375-12.715 2.75-24.914 2.9219-34.191 0.6875-39.348-6.8789-71.305-22.52-94.152z" fill="#f7941d"/>
 <path d="m1014.6 797.19c-23.551-2.5781-38.508-5.5-61.543-6.3594-18.738-0.85938-39.711-3.2617-57.93-3.6055-27.68-1.5469-48.996-2.4062-67.734-6.5312l-31.285-6.3555 3.7812-36.426c10.832-78 17.02-133.5 19.598-166.66l11.52-183.15c21.488-5.5 34.035-6.875 41.945-6.7031 9.9688 0.17187 25.613 3.0938 47.273 10.824l-1.5469 31.102-9.457 153.08c-2.0625 30.582-4.9844 50.688-14.094 121.82 43.32 3.9531 59.477 6.8711 102.8 9.793l26.133 1.5469c1.7188 15.977-1.2031 61.852-9.457 87.625z" fill="#8dc63f"/>
 <path d="m1048.7 602.7c0-4.2969-0.34375-9.4492-0.34375-14.262-1.0312-28.52-9.2852-154.46-11.863-188.3 31.461-8.4219 77.359-6.5312 94.035-3.6094 3.2656 25.945 0.17188 51.887 2.2344 80.926 2.0625 31.785 1.7188 81.953 3.9531 130.57 1.5469 33.848 3.6094 119.07 5.6719 153.43l-90.938 0.51562-0.85938-75.082c-0.6875-33.848-0.6875-61.336-1.8906-84.188z" fill="#ec008c"/>
 <path d="m1157 767.64c-1.0312-20.277-2.0625-59.449-2.9219-93.984-0.6875-23.367-1.2031-45.359-1.7188-59.102-1.0312-23.539-1.2031-48.109-1.5508-69.758-0.34375-23.023-0.6875-44.672-1.5469-61.336-0.85938-12.371-0.6875-24.57-0.51562-36.254 0.17188-14.945 0.51562-30.41-1.375-46.043-1.2031-10.137-8.9375-18.387-18.91-20.277-9.9688-1.8867-25.441-2.918-41.254-3.0898v11.684-11.684c-16.848-0.17188-41.602 0.85938-62.918 6.5273-10.832 2.75-18.223 13.059-17.363 24.227 2.4062 35.738 9.625 158.41 10.484 186.93 0 2.918 0 5.668 0.17188 8.0742 0 2.0625 0.17188 4.1211 0 5.4961v1.5469c0.51562 13.23 0.85938 28.352 1.0312 45.703 0.17188 11.168 0.34375 23.711 0.51562 37.109-0.6875-0.17188-1.5469-0.34375-2.2344-0.34375l-26.129-1.7148c-25.613-1.8906-41.43-3.6094-59.824-5.8438-5.5-0.6875-11.516-1.375-18.051-2.0625 0.34375-3.0898 0.85938-6.0117 1.2031-8.9336 6.1914-45.531 8.7695-64.43 10.66-90.371l10.484-153.26v-0.17187l1.7188-31.098c0.51953-10.309-5.6719-19.758-15.297-23.195-22.004-8.0742-40.398-12.199-54.668-12.543h-1.5469c-11.688 0-26.988 2.2344-46.586 7.043-9.8008 2.4062-17.02 10.996-17.707 20.961l-7.3906 106.7c-9.8008-28.18-24.41-54.637-43.492-78.348-0.17188-0.17188-0.34375-0.51562-0.51562-0.6875-39.883-45.703-91.629-70.617-149.56-71.988h-3.9531c-23.207-0.17188-44.695 3.4336-63.949 10.48-0.85938 0.34375-1.8906 0.6875-2.7539 1.1992-52.945 19.59-94.031 49.484-122.05 89.172-19.598 27.664-32.836 59.965-39.711 96.902h-1.8906c-4.6406 0.34375-11.004 1.0312-18.566 1.8906-2.4062 0.17188-4.9844 0.51562-7.3906 0.85938l-18.395-233.49c-0.85938-11.168-9.457-19.934-20.457-21.305-21.66-2.5781-33.695-3.6094-42.633-3.6094-3.2656 0-6.0156 0-8.7695 0.34375-11.859 1.0312-26.301 5.3242-48.648 14.434-9.4531 3.7773-15.301 13.398-14.441 23.535 3.2695 40.551 6.707 84.191 9.9727 126.29 2.75 35.219 5.5 71.301 8.25 106.01l-5.5 0.51563-20.457-193.46c-1.2031-10.996-9.7969-19.586-20.801-20.789-17.363-1.8906-28.02-2.5781-35.414-2.5781-4.8125 0-7.9062 0.17188-10.656 0.51563-12.207 1.0312-29.223 5.1523-51.914 12.715-10.488 3.4336-17.02 13.742-15.988 24.566l20.285 191.4-10.145 0.85938c-6.1875 0.51172-11.859 3.6055-15.812 8.2461-3.957 4.8086-5.8477 10.824-5.332 17.008l6.707 74.738c1.0312 12.027 11.172 21.133 23.035 21.305 0.6875 0 1.5469 0 2.2344-0.17188l11.688-1.0312 10.316 86.766c1.375 11.512 10.828 20.273 22.348 20.617 7.5625 0.17188 14.957 0.34375 21.832 0.51562 10.484 0 18.223-0.17188 23.035-0.51562 10.141-0.85938 23.379-4.1211 50.367-12.367 10.66-3.2656 17.535-13.574 16.332-24.742-1.5469-15.121-3.6094-31.613-5.6719-49.141-1.2031-10.824-2.5781-21.992-3.7812-32.816l3.2656-0.34375 6.7031 85.051v0.17188l2.9219 32.129c1.0312 10.824 9.457 19.586 20.285 21.133 18.223 2.4023 32.664 3.6055 42.805 3.6055 3.4375 0 6.5312 0 9.2852-0.34375 14.781-1.375 39.879-9.793 47.102-12.371 10.141-3.6055 16.504-13.398 15.473-24.051-1.8945-20.789-3.6133-43.812-5.5039-68.211-1.375-16.836-2.75-34.02-4.125-50.684l16.676-1.8906c9.1094 62.023 33.863 126.62 82.344 165.97 0.17188 0.17188 0.34375 0.34375 0.51562 0.34375 33.176 25.43 74.605 39.863 117.07 40.895h4.125c56.215 0.34375 105.21-19.59 145.61-59.105 20.285-19.414 37.133-42.438 51.059-68.383l-3.4414 30.758c-1.375 11.855 6.707 22.852 18.395 25.426l31.117 6.5312c18.91 4.1211 39.023 5.4961 64.465 7.043l6.7031 0.34375h0.85938c9.8008 0.17187 20.973 1.2031 31.633 2.0625 8.4219 0.6875 17.188 1.5469 25.613 1.8906 14.609 0.6875 25.785 2.2305 38.68 3.9492 6.5312 0.85938 13.406 1.8906 21.316 2.75 0.85938 0.17188 1.7188 0.17188 2.5781 0.17188 9.9688 0 19.082-6.3555 22.348-15.98 2.0625-6.1836 3.7812-13.398 5.3281-21.133 2.9219 1.375 6.1875 2.2344 9.625 2.2344h0.17188 90.941c6.3594 0 12.547-2.5781 17.02-7.2148 4.4688-4.8125 6.875-11.168 6.5312-17.523zm-504.38-151.88c0 0.17188 0 0.34375-0.17188 0.51562-8.5938 48.449-21.832 83.156-39.023 103.09-19.254 21.648-31.457 21.477-35.41 21.477h-0.51562c-7.7383-0.17188-19.254-2.4062-30.258-11.684-25.957-21.82-36.785-60.477-35.238-125.25 1.375-58.246 27.848-99.137 76.84-118.55 1.375-0.34375 2.5781-0.6875 3.9531-1.2031 5.332-2.0625 10.316-3.0938 14.613-3.0938h0.51562c12.895 0.34375 23.895 14.605 29.223 23.195 0.17578 0.17188 0.34766 0.51562 0.51953 0.6875 12.719 18.727 18.562 45.875 17.875 80.75-0.34375 7.9062-1.7188 18.73-2.9219 30.07z" fill="#632262"/>
 <path d="m345.41 787.22c-16.16 5.8398-33.18 10.652-41.43 11.34-8.7656 0.85938-25.27-0.17188-46.93-2.9219l-3.0938-32.129-9.2852-108.41-50.367 4.8125c3.7812 34.703 9.1094 74.051 12.719 105.49-24.41 7.7305-37.301 10.996-45.555 11.855-7.2188 0.6875-24.582 0.6875-41.945 0.34375l-13.578-109.1-34.383 3.2617-7.2188-74.738 33.863-3.2617-24.238-214.77c24.41-8.25 38.336-11.168 46.586-11.855 6.1914-0.51562 11.52-1.0312 41.602 1.8906l24.41 215.8 51.402-4.9844c-7.3906-82.641-14.613-173.88-21.832-255.31 21.66-8.9336 33.52-12.199 41.773-13.059 8.25-0.85938 20.973 0.17188 46.414 2.9219l22.004 257.03c18.223-1.7188 39.023-4.2969 49.336-5.3281l7.0508 73.707-49.855 5.8438c4.3008 45.703 8.4258 98.965 12.551 141.57z" fill="#00aeef"/>
 <path d="m788.76 623.31v-0.51562c-11.004 72.848-37.82 129.72-79.766 170.61-36.789 36.426-80.625 54.121-132.71 53.262-38.336-0.6875-75.297-14.086-103.66-35.395-61.543-49.137-80.453-145.01-79.25-213.91 1.8906-110.64 53.637-184.36 153.86-220.95h-0.51562c19.082-7.2148 39.023-9.793 59.137-9.4492 52.605 0.85938 98.16 23.711 132.88 63.227 34.211 41.75 55.012 97.074 53.98 154.97 0 10.312-1.375 24.227-3.9531 38.145zm-124.8-135.39c-14.441-22.852-31.461-33.504-48.652-33.848-6.3594-0.17188-14.266 0.85938-24.066 4.8086l0.51562-0.51562c-58.273 21.648-94.031 70.789-95.234 141.92-1.0312 57.387 6.7031 111.85 44.523 143.29 14.098 11.855 30.082 16.664 44.867 17.008 18.91 0.34375 36.273-9.793 53.809-29.723 20.457-24.055 34.895-63.055 43.836-115.11v0.51562c1.375-12.715 2.75-24.914 2.9219-34.191 0.6875-39.348-6.8789-71.305-22.52-94.152z" fill="#f7941d"/>
 <path d="m1014.6 797.19c-23.551-2.5781-38.508-5.5-61.543-6.3594-18.738-0.85938-39.711-3.2617-57.93-3.6055-27.68-1.5469-48.996-2.4062-67.734-6.5312l-31.285-6.3555 3.7812-36.426c10.832-78 17.02-133.5 19.598-166.66l11.52-183.15c21.488-5.5 34.035-6.875 41.945-6.7031 9.9688 0.17187 25.613 3.0938 47.273 10.824l-1.5469 31.102-9.457 153.08c-2.0625 30.582-4.9844 50.688-14.094 121.82 43.32 3.9531 59.477 6.8711 102.8 9.793l26.133 1.5469c1.7188 15.977-1.2031 61.852-9.457 87.625z" fill="#8dc63f"/>
 <path d="m1048.7 602.7c0-4.2969-0.34375-9.4492-0.34375-14.262-1.0312-28.52-9.2852-154.46-11.863-188.3 31.461-8.4219 77.359-6.5312 94.035-3.6094 3.2656 25.945 0.17188 51.887 2.2344 80.926 2.0625 31.785 1.7188 81.953 3.9531 130.57 1.5469 33.848 3.6094 119.07 5.6719 153.43l-90.938 0.51562-0.85938-75.082c-0.6875-33.848-0.6875-61.336-1.8906-84.188z" fill="#fff200"/>
</svg>
