<?xml version="1.0" encoding="UTF-8"?>
<svg width="2245" height="1587" version="1.2" viewBox="0 0 1683.8 1190.3" xmlns="http://www.w3.org/2000/svg" zoomAndPan="magnify">
 <g id="a">
  <path d="m1267.6 1025.9c-2.5156 33.258-66.457 3.4727-85.828-23.695-19.367-27.168-26.789-61.152-45.254-89.074-12.902-19.316-40.574-35.543-57.855-20.125-13.531 12.254 7.5469 37.156-3.7969 51.52-10.062 12.727-31.09-12.98-35.469-28.652-8.6016-4.0508-16.625 7.0703-18.488 16.402-11.043 55.492 57.68 145.22 5.1836 166.48-32.703 13.23-55.895-49.961-51.746-85.023 6.3906-54.84 1.4609-127.94-22.488-101.98-28.5 30.992-50.809 44.398-64.367 3.2461-6.3398 13.457-26.035 31.973-36.273 21.078-11.195-11.848 10.965-37.73-0.95703-48.926-22.891-21.332-52.246 30.84-74.078 53.227-21.836 22.391-74.559 45.859-81.957 15.422-11.191-46.488 133.47-134.76 125.52-156.52-6.1641-16.777-40.727-2.2617-50.711-17.031-9.9883-14.766 11.191-34.309 26.359-43.164-16.625-33.43-58.887-42.914-95.586-50.059s-105.88-22.789-90.129-56.699c30.41-65.555 131.73 50.133 203.88 54.031 0.40234-12.578-7.5469-29.457-1.0586-38.938 0.71484-0.96484 1.5547-1.8047 2.5156-2.5156 15.57-12.578 54.988 6.9922 57.176-12.98 2.5156-21.809-31.066-47.621-21.48-60.523 6.4883-8.6797 38.688 13.887 40.977 11.695 6.0625-5.8594-1.3086-41.305 6.8906-44.223 18.012-6.4141 33.434 54.035 49.883 44.223 35.219-20.852-22.461-90.559-18.086-131.28 1.0586-10.062 4.2266-21.91 13.887-24.652 5.582-1.7109 11.672 0.47656 16.375 3.9727 21.004 15.395 16.398 47.141 16.074 73.176-0.32812 26.035 30.41 3.8984 46.156 24.754 8.6055 11.418-5.2812 56.223 8.6055 59.691 13.883 3.4727 12.578-22.637 26.688-24.5 28.223-3.6484 9.5586 38.137 22.465 52.676 25.406-27.195 21.027-113.75 55.816-127.14 70.258-27.016-11.422 102.13-15.645 138.15-1.5352 13.082-1.4609 29.457 10.059 35.695 14.516 7.8008 37.734-6.4883 46.891 7.2461 14.363 21.406-42.914 30.41-41.707 56.223l105.32 45.98c8.8281 3.8242 19.316 10.793 17.203 20.125-2.6914 11.848-20.121 10.062-31.316 5.5352-25.156-10.465-53.555-47.316-75.465-31.242-11.848 8.6016 3.7227 23.043 15.57 38.059 7.3984 9.4844 13.309 19.145 9.9141 27.672-4.3789 11.016-29.633-5.207-35.219 5.2578-35.09 66.762 131.31 112.19 125.55 187.4z" fill="#5ddc57"/>
  <path d="m1154.2 105.95c8-8.3242 16.777-16.652 20.277-27.039 3.4961-10.391-0.27734-23.621-11.773-27.32-10.867-3.4961-22.766 2.8945-31.543 9.8594-53.883 42.766-37.129 125.98-33.559 128.29 6.9141-15.512 15.121-30.305 24.629-44.375 9.5039-14.074 20.16-27.211 31.969-39.418z" fill="#fd008f"/>
  <path d="m653.29 753.92c7.5469 8.4531 51.164 28.277 59.516-35.566 4.0234-30.816 20.551-68.145 44.574-91.668 0-0.023438-163 60.852-104.09 127.23z" fill="#fd008f"/>
  <path d="m712.5 209.64c-12.574-9.9375-27.668-18.465-43.816-18.039-1.2773 0.070312-2.5469 0.19531-3.8125 0.375-1.2656 0.17969-2.5195 0.41406-3.7656 0.69922-1.2461 0.28516-2.4766 0.625-3.6914 1.0156-1.2188 0.39453-2.4141 0.83594-3.5938 1.332-1.1797 0.49219-2.332 1.0391-3.4648 1.6289-1.1328 0.59375-2.2344 1.2344-3.3125 1.9219-1.0781 0.6875-2.1211 1.4219-3.1367 2.1992s-1.9922 1.5977-2.9375 2.457c-0.94531 0.86328-1.8516 1.7617-2.7148 2.6992-0.86719 0.94141-1.6953 1.9141-2.4766 2.9219-0.78516 1.0117-1.5234 2.0508-2.2188 3.125-0.69531 1.0742-1.3398 2.1719-1.9414 3.3008-0.60156 1.1289-1.1523 2.2812-1.6523 3.4531-0.50391 1.1758-0.95313 2.3711-1.3516 3.5859-0.40234 1.2148-0.74609 2.4414-1.043 3.6836-0.29297 1.2461-0.53516 2.5-0.71875 3.7617-0.11719 1.2734-0.17578 2.5469-0.18359 3.8242-0.003906 1.2773 0.042969 2.5547 0.14844 3.8281 0.10156 1.2734 0.25781 2.5391 0.47266 3.7969 0.21094 1.2617 0.47656 2.5078 0.79297 3.7461 0.32031 1.2383 0.69141 2.457 1.1133 3.6641 0.42188 1.2031 0.89844 2.3867 1.4219 3.5547 0.52344 1.1641 1.0977 2.3047 1.7188 3.418 0.625 1.1172 1.293 2.2031 2.0078 3.2617s1.4766 2.082 2.2773 3.0781c0.80469 0.99219 1.6484 1.9492 2.5312 2.8711 0.88672 0.91797 1.8086 1.8008 2.7695 2.6406 0.96094 0.84375 1.957 1.6445 2.9844 2.3984 1.0273 0.75781 2.0898 1.4688 3.1797 2.1367 1.0898 0.66406 2.2031 1.2812 3.3477 1.8516 1.1445 0.57031 2.3086 1.0938 3.4961 1.5625 1.1875 0.47266 2.3906 0.89062 3.6172 1.2578 11.242 3.0195 23.191 1.4102 34.711 3.1211 34.188 5.0273 57.301 19.469 75.891 51.492 11.219-44.199-25.707-97.453-56.648-121.62z" fill="#fd008f"/>
  <path d="m1484 431.51c-3.5234-12.754-27.672-43.016-68.121-15.648-12.449 8.3789-37.855 39.57-43.113 77.078 3.8906-3.3438 8.0586-6.3008 12.496-8.875 4.4375-2.5742 9.0742-4.7227 13.906-6.4414 4.8359-1.7227 9.7852-2.9844 14.852-3.793 5.0664-0.80859 10.164-1.1484 15.293-1.0156 17.734 0.52734 38.914 5.5352 50.559-7.8242 7.7227-8.7773 7.2227-22.16 4.1289-33.48z" fill="#fd008f"/>
  <path d="m1300.9 530.52c-12.906-9.332-26.914-17.605-39.922-25.984-33.906-21.809-47.793-50.059-29.934-86.156 10.238-20.75 33.605-30.738 52.824-43.719 19.219-12.98 36.5-37.078 26.363-57.855-13.309-27.27-54.207-18.012-80.797-3.4961-26.59 14.512-64.672 28.172-82.684 3.7461-16.074-21.758 0.25391-57.125-17.609-77.477-14.359-16.402-43.465-10.566-56.871 6.7148-13.41 17.281-14.516 40.902-12.25 62.637 1.6328 16 4.8047 32.703-0.55469 47.797-0.53906 1.4492-1.1484 2.8672-1.832 4.2539-0.68359 1.3867-1.4375 2.7344-2.2617 4.043-0.82031 1.3086-1.707 2.5703-2.6602 3.7891-0.95312 1.2188-1.9648 2.3828-3.0391 3.5-1.0703 1.1133-2.1953 2.168-3.3789 3.1641-1.1797 1-2.4102 1.9336-3.6875 2.8047s-2.5938 1.6758-3.9531 2.4102-2.7539 1.3984-4.1836 1.9922c-1.4258 0.59375-2.8828 1.1094-4.3633 1.5508-1.4805 0.44531-2.9805 0.80859-4.5 1.0977-1.5195 0.28906-3.0508 0.49609-4.5898 0.62891-1.5391 0.12891-3.082 0.17969-4.6289 0.15234-1.5469-0.027343-3.0859-0.13281-4.6211-0.32031s-3.0547-0.45312-4.5625-0.79297c-1.5078-0.34375-2.9961-0.76562-4.457-1.2617-1.4648-0.49219-2.9023-1.0625-4.3086-1.707-29.531-13.859-19.871-39.191-28.145-63.77-11.02-32.699-47.293-76.898-85.93-77.074-8.3516 0-15.32 0.32812-21.156 2.918-5.8359 2.5898-10.059 6.8164-13.883 14.766-15.094 32.551 26.461 40.5 27.668 65.078 2.6914 51.844-68.723 8.2734-86.004 43.969-8.3516 17.281 9.5859 34.891 24.602 46.816 15.02 11.922 42.512 48.445 29.281 62.309-3.9766 4.2266-9.5859 6.2383-14.766 8.7539-32.703 15.82-63.039 43.164-51.516 77.652 11.52 34.488 50.633 57.277 86.328 50.309 15.094-3.0156 29.207-10.641 44.625-12.426 15.418-1.7852 33.734 5.0312 37.23 20.125 2.3633 9.8867-1.7109 20.125-2.7695 30.188-5.5078 53.379 49.656 51.77 54.285 26.941 3.5703-19.395 22.312-59.645 40.246-59.492 18.816 0.25 48.676 83.16 71.641 35.871 15.57-32.047 7.043-66.613 41.934-59.469 27.668 5.5859 35.695 32.047 56.797 50.715 26.363 23.266 49.504 32.852 83.012 22.312 33.504-10.543 59.062-46.59 52.172-81.051-4.8047-24.5-22.414-42.035-43.191-56.953z" fill="#fd008f"/>
  <path d="m1049.3 728.89c-2.5156 33.254-66.434 3.4961-85.828-23.695-19.391-27.195-26.789-61.254-45.277-89.074-12.902-19.32-40.547-35.547-57.855-20.125-13.531 12.25 7.5469 37.152-3.7969 51.52-10.062 12.75-31.066-12.98-35.469-28.629-8.5781-4.0508-16.629 7.043-18.488 16.375-11.043 55.492 57.68 145.25 5.207 166.5-32.699 13.207-55.918-49.984-51.77-85.023 6.4141-54.863 1.4609-127.96-22.488-102-28.551 30.914-50.859 44.398-64.496 3.168-6.3125 13.457-26.035 31.973-36.273 21.105-11.191-11.848 10.969-37.734-0.95312-48.926-22.891-21.332-52.246 30.812-74.082 53.227-21.832 22.414-74.559 45.832-81.953 15.395-11.195-46.484 133.47-134.75 125.52-156.49-6.1602-16.805-40.723-2.2891-50.711-17.055-9.9844-14.766 11.195-34.312 26.363-43.141-16.629-33.434-58.887-42.941-95.586-50.059-36.703-7.1211-105.88-22.816-90.129-56.727 30.41-65.555 131.76 50.133 203.88 54.035 0.40234-12.578-7.5469-29.457-1.0547-38.941 0.71094-0.96484 1.5508-1.8047 2.5156-2.5156 15.57-12.578 55.012 6.9688 57.199-12.98 2.5156-21.836-31.09-47.645-21.504-60.523 6.4883-8.7031 38.688 13.859 40.977 11.672 6.0859-5.8359-1.3086-41.305 6.8906-44.223 18.012-6.4141 33.43 54.035 49.883 44.223 35.215-20.852-22.465-90.559-18.086-131.29 1.0547-10.062 4.2266-21.883 13.883-24.652 5.5859-1.707 11.672 0.48047 16.379 3.9766 21.027 15.418 16.398 47.141 16.07 73.176-0.32422 26.035 30.438 3.8984 46.16 24.754 8.6016 11.445-5.2812 56.219 8.6016 59.719 13.887 3.4961 12.578-22.641 26.691-24.504 28.223-3.6445 9.582 38.137 22.461 52.652 25.406-27.168 21.031-113.75 55.844-127.14 70.258-27.016-11.445 102.16-15.672 138.18-1.5352 13.055-1.457 29.43 10.062 35.695 14.539 7.7695 37.73-6.4922 46.887 7.2188 14.363 21.406-42.91 30.41-41.68 56.219l105.3 46.012c8.8555 3.7969 19.32 10.789 17.207 20.121-2.6914 11.852-20.125 10.062-31.316 5.5117-25.156-10.465-53.555-47.293-75.465-31.242-11.848 8.6016 3.7227 23.039 15.57 38.059 7.3945 9.4844 13.305 19.145 9.9102 27.672-4.375 11.043-29.605-5.1836-35.215 5.2812-34.941 66.836 131.46 112.27 125.7 187.48z" fill="#feca3f"/>
  <path d="m756.04 1084.2c8 8.3281 16.754 16.68 20.277 27.043 3.5195 10.363-0.40234 23.543-11.801 27.219-10.863 3.4961-22.637-2.8711-31.516-9.8359-53.883-42.766-37.129-125.98-33.582-128.29 6.9102 15.527 15.121 30.332 24.633 44.418 9.5078 14.086 20.172 27.234 31.988 39.449z" fill="#00abc7"/>
  <path d="m255.09 436.19c7.5469-8.4805 51.191-28.301 59.516 35.543 4.0273 30.84 20.578 68.172 44.574 91.664 0.027344 0-163-60.848-104.09-127.21z" fill="#00abc7"/>
  <path d="m314.32 980.47c-12.574 10.062-27.668 18.465-43.816 18.039-1.2852-0.039062-2.5703-0.12891-3.8477-0.28125-1.2773-0.14844-2.543-0.35547-3.8047-0.61719-1.2578-0.26562-2.5039-0.58203-3.7344-0.95703-1.2305-0.375-2.4414-0.80469-3.6328-1.2852-1.1914-0.48047-2.3594-1.0156-3.5078-1.6016-1.1445-0.58594-2.2578-1.2227-3.3477-1.9102-1.0898-0.68359-2.1445-1.418-3.168-2.1953-1.0195-0.78125-2.0078-1.6055-2.957-2.4727-0.94922-0.86719-1.8594-1.7773-2.7266-2.7266-0.86719-0.94922-1.6914-1.9336-2.4727-2.957-0.78125-1.0195-1.5156-2.0742-2.2031-3.1641-0.68359-1.0859-1.3203-2.2031-1.9102-3.3477-0.58594-1.1445-1.1211-2.3125-1.6055-3.5039-0.48047-1.1914-0.91016-2.4023-1.2852-3.6328s-0.69531-2.4766-0.96094-3.7344c-0.26172-1.2578-0.46875-2.5273-0.62109-3.8047s-0.24609-2.5586-0.28125-3.8438c-0.039062-1.2852-0.015625-2.5703 0.058594-3.8555 0.078125-1.2852 0.21484-2.5625 0.40625-3.832 0.19141-1.2734 0.4375-2.5352 0.74219-3.7852 0.30469-1.25 0.66406-2.4844 1.0781-3.6992 0.41406-1.2188 0.87891-2.4141 1.4023-3.5938 0.51953-1.1758 1.0898-2.3242 1.7148-3.4492 0.62109-1.125 1.293-2.2227 2.0156-3.2852 0.71875-1.0664 1.4883-2.0977 2.3008-3.0938 0.8125-1 1.668-1.957 2.5664-2.8789 0.89844-0.91797 1.8359-1.7969 2.8125-2.6367 0.97656-0.83594 1.9883-1.6289 3.0352-2.375 1.0469-0.74609 2.125-1.4453 3.2344-2.0977 1.1094-0.64844 2.2461-1.25 3.4062-1.8008 1.1641-0.55078 2.3477-1.0469 3.5547-1.4883 1.207-0.44531 2.4336-0.83594 3.6758-1.168 11.219-3.0195 23.191-1.4102 34.688-3.1211 34.211-5.0312 57.328-19.469 75.891-51.492 11.145 44.199-25.758 97.375-56.699 121.65z" fill="#00abc7"/>
  <path d="m1085.8 758.58c-3.4961 12.754-27.543 43.016-68.117 15.672-12.453-8.4023-37.734-39.594-43.117-77.102 3.8984 3.3398 8.0664 6.2969 12.508 8.8711 4.4414 2.5703 9.0781 4.7188 13.914 6.4375 4.8359 1.7188 9.7852 2.9844 14.855 3.793 5.0664 0.8125 10.164 1.1523 15.297 1.0234 17.609-0.55469 38.887-5.5586 50.559 7.7969 7.7227 8.8281 7.2227 22.188 4.1016 33.508z" fill="#00abc7"/>
  <path d="m902.74 659.59c-12.906 9.332-26.941 17.605-39.922 25.957-33.906 21.836-47.793 50.059-29.934 86.156 10.215 20.781 33.582 30.766 52.824 43.746 19.246 12.98 36.527 37.078 26.363 57.855-13.281 27.27-54.184 18.012-80.797 3.4961-26.613-14.512-64.672-28.148-82.684-3.7227-16.047 21.734 0.25391 57.102-17.609 77.48-14.363 16.375-43.492 10.539-56.871-6.7422-13.383-17.281-14.539-40.879-12.25-62.637 1.6094-15.973 4.7773-32.703-0.58203-47.797-0.53516-1.4492-1.1445-2.8672-1.8281-4.25-0.68359-1.3867-1.4375-2.7344-2.2578-4.0469-0.82031-1.3086-1.707-2.5703-2.6602-3.7891s-1.9648-2.3828-3.0352-3.4961c-1.0703-1.1133-2.1992-2.1719-3.3789-3.168-1.1797-1-2.4062-1.9336-3.6836-2.8047-1.2773-0.87109-2.5938-1.6758-3.9531-2.4102-1.3594-0.73828-2.7539-1.4023-4.1797-1.9961-1.4297-0.58984-2.8828-1.1094-4.3633-1.5547-1.4805-0.44141-2.9805-0.80859-4.4961-1.0977-1.5195-0.28906-3.0508-0.49609-4.5898-0.62891-1.5391-0.13281-3.082-0.18359-4.6289-0.15625-1.543 0.027344-3.082 0.13281-4.6172 0.31641-1.5352 0.1875-3.0547 0.44922-4.5625 0.79297-1.5078 0.33984-2.9961 0.75781-4.457 1.2539-1.4648 0.49609-2.9023 1.0625-4.3086 1.707-29.531 13.883-19.871 39.191-28.145 63.766-11.043 32.703-47.316 76.926-85.93 77.078-8.3516 0-15.344-0.30469-21.18-2.918-5.8359-2.6172-10.062-6.8203-13.859-14.77-15.094-32.523 26.438-40.473 27.668-65.051 2.668-51.844-68.723-8.2734-86.004-43.996-8.3516-17.281 9.5586-34.863 24.578-46.812 15.016-11.949 42.512-48.422 29.277-62.309-3.9727-4.1992-9.5586-6.2383-14.766-8.7539-32.699-15.824-63.035-43.168-51.516-77.652 11.523-34.488 50.637-57.281 86.332-50.312 15.094 2.9961 29.203 10.617 44.625 12.402 15.418 1.7852 33.758-5.0312 37.227-20.125 2.3633-9.9102-1.6836-20.125-2.7422-30.184-5.5312-53.383 49.656-51.77 54.285-26.941 3.5469 19.395 22.312 59.641 40.246 59.465 18.84-0.25 48.699-83.164 71.641-35.844 15.598 32.02 7.0703 66.582 41.957 59.465 27.672-5.6094 35.695-32.047 56.801-50.711 26.359-23.297 49.477-32.855 83.008-22.312 33.531 10.539 59.066 46.688 52.273 81.172-4.957 24.426-22.562 41.934-43.316 56.879z" fill="#00abc7"/>
  <path d="m670.69 454.5c0.42578 0 0.87891 0.17578 1.1562 0 1.043-0.92969 2.2109-1.6523 3.5078-2.1641 1.2969-0.51562 2.6445-0.79297 4.0391-0.83203-0.52734 2.5156-1.1836 5.207-1.6094 7.8516-0.03125 2.5469-0.33984 5.0625-0.92969 7.543-0.050781 0.25391-0.050781 0.50391 0 0.75781v8.5c0 2.8438 0.35156 5.0312 0.65234 7.3711 0.10156 1.0352 0.27734 2.0586 0.52734 3.0703 0.42969 1.6094 1.0586 3.2188 1.4336 4.8281 0.55469 2.3164 0.90625 4.6289 1.5117 6.8945 1.0781 2.668 1.75 5.4336 2.0117 8.3008-0.019532 1.3203 0.33203 2.5391 1.0547 3.6484 1.2422 1.8398 2.6094 3.5859 4.1016 5.2305 0.35937 0.03125 0.72266 0.03125 1.082 0 0.32812-0.15234 0.87891-0.32812 0.87891-0.42578 0-0.62891-0.35156-1.2344-0.42578-1.8633-0.22656-2.0117-0.30469-4.0742-0.48047-6.0859 0-1.3594-0.32422-2.7188-0.42578-4.0781-0.25781-2.1719-0.34766-4.3516-0.27734-6.5391 0.20312-2.918 0.83203-5.8359 1.2578-8.7305 0.42969-2.8906 0.85547-6.2383 1.3828-9.332 0.17578-0.95312 0.42969-1.8867 0.52734-2.8398 0.25391-2.5156 0.48047-5.0312 0.80859-7.5469 0.17578-1.7383 0.5-3.4961 0.65234-5.2578 0.30078-2.918 0.50391-5.8359 0.90625-8.7539 0.125-0.98047 0.30078-1.9648 0.47656-2.9453 1.2031 0.03125 2.4023-0.027344 3.5977-0.17578 1.2188-0.20703 2.418-0.49219 3.5977-0.85547v0.22656c0.48438 0.0625 0.97266 0.0625 1.457 0 1.2344-0.30078 2.5156-0.65234 3.6484-1.0039 0.55469-0.17578 1.082-0.37891 1.5859-0.57812 1.1523-0.48047 2.3242-0.89844 3.5195-1.2578 0.32422 1.8594 0.16797 3.6797-0.47656 5.457-0.078125 0.26953-0.078125 0.53516 0 0.80469 0.22656 2.9688 0.50391 5.9375 0.87891 8.9062 0.30469 2.5156 0.80469 5.1797 1.2852 7.7461 0.17969 1.0938 0.46484 2.1602 0.85547 3.1953 0.65234 1.7109 1.6094 3.3945 2.1641 5.0312 0.77734 2.5156 1.2305 4.8789 2.0625 7.293 0.98047 2.9453 2.8398 5.8359 2.5156 8.832-0.0625 0.70313 0.015625 1.3945 0.22656 2.0703 0.21484 0.67578 0.55078 1.2852 1.0039 1.8281 1.6836 2.0586 3.5117 3.9766 5.4844 5.7617 0.52734 0.12109 1.0664 0.19141 1.6094 0.19922 0.45703-0.089844 0.90234-0.22656 1.332-0.40234 0-0.67969-0.35156-1.332-0.375-2.0117v-6.5898c0-1.4844-0.22656-2.918-0.30469-4.3789-0.21094-2.3555-0.21094-4.7109 0-7.0664 0.37891-3.1211 1.4375-6.2656 2.0391-9.3828 0.60547-3.1211 1.207-6.7695 1.7852-10.062 0.26953-1.0195 0.48047-2.0508 0.62891-3.0938l0.52734-8.2266c0.12891-1.9102 0.32812-3.8242 0.35547-5.7344v-8.5039c0.90234-0.65234 1.7852-1.4336 2.7148-1.9883 1.4609-0.87891 3.0195-1.457 4.4766-2.3125 1.6562-1.2773 3.5078-2.1172 5.5625-2.5156 0.99609-0.070312 1.8359-0.47266 2.5117-1.207 1.2305-1.3125 2.3711-2.6953 3.4219-4.1523 0.027344-0.35938 0.027344-0.71875 0-1.082-0.125-0.30078-0.30078-0.85547-0.375-0.85547-0.48047 0-0.88281 0.37891-1.3594 0.45312-1.5078 0.25391-3.0195 0.37891-4.5273 0.65625-1.0078 0.17578-1.9883 0.47656-2.9688 0.67969-1.582 0.42188-3.1836 0.73047-4.8047 0.92969h-4.3516c-0.039062-0.22656-0.039062-0.45312 0-0.67969 0.37891-2.5156 1.1328-4.9062 1.5586-7.3438 0.33984-1.8398 0.56641-3.6953 0.67969-5.5625v-5.7578-9.082c0-1.7109 0.45312-3.3711 0.40234-5.0312-0.078125-2.0312-0.28125-4.0547-0.60156-6.0625-0.20312-1.332-0.83203-2.7422-0.93359-4.0742-0.19922-2.0898-0.125-4.125-0.22656-6.2148 0-0.25-0.40234-0.57813-0.75391-0.87891-0.33594-0.19922-0.69531-0.33203-1.082-0.40234-0.65234-0.0625-1.3086-0.0625-1.9609 0-0.45313 0.45312-0.92969 0.90625-0.87891 1.4336 0.35547 2.3086 0.25781 4.6016-0.29297 6.8711-0.55469 2.2695-1.5234 4.3477-2.9023 6.2344-1.3867 1.8359-2.5273 3.8164-3.4219 5.9375-1.6094 3.9492-3.875 7.8477-5.8125 11.848-0.95312 1.8516-1.7891 3.7539-2.5156 5.7109-0.49219 1.8281-0.85938 3.6797-1.1055 5.5586h-0.375c-0.39844 0.63281-0.71484 1.3047-0.95703 2.0117-0.37891 1.9102-0.55469 3.8477-0.80469 5.7617v2.5156 0.82812c-1.8359 0.62891-3.625 1.3359-5.4609 1.9609-1.8359 0.62891-4.0469 1.2578-6.0352 1.9648-0.47656 0.17578-0.80469 0.77734-1.3086 0.90625l-3.168 0.70312c0.45312-1.6094 0.82812-3.2188 1.1562-4.8555 0.32812-1.6367 0.52734-3.5703 0.77734-5.3594 0.42969-2.8164 0.83203-5.6328 1.3359-8.4492 0.27734-1.5859 0.80469-3.1445 1.0312-4.7539 0.22656-1.6133 0.375-3.7734 0.45312-5.6875 0-1.2578-0.15234-2.5156 0-3.8242 0.14844-1.9336 0.5-3.8477 0.70312-5.8086-0.042968-0.31641-0.16797-0.59375-0.37891-0.83203-0.19922-0.17188-0.42578-0.29688-0.67578-0.375-0.42969-0.11328-0.86719-0.15625-1.3086-0.12891-0.40625 0.34375-0.67188 0.77344-0.80469 1.2852-0.066407 2.1523-0.43359 4.25-1.1055 6.2969s-1.6211 3.957-2.8438 5.7266c-1.2188 1.6719-2.2656 3.4414-3.1445 5.3086-1.6367 3.5977-3.75 7.0664-5.5859 10.641-0.87891 1.6836-1.7852 3.3945-2.5156 5.0312-0.73047 1.6328-1.0039 3.3945-1.4844 5.0312h-0.25c-0.35547 0.58203-0.64844 1.1953-0.88281 1.8359-0.5 1.7344-0.87891 3.5195-1.2578 5.3086 0 0.32422 0 0.65234-0.17578 0.98047-0.45312 0.19922-0.90625 0.40234-1.3555 0.65234-1.1953 0.76562-2.3359 1.6016-3.4219 2.5156-0.73047 0.60547-1.3594 1.4336-2.0898 2.0117-1.1562 0.90625-2.3633 1.6367-3.5469 2.5156-0.13672 0.23437-0.21484 0.48437-0.22656 0.75781 0.019531 0.25391 0.085937 0.5 0.20312 0.72656 0.050781 0.35938 0.125 0.71094 0.22656 1.0586z" fill="#fff"/>
  <path d="m761.9 472.56c1.043 1.2852 2.2969 2.3086 3.7695 3.0664 1.4688 0.75391 3.0312 1.1836 4.6797 1.2852 3.1016 0.10547 6.0352-0.53906 8.8047-1.9336 2.25-1.082 4.3867-2.3477 6.4141-3.8008 1.9141-1.3086 3.75-2.7148 5.5352-4.1992l0.87891-0.78125 0.25391-0.17578 0.40234-0.30078c0.24609-0.19141 0.48047-0.39062 0.70312-0.60547l0.48047-0.40234v0.45312c0.125 0 0.125 0.50391 0.17578 0.47656 0.011719 0.078125 0.011719 0.15234 0 0.22656-0.089844 0.35547-0.13672 0.71875-0.15234 1.082v0.15234l0.42578 0.62891c0.37891 0.52734 0.80859 1.0547 1.2578 1.5859 0.85938 0.94922 1.8125 1.7891 2.8711 2.5156 1.3594 0.89453 2.8242 1.5703 4.3867 2.0273 1.5664 0.46094 3.1641 0.67969 4.793 0.66406 2.8867-0.027344 5.6445-0.62891 8.2773-1.8125 3.8281-1.8789 7.1836-4.3945 10.059-7.5469 2.5352-2.5664 4.875-5.2969 7.0195-8.1992 0-0.17578 0.22656-0.37891 0.35156-0.57812v0.67969c0.45313 5.4805 0.75391 10.965 1.3828 16.426 1.1172 6.582 1.8711 13.207 2.2656 19.871 0.066406 3 0.51172 5.9414 1.332 8.8281 1.2852 4.4805 3.0195 8.8828 4.7031 13.234 0 0.25 0.73047 0.375 1.1328 0.55078 0.30469-0.27734 0.85547-0.57812 0.83203-0.80469-0.15234-1.5352-0.50391-3.0195-0.65625-4.5273-0.42578-5.0312-0.72656-9.8359-1.0039-14.766l-0.67969-9.8359c-0.22656-5.2812-0.57812-10.539-0.40234-15.82 0-3.3242 0.32813-6.6445 0.57813-10.062 4.6289-7.9375 10.238-15.105 16.828-21.508l2.8672-2.7422 2.7188-2.5156 4.6523-3.9492c0.75391-0.73047 1.4844-1.3594 2.1641-1.9375l0.375-0.32812v0.52734l0.37891 1.3867c0.22656 0.90234 0.37891 1.8086 0.55469 2.6641 0.25 1.5664 0.375 3.1445 0.375 4.7305 0.039062 0.67187 0.039062 1.3398 0 2.0117 0.023438 0.32031 0.023438 0.63672 0 0.95703v2.2617c-5.0312 3.4727-10.062 6.9961-15.094 11.145-0.91016 0.76562-1.75 1.6055-2.5156 2.5156-0.80469 1.0078-1.582 2.0625-2.5117 3.2461-0.95312 1.2656-1.6797 2.6484-2.1797 4.1484-0.5 1.5039-0.74609 3.0469-0.73828 4.6289 0.066406 2.1328 0.65234 4.1133 1.7578 5.9375 1.1406 1.8477 2.668 3.2812 4.5781 4.3008 1.5742 0.81641 3.2422 1.3164 5.0039 1.5039 1.7656 0.1875 3.5 0.046874 5.2109-0.42188 0.86328-0.21875 1.7031-0.51172 2.5156-0.87891 0.67969-0.34375 1.3438-0.71875 1.9844-1.1328 1.1641-0.76562 2.2188-1.6523 3.1719-2.668 1.1797-1.2578 2.2227-2.625 3.1172-4.0977 0.83203-1.3086 1.4102-2.5156 2.0625-3.7734 1.25-2.5195 2.2656-5.125 3.0469-7.8242 0.60938-2.0547 1.0703-4.1445 1.3828-6.2656 6.5312-4.2461 12.602-9.0742 18.211-14.488 0.57812-0.60156 1.1055-1.2812 1.6602-1.9102v1.3086c0.42578 4.2266 1.0547 8.4492 1.4102 12.578l1.2812 18.234c0.95703 7.3828 1.4336 14.797 1.4336 22.238-0.14062 3.332 0.09375 6.6328 0.70313 9.9102 0.90625 5.0312 2.2148 10.062 3.4219 15.27 0 0.27734 0.70313 0.50391 1.082 0.73047 0.30078-0.25 0.90625-0.52734 0.90625-0.80469 0-1.7109-0.20312-3.4219-0.20312-5.0312l0.22656-16.703v-11.117c0-5.9648-0.125-11.926 0.12891-17.887 0.19922-5.0312 0.55078-9.9375 0.90234-14.918 2.1992-3.0234 4.8242-5.6133 7.875-7.7734 2.1914-1.5156 4.2539-3.1914 6.1875-5.0312 1.8633-1.7344 3.8242-3.3945 5.7852-5.0312l2.9922-2.5117 0.75781-0.60547c0.13281-0.089844 0.27734-0.16406 0.42578-0.22656 0.25391-0.13281 0.51172-0.25 0.78125-0.35156 0.35938-0.16406 0.73828-0.23047 1.1328-0.19531 0.39453 0.035157 0.75391 0.16797 1.0781 0.39453 0.51562 0.28125 0.85938 0.69922 1.0312 1.2578l-0.22266 0.25391c-0.097656 0.24609-0.20703 0.49219-0.32812 0.72656v0.40625 1.5312l-0.35156 2.8945c0 1.1328-0.20312 2.2617-0.35156 3.3945-0.85547 0.48047-1.6875 1.0078-2.5156 1.5625-1.9922 1.3398-3.8633 2.832-5.6094 4.4766-0.88281 0.82812-1.7383 1.7109-2.5156 2.5156-0.92969 1.0273-1.7695 2.125-2.5156 3.293-1.4922 2.1602-2.2812 4.5469-2.3672 7.1719-0.042968 2.168 0.44922 4.2031 1.4844 6.1133 0.63281 1.1445 1.4375 2.1484 2.418 3.0117 0.98047 0.86328 2.0781 1.5352 3.293 2.0156 2.1914 0.88281 4.4492 1.0898 6.7656 0.62891 2-0.35938 3.8203-1.1367 5.4609-2.3359 1.8438-1.3672 3.3359-3.043 4.4766-5.0312 0.78906-1.2539 1.4648-2.5625 2.0391-3.9258 1.5391-4.0898 2.7227-8.2852 3.543-12.578 0.40625-1.9375 0.75781-3.8984 1.0352-5.8359 2.3672-2.1016 5.0508-3.668 8.0469-4.7031 1.582-0.45703 3-1.2227 4.25-2.2891 2.0664-1.6602 4-3.6992 5.9648-5.6094 0.125 0 0-0.73047 0-1.1328 0-0.40234-0.55469-0.78125-0.67969-0.73047-0.78125 0.25391-1.5352 0.70703-2.3164 0.95703-2.5156 0.83203-5.2578 1.5586-7.8984 2.5156-1.7344 0.60547-3.4453 1.3828-5.1797 2.1133l-1.7617 0.78125c0-0.78125-0.17578-1.6367-0.17578-2.5156 0.0625-2.8867-0.4375-5.6719-1.5078-8.3516-1.0664-2.5039-2.6992-4.5508-4.9062-6.1406-0.80859-0.57812-1.6719-1.0547-2.5898-1.4258-0.92188-0.375-1.875-0.63281-2.8555-0.77734-0.98437-0.14453-1.9688-0.17188-2.957-0.078125s-1.9531 0.30078-2.8945 0.62109c-2.0078 0.75391-3.7773 1.8867-5.3047 3.3984-1.6094 1.6289-3.0664 3.3828-4.3789 5.2578l-6.4883 9.1797c-1.2578 1.7109-2.668 3.2969-3.875 5.0312s-2.5156 3.9492-3.6484 5.9883v-1.1602l1.1602-25.809c0-2.1133 0.25-4.2266 0.32422-6.3125 0.19141-2.3047 0.19141-4.6133 0-6.918v-0.27734-0.50391l-15.09 0.53125v0.52734c0.14844 4.0586-0.60547 7.9414-2.2656 11.645-1.7109 3.7891-3.9062 7.2695-6.5898 10.441-2.8789 3.4883-6.0664 6.6641-9.5586 9.5352-0.20312-1.5625-0.65625-2.9688-0.98047-4.4297-0.34375-1.4453-0.78125-2.8633-1.3086-4.25-0.42969-1.3203-0.93359-2.6133-1.5117-3.875l-1.6094-3.7227-1.6602-3.7969-0.82812-1.9375c-0.30469-0.67969-0.55469-1.0312-0.83203-1.5586l-3.043 3.5195-7.6719 8.9062c-1.3086 1.457-2.5156 3.043-3.875 4.5781l-1.9102 2.3398-0.85547 1.082-0.50391 0.67578c-3.0664 4.1289-5.9102 8.4023-8.6016 12.781-1.7852 2.8672-3.2695 5.9102-5.0312 8.7773l-0.37891 0.62891c0.12891-1.3086 0.25391-2.5156 0.35547-3.9219 0.65234-7.5469 1.3555-15.094 2.2891-22.641 0.27344-2.2656 0.67578-4.4766 0.90234-6.7148l-14.891-1.5859v0.19922c-0.82422 5.5977-2.3438 10.996-4.5508 16.203-2.8594 6.5977-6.5547 12.684-11.094 18.262-1.7031 2.2344-3.6914 4.1797-5.9609 5.8359-0.76562 0.50781-1.6016 0.80078-2.5156 0.87891-0.39844 0.0625-0.77344 0.003906-1.1328-0.17578-0.10156-0.085938-0.18359-0.1875-0.25391-0.30078l-0.14844-0.32812c-0.10938-0.22656-0.19922-0.46484-0.27734-0.70313-0.15234-0.64453-0.22266-1.3008-0.20312-1.9609 0.015625-0.84375 0.082031-1.6836 0.20312-2.5156 0.15234-0.98438 0.32812-2.0391 0.55469-3.1719l-2.2656-1.0312c-1.3086-0.39453-2.582-0.88281-3.8242-1.457-0.31641-0.23047-0.58594-0.50781-0.80469-0.83203v-0.17578l-0.50391-0.15234-1.3555-0.47656c-1.1094-0.45312-2.5156-1.0547-5.0312-2.2656l-1.8867 2.5156c-2.707 3.4219-5.6172 6.6562-8.7305 9.7109-1.4062 1.3594-2.8398 2.6914-4.3008 4l-2.2148 1.9609c-0.67969 0.57812-1.332 1.1094-1.9609 1.5625-0.94531 0.72656-1.9766 1.2969-3.0938 1.707-0.24609 0.070313-0.5 0.12109-0.75391 0.15234-0.375-0.085937-0.66797-0.28516-0.88281-0.60156-0.50391-0.76172-0.85156-1.5859-1.043-2.4766s-0.21094-1.7852-0.0625-2.6836c0.32031-3.0508 1.1602-5.9492 2.5156-8.7031 1.4648-3.3164 3.5195-6.2188 6.1641-8.7031 1.7227-1.7695 3.6953-3.2031 5.9102-4.3008 3.7773-1.6094 7.7188-2.3906 11.824-2.3398 0.57031-0.046875 1.1055-0.20312 1.6094-0.47656 0.25391-0.18359 0.41016-0.42578 0.47656-0.73047 0-0.47656 0-1.2578-0.30078-1.3086-1.0898-0.39844-2.2109-0.60547-3.3711-0.62891-2.4375 0.14062-4.8438 0.50391-7.2148 1.0898-2.3711 0.58594-4.6719 1.3828-6.8945 2.3945s-4.3359 2.2148-6.3359 3.6172c-2 1.4023-3.8555 2.9766-5.5664 4.7227-1.7266 1.7383-3.1914 3.6758-4.3945 5.8086-1.2031 2.1367-2.1016 4.3906-2.6992 6.7695-0.65625 2.4727-0.89844 4.9883-0.72656 7.5469 0.13281 2.8516 1.0312 5.4453 2.6914 7.7695z" fill="#fff"/>
  <path d="m981.8 443.46c1.7109 0.91406 3.5352 1.4688 5.4648 1.6562 1.9336 0.1875 3.8242-0.003907 5.6797-0.57422 3.5977-1.1562 6.75-3.0508 9.457-5.6875 2.3398-2.2188 4.5117-4.5938 6.5156-7.1172l-3.2422 15.293-1.6133 8.2266-1.207 6.5156c-5.6836 1.9102-11.52 3.7734-17.332 6.1641-5.6328 2.25-10.992 5.0312-16.07 8.3477-5.4219 3.5195-10.133 7.8125-14.137 12.883-3.0312 3.6875-4.9766 7.8789-5.8359 12.574-0.17578 0.98828-0.26562 1.9844-0.26953 2.9883-0.003907 1.0039 0.078124 2 0.24609 2.9883 0.17188 0.98828 0.42188 1.957 0.76172 2.9023 0.33594 0.94141 0.75 1.8516 1.2461 2.7266 0.49609 0.87109 1.0586 1.6953 1.6992 2.4688 0.63672 0.77734 1.3359 1.4883 2.0977 2.1445 0.76172 0.65234 1.5703 1.2344 2.4336 1.7461 0.86328 0.51562 1.7617 0.94922 2.6992 1.3047 3.0312 1.25 6.1836 1.9102 9.4609 1.9883 2.8828 0.082031 5.7422-0.14453 8.5781-0.67969 1.7656-0.32422 3.5078-0.76562 5.2188-1.3164 1.7109-0.55078 3.3789-1.207 5.0078-1.9727 1.625-0.76562 3.1953-1.6328 4.7109-2.6016 1.5156-0.96484 2.9609-2.0273 4.3398-3.1836 1.3789-1.1523 2.6758-2.3906 3.8945-3.7148 1.2188-1.3203 2.3477-2.7148 3.3867-4.1836 1.0391-1.4648 1.9805-2.9922 2.8242-4.582 0.83984-1.5898 1.5781-3.2227 2.2109-4.9062 2.0273-5.4453 3.5352-11.031 4.5273-16.754l2.8672-14.363c1.7109-0.88281 3.3945-1.7891 5.0312-2.7695 8.5312-5.3867 16.18-11.824 22.941-19.316 3.1211-3.2305 5.6367-6.875 7.5469-10.945 2.8438-6.1797 4.6875-12.645 5.5312-19.395 0-0.35156-0.45312-0.80469-0.70312-1.207-0.42578 0.20312-1.1055 0.35156-1.207 0.65625-0.59375 2.0547-1.2891 4.0742-2.0898 6.0625-2.8438 6.3672-6.4922 12.234-10.941 17.605-2.9102 3.6367-6.1133 6.9883-9.6094 10.062-4.4414 3.8398-9.2891 7.0781-14.539 9.7109l1.1328-5.7109c0.45312-2.5156 0.50391-4.8555 1.0078-7.2188l5.5078-24.477c1.207-5.5508 2.3477-11.117 3.4219-16.703l-15.297-4.3516-0.57812 1.5352c-2.1133 5.6953-4.5859 11.23-7.418 16.602-2.2891 4.2148-4.8047 8.293-7.5469 12.227-2.0781 3.4883-4.7891 6.3906-8.125 8.7031-1.4102 0.82031-2.9297 1.1719-4.5547 1.0547-1.1055-0.007813-2.0703-0.38672-2.8906-1.1289-0.5625-0.71484-0.97656-1.5078-1.2461-2.375-0.26562-0.86328-0.37109-1.75-0.31641-2.6562-0.085938-1.3828-0.085938-2.7695 0-4.1523 0.15234-1.4844 0.32812-3.1445 0.53125-4.7031 0.5-4.1758 0.90234-8.375 1.8086-12.578 1.4375-6.4727 3.3008-12.82 5.5859-19.043 0.24219-0.82031 0.375-1.6602 0.40234-2.5156 0-0.30078-0.25391-0.85547-0.45312-0.87891-0.20312-0.027344-1.2852-0.15234-1.4336 0-0.96484 1.4219-1.7461 2.9414-2.3398 4.5547-2.2891 7.0156-4.2773 14.086-6.1133 21.18-0.90625 3.5469-1.7617 7.1172-2.5156 10.715-1 3.543-1.4961 7.1602-1.4844 10.844-0.003906 0.94141 0.11328 1.8711 0.35156 2.7812 0.23828 0.91406 0.59375 1.7812 1.0625 2.6016 0.46875 0.81641 1.0352 1.5625 1.6992 2.2305 0.66406 0.67187 1.4062 1.2422 2.2188 1.7188zm18.719 30.184c-1.9141 9.3086-4.2266 17.734-8.832 23.293-2.0664 2.625-4.5078 4.8398-7.3203 6.6445-2.8477 1.8867-5.9766 2.957-9.3828 3.2188l-1.9609 0.27734c-1.6758 0.24609-3.3555 0.24609-5.0312 0-1.0703-0.11719-2.0703-0.44922-2.9922-1.0078-0.44141-0.27734-0.71094-0.67187-0.80469-1.1836-0.125-1.2109 0.035157-2.3828 0.47656-3.5195 0.51953-1.4062 1.1992-2.7305 2.0391-3.9766 0.98437-1.4727 2.0664-2.8711 3.2422-4.1992 2.4766-2.8047 5.2188-5.3203 8.2266-7.5469 2.5156-1.8594 5.2812-3.6211 8.0742-5.332 4.6094-2.8594 9.3633-5.4492 14.262-7.7734 0.12891 0.52734 0.12891 0.85547 0.12891 1.1836z" fill="#fff"/>
  <path d="m789.34 809.14c-0.67969 0.17578-1.9102 0.25-1.9609 0.52734-0.32812 1.8125-0.30078 3.6953-0.75391 5.4844-1.5391 5.7852-3.5508 11.402-6.0391 16.852-1.6094 3.625-3.1953 7.2969-5.1562 10.742-1.582 2.7656-3.2422 5.4844-5.0312 8.1016-1.5273 2.3398-3.3984 4.3711-5.6094 6.0859-1.0508 0.82812-2.2305 1.3633-3.5469 1.6094-0.9375 0.15625-1.8516 0.0625-2.7422-0.27734-0.78516-0.32422-1.4648-0.80078-2.0352-1.4336-0.79688-0.74219-1.4766-1.5781-2.0391-2.5156-1.4609-2.5938-2.375-5.3711-2.7422-8.3242-0.57422-4.082-0.79297-8.1836-0.65234-12.301 0.14844-2.668 0.40234-5.2852 0.62891-7.9766 0.41016-7.3789 1.3164-14.699 2.7148-21.957 1.0078-5.2578 2.2891-10.594 3.3984-16.102 1.7578-9.082 3.4453-18.539 5.0312-28.348 1.6836-9.6484 2.5234-19.363 2.5156-29.156-0.0625-1.3008-0.24609-2.582-0.55469-3.8477-0.34375-1.3008-0.58594-2.6172-0.73047-3.9492-0.32031-4.9336-1.2266-9.7539-2.7148-14.465-1.7969-5.8164-4.8047-10.914-9.0312-15.297-3.7617-3.7695-8.1797-6.4609-13.258-8.0742-4.8555-1.5547-9.8125-1.9922-14.867-1.3086-4.3438 0.61328-8.4961 1.8711-12.449 3.7734-3.4062 1.6602-6.6367 3.6133-9.6836 5.8633-2.1953 1.5469-4.2812 3.2227-6.2656 5.0312l-2.8164 2.5156-2.6914 2.6641c-3.5664 3.5898-6.918 7.3633-10.062 11.32-1.8633 2.5156-3.7227 4.8047-5.5078 7.2695 0.47656-11.066 0.90625-22.137 1.5078-33.051 0.25-4.5547 0.75391-9.0586 0.90625-13.586 0-3.4727 0.25-6.9688 0.40234-10.438 6.668-4.0625 12.824-8.7891 18.465-14.188 6.9883-6.418 13.238-13.492 18.75-21.219 5.5078-7.7266 10.16-15.941 13.949-24.641 3.7461-8.8555 5.957-18.078 6.6406-27.672 0.15234-2.2969 0.15234-4.5938 0-6.8906 0-2.3125-0.19922-4.6055-0.52734-6.9922-0.63672-5.0703-1.9102-9.9766-3.8242-14.719l0.47656-0.19922c-1.2773-4.2383-3.2734-8.1016-5.9844-11.598-2.1406-2.6055-4.5938-4.8789-7.3555-6.8125-2.7656-1.9375-5.7383-3.4609-8.9219-4.582-3.5312-1.2461-7.1719-1.8672-10.914-1.8594-1.957 0.023437-3.8945 0.22656-5.8125 0.60156-0.92969 0.20312-1.8594 0.42969-2.7656 0.67969s-1.8125 0.60547-2.7188 0.92969c-2.8945 1.1992-5.582 2.7578-8.0586 4.6719-2.4805 1.918-4.6641 4.125-6.5547 6.625-3.3516 4.4688-5.9922 9.3203-7.9258 14.562-1.6211 4.4141-3.0117 8.9023-4.1758 13.457-3.6875 12.688-6.6406 25.539-8.8516 38.566-1.8867 11.57-1.5352 23.266-3.8008 34.66-0.17188 1.1797-0.25391 2.3594-0.25 3.5469-0.26953 10.668-0.26953 21.273 0 31.824-2.3633 2.0859-4.7539 4.1758-7.2969 6.0859-7.0156 5.2578-14.461 10.062-21.883 14.969-0.92969 0.74609-1.6914 1.6328-2.2891 2.6641-0.25 0.57812-0.25 1.1602 0 1.7383 0.57812 0.77734 1.6836 1.9102 2.0625 1.8086 2.2305-0.55859 4.3281-1.4414 6.2891-2.6406 7.7227-5.4062 15.496-10.516 23.395-15.469 0.375 10.363 1.0039 20.652 1.7109 30.891 0.30078 4.5781 0.67578 9.1797 1.2578 13.734 0.95312 7.3438 2.3125 14.691 3.2422 22.086 1.1836 9.4336 2.2383 18.941 3.9766 28.375v0.47656c0.007812 0.60156 0.16016 1.1602 0.45312 1.6875 0 0.47656 0.14844 0.92969 0.25 1.4062 2.668 12.93 7.2188 25.281 10.262 38.035 1.4648 5.875 3.9219 11.301 7.3711 16.277 5.1797 7.4766 11.293 14.094 18.34 19.844 0.35156 0.32812 1.582 0 2.5156-0.17578 0.30078-0.72656 1.0312-1.7578 0.80469-2.1133-1.5352-2.2891-3.3477-4.4258-4.707-6.8672-4.3672-8.0312-7.8984-16.414-10.59-25.152-1.9727-5.7852-3.6484-11.656-5.0273-17.609-2.2617-9.7305-3.6523-19.582-4.1758-29.559-0.35547-8.8281 0-17.609 0.44922-26.637 1.5977-2.4375 3.3906-4.7188 5.3867-6.8438 4.3008-4.5781 8.7773-8.7539 13.078-12.93 4.1992-4.0195 8.793-7.5156 13.785-10.488 2.5156-1.4102 5.0312-2.8945 7.3945-3.9492 2.3242-1.0547 4.7227-1.8945 7.1953-2.5156 1.9648-0.50391 3.9609-0.6875 5.9883-0.55469 1.3555 0.078125 2.6211 0.45312 3.7969 1.1328 1.7969 1.0039 3.0977 2.4531 3.8984 4.3516l-0.42578 0.25c0.19922 0.98047 0 2.3164 0.40234 3.4453 0.4375 1.8242 0.74609 3.668 0.92969 5.5352 0 1.0078 0.17578 2.0117 0.19922 3.0703 0.027343 1.0547 0 2.0625 0 3.3438-0.125 2.1641 0 4.2539 0 6.4648 0 2.2148-0.14844 5.0312-0.42578 7.5469l-0.37891 3.7734c-0.17578 1.2578-0.375 2.5156-0.60156 3.8008-1.4102 7.7969-3.6992 15.645-5.6367 23.82-1.7578 7.3203-1.9102 15.094-4.7266 22.641-0.22266 0.82422-0.34766 1.6602-0.37891 2.5156-1.1172 9.2617-1.418 18.555-0.90625 27.871 0.3125 4.2266 0.875 8.418 1.6875 12.578 0.76562 4.4102 1.9414 8.7148 3.5195 12.902 1.4922 4.0195 3.5977 7.6836 6.3164 10.992 1.1992 1.4023 2.5078 2.6914 3.9219 3.875 1.4258 1.1836 2.9414 2.2305 4.5547 3.1445 1.6133 0.90625 3.293 1.6758 5.0312 2.3164 1.8086 0.66016 3.6602 1.1523 5.5586 1.4844 2.6602 0.47656 5.3281 0.5 8 0.066407 2.668-0.42969 5.1914-1.293 7.5703-2.582 4.1016-2.2539 7.4531-5.3242 10.062-9.207 1.3633-1.9922 2.5625-4.082 3.5977-6.2656 0.95312-2.0625 1.8867-4.1484 2.7656-6.1875 1.7031-4.1289 3.6211-8.1523 5.7617-12.074 1.9531-3.5664 3.0039-7.3828 3.1445-11.445 0.12891-6.3203-0.58594-12.539-2.1406-18.664-0.375-0.42969-1.5859-0.88281-2.3398-1.2578zm-110.18-169.52c0.60547-8.2227 1.6602-16.348 2.5156-24.473 1.4023-13.297 3.625-26.453 6.6641-39.469l1.1836-4.5547 0.57812-2.2891 0.60547-2.0117c0.73438-2.4453 1.6562-4.8203 2.7656-7.1172 0.8125-1.7305 1.8359-3.3242 3.0703-4.7812 0.50391-0.62891 1.125-1.1055 1.8594-1.4336 0.19141-0.15234 0.32422-0.34766 0.40234-0.57812 0.082031-0.14062 0.19922-0.23828 0.35156-0.29688 0.14844-0.054687 0.30078-0.058593 0.45313-0.003906 0.91797 0.36719 1.7461 0.88281 2.4844 1.5391 0.73828 0.65625 1.3438 1.418 1.8203 2.2812 1.5625 2.8984 2.5352 5.9844 2.918 9.2578 0.46875 3.1953 0.71094 6.4062 0.72656 9.6367v5.0312l-0.125 2.5156-0.25 2.5117c-0.70703 7.1328-2.2305 14.086-4.5781 20.855-4.0586 11.16-9.7695 21.398-17.133 30.715-2.0664 2.5703-4.2656 5.0273-6.5898 7.3711 0.050781-1.6094 0.15234-3.1445 0.27734-4.707z" fill="#fff"/>
  <path d="m1113.3 701.48c-1.082 0.95313-2.668 1.7344-3.1445 2.9414-3.0938 7.7227-5.7852 15.598-8.9062 23.293l-15.094 37.48-3.7969 9.3086c-1.0938 2.7812-2.3789 5.4727-3.8477 8.0742-1.1758 2.1172-2.668 3.9766-4.4805 5.5859-0.77344 0.67188-1.6133 1.25-2.5156 1.7344-0.72656 0.37891-1.4883 0.65234-2.2891 0.83203-1.0977 0.25391-2.1953 0.25391-3.293 0-0.86719-0.26172-1.6562-0.67187-2.3633-1.2344-0.80078-0.65234-1.4883-1.4062-2.0664-2.2617-1.7852-2.6367-3.2109-5.4531-4.2734-8.4531l-7.8984-21.758c-4.0273-11.172-8.0508-22.34-12.074-33.508l-16.504 3.293c0.54688 7.8906 0.59766 15.781 0.16016 23.68-0.44141 7.8945-1.3711 15.73-2.7891 23.512-1.4219 7.7773-3.3164 15.441-5.6914 22.984-2.375 7.5391-5.2109 14.906-8.5078 22.094-1.5078 3.4961-3.2422 6.8945-5.0312 10.266l-2.6914 5.0312c-0.87891 1.5586-1.7578 2.9922-2.6914 4.375-1.5586 2.4219-3.4531 4.543-5.6836 6.3633-0.75391 0.60547-1.5938 1.0508-2.5156 1.3359-0.58594 0.19922-1.1914 0.29297-1.8125 0.27344-0.23438-0.023438-0.46875-0.023438-0.70312 0-0.19922-0.125-0.45312 0-0.65234-0.22266-0.49609-0.17578-0.94922-0.42969-1.3594-0.75781-1.4297-1.1172-2.6445-2.4336-3.6484-3.9492-2.2188-3.4531-3.9609-7.1367-5.2305-11.043-0.35156-0.98047-0.70703-2.2891-1.0586-3.4688l-1.0312-3.5977-2.1133-7.1719c-2.6133-9.6406-4.7266-19.395-6.3398-29.254-1.8984-12.02-3.0625-24.113-3.4961-36.273 2.3672-2.7422 4.6289-5.5352 6.7422-8.3281 7.5469-10.059 13.711-20.121 19.922-30.184 6.2148-10.062 12.051-20.375 17.609-30.738 8.6875-15.848 16.711-32.039 24.074-48.578 3.6367-8.2812 7.1094-16.668 10.414-25.152 1.6328-4.2539 3.2422-8.3008 4.8555-13.105 1.8203-5.25 3.0547-10.633 3.6953-16.152 0.29297-2.8203 0.34375-5.6445 0.15234-8.4766-0.10156-1.4922-0.27734-2.9766-0.52734-4.4531-0.28125-1.6328-0.66797-3.2422-1.1602-4.8281-0.94922-3.1445-2.2773-6.1172-3.9805-8.9258s-3.7305-5.3594-6.0781-7.6523c-2.6875-2.5977-5.7227-4.6875-9.1094-6.2617-3.5234-1.6602-7.2305-2.625-11.117-2.8945-2.8984-0.125-5.7617 0.13672-8.5938 0.78125-2.8281 0.64453-5.5234 1.6484-8.082 3.0195-1.5117 0.8125-2.9531 1.7344-4.3281 2.7656-4.4336 3.4062-8.2344 7.4141-11.395 12.023-1.4102 1.9609-2.7148 3.9492-3.7734 5.7344l-3.1953 5.3086c-2.0859 3.5469-4.3516 7.0195-6.3867 10.617-2.0391 3.5977-4 7.2188-6.0391 10.816-0.82812 1.4844-1.6602 2.9688-2.3633 4.5l-1.9883 4.6562c-7.543 16.977-13.539 34.484-17.984 52.523-1.0312 4.5039-2.2891 8.9531-3.1211 13.508l-2.5156 13.633c-0.77734 4.5547-1.2305 9.1562-1.8594 13.711-0.27734 2.2891-0.60547 4.5781-0.83203 6.8672l-0.47656 6.918c-0.95312 11.422-1.2148 22.859-0.78125 34.312-2.5859 2.4922-5.3438 4.7852-8.2734 6.8672-5.5117 4.1016-11.531 7.2227-18.062 9.3555 1.4258-10.52 1.1328-20.992-0.87891-31.418-1.3477-6.7344-3.5547-13.172-6.6172-19.32-3.1406-6.2969-7.1484-11.98-12.023-17.055-4.9648-5.1914-10.613-9.4766-16.953-12.852-6.6094-3.4883-13.625-5.6172-21.055-6.3906-3.6133-0.33594-7.2266-0.31641-10.836 0.050782-3.6094 0.36719-7.1484 1.0781-10.621 2.1328-3.4688 1.0547-6.8086 2.4297-10.012 4.1328s-6.2148 3.6992-9.0312 5.9844c-2.9883 2.4062-5.6484 5.1328-7.9844 8.1797-2.332 3.043-4.2773 6.3203-5.8242 9.832-1.5508 3.5625-2.6641 7.2578-3.3398 11.082-0.67578 3.8281-0.89844 7.6797-0.66016 11.559 0.41797 7.0938 2.0938 13.875 5.0312 20.348 1.793 4.0742 3.9844 7.9219 6.5625 11.547-0.62891 1.9102-1.1797 3.8242-1.6328 5.7617-2.7969 13.141-3.5586 26.395-2.2891 39.77 0.50391 6.7422 1.0039 13.484 2.1367 20.125 0.96094 6.5508 2.9219 12.793 5.8867 18.715 1.5195 2.8711 3.4062 5.4805 5.6602 7.8242 2.3125 2.3164 4.9531 4.1719 7.9219 5.5586 3.082 1.3477 6.2891 2.2188 9.6289 2.6094s6.6602 0.28125 9.9688-0.32031c6.4688-1.0703 12.402-3.4609 17.809-7.1719 5.3945-3.7461 10.148-8.1836 14.262-13.305 4.0898-5.0625 7.8047-10.387 11.145-15.973 3.3711-5.5117 6.5898-11.172 9.4844-17.008 2.1133-4.2266 4.0664-8.5352 5.8594-12.93 2.6328-0.35156 5.3008-0.77734 8-1.2812 10.547-2.0664 20.492-5.7578 29.832-11.07 0 0.85547 0.22656 1.7109 0.37891 2.5156 0.65234 3.9766 1.1562 7.9492 1.9102 11.875l2.5156 11.773c0.35156 1.6328 0.67969 3.2695 1.082 4.8789l1.332 4.8281 2.6914 9.6367c0.80859 3.2461 2.0898 6.3398 3.1445 9.5078l3.3477 9.3828c2.5469 7.043 6.168 13.484 10.867 19.32 2.832 3.4453 6.1875 6.2695 10.062 8.4766 2.1992 1.2422 4.5273 2.1484 6.9883 2.7227 2.4609 0.57422 4.9531 0.78906 7.4727 0.64844 3.2812-0.27344 6.4102-1.1094 9.3828-2.5156 2.6992-1.3047 5.1367-2.9805 7.3203-5.0312 3.6992-3.4375 6.7773-7.3594 9.2344-11.773 1.0547-1.8359 2.0117-3.6719 2.8906-5.4844l2.5156-5.207c1.5586-3.4961 3.0938-7.0156 4.4766-10.59 4.2344-10.648 7.6172-21.562 10.148-32.742 2.5312-11.176 4.1797-22.484 4.9453-33.918 0-1.8359 0.15234-3.6719 0.20312-5.5078l2.6641 6.7891c2.2148 5.7109 4.3789 11.473 6.4648 17.234 1.9219 6.4453 4.957 12.312 9.1055 17.605 1.1836 1.3594 2.5352 2.5234 4.0469 3.5 1.5156 0.97266 3.1328 1.7188 4.8594 2.2383 1.9648 0.53125 3.9648 0.73047 6 0.60156 2.0312-0.12891 3.9883-0.58203 5.8711-1.3594 3.6406-1.4453 6.7578-3.6328 9.3594-6.5625 4.3594-5.5195 7.4219-11.68 9.1797-18.488 7.5469-23.699 14.137-47.496 21.031-71.266 0.074218-1.082-0.70313-2.5156-0.92969-3.8984zm-151.81-10.441c1.0039-8.0469 2.7656-15.949 4.375-23.871 0.88281-3.9492 2.0117-7.8477 2.9961-11.773 0.52734-1.9609 0.98047-3.9219 1.5586-5.8594l1.8359-5.7852c1.2812-3.8242 2.3398-7.75 3.7969-11.523l4.3281-11.32c1.4336-3.7734 3.2461-7.3672 4.8281-11.094l2.5156-5.5078 2.8438-5.3086c2.5156-5.0312 5.0312-10.062 8.0977-14.789 2.5547-4.5898 5.3555-9.0273 8.4023-13.309 1-1.3359 2.1367-2.5352 3.4219-3.5977 1.082-0.75391 0.70312-0.45312 0.82812-0.52734 0.050781 0.023438 0.10156 0.023438 0.15234 0 0.29688 0.23438 0.5625 0.49219 0.80469 0.78125 0.53906 0.64453 0.96484 1.3594 1.2852 2.1367 0.35547 0.80078 0.5625 1.6406 0.62891 2.5156 0.19531 3.1172-0.13281 6.1758-0.98438 9.1836-1.1406 4.2617-2.5 8.4531-4.0742 12.574-1.6094 4.4805-3.3203 8.9336-5.0312 13.359-6.9805 17.746-14.848 35.098-23.594 52.047-6.1055 11.738-12.609 23.309-19.52 34.711 0.17578-0.98047 0.35156-2.0117 0.50391-3.043zm-97.676 117.95c-4.3008 8.0742-9.7227 15.301-16.277 21.684-3.2305 3.043-6.918 5.3555-11.066 6.9414-3.8086 1.5039-7.75 2.0586-11.824 1.6602-1.7617-0.17578-3.4492-0.63281-5.0586-1.3711-1.6094-0.73438-3.0586-1.7109-4.3477-2.9297-3.1328-3.1094-5.4297-6.75-6.8906-10.918-2.4375-6.75-4.1133-13.684-5.0312-20.801-1.25-7.4961-1.9648-15.043-2.1406-22.641-0.17578-7.9062 0.66406-15.707 2.5156-23.395 4.5664 4.8477 9.6602 9.0547 15.285 12.617 5.6289 3.5586 11.609 6.3633 17.945 8.4141l-0.17578 0.5c8.8711 3.3555 18.027 5.4844 27.469 6.3906 3.7461 0.35156 7.5469 0.52734 11.27 0.60547-3.4141 7.9883-7.3047 15.734-11.672 23.242zm19.945-52.551h-1.4805c-6.8242 0.22656-13.617-0.14062-20.379-1.1055-13.281-1.9102-25.453-6.5156-34.031-13.984-3.6406-3.2422-6.582-7.0234-8.832-11.348 2.6016-2.5117 5.4883-4.6445 8.6562-6.3867 1.1055-0.70703 2.2617-1.2344 3.3438-1.9883s2.2383-1.3594 3.4219-1.8633c0.78125-0.375 1.8594-1.582 1.6602-1.9609-0.47656-0.87891-1.7852-2.1367-2.793-1.9883-3.0078 0.50781-5.8984 1.4023-8.668 2.6836s-5.3203 2.9023-7.6562 4.8633l-0.52734 0.50391c-0.27734-0.95703-0.50391-1.8867-0.67969-2.8164-0.76562-3.5234-0.76562-7.043 0-10.566 0.66797-3.2617 2.0586-6.1797 4.1758-8.7539 1.2344-1.4727 2.5977-2.8125 4.0898-4.0195 1.4922-1.207 3.0859-2.2617 4.7852-3.1641 1.6953-0.90234 3.4609-1.6328 5.3008-2.1914 1.8359-0.5625 3.7109-0.94141 5.6211-1.1406 2.0469-0.16797 4.0938-0.15234 6.1406 0.042968 2.043 0.19922 4.0547 0.57812 6.0312 1.1328 1.9805 0.55859 3.8906 1.2891 5.7383 2.1914s3.5977 1.957 5.2539 3.1758c5.875 4.1289 10.578 9.3203 14.113 15.57 3.6484 6.6406 5.9531 13.715 6.918 21.23 0.94141 7.3047 0.875 14.598-0.20312 21.883z" fill="#fff"/>
  <path d="m1041.9 679.64c0 0.76172-0.074219 1.5117-0.22266 2.2578-0.14844 0.74609-0.36719 1.4688-0.65625 2.1719-0.29297 0.69922-0.64844 1.3672-1.0703 2-0.42188 0.62891-0.90234 1.2148-1.4375 1.7539-0.53906 0.53516-1.125 1.0156-1.7539 1.4375-0.63281 0.42188-1.3008 0.77734-2 1.0703-0.70312 0.28906-1.4258 0.50781-2.1719 0.65625-0.74609 0.14844-1.5 0.22266-2.2578 0.22266-0.76172 0-1.5117-0.074219-2.2578-0.22266-0.74609-0.14844-1.4688-0.36719-2.1719-0.65625-0.69922-0.29297-1.3672-0.64844-2-1.0703-0.62891-0.42188-1.2148-0.90234-1.7539-1.4375-0.53516-0.53906-1.0156-1.125-1.4375-1.7539-0.42188-0.63281-0.77734-1.3008-1.0703-2-0.28906-0.70312-0.50781-1.4258-0.65625-2.1719-0.14844-0.74609-0.22266-1.4961-0.22266-2.2578 0-0.75781 0.074219-1.5117 0.22266-2.2578 0.14844-0.74609 0.36719-1.4688 0.65625-2.1719 0.29297-0.69922 0.64844-1.3672 1.0703-2 0.42187-0.62891 0.90234-1.2148 1.4375-1.7539 0.53906-0.53516 1.125-1.0156 1.7539-1.4375 0.63281-0.42188 1.3008-0.77734 2-1.0703 0.70312-0.28906 1.4258-0.50781 2.1719-0.65625 0.74609-0.14844 1.4961-0.22266 2.2578-0.22266 0.75781 0 1.5117 0.074219 2.2578 0.22266 0.74609 0.14844 1.4688 0.36719 2.1719 0.65625 0.69922 0.29297 1.3672 0.64844 2 1.0703 0.62891 0.42188 1.2148 0.90234 1.7539 1.4375 0.53516 0.53906 1.0156 1.125 1.4375 1.7539 0.42188 0.63281 0.77734 1.3008 1.0703 2 0.28906 0.70312 0.50781 1.4258 0.65625 2.1719 0.14844 0.74609 0.22266 1.5 0.22266 2.2578z" fill="#fff"/>
 </g>
</svg>
