<?xml version="1.0" encoding="UTF-8"?>
<svg width="2245" height="1587" version="1.2" viewBox="0 0 1683.8 1190.3" xmlns="http://www.w3.org/2000/svg" zoomAndPan="magnify">
 <defs>
  <clipPath id="a">
   <path d="m109 230.35h1074v607.65h-1074z"/>
  </clipPath>
 </defs>
 <g id="b">
  <path d="m1242.2 385.26c3.4258-5.2383 9.6523-14.891 21.734-18.316 3.1953-0.87891 6.4453-1.2812 9.7578-1.2031 3.3086 0.078125 6.5391 0.62891 9.6875 1.6562 15.934 4.9805 26.406 21.203 25.473 39.379-1.2188 21.512-18.199 43.395-38.719 49.879-2.0508 0.68359-4.1523 1.1016-6.3086 1.2539-2.1562 0.15625-4.2969 0.039062-6.4258-0.34766-2.125-0.38672-4.1719-1.0273-6.1367-1.9297s-3.7891-2.0312-5.4688-3.3906c-2.3945-2.0039-4.3281-4.3828-5.8008-7.1367-7.0742-12.566-11.605-38.414 2.207-59.844z" fill="#f03d1e"/>
  <g clip-path="url(#a)">
   <path d="m1180.3 315.28c-6.9883-42.18-27.367-61.09-33.648-66.102-15.484-12.258-35.52-18.824-59.379-18.824-2.3438 0.027344-4.6055 0.46875-6.7852 1.3281-2.1797 0.85547-4.1328 2.0742-5.8672 3.6523-4.2734 4.4727-0.79297 9.6836 2.3516 13.957 20.742 28.109 25.047 59.449 19.074 93.164-7.1055 39.832-21 77.625-34.98 115.36-0.69531 1.5977-1.6094 3.0508-2.75 4.3633-1.1406 1.3125-2.4492 2.4258-3.9297 3.3359-16.414 10.137-32.859 20.242-49.727 29.613-8.9766 4.4062-18.156 8.3398-27.539 11.805-0.93359-4.0781-1.5-6.6523-2.0664-9.1992-2.6602-11.664-4.5-23.609-8.1484-34.934-10.531-32.586-28.051-60.129-59.438-76.66-19.047-10.051-38.801-8.4961-52.555 4.2461-15.906 14.805-24.34 33.461-20.574 55.059 7.2422 41.531 33.762 67.234 72.367 80.738 11.973 4.1914 25.273 4.6406 38.488 6.9062 0.17188 0.99609 0.23828 1.9961 0.19922 3-3.5078 40.457-11.52 79.805-30.734 116.07-6.0078 11.922-13.441 22.879-22.305 32.863-13.5 14.523-32.742 11.324-40.527-6.7656-1.8359-4.7773-3.0664-9.707-3.6914-14.789-0.62109-5.082-0.61719-10.164 0.011719-15.246 1.6406-13.32 4.8125-26.266 9.5117-38.84 5.6602-15.57 13.16-30.402 19.469-45.719 8.0977-19.59 3.5664-34.934-13.867-46.938-6.4805-4.4727-13.527-8.0938-20.406-11.973-10.5-5.9727-20.234-12.625-26.348-23.668-1.4453-2.5742-5.1797-3.9062-7.8398-5.832-1.1328 3.2852-3.5078 6.7109-3.1133 9.7969 0.35938 2.9102 0.49219 5.8359 0.39453 8.7656-0.09375 2.9336-0.41797 5.8398-0.96484 8.7227-0.54688 2.8828-1.3125 5.707-2.3008 8.4688-0.98438 2.7656-2.1797 5.4375-3.582 8.0117-6.0547 11.551-12.508 22.902-18.086 34.68-4.0156 8.4922-6.8477 17.496-10.129 26.074-12.059-8.2383-23.492-16.477-35.324-24.062-10.754-6.9102-10.922-6.5977-7.0469-18.629 16.445-51.352 31.559-103.04 36.539-157.06 2.2656-24.488 3.7344-49.059-4.9531-72.695-3.3398-9.1172-19.812-48.125-61.105-65.566-10.625-4.4844-21.691-7.168-33.195-8.0391 6.8945 10.367 11.781 21.605 14.66 33.715 2.0703 8.3867 3.0391 16.895 2.9023 25.531-0.13281 8.6367-1.3672 17.109-3.6953 25.426-19.301 65.113-39.426 130.22-58.84 195.33-1.9805 6.6523-5.207 7.6719-11.32 8.1523-25.191 1.9531-50.352 4.3594-75.398 7.3633-10.922 1.3008-21.594 4.4141-33.168 6.8789 0.24219-2.0781 0.58984-4.1328 1.0469-6.1719 5.3203-18.004 11.039-35.898 15.934-54.016 11.32-41.867 19.98-84.219 19.812-127.87-0.17188-23.836-3.793-46.824-20.547-65.395-6.9375-9.0781-14.898-17.148-23.887-24.203-8.2578-6.293-17.129-11.539-26.625-15.734-9.4922-4.1953-19.348-7.2266-29.555-9.0938 4.9375 6.7148 8.9219 13.957 11.945 21.723 3.0234 7.7695 4.9844 15.797 5.8828 24.082 0.88281 7.457 0.63672 14.871-0.73438 22.25-4.7539 22.848-10.559 45.578-17.293 67.941-19.473 64.859-39.625 129.49-59.434 194.29-1.6445 5.3789-4.332 7.6719-9.7383 7.4766-23.855-0.9375-47.941-0.17188-71.52-3.1719-12.141-1.5586-47.289-7.2773-76.188-34.199-4.7852-4.043-9.1328-8.5117-13.047-13.402-3.9141-4.8906-7.3203-10.113-10.219-15.668-22.328-45.297 4.1055-91.129 6.1992-94.668 4.3867-7.3008 11.32-18.258 24.566-23.637 6.0312-2.4453 12.297-3.4844 18.793-3.1133 20.859 1.0195 37.273 10.699 50.066 26.949 1.7539 2.2383 3.4258 4.5859 5.3203 7.1328 4.8398-7.1055 5.4062-14.352 2.4609-23.977-7.2148-23.723-30.309-40.738-58.809-43.426-1.9805-0.20313-3.9648-0.35938-5.9531-0.46875-1.9883-0.10938-3.9766-0.16797-5.9688-0.17969-1.9922-0.007812-3.9805 0.027344-5.9688 0.11328-1.9883 0.085938-3.9766 0.21875-5.957 0.40234-1.9844 0.17969-3.9609 0.41016-5.9297 0.6875-1.9727 0.28125-3.9375 0.60547-5.8906 0.98047-1.957 0.37109-3.9023 0.79297-5.8359 1.2617-1.9375 0.46875-3.8594 0.98438-5.7695 1.543-1.9102 0.5625-3.8047 1.1719-5.6836 1.8242-1.8828 0.65625-3.7461 1.3555-5.5898 2.0977-1.8477 0.74609-3.6758 1.5352-5.4844 2.3672-1.8086 0.83203-3.5938 1.7109-5.3594 2.6289-1.7656 0.92188-3.5078 1.8828-5.2266 2.8867-1.7188 1.0078-3.4141 2.0508-5.082 3.1406-1.668 1.0859-3.3086 2.2109-4.9219 3.3789-1.6094 1.168-3.1953 2.3711-4.75 3.6172-1.5547 1.2422-3.0781 2.5234-4.5703 3.8398-1.4922 1.3203-2.9531 2.6719-4.3789 4.0625-1.4258 1.3867-2.8203 2.8125-4.1758 4.2656-1.3594 1.457-2.6797 2.9453-3.9648 4.4688-1.2852 1.5195-2.5312 3.0703-3.7422 4.6523-1.2109 1.582-2.3789 3.1914-3.5117 4.8281-1.1328 1.6406-2.2227 3.3047-3.2734 4.9961-1.0508 1.6914-2.0586 3.4062-3.0273 5.1484-0.96875 1.7383-1.8906 3.5039-2.7734 5.2891-0.88281 1.7852-1.7188 3.5898-2.5156 5.4141-0.79297 1.8281-1.543 3.6719-2.2461 5.5352-0.70312 1.8633-1.3633 3.7383-1.9766 5.6328-0.61328 1.8945-1.1797 3.8047-1.6992 5.7266-0.51953 1.9219-0.99219 3.8555-1.4219 5.8008-0.42578 1.9453-0.80469 3.8984-1.1367 5.8633-0.32812 1.9648-0.61328 3.9336-0.84766 5.9102-4.8398 38.332 6.0547 71.961 31.5 100.81 3.1797 3.4141 6.4961 6.6836 9.9531 9.8164 3.457 3.1328 7.0391 6.1133 10.75 8.9414 3.707 2.832 7.5273 5.5 11.461 8.0039 3.9336 2.5078 7.9688 4.8438 12.098 7.0078 4.1328 2.168 8.3477 4.1523 12.648 5.9609 4.2969 1.8125 8.6641 3.4336 13.102 4.875s8.9258 2.6914 13.469 3.75c4.543 1.0625 9.1211 1.9297 13.734 2.6016 38.633 6.0586 77.066 2.207 115.39-3.7383 3.1133-0.48047 6.2852-0.76172 10.586-1.2734-0.875 3.9648-1.4727 6.7656-2.1484 9.5703-7.0781 29.895-15.285 59.449-20.918 89.738-1.4492 7.2227-2.3711 14.516-2.7656 21.875-0.39453 7.3555-0.25781 14.707 0.41406 22.043 0.67188 7.3398 1.8672 14.59 3.5898 21.754 1.7227 7.1641 3.9492 14.168 6.6875 21.012 7.4727 18.398 18.68 33.969 36.621 43.367 14.887 7.9258 26.18 2.832 29.691-13.645 2.8281-13.023 4.6953-26.242 7.5273-39.266 14.973-68.762 38.52-134.92 61.332-201.28 0.75-1.7812 1.8281-3.3438 3.2305-4.6758 1.4023-1.3359 3.0156-2.332 4.832-2.9961 35.52-9.7656 71.52-16.645 108.48-17.379 1.9062 0.15234 3.793 0.44531 5.6602 0.875-0.39844 2.1797-0.56641 3.7656-0.96094 5.2969-9.8789 37.055-20.238 74-29.578 111.17-8.2344 32.727-12.426 65.875-4.0469 99.336 6.3125 25.223 16.98 47.73 40.812 61.375 17.375 9.9922 28.699 4.5 32.262-15.062 2.832-15.258 5.4922-30.543 8.918-45.66 14.461-64.062 36.508-125.84 57.453-187.95 1.5273-4.4727 3.6211-5.6602 7.8086-3.5078 12.68 6.1992 25.473 12.484 38.18 18.371 6.5664 3.0273 8.6602 7.3594 8.4922 14.691-1.0742 30.008 7.0742 57.184 27.934 79.438 20.859 22.25 45.906 34.93 77.461 27.23 32.039-7.8125 53.465-29.41 69.938-56.363 24.281-39.828 33.961-83.852 34.922-130.08 0-4.5586 0.28516-7.7305 5.8594-9.8789 19.219-7.4453 38.039-15.855 57.027-23.867 1.5312-0.64844 3.1445-1.1016 5.8867-2.0352-1.582 3.9336-2.5156 6.7656-3.6211 9.5938-12.934 32.613-26.121 65.113-38.746 97.836-5.2461 13.203-9.0625 26.809-11.449 40.812-2.3828 14.008-3.2852 28.109-2.6992 42.305 0.93359 19.816 5.207 38.926 18.48 54.664 2.8359 3.9727 6.4297 7.0703 10.781 9.2852 1.0781 0.50781 9.8789 4.5859 14.152 1.1055 4.2734-3.4844 2.1797-12.711 1.8125-14.582-5.2656-26.098 32.914-100.41 32.914-100.41 103.27-201.62 121.61-268.65 112.64-323.52zm-254.01 196.01c-22.191-4.9844-38.719-27.094-40.246-53.562-0.625-10.672 1.1016-20.637 7.7539-29.27 11.773-15.258 29.688-15.031 38.32 2.1211 6.3672 12.656 9.4531 27.035 13.047 40.91 1.9805 7.5586 1.9805 15.598 2.832 23.438-0.33984 17.836-3.707 20.41-21.707 16.363z" fill="#f03d1e"/>
  </g>
  <path d="m1513.9 584.78c-10.074-15.766-25.473-23.723-42.762-28.562-6.4961-1.8047-13.074-3.2305-19.73-4.2695-6.6602-1.043-13.359-1.6992-20.094-1.9609-6.7344-0.26562-13.461-0.14062-20.184 0.37891-6.7188 0.51562-13.387 1.418-20.004 2.7109-17.719 3.3398-35.066 8.1797-50.18 18.543-10.867 7.4453-21.254 15.512-26.406 30.203 4.0781-1.3281 6.9062-2.1211 9.625-3.1992 4.8477-1.8594 9.8125-3.3438 14.887-4.457 5.0742-1.1133 10.207-1.8359 15.391-2.1758 5.1836-0.33984 10.363-0.28516 15.539 0.15625 5.1758 0.44531 10.293 1.2734 15.344 2.4844 24.195 5.2969 43.84 18.289 60.848 36.094 7.2148 7.4453 15.133 14.051 23.746 19.816 1.3281 0.89844 2.7188 1.6875 4.168 2.3711s2.9414 1.2539 4.4805 1.7109c1.5352 0.45703 3.0977 0.79688 4.6836 1.0195 1.5898 0.21875 3.1836 0.32031 4.7852 0.29688 1.6016-0.019531 3.1953-0.16406 4.7773-0.42578 1.5781-0.26172 3.1328-0.64453 4.6562-1.1406 1.5234-0.5 3-1.1094 4.4297-1.832 1.4297-0.72266 2.8008-1.5508 4.1055-2.4805 23.18-17.945 18.906-48.012 7.8945-65.281z" fill="#f9d905"/>
  <path d="m1419.8 468.82c2.4922 10.363-0.36719 19.816-5.2344 28.848-3.6602 6.7852-8.0625 13.047-13.203 18.785-5.1406 5.7422-10.883 10.805-17.223 15.188-20.008 13.133-42.453 12.625-50.32 12.113 2.1484-1.1328 3.5938-2.0078 5.1211-2.8281 2.6836-1.25 5.2617-2.6914 7.7266-4.332 2.4688-1.6367 4.7969-3.4492 6.9883-5.4375 2.1953-1.9922 4.2266-4.1328 6.0938-6.4297 1.8711-2.2969 3.5586-4.7188 5.0586-7.2695 1.75-2.9414 3.2656-6 4.5469-9.1719 1.2852-3.168 2.3203-6.4219 3.1094-9.75 0.78906-3.3281 1.3242-6.6992 1.6016-10.109 0.27734-3.4102 0.29688-6.8203 0.054687-10.234-0.22266-5.9219 0.19141-11.801 1.2461-17.637 0.16406-0.88672 0.39453-1.7617 0.69141-2.6133 0.29297-0.85547 0.65234-1.6836 1.0703-2.4844 0.42188-0.80078 0.89844-1.5625 1.4336-2.293 0.53516-0.73047 1.1211-1.4141 1.7578-2.0547 0.64062-0.64062 1.3203-1.2305 2.0469-1.7656 0.72656-0.53906 1.4883-1.0195 2.2891-1.4414 0.79688-0.42578 1.625-0.78516 2.4766-1.0859 0.85156-0.29687 1.7227-0.53125 2.6133-0.69922 16.727-2.3203 27.336 11.352 30.055 22.703z" fill="#fcb249"/>
  <path d="m1206 461.15c-8.4922 0.65234-11.094 3.0312-12 5.0977-2.0664 4.6992 4.4688 9.4844 6.4805 19.418 0.64844 3.1562 0.80469 6.3359 0.46484 9.5391s-1.1523 6.2812-2.4453 9.2305c-9.2266 23.809-18.906 47.418-28.559 71.027-8.4883 20.809-19.812 43.34-22.16 73.773-1.2148 15.062-0.59375 33.234 9.2266 49.539 3.3711 5.8438 7.7383 10.805 13.105 14.891 4.4414 3.0938 9.2383 5.4609 14.398 7.0977s10.445 2.4688 15.855 2.5c5.6602 0.25391 7.7812-2.0938 4.4141-7.4453-1.3242-1.9219-2.4023-3.9766-3.2266-6.1641-0.82812-2.1836-1.3828-4.4375-1.6641-6.7578-0.28125-2.3203-0.28125-4.6406 0-6.957 0.28125-2.3203 0.83594-4.5742 1.6641-6.7578 8.4922-21.629 17.691-43.145 27.625-64.207 11.32-23.836 25.102-46.48 35.121-70.77 17.461-42.238-14.207-91.297-58.301-93.055z" fill="#f03d1e"/>
  <path d="m1403.2 709.11c-19.414-26.102-49.84-37.906-51.906-38.699-12.055-4.5312-39.395-14.805-66.734-2.5195-18.172 8.1523-37.672 26.836-36.793 46.172 0.25391 5.293 2.1484 13.105 6.1992 14.152 6.5352 1.5312 10.102-16.984 26.121-26.211 14.406-8.3242 33.734-6.2852 47.348 1.0742 16.418 8.8906 22.645 24.516 25.727 32.215 13.613 35.16 1.1914 80.906-27.168 108.54-23.945 23.324-53.914 29.555-70.754 31.535-14.969 1.7773-29.977 2.2852-45.031 1.5273-51.113-2.6328-90.34-22.051-121.95-34.961-56.602-23.184-107.83-48.125-167.46-52.004-94.785-6.2266-168.57 38.754-171.74 55.316-0.28125 1.5-1.1328 5.918 1.2188 8.1523 5.207 4.9258 21.875-4.9805 25.215-6.8516 29.945-16.984 112.3-22.902 166.53-17.465 13.902 1.5742 27.68 3.8867 41.332 6.9414 13.656 3.0508 27.105 6.8203 40.359 11.312 13.25 4.4961 26.223 9.6797 38.914 15.562 12.695 5.8828 25.043 12.426 37.035 19.629 27.258 17.668 56.355 31.465 87.285 41.391 1.2148 0.36719 15.168 4.8125 27.254 7.4727 18.312 4.0742 100.25 22.277 156.57-21.656 59.914-46.797 71.293-148.37 32.434-200.62z" fill="#f03d1e"/>
  <path d="m294.04 891.7c0.011719-1.9883-0.10156-3.9688-0.33984-5.9414-1.2148-9.2578-5.0938-15.797-18.762-33.066-2.6055-3.2852-4.9805-6.2266-7.2734-9.0312-30.965-41.219-32.633-86.117-9.3711-134.89-8.7891 4.7305-16.969 10.355-24.535 16.871-7.5664 6.5195-14.34 13.773-20.32 21.77 0 0-42.312 57.184-19.332 135.4 0.75781 2.5508 1.6523 5.0508 2.6875 7.5 1.6953 3.9375 3.6953 7.7109 6 11.324 6.5664 11.691 16.984 24.461 33.145 29.84 4.9805 1.6406 26.887 7.9805 43.582-5.6641 3.082-2.5625 5.6992-5.5391 7.8477-8.9219 2.1523-3.3828 3.7344-7.0156 4.75-10.895 1.7227-4.6172 2.3672-9.3828 1.9219-14.297z" fill="#fcb249"/>
  <path d="m135.55 669.59c1.0508 0.24219 2.0898 0.54688 3.1133 0.90625 4.8086 1.6953 7.8359 4.2461 15.508 12.512l3.9609 4.3594c18.453 18.965 42.113 25.477 70.758 21.289-3.6602 3.3828-7.6367 6.3359-11.93 8.8594-4.2969 2.5234-8.8086 4.5625-13.543 6.1133-3.082 0.80469-6.1953 1.4609-9.3398 1.9766-3.1406 0.51172-6.3008 0.88281-9.4766 1.1055-3.1797 0.22266-6.3594 0.30078-9.543 0.23047-3.1836-0.070312-6.3594-0.28516-9.5234-0.64844-3.1641-0.36328-6.3047-0.86719-9.4219-1.5195-3.1172-0.65234-6.1953-1.4453-9.2422-2.3828-3.043-0.93359-6.0391-2.0078-8.9844-3.2188-2.9453-1.2109-5.8281-2.5586-8.6484-4.0352-1.9531-1.0195-3.6797-2.1484-3.6797-2.1484-1.9492-1.2734-3.8008-2.6797-5.5469-4.2188-5.4922-4.418-11.125-10.59-12.172-18.488-0.30859-2.4336-1.2148-12.938 7.9258-18.625 1.8164-1.0664 3.7461-1.8594 5.7852-2.3789 2.0391-0.51953 4.1094-0.74609 6.2148-0.67969 2.6562-0.16406 5.2539 0.16406 7.7852 0.99219z" fill="#f9d905"/>
 </g>
</svg>
