<?xml version="1.0" encoding="UTF-8"?>
<svg width="2245" height="1587" version="1.2" viewBox="0 0 1683.8 1190.3" xmlns="http://www.w3.org/2000/svg" zoomAndPan="magnify">
 <g id="a">
  <path d="m387.92 654.89c-0.050781-0.050781-0.10156-0.097656-0.15234-0.14453 0.10938 0.10547 0.14844 0.14453 0.15234 0.14453z"/>
  <path d="m1266.8 421.22c-6.3086-6.1055-13.273-11.809-20.203-17.176-6.9844-5.4023-14.059-10.77-21.559-15.445-3.043-1.8984-6.5938-4.668-10.277-4.668h-57.168c-6.0039-4.9102-15.121-12.086-21.02-14.777-0.78906-3.0195-1.4805-6.0703-2.082-9.1328-4.8398-24.668-5.0742-49.992-10.516-74.566-5.3828-24.285-14.484-47.926-28.723-68.434-19.004-27.375-46.023-49.066-72.992-68.152-40.387-28.582-90.816-47.691-136.95-19.637-18.773 11.41-33.605 29.297-39.098 50.773-6.7344 26.348 0.58203 53.914 11.168 78.211 10.957 25.152 25.297 49.793 43.281 70.59 12.41 14.348 27.234 26.82 42.156 38.438 7.4688 5.8125 15.074 11.465 22.949 16.688h-102.47-185.31c-7.1836-7.3008-21.836-19.316-23.441-20.555-3.5156-2.7266-27.082-23.738-31.832-20.117-15.289 11.66-34.016 16.914-53.188 15.734-9.0898-0.55859-18.098-2.4492-26.711-5.375-1.4648-0.49609-2.9102-1.043-4.3516-1.6016-10.52-12.82-20.254-25.82-29.152-40.105-11.727-18.824-22.617-38.184-35.242-56.438-13.324-19.262-28.676-36.559-46.188-52.109-21.457-19.059-45.434-38.484-71.777-50.41-32.324-14.629-80.945-9.5312-90.336 31.133-5.3242 23.059 7.8438 39.359 24.184 53.809 24.266 21.453 49.945 40.625 81.852 47.84 4.1289 0.93359-0.88672-4.2109-1.1992-4.6016-4.4727-5.5312-11.176-10.703-16.59-15.141-7.4375-6.1055-15.051-12.023-22.984-17.48-2.2344-1.5391-4.7109-3.4883-7.2891-5.1914-0.042969-0.76953-0.09375-1.5391-0.10156-2.3125-0.10156-15.496 7.5742-30.301 20.18-39.258 14.121-10.039 32.723-12.629 49.441-9.1016 3.0664 0.64453 6.0859 1.5352 9.0625 2.5508 2.125 2.2266 4.1445 4.4102 5.3359 5.9648 23.309 30.391 39.688 65.402 62.527 96.121 25.355 34.105 59.473 64.551 96.25 86.645h-2.0469-259.4-85.207-26.754c-3.293 0-10.941-1.4805-13.965 0-0.375 0.18359-1.2812 0-1.7305 0-1.2969 0 8.668 10.445 7.0156 8.8438 6.3086 6.1055 13.273 11.809 20.207 17.176 6.9805 5.4062 14.055 10.77 21.555 15.445 3.043 1.8984 6.5977 4.6719 10.277 4.6719h103.35 70.453c-3.3008 4.8008-7.7539 8.8203-12.734 11.848-14.836 9.0234-32.707 9.9922-49.047 14.691-26.969 7.75-50.297 34.023-39.867 61.883-0.066406 0.03125-0.13672 0.046874-0.19922 0.082031-41.41 26.258-70.055 70.586-74.875 119.65-5.2031 52.98 16.656 102.18 53.938 138.95 43 42.398 95.238 76.637 152.73 95.531 54.57 17.934 112.16 24.047 167.06 40.781 14.336 4.3711 28.602 9.3359 42.199 15.672 6.1484 2.8672 12.242 6.0117 18.105 9.4375 0.54688 0.51172 0.98828 0.93359 1.1914 1.1523 4.5195 4.9141 8.5898 10.168 12.309 15.707 7.6484 11.395 13.484 23.703 17.695 36.754 1.2305 3.8203 9.7734 10.227 12.191 12.363 7.1875 6.3633 14.793 12.383 22.52 18.074 5.875 4.3281 12.027 9.4648 18.707 12.43 1.5703 0.69922 5.9297 3.6914 4.7539 0.050781-18.035-55.902-70.461-95.809-117.54-126.79-46.617-30.672-98.719-45.477-152.82-56.977-51.055-10.852-103.89-20.047-150.46-44.848-1.9336-1.0273-3.832-2.2227-5.7344-3.4219-7.1875-8.1055-13.488-16.832-18.766-26.363-12.465-22.516-19.25-47.934-19.742-73.66-1.0156-52.938 25.484-102.86 68.16-133.33 3.7812 2.6758 7.6211 5.2539 11.531 7.6953 17.75 11.086 32.898 10.32 52.938 7.1758 13.59-2.1328 27.305-2.75 40.898-1.418-0.070312 1.1133-0.16797 2.2422-0.33203 3.3867-5.7617 41.039-50.031 52.426-84.277 59.324-1.3594 0.27344 7.2188 8.9844 7.1719 8.9883 6.2656 6.0508 13.172 11.711 20.047 17.031 6.9844 5.4062 14.059 10.773 21.555 15.449 2.6172 1.6289 7.0469 5.3203 10.281 4.668 34.605-6.9688 79.934-18.855 84.5-60.887 2.2852-21.035-11.582-34.867-26.34-47.707-20.715-18.031-44.227-37.477-71.688-43.664-19.59-4.4141-39.598-4.3477-59.355-1.4766 3.9219-12.559 13.695-23.266 25.164-29.508 17.918-9.75 39.262-9.043 57.734-17.277 18.094-8.0625 33.262-28.707 19.852-47.555-3.5156-4.9414-7.793-9.5508-12.465-13.895h101.71c0.15234 56.215 0.30469 112.43 0.45703 168.65 0.046875 17.5-0.011719 35.008 0.14844 52.508 0.13281 14.742 0.79297 29.879 6.5039 43.688 6.4844 15.68 20.438 27.258 33.172 37.805 15.633 12.949 34.496 30.156 55.117 34.156 4.0352 0.78516-0.71094-3.9961-1.1992-4.5977-4.4688-5.5352-11.172-10.707-16.586-15.145-4.1211-3.3789-8.3047-6.6914-12.555-9.9141-1-2.5781-1.8203-5.2305-2.4805-7.9375-3.0664-12.523-2.9023-25.539-2.9414-38.344-0.09375-29.188-0.15625-58.371-0.23828-87.555-0.15625-57.602-0.3125-115.2-0.46875-172.8 0-0.16406-0.023437-0.33594-0.058594-0.50781h269 67.789c0.066407 24.559 0.13281 49.117 0.19922 73.676-4.1953-2.9883-8.8984-6.7188-13.742-7.9844-39.766-10.391-75.707 10.188-91.762 43.082-5.8398-4.7109-11.812-9.2422-17.801-13.629-13.656-9.9961-28.035-19.676-44.043-25.512-46.211-16.836-96.391 4.125-118.33 47.637-23.086 45.781-7.7617 94.305 20.816 133.52 34.793 47.742 79.848 88.254 127.15 123.23 48.414 35.793 101.57 65.543 161.7 75.148 3.9336 0.62891-0.53516-3.7734-1.1992-4.5977-4.4727-5.5352-11.176-10.707-16.586-15.145-7.4414-6.1016-15.055-12.023-22.988-17.477-4.207-2.8984-9.8633-8.0273-14.945-8.8398-37.629-6.0117-74.074-19.398-106.37-39.699-3.125-1.9609-5.7734-3.6953-9.0977-6.0352 1.2773 0.89844 3.7969 2.9141-1.5352-1.1406-0.19922-0.16016-0.41797-0.33984-0.69922-0.57031-0.59766-0.48438-1-0.80859-1.2578-1.0117-0.15625-0.13281-0.30469-0.26172-0.50781-0.4375-3.4375-2.9531-6.5312-5.7773-9.6719-8.7656-13.957-13.281-27.035-27.648-39.004-42.75-24.809-31.297-44.262-68.918-36.68-109.92 6.6836-36.152 32.066-68.883 68.09-79.184 15.367-4.3906 32.102-4.7422 47.684-0.80078 0.65625 1.3086 1.2891 2.6328 1.875 3.9688 2.9492 6.7227 4.6055 13.59 5.1172 20.613-0.52734 4.6562-0.71094 9.4102-0.48828 14.246 0.14063 3.0078 5.5156 7.3906 7.0195 8.8477 6.3047 6.1055 13.27 11.809 20.203 17.176 6.9805 5.4023 14.059 10.77 21.555 15.445 0.88672 0.55469 10.105 5.9336 10.281 4.668 0.65234-4.707 0.78516-9.332 0.46484-13.848 3.6484-32.703 25.285-61.219 54.855-71.043 0.050781 18.594 0.10156 37.184 0.15234 55.777 0.046876 17.5-0.011718 35.008 0.14844 52.508 0.13281 14.742 0.79297 29.879 6.5039 43.688 6.4844 15.68 20.438 27.258 33.172 37.805 15.633 12.949 34.496 30.156 55.117 34.16 4.0352 0.78125-0.71094-4-1.1992-4.6016-4.4688-5.5352-11.172-10.703-16.586-15.145-4.1211-3.3789-8.3008-6.6914-12.555-9.9102-1-2.582-1.8164-5.2344-2.4805-7.9414-3.0664-12.52-2.8984-25.539-2.9414-38.344-0.089844-29.188-0.15625-58.371-0.23828-87.555-0.15625-57.602-0.3125-115.2-0.46875-172.8 0-0.16406-0.023438-0.33203-0.058594-0.50781h79.027c0.15234 56.215 0.30469 112.43 0.45703 168.65 0.046875 17.504-0.011719 35.008 0.14844 52.512 0.13281 14.742 0.79297 29.875 6.5039 43.684 6.4844 15.68 20.438 27.258 33.172 37.805 15.633 12.949 34.496 30.156 55.121 34.16 4.0312 0.78125-0.71484-4-1.1992-4.6016-4.4727-5.5352-11.176-10.703-16.59-15.145-4.1211-3.3789-8.3008-6.6914-12.555-9.9102-1-2.582-1.8164-5.2344-2.4805-7.9414-3.0664-12.52-2.8984-25.539-2.9414-38.344-0.089844-29.188-0.15625-58.371-0.23828-87.555-0.15625-57.602-0.3125-115.2-0.46484-172.8-0.003906-0.16406-0.027343-0.33203-0.0625-0.50781h80.043 26.754c3.293 0 10.945 1.4805 13.965 0 0.375-0.18359 1.2852 0 1.7344 0 1.293 0-8.6719-10.445-7.0195-8.8477zm-603.45 513.15c-0.070312-0.09375-0.11719-0.17188-0.12891-0.22656 0.007812 0.050781 0.082031 0.14844 0.12891 0.22656zm-164.08-342.65c3.2227 1.8672 4.6914 3.3477 0 0zm307.09 194.86c-0.082031-0.066406-0.18359-0.15234-0.28906-0.23828 1.3164 1.0195 3.7383 2.9883 0.28906 0.23828zm169.99-406.64c-8.7031-7.1406-17.816-14.922-27.695-20.938-0.023438-0.03125-0.050782-0.0625-0.074219-0.097656-6.832-9.1406-12.809-18.902-18.406-28.836-11.609-20.605-22.527-42.734-26.203-66.32-6.6328-42.57 16.371-81.223 56.691-96.332 20.371-7.6328 42.34-7.6172 63.078-1.3672 3.3633 1.0156 6.7227 2.1641 9.9961 3.4844 3.0195 3.9727 5.8359 8.1172 8.4375 12.371 12.109 19.801 19.969 42.012 24.246 64.773 3.9492 21.016 4.5977 42.488 8.3359 63.539 4.3789 24.648 13.48 46.25 31.695 63.852 3.3984 3.2891 6.9531 6.5938 10.613 9.8633h-5.6523-130.17c-1.6797-1.3828-3.3398-2.7227-4.8906-3.9922z"/>
  <path d="m1448.3 943.46c-27.18-17.156-58.094-22.336-88.953-29.223-15.363-3.4258-30.797-7.4805-44.984-14.445-1.6367-0.78906-3.2461-1.625-4.832-2.5039-0.29688-0.17969-0.53125-0.31641-0.79297-0.47266-1.1523-2.0039-4.8906-7.3906-5.3672-8.1758-4.4492-7.3047-7.5625-15.289-9.2031-23.691-5.6406-28.867 6.9883-57.305 30.387-74.188 6.8789 4.2031 13.223 5.8477 21.727 4.7148 6.8203-0.90625 13.285-1.9219 20.164-1.4961-0.17969 1.1953-0.45703 2.3906-0.78906 3.5078-1.293 4.3125-3.8086 8.1719-7.0195 11.285-8.1758 7.9219-20.23 10.246-30.961 12.434 0 0 12.27 11.965 13.609 13.008 3.1289 2.4453 11.438 10.973 15.918 10.059 12.055-2.4531 26.137-5.2383 33.941-15.75 6.0391-8.1328 6.8125-18.672 0.48047-26.73-16.227-20.645-41.09-32.961-67.027-30.488 1.0352-2.293 2.4492-4.4258 4.1328-6.2656 10.035-10.953 26.406-7.0938 37.629-15.555 10.039-7.5625 7.543-17.27-0.49609-24.73-0.58594-0.54297-1.1914-1.1133-1.8125-1.6953h60.777c-1.0156 0-11.781-11.586-13.609-13.012-3.8945-3.043-10.598-10.059-15.918-10.059h-38.43c-0.035157-0.03125-0.10156-0.085938-0.125-0.10547-2.5156-1.9648-11.406-10.703-15.449-10.141-0.96094-2.668-1.7578-5.4062-2.1797-8.4258-1.5625-11.164 0.23438-22.477 1.8672-33.512 2.6836-18.188 6.4414-39.676-6.1562-55.191-6.25-7.6953-14.535-13.898-22.48-19.73-5.9844-4.3867-12.906-9.6367-20.449-10.688-7.207-1.0039-15.094 2.1172-18.363 8.9531-3.75 7.8398 1.0859 15.574 5.6719 21.781 4.4688 6.0508 11.344 10.809 17.355 15.219 2.6758 1.9648 6.1562 5.4102 9.3516 6.2148 0.26953 0.066406 3.7227 1.8438 2.3789 0.023437-5.668-7.6758-9.9453-17.148-1.7344-24.773 1.6953-1.5742 3.5391-2.6445 5.5391-3.3281 0.92969 3 1.8203 6.0508 1.9766 9.25 0.27734 5.582-0.20312 11.18-0.83594 16.719-1.1133 9.7539-3.1953 19.383-3.8984 29.184-1.2891 18.023 2.3438 33.781 15.453 46.672 1.3789 1.3594 2.8281 2.7656 4.332 4.1875-2.6328 0.14844-5.3125 0.023438-8.0859-0.41406-2.6367-0.42188-5.9766-2.082-8.6328-2.2695-6.8711-9.4102-11.465-20.277-16.105-30.891-11.094-25.363-25.367-42.941-48.023-59.039-12.805-9.0977-49.102-25.07-53.609 2.0469-1.6641 10.016 7.3945 17.043 14.148 22.828 10.051 8.6133 20.844 16.082 33.031 21.285 1.6172 0.69141-7.7891-8.9531-8.8945-9.8711-2.6641-2.2188-5.4492-4.5625-8.3555-6.7461-0.36328-1.0117-0.67188-2.0391-0.63672-3.0586 0.13281-3.6914 2.1953-7.5117 4.707-10.125 2.9922-3.1172 7.1953-4.9844 11.395-5.7773 0.85156-0.16016 8.793-0.023437 13.578 0.57422 1.2148 1.7969 2.375 3.6367 3.4648 5.5078 2.6055 4.4648 4.8477 9.1406 6.9922 13.844 4.4023 9.6562 8.2148 19.59 13.445 28.852 9.5352 16.887 24.238 29.848 39.93 40.945h-59.781c1.0156 0 11.781 11.582 13.609 13.012 3.8906 3.0391 10.594 10.059 15.918 10.059h52.938c-3.5781 3.8672-9.25 6.6445-14.098 8.0117-10.559 2.9805-22.07 3.5352-28.91 13.422-5.4727 7.9102-4.457 15.348-0.42969 22.008-25.098 17.137-38.254 47.105-31.723 77.234 6.5117 30.031 31.285 50.277 55.539 66.75 25.844 17.555 55 24.332 85.133 30.711 16.086 3.4023 32.34 6.957 47.559 13.332 3.7383 1.5625 7.1875 3.5508 10.832 5.2578 0.089843 0.054688 0.14453 0.089844 0.22656 0.14063 0.43359 0.48437 0.86719 0.97266 1.2969 1.457 5.0703 7.2344 9.1719 13.68 12.031 22.109 1.9688 5.7969 12.625 11.746 17.355 15.219 1.6953 1.2422 12.305 7.9297 11.73 6.2422-9.1953-27.105-35.059-46.754-58.398-61.492zm-191.75-332.05c0.48438 0.16797 0.75391 0.35547 0.69531 0.5625-0.015624 0.0625-0.28125-0.16406-0.69531-0.5625z"/>
  <path d="m1466.8 855.96c2.0117 18.629 26.906 18.609 28.984 0 2.3242-20.848 2.2773-42.297 3.3672-63.266 1.0977-21.152 1.7148-42.074 1.3594-63.266-0.41016-24.441-37.48-24.469-37.98 0-0.43359 21.184 0.10938 42.113 1.1328 63.266 1.0117 20.965 0.88672 42.418 3.1367 63.266z"/>
  <path d="m1494.2 882.04c-1.1836-0.91797-2.3711-1.8359-3.5586-2.7539-2.7422-1.5898-5.7031-2.3906-8.8789-2.3984-2.4219-0.09375-4.6797 0.41406-6.7773 1.5156-2.1797 0.70703-4.0664 1.918-5.6602 3.6367-1.7148 1.5898-2.9297 3.4805-3.6406 5.6602-1.0977 2.0977-1.6055 4.3555-1.5117 6.7773 0.20703 1.5586 0.41797 3.1172 0.625 4.6758 0.83594 2.9805 2.3438 5.5664 4.5273 7.7617 1.1836 0.91797 2.3711 1.832 3.5586 2.75 2.7422 1.5898 5.7031 2.3906 8.8789 2.4023 2.4219 0.089844 4.6797-0.41406 6.7773-1.5156 2.1797-0.70703 4.0703-1.9219 5.6602-3.6367 1.7188-1.5938 2.9297-3.4805 3.6406-5.6602 1.1016-2.0977 1.6055-4.3555 1.5117-6.7773-0.20703-1.5586-0.41797-3.1172-0.625-4.6758-0.83594-2.9805-2.3438-5.5664-4.5273-7.7617z"/>
 </g>
</svg>
