<?xml version="1.0" encoding="UTF-8"?>
<svg width="2245" height="1587" version="1.2" viewBox="0 0 1683.8 1190.3" xmlns="http://www.w3.org/2000/svg" xmlns:xlink="http://www.w3.org/1999/xlink" zoomAndPan="magnify">
 <defs>
  <clipPath id="y">
   <path d="m1166 324h297v312h-297z"/>
  </clipPath>
  <clipPath id="a">
   <path d="m1260 600.84c47.941 47.965 126.7 46.301 172.5-4.9844 37.758-42.277 40.086-106.86 5.2734-151.59-3.9883-5.125-8.2812-9.8164-12.832-14.074-13.34-12.488-20.266-30.109-18.566-48.301 1.4844-15.863-4.2656-32.273-17.254-43.875-19.883-17.758-51.027-17.301-70.43 0.98047-2.6094 2.4609-4.9062 5.125-6.8906 7.9414-6.6562 9.4453-19.172 12.109-29.691 7.3438-31.52-14.266-70.188-7.5352-94.879 20.301-26.531 29.91-27.238 75.898-1.582 106.57 4.957 5.9297 10.535 10.953 16.539 15.086 13.164 9.0547 22.055 23.094 24.488 38.895 3.7109 24.051 14.809 47.18 33.328 65.711z"/>
  </clipPath>
  <clipPath id="r">
   <path d="m251 102.18h553v572.82h-553z"/>
  </clipPath>
  <clipPath id="f">
   <path d="m789.07 437.87c-10.582-21.277-10.953-45.918-1.6211-67.773 17.984-42.125 9.8125-92.754-24.543-127.13-11.293-11.305-24.348-19.766-38.281-25.398-19.574-7.9141-34.988-23.762-43.055-43.285-17.328-41.922-58.586-71.418-106.75-71.418-44.902 0-83.809 25.637-102.92 63.082-13.301 26.074-40.207 42.109-69.438 43.324-50.809 2.1094-100.78 28.824-130.54 80.188-26.289 45.375-27.578 101.48-2.8242 147.71 14.785 27.613 35.23 48.488 58.59 62.695 23.125 14.062 37.66 38.629 39.172 65.664 0.023437 0.41797 0.046875 0.83594 0.074219 1.2539 3.8633 58.098 51.312 104.72 109.44 107.57 31.262 1.5312 59.953-9.3828 81.574-28.219 20.629-17.965 48.754-24.285 75.195-17.273 13.23 3.5078 27.258 5.0625 41.754 4.3242 69.387-3.5117 125.38-60.207 128.14-129.67 0.94141-23.648-4.1953-46.008-13.969-65.652z"/>
  </clipPath>
  <clipPath id="j">
   <path d="m656 480h148v154h-148z"/>
  </clipPath>
  <clipPath id="t">
   <path d="m656.16 578.11c0 20.457 6.2891 39.441 17.02 55.141 0.57422-0.019532 1.1406-0.023438 1.7148-0.054688 69.391-3.5117 125.38-60.207 128.14-129.67 0.13281-3.3516 0.11328-6.668 0.003907-9.9648-14.438-8.418-31.211-13.262-49.129-13.262-53.984 0-97.75 43.793-97.75 97.809z"/>
  </clipPath>
  <clipPath id="aj">
   <path d="m494 429h202v245h-202z"/>
  </clipPath>
  <clipPath id="ab">
   <path d="m494.82 429.55v244.25c24.027-2.6172 45.84-12.59 63.129-27.652 20.625-17.969 48.754-24.289 75.191-17.273 13.23 3.5078 27.262 5.0625 41.754 4.3242 7.0742-0.35547 13.996-1.293 20.746-2.7148z"/>
  </clipPath>
  <clipPath id="ag">
   <path d="m399 154h146v210h-146z"/>
  </clipPath>
  <clipPath id="w">
   <path d="m500.38 272.31h-56.805v77.398c0 9.1406-11.133 13.707-22.266 13.707-11.133 0-22.266-4.5664-22.266-13.707v-181.64c0-9.4258 11.133-13.426 22.266-13.426 11.133 0 22.266 4 22.266 13.426v69.973h56.805v-69.973c0-9.4258 11.133-13.426 22.266-13.426 11.133 0 22.262 4 22.262 13.426v181.65c0 9.1367-11.133 13.707-22.262 13.707-11.133 0-22.266-4.5703-22.266-13.707z"/>
  </clipPath>
  <clipPath id="q">
   <path d="m561 152h167v212h-167z"/>
  </clipPath>
  <clipPath id="l">
   <path d="m561.46 345.14c0-0.85938 0.28516-2 0.57031-3.1406l53.094-174.22c3.1406-9.9922 15.984-14.852 29.117-14.852 13.129 0 25.977 4.8594 29.113 14.852l53.379 174.22c0.28516 1.1406 0.57031 2.2812 0.57031 3.1406 0 10.57-16.27 18.281-28.543 18.281-7.1367 0-12.844-2.2852-14.555-8.2852l-9.707-35.699h-60.23l-9.7031 35.699c-1.7148 6-7.4258 8.2852-14.559 8.2852-12.277 0-28.547-7.7109-28.547-18.281zm103.62-59.977-20.836-76.539-20.84 76.539z"/>
  </clipPath>
  <clipPath id="o">
   <path d="m743 154h144v210h-144z"/>
  </clipPath>
  <clipPath id="ah">
   <path d="m743.87 168.07c0-7.1406 6.5664-13.426 16.555-13.426h59.09c37.676 0 67.363 17.707 67.363 65.691v1.4297c0 47.98-30.828 66.258-70.219 66.258h-28.258v61.695c0 9.1367-11.133 13.707-22.266 13.707-11.133 0-22.266-4.5703-22.266-13.707zm44.531 25.418v60.262h28.258c15.984 0 25.691-9.1406 25.691-28.559v-3.1406c0-19.422-9.707-28.559-25.691-28.559h-28.258z"/>
  </clipPath>
  <clipPath id="s">
   <path d="m906 154h144v210h-144z"/>
  </clipPath>
  <clipPath id="e">
   <path d="m906.29 168.07c0-7.1406 6.5664-13.426 16.555-13.426h59.09c37.68 0 67.363 17.707 67.363 65.691v1.4297c0 47.98-30.828 66.258-70.223 66.258h-28.258v61.695c0 9.1367-11.133 13.707-22.262 13.707-11.133 0-22.266-4.5703-22.266-13.707zm44.531 25.418v60.262h28.258c15.984 0 25.691-9.1406 25.691-28.559v-3.1406c0-19.422-9.707-28.559-25.691-28.559h-28.258z"/>
  </clipPath>
  <clipPath id="v">
   <path d="m1053 154h166v210h-166z"/>
  </clipPath>
  <clipPath id="x">
   <path d="m1113.8 278.03c0-1.7148-0.57422-3.1445-1.1445-4l-59.086-97.965c-0.57031-1.1445-0.57031-2.2852-0.57031-3.1406 0-10.566 17.984-18.281 30.258-18.281 7.1367 0 9.707 2.8594 12.844 8.2852l39.965 73.398 39.676-73.398c2.8555-5.4297 5.707-8.2852 12.844-8.2852 12.273 0 30.258 7.7148 30.258 18.281 0 0.85938 0 2-0.57031 3.1406l-58.805 97.965c-0.57031 0.85547-1.1406 2.2812-1.1406 4v71.688c0 9.1367-11.133 13.707-22.262 13.707-11.133 0-22.27-4.5703-22.27-13.707z"/>
  </clipPath>
  <clipPath id="m">
   <path d="m119.39 410h381.61v547h-381.61z"/>
  </clipPath>
  <clipPath id="ad">
   <path d="m384.02 718.3h-148.34v202.14c0 23.867-29.074 35.801-58.145 35.801-29.078-0.003906-58.148-11.934-58.148-35.805v-474.38c0-24.613 29.07-35.055 58.148-35.055 29.07 0 58.145 10.441 58.145 35.055v182.74h148.34v-182.74c0-24.613 29.074-35.055 58.148-35.055s58.145 10.441 58.145 35.055v474.39c0 23.867-29.07 35.801-58.145 35.801-29.07 0-58.148-11.934-58.148-35.801z"/>
  </clipPath>
  <clipPath id="c">
   <path d="m574 410h367v551h-367z"/>
  </clipPath>
  <clipPath id="d">
   <path d="m574.87 784.68v-197.66c0-128.29 79.766-176.03 182.64-176.03s183.38 47.738 183.38 176.03v197.66c0 128.29-80.508 176.03-183.38 176.03s-182.64-47.738-182.64-176.03zm249.73-197.66c0-51.465-25.344-74.586-67.094-74.586-41.746 0-66.344 23.121-66.344 74.586v197.66c0 51.465 24.598 74.586 66.344 74.586 41.75 0 67.094-23.125 67.094-74.586z"/>
  </clipPath>
  <clipPath id="g">
   <path d="m1015 410h321v547h-321z"/>
  </clipPath>
  <clipPath id="i">
   <path d="m1066.1 956.23c-25.344 0-50.691-11.934-50.691-35.801v-474.38c0-24.613 29.074-35.055 58.148-35.055 29.074 0 58.145 10.441 58.145 35.055v408.75h169.96c22.367 0 33.547 25.359 33.547 50.719 0 25.363-11.18 50.723-33.547 50.723h-235.57z"/>
  </clipPath>
  <clipPath id="p">
   <path d="m1097 736h239v221h-239z"/>
  </clipPath>
  <clipPath id="n">
   <path d="m1097.3 736.04v220.2h204.43c22.367 0 33.543-25.359 33.543-50.723 0-25.355-11.18-50.719-33.543-50.719h-169.96v-118.76z"/>
  </clipPath>
  <clipPath id="h">
   <path d="m1382 410h116.52v547h-116.52z"/>
  </clipPath>
  <clipPath id="aa">
   <path d="m1382.2 446.05c0-24.613 29.074-35.055 58.148-35.055 29.074 0 58.145 10.441 58.145 35.055v474.39c0 23.867-29.07 35.801-58.145 35.801-29.074 0-58.148-11.934-58.148-35.801z"/>
  </clipPath>
  <clipPath id="ai">
   <path d="m998 618h138v443h-138z"/>
  </clipPath>
  <clipPath id="b">
   <path d="m1076.6 807.91c0-20.012-16.211-36.23-36.211-36.23s-36.211-16.227-36.211-36.234c0-64.746 52.457-117.23 117.16-117.23 7.2305 0 13.203 5.6836 13.527 12.914 0.30078 6.8398 0.46094 13.719 0.46094 20.633v239.83c0 45.723-6.5703 89.906-18.805 131.67-6.4531 22.027-26.484 37.273-49.422 37.273-13.629 0-26.695-5.418-36.328-15.055-42.328-42.355-42.328-111.02 0-153.37l18.727-18.738c17.355-17.363 27.098-40.91 27.098-65.461z"/>
  </clipPath>
  <clipPath id="k">
   <path d="m235 796h293v293h-293z"/>
  </clipPath>
  <clipPath id="u">
   <path d="m391.83 814.48c-12.012 9.5156-20.613 21.43-25.84 34.391-7.0312 17.445-22.453 29.887-41.07 32.531-22.316 3.1719-43.801 13.605-60.633 31.312-36.77 38.672-38.004 100.3-2.6914 140.31 40.055 45.383 109.38 46.996 151.51 4.8359 16.566-16.574 26.367-37.352 29.406-58.902 2.5938-18.391 15.168-34.039 32.391-40.961 10.129-4.0742 19.617-10.207 27.828-18.422 34.898-34.918 32.539-92.992-7.0703-124.78-30.055-24.121-73.629-24.246-103.83-0.31641z"/>
  </clipPath>
  <clipPath id="ac">
   <path d="m296 700h115v115h-115z"/>
  </clipPath>
  <clipPath id="z">
   <path d="m410.45 757.49c0 1.8633-0.089843 3.7266-0.27344 5.5859-0.18359 1.8555-0.45703 3.6992-0.82031 5.5312-0.36328 1.832-0.81641 3.6406-1.3555 5.4258-0.54297 1.7852-1.1719 3.543-1.8867 5.2656-0.71094 1.7227-1.5078 3.4102-2.3867 5.0547-0.88281 1.6484-1.8398 3.2461-2.875 4.7969-1.0352 1.5547-2.1484 3.0508-3.332 4.4922-1.1836 1.4453-2.4336 2.8242-3.7539 4.1445-1.3164 1.3203-2.6992 2.5742-4.1406 3.7578s-2.9375 2.293-4.4883 3.332c-1.5508 1.0352-3.1484 1.9961-4.7969 2.875-1.6445 0.87891-3.3281 1.6758-5.0508 2.3906-1.7266 0.71484-3.4805 1.3438-5.2656 1.8867-1.7852 0.53906-3.5898 0.99219-5.4219 1.3555-1.8281 0.36719-3.6719 0.64062-5.5273 0.82422-1.8594 0.17969-3.7188 0.27344-5.5859 0.27344-1.8633 0-3.7266-0.09375-5.582-0.27344-1.8555-0.18359-3.6992-0.45703-5.5273-0.82422-1.832-0.36328-3.6367-0.81641-5.4219-1.3555-1.7891-0.54297-3.543-1.1719-5.2656-1.8867-1.7227-0.71484-3.4062-1.5117-5.0508-2.3906-1.6484-0.87891-3.2461-1.8398-4.7969-2.875-1.5508-1.0391-3.0469-2.1484-4.4883-3.332-1.4414-1.1836-2.8242-2.4375-4.1445-3.7578-1.3164-1.3164-2.5703-2.6992-3.7539-4.1445-1.1836-1.4414-2.293-2.9375-3.3281-4.4922-1.0352-1.5508-1.9961-3.1484-2.875-4.7969-0.87891-1.6445-1.6758-3.332-2.3906-5.0547-0.71094-1.7227-1.3398-3.4805-1.8828-5.2656-0.53906-1.7852-0.99219-3.5938-1.3555-5.4258-0.36719-1.832-0.64062-3.6758-0.82031-5.5312-0.18359-1.8594-0.27734-3.7227-0.27734-5.5859 0-1.8672 0.09375-3.7305 0.27734-5.5898 0.17969-1.8555 0.45312-3.6992 0.82031-5.5312 0.36328-1.832 0.81641-3.6367 1.3555-5.4258 0.54297-1.7852 1.1719-3.5391 1.8828-5.2656 0.71484-1.7227 1.5117-3.4102 2.3906-5.0547 0.87891-1.6484 1.8398-3.2461 2.875-4.7969 1.0352-1.5547 2.1445-3.0508 3.3281-4.4922 1.1836-1.4453 2.4375-2.8242 3.7539-4.1445 1.3203-1.3203 2.7031-2.5742 4.1445-3.7578 1.4414-1.1836 2.9375-2.293 4.4883-3.332 1.5508-1.0352 3.1484-1.9961 4.7969-2.875 1.6445-0.87891 3.3281-1.6758 5.0508-2.3906 1.7227-0.71484 3.4766-1.3438 5.2656-1.8828 1.7852-0.54297 3.5898-0.99609 5.4219-1.3594 1.8281-0.36719 3.6719-0.64062 5.5273-0.82031 1.8555-0.18359 3.7188-0.27734 5.582-0.27734 1.8672 0 3.7266 0.09375 5.5859 0.27734 1.8555 0.17969 3.6992 0.45312 5.5273 0.82031 1.832 0.36328 3.6367 0.81641 5.4219 1.3594 1.7852 0.53906 3.5391 1.168 5.2656 1.8828 1.7227 0.71484 3.4062 1.5117 5.0508 2.3906 1.6484 0.87891 3.2461 1.8398 4.7969 2.875 1.5508 1.0391 3.0469 2.1484 4.4883 3.332s2.8242 2.4375 4.1406 3.7578c1.3203 1.3203 2.5703 2.6992 3.7539 4.1445 1.1836 1.4414 2.2969 2.9375 3.332 4.4922 1.0352 1.5508 1.9922 3.1484 2.875 4.7969 0.87891 1.6445 1.6758 3.332 2.3867 5.0547 0.71484 1.7266 1.3438 3.4805 1.8867 5.2656 0.53906 1.7891 0.99219 3.5938 1.3555 5.4258 0.36328 1.832 0.63672 3.6758 0.82031 5.5312 0.18359 1.8594 0.27344 3.7227 0.27344 5.5898z"/>
  </clipPath>
  <clipPath id="af">
   <path d="m551 921h352v190h-352z"/>
  </clipPath>
  <clipPath id="ae">
   <path d="m877.08 1084.7c-32.578 32.598-83.809 34.191-114.43 3.5586l-41-41.023c-40.953-40.977-96.848-63.98-156.51-64.406-13.785-0.10156-18.266-18.672-5.9922-24.961 42.977-22.016 125.46-48.164 258.43-29.676 49.965 6.9492 86.547 47.02 84.992 97.922l-0.015625 0.5625c-0.65625 21.484-9.8203 42.359-25.477 58.023z"/>
  </clipPath>
 </defs>
 <g id="ak">
  <g clip-path="url(#y)">
   <g clip-path="url(#a)">
    <path d="m1160 320.26v328.55h312.59v-328.55z" fill="url(#linear0)"/>
   </g>
  </g>
  <g clip-path="url(#r)">
   <g clip-path="url(#f)">
    <path d="m244.34 102.87v573.02h561.09v-573.02z" fill="url(#linear1)"/>
   </g>
  </g>
  <g clip-path="url(#j)">
   <g clip-path="url(#t)">
    <path d="m656.16 480.3h147.01v152.95h-147.01z" fill="url(#pattern0)"/>
   </g>
  </g>
  <g clip-path="url(#aj)">
   <g clip-path="url(#ab)">
    <path d="m494.82 429.55h200.82v244.25h-200.82z" fill="url(#pattern1)"/>
   </g>
  </g>
  <g clip-path="url(#ag)">
   <g clip-path="url(#w)">
    <path d="m399.04 154.64v208.78h145.86v-208.78z" fill="url(#linear2)"/>
   </g>
  </g>
  <g clip-path="url(#q)">
   <g clip-path="url(#l)">
    <path d="m561.46 152.93v210.5h165.84v-210.5z" fill="url(#linear3)"/>
   </g>
  </g>
  <g clip-path="url(#o)">
   <g clip-path="url(#ah)">
    <path d="m743.87 154.64v208.78h143.01v-208.78z" fill="url(#linear4)"/>
   </g>
  </g>
  <g clip-path="url(#s)">
   <g clip-path="url(#e)">
    <path d="m906.29 154.64v208.78h143.01v-208.78z" fill="url(#linear5)"/>
   </g>
  </g>
  <g clip-path="url(#v)">
   <g clip-path="url(#x)">
    <path d="m1053 154.64v208.78h165.84v-208.78z" fill="url(#linear6)"/>
   </g>
  </g>
  <g clip-path="url(#m)">
   <g clip-path="url(#ad)">
    <path d="m119.39 411v545.24h380.93v-545.24z" fill="url(#linear7)"/>
   </g>
  </g>
  <g clip-path="url(#c)">
   <g clip-path="url(#d)">
    <path d="m574.87 410.99v549.72h366.02v-549.72z" fill="url(#linear8)"/>
   </g>
  </g>
  <g clip-path="url(#g)">
   <g clip-path="url(#i)">
    <path d="m1015.4 411v545.24h319.8v-545.24z" fill="url(#linear9)"/>
   </g>
  </g>
  <g clip-path="url(#p)">
   <g clip-path="url(#n)">
    <path d="m1097.3 736.04h237.97v220.2h-237.97z" fill="url(#pattern2)"/>
   </g>
  </g>
  <g clip-path="url(#h)">
   <g clip-path="url(#aa)">
    <path d="m1382.2 411v545.24h116.29v-545.24z" fill="url(#linear10)"/>
   </g>
  </g>
  <g clip-path="url(#ai)">
   <g clip-path="url(#b)">
    <path d="m988.41 618.21v442.32h146.88v-442.32z" fill="url(#linear11)"/>
   </g>
  </g>
  <g clip-path="url(#k)">
   <g clip-path="url(#u)">
    <path d="m226.28 790.55v309.47h311.35v-309.47z" fill="url(#linear12)"/>
   </g>
  </g>
  <g clip-path="url(#ac)">
   <g clip-path="url(#z)">
    <path d="m296.52 700.5v113.99h113.92v-113.99z" fill="url(#linear13)"/>
   </g>
  </g>
  <g clip-path="url(#af)">
   <g clip-path="url(#ae)">
    <path d="m725.51 730.95 283.16 283.32-283.16 283.32-283.16-283.32z" fill="url(#linear14)"/>
   </g>
  </g>
 </g>
</svg>
