<?xml version="1.0" encoding="UTF-8"?>
<svg width="2245" height="1587" version="1.2" viewBox="0 0 1683.8 1190.3" xmlns="http://www.w3.org/2000/svg" zoomAndPan="magnify">
 <defs>
  <clipPath id="a">
   <path d="m565 494h440v434.45h-440z"/>
  </clipPath>
  <clipPath id="b">
   <path d="m1015 262h322.3v222h-322.3z"/>
  </clipPath>
 </defs>
 <g id="c">
  <path d="m567.07 470.18c-2.6484-4.5742-5.7773-9.1484-9.3867-13.84-2.8906-3.7305-6.2578-7.582-10.715-12.516-2.043-2.168-4.2109-4.4531-6.4961-6.5-1.5664-1.4453-3.1328-2.7695-4.5742-4.0898-0.72266-0.60156-1.4453-1.2031-2.0469-1.8086l-0.84375-0.83984c-0.24219-0.24219-0.60156-0.48047-0.72266-0.72266-0.48047-0.48047-4.4531-4.2109-4.5742-4.332l-1.9258-1.9258h0.12109c7.3438 1.8047 14.805-0.12109 20.102-5.0547 1.5664-1.4453 2.5273-2.7695 3.1289-3.6094 1.3242-1.8047 2.0469-3.9727 2.168-6.3789 0.23828-9.2656 0.23828-44.41 0.35937-51.629h24.195v78.344c0 0.96484 0 3.1289 0.23828 5.5391 0.12109 3.3672 0.36328 8.4219 0.24219 9.2656-0.24219 0.83984-2.8906 3.3672-4.332 4.8125-2.168 2.0469-3.0117 2.8906-3.25 3.6094-0.60156 1.9258-0.24219 3.7305 1.082 5.1758 0.24219 0.36328 1.2031 1.3242 34.184 16.848 0.84375 0.72266 1.9258 1.2031 3.0078 1.2031 3.1328 0 5.6602-3.3672 3.8555-6.6172-1.8086-3.25-2.5312-2.4062-4.3359-2.2852-1.8047 0.11719-3.25 1.4414-3.8516 3.0078-3.3711-1.6836-10.473-5.2969-13.723-6.9805-0.83984-0.48047-1.3242-1.4453-0.96094-2.2852 0.24219-0.48438 0.60156-0.96484 1.2031-1.4453 0.48047-0.24219 1.082-0.60156 1.8047-0.84375 1.0859-0.35938 1.9258-0.83984 2.6484-1.5625s1.4453-1.9258 1.6875-3.0078c0.11719-0.96484 0-76.902 0-102.42h28.406s-9.1484-17.086-9.75-17.086h-18.539v-2.2891c0-0.60156-19.379-9.0234-19.379-9.0234v11.07h-94.605v-2.2852c0-0.60547-19.379-9.0273-19.379-9.0273v11.07h-77.758l1.0859 1.9258c5.7773 10.109 9.0273 15.164 9.75 15.164h67.043v12.758h-49.352c-2.4062 0.72266-9.0273 7.1016-9.9883 8.4219-1.4453 1.8086-2.6484 3.8516-3.7344 6.1406-0.96094 2.043-1.4414 4.332-1.8047 6.9805-0.23828 2.8867 0 5.7734 0.36328 8.4219 0.48047 2.7695 1.3242 5.418 2.4062 7.9453 1.8047 4.6914 4.4531 9.1445 7.9453 13.117 2.6484 3.25 6.0156 6.1367 9.75 8.7852l0.23828 0.23828c4.2148 3.6133 8.7891 5.8984 11.797 7.3438 1.8047 0.83984 3.4883 1.3242 4.4531 1.6836 0.96094 0.35938 1.5664 0.60156 2.4062 0.96094l0.84375 0.36328 0.72266 0.24219c1.5625 0.60156 3.1289 1.082 4.6953 1.4414 2.6445 0.72266 5.0547 1.2031 7.4609 1.4453 2.6484 0.24219 5.1758 0.12109 7.582-0.36328 1.3242-0.23828 2.7695-0.60156 4.2148-1.082l0.35938 0.24219c0 2.1641 0.36328 7.2188 0 8.1836-0.23828 0.83984-2.8867 3.3672-4.332 4.8125-2.168 2.0469-3.0078 2.8906-3.25 3.6094-0.60156 1.9258-0.24219 3.7305 1.082 5.1758 1.2031 1.4453 12.758 7.582 14.445 8.3047l1.082 0.48047c-0.23828 0.12109-0.60156 0.24219-0.84375 0.48047-2.8867 1.5664-5.4141 3.7344-7.8203 6.5-0.48438 0.60156-1.0859 1.4453-1.5664 2.168-0.24219 0.35938-0.35938 0.60156-0.60156 0.96094-0.24219 0.36328-0.48047 0.72266-0.72266 1.082-0.60156 1.3242-0.35938 1.4453 5.7773 4.4531 10.953 5.5391 11.074 5.418 11.676 4.2148 1.6836-3.0117 3.8516-5.5391 6.6211-7.8242 4.4531-3.3711 9.2656-4.2109 11.676-4.4531 1.3242-0.12109 2.7656 0.36328 3.8516 1.2031 0 0 1.8047 1.4453 1.9258 1.5664l0.72266 0.72266c2.043 2.043 3.3672 3.8477 4.0898 5.5352 1.8086 3.6094 2.6484 7.582 2.6484 11.914s-0.96094 8.0625-3.0078 11.672c-1.6875 3.4922-3.7305 6.3789-6.3789 8.9062-2.7695 2.6484-5.7773 4.9336-8.9062 6.7383-4.6953 2.4102-9.1484 3.9727-13.602 4.5742-7.2227 1.3242-14.805 1.4453-22.27 0.24219-8.0625-1.3242-15.406-2.8906-22.266-4.6953l-23.715-6.2578c-1.9258-0.60156-3.8516-1.082-5.7773-1.6836-1.9258-0.60156-3.8516-1.082-5.7773-1.6836-4.0898-1.207-7.9453-2.168-11.914-2.7695-3.9727-0.72266-7.5859-1.082-11.195-1.082s-7.4609 0.83984-11.195 2.4062c-6.0156 2.8867-10.469 7.3398-13.238 13.238-2.7695 6.2578-3.1289 12.516-0.96484 18.895 0.84375 2.5273 1.8086 4.5703 3.1289 6.4961 1.3242 1.9258 0.72266 1.0859 0.96484 1.5664 1.4453 2.7695 7.9453 12.637 25.758 15.402 0.72266 0.12109 1.6836 0.36328 2.6484 0.48438l4.0938 0.48047c2.7656 0.24219 5.293 0.24219 6.7383-0.12109 2.7695-0.60156 5.418-2.0469 8.1875-4.5742 2.4062-2.4062 3.9688-4.9336 4.9336-8.0625 0.35938-1.5625 0.72266-4.4531 0.72266-4.5742v-0.83984l-0.72266-0.36328c-15.527-7.8203-16.973-6.8594-16.973-6.8594v0.72266c0 3.7305-1.082 6.9805-3.6094 9.75-2.5273 2.7656-5.6562 4.5703-9.3906 5.293-1.5625 0.36328-3.1289 0-4.332-0.96094-1.2031-0.96484-1.9258-1.5664-1.9258-1.5664-1.2031-1.5625-2.0469-3.1289-2.6484-4.5703-1.6836-4.4531-1.9258-9.1484-0.72266-13.961 1.4453-5.6562 4.4531-10.109 9.2695-13.48 2.8867-1.9258 6.0195-3.3672 9.1484-4.0898 4.2109-0.72266 8.1836-0.72266 11.676 0 3.7305 0.60156 7.582 1.4414 11.555 2.5273 3.25 0.96094 6.5 1.8047 9.6289 2.6445l3.4883 0.96484c4.2148 1.2031 8.668 2.2852 13.121 3.4883 2.168 0.60156 4.2148 1.2031 6.2578 1.6875 2.0469 0.60156 4.2148 1.2031 6.2617 1.6836 4.2109 1.2031 8.543 2.168 12.758 3.1289 4.332 0.96094 8.668 1.5664 13 1.9258 4.8125 0.35938 9.1484 0.48047 13.359 0.24219 3.6133-0.24219 7.3438-0.96484 11.074-1.9258 3.9727-1.2031 7.3438-2.5273 10.473-4.2148 3.6094-2.043 6.5-4.2109 9.1484-6.6172 3.0078-2.8906 5.293-5.7773 7.1016-9.0273 1.8047-3.4883 2.8867-7.3398 3.3672-11.434 0.36328-3.9688 0-7.9414-1.2031-12.031-1.082-3.0117-2.6484-5.8984-5.0547-8.7891-1.082-1.2031-2.5273-2.6445-4.0938-3.8477-1.2031-0.96484-2.2852-1.8086-3.4883-2.6484l-0.84375-0.72266c-2.5273-1.9258-5.4141-3.9727-8.5469-5.6562-2.8867-1.5664-6.0156-3.1289-9.0273-4.332-1.9258-0.84375-4.0898-1.5664-6.6172-2.168-2.6484-0.60156-6.7422-1.3242-10.953 0.12109-0.96484-0.60156-2.6484-1.9258-2.7695-3.25 0-0.83984 0.96094-1.6836 1.6836-2.1641 0.48047-0.24219 1.2031-0.60156 1.9258-0.96484 1.0859-0.35938 1.9258-0.83984 2.6484-1.5625s1.4453-1.9258 1.6875-3.0078v-102.42h51.395c0 5.7773-0.36328 29.605-0.84375 41.402-0.23828 6.4961-4.2109 12.273-9.9883 14.68-1.6875 0.60156-3.1289 0.96484-4.5742 0.96484-1.9258-0.96484-9.6289-4.6953-11.074-5.1758-0.84375-0.36328-3.3711-1.082-4.0938-1.082-0.72266 0-1.2031 0.35938-1.4414 0.83984-0.12109 0.24219-0.36328 0.96484 0.23828 1.8047 1.9258 2.7695 4.0938 5.2969 6.2578 7.4648l1.6875 1.6836c1.6836 1.6836 3.3711 3.3672 5.1758 5.0547l13.238 12.035c3.6133 3.6094 7.3438 7.8203 11.316 12.637 3.8516 4.8125 6.9805 9.5039 9.6289 14.078 2.8867 4.6953 5.4141 10.23 7.8242 16.73 3.3711 10.227 4.6914 20.816 3.8516 31.648-0.84375 10.59-3.7305 20.941-8.4258 30.93-1.2031 2.5273-2.5273 4.8125-3.9727 7.1016-1.2031 1.9258-2.5273 3.8516-3.8516 5.6562l-1.2031 1.9258 0.84375 0.72266c0.23828 0.23828 4.2109 2.8867 7.582 5.1719 5.4141 3.6133 8.4258 5.1758 9.0273 4.5742 3.6094-4.8125 6.8594-9.7461 9.75-14.922 2.1641-4.0938 10.109-23.707 9.1484-45.012-0.96484-21.301-12.16-38.027-12.16-38.027zm-116.75-40.074c-1.082 0.83984-2.2852 1.4414-3.7305 1.9258-1.4453 0.48047-2.7695 0.96094-3.9727 1.2031-1.6836 0.23828-3.4883 0.35938-5.1758 0.23828-6.6211-0.48047-11.312-5.0547-13-6.9805 0 0 0-0.23828-0.23828-0.35938-1.207-1.5664-2.168-2.7695-3.0117-3.9727-0.96094-1.4414-1.8047-2.7656-2.5273-4.2109-1.4453-2.8906-2.5273-5.8984-3.4883-9.3867-0.84375-3.0078-1.0859-6.3789-0.84375-9.8672 0.24219-2.6484 0.96094-5.1758 2.4062-7.7031 1.3242-2.4062 3.0117-4.6953 4.8164-6.6211l1.4414-1.4414c4.5742 4.4531 9.0312 8.7852 13.363 13.238 4.5742 4.5703 9.3867 9.3867 14.203 14.078 1.5625 1.5664 3.1289 3.1289 4.6953 4.5742 0.71875 0.72266 1.5625 1.5625 2.4062 2.2852 0.60156 0.60156 1.2031 1.0859 1.6836 1.6875-1.5625 3.0078-9.0273 11.312-9.0273 11.312zm11.797-20.461c-3.4922-3.4883-7.1016-6.9805-10.109-9.8672l-0.96484-0.84375c-0.72266-0.48047-1.3242-1.2031-2.0469-1.8047-3.0078-2.8867-6.1367-5.8984-9.1484-9.0273l-5.293-5.293c-1.0859-0.96484-2.0469-1.9258-3.1328-3.0078h30.695v29.965z"/>
  <path d="m774.46 446.11c3.0117 1.2031 6.0195 2.168 8.668 3.0078 3.0078 0.96484 6.2578 0.96484 9.9883 0.24219 4.4531-1.3242 7.9453-3.3711 10.836-6.3789 2.8867-3.25 5.0547-6.8594 6.3789-10.832 1.3242-4.0898 2.043-8.3008 1.8047-12.395-0.12109-2.2852-0.48047-4.2109-0.96484-5.7773-0.35938-1.6836-1.082-3.4883-2.1641-5.4141-0.84375-1.4453-1.8086-2.6484-3.0117-3.6094h13.965c0.23828 17.93 0.60156 44.047 0.35937 45.609-0.12109 1.2031-3.8516 4.332-5.1758 5.0547-1.2031 0.72266-2.0469 1.9258-2.4062 3.3711-0.60156 1.9258-0.24219 3.7305 1.082 5.1719 1.2031 1.4453 12.758 7.582 14.445 8.3047l20.102 8.7852c0.72266 0.60156 1.6836 0.84375 2.5273 0.84375 3.25 0 6.5-4.2109 3.6094-7.1016-2.8867-2.8867-7.3398-0.48047-7.8242 1.3242-3.8516-1.8047-13.117-6.1367-14.684-6.8594-0.24219-0.24219-0.96094-0.84375-0.96094-1.4453 0-0.60156 0.71875-1.5625 2.1641-2.4062 0.60156-0.35937 1.3242-0.72266 1.9258-0.96094 1.0859-0.36328 1.9258-0.84375 2.6484-1.5664 0.72266-0.72266 1.4453-1.9258 1.6875-3.0078 0.11719-0.96484 0-76.902 0-102.41h18.773c0.24219 32.133 0.60547 91.102 0.36328 93.266-0.12109 1.0859-0.60156 2.6484-2.2891 3.3711-0.71875 0.36328-1.3242 0.72266-1.9258 1.082-0.35937 0.24219-0.60156 0.36328-0.96094 0.60156-1.2031 0.72266-2.0469 1.9258-2.4062 3.3711-0.60156 1.9258-0.24219 3.7305 1.082 5.1758 1.2031 1.4453 12.758 7.582 14.445 8.3047l19.617 8.543c0.24219 0.12109 0.60156 0.24219 0.84375 0.48047 0.60156 0.36328 1.4453 0.60156 2.168 0.60156 3.25 0 6.3789-4.0898 3.6094-7.0977-2.7695-3.0117-7.3438-0.48437-7.8242 1.4414l-12.758-5.5352c-0.36328-0.12109-0.96484-0.48047-0.96484-0.48047-0.60156-0.48047-1.8047-1.2031-1.8047-2.0469s0.60156-1.3242 1.4453-2.1641c0.84375-0.84375 0.84375-0.72266 1.3242-0.96484l1.2031-0.60156c1.082-0.35938 1.9258-0.84375 2.6484-1.5625 0.96094-0.96484 1.4453-1.9258 1.6836-3.0117 0.12109-0.96094 0-76.898 0-102.41h28.406s-9.1484-17.09-9.75-17.09h-18.535v-2.2852c0-0.60156-19.379-9.0273-19.379-9.0273v11.074h-18.777v-2.2891c0-0.60156-19.379-9.0234-19.379-9.0234v11.07h-75.109l1.0859 1.9258c5.7773 10.109 9.0273 15.164 9.75 15.164h64.395v37.668c-9.3867 0-66.32-0.35938-66.32-0.35938-1.2031 0-6.3789 3.2461-7.9453 4.5703-1.9258 1.6875-3.3711 3.9727-4.0938 6.5-0.72266 2.6484-0.83984 5.2969-0.23828 7.582 0.23828 1.2031 2.1641 5.4141 4.6914 9.9883 4.0938 7.2227 10.113 13.238 17.336 17.211 7.2188 3.9688 7.4609 4.0898 10.469 5.4141zm-13.602-31.168c0.36328-2.0469 1.2031-4.0938 2.6484-5.6562 1.4453-1.5664 0.72266-0.72266 1.2031-1.0859 1.4453-1.082 4.2148-2.7656 5.0547-3.3672h22.391c0.48047 1.8047 1.4453 5.8945 1.4453 7.8203 0 2.7695-0.24219 5.0547-0.84375 7.3438-0.60156 2.6445-1.4453 5.0547-2.6484 7.4609-1.082 2.4062-2.5273 4.4531-4.332 6.2578-1.8086 1.8047-4.4531 3.7305-6.6211 4.4531-1.8047 0.72266-3.9727 1.082-6.0195 1.2031l-0.48047-0.48047s-0.48047-0.48438-1.082-0.96484c-2.0469-1.9258-3.8516-4.2109-5.418-6.5-2.5273-3.8477-4.2109-6.8594-4.6953-8.1836-0.60156-2.043-0.83984-3.6094-0.83984-5.1719 0-1.5664 0.23828-3.1289 0.23828-3.1289z"/>
  <g clip-path="url(#a)">
   <path d="m1000.4 579.21c-0.72266-4.4531-2.0469-8.7891-3.8516-12.879-2.8867-6.3789-6.3789-12.395-10.473-17.934-5.4141-7.4609-12.035-14.32-19.98-20.938-4.5703-3.6094-9.3867-6.9805-14.441-10.109-1.5664-0.96484-3.3711-1.9258-5.1758-3.0078l-0.36328-0.24219c-3.6094-2.0469-6.9805-3.7305-10.109-5.1758-5.5352-2.7656-11.555-5.293-17.812-7.3398-6.8633-2.2852-12.762-3.8516-18.539-4.8125-10.711-2.0469-21.184-2.5273-31.172-1.6875-10.473 0.96484-20.465 3.25-30.332 7.1016-8.7891 3.3711-16.973 7.9414-24.438 13.719-7.7031 5.7773-14.32 12.516-19.738 19.977-6.2578 8.0664-10.953 16.969-14.082 26.598-3.1289 9.75-4.6953 19.738-4.5742 29.727 0 10.109 1.5625 19.617 4.8125 29.004 3.1328 9.3867 7.9453 18.051 14.324 25.875 6.0195 7.582 13.121 13.957 21.789 19.496 2.6445 1.6836 5.5352 3.4883 8.4219 4.9336 0.84375 0.35938 1.5664 0.83984 2.4102 1.2031 2.0469 1.082 4.0898 2.1641 6.2578 3.0078 1.3242 0.60156 2.7695 1.082 4.0938 1.6836 1.3242 0.60156 2.6484 1.0859 4.0898 1.6875 2.5273 0.96094 4.8164 1.8047 7.5859 2.6445v1.3242h-153.35c-0.35938-0.96094-0.96094-2.5273-1.3242-3.4883 0-0.24219-0.23828-0.72266-0.48047-1.4453-0.96484-3.0078-1.9258-6.0156-2.8906-7.4609-1.5625-2.5273-3.1289-4.8125-4.9336-6.7383-1.8047-2.168-3.8516-3.9727-6.1367-5.7773-3.4922-2.5273-6.8633-4.6953-10.113-6.5-3.4883-1.9258-7.2227-3.6094-10.711-5.293-3.0117-1.3242-5.418-2.2891-7.582-3.1289-1.5664-0.60156-3.1328-1.2031-4.8164-1.8047-0.96484-0.36328-2.0469-0.72266-3.0078-1.0859h-0.12109c-0.60156-0.23828-1.0859-0.35938-1.5664-0.48047-0.35938-0.12109-0.83984-0.24219-1.2031-0.35938-14.805-5.1758-17.09-13.961-17.09-14.203-0.36328-1.5625-0.36328-3.1289-0.24219-4.9336 0.24219-2.8867 5.7773-7.7031 5.7773-7.7031s-16.852-9.0234-17.574-8.3008c-2.1641 1.3203-3.6094 3.0078-4.5742 4.9336-0.96094 2.043-1.3242 4.332-0.96094 6.7383 0.12109 2.4062 0.83984 4.8125 2.0469 6.9805 1.3242 2.2852 2.6484 4.0898 4.2109 5.6562 2.2891 2.2852 5.0547 4.4531 8.1836 6.3789 3.1328 1.9258 6.3828 3.6094 9.1484 4.9336 4.6953 2.2852 9.6289 4.332 15.047 6.2578 1.082 0.35937 1.6836 0.60156 1.8047 0.60156l1.082 0.35938c0.36328 0.12109 0.72266 0.24219 1.0859 0.36328 0.96094 0.23828 1.6836 0.48047 2.4062 0.84375h0.12109c0.96094 0.35938 1.6836 0.60156 2.4062 0.83984 0 0 16.492 6.2578 21.785 17.812 0.36328 1.2031 0.72266 2.2852 0.96484 3.3672 0.12109 0.72266 0.35938 1.5664 0.48047 2.4102 0.36328 2.1641 0.48047 4.332 0.48047 6.4961v3.3711h-24.191v-2.2852c0-0.60156-19.137-9.0273-19.137-9.0273v11.07h-68.973v1.3242c0 0.36328 0 0.60156 4.4531 7.9453 4.5742 7.8203 4.6953 7.8203 5.6602 7.8203h59.098v14.441h-38.035c-0.60156 0-6.2578 1.9258-8.5469 3.25-2.5273 1.3242-4.5742 3.25-6.3789 6.0156-1.4453 2.4102-2.1641 5.2969-1.9258 8.668 0.36328 3.3672 0.96484 6.0156 1.8047 8.1836 1.0859 3.1289 3.1328 6.0156 5.8984 8.4219 0.48047 0.48438 1.0859 0.84375 1.5664 1.3242-3.8516 3.1289-7.1016 7.1016-9.75 11.793-3.9727 6.9805-5.7773 14.562-5.5391 22.625 0.24219 8.668 3.0117 16.609 8.1875 23.348 4.0898 5.5391 9.1484 10.352 14.926 14.082 5.4141 3.6094 11.191 6.7383 17.812 9.8672 3.7305 1.6875 7.2227 3.0117 10.594 4.332 3.6094 1.3242 7.2227 2.5273 10.832 3.6133 6.6211 1.9258 13 3.6094 19.5 5.0547 0.96094 0.23828 1.9258 0.48047 2.7656 0.71875 0.72266 0.24219 1.3242 0.36328 2.0469 0.60547h0.48438c3.7305 1.2031 22.867 6.7383 32.977 15.281l1.4453 1.4453c0.48047 0.60156 0.96484 1.082 1.3242 1.4453 0.36328 0.35938 0.84375 0.83984 1.2031 1.3242 0.84375 1.2031 1.6875 2.1641 2.4102 3.2461 0.83984 1.0859 1.5625 2.2891 2.043 3.0117 1.207 2.2852 2.2891 4.4531 3.0117 6.7383 1.9258 5.7773 2.1641 11.672 0.83984 17.449-1.2031 6.0195-3.9688 11.191-8.3047 15.406-1.2031 1.2031-4.9336 3.3672-9.8672 5.6562l-1.0859 0.23828 16.008 11.312c5.7812-1.5625 12.16-6.0156 16.129-11.434 3.6133-4.9336 5.8984-10.469 6.6211-16.605 1.0859-6.8594 0-13.48-3.1289-19.738-2.8867-6.0156-6.7383-11.191-11.676-16.004-3.3711-3.1289-6.7383-5.6562-10.352-7.8242-3.4883-2.1641-7.2227-4.332-11.074-6.3789-5.5352-2.6484-10.109-4.8125-14.441-6.4961-4.5742-1.8086-9.5117-3.4922-15.168-5.1758-4.6953-1.3242-8.6641-2.2891-12.637-3.1289l-0.96484-0.24219c-4.2109-1.2031-9.3867-2.4062-13.117-3.25h-0.12109c0-0.11719-0.36328-0.11719-0.36328-0.11719l-3.7305-0.84375c-27.926-9.3867-34.062-27.68-34.906-31.172-1.5625-6.4961-1.3242-13.117 0.60156-20.098 1.9258-7.582 6.0195-14.078 11.918-19.375 3.25-2.8867 6.8594-5.0547 10.953-6.7383 1.4453-0.48047 3.0078-0.96484 4.332-1.3242 0.96484-0.24219 2.0469-0.48047 3.3711-0.60156 2.5273-0.24219 11.195-0.35938 16.008 5.5352v0.24219c0.24219 0.12109 0.36328 0.23828 0.48047 0.48047 0.96484 1.4453 1.6875 2.7695 2.168 3.9727 0.72266 2.5273 0.24219 4.6914-1.3242 6.7383l-0.72266 0.72266 0.48047 0.84375c0.24219 0.35938 0.36328 0.48047 8.668 4.6914 8.5469 4.332 8.668 4.2109 9.2695 4.0938h0.35938l0.24219-0.36328c1.9258-2.0469 3.0078-4.6914 2.8867-6.6172 0-1.9258-0.60156-3.9727-1.5625-5.8984-0.96484-1.8047-2.168-3.4883-3.7344-5.0547-1.5625-1.5625-2.7656-2.6484-3.9688-3.8516-2.0469-1.9258-4.2148-3.6094-6.6211-5.0547-2.2891-1.4453-4.5742-2.7656-6.9805-4.0898-3.1328-1.5664-6.3789-2.8906-9.6289-4.2148-3.4922-1.2031-6.9844-2.1641-10.473-2.6445-7.3438-1.0859-14.203-0.24219-20.703 2.4062-0.36328-1.4453-0.60156-2.8906-0.60156-4.4531 0-1.5664 0.35938-3.8516 0.96094-5.6562 0.96484-2.0469 2.168-3.6094 3.8516-4.6953 2.0469-1.4414 3.8516-2.5273 5.418-3.1289l0.84375-0.23828h0.48047c1.082-0.24219 2.0469-0.36328 3.1289-0.36328h38.277c1.6836 0 1.9258-1.082 1.9258-1.5625v-23.59h24.191c0.24219 32.133 0.60156 91.102 0.36328 93.27-0.24219 2.168-0.60156 2.6484-2.2891 3.3711-0.72266 0.35938-1.3242 0.71875-1.9258 1.082-0.35938 0.23828-0.72266 0.35938-0.96094 0.60156-1.2031 0.72266-2.0469 1.9258-2.4102 3.3711-0.71875 2.2852-0.48047 4.0898 0.72266 5.4141 1.3242 1.4453 28.527 14.199 32.98 15.887 0.36328 0.23828 3.0117 1.082 4.4531 0 1.4453-1.0859 2.7695-3.4922 1.3242-5.1758-2.6484-3.25-6.8594-1.3242-7.3398 1.082l-10.953-5.5352c-0.24219-0.12109-0.60156-0.24219-0.84375-0.48047-0.48047-0.36328-1.5664-1.0859-1.5664-1.8047 0-0.72266 0.60156-1.8086 1.9258-3.0117 0.60156-0.35937 1.3242-0.71875 1.8086-0.83984 1.082-0.36328 1.9258-0.84375 2.6484-1.5664 0.96094-0.96094 1.4414-1.9258 1.6836-3.0078 0.12109-0.96094 0-76.902 0-102.41h74.266v6.8594c-9.2695-1.8047-17.934-1.4453-26.723 0.96094-3.7305 1.207-7.3398 2.6484-10.473 4.3359-3.3672 1.9219-6.4961 3.9688-9.3867 6.375-2.168 2.0469-4.0938 4.2148-5.7773 6.6211-1.9258 2.6484-2.8906 5.4141-3.25 8.543-0.24219 3.6133 0.35938 6.9805 2.0469 10.473 1.4453 2.8867 3.25 5.7734 5.6562 8.6641 2.168 2.7656 4.8164 5.5352 7.9453 8.3047 1.6836 1.5625 3.4883 3.1289 5.2969 4.5703 1.082 0.96484 2.2852 1.9258 3.4883 2.8906 2.6484 1.9258 5.2969 3.8516 7.8242 5.7773 2.2891 1.6836 4.8164 3.4883 8.1836 5.5352l8.1875 5.0547c4.0898 2.5273 5.6562 3.4883 6.2578 3.8516 0 0 5.5352 3.3672 6.8594 4.2109 0.36328 0.24219 1.3242 0.84375 2.4102 1.5625 3.4883 2.2891 6.3789 4.0938 7.1016 4.5742 0.48047 0.36328 0.96094 0.72266 1.4414 1.082l0.48438 0.36328c4.6914 3.6094 10.59 8.6641 13.602 11.312 3.0078 2.6484 2.4062 2.2852 3.4883 3.6094 1.0859 1.3242 2.5273 3.1289 3.4922 4.4531 1.3242 1.8047 4.2109 7.582 5.2969 9.6289 0.83984 1.6836 1.5625 3.4883 1.9258 5.1758 1.6836 6.4961 1.6836 12.996 0.35938 19.977-0.60156 3.6094-1.8047 7.2188-3.6094 10.59-0.96484 1.5625-1.8086 2.8867-3.0117 4.2109-1.2031 1.4453-2.4062 2.6484-3.7305 3.6133-1.4453 1.2031-3.0078 2.1641-4.6953 3.2461-1.8047 1.0859-3.6094 1.8047-5.0547 2.5273-2.5273 0.96484-5.2969 1.8047-8.7852 2.5273-3.0117 0.48438-6.1406 0.96484-9.2695 1.2031-1.6836 0-3.4883 0.24219-5.2969 0-33.82-0.96094-45.977-20.215-47.422-22.625v-0.23828c-0.24219-0.36328-0.48047-0.72266-0.60156-1.0859-0.72266-2.6445-0.96484-5.0547-0.96484-7.3398 0-2.2852 0.48047-4.8125 1.5664-6.9805 2.5273-5.0547 5.7773-9.3867 9.9883-13.238 0.96484-0.96094 2.0469-1.8047 3.3711-2.7656 0.96484-0.72266 2.168-1.2031 3.25-1.8047l0.60156-0.36328c2.5273-0.96094 5.0547-0.96094 5.0547-0.96094h4.5742l-3.8516-2.4102c-0.23828-0.23828-7.1016-4.5703-9.1484-5.4141-2.043-0.96094-4.0898-1.6836-6.2578-2.0469-3.1289-0.60156-6.1367 0-9.0273 1.5664-2.4062 1.3242-4.8164 3.1289-7.2227 5.293-2.0469 2.0469-3.9727 4.2148-5.7773 6.5-1.8047 2.2852-3.25 4.8125-4.5742 7.8242-1.2031 2.7656-1.6836 5.5352-1.5625 8.7852 0.11719 3.0078 0.83984 6.0156 2.0469 8.6641 1.2031 3.1289 2.8867 5.7773 4.9336 8.1836s4.4531 4.4531 6.8594 6.6172c2.8906 2.2891 5.8984 4.332 10.352 7.1016 3.6133 2.0469 7.2227 3.9727 10.832 5.8984 2.7695 1.4414 5.2969 2.6484 7.9453 3.7305 0.84375 0.35938 1.5664 0.72266 2.4062 1.082 3.6133 1.4453 7.2227 2.7695 10.836 3.8516 5.4141 1.6836 10.953 2.7695 17.211 3.6094 5.7773 0.60156 11.676 0.60156 17.574 0 5.1758-0.35938 10.473-1.4414 16.25-3.3672 5.5352-1.9258 10.109-4.8164 14.082-8.9062 3.9727-3.9727 6.7383-8.9062 8.0625-14.684 0.72266-3.4883 1.2031-6.3789 1.4453-9.1445 0.24219-3.6133 0.24219-6.6211-0.24219-9.6289-0.60156-5.6562-2.4062-11.07-5.1758-15.887-2.7656-4.8125-6.0156-9.2656-9.8672-13.359-4.3359-4.4531-8.9062-8.4219-14.082-12.152-4.8164-3.4922-9.8711-6.9805-15.168-10.352-2.168-1.5625-4.8164-3.1289-7.8242-4.6914-6.1367-3.8516-15.527-9.75-16.129-10.109-0.12109 0-0.84375-0.60156-1.9258-1.3242-2.6484-1.8047-7.4609-5.0547-9.0273-6.2578-1.082-0.84375-2.168-1.6875-3.1289-2.5273-1.082-0.84375-2.0469-1.6875-3.1289-2.5273l-1.9258-1.4453c-0.24219-0.24219-0.60156-0.48047-0.84375-0.72266-0.24219-0.23828-0.48047-0.48047-0.84375-0.72266l-3.25-3.2461c-0.96094-0.96484-1.9258-1.9258-2.7656-3.0117-1.2031-1.4414-2.168-2.6445-3.0117-3.9688-0.23828-0.48438-0.48047-0.84375-0.72266-1.3242-0.35938-0.72266-0.83984-1.4453-1.2031-2.168-0.60156-1.2031-1.2031-2.5273-1.5625-3.4883-1.5664-4.9336-0.96484-9.5078 1.9258-13.602 1.3242-1.6836 2.8867-3.4883 4.6914-5.1719 2.0469-1.8086 3.9727-3.25 5.7812-4.5742 1.5625-1.082 3.1289-1.8047 4.5703-2.5273 1.5664-0.72266 3.25-1.5664 4.5742-2.168 4.2148-1.4414 8.3086-2.5273 12.52-3.1289 0.48047 0 1.082-0.11719 1.6836-0.11719v31.289c0 0.60156 3.0117 2.4062 8.9102 5.1758 8.4258 3.8477 8.7852 3.8477 9.0273 3.8477h1.3242v-2.4062c-0.24219-5.0547 0.60156-9.625 2.6445-13.84 1.6875-3.4883 3.9727-6.6172 6.7422-9.1445 1.082-0.96484 2.2852-1.9258 3.8516-2.7695 2.6484-1.5625 4.332-2.4062 4.9336-2.6484 2.168-0.83984 5.6602-1.5625 9.75-1.8047 1.4453 0 2.8906 0.60156 3.6133 1.8047 1.4414 2.168 1.8047 3.0117 1.9258 3.3711 0.72266 2.4062 0.96094 4.9336 0.72266 7.9414-0.36328 2.7695-1.0859 5.5391-2.168 7.9453-0.96484 2.2852-2.4062 4.6914-4.332 7.3398-2.0469 2.6484-3.8516 4.5742-5.7773 6.1367-1.0859 1.0859-2.168 1.9258-3.4922 2.6484-1.4453 0.72266-2.7695 1.4453-4.2109 2.168h-0.24219l-0.84375 0.96094 0.48047 0.84375c0.24219 0.35938 0.36328 0.60156 8.7891 4.5742 8.5469 3.9688 8.7852 3.9688 9.3867 3.8477h0.24219c3.6094-1.6836 6.8594-3.8477 9.6289-6.4961 2.6484-2.5273 5.0547-5.5352 7.1016-8.9062 1.9258-3.25 3.3711-6.5 4.2148-10.109 0.96094-3.8516 0.96094-7.4609 0-11.191-1.3242-3.9727-3.4922-7.3438-6.7422-9.9883-3.25-2.6484-6.3789-4.5742-9.6289-6.0195-2.0469-1.082-4.4531-2.1641-6.8594-3.1289-2.4102-1.082-4.6953-1.8047-6.9844-2.6484h-0.11719c-3.1328-0.83984-5.418-1.2031-7.8242-1.4414-2.4102-0.24219-4.9375 0-7.9453 0.48047-1.6836 0.24219-3.1289 0.72266-4.5742 1.2031-0.72266 0.24219-1.3242 0.60156-2.0469 0.84375v-16.246h59.703c0.23828 32.129 0.60156 91.102 0.35938 93.266-0.12109 1.2031-3.8516 4.332-5.1758 5.0547-1.2031 0.60156-2.0469 1.8047-2.5273 3.3711-0.24219 1.082-0.24219 2.1641 0 3.1289 0.36328 1.2031 1.2031 2.2852 2.5273 3.0078 3.4922 2.168 26.602 12.516 27.445 12.637 0.83984 0.12109 1.5625-0.12109 2.0469-0.60156 4.0898-3.7305 0-6.5-0.60547-6.7383-2.6445-1.3242-5.0547 0.48047-5.6562 2.7656 0 0-2.2852-1.2031-2.6484-1.4414 0 0-2.4062-1.3242-3.1289-1.8086-0.48047-0.35938-0.96094-0.60156-0.96094-0.60156-0.36328-0.23828-1.0859-0.71875-1.207-1.3203 0-0.36328 0.12109-1.3242 2.2891-2.7695 0.60156-0.36328 1.3242-0.72266 1.9258-0.96484 1.082-0.35938 1.8047-0.96094 2.5273-1.5625s1.4453-1.8047 1.6836-2.8867c0.24219-0.72266 0.24219-35.262 0-102.66h28.406s-9.1445-17.09-9.7461-17.09h-18.539v-2.2852c0-0.60156-19.379-9.0273-19.379-9.0273v2.0469c-17.934-1.8047-29.848-13.961-30.332-14.562-2.6484-2.7695-8.9062-9.6289-11.191-13.238-4.0938-6.2578-6.9844-12.156-8.9102-18.051-3.1289-9.0273-4.6914-18.656-4.6914-28.523 0-9.8672 1.5625-19.496 4.6914-28.762 3.1328-8.7852 7.3438-16.852 12.52-24.07 5.2969-7.4609 11.676-14.082 19.02-19.738 7.8203-5.8945 16.488-10.828 25.758-14.562 10.59-3.9688 21.422-6.2578 32.375-6.6172h2.7695c4.0938 0.12109 41.047 1.9258 63.312 22.266l1.8047 1.8047c0 0.23828 0.36328 0.35938 0.48437 0.48047 0 0.12109 0.23828 0.35938 0.48047 0.48047l0.24219 0.24219c0.48047 0.60156 0.96094 1.2031 1.5625 1.6836 0.96484 0.96484 1.8047 1.8047 2.6484 2.8867 0.48047 0.48437 0.84375 0.96484 1.2031 1.5664 0.48047 0.48047 0.84375 1.082 1.3242 1.5664 7.582 9.2656 13.359 19.375 17.094 30.086 2.6484 7.9414 4.2109 15.766 4.5742 24.066 0.35938 8.3047-0.24219 16.488-2.0469 24.312-1.9258 8.0625-4.8164 15.523-8.9102 22.504-3.7305 6.8594-8.9062 12.996-15.164 18.535-6.7422 5.5352-14.203 10.105-22.148 13.355-16.852 5.418-39.48 3.6133-39.48 3.6133h-1.082s5.5391 5.5352 11.676 8.6641c6.1406 3.1289 23.473 3.8516 32.137 2.1641 9.6289-1.6836 18.418-5.0547 26.359-9.9883 7.9453-5.0547 14.688-11.07 20.586-18.414 6.1367-7.4609 10.59-16.246 13.359-26.113v-0.35938c6.9805-29.488-0.84375-50.066-1.5664-53.797z"/>
  </g>
  <path d="m1211.3 879.23c-4.0938-8.3008-10.836-15.402-19.258-20.336-1.5664-0.84375-3.0117-1.8047-4.0938-2.4062-3.6133-2.168-7.2227-4.332-11.074-6.3789-5.5352-2.6484-10.109-4.8164-14.445-6.5-0.96094-0.35938-2.043-0.84375-3.1289-1.2031v0c-3.7305-1.4453-7.7031-2.6484-12.035-3.9727-4.6953-1.3242-8.668-2.2852-12.641-3.1289-3.8516-0.96094-7.8203-1.9258-11.793-2.7656-27.926-8.3047-37.074-22.504-39.242-26.719 0-0.23828-0.23828-0.48047-0.35938-0.60156 0-0.35938-0.24219-0.60156-0.35938-0.83984l-0.36328-0.72266-0.35937-0.96484c-2.4102-7.4609-2.4102-14.922-0.24219-23.105 1.9258-7.582 6.0195-14.082 11.918-19.375 3.25-2.8906 6.8594-5.0547 10.832-6.7422 1.4453-0.48047 3.0078-0.96094 4.4531-1.4414 1.3242-0.36328 2.7695-0.60156 4.332-0.72266h0.36328c0.72266-0.12109 1.3242-0.24219 2.0469-0.24219h4.0898c1.4453 0.24219 4.3359 1.0859 7.582 4.6953 0.48437 0.48047 0.84375 0.96094 1.207 1.5625 1.082 1.4453 1.8047 2.8906 2.4062 4.2148 0.72266 2.5273 0.24219 4.6914-1.3242 6.7383l-0.72266 0.72266s18.176 10.59 18.777 10.348h0.35937l0.24219-0.35938c1.8047-1.9258 2.6484-5.2969 2.5273-7.4609 0-1.9258-0.60156-3.9727-1.5625-5.8984-0.96484-1.8047-2.168-3.4883-3.7344-5.0547-1.4414-1.4453-2.7656-2.7656-3.9727-3.8516-2.043-1.9258-4.2109-3.6094-6.6172-5.0547-2.2891-1.4414-4.5742-2.7656-6.9805-4.2109-3.1328-1.5664-6.3828-2.8867-9.6328-4.2109-3.4883-1.2031-6.9805-2.168-10.469-2.6484-7.3438-1.082-14.203-0.24219-20.703 2.4062-0.36328-1.4453-0.60156-2.8867-0.60156-4.4531 0-1.5625 0.35938-3.8516 0.96094-5.6562 0.96484-2.0469 2.168-3.6094 3.8516-4.6914 2.0469-1.4453 3.8516-2.5273 5.418-3.1289l1.2031-0.36328c1.2031-0.23828 2.5273-0.35938 3.8516-0.35938h37.555c1.6836 0 1.9258-1.0859 1.9258-1.5664v-23.586h28.406s-9.1484-17.09-10.109-17.09h-9.1484c0-1.9258-0.48438-3.9727-0.84375-5.8984-0.60156-2.4062-1.4453-4.5703-2.5273-6.4961-1.3242-2.4102-2.8906-4.6953-4.8164-6.7422-1.6836-1.9258-3.7305-3.7305-6.2578-5.7773-3.4922-2.5234-6.8594-4.6914-10.109-6.4961-3.4922-1.9258-7.1016-3.6094-10.715-5.2969-3.0078-1.3242-5.4141-2.2852-7.582-3.1289-2.0469-0.83984-4.0938-1.5625-6.2578-2.2852l-5.2969-1.8047c-8.5469-3.4922-12.398-7.2227-13.844-9.1484 0 0-0.72266-1.082-0.96094-1.5625-1.3242-2.5273-1.8047-5.418-1.5664-8.5469 0.24219-2.8867 1.8047-5.0547 4.5742-6.4961l2.168-1.0859-2.168-1.082c-15.047-7.8203-15.766-8.0625-16.488-7.3398-2.168 1.3242-3.6133 3.0078-4.5742 4.9336-0.96484 2.0469-1.3242 4.332-0.96484 6.8594 0.24219 2.4062 0.96484 4.6953 2.0469 6.8594 1.082 2.168 2.4062 4.0938 4.0938 5.7773 1.6836 1.6836 3.7305 3.3711 6.1367 4.9336 2.4102 1.5664 11.918 8.3047 34.668 16.609 1.4414 0.60156 3.0078 1.2031 4.332 1.9258 3.8516 2.043 10.953 5.8945 14.445 9.2656 1.082 1.4453 2.043 3.0078 3.0078 4.5742 0.84375 1.6836 1.5625 3.4883 1.9258 5.5352 0 0.72266 0.24219 1.4453 0.35938 2.2852-0.48047-0.35937-0.83984-0.72266-1.4414-1.2031-1.3242-1.082-9.1484-6.0156-11.797-7.3398-2.6484-1.3242-5.2969-2.5273-8.1875-3.6094-3.3672-1.4453-6.9805-2.5273-10.469-3.4922-3.3711-0.84375-6.9805-1.8047-10.594-2.6484-0.96094-0.12109-1.8047-0.35938-2.6484-0.48047-1.3242-0.35938-2.5273-0.60156-3.6094-0.84375-12.398-2.4062-14.566-7.2188-14.805-7.6992-0.36328-1.3242-0.60156-2.5273-0.84375-3.9727 0-0.96484-17.812-8.4258-17.812-8.4258 0.35938 5.0547 2.8867 10.594 7.4609 14.203 2.0469 1.4414 4.332 3.0078 6.9805 4.332s2.8906 1.4453 4.2148 2.1641c0.23828 0.12109 0.60156 0.36328 0.83984 0.48437 0 0 1.5664 0.72266 2.2891 1.082 3.4922 1.4453 7.2227 2.8867 11.797 4.4531 3.1289 0.96094 6.2578 1.5625 9.3867 2.1641 2.5273 0.48438 4.9336 1.0859 7.582 1.5664 4.9375 1.2031 9.2695 2.5273 12.641 3.9727 2.1641 1.3242 6.3789 4.2109 7.582 6.1367 0.48047 0.96094 0.72266 1.6836 0.96484 2.5273v5.6562h-68.973s9.1484 17.09 10.113 17.09h59.098v14.441h-38.879c-2.6484 0.72266-5.1758 1.8047-7.7031 3.25-2.5273 1.3203-4.5742 3.2461-6.3789 6.0156-1.4453 2.4062-2.1641 5.2969-1.9258 8.6641 0.36328 3.3711 0.96484 6.0195 1.8047 8.1836 1.0859 3.1289 3.1328 6.0195 5.8984 8.4258 0.48438 0.48047 0.96484 0.83984 1.5664 1.3242-3.8516 3.1289-7.1016 7.0977-9.75 11.793-3.9727 6.9805-5.7773 14.562-5.5352 22.625 0.23828 8.6641 3.0078 16.609 8.1836 23.348 4.0898 5.5352 9.1484 10.348 14.926 14.078 0.23828 0.12109 0.48047 0.24219 0.72266 0.48437l0.48047 0.35938c18.176 13.117 49.832 20.219 51.156 20.578 31.656 8.0664 44.414 17.691 49.109 22.746 0.71875 0.96484 1.4414 1.8047 2.043 2.6484 0.84375 1.2031 1.6875 2.2852 2.0469 3.0078 1.2031 2.2891 2.2891 4.4531 3.0117 6.7422 1.9258 5.7734 2.1641 11.672 0.83984 17.449-1.2031 6.0156-3.9727 11.191-8.3047 15.402-2.168 2.168-4.8125 3.8516-7.7031 4.9336h-0.24219c-0.23828 0.24219-0.83984 0.36328-1.2031 0.48438-0.35938 0-0.60156 0.23828-0.83984 0.23828l-0.96484 0.24219s16.73 9.9883 16.973 9.9883h0.35937c6.1406-1.6836 10.953-4.9336 14.805-10.109 3.6133-4.9336 5.8984-10.469 6.6211-16.605 1.082-6.8633 0-13.48-3.0078-19.738z"/>
  <g clip-path="url(#b)">
   <path d="m1326.3 340.92h-18.895l-0.24219-0.71875c-0.96094-2.2891-1.6836-4.5742-2.4062-6.7422-0.36328-1.3242-1.2031-3.6094-1.9258-4.9336-1.5664-2.5273-3.1289-4.8125-4.9375-6.7383-1.8047-2.168-3.8516-3.9727-6.1367-5.7773-3.4922-2.5273-6.8594-4.6953-10.109-6.5-3.4922-1.9258-7.2227-3.6094-10.715-5.293-2.6484-1.2031-22.75-8.5469-25.637-9.6289-1.8047-0.60156-3.4922-1.6836-4.8164-3.1289l-0.48047-0.48047c-1.3242-1.3242-2.2852-2.8906-2.8867-4.6953-1.3242-3.6094-1.9258-6.7383-1.8086-8.1836 1.3242-5.8945 5.7773-7.7031 5.7773-7.7031s-16.848-9.0234-17.57-8.3008c-2.168 1.3242-3.6133 3.0078-4.5742 4.9336-0.96484 2.0469-1.3242 4.332-0.96484 6.7383 0 2.4062 0.84375 4.8125 2.0469 6.9805 1.3242 2.2852 2.6484 4.0938 4.2148 5.6562 2.2852 2.2852 5.0547 4.4531 8.1836 6.3789 3.1289 1.9258 6.3789 3.6094 9.1484 4.9336 5.5352 2.6484 22.867 8.7852 24.793 9.3867 0 0 7.4648 2.7695 13.844 7.4609l0.72266 0.48438c2.4062 2.2852 5.6562 6.4961 7.3398 13.234 0.36328 1.5664 0.72266 9.2695 0.72266 12.277h-18.535v-2.2852c0-0.60156-19.379-9.0273-19.379-9.0273v11.07h-90.637v-2.2852c0-0.60156-19.379-9.0273-19.379-9.0273v11.074h-18.777v-2.2891c0-0.60156-19.379-9.0234-19.379-9.0234v11.07h-87.863l1.082 1.8047c5.7773 10.109 9.0273 15.164 9.75 15.164h36.469v18.535c0 6.1367 0 12.152-0.23828 18.531h-26.121c-1.6836 0-3.3711 0.24219-4.8125 0.84375-0.36328 0-0.60547 0.35938-0.84375 0.48047-1.082 0.72266-1.9258 1.8047-2.5273 3.0078-0.60156 1.2031-1.0859 2.4062-1.4453 3.4922-0.35938 1.082-0.72266 2.4062-0.84375 3.3672-0.72266 3.3711-0.72266 6.7422 0 10.23 0.84375 3.3711 2.2891 6.5 4.3359 9.1484 1.9258 2.8867 4.4531 5.293 7.582 7.4609 2.7695 1.9258 5.7773 3.7305 8.7852 5.293 1.2031 0.60156 2.4062 1.0859 3.6133 1.6875 1.2031 0.48047 2.4062 1.082 3.4883 1.6836 2.5273 1.2031 5.0547 2.1641 7.582 3.0078 1.3242 0.36328 2.6484 0.72266 3.8555 1.082 1.3203 0.24219 2.7656 0.36328 3.9688 0.36328 1.207 0 2.2891-0.12109 3.6133-0.36328 1.4453-0.35938 2.5273-0.96094 3.4883-1.6836 1.207-0.96094 2.168-2.1641 2.6484-3.7305 0.24219-0.84375 0.48438-7.7031 0.96484-23.828 0-4.5742 0.23828-8.6641 0.35938-11.07 5.1758 0 19.141 0.23828 23.473 0.23828 0.24219 18.051 0.60156 44.289 0.35938 45.852 0 1.2031-3.8516 4.332-5.1758 5.0547-1.2031 0.72266-2.0469 1.9258-2.4062 3.3711-0.60156 1.9258-0.24219 3.7305 1.082 5.1758 1.207 1.4414 12.762 7.582 14.445 8.3008l19.738 8.5469c0.84375 0.72266 1.9258 1.2031 3.0117 1.2031 2.5273 0 4.5742-2.0469 4.5742-4.5742s-2.0469-4.5742-4.5742-4.5742c-2.5273 0-3.8516 1.4453-4.4531 3.3711l-11.555-5.0547c-1.9258-0.96094-3.0117-2.1641-3.1328-3.3711 0-1.082 0.72266-2.043 1.207-2.5234 0.60156-0.36328 1.3242-0.72266 1.8047-0.84375 1.082-0.36328 1.9258-0.84375 2.6484-1.5664 0.96094-0.96094 1.4414-1.9258 1.6836-3.0078 0-0.84375 0.36328-76.902 0.36328-102.41h18.414c0.24219 32.133 0.60156 91.102 0.35937 93.27 0 1.2031-3.8516 4.332-5.1758 5.0547-1.2031 0.71875-2.043 1.9258-2.4062 3.3672-0.60156 1.9258-0.23828 3.7305 1.0859 5.1758 1.2031 1.3242 12.758 7.582 14.441 8.3047l16.609 7.2188c0.84375 1.2031 2.2891 1.9258 3.7344 1.9258 2.5273 0 4.5742-2.043 4.5742-4.5703s-2.0469-4.5742-4.5742-4.5742-3.7344 1.3242-4.3359 3.1289l-11.793-5.1758s-0.24219-0.12109-0.36328-0.24219c-0.60156-0.35937-1.6836-0.96094-1.8047-1.8047 0-0.48047 0.24219-1.4414 2.168-3.0078 0.60156-0.35937 1.3242-0.72266 1.8047-0.84375 1.082-0.35937 1.9258-0.83984 2.6484-1.5625 0.96094-0.96484 1.4414-1.9258 1.6836-3.0078v-102.41h90.875v37.547c-9.3867 0-66.32-0.24219-66.32-0.24219-1.2031 0-6.3789 3.25-7.9453 4.5742-1.9258 1.6836-3.3672 3.9727-4.0898 6.5-0.72266 2.6445-0.84375 5.1719-0.24219 7.582 0.60156 2.6445 1.3242 4.6914 2.2891 6.6172 2.8867 6.5 7.1016 11.793 12.879 16.008 5.4141 3.9688 11.434 7.4609 17.934 10.348 3.0078 1.2031 6.0195 2.168 8.6641 3.0078 3.0117 0.96484 6.2617 0.96484 9.9922 0.24219 4.4531-1.3242 7.9453-3.3711 10.832-6.3789 2.8906-3.25 5.0547-6.8594 6.3789-10.832 1.3242-4.0898 2.0469-8.3008 1.8086-12.395 0-2.2852-0.48438-4.2109-0.96484-5.7773-0.35938-1.6836-1.082-3.4883-2.168-5.4141-0.60156-0.96484-1.8047-2.2891-3.25-3.6094h14.203c0 6.9805 0.60156 41.035 0.60156 42 0 0.96094 0 2.4062-0.23828 3.6094-0.24219 0.84375-2.8906 3.3711-4.332 4.8125-2.168 2.0469-3.0117 2.8906-3.25 3.6133-0.60156 1.9258-0.24219 3.7305 1.082 5.1719 1.3242 1.5664 13.602 7.582 14.445 7.9453l19.379 8.6641c0.83984 0.84375 2.043 1.3242 3.25 1.3242 2.5273 0 4.5703-2.0469 4.5703-4.5742 0-2.5273-2.043-4.5742-4.5703-4.5742-2.5312 0-3.8555 1.4453-4.457 3.25 0 0-13.48-5.8945-13.602-6.0156-0.60156-0.36328-1.9258-1.2031-1.9258-2.0469s0.84375-1.6836 2.2891-2.6484c0.60156-0.35938 1.3242-0.71875 1.9258-0.96094 1.082-0.36328 1.9258-0.84375 2.6484-1.5664 0.96094-0.96094 1.4453-1.9258 1.6836-3.0078v-102.41h18.777c0.24219 32.133 0.60156 91.102 0.36328 93.27-0.24219 0.83984-2.8906 3.3672-4.3359 4.8125-2.1641 2.0469-3.0078 2.8867-3.25 3.6094-0.60156 1.9258-0.23828 3.7305 1.0859 5.1758 1.2031 1.4453 12.758 7.582 14.441 8.3047l19.621 8.543c0.84375 0.84375 1.9258 1.2031 3.1289 1.2031 2.5273 0 4.5742-2.043 4.5742-4.5703 0-2.5273-2.0469-4.5742-4.5742-4.5742-2.5273 0-3.8516 1.4453-4.4531 3.3711l-13.359-5.8984s-2.4102-0.96484-2.5273-1.6836c0-0.24219-1.3242-1.8086 3.6094-3.8516 1.6836-0.84375 2.8906-1.4453 3.4922-1.9258 0.96094-0.96484 1.4414-1.9258 1.6836-3.0078v-102.42h28.406s-10.109-17.57-10.711-17.57zm-264.8 85.086c0 1.5664-0.24219 2.8867-0.60156 4.0938-0.24219 0.83984-0.72266 1.5625-1.0859 2.2852-0.84375 1.3242-2.1641 2.1641-3.8516 2.5273 0 0-0.96094 0-3.6094-0.60156-1.5664-0.36328-3.1289-1.3242-4.2148-2.5273-0.35938-0.36328-0.72266-0.84375-1.2031-1.2031-1.082-1.2031-1.8047-2.4062-2.4062-3.7305-1.082-2.168-1.8047-4.5742-2.168-7.1016-0.35938-2.4062-0.23828-4.8125 0.36328-7.1016 0.23828-1.5625 0.72266-3.25 1.6836-5.7734 0.72266-1.8086 1.8047-2.8906 3.1289-3.1328 3.8516 0 10.953 0 13.965 0.12109zm17.812-31.531c0-3.4883 0.24219-12.152 0.35938-19.617 0-10.227 0.24219-14.922 0.24219-17.086h22.988v37.066c-3.8516 0-15.887-0.24219-23.469-0.36328zm141.19 33.457c-1.082 2.4062-2.5273 4.4531-4.332 6.3789s-4.4531 3.7305-6.6211 4.4531c-1.8047 0.72266-3.9727 1.082-6.0156 1.2031l-1.4453-1.4453c-1.8047-1.9258-3.9727-4.0898-4.2148-4.5742l-0.35938-0.48047c-0.35938-0.35938-0.72266-0.96094-1.082-1.5625-2.168-2.8906-3.6133-5.5352-4.5742-8.3047-0.60156-2.0469-0.84375-3.6094-0.84375-5.1758 0-1.5625 0.24219-3.7305 0.84375-5.293 0.83984-1.9258 2.0469-3.4922 3.4883-4.8164 1.8086-1.4414 3.3711-2.4062 4.9375-3.0078l22.266 0.24219c0.48047 1.6836 1.5664 5.4141 1.5664 7.3398 0 5.5352-2.4102 12.516-3.6133 15.043z"/>
  </g>
 </g>
</svg>
