<?xml version="1.0" encoding="UTF-8"?>
<svg width="2245" height="1587" version="1.2" viewBox="0 0 1683.8 1190.3" xmlns="http://www.w3.org/2000/svg" zoomAndPan="magnify">
 <g id="a">
  <path d="m800.07 486.84c6.2812-4.1289 13.152-4.1836 19.465-5.9844 92.41-26.418 185.85-48.988 278.61-74.039 90.223-24.496 180.45-49.199 271.89-68.898 34.484-7.418 69.164-13.996 104.7-13.121 20.059 0.47266 39.332 4.3906 57.273 13.785 34.035 17.812 52.902 53.484 47.953 90.609-5.2461 38.965-34.293 72.082-70.898 79.781-7.3633 1.5391-8.2031 3.8828-5.2461 10.164 6.6289 14.414 11.664 29.094 9.3047 45.488-5.6836 39.766-49.844 63.262-85.695 45.363-23.715-11.809-32.004-43.211-18.152-68.039 1.2422-2.3164 2.6094-4.5547 4.0977-6.7188 1.4883-2.168 3.0898-4.2422 4.8086-6.2305s3.5391-3.8789 5.4648-5.668c1.9258-1.7852 3.9414-3.4648 6.0508-5.0273 2.1094-1.5664 4.3008-3.0117 6.5703-4.3359 2.2656-1.3242 4.6016-2.5195 7.0039-3.5898 2.3984-1.0664 4.8516-1.9961 7.3555-2.793 2.5-0.80078 5.043-1.457 7.6172-1.9727 7.7109-1.75 8.2383-4.0078 3.6914-9.9922-5.0898-6.7188-9.375-13.996-13.992-21.152-2.5352-3.9336-4.5469-5.125-6.875 0.26562-12.047 27.992-32.578 47.234-61.207 57.504-4.4609 1.6133-5.0898 3.5-2.9062 7.6484 2.6445 4.8906 4.7305 10.012 6.2617 15.355 1.5312 5.3477 2.4688 10.797 2.8164 16.344 1.3125 21.871-6.2969 39.996-25.199 51.352-19.902 11.949-40.996 12.527-61.422 0.41797-9.7578-5.7891-15.195-15.062-17.594-26.086-0.66406-3.0273-1.1523-6.1055-1.9414-10.32-5.5938 6.8906-10.176 12.859-15.109 18.508-3.1875 3.707-6.6211 7.1719-10.297 10.398-3.6758 3.2227-7.5625 6.1719-11.652 8.8477-4.0898 2.6797-8.3516 5.0547-12.777 7.1328-4.4258 2.0781-8.9727 3.8359-13.645 5.2734-25.711 7.9922-38.145 3.2695-56.789-21.418-4.6484 8.75-9.1797 17.129-15.477 24.496-7.3281 8.5195-15.371 15.887-26.512 19.246-16.352 4.793-27.98-1.75-30.973-18.406-2.9883-16.656-0.89062-33.121 1.75-49.582 3.793-23.883 9.7227-47.395 12.242-71.488 0.5625-5.2344 0.75391-10.484 0.57812-15.746-0.23047-6.8906-4.1289-7.8711-9.375-4.6875-8.4141 5.1094-14.465 12.562-19.484 20.891-19.359 32.137-30.777 67.113-37.23 103.89-2.4141 13.77-4.6367 27.59-7.418 41.289-2.1836 10.742-17.695 21.746-28.172 20.996-3.7617-0.28125-3.3047-2.7812-3.1289-4.8984 0.55859-6.3516 1.4141-12.652 2.3086-20.332-5.0039 3.9883-6.9102 8.75-9.6719 12.789-5.457 7.9961-11.07 15.746-19.695 20.734-18.867 10.742-36.113 2.3789-39.066-19.141-1.4062-8.3945-1.6484-16.82-0.73438-25.281 0.59375-4.3047 0.66406-8.7461 1.1172-15.395-7.9219 6.5234-15.984 8.7461-19.043 19.035-6.9961 23.617-16.859 46.012-36.027 62.875-4.3711 3.9375-9.2734 7.0312-14.707 9.2734-17.488 7-29.59 1.8906-43.723-19.68l-15.547 94.789c20.34-6.1406 38.91-11.863 57.555-17.34 103.18-30.301 205.51-63.105 309.91-88.875 34.801-8.6094 69.953-15.746 106.14-15.188 19.082 0.31641 37.742 2.9219 55.406 10.691 37.809 16.602 49.211 49.793 29.73 86.184-12.664 23.668-31.164 42.094-52.238 58.047-49.387 37.406-105.44 61.551-163.76 80.938-78 25.926-157.79 43.316-239.98 48.512-21.844 1.3828-43.719 1.4727-65.355-2.4141-3.1836-0.49219-6.2617-1.3594-9.2383-2.5977-2.9766-1.2422-5.7617-2.8164-8.3555-4.7305-10.07-7.6992-11.574-18.145-3.6719-28.168 6.9961-8.8555 16.215-15.047 25.918-20.469 21.578-12.227 43.91-22.863 67-31.914 96.047-37.039 193.58-69.336 294.25-91.535 15.961-3.6133 32.121-5.707 48.477-6.2812 4.6875-0.19531 9.3516 0.046875 13.992 0.73438 4.1094 0.68359 10.301 0.15625 11.121 5.0898 0.98047 5.9688-5.2461 7.9258-9.6875 9.6055-19.676 7.4531-40.398 11.094-60.773 15.957-98.582 23.531-197.34 46.293-294.09 76.805-23.746 7.2773-46.559 16.793-68.434 28.555-8.4648 4.6172-16.578 9.8477-22.457 17.773-6.293 8.5039-4.582 15.852 4.7227 20.906 8.1133 4.4102 16.965 5.9141 26.039 6.5781 51.996 3.832 102.97-4.0039 153.5-14.695 76.949-16.27 151.71-38.996 222.1-74.758 34.98-17.773 68.469-37.613 95.75-66.484 10.703-11.316 20.254-23.371 23.367-39.258 3.1641-16.219-3.3594-30.301-17.926-38.105-15.742-8.4492-33.23-10.727-50.719-11.633-41.746-2.1523-82.371 5.457-122.82 14.66-104.58 23.793-206.93 55.637-309.83 85.48-14.27 4.1289-28.488 8.4336-42.898 12.039-5.7383 1.4531-7.8711 4.3203-8.832 9.9023-7.3984 42.215-15.27 84.309-29.887 124.79-14.238 39.453-34.367 74.988-70.637 98.273-57.715 37.09-152.9 40.781-211.28-13.016-17.926-16.5-37.617-47.012-41.973-67.395 3.168 5.1445 6.2812 10.324 9.5156 15.414 36.289 57.035 100.88 86.305 166.93 74.898 49.301-8.5195 81.602-38.77 102.15-82.91 18.137-38.926 26.234-80.793 34.645-122.47 1.4883-7.3633 2.7617-14.766 4.0938-21.902-2.4844-2.1523-4.4609-0.71875-6.1914-0.24609-30.902 8.4336-61.734 17.094-92.691 25.422-5.9805 1.6094-9.0039 4.3555-10.492 10.793-5.0508 23.742-12.547 46.684-22.488 68.828-21.879 47.449-68.383 71.73-117.07 61.566-4.7852-1.0156-9.2852-2.7656-13.5-5.25 3.4102-2.9727 7.2227-2.0977 10.684-2.082 37.27 0.21094 64.707-16.727 83.246-48.445 12.242-20.836 18.816-43.738 24.484-67.094 1.2578-5.25 0.61328-7.418-5.7188-5.6172-14.832 4.2539-29.836 7.9102-44.805 11.652-3.2539 0.80469-7.3633 2.7812-9.6016-0.96094-2.4141-4.0078 1.2227-7 3.5859-9.8672 3.6875-4.4102 8.7422-6.5078 14.234-7.9453 13.52-3.4961 26.934-7.4531 40.449-11.02 4.043-1.0664 6.4883-2.8164 7.3828-7.2969 5.8594-29.129 11.227-58.328 15.738-90.242-3.8633 5.668-6.2969 9.5-8.9883 13.141-6.4883 8.7461-14.148 16.426-24.641 20.258-15.34 5.6016-26.531-0.62891-29.957-16.445-1.0156-4.6875-1.2773-9.5352-2.207-16.898-3.2148 6.9961-5.3672 11.859-7.7109 16.652-6.0508 12.457-13.309 24.023-25.254 31.758-24.168 15.621-48.637 7.418-58.219-19.633-6.1719-17.492-6.7852-35.445-3.8281-53.535 5.1562-31.492 14.672-61.234 36.551-85.57 9.1797-10.254 20.004-17.738 33.543-20.996 19.324-4.6172 31.145 0.64844 40.992 19.125 1.8516-6.7188 3.3203-12.633 5.125-18.441 0.21094-0.63281 0.45703-1.2578 0.73047-1.8672 0.27344-0.61328 0.57422-1.207 0.90625-1.793 0.33203-0.58203 0.6875-1.1445 1.0742-1.6914 0.38281-0.55078 0.79297-1.0781 1.2305-1.5859 0.43359-0.51172 0.89062-0.99609 1.375-1.4609 0.48047-0.46484 0.98438-0.90625 1.5078-1.3242 0.52344-0.41406 1.0664-0.80859 1.6289-1.1719s1.1406-0.70312 1.7344-1.0117c0.59375-0.30859 1.1992-0.58984 1.8203-0.83984 0.62109-0.25 1.25-0.47266 1.8906-0.66406 0.64453-0.19141 1.293-0.35156 1.9492-0.48047 0.65625-0.12891 1.3203-0.22656 1.9844-0.28906 0.66797-0.066406 1.3359-0.10156 2.0039-0.10156 0.67187 0 1.3398 0.03125 2.0039 0.09375 0.66797 0.0625 1.3281 0.15625 1.9883 0.28125 0.65625 0.125 1.3047 0.28125 1.9492 0.46875 5.6836 1.75 4.7578 5.3906 3.4961 9.6953-6.8477 22.34-11.871 45.082-15.074 68.23-3.0078 22.254-5.7891 44.562-4.9336 67.078 0.17578 4.9492-1.0664 11.809 5.25 13.508 6.3125 1.6953 10.02-3.8867 13.043-8.4688 15.285-23.184 24.574-48.672 29.594-75.965 4.8594-26.383 8.2188-52.977 12.242-79.484 2.043-13.383 11.332-20.887 24.852-20.715 7.6758 0.10547 10.668 3.3438 9.6523 10.953-0.73438 5.4258-1.9609 10.777-3.3242 18.145 7.1719-9.7461 12.398-18.527 19.922-25.473 8.3594-7.7344 17.73-13.07 29.465-13.598 18.504-0.82031 29.574 7.1914 34.262 25.457 3.9883 15.52 3.2188 31.246 1.3828 46.941-0.69922 6.0352-1.8906 12.02-3.3047 20.836 7.9023-6.7188 14.34-11.109 16.387-20.051 6.1719-27.047 8.3945-54.707 13.43-81.93 2.5547-13.785 10.789-20.434 24.992-20.242 8.0781 0.10547 11.016 3.4102 10.02 11.531-0.79688 4.0625-0.90234 8.1445-0.31641 12.246 2.3984-3.5 4.6719-7 7.207-10.496 9.582-12.723 21.18-22.52 37.637-24.777 18.449-2.5352 32.039 6.8594 36.324 24.844 4.6172 19.422 3.4961 38.773-0.4375 58.121-0.29688 1.3984-0.52734 2.8008-0.92969 4.8828 9.3398-4.6562 15.461-10.305 16.965-20.996 3.1992-22.742 6.7695-45.488 13.203-67.707 3.5-12.09 10.059-16.621 22.387-16.551 10.266 0 12.73 3.0625 9.5312 12.824-8.7461 26.418-13.625 53.641-17.84 81.004-2.4297 15.324-3.2227 30.73-2.3789 46.223 0.28125 4.793 0 10.762 5.7539 12.613 5.7539 1.8555 10.023-2.3086 13.207-6.543 14.094-18.684 22.559-40.012 27.98-62.578 6.7656-28.398 9.6719-57.457 14.199-86.238 0.66406-4.3047 1.1719-8.7461 2.2031-12.91 2.8867-12.055 13.871-18.387 26.023-15.535 5.8594 1.3633 5.1406 5.4414 4.5469 9.5352-1.625 11.492-3.375 22.988-5.1406 34.988 3.8633-1.4844 4.25-4.7031 5.5781-6.9961 6.9961-12.527 14.5-24.617 24.676-34.852 6.5859-7.0312 14.219-12.633 22.895-16.812 18.66-8.293 31.48-0.73438 32.109 19.508 0.64453 19.734-4.9688 38.629-9.2891 57.645-5.1055 22.484-9.7031 45.035-10.684 68.129-0.24609 5.6172-2.0469 12.98 4.25 15.746 6.9961 3.0977 11.891-2.8867 16.297-7.4727 7.3984-7.9727 13.328-16.918 17.789-26.836 0.88281-1.9844 1.4961-4.0547 1.8281-6.2031 0.33594-2.1484 0.38672-4.3008 0.14844-6.4648-2.6953-42.707 3.2148-83.293 30.832-118.06 11.137-13.996 24.988-24.492 42.914-28.289 25.867-5.5625 41.117 6.6133 40.82 33.031-0.22656 20.086-10.215 36.109-23.066 50.543-13.992 15.746-32.32 24.688-51.539 31.859-6.6992 2.5039-8.8516 5.9492-8.0977 12.914 0.92578 8.3945 1.1875 16.898 3.3555 25.086 3.168 11.879 8.8867 14.539 20.008 9.5547 11.648-5.25 21.109-13.648 29.73-22.746 29.418-31.195 50.156-67.723 64.969-107.81 1.4375-3.8828-0.24219-6.7852-1.168-10.023-4.5508-15.852-3.9023-30.633 8.7422-42.863 0.74609-0.75781 1.5391-1.457 2.3828-2.0977 0.84375-0.64453 1.7305-1.2266 2.6562-1.7422 0.92578-0.51953 1.8828-0.96875 2.875-1.3516 0.98828-0.37891 2-0.69141 3.0352-0.92969 1.0312-0.23828 2.0781-0.40234 3.1367-0.49219 1.0547-0.089843 2.1133-0.10156 3.1758-0.042968 1.0586 0.058594 2.1055 0.19531 3.1484 0.40625 1.0391 0.20703 2.0586 0.48828 3.0586 0.84375 4.9336 1.5039 7.6094 4.3047 3.918 9.6211-1.2734 1.9688-2.4414 3.9961-3.4961 6.0898-10.652 19.824-8.7461 36.742 6.1211 53.992 7.7617 9.043 17.645 16.199 23.871 26.625 1.5898 2.6797 3.707 1.9258 6.0664 1.4023 33.578-7.4531 52.73-30.039 64.113-60.887 1.2773-3.4961-0.50391-6.2812-1.4492-9.2344-4.3398-13.543-3.5-26.508 4.3008-38.598 6.3477-9.832 16.176-13.488 27.266-10.898 5.7188 1.3477 7.4844 4.2695 4.4062 9.3438-15.738 25.875-9.6367 48.984 8.7461 70.594 2.0781 2.4297 4.7031 4.7227 5.875 7.5586 4.2852 10.496 11.629 8.8672 19.973 6.1562 58.812-19.156 66.559-92.008 31.215-127.71-14.355-14.523-33.488-18.371-52.832-20.035-34.629-2.9727-68.676 2.7656-102.39 9.4297-124.03 24.496-246.36 56.426-369.22 86.008-69.324 16.691-138.49 34.273-208.95 45.805-1.0156 0.007813-2.0234-0.066406-3.0273-0.22656zm-126.48 260.04c-5.5234 31.336-10.719 61.445-16.246 91.5-1.2578 6.8945 0.48828 7.9961 6.9961 6.0195 30.066-9.168 60.207-18.113 90.414-26.836 6.8047-1.9453 9.7773-5.5469 10.863-12.406 5.6992-36.25 11.77-72.43 17.66-108.65 0.71875-4.4062 1.1719-8.7461 1.8398-13.855-10.145 2.9414-15.898 8.1719-19.062 17.496-7.3633 21.641-16.668 42.355-35.277 57.176-22.77 18.055-41.711 14.992-57.188-10.445zm147.55-62.984c9.1641-9.5508 15.145-19.488 26.234-22.953 4.6328-1.4531 11.262-5.4766 14.094 0.45312 3.1836 6.6484-4.4922 8.1016-8.832 10.5-8.3594 4.4414-16 9.6719-20.668 18.195-3.8477 6.9961-3.0273 16.551 1.5039 20.348 5.2461 4.3906 14.41 3.6562 20.984-1.8398 4.8281-4.3125 8.7852-9.3164 11.875-15.012 10.949-18.578 17.016-38.906 20.988-59.922 3.4961-19 5.2461-38.191 0.82031-57.297-3.9531-17.301-14.41-20.363-27.441-8.2578-7.5703 7-12.645 15.922-17.66 24.828-15.602 27.344-16.688 58.277-21.898 90.871zm-313.54 70.613c0 9.918 0.19531 19.84 3.1484 29.41 4.7773 15.379 15.531 18.492 27.754 8.0977 10.074-8.5547 16.074-19.891 20.531-31.996 9.7969-26.664 15.305-54.238 18.363-82.477 0.72266-6.1602 0.21484-12.219-1.5195-18.176-4.0742-13.613-11.996-16.953-24.484-10.043-10.844 6-17.961 15.746-23.645 26.242-13.188 24.547-18.922 51.086-20.148 78.852zm169.87-30.809c4.6719-4.375 7.5742-7 10.406-9.7656 5.2461-5.1094 10.984-9.6562 18.012-12.035 4.5664-1.5391 11.371-4.4961 13.504 0.22656 3.0938 6.8594-4.7578 7.5586-9.2539 9.6406-4.2656 1.9648-8.1523 4.5078-11.656 7.6328-3.5078 3.1211-6.4844 6.6914-8.9258 10.703-4.6875 7.5391-4.582 17.496 0.50781 20.992 7.3438 4.8828 14.094 1.4883 20.004-3.1641 3.4062-2.7773 6.3203-5.9961 8.7461-9.6602 24.238-35.672 30.883-75.508 26.652-117.59-0.75-7.5234-1.8555-17.145-10.789-19.246-9.9883-2.4297-17.141 5.0234-22.738 12.074-24.988 31.332-30.742 69.055-34.469 110.1zm807.76-175.15c0.10547-8.0312-3.0078-18.512-8.4453-28.344-1.2266-2.2031-2.1367-4.707-5.8086-3.9375-26.371 5.6523-45.172 24.672-45.348 50.02-0.14062 17.043 12.051 27.469 29.016 25.703 18.52-1.9961 30.777-18.09 30.586-43.531zm-128.28 23.512c-0.066407-9.4102-1.8789-18.473-5.4414-27.188-1.5547-3.5-3.4102-5.3867-7.9922-4.2344-19.602 4.8984-35.973 23.812-37.285 43.738-0.82031 12.688 3.5 21.117 12.523 24.371 1.3008 0.47266 2.6328 0.83594 3.9922 1.0938 1.3594 0.25781 2.7305 0.41016 4.1172 0.44922 1.3828 0.042969 2.7617-0.023437 4.1328-0.20312 1.375-0.17578 2.7227-0.46094 4.0508-0.85156s2.6172-0.88281 3.8672-1.4766c1.25-0.59766 2.4453-1.2852 3.5859-2.0703 1.1406-0.78125 2.2148-1.6523 3.2188-2.6055 1-0.95312 1.9258-1.9805 2.7656-3.082 6.2422-8.3438 8.4648-17.863 8.4648-28.027zm-168.85-20.625c33.016-6.2812 57.711-43.566 50.82-75.371-1.1367-5.25-1.9062-11.426-8.5-12.98-6.207-1.4883-10.738 2.3945-14.324 6.5781-20.18 23.336-25.621 51.699-27.996 81.684zm29.344 68.863c11.594 2.7109 19.973-1.5234 27.719-7.3516 13.801-10.355 23.035-24.492 31.777-39.031 4.4023-7.5742 9.4883-14.656 15.27-21.238 13.098-14.453 28.801-23.969 50.488-25.281l-31.043-37.773c-19.516 52.434-49.109 96.469-94.211 130.59z"/>
  <path d="m637.6 363.99c22.266-10.203 42.867-19.703 63.555-29.008 4.7734-2.1719 4.3711-6.3867 5.0703-10.289 9.9531-56.145 23.98-111.1 49.301-162.52 11.945-24.25 27.652-45.84 48.461-63.508 2.2578-1.957 4.6016-3.8047 7.0352-5.543 2.4336-1.7344 4.9414-3.3516 7.5234-4.8516 2.5859-1.5 5.2344-2.875 7.9492-4.1211 2.7148-1.25 5.4844-2.3672 8.3047-3.3555 2.8203-0.98438 5.6797-1.8398 8.5781-2.5547 2.9023-0.71484 5.832-1.293 8.7852-1.7344 2.957-0.44141 5.9258-0.73828 8.9102-0.89844 2.9805-0.16016 5.9648-0.17578 8.9531-0.054687 3.4961 0 9.5312-1.4492 9.7734 2.4492 0.31641 4.832-6.0859 4.3398-9.7578 4.9688-10.395 1.7969-20.305 5.0625-29.73 9.7969-16.719 8.3281-29.117 21.117-38.945 36.742-20.48 32.508-31.395 68.773-40.996 105.46-6.2773 23.949-12.238 48.004-15.02 72.711-0.19531 1.625-1.1562 3.3398 0.50781 5.4375 5.7188-2.875 10.629-6.7773 14.723-11.703 2.8516-3.2695 6.9961-7.5586 10.688-4.582 4.125 3.3398 1.1016 8.6406-1.6641 12.543-5.6289 7.8711-14.25 11.844-22.262 16.551-3.0234 1.75-5.6992 3.1133-6.2617 7.4688-5.332 40.52-9.6016 81.094-6.7852 122.03 0.62109 9.3203 1.8984 18.543 3.832 27.68 5.9805 27.746 26.598 38.594 53.34 28.676 3.0078-1.1016 7.3633-5.0938 9.0742-1.9961 2.3789 4.2852-2.6758 7-6.1367 9.0273-10.555 6.457-21.926 10.773-34.102 12.949-27.109 4.3906-46.766-7-56.156-32.91-5.4062-14.941-7.5547-30.512-8.2734-46.293-1.3984-33.645 0.59766-67.082 5.9805-100.32 0.22656-1.3984 0.31641-2.8164 0.4375-4.1094-2.6211-1.1367-4.2656 0.47266-6 1.293-16.035 7.6094-31.668 16.254-48.18 22.746-11.141 4.3359-14.199 11.648-15.25 22.234-2.9727 29.918-7.957 59.484-17.574 88.125-12.891 38.367-31.797 73.184-60.984 101.74-5.8164 5.2891-11.887 10.277-18.203 14.957-1.0156 0.82422-2.082 2.1523-3.9375 1.3281 0-2.5 1.9062-4.0234 3.2539-5.6133 28.941-34.379 42.164-75.371 50.07-118.59 4.4414-24.336 7.8164-48.812 10.492-73.586-4.9844-0.31641-7.8711 2.8711-10.965 5.25-39.367 30.422-67.75 69.387-88.613 114.23-19.781 42.551-32.617 87.234-41.781 133.11-0.41016 2.3164-0.69531 4.6523-0.85547 7 0 0.47266 0.43359 0.99609 0.89062 1.957 7.7461-3.1133 15.496-6.3164 23.312-9.3242 2.5508-0.98047 5.7695-3.2188 7.7109 0.29688 1.6445 2.9414 0.57812 6.2656-1.625 8.9414-2.043 2.3438-4.4219 4.2695-7.1406 5.7695-2.7227 1.5039-5.6172 2.4961-8.6875 2.9766-13.816 2.625-19.027 10.305-20.375 24.301-4.1445 42.672-9.3711 85.223-5.8398 128.21 0.82422 10.195 2.5703 20.227 5.2461 30.094 4.582 16.797 15.738 25.875 32.426 29.164 3.4258 0.73047 6.8867 1.1836 10.387 1.3711s6.9922 0.10156 10.477-0.25781c3.4844-0.35937 6.9219-0.98828 10.309-1.8828 3.3867-0.89844 6.6836-2.0508 9.8906-3.4648 1.957-0.875 4.25-3.1992 6.2266-1.082 1.7461 1.8516 0.13672 4.4062-0.61328 6.5781-0.77734 2.0703-1.9141 3.9219-3.4062 5.5508-1.4922 1.6328-3.2383 2.9258-5.2344 3.8789-20.793 11.23-42.883 15.203-65.914 9.6914-20.617-4.9336-33.543-19.086-40.906-38.488-5.1094-13.762-8.0977-27.965-8.9531-42.621-2.6914-40.117 1.75-79.762 7.9414-119.29 0.4375-2.7969 1.7461-5.5625 0.52344-9.1133-19.32 7.5-38.559 14.988-57.711 22.465-5.3516 2.082-4.25 7.2773-4.7227 11.301-3.6914 30.672-7.418 61.34-14.289 91.52-10.195 44.734-28.418 85.727-58.027 121.02-15.898 18.914-34.207 35.219-59.25 41.273-24.484 5.9297-46.152-2.625-59.707-23.883-17.262-27.066-17.137-56.336-9.1289-85.988 11.629-43.059 39.578-74.566 73.871-101.25 25.273-19.648 53.586-33.961 82.773-46.609 5.2461-2.2578 7.7656-5.125 8.7461-11.32 8.7422-55.074 20.512-109.4 44.523-160.28 1.7148-3.6602 3.4648-7.3242 5.2461-10.984-2.043-2.3281-4.5117-1.4023-6.5391-1.0352-38.648 7-76.547 16.449-108.81 40.242-33.406 24.719-51.297 57.734-48.219 99.969 1.75 24.336 20.133 37.09 40.75 29.742 1.3359-0.48828 2.6484-1.0273 3.9414-1.6172 1.293-0.59375 2.5586-1.2344 3.8008-1.9258s2.4531-1.4297 3.6367-2.2148c1.1836-0.78906 2.332-1.6211 3.4531-2.5 1.1172-0.87891 2.1953-1.8008 3.2422-2.7617 1.043-0.96484 2.0508-1.9688 3.0156-3.0117s1.8867-2.1211 2.7656-3.2383c0.88281-1.1172 1.7148-2.2656 2.5039-3.4492 0.79297-1.1797 1.5312-2.3906 2.2266-3.6328 0.69141-1.2422 1.3359-2.5078 1.9297-3.7969 0.59375-1.293 1.1367-2.6055 1.625-3.9414 0.49219-1.332 0.92578-2.6836 1.3086-4.0547 0.38281-1.3672 0.71094-2.75 0.98828-4.1445 0.27344-1.3945 0.49219-2.8008 0.65234-4.2109 0.16406-1.4141 0.26953-2.8281 0.32031-4.25 0.054687-1.4219 0.046875-2.8398-0.011719-4.2617 0-1.4688-0.35156-2.9219-0.33594-4.3555 0-3.5-2.6211-8.0664 3.3438-9.1523 5.1055-0.92578 8.4453 1.75 10.055 6.4414 5.0547 14.484 2.7266 28.57-5.0039 41.164-15.422 25.125-37.949 38.176-67.941 36.008-26.234-1.8906-46.047-22.852-49.527-52.766-5.4375-46.906 14.098-82.754 50.719-110.22 34.277-25.633 74.324-35.305 115.95-39.891 11.562-1.2773 23.242-1.75 34.98-1.9766 1.4336 0.054688 2.8555-0.050781 4.2656-0.32422 1.4102-0.27344 2.7695-0.70313 4.082-1.293 1.3086-0.58594 2.5352-1.3125 3.6758-2.1836 1.1445-0.87109 2.1719-1.8633 3.0859-2.9688 4.6367-5.457 9.75-10.418 15.34-14.891 5.5859-4.4727 11.551-8.375 17.887-11.703 4.082-1.9844 8.3398-3.457 12.777-4.4102 4.4336-0.95703 8.9219-1.3711 13.457-1.2422 1.6445 0 3.918-0.76953 4.4766 1.4531s-1.1016 3.707-3.0781 4.6367c-0.52344 0.24609-1.0312 0.55859-1.5742 0.75-34.398 12.25-51.348 39.488-61.891 72.082-11.266 34.766-17.488 70.664-23.383 106.62-1.75 10.883-3.3242 21.781-5.2461 34.223 20.984-8.0664 40.66-15.605 60.281-23.27 4.0742-1.5938 3.375-5.8086 4.0391-9.0469 8.9727-44.105 21.109-87.285 40.82-127.87 20.984-43.25 46.52-83.438 82.441-116.26 16.527-14.859 34.41-27.848 53.652-38.965 1.0078-0.51953 1.9297-1.1562 2.7734-1.9102 0.83984-0.75391 1.5742-1.6016 2.2031-2.543 0.625-0.94141 1.125-1.9453 1.5-3.0117 0.37109-1.0703 0.60156-2.168 0.69531-3.293 8.7461-56.512 18.277-112.81 41.465-165.68 2.8867-6.6133 6.1211-13.086 9.5156-20.277-6.8398-0.64844-12.574 1.332-18.363 2.5742-38.039 8.2578-73.715 21.484-103.73 47.5-3.0039 2.5391-5.8867 5.2109-8.6445 8.0195-2.7578 2.8086-5.375 5.7422-7.8594 8.793-2.4844 3.0547-4.8203 6.2188-7.0117 9.4883-2.1875 3.2734-4.2188 6.6367-6.0938 10.098s-3.5859 7.0039-5.1289 10.625c-1.5469 3.6172-2.918 7.3047-4.1211 11.051-1.1992 3.75-2.2227 7.5469-3.0703 11.391-0.84766 3.8438-1.5156 7.7188-2 11.625-1.6445 12.004-1.0859 23.898 5 34.887 7.5547 13.594 19.992 18.457 34.855 13.645 24.871-8.0273 40.051-32.066 37.023-58.449-0.4375-3.7969-2.5898-8.75 3.4961-9.9375 5.4062-1.0352 8.8672 2.0977 10.496 6.9961 1.3867 4.3359 2.1094 8.7812 2.1641 13.332 0.058593 4.5547-0.55469 9.0156-1.832 13.383-8.8672 33.418-46.555 57.246-80.605 51.055-25.516-4.6562-43.266-26.594-44.281-57.473-1.625-49.355 20.48-87.008 60.492-114.41 34.977-23.984 74.973-34.113 116.51-39.137 0.86719-0.13281 1.7344-0.21484 2.6094-0.24219 20.461-0.17578 38.332-4.0625 52.465-22.047 10.875-13.891 28.242-19.035 46.238-19.246 2.082 0 5.2461-1.4336 5.8594 1.75 0.4375 2.4492-2.1172 3.9727-4.3711 4.7969-7.7422 2.6758-15.094 6.1758-22.055 10.496-4.0586 2.5938-7.8828 5.4961-11.473 8.707-3.5898 3.2109-6.9023 6.6875-9.9297 10.434-3.0312 3.7461-5.7422 7.707-8.1328 11.891s-4.4336 8.5273-6.125 13.039c-14.617 37.789-20.984 77.523-27.98 117.11-2.8516 15.73-4.8984 31.598-7.6094 49.586zm-462.69 552.91c0.26172 11.723 1.5547 23.254 6.6445 34.012 8.9375 18.879 27.773 24.965 46.012 14.801 12.242-6.8242 21.406-16.898 29.117-28.375 6.7148-10.066 12.578-20.605 17.598-31.613s9.1289-22.344 12.328-34.016c10.492-37.457 14.496-75.98 19.812-114.31 0.75391-5.25 3.9375-13.156 0.38672-15.59-4.25-2.8867-9.4453 3.7617-13.992 6.4219-38.141 22.168-70.688 50.16-93.195 88.648-14.43 24.758-24.207 50.945-24.711 80.023z"/>
  <path d="m1091.8 219.07c-6.2578 53.363-18.922 104.82-46.168 151.77-6.6094 11.406-14.133 22.133-25.27 29.742-4.5547 3.2695-9.543 5.6016-14.973 7-17.156 4.0586-26.406-2.2422-28.312-19.629-0.55859-5.25-0.73437-10.395-1.1367-16.344-3.707 1.75-4.3047 5.0234-5.5781 7.5781-6.5938 13.086-13.609 25.82-25.113 35.391-2.2383 1.8555-4.4609 3.7461-6.875 5.3906-20.531 13.996-38.668 6.5781-43.23-17.793-4.6875-25.09-0.26172-49.949 2.5-74.848 0.31641-2.8672 0.69922-5.7539 1.1719-9.6406-11.281 6.4414-18.957 12.984-19.379 27.191-0.1875 7.0039-0.78516 13.977-1.7812 20.914-1 6.9375-2.3984 13.793-4.1953 20.566-1.7969 6.7773-3.9766 13.426-6.5469 19.945-2.5664 6.5234-5.5039 12.871-8.8125 19.051-10.176 19.09-24.973 32.699-46.5 38.16-24.328 6.1758-44.105-3.6914-48.27-28.258-9.7578-57.734 3.7266-109.33 46.836-151.11 7.9219-7.6836 17.941-11.777 28.664-14.102 18.258-3.9922 33.227 4.7227 38.684 22.586 2.4297 8.1758 3.75 16.527 3.9688 25.051 11.613-8.5 20.34-16.637 22.84-31.086 9.1836-53.434 19.641-106.62 38.477-157.71 6.8711-18.684 14.988-36.738 28.383-51.84 7.7812-8.7461 16.98-14.992 28.613-17.301 13.988-2.7812 23.469 4.375 24.379 18.789 0.53906 8.75-1.5586 17.355-3.9531 25.805-11.355 39.363-27.094 76.887-47.219 112.57-11.457 20.594-21.703 41.992-35.836 60.992-3.4961 4.7227-3.0781 10.496-3.9883 15.918-4.668 27.328-7.4844 54.867-9.4414 82.492-0.54297 7.5586-0.92969 15.168 1.0664 22.621 2.2031 8.2422 7.3086 10.289 14.254 5.25 7.2383-5.25 11.996-12.578 16.754-19.965 17.891-27.867 25.199-59.203 30.465-91.324 2.2188-13.488 5.4219-26.855 8.918-40.082 3.2344-12.246 12.66-18.09 25.027-16.707 5.7344 0.62891 7.3984 4.1992 6.1719 9.2891-1.8516 7.6289-3.9883 15.203-6.0508 22.742-8.2383 30.18-12.785 61.008-16.02 92.047-0.84375 6.4375-0.69922 12.852 0.4375 19.242 1.75 8.9766 7.8164 11.355 15.301 5.9141 6.457-4.707 10.863-11.32 15.305-17.809 19.516-28.449 31.48-60.254 41.762-92.887 5.6328-18.281 10.039-36.965 14.672-55.582zm-284.54 107.27c-3.0977 1.1914-3.2734 3.5-3.9023 5.25-4.7461 13.797-8.043 27.938-9.8867 42.414-1.8477 14.477-2.207 28.988-1.0781 43.539 0.21875 6.1562 1.3867 12.129 3.4961 17.918 3.7109 8.9727 10.336 12.086 19.676 9.1992 7.7461-2.3945 12.488-8.1875 16.648-14.66 13.641-21.238 16.406-45.715 20.742-69.719 0.80469-4.4805 2.3633-10.375 0.31641-13.438-2.4141-3.6016-7.8008 1.3828-12.102 0.83984-2.5898-0.33203-5.25 0-7.8203-0.40234-12.957-1.5742-21.422-9.168-26.09-20.941zm133.82-81.02c1.3125-1.1211 2.168-1.5586 2.5703-2.2578 20.254-34.801 38.336-70.543 47.797-110.05 4.0742-17.008 7.8867-34.047 6.6445-51.734-0.19141-2.8008 0-6.332-3.4961-7.207-2.9922-0.75391-4.6016 1.9922-6.2266 3.9883-6.2188 7.8125-11 16.426-14.34 25.84-16.578 45.594-24.203 93.234-32.949 141.42zm-85.273 69.98c-1.0312-10.094-1.1914-20.297-4.4258-30.039-1.4844-4.4805-4.5273-7.5234-9.4961-7.6133-4.4766 0-6.7656 3.168-8.0977 6.7891-1.1484 3.0586-2.0391 6.1875-2.6758 9.3906s-1.0039 6.4375-1.1094 9.7031c-0.10547 3.2617 0.058594 6.5117 0.48828 9.75 0.42969 3.2383 1.1211 6.418 2.0742 9.543 0.58594 1.6562 1.4102 3.1875 2.4648 4.5938 1.0586 1.4023 2.2969 2.6211 3.7266 3.6445 4.3203 3.5 9.3711 3.5 13.988 1.9414 4.6172-1.5547 2.3633-6.4531 2.9062-9.9023 0.25-2.582 0.30469-5.1719 0.15625-7.7656z"/>
  <path d="m435.26 1027.7c-34.086 12.703-67.523 26.246-102.2 36.113-10.492 2.9727-19.535 0.38281-22.105-5.25s1.5742-15.746 9.6367-21.746c9.2344-6.8242 20.164-9.1875 31.199-10.113 26.738-2.2578 53.516-0.96094 80.27 0.22656 1.0938 0.14844 2.1602 0.40625 3.2031 0.76953z"/>
  <path d="m1390.9 720.16c9.6797-7.957 20.098-14.793 31.25-20.504 18.941-10.289 38.352-19.473 59.566-24.18 4.1016-1.0352 8.2695-1.5859 12.5-1.6484 4.2305-0.066406 8.4102 0.35547 12.543 1.2617 3.6914 0.91016 7.4141 2.625 8.0469 7 0.55859 3.9023-2.1367 6.4375-4.9336 8.6406-6.418 5.0234-14.078 6.8438-21.859 7.9961-31.34 4.707-62.383 10.727-92.461 20.996-1.5391 0.26953-3.0898 0.41797-4.6523 0.4375z"/>
  <path d="m466.79 1060.8c-6.5391 16.988-12.836 34.066-19.746 50.879-0.70703 1.9141-1.5703 3.7539-2.5898 5.5195-1.0195 1.7695-2.1797 3.4414-3.4805 5.0117-1.3008 1.5703-2.7227 3.0234-4.2695 4.3516-1.5469 1.332-3.1953 2.5234-4.9453 3.5742-3.7227 2.1172-7.6953 3.0625-11.453 0.34766-3.7617-2.7109-3.2188-6.6992-2.3945-10.371 1.7695-7.1406 4.8594-13.656 9.2656-19.543 10.949-15.414 22.738-30.039 39.613-39.77z"/>
  <path d="m1038.7 183.28c0 13.891-9.6875 25.297-21.285 26.801-9.7227 1.2617-17.227-5.6172-16.367-15.254 0.71484-8.3125 3.4961-15.922 9.6875-21.766 5.543-5.25 12.242-6.875 19.238-3.7617 6.7344 2.9219 8.5352 9.0273 8.7266 13.98z"/>
  <path d="m991.62 469.78c-0.21094 12.789-9.6016 22.902-21.32 22.938-8.7422 0-14.445-6.3008-14.41-15.973 0.023438-0.74219 0.082031-1.4766 0.17188-2.2109 0.09375-0.73438 0.21875-1.4648 0.38281-2.1875 0.16016-0.71875 0.35547-1.4336 0.58203-2.1367 0.22656-0.70313 0.48828-1.3945 0.78125-2.0742 0.29297-0.67969 0.61719-1.3438 0.97266-1.9922 0.35547-0.65234 0.73828-1.2812 1.1523-1.8945 0.41797-0.61328 0.85938-1.2031 1.3281-1.7734 0.47266-0.57422 0.96875-1.1211 1.4883-1.6445 0.52344-0.52344 1.0664-1.0234 1.6367-1.4961 0.57031-0.47266 1.1602-0.91797 1.7695-1.3359s1.2383-0.80469 1.8867-1.1641c0.64453-0.35938 1.3086-0.6875 1.9844-0.98438 0.67969-0.29297 1.3711-0.55859 2.0742-0.78906 0.69922-0.23047 1.4141-0.42969 2.1328-0.59375 0.72266-0.16406 1.4492-0.29297 2.1836-0.39062 0.73438-0.09375 1.4688-0.15625 2.207-0.18359 8.6562-0.015625 13.223 5.582 12.996 15.887z"/>
  <path d="m1374.2 693.74c0.59375-13.84 3.4961-25.336 11.508-35.184 1.7461-2.2422 3.9844-4.7578 7.2891-3.0977 3.3086 1.6602 2.3633 4.918 1.75 7.7344-2.5859 12.156-9.8984 21.309-20.547 30.547z"/>
 </g>
</svg>
