<?xml version="1.0" encoding="UTF-8"?>
<svg width="2245" height="1587" version="1.2" viewBox="0 0 1683.8 1190.3" xmlns="http://www.w3.org/2000/svg" zoomAndPan="magnify">
 <defs>
  <clipPath id="a">
   <path d="m44.176 315h446.82v552h-446.82z"/>
  </clipPath>
 </defs>
 <g id="b">
  <path d="m277.2 739.14c-0.82812 22.176-1.6523 43.223-2.4688 63.137-0.82812 19.926-2.2656 39.738-4.3086 59.441-1.2305 12.32-4.4141 20.84-9.5508 25.562-5.1406 4.7148-14.281 7.0781-27.414 7.082-20.949 0-41.895-0.10156-62.84-0.30859-20.949-0.21094-42.098-0.51953-63.453-0.92188-12.738-0.82812-19.516-8.2188-20.332-22.176-0.41406-8.2109-0.62109-16.113-0.61719-23.715v-23.715c0.40234-50.504 0.71094-100.81 0.92188-150.91 0.20312-50.098 0.71484-100.61 1.543-151.53 0-17.246-0.30859-34.391-0.92578-51.434-0.61719-17.035-0.92187-33.973-0.92187-50.816-0.089844-9.3203 0.73047-18.562 2.4609-27.719 1.2305-8.2109 3.8008-13.754 7.7031-16.633 3.8984-2.8672 9.957-4.3047 18.176-4.3125 14.371-0.40234 28.438-0.60938 42.199-0.61328h84.711c9.8555 0.41406 16.734 2.4648 20.637 6.1602 3.8984 3.6914 6.0547 10.469 6.4727 20.328 1.2305 32.027 1.7422 64.059 1.5391 96.086-0.21484 32.031 0.91406 65.703 3.3867 101.02h59.145c1.2305-27.113 1.0234-54.215-0.61719-81.305-1.6445-26.691-2.6719-53.59-3.0781-80.695-0.83203-13.551-0.83203-27.102 0-40.652 0.81641-16.016 8.6211-24.02 23.41-24.02 20.945-0.40625 41.891-0.71484 62.84-0.92578 20.941-0.20312 42.504 0.10547 64.684 0.92578 10.68 0.82812 18.176 3.4961 22.488 8.0039 4.3125 4.5234 6.2656 11.914 5.8555 22.176-0.82812 15.199-0.93359 30.699-0.30859 46.508 0.61328 15.812 0.92188 31.52 0.92188 47.117 0 6.1602-0.10156 12.117-0.30859 17.863-0.21094 5.7578-0.3125 11.918-0.30469 18.48 0.40234 43.531 0.8125 86.852 1.2305 129.96 0.40234 43.117 0.8125 86.648 1.2305 130.59 0 11.5-0.20312 22.797-0.61719 33.879-0.39844 10.941-1.4258 21.82-3.0781 32.645-0.57422 6.7656-1.7031 13.441-3.3906 20.02-1.0859 4.5-3.1406 8.5039-6.1602 12.012-1.4102 1.4805-3.0078 2.7188-4.793 3.7188-1.7852 0.99609-3.6797 1.707-5.6797 2.1328-5.3828 1.1641-10.824 1.8828-16.324 2.1523-20.543 1.2344-40.773 1.8477-60.684 1.8477h-60.07c-6.9844 0-11.605-1.4336-13.859-4.3086-2.2617-2.8711-3.3906-8.0039-3.3867-15.398 0-19.715 0.10156-38.91 0.30469-57.594 0.20313-18.68 0.51172-37.465 0.92578-56.359v-22.793z" fill="#ff1761"/>
  <path d="m935.79 833.39c-11.918 21.359-27.113 36.141-45.59 44.352-9.6484 4.2031-19.598 7.4961-29.848 9.875-10.25 2.3828-20.633 3.8125-31.145 4.293-27.285 2.0508-54.598 2.5625-81.938 1.5391-27.523-1.0312-55.246-1.1328-83.168-0.30859-4.0898 0.17578-8.1719 0.070312-12.246-0.31641-4.0742-0.38281-8.1016-1.043-12.086-1.9805-3.9805-0.9375-7.8828-2.1406-11.699-3.6133-3.8203-1.4727-7.5195-3.1992-11.102-5.1758-6.8477-3.8711-13.25-8.3711-19.215-13.5-5.9609-5.1328-11.363-10.797-16.207-16.992-9.9336-12.621-17.633-26.48-23.105-41.578-5.4062-14.531-8.793-29.52-10.164-44.961-4.0898-37.773-6.1406-75.656-6.1602-113.65 0-37.574 1.0273-75.453 3.0781-113.64 0.71484-22.785 4.1055-45.164 10.168-67.141 3.1953-11.09 7.5195-21.723 12.969-31.898 5.4531-10.172 11.91-19.66 19.375-28.465 3.7852-4.8359 8.0703-9.1797 12.859-13.027 4.7852-3.8477 9.9453-7.1055 15.48-9.7656 11.23-5.3828 22.938-9.3867 35.113-12.008 12.398-2.6797 24.926-4.4258 37.582-5.2383 12.727-0.81641 24.637-1.6367 35.734-2.4609 16.422-1.2305 32.645-1.7461 48.668-1.5391 16.016 0.21094 32.445 0.3125 49.285 0.30859 8.5078-0.09375 16.957 0.58594 25.344 2.0352 8.3867 1.4492 16.574 3.6445 24.559 6.5859 7.3164 2.7031 14.293 6.1016 20.93 10.195 6.6367 4.0977 12.805 8.8086 18.5 14.133 5.6602 5.4062 10.723 11.324 15.18 17.754 4.4609 6.4297 8.2305 13.242 11.309 20.438 3.3711 7.8633 6.043 15.957 8.0078 24.285 1.9648 8.3242 3.1992 16.758 3.6992 25.297 3.2812 46.41 5.5391 91.273 6.7773 134.59 1.2305 43.328 0.20312 87.984-3.082 133.97-0.73438 13.66-2.375 27.211-4.9258 40.656-2.5273 12.941-6.8438 25.258-12.938 36.953zm-141.7-275.33c-1.6445-14.371-6.4688-24.227-14.477-29.566-1.8633-1.2969-3.8398-2.3906-5.9258-3.2812-2.0898-0.89453-4.2461-1.5625-6.4727-2.0156-2.2227-0.44922-4.4727-0.66797-6.7422-0.66016-2.2695 0.011719-4.5156 0.25-6.7383 0.71875-2.418 0.53516-4.7812 1.2617-7.082 2.1836-2.3047 0.92188-4.5156 2.0234-6.6367 3.3047-2.1211 1.2852-4.125 2.7305-6.0078 4.3438-1.8828 1.6094-3.625 3.3633-5.2227 5.2617-1.8555 2.0977-3.4961 4.3555-4.9258 6.7656-1.4258 2.4102-2.6172 4.9336-3.5664 7.5703-0.94922 2.6367-1.6406 5.3398-2.0781 8.1094-0.43359 2.7656-0.60938 5.5508-0.51563 8.3516 0.40234 18.891 0.60938 37.676 0.61328 56.359 0 18.691 0.20703 37.891 0.61719 57.594 0 20.121 4.0039 34.598 12.016 43.426 8.0078 8.832 16.734 13.043 26.18 12.625 9.4453-0.40234 18.172-5.0234 26.184-13.859 8.0078-8.8242 12.012-21.039 12.016-36.648 0.40234-20.941 0.50391-42.707 0.30859-65.293-0.21484-22.578-0.72656-44.34-1.543-65.289z" fill="#ff1761"/>
  <path d="m1258 701.57h65.305c9.4414 0 16.117 1.9531 20.02 5.8555 3.9023 3.9062 6.2617 10.578 7.0859 20.02 0.81641 4.4766 1.2266 8.9961 1.2305 13.547v69.91c0 18.695-0.41016 37.688-1.2305 56.98 0 9.4492-1.8477 15.918-5.543 19.402-3.6992 3.4961-10.27 5.2383-19.715 5.2344h-150.63c-49.898 0-100.31-0.41016-151.24-1.2305-1.7734-0.03125-3.5195 0.17188-5.2383 0.61719-1.7188 0.44141-3.4648 0.64453-5.2383 0.61328-8.2188-0.81641-14.07-2.8711-17.555-6.1602-3.4961-3.2812-5.4453-9.0273-5.8555-17.246-0.82812-23.406-1.6484-46.504-2.4648-69.297-0.82812-22.789-1.2383-45.887-1.2305-69.293-0.82813-37.777-0.82813-75.352 0-112.72 0.81641-37.363 1.2305-75.141 1.2305-113.34 0-17.652-0.41016-35.309-1.2305-52.973-0.82813-17.652-1.6484-35.309-2.4609-52.973-0.41406-12.32 1.5352-20.738 5.8477-25.254 4.3164-4.5156 12.426-6.5664 24.34-6.1602 25.871 0 51.953 0.10156 78.238 0.30859 26.277 0.21094 52.562 0.31641 78.859 0.30859 11.906 0.41406 20.02 2.7734 24.332 7.082 4.3164 4.3125 6.4727 12.625 6.4688 24.945-0.41406 34.91-0.82422 69.508-1.2305 103.79-0.41406 34.289-0.82422 68.477-1.2305 102.55-0.82812 15.613-1.0352 31.422-0.61719 47.43 0.40234 16.016 0.60938 32.031 0.61719 48.043z" fill="#ff1761"/>
  <path d="m1583.9 835.85c0 5.3398-0.20703 10.781-0.61719 16.324-0.41406 5.543-1.0312 10.781-1.8477 15.707-2.0586 8.2188-5.3438 14.07-9.8555 17.555-4.5273 3.4961-10.895 5.2422-19.102 5.2344h-132.45c-14.383 0-23.934-2.4609-28.648-7.3906-4.7266-4.9297-7.293-14.988-7.7031-30.184-0.82812-70.621-0.92969-139.51-0.30859-206.65 0.61719-67.141-0.30469-134.38-2.7695-201.73-0.41406-8.2109-0.72266-16.219-0.92188-24.023-0.21484-7.7969-0.31641-15.805-0.30859-24.023 0.40234-10.676 2.5586-17.758 6.4688-21.25 3.8945-3.4844 11.188-5.2305 21.867-5.2383 25.879 0 50.418-0.10156 73.621-0.30859 23.199-0.19922 47.535-0.30078 73.004-0.30469 11.496 0 18.992 1.7422 22.488 5.2344 3.4844 3.4922 5.2305 10.781 5.2383 21.867-0.82812 75.145-0.51953 149.06 0.92188 221.75 1.4336 72.684 1.7422 145.16 0.92578 217.43z" fill="#ff1761"/>
  <g clip-path="url(#a)">
   <path d="m379.05 866.18h-60.07c-10.484 0-17.719-2.7266-22.125-8.3242-3.8398-4.8789-5.6328-11.84-5.6328-21.895 0-20.191 0.10547-39.609 0.30859-57.711 0.20312-18.594 0.51172-37.555 0.92188-56.355v-12.168h-36.66c-0.69922 18.496-1.3945 36.184-2.0859 53.059-0.83594 20.109-2.3047 40.324-4.3594 60.094-1.5039 15.078-5.7227 25.625-12.887 32.211-7.2344 6.6367-18.527 9.8555-34.531 9.8555-20.672 0-41.848-0.10156-62.941-0.30469-20.895-0.21094-42.277-0.52344-63.555-0.92578l-0.48047-0.023438c-18.031-1.168-29.02-12.852-30.141-32.047-0.42188-8.3477-0.63672-16.504-0.63672-24.324v-23.715c0.40234-50.352 0.71484-101.11 0.92578-150.95 0.19922-50.238 0.71875-101.27 1.543-151.66-0.003906-16.867-0.3125-34.043-0.92188-50.883-0.61719-17.082-0.92969-34.305-0.92969-51.195-0.082031-9.9297 0.78906-19.773 2.6211-29.535 1.6992-11.055 5.5664-18.672 11.824-23.273 5.7852-4.2617 13.719-6.3398 24.254-6.3633 14.57-0.40625 28.816-0.61328 42.352-0.61328l85.152 0.007813c12.594 0.53125 21.562 3.4844 27.422 9.0273 6.0195 5.707 9.207 14.707 9.7461 27.52 1.2305 31.984 1.75 64.469 1.5469 96.598-0.1875 28.59 0.72266 58.969 2.7148 90.441h39.191c0.75-23.602 0.41797-47.152-0.99219-70.156-1.6445-26.723-2.6875-53.945-3.0938-80.914-0.83594-13.895-0.83203-27.785 0.011719-41.676 1.1016-21.535 13.461-33.926 33.906-33.926 21.117-0.41016 42.289-0.71875 62.734-0.92578 21.004-0.19531 42.938 0.11328 65.18 0.92969l0.42578 0.027343c13.48 1.0469 23.055 4.7188 29.273 11.227 6.3242 6.6289 9.2734 16.672 8.7539 29.844-0.80859 14.871-0.91016 30.191-0.30859 45.684 0.62109 15.875 0.93359 31.867 0.93359 47.531 0 6.1367-0.10547 12.27-0.3125 18.23-0.20703 5.4727-0.30469 11.391-0.30469 18.109 0.40234 43.434 0.8125 86.723 1.2344 129.86l1.2305 130.59c0 11.445-0.21094 22.977-0.62109 34.363-0.41797 11.254-1.4688 22.449-3.1562 33.586-0.62891 7.2812-1.8594 14.457-3.6953 21.527-0.76172 3.0273-1.8672 5.9219-3.3203 8.6836-1.4531 2.7617-3.207 5.3125-5.2695 7.6562-2.1172 2.2422-4.5195 4.125-7.2031 5.6484-2.6836 1.5195-5.5352 2.6094-8.5508 3.2695-5.957 1.3047-11.984 2.1094-18.078 2.418-20.688 1.2383-41.316 1.8672-61.344 1.8672zm-65.805-21.676c1.875 0.52344 3.7891 0.74219 5.7344 0.65625h60.07c19.609 0 39.816-0.61328 60.055-1.8281 4.8984-0.23438 9.7422-0.86328 14.535-1.8906 2.0195-0.39062 3.7539-1.3164 5.1953-2.7812 1.832-2.2812 3.0781-4.8438 3.7383-7.6914 1.5156-5.9961 2.5352-12.074 3.0508-18.234l0.070312-0.53906c1.5859-10.426 2.5742-20.906 2.9648-31.445 0.40234-11.125 0.60938-22.395 0.60938-33.488l-1.2344-130.49c-0.41406-43.113-0.82422-86.434-1.2305-129.96 0-7.0742 0.10156-13.25 0.31641-18.965 0.19922-5.6914 0.30078-11.578 0.30078-17.473 0-15.391-0.30859-31.109-0.91797-46.715-0.62891-16.145-0.52344-32.121 0.31641-47.484 0.36719-9.375-1.6992-13.023-2.9648-14.348-1.3633-1.4258-5.1914-3.9375-15.488-4.7695-21.836-0.80078-43.348-1.1055-63.98-0.90625-20.371 0.20312-41.48 0.51172-62.734 0.91797-8.1133 0.003906-12.512 2.2422-13.117 14.051-0.80469 13.148-0.80859 26.293-0.011718 39.438l0.023437 0.52344c0.39844 26.73 1.4258 53.715 3.0586 80.203 1.6602 27.465 1.8711 54.938 0.62891 82.422l-0.45312 10.039h-78.996l-0.68359-9.7773c-2.4727-35.492-3.6211-69.746-3.4102-101.82 0.19922-31.812-0.31641-63.984-1.5312-95.613-0.42188-9.9883-2.7383-12.672-3.1953-13.105-0.69531-0.65625-3.7344-2.8359-13.641-3.2812h-84.48c-13.379 0-27.48 0.20703-41.902 0.61328l-0.29688 0.003907c-8 0-11.02 1.5859-11.945 2.2656-0.23828 0.17969-2.3711 1.9453-3.5391 9.7266l-0.089844 0.50391c-1.5898 8.4805-2.3438 17.031-2.2578 25.656 0 16.641 0.30859 33.609 0.91797 50.438 0.61719 17.09 0.92969 34.523 0.92969 51.812-0.82031 50.477-1.3359 101.41-1.5391 151.57-0.21094 49.871-0.51953 100.66-0.92188 150.95v23.633c0 7.4688 0.20312 15.27 0.60156 23.184 0.5625 9.6055 4.0508 11.75 10.289 12.199 21.133 0.40234 42.363 0.71094 63.109 0.91797 21.02 0.20703 42.125 0.30859 62.73 0.30859 14.082 0 18.895-3.0195 20.312-4.3164 1.7656-1.625 4.9336-6.2461 6.1914-18.863 2.0156-19.383 3.4531-39.164 4.2695-58.836 0.82031-19.895 1.6406-40.922 2.4648-63.09l0.375-10.117h77.93v33.531c-0.41016 18.762-0.72266 37.688-0.92188 56.242-0.20703 18.031-0.30859 37.367-0.30859 57.48-0.14844 2.9062 0.18359 5.7539 1.0039 8.543z" fill="#fff"/>
  </g>
  <path d="m743.05 864.53c-9.2383 0-18.473-0.17188-27.707-0.51562-27.223-1.0156-54.969-1.1211-82.469-0.30469-4.5664 0.18359-9.1211 0.054688-13.672-0.38281-4.5469-0.4375-9.0469-1.1836-13.492-2.2344-4.4492-1.0547-8.8047-2.4023-13.066-4.0469-4.2656-1.6484-8.3945-3.5742-12.395-5.7852-7.4375-4.2109-14.398-9.1055-20.875-14.68-6.4805-5.5781-12.355-11.727-17.625-18.457-10.613-13.504-18.852-28.328-24.719-44.469-5.7031-15.375-9.2852-31.23-10.75-47.562-4.1133-38.105-6.1836-76.324-6.2109-114.65 0-37.703 1.0391-76.129 3.0938-114.21 0.76563-23.547 4.2812-46.68 10.539-69.398 3.3984-11.777 7.9844-23.07 13.766-33.879 5.7773-10.812 12.621-20.898 20.527-30.266 4.2812-5.4375 9.1172-10.32 14.512-14.652 5.3945-4.332 11.211-7.9961 17.441-11 11.98-5.7383 24.465-10.008 37.445-12.809 12.91-2.7852 25.953-4.6055 39.129-5.457 13.242-0.84766 24.898-1.6523 35.633-2.457 16.602-1.2422 33.293-1.7695 49.586-1.5664 15.504 0.20703 31.582 0.30859 49.152 0.30859 9.1445-0.085937 18.223 0.65234 27.23 2.2148 9.0117 1.5664 17.809 3.9258 26.391 7.0859 7.9609 2.9531 15.559 6.6602 22.781 11.125 7.2266 4.4648 13.941 9.5977 20.145 15.395 6.168 5.8945 11.688 12.34 16.551 19.348 4.8672 7.0039 8.9844 14.426 12.352 22.262 3.6094 8.4219 6.4688 17.086 8.5781 26 2.1094 8.9141 3.4375 17.945 3.9844 27.09 3.2852 46.426 5.5742 91.859 6.8008 135 1.2344 43.449 0.19141 88.875-3.1055 135.02-0.76953 14.078-2.4648 28.047-5.0898 41.898-2.7305 13.934-7.3711 27.195-13.926 39.793l-0.15625 0.28906c-12.996 23.293-29.988 39.723-50.5 48.832-10.215 4.4492-20.75 7.9375-31.598 10.465-10.852 2.5312-21.84 4.0586-32.969 4.5859-18.25 1.3789-36.77 2.0703-55.312 2.0703zm-73.453-22.379c15.578 0 31.133 0.28516 46.531 0.86328 26.945 1 53.863 0.49609 80.75-1.5195l0.21094-0.011719c9.875-0.45312 19.625-1.7969 29.254-4.0273s18.98-5.3164 28.047-9.25c16.227-7.2031 29.883-20.566 40.602-39.723 5.5859-10.758 9.5469-22.086 11.883-33.98 2.4531-12.98 4.0352-26.066 4.7461-39.258 3.2578-45.598 4.2891-90.32 3.0742-133.07-1.2188-42.852-3.4922-87.984-6.7578-134.15-0.46484-7.9375-1.6094-15.781-3.4297-23.523-1.8242-7.7422-4.2969-15.27-7.418-22.586-2.8047-6.543-6.2305-12.742-10.285-18.594-4.0547-5.8555-8.6523-11.242-13.797-16.168-5.1953-4.8438-10.816-9.1289-16.867-12.859-6.0469-3.7266-12.402-6.8203-19.066-9.2852-7.3945-2.707-14.969-4.7305-22.73-6.0664-7.7617-1.332-15.578-1.957-23.449-1.875-17.664 0-33.832-0.10156-49.426-0.30859-15.68-0.20312-31.746 0.3125-47.742 1.5117-10.812 0.80859-22.539 1.6133-35.848 2.4688-12.133 0.78516-24.141 2.457-36.027 5.0234-11.367 2.4492-22.297 6.1875-32.785 11.207-4.8125 2.3242-9.3008 5.1602-13.461 8.5078-4.1641 3.3516-7.8945 7.1289-11.191 11.332l-0.14062 0.17188c-6.9844 8.2461-13.031 17.129-18.141 26.648-5.1094 9.5195-9.1719 19.469-12.18 29.844-5.8281 21.176-9.0898 42.738-9.7891 64.688-2.043 37.91-3.0742 75.957-3.0742 113.28 0.03125 37.617 2.0625 75.121 6.1055 112.52l0.019532 0.25391c1.3008 14.504 4.4922 28.582 9.5664 42.23 5.0977 14.039 12.262 26.934 21.488 38.684 4.4297 5.6523 9.3633 10.82 14.809 15.508 5.4414 4.6875 11.289 8.7969 17.539 12.336 6.375 3.5 13.102 6.0742 20.184 7.7266 7.0859 1.6484 14.258 2.3164 21.523 1.9961 12.383-0.36328 24.836-0.54687 37.273-0.54687zm54.68-132.4c-11.977 0-22.957-5.4102-32.652-16.102-9.9023-10.91-14.723-27.391-14.742-50.375-0.40625-19.461-0.61328-38.875-0.61328-57.703 0-18.234-0.20703-37.121-0.61328-56.137l-0.003906-0.22656c-0.09375-3.4414 0.13672-6.8633 0.6875-10.266 0.55469-3.4023 1.4219-6.7188 2.6016-9.957 1.1797-3.2383 2.6484-6.3359 4.4141-9.2969 1.7656-2.957 3.793-5.7266 6.0781-8.3047 1.9727-2.3125 4.1211-4.4531 6.4453-6.418 2.3203-1.9648 4.7891-3.7305 7.3984-5.2891 2.6094-1.5625 5.332-2.9023 8.1602-4.0195s5.7305-2 8.7031-2.6445c2.8984-0.60938 5.8281-0.91797 8.7852-0.93359 2.9609-0.011719 5.8945 0.27344 8.7969 0.85938s5.7148 1.457 8.4414 2.6133c2.7227 1.1562 5.3047 2.5781 7.7383 4.2617 10.668 7.1055 17.09 19.594 19.098 37.117l0.058594 0.78516c0.81641 20.801 1.3359 42.875 1.5469 65.602 0.19922 22.508 0.097656 44.578-0.30859 65.594 0 18.02-4.957 32.727-14.738 43.504-9.9258 10.949-21.203 16.77-33.52 17.297-0.58594 0.027343-1.1758 0.039062-1.7617 0.039062zm-27.605-180.65c0.41016 19.121 0.61719 38.121 0.61719 56.469 0 18.715 0.20703 38.02 0.61328 57.371l0.003906 0.21875c0 17.34 3.125 29.574 9.2891 36.367 5.8516 6.457 11.691 9.4453 17.938 9.1875 6.5898-0.28125 12.754-3.6914 18.852-10.418 6.2539-6.8906 9.293-16.57 9.293-29.59 0.40625-21.023 0.50781-42.891 0.30859-65.199-0.21094-22.367-0.71875-44.09-1.5156-64.566-1.3008-10.887-4.6055-18.164-9.8242-21.641-1.2852-0.91797-2.6562-1.6914-4.1055-2.3203-1.4492-0.63281-2.9492-1.1055-4.4961-1.4219-1.5508-0.31641-3.1133-0.46875-4.6953-0.45703-1.582 0.011719-3.1445 0.18359-4.6875 0.52344-3.7656 0.85156-7.293 2.293-10.582 4.3164-3.2891 2.0234-6.1602 4.5234-8.6211 7.5039-1.418 1.6133-2.668 3.3477-3.7578 5.2031-1.0859 1.8555-1.9883 3.793-2.707 5.8203-0.71875 2.0234-1.2383 4.1016-1.5625 6.2266-0.32031 2.1211-0.44141 4.2578-0.35938 6.4062z" fill="#fff"/>
  <path d="m1293.6 863.1h-150.63c-49.602 0-100.54-0.41797-151.41-1.2344-0.75391-0.019531-1.4961 0.054688-2.2305 0.22656-2.6445 0.70703-5.3398 1.043-8.0781 1.0078l-1.0391-0.054687c-10.703-1.0625-18.469-4-23.734-8.9766-5.5859-5.2461-8.582-13.223-9.1367-24.367-0.83203-23.551-1.6523-46.645-2.4688-69.438-0.81641-22.602-1.2344-46.004-1.2383-69.559-0.82422-37.715-0.82031-75.758 0.003906-113.07 0.81641-37.297 1.2305-75.348 1.2305-113.1 0-17.324-0.41016-34.984-1.2227-52.488-0.6875-14.684-1.3711-29.375-2.0508-44.078l-0.41406-8.8945c-0.51953-15.527 2.3438-26.273 8.7461-32.992 6.5195-6.8203 17.039-9.9023 32.117-9.418 25.188 0 51.48 0.10547 78.148 0.30859 25.125 0.20703 51.629 0.30859 78.777 0.30859l0.36328 0.003906c14.82 0.51562 25.094 3.8438 31.406 10.164 6.418 6.4062 9.543 17 9.543 32.371l-1.2305 103.91c-0.41406 34.293-0.82422 68.48-1.2344 102.56l-0.011718 0.42969c-0.80859 15.234-1.0117 30.914-0.60547 46.598 0.32031 12.688 0.51562 25.363 0.58984 37.812h113.96c12.453 0 21.426 2.918 27.445 8.9219 5.6836 5.6953 8.9805 14.219 10.086 26.059 0.87109 4.9453 1.3086 9.9258 1.3164 14.949v69.91c0 18.582-0.41406 37.828-1.2305 57.207-0.035156 12.469-2.9297 21.242-8.8438 26.816-5.7656 5.4492-14.574 8.1016-26.926 8.1016zm-301.88-22.25c50.926 0.81641 101.75 1.2305 151.24 1.2305h150.63c9.7148 0 12.238-2.1211 12.496-2.3633 0.10156-0.09375 2.2539-2.2344 2.2539-11.766l0.007812-0.44531c0.8125-19.156 1.2227-38.176 1.2227-56.531v-69.91c-0.007813-3.9258-0.35938-7.8203-1.0625-11.684l-0.12891-0.94531c-0.82422-9.3594-3.1094-12.574-4.0547-13.52-0.64062-0.63672-3.4805-2.7656-12.582-2.7656h-134.96v-10.508c0-15.609-0.20312-31.688-0.60938-47.781-0.42188-16.156-0.21484-32.316 0.61328-48.035 0.40234-34.008 0.8125-68.125 1.2305-102.34l1.2305-103.79c0-13.324-2.8203-16.82-3.3867-17.387-0.83594-0.83203-4.4922-3.5469-17.094-4.0117-27.141 0-53.637-0.10547-78.758-0.30859-26.668-0.20312-52.965-0.30469-78.152-0.30469l-0.35547-0.007813c-12.496-0.39062-15.848 2.3594-16.383 2.918-0.56641 0.59375-3.3945 4.2617-2.9453 17.645l0.40625 8.7578c0.67969 14.695 1.3633 29.387 2.0508 44.074 0.82422 17.832 1.2422 35.816 1.2422 53.465 0 37.906-0.41406 76.113-1.2344 113.56-0.82031 37.047-0.82031 74.816 0 112.26l0.003906 0.23047c0 23.34 0.41016 46.527 1.2227 68.914 0.82031 22.797 1.6406 45.898 2.4648 69.305 0.38281 7.7109 2.3242 9.7539 2.5469 9.957 0.62109 0.58984 3.1484 2.4688 10.844 3.3086 0.64844 0 1.2891-0.074219 1.9219-0.22266 2.6445-0.70312 5.332-1.0352 8.0703-1.0039z" fill="#fff"/>
  <path d="m1520.9 861.25h-132.45c-17.539 0-29.395-3.4805-36.242-10.637-6.7539-7.043-10.129-18.855-10.613-37.168-0.82812-70.23-0.92969-139.83-0.3125-207.03 0.60938-66.66-0.32031-134.37-2.7656-201.25-0.41016-8.1094-0.72266-16.277-0.92578-24.133-0.20703-7.6133-0.3125-15.793-0.3125-24.293l0.007812-0.39844c0.52344-13.781 3.7852-23.168 9.9727-28.691 5.9414-5.3164 15.387-7.9102 28.867-7.9102 26.766 0 50.816-0.097657 73.527-0.30469 23.598-0.20312 48.188-0.30859 73.098-0.30859 14.73 0 24.234 2.6367 29.914 8.3086 5.6836 5.6914 8.3203 14.996 8.3203 29.305-0.82031 74.801-0.51172 149.3 0.92188 221.53 1.4297 72.441 1.7383 145.68 0.92578 217.71 0 5.4648-0.21484 11.191-0.64453 17.027-0.4375 5.8477-1.0938 11.445-1.9609 16.66l-0.17187 0.83594c-2.6367 10.527-7.2227 18.375-13.629 23.32-6.3789 4.9258-14.969 7.4258-25.523 7.4258zm-162.61-504.3c0.003906 8.2383 0.10547 16.156 0.30469 23.531 0.20313 7.6992 0.50781 15.695 0.91406 23.781 2.4648 67.336 3.3984 135.37 2.7852 202.35-0.61719 67.051-0.51172 136.5 0.30859 206.43 0.46875 17.66 4.0625 22.289 4.7773 23.035 0.67188 0.69922 4.8008 4.1523 21.062 4.1523h132.45c5.7148 0 10.098-1.0508 12.676-3.043 2.4844-1.9141 4.5469-5.8477 5.9844-11.391 0.72656-4.4766 1.2891-9.2969 1.6641-14.34 0.39063-5.3281 0.58594-10.559 0.58594-15.535v-0.11719c0.8125-71.828 0.50391-144.88-0.92188-217.11-1.4375-72.449-1.75-147.16-0.92578-222.07 0-11.422-2.125-14.266-2.2031-14.367-0.035157 0-3.0703-2.1133-15.012-2.1133-24.848 0-49.379 0.10156-72.91 0.30859-22.77 0.20703-46.887 0.30859-73.715 0.30859-11.863 0-14.738 2.4531-14.855 2.5586-0.035156 0.03125-2.5195 2.3711-2.9727 13.625z" fill="#fff"/>
  <path d="m123.63 352.34c-9.2539-2.3789-19.285-4.7305-28.586-1.2344-0.95703 0.36719-1.8828 0.79688-2.7852 1.2852-0.89844 0.49219-1.7617 1.0352-2.5898 1.6406-0.82812 0.60156-1.6133 1.2539-2.3555 1.9609-0.74219 0.70312-1.4375 1.4531-2.082 2.25s-1.2305 1.6289-1.7656 2.5039c-0.53516 0.87109-1.0117 1.7773-1.4297 2.7109-0.41406 0.9375-0.76953 1.8945-1.0586 2.8789-0.29297 0.98047-0.51953 1.9766-0.67969 2.9883-1.7852 9.0977-0.82422 18.672-0.58594 27.871l0.85156 33.023c0.10547 4.0469 6.4102 4.0625 6.3047 0l-0.74609-28.895c-0.5625-8.8164-0.65234-17.641-0.26172-26.465 0.60547-7.3125 3.3047-14.473 10.496-17.52 8.2148-3.4805 17.379-1.0312 25.598 1.0781 3.9336 1.0117 5.6133-5.0703 1.6758-6.0781z" fill="#fff"/>
  <path d="m445.07 747.05c2.7773 17.086 5.6367 35.004 0.38281 51.91-0.50391 1.7695-1.1211 3.4961-1.8477 5.1836-0.73047 1.6836-1.5664 3.3164-2.5078 4.8945-0.94141 1.5781-1.9844 3.0859-3.125 4.5273s-2.3672 2.8008-3.6875 4.082c-1.3164 1.2812-2.7148 2.4688-4.1875 3.5664s-3.0117 2.0938-4.6172 2.9922c-1.6055 0.89453-3.2617 1.6836-4.9688 2.3594-1.707 0.67969-3.4531 1.2461-5.2344 1.6953-8.2344 2.0195-16.535 2.3633-24.91 1.0391-3.9688-0.58984-5.6836 5.4844-1.6758 6.0781 16.148 2.3984 33.621 0.32422 46.766-10.078 13.578-10.746 18.867-28.582 19.215-45.293-0.12109-11.652-1.293-23.195-3.5195-34.633-0.64844-3.9961-6.7266-2.3008-6.082 1.6758z" fill="#fff"/>
  <path d="m649.44 360.77c-22.402-1.8906-46.23-2.3164-66.41 9.1094-2.2227 1.2578-4.3711 2.6328-6.4453 4.125-2.0742 1.4883-4.0625 3.0859-5.9648 4.7891-1.9023 1.7031-3.707 3.5039-5.418 5.4023-1.707 1.8984-3.3125 3.8828-4.8086 5.9531-1.4961 2.0703-2.875 4.2148-4.1406 6.4336s-2.4102 4.4961-3.4297 6.8359c-1.0195 2.3438-1.9102 4.7305-2.6758 7.168s-1.3945 4.9102-1.8945 7.4141c-1.1992 6.2539-1.5703 12.559-1.1055 18.91 0.46484 6.3555 1.7461 12.539 3.8438 18.551 1.3398 3.8047 7.4336 2.168 6.082-1.6758-0.85547-2.4023-1.5664-4.8438-2.1367-7.332-0.57031-2.4844-0.99219-4.9922-1.2695-7.5273-0.27344-2.5352-0.40234-5.0781-0.38281-7.6289 0.023438-2.5469 0.19141-5.0898 0.50781-7.6172 0.31641-2.5312 0.78125-5.0352 1.3906-7.5078 0.60937-2.4766 1.3594-4.9102 2.2539-7.2969 0.89453-2.3906 1.9258-4.7148 3.0898-6.9844 1.1641-2.2695 2.457-4.4609 3.8789-6.5781 11.172-16.375 28.961-25.957 48.418-28.43 12.215-1.2227 24.418-1.1602 36.617 0.19141 4.0469 0.33984 4.0234-5.9648 0-6.3047z" fill="#fff"/>
  <path d="m875.38 717.4c1.043 4.6719 1.668 9.3945 1.875 14.176 0.21094 4.7812 0 9.543-0.62891 14.289-0.62891 4.7422-1.668 9.3984-3.1133 13.957-1.4492 4.5625-3.2852 8.9609-5.5078 13.199-2.2266 4.1914-4.8125 8.1523-7.7461 11.883-2.9375 3.7266-6.1797 7.168-9.7305 10.32-3.5508 3.1484-7.3555 5.9609-11.406 8.4336-4.0547 2.4688-8.293 4.5625-12.719 6.2773-9.9688 3.8945-20.301 5.75-30.996 5.5703-4.0625-0.074218-4.0625 6.2305 0 6.3047 5.0898 0.0625 10.152-0.30859 15.18-1.1211 5.0273-0.80859 9.9453-2.0469 14.762-3.707 4.8125-1.6602 9.4492-3.7188 13.906-6.1797 4.457-2.4648 8.6719-5.2891 12.641-8.4766 3.9609-3.2148 7.6016-6.7539 10.926-10.621 3.3242-3.8672 6.2812-7.9961 8.8672-12.391 2.5859-4.3945 4.7656-8.9805 6.5312-13.766 1.7656-4.7812 3.0938-9.6836 3.9844-14.703 1.0586-5.8203 1.5273-11.684 1.4023-17.598-0.12891-5.9141-0.83984-11.754-2.1445-17.523-0.90234-3.957-6.9805-2.2812-6.082 1.6758z" fill="#fff"/>
  <path d="m1025.1 348.62c-8.082-3.8633-16.809-7.9609-26.012-6.8438-7.4102 0.90234-14.383 4.9648-17.141 12.164-1.3125 4.1719-1.793 8.4336-1.4453 12.793 0.10547 5.25 0.23438 10.5 0.35156 15.754l0.70312 31.512c0.09375 4.0508 6.3984 4.0664 6.3086 0l-0.60938-27.309c-0.19141-8.5312-1.0156-17.316-0.38281-25.832 0.042969-0.80469 0.15234-1.6055 0.33594-2.3906 0.1875-0.78906 0.4375-1.5547 0.76172-2.2969 0.32031-0.74219 0.70312-1.4492 1.1523-2.125 0.44922-0.67188 0.95313-1.3008 1.5156-1.8828s1.1719-1.1094 1.8281-1.582c0.65625-0.47266 1.3516-0.88672 2.082-1.2344 0.72656-0.34766 1.4844-0.62891 2.2656-0.83984 0.78125-0.21484 1.5742-0.35547 2.3789-0.42578 7.9453-1.2227 15.773 2.6602 22.723 5.9844 3.6445 1.7422 6.8477-3.6914 3.1836-5.4453z" fill="#fff"/>
  <path d="m1280.5 777.93c2.332 9.2031 4.8242 18.738 3.7617 28.312-0.82031 7.3477-4.1055 15.215-10.457 19.434-7.4922 4.9727-17.543 4.9609-26.18 5.8984l-30.32 3.2891c-3.9922 0.43359-4.0352 6.7422 0 6.3047l26.211-2.8438c8.0195-0.87109 16.391-1.1914 24.223-3.2422 14.211-3.7227 22.027-16.23 22.961-30.395 0.63281-9.625-1.7734-19.18-4.1172-28.434-0.99609-3.9297-7.0781-2.2656-6.082 1.6758z" fill="#fff"/>
  <path d="m1420.8 348.97c-0.40625-0.34375-0.82031-0.67188-1.2461-0.98438-0.42578-0.31641-0.86328-0.61719-1.3086-0.90625-0.44531-0.28906-0.89844-0.5625-1.3594-0.82031-0.46484-0.25781-0.93359-0.5-1.4141-0.73047-0.47656-0.23047-0.96094-0.44141-1.4531-0.64062-0.49219-0.19922-0.99219-0.37891-1.4961-0.54688-0.5-0.16797-1.0078-0.31641-1.5234-0.44922-0.51172-0.13672-1.0273-0.25391-1.5508-0.35547-0.51953-0.10156-1.043-0.18359-1.5664-0.25391-0.52734-0.066406-1.0547-0.11719-1.5859-0.15234-0.52734-0.035156-1.0586-0.050781-1.5859-0.050781-0.53125-0.003906-1.0625 0.015625-1.5898 0.046875-0.53125 0.035156-1.0586 0.082032-1.582 0.14844-0.52734 0.066406-1.0508 0.15234-1.5703 0.25-0.52344 0.10156-1.0391 0.21484-1.5508 0.34766-0.51562 0.13281-1.0234 0.28516-1.5273 0.44922-0.50391 0.16406-1 0.34375-1.4922 0.54297-0.49609 0.19531-0.98047 0.40625-1.457 0.63672-0.48047 0.22656-0.95312 0.46875-1.4141 0.72656-0.46484 0.25781-0.91797 0.53125-1.3672 0.81641-0.44531 0.28516-0.87891 0.58594-1.3086 0.90234-0.42578 0.3125-0.84375 0.64062-1.25 0.98047-0.40625 0.33984-0.80078 0.69531-1.1836 1.0586-0.38281 0.36719-0.75391 0.74609-1.1133 1.1367-0.36328 0.38672-0.70703 0.78906-1.043 1.1992-0.33203 0.41406-0.65625 0.83203-0.96094 1.2656-0.30859 0.43359-0.60156 0.875-0.88281 1.3242-0.27734 0.44922-0.54297 0.91016-0.79297 1.3789-0.25 0.46484-0.48438 0.94141-0.70312 1.4219-0.21875 0.48438-0.42578 0.97266-0.61328 1.4688s-0.36328 0.99609-0.51953 1.5c-0.15625 0.50781-0.29688 1.0195-0.42188 1.5352-2.5117 9.5547-1.3477 20.191-1.293 29.965l0.18359 32.523c0.015625 0.41016 0.10547 0.80078 0.26953 1.1758 0.16797 0.37109 0.39844 0.69922 0.69141 0.98438 0.29297 0.28516 0.63281 0.50391 1.0117 0.65625 0.37891 0.15234 0.77344 0.23047 1.1797 0.23047 0.41016 0 0.80469-0.078125 1.1836-0.23047 0.37891-0.15234 0.71484-0.37109 1.0117-0.65625 0.29297-0.28516 0.52344-0.61328 0.6875-0.98438 0.16797-0.375 0.25781-0.76562 0.27344-1.1758l-0.16016-27.875c-0.046875-8.793-0.53125-17.715 0.050782-26.496 0.51172-7.707 3.3789-14.852 10.418-18.723 0.80078-0.42578 1.6289-0.78906 2.4805-1.0977 0.85547-0.30469 1.7266-0.54688 2.6172-0.72656 0.88672-0.17969 1.7852-0.29687 2.6914-0.34766 0.90625-0.050781 1.8086-0.035156 2.7148 0.046875 0.90234 0.078125 1.7969 0.22266 2.6797 0.43359 0.88281 0.20703 1.7461 0.48047 2.5898 0.8125 0.83984 0.33594 1.6562 0.72656 2.4453 1.1797 0.78516 0.44922 1.5352 0.95703 2.25 1.5156 3.1484 2.4961 7.6406-1.9375 4.457-4.457z" fill="#fff"/>
  <path d="m1526.3 773.69c0.57812 1.8867 1.0234 3.8047 1.332 5.7539 0.30859 1.9492 0.48047 3.9102 0.51562 5.8828s-0.066406 3.9414-0.30859 5.8984c-0.23828 1.9609-0.61328 3.8906-1.125 5.7969-0.51172 1.9062-1.1523 3.7695-1.9258 5.5859s-1.668 3.5703-2.6836 5.2617c-1.0195 1.6914-2.1484 3.3047-3.3945 4.8359-1.2422 1.5312-2.5859 2.9727-4.0312 4.3164s-2.9766 2.582-4.5938 3.7109c-1.6211 1.1328-3.3086 2.1445-5.0703 3.0352-1.7578 0.89453-3.5703 1.6641-5.4414 2.3008-1.8672 0.64063-3.7695 1.1484-5.707 1.5195-1.9375 0.375-3.8945 0.60938-5.8633 0.71094-1.9727 0.097657-3.9414 0.058594-5.9102-0.11719-1.9648-0.17578-3.9102-0.48828-5.832-0.9375-1.9219-0.44531-3.8047-1.0273-5.6445-1.7383-3.8125-1.4062-5.457 4.6875-1.6758 6.0781 3.3359 1.1914 6.7617 2.0117 10.277 2.4727 3.5117 0.45703 7.0352 0.54297 10.566 0.25 3.5312-0.28906 6.9922-0.94922 10.387-1.9766 3.3906-1.0312 6.6328-2.4023 9.7305-4.1211 3.0156-1.7148 5.8086-3.7344 8.3867-6.0508 2.5742-2.3203 4.875-4.8867 6.8984-7.6992 2.0195-2.8164 3.7188-5.8125 5.0938-8.9961 1.375-3.1797 2.3945-6.4727 3.0586-9.875 0.79688-3.9102 1.1133-7.8594 0.95312-11.848-0.16406-3.9844-0.80078-7.8945-1.9102-11.73-1.1445-3.8828-7.2305-2.2305-6.082 1.6797z" fill="#fff"/>
 </g>
</svg>
