<?xml version="1.0" encoding="UTF-8"?>
<svg width="2245" height="1587" version="1.2" viewBox="0 0 1683.8 1190.3" xmlns="http://www.w3.org/2000/svg" zoomAndPan="magnify">
 <g id="a">
  <path d="m1061.6 1116.7c1.2344 3.9805 5.7188 11.395 5.7188 11.395s30.113 47.773 103.43 54.5c73.32 6.7266 86.086-46.949 62.746-82.918 41.875-17.984 36.473-64.016 10.844-83.785 41.559-39.902 32.77-68.273-8.2383-86.945-41.004-18.668-66.039-9.6562-66.039-9.6562s-15.242-38.664-35.746-27.684c-20.504 10.984-64.805 20.867-70.664 72.852-5.8555 51.98-5.125 39.535-9.5195 72.48-4.3906 32.949-2.5586 41.004-2.5586 42.469" fill="#ed0360"/>
  <path d="m947.57 924.89c0.36719 2.5625 41.738 149.36 119.73 203.18-5.4922-39.172 17.57-51.984 17.57-51.984s-32.219-67.723 27.098-83.832c-33.684-32.578-18.125-82.188 59.492-72.117 0-48.875 2.2695-204.66 2.2695-204.66s-85.379 6.2422-140.3 53.465c-54.922 47.223-80.184 79.07-87.871 96.645" fill="#f87703"/>
  <path d="m1148.6 370.47c2.0156 3.8438 5.4023 4.3438 5.4023 4.3438s95.281-10.707 117.8 18.672c22.52 29.379 9.1523 48.734-10.984 60.996 38.812 46.309 24.348 69.918 0.18359 78.523 29.473 36.426 26.18 69.555-23.25 79.988-49.426 10.434-60.684 5.2148-60.684 5.2148l-1.6992 71.934s-42.234 28.008-54.32 4.9453c-12.078-23.062-23.062-51.621-29.105-55.461-6.043-3.8477-57.938-147.44-56.293-160.62 1.6484-13.18-24.023-9.6602-0.035156-52.715 23.984-43.055 21.453-64.797 37.93-69.188" fill="#16a8bb"/>
  <path d="m1093.3 259.92c3.5703 4.1172 10.156 2.1953 10.156 2.1953l50.527 112.7s-54.473 17.262-43.941 65.762c-47.496-8.4219-86.219-93.629-87.043-116.69-0.82422-23.059 6.8633-41.184 6.8633-41.184" fill="#803e81"/>
  <path d="m543 775.54c-3.0195 1.9219-79.906 29.105-79.082 91.156 0.82422 62.051 73.867 127.67 137.03 127.94 63.156 0.27734 97.066-51.617 93.496-81.543 45.996 26.086 137.99 45.852 236.84 29.93 98.852-15.926 249.15-143.32 244.02-253.88-41.008 2.5586-51.531-56.102-28.191-71.75-50.801-6.043-63.527-58.207-37.711-84.016-14.828-5.1289-12.859-27.465-12.859-27.465s-41.695-44.473-63.664-30.195c-21.965 14.277-30.75 13.18-30.75 17.57 0 4.3906-218.58-148.81-278.99-155.4-60.414-6.5938-34.051-81.266-85.125 4.2539-51.078 85.523-154.05 120.94-155.7 170.36-1.6445 49.418-0.82422 19.398-0.82422 62.414s-14.828-1.0703 4.9414 64.629c19.773 65.695 24.715 63.223 24.715 63.223" fill="#803e81"/>
  <path d="m723.14 369.74s46.406 161.03 84.574 187.94c38.168 26.906 56.43 39.125 50.938 80.582 32.812-21.281 54.094-7.5508 50.664 20.18 25.809 14.824 15.375 48.047 9.7461 65.344-5.6289 17.301 10.023 22.582 10.023 22.582s73.566-0.74219 55.105-107.01c61.141-24.891 82.469-86.488 71.484-138.1 20.598 6.3164 40.918 5.082 40.918 5.082s-4.9414-41.734 19.773-54.09c-7.6211-19.082-31.906-40.637-31.906-40.637s-22.098-42.051-22.832-42.781c-1.4648-2.1953-72.629-118.24-117.55-128.13-44.922-9.8828-60.191-18.121-61.617-18.121-1.4258 0-159.32 65.07-159.32 65.07" fill="#fc006e"/>
  <path d="m491.65 570.17s-4.1172 99.117 80.184 210.86c-73.59 11.531-132.36-45.578-135.65-84.562-68.648 17.844-102.15-49.922-35.426-117.9-64.531-22.676-125.77-219.26 15.926-266.11-22.332-121.54 82.93-234.84 213.64-180.48 81.285-131.79 218.58-60.953 254.28-3.2969 109.29-68.637 169.7 11.535 169.7 11.535l49.152 121.9s-73.5 34.129-17.48 151.32c-80.551-97.695-171.35-153.16-208.33-166.34-8.6016 61.32-84.574 118.06-124.48 56.926 10.25 75.781-103.98 182.31-177.21 182.31 52.84 36.473-84.301 83.832-84.301 83.832z" fill="#2b0017"/>
  <path d="m794.16 666.26c0 1.4961-0.035156 2.9883-0.10937 4.4844-0.074219 1.4922-0.18359 2.9805-0.32813 4.4688-0.14844 1.4883-0.33203 2.9727-0.55078 4.4492-0.21875 1.4805-0.47266 2.9492-0.76562 4.418-0.29297 1.4648-0.62109 2.9219-0.98438 4.375-0.36328 1.4492-0.76172 2.8867-1.1953 4.3203-0.43359 1.4297-0.90234 2.8477-1.4062 4.2539-0.50391 1.4102-1.0391 2.8047-1.6133 4.1836-0.57031 1.3828-1.1758 2.7461-1.8164 4.0977s-1.3125 2.6875-2.0156 4.0039c-0.70312 1.3203-1.4414 2.6211-2.2109 3.9023s-1.5664 2.543-2.3984 3.7852c-0.82812 1.2461-1.6914 2.4648-2.582 3.668-0.89062 1.1992-1.8086 2.3789-2.7578 3.5312-0.94922 1.1562-1.9258 2.2891-2.9297 3.3945-1.0039 1.1094-2.0312 2.1914-3.0898 3.25-1.0586 1.0547-2.1406 2.0859-3.2461 3.0898-1.1094 1.0039-2.2422 1.9805-3.3945 2.9297-1.1562 0.94531-2.3359 1.8672-3.5352 2.7578-1.2031 0.89062-2.4258 1.75-3.668 2.5781-1.2422 0.83203-2.5039 1.6328-3.7891 2.3984-1.2812 0.76953-2.582 1.5078-3.8984 2.2109-1.3203 0.70312-2.6523 1.375-4.0039 2.0156s-2.7188 1.2461-4.1016 1.8164c-1.3789 0.57422-2.7734 1.1094-4.1836 1.6133-1.4062 0.50391-2.8242 0.97266-4.2578 1.4062-1.4297 0.43359-2.8672 0.83203-4.3203 1.1953-1.4492 0.36328-2.9062 0.69141-4.375 0.98438-1.4648 0.28906-2.9375 0.54688-4.418 0.76562-1.4766 0.21875-2.9609 0.40234-4.4492 0.54688-1.4883 0.14844-2.9766 0.25781-4.4688 0.33203-1.4961 0.074219-2.9883 0.10938-4.4844 0.10938s-2.9883-0.035156-4.4805-0.10938c-1.4961-0.074219-2.9844-0.18359-4.4727-0.33203-1.4883-0.14453-2.9727-0.32812-4.4492-0.54688-1.4805-0.21875-2.9531-0.47656-4.418-0.76562-1.4648-0.29297-2.9258-0.62109-4.375-0.98438-1.4492-0.36328-2.8906-0.76172-4.3203-1.1953-1.4297-0.43359-2.8516-0.90234-4.2578-1.4062-1.4062-0.50391-2.8008-1.0391-4.1836-1.6133-1.3828-0.57031-2.7461-1.1758-4.0977-1.8164-1.3516-0.64062-2.6875-1.3086-4.0078-2.0156-1.3164-0.70312-2.6172-1.4414-3.8984-2.2109-1.2812-0.76562-2.5469-1.5664-3.7891-2.3984-1.2422-0.82812-2.4648-1.6875-3.6641-2.5781-1.2031-0.89062-2.3789-1.8125-3.5352-2.7578-1.1562-0.94922-2.2891-1.9258-3.3945-2.9297-1.1094-1.0039-2.1914-2.0352-3.25-3.0898-1.0547-1.0586-2.0859-2.1406-3.0898-3.25-1.0039-1.1055-1.9805-2.2383-2.9297-3.3945-0.94922-1.1523-1.8672-2.332-2.7578-3.5312-0.89062-1.2031-1.75-2.4219-2.582-3.668-0.83203-1.2422-1.6289-2.5039-2.3984-3.7852-0.76953-1.2812-1.5039-2.582-2.2109-3.9023-0.70312-1.3164-1.375-2.6523-2.0156-4.0039-0.63672-1.3516-1.2422-2.7148-1.8164-4.0977-0.57031-1.3789-1.1094-2.7734-1.6133-4.1836-0.50391-1.4062-0.97266-2.8242-1.4062-4.2539-0.43359-1.4336-0.83203-2.8711-1.1953-4.3203-0.36328-1.4531-0.69141-2.9102-0.98438-4.375-0.28906-1.4688-0.54688-2.9375-0.76562-4.418-0.21875-1.4766-0.40234-2.9609-0.54688-4.4492-0.14844-1.4883-0.25781-2.9766-0.33203-4.4688-0.074219-1.4961-0.10938-2.9883-0.10938-4.4844 0-1.4922 0.035156-2.9883 0.10938-4.4805s0.18359-2.9844 0.33203-4.4727c0.14453-1.4844 0.32812-2.9688 0.54688-4.4492 0.21875-1.4766 0.47656-2.9492 0.76562-4.4141 0.29297-1.4688 0.62109-2.9258 0.98438-4.375 0.36328-1.4492 0.76172-2.8906 1.1953-4.3203s0.90234-2.8516 1.4062-4.2578 1.043-2.8008 1.6133-4.1836c0.57422-1.3789 1.1797-2.7461 1.8164-4.0977 0.64062-1.3516 1.3125-2.6836 2.0156-4.0039 0.70703-1.3164 1.4414-2.6172 2.2109-3.8984 0.76953-1.2852 1.5664-2.5469 2.3984-3.7891 0.83203-1.2422 1.6914-2.4648 2.582-3.6641 0.89063-1.2031 1.8086-2.3789 2.7578-3.5352s1.9258-2.2852 2.9297-3.3945c1.0039-1.1094 2.0352-2.1914 3.0898-3.2461 1.0586-1.0586 2.1406-2.0898 3.25-3.0938 1.1055-1 2.2383-1.9766 3.3945-2.9258 1.1562-0.94922 2.332-1.8672 3.5352-2.7578 1.1992-0.89062 2.4219-1.75 3.6641-2.582 1.2422-0.83203 2.5078-1.6289 3.7891-2.3984s2.582-1.5039 3.8984-2.2109c1.3203-0.70313 2.6562-1.375 4.0078-2.0156 1.3516-0.63672 2.7148-1.2422 4.0977-1.8164 1.3828-0.57031 2.7773-1.1094 4.1836-1.6133s2.8281-0.97266 4.2578-1.4062c1.4297-0.43359 2.8711-0.83203 4.3203-1.1953 1.4492-0.36328 2.9102-0.69141 4.375-0.98047 1.4648-0.29297 2.9375-0.54688 4.418-0.76562 1.4766-0.22266 2.9609-0.40234 4.4492-0.55078 1.4883-0.14453 2.9766-0.25781 4.4727-0.32813 1.4922-0.074218 2.9844-0.11328 4.4805-0.11328s2.9883 0.039063 4.4844 0.11328c1.4922 0.070313 2.9805 0.18359 4.4688 0.32813 1.4883 0.14844 2.9727 0.32812 4.4492 0.55078 1.4805 0.21875 2.9531 0.47266 4.418 0.76562 1.4688 0.28906 2.9258 0.61719 4.375 0.98047 1.4531 0.36328 2.8906 0.76172 4.3203 1.1953 1.4336 0.43359 2.8516 0.90234 4.2578 1.4062 1.4102 0.50391 2.8047 1.043 4.1836 1.6133 1.3828 0.57422 2.75 1.1797 4.1016 1.8164 1.3516 0.64063 2.6836 1.3125 4.0039 2.0156 1.3164 0.70703 2.6172 1.4414 3.8984 2.2109 1.2852 0.76953 2.5469 1.5664 3.7891 2.3984 1.2422 0.83203 2.4648 1.6914 3.668 2.582 1.1992 0.89062 2.3789 1.8086 3.5352 2.7578 1.1523 0.94922 2.2852 1.9219 3.3945 2.9258 1.1055 1.0039 2.1875 2.0352 3.2461 3.0938 1.0586 1.0547 2.0859 2.1367 3.0898 3.2461s1.9805 2.2383 2.9297 3.3945c0.94922 1.1562 1.8672 2.332 2.7578 3.5352 0.89062 1.1992 1.7539 2.4219 2.582 3.6641 0.83203 1.2422 1.6289 2.5039 2.3984 3.7891 0.76953 1.2812 1.5078 2.582 2.2109 3.8984 0.70312 1.3203 1.375 2.6523 2.0156 4.0039 0.64062 1.3516 1.2461 2.7188 1.8164 4.0977 0.57422 1.3828 1.1094 2.7773 1.6133 4.1836 0.50391 1.4062 0.97266 2.8281 1.4062 4.2578 0.43359 1.4297 0.83203 2.8711 1.1953 4.3203 0.36328 1.4492 0.69141 2.9062 0.98438 4.375 0.29297 1.4648 0.54688 2.9375 0.76562 4.4141 0.21875 1.4805 0.40234 2.9648 0.55078 4.4492 0.14453 1.4883 0.25391 2.9805 0.32813 4.4727 0.074218 1.4922 0.10937 2.9883 0.10937 4.4805z" fill="#fbfefd"/>
  <path d="m571.74 639.36s-23.797 4.5312-17.344-29.789c6.4531-34.32 58.168-84.793 85.629-91.016 27.461-6.2227 37.48 18.992 22.012 29.789-15.559 10.895-44.004 24.918-60.48 49.488-16.477 24.574-20.332 40.051-29.816 41.527z" fill="#1c001d"/>
  <path d="m714.44 629.65s-6.043 20.227 10.801 23.434c16.84 3.1992 15.926-16.016 15.926-16.016s27.277 20.684 21.785 49.785c-5.4922 29.105-41.191 51.617-73.32 21.418-32.125-30.203-13.684-78.156 24.805-78.617z" fill="#1c001d"/>
  <path d="m1014.3 488.44c0 1.4961-0.039062 2.9883-0.10937 4.4805-0.074219 1.4961-0.18359 2.9844-0.33203 4.4727-0.14453 1.4883-0.32812 2.9688-0.54688 4.4492-0.21875 1.4805-0.47656 2.9492-0.76562 4.418-0.29297 1.4648-0.62109 2.9219-0.98438 4.3711-0.36328 1.4531-0.76172 2.8906-1.1953 4.3242-0.43359 1.4297-0.90234 2.8477-1.4062 4.2539-0.50391 1.4102-1.043 2.8008-1.6133 4.1836-0.57422 1.3789-1.1797 2.7461-1.8164 4.0977-0.64062 1.3516-1.3125 2.6875-2.0156 4.0039-0.70703 1.3203-1.4414 2.6211-2.2109 3.9023s-1.5703 2.543-2.3984 3.7852c-0.83203 1.2461-1.6914 2.4648-2.582 3.668-0.89062 1.1992-1.8125 2.3789-2.7578 3.5312-0.94922 1.1562-1.9258 2.2891-2.9297 3.3945-1.0039 1.1094-2.0352 2.1914-3.0898 3.25-1.0586 1.0547-2.1406 2.0859-3.25 3.0898-1.1055 1.0039-2.2383 1.9805-3.3945 2.9297-1.1562 0.94531-2.332 1.8672-3.5352 2.7578-1.1992 0.89062-2.4219 1.75-3.6641 2.5781-1.2422 0.83203-2.5078 1.6328-3.7891 2.3984-1.2812 0.76953-2.582 1.5078-3.9023 2.2109-1.3164 0.70312-2.6523 1.375-4.0039 2.0156-1.3516 0.64062-2.7188 1.2461-4.0977 1.8164-1.3828 0.57422-2.7773 1.1094-4.1836 1.6133s-2.8281 0.97266-4.2578 1.4062c-1.4297 0.43359-2.8711 0.83203-4.3203 1.1953-1.4492 0.36328-2.9102 0.69141-4.375 0.98438-1.4648 0.28906-2.9375 0.54688-4.418 0.76562s-2.9609 0.40234-4.4492 0.54688c-1.4883 0.14844-2.9805 0.25781-4.4727 0.33203-1.4922 0.074219-2.9883 0.10938-4.4805 0.10938-1.4961 0-2.9883-0.035157-4.4844-0.10938-1.4922-0.074218-2.9844-0.18359-4.4688-0.33203-1.4883-0.14453-2.9727-0.32812-4.4531-0.54688-1.4766-0.21875-2.9492-0.47656-4.4141-0.76562-1.4688-0.29297-2.9258-0.62109-4.375-0.98438-1.4531-0.36328-2.8906-0.76172-4.3242-1.1953-1.4297-0.43359-2.8477-0.90234-4.2539-1.4062-1.4102-0.50391-2.8047-1.0391-4.1836-1.6133-1.3828-0.57031-2.75-1.1758-4.1016-1.8164-1.3516-0.64062-2.6836-1.3125-4.0039-2.0156-1.3164-0.70312-2.6172-1.4414-3.9023-2.2109-1.2812-0.76562-2.543-1.5664-3.7852-2.3984-1.2461-0.82812-2.4648-1.6875-3.668-2.5781-1.1992-0.89062-2.3789-1.8125-3.5352-2.7578-1.1523-0.94922-2.2852-1.9258-3.3945-2.9297-1.1055-1.0039-2.1875-2.0352-3.2461-3.0898-1.0586-1.0586-2.0859-2.1406-3.0898-3.25-1.0078-1.1055-1.9805-2.2383-2.9297-3.3945-0.94922-1.1523-1.8672-2.332-2.7578-3.5312-0.89062-1.2031-1.7539-2.4219-2.582-3.668-0.83203-1.2422-1.6328-2.5039-2.3984-3.7852-0.76953-1.2812-1.5078-2.582-2.2109-3.9023-0.70703-1.3164-1.3789-2.6523-2.0156-4.0039-0.64062-1.3516-1.2461-2.7188-1.8164-4.0977-0.57422-1.3828-1.1094-2.7734-1.6133-4.1836-0.50391-1.4062-0.97266-2.8242-1.4062-4.2539-0.4375-1.4336-0.83594-2.8711-1.1992-4.3242-0.36328-1.4492-0.6875-2.9062-0.98047-4.3711-0.29297-1.4688-0.54688-2.9414-0.76562-4.418-0.21875-1.4805-0.40234-2.9609-0.55078-4.4492-0.14453-1.4883-0.25391-2.9766-0.32812-4.4727-0.074219-1.4922-0.10938-2.9844-0.10938-4.4805 0-1.4922 0.035156-2.9883 0.10938-4.4805 0.074219-1.4922 0.18359-2.9844 0.32812-4.4727 0.14844-1.4844 0.33203-2.9688 0.55078-4.4492 0.21875-1.4766 0.47266-2.9492 0.76562-4.4141 0.29297-1.4688 0.61719-2.9258 0.98047-4.375 0.36328-1.4492 0.76172-2.8906 1.1992-4.3203 0.43359-1.4297 0.90234-2.8516 1.4062-4.2578s1.0391-2.8008 1.6133-4.1836c0.57031-1.3789 1.1758-2.7461 1.8164-4.0977 0.63672-1.3516 1.3086-2.6836 2.0156-4.0039 0.70312-1.3164 1.4414-2.6172 2.2109-3.8984 0.76562-1.2852 1.5664-2.5469 2.3984-3.7891 0.82812-1.2422 1.6914-2.4648 2.582-3.6641 0.89063-1.2031 1.8086-2.3789 2.7578-3.5352s1.9219-2.2891 2.9258-3.3945c1.0078-1.1094 2.0352-2.1914 3.0938-3.2461 1.0586-1.0586 2.1406-2.0898 3.2461-3.0938 1.1094-1.0039 2.2422-1.9766 3.3945-2.9258 1.1562-0.94922 2.3359-1.8672 3.5352-2.7578 1.2031-0.89062 2.4219-1.75 3.668-2.582 1.2422-0.83203 2.5039-1.6289 3.7852-2.3984 1.2852-0.76953 2.5859-1.5039 3.9023-2.2109 1.3203-0.70312 2.6523-1.375 4.0039-2.0156 1.3516-0.63672 2.7188-1.2422 4.1016-1.8164 1.3789-0.57031 2.7734-1.1094 4.1836-1.6133 1.4062-0.50391 2.8242-0.97266 4.2539-1.4062 1.4336-0.43359 2.8711-0.83203 4.3242-1.1953 1.4492-0.36328 2.9062-0.69141 4.375-0.98047 1.4648-0.29297 2.9375-0.54688 4.4141-0.76953 1.4805-0.21875 2.9648-0.40234 4.4531-0.54688 1.4844-0.14844 2.9766-0.25781 4.4688-0.32812 1.4961-0.074219 2.9883-0.11328 4.4844-0.11328 1.4922 0 2.9883 0.039063 4.4805 0.11328 1.4922 0.070312 2.9844 0.17969 4.4727 0.32812 1.4883 0.14453 2.9688 0.32812 4.4492 0.54688 1.4805 0.22266 2.9531 0.47656 4.418 0.76953 1.4648 0.28906 2.9258 0.61719 4.375 0.98047 1.4492 0.36328 2.8906 0.76172 4.3203 1.1953 1.4297 0.43359 2.8516 0.90234 4.2578 1.4062s2.8008 1.043 4.1836 1.6133c1.3789 0.57422 2.7461 1.1797 4.0977 1.8164 1.3516 0.64062 2.6875 1.3125 4.0039 2.0156 1.3203 0.70703 2.6211 1.4414 3.9023 2.2109 1.2812 0.76953 2.5469 1.5664 3.7891 2.3984 1.2422 0.83203 2.4648 1.6914 3.6641 2.582 1.2031 0.89062 2.3789 1.8086 3.5352 2.7578 1.1562 0.94922 2.2891 1.9219 3.3945 2.9258 1.1094 1.0039 2.1914 2.0352 3.25 3.0938 1.0547 1.0547 2.0859 2.1367 3.0898 3.2461 1.0039 1.1055 1.9805 2.2383 2.9297 3.3945 0.94531 1.1562 1.8672 2.332 2.7578 3.5352 0.89062 1.1992 1.75 2.4219 2.582 3.6641 0.82812 1.2422 1.6289 2.5039 2.3984 3.7891 0.76953 1.2812 1.5039 2.582 2.2109 3.8984 0.70312 1.3203 1.375 2.6523 2.0156 4.0039 0.63672 1.3516 1.2422 2.7188 1.8164 4.0977 0.57031 1.3828 1.1094 2.7773 1.6133 4.1836 0.50391 1.4062 0.97266 2.8281 1.4062 4.2578 0.43359 1.4297 0.83203 2.8711 1.1953 4.3203 0.36328 1.4492 0.69141 2.9062 0.98438 4.375 0.28906 1.4648 0.54688 2.9375 0.76562 4.4141 0.21875 1.4805 0.40234 2.9648 0.54688 4.4492 0.14844 1.4883 0.25781 2.9805 0.33203 4.4727 0.070312 1.4922 0.10937 2.9883 0.10937 4.4805z" fill="#fbfefd"/>
  <path d="m941.94 356.01s12.316-20.855-22.168-26.398c-34.484-5.5391-99.484 26.039-114.63 49.77-15.148 23.734 5.1914 41.691 20.59 30.793 15.516-10.957 38.336-32.973 67.039-40.16 28.699-7.1875 44.574-5.5781 49.172-14.004z" fill="#1c001d"/>
  <path d="m884.52 486.99s21.078 1.1602 18.395 18.09c-2.6836 16.93-20.465 9.5664-20.465 9.5664s10.238 32.66 39.488 37.34c29.246 4.6797 62.516-21.289 44.961-61.738-17.555-40.445-68.93-39.32-82.383-3.2578z" fill="#1c001d"/>
  <path d="m801.67 701.41c3.1172 8.9648 8.0703 17.25 14.023 24.613 9.9531 12.262 23.637 21.457 38.859 25.734 18.289 5.3164 37.883 4.0391 56.262-0.19922 6.1719-1.4141 12.258-3.1914 18.27-5.1914-5.9648 2.1406-12.039 3.9844-18.195 5.5039-15.371 3.7305-31.543 5.3047-47.219 2.6289-18.875-3.0156-36.457-13.191-48.297-28.219-5.9102-7.4297-10.762-15.824-13.699-24.875z"/>
  <path d="m842.86 799.15c25.172 6.4609 51.832 6.4609 77.359 2.1094 12.746-2.207 25.402-5.7695 37.469-10.418 22.457-9.0156 44.441-21.035 60.875-39.125 23.5-25.691 32.547-60.469 30.195-94.719-0.45703-6.4805-1.2383-12.953-2.6953-19.289 0.77344 3.1602 1.332 6.3633 1.8008 9.582 5.1445 35.652-2.5508 74.328-26.434 102.08-8.1797 9.6328-17.961 17.84-28.645 24.562-22.086 13.773-46.789 23.496-72.48 27.824-25.59 4.2695-52.289 4.0938-77.441-2.6094z"/>
  <path d="m541.63 915.01c-17.672-25.195-33.543-65.562 7.5547-76.469 1.9492-0.61328 4.4922-1.1719 6.4883-1.6523 0.85156-0.16406 3.0586-0.58594 3.9492-0.75 1.4648-0.25391 3.1719-0.45312 4.6445-0.66406 0.90234-0.078124 3.1055-0.28516 4.0039-0.35937 0.42188-0.015626 1.5781-0.0625 2.0117-0.082032 1.5508-0.12891 3.7852-0.03125 5.3633-0.039062 6.2227 0.23438 12.531 1.2188 18.465 3.1211 10.113 3.2422 19.883 9.0352 26.852 17.125l0.62891 0.76562c-1.5234-0.46094-3.082-0.82812-4.6641-1.0625-11.797-1.832-23.246 1.8789-29.371 12.605-5.6562 9.4297-5.1445 19.625 1.5039 28.398 11.203 14.168 30.613 19.348 48.043 19.066-17.52 0.43359-37.035-4.5938-48.367-18.816-6.8086-8.8789-7.375-19.336-1.6602-28.926 6.2188-10.941 17.934-14.789 29.945-12.934 1.2773 0.19922 2.5312 0.44141 3.7891 0.80078l-0.33594 0.48828c-4.5938-5.3711-10.496-9.5977-16.746-12.84-10.945-5.6562-23.168-7.8125-35.418-7.0625-0.89844 0.058594-3.0781 0.27734-3.9766 0.34375-1.4648 0.21094-3.1562 0.40625-4.6094 0.65625-0.875 0.17578-3.0703 0.5625-3.9258 0.73828-1.4688 0.36719-3.7266 0.83594-5.1758 1.2656-2.9688 0.83203-6 1.6914-8.8164 2.957-4.8516 2.0781-9.3906 5.1484-12.652 9.3398-13.785 18.062 1.3398 47.828 12.48 63.988z"/>
  <path d="m572.66 778.56c16.75 25.902 35.008 50.879 55 74.379 15.039 17.535 31.094 34.418 49.578 48.363 6.1758 4.6094 12.645 8.8633 19.539 12.34-6.9414-3.3789-13.48-7.5469-19.73-12.078-7.7852-5.7148-15.105-12.043-22.125-18.672-31.922-30.879-58.602-66.859-82.262-104.33z"/>
  <path d="m989.5 950.89c14.918 2.9883 29.617 7.0938 43.906 12.312 10.684 3.9883 21.207 8.6016 30.883 14.688 3.2031 2.0508 6.3281 4.2383 9.2422 6.6836-3.0078-2.3281-6.1602-4.4531-9.4102-6.4102-9.7578-5.8633-20.277-10.406-30.941-14.344-14.219-5.2695-28.918-9.4297-43.676-12.926z"/>
  <path d="m1110.7 991.16c28.66 10.387 58.148 18.945 88.324 23.535 6.8086 0.96484 13.805 1.7539 20.684 2.1016 1.2734 0.082031 2.8867 0.097656 4.1602 0.14844 5.543 0.14844 11.098 0.011719 16.625-0.52734-22.137 2.5352-44.516-0.99609-66.137-5.6836-21.656-4.9336-42.984-11.453-63.656-19.574z"/>
  <path d="m1084.9 1076.1c30.238 8.1211 60.82 15.152 91.785 19.855 18.551 2.5742 37.414 4.8789 56.133 2.8398-14.762 1.9961-29.805 0.85547-44.559-0.72656-3.8164-0.44531-7.8672-0.97266-11.66-1.5195-31-4.6016-61.605-11.73-91.695-20.449z"/>
  <path d="m1109.6 531.55c40.199 4.4648 80.879 7.2227 121.26 3.8203 0.80078-0.085938 5.3125-0.55859 6.0391-0.64063 2.6094-0.34766 5.8203-0.73437 8.4219-1.1875 6.3984-1.0039 12.754-2.3242 18.969-4.1914l-4.6602 1.3984c-3.082 0.82031-6.3359 1.6016-9.4727 2.2227-3.0664 0.63672-6.4805 1.207-9.5938 1.6484-1.3945 0.19141-3.4453 0.50781-4.8203 0.65234-16.086 1.9648-32.398 2.3867-48.582 2.2109-25.938-0.45703-51.863-2.418-77.562-5.9336z"/>
  <path d="m1118.6 452.66c23.246 2.3398 46.578 3.957 69.934 4.5078 23.285 0.34766 46.91 0.42188 69.746-4.6914l-4.2617 1.0391s-4.2969 0.86328-4.2969 0.86328c-1.7773 0.32812-3.6211 0.60938-5.4062 0.91016-18.465 2.6445-37.176 2.8828-55.797 2.5391-23.371-0.61719-46.715-2.3008-69.922-5.168z"/>
 </g>
</svg>
