<?xml version="1.0" encoding="UTF-8"?>
<svg width="2245" height="1587" version="1.2" viewBox="0 0 1683.8 1190.3" xmlns="http://www.w3.org/2000/svg" zoomAndPan="magnify">
 <defs>
  <clipPath id="a">
   <path d="m37 487h259v320.74h-259z"/>
  </clipPath>
  <clipPath id="b">
   <path d="m1046 487h258v320.74h-258z"/>
  </clipPath>
  <clipPath id="c">
   <path d="m1223 311.55h273v190.45h-273z"/>
  </clipPath>
 </defs>
 <g id="d">
  <g clip-path="url(#a)">
   <path d="m294.89 487.29c0.19531 0.19531 0.39062 0.78125 0.39062 1.5586l-6.043 19.309c0 0.97656-0.58594 1.5625-1.9492 1.5625h-59.461c3.3125 3.5117 5.8477 7.6055 7.6016 12.094 2.7305 6.2383 4.0938 12.871 4.0938 19.504 0 18.137-6.6289 35.105-19.883 51.293-12.48 15.02-29.441 26.918-50.496 35.5 8.3828 10.141 15.012 21.453 19.887 34.328 5.0664 13.066 7.6016 25.938 7.6016 38.812 0 25.941-5.457 50.125-16.57 72.75-5.8477 11.312-11.695 19.699-17.742 25.16-6.6289 5.8516-13.254 8.582-19.883 8.582s-6.0469-1.3633-8.3828-4.0938c-2.3398-2.5391-3.3164-5.8516-3.3164-9.7539s0.58594-1.9492 1.5586-3.707c0.97656-1.7539 3.3164-4.6797 7.2148-8.582 5.457-5.4609 9.9414-11.117 13.258-16.969 2.7305-4.6797 5.0664-9.5547 7.2109-14.434 1.9531-4.875 3.707-9.9453 4.875-15.211 2.9258-10.145 4.4844-20.48 4.4844-31.207s-2.7305-25.16-8.3828-36.863c-2.5352-6.0469-5.6523-11.703-9.1641-16.969-3.7031-5.2656-7.7969-10.336-12.281-15.406-4.0938 0.97266-7.9922 1.9492-12.086 2.7305-4.0938 0.97266-7.9961 1.5586-12.09 2.1445-4.2891 0.58594-8.5781 0.97266-12.867 1.3633s-8.5781 0.58594-12.867 0.58594c-13.84 0-25.926-3.707-36.262-10.922-10.332-7.0234-15.398-15.992-15.398-26.723 0-10.727 4.0938-15.797 12.477-21.844 8.5781-5.8516 18.52-8.582 29.828-8.582 11.305 0 25.93 2.9258 38.406 8.9727 11.891 5.4609 22.223 13.652 31.191 24.184 17.547-4.4844 31.777-12.871 42.5-24.965 11.309-12.09 16.961-25.16 16.961-39.594 0-14.43-3.1172-15.992-9.3555-22.234-6.043-6.2383-13.453-9.3594-22.227-9.3594h-125.16c-0.58594 0-0.97656-0.19531-1.5625-0.78125-0.58203-0.58594-0.58203-0.97656 0-1.5625l5.6562-19.309c0.19531-0.97266 0.77734-1.5586 1.9492-1.5586h234.73c0.58594 0 0.97656 0.19531 1.5586 0.78125zm-224.2 113.12c-1.7539 1.5586-2.7305 3.1211-2.7305 4.875v2.1445c0 0.97656 0.58594 1.7578 1.5625 2.7305 0.77734 0.97656 2.3398 1.7578 4.2891 2.7305 1.9492 0.97656 4.6797 1.7578 8.3828 2.3398 1.168 0.19531 2.5352 0.39062 3.8984 0.39062h4.2891c7.2148 0 14.621-1.168 21.836-3.7031-2.7305-1.9531-5.4609-3.9023-8.3828-5.4609-2.7305-1.5625-5.4609-3.1211-8.3828-4.293-6.2383-2.7305-12.285-4.0977-18.133-4.0977-5.8477 0-5.0703 0.97656-7.2148 2.7344z" fill="#ea0075"/>
  </g>
  <path d="m546.97 486.89c0.19531 0.19531 0.39062 0.78125 0.39062 1.5586l-5.6523 19.504c-0.58594 0.97656-1.1719 1.5625-1.9492 1.5625h-85.195c6.4336 6.2422 11.891 13.457 16.18 21.453 4.6797 10.145 7.2148 19.699 7.2148 29.062 0 17.164-3.3164 32.961-9.75 47.395-6.8242 14.824-16.766 28.086-30.219 39.984-13.062 12.094-27.684 21.062-43.668 27.109-15.793 6.0469-33.145 8.9727-52.055 8.9727s-34.898-4.0938-48.152-12.094c-13.648-8.3867-20.277-18.332-20.277-30.23s10.137-30.816 30.219-44.078c20.082-13.262 41.723-19.895 64.727-19.895s25.93 2.9258 38.797 8.9727c13.645 6.0469 20.273 12.285 20.273 18.918 0 6.6328-0.97266 5.8516-2.7305 7.9961-1.7539 2.5352-3.8984 3.707-6.4336 3.707-2.5312 0-4.0938-0.58594-6.4336-1.5625-1.5586-0.58203-3.1172-0.97266-4.8711-1.5586-1.7539-0.58594-3.707-1.1719-6.043-1.9492-3.3164-1.1719-6.4336-2.3438-9.3594-3.1211-2.9258-0.78125-6.043-1.5625-8.9688-2.1445-6.2383-1.1719-11.891-1.9531-16.57-1.9531-17.352 0-32.363 3.707-44.84 10.922-11.895 7.2188-17.742 15.801-17.742 25.16 0 9.3633 3.7031 8.7773 11.309 12.094 8.5781 3.5117 18.52 5.2656 29.828 5.2656 28.074 0 52.441-9.5547 72.719-28.672 20.078-19.309 30.219-42.516 30.219-69.629 0-27.109-6.2383-26.914-18.523-37.645-12.281-10.336-26.902-15.406-44.059-15.406s-16.961 0.97656-24.566 2.9258c-7.0156 1.7539-12.867 4.4844-17.348 8.3867-2.9258 3.3164-5.8516 6.0469-8.5781 8.3867-2.7305 2.3398-5.4609 4.2891-7.9961 6.0469-5.0664 3.5117-9.3555 5.2656-13.254 5.2656-3.9023 0-5.6562-1.1719-7.9961-3.3164-2.3398-2.3398-3.3125-4.875-3.3125-7.9961 0-3.1211 1.5586-6.8281 4.875-10.922 0.97266-0.97656 2.1445-1.9492 3.1172-2.9258 1.1719-0.97656 2.5352-2.1445 3.8984-3.3164h-25.148c-0.78125 0-1.168-0.19531-1.5586-0.78125-0.19531-0.19531-0.39062-0.77734-0.39062-1.5586l6.043-19.113c0-0.97656 0.58594-1.5625 1.9492-1.5625h53.809c3.3164-1.168 6.4336-2.3398 9.5547-2.9258 3.1172-0.77734 6.4336-1.5586 9.5508-2.3398 3.5078-0.58594 6.8242-0.97656 9.9414-1.3633 3.1211-0.39062 6.2422-0.58594 9.1641-0.58594 4.6797 0 9.1641 0 13.258 0.58594 4.0938 0.38672 7.7969 0.77734 11.309 1.3633 3.5078 0.78125 6.6289 1.5625 9.3555 2.3398 2.7305 0.78125 5.0703 1.7578 7.2148 2.9258h116.78c0.58594 0 0.97656 0.19531 1.5625 0.78125z" fill="#ea0075"/>
  <path d="m635.09 487.29c0.19531 0.19531 0.39062 0.78125 0.39062 1.5586l-5.6523 19.309c-0.19531 0.97656-0.97656 1.5625-1.9492 1.5625h-38.797c-19.105 28.477-33.535 56.172-43.281 83.281-10.332 27.891-15.402 53.441-15.402 76.848s1.1719 16.188 3.3164 22.234c1.9492 5.8516 4.4805 8.9727 7.2109 9.3633 4.2891 0.78125 7.4102 2.3398 9.3594 4.875 2.7305 2.3398 4.0938 5.0703 4.0938 8.582 0 3.5117-1.9492 7.2148-6.043 10.141-3.3164 2.5391-7.4102 3.707-12.477 3.707-9.9453 0-18.523-5.8516-25.93-17.75-6.6289-10.727-9.9453-24.574-9.9453-41.543s1.1719-22.82 3.5117-35.301c2.3398-12.484 5.8477-25.551 10.723-39.398 4.2891-13.656 9.7461-27.504 16.57-41.742 6.6289-14.234 14.426-28.863 23.199-43.883h-50.883c-0.58594 0-0.97656-0.19531-1.5586-0.78125-0.58594-0.58203-0.58594-0.97266 0-1.5586l5.6523-19.309c0-0.97656 0.58594-1.5625 1.9492-1.5625h58.684c2.7266-4.2891 6.043-8.1914 9.7461-11.703 4.0938-3.3125 8.3828-4.875 12.867-4.875 4.4844 0 6.6289 0.78125 9.3594 2.3398 2.9219 1.9531 4.4844 4.293 4.4844 6.8281v2.3398c0 0.78125-0.39062 1.5625-0.58594 2.7305-0.58594 0.97656-0.97656 1.9492-1.1719 2.7305h30.805c0.58594 0 0.97266 0.19531 1.5586 0.78125z" fill="#ea0075"/>
  <path d="m968.86 539.36c0.78125 0.78125 0.97266 1.5625 0.78125 2.3398l-9.3594 24.188c-0.58594 0.58594-0.97656 0.78125-1.168 0.78125-0.78125 0.19531-1.3672 0.19531-1.9531 0-2.7266-1.5625-5.8477-2.7305-9.3555-3.3164-3.7031-0.78125-8.1875-1.1719-13.258-1.1719-14.035 0-27.293 2.9258-39.574 8.9727-11.895 5.4609-22.227 13.652-31.195 24.184 16.57 7.6094 31.195 13.266 44.062 16.969 13.645 3.707 24.953 5.6562 33.922 5.6562 8.9648 0 0.97266 0.19531 1.5586 0.78125 0.19531 0.78125 0.19531 1.3672 0 1.9492l-15.402 54.613c-0.19531 0.19531-0.39062 0.39062-0.39062 0.58594s0 0.39062-0.39063 0.58594c-11.305 9.3594-23.199 16.383-35.871 21.453-12.867 5.0703-25.539 7.6055-38.016 7.6055-12.477 0-27.879-4.875-38.406-14.625-10.527-9.7539-15.793-21.457-15.793-35.109 0-13.652 2.1445-17.75 6.4336-27.5 4.2891-9.3633 9.75-18.141 16.574-26.723-3.707-2.3398-6.8242-4.0938-8.9688-5.6562-2.7305-1.9492-4.0938-4.2891-4.0938-6.8242 0-3.707 1.3633-6.8281 4.0938-9.3633 2.5352-2.7305 5.6523-4.0977 9.3555-4.0977 3.707 0 4.0977 0.58594 6.4336 1.5625 1.1719 0.58594 2.5352 1.168 3.707 2.1445 1.168 0.97656 2.7266 1.7539 4.0938 2.7305 15.789-15.02 31.973-26.523 48.152-34.328 16.766-8.582 33.34-12.871 49.715-12.871s15.012 0.39062 20.664 1.168c2.9258 0.58594 5.6562 0.97656 7.8008 1.7578 2.1445 0.58594 4.0938 1.3633 5.8477 2.1445zm11.309-52.074c0.19531 0.19531 0.38672 0.78125 0.38672 1.5586l-5.6523 19.309c-0.19531 0.97656-0.97266 1.5625-1.9492 1.5625h-159.67c-0.58594 0-0.97656-0.19531-1.5586-0.78125-0.19531-0.19531-0.39062-0.78125-0.39062-1.5586l6.043-19.309c0-0.97656 0.58594-1.5625 1.5586-1.5625h159.67c0.58594 0 0.97656 0.19531 1.5625 0.78125zm-100.21 141.02c-12.48-3.707-22.812-7.9961-30.805-12.875-5.2656 6.0469-9.5547 12.68-12.867 19.895-3.3125 7.8008-4.875 14.629-4.875 20.285s2.1445 11.117 6.4336 15.41c4.0938 4.2891 9.1641 6.4336 15.402 6.4336 12.281 0 25.148-3.7031 38.406-10.922 12.086-6.8242 23.395-16.383 34.312-28.672-8.7734-1.168-16.961-2.7305-24.758-4.2891-7.6055-1.5625-14.816-3.5117-21.25-5.4609z" fill="#ea0075"/>
  <path d="m1071.6 487.29c0.19531 0.19531 0.39062 0.78125 0.39062 1.5586l-5.6562 19.309c-0.19531 0.97656-0.97266 1.5625-1.9492 1.5625h-38.797c-19.105 28.477-33.531 56.172-43.277 83.281-10.336 27.891-15.402 53.441-15.402 76.848s1.168 16.188 3.3125 22.234c1.9492 5.8516 4.4844 8.9727 7.2148 9.3633 4.2891 0.78125 7.4062 2.3398 9.3594 4.875 2.7266 2.3398 4.0938 5.0703 4.0938 8.582 0 3.5117-1.9492 7.2148-6.0469 10.141-3.3125 2.5391-7.4062 3.707-12.477 3.707-9.9414 0-18.52-5.8516-25.93-17.75-6.625-10.727-9.9414-24.574-9.9414-41.543s1.1719-22.82 3.5078-35.301c2.3398-12.484 5.8516-25.551 10.723-39.398 4.2891-13.656 9.75-27.504 16.574-41.742 6.6289-14.234 14.426-28.863 23.199-43.883h-50.883c-0.58594 0-0.97656-0.19531-1.5625-0.78125-0.58203-0.58203-0.58203-0.97266 0-1.5586l5.6562-19.309c0-0.97656 0.58203-1.5625 1.9492-1.5625h58.68c2.7305-4.2891 6.043-8.1914 9.75-11.703 4.0938-3.3125 8.3828-4.875 12.867-4.875s6.6289 0.78125 9.3555 2.3398c2.9258 1.9531 4.4844 4.293 4.4844 6.8281v2.3398c0 0.78125-0.39062 1.5625-0.58203 2.7305-0.58594 0.97656-0.97656 1.9492-1.1719 2.7305h30.805c0.58203 0 0.97266 0.19531 1.5586 0.78125z" fill="#ea0075"/>
  <g clip-path="url(#b)">
   <path d="m1303.4 487.29c0.19531 0.19531 0.39062 0.78125 0.39062 1.5586l-6.043 19.309c0 0.97656-0.58594 1.5625-1.9492 1.5625h-59.461c3.3125 3.5117 5.8477 7.6055 7.6016 12.094 2.7305 6.2383 4.0938 12.871 4.0938 19.504 0 18.137-6.6289 35.105-19.883 51.293-12.48 15.02-29.441 26.918-50.496 35.5 8.3828 10.141 15.012 21.453 19.887 34.328 5.0703 13.066 7.6016 25.938 7.6016 38.812 0 25.941-5.457 50.125-16.57 72.75-5.8477 11.312-11.695 19.699-17.742 25.16-6.625 5.8516-13.254 8.582-19.883 8.582-6.6289 0-6.043-1.3633-8.3828-4.0938-2.3398-2.5391-3.3164-5.8516-3.3164-9.7539s0.58594-1.9492 1.5625-3.707c0.97266-1.7539 3.3125-4.6797 7.2109-8.582 5.4609-5.4609 9.9414-11.117 13.258-16.969 2.7305-4.6797 5.0703-9.5547 7.2148-14.434 1.9492-4.875 3.7031-9.9453 4.8711-15.211 2.9258-10.145 4.4844-20.48 4.4844-31.207s-2.7305-25.16-8.3828-36.863c-2.5352-6.0469-5.6523-11.703-9.1641-16.969-3.7031-5.2656-7.7969-10.336-12.281-15.406-4.0938 0.97266-7.9922 1.9492-12.086 2.7305-4.0938 0.97266-7.9922 1.5586-12.09 2.1445-4.2891 0.58594-8.5781 0.97266-12.867 1.3633-4.2891 0.39062-8.5781 0.58594-12.863 0.58594-13.844 0-25.93-3.707-36.07-10.922-10.332-7.0234-15.398-15.992-15.398-26.723 0-10.727 4.0938-15.797 12.477-21.844 8.5781-5.8516 18.52-8.582 29.828-8.582 11.305 0 25.93 2.9258 38.406 8.9727 11.891 5.4609 22.223 13.652 31.191 24.184 17.547-4.4844 31.777-12.871 42.5-24.965 11.309-12.09 16.961-25.16 16.961-39.594 0-14.43-3.1172-15.992-9.3555-22.234-6.043-6.2383-13.453-9.3594-22.227-9.3594h-125.16c-0.58594 0-0.97656-0.19531-1.5625-0.78125-0.58203-0.58594-0.58203-0.97656 0-1.5625l5.6562-19.309c0.19531-0.97266 0.97266-1.5586 1.9492-1.5586h234.73c0.58594 0 0.97656 0.19531 1.5586 0.78125zm-224.2 113.12c-1.7539 1.5586-2.7266 3.1211-2.7266 4.875v2.1445c0 0.97656 0.58203 1.7578 1.5586 2.7305 0.77734 0.97656 2.3398 1.7578 4.2891 2.7305 1.9492 0.97656 4.6797 1.7578 8.3828 2.3398 1.168 0.19531 2.5352 0.39062 3.8984 0.39062h4.2891c7.2148 0 14.621-1.168 21.836-3.7031-2.7305-1.9531-5.4609-3.9023-8.3828-5.4609-2.7305-1.5625-5.4609-3.1211-8.3828-4.293-6.2383-2.7305-12.285-4.0977-18.133-4.0977s-5.0664 0.97656-7.2109 2.7344z" fill="#ea0075"/>
  </g>
  <path d="m1553.5 487.29c0.58594 0.58594 0.58594 0.97266 0 1.5586l-5.6523 19.309c0 0.97656-0.58594 1.5625-1.9492 1.5625h-74.277c1.9492 1.9492 3.7031 4.0938 5.2617 6.2422 1.5586 2.1445 2.9258 4.2891 4.0938 6.6289 2.9258 6.0469 4.4844 12.289 4.4844 18.727 0 10.336-2.5352 21.062-7.6016 32.375-5.0703 9.7539-11.504 19.113-19.301 28.086 1.168 0.19531 2.5352 0.58594 3.8984 0.97656s2.7305 0.78125 4.2891 1.3633c1.168 0.58594 2.3398 0.78125 3.1172 0.97656 0.78125 0 1.5625 0.39062 2.1445 0.58594 0.78125 0.19531 1.1719 0.39062 1.5625 0.39062 10.723 0 19.883-0.78125 27.098-2.7305 8.3828-1.5625 14.816-3.707 19.496-6.8281 0.78125-0.19531 1.5586-0.19531 2.3398 0 0.58594 0.97656 0.77734 1.7539 0.77734 2.3398l-4.8711 21.457c0 0.97266-0.39062 1.5586-1.1719 1.5586-6.8203 2.5352-14.23 4.293-22.223 5.4609-4.0938 0.78125-8.1875 1.1719-12.672 1.5625-4.4844 0.19141-8.7734 0.38672-13.453 0.38672-4.6797 0-7.2148-0.77734-12.477-2.3398-2.7305-0.58594-5.8516-1.3633-9.1641-2.7305-3.3125-1.168-7.4102-2.7305-11.891-4.4844-1.9492 1.168-4.0938 2.3398-6.0469 3.3164-1.9492 0.97266-4.0938 1.9492-6.043 2.7305-1.5586 0.58203-2.9219 0.97266-4.2891 1.5586-1.3633 0.58594-2.7266 0.97656-4.2891 1.5625 3.3164 4.2891 6.043 8.9688 8.3828 13.848 2.3398 5.0703 4.4844 10.141 6.2383 15.406 3.707 11.898 5.6562 23.797 5.6562 35.887 0 19.312-3.1211 36.281-9.3594 50.906-6.6289 14.824-15.012 23.992-25.539 27.504-0.77734 0.19531-1.9492 0.38672-3.3125 0.38672-3.5117 0-6.4336-1.9492-8.5781-6.043-2.7305-5.2695-2.7305-10.73 0.39062-16.191 5.457-11.312 9.5508-21.648 12.086-30.816 2.9258-9.3594 4.4844-17.746 4.4844-25.551 0-12.48-1.9492-24.184-5.6562-34.715-3.3125-10.145-8.1875-18.531-14.621-25.16-2.3398 0.58203-5.0664 0.77734-8.3828 0.97266-3.3125 0-7.2109 0.39063-11.5 0.58594-4.4844 0.58594-9.75 0.78125-15.402 0.78125h-18.91c-13.648 0-25.152-3.1211-34.703-9.3633-9.75-6.0469-14.621-13.848-14.621-23.406 0-9.5547 4.8711-16.773 14.621-23.402 9.5508-6.2422 21.055-9.3633 34.703-9.3633 13.645 0 23.199 3.3164 34.312 9.7539 10.719 6.2383 20.273 14.82 28.656 25.742 16.57-0.19141 31-6.4336 43.281-18.723 12.281-13.066 18.52-28.281 18.52-45.836 0-17.551-3.7031-16.188-11.309-22.234-7.2109-6.2422-16.375-9.3594-27.488-9.3594h-119.51c-0.58203 0-0.97266-0.19531-1.5586-0.78125-0.78125-0.58594-0.78125-0.97656-0.39062-1.5625l5.6562-19.309c0.19141-0.97266 0.97266-1.5586 1.9492-1.5586h248.96c0.58594 0 0.97656 0.19531 1.5586 0.78125zm-238.23 112.34c-2.5352 0.97656-3.7031 2.1445-3.7031 3.3164 0 1.168 0.58203 2.3398 1.5586 2.9258 0.97266 0.77734 2.1445 1.3633 3.3125 1.9492 3.5117 1.7539 8.3828 2.7305 14.621 2.7305h33.926c-3.707-3.5117-8.5781-6.4375-14.234-8.582-7.6016-2.7305-15.789-4.0938-24.562-4.0938-8.7734 0-7.6055 0.58203-10.918 1.9492z" fill="#ea0075"/>
  <g clip-path="url(#c)">
   <path d="m1495.8 495.09c-0.77734 2.3398-2.3398 4.2891-4.4844 5.4609-0.58203 0.19531-1.168 0.58594-1.9492 0.78125-0.77734 0.19531-1.5586 0.39062-2.3398 0.39062-3.5078 0-6.2383-1.5625-7.9922-4.4883l-1.168-2.3398-1.5586-1.9492c-0.58594-0.58594-0.97656-1.1719-1.1719-1.9531-0.19531-0.77734-0.58594-1.3633-1.168-1.9492-0.97656-1.168-1.9492-2.5352-2.7305-3.8984-0.78125-1.3672-1.5586-2.7305-2.7305-3.9023l-11.309-14.629c-3.7031-4.6797-7.7969-9.5547-12.086-14.043-4.2891-4.6797-8.5781-9.168-12.867-13.848-2.3398-2.3398-4.4844-4.4844-6.8242-6.8281-2.3398-2.3398-4.4844-4.4844-6.8203-6.4336-2.5352-1.9531-4.875-4.0977-7.4102-6.0469-2.3398-1.9492-4.6797-4.0977-7.0195-6.0469-2.5312-1.9492-4.8711-3.9023-7.4062-5.8516-2.3398-1.9492-4.875-3.9023-7.4102-5.8516-2.3398-1.7539-4.6797-3.5117-7.4062-5.0703-2.7305-1.5625-5.2656-3.5117-8.1875-5.4609-4.4844-3.3164-9.75-6.4375-15.793-9.7539-2.5352-1.5586-5.0703-2.9258-7.7969-4.2891-2.7305-1.3672-5.4609-2.9258-8.3828-4.6797-2.5352-1.1719-5.0703-2.5391-7.8008-3.707-2.7305-1.1719-5.6523-2.7305-9.1641-4.0977l-4.0938-1.9492c-0.58203-0.19531-0.97266-0.39062-1.3633-0.58594-0.39062 0-0.78125-0.39062-1.3633-0.58594h-0.78125-0.78125c-1.168-0.58203-2.3398-0.97266-3.3125-1.3633-0.97656-0.39063-1.9492-0.78125-2.9258-1.3672-0.97266-0.58203-1.7539-0.77734-2.3398-0.77734-2.5312-0.97656-5.2617-1.9531-8.3828-2.9258-2.9219-0.97656-6.2383-1.9531-9.3555-2.9258l-6.8242-2.3398h-0.97656-0.97266l-1.1719-0.39062-3.3125-0.78125c-0.19531-0.19531-0.78125-0.39062-1.5586-0.39062-1.5625-0.58594-2.5352-0.78125-2.9258-0.78125l-2.3398-0.77734-15.402 24.965c-2.7266 4.4844-6.8242 6.8242-12.086 6.8242-5.2656 0-5.2656-0.77734-7.6055-2.3398-3.7031-2.3398-6.043-5.8516-6.8203-10.531l-4.4844-37.645c-0.58594-4.0938 0.58203-7.6055 2.9219-10.531 2.5352-2.9258 5.6562-4.6797 9.3594-5.2656 1.5586-0.58594 2.9258-0.58594 4.0938 0l4.875 0.78125c0.19531 0.19531 0.77734 0.39062 1.5586 0.39062 0.58594 0.19141 0.97656 0.38672 1.7539 0.38672 0.78125 0 1.1719 0 1.7539 0.39063h1.3672 1.3633c1.1719 0.19531 2.5352 0.58594 3.5117 0.78125 1.168 0.19531 2.3359 0.58594 3.5078 0.78125l4.875 1.168 7.6016 1.9531c0.19531 0.19531 0.78125 0.38672 1.5586 0.38672 0.19531 0.19531 0.58594 0.39062 0.78125 0.39062l4.875 1.1719c0.58203 0.19531 0.97266 0.39062 1.5586 0.58594 0.58594 0 0.97656 0.39062 1.5586 0.58203h0.97656 0.97266l3.3164 1.1719 1.168 0.39062c0.58594 0.19531 0.97656 0.39062 1.1719 0.39062 0.19531 0 0.58203 0 0.77734 0.39062 1.1719 0.58203 2.5352 0.97266 3.8984 1.3633 1.3672 0.39062 2.7305 0.78125 3.9023 1.3672 2.7266 0.97266 5.6523 1.9492 8.3828 2.9258 2.9219 0.97266 6.2383 2.3398 9.9414 3.7031l2.3398 1.1719c1.168 0.58594 2.5352 0.97656 3.5078 1.5586 1.1719 0.58594 2.3398 0.97656 3.5117 1.5625l1.5586 0.78125c0.58594 0.19141 1.5586 0.58203 2.9258 1.168l4.4805 2.3398c3.5117 1.7578 6.6289 3.3164 9.3594 4.8789 2.7305 1.5586 5.4609 2.9258 8.3828 4.0938 3.3164 1.9492 6.2383 3.707 8.7734 5.2656 2.5352 1.5625 5.2656 3.1211 8.1875 4.875 2.9258 1.9531 5.8477 3.9023 8.5781 5.6562 2.7305 1.7578 5.4609 3.707 7.9922 5.6562 6.2422 4.293 11.699 8.1953 16.184 11.703 5.2617 4.293 10.332 8.582 15.012 12.875 4.6797 4.2891 9.7461 8.7773 14.621 13.652 2.3398 2.3398 4.6797 4.6797 7.0195 7.0195 2.3398 2.3438 4.6797 4.6836 6.6289 7.0234 4.6758 5.0703 9.1602 10.141 13.449 15.215 4.0938 5.0703 8.1914 10.336 12.285 15.211 1.9492 2.7305 3.8984 5.4609 5.8477 8.1914 1.9492 2.7305 3.7031 5.2656 5.457 8.1914 0.97656 1.5625 1.9492 2.9258 2.7305 4.293 0.97656 1.3633 1.7539 2.7305 2.5352 3.8984 0.78125 0.97656 1.5586 2.5391 2.7305 4.4883l1.9492 3.3164 0.77734 1.168c1.1719 2.3398 1.5625 4.6836 0.78125 7.0234z" fill="#ea0075"/>
  </g>
  <path d="m1645.4 487.29c0.19531 0.19531 0.39063 0.78125 0.39063 1.5586l-5.6523 19.309c-0.19531 0.97656-0.97656 1.5625-1.9492 1.5625h-38.797c-19.105 28.477-33.531 56.172-43.281 83.281-10.332 27.891-15.402 53.441-15.402 76.848s1.1719 16.188 3.3164 22.234c1.9492 5.8516 4.4844 8.9727 7.2109 9.3633 4.2891 0.78125 7.4102 2.3398 9.3594 4.875 2.7305 2.3398 4.0938 5.0703 4.0938 8.582 0 3.5117-1.9492 7.2148-6.043 10.141-3.3125 2.5391-7.4102 3.707-12.477 3.707-9.9453 0-18.523-5.8516-25.93-17.75-6.6289-10.727-9.9414-24.574-9.9414-41.543s1.168-22.82 3.5078-35.301c2.3398-12.484 5.8477-25.551 10.723-39.398 4.2891-13.656 9.7461-27.504 16.57-41.742 6.6289-14.234 14.426-28.863 23.199-43.883h-50.883c-0.58594 0-0.97266-0.19531-1.5586-0.78125-0.58594-0.58203-0.58594-0.97266 0-1.5586l5.6523-19.309c0-0.97656 0.58594-1.5625 1.9492-1.5625h58.684c2.7305-4.2891 6.043-8.1914 9.7461-11.703 4.0938-3.3125 8.3828-4.875 12.867-4.875s6.6289 0.78125 9.3594 2.3398c2.9258 1.9531 4.4844 4.293 4.4844 6.8281v2.3398c0 0.78125-0.39062 1.5625-0.58594 2.7305-0.58594 0.97656-0.97266 1.9492-1.168 2.7305h30.801c0.58594 0 0.97656 0.19531 1.5586 0.78125z" fill="#ea0075"/>
  <path d="m177.76 433.57 6.6094-24.68 24.668 6.6094-6.6094 24.684z" fill="#ea0075"/>
 </g>
</svg>
