<?xml version="1.0" encoding="UTF-8"?>
<svg width="2245" height="1587" version="1.2" viewBox="0 0 1683.8 1190.3" xmlns="http://www.w3.org/2000/svg" zoomAndPan="magnify">
 <defs>
  <clipPath id="a">
   <path d="m119.39 180h578.61v498h-578.61z"/>
  </clipPath>
  <clipPath id="b">
   <path d="m521 21.828h1052v1134.2h-1052z"/>
  </clipPath>
 </defs>
 <g id="c">
  <g clip-path="url(#a)">
   <path d="m653.12 548.83c-5.8984-27.98-10.434-55.934-12.586-84.207-2.1484-28.27-1.8594-55.902-0.34766-84.059 17.758 1.3359 34.035-1.832 48.047-13.223 5.7227-4.6484 7.7305-11.242 9.6758-18.016-3.3125 0.66797-3.4883 1.0195-7.2344 1.6875-3.75 0.66797-1.5117 0.60938-8.4023 1.5391-9.3594 1.2773-29.238 1.8906-40.777 1.1641 4.1836-2.0664 7.1211-8.7188 10.203-11.828 10.316-10.402 2.5547-40.648 1.0742-46.578-7.7617-31.324-52.609-53.348-68.824-58.258-51.156-15.547-106.7-26.035-136.2 17.055-20.84 30.395-0.29297 74.793 32.172 89.293 16.832 7.5234 47.145 6.3633 62.754-6.4219 6.3359-5.1719 7.875-10.605 9.418-17.551-13.285 11.535-35.723 16.707-50.488 8.7461-19.445-10.488-35.691-32.281-24.355-54.219 20.605-40.012 76.41-43.703 115.36-19.09 16.684 10.547 33.277 40.738 27.641 63.664-3.7773 15.398-11.395 25.191-22.875 35.012-89.898-0.11719-179.8-0.027343-269.66-0.72656-2.6758-25.832-10.551-46.52-25.316-68.777-0.32031-0.49219 0.8125 0.72656-1.9766-2.6719-20.723-25.34-43.336-46.578-79.695-54.336-5.293-1.1328-23.137-2.5273-32.148-4.9688-1.8594-0.49609-8.457-1.6562-13.02-3.4297-20.781-8.1953-40.43-20.949-56.125-37.688 5.8438 22.984 19.852 44.488 35.75 60.527 9.5625 9.6445 28.395 19.117 35.895 22.344 35.168 15.137 59.234 6.2188 92.98 22.664 20.926 10.199 31.652 41.375 31.973 66.102-3.3164 0.4375-7.2695 0.03125-10.812 0.17578 3.543 0.17578 7.6445 0.49609 10.867 0.58203-15.547-28.07-42.957-60.758-73.648-64.391-18.281-2.1797-22.266 2.4414-36.711 0.66797-22.406-2.7578-40.078-10.051-58.273-21.82 12.934 22.461 41.793 46.316 63.914 49.367 24.441 3.3711 34.18-4.9961 53.77 1.2773 19.59 6.3047 28.191 18.828 39.586 34.289-15.055 0-29.762-0.14844-44.672-0.20312 0 0.054687 0.027344 0.17187-0.03125 0.23047-13.863 0.23438-28.512 1.7734-41.648 5.4922-16.508 4.6797-30.258 11.391-44.297 20.688 44.906 0.11719 89.668 0 134.57 0.8125 3.1367 2.125 13.223 17 8.2539 19.527-17.238 8.8047-45.547-9.6445-73.914-1.3359-2.0625 0.60938-21.566 7.6992-23.078 20.832-1.5117 13.137 10.32 34.258 27.176 38.938-12.352 8.7734-32.957 26.414-41.734 54.48-17.848 57.215 24.617 122.16 75.973 148.8 62.781 32.57 148.23 12.812 165.67-24.293 1.2812-2.7305 9.332-20.746 0.60938-35.477-6.3047-10.695-20.867-18.742-36.125-14.938-13.605 3.3711-23.688 15.168-24.91 29.262 2.3242-8.4844 9.9688-13.859 17.438-13.074 7.6445 0.78125 12.676 7.7852 13.777 13.684 1.7461 9.3555-6.0156 17.578-9.4141 21.184-18.691 19.785-90.047 40.039-138.9 0-38.863-31.848-54.441-94.492-28.66-132 11.801-17.172 32.988-30.105 56.066-31.121 21.363-0.92969 53.305 7.9609 60.426 31.758 6.2773 20.98-8.6328 47.219-20.547 47.945-7.3242 0.43359-9.3906-9.0391-25.113-14.559-3.8359-1.3633-13.02-4.4727-23.484-2.2383-16.625 3.5469-25.402 18.219-27.41 21.793 5.0898-0.20312 12.73 0.11719 21.191 3.1094 16.305 5.7812 19.648 15.926 31.129 21.793 16.215 8.2812 40.484 3.9219 54.816-8.7148 27.668-24.469 9.3281-72.352 8.457-74.504-8.9805-22.488-30.52-46.023-56.562-49.656-21.012-2.9336-32.93 5.8984-50.137-1.8008-10.113-4.5352-20.285-18.395-10.578-24.844 18.164-12.059 51.328 12.289 71.527 1.3359 10.93-5.9297 8.4297-20.602 8.3125-26.906-0.17188-10.344-3.1367-11.273-5.8984-19.031 10.316 0.57812 20.055-0.11719 30.895 0.63672-13.02 39.547-1.8867 97.746 37.844 108.47 33.078 8.9219 40.664-10.867 64.641-21.125 15.637 18.512 39.703 28.855 63.332 26.094 13.691-1.5977 17.965-6.3906 28.047-12.754-0.23047 15.398 3.8398 27.078 14.332 39.34 7.4414 8.6914 19.27 15.402 30.227 20.109-3.9531-9.707-6.8008-13.453-9.9688-24.668-6.2188-21.969-7.8203-40.391-8.168-66.746-0.26172-17.52-0.058594-48.582 0.69922-68.398 9.3867-0.34766 18.832 0.17578 28.223 0.26172-2.793 34.23-2.0352 69.27 4.3867 102.71 3.3438 17.406 11.016 33.617 19.766 46.812 6.0156 9.0352 9.5625 11.332 15.957 18.477zm-238.86-81.066c-29.734-12.988-28.602-58.812-23.195-87.551 14.477-0.085938 42.145 0.11719 53.742 0.11719s7.4102-0.058594 15.984 0.058594c-0.43359 15.605-0.34766 33.969-0.11328 48.934 0.23047 14.992-0.69922 24.695-14.941 33.414-7.3242 4.5039-19.008 10.488-31.477 5.0273zm143.46-20.602c-5.8125 8.4531-9.3594 13.074-19.879 17.723-12.762 5.6367-34.184 6.7422-45.199-2.7578-5.2578-4.5625-4.9414-9.1836-4.9414-13.398 0-23.621 0.11719-45.355 0-68.457 12.152 0.058594 33.164 0 43.426 0h24.965 1.7734c-0.40625 22.289-0.20312 44.602-0.17188 66.859z" fill="#5a08e8"/>
  </g>
  <g clip-path="url(#b)">
   <path d="m1567.3 545.86c-4.4492-2.1211-9.0391 7.3516-25.926 12.961-12.527 4.1562-22.148 2.9648-32.641 2.5-13.547-0.61328-32.934-0.26172-57.52 4.3008 27.234-23.539 49.379-46.52 61.066-77.93 6.043-16.273 8.4258-32.227 7.0625-47.918-3.2578-37.422-25.898-62.672-34.387-71.941-40.227-43.906-96.816-49.137-118.09-51.082-60.891-5.6367-106.67 15.602-137.01 30.336-50.633 24.551-91.992 63.051-125.94 111.95-22 31.703-25.199 69.793 14.07 107.83-36.566 0.089844-71.066-0.054688-105.33 0.26172h-50.141c-3.3711-4.6484-5.8984-8.4844-12.992-4.0078-2.4688 1.5703-4.7656 2.6445-6.9453 3.3125 3.8672-10.637 6.832-21.707 9.1289-33.039 8.6875-42.973 1.9727-81.938-22.121-116.84-16.246-23.535-36.562-41.492-56.91-59.625-16.594-14.816-20.52-17.492-34.645-29.781-11.422-9.9375-21.449-18.684-30.344-26.645-11.395-15.258-24.762-38.5-19.879-62.852 9.8828-49.453 85.016-53.289 110.56-109.77 9.0664-19.992 14.766-52.77-7.4688-106.06 0.60938 7.0625 0.87109 19.641-4.2148 33.387-20.871 56.34-99.605 45.152-123.55 96.785-19.215 41.438 9.3867 96.41 16.07 109.25 8.6328 16.594 18.66 29 26.77 37.602-27.93-25.137-43.887-42.336-53.074-63.488-6.1602-14.18-13.719-39.285-8.3398-76.391-11.684 16.125-50.457 73.426-30.113 124.27 4.5352 11.332 9.9414 19.645 20.898 31.789 26.016 28.852 56.793 49.918 85.832 73.805 32.898 27.078 65.336 54.801 87.746 95.043 14.59 26.211 19.066 53.727 11.918 82.898-8.6914 0.11719-17.352 0.20312-26.016-0.64062-1.8594 0.61328-4.4453 0.84375-7.9648 0.72656-20.488-0.60938-40.805 0.089844-61.211 0.11719-3.9219 0-8.2227-0.46484-11.914 0.089844h-32.262c-7.3828-5.0859-16.277-6.5391-28.457-0.17578-0.17188 0.085937-0.43359 0.11719-0.63672 0.17578h-5.668c-0.52344-0.058594-1.0469-0.089844-1.543-0.089844-59.961-0.058593-119.89-0.085937-179.86-0.26172-9.9961 0-19.762 0.69922-28.422 4.4453-14.039 6.0742-15.406 17.059-3.082 29.348 9.9961 9.9961 21.273 18.773 31.797 28.273 9.9414 9.0078 19.066 21.473 28.484 2.875 3.2852-6.4766 13.426-5.7812 21.332-5.8086 24.504-0.11719 49.004-0.089844 73.508 0v0.28906h28.336c1.6562 0.87109 2.9961 2.5859 3.7227 5.8711 1.6562 7.5547 0.63672 15.02-7.5586 16.996-7.2969 1.7734-15.199 2.3555-22.988 2.5273-15.754 0.32031-31.711-0.57812-47.379 0.058593-19.152 0.78516-39.73 1.5977-44.992 22.84-5.375 21.762 14.098 34.199 29.27 45.996 15.434 11.973 11.102 17.055 0.058594 24.668-45.43 31.352-76.938 73.863-95.305 126.66-18.051 51.863-15.551 104.49 23.453 155.68 61.039 80.109 139.6 126.54 235.14 128.4 70.805 1.3672 127.07-24.465 155.88-86.473 33.48-72.059-27.816-140.98-81.152-157.66 25.551 25.887 30.316 52.098 26.422 80.109-4.1289 29.492-17.758 52.883-39.18 71.043-41.273 34.984-92.078 49.949-150.94 44.543-75.801-6.9453-114.2-48.465-116.78-122.85-1.6562-47.566 15.754-86.355 40.75-121.66 29.238-41.32 65.918-74.703 114.28-94.754 8.3711-3.4883 19.793-9.3867 27.586-2.0039 7.2656 6.8555 3.6602 19.004 1.3633 28.008-9.0391 35.395-31.039 57.242-70.742 59.801 54.438 60.699 87.164 57.387 122.54 7.7305 3.1367-4.418 5.4336-9.5898 7.4688-14.762 9.8516-24.902 5.8711-49.078-16.77-71.133-42.641-41.52-87.082-76.91-146.05-52.91 2.4727-17.145 7.0938-22.027 26.711-22.926 24.793-1.1055 49.934-0.58203 74.988-0.23438 13.254 0.20312 18.051-5.6367 16.828-18.625-1.3633-14.324-1.5391-28.621-1.7148-42.859-0.058594-6.625 2.3555-10.516 7.7031-12.172h48.656c3.8945 5.5469 6.7109 8.918 15.605 2.875 1.7461-1.1914 3.3711-2.1484 4.9141-2.875h11.102c2.8477 2.5859 4.2734 7.9883 4.3008 16.066 0.14844 53.727 0.23438 107.45 0.14844 161.15-0.03125 18.305-2.0078 35.797-24.008 43.18 18.164 14.148 34.41 26.41 50.25 39.254 14.273 11.566 23.02 10.781 29.414-3.7188 4.8555-10.953 4.5664-23.391 4.5938-35.68 0.058594-64.711 0.55078-129.33-0.23437-194.16-0.20313-16.125 5.8438-24.465 20.203-26.062h174.62c3.1992 1.1641 4.4766 3.8633 4.4492 8.457-0.03125 19.555 0 39.109 0 61.512-24.387-15.457-75.078-42.453-112.13-23.621-59.789 30.422-63.914 170.01 1.6562 235.71 38.918 38.992 96.844 46.402 116.09 46.75 6.5078 0.11719 19.703-0.87109 35.75-6.0703 27.551-8.9219 40.227-31.004 35.777-59.887-4.8828-31.758-30.023-64.359-57.23-73.254 5.1172 20.34 10.871 40.246-0.75391 57.969-17.586 26.793-63.449 38.531-103.12 25.047-31.48-10.691-44.414-26.094-48.512-57.879-6.9453-53.551 28.398-115.27 76.469-132.53 8.168-2.9375 17.238-4.6797 26.246-5.0273 2.2969-0.085937 11.309 0.92969 21.102 6.1289 17.73 9.4141 18.34 22.957 31.508 37.137 21.742 23.391 57.957 27.34 61.473 21.387 1.4805-2.5312-3.6055-5.5234-8.168-18.047-2.3242-6.3906-5.8125-16.008-3.2539-24.988 3.2266-11.391 14.91-17.113 19.094-19.148 28.426-13.945 91.469 6.2188 110.51 44.66 21.156 42.742-7.8789 116.46-84.957 158.18 5.9297 2.0352 64.262 21.125 108.55-12.957 47.465-36.496 41.391-105.25 27.527-143.25-3.2578-8.9219-27.469-71.711-93.301-87.461-49.613-11.855-90.391 11.621-99.984 17.492-1.5977-4.9102-12.934-40.68 2.9062-53.898 1.1055-0.92969 2.3867-1.7734 3.8398-2.4727h91.555 130.64c1.2227 0.26172 3.375 0.84375 5.0898 2.5586 2.3242 2.293 3.3398 6.0742 3.2812 12.203-0.63672 54.277-0.20312 108.7-0.17188 163.09 0 18.656-3.3711 35.336-23.312 42.891 17.148 13.453 32.555 25.977 48.426 37.832 18.164 13.566 28.422 10.98 33.074-8.3711 3.6914-15.34 2.6758-31.785 2.7031-47.973 0-58.258 0.20312-116.49-0.058594-174.77 0-6.2188 0.14453-16.477 7.0625-23.363 11.512-11.477 28.484-0.43359 45.023-8.0195 28.57-13.133 33.219-71.508 23.047-76.332zm-159.19 21.008c-40.137-0.83984-80.074 0.03125-126.66 0.20703 17.379-4.1562 35.254-12.148 47.695-27.691 12.18-15.199 11.133-27.605 23.484-38.676 9.5039-8.5117 25.258-14.703 52.664-11.535-31.562-20.922-52.75-20.805-65.742-17.523-33.223 8.4297-35.84 43.414-76.82 56.402-25.637 8.1328-49.004 2.1484-58.102-0.29297-9.3281-2.4961-34.934-9.3555-51.969-31.934-4.5898-6.1016-8.3711-13.102-11.129-21.152-9.8242-28.59 1.1328-50.324 20.867-65.465 54.324-41.668 119.52-57.91 194.39-41.113 76.121 17.082 128.67 99.809 105.25 161.29-8.8672 23.273-24.852 38.121-53.887 37.512z" fill="#f82965"/>
  </g>
 </g>
</svg>
