<?xml version="1.0" encoding="UTF-8"?>
<svg width="1587" height="1587" version="1.0" viewBox="0 0 1190.2 1190.2" xmlns="http://www.w3.org/2000/svg" zoomAndPan="magnify">
 <defs>
  <clipPath id="b">
   <path d="m0 0h1189.5v1189.5h-1189.5z"/>
  </clipPath>
  <clipPath id="a">
   <path d="m299 1028h198v161.5h-198z"/>
  </clipPath>
 </defs>
 <g clip-path="url(#b)" fill="#fff">
  <path d="m0 0h1189.5v1189.5h-1189.5z"/>
  <path d="m0 0h1189.5v1189.5h-1189.5z"/>
 </g>
 <path d="m389.48 571.7c0.82422-2.9336 1.2031-4.0195 1.4414-5.1094 7.9688-37.992 30.027-66.199 61.242-88 5.1719-3.3555 10.688-5.9883 16.551-7.8984 1.4648-0.57812 2.9648-1.0625 4.4922-1.4492 1.5273-0.38672 3.0742-0.67578 4.6406-0.86328 1.5664-0.1875 3.1367-0.27344 4.7148-0.25781 1.5742 0.015625 3.1445 0.12891 4.707 0.34766 1.5586 0.21484 3.1016 0.53125 4.6211 0.94531 1.5234 0.41406 3.0117 0.92578 4.4648 1.5352 1.457 0.60547 2.8672 1.3008 4.2305 2.0898 1.3672 0.78906 2.6758 1.6641 3.9297 2.6211 2.8398 2.043 5.9922 3.3203 9.457 3.8281 22.984 2.6719 37.574 16.102 45.566 36.719 1.4531 3.5664 2.7383 7.1875 3.8555 10.875 1.1172 3.6836 2.0625 7.4102 2.8359 11.184 0.77344 3.7695 1.3672 7.5703 1.7891 11.398 0.41797 3.8242 0.66406 7.6641 0.72656 11.512 0.066406 3.8516-0.050781 7.6953-0.33984 11.535-0.29297 3.8359-0.76172 7.6523-1.4062 11.449-0.64453 3.7969-1.4648 7.5547-2.457 11.273-0.99609 3.7188-2.1602 7.3828-3.4922 10.996-3.9414 10.891-7.8828 21.793-11.824 32.699-0.86328 2.207-1.5508 4.4688-2.0547 6.7852-4.4688 25.227-19.32 44.922-34.336 64.5-8.0625 10.449-17.828 19.578-26.434 29.648-13.477 15.793-30.219 27.047-48.496 36.34-4.2109 2.1289-8.4648 4.2578-12.77 6.1719-2.6172 1.0938-5.3398 1.7539-8.1719 1.9805-2.8281 0.22656-5.6211 0.007812-8.3789-0.65625-9.793-1.8516-19.18-4.9336-28.164-9.2461-5.6719-2.4688-11.574-4.0898-17.711-4.8711-7-1.2422-13.895-2.9102-20.691-5.0039-6.793-2.0898-13.434-4.5938-19.922-7.5039-6.4883-2.9062-12.773-6.2031-18.852-9.8867-6.082-3.6836-11.918-7.7227-17.5-12.125-19.344-14.824-38.281-30.168-57.012-45.75-7.0312-6-13.469-12.582-19.316-19.742-10.688-12.957-14.07-27.992-11.445-44.543 2.7188-17.402 9.8125-32.91 22.605-44.922 2.3828-2.082 4.5859-4.3398 6.6094-6.7734 2.0195-2.4336 3.8359-5.0156 5.4414-7.7422 1.6094-2.7227 2.9883-5.5625 4.1406-8.5078 1.1484-2.9492 2.0586-5.9688 2.7266-9.0625 2.3633-11.348 9.5742-20.449 18.914-27.66 5.9727-4.707 12.34-8.793 19.102-12.266 6.7617-3.4727 13.793-6.2656 21.098-8.375 2.7734-0.79688 5.5977-1.3047 8.4727-1.5273s5.7422-0.15234 8.6055 0.21094c2.8633 0.36328 5.6562 1.0078 8.3867 1.9375 2.7305 0.92969 5.3398 2.125 7.8281 3.5859 5.4023 3.0078 10.438 6.543 15.098 10.605 4.6602 4.0664 8.8516 8.5664 12.566 13.512 8.9141 11.609 16.789 23.996 25.113 36.055 1.3008 1.9141 2.5273 3.8555 4.8008 7.4023zm103.21-32.465c-0.28516-2.5742-0.58984-7.3047-1.418-11.938-1.2539-6.9297-2.9805-8.2539-9.625-6.7852-4.3633 1.043-8.5664 2.5508-12.602 4.5156-3.5938 1.6992-6.8086 4.2773-10.285 6.2891-3.8164 2.1797-7.2188 4.8867-10.203 8.1133-2.9844 3.2266-5.418 6.8281-7.2969 10.801-5.3438 11.062-11.277 21.895-16.055 33.102-4.7773 11.207-11.09 21.418-11.824 33.949-0.30469 5.793-5.0117 8.1562-10.262 9.1992-5.2461 1.0391-10.285 1.1094-13.785-4.3281-1.5234-2.3828-3.4375-4.3906-5.7461-6.0273-7.9922-5.6484-14.852-12.441-20.57-20.383-4.2812-5.9336-8.2031-12.199-12.863-17.824-5.0664-6.2422-10.547-12.098-16.434-17.57-2.0078-1.8398-4.1992-3.4258-6.5781-4.7539-2.3828-1.3281-4.8828-2.3633-7.5039-3.1055-2.6211-0.74219-5.293-1.168-8.0156-1.2812-2.7227-0.11719-5.4219 0.085938-8.0977 0.60547-6.9766 1.1602-13.738 3.4297-20.617 5.1328-0.53125 0.085938-1.0508 0.22266-1.5547 0.41016-0.5 0.19141-0.98047 0.42578-1.4375 0.71484-0.45312 0.28516-0.875 0.61328-1.2656 0.98438-0.38672 0.37109-0.73828 0.77734-1.043 1.2188-0.30859 0.44141-0.56641 0.91016-0.77734 1.4023-0.21484 0.49609-0.375 1.0078-0.48438 1.5312-0.10937 0.52734-0.16406 1.0586-0.16797 1.5977-0.003906 0.53906 0.050781 1.0703 0.15625 1.5977 0.38672 9.2031 1.2539 18.359 2.6016 27.473 9.7422 50.855 37.547 90.672 76.656 123.32 3.3398 2.6719 7.0586 4.6094 11.16 5.8164 4.6562 1.4141 9.0938 3.332 13.312 5.7539 4.2188 2.4258 8.1133 5.2891 11.684 8.5977 3.3359 3.0156 6.8828 5.7578 10.641 8.2266 5.25 3.4531 6.0039 3.0039 9.1484-2.5977 7.207-12.738 14.504-25.434 21.898-38.09 2.3633-4.0898 4.9648-8.0625 7.3281-12.152 20.738-35.656 34.406-74.125 45.258-113.7 3.3828-12.367 6.668-24.73 6.668-39.816zm-260.27 52.301c-1.6055 1.2109-3.1289 2.5195-4.5625 3.9258-2.1211 2.5508-4.0352 5.25-5.7422 8.0938s-3.1914 5.8008-4.4492 8.8672c-1.2617 3.0703-2.2812 6.2188-3.0625 9.4414-0.78125 3.2227-1.3125 6.4883-1.5977 9.793-0.30859 2.4805-0.36328 4.9609-0.15625 7.4492s0.66406 4.9297 1.375 7.3242c0.71484 2.3906 1.6641 4.6875 2.8516 6.8828 1.1914 2.1953 2.5898 4.2461 4.207 6.1484 5.582 6.7891 11.715 13.039 18.395 18.75 18.02 14.965 36.32 29.555 54.789 43.93 5.2227 4.1836 10.688 8.0234 16.398 11.512 5.7109 3.4922 11.621 6.6055 17.727 9.3438 6.1094 2.7383 12.363 5.0781 18.77 7.0195s12.906 3.4727 19.508 4.5859c3.4023 0.57031 6.8086 1.3477 10.215 2.0352-0.63281-1.9297-1.793-3.457-3.4766-4.5859-5.9375-4.3281-11.824-8.7031-17.898-12.77-3.6641-2.6016-7.5586-4.793-11.684-6.5703-38.969-15.465-69.375-41.781-94.961-74.289-2.1289-2.6289-4.0547-5.4062-5.7695-8.3242-1.7148-2.918-3.2031-5.9492-4.4648-9.0898-1.2578-3.1406-2.2773-6.3594-3.0547-9.6562-0.77734-3.293-1.3047-6.6289-1.582-10.004-0.59375-7.3047-0.78125-14.633-1.1602-21.965-0.11719-2.1719-0.33203-4.3945-0.61328-7.8477zm300.75-41.969c-0.69531 0.79688-1.3203 1.6484-1.8672 2.5547-0.21484 0.92188-0.37891 1.8516-0.49609 2.7891-1.4883 10.371-3.4805 20.645-5.9766 30.82-2.5 10.176-5.4883 20.203-8.9727 30.086-3.4844 9.8789-7.4414 19.566-11.879 29.059-4.4336 9.4922-9.3242 18.746-14.672 27.758-8.9609 15.035-18.301 29.859-27.426 44.805-1.2539 2.0312-2.3672 4.207-4.0938 7.5156 1.207-0.42578 2.3789-0.92188 3.5234-1.4883 1.7266-1.2539 3.4766-2.4844 5.0625-3.8789 18.301-15.918 34.441-33.781 48.426-53.598 5.4297-8.043 10.387-16.363 14.871-24.969 2.5859-4.7031 4.5156-9.6602 5.7891-14.871 1.2734-5.2109 1.8516-10.5 1.7305-15.863 0-7.5664 0.21484-15.133 0.16797-22.699-0.070312-12.27-2.2461-24.352-4.1875-38.02zm-25.629-27.332c-0.25781 0.38672-0.4375 0.80469-0.54688 1.2539-0.11719 0.9375-0.11719 1.875 0 2.8125 2.7695 14.73 0.99609 29.227-2.6016 43.578-7.9102 32.719-18.582 64.508-32.016 95.375-1.0859 2.4844-2.0078 5.0352-3.2148 8.0859 1.0664-0.42578 1.3477-0.47266 1.4648-0.61328 0.57031-0.75781 1.1367-1.5117 1.6328-2.3633 5.4961-8.7812 10.527-17.816 15.086-27.117 4.5625-9.3008 8.6289-18.809 12.203-28.531 3.5781-9.7188 6.6406-19.598 9.1914-29.637 2.5547-10.035 4.582-20.18 6.082-30.426 1.3711-8.9141-0.21484-18.348-0.99219-27.5-0.37891-4.6797-1.3711-4.9648-6.2891-4.918zm-248.16 52.016c-5.9844 10.926-8.6328 20.855-5.3711 31.73 4.0781 13.492 10.336 25.883 18.777 37.168 1.7305 2.0312 3.6094 3.9258 5.625 5.6758-3.0742-12.484-7.7773-23.977-10.992-35.867-3.2188-11.895-5.25-24.707-8.0391-38.609zm172.92-55.184c16.977-11.586 35.586-20.617 51.691-34.496-14.613-1.6992-41.711 16.48-51.691 34.594zm118.91 44.145h1.2305c0.23828-1.1172 0.37109-2.2422 0.40234-3.3828-0.25-7.082-1.1406-14.082-2.6758-21-1.5352-6.918-3.6836-13.641-6.4531-20.164-1.5273-3.4805-3.4922-6.6875-5.9023-9.6289-2.4102-2.9375-5.1719-5.4961-8.2852-7.6758-2.2969-1.3711-4.6641-2.6172-7.0938-3.7383 1.5391 7.4023 3.0273 12.863 8.0156 16.742 2.7188 2.1016 5.1602 4.4805 7.3281 7.1445 2.168 2.6641 4.0078 5.5391 5.5117 8.625 3.457 7.5742 5.5898 15.5 6.4102 23.785 0.44922 3.1211 1.0156 6.2422 1.5117 9.3867zm-236.88-40.855c-10.07-6.1953-19.27-3.7148-21.988 4.9648zm178.97-22.816c4.2109 4.7266 5.4648 5.2227 12.156 4.0898-1.3711-8.1328-3.8086-9.0547-12.156-4.0898zm-235.15 46.766c7.0938-5.1289 7.0938-5.25 7.0938-10.52-1.8594 1.1836-3.4062 2.6914-4.6406 4.5234-1.2344 1.8281-2.0508 3.8281-2.4531 5.9961z" fill="#ff4a4a"/>
 <path d="m658.57 864.5c1.7266-1.6523 2.3633-2.2188 3.0273-2.8828 20.547-22.699 46.816-33.102 76.727-35.465 4.8633-0.22656 9.6719 0.18359 14.426 1.2305 1.2227 0.19141 2.4297 0.46484 3.6211 0.81641 1.1875 0.34766 2.3516 0.77344 3.4844 1.2695 1.1367 0.5 2.2344 1.0703 3.2969 1.707 1.0625 0.64062 2.0781 1.3477 3.0508 2.1172 0.97266 0.76953 1.8906 1.5977 2.7539 2.4883 0.86328 0.88672 1.668 1.8281 2.4141 2.8164 0.74219 0.99219 1.4219 2.0273 2.0352 3.1055 0.60938 1.0781 1.1484 2.1914 1.6172 3.3398 1.1406 2.5625 2.8125 4.7148 5.0117 6.4531 14.566 10.996 19.133 26.008 16.363 43.152-0.42969 3.0039-1 5.9805-1.7109 8.9336-0.70703 2.9531-1.5508 5.8633-2.5273 8.7383-0.97656 2.875-2.0859 5.6953-3.3281 8.4688-1.2383 2.7695-2.6016 5.4766-4.0938 8.1211-1.4883 2.6484-3.0977 5.2188-4.8242 7.7148-1.7305 2.4922-3.5703 4.9062-5.5195 7.2305-1.9531 2.3242-4.0078 4.5547-6.1641 6.6914s-4.4102 4.168-6.7539 6.0938c-7.0469 5.8164-14.07 11.664-21.07 17.543-1.4648 1.1523-2.8281 2.4102-4.0898 3.7812-13.102 15.395-31.07 22.938-49.066 30.195-9.668 3.8984-19.957 6.2188-29.816 9.6445-15.441 5.3672-31.328 6.3594-47.48 5.3906-3.7109-0.21094-7.4492-0.47266-11.137-0.89844-2.2266-0.28516-4.3516-0.91406-6.3711-1.8906-2.0234-0.97266-3.8398-2.2422-5.4492-3.8047-5.9258-5.1562-11.078-10.988-15.465-17.496-2.875-3.9492-6.2461-7.4102-10.121-10.383-4.2695-3.6328-8.2969-7.5156-12.086-11.648-3.7891-4.1289-7.3086-8.4805-10.562-13.043-3.2539-4.5664-6.2148-9.3164-8.8789-14.246-2.668-4.9297-5.0234-10.008-7.0625-15.227-7.2578-17.781-14.047-35.773-20.57-53.836-2.3945-6.8867-4.1523-13.934-5.2734-21.141-0.51953-3.0938-0.69531-6.2031-0.52344-9.3359 0.17188-3.1328 0.6875-6.207 1.543-9.2266 0.85938-3.0195 2.0352-5.9062 3.5352-8.6602 1.5-2.7578 3.2852-5.3125 5.3516-7.6719 2.0664-2.668 4.3398-5.1406 6.8242-7.4219 2.4844-2.2773 5.1445-4.3359 7.9766-6.1641 2.832-1.8281 5.8008-3.4102 8.8984-4.7344 3.1016-1.3281 6.2891-2.3867 9.5703-3.1719 2.4453-0.46875 4.8359-1.1328 7.1758-1.9844 2.3398-0.85547 4.5938-1.8906 6.7656-3.1094s4.2344-2.6016 6.1797-4.1484c1.9492-1.5508 3.7656-3.2461 5.4414-5.0859 1.5781-1.6172 3.2852-3.0859 5.125-4.3984 1.8359-1.3125 3.7773-2.4531 5.8203-3.4219 2.043-0.96875 4.1523-1.75 6.3359-2.3438 2.1797-0.58984 4.3945-0.98828 6.6484-1.1836 5.918-0.8125 11.859-1.0547 17.828-0.72266 5.9648 0.32812 11.844 1.2227 17.637 2.6836 2.2344 0.54688 4.3906 1.3125 6.4648 2.3047 2.0742 0.98828 4.0273 2.1758 5.8594 3.5703 1.8281 1.3906 3.5 2.9531 5.0078 4.6875 1.5078 1.7344 2.8281 3.6055 3.9492 5.6094 2.4766 4.1992 4.4922 8.6094 6.043 13.23 1.5469 4.6211 2.6016 9.3516 3.1562 14.195 1.4414 11.445 1.8672 23.027 2.7188 34.543 0.046875 1.8203 0.09375 3.6406 0.26172 6.8789zm83.113 19.105c0.82812-1.8672 2.5078-5.2266 3.7852-8.6992 1.9141-5.2031 1.2734-6.8125-3.8555-8.4414-3.3828-1.0312-6.832-1.6758-10.355-1.9375-3.1484-0.28516-6.3398 0.16406-9.4609 0.16406-3.4766-0.027344-6.875 0.46484-10.199 1.4805-3.3242 1.0195-6.418 2.5078-9.2852 4.4766-8.0391 5.3906-16.387 10.402-24.141 16.195-7.7578 5.793-16.078 10.145-21.543 18.395-2.5273 3.832-6.6445 3.5703-10.641 2.1992-3.9961-1.3711-7.4453-3.3789-7.6602-8.4648-0.078125-2.2227-0.57422-4.3516-1.4883-6.3828-3.1992-7.0234-5.1562-14.375-5.8633-22.059-0.57031-5.7461-0.73437-11.562-1.6562-17.262-0.96875-6.2578-2.3633-12.422-4.1875-18.488-0.62109-2.0703-1.4727-4.0391-2.5586-5.9102-1.082-1.8672-2.3711-3.5859-3.8594-5.1523-1.4883-1.5664-3.1406-2.9414-4.9531-4.1211-1.8086-1.1758-3.7344-2.1289-5.7695-2.8555-5.2031-1.9609-10.711-3.1211-16.078-4.7305-0.39453-0.15234-0.80078-0.26562-1.2148-0.33594-0.41797-0.074219-0.83594-0.10547-1.2617-0.089844-0.42188 0.011719-0.83984 0.066407-1.25 0.16016-0.41016 0.097656-0.80859 0.23437-1.1914 0.41016-0.38672 0.17578-0.75 0.39062-1.0898 0.64062s-0.65234 0.53125-0.9375 0.84375-0.53516 0.64844-0.75 1.0117c-0.21875 0.36328-0.39453 0.74609-0.53516 1.1445-3.3984 6.4219-6.457 13.004-9.1758 19.742-13.641 38.492-10.59 76.652 3.0039 114.46 1.2188 3.1562 2.9922 5.9609 5.3203 8.418 2.6055 2.8164 4.8633 5.8867 6.7695 9.2188 1.9102 3.3281 3.4219 6.8281 4.5352 10.5 1.0586 3.3828 2.375 6.6602 3.9492 9.8359 2.1953 4.4453 2.8828 4.4219 7.2578 1.8906 10-5.8164 20.027-11.516 30.078-17.211 3.2383-1.8477 6.5938-3.5 9.8359-5.3438 28.375-15.984 52.941-36.719 76.09-59.324 7.918-7.1758 14.695-15.301 20.336-24.375zm-197.89-68.117c-1.5938 0.17188-3.1719 0.45703-4.7266 0.85156-4.9492 1.7969-9.5156 4.2891-13.699 7.4805-4.1875 3.1875-7.8008 6.9297-10.848 11.223-1.1992 1.5625-2.2266 3.2305-3.0781 5.0039-0.85156 1.7773-1.5117 3.6211-1.9805 5.5352s-0.73438 3.8555-0.79688 5.8242c-0.066406 1.9688 0.074219 3.9219 0.41797 5.8594 1.0508 6.8242 2.6992 13.5 4.9414 20.027 6.2891 17.355 12.934 34.59 19.77 51.707 1.8828 4.9297 4.0742 9.7227 6.5664 14.371 2.4961 4.6523 5.2734 9.125 8.3398 13.426 3.0625 4.2969 6.3867 8.3828 9.9688 12.258s7.3984 7.5078 11.441 10.898c2.1055 1.7266 4.0938 3.6172 6.1484 5.4375 0.33984-1.5625 0.16016-3.0586-0.54297-4.4922-2.3633-5.2969-4.5625-10.641-7.0938-15.816-1.4414-3.2383-3.2148-6.2773-5.3203-9.1289-20.359-26.008-30.551-56.082-34.996-88.379-0.78125-5.3008-0.77344-10.602 0.035156-15.898 0.80469-5.3008 2.3711-10.363 4.6953-15.191 2.5078-5.2031 5.3203-10.238 7.9688-15.391 0.85156-1.5625 1.5859-3.1445 2.7891-5.6055zm221.32 91.289c-1.6562 0.70703-2.0586 0.75391-2.3672 0.99219-0.51953 0.53125-1.0078 1.0898-1.4648 1.6797-10.316 12.957-21.797 24.785-34.441 35.484-12.648 10.699-26.215 20.062-40.703 28.09-12.105 6.6445-24.355 13.004-36.531 19.531-1.6562 0.89844-3.2422 1.9609-5.7695 3.5 0.98828 0.19922 1.9922 0.32812 3 0.37891 1.6562-0.14453 3.3359-0.30859 4.9922-0.61719 18.824-3.5117 36.953-9.2344 54.383-17.164 6.8945-3.3164 13.59-7.0078 20.074-11.066 3.625-2.168 6.9102-4.7656 9.8516-7.7969 2.9453-3.0312 5.4453-6.3906 7.5039-10.078 2.9336-5.1992 6.1719-10.211 9.1523-15.391 4.7227-8.9062 8.8281-18.086 12.32-27.543zm-6.5508-28.824c-0.33203 0.16016-0.62109 0.375-0.875 0.64062-0.42188 0.61328-0.76953 1.2695-1.0391 1.9609-2.1016 5.4141-4.7656 10.531-7.9922 15.355-3.2266 4.8281-6.9414 9.2461-11.137 13.254-18.43 19.059-38.355 36.395-59.777 52.016-1.75 1.2539-3.3828 2.625-5.4141 4.207 0.875 0.14453 1.0859 0.23828 1.2305 0.16797 0.68359-0.28516 1.3711-0.57031 2.0312-0.92188 14.508-7.5938 28.082-16.59 40.719-27 12.641-10.406 24.078-22 34.309-34.781 4.4922-5.5312 7.0938-12.578 10.285-19.129 1.6094-3.2617 1.043-3.8281-2.3398-5.7695zm-189.59-63.434c-8.418 5.0586-14.188 10.758-16.293 19.457-2.6055 10.762-3.3086 21.648-2.1016 32.652 0.37891 2.0742 0.90625 4.1055 1.582 6.1016 2.8867-9.7188 4.2812-19.41 6.8086-28.773 2.5312-9.3633 6.3398-18.844 10.004-29.438zm139.63 31.445c16.172-1.1328 32.441 0.14062 48.922-2.8828-9.2227-7.1172-34.926-5.5586-48.922 2.8828zm63.32 77.41 0.875 0.40234c0.60547-0.66406 1.1484-1.3711 1.6328-2.1289 5.3398-9.9297 8.7344-20.48 10.191-31.66 0.34375-2.9688 0.28125-5.9336-0.18359-8.8867s-1.3203-5.793-2.5586-8.5117c-1.0117-1.8555-2.125-3.6445-3.3359-5.3672-1.8906 5.6484-3.0508 9.9531-1.207 14.586 2.0352 5.0938 2.8242 10.375 2.3672 15.84-0.65625 6.5273-2.3594 12.77-5.1094 18.727-0.89844 2.2461-1.7734 4.5859-2.6719 6.9297zm-144.85-122.33c-4.375-8.2266-11.609-10.191-16.93-5.3906zm130.86 55.797c0.94531 4.9648 1.6289 5.7227 6.6445 7.6367 2.4102-6.0742 1.0156-7.6836-6.6445-7.6367zm-178.62-61.898c6.8359-0.66016 6.9297-0.70703 9.0352-4.3008-1.7383 0.058593-3.3945 0.46484-4.9648 1.2109-1.5703 0.75-2.9258 1.7812-4.0703 3.0898z" fill="#ff4a4a"/>
 <g clip-path="url(#a)">
  <path d="m402.68 1077.8c0.57031-1.4883 0.82812-2.0078 0.99609-2.5781 6.0039-19.27 18.914-32.77 36.035-42.559 2.8516-1.4766 5.8477-2.5625 8.9844-3.2617 1.5781-0.44531 3.1875-0.6875 4.8242-0.71875 1.6406-0.035156 3.2578 0.14062 4.8516 0.52344 1.5938 0.38281 3.1133 0.96094 4.5586 1.7344 1.4453 0.77734 2.7695 1.7188 3.9727 2.8359 1.3867 1.168 2.9648 1.9531 4.7305 2.3633 11.82 2.5312 18.633 10.191 21.754 21.281 1.1484 3.8398 1.9375 7.7539 2.3594 11.742 0.42578 3.9844 0.47656 7.9766 0.16016 11.977-0.31641 3.9961-1 7.9297-2.0469 11.801-1.0469 3.8711-2.4453 7.6094-4.1875 11.223-2.5664 5.4375-5.1367 10.875-7.707 16.312-0.5625 1.0977-1.0352 2.2344-1.418 3.4062-3.5469 12.812-12.203 22.32-20.949 31.656-4.7305 4.9922-10.191 9.2461-15.137 14.023-3.8906 3.5977-8.0977 6.7734-12.625 9.5312-4.5234 2.7578-9.2773 5.043-14.258 6.8516-2.3633 0.89844-4.5859 1.7734-6.9297 2.5547-1.4102 0.44141-2.8594 0.65234-4.3359 0.62891-1.4805-0.023438-2.9219-0.28125-4.3164-0.76953-5.0039-1.4258-9.7344-3.4844-14.188-6.1719-2.8086-1.5664-5.7812-2.6992-8.9141-3.4062-7.1484-1.9883-13.941-4.8164-20.387-8.4844-6.4492-3.668-12.348-8.0664-17.707-13.195-9.2695-8.6055-18.301-17.496-27.215-26.48-3.3398-3.4492-6.3398-7.1719-9.0117-11.16-1.168-1.707-2.1367-3.5234-2.8984-5.4492-0.76562-1.9219-1.3086-3.9062-1.6328-5.9531-0.32422-2.043-0.41797-4.0977-0.28516-6.1641 0.13672-2.0664 0.49609-4.0898 1.082-6.0781 0.49219-2.1641 1.1602-4.2734 2.0117-6.3242 0.84766-2.0508 1.8633-4.0156 3.0508-5.8945 1.1836-1.8789 2.5156-3.6445 4-5.2969 1.4844-1.6523 3.0977-3.1641 4.8398-4.543 2.6836-1.9297 4.9961-4.2305 6.9336-6.9102 1.9375-2.6758 3.4023-5.5898 4.3945-8.7422 0.99219-2.8164 2.4414-5.3789 4.3516-7.6797 1.9062-2.3008 4.1523-4.2031 6.7383-5.7031 6.7031-4.3047 13.969-7.1953 21.801-8.6758 1.4805-0.28516 2.9766-0.41797 4.4883-0.39453 1.5078 0.019532 3 0.19141 4.4727 0.51953 1.4727 0.32422 2.8984 0.79297 4.2773 1.4102 1.3789 0.61719 2.6797 1.3672 3.9023 2.2461 5.3516 3.6953 9.7266 8.3125 13.125 13.855 4.0195 6.457 7.4961 13.242 11.184 19.91 0.73438 1.2266 1.2773 2.293 2.2695 4.207zm54.977-11.633c0-1.3477 0-3.8047-0.14062-6.2656-0.30859-3.6172-1.1367-4.3984-4.7305-3.9727-2.3008 0.33203-4.5391 0.90625-6.7148 1.7266-1.9609 0.6875-3.7344 1.8672-5.6523 2.7188-2.0781 0.95313-3.9688 2.1914-5.6719 3.7188-1.7031 1.5312-3.1367 3.2773-4.3047 5.2422-3.3359 5.4609-6.9297 10.781-9.957 16.387-3.0234 5.6016-6.8086 10.52-7.7773 16.977-0.44922 2.9766-2.9805 3.9688-5.7461 4.2539-2.7656 0.28516-5.3906 0-6.9297-2.9297-0.66016-1.3164-1.5508-2.4492-2.6719-3.4062-3.8438-3.3242-7.0508-7.1758-9.6211-11.562-1.918-3.2852-3.6445-6.7148-5.7695-9.8594-2.2656-3.4766-4.7656-6.7812-7.4961-9.9062-0.94922-1.0625-2.0039-2-3.1719-2.8164-1.168-0.81641-2.4141-1.4844-3.7383-2.0039-1.3242-0.52344-2.6914-0.88281-4.1016-1.082-1.4102-0.20312-2.8242-0.23438-4.2422-0.10156-3.6641 0.23438-7.2812 1.0859-10.922 1.6289-0.27734 0.015625-0.55078 0.0625-0.82031 0.13281-0.26953 0.070312-0.52734 0.16797-0.77734 0.29297s-0.48437 0.27344-0.70312 0.44531-0.41797 0.36328-0.59766 0.57422c-0.18359 0.21094-0.33984 0.44141-0.47266 0.68359-0.13281 0.24609-0.24219 0.5-0.32422 0.76562-0.082031 0.26562-0.13672 0.53906-0.16406 0.81641-0.027344 0.27734-0.023438 0.55469 0.003906 0.82813-0.26172 4.7852-0.26172 9.5703 0 14.352 2.5078 26.789 14.922 48.754 33.531 67.574 1.5977 1.5586 3.4336 2.7461 5.5078 3.5703 4.7578 1.9414 8.8477 4.8242 12.273 8.6523 1.5742 1.707 3.2695 3.2812 5.082 4.7305 2.5547 2.0547 2.957 1.8438 4.8711-0.875 4.3516-6.2422 8.7734-12.438 13.195-18.633 1.4414-1.9844 2.9805-3.8984 4.4219-5.9102 12.141-17.586 21.816-36.438 29.035-56.555 2.7148-6.4805 4.4805-13.211 5.2969-20.191zm-137.14 14.188c-0.88281 0.55078-1.7227 1.1602-2.5273 1.8203-2.4609 2.4414-4.4961 5.1914-6.1094 8.2578-1.6133 3.0664-2.7305 6.3008-3.3516 9.7109-0.28516 1.2656-0.43359 2.5469-0.45312 3.8438-0.019531 1.3008 0.097656 2.5859 0.34375 3.8594 0.25 1.2734 0.625 2.5078 1.1289 3.7031 0.50391 1.1953 1.1289 2.3281 1.8672 3.3945 2.5352 3.7812 5.3711 7.3203 8.5117 10.617 8.543 8.5586 17.27 17.02 26.176 25.391 5.0039 4.8672 10.539 9.0273 16.609 12.48 6.0664 3.4531 12.473 6.0859 19.215 7.9023 1.7461 0.47266 3.4727 1.0391 5.1992 1.5586-0.24219-1.0273-0.76953-1.8789-1.582-2.5547-2.8398-2.5039-5.6758-5.0586-8.6094-7.4688-1.7656-1.5312-3.6719-2.8555-5.7227-3.9727-19.387-9.9297-33.812-25.062-45.422-43.148-1.9375-2.9492-3.4023-6.1211-4.3867-9.5078-0.98828-3.3906-1.457-6.8477-1.4062-10.379 0-3.8047 0.33203-7.5898 0.49609-11.395-0.046875-1.207-0.046875-2.3633-0.023437-4.1836zm157.62-6.7617c-0.80469 0.89844-1.0156 1.0391-1.0859 1.2266-0.16016 0.46875-0.29297 0.94141-0.40234 1.4219-2.5742 10.605-6.1602 20.859-10.754 30.758-4.5977 9.8984-10.117 19.254-16.559 28.066-5.3672 7.3281-10.945 14.516-16.41 21.797-0.75391 0.99609-1.3945 2.0586-2.3633 3.6914 0.64062-0.16406 1.2734-0.35938 1.8906-0.59375 0.94922-0.56641 1.918-1.1094 2.8164-1.75 10.254-7.3242 19.492-15.766 27.711-25.32 3.2031-3.8906 6.1758-7.9492 8.9141-12.176 1.5703-2.2969 2.8164-4.7578 3.7344-7.3867 0.91797-2.625 1.4766-5.3242 1.6797-8.1016 0.33203-3.9258 0.875-7.8242 1.2305-11.82 0.29688-6.6367 0.14453-13.266-0.44922-19.883zm-11.82-15.418c-0.14453 0.19141-0.26562 0.39453-0.35547 0.61719-0.058594 0.48828-0.058594 0.97656 0 1.4648 0.23828 3.8203 0.066406 7.6172-0.52344 11.398-0.58984 3.7812-1.582 7.4531-2.9766 11.016-5.7109 16.527-12.801 32.441-21.281 47.734-0.6875 1.2305-1.2773 2.5078-2.0586 4.0195 0.57031-0.16406 0.71094-0.16406 0.78125-0.23438 0.070313-0.070313 0.66406-0.73438 0.96875-1.1133 6.5273-8.5781 12.109-17.734 16.742-27.469 4.6328-9.7344 8.2188-19.84 10.758-30.316 0.83984-4.6953 1.125-9.4219 0.85156-14.184 0.023437-2.5781-0.47266-2.7656-3.0273-3.0039zm-130.93 14.637c-3.6406 5.3438-5.5117 10.355-4.3516 16.148 1.4219 7.1562 4.0234 13.855 7.8008 20.098 0.76953 1.1055 1.6133 2.1562 2.5312 3.1445-0.96875-6.6211-2.8359-12.793-3.9023-19.105-1.0625-6.3125-1.4414-13.074-2.1992-20.355zm92.215-19.957c9.3438-5.1523 19.414-8.8867 28.375-15.273-7.5664-1.7227-22.391 6.3398-28.539 15.203zm59.305 28.727h0.63672c0.17578-0.5625 0.30078-1.1367 0.37891-1.7227 0.44531-7.4141-0.44531-14.668-2.6719-21.754-1.2695-3.8125-3.4297-7.0273-6.4766-9.6445-1.1133-0.85938-2.2695-1.6484-3.4766-2.3672 0.42578 3.9023 0.92188 6.7852 3.332 9.0586 2.6367 2.4727 4.5859 5.4023 5.8438 8.793 1.4102 4.082 2.1211 8.2852 2.125 12.602-0.09375 1.6797 0.023438 3.3359 0.14453 4.9648zm-120.64-33.004c-4.918-3.7109-9.7891-2.8867-11.633 1.4648zm93.684-2.9102c1.9414 2.6953 2.5781 2.9805 6.1016 2.7188-0.30859-4.2773-1.5352-4.8672-6.1016-2.7188zm-123.93 12.508c3.9023-2.3633 3.9258-2.3633 4.1875-5.082-1.0273 0.51172-1.9062 1.2109-2.6328 2.0977-0.73047 0.88672-1.2461 1.8789-1.5547 2.9844z" fill="#ff4a4a"/>
 </g>
 <path d="m508.52 148.17c-0.66406-2.9766-0.82812-4.1133-1.1367-5.1992-10.828-37.262-4.7266-72.586 12.723-106.39 3.0078-5.3945 6.6562-10.312 10.949-14.754 1.0195-1.1953 2.1172-2.3203 3.2852-3.375 1.168-1.0547 2.3984-2.0273 3.6875-2.9258 1.293-0.89453 2.6406-1.707 4.0352-2.4297 1.3984-0.72266 2.8359-1.3555 4.3125-1.8945 1.4766-0.53906 2.9844-0.98047 4.5156-1.3281 1.5352-0.34375 3.0859-0.58984 4.6523-0.73828 1.5664-0.14844 3.1367-0.19531 4.707-0.14062 1.5742 0.054687 3.1328 0.21094 4.6875 0.46484 3.5273 0.49219 6.9648 0.12109 10.309-1.1094 21.492-8.418 40.719-3.4062 57.461 11.016 2.957 2.4648 5.793 5.0625 8.5117 7.7891 2.7188 2.7266 5.3008 5.5742 7.7578 8.543 2.4531 2.9688 4.7617 6.043 6.9336 9.2227 2.168 3.1797 4.1836 6.457 6.0508 9.8242 1.8633 3.3672 3.5703 6.8164 5.1172 10.344 1.543 3.5234 2.9258 7.1133 4.1367 10.77 1.2148 3.6523 2.2539 7.3555 3.125 11.105 0.87109 3.75 1.5664 7.5352 2.0859 11.348 1.5781 11.492 3.2305 22.965 4.9648 34.426 0.25781 2.3555 0.70703 4.6719 1.3477 6.9492 7.9219 24.355 4.1172 48.801 0 73.059-2.2227 13.004-6.5508 25.656-9.457 38.586-4.4688 20.266-13.977 38.066-25.75 54.855-2.7188 3.875-5.4609 7.7305-8.3711 11.465-1.7969 2.2031-3.8945 4.0742-6.293 5.6055-2.3984 1.5312-4.9727 2.6484-7.7305 3.3555-9.5078 2.9727-19.242 4.6602-29.199 5.0586-6.168 0.48047-12.145 1.8203-17.926 4.0195-6.7656 2.1914-13.641 3.957-20.621 5.3008-6.9844 1.3438-14.023 2.2539-21.117 2.7305-7.0938 0.48047-14.191 0.51953-21.293 0.12891-7.0977-0.39453-14.148-1.2227-21.145-2.4844-24.023-3.9961-47.977-8.6523-71.836-13.617-9-2-17.746-4.7852-26.246-8.3477-15.559-6.3594-25.656-18.109-31.117-33.953-5.7461-16.547-6.7891-33.668-1.0898-50.219 1.1094-2.9492 1.9766-5.9727 2.5977-9.0625 0.625-3.0938 1-6.2148 1.125-9.3672 0.125-3.1484-0.003906-6.293-0.38281-9.4219-0.375-3.1328-1-6.2109-1.875-9.2422-3.2148-11.137-1.1797-22.531 3.5977-33.242 3.0664-6.9609 6.7695-13.559 11.109-19.805 4.3398-6.2461 9.2344-12.016 14.688-17.316 2.0742-2.0391 4.3359-3.8438 6.7812-5.418 2.4453-1.5742 5.0273-2.8828 7.7422-3.9297 2.7148-1.043 5.5078-1.8047 8.375-2.2773 2.8711-0.47266 5.7617-0.64844 8.668-0.52734 6.1797 0.125 12.285 0.88672 18.309 2.2852 6.0234 1.3984 11.836 3.4023 17.441 6.0117 13.312 6.0781 26.012 13.312 39.109 20.051 2.0352 1.0625 4.0469 2.1523 7.6875 4.207zm75.879-77.051c-1.4922-2.1523-3.9727-6.1719-6.8828-9.8828-4.3516-5.5352-6.5-5.8906-11.68-1.4688-3.3633 2.9727-6.3555 6.2734-8.9844 9.9062-2.3672 3.1914-4.0195 6.9531-6.1484 10.379-2.3438 3.7344-4.0703 7.7305-5.1797 11.996s-1.5508 8.5977-1.3242 12.996c0.47266 12.297 0.30859 24.637 1.418 36.859 1.1133 12.227 0.28516 24.117 5.5586 35.465 2.3633 5.2734-0.56641 9.4609-4.7305 12.957-4.1602 3.5-8.582 5.793-14.188 2.6484-2.4688-1.3945-5.1094-2.2773-7.9219-2.6484-9.707-1.207-18.945-3.9805-27.711-8.3203-6.5977-3.2383-12.98-6.9062-19.746-9.6953-7.4062-3.125-14.996-5.7148-22.77-7.7773-2.6445-0.70703-5.3398-1.0977-8.0781-1.1719-2.7383-0.074219-5.4492 0.17578-8.1328 0.74219-2.6797 0.56641-5.2578 1.4375-7.7344 2.6133-2.4727 1.1758-4.7773 2.6211-6.9102 4.3398-5.6055 4.3047-10.523 9.457-15.773 14.188-0.42969 0.32422-0.82031 0.6875-1.1758 1.0898-0.35938 0.40234-0.66797 0.83594-0.9375 1.3008-0.26953 0.46484-0.48828 0.95312-0.65625 1.4609-0.17188 0.51172-0.28906 1.0312-0.35156 1.5664-0.0625 0.53125-0.074219 1.0664-0.03125 1.6016 0.046875 0.53516 0.14453 1.0625 0.29297 1.5781 0.14844 0.51562 0.35156 1.0117 0.60156 1.4844 0.25 0.47656 0.54688 0.92188 0.88672 1.3359 4.6484 7.9492 9.707 15.625 15.18 23.031 32.512 40.336 75.668 62.418 125.63 72.867 4.2188 0.78906 8.4297 0.74219 12.629-0.14062 4.7773-0.9375 9.5977-1.3281 14.465-1.1719 4.8633 0.15625 9.6484 0.85547 14.359 2.0938 4.3555 1.0938 8.7695 1.8398 13.238 2.2461 6.2695 0.61328 6.6953-0.16406 6.8594-6.5742 0.37891-14.633 0.89844-29.293 1.418-43.93 0.16406-4.7266 0.61328-9.457 0.78125-14.184 1.5586-41.211-4.4453-81.594-13.477-121.62-2.8164-12.414-5.7227-24.852-12.793-38.16zm-205.2 168.39c-0.85156 1.8164-1.5781 3.6875-2.1719 5.6016-0.67188 3.25-1.0938 6.5352-1.2695 9.8477-0.17188 3.3125-0.089844 6.6211 0.23828 9.9219 0.33203 3.3047 0.91016 6.5625 1.7383 9.7734 0.82422 3.2148 1.8906 6.3477 3.1914 9.3984 0.89453 2.332 2.0156 4.5469 3.3633 6.6484 1.3516 2.0977 2.9023 4.0352 4.6562 5.8164 1.75 1.7773 3.668 3.3555 5.7461 4.7383 2.0781 1.3828 4.2773 2.5352 6.5938 3.4609 8.0781 3.3711 16.387 6.0273 24.922 7.9688 22.938 4.7305 45.945 9.0312 69 13.027 6.5742 1.2422 13.203 2.0664 19.883 2.4648 6.6836 0.40234 13.359 0.375 20.039-0.070312 6.6758-0.44922 13.301-1.3203 19.867-2.6094 6.5664-1.293 13.023-2.9922 19.375-5.1055 3.2891-1.1328 6.6445-2.0078 9.9805-3.0234-1.4727-1.3867-3.2148-2.1758-5.2266-2.3672-7.2617-1.0156-14.496-2.125-21.801-2.8594-4.4609-0.57812-8.9297-0.67969-13.41-0.30859-41.637 4.7305-80.867-4.3008-118.72-20.973-3.1055-1.3281-6.0938-2.8828-8.9688-4.6602-2.875-1.7773-5.6016-3.7578-8.1797-5.9414-2.5781-2.1836-4.9805-4.5469-7.207-7.0898-2.2266-2.543-4.25-5.2344-6.0781-8.0781-3.9453-6.1719-7.543-12.555-11.324-18.914-1.1133-1.8672-2.3398-3.7344-4.2344-6.668zm245.91-178.3c-0.24609 1.0273-0.38672 2.0664-0.42578 3.1211 0.23438 0.91406 0.51953 1.8125 0.85156 2.6953 3.5469 9.8633 6.5977 19.871 9.1602 30.031 2.5586 10.16 4.6133 20.418 6.168 30.781 1.5508 10.359 2.5898 20.773 3.1211 31.238 0.52734 10.465 0.54297 20.93 0.042969 31.395-0.85156 17.473-2.1523 34.945-3.1914 52.418-0.14063 2.3633 0 4.7266 0 8.5586 0.85547-0.94141 1.6406-1.9336 2.3633-2.9805 0.94531-1.8906 1.8906-3.8086 2.6484-5.793 8.6875-22.641 14.543-45.992 17.57-70.055 1.0195-9.6523 1.4844-19.328 1.3945-29.035 0.082031-5.375-0.53516-10.668-1.8477-15.879-1.3164-5.2109-3.2852-10.164-5.9102-14.855-3.6641-6.6211-6.9258-13.477-10.52-20.121-5.8164-10.734-13.41-20.383-21.426-31.52zm-35.465-12.031c-0.050781 0.46484-0.011719 0.92187 0.11719 1.3711 0.37109 0.84766 0.84375 1.6367 1.418 2.3633 9.457 11.82 14.613 25.32 18.184 39.672 8.375 32.625 13.891 65.727 16.551 99.305 0.19141 2.6953 0.57031 5.3672 0.94531 8.6523 0.73438-0.89844 0.97266-1.0391 0.99609-1.2539 0.16406-0.92187 0.30469-1.8672 0.375-2.7891 0.72266-10.332 0.90625-20.672 0.55469-31.02-0.34766-10.352-1.2305-20.656-2.6484-30.914-1.4141-10.258-3.3555-20.418-5.8242-30.473-2.4688-10.059-5.4492-19.961-8.9414-29.711-2.9766-8.5117-8.793-16.102-13.809-23.809-2.6953-4.0195-3.7109-3.7617-7.918-1.3945zm-194.72 162.5c-0.14062 12.438 2.1758 22.461 10.168 30.523 9.9062 9.9688 21.207 17.957 33.906 23.973 2.4805 0.98047 5.0195 1.7656 7.6133 2.3672-8.582-9.457-18.113-17.52-26.555-26.504-8.4414-8.9844-16.125-19.391-25.133-30.359zm126.74-129.92c9.4609-18.203 21.73-34.922 29.418-54.758-13.738 5.2969-29.133 34-29.418 54.758zm125.73-16.879 1.0156-0.6875c-0.3125-1.1016-0.72266-2.1641-1.2305-3.1914-3.543-6.1367-7.6172-11.898-12.219-17.289-4.6016-5.3867-9.6562-10.312-15.164-14.77-2.9883-2.3516-6.2422-4.2578-9.7539-5.7188-3.5117-1.4609-7.1562-2.4258-10.934-2.8906-2.6719-0.14062-5.3438-0.14062-8.0156 0 4.8477 5.8164 8.7227 9.9297 14.965 10.996 3.3867 0.58594 6.6602 1.5469 9.8203 2.8828 3.1641 1.3359 6.1328 3.0156 8.9102 5.0391 6.6133 5.0508 12.223 11.039 16.836 17.969 1.8906 2.6211 3.8516 5.1055 5.7695 7.6602zm-228.37 75.09c-11.824-0.73438-18.75 5.7695-17.07 14.707zm147.27-104.2c6.0039 2.3633 7.2812 2.0312 12.672-2.1055-5.0352-6.5234-7.6133-6.2188-12.672 2.1055zm-185.62 151.72c3.8047-7.8242 3.8281-7.9688 1.3242-12.625-1.082 1.9219-1.7422 3.9805-1.9688 6.1758-0.23047 2.1953-0.015625 4.3438 0.64453 6.4492z" fill="#ff4a4a"/>
 <path d="m883.65 280.34c0.73047-2.3633 1.0625-3.0977 1.3008-3.9727 7.4961-29.672 25.797-51.211 51.074-67.336 4.1875-2.4844 8.625-4.3828 13.312-5.6992 1.1758-0.40625 2.375-0.73828 3.5938-0.98828 1.2188-0.25391 2.4492-0.42969 3.6914-0.52344 1.2422-0.097656 2.4844-0.10937 3.7305-0.046874 1.2422 0.066406 2.4766 0.21094 3.7031 0.43359 1.2266 0.22266 2.4297 0.52734 3.6172 0.90625 1.1875 0.37891 2.3438 0.83203 3.4727 1.3594 1.1289 0.52734 2.2188 1.125 3.2695 1.793s2.0547 1.4023 3.0117 2.1992c2.2109 1.7266 4.6914 2.8438 7.4492 3.3555 18.043 2.8633 29.082 13.902 34.711 30.383 1.0312 2.8555 1.9258 5.7539 2.6875 8.6914 0.76562 2.9414 1.3867 5.9102 1.875 8.9062 0.48828 2.9961 0.83203 6.0078 1.043 9.0391 0.20703 3.0273 0.27344 6.0625 0.19922 9.0977s-0.28906 6.0586-0.64062 9.0742c-0.35547 3.0156-0.84766 6.0078-1.4805 8.9805-0.63281 2.9688-1.3984 5.9023-2.3008 8.8008-0.90625 2.8984-1.9414 5.75-3.1094 8.5547-3.4531 8.4609-6.9023 16.902-10.332 25.391-0.76562 1.707-1.3828 3.4609-1.8438 5.2734-4.3281 19.719-16.555 34.828-29.133 49.652-6.6914 7.9648-14.684 14.848-21.777 22.508-11.113 11.988-24.688 20.332-39.371 27.047-3.4023 1.5625-6.8086 3.0977-10.262 4.4453-2.1016 0.79688-4.2734 1.2383-6.5195 1.3281-2.2422 0.089843-4.4453-0.17969-6.6016-0.80859-7.6523-1.7656-14.941-4.4922-21.875-8.1797-4.3867-2.1367-8.9883-3.6055-13.809-4.3984-5.4727-1.207-10.852-2.7461-16.137-4.6133-5.2891-1.8711-10.438-4.0547-15.453-6.5586s-9.8594-5.3047-14.531-8.4023-9.1367-6.4727-13.395-10.121c-14.754-12.293-29.203-24.992-43.461-37.828-5.4102-4.9766-10.328-10.398-14.754-16.27-1.9141-2.4844-3.5273-5.1523-4.8477-8-1.3203-2.8477-2.3086-5.8047-2.9688-8.8711-0.66016-3.0664-0.97656-6.168-0.94531-9.3047s0.40625-6.2344 1.125-9.2891c0.56641-3.3203 1.4141-6.5703 2.5312-9.75 1.1211-3.1797 2.5-6.2422 4.1406-9.1875 1.6367-2.9453 3.5117-5.7305 5.625-8.3594 2.1094-2.625 4.4258-5.0586 6.9492-7.293 1.9414-1.5508 3.7461-3.2461 5.418-5.0859 1.668-1.8398 3.1797-3.8008 4.5312-5.8828 1.3555-2.0859 2.5352-4.2617 3.5391-6.5352 1.0039-2.2734 1.8203-4.6094 2.4492-7.0117 0.62891-2.168 1.4414-4.2656 2.4375-6.2891 1-2.0234 2.168-3.9414 3.5078-5.7578 1.3398-1.8164 2.8281-3.5 4.4688-5.0508 1.6367-1.5508 3.4023-2.9453 5.2891-4.1836 4.8672-3.5156 10.031-6.5312 15.484-9.0469 5.4531-2.5195 11.098-4.4922 16.934-5.918 2.2227-0.55469 4.4805-0.87891 6.7734-0.97266 2.2891-0.089844 4.5664 0.046874 6.8281 0.42187 2.2656 0.37109 4.4648 0.96875 6.6055 1.7891s4.1797 1.8516 6.1094 3.0859c4.1523 2.5469 8 5.4961 11.535 8.8477 3.5391 3.3477 6.6914 7.0273 9.4609 11.039 6.6445 9.457 12.461 19.457 18.633 29.223 0.85156 1.5352 1.75 3.1211 3.4297 5.9102zm82.332-22.176c-0.16406-2.0352-0.23438-5.7695-0.75391-9.457-0.73438-5.4883-2.082-6.5977-7.3555-5.6523-3.4648 0.69141-6.8125 1.7461-10.051 3.168-2.9062 1.207-5.5078 3.1211-8.3203 4.5859-3.0859 1.6094-5.8555 3.6445-8.3125 6.1055-2.4531 2.4609-4.4844 5.2344-6.0898 8.3164-4.5625 8.5586-9.5977 16.883-13.715 25.656-4.1133 8.7695-9.457 16.547-10.355 26.359-0.42578 4.5625-4.207 6.2656-8.3711 6.9297-4.1602 0.66016-8.1562 0.51953-10.734-3.8789-1.1289-1.9219-2.5742-3.5664-4.3281-4.9414-6.1211-4.6953-11.301-10.266-15.535-16.715-3.1914-4.7305-6.0742-9.8594-9.457-14.445-3.7852-5.082-7.9062-9.875-12.367-14.375-1.5234-1.5391-3.2031-2.8789-5.043-4.0195-1.8398-1.1406-3.7852-2.0547-5.8398-2.7344-2.0547-0.68359-4.1602-1.1172-6.3164-1.3008-2.1562-0.1875-4.3047-0.11719-6.4453 0.20312-5.5117 0.6875-10.926 2.3633-16.387 3.3828-0.41406 0.046876-0.82031 0.13672-1.2148 0.26953-0.39844 0.12891-0.77734 0.29688-1.1406 0.50391-0.36328 0.20312-0.70312 0.44531-1.0195 0.71875-0.3125 0.27344-0.59766 0.57422-0.85547 0.90234-0.25391 0.33203-0.47656 0.68359-0.66016 1.0586-0.18359 0.37109-0.33203 0.76172-0.4375 1.1641-0.10938 0.40234-0.17578 0.8125-0.20312 1.2305-0.027343 0.41406-0.011719 0.83203 0.046875 1.2422 0.003906 7.2656 0.39062 14.508 1.1562 21.73 6.0312 40.383 26.672 72.656 56.418 99.633 2.5586 2.2188 5.4453 3.8672 8.6562 4.9414 3.625 1.2617 7.0625 2.918 10.309 4.9609 3.25 2.043 6.2305 4.4258 8.9375 7.1445 2.5273 2.4805 5.2305 4.7539 8.1094 6.8086 4.0195 2.9102 4.7305 2.5547 7.2852-1.75 6.0977-9.8125 12.293-19.551 18.465-29.293 2.0117-3.168 4.1875-6.1953 6.1953-9.457 17.477-27.426 29.465-57.289 39.301-88.121 3.582-9.9922 5.7266-20.285 6.4297-30.875zm-206.71 32.816c-1.3047 0.89844-2.543 1.8867-3.7148 2.9531-3.5195 3.9062-6.375 8.25-8.5664 13.027-2.1953 4.7812-3.625 9.7773-4.2969 14.992-0.32422 1.9414-0.44922 3.8984-0.36719 5.8633 0.082031 1.9688 0.36328 3.9062 0.84766 5.8164 0.48437 1.9102 1.1602 3.75 2.0273 5.5156 0.86719 1.7695 1.9062 3.4297 3.1211 4.9805 4.1445 5.5273 8.7422 10.648 13.785 15.371 13.699 12.355 27.609 24.477 41.734 36.363 3.9805 3.4609 8.1641 6.6602 12.555 9.5938 4.3867 2.9336 8.9414 5.5781 13.664 7.9336s9.5742 4.4023 14.559 6.1406c4.9805 1.7383 10.055 3.1562 15.215 4.2539 2.6719 0.54297 5.3203 1.2773 7.9922 1.9141-0.44531-1.5391-1.3125-2.7852-2.6016-3.7344-4.5156-3.5938-9.0078-7.2344-13.688-10.641-2.8047-2.1562-5.8008-4-8.9883-5.5312-30.195-13.43-53.32-35.16-72.426-61.594-3.1797-4.3086-5.6562-8.9883-7.4336-14.043-1.7773-5.0508-2.7734-10.254-2.9922-15.605-0.23828-5.7695 0-11.559-0.19141-17.328-0.023438-1.75-0.14062-3.5-0.23438-6.2422zm238.27-23.359c-1.1328 1.3945-1.4414 1.6289-1.5352 1.9375-0.21484 0.71484-0.37891 1.4375-0.49609 2.1758-3.0156 16.285-7.5938 32.117-13.734 47.5s-13.723 30.02-22.75 43.906c-7.543 11.559-15.395 22.934-23.055 34.398-1.0664 1.5859-1.9648 3.2656-3.4766 5.793 0.96875-0.28125 1.9141-0.62891 2.8359-1.0391 1.4219-0.89844 2.793-1.8711 4.1172-2.9102 14.934-11.93 28.223-25.477 39.863-40.641 4.543-6.1641 8.7188-12.562 12.535-19.199 2.168-3.6211 3.832-7.457 4.9922-11.516 1.1641-4.0547 1.7852-8.1914 1.8633-12.41 0.14062-5.9844 0.66406-11.824 0.875-17.898-0.007813-10.078-0.6875-20.113-2.0352-30.098zm-19.316-22.391c-0.21484 0.30078-0.36328 0.63281-0.44922 0.99219-0.082031 0.74219-0.082031 1.4805 0 2.2227 0.6875 5.7617 0.74219 11.531 0.16406 17.305-0.57812 5.7773-1.7734 11.418-3.5938 16.93-7.3281 25.523-16.785 50.23-28.375 74.125-0.94531 1.8906-1.75 3.875-2.7891 6.2617 0.82812-0.32812 1.0625-0.32812 1.1602-0.44922 0.47266-0.56641 0.94531-1.1562 1.3711-1.7695 9.2461-13.523 17.008-27.855 23.277-42.992 6.2695-15.133 10.918-30.754 13.941-46.855 1.3477-7.0938 0.42188-14.469 0-21.68-0.050781-3.6875-0.78125-3.9023-4.707-4.0898zm-197.18 33.102c-5.0625 8.4141-7.4727 16.148-5.25 24.824 2.7734 10.699 7.2734 20.613 13.5 29.742 1.3125 1.6758 2.7305 3.25 4.2578 4.7305-2.0352-9.9297-5.3438-19.152-7.4961-28.609s-3.2617-19.648-4.8945-30.711zm138.02-37.832c13.738-8.582 28.703-15.105 41.828-25.512-11.445-1.9844-33.387 11.516-41.828 25.418zm92.215 38.609h0.97266c0.23047-0.85938 0.37891-1.7344 0.44922-2.625 0.058593-11.273-1.8945-22.191-5.8672-32.746-1.0859-2.8047-2.5312-5.4102-4.3359-7.8203-1.8008-2.4062-3.8945-4.5312-6.2812-6.3633-1.75-1.1602-3.5625-2.2148-5.4375-3.168 0.96875 5.8867 1.9648 10.238 5.793 13.453 4.1836 3.5391 7.3789 7.8164 9.5781 12.836 2.4961 6.0664 3.9219 12.371 4.2773 18.918 0.26172 2.457 0.59375 4.9414 0.875 7.4219zm-185.19-40.004c-7.7305-5.1992-15.039-3.5469-17.473 3.1914zm141.73-12.199c3.1719 3.9492 4.1406 4.3008 9.4609 3.6172-0.89844-6.3828-2.7891-7.2578-9.5312-3.6172zm-186.8 29.27c5.6992-3.8281 5.7695-3.9023 5.9336-8.0625-1.5156 0.86719-2.7891 2-3.8281 3.4062-1.0352 1.4023-1.7461 2.9531-2.1289 4.6562z" fill="#ff4a4a"/>
 <path d="m757.93 588.84c-0.19141-1.5625-0.21484-2.1758-0.33203-2.7422-3.7383-19.812 1.2305-37.832 11.824-54.379 1.8203-2.6484 3.957-5.0117 6.4062-7.0938 1.1797-1.1406 2.4844-2.1094 3.9141-2.9102 1.4297-0.80469 2.9375-1.4102 4.5234-1.8242s3.1992-0.62109 4.8359-0.62109c1.6406 0 3.2539 0.21094 4.8398 0.625 1.7969 0.44531 3.5938 0.44531 5.3906 0 11.586-3.2852 21.281 0.23828 29.18 8.5352 2.832 2.8398 5.3828 5.918 7.6445 9.2305 2.2617 3.3164 4.1992 6.8086 5.8125 10.484 1.6133 3.6719 2.875 7.4648 3.7852 11.371s1.4531 7.8672 1.625 11.875c0.26172 6.0039 0.54297 12.035 0.85156 18.039 0.011719 1.2344 0.12891 2.4531 0.35547 3.6641 2.8828 12.98-0.30859 25.441-3.6406 37.832-1.7734 6.6172-4.7305 12.957-6.7656 19.504-1.7461 5-3.9727 9.7812-6.6758 14.336-2.7031 4.5586-5.8281 8.8047-9.3789 12.738-1.582 1.8672-3.2148 3.7344-4.8945 5.5078-1.0391 1.0508-2.2188 1.918-3.5352 2.5898-1.3203 0.67578-2.7109 1.1289-4.1719 1.3594-5.0664 1.0625-10.18 1.4492-15.348 1.1562-3.2109-0.054688-6.3633 0.34766-9.457 1.207-7.2422 1.5977-14.57 2.2891-21.984 2.0781-7.4141-0.21094-14.691-1.3242-21.832-3.332-12.223-3.2617-24.379-6.8555-36.484-10.594-4.5664-1.4844-8.9648-3.3711-13.195-5.6484-1.8359-0.95703-3.543-2.1016-5.1211-3.4414-1.5781-1.3359-2.9922-2.832-4.2383-4.4844-1.2461-1.6523-2.293-3.4219-3.1445-5.3086-0.84766-1.8867-1.4805-3.8438-1.8945-5.8711-0.58203-2.1406-0.98047-4.3203-1.1914-6.5273-0.21094-2.2109-0.23828-4.4258-0.074218-6.6406 0.16406-2.2148 0.51172-4.3984 1.0469-6.5547 0.53125-2.1523 1.2461-4.25 2.1328-6.2852 1.457-2.9609 2.4141-6.0781 2.8672-9.3477 0.45312-3.2734 0.37891-6.5312-0.21875-9.7773-0.44922-2.957-0.37109-5.8984 0.23047-8.8242 0.60156-2.9297 1.6914-5.6602 3.2695-8.1992 3.8945-6.9453 8.9492-12.914 15.156-17.898 1.1797-0.95312 2.4375-1.7734 3.7852-2.4688 1.3438-0.69141 2.7461-1.2422 4.2031-1.6484s2.9414-0.66016 4.4531-0.76562c1.5078-0.10156 3.0117-0.050781 4.5117 0.15234 6.4492 0.74219 12.473 2.7617 18.066 6.0547 6.5742 3.8047 12.84 8.1797 19.223 12.316 0.875 0.61719 1.8711 1.3242 3.6445 2.5312zm43.082-36.059c-0.66406-1.1797-1.75-3.4023-3.0742-5.4609-1.9648-3.0742-3.0742-3.3555-5.9609-1.3242-1.8906 1.3906-3.6094 2.9648-5.1523 4.7305-1.3945 1.5352-2.3672 3.4023-3.6914 5.0586-1.4141 1.8125-2.5273 3.7969-3.332 5.9492-0.80859 2.1562-1.2734 4.3789-1.3945 6.6758-0.35547 6.3594-1.043 12.746-1.0898 19.129-0.046875 6.3828-1.0625 12.484 1.1133 18.633 1.0156 2.8359-0.75781 4.9141-3.0742 6.4531-2.3164 1.5352-4.7305 2.5781-7.4727 0.66016-1.2148-0.82812-2.5391-1.4141-3.9727-1.75-4.957-1.1133-9.6016-3.0039-13.926-5.6719-3.2422-2.0117-6.3633-4.2344-9.7188-6.0078-3.6836-1.9766-7.4805-3.6953-11.398-5.1523-1.3359-0.49609-2.707-0.83203-4.1211-1.0078-1.4141-0.17187-2.8281-0.17969-4.2461-0.019531-1.4141 0.16016-2.793 0.48438-4.1289 0.96875-1.3398 0.48438-2.6055 1.1172-3.7969 1.9023-3.0977 1.9375-5.8867 4.375-8.8672 6.5742-0.23438 0.14453-0.45312 0.3125-0.65234 0.50391-0.20313 0.19141-0.38281 0.39844-0.54297 0.625-0.16016 0.22656-0.29688 0.46875-0.41016 0.72266-0.10937 0.25391-0.19531 0.51562-0.25781 0.78516-0.058594 0.27344-0.089844 0.54688-0.09375 0.82422-0.003906 0.27734 0.015625 0.55078 0.066406 0.82422 0.050782 0.27344 0.12891 0.53906 0.23047 0.79688 0.10547 0.25781 0.23438 0.5 0.38672 0.73438 2.1992 4.2539 4.1133 8.6992 6.7148 12.695 14.824 22.461 36.082 36.031 61.359 43.906 2.1484 0.61328 4.332 0.79297 6.5508 0.54297 5.0938-0.5 10.047 0.13672 14.848 1.9141 2.1992 0.78516 4.4453 1.3945 6.7383 1.8203 3.2188 0.61719 3.4766 0.26172 3.8789-3.0469 0.92187-7.5664 1.9141-15.109 2.9102-22.652 0.32812-2.3633 0.77734-4.7266 1.1094-7.2812 2.4727-21.234 2.1641-42.426-0.92188-63.578-0.58594-7.0391-2.1211-13.863-4.6094-20.477zm-114.42 76.867c-0.54688 0.89844-1.0117 1.8359-1.3945 2.8125-1.0391 3.3047-1.5625 6.6914-1.5625 10.156 0 3.4648 0.52344 6.8477 1.5625 10.152 0.33984 1.25 0.80469 2.4531 1.3945 3.6055s1.293 2.2305 2.1055 3.2383c0.81641 1.0078 1.7227 1.9219 2.7266 2.7383 1.0039 0.82031 2.082 1.5273 3.2305 2.125 4.0117 2.1367 8.1719 3.9258 12.484 5.3633 11.633 3.5938 23.316 6.9531 35.043 10.168 6.7109 1.9414 13.555 3.0078 20.535 3.2031 6.9805 0.19922 13.871-0.48438 20.68-2.043 1.75-0.40234 3.5234-0.71094 5.2969-1.0664-0.68359-0.80078-1.543-1.3047-2.5781-1.5117-3.6875-0.875-7.4023-1.8203-11.137-2.5547-2.2734-0.51172-4.5742-0.78516-6.9062-0.82812-21.777 0.35547-41.613-6.2422-60.367-16.738-3.0938-1.6914-5.875-3.8008-8.3359-6.3281-2.4609-2.5234-4.5-5.3594-6.1094-8.4961-1.75-3.4062-3.2852-6.8789-4.918-10.309zm135.96-80.012c-0.28125 1.1602-0.42578 1.3984-0.37891 1.6094 0.070313 0.48828 0.17188 0.96875 0.30859 1.4414 2.7031 10.574 4.3516 21.309 4.9453 32.207 0.59375 10.898 0.11719 21.75-1.4219 32.555-1.3008 8.9844-2.8359 17.969-4.2578 26.953-0.1875 1.2266-0.25781 2.4805-0.44922 4.4219 0.875-0.89844 1.207-1.1367 1.3984-1.4219 0.56641-0.94531 1.1562-1.8906 1.6523-2.8828 5.6289-11.312 9.8125-23.133 12.559-35.465 0.99609-4.9414 1.7227-9.9219 2.1719-14.941 0.30469-2.7695 0.24609-5.5273-0.17969-8.2773-0.42578-2.75-1.1992-5.3984-2.3242-7.9453-1.5625-3.6172-2.9102-7.3047-4.4453-10.945-2.8281-5.9805-6.0352-11.75-9.625-17.309zm-17.734-8.0117c-0.035156 0.23438-0.035156 0.47266 0 0.70703 0.15625 0.47266 0.36328 0.92188 0.61719 1.3477 2.0039 3.2578 3.6328 6.6914 4.8828 10.305 1.2539 3.6133 2.1016 7.3203 2.5391 11.117 2.7148 17.234 3.9258 34.57 3.6445 52.016v4.5156c0.42578-0.40234 0.56641-0.47266 0.58984-0.56641 0.11719-0.47266 0.23438-0.96875 0.33203-1.4414 1.7734-10.645 2.4375-21.359 1.9922-32.141-0.44531-10.781-1.9922-21.402-4.6406-31.863-1.4883-4.5586-3.4727-8.8828-5.9609-12.98-1.1797-2.082-1.6289-2.0117-3.9961-1.0156zm-108.77 74.402c-0.70703 6.457 0 11.824 3.7383 16.316 4.6133 5.6836 10.059 10.414 16.336 14.184 1.2344 0.64062 2.5117 1.1758 3.832 1.6094-3.9727-5.3906-8.5117-9.9531-12.414-15.035-3.9023-5.0859-7.3789-10.926-11.492-17.074zm72-60.879c5.8438-8.9609 12.961-17 17.926-26.859-7.3789 2.0547-16.766 16.172-17.926 26.859zm65.855-2.5078 0.54297-0.30859c-0.097656-0.57422-0.25391-1.1328-0.47266-1.6758-3.082-6.7617-7.2734-12.746-12.578-17.945-1.4219-1.3711-3-2.5234-4.7383-3.457-1.7422-0.92969-3.5742-1.6094-5.5-2.0312-1.375-0.19531-2.7539-0.32031-4.1406-0.375 2.1992 3.2383 4.0195 5.5547 7.0938 6.4297 3.4883 0.94531 6.5859 2.6133 9.293 5.0117 3.1719 2.9453 5.7812 6.3281 7.8281 10.145 0.89844 1.418 1.7969 2.8125 2.6719 4.207zm-121.85 27.523c-6.0508-0.97266-9.9766 2.0312-9.457 6.7383zm81.344-46.578c3 1.4648 3.6641 1.418 6.668-0.47266-2.3438-3.6172-3.6445-3.5938-6.668 0.47266zm-103.52 69.25c2.3672-3.8789 2.3672-3.9492 1.3008-6.4766-0.65625 0.94141-1.0977 1.9766-1.3242 3.1016-0.22656 1.1289-0.21875 2.2539 0.023438 3.375z" fill="#ff4a4a"/>
</svg>
