<?xml version="1.0" encoding="UTF-8"?>
<svg width="1587" height="1587" version="1.0" viewBox="0 0 1190.2 1190.2" xmlns="http://www.w3.org/2000/svg" zoomAndPan="magnify">
 <defs>
  <clipPath id="a">
   <path d="m0 0h1189.5v1189.5h-1189.5z"/>
  </clipPath>
  <clipPath id="b">
   <path d="m1 5.207h1185v1179.8h-1185z"/>
  </clipPath>
 </defs>
 <g clip-path="url(#a)" fill="#fff">
  <path d="m0 0h1189.5v1189.5h-1189.5z"/>
  <path d="m0 0h1189.5v1189.5h-1189.5z"/>
 </g>
 <g clip-path="url(#b)">
  <path d="m70.312 52.816c-3.2578 4.293-6.7812 8.4531-10.465 12.43-1.8555 2.0078-3.75 3.9531-5.6836 5.8477-2.1211 2.0781-4.4102 3.9727-7.5352 3.9727-3.1289 0-6.1367-1.7891-8.8906-3.3125-2.1797-1.1641-4.3047-2.4492-6.3711-3.8555-4.3203-2.918-8.3672-6.1797-12.133-9.7812-4.2461-3.8672-7.6484-8.3711-10.215-13.508-3.0586-4.7852-6.1211-10.988-4.2109-16.738 3.375-10.141 15.801-9.1445 23.207-4.4531 3.3789 2.2656 6.4375 4.9062 9.1758 7.9219 2.7383 3.0117 5.0742 6.3086 7.0117 9.8906l1.418-3.6719c1.8281-4.7188 3.707-9.5938 7.0078-13.52 0.82031-1.0234 1.7383-1.9492 2.7539-2.7812 1.0156-0.83203 2.1055-1.5547 3.2695-2.1602 1.1641-0.60547 2.3789-1.082 3.6406-1.4375 1.2656-0.35156 2.5508-0.57422 3.8594-0.66016 1.2656-0.082031 2.5195 0.007812 3.7617 0.27344 1.2383 0.26172 2.4219 0.69141 3.543 1.2852 1.1211 0.59375 2.1406 1.3281 3.0586 2.207 0.91797 0.875 1.6992 1.8633 2.3398 2.957 5.9336 10.297-2.3984 21.18-8.543 29.094zm161.61 105.28c-0.64453-1.0938-1.4219-2.082-2.3398-2.957-0.91797-0.87891-1.9375-1.6133-3.0586-2.207-1.1211-0.59375-2.3047-1.0234-3.543-1.2852-1.2422-0.26562-2.4961-0.35547-3.7617-0.27344-1.3086 0.082031-2.5977 0.30078-3.8594 0.65234-1.2656 0.35156-2.4766 0.83203-3.6406 1.4375-1.1641 0.60547-2.2539 1.3242-3.2656 2.1602-1.0117 0.83203-1.9297 1.7617-2.7461 2.7891-3.3125 3.9102-5.1797 8.7891-7.0078 13.52l-1.418 3.6602c-1.9414-3.5781-4.2812-6.875-7.0195-9.8828-2.7422-3.0117-5.8008-5.6523-9.1797-7.918-7.4062-4.6914-19.871-5.6875-23.211 4.4531-1.9062 5.75 1.1562 11.93 4.2148 16.738 2.5742 5.1367 5.9805 9.6367 10.227 13.508 3.7695 3.6016 7.8125 6.8633 12.133 9.7812 2.0547 1.3242 4.1875 2.6484 6.3594 3.8711 2.7695 1.5234 5.6562 3.3398 8.9023 3.3125 3.2461-0.027344 5.4023-1.9336 7.5234-3.9766 2.1211-2.043 3.8398-3.8555 5.6836-5.8438 3.6836-3.9766 7.207-8.1406 10.516-12.434 6.043-7.9648 14.387-18.809 8.4922-29.105zm226.18-140.03c-0.64453-1.0938-1.4258-2.082-2.3398-2.957-0.91797-0.87891-1.9375-1.6133-3.0586-2.207-1.125-0.59375-2.3047-1.0195-3.5469-1.2852-1.2383-0.26562-2.4922-0.35547-3.7578-0.26953-1.3125 0.082031-2.5977 0.29688-3.8633 0.64844-1.2656 0.35156-2.4805 0.83203-3.6445 1.4375-1.1641 0.60547-2.2539 1.3281-3.2695 2.1602-1.0117 0.83594-1.9297 1.7656-2.75 2.7891-3.2969 3.9766-5.1797 8.7891-7.0078 13.52l-1.4141 3.6602c-1.9414-3.5781-4.2773-6.875-7.0156-9.8867-2.7383-3.0078-5.7969-5.6484-9.1719-7.9141-7.4062-4.6914-19.871-5.6875-23.211 4.4531-1.9219 5.7539 1.1523 11.93 4.2148 16.738 2.5625 5.1484 5.9648 9.6602 10.211 13.535 3.7734 3.5977 7.8164 6.8594 12.133 9.7812 2.0703 1.3242 4.1875 2.6484 6.375 3.8711 2.7539 1.5234 5.6562 3.3398 8.8867 3.3125 3.2344-0.027344 5.418-1.9375 7.5391-3.9766 2.1172-2.043 3.8398-3.8555 5.6797-5.8438 3.6836-3.9766 7.207-8.1406 10.52-12.434 6.0938-7.9531 14.426-18.836 8.4922-29.133zm207.89 460.57c-0.64063-1.0938-1.4219-2.082-2.3359-2.9609-0.91797-0.875-1.9336-1.6094-3.0547-2.2031-1.1211-0.59375-2.3008-1.0234-3.543-1.2891-1.2383-0.26172-2.4922-0.35156-3.7578-0.26563-1.3086 0.078126-2.5977 0.29688-3.8633 0.64844s-2.4805 0.82812-3.6445 1.4336c-1.1641 0.60938-2.2539 1.3281-3.2695 2.1641-1.0117 0.83203-1.9297 1.7656-2.7461 2.7891-3.3008 3.9102-5.1797 8.7891-7.0078 13.508l-1.418 3.6719c-1.9375-3.5859-4.2734-6.8828-7.0156-9.8945-2.7383-3.0156-5.8008-5.6562-9.1875-7.9219-7.3906-4.6914-19.867-5.6836-23.191 4.457-1.9219 5.7617 1.1367 11.926 4.2109 16.738 2.5625 5.1445 5.9688 9.6562 10.211 13.531 3.7695 3.6055 7.8125 6.8672 12.137 9.7812 2.0664 1.3281 4.1836 2.6523 6.3594 3.8867 2.7656 1.5078 5.6562 3.3398 8.8984 3.3125 3.2461-0.027343 5.418-1.9375 7.5391-3.9766 2.1211-2.043 3.8281-3.8555 5.6836-5.8594 3.6836-3.9766 7.207-8.125 10.516-12.434 6.082-7.9492 14.426-18.832 8.4805-29.117zm345.38 30.801c-0.64453-1.0938-1.4258-2.0781-2.3438-2.957-0.91797-0.875-1.9375-1.6094-3.0586-2.2031s-2.3008-1.0234-3.543-1.2891c-1.2422-0.26172-2.4961-0.35156-3.7617-0.26953-1.3086 0.082031-2.5938 0.30078-3.8594 0.65234-1.2617 0.35156-2.4766 0.82812-3.6406 1.4336-1.1641 0.60938-2.25 1.3281-3.2656 2.1602-1.0117 0.83594-1.9258 1.7656-2.7461 2.793-3.3086 3.9102-5.1797 8.7852-7.0078 13.52-0.47656 1.2188-0.95313 2.4375-1.4141 3.6562-1.9492-3.5781-4.2969-6.875-7.043-9.8867-2.7461-3.0078-5.8125-5.6484-9.1992-7.9141-7.4062-4.6914-19.871-5.6836-23.207 4.4531-1.9102 5.7539 1.1523 11.93 4.2109 16.742 2.5703 5.1445 5.9805 9.6562 10.227 13.531 3.7695 3.5977 7.8086 6.8594 12.121 9.7812 2.0664 1.3281 4.1992 2.6523 6.3711 3.8711 2.7695 1.5234 5.6562 3.3398 8.9023 3.3125 3.2461-0.023437 5.4062-1.9336 7.5234-3.9766 2.1211-2.0391 3.8438-3.8555 5.6836-5.8438 3.6836-3.9766 7.207-8.1367 10.52-12.434 6.1328-7.9492 14.477-18.832 8.5312-29.133zm-910.05-167.49c-0.64453-1.0938-1.4219-2.0781-2.3359-2.957-0.91797-0.87891-1.9375-1.6133-3.0586-2.207-1.1172-0.59375-2.3008-1.0195-3.5391-1.2852-1.2422-0.26563-2.4922-0.35547-3.7578-0.26953-1.3164 0.078125-2.6094 0.29688-3.8789 0.64453-1.2695 0.35156-2.4883 0.83203-3.6602 1.4375-1.1719 0.60547-2.2656 1.3242-3.2852 2.1602-1.0195 0.83594-1.9414 1.7656-2.7656 2.7969-3.3008 3.9727-5.1797 8.8008-7.0078 13.516l-1.418 3.7148c-1.9336-3.5898-4.2656-6.8945-7-9.9141-2.7383-3.0195-5.7969-5.668-9.1758-7.9414-7.4062-4.6914-19.871-5.6875-23.207 4.4531-1.9219 5.7539 1.1367 11.93 4.2109 16.742 2.5625 5.1445 5.9688 9.6562 10.215 13.531 3.7695 3.6016 7.8125 6.8633 12.133 9.7812 2.0664 1.3945 4.1914 2.6875 6.3711 3.8711 2.7578 1.5234 5.6445 3.3516 8.8906 3.3125 3.2461-0.039063 5.418-1.9336 7.5352-3.9766 2.1211-2.0391 3.8281-3.8438 5.6836-5.8438 3.6836-3.9766 7.207-8.1406 10.52-12.434 6.0781-7.9531 14.41-18.832 8.4648-29.133zm557.14-187.68c-0.64453-1.0938-1.4219-2.082-2.3398-2.9609-0.91797-0.87891-1.9375-1.6172-3.0586-2.2109-1.1211-0.59375-2.3047-1.0234-3.543-1.2891-1.2422-0.26562-2.4961-0.35547-3.7656-0.27344-1.3086 0.085937-2.5938 0.30469-3.8594 0.66016-1.2617 0.35156-2.4766 0.83203-3.6406 1.4414-1.1602 0.60547-2.25 1.3281-3.2617 2.1602-1.0156 0.83594-1.9297 1.7656-2.75 2.793-3.3086 3.9102-5.1797 8.7852-7.0039 13.504l-1.418 3.6719c-1.9375-3.582-4.2773-6.8789-7.0195-9.8945-2.7383-3.0117-5.8008-5.6523-9.1836-7.918-7.4023-4.6914-19.867-5.6875-23.207 4.4531-1.9062 5.7656 1.1523 11.93 4.2109 16.738 2.5703 5.1484 5.9766 9.6602 10.227 13.535 3.7656 3.6016 7.8047 6.8633 12.121 9.7812 2.0664 1.3906 4.1992 2.6484 6.3711 3.8828 2.7695 1.5117 5.6562 3.3398 8.9023 3.3008 3.2461-0.039063 5.4062-1.9375 7.5234-3.9766 2.1211-2.043 3.8438-3.8438 5.6836-5.8477 3.6836-3.9766 7.207-8.1367 10.52-12.43 6.1445-7.9531 14.492-18.836 8.4922-29.121zm-205.32 159.38c-0.64453-1.0938-1.4258-2.082-2.3438-2.957-0.91797-0.87891-1.9375-1.6133-3.0586-2.207-1.1211-0.59375-2.3008-1.0195-3.543-1.2852-1.2422-0.26562-2.4961-0.35547-3.7617-0.26953-1.3086 0.082031-2.5938 0.29688-3.8594 0.64844-1.2617 0.35156-2.4766 0.83203-3.6406 1.4375s-2.25 1.3242-3.2656 2.1602c-1.0117 0.83203-1.9258 1.7656-2.7461 2.7891-3.3086 3.9102-5.1797 8.7891-7.0078 13.52l-1.4141 3.6602c-1.9414-3.582-4.2773-6.8828-7.0195-9.8945-2.7383-3.0117-5.8008-5.6523-9.1836-7.9219-7.4023-4.6914-19.871-5.6836-23.207 4.4688-1.9062 5.75 1.1523 11.93 4.2109 16.738 2.5703 5.1445 5.9766 9.6523 10.227 13.52 3.7695 3.6055 7.8086 6.8672 12.121 9.7969 2.0664 1.3242 4.1992 2.6484 6.3711 3.8711 2.7695 1.5234 5.6562 3.3398 8.9023 3.3125 3.2461-0.027344 5.4062-1.9375 7.5234-3.9766 2.1211-2.043 3.8438-3.8555 5.6836-5.8594 3.6836-3.9766 7.207-8.125 10.52-12.434 6.1445-7.9492 14.492-18.832 8.4922-29.117zm-204.69 194.91c-0.64062-1.0938-1.418-2.082-2.332-2.957-0.91797-0.87891-1.9336-1.6133-3.0547-2.207s-2.3047-1.0234-3.543-1.2891c-1.2422-0.26172-2.4961-0.35156-3.7578-0.26562-1.3125 0.082031-2.5977 0.30078-3.8633 0.65234-1.2656 0.35156-2.4805 0.82812-3.6445 1.4375-1.1641 0.60547-2.2539 1.3242-3.2695 2.1602-1.0117 0.83203-1.9297 1.7617-2.75 2.7891-3.2969 3.9766-5.1797 8.7852-7.0078 13.504l-1.418 3.6719c-1.9336-3.582-4.2734-6.8828-7.0117-9.8945-2.7422-3.0117-5.8047-5.6523-9.1875-7.918-7.3906-4.6914-19.871-5.6875-23.195 4.4531-1.9219 5.7656 1.1406 11.93 4.2109 16.742 2.5664 5.1445 5.9688 9.6562 10.215 13.531 3.7656 3.6055 7.8125 6.8672 12.133 9.7812 2.0664 1.3906 4.1875 2.6523 6.3594 3.8828 2.7695 1.5117 5.6562 3.3398 8.9023 3.3125 3.2461-0.023437 5.418-1.9336 7.5391-3.9766 2.1172-2.0391 3.8281-3.8555 5.6797-5.8555 3.6836-3.9766 7.207-8.125 10.52-12.434 6.0938-7.9531 14.465-18.836 8.4766-29.121zm934.98-181.69c-0.64062-1.0938-1.4219-2.0781-2.3359-2.957-0.91797-0.875-1.9336-1.6094-3.0547-2.2031-1.1211-0.59375-2.3008-1.0234-3.543-1.2891-1.2383-0.26172-2.4922-0.35547-3.7539-0.26953-1.3125 0.082031-2.5977 0.29688-3.8633 0.65234-1.2656 0.35156-2.4805 0.82812-3.6445 1.4336-1.1641 0.60547-2.2539 1.3281-3.2695 2.1602-1.0117 0.83594-1.9297 1.7656-2.75 2.793-3.2969 3.9766-5.1797 8.7852-7.0078 13.52l-1.418 3.6562c-1.9375-3.582-4.2773-6.875-7.0156-9.8867-2.7383-3.0117-5.8008-5.6484-9.1836-7.9141-7.3906-4.6914-19.871-5.6875-23.195 4.4531-1.9219 5.7539 1.1406 11.93 4.2148 16.742 2.5625 5.1445 5.9688 9.6523 10.211 13.531 3.7695 3.6016 7.8164 6.8633 12.133 9.7812 2.0664 1.3242 4.1875 2.6523 6.3594 3.8711 2.7695 1.5234 5.6562 3.3398 8.9023 3.3125 3.2461-0.027343 5.418-1.9336 7.5391-3.9766 2.1172-2.0391 3.8281-3.8555 5.6797-5.8438 3.6836-3.9766 7.207-8.1406 10.52-12.434 6.082-7.9531 14.426-18.832 8.4766-29.133zm-343.75-314.52c-0.64062-1.0938-1.418-2.082-2.3359-2.9609-0.91406-0.87891-1.9336-1.6172-3.0547-2.2148-1.1211-0.59375-2.3008-1.0273-3.5391-1.293-1.2422-0.26562-2.4961-0.35938-3.7617-0.27734-1.3125 0.082032-2.6016 0.30078-3.8711 0.65234-1.2656 0.35547-2.4805 0.83594-3.6484 1.4453-1.1641 0.60547-2.2539 1.332-3.2695 2.168-1.0156 0.83594-1.9297 1.7695-2.75 2.8008-3.2969 3.9102-5.1797 8.7891-7.0078 13.52l-1.418 3.6562c-1.9336-3.582-4.2695-6.8789-7.0078-9.8945-2.7383-3.0117-5.7969-5.6523-9.1797-7.918-7.3906-4.6914-19.867-5.6875-23.195 4.4531-1.918 5.7656 1.1406 11.93 4.2148 16.754 2.5625 5.1406 5.9688 9.6484 10.211 13.52 3.7852 3.6094 7.8477 6.8672 12.188 9.7812 2.0664 1.3242 4.1875 2.6523 6.3594 3.8828 2.7695 1.5117 5.6562 3.3398 8.9023 3.3125 3.2461-0.023437 5.4062-1.9336 7.5352-3.9766 2.1328-2.0391 3.832-3.8555 5.6836-5.8555 3.6836-3.9766 7.207-8.125 10.52-12.434 6.0391-7.9531 14.371-18.836 8.4258-29.121zm214.86 150.98c-0.64062-1.0938-1.4219-2.0781-2.3398-2.957s-1.9375-1.6133-3.0586-2.207c-1.1211-0.59375-2.3008-1.0195-3.543-1.2852-1.2422-0.26562-2.4961-0.35547-3.7617-0.26953-1.3086 0.082031-2.5977 0.29688-3.8594 0.65234-1.2656 0.35156-2.4805 0.82812-3.6445 1.4336-1.1641 0.60938-2.2539 1.3281-3.2695 2.1602-1.0156 0.83594-1.9297 1.7656-2.75 2.7891-3.3008 3.9766-5.1797 8.7891-7.0078 13.52l-1.418 3.6602c-1.9336-3.582-4.2695-6.8789-7.0078-9.8906-2.7383-3.0078-5.7969-5.6484-9.1797-7.9102-7.4062-4.6914-19.871-5.6875-23.207 4.4531-1.9102 5.7539 1.1523 11.93 4.2109 16.738 2.5664 5.1602 5.9766 9.6875 10.227 13.574 3.7734 3.5977 7.8164 6.8594 12.133 9.7812 2.0664 1.3242 4.1875 2.6523 6.375 3.8711 2.7539 1.5234 5.6562 3.3398 8.8867 3.3125s5.418-1.9336 7.5391-3.9766c2.1172-2.0391 3.8398-3.8555 5.6797-5.8438 3.6836-3.9766 7.207-8.1367 10.52-12.445 6.082-7.9531 14.414-18.887 8.4766-29.16zm120.24-145.44c-0.64453-1.0938-1.4258-2.082-2.3398-2.957-0.91797-0.87891-1.9375-1.6133-3.0586-2.207-1.1211-0.59375-2.3047-1.0234-3.5469-1.2852-1.2383-0.26562-2.4922-0.35547-3.7578-0.27344-1.3086 0.089843-2.5898 0.3125-3.8477 0.66797-1.2617 0.35156-2.4727 0.83203-3.6328 1.4375-1.1602 0.60547-2.2461 1.3242-3.2578 2.1562-1.0117 0.83203-1.9297 1.7578-2.7461 2.7773-3.3008 3.9766-5.1797 8.8008-7.0078 13.52l-1.418 3.6719c-1.9375-3.5938-4.2773-6.9062-7.0234-9.9258-2.7422-3.0234-5.8125-5.668-9.2031-7.9414-7.4062-4.6914-19.871-5.6836-23.211 4.4531-1.9062 5.7539 1.1523 11.93 4.2148 16.742 2.5625 5.1445 5.9648 9.6562 10.211 13.531 3.7695 3.6016 7.8164 6.8633 12.137 9.7812 2.0664 1.3984 4.1875 2.6875 6.3711 3.8711 2.7539 1.5234 5.6562 3.3516 8.9023 3.3125 3.2422-0.039062 5.4023-1.9336 7.5234-3.9766 2.1172-2.0391 3.8398-3.8438 5.6836-5.8438 3.6797-3.9766 7.2031-8.1367 10.516-12.434 6.1484-7.8984 14.426-18.832 8.4922-29.078zm-293.28 288.44c-0.64453-1.0938-1.4258-2.082-2.3438-2.957-0.91797-0.87891-1.9375-1.6133-3.0586-2.207-1.1211-0.59375-2.3008-1.0195-3.543-1.2852-1.2422-0.26562-2.4961-0.35547-3.7617-0.26953-1.3086 0.082031-2.5938 0.29688-3.8594 0.64844-1.2617 0.35156-2.4766 0.83203-3.6406 1.4375-1.1641 0.60547-2.25 1.3242-3.2656 2.1602-1.0117 0.83594-1.9258 1.7656-2.7461 2.7891-3.3086 3.9766-5.1797 8.7891-7.0039 13.52l-1.418 3.6602c-1.9414-3.5781-4.2773-6.8711-7.0156-9.8828-2.7383-3.0117-5.7969-5.6484-9.1719-7.918-7.4062-4.6914-19.871-5.6875-23.211 4.4531-1.9062 5.7539 1.1523 11.93 4.2148 16.738 2.5703 5.1484 5.9766 9.6562 10.227 13.535 3.7656 3.5977 7.8086 6.8594 12.121 9.7812 2.0664 1.3242 4.1992 2.6484 6.3711 3.8711 2.7695 1.5234 5.6562 3.3398 8.9023 3.3125 3.2422-0.027344 5.4023-1.9375 7.5234-3.9766 2.1172-2.043 3.8398-3.8555 5.6836-5.8438 3.6797-3.9766 7.2031-8.1406 10.516-12.434 6.082-7.9531 14.426-18.836 8.4805-29.133zm-805.4 341.54c-0.64062-1.0977-1.418-2.0859-2.332-2.9648-0.91797-0.87891-1.9336-1.6172-3.0547-2.2109s-2.3047-1.0234-3.543-1.2891c-1.2422-0.26563-2.4961-0.35547-3.7617-0.26953-1.3086 0.085938-2.5977 0.30469-3.8633 0.65625-1.2617 0.35547-2.4766 0.83594-3.6406 1.4414-1.1641 0.60938-2.2539 1.3281-3.2695 2.1641-1.0156 0.83203-1.9297 1.7617-2.75 2.7891-3.3008 3.9102-5.1797 8.7891-7.0078 13.508l-1.418 3.6719c-1.9336-3.5859-4.2695-6.8828-7.0078-9.8945-2.7383-3.0156-5.7969-5.6562-9.1797-7.9219-7.4453-4.6914-19.871-5.7383-23.25 4.4531-1.918 5.7656 1.1406 11.93 4.2148 16.742 2.5625 5.1445 5.9688 9.6562 10.211 13.531 3.7695 3.6055 7.8125 6.8672 12.137 9.7812 2.0664 1.3906 4.1836 2.6523 6.3555 3.8828 2.7695 1.5117 5.6602 3.3398 8.9023 3.3008 3.2461-0.039063 5.418-1.9336 7.5391-3.9766 2.1211-2.0391 3.8281-3.8438 5.6836-5.8438 3.6797-3.9766 7.207-8.1367 10.516-12.434 6.0938-7.9531 14.426-18.832 8.4805-29.117zm152.98 134.36c-0.64063-1.0938-1.4219-2.0781-2.3398-2.957-0.91797-0.875-1.9375-1.6094-3.0586-2.2031s-2.3008-1.0234-3.543-1.2891c-1.2422-0.26562-2.4961-0.35547-3.7617-0.26953-1.3086 0.082031-2.5938 0.29688-3.8594 0.64844-1.2617 0.35547-2.4766 0.83203-3.6406 1.4375-1.1641 0.60547-2.25 1.3281-3.2656 2.1602-1.0117 0.83594-1.9258 1.7656-2.7461 2.793-3.3125 3.9766-5.1914 8.7852-7.0195 13.52l-1.418 3.6562c-1.9336-3.5781-4.2734-6.875-7.0117-9.8867s-5.7969-5.6484-9.1758-7.9141c-7.4062-4.6914-19.871-5.6836-23.207 4.4531-1.9102 5.7539 1.1523 11.93 4.2109 16.742 2.5625 5.1484 5.9727 9.6602 10.227 13.531 3.7695 3.5977 7.8086 6.8594 12.121 9.7812 2.0664 1.3281 4.1992 2.6523 6.3711 3.8711 2.7578 1.5234 5.6562 3.3398 8.9023 3.3125 3.2461-0.027344 5.4062-1.9336 7.5234-3.9766 2.1211-2.0391 3.8438-3.8555 5.6836-5.8438 3.6836-3.9766 7.207-8.1367 10.52-12.434 6.0938-7.9531 14.438-18.832 8.4883-29.133zm226.21-140.03c-0.64062-1.0938-1.4219-2.0781-2.3359-2.9531-0.91797-0.87891-1.9336-1.6133-3.0547-2.207s-2.3008-1.0234-3.543-1.2852c-1.2383-0.26563-2.4922-0.35547-3.7539-0.27344-1.3125 0.085938-2.5977 0.30078-3.8633 0.65234-1.2656 0.35547-2.4805 0.83203-3.6445 1.4375-1.1641 0.60938-2.2539 1.3281-3.2656 2.1602-1.0156 0.83594-1.9336 1.7617-2.7539 2.7891-3.2969 3.9766-5.1797 8.8008-7.0078 13.52l-1.418 3.6562c-1.9375-3.5781-4.2773-6.875-7.0156-9.8867-2.7422-3.0117-5.8008-5.6484-9.1836-7.9141-7.3906-4.6914-19.871-5.6836-23.195 4.4531-1.9219 5.7539 1.1406 11.93 4.2109 16.742 2.5664 5.1445 5.9688 9.6562 10.215 13.531 3.7695 3.6016 7.8125 6.8633 12.133 9.7812 2.0664 1.3281 4.1875 2.6523 6.3594 3.8711 2.7695 1.5234 5.6562 3.3398 8.9023 3.3125 3.2461-0.023438 5.418-1.9336 7.5391-3.9766 2.1172-2.0391 3.8281-3.8555 5.6797-5.8438 3.6836-3.9766 7.207-8.1367 10.52-12.434 6.0938-7.9492 14.426-18.832 8.4766-29.133zm207.98 460.57c-0.64453-1.0938-1.4258-2.0781-2.3438-2.957-0.91797-0.875-1.9375-1.6094-3.0586-2.2031s-2.3008-1.0234-3.543-1.2891c-1.2422-0.26172-2.4922-0.35156-3.7617-0.26953-1.3086 0.082032-2.5938 0.30078-3.8594 0.65234-1.2617 0.35156-2.4766 0.82812-3.6406 1.4336-1.1641 0.60938-2.25 1.3281-3.2656 2.1602-1.0117 0.83594-1.9258 1.7656-2.7461 2.793-3.3086 3.9766-5.1797 8.7852-7.0078 13.52l-1.4805 3.6836c-1.9375-3.582-4.2773-6.8789-7.0195-9.8945-2.7383-3.0117-5.8008-5.6523-9.1836-7.918-7.4023-4.6914-19.867-5.6875-23.195 4.4531-1.918 5.7656 1.1406 11.93 4.1992 16.738 2.5664 5.1523 5.9766 9.6602 10.227 13.535 3.7695 3.6055 7.8125 6.8633 12.137 9.7812 2.0508 1.3242 4.1836 2.6484 6.3555 3.8828 2.7695 1.5117 5.6562 3.3398 8.9023 3.3125 3.2461-0.027344 5.4062-1.9336 7.5234-3.9766 2.1211-2.0391 3.8438-3.8555 5.6836-5.8555 3.6914-3.9766 7.1992-8.1211 10.52-12.434 6.0938-7.9805 14.438-18.863 8.4922-29.148zm345.31 30.777c-0.64062-1.0938-1.4219-2.0781-2.3398-2.957-0.91797-0.875-1.9375-1.6133-3.0586-2.207-1.1211-0.58984-2.3008-1.0195-3.543-1.2852-1.2422-0.26563-2.4961-0.35547-3.7617-0.26953-1.3086 0.082032-2.5977 0.30078-3.8594 0.65234-1.2656 0.35156-2.4805 0.82812-3.6445 1.4375-1.1641 0.60547-2.2539 1.3242-3.2695 2.1602-1.0117 0.83203-1.9297 1.7617-2.75 2.7891-3.3008 3.9766-5.1797 8.7852-7.0078 13.52l-1.418 3.6562c-1.9336-3.5781-4.2734-6.875-7.0117-9.8867-2.7344-3.0117-5.7969-5.6484-9.1758-7.9141-7.4062-4.6914-19.871-5.6875-23.207 4.4531-1.9102 5.7539 1.1523 11.93 4.2109 16.742 2.5586 5.1641 5.9688 9.6875 10.227 13.57 3.7695 3.5977 7.8086 6.8594 12.121 9.7812 2.0664 1.3281 4.1875 2.6523 6.3711 3.8711 2.7578 1.5234 5.6562 3.3398 8.9023 3.3125 3.2461-0.027344 5.4062-1.9336 7.5234-3.9766 2.1211-2.0391 3.8438-3.8555 5.6836-5.8438 3.6836-3.9766 7.207-8.1367 10.52-12.434 6.0938-7.9648 14.438-18.848 8.4883-29.172zm-910.05-167.48c-0.63672-1.0938-1.418-2.082-2.332-2.9609-0.91406-0.87891-1.9336-1.6172-3.0547-2.2109s-2.3008-1.0234-3.543-1.2891c-1.2383-0.26562-2.4922-0.35547-3.7578-0.26953-1.3125 0.082031-2.5977 0.30078-3.8633 0.65234-1.2656 0.35547-2.4805 0.83594-3.6445 1.4414-1.1641 0.60938-2.2539 1.3281-3.2695 2.1641-1.0117 0.83594-1.9297 1.7656-2.75 2.793-3.2969 3.9766-5.1797 8.7852-7.0078 13.504l-1.4141 3.6719c-1.9375-3.582-4.2773-6.8828-7.0156-9.8945-2.7422-3.0117-5.8047-5.6523-9.1875-7.918-7.3906-4.6914-19.871-5.6875-23.195 4.4531-1.918 5.7656 1.1406 11.93 4.2148 16.738 2.5625 5.1484 5.9648 9.6602 10.211 13.535 3.7461 3.6094 7.7695 6.8789 12.07 9.8086 2.0664 1.3242 4.1836 2.6484 6.3555 3.8828 2.7695 1.5117 5.6562 3.3398 8.9023 3.3008 3.2461-0.042969 5.418-1.9375 7.5391-3.9766 2.1172-2.043 3.8281-3.8438 5.6836-5.8477 3.6797-3.9766 7.2031-8.125 10.516-12.43 6.082-7.9531 14.426-18.836 8.4805-29.121zm557.2-187.66c-0.64062-1.0977-1.4219-2.082-2.3398-2.9609-0.91406-0.87891-1.9336-1.6133-3.0586-2.207-1.1211-0.59375-2.3008-1.0234-3.543-1.2852-1.2422-0.26562-2.4961-0.35547-3.7617-0.26953-1.3086 0.082031-2.5977 0.30078-3.8594 0.65234-1.2656 0.35156-2.4805 0.82813-3.6406 1.4375-1.1641 0.60547-2.2539 1.3242-3.2656 2.1602-1.0117 0.83203-1.9297 1.7617-2.7461 2.7891-3.3125 3.9766-5.1914 8.7891-7.0195 13.508l-1.418 3.6719c-1.9336-3.5859-4.2695-6.8828-7.0078-9.8984-2.7383-3.0117-5.8008-5.6523-9.1797-7.918-7.4062-4.6914-19.871-5.6836-23.211 4.4531-1.9062 5.7656 1.1523 11.93 4.2148 16.742 2.5625 5.1445 5.9727 9.6523 10.227 13.52 3.7617 3.6016 7.8047 6.8633 12.121 9.7812 2.0664 1.3906 4.1836 2.6484 6.3711 3.8828 2.7539 1.5117 5.6562 3.3398 8.9023 3.3125 3.2422-0.027344 5.4023-1.9492 7.5234-3.9766 2.1172-2.0273 3.8398-3.8555 5.6836-5.8555 3.6797-3.9766 7.2031-8.125 10.516-12.434 6.0938-7.9648 14.441-18.82 8.4922-29.105zm-205.32 159.38c-0.64453-1.0938-1.4219-2.0781-2.3398-2.957-0.91797-0.875-1.9375-1.6094-3.0586-2.2031s-2.3047-1.0234-3.5469-1.2891c-1.2383-0.26172-2.4922-0.35156-3.7578-0.26953-1.3125 0.082031-2.5977 0.30078-3.8633 0.65234s-2.4805 0.83203-3.6445 1.4375-2.2539 1.3242-3.2656 2.1602c-1.0156 0.83203-1.9336 1.7617-2.7539 2.7891-3.2969 3.9766-5.1797 8.7852-7.0039 13.52-0.46484 1.2188-0.94141 2.4375-1.418 3.6562-1.9336-3.582-4.2695-6.8789-7.0078-9.8906-2.7383-3.0117-5.7969-5.6484-9.1797-7.9102-7.4062-4.6914-19.871-5.6836-23.211 4.4531-1.9062 5.7539 1.1523 11.93 4.2148 16.742 2.5625 5.1406 5.9648 9.6484 10.211 13.52 3.7695 3.6055 7.8164 6.8711 12.137 9.793 2.0664 1.3281 4.1836 2.6523 6.3711 3.8711 2.7539 1.5234 5.6562 3.3398 8.8867 3.3125 3.2344-0.023438 5.418-1.9336 7.5391-3.9766 2.1172-2.0391 3.8398-3.8555 5.6836-5.8438 3.6797-3.9766 7.2031-8.1367 10.516-12.445 6.0938-7.9375 14.426-18.836 8.4922-29.121zm-204.74 194.92c-0.64062-1.0938-1.4219-2.0781-2.3359-2.957-0.91797-0.875-1.9336-1.6094-3.0547-2.2031s-2.3008-1.0234-3.543-1.2891c-1.2383-0.26562-2.4922-0.35547-3.7578-0.26953-1.3086 0.082031-2.5977 0.29688-3.8633 0.64844-1.2617 0.35156-2.4766 0.82812-3.6445 1.4375-1.1641 0.60547-2.2539 1.3242-3.2656 2.1602-1.0156 0.83203-1.9297 1.7656-2.75 2.7891-3.2969 3.9102-5.1797 8.7891-7.0078 13.52l-1.418 3.6602c-1.9336-3.5859-4.2734-6.8828-7.0156-9.8945-2.7383-3.0156-5.8008-5.6523-9.1836-7.918-7.3906-4.6953-19.871-5.6875-23.195 4.4531-1.9219 5.7656 1.1406 11.926 4.2109 16.738 2.5625 5.1484 5.9688 9.6562 10.215 13.531 3.7656 3.6094 7.8125 6.8672 12.133 9.7852 2.0664 1.3242 4.1875 2.6484 6.3594 3.8828 2.7695 1.5078 5.6562 3.3398 8.9023 3.3125 3.2461-0.027344 5.4023-1.9336 7.5352-3.9766 1.9375-1.9102 3.8281-3.8594 5.6836-5.8594 3.6836-3.9766 7.207-8.125 10.52-12.43 6.0781-7.9531 14.426-18.836 8.4766-29.121zm934.98-181.69c-0.64062-1.0938-1.4219-2.0781-2.3359-2.957-0.91797-0.875-1.9375-1.6094-3.0586-2.2031-1.1172-0.59375-2.2969-1.0234-3.5391-1.2891-1.2383-0.26562-2.4922-0.35547-3.7578-0.27344-1.3086 0.085937-2.5938 0.30078-3.8594 0.65234-1.2656 0.35156-2.4805 0.83203-3.6445 1.4375-1.1641 0.60547-2.2539 1.3281-3.2695 2.1602-1.0117 0.83594-1.9297 1.7656-2.75 2.7891-3.3125 3.9766-5.1797 8.7891-7.0078 13.52l-1.418 3.6602c-1.9414-3.5781-4.2812-6.875-7.0195-9.8828-2.7422-3.0117-5.8008-5.6523-9.1797-7.918-7.4062-4.6914-19.871-5.6875-23.195 4.4531-1.9219 5.75 1.1406 11.93 4.2109 16.738 2.5664 5.1484 5.9688 9.6562 10.215 13.535 3.7695 3.6016 7.8125 6.8594 12.133 9.7812 2.0547 1.3242 4.1875 2.6484 6.3594 3.8672 2.7695 1.5273 5.6562 3.3398 8.9023 3.3164 3.2461-0.027344 5.4023-1.9375 7.5352-3.9766 1.9375-1.8945 3.8281-3.8594 5.6719-5.8477 3.6953-3.9766 7.2188-8.1367 10.531-12.43 6.0781-7.9531 14.426-18.836 8.4766-29.133zm-343.75-314.5c-0.64453-1.0938-1.4258-2.082-2.3438-2.957-0.91797-0.87891-1.9375-1.6133-3.0586-2.207s-2.3008-1.0234-3.543-1.2852c-1.2422-0.26563-2.4961-0.35547-3.7617-0.26953-1.3086 0.078125-2.5938 0.29688-3.8594 0.64844-1.2617 0.35156-2.4766 0.83203-3.6406 1.4375-1.1641 0.60547-2.25 1.3242-3.2656 2.1602-1.0117 0.83203-1.9258 1.7656-2.7461 2.7891-3.3086 3.9102-5.1797 8.7891-7.0078 13.52l-1.4141 3.6602c-1.9414-3.582-4.2773-6.8828-7.0195-9.8945-2.7383-3.0117-5.8008-5.6523-9.1836-7.9219-7.4023-4.6914-19.871-5.6836-23.207 4.4688-1.9062 5.75 1.1523 11.93 4.2109 16.738 2.5703 5.1445 5.9766 9.6523 10.227 13.52 3.7695 3.6055 7.8164 6.8711 12.137 9.7969 2.0508 1.3242 4.1836 2.6484 6.3555 3.8672 2.7695 1.5273 5.6562 3.3438 8.9023 3.3164s5.4062-1.9375 7.5234-3.9766c2.1211-2.043 3.8438-3.8594 5.6836-5.8594 3.6914-3.9766 7.1992-8.1211 10.52-12.434 6.0938-7.9102 14.438-18.859 8.4922-29.117zm214.85 150.96c-0.64062-1.0938-1.4219-2.082-2.3359-2.957-0.91797-0.87891-1.9336-1.6133-3.0547-2.207s-2.3008-1.0234-3.543-1.2852c-1.2383-0.26562-2.4922-0.35547-3.7578-0.26953-1.3086 0.082031-2.5977 0.29688-3.8633 0.64844-1.2617 0.35156-2.4766 0.83203-3.6445 1.4375-1.1641 0.60547-2.2539 1.3281-3.2656 2.1602-1.0156 0.83594-1.9336 1.7656-2.75 2.7891-3.3008 3.9766-5.1797 8.7891-7.0078 13.52l-1.418 3.6602c-1.9375-3.5781-4.2773-6.875-7.0117-9.8828-2.7383-3.0117-5.7969-5.6523-9.1758-7.918-7.4062-4.6914-19.871-5.6875-23.207 4.4531-1.9219 5.7539 1.1367 11.93 4.2109 16.738 2.5664 5.1445 5.9688 9.6562 10.215 13.535 3.7695 3.5977 7.8164 6.8594 12.133 9.7812 2.0664 1.3242 4.1836 2.6484 6.3711 3.8711 2.7539 1.5234 5.6445 3.3398 8.8867 3.3125 3.2461-0.027344 5.418-1.9336 7.5391-3.9766 2.1211-2.043 3.8281-3.8555 5.6836-5.8438 3.6836-3.9766 7.207-8.1406 10.516-12.434 6.0938-7.9805 14.426-18.859 8.4805-29.16zm120.25-145.41c-0.64062-1.0977-1.4219-2.0859-2.3398-2.9648-0.91406-0.87891-1.9336-1.6133-3.0586-2.2109-1.1211-0.59375-2.3008-1.0234-3.543-1.2891s-2.4961-0.35547-3.7617-0.26953c-1.3125 0.085937-2.5977 0.30469-3.8633 0.65625-1.2656 0.35547-2.4805 0.83594-3.6445 1.4414-1.1641 0.60547-2.2539 1.3281-3.2656 2.1641-1.0156 0.83203-1.9336 1.7617-2.7539 2.7891-3.2969 3.9102-5.1797 8.7891-7.0078 13.504-0.46094 1.2227-0.9375 2.4531-1.418 3.6719-1.9336-3.582-4.2695-6.8789-7.0078-9.8906-2.7383-3.0117-5.7969-5.6523-9.1758-7.9219-7.4062-4.6914-19.871-5.6875-23.211 4.4531-1.9219 5.7656 1.1523 11.93 4.2148 16.742 2.5625 5.1445 5.9648 9.6562 10.211 13.531 3.7695 3.6016 7.8125 6.8633 12.133 9.7812 2.0664 1.3242 4.1875 2.6523 6.375 3.8828 2.7539 1.5117 5.6406 3.3398 8.8867 3.3008 3.2461-0.039063 5.418-1.9336 7.5391-3.9766 2.1172-2.0391 3.8398-3.8555 5.6797-5.8594 3.6836-3.9766 7.207-8.125 10.52-12.43 6.0938-7.9688 14.426-18.848 8.4922-29.133zm-293.29 288.39c-0.64062-1.0938-1.4219-2.0781-2.3398-2.957-0.91797-0.875-1.9375-1.6094-3.0586-2.2031-1.1211-0.59375-2.3008-1.0234-3.543-1.2891-1.2422-0.26172-2.4961-0.35156-3.7617-0.26953-1.3086 0.082031-2.5938 0.29688-3.8594 0.64844-1.2617 0.34766-2.4766 0.82422-3.6406 1.4297-1.1641 0.60156-2.2539 1.3203-3.2695 2.1523-1.0156 0.83203-1.9336 1.7578-2.7539 2.7812-3.2969 3.9766-5.1797 8.7891-7.0078 13.52l-1.418 3.7109c-1.9336-3.5781-4.2734-6.875-7.0117-9.8867-2.7344-3.0117-5.7969-5.6484-9.1758-7.9141-7.4062-4.6914-19.871-5.6836-23.207 4.4531-1.9102 5.7539 1.1523 11.93 4.2109 16.742 2.5625 5.1484 5.9727 9.6602 10.227 13.531 3.7695 3.5977 7.8086 6.8594 12.121 9.7812 2.0664 1.3242 4.1875 2.6523 6.3711 3.8711 2.7578 1.5234 5.6562 3.3398 8.9023 3.3125 3.2461-0.027344 5.4062-1.9336 7.5234-3.9766 2.1211-2.0391 3.8438-3.8555 5.6836-5.8438 3.6836-3.9766 7.207-8.1367 10.52-12.434 6.0938-7.9766 14.438-18.859 8.4883-29.16z" fill="#ff9f9f"/>
 </g>
</svg>
