<?xml version="1.0" encoding="UTF-8"?>
<svg width="1587" height="1587" version="1.0" viewBox="0 0 1190.2 1190.2" xmlns="http://www.w3.org/2000/svg" zoomAndPan="magnify">
 <defs>
  <clipPath id="a">
   <path d="m0 0h1189.5v1189.5h-1189.5z"/>
  </clipPath>
  <clipPath id="b">
   <path d="m44 42.047h1081v1081h-1081z"/>
  </clipPath>
 </defs>
 <g clip-path="url(#a)" fill="#fff">
  <path d="m0 0h1189.5v1189.5h-1189.5z"/>
  <path d="m0 0h1189.5v1189.5h-1189.5z"/>
 </g>
 <g clip-path="url(#b)">
  <path d="m559.48 42.91c-106.09 4.3242-211.97 42.355-297.54 106.75-41.055 30.684-80.812 70.66-110.63 110.85-104.58 140.67-134.4 322.61-80.164 489.64 14.695 44.727 37.816 92.699 64.609 132.24 113.66 169.62 313.52 261.46 514.69 236.18 111.28-14.043 210.89-59.422 294.73-134.19 180.86-161.63 231.42-425.04 123.16-641.98-48.188-96.371-121.65-174.59-215.21-228.62-70.012-40.621-158.6-67.199-234.88-70.441-32.629-1.2969-38.031-1.2969-58.773-0.43359zm63.957 82.762c152.77 13.18 287.6 100.26 362.36 234.45 55.75 100.26 71.738 221.05 43.434 333.41-20.098 80.816-61.152 153.2-119.71 211.98-37.812 38.027-79.082 67.418-126.19 89.891-62.879 30.035-128.35 44.727-198.79 44.727-73.898 0-141.32-15.988-206.79-49.051-87.512-44.078-158.6-115.39-202.68-203.12-67.633-134.84-64.605-297.33 8.4258-428.06 74.98-133.32 209.38-220.62 360.85-234.02 15.988-1.2969 62.879-1.2969 79.082-0.21484z"/>
 </g>
 <path d="m664.93 215.99c-7.5625 1.9453-14.691 6.4844-21.176 12.969-7.1289 7.3438-11.883 15.773-16.207 29.168-3.457 10.805-4.1055 15.559-4.1055 30.254 0 12.746 0.21875 14.043 1.7305 20.094 3.6719 14.695 9.5078 25.066 19.016 34.141 8.2109 7.7812 17.07 10.156 28.09 7.7812 16.852-3.457 32.41-21.176 38.891-43.867 2.5938-9.2891 3.4609-15.34 3.8906-26.145 0.43359-15.125-1.7266-27.227-6.9141-38.031-6.0508-12.75-16.422-23.121-26.578-26.145-4.7539-1.5117-11.668-1.5117-16.637-0.21875z"/>
 <path d="m790.9 253.81c-19.23 2.375-38.461 17.07-50.996 39.109-11.668 20.531-15.555 41.707-10.801 59.855 3.0234 12.102 11.02 22.258 21.176 27.012 3.8867 1.7266 4.3203 1.9453 11.449 1.9453 8.8594 0 14.262-1.2969 23.336-5.8359 15.344-7.5625 28.523-21.391 37.168-39.328 3.6719-7.7773 5.6172-13.613 7.7773-22.902 1.5117-5.8359 1.5117-8.2109 1.5117-16.422 0-8.6445-0.21484-10.156-1.7266-15.125-2.3789-8.2148-6.0508-14.48-10.805-19.234-7.5625-7.7773-16.207-10.586-28.09-9.0742z"/>
 <path d="m319.64 256.18c-4.9688 0.21875-9.293 0.64844-9.293 0.64844-0.64453 0.64844-1.5117 40.84-2.1602 101.99-0.64844 62.23-0.21484 143.7 1.2969 205.06 0.64844 25.715 0.64844 26.578 3.457 27.66 1.9453 0.86328 58.559 2.1602 112.79 2.5938 51.859 0.21484 89.887-0.21875 90.969-1.2969 0.86328-0.86719 0.42969-90.109-0.43359-91.836-1.7305-3.0273-2.1602-3.0273-34.355-3.8906-16.422-0.21484-36.301-0.64844-44.078-0.64844h-14.047v-68.281c0-61.801-0.86328-122.09-1.9453-155.8-0.42969-12.316-0.42969-12.531-1.9453-14.262l-1.5117-1.7266-15.34-0.64844c-16.855-0.21484-68.93-0.21484-83.406 0.42969z"/>
 <path d="m554.73 300.27c-7.9961 2.3789-14.477 7.1328-19.23 14.695-9.0742 13.828-13.613 33.059-11.883 50.777 2.375 23.988 13.395 43.867 30.684 54.887 6.6953 4.3203 14.691 5.6172 22.469 3.8906 7.3477-1.7305 15.559-7.3477 20.312-13.613 15.773-21.395 17.934-55.102 5.1875-81.25-7.7812-15.988-18.367-26.359-29.82-29.387-4.7539-1.5117-13.18-1.2969-17.719 0z"/>
 <path d="m830.88 380.86c-4.5352 0.64844-12.965 3.4609-17.07 5.6211-11.449 5.6172-23.766 16.852-31.113 27.875-5.6172 8.4258-11.238 20.094-12.965 27.008-1.9453 7.9961-1.9453 20.098 0 27.012 4.7539 16.422 15.773 24.848 32.629 24.848 9.0742 0 16.422-1.9414 25.711-6.4805 14.047-7.1328 26.793-19.879 35.438-35.223 3.2422-5.6172 7.3438-17.285 8.6406-23.121 1.082-6.4805 0.86719-16.852-0.64844-22.688-2.5898-9.7227-9.0742-18.582-16.637-22.258-5.6172-3.0234-15.559-4.1055-23.984-2.5938z"/>
 <path d="m658.02 403.55c-19.879 1.9453-38.031 9.0742-55.102 22.039-21.172 15.992-38.027 32.844-50.992 51.43-5.6172 7.9922-13.18 21.176-14.691 25.496-1.9453 5.6172-2.3789 15.344-0.86719 21.824 2.3789 10.805 9.9414 21.176 18.801 25.5 9.9375 4.7539 23.984 6.6953 43.863 5.6172 6.9141-0.43359 17.934-0.64844 24.633-0.64844 11.449 0 12.965 0.21484 21.605 1.9453 17.719 3.6719 27.875 9.2891 47.32 26.145 19.879 17.285 24.633 20.527 34.141 23.555 6.0508 1.9414 15.125 2.375 20.742 1.0781 10.156-2.375 17.289-7.9961 21.824-16.855 4.1055-8.4258 5.1875-13.18 5.4023-26.359 0.43359-15.559-1.0781-27.227-6.0508-46.457-10.801-42.355-21.391-66.555-38.242-86.652-13.398-15.988-30.902-24.848-54.453-27.227-6.9141-1.0781-10.156-1.0781-17.934-0.42969z"/>
 <path d="m328.29 610.78c-0.21875 0.21484-7.3477 0.43359-15.773 0.64844-8.6445 0.21484-15.773 0.43359-15.773 0.64844-0.43359 0.43359 7.3438 48.617 13.395 80.812 9.293 51.863 26.363 132.68 46.023 220.41 4.3242 18.801 7.1328 30.25 7.7812 31.332 0.64844 0.86328 1.7266 1.9453 2.5898 2.375 1.9453 1.082 45.809 1.9453 82.109 1.9453 24.852 0 68.066-0.86328 68.496-1.5117 0.64844-0.64844 18.582-80.383 27.441-122.95 14.91-70.012 31.547-158.18 38.031-202.25 1.0781-6.9141 0.64844-8.8594-1.9453-9.9414-3.2422-1.5117-79.516-2.375-94.211-1.0781-0.86328 0-3.6719 0.21484-6.0469 0.21484l-4.7539 0.21484-1.7305 8.6445c-7.7773 39.758-16.203 92.266-25.93 162.28-6.2656 46.027-6.2656 45.16-6.6953 43.219-0.21875-0.86719-2.5938-16.855-4.9727-35.223-11.02-80.168-26.145-171.36-28.953-175.89-1.9453-2.8086-3.8906-3.0273-23.984-3.8906-17.934-0.21484-54.449-0.43359-55.098 0z"/>
 <path d="m633.17 611.21c-15.559 0.21484-28.738 0.64844-28.957 1.0781-0.86328 0.86328-1.9414 66.121-2.375 135.7-0.43359 73.688 1.0781 193.18 2.5938 195.99 0.42969 0.86328 1.2969 1.9453 2.1602 2.5938 1.5117 1.0781 4.5352 1.2969 39.973 2.1602 60.07 1.5117 103.5 1.7305 141.75 1.082 27.656-0.43359 35.438-0.86719 35.652-1.5156 0.64844-1.0781 0.64844-85.137 0-89.023-0.64844-3.8906-1.7266-4.7539-6.0508-5.4023-1.9453-0.21875-26.359-0.64844-54.449-0.86328l-50.777-0.43359v-28.738h72.602v-40.191c0-43.867 0-42.785-3.457-44.516-1.2969-0.64844-8.8594-0.86328-30.035-1.0781-15.559-0.21875-30.684-0.43359-33.707-0.64844l-5.6211-0.21875 0.21875-14.258 0.21484-14.262 53.156-0.43359c29.383-0.21484 54.016-0.64844 55.098-0.64844l1.9453-0.43359 0.42969-22.473c0.21875-12.316 0.21875-33.059 0-45.594l-0.42969-23.117-1.7305-1.7305c-1.7266-1.7305-1.9453-1.7305-10.801-2.1602-14.262-1.082-146.07-1.5117-177.4-0.86328z"/>
</svg>
