<?xml version="1.0" encoding="UTF-8"?>
<svg width="1587" height="1587" version="1.0" viewBox="0 0 1190.2 1190.2" xmlns="http://www.w3.org/2000/svg" zoomAndPan="magnify">
 <defs>
  <clipPath id="a">
   <path d="m0 0h1189.5v1189.5h-1189.5z"/>
  </clipPath>
 </defs>
 <g clip-path="url(#a)" fill="#fff">
  <path d="m0 0h1189.5v1189.5h-1189.5z"/>
  <path d="m0 0h1189.5v1189.5h-1189.5z"/>
 </g>
 <path d="m1021.8 911.27c-3.7617-30.176-20.781-59.535-44.434-76.617-3.6875-2.6641-7.5586-5.0312-11.613-7.0977 5.0977-14.246 7.9766-28.926 8.6367-44.039 1.3359-31.828-7.8359-62.215-25.906-85.559-29.473-38.047-83.305-54.008-154.11-46.48 33.367-121.07 60.719-256.73 34.051-389.08-11.84-58.719-40.75-136.12-111.25-171.3-57.555-28.695-133.75-20.02-194.09 22.031-45.383 31.613-81.727 78.484-114.5 147.5-7.5625 15.961-14.527 32.184-20.891 48.672-15.457-24.395-34.074-45.762-50.719-62.523-30.273-30.469-78.566-55.477-123.39-34.324-37.309 17.617-55.953 58.277-55.449 120.88 0.9375 109.74 25.281 222.24 70.426 325.34 13.496 30.789 28.773 60.668 45.828 89.641 17.055 28.969 35.773 56.824 56.148 83.566-21.016-10.773-42.527-20.434-64.539-28.984-0.89453-0.375-1.8086-0.70312-2.7422-0.98828-0.92969-0.28125-1.8711-0.51953-2.8242-0.70703-0.95703-0.19141-1.918-0.33203-2.8828-0.42578-0.96875-0.09375-1.9414-0.13672-2.9141-0.13281s-1.9414 0.054687-2.9102 0.15625c-0.96484 0.097656-1.9258 0.24609-2.8789 0.44531-0.95312 0.19531-1.8945 0.4375-2.8203 0.73047-0.92969 0.28906-1.8398 0.625-2.7344 1.0039-0.89844 0.38281-1.7695 0.80859-2.6211 1.2773-0.85547 0.46875-1.6797 0.97656-2.4805 1.5273-0.80469 0.55078-1.5742 1.1406-2.3164 1.7695-0.74219 0.62891-1.4531 1.293-2.1289 1.9922-0.67578 0.69922-1.3164 1.4297-1.918 2.1914-0.60547 0.76172-1.168 1.5547-1.6914 2.375-0.52734 0.81641-1.0078 1.6602-1.4492 2.5273-0.4375 0.86719-0.83594 1.7539-1.1875 2.6641-0.35156 0.90625-0.65625 1.8281-0.91406 2.7656s-0.47266 1.8828-0.63672 2.8438c-0.16406 0.95703-0.28125 1.9219-0.34766 2.8906-0.070312 0.97266-0.089844 1.9414-0.058594 2.9141 0.027344 0.97266 0.10547 1.9414 0.23047 2.9062 0.125 0.96484 0.29688 1.918 0.51953 2.8672 0.21875 0.94531 0.48828 1.8789 0.80078 2.8008 0.31641 0.91797 0.67578 1.8203 1.0781 2.707 0.40625 0.88281 0.85156 1.7461 1.3438 2.5859 0.48828 0.83984 1.0195 1.6523 1.5938 2.4414 0.57031 0.78516 1.1797 1.543 1.8281 2.2656 0.64453 0.72656 1.3281 1.418 2.043 2.0781 0.71875 0.65625 1.4648 1.2773 2.2422 1.8594 0.78125 0.58594 1.5859 1.1289 2.418 1.6289 0.83203 0.50391 1.6875 0.96484 2.5664 1.3828 0.87891 0.41797 1.7773 0.78906 2.6914 1.1172 28.031 10.891 55.137 23.73 81.32 38.52 26.18 14.789 51.172 31.375 74.969 49.758 62.602 48.324 107.97 102.62 134.81 161.37 0.41016 0.85156 0.85937 1.6797 1.3516 2.4844 0.49219 0.80859 1.0195 1.5898 1.5898 2.3438 0.56641 0.75391 1.168 1.4805 1.8047 2.1797 0.63672 0.69531 1.3086 1.3594 2.0078 1.9922 0.70312 0.63281 1.4336 1.2305 2.1914 1.7891 0.76172 0.5625 1.5469 1.0859 2.3555 1.5703 0.8125 0.48438 1.6445 0.92969 2.4961 1.3359 0.85547 0.40234 1.7266 0.76562 2.6133 1.0859 0.89062 0.32031 1.793 0.59766 2.707 0.82812 0.91797 0.23438 1.8398 0.42188 2.7734 0.56641 0.93359 0.14062 1.8711 0.23828 2.8164 0.29297 0.94141 0.050781 1.8867 0.058594 2.8281 0.019531 0.94531-0.042968 1.8867-0.125 2.8203-0.25781 0.9375-0.12891 1.8633-0.30469 2.7812-0.52344 0.91797-0.22266 1.8242-0.48438 2.7188-0.79297 0.89062-0.30859 1.7695-0.66016 2.625-1.0508 0.85938-0.39453 1.6992-0.82812 2.5156-1.3008 0.81641-0.47656 1.6094-0.98828 2.375-1.5391 0.76953-0.55078 1.5078-1.1367 2.2188-1.7617 0.71094-0.62109 1.3867-1.2773 2.0352-1.9648 0.64453-0.6875 1.2578-1.4062 1.8359-2.1523 0.57812-0.75 1.1172-1.5234 1.6172-2.3242 0.50391-0.79688 0.96484-1.6211 1.3867-2.4648s0.80469-1.707 1.1445-2.5898c0.33594-0.88281 0.63281-1.7773 0.88281-2.6875 0.25391-0.91016 0.46094-1.832 0.62109-2.7617 0.16406-0.92969 0.28125-1.8672 0.35156-2.8086 0.074219-0.94141 0.10156-1.8828 0.082031-2.8281-0.019531-0.94531-0.085937-1.8828-0.19922-2.8242-0.10938-0.9375-0.26562-1.8672-0.46484-2.7891-0.20312-0.92188-0.44922-1.8359-0.73828-2.7344-0.28906-0.89844-0.62109-1.7812-0.99609-2.6484-9.6836-21.078-21.059-41.207-34.117-60.387 35.18 19.977 71.762 36.922 109.75 50.832 56.406 20.832 105.45 31.109 149.77 31.109 24.172 0.12109 47.879-3.1406 71.117-9.7812 75.457-21.781 146.97-96.262 136.13-183.2zm-663.33-140.31c-89.133-127.74-140.58-283.25-141.87-438.11-0.1875-21.273 2.4297-58.332 21.945-67.539 16.109-7.5938 40.801 6.418 56.941 22.688 26.105 26.277 58.062 65.523 65.402 105.81-29.98 119.05-30.887 247.7-2.418 377.15zm511.02 267.37c-49.867 14.398-108.46 8.0078-184.43-20.02-105.14-38.82-189.35-96.551-243.77-167.28-66.391-197.51-59.305-398.11 20.102-565.38 28.219-59.41 58.465-99.02 95.117-124.56 43.059-30.027 95.875-36.965 134.58-17.684 51.949 25.879 72.441 92.898 80.02 130.53 27.379 135.89-9.1406 280.74-45.539 405.84-0.17969 0.60547-0.33594 1.2188-0.47266 1.8359-0.13672 0.61719-0.25391 1.2422-0.34766 1.8672-0.097656 0.625-0.17578 1.25-0.23047 1.8828-0.054687 0.62891-0.089843 1.2578-0.10547 1.8906-0.015624 0.63281-0.007812 1.2656 0.019532 1.8984 0.023437 0.63281 0.070312 1.2617 0.13672 1.8906 0.070313 0.62891 0.15625 1.2539 0.26563 1.8789 0.10547 0.625 0.23437 1.2422 0.38281 1.8555 0.14844 0.61719 0.31641 1.2266 0.50391 1.832 0.1875 0.60156 0.39453 1.1992 0.62109 1.7891 0.22656 0.59375 0.47266 1.1758 0.73828 1.75 0.26172 0.57422 0.54688 1.1406 0.84766 1.6953 0.30078 0.55859 0.61719 1.1016 0.95703 1.6367 0.33594 0.53906 0.6875 1.0625 1.0586 1.5742 0.37109 0.51172 0.75781 1.0117 1.1602 1.5 0.40234 0.48828 0.82422 0.96094 1.2578 1.4219 0.43359 0.46094 0.87891 0.90625 1.3438 1.3398 0.46094 0.42969 0.9375 0.84375 1.4297 1.2461 0.48828 0.39844 0.99219 0.78516 1.5039 1.1523 0.51562 0.36719 1.043 0.71875 1.582 1.0508 0.53516 0.33594 1.082 0.65234 1.6406 0.94922 0.55859 0.29688 1.125 0.57812 1.7031 0.83984 0.57422 0.26172 1.1602 0.50391 1.75 0.72656 0.59375 0.22266 1.1914 0.42578 1.7969 0.60937 0.60547 0.1875 1.2148 0.35156 1.832 0.49609 0.61719 0.14453 1.2344 0.26953 1.8594 0.375 0.625 0.10156 1.25 0.1875 1.8789 0.25 0.62891 0.066406 1.2617 0.10938 1.8945 0.13281 0.63281 0.019531 1.2656 0.023437 1.8945 0.003906 0.63281-0.015625 1.2656-0.054687 1.8945-0.11328 0.62891-0.058594 1.2578-0.14062 1.8828-0.23828 0.625-0.10156 1.2461-0.21875 1.8633-0.35937 68.633-15.496 121.79-9.0234 142.18 17.348 19.793 25.57 18.02 68.395-4.0039 97.527-0.89062 1.1719-1.6875 2.4062-2.3867 3.7031-0.70312 1.293-1.3047 2.6328-1.8047 4.0195-0.5 1.3867-0.89453 2.8008-1.1797 4.2461-0.28516 1.4453-0.46094 2.9023-0.52734 4.375-0.0625 1.4727-0.019531 2.9375 0.13672 4.4023 0.16016 1.4648 0.42578 2.9102 0.80078 4.3359 0.375 1.4219 0.85547 2.8125 1.4375 4.1641 0.58594 1.3516 1.2695 2.6523 2.0508 3.8984 0.78125 1.25 1.6523 2.4336 2.6133 3.5469 0.96094 1.1172 2 2.1562 3.1172 3.1172 1.1172 0.96094 2.3008 1.8281 3.5508 2.6094s2.5508 1.4648 3.9023 2.0508c1.3516 0.58203 2.7383 1.0625 4.1641 1.4375 1.4258 0.37109 2.8711 0.63672 4.3359 0.79297s2.9336 0.20312 4.4023 0.13672c1.4727-0.066406 2.9336-0.24219 4.3789-0.52734 1.8945-0.375 7.6719-1.5234 16.016 4.457 10.586 7.6445 18.887 22.297 20.66 36.473 6.7148 55.152-43.766 105.13-94.473 119.79zm-210.4-762.01c-0.32031 0.94141-0.73047 1.8438-1.2305 2.7031s-1.0781 1.6641-1.7344 2.4102c-0.65625 0.74609-1.3789 1.4219-2.1719 2.0273-0.78906 0.60547-1.6289 1.125-2.5234 1.5625-0.89062 0.44141-1.8203 0.78906-2.7812 1.043-0.96094 0.25781-1.9375 0.41797-2.9297 0.48047-0.99219 0.0625-1.9844 0.03125-2.9688-0.10156-0.98828-0.12891-1.9492-0.35547-2.8906-0.67578-13.281-4.5234-29.992-1.6953-44.73 7.582-12.707 8.0039-24.027 20.016-36.801 39.047-40.27 60.055-59.184 135.77-51.906 207.7 0.10156 0.99219 0.10156 1.9805 0.007813 2.9727-0.09375 0.99219-0.28125 1.9648-0.56641 2.918-0.28906 0.95312-0.66406 1.8672-1.1289 2.7461-0.46875 0.88281-1.0156 1.707-1.6445 2.4766-0.62891 0.77344-1.3281 1.4766-2.0938 2.1094-0.76953 0.63281-1.5898 1.1875-2.4648 1.6602-0.87891 0.46875-1.793 0.85156-2.7422 1.1445-0.95312 0.29297-1.9258 0.48828-2.9141 0.58594-0.99219 0.10156-1.9805 0.10547-2.9727 0.011718-0.99219-0.097656-1.9648-0.28906-2.918-0.57422-0.95312-0.28516-1.8672-0.66406-2.75-1.1289-0.87891-0.46875-1.7031-1.0156-2.4727-1.6445-0.77344-0.62891-1.4727-1.3281-2.1094-2.0977-0.63281-0.76562-1.1836-1.5898-1.6562-2.4648-0.46875-0.87891-0.85156-1.793-1.1406-2.7461-0.29297-0.94922-0.48828-1.9219-0.58594-2.9102-8.0117-78.844 12.758-161.81 56.887-227.64 9.3984-14.023 24.48-34.324 45.824-47.75 22.395-14.105 48.812-18.066 70.66-10.676 0.94531 0.32422 1.8477 0.73437 2.7109 1.2344s1.6719 1.0781 2.418 1.7383c0.75 0.66016 1.4297 1.3828 2.0352 2.1758s1.125 1.6367 1.5664 2.5352c0.4375 0.89453 0.78516 1.8242 1.0391 2.7891 0.25781 0.96484 0.41406 1.9453 0.47656 2.9375 0.0625 0.99609 0.027344 1.9883-0.10547 2.9766-0.13672 0.98828-0.36328 1.957-0.69141 2.8984zm191.27 671.66c0.5625 0.82422 1.0352 1.6914 1.4258 2.6094 0.39062 0.91406 0.6875 1.8594 0.88672 2.8359 0.20312 0.97266 0.30859 1.957 0.32031 2.9531 0.007813 0.99609-0.082031 1.9844-0.26562 2.9609-0.1875 0.97656-0.46875 1.9297-0.83984 2.8516-0.375 0.92188-0.83594 1.8008-1.3789 2.6328-0.54688 0.83203-1.1719 1.6016-1.8672 2.3125-0.69922 0.70703-1.4609 1.3438-2.2852 1.9023-3.9023 2.6016-7.9766 4.8945-12.223 6.8867-4.2461 1.9922-8.6172 3.6602-13.113 5-4.4922 1.3398-9.0625 2.3398-13.707 2.9961-4.6445 0.66016-9.3086 0.96875-14 0.92969-22.398 0-44.836-7.4297-61.934-22.004-0.75781-0.64453-1.4453-1.3594-2.0664-2.1406-0.61719-0.77734-1.1523-1.6133-1.6055-2.5-0.45312-0.88281-0.81641-1.8086-1.0898-2.7656-0.26953-0.95703-0.44531-1.9336-0.52734-2.9258-0.078126-0.99219-0.0625-1.9805 0.054687-2.9688s0.32812-1.957 0.63281-2.9062c0.30859-0.94531 0.70312-1.8555 1.1875-2.7227 0.48828-0.87109 1.0508-1.6836 1.6992-2.4414 0.64453-0.75781 1.3594-1.4453 2.1406-2.0625 0.78125-0.61719 1.6172-1.1523 2.5039-1.6055 0.88672-0.44922 1.8086-0.8125 2.7656-1.082 0.96094-0.27344 1.9336-0.44531 2.9258-0.52344 0.99219-0.082031 1.9844-0.0625 2.9727 0.054687 0.98828 0.11719 1.957 0.33203 2.9062 0.63672 0.94531 0.30859 1.8555 0.70703 2.7227 1.1914 0.86719 0.48828 1.6797 1.0547 2.4375 1.6992 21.035 17.938 55.406 19.777 78.246 4.2188 0.82422-0.5625 1.6953-1.0352 2.6094-1.4258 0.91797-0.39062 1.8672-0.68359 2.8438-0.88672 0.97266-0.20312 1.9609-0.30859 2.957-0.31641s1.9844 0.082031 2.9648 0.26953c0.97656 0.1875 1.9297 0.46875 2.8516 0.84375 0.92578 0.375 1.8008 0.83594 2.6367 1.3828 0.83203 0.55078 1.6016 1.1758 2.3086 1.875 0.71094 0.69922 1.3438 1.4609 1.9023 2.2891zm-120.38-134c-0.39062-0.91406-0.6875-1.8594-0.89062-2.832-0.20703-0.97656-0.3125-1.9609-0.32422-2.957-0.007812-0.99609 0.078126-1.9805 0.26172-2.9609 0.18359-0.97656 0.46484-1.9258 0.83594-2.8516 0.37109-0.92188 0.82812-1.8008 1.375-2.6328 0.54688-0.83594 1.168-1.6055 1.8633-2.3164 0.69922-0.71094 1.457-1.3477 2.2812-1.9062 0.82031-0.5625 1.6914-1.0352 2.6055-1.4258 11.777-5.0352 23.875-9.1211 36.293-12.254 12.418-3.1328 25.008-5.2773 37.762-6.4297 0.99219-0.089843 1.9844-0.078124 2.9766 0.027344 0.99219 0.10547 1.9609 0.30859 2.9141 0.60938 0.94922 0.29688 1.8633 0.68359 2.7383 1.1641 0.875 0.47656 1.6953 1.0352 2.4609 1.6758 0.76172 0.63672 1.457 1.3477 2.082 2.1211 0.625 0.77734 1.1719 1.6094 1.6328 2.4922 0.46094 0.88281 0.83203 1.8008 1.1133 2.7578s0.46484 1.9336 0.55469 2.9258c0.085938 0.99219 0.078126 1.9844-0.027343 2.9727-0.10938 0.99219-0.3125 1.9648-0.60938 2.9141-0.29688 0.95312-0.6875 1.8633-1.1641 2.7383-0.47656 0.875-1.0391 1.6953-1.6758 2.4609-0.64062 0.76562-1.3477 1.457-2.125 2.082s-1.6055 1.1719-2.4883 1.6328c-0.88672 0.46094-1.8047 0.83203-2.7617 1.1133s-1.9336 0.46484-2.9258 0.55469c-11.172 1.0078-22.199 2.8828-33.078 5.625-10.879 2.7461-21.477 6.3242-31.789 10.734-0.91797 0.39062-1.8633 0.69141-2.8359 0.89844-0.97656 0.20313-1.9609 0.3125-2.957 0.32422-0.99609 0.011719-1.9844-0.074219-2.9609-0.25781-0.98047-0.1875-1.9336-0.46484-2.8555-0.83594-0.92578-0.37109-1.8047-0.83203-2.6367-1.375-0.83203-0.54688-1.6055-1.168-2.3164-1.8672-0.71094-0.69922-1.3438-1.457-1.9062-2.2812-0.55859-0.82422-1.0312-1.6953-1.4219-2.6133z" fill="#f05b83"/>
</svg>
