<?xml version="1.0" encoding="UTF-8"?>
<svg width="1587" height="1587" version="1.0" viewBox="0 0 1190.2 1190.2" xmlns="http://www.w3.org/2000/svg" zoomAndPan="magnify">
 <defs>
  <clipPath id="b">
   <path d="m0 0h1189.5v1189.5h-1189.5z"/>
  </clipPath>
  <clipPath id="a">
   <path d="m218.13 0h752.87v1189.5h-752.87z"/>
  </clipPath>
 </defs>
 <g clip-path="url(#b)" fill="none">
  <path d="m0 0h1189.5v1189.5h-1189.5z"/>
  <path d="m0 0h1189.5v1189.5h-1189.5z"/>
 </g>
 <g clip-path="url(#a)">
  <path d="m966.64 1006.1c-3.5586-13.895-9.5-27.145-17.277-39.117-7.7734-11.992-17.301-22.73-27.84-32.215-10.547-9.4844-22.086-17.77-34.199-25.004-12.109-7.2422-24.766-13.508-37.762-18.898-3.5352-1.4609-7.1016-2.8555-10.684-4.1914 4.7969-17.102 7.2266-35.906 7.2305-55.172 0-19.676-2.5312-39.848-7.7188-59.184-5.1875-19.328-13.035-37.84-23.715-54.16-18.672-28.523-35.113-60.09-49.25-89.645-13.254-27.688-24.473-53.598-33.695-73.668 0.70312-0.42188 1.3984-0.84375 2.082-1.2695 0.14453-0.066406 0.23438-0.10937 0.23438-0.10937l-0.011719-0.023438c5.4453-3.3555 10.387-6.9219 14.828-10.66 8.5312 13.047 18.043 29.824 25.547 48.914 0.48047 1.2227 1.8633 1.8203 3.082 1.3477 1.2188-0.48437 1.8164-1.8633 1.3398-3.082-7.7734-19.758-17.605-37-26.355-50.34 2-1.8281 3.9102-3.6836 5.7031-5.5781 2.9102-3.0742 5.543-6.2227 7.9336-9.4141 3.3477 3.1094 6.8516 6.457 10.426 9.9922 9.5781 9.4766 19.668 20.309 28.621 31.672 8.957 11.363 16.773 23.25 21.828 34.762 0.52734 1.2031 1.9219 1.7539 3.125 1.2266 1.2031-0.53125 1.75-1.9297 1.2188-3.1328-5.4609-12.445-13.848-25.008-23.324-36.91-12.48-15.656-26.879-30.152-39.125-41.52 2.8125-4.1602 5.2383-8.375 7.3125-12.621 17.191 11.113 37.363 27.82 50.922 50.668 0.67187 1.1289 2.125 1.4961 3.2578 0.82422 1.125-0.66406 1.4922-2.1211 0.82422-3.25-14.262-24.004-35.297-41.227-52.992-52.59 1.3789-3.2031 2.5781-6.3945 3.6055-9.5625 4.3438-13.41 5.6875-26.359 5.6875-37.332-0.003906-16.867-3.168-29.082-3.7852-31.305-10.031-68.719-11.082-107.42-11.082-120.57 0-1.7695 0.023438-3.0742 0.03125-3.9297 0.011719-0.42578 0.023438-0.74219 0.03125-0.94531l0.007813-0.22266v-0.054687c0.011719-0.11719 0.011719-0.19922 0.007813-0.28906 0.054687-2.0742-0.035157-3.8789-0.16016-5.7734-0.10547-1.2969-0.24219-2.582-0.39844-3.8594-0.875-15.074-2.1055-35.438-4.3984-58.406-4.2305-42.301-12.023-93.457-27.984-137.34-7.9961-21.938-18.031-42.086-30.867-58.402-6.4062-8.1523-13.531-15.348-21.453-21.277-7.9141-5.9336-16.637-10.598-26.184-13.668-1.6445-0.53125-3.3633-0.78125-5.0742-0.78125-2.3438 0-4.6758 0.45703-6.9844 1.2266-4.332 1.4609-8.625 4.0391-13.039 7.4492-7.7031 5.9883-15.766 14.637-23.941 25.113-12.25 15.703-24.676 35.539-35.633 56.484-10.246 19.598-19.188 40.16-25.402 59.262-4.9414-0.71094-13.855-1.7305-24.602-1.7305-7.2461 0-15.328 0.46484-23.605 1.8203-28.801-49.891-60.246-83.336-88.953-104.43-14.633-10.746-28.551-18.297-41.07-23.172-12.523-4.875-23.633-7.1016-32.812-7.1094-5.3789 0.007812-10.105 0.75781-14.121 2.3711-7.1641 2.8711-13 7.8516-17.559 14.148-3.4258 4.7266-6.1758 10.199-8.4023 16.227-3.3398 9.0547-5.5117 19.371-6.8789 30.492-1.3594 11.121-1.9023 23.039-1.9023 35.238 0 26.137 2.4961 53.605 4.9766 77.102 0.47266 4.4766 0.94531 8.8125 1.3984 12.965 1.0273 12.086 1.7695 21.883 1.6172 28.008 0 0-0.80469 8.5586-2.3789 23.367-1.3008 4.1523-2.5078 8.7148-3.6641 13.664-3.6602 15.758-6.7031 35.301-9.5977 56.387-2.8828 20.969-5.5977 43.438-8.5664 65.062-0.87891 3.0039-6.4102 22.887-6.418 49.152 0 17.172 2.375 37.105 10.121 56.773 0.375 0.96094 0.77344 1.9062 1.1758 2.8594-2.3008 1.3359-4.6914 2.7812-7.1562 4.3438-17.898 11.355-39.453 28.777-53.984 53.227-0.66797 1.1289-0.29688 2.5859 0.82812 3.25 1.1289 0.67187 2.5859 0.30469 3.2578-0.82422 13.961-23.523 34.934-40.547 52.441-51.641 2.25-1.4297 4.4336-2.7539 6.543-3.9844 1.7852 3.8281 3.8008 7.6367 6.0508 11.387-4.8711 4.3516-10.289 9.3711-15.93 14.883-9.9102 9.6953-20.508 20.93-29.992 32.828-9.4844 11.902-17.863 24.465-23.332 36.91-0.52344 1.2031 0.019531 2.6016 1.2227 3.1328 1.1992 0.52734 2.5977-0.015625 3.1289-1.2266 5.2148-11.879 13.375-24.168 22.695-35.855 13.977-17.539 30.543-33.75 43.602-45.543 0.39453-0.35938 0.78125-0.70703 1.1719-1.0547 3.293 5.0273 7.0508 9.9414 11.312 14.68-9.6875 13.984-21.559 33.633-30.625 56.68-0.48047 1.2188 0.11719 2.5977 1.3398 3.082 1.2188 0.47266 2.5977-0.125 3.0781-1.3477 8.6992-22.137 20.102-41.156 29.531-54.859 3.5469 3.6367 7.3984 7.1602 11.609 10.543-13.152 13.945-25.812 31.262-35.445 52.414-10.543 23.141-17.441 50.855-17.438 83.551 0 4.1602 0.11328 8.3945 0.34375 12.715 0.011719 1.2031 0.22266 13.316 5.0859 31.832 4.8906 18.629 14.531 43.734 33.371 70.57-3.625 5.6602-12.215 19.629-20.836 37.691-5.6484 11.84-11.312 25.434-15.586 39.633-4.2656 14.203-7.1562 29.031-7.1641 43.383 0 10.605 1.5898 20.973 5.4727 30.559 3.0859 7.6055 7.332 14.5 12.352 20.738 8.7891 10.914 19.938 19.801 31.656 27.074 17.594 10.898 36.523 18.141 51.105 22.723 14.578 4.5664 24.805 6.457 24.945 6.4766l0.070312 0.015625c0.03125 0.007812 17.812 2.9922 40.07 5.9805 11.133 1.4922 23.387 2.9883 35.121 4.1172 11.738 1.125 22.938 1.8789 32.082 1.8789 3.9375 0 7.4961-0.13281 10.609-0.46484 1.5586-0.17188 3.0078-0.37891 4.3516-0.66406 1.3516-0.28516 2.5977-0.63281 3.7812-1.1094 1.9805-0.80859 3.5898-2.1328 4.8359-3.668 1.875-2.3047 3.0625-5.0547 3.8672-8.082 0.79688-3.0195 1.1797-6.332 1.1836-9.793-0.007813-6.2695-1.2617-13.051-4.0742-19.238-1.0664-2.332-2.3555-4.582-3.9062-6.6719 3.7734-0.10938 8.375-0.21094 13.691-0.28516 0.78125 3.8164 1.8945 7.707 3.9531 11.711 0.71875 1.3125 1.5547 2.6289 2.625 3.9258 1.0859 1.2852 2.4492 2.543 4.1484 3.5508 0.40625 0.25781 0.85938 0.47656 1.3242 0.6875l0.64844 0.28125 0.41406 0.17188 1.6523 0.66406 3.2656 1.3359c4.3281 1.8086 8.8711 3.707 13.746 5.2969 4.8711 1.5547 10.223 2.8242 16.016 2.6719 0.71484 0.03125 1.4414-0.074219 2.1719-0.15625l2.1797-0.26562c1.4453-0.25781 2.8789-0.68359 4.3125-1.043 1.3633-0.53906 2.75-1.0664 4.082-1.6797 1.2617-0.70703 2.5352-1.4141 3.7578-2.168l3.375-2.5703c1.0391-0.91797 1.9922-1.8906 2.9883-2.8281l0.73438-0.72266 0.58203-0.60156 1.2344-1.3008c0.47266-0.49219 0.94141-0.98047 1.4141-1.4688-0.30469 2.5547-0.5 5.2031-0.5 7.8672 0 3.0742 0.25 6.168 0.91797 9.1758 0.50391 2.2539 1.2422 4.4531 2.3242 6.5352 1.6094 3.1094 4.0586 5.9453 7.3789 7.8867 3.3164 1.9414 7.375 2.9375 12 2.9258h0.48828 0.011718c30.57-0.46094 57.23-4.8008 80.465-12.191 34.855-11.062 61.969-28.969 82.887-50.484 11.77-12.105 21.586-25.328 29.777-39.117 1.4805 1.2891 2.9453 2.5938 4.3789 3.9453 9.7969 9.2227 18.281 19.891 23.504 31.863 0.64453 1.4922 1.1875 3.0234 1.7812 4.5391 0.45312 1.543 1.0156 3.0664 1.3945 4.6289 0.32812 1.5703 0.82031 3.125 1.0156 4.7109l0.37891 2.3711c0.15625 0.80078 0.14062 1.5352 0.22656 2.3047l0.20703 2.2773 0.011719 2.6094v1.3047l0.003906 0.66016c-0.003906 0.003906 0 0.42578-0.003906 0.10937l-0.023438 0.27734-0.19531 2.2266c-0.40234 2.9375-1.2227 5.7695-2.4727 8.4375-2.582 5.3125-6.9023 9.9062-12.082 13.652-2.5547 1.9102-5.4062 3.5234-8.2656 5.1133-2.9297 1.4961-5.9141 2.9297-9.0273 4.1641-12.418 5.0273-25.797 8.2422-39.289 10.707-13.523 2.4336-27.254 4.0781-41.035 5.3203-27.594 2.4141-55.398 3.2188-83.238 3.5938l-41.832 0.39062c-13.973 0.125-27.953 0.23828-42.059 0.875l-5.3164 0.28516-2.6836 0.18359-2.6094 0.19922c-1.8398 0.17188-3.6406 0.43359-5.4648 0.64453l-2.7266 0.33594c-0.90625 0.12891-1.8086 0.34375-2.7148 0.51172-7.2461 1.2422-14.406 3.5547-21.168 6.8008-6.7578 3.2695-13.102 7.6797-18.379 13.227-5.2852 5.5273-9.4492 12.156-12.148 19.305-2.7109 7.1562-3.9883 14.777-3.9258 22.344 0.054688 7.5781 1.4258 15.082 3.9414 22.168 5 14.195 14.75 26.742 27.566 34.812l4.9141 2.8203c1.7539 0.83984 3.5508 1.6484 5.3281 2.4609 1.7031 0.67188 3.3047 1.1953 4.957 1.8086l0.62109 0.21094c0.51953 0.18359 0.34375 0.10938 0.55078 0.17578l0.34375 0.089844 1.3906 0.39453c0.9375 0.25781 1.8203 0.42969 2.7305 0.65234 7.1836 1.5625 14.188 2.4492 21.227 3.2461 14.055 1.5352 28.078 2.3555 42.109 2.9219 28.051 1.0273 56.105 0.8125 84.109-0.52734 28.008-1.3438 55.973-3.8359 83.77-7.8242 13.895-1.9883 27.746-4.4258 41.5-7.332 13.762-2.9297 27.438-6.3398 40.906-10.555 6.7539-2.0391 13.414-4.4102 20.043-6.875 6.5859-2.582 13.168-5.2188 19.559-8.3281l2.4062-1.1211 2.3828-1.2227c1.5742-0.80078 3.1719-1.582 4.7383-2.4297 3.1133-1.7266 6.25-3.418 9.2773-5.3242 3.082-1.793 6.0156-3.8516 8.9922-5.8477l4.332-3.1875c1.457-1.0391 2.8086-2.2422 4.2148-3.3555 5.5312-4.5977 10.77-9.6289 15.371-15.273 4.5625-5.6445 8.5195-11.859 11.551-18.547 0.74609-1.668 1.5352-3.3125 2.1094-5.1211l0.94141-2.6641 0.46094-1.3242 0.33984-1.2695 0.66797-2.5352 0.33203-1.2695 0.16406-0.625 0.11328-0.47656 0.066406-0.32031 1.0469-5.2461c1.2617-7.0078 2.2305-14.09 2.6211-21.223 0.75391-14.262-0.32422-28.719-3.9609-42.602" fill="#63262e"/>
 </g>
 <path d="m959.94 1007.8c-3.2891-13.18-8.7812-25.777-16.074-37.285-7.2969-11.527-16.332-21.945-26.434-31.238-10.109-9.2852-21.262-17.48-33.031-24.684-11.766-7.207-24.129-13.488-36.852-18.93-3.3477-1.4297-6.7148-2.793-10.109-4.0977-0.50391 1.5859-1.0234 3.1484-1.5664 4.7109-0.90625 2.6055-1.8633 5.1602-2.8867 7.6562-3.3516 8.1875-7.1641 16.34-11.477 24.344 2.0977 1.75 4.1641 3.5625 6.1758 5.4453 10.512 9.8008 19.91 21.328 25.965 34.977 0.75 1.7031 1.3867 3.4688 2.0664 5.2031 0.55078 1.7891 1.1914 3.543 1.6523 5.3711 0.41406 1.8359 0.96875 3.6367 1.2188 5.5117l0.46094 2.8008c0.16797 0.90234 0.20312 1.9336 0.30469 2.8945l0.24219 2.9492 0.019531 2.6133 0.019531 1.3047v0.65234c0 0.21094 0.011719 0.011719-0.003906 0.54688l-0.03125 0.37891-0.24219 2.9805c-0.50391 3.9883-1.625 7.9258-3.3359 11.578-3.4883 7.3086-9.1055 13.117-15.184 17.543l-2.3047 1.6445-2.3633 1.5078c-1.5625 1.0352-3.2148 1.8555-4.8203 2.793-3.2734 1.6836-6.5859 3.2695-9.957 4.6133-1.7578 0.71094-3.5195 1.3867-5.2852 2.0234-11.82 4.2969-23.926 7.1055-36.043 9.3398-13.945 2.5312-27.957 4.2188-41.969 5.4961-28.02 2.4922-56.055 3.332-84.016 3.75-13.984 0.20312-27.957 0.23828-41.898 0.32422-13.938 0.11328-27.875 0.19531-41.652 0.78906l-3.5078 0.1875-1.6289 0.089844-2.5352 0.16016-2.6094 0.19922c-1.6367 0.14453-3.2891 0.39453-4.9297 0.57812l-2.4688 0.29297c-0.82031 0.11719-1.6172 0.3125-2.4258 0.46094-6.5156 1.0781-12.766 3.1328-18.566 5.9023-5.793 2.7812-11.086 6.4727-15.445 11.023-4.3633 4.5547-7.7773 9.9648-10.016 15.867-4.5273 11.805-4.2734 25.379 0.015625 37.484 4.25 12.137 12.562 22.852 23.398 29.695l4.1602 2.3867 4.1602 1.9648c1.5352 0.61328 3.2539 1.1914 4.8711 1.7812l0.53125 0.19531 0.16016 0.042969 0.28516 0.078125 1.1289 0.31641c0.73828 0.22656 1.5742 0.38672 2.3594 0.58594 6.4453 1.4297 13.305 2.3555 20.121 3.1523 13.688 1.5664 27.539 2.4492 41.391 3.0703 27.727 1.1562 55.547 1.0742 83.301-0.11719 27.754-1.1914 55.457-3.5273 82.938-7.332 13.742-1.8984 27.414-4.2344 40.969-7.043 13.555-2.8086 27.008-6.0938 40.195-10.137 6.6211-1.9609 13.129-4.2266 19.605-6.5703 6.4141-2.4609 12.828-4.9805 19.012-7.9219l2.3359-1.0703 2.3008-1.1562c1.5273-0.77344 3.0664-1.5078 4.5781-2.3047 2.9961-1.6406 6.0234-3.2422 8.9141-5.0391 2.9688-1.6914 5.7578-3.6289 8.6016-5.4922l4.1211-2.9844c1.3828-0.97656 2.6562-2.0898 3.9883-3.1328 5.2188-4.2695 10.133-8.918 14.391-14.082 4.2383-5.1562 7.8711-10.793 10.648-16.797 0.69141-1.5 1.4258-3.0078 1.918-4.5312l0.82422-2.2617 0.41406-1.1289 0.35547-1.2578 0.67969-2.5234 0.33984-1.2578 0.17578-0.64062 0.011719-0.042969 0.027344-0.11719 0.0625-0.31641 1.0391-5.0156c0.84766-4.4883 1.5469-9.0039 2.0547-13.531 0.25-2.2422 0.47266-4.4961 0.61328-6.7539 0.8125-13.582-0.10156-27.293-3.4531-40.465" fill="#f2e5d7"/>
 <path d="m513.14 512.96c-3.7031-1.2188-7.3125-3.3086-9.8008-6.3555-2.5352-2.9961-3.8906-6.6172-4.3711-9.9648-0.52734-3.3672-0.35156-6.5234 0.03125-9.3398 0.37891-2.8242 1.0391-5.3281 1.7109-7.5 0.65625-2.1328 1.3438-3.9453 1.9492-5.4297-2.6016 0.32031-5.2539 0.39453-7.8945 0.054687-11.438-1.4336-14.895-6.7734-13.512-11.523 1.3867-4.7461 3.0625-7.9141 5.6328-7.5195 0 0-4.1484 8.3125 0 11.277 4.1562 2.9688 28.492 4.1562 38.582-5.6406 0 0 2.1836-2.668 5.2305-0.38281 4.2227 3.1758 22.598 14.332 30.941 11.367 8.3438-2.9688 11.113-9.5 6.1641-16.621 0 0 0.95312-0.78906 2.457 0 1.5039 0.78906 7.0391 11.289 2.293 17.117-3.4727 4.2695-11.844 4.8555-25.777 1.4727 0.023437 0.31641 0.042968 0.63672 0.0625 0.98047 0.10937 1.5391 0.30078 3.4453 0.67969 5.2852 0.070313 0.26562 0.14062 0.54297 0.21484 0.81641l0.11328 0.41797 0.039062 0.16797-0.011718-0.058594 0.007812 0.027344 0.054688 0.15234c0.1875 0.57031 0.38281 1.1562 0.58203 1.7578 0.38281 1.2266 0.74609 2.5469 1.0664 3.9531 0.625 2.8125 1.1055 5.9883 0.84375 9.4805-0.14062 1.7422-0.46484 3.5664-1.1055 5.3789-0.64062 1.8164-1.6367 3.5859-2.9531 5.1484-2.6367 3.1836-6.4727 5.1406-10.27 6.1289-0.95312 0.27734-1.9141 0.42188-2.8789 0.63281-0.96875 0.12109-1.918 0.29297-2.9023 0.36328-0.96094 0.054687-2.0352 0.18359-2.9102 0.17188l-1.3633 0.027344-0.68359 0.011718-0.78906-0.039062c-3.8086-0.078125-7.6992-0.61328-11.434-1.8164zm-83.883-85.887c-31.625-6.0195-47.801-28.121-56.797-52.418 0 0 1.1016-0.039062 4.8203 0 3.7227 0.039062 22.578 28.461 60.066 33.715 30.801 4.3086 56.059-6.625 57.262-1.457 0 0-33.074 26.301-65.352 20.16zm-114.08-40.625c0.5625-1.1836 1.9766-1.6875 3.1602-1.1289l14.707 6.9492c1.1875 0.56641 1.6953 1.9805 1.1328 3.1641-0.5625 1.1875-1.9727 1.6953-3.1602 1.1328l-14.707-6.957c-1.1875-0.5625-1.6953-1.9766-1.1328-3.1602zm32.348 22.988c1.2383 0.44141 1.8867 1.7969 1.4492 3.0273-0.43359 1.2422-1.7891 1.8867-3.0234 1.4492l-29.414-10.352c-1.2344-0.4375-1.8867-1.7969-1.4531-3.0312 0.4375-1.2344 1.793-1.8906 3.0312-1.4531zm160.54 18.543c2.5664-6.7734 16.406-7.1133 19.156-7.1172 4.5898 0 13.02 0.70312 17.863 5.3906 3.4062 3.2891 2.7656 6.6367 2.3281 7.9141-1.2148 3.5977-5.0742 6.0117-12.516 7.8398-4.3477 1.0625-8.4492 1.5508-8.6211 1.5742l-1.0664 0.12109-1.0156-0.34375c-4.9453-1.6797-13.582-5.2148-15.871-10.078-0.8125-1.7148-0.90625-3.5977-0.25781-5.3008zm95.484-94.488c67.5-36.422 96.559 22.871 96.559 22.871 0.75 30.551-10.598 48.219-10.598 48.219l0.074219-0.21875c-4.1758 11.801-12.547 23.812-28.523 32.445-22.656 12.254-44.797 9.6758-61.848 3.5547v0.003907l-0.0625-0.027344c-0.55469-0.19922-1.1016-0.39844-1.6445-0.60547l-0.16016-0.058594c-0.51953-0.19922-1.0352-0.40625-1.5508-0.60938l-0.17969-0.074218c-0.50391-0.20313-1-0.40234-1.4922-0.61328l-0.19531-0.085937c-0.48438-0.20312-0.96484-0.40625-1.4375-0.61719l-0.19531-0.089843c-0.47656-0.20313-0.94141-0.42188-1.4023-0.62891l-0.19141-0.089843c-0.46484-0.21875-0.91797-0.43359-1.375-0.65234l-0.16016-0.078125c-0.46484-0.22266-0.92578-0.44922-1.375-0.67578l-0.12109-0.0625c-0.46484-0.23438-0.92578-0.47266-1.3828-0.70313l-0.0625-0.035156c-2.3438-1.2188-4.4961-2.4531-6.4492-3.6367-2.4648-1.4961-4.6133-2.9258-6.3828-4.1797l-0.050781-0.03125c-0.26563-0.1875-0.52344-0.37109-0.76953-0.55078l-0.097656-0.070313c-0.23047-0.16797-0.44922-0.32812-0.66406-0.48828l-0.12109-0.085937c-0.20312-0.14844-0.39844-0.29688-0.58594-0.44141l-0.12891-0.09375c-0.18359-0.13281-0.35156-0.26562-0.52344-0.39062l-0.10547-0.089844v0.007813s-0.26562 1.8203 13.184 8.6055c0 0-11.668-2.7891-19.027-7.9805 0 0-13.234-63.52 39.047-91.742zm108.56 80.441c1.2461-0.39453 2.5859 0.29297 2.9766 1.543 0.40234 1.2461-0.28906 2.5859-1.543 2.9805l-20.605 6.5508c-1.2539 0.39453-2.5898-0.29687-2.9805-1.543-0.40625-1.25 0.28906-2.5859 1.5469-2.9844zm16.301 13.555c1.3047 0 2.3711 1.0625 2.3711 2.375s-1.0664 2.375-2.3711 2.375c-14.586-0.003906-28.957 2.0664-30.637 2.3242-0.10938 0.015625-0.16797 0.019531-0.16797 0.019531v0.007813c-1.2969 0.19141-2.5078-0.69141-2.707-1.9883-0.20703-1.2969 0.6875-2.5117 1.9844-2.7109 0.070312-0.007813 15.512-2.3984 31.527-2.4023zm-224.31 583.92c0.38672 1.3086 0.84375 2.6445 1.1367 3.9922 0.21484 1.3398 0.51953 2.6875 0.64062 3.9922 0.074218 1.3047 0.15234 2.582 0.22266 3.7812-0.023438 1.2031-0.097656 2.3203-0.14062 3.3789-0.03125 0.51953-0.058594 1.0312-0.082031 1.5 0.51562-0.13672 0.94531-0.27344 1.25-0.39844 0.23047-0.09375 0.59766-0.32812 1.0625-0.88672 0.45703-0.54688 0.97266-1.4297 1.4219-2.582 0.89844-2.2891 1.4844-5.6172 1.4727-9.2734 0.003906-3.7344-0.58203-7.8242-1.7969-11.617-1.2109-3.8008-3.0508-7.3008-5.4258-10.016-1.418-1.6172-3.0273-2.9414-4.8359-3.9727-0.33984-0.03125-0.77734-0.082032-1.3008-0.14453-1.4883-0.19141-3.5938-0.44531-6.2812-0.87891-2.6875-0.42578-5.9219-1.0195-9.6289-1.7344-1.8477-0.375-3.8125-0.79297-5.8828-1.2188-2.0625-0.47656-4.2305-0.97656-6.4922-1.4922-2.2656-0.52344-4.5859-1.2148-7.0117-1.8438-1.0273-0.26953-2.0703-0.5625-3.125-0.87891-1.4219-0.40625-2.8555-0.83594-4.3242-1.2812-1.2734-0.38672-2.5664-0.78516-3.8711-1.1875-1.2969-0.44141-2.6055-0.89063-3.9297-1.3555-2.6445-0.91797-5.3594-1.793-8.0664-2.8984-1.3555-0.52344-2.7227-1.0625-4.1016-1.5938-1.3789-0.53516-2.7695-1.0625-4.1328-1.707-2.7383-1.2383-5.5273-2.4375-8.3008-3.7422-2.7383-1.3945-5.4961-2.793-8.2656-4.1992-2.7305-1.4922-5.4023-3.1211-8.0977-4.707-1.3633-0.75-2.6562-1.6523-3.9453-2.5391-1.293-0.88281-2.5859-1.7695-3.875-2.6445-2.6328-1.6719-5.0039-3.7266-7.4336-5.6328l-1.8086-1.4531-0.89844-0.71875-0.44922-0.35547-0.22266-0.17578-0.28906-0.26562c-1.0859-1.0195-2.168-2.0234-3.2422-3.0195-1.0703-1.0156-2.1367-2.0078-3.1992-3-1.0547-1.0156-2.0781-2.1484-3.1055-3.1992-1.0195-1.0703-2.0273-2.1328-3.0273-3.1797-0.99219-1.0586-1.8516-2.1836-2.7695-3.2656-0.89844-1.0859-1.7852-2.1562-2.6641-3.2148-0.85938-1.0703-1.6289-2.207-2.4258-3.2812-0.78906-1.0898-1.5586-2.1602-2.3203-3.2188-0.69141-1.1172-1.3672-2.2109-2.0352-3.2852-1.3828-2.1055-2.4961-4.293-3.5938-6.3672-0.26562-0.51953-0.53125-1.0312-0.79688-1.5391-0.23047-0.52344-0.45703-1.0469-0.68359-1.5625-0.44531-1.0273-0.88281-2.0312-1.3086-3.0078-0.41406-0.98438-0.72656-1.9844-1.0781-2.9258-0.32422-0.95703-0.71094-1.8555-0.92969-2.7891-0.48828-1.8398-1.0117-3.5352-1.2891-5.1602-0.15234-0.80078-0.33203-1.5664-0.44141-2.3164-0.09375-0.74219-0.17969-1.4453-0.26562-2.125-0.1875-1.3398-0.19141-2.5586-0.26562-3.6016 0.027344-1.0586-0.007812-1.9414 0.070312-2.6562 0.042969-0.73437 0.10156-1.2812 0.15625-1.6484 0.042969-0.36328 0.085938-0.55469 0.085938-0.55469s-0.011719 0.19141 0.015625 0.5625c0.011719 0.37109 0.050781 0.91797 0.14062 1.6172 0.16016 1.4219 0.51172 3.4766 1.207 6.0156 0.18359 0.62891 0.375 1.3008 0.57812 2 0.21875 0.69141 0.48438 1.4023 0.74219 2.1484 0.47266 1.5078 1.207 3.0586 1.9102 4.7422 0.76172 1.6406 1.6328 3.375 2.582 5.168 0.51562 0.88672 1.043 1.7969 1.5859 2.7109 0.26953 0.45703 0.53906 0.92578 0.81641 1.3906 0.30469 0.46484 0.61328 0.91797 0.92578 1.3789 1.2344 1.8633 2.4844 3.8125 4.0078 5.6836 0.73047 0.95312 1.4727 1.9258 2.2227 2.9062 0.8125 0.93359 1.6406 1.8867 2.4727 2.8594 0.84375 0.96094 1.6484 1.9805 2.5469 2.9258 0.91797 0.94141 1.8438 1.8945 2.7812 2.8594 0.94531 0.94141 1.8477 1.9727 2.8555 2.875 0.99609 0.92578 2 1.8555 3.0078 2.793 1.0273 0.93359 1.9883 1.8945 3.082 2.8281 1.1172 0.92578 2.2383 1.8633 3.3711 2.793 1.1289 0.94922 2.2695 1.8906 3.4141 2.8398 1.1328 0.83203 2.2734 1.6641 3.418 2.5 2.3633 1.7031 4.6367 3.5312 7.2109 5.0078 1.25 0.77734 2.5078 1.5586 3.7578 2.3438 1.25 0.77344 2.5 1.5742 3.832 2.2383 2.6289 1.3867 5.2148 2.832 7.8438 4.1836 2.6758 1.2656 5.3477 2.5234 7.9922 3.7656 2.6875 1.1758 5.3984 2.25 8.0469 3.3594 2.6523 1.1055 5.3633 2.0156 7.9727 3.0078 2.6055 1.0156 5.25 1.8164 7.8086 2.6641 1.2812 0.42188 2.5469 0.83203 3.8008 1.2461 1.2695 0.36719 2.5156 0.73438 3.75 1.0898 4.9141 1.5234 9.6367 2.7266 13.992 3.8242 2.1797 0.53125 4.2695 1.0469 6.2578 1.5391 2 0.4375 3.8984 0.85156 5.6836 1.2461 3.5742 0.73828 6.6953 1.3516 9.2695 1.793 2.5664 0.48437 4.6094 0.8125 5.9453 1.0391 0.82031 0.11719 1.4102 0.19922 1.7539 0.25391 2.0547-0.097656 10.738-0.49219 24.148-0.71094-0.78125-7.8516-0.77344-15.531-0.49609-23.086 0.097656-2.5273 0.24219-5.0195 0.41016-7.5117 0.47266-6.8359 1.1953-13.562 2.1055-20.172 2.4766-18.031 6.1602-35.223 10.586-51.262 2.2109-8.0195 4.6484-15.777 7.2227-23.148 1.2031-3.6172 2.3867-7.1797 3.543-10.676 1.0352-3.5391 2.043-7 3.0312-10.402 3.7852-13.664 6.3594-26.438 8.2617-37.844 1.8438-11.406 3.0039-21.438 3.7031-29.738 0.71094-8.2969 0.95703-14.84 1.0781-19.309 0.12891-4.4727 0.070313-6.8438 0.070313-6.8438l1.4531-0.12109s0.019531 0.15234 0.058594 0.4375c0.11719 0.875 0.38672 3.0703 0.69141 6.4531 0.36719 4.5039 0.79688 11.125 0.78516 19.555 0 4.2227-0.097656 8.8945-0.35547 13.973-0.089844 2.5469-0.26953 5.1914-0.48438 7.9297-0.10547 1.3711-0.21875 2.7695-0.32812 4.1836-0.14844 1.4141-0.29688 2.8477-0.45313 4.3164-1.1914 11.711-3.2891 24.875-6.6523 39.023-0.91406 3.5234-1.8516 7.1055-2.8086 10.773-1.0938 3.6172-2.2031 7.3203-3.3359 11.074-2.375 7.2852-4.5898 14.836-6.5977 22.727-4.0039 15.738-7.2734 32.609-9.3281 50.176-0.29688 2.5664-0.55859 5.1523-0.80469 7.7461-0.58594 6.2734-1.0117 12.625-1.1875 19.008-0.21484 8.9961 0.011719 18.16 1.4688 26.844 0.73438 4.2852 1.8633 8.5586 3.5898 11.73 0.43359 0.75391 0.89063 1.4375 1.3438 1.9727 0.45703 0.51172 0.89063 0.86328 1.2422 1.0625l0.25781 0.11328 0.16406 0.085937 0.42188 0.15234 0.46094 0.19141c0.011718-0.14062 0.019531-0.26172 0.03125-0.39062 0.14453-1.1055 0.29687-2.3125 0.46094-3.582 0.22266-1.2344 0.45312-2.543 0.69531-3.8945 0.28906-1.3398 0.5625-2.7188 0.89453-4.1055 0.35547-1.3672 0.66016-2.7734 1.0625-4.1602 0.74609-2.7695 1.5625-5.5078 2.3945-8.0508 0.8125-2.5391 1.6406-4.8906 2.3633-6.8906 1.4609-4 2.5547-6.6016 2.5547-6.6016s-0.52344 2.7734-1.1133 6.9648c-0.28516 2.0938-0.60547 4.5312-0.86719 7.1562-0.27344 2.6133-0.49609 5.3984-0.64844 8.1758-0.097656 1.3867-0.10156 2.7734-0.16016 4.1367-0.035156 1.3633-0.007812 2.6914-0.015625 3.9844 0.042969 1.2812 0.085938 2.5117 0.125 3.6719 0.097657 1.1484 0.18359 2.2266 0.26562 3.2422 0.10156 0.98047 0.26172 1.8672 0.36328 2.6523 0.046874 0.39844 0.11328 0.75 0.17578 1.0781 3.0547 1.2227 6.0312 2.3906 8.9805 3.332 1.25 0.40625 2.4922 0.74609 3.7188 1.0586l-0.79688-1.0039s0.57813-0.41016 1.582-1.1289c0.50391-0.36719 1.1406-0.77344 1.8047-1.3945 0.67188-0.59375 1.4648-1.2266 2.2852-2.0078 0.80859-0.80078 1.6836-1.6836 2.6055-2.6016 0.875-1 1.8281-2.0273 2.7773-3.1406 0.91406-1.1445 1.9062-2.293 2.8398-3.5352 0.91797-1.2461 1.9062-2.4883 2.8008-3.793 1.8398-2.5898 3.6016-5.2539 5.1797-7.8047 1.5977-2.5391 3.0039-4.9844 4.2031-7.082 2.3633-4.1953 3.7891-7.0977 3.7891-7.0977s-0.86719 3.1016-2.4375 7.7109c-0.79297 2.3047-1.7461 4.9688-2.8672 7.8125-1.1094 2.8516-2.375 5.8555-3.7578 8.8359-0.66016 1.5-1.4336 2.9648-2.1445 4.4219-0.72266 1.4531-1.5312 2.8516-2.2695 4.2305-0.78125 1.3555-1.5938 2.6484-2.3398 3.8906-0.80078 1.2188-1.6094 2.3516-2.332 3.4102-0.16406 0.23438-0.32812 0.42969-0.49219 0.63672-0.14062 0.1875-0.28125 0.38281-0.42188 0.55469l1.1797-0.12891c0.90625-0.16406 1.7695-0.45703 2.6602-0.63672l2.543-1.0664 2.4414-1.4219 2.3281-1.7734c0.26172-0.23438 0.51562-0.49219 0.77344-0.73047 0.47266-0.46484 0.94141-0.92969 1.4219-1.3789l0.55078-0.52344 0.65625-0.6875 1.2344-1.3086c0.82031-0.85156 1.6367-1.7188 2.5117-2.5938 3.4531-3.5273 6.8164-6.8242 10.195-10.168 3.3555-3.3242 6.7031-6.6445 10.035-9.9414 13.273-13.148 25.598-26.672 36.355-40.637 5.3398-7.0078 10.266-14.109 14.789-21.258 4.5859-7.2852 8.7344-14.375 12.637-21.512 1.8711-3.5898 3.7891-7.0898 5.4727-10.641 0.85156-1.7734 1.7695-3.4922 2.5898-5.2461 0.8125-1.7617 1.625-3.5 2.4219-5.2227 0.82422-1.7305 1.5742-3.4648 2.2969-5.1875 0.73828-1.7266 1.4727-3.4336 2.1953-5.125 1.375-3.418 2.6797-6.7812 3.957-10.086 1.207-3.332 2.3867-6.5977 3.5391-9.7891 1.0625-3.2188 2.0938-6.375 3.1055-9.457 0.91016-3.0977 1.8008-6.125 2.6719-9.0664 0.89453-2.9453 1.5938-5.8398 2.3633-8.6328 0.37891-1.3945 0.74219-2.7734 1.1094-4.1289 0.32031-1.3711 0.63281-2.6953 0.94141-4.0234 0.625-2.6328 1.2305-5.1719 1.8125-7.6094 1.0352-4.9141 2.0195-9.4258 2.8359-13.516 0.76172-4.1094 1.4453-7.7734 2.0469-10.965 0.53516-3.207 0.99219-5.9336 1.3594-8.1406 0.74609-4.4258 1.1445-6.7891 1.1445-6.7891l0.82812 0.078126s-0.11328 2.3945-0.32422 6.8867c-0.12109 2.2422-0.20703 5.0234-0.46484 8.2812-0.28125 3.2578-0.60156 7.0039-0.96094 11.18-0.46094 4.1875-1.0586 8.8086-1.6719 13.855-0.39453 2.5156-0.80859 5.1172-1.2383 7.832-0.21484 1.3516-0.4375 2.7383-0.66406 4.1328-0.27344 1.4023-0.54297 2.8242-0.82031 4.2656-2.0898 11.566-5.2695 24.516-9.6602 38.387-4.5312 13.809-10.367 28.539-17.965 43.426-3.8086 7.3906-8.0195 14.988-12.469 22.418-4.6289 7.5-9.6758 14.965-15.133 22.281-2.8594 3.7969-5.8281 7.5586-8.8867 11.277-4.6016 5.6055-9.4141 11.125-14.387 16.559 0.17969 0.046874 0.35156 0.089843 0.53516 0.12891 0.91016 0.18359 1.8828 0.35547 2.9062 0.55078 1.0273 0.17969 2.1406 0.28516 3.293 0.44531 2.3125 0.26172 4.8633 0.42969 7.5781 0.51172 1.3555 0.039063 2.7617 0.027344 4.2031 0.039063 1.4414-0.035157 2.9062-0.0625 4.4102-0.10156 2.9961-0.14062 6.1094-0.33984 9.2773-0.64844 2.9688-0.28125 5.9922-0.62109 9.0117-1.0352 0.1875-0.019531 0.38281-0.042968 0.57422-0.078124 12.859-1.7383 25.645-4.5078 35.152-6.8398 9.5234-2.3398 15.789-4.2383 15.789-4.2383s-6.0664 2.4688-15.371 5.6562c-4.0781 1.4062-8.7812 2.957-13.859 4.5-6.5039 1.9688-13.621 3.9375-20.852 5.5938-3.2148 0.75781-6.457 1.4219-9.6641 2.0234-3.2148 0.60547-6.3906 1.1016-9.5 1.5312-1.5586 0.18359-3.0898 0.35938-4.5938 0.52734-1.5078 0.12891-2.9883 0.27734-4.4336 0.35938-2.8984 0.17578-5.668 0.25-8.25 0.19531-1.2891-0.050781-2.5273-0.066406-3.7109-0.16016-1.1953-0.11719-2.3242-0.21875-3.3828-0.32422-2.1406-0.32422-4.0117-0.60547-5.5664-1.0273-0.1875-0.039062-0.35547-0.082031-0.53125-0.12891-2.1914 2.3008-4.3945 4.5859-6.6289 6.8477-2.9766 3.0508-6.0195 6.0586-9.0664 9.0586-0.26172 0.94531-0.54297 2.0039-0.82031 3.1562-0.19141 0.80859-0.38672 1.6602-0.57812 2.5547 0.12109-0.10547 0.23828-0.19922 0.36328-0.30078 1.0117-0.85937 2.1289-1.6055 3.2305-2.3633 1.0781-0.78125 2.2734-1.3789 3.375-2.0664 1.1484-0.60547 2.2695-1.1992 3.3789-1.7031 2.2266-1.0117 4.3359-1.8203 6.1758-2.4023 1.832-0.60547 3.3828-1.0039 4.4727-1.2422 1.0859-0.24609 1.7109-0.33594 1.7109-0.33594s-0.58594 0.23047-1.5781 0.72266c-0.99609 0.47656-2.3867 1.2188-3.9922 2.1992-1.6055 0.96875-3.4062 2.207-5.2266 3.625-0.91016 0.71484-1.8047 1.4961-2.707 2.2891-0.84375 0.86328-1.7773 1.625-2.5586 2.5586-0.80469 0.88672-1.6172 1.7539-2.2969 2.707-0.35938 0.46484-0.70312 0.91406-1.0547 1.3711-0.30469 0.46484-0.60547 0.94141-0.89453 1.3984-0.29297 0.46094-0.57813 0.91016-0.85938 1.3516-0.23437 0.45703-0.46094 0.91406-0.6875 1.3555-0.22656 0.42969-0.4375 0.85547-0.64844 1.2617-0.21094 0.41016-0.33203 0.84766-0.49609 1.2305-0.30078 0.79297-0.58984 1.4961-0.8125 2.1367-0.16797 0.65625-0.31641 1.2266-0.4375 1.6953-0.039062 0.14453-0.070312 0.24609-0.097656 0.36719 0.085937 2.2344 0.35156 4.3633 0.83984 6.2109 0.60156 2.3125 1.5195 4.1836 2.707 5.5586 0.79688 0.92188 1.7148 1.6641 2.9023 2.2617 1.5742 0.76953 3.6875 1.3203 6.6328 1.3242 0.12109 0 0.24609-0.003906 0.375-0.003906h-0.015625c0.73438-0.007813 1.4453-0.039063 2.1758-0.0625 0.13672-0.78125 0.28516-1.6797 0.55469-2.6719 0.16797-0.58594 0.35547-1.207 0.55078-1.8555 0.22656-0.64062 0.50781-1.3008 0.78125-1.9883 0.59766-1.3516 1.3477-2.7617 2.2695-4.1328 0.91406-1.3867 2.0156-2.707 3.2031-3.9883 1.2305-1.2344 2.543-2.4375 3.9688-3.5117 1.4023-1.082 2.9023-2.0508 4.4219-2.9375 3.457-1.9922 7.0469-3.4961 10.414-4.6602 2.5781-0.87109 5.0352-1.5547 7.1719-2.0625 4.9297-1.1719 8.2773-1.4883 8.2773-1.4883s-3.2344 0.90625-7.8047 2.8984c-1.6836 0.72656-3.5469 1.6016-5.4805 2.6328-3.3008 1.7656-6.7891 3.9609-9.8516 6.5703-1.2109 1.0234-2.3555 2.1055-3.375 3.2344-1.0391 1.1133-1.918 2.293-2.7148 3.4414-0.75 1.1719-1.3945 2.3125-1.8711 3.4492-0.49219 1.1133-0.82422 2.207-1.0664 3.2031-0.10156 0.50391-0.19531 0.98828-0.28906 1.4453-0.042969 0.45312-0.085938 0.89844-0.12891 1.3047-0.027343 0.29687-0.023437 0.54687-0.027343 0.80469 39.426-1.9219 71.41-10.707 97.438-24 28.445-14.543 49.852-34.469 66.105-56.953 3.9688-5.4805 7.6133-11.117 10.988-16.867 5.8359-9.9609 10.832-20.23 15.094-30.629 8.1484-19.855 12.418-43.898 12.414-68.82 0-18.863-2.4336-38.23-7.3906-56.723-4.957-18.48-12.449-36.074-22.492-51.418-19.023-29.074-35.625-60.98-49.867-90.742-13.418-28.043-24.734-54.184-33.91-74.141-1.4023 0.58984-2.9023 1.2188-4.5273 1.7812-2.3789 0.83594-4.9219 1.8242-7.6602 2.707-2.7344 0.85937-5.6016 1.8633-8.5977 2.7266-0.56641 0.16016-1.1484 0.33594-1.7188 0.50391-2.457 0.72266-4.957 1.4766-7.5195 2.1445-3.1641 0.85156-6.3594 1.7344-9.5859 2.5156-1.6055 0.39844-3.2109 0.79297-4.8086 1.1992-1.6094 0.375-3.2109 0.75-4.793 1.1172-3.168 0.76953-6.3047 1.4375-9.3281 2.1016-6.0625 1.3203-11.734 2.457-16.598 3.3906-9.6133 1.8398-16.062 2.875-16.219 2.8984 0.19141-0.050782 6.5156-1.6641 15.871-4.3359 4.7578-1.3711 10.285-3.0117 16.172-4.8555 2.9453-0.93359 5.9922-1.8789 9.0586-2.9141 1.5352-0.50781 3.0859-1.0234 4.6367-1.5312 1.5469-0.53906 3.0977-1.082 4.6445-1.6211 3.1172-1.0625 6.1914-2.207 9.2148-3.3242 3.0391-1.0859 5.9648-2.3164 8.8242-3.4141 2.8594-1.1094 5.5391-2.3359 8.1328-3.4102 2.5742-1.0898 4.9258-2.2656 7.1406-3.2734 2.2148-1 4.1172-2.1016 5.8672-2.9766 0.60156-0.30859 1.1641-0.60156 1.7031-0.88281 0.14844-0.10156 0.28516-0.21875 0.44922-0.30859 1.2578-0.68359 2.4688-1.3906 3.6641-2.0938 0.375-0.22656 0.69922-0.41797 0.98828-0.59375 5.832-3.5039 10.98-7.2539 15.547-11.172-8.7383-12.492-15.508-20.125-16.289-20.992l-0.070312-0.085937c-0.88672-0.96875-0.80859-2.4727 0.16016-3.3555 0.96875-0.87891 2.4648-0.8125 3.3555 0.16406 0.042969 0.0625 7.082 7.8125 16.414 21.078 1.457-1.3672 2.8711-2.7539 4.2031-4.1562 2.8789-3.0469 5.457-6.1641 7.7695-9.3203-11.148-9.9883-19.426-16.512-20.754-17.559-0.12891-0.097656-0.1875-0.14062-0.1875-0.14062-1.0352-0.80469-1.2266-2.3008-0.42188-3.332 0.80469-1.0391 2.293-1.2266 3.3281-0.42578 0.035157 0.027344 8.668 6.7148 20.758 17.52 2.3203-3.5312 4.3477-7.1094 6.082-10.703 0.070313-0.14453 0.13281-0.29688 0.20312-0.44531-13.777-8.0391-24.117-11.969-24.758-12.207l-0.027344-0.011719v0.003906c-1.2344-0.45312-1.8594-1.8242-1.4023-3.0508 0.45312-1.2305 1.8164-1.8633 3.043-1.4102 0.097656 0.039063 10.703 3.9688 25.086 12.312 6.1641-14.797 8.0039-29.609 8.0039-41.883 0-2.4922-0.078124-4.8672-0.20703-7.125-0.74219-13.047-3.2656-21.781-3.2969-21.859-0.054687-0.1875-0.10938-0.45703-0.13672-0.65234-10.141-69.32-11.227-108.56-11.227-122.23 0-2.957 0.046875-4.6992 0.070313-5.3086-0.17969-2.918-0.35938-6.1484-0.56641-9.6445-0.03125-0.25-0.054687-0.5-0.09375-0.74219-0.46484-3.4453-1.1719-6.8789-2.0664-10.27-0.85156-3.4023-1.9844-6.7383-3.1797-10.043-1.2773-3.2773-2.6523-6.5273-4.2344-9.6758-0.8125-1.5664-1.5703-3.1562-2.4727-4.6797-0.87891-1.5312-1.7148-3.0859-2.6992-4.5586-1.8438-3.0078-3.8867-5.9062-6.0078-8.7422l-3.293-4.1758-3.4883-4.0195c-1.168-1.332-2.4453-2.5742-3.6641-3.8633-1.2031-1.3086-2.5117-2.5156-3.8164-3.7344-2.543-2.4922-5.3125-4.75-8.0312-7.0625-1.3828-1.125-2.8281-2.1836-4.2422-3.2734l-2.1289-1.6328c-0.71484-0.53125-1.4727-1.0234-2.2031-1.5391l-4.4258-3.0469c-1.5-0.97266-3.043-1.8945-4.5625-2.8516-3.0078-1.9492-6.1992-3.625-9.332-5.3828-1.5547-0.90625-3.1875-1.6758-4.7969-2.4844l-4.8359-2.4023c-3.2773-1.5156-6.5938-2.9453-9.8867-4.4062l-10.105-3.9492-10.18-3.5117c-5.668-1.3906-11.227-2.8711-16.809-4.4609-5.6445-1.6172-11.273-3.3164-16.879-5.2734-2.8047-0.98047-5.6055-2.0234-8.4102-3.2148-1.4023-0.59766-2.8086-1.2266-4.2266-1.9609-1.4219-0.74609-2.8477-1.5117-4.3789-2.6914-0.76562-0.62109-1.5859-1.2734-2.4648-2.5703-0.20703-0.28906-0.44141-0.76953-0.62109-1.1719-0.19141-0.53906-0.35938-1.0078-0.41797-1.6992-0.078125-0.625 0-1.3438 0.15234-2.0039 0.09375-0.30859 0.20312-0.62109 0.33203-0.92188l0.13672-0.29688c0.19531-0.42578 0.12891-0.30859 0.28516-0.70312l0.33594-0.92969 0.66797-1.9844 2.6016-8.2539c3.4375-11.117 6.9375-22.281 10.797-33.328 1.9492-5.5234 3.9727-11.02 6.1133-16.484 2.1641-5.457 4.4844-10.871 6.9648-16.223 2.4805-5.3516 5.1523-10.641 8.2227-15.766 3.0742-5.1055 6.418-10.145 10.754-14.641 2.1992-2.2109 4.6328-4.3477 7.7109-5.8594 1.5352-0.75 3.2266-1.3438 5.0469-1.5625-0.007812 0 0.19922-0.023438 0.26172-0.03125l0.066406-0.003907h0.13672l0.26562-0.015624 0.54688-0.023438 1.0938-0.050781c0.32812-0.03125 0.8125 0.015625 1.2422 0.046875l1.3125 0.097656c0.99609 0.11719 1.9609 0.30469 2.9062 0.52734 5.3945 1.2617 10 4.1016 14.004 7.3125 4.6914 3.8438 8.7188 8.2695 12.332 12.945 3.625 4.6758 6.8438 9.6133 9.7695 14.691 2.9297 5.0938 5.4883 10.367 7.7656 15.75 1.1172 2.7031 2.1562 5.4453 3.0391 8.2266 0.85547 2.793 1.6211 5.6406 1.8242 8.5469l-0.003906 0.007812c-0.4375-2.8828-1.4258-5.625-2.4883-8.3164-1.0664-2.6875-2.2773-5.3242-3.5664-7.9141-2.6094-5.1641-5.5273-10.168-8.707-14.984-0.65234-0.98828-1.3242-1.9688-2-2.9453 5.0938 17.078 22.508 79.535 21.469 131.65l0.67188 0.51172c1.4922 1.1523 3.0273 2.2578 4.5 3.4492 2.8984 2.4336 5.8398 4.8164 8.5703 7.4648 1.3984 1.2852 2.793 2.5703 4.0938 3.9609 1.3086 1.3672 2.6758 2.6953 3.9375 4.1133l3.7695 4.293c1.2031 1.4766 2.3711 2.9805 3.5586 4.4727 2.293 3.043 4.5156 6.1523 6.5352 9.3984 1.0625 1.5938 1.9805 3.2695 2.9375 4.9258 0.52734 0.87109 1.0039 1.7578 1.4688 2.6602-1.168-14.504-2.7344-30.605-4.9414-47.465-5.1094-39.172-13.66-82.348-28.375-118.34-9.793-24.012-22.328-44.758-38.094-59.098-9.0117-8.207-19.051-14.348-30.355-17.988-0.64844-0.21094-1.3516-0.32422-2.168-0.32422-0.73047 0-1.5664 0.10938-2.4805 0.31641-0.46875 0.11328-0.96484 0.23828-1.4844 0.41797-1.5352 0.50781-3.2461 1.3125-5.0977 2.4102-3.7109 2.1953-7.9258 5.5664-12.371 9.9023-8.918 8.6719-18.754 21.168-28.363 35.711-19.238 29.074-37.625 66.359-47.375 98.027-0.71875 2.3242-3.0625 3.7266-5.4531 3.2539h-0.015625l-0.082031-0.011719c-0.082031-0.019531-0.20312-0.039062-0.36719-0.070312-0.32812-0.058594-0.82422-0.14844-1.4844-0.24609-1.3047-0.21094-3.2266-0.49609-5.6406-0.77734-4.8242-0.56641-11.621-1.1289-19.387-1.1289-7.7617-0.003906-16.484 0.5625-25.156 2.2422-2 0.38672-4.0234-0.54688-5.0312-2.3203-21.504-37.863-44.469-66.051-66.441-86.477-21.973-20.418-42.965-33.07-60.449-39.883-11.641-4.5391-21.738-6.4688-29.363-6.457-4.4609-0.003906-8.0586 0.66016-10.57 1.6797-5.3125 2.1484-9.6797 5.7812-13.422 10.918-3.7266 5.1367-6.7422 11.777-9.043 19.566-4.6172 15.57-6.3398 35.633-6.332 56.816 0 19.156 1.3789 39.242 3.1094 57.938 1.7344 18.711 3.8203 36.027 5.2148 49.742 0.33984 3.3438 0.64453 6.4609 0.88281 9.3477 0.23828-0.30859 0.46875-0.625 0.70703-0.9375l3.3047-3.9609c1.0742-1.3438 2.2656-2.582 3.4414-3.832 1.1875-1.2344 2.3008-2.5469 3.5547-3.7227l2.1641-2.0781c-6.9805-27.789 5.8984-91.906 8.8711-131.04 1.8086-23.836 8.1641-33.59 13.258-37.578-0.36719-0.019531-0.73437-0.039062-1.0898-0.066406-0.47656-0.019531-0.95703-0.082031-1.4375-0.078125l-1.4258 0.089844c-0.95313 0.050781-1.9141 0.078125-2.8438 0.28906-0.92578 0.18359-1.9062 0.23438-2.8047 0.55859-3.6992 0.96875-7.2109 2.793-10.332 5.3008-1.5625 1.25-3.0156 2.6719-4.3633 4.2227-1.3438 1.5469-2.5977 3.207-3.668 5.0273 0.51562-2.0547 1.3438-4.043 2.3711-5.9258 0.48438-0.96484 1.1016-1.8477 1.6758-2.7695 0.66406-0.85156 1.2656-1.7773 2.0234-2.5703 2.8672-3.3047 6.5938-6.043 10.836-7.6719 1.0312-0.5 2.1484-0.71875 3.2383-1.0547 1.0898-0.35547 2.2148-0.48438 3.3398-0.64062l1.6914-0.23828c0.5625-0.050782 1.125-0.039063 1.6914-0.0625l1.6953-0.035157 0.85156-0.019531 0.10547-0.003906h0.054688c0.0625 0.003906-0.0625-0.007813 0.15234 0.011718l0.19531 0.011719 0.39062 0.03125c1.0547 0.09375 2.0547 0.13672 3.1523 0.27734 1.1406 0.17578 2.2852 0.34766 3.418 0.55469l3.2969 0.82031 3.2266 1.1328c4.2617 1.6914 8.1328 4.1992 11.512 7.1094 3.4414 2.8711 6.3594 6.1484 9.125 9.4844 1.3164 1.7109 2.6797 3.4023 3.8789 5.1719l1.8555 2.6328c0.60547 0.87891 1.1719 1.7773 1.7578 2.6719l1.7422 2.6797 1.6602 2.7188c1.1016 1.8125 2.207 3.6289 3.2305 5.4688 2.1289 3.6602 4.1172 7.3672 6.1289 11.078l5.7266 11.211 1.418 2.7891 1.3711 2.8516 2.7344 5.707c1.8477 3.8125 3.5547 7.6016 5.3281 11.395l5.2383 11.297 2.7773 5.4805c0.47266 0.91406 0.90625 1.8438 1.4023 2.7305l1.543 2.6133 1.5391 2.6289c0.52734 0.85547 0.96484 1.7852 1.5703 2.5898l3.4648 4.9766c1.0859 1.6992 2.4375 3.2227 3.7344 4.7852l3.875 4.7031 0.14453 0.17969c1.168 1.4141 0.96484 3.5156-0.45312 4.6797-0.58203 0.48047-1.2812 0.73047-1.9805 0.75781h-0.003907c-3.1016 0.22266-6.4102 0.625-9.6133 1.0742-3.2266 0.44922-6.4453 1.0078-9.6523 1.6094-3.207 0.625-6.4062 1.2773-9.5781 2.043-1.5938 0.36328-3.1758 0.75391-4.7539 1.1719-1.582 0.39453-3.1562 0.82031-4.7266 1.2773-1.5742 0.4375-3.1406 0.89062-4.6914 1.3828-1.5625 0.47656-3.1211 0.94922-4.6602 1.4805-3.1016 1.0078-6.1602 2.1328-9.2031 3.2734l-4.5352 1.8047-4.4766 1.9297c-1.5 0.62109-2.9531 1.3477-4.4258 2.0312-1.4727 0.68359-2.9336 1.3867-4.3672 2.1445-1.4336 0.75391-2.8984 1.4531-4.3047 2.2539l-4.2305 2.3789c-2.7617 1.6797-5.5586 3.3086-8.207 5.1523-2.7148 1.75-5.2773 3.6992-7.8711 5.6094-1.2734 0.98828-2.5 2.0234-3.7578 3.0273-0.61719 0.51172-1.2539 1.0078-1.8633 1.5312l-1.7891 1.6094c-1.1797 1.082-2.4219 2.1094-3.5508 3.2461l-3.4102 3.3867c-1.1523 1.1094-2.1641 2.3555-3.2539 3.5312-1.0742 1.1875-2.1641 2.3555-3.1367 3.6211l-3.0078 3.7305c-0.95312 1.2812-1.8594 2.5977-2.7891 3.8867l-1.3945 1.9531-1.2695 2.0273-2.4414 3.8906c-2.7031 5.4883-5.2852 13.715-7.6055 23.742-2.3555 10.137-4.4922 22.121-6.5039 35.188-4.0195 26.148-7.5508 56.637-11.551 85.75-0.039063 0.27734-0.082032 0.48438-0.16406 0.75v0.003906l-0.007813 0.027344-0.050781 0.15625c-0.039062 0.13281-0.10156 0.34766-0.17969 0.63672-0.16406 0.57422-0.40234 1.4414-0.68359 2.582-0.57031 2.2656-1.3438 5.5938-2.1133 9.7773-1.5391 8.3633-3.0859 20.133-3.0859 33.578 0 1.9805 0.039063 3.9961 0.10938 6.0469 0.51562 14.809 3.043 31.227 9.3555 47.242 0.22656 0.58203 0.47266 1.1523 0.71094 1.7305 9.9727-5.2148 16.695-7.7031 16.77-7.7305 1.2305-0.45312 2.5938 0.17969 3.0508 1.4102 0.45703 1.2266-0.17188 2.5977-1.4023 3.0469l-0.027343 0.011719-0.11328 0.042969c-0.10156 0.039062-0.25391 0.09375-0.46094 0.17578-0.40625 0.16016-1.0117 0.39844-1.7969 0.72656-1.5742 0.65625-3.8594 1.6445-6.6992 2.9805-2.1758 1.0312-4.6719 2.2656-7.4219 3.6992 1.4883 3.2383 3.1445 6.4492 4.9805 9.6172 8.3086-7.1562 13.766-11.383 13.789-11.406 1.0391-0.80078 2.5312-0.61328 3.3359 0.42578 0.80078 1.0312 0.61328 2.5273-0.42578 3.332 0 0-0.14063 0.10547-0.42578 0.33203-0.28125 0.22266-0.70312 0.55469-1.2539 0.99219-1.0898 0.875-2.6875 2.1641-4.6953 3.8203-2.1719 1.7969-4.8281 4.0352-7.832 6.6289 2.8594 4.4805 6.0977 8.8711 9.7812 13.117 6.9805-9.3984 11.836-14.742 11.879-14.793 0.87891-0.97656 2.3828-1.043 3.3516-0.16406 0.96875 0.88281 1.043 2.3867 0.16016 3.3555l-0.078125 0.085937c-0.050781 0.058594-0.12891 0.14844-0.23828 0.26953-0.21484 0.23828-0.53125 0.60156-0.94922 1.0859-0.83203 0.96094-2.043 2.3984-3.5547 4.2656-1.9805 2.4414-4.4805 5.6367-7.3125 9.4766 4.1211 4.3594 8.7461 8.5469 13.918 12.527 19.668-18.227 37.516-29.621 51.824-36.695 0.63281-0.3125 1.2578-0.60937 1.8711-0.91016 12.484-5.9727 22.074-8.6133 27.574-9.7539 1.0508-0.60547 2.6797-1.3984 5.0391-2.1719 4.1602-1.375 10.512-2.6602 19.637-2.6602 1.9961 0 4.1289 0.0625 6.3984 0.19922 6.2305 0.37891 14.953 1.6445 24.242 3.5859 9.2812 1.9492 19.086 4.5625 27.363 7.6992 5.5273 2.1055 10.371 4.3984 14.066 7.0859 2.1094 1.5469 3.8828 3.2188 5.1133 5.3125 2.6133 4.4766 5.6211 10.348 8.0078 16.906 2.3281 6.4219 4.0664 13.5 4.1484 20.641 0.003906 0.16406 0.015625 0.32422 0.015625 0.48828 0 4.6094-0.72266 9.2539-2.5195 13.668-0.76953 1.8945-1.8594 3.6172-3.1758 5.168-1.3164 1.5469-2.8516 2.9258-4.5586 4.1562-0.84375 0.60547-1.7305 1.1836-2.6523 1.7266 0.51953 0.058593 1.0195 0.11719 1.5508 0.18359 2.2734 0.28906 4.707 0.46484 7.2109 0.69141 5.0195 0.44922 10.371 0.92187 15.723 1.3906 2.6797 0.23828 5.3594 0.47266 7.9961 0.71094 2.6367 0.19531 5.2344 0.40234 7.7461 0.59766 5.0312 0.39062 9.7266 0.75781 13.746 1.0742 8.0547 0.59375 13.418 0.98438 13.418 0.98438s-5.375 0.19922-13.445 0.49609c-4.0312 0.12891-8.7422 0.28516-13.789 0.45312-2.5195 0.074219-5.1289 0.16016-7.7773 0.25-2.6523 0.058593-5.3477 0.12109-8.0352 0.17969-5.3906 0.125-10.781 0.23828-15.836 0.35547-2.5273 0.046875-4.9648 0.14062-7.3008 0.10156-2.3359-0.011719-4.5391-0.023438-6.582-0.039063-8.1719-0.042969-13.617-0.078125-13.617-0.078125l0.078125-0.79297c-6.4219 1.2344-13.23 1.8164-19.844 1.8164-4.1602 0-8.2305-0.23047-12.082-0.67969-0.078125 0.25781-0.16016 0.53125-0.24609 0.82031-0.21875 0.70313-0.46484 1.4922-0.73828 2.3516-0.36719 1.1758-0.78125 2.4844-1.2422 3.9102-0.44531 1.3945-0.9375 2.8945-1.4609 4.4883-1.4531 4.4336-3.2266 9.5781-5.1641 15.07-1.0039 2.7383-2.0391 5.5547-3.0898 8.4258-1.1094 2.8594-2.1602 5.7695-3.3438 8.6523-1.1641 2.8828-2.2891 5.7734-3.5195 8.5781-0.60156 1.4062-1.1992 2.793-1.7891 4.168-0.59766 1.375-1.2383 2.7227-1.8438 4.0508-0.60547 1.3203-1.2031 2.6211-1.793 3.8906-0.62891 1.2578-1.2461 2.4844-1.8477 3.6797-0.48047 0.94141-0.92969 1.8594-1.3945 2.75-0.12109 0.23828-0.23828 0.48437-0.36328 0.71094-0.61719 1.0938-1.2109 2.1602-1.7812 3.1797-0.57031 1.0078-1.1172 1.9805-1.6367 2.8945-0.57812 0.90234-1.1211 1.7461-1.6367 2.5469-1.0352 1.582-1.875 2.9844-2.7617 4.0312-1.6602 2.1211-2.6055 3.3438-2.6055 3.3438s0.72656-1.3555 2-3.7266c0.68359-1.1367 1.2734-2.6719 2.0117-4.3711 0.36328-0.85156 0.75391-1.7539 1.1641-2.7148 0.34766-0.98438 0.72266-2.0156 1.1094-3.0898 0.37891-1.082 0.78125-2.1992 1.1914-3.3594 0.39062-1.1641 0.74219-2.3984 1.1328-3.6445 0.37891-1.25 0.77344-2.5352 1.1758-3.8438 0.35547-1.3359 0.72266-2.6914 1.0938-4.0742 0.36328-1.3828 0.75781-2.7695 1.1094-4.2031 0.34375-1.4297 0.69141-2.875 1.043-4.3359 0.72656-2.9062 1.3398-5.8945 1.9922-8.875 0.66406-2.9648 1.207-5.9805 1.8047-8.9141 0.54297-2.9453 1.0781-5.8555 1.5977-8.6641 0.97266-5.6328 1.832-10.891 2.5039-15.418 0.39844-2.6406 0.74219-5.0234 1.0312-7.082 0.19922-1.4492 0.37109-2.7383 0.51172-3.8242 0.035156-0.24219 0.0625-0.46094 0.089843-0.68359-7.8203-2.25-14.84-5.0898-20.977-8.332-8.1055-4.2812-14.684-9.25-19.574-14.523-1.2656-1.3633-2.4609-3.0195-3.5781-4.9492-1.1133-1.9219-2.1484-4.1133-3.0391-6.5352-1.7773-4.8477-2.9844-10.613-2.9883-16.891 0-5.3359 0.87891-11.031 3.0469-16.766 0.69531-1.8359 1.5352-3.6758 2.5078-5.5039-2.6953 0.94531-5.6875 2.1133-8.957 3.543-1.4531 0.63672-2.9453 1.3086-4.5039 2.0625-17.062 8.1719-40.254 23.152-66.008 50.605-2.2422 2.3867-4.5 4.8672-6.7773 7.4453-7.3008 9.7695-14.062 20.801-19.723 33.223-10 21.973-16.574 48.258-16.582 79.617 0 4.0391 0.11328 8.1523 0.33594 12.363l0.007813 0.24609v0.082031c0 0.070312 0.003906 0.19531 0.007812 0.35547 0.007813 0.31641 0.023438 0.8125 0.0625 1.4688 0.070313 1.3242 0.21875 3.3125 0.51562 5.8711 0.58984 5.1367 1.7852 12.602 4.1875 21.75 4.8086 18.297 14.438 43.324 33.773 70.094 1.1641 1.6211 1.1992 3.7969 0.082031 5.4414l-0.011719 0.019531-0.046875 0.074219c-0.042969 0.066406-0.11328 0.16406-0.19922 0.29688-0.17969 0.26953-0.44531 0.68359-0.79297 1.2109-0.69141 1.0742-1.6992 2.6523-2.9531 4.6797-2.5117 4.0703-5.9883 9.9375-9.8555 17.086-7.7383 14.297-17.008 33.758-23.137 54.145-4.0859 13.582-6.7695 27.574-6.7617 40.641 0 9.6562 1.4531 18.797 4.7773 26.988 5.3047 13.07 14.668 24.082 25.992 33.262 11.312 9.1797 24.543 16.477 37.227 22.07 25.367 11.223 48.508 15.684 49.703 15.898h0.019531c0.042969 0.003907 0.16016 0.035157 0.41016 0.074219 0.29297 0.046875 0.73438 0.12109 1.3125 0.20703 1.1523 0.19531 2.8398 0.46484 4.9766 0.8125 4.2734 0.67188 10.332 1.6133 17.484 2.6562 14.297 2.0898 32.953 4.6016 50.301 6.2539 0.16406 0.03125 0.32812 0.035156 0.49219 0.042969l0.050781-0.15234c0.19141-0.91016 0.44922-1.8945 0.58203-2.9453 0.097656-0.53906 0.14844-1.082 0.1875-1.6445 0.066406-0.5625 0.09375-1.1367 0.089843-1.7266 0.027344-0.58594 0.007813-1.1797-0.03125-1.793-0.007812-0.60938-0.085937-1.2305-0.16016-1.8594-0.14062-1.2383-0.41406-2.5-0.74219-3.7578-0.36328-1.2461-0.76563-2.5117-1.3008-3.7031-0.50391-1.2109-1.1016-2.3633-1.7305-3.4727-1.2695-2.1875-2.707-4.1328-4.0703-5.707-2.7188-3.1523-5.0234-4.8281-5.0234-4.8281s2.5977 1.1484 6.0352 3.75c1.7266 1.3008 3.6367 2.9688 5.4844 5.0156 0.91797 1.0234 1.8281 2.1289 2.668 3.3359 0.86719 1.1953 1.6211 2.4922 2.3438 3.8359 0.6875 1.3516 1.3164 2.7539 1.8086 4.1992 0.24609 0.71875 0.49609 1.4336 0.67188 2.1602 0.19922 0.72656 0.37891 1.4492 0.50781 2.1758 0.15234 0.71484 0.27344 1.4258 0.34766 2.1289 0.097656 0.71484 0.18359 1.3945 0.20703 2.0781 0.10938 1.2852 0.078125 2.4844 0.066406 3.6289 8.3906 0.66797 16.211 1.0898 22.691 1.0781 1.6523 0 3.1992-0.027343 4.6602-0.082031 0.19141-0.46094 0.41797-1.0234 0.67969-1.6758 0.12891-0.32812 0.28906-0.67969 0.42188-1.0625 0.10547-0.375 0.22266-0.76953 0.34375-1.1836 0.23437-0.84375 0.51953-1.75 0.78125-2.7305 0.16797-0.96875 0.35156-2.0195 0.54297-3.082 0.15625-1.0859 0.15625-2.1914 0.25-3.3516 0.023438-1.1445-0.097656-2.3086-0.14453-3.4844l-0.30078-1.7461c-0.09375-0.58203-0.17969-1.168-0.36719-1.7227-0.16016-0.57031-0.32422-1.125-0.48438-1.6797-0.16406-0.55469-0.41406-1.0664-0.61719-1.6094-0.38281-1.0703-0.95703-2.0117-1.4375-2.9609-0.56641-0.88281-1.0625-1.7812-1.6523-2.4961-0.55078-0.76562-1.1094-1.4141-1.625-1.9844-0.51953-0.5625-1.0039-1.0312-1.4062-1.418-0.82031-0.75-1.3438-1.1172-1.3438-1.1172s0.59375 0.23828 1.582 0.79297c0.48828 0.27734 1.082 0.62891 1.7344 1.0781 0.65625 0.45312 1.3828 0.97656 2.1328 1.625 0.78906 0.60937 1.5156 1.4023 2.3398 2.1914 0.73828 0.87109 1.5977 1.7578 2.2891 2.8125 0.35547 0.52344 0.76953 1.0391 1.0977 1.5977 0.32031 0.57812 0.64844 1.1602 0.98047 1.7461 0.35938 0.58203 0.61719 1.207 0.87891 1.8398l0.80859 1.918" fill="#f2e5d7"/>
 <path d="m693.29 377.72v0.03125l0.003907 0.078125z" fill="#f2e5d7"/>
 <path d="m606.78 161.38-0.066406 0.14453 0.050781-0.09375z" fill="#f2e5d7"/>
 <path d="m499.81 552.69c-0.078125 0.58984-0.14844 1.1719-0.22656 1.7461-0.082031 0.59766-0.17578 1.1914-0.29688 1.7734-0.21484 1.1445-0.41016 2.2734-0.71875 3.3711-0.26953 1.0859-0.53516 2.1562-0.89062 3.1758-0.625 2.0508-1.3984 3.9375-2.1836 5.6289-0.42188 0.83594-0.78516 1.6523-1.2031 2.3945-0.43359 0.72266-0.84375 1.4141-1.2344 2.0664-0.17578 0.28516-0.35938 0.5625-0.53906 0.82422 3.5664-0.99219 6.8164-2.2188 9.5195-3.6641 2.7578-1.4609 4.9453-3.1328 6.4375-4.9062 0.85547-1.0078 1.4922-2.0469 1.9336-3.1172 1.3555-3.332 1.957-6.9766 1.957-10.805 0.003907-3.1445-0.41406-6.4062-1.1133-9.6484-0.65234-3.0039-1.543-6-2.5938-8.8828-2.1797-6.0039-4.9961-11.516-7.4297-15.684-0.32031-0.5625-0.96484-1.332-1.9492-2.1523-0.97656-0.83594-2.2734-1.7227-3.8242-2.6172-1.0781-0.61328-2.2812-1.2344-3.5781-1.8438 0.76562 1.4727 1.5898 3.2031 2.4102 5.168 1.3984 3.375 2.7734 7.4219 3.8438 11.891 0.51562 2.2305 0.99609 4.5625 1.3242 6.957 0.375 2.3945 0.57031 4.8516 0.72266 7.3164 0.050781 1.2305 0.058594 2.4727 0.078125 3.7031-0.015625 1.2383-0.046875 2.4648-0.125 3.6836-0.089844 1.2227-0.14453 2.4297-0.32031 3.6211" fill="#f2e5d7"/>
 <path d="m449.55 521.76c-0.11328-4.9648-0.21875-9.6133-0.3125-13.594-0.046875-2.0039-0.085937-3.8477-0.11719-5.4844-0.019532-1.6055-0.035157-3.0078-0.050782-4.168-4.8438-0.77734-9.1914-1.2852-12.527-1.4805-2.125-0.12891-4.1055-0.18359-5.9453-0.18359-7.8984 0-13.25 1.043-16.625 2.0703-2.6797 0.82031-4.0977 1.625-4.5977 1.9414-4.2617 4.6406-7.0938 9.418-8.8789 14.137-1.8164 4.8125-2.5547 9.582-2.5547 14.082 0 0.14062 0.011719 0.26953 0.015625 0.40625 0.035156 3.8203 0.59375 7.4375 1.4844 10.668 0.91797 3.3438 2.1875 6.2695 3.5039 8.5547 0.87891 1.5156 1.7852 2.7422 2.5703 3.5898 4.1992 4.5234 10.109 9.0391 17.562 12.973 5.2695 2.7852 11.328 5.2734 18.082 7.3164 0.27344-0.37109 0.55469-0.75 0.86328-1.168 0.33984-0.60156 0.73438-1.2227 1.1328-1.8867 0.75-1.375 1.5156-2.9375 2.1719-4.7227 0.68359-1.7656 1.2578-3.7461 1.7773-5.8516 0.25391-1.0508 0.46094-2.1641 0.69922-3.2773 0.16797-1.1367 0.39844-2.2812 0.5625-3.4688 0.31641-2.375 0.58594-4.8398 0.77344-7.3711 0.10547-1.2656 0.16797-2.5391 0.23047-3.8281 0.054687-0.74219 0.082031-1.4961 0.10937-2.25 0.011719-0.54297 0.027344-1.0859 0.042969-1.6367 0.10547-2.5898 0.085938-5.1992 0.11328-7.7773-0.007812-1.2891-0.015624-2.5703-0.027343-3.832-0.019531-1.2695-0.039063-2.5273-0.058594-3.7578" fill="#f2e5d7"/>
 <path d="m456.88 541.49c-0.074219 1.3789-0.24609 2.7461-0.41797 4.1094-0.32031 2.7188-0.87109 5.3828-1.5 7.9453-0.34375 1.2734-0.70312 2.5312-1.0977 3.7422-0.46484 1.1953-0.84375 2.3828-1.3477 3.5-0.98438 2.2461-2.0859 4.3008-3.3008 6.082-1.1992 1.7812-2.5156 3.2773-3.7617 4.4844-0.66406 0.57031-1.2617 1.1133-1.8398 1.5859-0.13281 0.085938-0.25391 0.16406-0.38672 0.25391 2.1602 0.60156 4.3789 1.1758 6.6758 1.6836 5.2656 1.168 11.707 1.8125 18.387 1.8125 6.1562 0 12.523-0.54297 18.395-1.6562 1.0195-0.19922 2.0195-0.41797 3.0039-0.64453 0.21094-0.80859 0.44531-1.6992 0.67578-2.6914 0.15625-0.69141 0.32031-1.4336 0.49219-2.2109 0.14453-0.77344 0.29688-1.5938 0.45703-2.4492 0.17969-0.83984 0.28516-1.7383 0.42188-2.6562 0.15234-0.91016 0.26953-1.8633 0.36719-2.8398 0.12109-0.96875 0.22656-1.9688 0.29297-2.9961 0.089844-1.0234 0.17188-2.0625 0.21094-3.1289 0.13281-2.1289 0.15234-4.332 0.17188-6.5781 0-0.72266-0.015626-1.4648-0.027344-2.2031-0.023438-1.5273-0.0625-3.0586-0.14453-4.5938-0.10547-2.2852-0.25781-4.5742-0.44531-6.8359-0.18359-2.2539-0.42188-4.4805-0.63672-6.6445-0.47656-4.3242-1.0039-8.3828-1.457-11.895-0.39844-3.0078-0.73438-5.5898-0.99609-7.5664-1.6992-0.71094-3.5078-1.4141-5.4102-2.0859-9.2031-3.2734-20.434-5.9961-30.281-7.7773-0.87109-0.15625-1.7344-0.30469-2.5859-0.44922 0.82422 2.1914 1.8359 5.1758 2.7734 8.7656 1.043 3.9492 2.0117 8.625 2.6758 13.703 0.33984 2.543 0.58203 5.1875 0.73828 7.8789 0.14844 2.7031 0.1875 5.4492 0.12109 8.2148-0.027344 0.66406-0.050781 1.3359-0.082031 2-0.039063 0.71484-0.082031 1.4258-0.14062 2.1406" fill="#f2e5d7"/>
 <path d="m912.19 1009.1c31.973-41.141-38.691-90.605-76.316-112.91-0.90625 2.6055-1.8633 5.1602-2.8867 7.6562-3.3516 8.1875-7.1641 16.34-11.477 24.344 2.0977 1.75 4.1641 3.5625 6.1758 5.4453 10.512 9.8008 19.91 21.328 25.965 34.977 0.75 1.7031 1.3867 3.4688 2.0664 5.2031 0.55078 1.7891 1.1914 3.543 1.6523 5.3711 0.41406 1.8359 0.96875 3.6367 1.2188 5.5117l0.46094 2.8008c0.16797 0.90234 0.20312 1.9336 0.30469 2.8945l0.24219 2.9492 0.019531 2.6133 0.019531 1.3047v0.65234c0 0.21094 0.011719 0.011719-0.003906 0.54688l-0.03125 0.37891-0.24219 2.9805c-0.50391 3.9883-1.625 7.9258-3.3359 11.578-3.4883 7.3086-9.1055 13.117-15.184 17.543l-2.3047 1.6445-2.3633 1.5078c-1.5625 1.0352-3.2148 1.8555-4.8203 2.793-3.2734 1.6836-6.5859 3.2695-9.957 4.6133-1.7578 0.71094-3.5195 1.3867-5.2852 2.0234 42.629-4.1602 80.047-13.789 96.082-34.422" fill="#cfbfad"/>
 <path d="m543.02 1112.2c-7.332-21.961 4.8633-37.859 24-48.75l-1.6289 0.089844-2.5352 0.16016-2.6094 0.19922c-1.6367 0.14453-3.2891 0.39453-4.9297 0.57812l-2.4688 0.29297c-0.82031 0.11719-1.6172 0.3125-2.4258 0.46094-6.5156 1.0781-12.766 3.1328-18.566 5.9023-5.793 2.7812-11.086 6.4727-15.445 11.023-4.3633 4.5547-7.7773 9.9648-10.016 15.867-4.5273 11.805-4.2734 25.379 0.015625 37.484 4.25 12.137 12.562 22.852 23.398 29.695l4.1602 2.3867 4.1602 1.9648c1.5352 0.61328 3.2539 1.1914 4.8711 1.7812l0.53125 0.19531 0.16016 0.042969 0.28516 0.078125 1.1289 0.31641c0.73828 0.22656 1.5742 0.38672 2.3594 0.58594 6.4453 1.4297 13.305 2.3555 20.121 3.1523 13.688 1.5664 27.539 2.4492 41.391 3.0703 27.727 1.1562 55.547 1.0742 83.301-0.11719 27.754-1.1914 55.457-3.5273 82.938-7.332 13.742-1.8984 27.414-4.2344 40.969-7.043 13.555-2.8086 27.008-6.0938 40.195-10.137 6.6211-1.9609 13.129-4.2266 19.605-6.5703 6.4141-2.4609 12.828-4.9805 19.012-7.9219l2.3359-1.0703 2.3008-1.1562c1.5273-0.77344 3.0664-1.5078 4.5781-2.3047 2.9961-1.6406 6.0234-3.2422 8.9141-5.0391 2.9688-1.6914 5.7578-3.6289 8.6016-5.4922l4.1211-2.9844c1.3828-0.97656 2.6562-2.0898 3.9883-3.1328 5.2188-4.2695 10.133-8.918 14.391-14.082 4.2383-5.1562 7.8711-10.793 10.648-16.797 0.69141-1.5 1.4258-3.0078 1.918-4.5312l0.82422-2.2617 0.41406-1.1289 0.35547-1.2578 0.67969-2.5234 0.33984-1.2578 0.17578-0.64062 0.011719-0.042969 0.027344-0.11719 0.0625-0.31641 1.0391-5.0156c0.84766-4.4883 1.5469-9.0039 2.0547-13.531-68.613 102.9-406.17 97.926-419.76 57.227" fill="#cfbfad"/>
 <path d="m342.04 845.57c-11.043 16.656-38.906 79.062 4.7031 111.97 32.105 24.219 86.238 24.906 112.56 23.578-1.4219-0.40625-2.8555-0.83594-4.3242-1.2812-1.2734-0.38672-2.5664-0.78516-3.8711-1.1875-1.2969-0.44141-2.6055-0.89063-3.9297-1.3555-2.6445-0.91797-5.3594-1.793-8.0664-2.8984-1.3555-0.52344-2.7227-1.0625-4.1016-1.5938-1.3789-0.53516-2.7695-1.0625-4.1328-1.707-2.7383-1.2383-5.5273-2.4375-8.3008-3.7422-2.7383-1.3945-5.4961-2.793-8.2656-4.1992-2.7305-1.4922-5.4023-3.1211-8.0977-4.707-1.3633-0.75-2.6562-1.6523-3.9453-2.5391-1.293-0.88281-2.5859-1.7695-3.875-2.6445-2.6328-1.6719-5.0039-3.7266-7.4336-5.6328l-1.8086-1.4531-0.89844-0.71875-0.44922-0.35547-0.22266-0.17578-0.28906-0.26562c-1.0859-1.0195-2.168-2.0234-3.2422-3.0195-1.0703-1.0156-2.1367-2.0078-3.1992-3-1.0547-1.0156-2.0781-2.1484-3.1055-3.1992-1.0195-1.0703-2.0273-2.1328-3.0273-3.1797-0.99219-1.0586-1.8516-2.1836-2.7695-3.2656-0.89844-1.0859-1.7852-2.1562-2.6641-3.2148-0.85938-1.0703-1.6289-2.207-2.4258-3.2812-0.78906-1.0898-1.5586-2.1602-2.3203-3.2188-0.69141-1.1172-1.3672-2.2109-2.0352-3.2852-1.3828-2.1055-2.4961-4.293-3.5938-6.3672-0.26562-0.51953-0.53125-1.0312-0.79688-1.5391-0.23047-0.52344-0.45703-1.0469-0.68359-1.5625-0.44531-1.0273-0.88281-2.0312-1.3086-3.0078-0.41406-0.98438-0.72656-1.9844-1.0781-2.9258-0.32422-0.95703-0.71094-1.8555-0.92969-2.7891-0.48828-1.8398-1.0117-3.5352-1.2891-5.1602-0.15234-0.80078-0.33203-1.5664-0.44141-2.3164-0.09375-0.74219-0.17969-1.4453-0.26562-2.125-0.1875-1.3398-0.19141-2.5586-0.26562-3.6016 0.027344-1.0586-0.007812-1.9414 0.070312-2.6562 0.042969-0.73437 0.10156-1.2812 0.15625-1.6484 0.042969-0.36328 0.085938-0.55469 0.085938-0.55469s-0.011719 0.19141 0.015625 0.5625c0.011719 0.37109 0.050781 0.91797 0.14062 1.6172 0.16016 1.4219 0.51172 3.4766 1.207 6.0156 0.18359 0.62891 0.375 1.3008 0.57812 2 0.21875 0.69141 0.48438 1.4023 0.74219 2.1484 0.47266 1.5078 1.207 3.0586 1.9102 4.7422 0.76172 1.6406 1.6328 3.375 2.582 5.168 0.51562 0.88672 1.043 1.7969 1.5859 2.7109 0.26953 0.45703 0.53906 0.92578 0.81641 1.3906 0.30469 0.46484 0.61328 0.91797 0.92578 1.3789 1.2344 1.8633 2.4844 3.8125 4.0078 5.6836 0.73047 0.95312 1.4727 1.9258 2.2227 2.9062 0.8125 0.93359 1.6406 1.8867 2.4727 2.8594 0.84375 0.96094 1.6484 1.9805 2.5469 2.9258 0.91797 0.94141 1.8438 1.8945 2.7812 2.8594 0.94531 0.94141 1.8477 1.9727 2.8555 2.875 0.99609 0.92578 2 1.8555 3.0078 2.793 1.0273 0.93359 1.9883 1.8945 3.082 2.8281 1.1172 0.92578 2.2383 1.8633 3.3711 2.793 1.1289 0.94922 2.2695 1.8906 3.4141 2.8398 1.1328 0.83203 2.2734 1.6641 3.418 2.5 2.3633 1.7031 4.6367 3.5312 7.2109 5.0078 1.25 0.77734 2.5078 1.5586 3.7578 2.3438 1.25 0.77344 2.5 1.5742 3.832 2.2383 2.6289 1.3867 5.2148 2.832 7.8438 4.1836 2.6758 1.2656 5.3477 2.5234 7.9922 3.7656 2.6875 1.1758 5.3984 2.25 8.0469 3.3594 2.6523 1.1055 5.3633 2.0156 7.9727 3.0078 2.6055 1.0156 5.25 1.8164 7.8086 2.6641 1.2812 0.42188 2.5469 0.83203 3.8008 1.2461 1.2695 0.36719 2.5156 0.73438 3.75 1.0898 4.9141 1.5234 9.6367 2.7266 13.992 3.8242 2.1797 0.53125 4.2695 1.0469 6.2578 1.5391 2 0.4375 3.8984 0.85156 5.6836 1.2461 3.5742 0.73828 6.6953 1.3516 9.2695 1.793 2.5664 0.48437 4.6094 0.8125 5.9453 1.0391 0.82031 0.11719 1.4102 0.19922 1.7539 0.25391 2.0547-0.097656 10.738-0.49219 24.148-0.71094-0.78125-7.8516-0.77344-15.531-0.49609-23.086 0.097656-2.5273 0.24219-5.0195 0.41016-7.5117-14.562-0.53516-80.871-4.5625-113.32-32.992-36.582-32.051-58.422-86.734-69.461-70.07" fill="#cfbfad"/>
 <path d="m661.87 996.46c68.379-7.1211 103.42-64.238 103.42-64.238-23.32 22.77-46.992 32.32-66.121 35.469-6.5039 1.9688-13.621 3.9375-20.852 5.5938-3.2148 0.75781-6.457 1.4219-9.6641 2.0234-3.2148 0.60547-6.3906 1.1016-9.5 1.5312-1.5586 0.18359-3.0898 0.35938-4.5938 0.52734-1.5078 0.12891-2.9883 0.27734-4.4336 0.35938-2.8984 0.17578-5.668 0.25-8.25 0.19531-1.2891-0.050781-2.5273-0.066406-3.7109-0.16016-1.1953-0.11719-2.3242-0.21875-3.3828-0.32422-2.1406-0.32422-4.0117-0.60547-5.5664-1.0273-0.1875-0.039062-0.35547-0.082031-0.53125-0.12891-2.1914 2.3008-4.3945 4.5859-6.6289 6.8477-2.9766 3.0508-6.0195 6.0586-9.0664 9.0586-0.26172 0.94531-0.54297 2.0039-0.82031 3.1562-0.19141 0.80859-0.38672 1.6602-0.57812 2.5547 0.12109-0.10547 0.23828-0.19922 0.36328-0.30078 1.0117-0.85937 2.1289-1.6055 3.2305-2.3633 1.0781-0.78125 2.2734-1.3789 3.375-2.0664 1.1484-0.60547 2.2695-1.1992 3.3789-1.7031 2.2266-1.0117 4.3359-1.8203 6.1758-2.4023 1.832-0.60547 3.3828-1.0039 4.4727-1.2422 1.0859-0.24609 1.7109-0.33594 1.7109-0.33594s-0.58594 0.23047-1.5781 0.72266c-0.99609 0.47656-2.3867 1.2188-3.9922 2.1992-1.6055 0.96875-3.4062 2.207-5.2266 3.625-0.91016 0.71484-1.8047 1.4961-2.707 2.2891-0.84375 0.86328-1.7773 1.625-2.5586 2.5586-0.80469 0.88672-1.6172 1.7539-2.2969 2.707-0.35938 0.46484-0.70312 0.91406-1.0547 1.3711-0.30469 0.46484-0.60547 0.94141-0.89453 1.3984-0.29297 0.46094-0.57813 0.91016-0.85938 1.3516-0.23437 0.45703-0.46094 0.91406-0.6875 1.3555-0.22656 0.42969-0.4375 0.85547-0.64844 1.2617-0.21094 0.41016-0.33203 0.84766-0.49609 1.2305-0.30078 0.79297-0.58984 1.4961-0.8125 2.1367-0.16797 0.65625-0.31641 1.2266-0.4375 1.6953-0.039062 0.14453-0.070312 0.24609-0.097656 0.36719 0.085937 2.2344 0.35156 4.3633 0.83984 6.2109 0.60156 2.3125 1.5195 4.1836 2.707 5.5586 0.79688 0.92188 1.7148 1.6641 2.9023 2.2617 1.5742 0.76953 3.6875 1.3203 6.6328 1.3242 0.12109 0 0.24609-0.003906 0.375-0.003906h-0.015625c0.73438-0.007813 1.4453-0.039063 2.1758-0.0625 0.13672-0.78125 0.28516-1.6797 0.55469-2.6719 0.16797-0.58594 0.35547-1.207 0.55078-1.8555 0.22656-0.64062 0.50781-1.3008 0.78125-1.9883 0.59766-1.3516 1.3477-2.7617 2.2695-4.1328 0.91406-1.3867 2.0156-2.707 3.2031-3.9883 1.2305-1.2344 2.543-2.4375 3.9688-3.5117 1.4023-1.082 2.9023-2.0508 4.4219-2.9375 3.457-1.9922 7.0469-3.4961 10.414-4.6602-2.3867-4.168 10.137-6.8359 10.137-6.8359" fill="#cfbfad"/>
 <path d="m654.03 1005.4-0.12891-0.082031c-3.3008 1.7656-6.7891 3.9609-9.8516 6.5703-1.2109 1.0234-2.3555 2.1055-3.375 3.2344-1.0391 1.1133-1.918 2.293-2.7148 3.4414-0.75 1.1719-1.3945 2.3125-1.8711 3.4492-0.49219 1.1133-0.82422 2.207-1.0664 3.2031-0.10156 0.50391-0.19531 0.98828-0.28906 1.4453-0.042969 0.45312-0.085938 0.89844-0.12891 1.3047-0.027343 0.29687-0.023437 0.54687-0.027343 0.80469 39.426-1.9219 71.41-10.707 97.438-24 28.445-14.543 49.852-34.469 66.105-56.953 3.9688-5.4805 7.6133-11.117 10.988-16.867-68.887 74.285-148.29 78.527-155.08 74.449" fill="#cfbfad"/>
 <path d="m712.81 876.23c21.41-36.531 56.941-56.047 73.816-55.68 16.879 0.35938-38.242-19.957-42.527-34.199-1.2773-4.2227-2.5156-15.012-4.0312-28.59v-0.007812c-0.21875-1.9414-0.44531-3.9414-0.67187-5.9766l-0.035157-0.31641c-0.10938-0.98438-0.22656-1.9805-0.33594-2.9961-0.023438-0.14844-0.039063-0.29297-0.054688-0.44531-0.097656-0.83984-0.19531-1.6914-0.29688-2.5352-0.019531-0.24219-0.046875-0.48047-0.078125-0.73047-0.23047-1.9805-0.46875-4-0.71094-6.0273-0.035157-0.30469-0.066407-0.59375-0.10547-0.88672-0.09375-0.8125-0.19531-1.625-0.29297-2.4414-0.027343-0.22656-0.058593-0.44531-0.085937-0.67578-0.12109-0.98828-0.25-1.9883-0.375-3.0039-0.039063-0.28125-0.070313-0.56641-0.10938-0.85547-0.097657-0.76953-0.19531-1.5312-0.30078-2.3008-0.039063-0.31641-0.078126-0.625-0.12109-0.9375-0.13281-1.0195-0.26953-2.0273-0.40625-3.043-0.015625-0.13672-0.035156-0.26953-0.054688-0.41406-0.12109-0.88281-0.24609-1.7891-0.37109-2.6758-0.042968-0.32031-0.089843-0.62891-0.13281-0.94531-0.11719-0.81641-0.23438-1.6211-0.35547-2.4336-0.027343-0.23828-0.058593-0.46484-0.097656-0.70312-0.15234-1.0078-0.30078-2-0.44531-2.9922-0.050781-0.26953-0.089843-0.54687-0.13281-0.82812-0.12109-0.78125-0.24219-1.5508-0.37109-2.3242-0.042968-0.28516-0.089844-0.58203-0.13672-0.85938-0.15625-1.0078-0.32031-1.9883-0.48828-2.9688-0.027344-0.14844-0.050781-0.29297-0.070312-0.4375-0.14453-0.85938-0.29688-1.6953-0.44531-2.5469-0.050781-0.28906-0.10547-0.58203-0.15625-0.88281-0.14844-0.80859-0.29688-1.6211-0.44531-2.4219-0.035157-0.17969-0.0625-0.33984-0.097657-0.51562-0.17969-0.94922-0.35937-1.8906-0.54687-2.8164-0.050782-0.25781-0.10547-0.50391-0.15625-0.74609-0.14063-0.73828-0.29297-1.4531-0.44141-2.1758-0.054687-0.24219-0.10547-0.49609-0.16016-0.74219-0.19531-0.90625-0.38672-1.7969-0.59375-2.6875-0.03125-0.15234-0.070313-0.30078-0.10547-0.44922-0.17188-0.75-0.34375-1.4922-0.51953-2.2148-0.0625-0.23438-0.12109-0.49219-0.17969-0.74609-0.19141-0.75781-0.375-1.5-0.57031-2.2266-0.023437-0.11328-0.054687-0.22266-0.082031-0.32812-0.21484-0.82422-0.4375-1.6328-0.66406-2.4258-0.058593-0.21094-0.125-0.41797-0.18359-0.63281-0.18359-0.625-0.35938-1.2383-0.54688-1.8398-0.050781-0.1875-0.11719-0.38672-0.17187-0.57422-0.23438-0.74219-0.47266-1.4844-0.71484-2.1992-0.042969-0.13281-0.089844-0.26172-0.14062-0.39844-0.19922-0.58594-0.40625-1.1641-0.61328-1.7266-0.070313-0.19531-0.14063-0.38281-0.21094-0.56641-0.23828-0.63281-0.48047-1.2461-0.71875-1.8398l-0.0625-0.13281c-0.25391-0.625-0.51953-1.2305-0.78906-1.8047-0.074219-0.16797-0.14844-0.31641-0.22656-0.47656-0.20703-0.46094-0.43359-0.89844-0.65234-1.332-0.0625-0.12109-0.13281-0.24609-0.19922-0.36719-0.27734-0.53516-0.55859-1.0273-0.84766-1.5l-0.17969-0.29688c-0.23828-0.37109-0.47656-0.74219-0.72266-1.0859-0.082031-0.11328-0.16797-0.23438-0.25-0.35156-0.29687-0.41406-0.60156-0.80859-0.91016-1.168-15.801-18.289-14.469-10.199-17.617 66.02-0.83984 20.551-6.4492 43.762-14.363 66.953-21.441 62.828-59.875 125.46-66.93 134.48-9.6562 12.328-40.195 35.746-66.738 25.312-10.336-4.0586-15.609-11.949-18.219-20.055-0.58594 6.2734-1.0117 12.625-1.1875 19.008-0.21484 8.9961 0.011719 18.16 1.4688 26.844 0.73438 4.2852 1.8633 8.5586 3.5898 11.73 0.43359 0.75391 0.89063 1.4375 1.3438 1.9727 0.45703 0.51172 0.89063 0.86328 1.2422 1.0625l0.25781 0.11328 0.16406 0.085937 0.42188 0.15234 0.46094 0.19141c0.011718-0.14062 0.019531-0.26172 0.03125-0.39062 0.14453-1.1055 0.29687-2.3125 0.46094-3.582 0.22266-1.2344 0.45312-2.543 0.69531-3.8945 0.28906-1.3398 0.5625-2.7188 0.89453-4.1055 0.35547-1.3672 0.66016-2.7734 1.0625-4.1602 0.74609-2.7695 1.5625-5.5078 2.3945-8.0508 0.8125-2.5391 1.6406-4.8906 2.3633-6.8906 1.4609-4 2.5547-6.6016 2.5547-6.6016s-0.52344 2.7734-1.1133 6.9648c-0.28516 2.0938-0.60547 4.5312-0.86719 7.1562-0.27344 2.6133-0.49609 5.3984-0.64844 8.1758-0.097656 1.3867-0.10156 2.7734-0.16016 4.1367-0.035156 1.3633-0.007812 2.6914-0.015625 3.9844 0.042969 1.2812 0.085938 2.5117 0.125 3.6719 0.097657 1.1484 0.18359 2.2266 0.26562 3.2422 0.10156 0.98047 0.26172 1.8672 0.36328 2.6523 0.046874 0.39844 0.11328 0.75 0.17578 1.0781 3.0547 1.2227 6.0312 2.3906 8.9805 3.332 1.25 0.40625 2.4922 0.74609 3.7188 1.0586l-0.79688-1.0039s0.57813-0.41016 1.582-1.1289c0.50391-0.36719 1.1406-0.77344 1.8047-1.3945 0.67188-0.59375 1.4648-1.2266 2.2852-2.0078 0.80859-0.80078 1.6836-1.6836 2.6055-2.6016 0.875-1 1.8281-2.0273 2.7773-3.1406 0.91406-1.1445 1.9062-2.293 2.8398-3.5352 0.91797-1.2461 1.9062-2.4883 2.8008-3.793 1.8398-2.5898 3.6016-5.2539 5.1797-7.8047 1.5977-2.5391 3.0039-4.9844 4.2031-7.082 2.3633-4.1953 3.7891-7.0977 3.7891-7.0977s-0.86719 3.1016-2.4375 7.7109c-0.79297 2.3047-1.7461 4.9688-2.8672 7.8125-1.1094 2.8516-2.375 5.8555-3.7578 8.8359-0.66016 1.5-1.4336 2.9648-2.1445 4.4219-0.72266 1.4531-1.5312 2.8516-2.2695 4.2305-0.78125 1.3555-1.5938 2.6484-2.3398 3.8906-0.80078 1.2188-1.6094 2.3516-2.332 3.4102-0.16406 0.23438-0.32812 0.42969-0.49219 0.63672 3.4961-1.1953 7.3164-2.9023 11.504-5.2031 0.47266-0.46484 0.94141-0.92969 1.4219-1.3789l0.55078-0.52344 0.65625-0.6875 1.2344-1.3086c0.82031-0.85156 1.6367-1.7188 2.5117-2.5938 3.4531-3.5273 6.8164-6.8242 10.195-10.168 3.3555-3.3242 6.7031-6.6445 10.035-9.9414 13.273-13.148 25.598-26.672 36.355-40.637 5.3398-7.0078 10.266-14.109 14.789-21.258 4.5859-7.2852 8.7344-14.375 12.637-21.512 1.8711-3.5898 3.7891-7.0898 5.4727-10.641 0.85156-1.7734 1.7695-3.4922 2.5898-5.2461 0.8125-1.7617 1.625-3.5 2.4219-5.2227 0.82422-1.7305 1.5742-3.4648 2.2969-5.1875 0.73828-1.7266 1.4727-3.4336 2.1953-5.125 1.375-3.418 2.6797-6.7812 3.957-10.086 1.207-3.332 2.3867-6.5977 3.5391-9.7891 1.0625-3.2188 2.0938-6.375 3.1055-9.457 0.91016-3.0977 1.8008-6.125 2.6719-9.0664 0.89453-2.9453 1.5938-5.8398 2.3633-8.6328 0.37891-1.3945 0.74219-2.7734 1.1094-4.1289 0.32031-1.3711 0.63281-2.6953 0.94141-4.0234 0.625-2.6328 1.2305-5.1719 1.8125-7.6094 1.0352-4.9141 2.0195-9.4258 2.8359-13.516 0.76172-4.1094 1.4453-7.7734 2.0469-10.965 0.53516-3.207 0.99219-5.9336 1.3594-8.1406 0.74609-4.4258 1.1445-6.7891 1.1445-6.7891l0.82812 0.078126s-0.11328 2.3945-0.32422 6.8867c-0.12109 2.2422-0.20703 5.0234-0.46484 8.2812-0.28125 3.2578-0.60156 7.0039-0.96094 11.18-0.46094 4.1875-1.0586 8.8086-1.6719 13.855-0.39453 2.5156-0.80859 5.1172-1.2383 7.832-0.21484 1.3516-0.4375 2.7383-0.66406 4.1328-0.27344 1.4023-0.54297 2.8242-0.82031 4.2656-2.0898 11.566-5.2695 24.516-9.6602 38.387-4.5312 13.809-10.367 28.539-17.965 43.426-3.8086 7.3906-8.0195 14.988-12.469 22.418-4.6289 7.5-9.6758 14.965-15.133 22.281-2.8594 3.7969-5.8281 7.5586-8.8867 11.277-4.6016 5.6055-9.4141 11.125-14.387 16.559 0.17969 0.046874 0.35156 0.089843 0.53516 0.12891 0.91016 0.18359 1.8828 0.35547 2.9062 0.55078 1.0273 0.17969 2.1406 0.28516 3.293 0.44531 2.3125 0.26172 4.8633 0.42969 7.5781 0.51172 1.3555 0.039063 2.7617 0.027344 4.2031 0.039063 1.4414-0.035157 2.9062-0.0625 4.4102-0.10156 2.9961-0.14062 6.1094-0.33984 9.2773-0.64844 2.9688-0.28125 5.9922-0.62109 9.0117-1.0352-6.0664-0.51562-10.902-1.6406-14.113-2.8633-14.008-5.3398 28.645-53.055 50.039-89.605" fill="#cfbfad"/>
 <path d="m606.78 161.38-0.066406 0.14453 0.050781-0.09375z" fill="#cfbfad"/>
 <path d="m681.62 34.984c-4.2266 2.8359-9.2617 4.4531-14.973 7.5117 5.3945 1.2617 10 4.1016 14.004 7.3125 4.6914 3.8438 8.7188 8.2695 12.332 12.945 3.625 4.6758 6.8438 9.6133 9.7695 14.691 2.9297 5.0938 5.4883 10.367 7.7656 15.75 1.1172 2.7031 2.1562 5.4453 3.0391 8.2266 0.85547 2.793 1.6211 5.6406 1.8242 8.5469l-0.003906 0.007812c-0.4375-2.8828-1.4258-5.625-2.4883-8.3164-1.0664-2.6875-2.2773-5.3242-3.5664-7.9141-2.6094-5.1641-5.5273-10.168-8.707-14.984-0.65234-0.98828-1.3242-1.9688-2-2.9453 5.0938 17.078 22.508 79.535 21.469 131.65l0.67188 0.51172c1.4922 1.1523 3.0273 2.2578 4.5 3.4492 2.8984 2.4336 5.8398 4.8164 8.5703 7.4648 1.3984 1.2852 2.793 2.5703 4.0938 3.9609 1.3086 1.3672 2.6758 2.6953 3.9375 4.1133l3.7695 4.293c1.2031 1.4766 2.3711 2.9805 3.5586 4.4727 2.293 3.043 4.5156 6.1523 6.5352 9.3984 1.0625 1.5938 1.9805 3.2695 2.9375 4.9258 0.52734 0.87109 1.0039 1.7578 1.4688 2.6602-1.168-14.504-2.7344-30.605-4.9414-47.465-5.1094-39.172-13.66-82.348-28.375-118.34-9.793-24.012-22.328-44.758-38.094-59.098-9.0117-8.207-19.051-14.348-30.355-17.988-0.64844-0.21094-1.3516-0.32422-2.168-0.32422-0.73047 0-1.5664 0.10938-2.4805 0.31641 15.422 6.6367 38.23 18.242 27.906 25.164" fill="#cfbfad"/>
 <path d="m332.03 470.02c-8.1484-12.191-32.477-24.352-53.777-24.867 0.51562 14.809 3.043 31.227 9.3555 47.242 0.22656 0.58203 0.47266 1.1523 0.71094 1.7305 9.9727-5.2148 16.695-7.7031 16.77-7.7305 1.2305-0.45312 2.5938 0.17969 3.0508 1.4102 0.45703 1.2266-0.17188 2.5977-1.4023 3.0469l-0.027343 0.011719-0.11328 0.042969c-0.10156 0.039062-0.25391 0.09375-0.46094 0.17578-0.40625 0.16016-1.0117 0.39844-1.7969 0.72656-1.5742 0.65625-3.8594 1.6445-6.6992 2.9805-2.1758 1.0312-4.6719 2.2656-7.4219 3.6992 1.4883 3.2383 3.1445 6.4492 4.9805 9.6172 8.3086-7.1562 13.766-11.383 13.789-11.406 1.0391-0.80078 2.5312-0.61328 3.3359 0.42578 0.80078 1.0312 0.61328 2.5273-0.42578 3.332 0 0-0.14063 0.10547-0.42578 0.33203-0.28125 0.22266-0.70312 0.55469-1.2539 0.99219-1.0898 0.875-2.6875 2.1641-4.6953 3.8203-2.1719 1.7969-4.8281 4.0352-7.832 6.6289 2.8594 4.4805 6.0977 8.8711 9.7812 13.117 6.9805-9.3984 11.836-14.742 11.879-14.793 0.87891-0.97656 2.3828-1.043 3.3516-0.16406 0.96875 0.88281 1.043 2.3867 0.16016 3.3555l-0.078125 0.085937c-0.050781 0.058594-0.12891 0.14844-0.23828 0.26953-0.21484 0.23828-0.53125 0.60156-0.94922 1.0859-0.83203 0.96094-2.043 2.3984-3.5547 4.2656-1.9805 2.4414-4.4805 5.6367-7.3125 9.4766 4.1211 4.3594 8.7461 8.5469 13.918 12.527 19.668-18.227 37.516-29.621 51.824-36.695-23.738-13.191-38.621-26.027-44.441-34.742" fill="#cfbfad"/>
 <path d="m366.62 568.61c-0.57422 1.5547-1.1562 3.1523-1.7422 4.7812l-0.015625 0.042969c-15.926 44.215-34.926 112.47-12.707 139.81 34.09 41.938 80.699-31.418 96.961-74.676l6.7695-5.2617s28.488 51.043 109.26 48.672c71.785-2.1016 124.47-95.145 135.3-115.82-2.457 0.72266-4.957 1.4766-7.5195 2.1445-3.1641 0.85156-6.3594 1.7344-9.5859 2.5156-1.6055 0.39844-3.2109 0.79297-4.8086 1.1992-1.6094 0.375-3.2109 0.75-4.793 1.1172-3.168 0.76953-6.3047 1.4375-9.3281 2.1016-6.0625 1.3203-11.734 2.457-16.598 3.3906-9.7344 1.8672-16.25 2.9023-16.25 2.9023h0.011719c0.10547-0.027344 6.4688-1.6445 15.891-4.3398 4.7578-1.3711 10.285-3.0117 16.172-4.8555 2.9453-0.93359 5.9922-1.8789 9.0586-2.9141 1.5352-0.50781 3.0859-1.0234 4.6367-1.5312 1.5469-0.53906 3.0977-1.082 4.6445-1.6211 3.1172-1.0625 6.1914-2.207 9.2148-3.3242 3.0391-1.0859 5.9648-2.3164 8.8242-3.4141 2.8594-1.1094 5.5391-2.3359 8.1328-3.4102 2.5742-1.0898 4.9258-2.2656 7.1406-3.2734 2.2148-1 4.1172-2.1016 5.8672-2.9766 0.60156-0.30859 1.1641-0.60156 1.7031-0.88281 0.14844-0.10156 0.28516-0.21875 0.44922-0.30859 1.2578-0.68359 2.4688-1.3906 3.6641-2.0938 0.375-0.22656 0.69922-0.41797 0.98828-0.59375 5.832-3.5039 10.98-7.2539 15.547-11.172-8.7383-12.492-15.508-20.125-16.289-20.992l-0.070312-0.085937c-0.88672-0.96875-0.80859-2.4727 0.16016-3.3555 0.96875-0.87891 2.4648-0.8125 3.3555 0.16406 0.042969 0.0625 7.082 7.8125 16.414 21.078 1.457-1.3672 2.8711-2.7539 4.2031-4.1562 2.8789-3.0469 5.457-6.1641 7.7695-9.3203-11.148-9.9883-19.426-16.512-20.754-17.559-0.12891-0.097656-0.1875-0.14062-0.1875-0.14062-1.0352-0.80469-1.2266-2.3008-0.42188-3.332 0.80469-1.0391 2.293-1.2266 3.3281-0.42578 0.035157 0.027344 8.668 6.7148 20.758 17.52 2.3203-3.5312 4.3477-7.1094 6.082-10.703 0.070313-0.14453 0.13281-0.29688 0.20312-0.44531-13.777-8.0391-24.117-11.969-24.758-12.207l-0.027344-0.011719v0.003906c-1.2344-0.45312-1.8594-1.8242-1.4023-3.0508 0.45312-1.2305 1.8164-1.8633 3.043-1.4102 0.097656 0.039063 10.703 3.9688 25.086 12.312 6.1641-14.797 8.0039-29.609 8.0039-41.883 0-2.4922-0.078124-4.8672-0.20703-7.125-6.8242-0.70703-15.129 0.50391-25.039 5.3359-34.539 16.824-113.83 113.13-227.91 96.438-1.6641-0.24609-3.3047-0.50391-4.9219-0.77734 0.003906 0.16406 0.015625 0.32422 0.015625 0.48828 0 4.6094-0.72266 9.2539-2.5195 13.668-0.76953 1.8945-1.8594 3.6172-3.1758 5.168-1.3164 1.5469-2.8516 2.9258-4.5586 4.1562-0.84375 0.60547-1.7305 1.1836-2.6523 1.7266 0.51953 0.058593 1.0195 0.11719 1.5508 0.18359 2.2734 0.28906 4.707 0.46484 7.2109 0.69141 5.0195 0.44922 10.371 0.92187 15.723 1.3906 2.6797 0.23828 5.3594 0.47266 7.9961 0.71094 2.6367 0.19531 5.2344 0.40234 7.7461 0.59766 5.0312 0.39062 9.7266 0.75781 13.746 1.0742 8.0547 0.59375 13.418 0.98438 13.418 0.98438s-5.375 0.19922-13.445 0.49609c-4.0312 0.12891-8.7422 0.28516-13.789 0.45312-2.5195 0.074219-5.1289 0.16016-7.7773 0.25-2.6523 0.058593-5.3477 0.12109-8.0352 0.17969-5.3906 0.125-10.781 0.23828-15.836 0.35547-2.5273 0.046875-4.9648 0.14062-7.3008 0.10156-2.3359-0.011719-4.5391-0.023438-6.582-0.039063-8.1719-0.042969-13.617-0.078125-13.617-0.078125l0.078125-0.79297c-6.4219 1.2344-13.23 1.8164-19.844 1.8164-4.1602 0-8.2305-0.23047-12.082-0.67969-0.078125 0.25781-0.16016 0.53125-0.24609 0.82031-0.21875 0.70313-0.46484 1.4922-0.73828 2.3516-0.36719 1.1758-0.78125 2.4844-1.2422 3.9102-0.44531 1.3945-0.9375 2.8945-1.4609 4.4883-1.4531 4.4336-3.2266 9.5781-5.1641 15.07-1.0039 2.7383-2.0391 5.5547-3.0898 8.4258-1.1094 2.8594-2.1602 5.7695-3.3438 8.6523-1.1641 2.8828-2.2891 5.7734-3.5195 8.5781-0.60156 1.4062-1.1992 2.793-1.7891 4.168-0.59766 1.375-1.2383 2.7227-1.8438 4.0508-0.60547 1.3203-1.2031 2.6211-1.793 3.8906-0.62891 1.2578-1.2461 2.4844-1.8477 3.6797-0.48047 0.94141-0.92969 1.8594-1.3945 2.75-0.12109 0.23828-0.23828 0.48437-0.36328 0.71094-0.61719 1.0938-1.2109 2.1602-1.7812 3.1797-0.57031 1.0078-1.1172 1.9805-1.6367 2.8945-0.57812 0.90234-1.1211 1.7461-1.6367 2.5469-1.0352 1.582-1.875 2.9844-2.7617 4.0312-1.6602 2.1211-2.6055 3.3438-2.6055 3.3438s0.72656-1.3555 2-3.7266c0.68359-1.1367 1.2734-2.6719 2.0117-4.3711 0.36328-0.85156 0.75391-1.7539 1.1641-2.7148 0.34766-0.98438 0.72266-2.0156 1.1094-3.0898 0.37891-1.082 0.78125-2.1992 1.1914-3.3594 0.39062-1.1641 0.74219-2.3984 1.1328-3.6445 0.37891-1.25 0.77344-2.5352 1.1758-3.8438 0.35547-1.3359 0.72266-2.6914 1.0938-4.0742 0.36328-1.3828 0.75781-2.7695 1.1094-4.2031 0.34375-1.4297 0.69141-2.875 1.043-4.3359 0.72656-2.9062 1.3398-5.8945 1.9922-8.875 0.66406-2.9648 1.207-5.9805 1.8047-8.9141 0.54297-2.9453 1.0781-5.8555 1.5977-8.6641 0.97266-5.6328 1.832-10.891 2.5039-15.418 0.39844-2.6406 0.74219-5.0234 1.0312-7.082 0.19922-1.4492 0.37109-2.7383 0.51172-3.8242 0.035156-0.24219 0.0625-0.46094 0.089843-0.68359-7.8203-2.25-14.84-5.0898-20.977-8.332-8.1055-4.2812-14.684-9.25-19.574-14.523-1.2656-1.3633-2.4609-3.0195-3.5781-4.9492-1.1133-1.9219-2.1484-4.1133-3.0391-6.5352-1.7773-4.8477-2.9844-10.613-2.9883-16.891 0-5.3359 0.87891-11.031 3.0469-16.766 0.69531-1.8359 1.5352-3.6758 2.5078-5.5039-2.6953 0.94531-5.6875 2.1133-8.957 3.543l-20.391 58.238 0.0625 0.019531" fill="#cfbfad"/>
 <path d="m610.2 304.37c4.7461-6.0664-4.75-14.121-17.809-16.625-13.055-2.5039-27.246 33.371-27.246 33.371 0.054687 16.625 40.305-10.68 45.055-16.746" fill="#bdb0a0"/>
 <path d="m492.54 330.45s-14.188-35.879-27.25-33.371c-13.055 2.5039-22.551 10.559-17.801 16.621 4.7461 6.0625 44.996 33.371 45.051 16.75" fill="#bdb0a0"/>
 <path d="m499.58 554.44c-0.082031 0.59766-0.17578 1.1914-0.29688 1.7734-0.21484 1.1445-0.41016 2.2734-0.71875 3.3711-0.26953 1.0859-0.53516 2.1562-0.89062 3.1758-0.625 2.0508-1.3984 3.9375-2.1836 5.6289-0.42188 0.83594-0.78516 1.6523-1.2031 2.3945-0.43359 0.72266-0.84375 1.4141-1.2344 2.0664-0.17578 0.28516-0.35938 0.5625-0.53906 0.82422 3.5664-0.99219 6.8164-2.2188 9.5195-3.6641 2.7578-1.4609 4.9453-3.1328 6.4375-4.9062 0.85547-1.0078 1.4922-2.0469 1.9336-3.1172 1.3555-3.332 1.957-6.9766 1.957-10.805 0.003907-3.1445-0.41406-6.4062-1.1133-9.6484-2.5469 6.1641-6.3242 11.988-11.668 12.906" fill="#cfbfad"/>
 <path d="m481.1 558.04c-8.9766-0.96484-19.789-9.2266-24.086-18.688-0.039063 0.71484-0.082031 1.4258-0.14062 2.1406-0.074219 1.3789-0.24609 2.7461-0.41797 4.1094-0.32031 2.7188-0.87109 5.3828-1.5 7.9453-0.34375 1.2734-0.70312 2.5312-1.0977 3.7422-0.46484 1.1953-0.84375 2.3828-1.3477 3.5-0.98438 2.2461-2.0859 4.3008-3.3008 6.082-1.1992 1.7812-2.5156 3.2773-3.7617 4.4844-0.66406 0.57031-1.2617 1.1133-1.8398 1.5859-0.13281 0.085938-0.25391 0.16406-0.38672 0.25391 2.1602 0.60156 4.3789 1.1758 6.6758 1.6836 5.2656 1.168 11.707 1.8125 18.387 1.8125 6.1562 0 12.523-0.54297 18.395-1.6562 1.0195-0.19922 2.0195-0.41797 3.0039-0.64453 0.21094-0.80859 0.44531-1.6992 0.67578-2.6914 0.15625-0.69141 0.32031-1.4336 0.49219-2.2109 0.14453-0.77344 0.29688-1.5938 0.45703-2.4492 0.17969-0.83984 0.28516-1.7383 0.42188-2.6562 0.15234-0.91016 0.26953-1.8633 0.36719-2.8398 0.12109-0.96875 0.22656-1.9688 0.29297-2.9961 0.089844-1.0234 0.17188-2.0625 0.21094-3.1289 0.13281-2.1289 0.15234-4.332 0.17188-6.5781 0-0.72266-0.015626-1.4648-0.027344-2.2031-1.8203 5.8633-5.2617 12.082-11.645 11.402" fill="#cfbfad"/>
 <path d="m438.47 545.41c-8.4297 1.0234-32.367-2.8086-40.516-15.926 0.035156 3.8203 0.59375 7.4375 1.4844 10.668 0.91797 3.3438 2.1875 6.2695 3.5039 8.5547 0.87891 1.5156 1.7852 2.7422 2.5703 3.5898 4.1992 4.5234 10.109 9.0391 17.562 12.973 5.2695 2.7852 11.328 5.2734 18.082 7.3164 0.27344-0.37109 0.55469-0.75 0.86328-1.168 0.33984-0.60156 0.73438-1.2227 1.1328-1.8867 0.75-1.375 1.5156-2.9375 2.1719-4.7227 0.68359-1.7656 1.2578-3.7461 1.7773-5.8516 0.25391-1.0508 0.46094-2.1641 0.69922-3.2773 0.16797-1.1367 0.39844-2.2812 0.5625-3.4688 0.31641-2.375 0.58594-4.8398 0.77344-7.3711 0.10547-1.2656 0.16797-2.5391 0.23047-3.8281 0.054687-0.74219 0.082031-1.4961 0.10937-2.25-2.8008 3.1562-6.5391 6.1055-11.008 6.6484" fill="#cfbfad"/>
 <path d="m579.77 431.02c-2.4648-1.4961-4.6133-2.9258-6.3828-4.1797 1.7695 1.2539 3.918 2.6836 6.3828 4.1797" fill="#80d6f1"/>
 <path d="m690.27 402.29c0.13281-0.41797 0.26172-0.84375 0.38281-1.2656 0.054687-0.18359 0.10938-0.37109 0.16016-0.55469 0.14062-0.48828 0.26953-0.97266 0.39453-1.4648l0.082031-0.29688c0.14453-0.58594 0.28125-1.168 0.41016-1.75 0.03125-0.14844 0.0625-0.30078 0.09375-0.44531 0.09375-0.4375 0.18359-0.87109 0.26562-1.3047 0.039062-0.18359 0.070312-0.37109 0.10547-0.55469 0.078126-0.42188 0.14844-0.83594 0.22266-1.25 0.027343-0.16406 0.054687-0.32813 0.078125-0.48438 0.085937-0.56641 0.16797-1.1289 0.24609-1.6914l0.011718-0.058594c0.066406-0.54297 0.13672-1.0742 0.1875-1.6133 0.023438-0.15625 0.039063-0.32031 0.058594-0.48047 0.039062-0.39844 0.078125-0.79687 0.10938-1.1914 0.011719-0.16797 0.03125-0.33984 0.046875-0.50391 0.03125-0.43359 0.0625-0.85938 0.089844-1.293l0.019531-0.30859c0.03125-0.53125 0.058594-1.0586 0.078125-1.5859l0.003906-0.30859c0.015625-0.41406 0.027344-0.82422 0.039063-1.2305v-0.45703c0.007812-0.375 0.011719-0.73828 0.011719-1.1055v-0.40625c-0.011719-0.98047-0.039063-1.9297-0.074219-2.8516l-0.003907-0.078125c0.054688 7.7344-0.54687 16.066-2.5977 23.152-1.4141-6.9102-7.0703-13.395-22.77-14.57 0.12891 0.98047 0.25781 1.9609 0.375 2.9414 0.36719 3.1133 0.66797 6.3203 0.70703 9.5273 2.0781 1.6328 3.3594 4.207 3.2031 7.043-0.17969 3.3516-2.3047 6.125-5.2188 7.3125-0.52734 1.6836-1.1719 3.3281-1.9219 4.918-1.0312 2.207-2.3281 4.2617-3.7227 6.2266-1.4336 1.9453-3.0859 3.6914-4.7852 5.3633-3.5 3.2461-7.4414 5.9219-11.609 7.9961-8.3828 4.0859-17.359 6.1094-26.043 6.1328-2.0625 0.015625-4.2812-0.10938-6.3555-0.36719-2.1016-0.26562-4.1719-0.60938-6.1484-1.1875-2.4727-0.66406-4.8242-1.5664-7.0352-2.6328-0.054688 0.24609-0.11328 0.51172-0.16016 0.75781 17.051 6.1211 39.191 8.6992 61.848-3.5547 15.977-8.6328 24.348-20.645 28.523-32.445 0.18359-0.50781 0.35547-1.0195 0.51562-1.5234 0.058594-0.1875 0.11719-0.37109 0.17578-0.55469" fill="#80d6f1"/>
 <path d="m690.69 400.9c2.0508-7.0859 2.6523-15.418 2.5977-23.152v-0.03125c-0.37891-8.4688-1.9727-14.176-1.9727-14.176-6.8125-14.441-28.223-25.621-51.02-24.691 0.34375 0.17188 0.68359 0.33594 1.0156 0.51563 4.2773 2.3203 8.2148 5.4336 11.484 9.1523 3.2891 3.6875 5.957 7.9219 8.082 12.371 3.8555 8.0234 5.8594 16.723 7.043 25.441 15.699 1.1758 21.355 7.6602 22.77 14.57" fill="#68c6e1"/>
 <path d="m595.49 437.46c-3.2305-2.0664-5.9805-4.5547-8.1953-7.207-2.2109-2.6719-3.9219-5.4688-5.2266-8.2031-2.6055-5.5039-3.6016-10.672-4.207-14.871-0.53906-4.2305-0.57031-7.5625-0.54688-9.8359-0.015625-1.1406 0.058594-2.0078 0.066406-2.582 0.023438-0.58594 0.035157-0.89453 0.035157-0.89453s0.019531-0.30469 0.050781-0.89062c0.050781-0.58203 0.0625-1.4531 0.18359-2.582 0.10547-1.3008 0.29688-2.9648 0.58984-4.9258-9.9062 21.297-7.9062 39.105-7.9023 39.129l0.10547 0.089844c0.17188 0.125 0.33984 0.25781 0.52344 0.39062l0.12891 0.09375c0.1875 0.14453 0.38281 0.29297 0.58594 0.44141l0.12109 0.085937c0.21484 0.16016 0.43359 0.32031 0.66406 0.48828l0.097656 0.070313c0.24609 0.17969 0.50391 0.36328 0.76953 0.55078l0.050781 0.03125c1.7695 1.2539 3.918 2.6836 6.3828 4.1797 1.9531 1.1836 4.1055 2.418 6.4492 3.6367l0.0625 0.035156c0.45703 0.23047 0.91797 0.46875 1.3828 0.70313l0.12109 0.0625c0.44922 0.22656 0.91016 0.45312 1.375 0.67578l0.16016 0.078125c0.45703 0.21875 0.91016 0.43359 1.375 0.65234l0.19141 0.089843c0.46094 0.20703 0.92578 0.42578 1.4023 0.62891l0.19531 0.089843c0.47266 0.21094 0.95312 0.41406 1.4375 0.61719l0.19531 0.085937c0.49219 0.21094 0.98828 0.41016 1.4922 0.61328l0.17969 0.074218c0.51563 0.20312 1.0312 0.41016 1.5508 0.60938l0.16016 0.058594c0.54297 0.20703 1.0898 0.40625 1.6445 0.60547l0.0625 0.027344v-0.003907c0.046875-0.24609 0.10547-0.51172 0.16016-0.75781-1.3477-0.65625-2.6562-1.3555-3.875-2.1406" fill="#68c6e1"/>
 <path d="m655.5 404.6c-0.98828-11.695-9.3789-24.043-21.715-21.645 0 0-33.836 11.324-31.004 32.309 2.8281 20.98 29.953 14.719 45.285 6.6133 5.2109-2.7578 7.5273-8.5898 7.5391-14.934-0.12109-0.64844-0.17578-1.3086-0.13281-1.9883 0-0.12109 0.019532-0.23828 0.027344-0.35547" fill="#63363c"/>
 <path d="m672.21 405.84c0.15625-2.8359-1.125-5.4102-3.2031-7.043-0.77344-0.60547-1.6602-1.0781-2.6328-1.3828-0.66406-0.21875-1.3594-0.35547-2.0859-0.39453-4.5039-0.23828-8.3516 3.125-8.7852 7.5742-0.007812 0.11719-0.027344 0.23438-0.027344 0.35547-0.042968 0.67969 0.011719 1.3398 0.13281 1.9883 0.69141 3.7109 3.8438 6.6211 7.7891 6.8281 0.52344 0.027344 1.0469 0 1.5508-0.0625 0.71484-0.097656 1.3945-0.28516 2.043-0.55078 2.9141-1.1875 5.0391-3.9609 5.2188-7.3125" fill="#fff8f6"/>
 <path d="m698.61 75.816c-2.5938-3.7656-5.3672-7.4062-8.3555-10.828-3.7383-4.3203-7.8438-8.3164-12.352-11.594-2.2773-1.5938-4.625-3.0547-7.0781-4.1445-2.4414-1.0664-5.0508-1.7891-7.4844-1.9609l-0.86328-0.035156c-0.30078-0.003906-0.53906-0.0625-0.9375-0.003906l-1.9766 0.17578c-1.0625 0.18359-2.1367 0.60547-3.1914 1.1758-2.1094 1.1406-4.0703 2.957-5.8711 4.9453-3.5781 4.0508-6.5352 8.8906-9.2266 13.855-2.6719 4.9961-5.0703 10.188-7.3555 15.445-2.2656 5.2617-4.3477 10.625-6.3633 16.02-2.043 5.3867-3.9688 10.824-5.8281 16.293-3.7422 10.938-7.207 21.973-10.602 33.094l-2.6172 8.3906-0.71875 2.1484-0.37109 1.0352c0.77344 0.57422 1.8555 1.1914 2.9531 1.75 1.1758 0.59766 2.4219 1.1523 3.6953 1.6914 2.5547 1.0742 5.2109 2.043 7.8984 2.9688 5.3867 1.8438 10.902 3.4883 16.438 5.0469 5.5391 1.5391 11.156 3.0078 16.719 4.3438l0.066406 0.015625 0.24219 0.070313 10.609 3.6016 10.473 4.0273c3.4336 1.5039 6.8789 2.9688 10.293 4.5273l5.0469 2.4766c1.6875 0.82812 3.3906 1.6289 5.0117 2.5625 3.2891 1.8281 6.6289 3.5586 9.8086 5.5898 1.6016 0.99219 3.2188 1.957 4.8047 2.9766l4.6758 3.1836c0.77344 0.53906 1.5703 1.0547 2.332 1.6055l1.5938 1.2031c1.0391-52.117-16.375-114.57-21.469-131.65" fill="#d9838e"/>
 <path d="m332.03 84.848c-2.9727 39.137-15.852 103.25-8.8711 131.04l1.5508-1.4844c1.2305-1.1914 2.5703-2.2656 3.8516-3.3945l1.9414-1.6797c0.65625-0.55469 1.3438-1.0625 2.0117-1.5938 1.3477-1.0508 2.6758-2.1289 4.0469-3.1484 2.7773-1.9766 5.5391-3.9961 8.4297-5.7969 2.832-1.8984 5.8047-3.5547 8.7422-5.2734l4.4805-2.4141c1.4922-0.80859 3.0352-1.5195 4.5508-2.2812 1.5117-0.76953 3.0547-1.4766 4.6016-2.1562 1.5508-0.6875 3.0781-1.4258 4.6523-2.043l4.6953-1.9297 4.7461-1.7891c3.1836-1.125 6.375-2.2383 9.6016-3.2227 1.6055-0.52734 3.2266-0.98047 4.8477-1.4531 1.6172-0.48047 3.2422-0.91797 4.875-1.3398 1.625-0.4375 3.2617-0.84766 4.9023-1.2305 1.6367-0.40625 3.2812-0.78125 4.9297-1.1211 3.2891-0.73437 6.5977-1.3555 9.9141-1.9375 3.3242-0.5625 6.6562-1.0781 10.004-1.4844 1.1523-0.13672 2.2969-0.26953 3.4414-0.39453-1.3477-1.5352-2.7305-3.0508-3.8906-4.7617l-3.8164-5.2227c-1.2383-1.7695-2.2812-3.6484-3.4141-5.4766l-1.668-2.7617c-0.53906-0.92969-1-1.8906-1.5-2.832l-2.9609-5.6641-5.4336-11.371c-1.7617-3.7656-3.4883-7.6016-5.2891-11.305l-2.6836-5.5898-1.3398-2.8047-1.418-2.7852-5.6758-11.109c-1.957-3.6484-3.8984-7.3047-5.957-10.871-1-1.8125-2.0625-3.5703-3.1211-5.332l-1.5859-2.6406-1.6523-2.5898c-0.55469-0.85938-1.0859-1.7344-1.6562-2.5742l-1.7344-2.5039c-1.1289-1.707-2.3828-3.2695-3.5977-4.8867-2.4648-3.1562-5.0469-6.2227-7.9609-8.7852-2.8984-2.5898-6-4.8477-9.4336-6.457l-2.625-1.082-2.7422-0.85547-2.7383-0.60938c-0.96484-0.18359-2.0508-0.29297-3.0664-0.4375-0.52734-0.082031-1.125-0.11328-1.7266-0.14453-5.0938 3.9883-11.449 13.742-13.258 37.578" fill="#d9838e"/>
 <path d="m525.71 438.87s22.789-2.6914 16.062-9.2031c-3.0078-2.9062-8.8672-4.0547-14.562-4.0547-7.043 0.007813-13.844 1.75-14.719 4.0547-1.582 4.1719 13.219 9.2031 13.219 9.2031" fill="#c36c78"/>
 <path d="m527.29 509.42c0.94531 0 1.6836-0.12109 2.5312-0.17188 0.82031-0.066406 1.6562-0.22656 2.4766-0.33203 0.80078-0.18359 1.625-0.30469 2.3867-0.54688 3.0859-0.86328 5.832-2.2578 7.5977-4.3672 1.793-2.0781 2.7031-4.7539 2.9922-7.5078 0.27344-2.75 0.003906-5.5156-0.4375-8.0547-0.23047-1.2695-0.51563-2.4805-0.80859-3.6484-0.15234-0.59375-0.30078-1.1758-0.44531-1.7344l-0.089843-0.33984-0.039063-0.21484-0.082031-0.42578c-0.050782-0.28125-0.10547-0.55859-0.15625-0.83203-0.36719-2.543-0.38672-4.5117-0.40234-6.1562-0.003906-0.80078 0.011719-1.5117 0.035156-2.1367-3.9805-1.0898-8.3477-2.4609-13.141-4.1328l-0.11328 0.12891c-0.25781 0.29297-0.57422 0.61328-0.89062 1-0.29688 0.42188-0.62109 0.87109-0.96875 1.3516-0.37109 0.47266-0.66797 1.0391-0.99219 1.625-0.32422 0.58203-0.68359 1.1836-1.0078 1.8281-0.28125 0.66406-0.56641 1.3398-0.84766 2.0195-0.26172 0.6875-0.63672 1.3594-0.80078 2.0781-0.20313 0.71484-0.40625 1.4219-0.60547 2.0938-0.19531 0.69531-0.38672 1.3633-0.56641 2-0.11328 0.64453-0.21875 1.2578-0.3125 1.8242-0.38672 2.3086-0.64453 3.8516-0.64453 3.8516s-0.26172-1.5469-0.65234-3.875c-0.097657-0.59375-0.20313-1.2266-0.31641-1.9102-0.039062-0.68359-0.078125-1.4062-0.12109-2.1562-0.039063-0.75781-0.082032-1.543-0.12109-2.3438-0.078125-0.80078 0.058594-1.6094 0.078125-2.4375 0.054687-0.82813 0.10938-1.6602 0.16016-2.4766 0.10938-0.8125 0.26953-1.6172 0.40625-2.4023 0.10156-0.59375 0.21484-1.1641 0.35547-1.7188-4.625 1.2969-10.418 3.5742-16.598 4.6914-0.10547 0.32812-0.21094 0.67578-0.32422 1.0508-0.89453 2.9844-1.9961 7.3789-2.3477 12.613-0.15234 2.6016-0.066406 5.4297 0.53125 8.2305 0.56641 2.8086 1.8555 5.4961 3.8164 7.6562 1.9375 2.2148 4.7656 3.6562 7.8477 4.6055 3.1133 0.91406 6.5234 1.332 9.9922 1.3125l0.57813 0.015624 0.68359-0.015624 1.3633-0.039063" fill="#c36c78"/>
</svg>
