<?xml version="1.0" encoding="UTF-8"?>
<svg width="1587" height="1587" version="1.0" viewBox="0 0 1190.2 1190.2" xmlns="http://www.w3.org/2000/svg" zoomAndPan="magnify">
 <defs>
  <clipPath id="b">
   <path d="m0 0h1189.5v1189.5h-1189.5z"/>
  </clipPath>
  <clipPath id="a">
   <path d="m53.543 319h41.457v60h-41.457z"/>
  </clipPath>
 </defs>
 <g clip-path="url(#b)" fill="#fff">
  <path d="m0 0h1189.5v1189.5h-1189.5z"/>
  <path d="m0 0h1189.5v1189.5h-1189.5z"/>
 </g>
 <path d="m270.42 1040c-0.16797 36.809-19.348 56.852-51.816 57.188-27.531 0.28125-53.02-7.4844-75.449-23.688-21.98-15.867-28.484-39.582-16.008-62.77 14.129-26.266 36.141-44.066 65.301-51.355 22.262-5.5508 40.961 2.2148 55.148 19.848 15.254 18.895 21.395 41.266 22.824 60.777z" fill="#f7c2d6"/>
 <path d="m319.54 889.99c-1.8203 22.426-8.8047 43.117-28.484 57.414-18.227 13.23-38.078 6.1641-42.73-15.953-5.5508-26.379 1.7656-49.676 20.914-68.766 8.2148-8.1875 18.031-13.539 30.254-9.9258 12.98 3.8438 16.766 14.773 19.234 26.352 0.73047 3.2812 0.53125 6.7305 0.8125 10.879z" fill="#f7c2d6"/>
 <path d="m163.06 887.95c1.2344-21.586 5.3867-38.098 17.637-51.609 16.262-17.941 37.938-14.551 46.629 8.0742 9.8672 25.594 6.0547 50.066-10.32 72.047-6.6445 8.9141-15.672 15.727-27.812 13.398-11.832-2.2695-18.477-11.047-21.84-21.922-2.3828-7.7109-3.4219-15.785-4.293-19.988z" fill="#f7c2d6"/>
 <path d="m81.777 925.9c-0.19531-15.445 3.5039-29.602 14.469-41.012 12.086-12.559 28.543-11.914 39.953 1.2617 17.02 19.652 17.16 57.664 0.33594 77.484-13.203 15.531-32.691 15.586-43.543-1.6562-6.5859-10.453-9.4492-23.266-13.988-35.012 0.92578-0.36328 1.8477-0.70312 2.7734-1.0664z" fill="#f7c2d6"/>
 <path d="m315.87 1033.1c-18.617-0.027343-29.16-11.438-28.43-29.938 1.0078-25.398 13.066-44.883 35.578-56.656 21.562-11.27 41.078 0.53125 42.309 24.586 1.1797 22.48-17.102 51.047-38.156 59.18-4.375 1.707-9.1719 2.3242-11.301 2.8281z" fill="#f7c2d6"/>
 <path d="m870.43 276.39c19.035 38.742 9.3906 69.828-24.562 87.125-28.766 14.664-59.637 19.82-91.656 14.496-31.402-5.2148-50.609-26.719-49.598-57.582 1.1484-34.957 14.945-65.18 41.777-88.055 20.465-17.465 44.188-19.062 68.328-7.9336 25.879 11.914 44.02 32.211 55.711 51.949z" fill="#f7c2d6"/>
 <path d="m843.71 93.164c9.8164 24.504 13.262 49.902 0.058594 75.188-12.227 23.406-36.785 26.352-53.219 5.5508-19.598-24.809-24.082-53.125-13.934-83.176 4.3477-12.895 11.859-23.633 26.609-26.238 15.645-2.75 25.316 6.7539 33.98 17.66 2.4102 3.0547 4.0391 6.7852 6.5039 11.016z" fill="#f7c2d6"/>
 <path d="m678.23 172.7c-9.9844-23.324-14.246-42.863-8.4414-63.438 7.7109-27.363 32.242-35.07 53.215-15.867 23.723 21.754 32.496 49.449 26.777 81.07-2.3281 12.84-8.2695 24.727-22.234 28.598-13.625 3.7812-25.176-1.9648-34.402-11.637-6.5039-6.8125-11.805-14.773-14.914-18.727z" fill="#f7c2d6"/>
 <path d="m612.65 255.03c-8.2695-16.121-11.805-32.91-6.1953-50.656 6.1406-19.512 23.746-27.445 42.617-19.539 28.121 11.773 48.141 51.609 40.793 81.242-5.7461 23.211-26.215 33.441-46.625 20.996-12.395-7.543-22.066-19.512-32.973-29.492 0.8125-0.86719 1.5977-1.7109 2.3828-2.5508z" fill="#f7c2d6"/>
 <path d="m914.56 245.45c-19.57 9.6992-36.617 3.1953-45.531-16.625-12.195-27.191-9.7305-53.965 7.793-78.102 16.797-23.102 43.434-20.859 57.312 3.7266 12.98 23.016 8.6914 62.57-9.1992 82.113-3.6719 4.0625-8.3828 7.2031-10.375 8.8867z" fill="#f7c2d6"/>
 <path d="m166.29 416.34c-0.11328 21.672-11.383 33.473-30.504 33.668-16.207 0.16797-31.207-4.4023-44.441-13.961-12.953-9.3359-16.766-23.297-9.4219-36.949 8.3281-15.445 21.281-25.957 38.441-30.246 13.094-3.2812 24.113 1.3164 32.469 11.691 9 11.129 12.617 24.305 13.457 35.797z" fill="#f7c2d6"/>
 <path d="m195.22 328c-1.0625 13.203-5.1875 25.398-16.766 33.809-10.711 7.793-22.43 3.6445-25.148-9.3945-3.2539-15.527 1.0352-29.266 12.336-40.48 4.8203-4.8203 10.625-7.9609 17.805-5.8555 7.6523 2.2422 9.8672 8.6875 11.324 15.527 0.39453 1.9375 0.28125 3.9531 0.44922 6.3945z" fill="#f7c2d6"/>
 <path d="m103.09 326.8c0.73047-12.699 3.168-22.426 10.375-30.387 9.5898-10.57 22.32-8.5508 27.449 4.7344 5.8047 15.082 3.5625 29.492-6.0859 42.418-3.9219 5.2422-9.2227 9.25-16.371 7.875-6.9844-1.3438-10.879-6.5039-12.871-12.895-1.375-4.5117-1.9883-9.25-2.4961-11.746z" fill="#f7c2d6"/>
 <g clip-path="url(#a)">
  <path d="m55.227 349.17c-0.11328-9.082 2.0469-17.438 8.5234-24.137 7.1211-7.4023 16.793-7.0352 23.523 0.73047 10.012 11.574 10.121 33.945 0.19531 45.609-7.7656 9.1367-19.262 9.168-25.625-0.98047-3.8711-6.168-5.5508-13.711-8.2422-20.633 0.53125-0.19922 1.0938-0.39453 1.625-0.58984z" fill="#f7c2d6"/>
 </g>
 <path d="m193.03 412.27c-10.961 0-17.188-6.7266-16.738-17.633 0.58984-14.941 7.6836-26.434 20.945-33.359 12.703-6.6133 24.168 0.30859 24.926 14.465 0.69922 13.234-10.066 30.055-22.457 34.848-2.582 1.0078-5.3828 1.375-6.6758 1.6797z" fill="#f7c2d6"/>
 <path d="m875.03 1154.2c0.44922-10.484 4.2617-22.957 12.531-33.668 8.2734-10.707 19.262-16.453 32.973-12.922 17.691 4.543 30.957 15.445 39.004 31.789 6 12.223 3.5859 23.605-6.6484 32.465-14.691 12.781-32.383 18.051-51.531 16.23-17.637-1.6523-26.355-12.812-26.328-33.895z" fill="#f7c2d6"/>
 <path d="m939.21 1068c-0.84375 3.0273-1.6289 8.2148-3.6445 12.812-4.5703 10.371-14.414 12.812-23.469 5.6914-11.074-8.6914-14.664-21-14.301-34.426 0.14062-4.793 1.5703-9.8672 3.6172-14.242 4.1797-8.9414 13.348-11.242 21.477-5.6055 11.664 8.1016 15.199 20.266 16.32 35.77z" fill="#f7c2d6"/>
 <path d="m890.67 1083.9c-0.92578 3.8125-1.375 7.8516-2.8867 11.438-3.0586 7.207-10.402 10.094-17.805 7.5703-17.105-5.832-28.906-32.77-21.645-49.254 3.6719-8.3555 11.41-11.102 20.297-7.207 12.172 5.3281 21.508 21.559 22.039 37.453z" fill="#f7c2d6"/>
 <path d="m946.78 1088.6c-0.28125-7.9883 1.625-15.391 6.418-21.867 7.1797-9.6992 18.758-9.8398 26.188-0.39062 9.1406 11.578 9.1133 32.406-0.027343 44.066-7.3438 9.3633-19.598 9.5039-25.992-0.67188-3.8672-6.1406-5.5508-13.625-8.2148-20.52 0.53516-0.19531 1.0938-0.39453 1.6289-0.61719z" fill="#f7c2d6"/>
 <path d="m865.05 1130.7c0.10938 17.242-12.168 24.699-25.57 17.016-12.113-6.8945-18.73-17.746-19.77-31.535-1.1484-15.281 11.246-23.578 24.871-16.484 13.008 6.7812 19.516 18.219 20.469 31.004z" fill="#f7c2d6"/>
 <path d="m975.38 724.82c0.61719-13.707 5.5781-30.023 16.402-44.012 10.82-14.016 25.176-21.5 43.094-16.902 23.16 5.9414 40.488 20.184 50.973 41.574 7.8516 15.977 4.6836 30.863-8.6641 42.469-19.207 16.707-42.363 23.605-67.375 21.223-23.074-2.1875-34.457-16.766-34.43-44.352z" fill="#f7c2d6"/>
 <path d="m1059.3 612.01c-1.0938 3.9531-2.1328 10.734-4.7656 16.762-5.9727 13.57-18.844 16.766-30.703 7.4297-14.469-11.352-19.18-27.445-18.703-45.02 0.16797-6.2812 2.0781-12.898 4.7383-18.645 5.4414-11.691 17.469-14.688 28.066-7.3164 15.281 10.598 19.91 26.52 21.367 46.789z" fill="#f7c2d6"/>
 <path d="m995.81 632.81c-1.2031 4.9883-1.793 10.258-3.7852 14.941-3.9805 9.418-13.625 13.203-23.27 9.8945-22.348-7.625-37.797-42.836-28.289-64.422 4.8203-10.902 14.941-14.492 26.523-9.418 15.898 6.9805 28.121 28.23 28.82 49.004z" fill="#f7c2d6"/>
 <path d="m1069.2 638.98c-0.36719-10.457 2.1289-20.129 8.3828-28.594 9.3906-12.672 24.531-12.871 34.262-0.53516 11.941 15.141 11.914 42.387-0.058594 57.637-9.6172 12.25-25.598 12.418-33.98-0.86719-5.0469-8.0195-7.2617-17.832-10.766-26.828 0.72656-0.28125 1.4297-0.5625 2.1602-0.8125z" fill="#f7c2d6"/>
 <path d="m962.34 693.98c0.16797 22.566-15.898 32.266-33.449 22.258-15.84-9.0273-24.477-23.211-25.852-41.234-1.5117-19.988 14.695-30.84 32.496-21.559 17.02 8.8867 25.543 23.801 26.805 40.535z" fill="#f7c2d6"/>
 <path d="m400.04 520.84c5.5234-3.8945 13.402-6.8672 22.094-6.8672 8.7227 0 15.984 3.3359 19.57 11.719 4.6562 10.82 4.3203 21.867-0.86719 32.406-3.8711 7.8789-10.625 11.102-19.18 9.3906-12.309-2.4648-21.953-9.418-28.57-19.875-6.082-9.6445-3.8125-18.473 6.9531-26.773z" fill="#f7c2d6"/>
 <path d="m469.29 519.61c-1.8789 0.75391-4.8203 2.4102-7.9883 3.1953-7.0938 1.7656-12.199-2.3008-12.141-9.7266 0.082032-9.0586 4.9336-15.73 11.941-20.832 2.4961-1.8203 5.6641-3.082 8.6953-3.7539 6.1953-1.4023 10.988 2.3828 11.297 8.7461 0.47656 9.1094-4.3438 15.699-11.805 22.371z" fill="#f7c2d6"/>
 <path d="m442.07 501.14c-2.3281 1.0391-4.543 2.3828-6.9805 3.0273-4.8789 1.293-9.2539-1.3164-10.879-6.082-3.7578-11.016 5.3242-27.641 16.598-30.418 5.6914-1.3984 10.148 1.4609 11.664 7.5156 2.1016 8.2695-2.4961 19.426-10.402 25.957z" fill="#f7c2d6"/>
 <path d="m461.75 531.58c3.9805-3.2812 8.4922-5.2148 13.68-5.3242 7.7656-0.17187 12.395 5.6875 10.516 13.203-2.3281 9.2227-12.953 17.406-22.488 17.324-7.6797-0.058594-12.559-6.2539-9.8945-13.512 1.5977-4.375 4.7656-8.2148 7.2305-12.281 0.30859 0.19922 0.64844 0.39453 0.95703 0.58984z" fill="#f7c2d6"/>
 <path d="m408.11 506.49c-8.75 6.8398-17.387 3.5312-18.758-6.3359-1.2344-8.8867 1.6797-16.539 8.2969-22.484 7.3477-6.6133 16.461-3.5586 18.199 6.1992 1.6797 9.2773-1.5703 17.098-7.7383 22.621z" fill="#f7c2d6"/>
 <path d="m304.54 107.55c0.33594-7.6836 3.1406-16.848 9.1953-24.699 6.0859-7.875 14.133-12.082 24.199-9.4727 12.98 3.3359 22.711 11.324 28.598 23.324 4.4023 8.9688 2.6367 17.324-4.8789 23.828-10.766 9.3633-23.777 13.23-37.793 11.914-12.926-1.2344-19.348-9.4219-19.32-24.895z" fill="#f7c2d6"/>
 <path d="m351.64 44.273c-0.61719 2.2148-1.1797 6.0273-2.6914 9.4219-3.3672 7.625-10.57 9.3906-17.215 4.1758-8.1328-6.3906-10.77-15.418-10.488-25.285 0.085938-3.5352 1.1484-7.2344 2.6641-10.457 3.0547-6.5625 9.7852-8.2422 15.758-4.1211 8.5508 5.9414 11.129 14.887 11.973 26.266z" fill="#f7c2d6"/>
 <path d="m316.01 55.938c-0.67187 2.8008-1.0117 5.7461-2.1328 8.3828-2.2422 5.2969-7.625 7.3984-13.062 5.5508-12.535-4.2891-21.227-24.027-15.871-36.137 2.6914-6.1133 8.3828-8.1289 14.887-5.2695 8.9453 3.8945 15.785 15.809 16.18 27.473z" fill="#f7c2d6"/>
 <path d="m357.2 59.383c-0.19531-5.8555 1.207-11.297 4.7109-16.035 5.2695-7.1172 13.766-7.2305 19.203-0.30469 6.7031 8.4922 6.6758 23.77-0.027344 32.348-5.4102 6.8711-14.383 6.9805-19.066-0.50391-2.832-4.5117-4.0625-10.008-6.0273-15.055 0.39453-0.14062 0.78516-0.27734 1.207-0.44922z" fill="#f7c2d6"/>
 <path d="m297.22 90.25c0.082032 12.672-8.918 18.109-18.758 12.504-8.8867-5.0742-13.738-13.035-14.496-23.129-0.83984-11.215 8.2422-17.297 18.227-12.082 9.5586 4.9609 14.324 13.344 15.027 22.707z" fill="#f7c2d6"/>
 <path d="m650.58 845.89c0.33594-7.5391 3.0859-16.512 9.0312-24.219 5.9688-7.7109 13.879-11.832 23.773-9.3086 12.758 3.2812 22.32 11.102 28.094 22.875 4.3203 8.8008 2.582 16.961-4.793 23.352-10.598 9.1953-23.355 12.98-37.152 11.664-12.699-1.1797-18.98-9.1953-18.953-24.363z" fill="#f7c2d6"/>
 <path d="m696.85 783.83c-0.58984 2.1875-1.1797 5.8867-2.6367 9.2227-3.3086 7.457-10.375 9.2227-16.906 4.0938-7.9648-6.25-10.57-15.109-10.289-24.754 0.082031-3.4492 1.1484-7.0938 2.6055-10.262 3-6.418 9.6172-8.0703 15.477-4.0352 8.3828 5.832 10.934 14.605 11.75 25.734z" fill="#f7c2d6"/>
 <path d="m661.86 795.27c-0.67188 2.7461-0.98047 5.6367-2.0742 8.2148-2.1875 5.1875-7.5156 7.2617-12.844 5.4375-12.309-4.2031-20.832-23.547-15.59-35.434 2.6641-6 8.2461-7.9883 14.637-5.1875 8.75 3.8711 15.477 15.559 15.871 26.969z" fill="#f7c2d6"/>
 <path d="m702.31 798.66c-0.19531-5.75 1.1797-11.074 4.6289-15.73 5.1562-6.9766 13.512-7.0625 18.867-0.27734 6.5898 8.3242 6.5625 23.324-0.027344 31.703-5.3008 6.7578-14.133 6.8438-18.73-0.47656-2.7734-4.3984-4.0078-9.8086-5.9414-14.773 0.39062-0.14062 0.78516-0.27734 1.2031-0.44531z" fill="#f7c2d6"/>
 <path d="m643.38 828.93c0.082032 12.418-8.75 17.746-18.449 12.25-8.7188-4.9609-13.488-12.754-14.246-22.676-0.83984-10.992 8.1055-16.961 17.918-11.859 9.3945 4.8789 14.102 13.09 14.777 22.285z" fill="#f7c2d6"/>
</svg>
