<?xml version="1.0" encoding="UTF-8"?>
<svg width="1587" height="1587" version="1.0" viewBox="0 0 1190.2 1190.2" xmlns="http://www.w3.org/2000/svg" zoomAndPan="magnify">
 <defs>
  <clipPath id="d">
   <path d="m0 0h1189.5v1189.5h-1189.5z"/>
  </clipPath>
  <clipPath id="b">
   <path d="m318 205.21h328v418.79h-328z"/>
  </clipPath>
  <clipPath id="a">
   <path d="m65.605 579h300.39v416h-300.39z"/>
  </clipPath>
  <clipPath id="c">
   <path d="m314 577h319v419.71h-319z"/>
  </clipPath>
 </defs>
 <g clip-path="url(#d)" fill="#fff">
  <path d="m0 0h1189.5v1189.5h-1189.5z"/>
  <path d="m0 0h1189.5v1189.5h-1189.5z"/>
 </g>
 <path d="m200.63 623.33c-14.926 0-30.203-1.418-45.484-3.9062h-1.4219-3.1953c-44.418 0-82.082-37.645-82.438-82.395l-1.4219-246.12c-0.35547-44.395 35.891-80.621 82.438-82.75h3.1992c3.9062 0 8.1719 0.35547 12.078 1.0664 6.7539-0.35547 13.504-0.71094 20.254-0.71094 65.383 0 120.81 24.148 155.99 68.188 30.559 38.359 37.309 88.078 18.477 134.25 20.609 41.906 19.543 91.984-4.2617 133.18-28.781 50.434-85.277 79.199-154.21 79.199z" fill="#fff"/>
 <g clip-path="url(#b)">
  <path d="m482.05 623.69c-93.098 0-163.1-89.852-163.1-209.18 0-118.98 70.355-208.83 163.1-208.83 92.738 0 163.09 89.855 163.09 209.19 0 118.98-70 208.83-163.09 208.83z" fill="#fff"/>
 </g>
 <path d="m740.73 621.2c-51.523 0-100.56-28.059-138.22-79.199-12.078-16.336-16.699-36.938-12.434-57.535 3.9062-20.953 16.344-40.133 33.043-53.273-2.1328-2.8398-4.2617-5.6836-6.3945-8.8789-19.898-29.477-26.293-65.703-18.477-101.93 8.5273-38.355 32.688-72.094 66.445-92.695 20.609-12.43 44.77-19.176 69.645-19.176 40.863 0 81.012 17.758 107.66 47.234 30.914 34.449 30.559 81.684-0.71094 114.71-1.4219 1.4219-3.1992 3.1953-4.6211 4.6172 3.1992 2.4844 6.7539 5.3281 9.9492 8.5234 42.996 41.199 53.656 105.12 26.297 159.46-22.387 44.75-71.777 75.293-125.79 77.777-2.1289 0.35547-4.2617 0.35547-6.3945 0.35547z" fill="#fff"/>
 <path d="m981.64 621.2c-51.52 0-100.55-28.059-138.22-79.199-12.082-16.336-16.703-36.938-12.438-57.535 3.9062-20.953 16.344-40.133 33.043-53.273-2.1289-2.8398-4.2617-5.6836-6.3945-8.8789-19.898-29.477-26.293-65.703-18.477-101.93 8.5273-38.355 32.691-72.094 66.445-92.695 20.609-12.43 44.773-19.176 69.645-19.176 40.863 0 81.016 17.758 107.66 47.234 30.914 34.449 30.559 81.684-0.71094 114.71-1.4219 1.4219-3.1992 3.1953-4.6172 4.6172 3.1953 2.4844 6.75 5.3281 9.9453 8.5234 42.996 41.199 53.656 105.12 26.297 159.46-22.387 44.75-71.777 75.293-125.79 77.777-2.1328 0.35547-4.2656 0.35547-6.3984 0.35547z" fill="#fff"/>
 <g clip-path="url(#a)">
  <path d="m196.72 994.47c-14.57 0-29.492-1.4219-44.059-3.9062h-1.4219-3.1992c-43.707 0-80.66-37.648-80.66-82.395l-1.4219-246.12c-0.35547-44.395 35.18-80.621 81.016-82.754h3.1992c3.9062 0 7.8164 0.35547 12.082 1.0664 6.3945-0.35547 13.145-0.71094 19.543-0.71094 63.957 0 117.96 24.508 152.08 68.547 29.492 38.355 35.887 88.078 17.766 133.54 20.254 41.91 19.188 90.922-3.9102 132.47-28.426 50.789-83.145 80.266-151.01 80.266z" fill="#fff"/>
 </g>
 <g clip-path="url(#c)">
  <path d="m546.36 996.25c-30.914 0-58.273-18.824-71.777-45.816-13.5 25.57-40.504 43.328-72.129 44.75h-3.5547c-42.992 0-78.883-36.582-80.656-81.332-0.35547-10.652-1.0664-21.664-1.4219-31.961-1.7773-31.609-3.1992-64.285-1.0664-98.023 3.9062-57.18 14.922-128.21 64.668-171.54 26.293-23.086 58.629-35.16 93.453-35.16 8.5273 0 17.41 0.71094 26.293 2.1289 34.82 5.6836 66.801 27.703 90.254 62.152 33.043 47.945 39.441 109.39 41.926 168.34 0.71094 18.824 0 36.938-0.71094 54.695-0.71094 16.691-1.0664 32.316-0.71094 47.945 1.4219 44.039-34.82 81.684-81.012 83.816h-3.5547z" fill="#fff"/>
 </g>
 <path d="m719.76 994.47c-14.566 0-29.492-1.4219-44.059-3.9062h-1.4219-3.1992c-43.703 0-80.656-37.648-80.656-82.395l-1.4219-246.12c-0.35547-44.395 35.176-80.621 81.012-82.754h3.1992c3.9102 0 7.8164 0.35547 12.082 1.0664 6.3945-0.35547 13.145-0.71094 19.543-0.71094 63.957 0 117.97 24.508 152.08 68.547 29.492 38.355 35.891 88.078 17.766 133.54 20.254 41.91 19.188 90.922-3.9062 132.47-28.426 50.789-83.148 80.266-151.02 80.266z" fill="#fff"/>
 <path d="m924.79 993.05c-43.703 0-80.66-37.645-80.66-82.395l-1.418-246.12c-0.35547-44.395 35.176-80.621 81.012-82.75h3.1992c2.4883 0 5.3281 0 7.8164 0.35547 1.7773 0 3.5547-0.35547 5.332-0.35547h101.98c44.418 0 80.66 35.516 82.438 80.973 1.0664 21.312-7.1094 41.91-22.387 57.891-7.8164 8.168-16.699 14.562-26.648 18.824 18.477 14.562 30.559 37.293 31.625 62.863 0.70703 15.625-3.1992 30.543-11.727 44.039 17.41 14.559 28.781 36.578 29.848 61.441 1.0664 21.309-7.1094 41.906-22.387 57.891-15.988 16.691-38.02 26.281-60.051 26.281h-101.98-4.2656c-2.8438 0.35156-5.6836 0.70703-8.5273 0.70703-1.0664 0.35547-2.1328 0.35547-3.1992 0.35547z" fill="#fff"/>
 <path d="m324.64 526.02c-33.402 57.887-105.53 69.965-167.71 57.531-1.4219 0.35547-3.1992 0.35547-4.6172 0.35547-26.297 1.0664-48.324-22.375-48.68-46.879 0-10.301 0-20.598-0.35547-30.898-0.35547-71.742-0.71094-143.48-1.4219-215.22 0-26.281 22.383-45.812 48.68-46.879 4.2617-0.35547 8.1719 0.35547 12.082 1.418 56.141-6.0352 115.12 8.8789 150.66 53.273 28.07 35.16 26.648 78.137 6.0391 113.65 23.098 32.676 26.652 76.715 5.332 113.65zm-192.59-254.29c-14.926 15.629-18.832 37.648-15.992 58.246 1.0664 7.1055 5.6875 13.496 13.859 13.496 6.75 0 14.922-6.3906 13.855-13.496-1.7734-13.141-1.7734-29.121 7.8203-39.422 12.078-12.785-7.4648-31.609-19.543-18.824zm110.15 200.31v-0.71094-0.35547c0-0.35547 0-0.71094-0.35547-1.0664v0.35547-1.0625c-0.35547-0.35547-0.35547-0.71094-0.71094-1.0664 0-0.71094-0.35547-1.0664-0.35547-1.7773l-0.35156-0.35547c-0.35547-0.35547-0.71094-0.35547-0.71094-0.71094-0.71094-0.70703-1.7773-1.418-2.4883-2.1289-3.5547-1.7773-6.75-3.9062-10.305-5.6836-25.938-12.074-33.047-55.758-9.5938-73.871 3.5547-2.8398 6.75-5.3281 9.9492-8.5234 0.35547-0.35547 6.0391-6.3945 6.0391-6.0391 1.7773-2.4844 3.1992-4.9727 4.6211-7.457-2.8438 4.9727-1.7773 2.1328 0-1.4219 0-0.35547 0-0.71094 0.35547-1.418 0-0.35547-0.35547-0.71094-0.35547-1.0664-0.35547-0.35547-0.35547-0.71094-0.71094-1.0664 0.35547 0.71094 0-0.35547-1.4219-2.1289 0-0.35547-0.35547-0.35547-0.35547-0.71094 0 0 0 0.35547 0.35547 0.35547-0.35547-0.35547-1.0664-1.0664-1.4219-1.7773-1.0664-1.4219-2.4883-2.4844-3.9062-3.5508-2.8438-1.4219-5.332-3.1953-8.1758-4.6172-1.0664-0.35547-1.7734-1.0664-2.1289-1.4219-0.71094 0-1.4219-0.35547-2.8438-0.71094-4.2656-1.0625-8.8828-2.1289-13.148-3.5508-1.0664-0.35547-1.7773-0.35547-2.1328-0.71094h-0.70703-1.4219c0.35547 52.211 0.71094 104.06 1.0664 156.27 4.2617 0 10.656-1.4219 14.922-1.0664 1.7773-0.35547 3.9102-0.71094 5.6836-1.4219 0.35547 0 2.1328-0.35547 3.9102-1.0625 0.35547-0.35547 1.0664-0.71094 1.7773-1.0664 1.4219-0.71094 2.8438-1.7773 4.6172-3.1953-0.71094 1.0625 0.71094 1.0625 3.1992-1.4219 0.35547-0.35547 0.71094-0.71094 1.0664-1.0664 0.35547-0.35547 0.71094-0.35547 1.4219-0.35547-0.35547 0-0.71094 0.35547-1.0664 0.35547 0.71094-0.71094 1.7773-1.7734 2.4883-2.4844 0.35547-0.71094 1.0664-1.0664 1.4219-1.7773 0.35156-0.35547 0.70703-1.7734 1.418-2.8398v-0.71094 0.35547c0.35547-0.71094 0.71094-1.4219 1.0664-1.7773v-1.7734c-0.71094 0.35547-0.71094 0-0.71094-0.71094zm-27.004 21.664c-3.5547 0-7.8164 1.7773-1.0664 0.35547 0.35547-0.35547 0.71094-0.35547 1.0664-0.35547zm27.004-18.469c-0.35547 0.35547-0.71094 1.0664-1.0664 1.7773 0.35547 0.35547 0.71094-0.35547 1.0664-1.7773zm1.4219-2.8398c-0.35547-0.35547-0.71094-1.0664-1.0664-1.7773 0.35547-0.71094 0.35547-1.418 0.71094-1.7734-0.35547 0.70703-0.35547 1.0625-0.71094 1.7734 0 0 0-0.35547-0.35547-0.35547v0.71094 0.35547c0.71094 0 1.0664 0.71094 1.4219 1.0664z" fill="#ff94bb"/>
 <path d="m609.61 414.86c0 99.086-54.723 173.67-127.56 173.67-72.844 0-127.56-74.582-127.56-173.67 0-99.09 55.074-173.67 127.56-173.67 72.84 0 127.56 74.582 127.56 173.67zm-178.38-140.64c-16.699 8.5234-29.137 24.859-32.691 42.973-1.4219 7.1016 2.1328 14.562 9.5938 16.691 6.7539 1.7773 15.637-2.1289 17.059-9.2344 2.4844-11.719 8.8828-20.953 19.895-26.637 15.992-8.8789 2.1328-31.961-13.855-23.793zm67.512 140.64c0-31.965-9.5938-52.918-16.344-62.152-6.7539 9.2344-16.348 30.188-16.348 62.152s9.5938 52.918 16.348 62.152c6.3945-9.2344 16.344-30.188 16.344-62.152z" fill="#ff94bb"/>
 <path d="m840.93 527.44c-17.41 34.805-56.496 56.469-95.582 58.246-48.68 2.1328-87.766-28.414-114.42-64.637-15.633-21.309-3.1953-51.5 17.414-64.285 23.449-14.559 51.875-3.1953 66.445 17.047 0.71094 0.71094 1.0664 1.4219 1.4219 2.1328 0.35547 0.35547 1.0664 1.0664 1.418 1.4219 1.4219 1.418 2.8438 2.8398 4.2656 4.2617 1.7773 1.7734 3.5547 3.1953 5.3281 4.9727 1.7773 1.0625 3.1992 1.7734 4.9766 2.8398 2.1328 0.71094 5.3281 1.7773 7.1055 2.4844h4.2656 0.35547c0.35547 0 1.4219-0.35547 2.4883-0.70703 1.418-1.0664 3.9062-2.4883 5.3281-3.5547 0.35547-0.35547 1.0664-1.0625 1.4219-1.418l0.35547-0.35547c0-0.35547 0.35547-0.71094 0.35547-1.0664 0.35547-1.0664 0.71094-1.7773 1.0664-2.1328v-0.35156s-0.35547 0.35156-0.35547 0.70703c0-0.35547 0.35547-1.0625 0.35547-1.418v-0.71094c0-0.35547-0.35547-1.0664-0.35547-1.4219-0.71094-1.0664-1.4219-2.1289-1.7773-3.1953-0.35547 0-0.35547-0.35547-0.71094-0.35547-1.4219-1.0664-3.1992-1.7773-4.6211-2.4844-4.2617-2.1328-8.8828-4.2617-13.145-6.3945-9.2383-4.2617-18.832-8.168-27.715-13.141-23.809-12.43-45.84-29.121-60.762-51.141-32.336-48.301-12.082-114.71 36.953-144.2 42.285-25.57 100.2-14.203 132.54 21.668 17.77 19.887 18.832 46.523 0 66.41-17.055 17.758-51.875 18.824-68.578 0-0.35156-0.35547-2.4844-3.1953-4.2617-5.3242-0.35547 0-0.71094-0.35547-1.0664-0.35547s-1.4219-0.71094-2.4883-1.4219h0.71094c0.35547 0.35547 1.0664 0.71094 2.1328 1.4219-0.35547-0.35547-1.0664-1.0664-1.4219-1.0664 0.71094 0 0.71094 0-0.35547-0.35547-0.35547 0-0.71094 0-1.4219-0.35547-0.71094-0.35547-1.4219-0.71094-1.7734-1.0664-0.35547 0-0.71094 0-1.0664 0.35547h0.35547-0.35547-0.35547c-0.35547 0-0.71094 0-1.0664 0.35547-0.71094 0.35547-1.4219 0.71094-1.7773 1.0664l-0.35547 0.35547c-0.35547 0.35547-0.71094 1.0664-1.0664 1.4219-0.35547 0.70703-0.71094 1.418-1.4219 2.1289-0.35547 0.71094-0.71094 1.0664-0.71094 1.4219-0.35547 1.0625-0.71094 1.7734-0.71094 2.8398v1.4219 0.71094c0 0.70703 0.35547 1.0625 0.35547 1.418 0.35547 0.71094 2.1328 2.8438 2.8438 3.9062 1.0664 1.0664 2.1328 2.1328 2.4883 2.4883 1.4219 1.4219 3.1953 2.8398 4.9727 4.2617-6.3945-5.6836 5.6875 3.5508 8.1719 4.9727 4.6211 2.4844 8.8867 4.9727 13.504 7.1016 21.32 10.656 44.062 18.113 61.828 34.805 31.977 31.609 38.02 79.199 18.477 118.27zm-153.86-257.84c-13.859 8.168-26.652 19.887-30.203 35.871-1.7773 7.1016 2.1328 14.559 9.5938 16.691 7.1055 1.7773 15.277-2.1328 17.055-9.2344 1.0664-4.2617 2.4883-7.457 5.3281-10.301 3.5547-3.9062 7.8203-6.7461 12.082-9.5859 15.281-9.2344 1.4219-32.676-13.855-23.441z" fill="#ff94bb"/>
 <path d="m1081.8 527.44c-17.41 34.805-56.496 56.469-95.582 58.246-48.68 2.1328-87.766-28.414-114.41-64.637-15.637-21.309-3.1992-51.5 17.41-64.285 23.449-14.559 51.879-3.1953 66.445 17.047 0.71094 0.71094 1.0664 1.4219 1.4219 2.1328 0.35547 0.35547 1.0664 1.0664 1.4219 1.4219 1.4219 1.418 2.8398 2.8398 4.2617 4.2617 1.7773 1.7734 3.5547 3.1953 5.332 4.9727 1.7773 1.0625 3.1953 1.7734 4.9727 2.8398 2.1328 0.71094 5.332 1.7773 7.1055 2.4844h4.2656 0.35547c0.35547 0 1.4219-0.35547 2.4883-0.70703 1.4219-1.0664 3.9062-2.4883 5.3281-3.5547 0.35547-0.35547 1.0664-1.0625 1.4219-1.418l0.35547-0.35547c0-0.35547 0.35547-0.71094 0.35547-1.0664 0.35547-1.0664 0.71094-1.7773 1.0664-2.1328v-0.35156s-0.35547 0.35156-0.35547 0.70703c0-0.35547 0.35547-1.0625 0.35547-1.418v-0.71094c0-0.35547-0.35547-1.0664-0.35547-1.4219-0.71094-1.0664-1.4219-2.1289-1.7773-3.1953-0.35547 0-0.35547-0.35547-0.71094-0.35547-1.4219-1.0664-3.1953-1.7773-4.6172-2.4844-4.2656-2.1328-8.8828-4.2617-13.148-6.3945-9.2383-4.2617-18.832-8.168-27.715-13.141-23.809-12.43-45.836-29.121-60.762-51.141-32.336-48.301-12.082-114.71 36.953-144.2 42.285-25.57 100.2-14.203 132.54 21.668 17.766 19.887 18.832 46.523 0 66.41-17.059 17.758-51.879 18.824-68.578 0-0.35547-0.35547-2.4883-3.1953-4.2656-5.3242-0.35547 0-0.71094-0.35547-1.0664-0.35547-0.35547 0-1.4219-0.71094-2.4844-1.4219h0.70703c0.35547 0.35547 1.0664 0.71094 2.1328 1.4219-0.35547-0.35547-1.0664-1.0664-1.4219-1.0664 0.71094 0 0.71094 0-0.35547-0.35547-0.35547 0-0.71094 0-1.418-0.35547-0.71094-0.35547-1.4219-0.71094-1.7773-1.0664-0.35547 0-0.71094 0-1.0664 0.35547h0.35547-0.35547-0.35547c-0.35547 0-0.71094 0-1.0664 0.35547-0.71094 0.35547-1.4219 0.71094-1.7773 1.0664l-0.35547 0.35547c-0.35547 0.35547-0.71094 1.0664-1.0664 1.4219-0.35547 0.70703-0.71094 1.418-1.418 2.1289-0.35547 0.71094-0.71094 1.0664-0.71094 1.4219-0.35547 1.0625-0.35547 1.7734-0.71094 2.8398v1.4219 0.71094c0 0.70703 0.35547 1.0625 0.35547 1.418 0.35547 0.71094 2.1289 2.8438 2.8398 3.9062 1.0664 1.0664 2.1328 2.1328 2.4883 2.4883 1.4219 1.4219 3.1992 2.8398 4.9766 4.2617-6.3984-5.6836 5.6836 3.5508 8.1719 4.9727 4.6172 2.4844 8.8828 4.9727 13.5 7.1016 21.32 10.656 44.062 18.113 61.828 34.805 31.98 31.609 38.02 79.199 18.477 118.27zm-153.86-257.84c-13.859 8.168-26.648 19.887-30.203 35.871-1.7773 7.1016 2.1328 14.559 9.5938 16.691 7.1055 1.7773 15.277-2.1328 17.055-9.2344 1.0664-4.2617 2.4883-7.457 5.332-10.301 3.5508-3.9062 7.8164-6.7461 12.078-9.5859 15.281-9.2344 1.4219-32.676-13.855-23.441z" fill="#ff94bb"/>
 <path d="m316.82 896.8c-32.336 57.891-102.34 69.965-162.39 57.535-1.4219 0.35547-2.8398 0.35547-4.6172 0.35547-25.586 1.0664-46.902-22.375-46.902-46.879v-30.898c-0.35547-71.742-0.71094-143.48-1.4219-215.22 0-26.281 21.676-45.816 46.902-46.883 3.9102-0.35547 7.8164 0.35547 11.727 1.4219 54.008-5.6836 111.21 9.2344 145.68 53.629 27.004 35.16 25.582 78.488 6.0391 113.65 22.387 32.32 25.586 76.359 4.9766 113.29zm-186.19-254.29c-14.57 15.629-18.121 37.648-15.637 58.246 1.0664 7.1016 5.6875 13.496 13.504 13.496 6.3945 0 14.215-6.3945 13.504-13.496-1.7773-13.141-1.7773-29.125 7.8164-39.422 11.371-12.43-7.4609-31.609-19.188-18.824zm106.6 200.3v-0.70703-0.35547-1.0664 0.35547-1.0664c0-0.35547-0.35547-0.71094-0.71094-1.0664 0-0.70703-0.35547-1.0625-0.35547-1.7734 0 0-0.35547-0.35547-0.35547-0.35547-0.35547-0.35547-0.71094-0.35547-0.71094-0.71094-0.71094-0.71094-1.4219-1.4219-2.1328-2.1328-3.1953-1.7734-6.3945-3.9062-9.9492-5.6797-25.227-12.074-32.332-55.762-9.5938-73.871 3.1992-2.8438 6.7539-5.3281 9.5938-8.5234 0.35547-0.35547 5.6875-6.3945 5.6875-6.0391 1.4219-2.4883 2.8398-4.9727 4.2617-7.457-2.8398 4.9688-1.7773 2.1289 0-1.4219 0-0.35547 0-0.71094 0.35547-1.4219 0-0.35547-0.35547-0.71094-0.35547-1.0664-0.35547-0.35156-0.35547-0.70703-0.71094-1.0625 0.35547 0.71094 0-0.35547-1.4219-2.1328 0-0.35547-0.35156-0.35547-0.35156-0.71094 0 0 0 0.35547 0.35156 0.35547-0.35156-0.35547-0.70703-1.0625-1.418-1.7734-1.0664-1.4219-2.4883-2.4883-3.5547-3.5508-2.4883-1.4219-5.3281-3.1992-7.8164-4.6172-1.0664-0.35547-1.4219-1.0664-2.1328-1.4219-0.71094 0-1.4219-0.35547-2.4883-0.71094-4.2617-1.0664-8.5273-2.1289-12.789-3.5508-1.0664-0.35547-1.4219-0.35547-2.1328-0.71094h-0.71094-1.4219c0.35547 52.207 0.71094 104.06 1.0664 156.27 4.2617 0 10.305-1.418 14.566-1.0625 1.7773-0.35547 3.5547-0.71094 5.332-1.4219 0.35547 0 2.1328-0.35547 3.9062-1.0664 0.35547-0.35547 1.0664-0.71094 1.4219-1.0625 1.4219-0.71094 2.8438-1.7773 4.6211-3.1992-0.71094 1.0664 0.71094 1.0664 3.1992-1.418 0.35156-0.35547 0.70703-0.71094 1.0625-1.0664 0.35547-0.35547 0.71094-0.35547 1.0664-0.35547-0.35547 0-0.71094 0.35547-1.0664 0.35547l2.4883-2.4883c0.35547-0.70703 0.71094-1.0625 1.0664-1.7734 0.35547-0.35547 0.71094-1.7773 1.4219-2.8438v-0.70703 0.35547c0.35547-0.71094 0.71094-1.4219 1.0664-1.7773v-1.7773c-0.35547 0.35547-0.35547 0-0.35547-0.71094zm-26.293 21.668c-3.1992 0-7.8203 1.7734-1.0664 0.35156 0.35547 0 0.71094-0.35156 1.0664-0.35156zm26.293-18.469c-0.35547 0.35547-0.71094 1.0664-0.71094 1.7734 0 0.35547 0.35547 0 0.71094-1.7734zm1.0664-2.8438c-0.35547-0.35547-0.71094-1.0625-1.0664-1.7734 0.35547-0.71094 0.35547-1.4219 0.71094-1.7773-0.35547 0.71094-0.35547 1.0664-0.71094 1.7773 0 0 0-0.35547-0.35547-0.35547v0.71094 0.35547c0.71094 0.35547 1.0664 0.70703 1.4219 1.0625z" fill="#ff94bb"/>
 <path d="m595.04 913.49c1.0664 26.281-22.387 45.816-46.902 46.883-25.938 1.0625-46.191-22.375-46.902-46.883-0.71094-20.598 0.35547-41.195 1.0664-62.148h-57.211c1.0664 20.242 2.4883 40.84 3.1992 61.086 1.0664 26.281-22.387 45.812-46.902 46.879-25.938 1.0664-46.191-22.375-46.902-46.879-1.4219-42.266-5.6875-83.816-2.4883-126.08 3.5547-50.074 12.082-112.23 52.59-147.39 25.582-22.375 57.207-30.188 90.605-24.508 28.426 4.6172 50.812 24.152 66.801 47.238 28.785 42.262 33.758 100.15 35.535 149.52 0.35547 34.094-3.5547 68.188-2.4883 102.28zm-189.39-257.13c-11.727 12.43-18.836 28.766-22.031 45.461-1.4219 7.1016 2.1328 14.559 9.2383 16.691 6.3945 1.7734 15.277-2.1328 16.699-9.2344 2.1328-12.074 6.3945-24.508 15.281-33.387 11.723-13.141-7.1094-31.961-19.188-19.531zm91.316 100.86c-0.35547-2.4844-1.0664-4.6172-1.4219-7.1016-2.1289-9.2344-4.9727-18.469-8.1719-27.348-0.71094-1.7773-1.7773-3.5508-2.4883-4.9727-1.0625-1.7773-2.1289-3.9062-3.1953-5.6836-1.0664-1.0664-3.1992-3.1953-4.6211-4.9727-0.35547-0.35547-0.71094-0.35547-1.0664-0.70703-0.35547 0-1.0664-0.35547-1.4219-0.35547h-3.1953c-0.71094 0.35547-1.4219 0.35547-2.1328 0.70703-0.35547 0.35547-0.71094 0.35547-1.0664 0.71094-0.71094 0.71094-1.4219 1.4219-2.1328 2.1328 0.35547-0.35547 0.71094-1.0664 0.71094-1.4219-0.35547 0.71094-0.71094 1.0664-1.0664 1.7773-0.35547 0.35547-0.35547 0.35547-0.71094 0.71094-3.1953 3.1953-2.1289 2.4844-0.35547 0.70703-0.35156 0.35547-0.35156 0.71094-0.70703 1.0664-2.1328 3.5508-3.9102 8.168-6.043 11.719 1.7773-3.5508 2.4883-7.457 0.35547-1.0625-0.35547 0.71094-0.35547 1.0625-0.71094 1.7734-0.35547 0.35547-0.35547 0.71094-0.71094 1.0664 0.35547-0.35547 0.35547-0.71094 0.71094-1.0664-0.71094 1.7773-1.0664 3.1992-1.7773 4.9727-2.8398 8.8789-4.9727 18.113-6.75 27.348z" fill="#ff94bb"/>
 <path d="m839.86 896.8c-32.336 57.891-102.34 69.965-162.38 57.535-1.4219 0.35547-2.8438 0.35547-4.6211 0.35547-25.582 1.0664-46.902-22.375-46.902-46.879 0-10.301 0-20.602-0.35547-30.898-0.35547-71.742-0.71094-143.48-1.4219-215.22 0-26.281 21.676-45.816 46.902-46.883 3.9102-0.35547 7.8164 0.35547 11.727 1.4219 54.012-5.6836 111.22 9.2344 145.68 53.629 27.004 35.16 25.582 78.488 6.0391 113.65 22.742 32.32 25.941 76.359 5.332 113.29zm-186.19-254.29c-14.566 15.629-18.121 37.648-15.633 58.246 1.0664 7.1016 5.6836 13.496 13.5 13.496 6.3984 0 14.215-6.3945 13.504-13.496-1.7773-13.141-1.7773-29.125 7.8164-39.422 11.371-12.43-7.4609-31.609-19.188-18.824zm106.24 200.3c0.35547 0 0.35547 0 0 0v-0.70703-0.35547-1.0664 0.35547-1.0664c0-0.35547-0.35547-0.71094-0.71094-1.0664 0-0.70703-0.35547-1.0625-0.35547-1.7734 0 0-0.35547-0.35547-0.35547-0.35547-0.35547-0.35547-0.71094-0.35547-0.71094-0.71094-0.71094-0.71094-1.418-1.4219-2.1289-2.1328-3.1992-1.7734-6.3984-3.9062-9.9492-5.6797-25.23-12.074-32.336-55.762-9.5938-73.871 3.1953-2.8438 6.75-5.3281 9.5938-8.5234 0.35547-0.35547 5.6836-6.3945 5.6836-6.0391 1.4219-2.4883 2.8438-4.9727 4.2656-7.457-2.8438 4.9688-1.7773 2.1289 0-1.4219 0-0.35547 0-0.71094 0.35547-1.4219 0-0.35547-0.35547-0.71094-0.35547-1.0664-0.35547-0.35156-0.35547-0.70703-0.71094-1.0625 0.35547 0.71094 0-0.35547-1.4219-2.1328 0-0.35547-0.35547-0.35547-0.35547-0.71094 0 0 0 0.35547 0.35547 0.35547-0.35547-0.35547-0.71094-1.0625-1.4219-1.7734-1.0664-1.4219-2.4883-2.4883-3.5547-3.5508-2.4844-1.4219-5.3281-3.1992-7.8164-4.6172-1.0664-0.35547-1.4219-1.0664-2.1328-1.4219-0.71094 0-1.4219-0.35547-2.4844-0.71094-4.2656-1.0664-8.5312-2.1289-12.793-3.5508-1.0664-0.35547-1.4219-0.35547-2.1328-0.71094h-0.71094-1.4219c0.35547 52.207 0.71094 104.06 1.0664 156.27 4.2656 0 10.305-1.418 14.57-1.0625 1.7773-0.35547 3.5508-0.71094 5.3281-1.4219 0.35547 0 2.1328-0.35547 3.9102-1.0664 0.35547-0.35547 1.0664-0.71094 1.4219-1.0625 1.4219-0.71094 2.8398-1.7773 4.6172-3.1992-0.71094 1.0664 0.71094 1.0664 3.1992-1.418l1.0664-1.0664c0.35547-0.35547 0.71094-0.35547 1.0664-0.35547-0.35547 0-0.71094 0.35547-1.0664 0.35547 0.71094-0.71094 1.7773-1.7773 2.4844-2.4883 0.35547-0.70703 0.71094-1.0625 1.0664-1.7734 0.35547-0.35547 0.71094-1.7773 1.4219-2.8438v-0.70703 0.35547c0.35547-0.71094 0.71094-1.4219 1.0664-1.7773v-1.7773c0 0.35547 0 0-0.35547-0.71094zm-25.938 21.668c-3.1992 0-7.8164 1.7734-1.0664 0.35156 0.35547 0 0.71094-0.35156 1.0664-0.35156zm26.293-18.469c-0.35547 0.35547-0.71094 1.0664-0.71094 1.7734 0 0.35547 0.35547 0 0.71094-1.7734zm1.0664-2.8438c-0.35547-0.35547-0.71094-1.0625-1.0664-1.7734 0.35547-0.71094 0.35547-1.4219 0.71094-1.7773-0.35547 0.71094-0.35547 1.0664-0.71094 1.7773 0 0 0-0.35547-0.35547-0.35547v0.71094 0.35547c0.71094 0.35547 1.0664 0.70703 1.4219 1.0625z" fill="#ff94bb"/>
 <path d="m1090 909.94c1.0664 25.57-22.383 46.883-46.902 46.883h-101.98c-2.1328 0-3.9102 0-6.043-0.35547-2.8438 0.70703-5.6836 1.0625-8.5273 1.0625-25.582 1.0664-46.902-22.375-46.902-46.879v-30.898c-0.35547-71.742-0.71094-143.48-1.0664-215.22 0-26.281 21.676-45.816 46.902-46.879 3.1992 0 6.043 0 8.8828 0.71094 2.1328-0.35547 3.9102-0.35547 6.043-0.35547h101.98c26.293 0 45.836 21.664 46.902 46.879 1.0664 25.57-22.383 46.879-46.902 46.879h-69.645c0 15.273 0 30.543 0.35547 45.816h52.234c26.293 0 45.836 21.664 46.902 46.879 1.0664 25.57-22.387 46.883-46.902 46.883h-51.523v11.363h69.289c26.293 0 45.836 21.664 46.902 47.234zm-171.62-276.66c-19.188 12.074-28.07 33.387-25.23 55.758 0.71094 7.1055 5.6875 13.496 13.504 13.496 6.75 0 14.215-6.0352 13.504-13.496-1.4219-12.43 0.35547-25.215 12.078-32.672 14.57-8.8789 1.0664-31.965-13.855-23.086z" fill="#ff94bb"/>
</svg>
