<?xml version="1.0" encoding="UTF-8"?>
<svg width="1587" height="1587" version="1.0" viewBox="0 0 1190.2 1190.2" xmlns="http://www.w3.org/2000/svg" zoomAndPan="magnify">
 <defs>
  <clipPath id="d">
   <path d="m0 0h1189.5v1189.5h-1189.5z"/>
  </clipPath>
  <clipPath id="b">
   <path d="m262 185.86h390v485.14h-390z"/>
  </clipPath>
  <clipPath id="c">
   <path d="m58 539h373v482.58h-373z"/>
  </clipPath>
  <clipPath id="a">
   <path d="m292 536h390v485.58h-390z"/>
  </clipPath>
 </defs>
 <g clip-path="url(#d)" fill="#fff">
  <path d="m0 0h1189.5v1189.5h-1189.5z"/>
  <path d="m0 0h1189.5v1189.5h-1189.5z"/>
 </g>
 <path d="m213.27 669.29c-6.0703 0-11.801-0.33594-17.871-1.3477-3.3711 0.33594-6.7461 0.67188-10.453 1.0117h-5.0586c-65.078 0-120.04-55.625-120.38-121.7l-1.3516-233.62c-0.33594-65.738 51.93-119.34 118.69-122.38h5.0586c65.078 0 120.04 55.625 120.38 121.7l0.67578 113.27c57.32 8.0898 102.17 56.973 104.86 117.32 1.3516 32.363-10.449 63.043-33.379 87.312-23.266 24.273-55.637 38.434-88.68 38.434z" fill="#fff"/>
 <g clip-path="url(#b)">
  <path d="m526.18 670.98c-25.289 0-49.23-8.4297-69.125-22.59-18.543 12.812-41.137 20.566-65.414 21.914h-5.0586c-64.066 0-118.02-53.602-120.38-119.34-0.33594-9.7773-1.0117-19.555-1.3477-29.668-1.6875-31.352-3.3711-63.715-1.0117-98.102 4.3828-62.707 16.859-141.25 76.203-192.84 33.047-29.328 73.508-44.5 117.34-44.5 10.449 0 21.242 1.0117 32.031 2.6992 44.848 7.418 85.309 35.059 114.64 77.199 37.426 54.953 44.844 120.35 47.207 183.06 0.67188 19.551 0 37.758-0.67578 55.289-0.67578 14.832-1.0117 28.992-0.67578 42.137 2.3633 65.738-50.914 121.7-118.69 124.74h-5.0586z" fill="#fff"/>
 </g>
 <path d="m648.91 665.92h-2.0195c-64.742 0-120.04-55.625-120.38-121.7l-1.6836-233.62c-0.33984-65.742 51.926-119.68 118.69-122.71h5.0586c6.7461 0 13.488 0.67578 19.895 1.6875 57.32 2.3594 110.6 23.262 150.72 60.008 66.426 60.344 90.367 164.85 58.672 254.19-35.066 98.441-124.42 162.16-227.6 162.16z" fill="#fff"/>
 <path d="m945.64 665.58c-64.402 0-119.7-55.625-120.38-121.36l-1.0117-95.742-49.566-52.594c-44.848-47.531-45.184-120.35-0.67578-168.9 22.254-24.27 54.289-38.094 88.344-38.094 32.035 0 62.719 12.137 84.973 34.051 22.59-22.25 52.262-34.387 84.297-34.387 31.359 0 61.707 11.801 84.973 33.039 23.602 21.574 36.754 51.242 37.762 83.941 1.0117 33.375-11.461 66.414-34.391 90.348l-51.254 53.266 1.0117 93.383c0.67578 66.074-51.254 120.02-118.69 123.05-1.6836-0.33984-3.707 0-5.3945 0z" fill="#fff"/>
 <g clip-path="url(#c)">
  <path d="m226.08 1021.6c-14.836 0-30.012-1.3516-44.848-3.7109h-1.3477c-65.078 0-120.04-55.625-120.38-121.7l-1.3516-233.96c-0.33594-65.738 51.93-119.68 118.69-122.71h5.0586c4.3828 0 8.4297 0.33984 12.812 0.67578 5.7344-0.33594 11.465-0.67578 17.195-0.67578 73.508 0 138.92 30.004 179.05 82.258 34.059 43.828 43.836 99.113 29 152.04 17.535 48.207 13.488 102.48-12.141 149.01-35.066 62.703-101.16 98.777-181.74 98.777z" fill="#fff"/>
 </g>
 <g clip-path="url(#a)">
  <path d="m486.73 1021.6c-110.93 0-194.55-104.17-194.55-242.39s83.621-242.39 194.55-242.39c110.94 0 194.56 104.17 194.56 242.39 0.33984 138.55-83.285 242.39-194.56 242.39z" fill="#fff"/>
 </g>
 <path d="m726.47 1019.2c-62.379 0-120.71-33.375-163.88-94.059-18.207-25.285-24.613-56.637-18.879-88.324 3.3711-16.859 10.113-32.703 19.555-47.199-15.848-33.711-19.895-72.145-11.465-110.24 10.453-47.535 39.789-89.336 80.25-114.62 26.301-16.52 56.648-24.945 88.344-24.945 50.578 0 100.48 22.586 133.19 60.344 34.73 39.781 40.801 93.719 18.543 137.88 38.441 51.242 45.523 121.7 16.523 182.04-27.648 56.977-88.004 96.082-154.09 99.117h-8.0938z" fill="#fff"/>
 <path d="m949.69 1019.2c-62.379 0-120.71-33.375-163.88-94.059-18.207-25.285-24.613-56.637-18.543-88.324 3.3711-16.859 10.113-32.703 19.555-47.199-15.848-33.711-19.891-72.145-11.461-110.24 10.449-47.535 39.785-89.336 80.25-114.62 26.301-16.52 56.648-24.945 88.344-24.945 50.578 0 100.48 22.586 133.19 60.344 34.73 39.781 40.801 93.719 18.547 137.88 38.438 51.242 45.52 121.7 16.52 182.04-27.648 56.977-88.004 96.082-154.09 99.117h-8.4297z" fill="#fff"/>
 <path d="m330.27 540.51c1.0117 24.273-21.242 44.5-44.508 44.5h-72.496c-6.0703 0-11.801-1.3477-16.859-3.3711-4.7227 1.6875-9.7812 2.6992-14.836 3.0352-24.277 1.0117-44.512-21.238-44.512-44.5v-29.328c-0.67188-68.102-1.0117-136.2-1.3477-204.3 0-24.945 20.57-43.488 44.508-44.5 24.277-1.0117 44.512 21.238 44.512 44.5v29.328l0.67188 160.13h59.684c25.625-0.33594 44.172 20.227 45.184 44.5zm-142.63-259.92c-3.707-6.4062-11.125-7.418-17.531-4.7227-17.199 7.418-23.605 25.285-21.242 43.152 1.0117 6.7422 9.7773 10.453 15.848 8.7656 7.418-2.0234 9.7773-8.7656 8.7656-15.844-1.0117-7.082 3.0352-11.465 9.4414-14.16 6.4062-2.3594 7.7539-11.461 4.7188-17.191z" fill="#ff77b9"/>
 <path d="m572.71 542.2c1.0117 24.945-21.242 43.488-44.508 44.5-24.617 1.0117-43.836-21.238-44.508-44.5-0.67578-19.555 0.33594-39.105 1.0117-58.996h-54.289c1.0117 19.215 2.3594 38.77 3.0352 57.984 1.0117 24.945-21.242 43.488-44.508 44.5-24.617 1.0117-43.836-21.238-44.512-44.5-1.3477-40.117-5.3945-79.562-2.3594-119.68 3.3711-47.531 11.465-106.53 49.902-139.9 24.281-21.242 54.289-28.656 85.984-23.262 26.977 4.3828 48.219 22.922 63.391 44.836 27.312 40.117 32.035 95.066 33.719 141.93 0 32.367-3.707 64.73-2.3594 97.094zm-180.06-244.08c-11.125 11.801-17.871 27.309-20.906 43.152-1.3477 6.7422 2.0234 13.824 8.7695 15.844 6.0664 1.6875 14.496-2.0195 15.848-8.7617 2.0234-11.465 6.0664-23.262 14.496-31.691 11.129-12.473-6.7422-30.68-18.207-18.543zm86.996 95.742c-0.33984-2.3594-1.0117-4.3828-1.3516-6.7422-2.0234-8.7656-4.7188-17.527-7.7539-25.957-0.67578-1.6836-1.6875-3.3711-2.3594-4.7188-1.0117-1.6875-2.0234-3.3711-3.0352-5.3945-1.0117-1.0117-3.0352-3.0352-4.3828-4.7188-0.33984-0.33984-0.67578-0.33984-1.0117-0.67578-0.33984 0-1.0117-0.33594-1.3477-0.33594h-3.0352c-0.67578 0.33594-1.3516 0.33594-2.0234 0.67188-0.33984 0.33984-0.67578 0.33984-1.0117 0.67578-0.67578 0.67578-1.3516 1.3477-2.0234 2.0234 0.33594-0.33594 0.67188-1.0117 0.67188-1.3477-0.33594 0.67188-0.67188 1.0117-1.0078 1.6836-0.33984 0.33594-0.33984 0.33594-0.67578 0.67578-3.0352 3.0312-2.0234 2.3594-0.33594 0.67188-0.33984 0.33984-0.33984 0.67578-0.67578 1.0117-2.0234 3.3711-3.7109 7.7539-5.7344 11.125 1.6875-3.3711 2.3633-7.0781 0.33984-1.0117-0.33984 0.67578-0.33984 1.0117-0.67578 1.6875-0.33594 0.33594-0.33594 0.67188-0.67188 1.0117 0.33594-0.33984 0.33594-0.67578 0.67188-1.0117-0.67188 1.6836-1.0117 3.0352-1.6836 4.7188-2.6992 8.4297-4.7227 17.195-6.4102 25.957z" fill="#ff77b9"/>
 <path d="m805.37 471.06c-23.941 67.422-83.621 111.25-155.78 110.57h-1.3477c-23.941 1.0117-44.172-21.238-44.508-44.5 0-9.7773 0-19.551-0.33984-29.328-0.33594-68.098-0.67188-136.2-1.3477-204.3 0-24.945 20.566-43.488 44.508-44.5 4.3828-0.33594 8.4297 0.33984 12.477 1.6875 39.789 0.33594 78.227 12.809 107.9 39.777 46.191 41.129 58.668 113.61 38.438 170.59zm-173.99-192.84c-15.848 14.5-17.199 35.398-14.836 55.289 0.67188 6.7422 5.3945 12.812 12.812 12.812 6.4062 0 13.488-6.0703 12.812-12.812-1.6875-13.148-3.3711-27.645 7.418-37.418 12.141-11.125-6.0703-28.996-18.207-17.871zm93.738 137.88c0-4.7188-0.67578-9.7734-0.67578-14.832-0.33594-2.3594-1.0117-4.7188-1.6836-7.0781-0.67578-3.0352-1.6875-5.7305-2.6992-8.7656-2.0234-3.707-3.7109-7.7539-6.0703-11.125l-0.33594-0.33594c0.33594-0.33984 0-1.0117-1.0117-2.0234-0.67578-0.67578-1.6875-1.6875-2.3594-2.6992-0.33984-0.67188-0.67578-1.0117-0.67578-1.6836 0 0.33594 0.33594 0.67188 0.33594 1.3477-3.3711-3.3711-7.418-6.4062-10.453-9.7773 0.67578 0.67578 1.0117 1.3477 1.6875 1.6875-0.67578-0.67578-1.3477-1.0117-2.0234-1.6875-2.0234-1.3477-4.0469-2.3594-6.4062-3.707 0 0 0.33594 0 0.33594-0.33594 0 0-0.33594 0-1.0117-0.33984 0 0 0.33984 0 0.33984 0.33984h0.33594-0.67578c0.33984 41.801 0.33984 83.266 0.67578 125.07 1.3477-1.0117 2.6992-1.6836 4.0469-2.6953 0.67578-0.67578 1.3477-1.3516 2.0234-2.0234 3.707-3.3711 6.7422-8.4297 10.789-11.465 1.3477-1.6836 2.3594-3.707 3.3711-5.3906 1.3516-2.3594 2.6992-5.0586 4.0469-7.418 0 0.33594 0 1.0117-0.33594 1.3477 0-0.33594 0-0.67188 0.33594-1.3477 0-0.33594 0.33594-0.67578 0.33594-0.67578 3.375-7.0781 0.33984-3.3711-0.33594 0.67578 0.67578-4.3828 3.7109-9.4414 5.0586-13.484 0.67578-3.0352 1.6875-6.0703 2.0234-9.1016 0-0.67578 0.33594-1.6875 0.33594-3.0352 0-1.3477 0.33984-2.3594 0.33984-2.6953 0.33594-1.6875 0.33594-4.3828 0.33594-6.7461z" fill="#ff77b9"/>
 <path d="m1064 335.2c-24.617 25.621-49.23 51.242-74.184 76.863 0.33984 2.3594 0.67578 5.0547 0.67578 7.4141 0.33594 39.109 1.0117 77.875 1.3477 116.98 0.33594 24.945-20.566 43.488-44.508 44.5-24.277 1.0117-44.508-21.238-44.508-44.5-0.33984-39.109-1.0117-77.875-1.3516-116.98 0-2.6953 0.33984-5.7305 0.67578-8.4258-23.602-25.285-47.543-50.23-71.148-75.516-17.195-18.203-16.859-44.836 0-63.043 15.848-17.527 47.207-16.855 63.055 0 17.535 18.543 35.07 37.086 52.602 55.625l54.289-56.297c17.195-17.867 45.52-16.184 63.055 0 17.871 16.855 16.184 46.523 0 63.379zm-219.18-59.336c-10.449 10.789-12.473 24.273-9.7773 38.77 1.3477 6.7422 9.4414 10.453 15.848 8.7656 7.082-2.0234 10.117-8.7656 8.7695-15.844-0.67578-3.0352-0.67578-5.7305 0-8.0898 0.67188-2.3633 1.6836-4.3828 3.3711-6.0703 11.125-11.461-6.7461-29.328-18.211-17.531z" fill="#ff77b9"/>
 <path d="m340.05 878.3c-30.684 54.949-97.109 66.414-154.09 54.613-1.3516 0.33594-2.6992 0.33594-4.3828 0.33594-24.277 1.0117-44.512-21.238-44.512-44.5 0-9.7773 0-19.551-0.33594-29.328-0.33594-68.098-0.67578-136.2-1.3477-204.3 0-24.945 20.566-43.488 44.508-44.5 3.7109-0.33594 7.418 0.33984 11.129 1.3516 51.25-5.3945 105.54 8.7617 138.25 50.902 25.625 33.375 24.277 74.168 5.7305 107.88 21.582 30.68 24.617 72.48 5.0586 107.54zm-176.69-241.38c-13.824 14.832-17.195 35.734-14.836 55.289 1.0117 6.7422 5.3945 12.809 12.812 12.809 6.0703 0 13.488-6.0664 12.816-12.809-1.6875-12.477-1.6875-27.645 7.418-37.422 10.789-12.137-7.082-30.004-18.211-17.867zm101.16 190.14v-0.67578-0.33594-1.0117 0.33594-1.0117c0-0.33594-0.33594-0.67188-0.67188-1.0117 0-0.67187-0.33984-1.0078-0.33984-1.6836 0 0-0.33594-0.33594-0.33594-0.33594-0.33594-0.33984-0.67578-0.33984-0.67578-0.67578-0.67188-0.67578-1.3477-1.3477-2.0195-2.0234-3.0352-1.6836-6.0703-3.707-9.4414-5.3945-23.941-11.461-30.688-52.926-9.1055-70.121 3.0352-2.6953 6.4062-5.0547 9.1055-8.0898 0.33594-0.33594 5.3945-6.0664 5.3945-5.7305 1.3477-2.3594 2.6953-4.7188 4.0469-7.0781-2.6992 4.7188-1.6875 2.0195 0-1.3516 0-0.33594 0-0.67188 0.33594-1.3477 0-0.33594-0.33594-0.67188-0.33594-1.0117-0.33984-0.33594-0.33984-0.67187-0.67578-1.0117 0.33594 0.67578 0-0.33594-1.3477-2.0234 0-0.33594-0.33984-0.33594-0.33984-0.67188 0 0 0 0.33594 0.33984 0.33594-0.33984-0.33594-0.67578-1.0117-1.3516-1.6836-1.0117-1.3516-2.3594-2.3594-3.3711-3.3711-2.3594-1.3516-5.0586-3.0352-7.418-4.3828-1.0117-0.33984-1.3477-1.0117-2.0234-1.3477-0.67187 0-1.3477-0.33984-2.3594-0.67578-4.0469-1.0117-8.0938-2.0234-12.141-3.3711-1.0117-0.33594-1.3477-0.33594-2.0234-0.67578h-0.67188-1.3477c0.33594 49.559 0.67188 98.777 1.0117 148.34 4.043 0 9.7773-1.3516 13.824-1.0117 1.6836-0.33984 3.3711-0.67578 5.0547-1.3516 0.33984 0 2.0234-0.33594 3.7109-1.0078 0.33594-0.33984 1.0117-0.67578 1.3477-1.0117 1.3516-0.67578 2.6992-1.6875 4.3828-3.0352-0.67188 1.0117 0.67578 1.0117 3.0352-1.3477l1.0117-1.0117c0.33984-0.33594 0.67578-0.33594 1.0117-0.33594-0.33594 0-0.67188 0.33594-1.0117 0.33594 0.67578-0.67578 1.6875-1.6875 2.3633-2.3594 0.33594-0.67578 0.67188-1.0117 1.0078-1.6875 0.33984-0.33594 0.67578-1.6836 1.3516-2.6953v-0.67578 0.33594c0.33594-0.67188 0.67188-1.3477 1.0117-1.6836v-1.6875c-0.33984 0.33984-0.33984-0.33594-0.33984-0.67188zm-24.949 20.562c-3.0352 0-7.418 1.6875-1.0117 0.33984 0.33594-0.33984 0.67188-0.33984 1.0117-0.33984zm24.949-17.527c-0.33594 0.33594-0.67188 1.0078-0.67188 1.6836 0 0.33594 0.33594-0.33594 0.67188-1.6836zm1.0117-2.6992c-0.33594-0.33594-0.67188-1.0117-1.0117-1.6836 0.33984-0.67578 0.33984-1.3516 0.67578-1.6875-0.33594 0.67578-0.33594 1.0117-0.67578 1.6875 0 0 0-0.33984-0.33594-0.33984v0.67578 0.33594c0.67578 0 1.0117 0.33984 1.3477 1.0117z" fill="#cc1802"/>
 <path d="m604.07 772.79c0 94.059-50.242 164.85-117 164.85-66.766 0-117-70.793-117-164.85s50.238-164.85 117-164.85c66.762 0 117 70.793 117 164.85zm-163.88-133.5c-15.508 8.0898-26.973 23.598-30.008 40.793-1.3516 6.7422 2.0234 13.82 8.7656 15.844 6.0703 1.6836 14.5-2.0234 15.848-8.7656 2.0234-11.125 8.0938-19.891 18.547-25.285 14.16-8.4258 1.3477-30.34-13.152-22.586zm61.707 133.5c0-30.34-8.7656-50.23-15.176-58.996-6.4062 8.7656-15.172 28.656-15.172 58.996s8.7656 50.23 15.172 58.996c6.4102-8.7656 15.176-28.656 15.176-58.996z" fill="#cc1802"/>
 <path d="m818.52 879.65c-15.852 33.039-51.93 53.602-87.672 55.289-44.844 2.0234-80.586-26.969-105.2-61.355-14.496-20.23-2.6953-48.883 16.188-61.02 21.578-13.824 47.543-3.0352 61.031 16.18 0.67187 0.67578 1.0117 1.3516 1.3477 2.0234 0.33594 0.33594 0.67578 1.0117 1.3477 1.3477 1.3516 1.3516 2.3594 2.6992 3.7109 4.0469 1.6836 1.6875 3.3711 3.0352 5.0586 4.7188 1.3477 1.0117 3.0312 1.6875 4.7188 2.6992 2.0234 0.67188 4.7227 1.6836 6.7422 2.3594h3.7109 0.33594c0.33984 0 1.0117-0.33984 2.3633-0.67578 1.3477-1.0117 3.3711-2.3594 5.0547-3.3711 0.33984-0.33594 1.0117-1.0117 1.3516-1.3477l0.33594-0.33594c0-0.33984 0.33594-0.67578 0.33594-1.0117 0.33984-1.0117 0.67578-1.6875 1.0117-2.0234v-0.33594s-0.33594 0.33594-0.33594 0.67188c0-0.33594 0.33594-1.0117 0.33594-1.3477v-0.67578c0-0.33594-0.33594-1.0117-0.33594-1.3477-0.67578-1.0117-1.0117-2.0234-1.6875-3.0352-0.33594 0-0.33594-0.33594-0.67188-0.33594-1.3516-1.0117-2.6992-1.6836-4.3828-2.3594-4.0469-2.0234-8.0938-4.0469-12.141-6.0664-8.4297-4.0469-17.195-7.7539-25.625-12.477-21.918-11.797-42.148-27.641-55.977-48.543-29.672-45.848-11.125-108.89 33.719-136.87 38.777-24.273 92.055-13.484 121.73 20.562 16.523 18.879 17.195 44.164 0 63.043-15.512 16.855-47.879 17.867-63.055 0-0.33594-0.33594-2.3594-3.0352-4.0469-5.0586-0.33594 0-0.67188-0.33594-1.0117-0.33594-0.33594 0-1.3477-0.67578-2.3594-1.3477h0.67578c0.33594 0.33594 1.0117 0.67188 2.0234 1.3477-0.33984-0.33594-1.0117-1.0117-1.3516-1.0117 0.67578 0 0.67578 0-0.33594-0.33594-0.33594 0-0.67188 0-1.3477-0.33984-0.67578-0.33594-1.3477-0.67187-1.6875-1.0078-0.33594 0-0.67188 0-1.0117 0.33594h0.33984-0.33984-0.33594c-0.33594 0-0.67578 0-1.0117 0.33594-0.67578 0.33594-1.0117 0.67578-1.6875 1.0117l-0.33594 0.33594c-0.33594 0.33984-0.67578 1.0117-1.0117 1.3516-0.33594 0.67188-0.67578 1.3477-1.0117 2.0195-0.33594 0.67578-0.67188 1.0117-0.67188 1.3516-0.33984 1.0117-0.33984 1.6836-0.67578 2.6953v1.3477 0.67578c0 0.67187 0.33594 1.0117 0.33594 1.3477 0.33984 0.67578 2.0234 2.6992 2.6992 3.707 1.0117 1.0117 2.0234 2.0234 2.3594 2.3633 1.3477 1.3477 3.0352 2.6953 4.3828 4.043-6.0703-5.3945 5.3945 3.3711 7.418 4.7188 4.0469 2.3633 8.4297 4.7227 12.477 6.7422 19.559 10.117 40.461 17.195 56.648 33.039 30.008 30.004 35.742 74.84 17.535 112.26zm-141.29-244.75c-12.812 7.7539-24.613 18.879-27.984 34.051-1.6875 6.7422 2.0234 13.82 8.7656 15.844 6.4062 1.6836 14.164-2.0234 15.848-8.7656 1.0117-4.0469 2.3594-7.0781 5.0586-9.7773 3.3711-3.707 7.082-6.4023 11.129-9.1016 13.824-8.7656 1.0078-31.016-12.816-22.25z" fill="#cc1802"/>
 <path d="m1041.7 879.65c-15.852 33.039-51.93 53.602-87.672 55.289-44.844 2.0234-80.586-26.969-105.2-61.355-14.496-20.23-2.6953-48.883 16.188-61.02 21.578-13.824 47.543-3.0352 61.031 16.18 0.67187 0.67578 1.0117 1.3516 1.3477 2.0234 0.33594 0.33594 0.67578 1.0117 1.3477 1.3477 1.3516 1.3516 2.3594 2.6992 3.7109 4.0469 1.6836 1.6875 3.3711 3.0352 5.0586 4.7188 1.3477 1.0117 3.0312 1.6875 4.7188 2.6992 2.0234 0.67188 4.7227 1.6836 6.7422 2.3594h3.7109 0.33594c0.33984 0 1.0117-0.33984 2.3633-0.67578 1.3477-1.0117 3.3711-2.3594 5.0547-3.3711 0.33984-0.33594 1.0117-1.0117 1.3516-1.3477l0.33594-0.33594c0-0.33984 0.33594-0.67578 0.33594-1.0117 0.33984-1.0117 0.67578-1.6875 1.0117-2.0234v-0.33594s-0.33594 0.33594-0.33594 0.67188c0-0.33594 0.33594-1.0117 0.33594-1.3477v-0.67578c0-0.33594-0.33594-1.0117-0.33594-1.3477-0.67578-1.0117-1.0117-2.0234-1.6875-3.0352-0.33594 0-0.33594-0.33594-0.67188-0.33594-1.3516-1.0117-2.6992-1.6836-4.3828-2.3594-4.0469-2.0234-8.0938-4.0469-12.141-6.0664-8.4297-4.0469-17.195-7.7539-25.625-12.477-21.918-11.797-42.148-27.641-55.977-48.543-29.672-45.848-11.125-108.89 33.723-136.87 38.773-24.273 92.051-13.484 121.72 20.562 16.523 18.879 17.195 44.164 0 63.043-15.512 16.855-47.879 17.867-63.055 0-0.33594-0.33594-2.3594-3.0352-4.0469-5.0586-0.33594 0-0.67188-0.33594-1.0117-0.33594-0.33594 0-1.3477-0.67578-2.3594-1.3477h0.67578c0.33594 0.33594 1.0117 0.67188 2.0234 1.3477-0.33984-0.33594-1.0117-1.0117-1.3516-1.0117 0.67578 0 0.67578 0-0.33594-0.33594-0.33594 0-0.67578 0-1.3477-0.33984-0.67578-0.33594-1.3477-0.67187-1.6875-1.0078-0.33594 0-0.67188 0-1.0117 0.33594h0.33984-0.33984-0.33594c-0.33594 0-0.67578 0-1.0117 0.33594-0.67578 0.33594-1.0117 0.67578-1.6875 1.0117l-0.33594 0.33594c-0.33594 0.33984-0.67578 1.0117-1.0117 1.3516-0.33594 0.67188-0.67578 1.3477-1.0117 2.0195-0.33594 0.67578-0.67188 1.0117-0.67188 1.3516-0.33984 1.0117-0.33984 1.6836-0.67578 2.6953v1.3477 0.67578c0 0.67187 0.33594 1.0117 0.33594 1.3477 0.33984 0.67578 2.0234 2.6992 2.6992 3.707 1.0117 1.0117 2.0234 2.0234 2.3594 2.3633 1.3477 1.3477 3.0352 2.6953 4.3828 4.043-6.0703-5.3945 5.3945 3.3711 7.418 4.7188 4.0469 2.3633 8.4297 4.7227 12.477 6.7422 19.559 10.117 40.465 17.195 56.648 33.039 30.008 30.004 35.742 74.84 17.535 112.26zm-141.29-244.75c-12.812 7.7539-24.613 18.879-27.984 34.051-1.6875 6.7422 2.0234 13.82 8.7656 15.844 6.4062 1.6836 14.164-2.0234 15.848-8.7656 1.0117-4.0469 2.3594-7.0781 5.0586-9.7773 3.3711-3.707 7.082-6.4023 11.129-9.1016 13.824-8.7656 1.0078-31.016-12.816-22.25z" fill="#cc1802"/>
</svg>
