<?xml version="1.0" encoding="UTF-8"?>
<svg width="1587" height="1587" version="1.0" viewBox="0 0 1190.2 1190.2" xmlns="http://www.w3.org/2000/svg" zoomAndPan="magnify">
 <defs>
  <clipPath id="a">
   <path d="m0 0h1189.5v1189.5h-1189.5z"/>
  </clipPath>
  <clipPath id="b">
   <path d="m189.74 41h807.99v1110.8h-807.99z"/>
  </clipPath>
 </defs>
 <g clip-path="url(#a)" fill="#fff">
  <path d="m0 0h1189.5v1189.5h-1189.5z"/>
  <path d="m0 0h1189.5v1189.5h-1189.5z"/>
 </g>
 <g clip-path="url(#b)">
  <path d="m229.79 108.79c-0.89062-6.832-3.7227-16.996-8.4453-29.996-2.4414-6.832-3.6641-11.887-3.6094-15.332 0.054687-9.9453 7-16.555 20.887-20.387 4.9961-1.2773 10.273-1.9453 15.883-1.9453 16.441-0.054687 27.551 4.7227 33.273 14.5 1.9961 3.332 2.9961 6.9414 2.9961 10.832 0 3.8867-1.9961 11.441-5.9414 22.387-3.6094 9.8867-5.9414 18.332-6.8867 25.555-1.4453 10.387-2.2227 24.164-2.332 41.441-0.11328 27.051 1.332 54.773 4.4961 83.383 0.27734 2.1641 2.8906 11.609 7.832 28.273 5.5547 18.609 8.2773 33.223 8.2227 43.832-0.44531 24.277-14.719 34.496-42.824 23.832-28.273-11.891-42.379-32.941-42.379-54.996 0.054687-10.445 3.9961-24.109 11.773-42.941 3-7.7227 4.7773-13.109 5.2773-15.891 2.7773-19.551 4.2188-41.496 4.3867-65.383 0-18.109-0.83203-33.941-2.6094-47.164zm39.27-53.438c-3.4453 0.21875-5.2227 2.0547-5.3906 5.4961 0 3.5 1.7773 6.0586 5.332 7.8359 1.0586 0.60938 2.1133 0.88672 3 0.94141 3.2773-0.10938 5-2 5.168-5.5 0-3.832-1.7773-6.5547-5.332-8.2773-0.94531-0.33203-1.8359-0.49609-2.7773-0.49609zm55.652 187.32c3.5547-25.219 5.332-49.551 5.4453-72.66 0.054688-16.5-1.0547-34.055-3.2773-52.551-0.89062-7-3.7227-18-8.5-33.055-2.4414-8.2227-3.6641-14.387-3.6641-18.609 0.054687-10.387 6.7773-17.719 20.16-21.996 5.1133-1.7227 10.664-2.5586 16.555-2.5586 19.551 0.27734 31.66 8.9453 36.27 25.777 0.44531 1.4453 1.832 10.109 4.1094 25.941 9.4414 63.051 15.996 92.828 19.551 92.996 2-0.16797 3.2227-7.8359 3.5547-23.223v-0.83203c0.054688-20.055-0.55469-34.719-1.7227-43.832-0.88672-7.5-3.7773-18.496-8.5508-33.387-2.6133-8.1094-3.9453-14.387-3.8906-18.609 0.058594-10.777 6.7227-18.277 20.109-22.273 5.2734-1.7227 10.719-2.5586 16.328-2.5586 16.164 0 27.273 4.6133 33.328 13.445 1.832 3.2227 2.8867 6.6094 2.9961 10.109 0 4.332-2.0547 12.332-6.1094 24.109-3.2773 10.168-5.3867 18.777-6.332 25.832-1.4414 11.164-2.1641 24.941-2.1641 41.273-0.058594 32.887 1.5547 63.164 4.9414 90.66 1.832 14.5 5.9453 30.945 12.277 48.887 2.9414 8.2773 4.4414 14.445 4.3867 18.723 0 13.273-10.164 24.164-30.492 31.441-4.3906 1.3867-8.8867 2.5-13.609 3.332-24.051 3.9453-36.102-4-36.215-21.164 0.054688-22-3.2227-51.941-9.7734-91.051-5.9453-35.164-10.887-53.273-14.777-53.164-1.5547 0.55859-2.332 6.1133-2.3867 16.555-0.054687 13.168 0.72266 31.055 2.3867 53.387 1.168 15.609 4.1094 34.941 8.7227 57.719 1.5547 7.6094 2.2773 13.441 2.2773 17.664-0.39062 17.445-12.5 27.5-36.383 26.664-28.438-1.6641-42.656-17.555-42.656-42.051 0.054687-9.8867 2.6641-22.109 7.8867-37.055 4.832-13.777 7.9414-25.164 9.2188-33.887zm423.63 18.332c-24.051 4.3359-36.16 0.72266-36.328-12.996 0-3.1133 1.5547-11.113 4.6094-23.777 2.9453-12.609 5-24.664 6.2227-36.273 1.9453-20.113 2.9453-33 2.9453-39.277-0.058594-11.5-0.89062-17.219-2.6133-17.219-4.2188 0.5-9.4414 15.887-15.773 47.996-5.832 30.496-8.7773 54.883-8.7188 71.715 0 7.9453-2.6133 13.445-7.9453 16.555-0.94141 0.44531-1.8867 0.83594-2.832 1.0547-5.1641 1.3906-8.4961-0.71875-10.109-6.4414-0.44141-1.7773-0.72266-3.6133-0.72266-5.5547-0.054687-18.723-3.4414-43.5-10.164-74.941-6.1094-27.609-11.105-41.328-14.996-40.719-1.5547 0.66797-2.332 7.168-2.332 19.555 0 10.277 0.89062 24.164 2.6094 41.551 1.2773 12.168 4.2227 27.055 8.9453 44.5 1.5547 5.832 2.332 10.441 2.332 13.887-0.27734 14.5-12.387 25.277-36.27 33.164-28.441 9.2227-42.715 2.9453-42.824-19.164 0-8.7773 2.5547-20.832 7.7188-35.832 4.832-13.723 7.8867-24.387 9.1094-32.164 2.9453-19.609 4.4453-41.496 4.4453-65.887v-5.7773c0-11.996-0.94531-22.773-2.8359-32.605-0.94141-4.668-3.7188-13-8.3867-25.332-2.6641-6.7227-3.9414-12-3.9414-15.723 0-8.5547 6.6641-14.719 20.051-18.109 5.1094-1.332 10.664-2 16.551-2 19.551 0.27734 31.715 6.5 36.383 18.387 4.0547 10.555 9.2734 29.164 15.719 55.441 3.7773 14.609 6.832 21.887 9.1641 22 2.9453-0.39062 5.8867-8 8.832-22.445 5.1094-24.164 8.1641-37.605 9.2188-41.496 1.5547-5.6641 3.168-10.609 4.832-14.832 4.7773-11.555 16.996-17.109 36.547-17.055 16.164 0 27.273 2.8906 33.383 8.668 1.8906 2.1094 2.8906 4.2773 3.0547 6.5547 0 2.832-2 8-5.9961 15.777-3.3906 6.6641-5.5547 12.441-6.4453 17.219-1.5 8.3906-2.2773 17.777-2.2227 28.164 0.72266 25.164 2.1133 44.441 4.2227 57.051 1.1094 6.4453 4.4453 15.223 9.9414 26.609 4.7227 9.668 7.1094 18.113 7.1094 25.168-0.22266 18.941-14.387 29.387-42.488 34.605zm-111.92-202.82c0.77734 3 3.0547 4.6094 6.7773 4.8867 4.0547-0.77734 6.3867-2.5547 6.9961-5.2773 0-2.5-1.6094-4.2227-4.8867-5.2227-0.77734-0.16406-1.5-0.27734-2.1094-0.27734-3.5547 0.058594-5.7773 1.6133-6.5 4.6133-0.16797 0.60938-0.27734 1.0547-0.27734 1.2773zm121.7-2.832c0.94531 2.332 3.2773 3.7188 7 4.1641 4.0547-0.44531 6.2773-1.8867 6.7188-4.3867 0-2.1133-1.5547-3.6133-4.6641-4.4453-0.77734-0.16797-1.5-0.27734-2.1094-0.22266-3.7227 0.054687-6 1.2773-6.7227 3.832-0.10938 0.5-0.22266 0.89062-0.22266 1.0586zm132.2 1.5547c4.4414-7.668 13.996-12.609 28.547-14.891 3.1133-0.38672 6.1094-0.55469 9.1094-0.55469 13.219 0 20.551 3.2227 21.996 9.7773 0.16797 0.61328 0.22266 1.2227 0.22266 1.832-0.16797 1.8359-0.61328 3.7773-1.332 5.7773-1.5586 3.168-6.6094 9.168-15.277 17.391-6.6094 6.6094-11.773 12.219-15.496 17.055-6.7773 8.9961-10.332 13.609-10.609 14.164-3.0547 4.832-5.4414 9.6094-7.1094 14.387-2.7188 8.2773-4.0547 18.555-3.9961 31.109 0.054687 9.668 0.83203 19 2.2773 28.109 0.33203 1.668 2.9961 8.7227 8.0508 21.887 5.7227 14.723 8.6094 26.609 8.6094 35-0.16406 19.719-14.328 24.109-42.434 19.551-28.438-4.4414-42.77-13.273-42.992-32.164-0.054687-8.6094 3.7227-21.609 11.277-38.496 3.0547-7.1094 4.832-11.777 5.2773-14.055 1.0547-7.332 1.5547-13.223 1.5547-17.719-0.22266-12.555-3.2773-25.109-9.1094-37.445-6.2773-12.887-11.555-22.328-15.773-28.773-3.2773-4.6094-9.7227-11.723-19.219-21.109-5-5.0547-8.2227-8.8906-9.6094-11.5-0.61328-1.2227-0.94531-2.4453-0.94531-3.668-0.054687-5.9414 7.1094-9.5547 21.383-10.941 2.668-0.16797 5.4453-0.27734 8.3906-0.27734 16.938 0 30.547 2.6094 40.824 8.1641 3.8867 2.1133 6.5508 4.4453 7.9961 7 1.2773 3.0547 1.8906 6.332 1.9453 9.9453 0 0.88672 0 2.332 0.054687 4.332-0.16797 2.168-0.22266 3.7773-0.22266 4.832 0.054687 5.3906 0.61328 10.055 1.7227 13.945 2.3867 9.0547 4.2773 13.719 5.6641 13.832 1.7227 0.10938 3-4.168 3.8906-12.777v-0.55469c0.27734-2.9453 0.55469-6.7773 0.83203-11.5 0.72266-10.387 2.2227-17.555 4.5-21.664zm-36.328 0.22266c-4.1641 0.5-6.6094 1.9414-7.2188 4.3867 0 2.2773 1.7227 3.7227 5.1641 4.2773 0.77734 0.16797 1.3906 0.27734 1.8906 0.27734 3.8867-0.44531 6.1094-2 6.7188-4.6641-0.83203-2.5-3-3.8906-6.5547-4.2773zm67.32-1.1133c0.77734 2.8906 3.0547 4.6133 6.7773 5.168 4.0547-0.39062 6.332-1.8906 6.9414-4.3906 0-2.7773-1.7227-4.5-5.1641-5.1641-0.77734-0.22266-1.3906-0.33594-1.8906-0.33594-3.7773 0.5-6.0547 2.1133-6.6641 4.7227zm-685.18 462.63c4.7188-16.887 7.1641-36.273 7.2734-57.773 0.11328-14.555-1.332-29.941-4.2188-45.941-1.332-7.2188-5.5547-18.887-12.609-35.219-3.6094-8.6094-5.4414-14.555-5.4414-17.887 0.054688-9.8867 10.328-9.8867 30.77-4.7773 7.332 1.8867 15.164 4.1641 23.438 6.832 19.164 6.168 38.383 10 57.543 11.887 32.605 3.1133 60.434 16.832 83.594 44.164 21.273 24.887 33.383 54.055 36.328 90.273 0.44141 4.9414 0.66406 9.7188 0.66406 14.277-0.10938 40.164-12.828 74.438-38.27 99.879-21.051 20.5-48.656 32.387-82.812 28.164-19.496-2.4961-38.992-7.5547-58.488-15.773-41.77-18.445-62.711-49.941-62.766-71.273 0.054688-8.7773 3.9453-16.832 11.664-25.055 7-7.6641 11.441-15.164 13.332-21.777zm71.148-33.387c0 5.2773-0.054687 10.555-0.054687 15.832-0.16406 34.109 5.9453 54.777 18.387 61.387 2.2773 1.0547 4.6094 1.7773 6.8867 2.0547 18.219 2.2227 29.77-9.1094 34.715-31.496 1.6094-6.8359 2.4453-14.168 2.5-22.055 0.10938-23.332-4.668-43.219-14.277-60.051-6.8281-11.5-14.328-17.777-22.328-18.945-17.051-1.4414-25.66 15.832-25.828 53.273zm51.102-91.438c-3.6641 0.16797-5.6641 1.7773-5.8867 4.8359 0 3.6094 2.5 6.4961 7.5547 8.6094 2.0547 1.0547 3.9961 1.5547 5.832 1.5547 3.6641-0.27734 5.6094-1.8867 5.8867-4.7227 0-3.6094-2.5-6.4414-7.5547-8.7188-2.0547-1-4-1.5-5.832-1.5586zm531.5-78.77c0.10937 14.441-3.3906 25.051-10.5 32.164-4.1094 3.7773-8.6055 5.332-13.441 4.7227-1.3867-0.22266-2.8867-0.66797-4.4961-1.3359-4.168-1.832-8.5547-7.2227-13.164-15.996-5.1094-9.6133-9.832-15.5-14.219-17.723-2.5547-1.1094-5.168-1.7227-7.9453-1.7227-11.051-0.054688-20.215 8.332-27.492 25.055-5.9453 13.277-8.8867 27.441-8.832 42.219 0.10938 24.109 7.2773 38.551 21.605 44.328 4.6094 1.9453 9.6641 2.9453 15.219 3 7.6094-0.10938 11.5-2.1641 11.723-6.4961 0-3.0586-3.168-10.168-9.4453-20.891-2.332-3.7188-3.5-6.1641-3.5-7.4961-0.054687-8.668 10.168-15.277 30.66-16.055 7.332-0.16797 15.164 0.66406 23.496 2.5547 24.16 5.5547 40.77 16.777 49.766 28.496 2.7773 4.168 4.2773 7.9453 4.5547 11.168 0 3.1094-2.832 6.4414-8.5508 10.387-8.668 6.1094-13 14.332-12.941 23.887 0.054688 9.832 4.4961 19.387 13.273 29.664 8.1094 9.332 12.609 15.277 13.551 16.891 3.7227 6.1641 5.6133 12.164 5.6133 17.832 0.054688 9.4414-7.6094 12.164-23.051 11.273-12.223-0.88672-26.051-3.6641-41.492-7.4961-15.441-3.8359-28.992-7.6133-40.547-12.668-10.832 2.7773-23.996 4.7227-39.438 6.832-33.434 3.2227-58.875-3.832-76.258-27.328-12.055-16.332-18.055-37.723-18.109-64.496-0.054688-33.277 9.4414-66.664 28.438-97.773 19.719-32.605 44.438-52.828 74.262-59.051 5.7227-1.2773 11.609-1.8867 17.555-1.832 3.2188 0.10938 13.219 1.0547 29.992 5 4.832 1.1094 8.832 1.9453 12.051 2.4453 1.3906 0.22266 2.8906 0.66406 4.5 1.332 8.2773 3.832 13.609 13.277 15.996 28.164 0.77734 3.7773 1.168 7.3906 1.168 10.945zm-36.324-32.777c-5.0547-0.27734-7.668 0.94531-7.8906 3.6133 0 2.6641 2.668 4.7188 7.9453 6.4961 1.6094 0.55859 3.1094 0.94531 4.5 1.1133 4.832 0.38672 7.3281-0.66797 7.5508-3.2773 0-2.8359-2.6641-5.332-7.9414-7.168-1.3867-0.38672-2.7773-0.66406-4.1641-0.77734zm48.211 116.66c-5.2773-1.5586-8.0547-0.77734-8.2773 1.9414 0 2.8359 2.668 5.668 8 8.7227 1.6094 1 3.1094 1.7227 4.4961 2.2227 4.8359 1.5547 7.332 1.0547 7.5547-1.7227 0-3.0547-2.5547-6.1641-7.6094-9.1094-1.4414-0.89062-2.7773-1.5547-4.1641-2.0547zm-485.95 520.96c-30.605 4-45.938-3.1641-46.102-16.387 0-3.0547 2.0547-10.609 6.0547-22.941 3.832-12.336 6.5547-24.609 8.1641-36.723 2.6641-21.055 4-35.273 4.0547-42.164 0.054688-12.719-1-19.164-3.168-19.164-5.332 0.39062-12.164 17.723-20.438 50.441-7.6641 30.941-11.555 53.996-11.664 70.496-0.054687 7.7188-3.4453 12.332-10.223 13.555-1.1641 0.10938-2.3867 0.16406-3.5547 0.054687-6.5508-0.5-10.828-3.8906-12.773-10.055-0.60938-1.8906-0.89062-3.7773-0.89062-5.6133 0.11328-17.996-4.0547-43.551-12.383-78.492-7.5547-30.777-13.832-47.664-18.773-49.051-2-0.16797-3 6.1094-3.1133 18.719-0.054688 10.445 0.94531 24.941 3 43.219 1.5 12.777 5.2227 29.164 11.055 48.387 1.9414 6.4453 2.9414 11.223 2.8867 14.5-0.5 13.332-15.887 18.773-46.266 8.2188-36.16-13.441-54.27-37.387-54.27-58.605 0.058594-8.5547 3.3906-17.277 10.055-26.219 6.2227-8.1133 10.164-15.445 11.777-21.832 3.8867-16.168 5.8867-36.277 6.0508-60.441 0-1.8906 0-3.832 0.058594-5.7227 0.054688-11.887-1.0547-23.555-3.332-35.051-1.168-5.5586-4.668-16.445-10.5-33.223-3.332-9.2773-4.9414-15.832-4.9414-19.496 0.054688-8.6133 8.6094-7.4453 25.605-0.55859 6.5508 2.5586 13.551 5.7227 21.051 9.2773 24.883 11.945 40.27 21.891 46.156 36.832 5.0547 13 11.609 35.273 19.551 65.66 4.6641 16.945 8.4961 25.5 11.441 26.223 3.7773 0.33203 7.5547-7.1094 11.387-22.555 6.6641-25.887 10.664-41.609 12.055-46.109 1.9961-6.4961 4.1094-12.332 6.2734-17.387 6.168-13.832 21.719-21.055 46.656-25.719 20.551-3.9453 34.66-4.5 42.383 0.77734 2.3867 2 3.6641 4.4453 3.832 7.332 0 3.6094-2.6133 11.168-7.7773 22.332-4.3867 9.6094-7.1641 17.387-8.3867 23.555-2 10.832-3.0547 22.387-3.0547 34.719 0.72266 29.719 2.332 51.164 4.8867 64.883 1.3906 6.9453 5.5 16.055 12.387 27.223 5.9414 9.5 8.8867 17.996 8.8867 25.609-0.27734 20.441-18.383 35.941-54.098 41.496zm-140.69-241.37c0.94141 3.6094 3.832 6.6094 8.5508 8.7773 5.168 1.168 8.1094 0.27734 8.9453-2.3906 0-2.7188-2.0547-5.2773-6.2227-7.8867-1-0.55469-1.8867-1-2.6641-1.2773-4.5547-1.668-7.332-1.2227-8.332 1.5547-0.16797 0.61328-0.27734 1-0.27734 1.2227zm154.8 9c1.168 2.6641 4.168 3.832 8.8867 3.332 5.168-1.7227 8-4.3867 8.6094-7.7227 0-2.7188-1.9414-4.1094-5.9414-4.2188-1 0.054687-1.8906 0.16406-2.668 0.33203-4.7188 1.168-7.6094 3.4453-8.6094 6.832-0.16406 0.72266-0.27734 1.2227-0.27734 1.4453zm155.36 185.65c-41.934 14.387-71.594 7.668-88.98-18.5-9.6641-14.441-14.496-33.387-14.441-57.215 0.054688-33.055 8.332-66.332 24.828-100.94 17.051-36.441 38.438-63.609 64.152-80.773 4.9453-3.3867 10-6.2773 15.109-8.6094 27.66-12.668 51.488-9.2773 71.484 11.332 18.219 18.555 28.883 45.773 31.883 80.992 0.38672 5.5586 0.60938 11 0.60938 16.277 0.054688 39.055-10.109 73.496-30.492 102.49-18.441 26.168-43.16 44.277-74.152 54.941zm0.33594-88.492c15.438-6.2773 25.492-20.609 30.047-43.164 1.3906-7.2773 2.0547-14.887 2.0547-22.777 0-22.055-4.2773-38.828-12.773-50.219-5.9453-7.7227-12.387-10.055-19.273-7.1641-9.5 4.2773-17.441 16.664-23.773 36.996-5.1641 16.164-7.7227 31.996-7.7773 47.551 0 25.332 6.1094 38.777 18.387 40.664 4 0.66797 8.332 0 13.109-1.8867zm24.66-173.82c-3.168 1.6641-4.832 3.832-5.0547 6.4414 0 3.2227 2.1641 4.8906 6.5547 4.9453 1.7773 0.10938 3.4414-0.16797 5.0547-0.89062 3.1641-1.6641 4.832-3.7773 5.0547-6.3867 0-3.2227-2.168-4.8906-6.5547-5-1.832-0.16797-3.5 0.16797-5.0547 0.89062zm295.55 216.98c-30.605-8.3906-45.992-17.332-46.27-34.555 0-3.832 1.9453-13.055 5.832-27.387 3.7227-14.332 6.332-28.387 7.832-42.219 2.4453-24.055 3.668-39.719 3.6094-47.496-0.054688-14.332-1.2188-21.777-3.3867-22.5-5.332-1-11.996 16.223-19.941 53.387-7.3867 35.387-11.051 64.105-10.941 84.828 0.054687 9.7188-3.332 15.441-10.051 17.332-1.168 0.21875-2.3906 0.33203-3.5547 0.33203-6.5547-0.054687-10.832-3.668-12.832-11.055-0.61328-2.2773-0.89062-4.6133-0.94531-6.8906-0.054687-22.496-4.4414-53.438-13.109-91.324-7.8281-33.164-14.219-48.773-19.16-48.055-2 0.78125-2.9453 8.168-2.8906 22.277 0.058594 11.723 1.168 27.555 3.4453 47.887 1.6094 14.219 5.4453 31.832 11.496 53.328 2 7.168 3 12.832 3.0547 16.945-0.33203 17.332-15.719 26.496-46.098 31.996-36.16 6.668-54.324 0.66797-54.602-22.777 0-9.332 3.2227-22.219 9.7773-38.551 6.1094-15.055 9.9414-26.777 11.551-35.277 3.7227-21.273 5.5547-44.941 5.5-70.715v-6.0547c-0.054688-12.609-1.2227-23.723-3.6641-33.332-1.2227-4.5547-4.7773-12.387-10.723-23.219-3.3867-5.8359-5.0547-10.555-5.0547-14.277 0-8.5 8.4453-17.777 25.441-26.332 6.4961-3.332 13.551-5.9453 21.051-7.832 24.883-5.8359 40.324-0.39062 46.32 12.664 5.168 11.609 11.887 32.664 20.109 64.273 4.832 17.609 8.7188 26.887 11.664 27.387 3.7773 0.054688 7.4961-8.4453 11.164-25.277 6.3867-28.109 10.273-43.883 11.664-48.438 1.9453-6.5586 4-12.277 6.1641-17.113 6.0547-12.941 21.551-18.109 46.434-9.1094 20.551 7.668 34.715 19.887 42.492 32.164 2.3867 4.2227 3.6641 7.9453 3.8867 11.055 0 3.7227-2.5 8.832-7.6094 15.832-4.2773 6.0547-6.9961 12-8.1641 17.445-1.8867 9.7188-2.832 21.273-2.7773 34.496 1 32.609 2.832 57.887 5.5 75.273 1.4453 8.8867 5.6641 22.332 12.719 40.719 6.0547 15.723 9.0547 27.941 9.1094 36.555-0.27734 22.941-18.273 23.551-54.043 13.609zm-142.8-266.04c1 3.0547 3.8906 4.2773 8.6094 3.8906 5.1133-1.668 8.1094-3.9453 8.8867-7.1133 0-2.7773-2.1094-4.4414-6.2188-4.8867-1-0.054687-1.8906 0-2.668 0.16797-4.5547 0.83203-7.332 3.0547-8.2734 6.4961-0.27734 0.72266-0.33594 1.2227-0.33594 1.4453zm154.8 12.445c1.2227 3.5547 4.168 6.7227 8.9414 9.7227 5.1133 2.0547 8 1.7773 8.5547-1.1133 0-2.7773-2-5.832-5.9414-9-1-0.72266-1.8906-1.2773-2.668-1.6641-4.7188-2.3359-7.6094-1.9453-8.5547 0.83203-0.21875 0.55469-0.33203 1-0.33203 1.2227zm-701.68 484.3c5.6094-18.496 8.4961-38.219 8.6641-60.273 0.11328-12.219-1.0547-23.387-3.332-33.719-1.3906-6.5-5.7227-16.777-13.055-31.941-3.7734-8-5.6094-13.723-5.6094-16.887 0.33594-11.723 19.051-4 56.156 9.5547 41.492 14.609 82.98 18.773 124.53 16.332 8.7773-0.5 16.996 4.5 24.551 15.164 6.3867 9.2227 9.5547 18.941 9.4961 29.332-0.054688 13.5-4.3867 21.719-12.941 24.555-1.4414 0.5-2.8867 0.77734-4.2773 0.88672-6.4414 0.5-12.828-2.2773-19.273-8.332-7.6094-7.168-13.383-11.887-17.438-14-8.0547-4.3867-17.832-6.7773-29.273-7.5547-14.996-1.0547-27.051 1.8906-36.156 9.8906-4.5547 3.9961-6.832 8.1094-6.8906 12.387-0.054688 6.0547 4.1133 10.332 12.441 12.387 1.4453 0.39062 2.8359 0.66797 4.2773 0.83594 5.5 0.66406 12.277-1.0586 20.387-5.2227 4.2773-2.168 7.4961-3.2227 9.6641-3.1133 5.9414 0.27734 10.219 4.8906 12.773 13.832 0.94531 3.6133 1.3906 7.3906 1.3906 11.336-0.054687 11.609-3.2227 19.219-9.4453 22.941-1.6641 0.88672-3.332 1.2773-4.9961 1.2227-2.168-0.11328-6.332-2.0547-12.5-6.168-6.4414-3.9453-12.273-6.2227-17.496-6.7227-9.2734-0.71875-14.105 1.7773-14.383 7.8359-0.058594 6.832 4.0547 14.273 12.387 21.832 5.7188 4.4961 10.941 6.9414 15.719 7.332 14.551 0.66406 27.215-3.668 37.988-12.945 1.2227-0.88672 2.7773-2.3867 4.668-4.3867 7.8867-7 14.609-11.445 20.105-13.109 2.3906-0.66797 4.8867-1 7.5-1.168 18.328-0.94531 28.824 6.5 31.383 22.941 0.44141 2.5547 0.71875 5.2773 0.66406 8.0547-0.054687 16.723-5.9961 32.777-17.719 47.496-10.828 13.277-22.328 19.668-34.492 19.832-38.824 0-77.648-0.054688-116.47-0.27734-43.492-0.054688-65.266-11.277-65.375-33.664 0.054687-8.7188 4.1094-19.441 12.051-30.996 7.668-10.555 12.387-18.832 14.332-25.5zm157.3-109.93c-3.832 0.33203-5.832 1.4961-6.1094 3.7188 0 2.7773 2.6133 5 7.832 6.6133 2.1133 0.72266 4.168 1 6.0547 0.94141 3.7773-0.38672 5.832-1.7188 6.1094-3.8867 0-2.7773-2.6094-4.832-7.832-6.3906-2.1094-0.71875-4.1094-1.0547-6.0547-0.99609zm92.816 122.99c5.2734-18.996 7.9414-36.773 7.9961-52.828 0.054687-12.445-1.7227-25.223-5.2773-38.332-1.3867-4.7773-5.7734-11.832-13.164-21.164-3.7734-5.168-5.6641-9.2227-5.6641-12.277 0-7.5547 10.277-14.664 30.715-22.887 7.832-3.2227 16.273-6.1094 25.328-8.668 21.387-6.0547 42.824-12.832 64.207-19.832 43.047-14.273 72.207-11.941 87.426 8.8906 5.9453 8.1094 8.9453 17.719 8.9453 28.555 0 20.273-8.5547 38.105-25.664 52.828-3.5547 3.4453-5.4961 5.3867-5.7188 5.8867 0 1.2227 3.332 5.168 9.9961 12.223 13.109 14.609 23.387 31.941 30.828 51.496 2.3867 6.3906 8.2773 12.668 17.551 19.164 9.0547 6 14.941 11.891 17.551 17.332 2.168 4.9453 3.2227 10.777 3.2773 17.5 0.058594 22.055-11.051 35.719-33.27 40.109-7.3867 1.332-16.387 1.9453-26.883 1.9453-30.828-0.058594-50.32-4.9453-58.43-14.168-4.0547-5-6.1133-11.387-6.1133-19.387-0.5-39.273-4.8867-67.551-13.219-84.051-4.5547-8.4414-9.6641-12.109-15.383-11.219-6.668 1.2773-12.055 6.2188-16.109 14.664-2.1641 4.668-3.2227 9.4453-3.2227 14.387 0 6.668 0.72266 12.555 2.1133 17.723 2.6094 9.332 6.1641 20.387 10.719 33.441 4.2773 12.887 6.4414 21.887 6.4414 26.664-0.5 14.777-18.996 22.055-55.543 21.887-43.266-0.38672-64.984-9.0547-65.152-26.496 0-7 4-15.891 11.887-27.332 7.332-10.609 11.887-19.441 13.832-26.055zm131.97-108.99c0-8.5547-4.2773-14.332-12.828-17.219-4.7773-1.6133-9.7773-1.668-15-0.22266-14.496 4.0547-23.938 11.164-28.215 21.109-0.94531 2.6094-1.4453 5.0547-1.4453 7.2227 0 8.4414 5.832 13.109 17.496 14.164 4.7773 0.22266 9.5-0.22266 14.277-1.332 12.387-2.8906 20.496-8.4453 24.273-16.777 1-2.332 1.4414-4.668 1.4414-6.9453zm6.7773-63.438c-3.832 1.4414-5.832 3.5547-6.0547 6.4414 0 3.2227 2.6094 4.9453 7.832 5.2227 2.168 0.27734 4.1641 0.11328 6.0547-0.44531 3.7773-1.3867 5.832-3.3867 6.0547-6.0547 0-3.2773-2.6133-5.1641-7.832-5.6641-2.1094-0.27734-4.1094-0.058594-6.0547 0.5zm335.15 116.55c7.0547 24.055 17.996 43.496 32.883 58.16 9.832 9.6133 15.496 15.277 16.941 17.391 5.0547 6.9961 7.6094 14.996 7.6641 24.441 0.10938 17.777-8.6094 28.387-26.273 32.887-8.1094 1.8867-20.16 2.9453-36.156 3-30.605 0.054687-49.992-5.7227-58.156-17.387-4.1094-6.2227-6.1641-14.336-6.1641-24.223 0-3.1094 0.054687-8.832 0.27734-17.277 0.44531-10.887 0.66797-18.664 0.60937-23.387-0.054687-18.332-3.832-29.387-11.219-33.332-2.8867-1.5-5.9961-2.332-9.332-2.4414-16.719-0.22266-24.992 16.109-24.883 48.773 0 2 0 5.0547 0.054687 9.332 0.22266 4.2227 0.39062 7.3906 0.39062 9.332 0.10938 24.445-8.1094 40-24.551 46.332-7.8867 2.8867-18.164 4.332-30.828 4.2773-25.105-0.054687-40.379-7.168-45.934-20.887-2.1641-5.3906-3.2188-11.613-3.2773-18.668 0-11.609 3.5547-20.277 10.664-26.109 1.168-0.88672 3.2227-2.2227 6.0547-4 11.223-7.7188 19.551-16.664 24.996-26.887 1.6641-3.1094 3.0547-6.0547 4.2773-8.8867 12.109-27.332 23.328-59.719 33.715-96.383 6.1094-22.387 9.1641-38.219 9.1094-47.828-0.058594-8.2227-2.7773-17.723-8.332-28.223-3.6094-6.6094-5.3867-12-5.3867-16.164-0.058594-8.7227 12.328-16.445 37.047-19.387 7.6094-0.83594 15.328-0.94531 23.16-0.16797 24.996 2.3906 43.547 11.277 55.711 22.832 4.5547 4.332 7.2773 8.6094 8.2773 12.723 0.21875 1.332 0.38672 3.1641 0.38672 5.4414 0.33203 50.109 6.3867 96.551 18.273 136.71zm-98.422-37.387c0.5 9 3.6094 13.777 9.332 14.277 7.1641-0.22266 10.719-5.8906 10.664-17-0.55469-24.941-3.6094-37.996-9.1094-39.441-4.2773-0.22266-7.5 6.832-9.5547 21.387-0.94531 6.5-1.3867 13.387-1.332 20.777zm45.547-122.16c-5.5-0.77734-8.332 0.61328-8.5547 3.9453 0 3.3906 2.7773 6.2227 8.2188 8.7773 1.668 0.83203 3.2227 1.3906 4.668 1.668 5.2188 0.77734 7.9414-0.39062 8.1641-3.668 0-3.6094-2.7773-6.832-8.2227-9.5-1.4414-0.55469-2.8867-0.94141-4.2734-1.2227zm-345.48-725.95-5.332-4.9453-3.2227 22.719-1.6094-23.664-7 5.2773 5.3867-6.332-23.496-3.832 23.328-1.8359-4.832-7.2188 6.8906 6.5 3.832-25.055 1.4414 24.887 6.5547-4.832-5.6641 6.5547 20.828 3.1641-21.66 1.9453zm-45.77 80.883 10.496-1.2227-10.051-2 2.7227-4.0547-3.168 3.0547-0.72266-15.555-1.832 15.664-3.332-4.0547 2.332 4.5-11.273 1.168 11.383 2.3867-2.6094 3.9453 3.3906-3.2773 0.77734 14.777 1.5547-14.223 2.6094 3.0547zm72.707-26.445 10.496-1.2188-10.051-2 2.7188-4.0547-3.1641 3.0547-0.72266-15.555-1.832 15.664-3.332-4.0547 2.332 4.5-11.277 1.168 11.387 2.3867-2.6094 3.9453 3.3867-3.2773 0.77734 14.777 1.5586-14.223 2.6094 3.0547zm165.19 721.29 21.66-1.9453-20.828-3.168 5.6641-6.5547-6.5547 4.832-1.4414-24.887-3.832 25.055-6.8906-6.5 4.832 7.2227-23.328 1.832 23.496 3.8359-5.3867 6.332 6.9961-5.2773 1.6133 23.664 3.2227-22.723 5.332 4.9453zm-41.215 87.547 10.496-1.2227-10.051-2 2.7188-4.0547-3.1641 3.0547-0.72266-15.555-1.832 15.668-3.332-4.0547 2.332 4.5-11.277 1.1641 11.387 2.3906-2.6094 3.9453 3.3867-3.2812 0.77734 14.777 1.5586-14.219 2.6094 3.0547zm134.64-433.19 10.5-1.2227-10.055-2 2.7227-4.0547-3.168 3.0547-0.72266-15.551-1.832 15.664-3.332-4.0547 2.332 4.5-11.273 1.1641 11.387 2.3906-2.6133 3.9453 3.3906-3.2773 0.77734 14.773 1.5547-14.219 2.6094 3.0547zm-348.81 89.996 10.496-1.2227-10.051-2 2.7227-4.0547-3.168 3.0547-0.72266-15.555-1.832 15.664-3.332-4.0547 2.332 4.5-11.273 1.168 11.383 2.3867-2.6094 3.9453 3.3906-3.2773 0.77734 14.777 1.5547-14.223 2.6094 3.0547zm222.01-332.04 10.496-1.2188-10.051-2 2.7188-4.0547-3.1641 3.0547-0.72266-15.555-1.832 15.664-3.332-4.0547 2.332 4.5-11.277 1.168 11.387 2.3867-2.6094 3.9453 3.3867-3.2773 0.77734 14.777 1.5586-14.223 2.6094 3.0547zm-247.39 72.219 10.496-1.2227-10.051-2 2.7188-4.0547-3.1641 3.0547-0.72266-15.555-1.832 15.668-3.332-4.0547 2.332 4.4961-11.277 1.168 11.387 2.3906-2.6094 3.9414 3.3867-3.2773 0.77734 14.777 1.5586-14.223 2.6094 3.0586zm312.21 576.62 10.496-1.2227-10.055-2 2.7227-4.0547-3.1641 3.0547-0.72266-15.555-1.8359 15.668-3.332-4.0547 2.3359 4.5-11.277 1.1641 11.387 2.3906-2.6094 3.9414 3.3867-3.2773 0.77734 14.777 1.5547-14.219 2.6133 3.0547z"/>
 </g>
 <path transform="matrix(.55544 0 0 .55552 -514.22 -584.71)" d="m2123.2 2026.2c-10.999 26.496-40.298 49.201-68.098 47.696-31.303-1.8001-39.201-24.794-67.198-21.398-29.503 3.6003-32.006 32.599-61.6 38.4-27.301 5.4004-59.406-13.199-74.604-37.303-27.801-44.3 4.3041-104.2 22.8-138.8 9.1004-16.897 37.9-70.697 90.104-83.495 1.498-0.40081 2.4966-0.60473 4.1001-0.90006 51.297-9.303 99.598 56.099 111.8 72.596 26.598 35.904 60.095 81.203 42.696 123.2zm10.802-277.8c-22.899-5.7942-47.605 16.201-55.102 49.004-7.4969 32.796 5.0003 64.2 27.899 70.001 22.899 5.7942 47.598-16.201 55.102-49.004 7.4969-32.796-5.0003-64.2-27.899-70.001zm-360.3 121.2c15.803 29.801 45.305 44.602 65.904 33 20.599-11.497 24.601-44.996 8.798-74.797-15.803-29.801-45.298-44.602-65.897-33-20.606 11.497-24.601 45.003-8.805 74.797zm257.8-208.1c-25.198-3.9026-49.799 23.802-54.996 61.802-5.2043 38 11.098 71.9 36.296 75.802 25.198 3.8956 49.799-23.802 55.003-61.802 5.1972-37.901-11.105-71.9-36.303-75.802zm-167.1 102.7c14.797 35.405 45.797 55.699 69.097 45.404 23.3-10.302 30.206-47.303 15.402-82.602-14.797-35.299-45.797-55.699-69.097-45.397-23.3 10.196-30.199 47.197-15.402 82.595z" stroke="#000" stroke-miterlimit="10"/>
</svg>
