<?xml version="1.0" encoding="UTF-8"?>
<svg width="1587" height="1587" version="1.0" viewBox="0 0 1190.2 1190.2" xmlns="http://www.w3.org/2000/svg" zoomAndPan="magnify">
 <defs>
  <clipPath id="a">
   <path d="m0 0h1189.5v1189.5h-1189.5z"/>
  </clipPath>
  <clipPath id="b">
   <path d="m0 294.48h1189.5v601.12h-1189.5z"/>
  </clipPath>
 </defs>
 <g clip-path="url(#a)" fill="#fff">
  <path d="m0 0h1189.5v1189.5h-1189.5z"/>
  <path d="m0 0h1189.5v1189.5h-1189.5z"/>
 </g>
 <g clip-path="url(#b)">
  <path d="m633.67 295.07c-0.52344 0.51953-0.78125 3.5117-0.78125 8.9805 0 5.4648-0.64844 10.672-1.9492 15.617-0.64844 2.4727-1.3047 4.9453-1.9531 7.418h2.3438v3.9062c0.51953-0.12891 1.0352-0.26172 1.5586-0.39062 0.52344-0.12891 1.0391-0.26172 1.5625-0.39062v1.5625h1.9492c1.3047 0 2.0859 0.39062 2.3398 1.1719 0.13281 0.39062 0.25781 0.78125 0.39062 1.1719 1.1719-1.1719 2.3438-2.3438 3.5117-3.5156 2.3438-2.3438 4.1602-6.5078 5.4648-12.496 1.3008-5.9844 1.4258-10.281 0.39062-12.883-1.0391-2.6055-2.4766-4.8164-4.293-6.6406-1.8203-1.8203-3.9023-2.9922-6.2422-3.5117-2.3438-0.51953-3.7695-0.51953-4.293 0zm-320.34 35.141c-1.3008 1.043-2.207 2.3438-2.7305 3.9062-0.52344 1.5586-1.3008 6.2461-2.3398 14.055-1.0391 7.8086-1.4297 16.66-1.1719 26.551 0.25781 9.8945 1.4297 17.57 3.5117 23.039 2.0859 5.4648 4.6836 10.02 7.8047 13.664s5.8516 6.1172 8.1914 7.418c2.3438 1.3047 6.2461 2.7344 11.707 4.2969 5.4609 1.5625 9.8867 2.3438 13.266 2.3438s7.2812-0.91406 11.707-2.7344c4.4219-1.8203 7.4141-3.6445 8.9727-5.4648 1.5625-1.8242 2.2109-3.2539 1.9531-4.2969-0.25781-1.0391 0.64453-3.125 2.7305-6.2461 1.0352-1.5625 2.082-3.125 3.1211-4.6875 0.25781 1.043 0.52344 2.082 0.78125 3.125 0.52344 2.082 0.77734 8.3281 0.77734 18.742 0 10.41-0.25391 18.219-0.77734 23.426-0.52344 5.207-4.1602 8.332-10.926 9.3711-6.7656 1.043-13.523 2.6055-20.289 4.6875-6.7656 2.082-12.875 4.293-18.34 6.6367-5.4609 2.3438-9.8867 4.9453-13.266 7.8086-3.3789 2.8633-6.1094 6.1172-8.1953 9.7617-2.082 3.6445-3.2539 6.1172-3.5117 7.418-0.13281 0.65234-0.25781 1.3047-0.38672 1.9531h0.77734c0.52344 0 1.1719-1.1719 1.9531-3.5117 0.77734-2.3438 1.4258-3.6445 1.9492-3.9062 0.25781-0.12891 0.52344-0.26172 0.78125-0.39062v0.78125c0 0.51953-0.52344 2.2109-1.5625 5.0742-1.0352 2.8633-1.9492 4.168-2.7305 3.9062-0.39063-0.12891-0.78125-0.26172-1.168-0.39062-0.13281 0.78125-0.25781 1.5625-0.39062 2.3438-0.25781 1.5625-0.13281 4.293 0.39062 8.1992 0.51953 3.9023 1.5586 7.418 3.1211 10.543 1.5586 3.1211 3.5117 5.7266 5.8516 7.8086s5.0703 3.7734 8.1914 5.0742c3.125 1.3047 8.0625 2.082 14.828 2.3438s12.742-0.26172 17.949-1.5625c5.2031-1.3008 11.059-3.6445 17.559-7.0273s10.793-6.1172 12.875-8.1992c2.082-2.082 3.9023-4.6875 5.4609-7.8086 1.5625-3.125 3.6445-11.715 6.2461-25.77 1.3008-7.0312 2.5977-14.059 3.9023-21.086 1.4258 0.51953 2.8633 1.0391 4.2891 1.5625 2.8633 1.0391 5.8555 2.6016 8.9766 4.6836 3.1211 2.082 7.8008 6.8984 14.047 14.449 6.2422 7.5469 10.402 11.32 12.484 11.32h3.1211v-1.5625c0-1.0391-1.1719-3.5117-3.5117-7.418-2.3398-3.9023-5.3281-7.9375-8.9727-12.102-3.6445-4.168-7.8047-7.5508-12.488-10.152-4.6797-2.6055-8.8398-4.4258-12.484-5.4688-3.6445-1.0391-5.207-8.9805-4.6836-23.816 0.52344-14.836 0.39062-23.949-0.39063-27.332-0.77734-3.3828-1.0352-5.9883-0.77734-7.8086 0.25781-1.8242 0.13281-2.8633-0.39062-3.125-0.52344-0.26172-0.64844-1.4297-0.39062-3.5156 0.25781-2.082 0-3.6445-0.78125-4.6836-0.78125-1.043-1.3047-4.0352-1.5586-8.9805-0.25781-4.9453-0.78125-9.1094-1.5625-12.496-0.78125-3.3828-1.4297-5.207-1.9492-5.4648-0.52344-0.26172-1.1719-2.8633-1.9531-7.8086-0.78125-4.9453-2.207-8.332-4.293-10.152-2.082-1.8242-4.2891-2.8633-6.6328-3.125-2.3398-0.25781-3.9023 0-4.6797 0.78125-0.78125 0.78125-1.4297 1.9531-1.9531 3.5156-0.52344 1.5625-0.52344 7.1562 0 16.789 0.52344 9.6289-0.39063 17.961-2.7305 24.988-2.3398 7.0273-5.4609 12.754-9.3633 17.18-3.9023 4.4258-7.6719 7.1602-11.316 8.1992-3.6445 1.043-6.5 1.4336-8.582 1.1719-2.0859-0.25781-4.1602-1.0391-6.2461-2.3398-2.082-1.3047-3.7656-4.2969-5.0703-8.9805-1.3047-4.6875-2.4727-15.879-3.5117-33.582-1.0391-17.699-2.207-27.723-3.5117-30.066-1.3047-2.3398-2.4727-3.9023-3.5117-4.6836-1.0391-0.78125-2.082-0.78125-3.1211 0-0.52344 0.39062-1.0391 0.78125-1.5625 1.1719v-3.9062h-0.77734c-0.52344 0-1.4297 0.52344-2.7344 1.5625zm138.52 5.4648c-2.5977 1.043-4.9414 2.4766-7.0234 4.2969-2.082 1.8203-3.6445 4.2969-4.6836 7.418-1.0352 3.125-2.7305 6.1172-5.0703 8.9805-2.3398 2.8633-4.6836 7.418-7.0234 13.668-2.3398 6.2461-3.6445 12.883-3.9023 19.914-0.25781 7.0273 0.52344 12.625 2.3398 16.789 1.8203 4.1641 4.6836 8.0664 8.5859 11.711s7.1562 6.1172 9.7539 7.4219c2.5977 1.3008 4.5508 1.8203 5.8516 1.5586 1.3047-0.25781 2.4766 0 3.5117 0.78125 1.0391 0.78125 2.2109 1.043 3.5117 0.78125 1.3047-0.25781 2.4766-0.12891 3.5117 0.39062 0.52344 0.26172 1.0391 0.52344 1.5625 0.78125 0.13281-0.25781 0.25781-0.51953 0.39062-0.78125 0.13281-0.25781 0.25781-0.51953 0.39062-0.78125 0.38672 0.26172 0.77734 0.52344 1.168 0.78125 0.78125 0.52344 2.9883 0.13281 6.6328-1.1719 3.6445-1.3008 5.8555-2.8633 6.6328-4.6836 0.78125-1.8203 1.6953-2.7344 2.7344-2.7344 1.0352 0 1.8164-0.39062 2.3398-1.1719 0.52344-0.78125 0.64844-1.6914 0.39062-2.7305-0.13281-0.52344-0.25781-1.043-0.39062-1.5625h2.3398c-0.13281-0.39062-0.25781-0.78125-0.39063-1.1719-0.25781-0.78125-0.13281-1.6914 0.39063-2.7344 0.25781-0.51953 0.52344-1.0391 0.78125-1.5625 0.25781 0.13281 0.52344 0.26172 0.78125 0.39062 0.25781 0.13281 0.52344 0.26172 0.77734 0.39062-0.12891-0.39062-0.25391-0.78125-0.38672-1.1719-0.25781-0.77734 0.13281-1.8203 1.168-3.1211 1.0391-1.3008 1.8203-3.6445 2.3438-7.0273 0.51953-3.3867 4.4219-5.3359 11.703-5.8594 7.2812-0.51953 11.449-1.1719 12.488-1.9531 1.0352-0.78125 3.6406-1.6914 7.8008-2.7305 4.1602-1.043 6.8906-2.2148 8.1953-3.5156 1.3008-1.3008 1.8164-2.3438 1.5586-3.125s-1.5586-1.4297-3.8984-1.9492c-2.3438-0.52344-6.6367 0.12891-12.879 1.9492-6.2422 1.8242-11.445 2.8633-15.605 3.125-2.0859 0.12891-4.1602 0.26172-6.2422 0.39062-0.25781-3.6445-0.52344-7.2891-0.78125-10.934-0.52344-7.2891-2.0859-13.797-4.6836-19.523-2.5977-5.7266-5.0703-9.7617-7.4141-12.102-2.3398-2.3438-4.6797-4.1641-7.0234-5.4688-2.3398-1.3008-5.9844-2.2109-10.922-2.7305-4.9414-0.52344-8.7188-0.26172-11.316 0.77734zm-4.6836 5.8594c0.25781 0.12891 0.52344 0.25781 0.78125 0.39062-0.78125 0.64844-1.5586 1.3008-2.3398 1.9531-0.78125 0.64844-1.5625 1.3008-2.3438 1.9492 0.52344-0.78125 1.0391-1.5586 1.5625-2.3398 1.0391-1.5625 1.8164-2.2148 2.3398-1.9531zm19.902 0.78125c3.3789 0.78125 6.5 3.2539 9.3633 7.418 2.8633 4.1641 4.6797 7.9375 5.4609 11.324 0.78125 3.3828 0.91406 8.0664 0.39062 14.055-0.52344 5.9883-1.5586 8.9805-3.1211 8.9805s-4.5508-0.91016-8.9727-2.7344c-4.4258-1.8203-7.8047-3.5117-10.145-5.0742-2.3438-1.5625-4.5508-3.6445-6.6367-6.2461-2.082-2.6055-3.1211-5.4688-3.1211-8.5898 0-3.125-0.38672-5.0781-1.168-5.8594s-1.1719-1.8203-1.1719-3.1211c0-1.3047 0.64844-2.7344 1.9531-4.2969 1.3008-1.5625 3.6406-3.125 7.0195-4.6836 3.3789-1.5625 6.7695-1.9531 10.148-1.1719zm88.961 3.1211c-2.8672 2.3438-4.9414 4.5586-6.2461 6.6406-1.3008 2.082-3.8984 7.9375-7.8008 17.57-3.9023 9.6289-6.1133 17.828-6.6328 24.598-0.52344 6.7695-0.39062 11.582 0.38672 14.449 0.78125 2.8633 2.0859 5.7266 3.9023 8.5898 1.8203 2.8633 3.5117 5.0742 5.0742 6.6367 1.5586 1.5625 4.5508 3.2539 8.9727 5.0742 4.4258 1.8242 9.4961 2.8633 15.219 3.125 5.7188 0.26172 10.926-0.78125 15.605-3.125 4.6836-2.3398 8.0625-4.6836 10.145-7.0273 2.0859-2.3438 4.0352-5.207 5.8555-8.5898 0.91016-1.6914 1.8164-3.3828 2.7305-5.0742 1.4258 2.6016 2.8633 5.2031 4.293 7.8086 2.8633 5.207 6.1094 9.2383 9.7539 12.102 3.6445 2.8633 5.9844 5.0781 7.0234 6.6406 1.0352 1.5625 2.7305 2.4727 5.0703 2.7305 1.1719 0.13281 2.3438 0.26172 3.5117 0.39062v-2.7305c0-1.8242-1.3008-4.2969-3.9023-7.4219-2.5977-3.1211-5.2031-7.1562-7.8008-12.102-2.6016-4.9453-4.8164-11.844-6.6328-20.695-1.8203-8.8516-2.7344-13.668-2.7344-14.445v-1.1719h2.3438c-0.13281-0.39062-0.25781-0.78125-0.39062-1.1719-0.13281-0.39062-0.25781-0.78125-0.39062-1.1719-0.25781 0.12891-0.52344 0.26172-0.78125 0.39062-0.25781 0.12891-0.52344 0.25781-0.78125 0.39062v-6.2461c0-4.168 0.13281-7.0312 0.39062-8.5938 0.13281-0.77734 0.25781-1.5586 0.39062-2.3398 0.13281 0.25781 0.25781 0.51953 0.39062 0.78125 0.13281 0.25781 0.25781 0.51953 0.39062 0.78125 0.25781-0.26172 0.52344-0.52344 0.78125-0.78125 0.25781-0.26172 0.51953-0.52344 0.77734-0.78125-0.51953-0.26172-1.0352-0.52344-1.5586-0.78125-0.52344-0.26172-1.0391-0.52344-1.5625-0.78125 0.25781-0.39062 0.52344-0.78125 0.78125-1.1719 0.25781-0.39063 0.52344-0.78125 0.78125-1.1719h-2.3398v-1.5625c0.38672 0.13281 0.77734 0.26172 1.168 0.39063 0.39062 0.13281 0.78125 0.26172 1.1719 0.39062-0.13281-0.78125-0.25781-1.5625-0.39062-2.3398-0.25781-1.5625-1.0391-2.8672-2.3398-3.9062-1.3047-1.043-2.4766-1.1719-3.5117-0.39062-0.52344 0.39062-1.0391 0.78125-1.5625 1.1719v-3.9062c-0.64844 0.52344-1.3047 1.043-1.9492 1.5625-0.64844 0.51953-1.3047 1.043-1.9531 1.5625-0.13281-0.51953-0.25781-1.043-0.39062-1.5625-0.25781-1.0391-0.77734-1.6914-1.5586-1.9531-0.78125-0.25781-1.9531 0.65234-3.5117 2.7344-1.5625 2.082-2.3398 8.7188-2.3398 19.914 0 11.191-1.1719 20.172-3.5117 26.941-2.3438 6.7695-4.6836 11.324-7.0234 13.664-2.3438 2.3438-4.6836 4.168-7.0234 5.4688-2.3438 1.3008-4.5508 2.2109-6.6328 2.7344-2.0859 0.51953-4.4258 0.77734-7.0234 0.77734-2.6016 0-4.1602-0.25781-4.6836-0.77734-0.52344-0.52344-1.0391-2.2148-1.5625-5.0781-0.51953-2.8633-0.51953-6.5078 0-10.934 0.52344-4.4258 2.8672-13.273 7.0234-26.551 4.1602-13.273 6.2461-21.086 6.2461-23.426 0-2.3438-0.78125-4.2969-2.3438-5.8594-1.5586-1.5586-3.3789-1.5586-5.4609 0-1.0391 0.78125-2.0859 1.5625-3.1211 2.3438 0.52344-0.78125 1.0352-1.5625 1.5586-2.3438 1.0391-1.5586 1.3047-2.6016 0.78125-3.1211-0.52344-0.52344-2.207 0.39062-5.0703 2.7305zm212.65 1.9531c-4.1602 2.082-8.5859 5.8594-13.27 11.324-4.6797 5.4648-8.1914 11.062-10.531 16.789-2.3438 5.7266-3.5117 11.324-3.5117 16.789 0 5.4688 1.168 10.543 3.5117 15.23 2.3398 4.6836 5.3281 8.5898 8.9727 11.711 3.6445 3.125 9.2305 5.9883 16.777 8.5898 7.5469 2.6055 14.047 3.9062 19.508 3.9062 5.4648 0 10.668-1.0391 15.609-3.125 4.9375-2.082 9.4961-4.6836 13.656-7.8086 4.1602-3.1211 7.8047-6.2461 10.926-9.3711 3.1211-3.1211 5.2031-6.2461 6.2422-9.3711 1.0352-3.1211 1.168-5.3359 0.39062-6.6367-0.78125-1.3008-1.5625-1.8203-2.3438-1.5625-0.39062 0.13281-0.77734 0.26172-1.168 0.39063v-2.3438c-0.91406 0.52344-1.8203 1.043-2.7344 1.5625-0.91016 0.52344-1.8164 1.043-2.7305 1.5625 0.25781-0.78125 0.52344-1.5625 0.78125-2.3438 0.25781-0.78125 0.52344-1.5625 0.78125-2.3398h-1.1719c-0.78125 0-3.1211 1.9492-7.0234 5.8555-3.9023 3.9023-8.8398 7.418-14.824 10.543-5.9883 3.1211-10.926 5.207-14.828 6.2461-3.9023 1.043-7.9375 1.5625-12.098 1.5625-4.1562 0-7.668-0.51953-10.535-1.5625-2.8633-1.0391-4.5469-2.2109-5.0703-3.5156-0.52344-1.3008-0.52344-4.293 0-8.9805 0.52344-4.6836 3.2539-6.8945 8.1953-6.6367 4.9375 0.26172 10.531-0.12891 16.777-1.1719 6.2422-1.0391 10.535-2.4727 12.875-4.293 2.3398-1.8242 4.293-4.2969 5.8516-7.418 1.5625-3.125 2.0859-6.6406 1.5625-10.543-0.52344-3.9062-2.6016-8.0703-6.2422-12.496-3.6445-4.4258-7.5469-7.8086-11.707-10.152-4.1602-2.3438-7.9375-3.5117-11.316-3.5117s-7.1562 1.0391-11.312 3.1211zm-90.523 0.39062c-1.0391 0.78125-1.3047 6.7695-0.78125 17.961 0.52344 11.195 0.39062 23.559-0.39063 37.094-0.39062 6.7695-0.77734 13.535-1.168 20.305h1.168c0.78125 0 1.3047 0.64844 1.5625 1.9531 0.13281 0.64844 0.25781 1.3008 0.39063 1.9531 0.52344-0.26172 1.0352-0.52344 1.5586-0.78125 0.52344-0.26172 1.0391-0.52344 1.5625-0.78125v1.5625h1.9492c1.3047 0 2.0859 0.38672 2.3438 1.168 0.13281 0.39062 0.25391 0.78125 0.38672 1.1719 0.78125-0.51953 1.5625-1.0391 2.3438-1.5625 1.5586-1.0391 3.2539-5.0742 5.0703-12.102 1.8203-7.0273 2.6016-11.062 2.3438-12.105-0.13281-0.51953-0.25781-1.0391-0.39062-1.5625h1.5586c-0.13281-0.39062-0.25781-0.78125-0.39062-1.1719-0.25781-0.78125-0.13281-1.3008 0.39062-1.5586 0.52344-0.26172 0.91406-3.6445 1.1719-10.152 0.25781-6.5078 0.13281-11.457-0.39062-14.84s1.5625-6.1172 6.2422-8.1992c4.6836-2.082 9.7539-3.125 15.219-3.125 5.4609 0 10.012 0.39062 13.656 1.1719 3.6445 0.78125 5.7188 0.52344 6.2422-0.78125 0.52344-1.3008 0.39062-2.4727-0.39062-3.5117-0.78125-1.043-2.5977-2.3438-5.4609-3.9062-2.8633-1.5625-6.7656-2.9922-11.707-4.293-4.9375-1.3047-9.4961-1.8242-13.656-1.5625-4.1602 0.25781-8.0625 1.3008-11.703 3.125-3.6445 1.8203-5.8555 2.082-6.6367 0.77734-0.77734-1.3008-2.7305-2.8633-5.8516-4.6836-3.1211-1.8203-5.2031-2.3438-6.2422-1.5625zm90.133 6.2461c0.39062 0.13281 0.77734 0.26172 1.168 0.39062-1.8164 1.4336-3.6445 2.8672-5.4609 4.2969-1.8203 1.4297-3.6445 2.8633-5.4609 4.293 1.4258-1.5586 2.8633-3.1211 4.2891-4.6836 2.8633-3.125 4.6836-4.5547 5.4648-4.2969zm22.629 8.5938c1.3047 0.77734 2.3398 2.2109 3.1211 4.293 0.78125 2.082 0.91406 5.0781 0.39062 8.9805-0.52344 3.9062-2.3398 6.6367-5.4609 8.1992-3.1211 1.5625-7.8047 2.3438-14.047 2.3438h-9.3672c0.13281-0.91016 0.25781-1.8203 0.39062-2.7344 0.25781-1.8203 1.0391-2.7305 2.3438-2.7305 1.3008 0 2.8633-1.6953 4.6797-5.0781 1.8203-3.3828 3.7695-6.1172 5.8555-8.1992 2.082-2.082 4.2891-3.6445 6.6328-4.6875 2.3398-1.0391 4.1562-1.168 5.4609-0.38672zm345.7 1.5586c-0.77734 0.26172-1.3008 1.1719-1.5586 2.7344-0.25781 1.5625-1.3047 3.6445-3.1211 6.2461-1.8203 2.6055-4.8164 5.8594-8.9766 9.7617-4.1602 3.9062-8.4492 7.0312-12.875 9.3711-4.4258 2.3438-9.1055 4.0352-14.047 5.0781-4.9375 1.0391-11.059 1.5625-18.34 1.5625-7.2773 0-14.957-0.65234-23.02-1.9531-8.0586-1.3008-22.762-5.9883-44.09-14.059-21.328-8.0664-35.375-12.754-42.141-14.055s-13.398-1.8242-19.898-1.5625-11.703 0.91016-15.605 1.9531c-3.9023 1.0391-7.9375 2.7344-12.098 5.0742-4.1602 2.3438-8.3242 5.8594-12.484 10.543-4.1602 4.6875-6.7656 8.1992-7.8047 10.543-1.0391 2.3438-1.5586 4.2969-1.5586 5.8555v2.3438h0.77734c0.52344 0 0.91406 0.51953 1.1719 1.5625 0.13281 0.51953 0.25781 1.0391 0.39062 1.5625 0.52344-0.13281 1.0391-0.26172 1.5586-0.39062 0.52344-0.13281 1.0391-0.26172 1.5625-0.39062v0.78125c0 0.51953 1.3047 1.0391 3.9023 1.5625 2.5977 0.51953 5.8516-1.1719 9.7539-5.0781 3.9023-3.9023 7.5469-6.8984 10.926-8.9805 3.3789-2.082 7.4141-3.7734 12.094-5.0742 4.6836-1.3047 9.3672-2.0859 14.047-2.3438 4.6836-0.26172 11.574 0.64844 20.68 2.7344 9.1094 2.082 20.289 5.9844 33.555 11.711 13.27 5.7266 23.543 9.7617 30.824 12.105s15.867 4.2969 25.754 5.8555c9.8867 1.5625 17.949 2.2148 24.191 1.9531 6.2422-0.25781 11.184-0.78125 14.824-1.5625 3.6445-0.78125 7.1562-1.9492 10.535-3.5117 3.3789-1.5625 7.0234-4.0352 10.926-7.418 3.9023-3.3867 8.0625-9.2422 12.488-17.574 4.4219-8.3281 6.5-14.055 6.2422-17.18-0.25781-3.1211-0.91406-5.207-1.9531-6.2461-1.0352-1.043-1.9492-1.3008-2.7305-0.78125-0.39062 0.26172-0.78125 0.51953-1.1719 0.78125v-3.9062h-0.77734c-0.52344 0-1.1719 0.13281-1.9531 0.39062zm-1114.7 0.39062v3.125c-0.51953-0.12891-1.0391-0.26172-1.5586-0.39062-0.51953-0.12891-1.043-0.26172-1.5625-0.39062v1.1719c0 0.78125-0.39063 1.3008-1.168 1.5625-0.78125 0.25781-1.3008 1.9531-1.5625 5.0742-0.25781 3.125 1.5625 8.4609 5.4609 16.008 3.9023 7.5508 7.9375 13.277 12.098 17.184 4.1602 3.9023 9.3633 7.0273 15.605 9.3711 6.2461 2.3398 12.098 3.7734 17.559 4.293 5.4648 0.51953 13.398 0.13281 23.801-1.1719 10.406-1.3008 20.812-3.6445 31.215-7.0273 10.406-3.3828 22.242-7.9414 35.508-13.664 13.266-5.7266 23.148-9.2422 29.652-10.543 6.5-1.3047 11.84-1.9531 16-1.9531 4.1562 0 8.9727 0.64844 14.434 1.9531 5.4648 1.3008 10.402 3.2539 14.828 5.8555 4.4258 2.6016 8.4531 5.7266 12.094 9.3711 3.6445 3.6445 6.6367 5.207 8.9766 4.6836 2.3398-0.51953 3.5117-1.0391 3.5117-1.5586v-0.78125c0.52344 0.12891 1.0391 0.25781 1.5586 0.39062 0.52344 0.12891 1.0391 0.25781 1.5625 0.39062 0.13281-0.65234 0.25781-1.3047 0.39062-1.9531 0.25781-1.3008 0.64844-1.9531 1.168-1.9531h0.78125c-0.64844-2.082-1.3008-4.1641-1.9492-6.2461-1.3047-4.1641-3.2539-7.8086-5.8516-10.934-2.6016-3.125-5.7227-5.9883-9.3672-8.5898s-8.0586-4.8164-13.266-6.6367c-5.2031-1.8242-11.703-2.8633-19.508-3.125-7.8047-0.26172-13.266-0.12891-16.387 0.39062-3.125 0.51953-9.2344 2.2109-18.34 5.0742s-20.941 7.1602-35.508 12.887c-14.566 5.7266-25.359 9.2422-32.383 10.543-7.0234 1.3008-14.309 2.082-21.852 2.3438-7.543 0.25781-13.785 0-18.727-0.78125-4.9453-0.78125-9.3672-1.9531-13.27-3.5156-3.8984-1.5625-7.4102-3.3828-10.531-5.4648-3.125-2.0859-6.7656-5.4688-10.926-10.152-4.1641-4.6875-6.6328-8.1992-7.4141-10.543s-1.8203-3.6445-3.1211-3.9062c-0.65234-0.12891-1.3008-0.25781-1.9531-0.39062zm756.95 0c-1.3047 1.6953-2.6016 3.3867-3.9023 5.0781-1.3047 1.6914-2.5977 3.3828-3.9023 5.0742 1.3047-1.6914 2.5977-3.3828 3.9023-5.0742 1.3008-1.6914 2.5977-3.3828 3.9023-5.0781zm-332.43 8.5898c3.1211 2.2148 6.2422 4.4258 9.3633 6.6406 6.2422 4.4258 11.703 7.418 16.387 8.9805 4.6836 1.5625 7.0234 2.8633 7.0234 3.9023 0 1.043-1.1719 3.6445-3.5117 7.8086-2.3398 4.168-4.293 7.1602-5.8516 8.9805-1.5625 1.8242-3.5117 3.3867-5.8555 4.6875-2.3398 1.3008-4.9375 1.9531-7.8008 1.9531s-4.9414-0.65234-6.2422-1.9531c-1.3047-1.3008-2.6016-3.5156-3.9023-6.6367-1.3047-3.125-1.8203-5.4688-1.5625-7.0312 0.25781-1.5586 0.13281-2.7305-0.39063-3.5117-0.52344-0.78125-0.39062-2.2148 0.39063-4.2969 0.39062-1.0391 0.78125-2.082 1.1719-3.1211h-1.5625v-3.9062c0-2.6016 0.25781-4.9453 0.78125-7.0273 0.52344-2.082 1.0391-3.125 1.5625-3.125h0.77734c-0.13281-0.39062-0.25781-0.78125-0.39062-1.1719-0.13281-0.39062-0.25391-0.78125-0.38672-1.1719zm-206.02 7.8125c1.168 0.64844 2.3398 1.3008 3.5117 1.9492 2.3398 1.3047 4.6797 3.5156 7.0234 6.6406 1.168 1.5586 2.3398 3.1211 3.5117 4.6836-2.3438-2.2109-4.6836-4.4258-7.0234-6.6367-2.3438-2.2148-4.6836-4.4258-7.0234-6.6367zm679.69 0.38672c0.25781 0.13281 0.52344 0.26172 0.78125 0.39062-0.25781 0.26172-0.52344 0.52344-0.78125 0.78125-0.51953 0.52344-2.9883 2.6055-7.4102 6.25-2.2109 1.8203-4.4258 3.6445-6.6328 5.4648 2.207-2.2109 4.4219-4.4258 6.6328-6.6367 4.4219-4.4258 6.8906-6.5078 7.4102-6.25zm-879.46 10.543c2.2109 1.4336 4.4219 2.8633 6.6328 4.2969 2.2109 1.4297 4.4219 2.8633 6.6328 4.293-0.91016-0.25781-1.8203-0.51953-2.7305-0.77734-1.8203-0.52344-4.0312-1.9531-6.6328-4.2969-1.3008-1.1719-2.6016-2.3438-3.9023-3.5156zm1078.5 0c-0.38672 0.65234-0.77734 1.3047-1.168 1.9531-0.78125 1.3008-2.6016 2.6016-5.4648 3.9062-1.4258 0.64844-2.8633 1.3008-4.2891 1.9531 1.8164-1.3047 3.6445-2.6055 5.4609-3.9062 1.8164-1.3008 3.6445-2.6016 5.4609-3.9062zm-292.63 4.6875-1.1719 2.3438c-0.78125 1.5586-2.082 2.8633-3.9023 3.9023-0.91406 0.52344-1.8164 1.043-2.7305 1.5625 1.3047-1.3008 2.5977-2.6016 3.9023-3.9062 1.3008-1.3008 2.5977-2.6016 3.9023-3.9023zm95.984 0c-1.9531 1.9531-9.7539 9.7617-11.707 11.715 1.9531-1.9531 9.7539-9.7617 11.707-11.715zm-683.6 0.78125c1.9531 1.9531 9.7539 9.7617 11.707 11.711-1.9531-1.9492-9.7539-9.7578-11.707-11.711zm129.54 3.1211c0.13281 0.26172 0.25781 0.52344 0.39062 0.78125 0.25781 0.52344 0 1.4336-0.78125 2.7344-0.77734 1.3008-1.9492 2.4727-3.5117 3.5156-0.77734 0.51953-1.5586 1.0391-2.3398 1.5586 1.0391-1.4297 2.0859-2.8633 3.1211-4.293 1.0391-1.4297 2.0859-2.8633 3.1211-4.2969zm110.03 0.78125c0.13281 0.26172 0.25781 0.52344 0.39062 0.78125 0.25781 0.52344-0.13281 1.8242-1.1719 3.9062-1.0352 2.082-2.8633 4.293-5.4609 6.6367-1.3047 1.1719-2.5977 2.3438-3.9023 3.5156 1.0391-1.1719 2.0859-2.3438 3.1211-3.5156 2.0859-2.3438 3.7695-4.8164 5.0742-7.418 0.64844-1.3008 1.3008-2.6016 1.9492-3.9062zm651.6 0.78125c-0.78125 1.043-1.5586 2.082-2.3398 3.125-1.5625 2.082-3.9023 4.0352-7.0234 5.8555-1.5625 0.91406-3.1211 1.8242-4.6836 2.7344 2.3438-1.9531 11.707-9.7617 14.047-11.715zm-1099.5 0.78125c2.6016 1.9531 5.2031 3.9062 7.8047 5.8594 2.5977 1.9492 5.1992 3.9023 7.8008 5.8555-1.3008-0.65234-2.6016-1.3008-3.9023-1.9531-2.5977-1.3008-5.1992-3.2539-7.8008-5.8555-1.3008-1.3047-2.6016-2.6055-3.9023-3.9062zm558.74 4.6875c-0.39062 0.91016-0.78125 1.8203-1.1719 2.7305-0.78125 1.8242-1.8164 3.125-3.1211 3.9062-0.64844 0.39062-1.3008 0.78125-1.9492 1.1719 1.0352-1.3008 2.082-2.6055 3.1211-3.9062 1.0391-1.3008 2.082-2.6016 3.1211-3.9023zm-212.65 53.102h2.7305c-0.25781 2.8633-0.52344 5.7266-0.78125 8.5898-0.52344 5.7266-1.6914 12.234-3.5117 19.523-1.8164 7.2891-4.0312 13.145-6.6328 17.57-2.5977 4.4258-5.5938 8.0703-8.9727 10.934s-7.4141 5.0742-12.098 6.6367c-4.6797 1.5625-8.8398 2.3438-12.484 2.3438-3.6445 0-7.0234-0.91406-10.145-2.7344-3.1211-1.8203-5.5938-4.5547-7.4141-8.1992-1.8164-3.6445-2.9883-7.5508-3.5117-11.715-0.25781-2.082-0.52344-4.1641-0.78125-6.2461h1.5625v-2.7344c0-1.8203 0.39062-2.9922 1.1719-3.5117 0.77734-0.52344 1.3008-1.4336 1.5586-2.7344 0.25781-1.3008 0.78125-2.082 1.5625-2.3438 0.78125-0.25781 1.5586-1.1719 2.3398-2.7344 0.78125-1.5586 3.6445-3.9023 8.5859-7.0273 4.9375-3.1211 10.402-5.5977 16.387-7.418 5.9844-1.8203 8.9727-3.125 8.9727-3.9062v-1.168c0.52344 0.25781 1.0391 0.51953 1.5625 0.77734 1.0352 0.52344 4.1562 0 9.3633-1.5586 5.2031-1.5625 8.7148-2.3438 10.535-2.3438zm-1.1719 37.484c-0.13281 1.0391-0.25781 2.082-0.39063 3.1211-0.25781 2.0859-1.168 4.168-2.7305 6.25-0.78125 1.0391-1.5586 2.082-2.3398 3.1211 0.91406-2.082 1.8164-4.1641 2.7305-6.2461 0.91406-2.082 1.8203-4.1641 2.7305-6.2461zm405.4 7.418c-3.3789 4.4258-4.8164 8.0703-4.293 10.934 0.52344 2.8633 1.4297 5.0742 2.7305 6.6367 1.3047 1.5625 3.3828 2.9922 6.2461 4.2969 2.8633 1.3008 5.9844 2.2109 9.3633 2.7305 3.3789 0.52344 6.2422 0.39062 8.582-0.39062 2.3438-0.78125 4.4258-2.4727 6.2461-5.0742 1.8164-2.6016 2.3398-5.207 1.5586-7.8086-0.78125-2.6055-3.3789-5.7266-7.8047-9.3711-4.4219-3.6445-8.4492-5.9883-12.094-7.0273-3.6445-1.043-7.1562 0.64844-10.535 5.0742zm-727.69 15.617c-4.6797 2.3438-9.2344 5.7266-13.656 10.152s-8.7148 10.023-12.875 16.789c-4.1602 6.7695-8.1953 16.012-12.098 27.723-3.8984 11.715-7.2812 25.25-10.145 40.609-2.8594 15.359-4.2891 28.371-4.2891 39.047 0 10.676 1.0391 20.047 3.1211 28.113 2.082 8.0664 4.293 14.055 6.6328 17.961 2.3398 3.9023 4.8125 7.1602 7.4141 9.7617 2.6016 2.5977 5.0703 4.6836 7.4141 6.2461 2.3398 1.5625 4.8125 2.7344 7.4102 3.5156 2.6016 0.77734 7.0234 1.0352 13.27 0.77734 6.2422-0.25391 10.402-0.77734 12.484-1.5586s4.4219-2.2109 7.0234-4.2969c2.6016-2.0859 6.5039-7.6758 11.703-16.789 5.2031-9.1133 8.9766-16.922 11.316-23.43 1.1719-3.2539 2.3398-6.5039 3.5117-9.7578 1.0391 3.1211 2.082 6.2461 3.1211 9.3711 2.082 6.2461 4.4219 11.453 7.0234 15.617 2.6016 4.1602 5.7227 7.6758 9.3633 10.543 3.6445 2.8633 8.1953 4.5508 13.656 5.0742 5.4648 0.52344 10.406 0.13281 14.828-1.1719s7.8047-3.1211 10.145-5.4648 5.0742-6.2461 8.1953-11.715c3.1211-5.4648 5.5938-10.676 7.4141-15.617 1.8203-4.9453 2.9883-7.418 3.5117-7.418 0.51953 0 0.91016 1.0391 1.168 3.1211 0.26172 2.0859 0.78125 3.2578 1.5625 3.5156s1.0391 1.3047 0.78125 3.125c-0.26172 1.8164 0 4.293 0.77734 7.418 0.78125 3.1211 2.3438 8.0664 4.6836 14.836s3.9023 10.543 4.6836 11.324c0.77734 0.78125 1.4258 1.0391 1.9492 0.78125 0.25781-0.13281 0.52344-0.25781 0.78125-0.39062 0.25781 0.52344 0.52344 1.0391 0.78125 1.5625 0.25391 0.52344 0.51953 1.0391 0.77734 1.5625 0.52344-0.25781 1.0391-0.52344 1.5625-0.78125 1.0391-0.52344 2.207-0.64844 3.5117-0.39062 1.3008 0.25781 2.3398 0 3.1211-0.78125l1.1719-1.1719c0.38672 0.52344 0.77734 1.0391 1.168 1.5625 0.39062 0.52344 0.78125 1.0391 1.1719 1.5625 0.13281-0.64844 0.25781-1.3047 0.39063-1.9531 0.13281-0.64844 0.25781-1.3047 0.39062-1.9531 0.39063 0.13281 0.77734 0.25781 1.168 0.39062s0.78125 0.25781 1.1719 0.39062c-0.13281-1.5625-0.25781-3.125-0.39062-4.6875-0.25781-3.1211-0.64844-4.6836-1.1719-4.6836h-0.77734c0.25781-0.39062 0.52344-0.78125 0.77734-1.1719 0.52344-0.78125 0.52344-1.5625 0-2.3438-0.51953-0.78125-0.38672-3.3789 0.39062-7.8086 0.78125-4.4258 1.0391-7.418 0.78125-8.9805-0.13281-0.78125-0.25781-1.5625-0.39062-2.3438 0.25781 0.13281 0.52344 0.25781 0.78125 0.39062 0.25781 0.13281 0.52344 0.25781 0.78125 0.39062 0.13281-0.25781 0.25781-0.52344 0.39062-0.78125 0.25781-0.52344 1.8164-5.4648 4.6797-14.836s4.1602-14.312 3.9023-14.836c-0.13281-0.25781-0.25781-0.52344-0.39062-0.78125-0.25781 0.52344-0.52344 1.0391-0.78125 1.5625-0.25391 0.51953-0.51953 1.0352-0.77734 1.5586v-1.5586c0-1.0391 0.77734-3.7734 2.3398-8.2031 1.5625-4.4258 2.5977-6.8945 3.1211-7.418 0.25781-0.25781 0.52344-0.52344 0.78125-0.78125v1.1719c0 0.78125-0.64844 2.7344-1.9531 5.8594-1.3008 3.1211-1.8164 4.9414-1.5586 5.4648 0.13281 0.25781 0.25781 0.52344 0.39063 0.78125 2.5977-6.7695 5.2031-13.535 7.8047-20.305 5.2031-13.531 9.8867-24.34 14.043-32.406 4.1602-8.0703 8.1953-14.707 12.098-19.914 1.9492-2.6055 3.9023-5.207 5.8516-7.8086 0.25781 2.6016 0.52344 5.2031 0.78125 7.8086 0.52344 5.207-0.39062 23.426-2.7305 54.664-2.3438 31.234-2.9883 53.102-1.9531 65.598 1.0391 12.492 1.8203 19.391 2.3438 20.691 0.52344 1.3047 1.168 1.8203 1.9492 1.5625 0.78125-0.25781 1.6953 0.52344 2.7305 2.3438 0.52344 0.91406 1.0391 1.8203 1.5625 2.7344 0.52344-0.52344 1.0391-1.0391 1.5586-1.5625 1.0391-1.0391 1.9531-1.5625 2.7344-1.5625h1.168c-0.13281 0.25781-0.25781 0.52344-0.39062 0.78125-0.13281 0.25781-0.25781 0.52344-0.39062 0.78125 1.0391-0.25781 2.0859-0.52344 3.125-0.78125 1.0352-0.25781 2.082-0.52344 3.1211-0.78125v4.6875c0.52344-0.78125 1.0352-1.5625 1.5586-2.3438 0.52344-0.78125 1.0391-1.5625 1.5625-2.3438v3.125c0.39062-0.25781 0.78125-0.52344 1.168-0.78125 0.78125-0.52344 2.4766-8.0664 5.0742-22.648 2.5977-14.578 6.7656-29.543 12.484-44.902 5.7227-15.359 12.488-31.102 20.289-47.246 7.8047-16.137 12.746-25.77 14.828-28.895 2.082-3.1211 4.4258-5.8555 7.0234-8.1992 2.5977-2.3398 4.293-3.3828 5.0742-3.1211 0.77734 0.25781 1.3008 4.1641 1.5586 11.711 0.25781 7.5508-0.78125 19.785-3.1211 36.703-2.3398 16.926-3.7695 30.59-4.293 41-0.52344 10.41 0 19.656 1.5625 27.723 1.5586 8.0664 4.0352 14.188 7.4141 18.352 3.3789 4.1602 7.2773 6.8945 11.703 8.1992 4.4258 1.3047 8.1953 1.9531 11.316 1.9531 3.1211 0 5.5938-0.39062 7.4141-1.1719 1.8164-0.78125 4.2891-2.7344 7.4141-5.8555 3.1211-3.125 6.1094-7.0312 8.9727-11.715 2.8633-4.6875 4.9414-8.9805 6.2422-12.887 1.3047-3.9023 2.207-5.8555 2.7305-5.8555s1.8203 2.2109 3.9023 6.6367c2.0859 4.4297 5.4648 8.9805 10.145 13.668 4.6836 4.6836 9.4961 8.1992 14.438 10.543 4.9414 2.3398 10.402 3.6445 16.387 3.9023 5.9883 0.25781 11.316-0.91406 16-3.5156 4.6797-2.5977 8.582-5.5977 11.703-8.9805 3.1211-3.3789 6.5-7.8086 10.145-13.273 1.8203-2.7344 3.6445-5.4688 5.4648-8.1992 1.0352 2.9883 2.082 5.9883 3.1211 8.9805 2.082 5.9883 4.6797 10.676 7.8008 14.055 3.125 3.3828 6.6367 6.5078 10.535 9.3711 3.9023 2.8672 8.7188 5.2109 14.438 7.0312 5.7188 1.8164 11.84 2.7305 18.34 2.7305s11.445-0.78125 14.824-2.3438c3.3789-1.5586 6.6367-3.9023 9.7578-7.0273 3.1211-3.1211 8.0586-10.543 14.824-22.254 6.7656-11.715 12.621-25.125 17.559-40.219 4.9414-15.094 8.8438-30.457 11.707-46.074 2.8633-15.617 10.402-24.859 22.629-27.723 12.23-2.8633 22.766-4.6836 31.605-5.4648 4.4258-0.39062 8.8398-0.78125 13.266-1.1719-0.13281 2.6016-0.25781 5.207-0.39062 7.8086-0.25781 5.207-2.207 13.273-5.8516 24.207-3.6445 10.934-8.3281 21.734-14.047 32.41-5.7188 10.676-10.402 18.742-14.047 24.207-3.6445 5.4688-7.8047 14.191-12.484 26.16-2.3438 5.9922-4.6836 11.973-7.0234 17.961 0.52344-0.39062 1.0352-0.78125 1.5586-1.1719 0.52344-0.39062 1.0391-0.77734 1.5625-1.168-0.25781 0.64844-0.52344 1.3008-0.78125 1.9492-0.25781 0.64844-0.52344 1.3047-0.78125 1.9531h6.2461c4.1562 0 6.6328 0.25781 7.4102 0.78125 0.78125 0.52344 1.8203 0.52344 3.1211 0 1.3047-0.52344 3.125-2.2109 5.4648-5.0742 2.3398-2.8672 5.2031-5.3359 8.582-7.4219 3.3789-2.082 8.1953-4.1602 14.438-6.2461 6.2422-2.0859 11.059-3.125 14.438-3.125s5.5938 1.4297 6.6328 4.2969c1.0391 2.8672 1.5625 5.9883 1.5625 9.3711 0 3.3828-1.3047 10.285-3.9023 20.695-2.6016 10.41-7.5469 18.609-14.828 24.598s-14.57 11.324-21.852 16.008c-7.2773 4.6875-23.668 14.059-49.16 28.113-25.496 14.059-38.238 21.344-38.238 21.867v0.78125h-1.1719c-0.78125 0-3.6445 1.8203-8.582 5.4648-4.9414 3.6484-9.5 7.5508-13.656 11.715-4.1602 4.1602-7.2812 8.0664-9.3672 11.715-2.082 3.6445-3.5117 7.0273-4.2891 10.152-0.78125 3.1211-0.91406 7.418-0.39062 12.883 0.52344 5.4688 2.207 10.41 5.0703 14.84 2.8633 4.4258 6.8906 8.1992 12.098 11.32 5.2031 3.125 12.227 5.0781 21.07 5.8594 8.8398 0.78125 16.254 0.39062 22.238-1.1719s12.355-4.1641 19.121-7.8086c6.7656-3.6484 12.742-7.2891 17.945-10.934 5.207-3.6484 12.488-9.7617 21.852-18.352s16.91-16.398 22.629-23.43c5.7227-7.0273 11.316-14.836 16.777-23.426 5.4648-8.5898 10.535-17.961 15.219-28.113s8.3281-20.305 10.926-30.457c2.5977-10.152 6.2422-17.047 10.926-20.691 4.6797-3.6484 9.7539-8.3359 15.215-14.059 5.4648-5.7227 10.535-11.582 15.219-17.57 4.6797-5.9883 8.582-11.582 11.703-16.789 3.1211-5.2109 4.9414-7.8086 5.4648-7.8086s1.3008 1.9492 2.3398 5.8555c1.0391 3.9062 2.7305 7.8086 5.0742 11.715 2.3398 3.9023 5.4609 7.5508 9.3633 10.934 3.9023 3.3789 7.8047 6.1133 11.703 8.1992 3.9023 2.082 7.1562 3.5117 9.7578 4.293 2.5977 0.78125 8.1914 0.78125 16.777 0 8.582-0.78125 14.305-2.3438 17.168-4.6836 2.8633-2.3438 5.9844-6.6406 9.3633-12.887 1.6953-3.125 3.3789-6.2461 5.0742-9.3711 3.1211 5.2109 6.2422 10.41 9.3633 15.617 6.2422 10.41 10.535 16.402 12.875 17.961 2.3398 1.5625 4.9414 2.2109 7.8047 1.9531 2.8633-0.25781 4.4219-0.78125 4.6797-1.5625 0.25781-0.77734 0.78125-1.168 1.5625-1.168s1.4297 0.51953 1.9492 1.5586c0.25781 0.52344 0.52344 1.0391 0.78125 1.5625 0.25781-0.39062 0.52344-0.78125 0.78125-1.1719 0.52344-0.78125 1.1719-1.0391 1.9492-0.78125 0.39063 0.13281 0.78125 0.25781 1.1719 0.39062 0.25781-2.082 0.52344-4.1602 0.78125-6.2461 0.52344-4.1602 0.39062-10.801-0.39063-19.914-0.78125-9.1133-0.91406-14.969-0.39062-17.57 0.25781-1.3047 0.52344-2.6016 0.78125-3.9023 0.25781 0.39062 0.52344 0.77734 0.78125 1.168 0.25391 0.39062 0.51953 0.78125 0.77734 1.1719-0.13281-0.91406-0.25781-1.8164-0.39062-2.7305-0.13281-0.91406-0.25391-1.8203-0.38672-2.7344 0.25391 0.25781 1.3008 1.3047 1.5586 1.5625-0.13281-0.91406-0.25781-1.8203-0.39062-2.7344-0.13281-0.91406-0.25781-1.8203-0.39062-2.7344 0.25781 0.13281 0.52344 0.25781 0.78125 0.39062 0.25781 0.13281 0.52344 0.25781 0.78125 0.39062v-7.8086c0.25781 0.25781 1.3047 1.3047 1.5586 1.5625 0.13281-0.39062 0.25781-0.78125 0.39062-1.1719 0.25781-0.78125 0.25781-1.9531 0-3.5156-0.13281-0.77734-0.25781-1.5586-0.39062-2.3398 0.25781 0.25781 1.3047 1.3047 1.5625 1.5625 0.13281-0.39062 0.25781-0.78125 0.39062-1.1719 0.25781-0.78125 0.25781-1.9531 0-3.5156-0.13281-0.78125-0.25781-1.5625-0.39062-2.3438 0.25781 0.25781 1.3047 1.3047 1.5625 1.5625 1.5586-4.1602 3.1211-8.332 4.6797-12.496 3.1211-8.332 7.5469-17.312 13.266-26.941 5.7227-9.6289 10.402-16.266 14.047-19.91 3.6445-3.6445 7.5469-6.8984 11.707-9.7617 4.1602-2.8633 6.6328-4.2969 7.4141-4.2969h1.168v5.0781c0 3.3828-1.0352 14.707-3.1211 33.969-2.082 19.266-3.2539 33.578-3.5117 42.949-0.25781 9.3711 0.52344 18.352 2.3438 26.941 1.8164 8.5898 3.5117 14.316 5.0703 17.18 1.5625 2.8672 3.5117 5.4688 5.8516 7.8125 2.3438 2.3398 4.6836 4.293 7.0234 5.8555 2.3438 1.5625 5.207 2.7344 8.5859 3.5156 3.3789 0.77734 8.582 0.91016 15.605 0.38672 7.0234-0.51953 11.84-1.5586 14.438-3.1211 2.5977-1.5625 5.5938-4.0391 8.9727-7.418 3.3789-3.3828 6.1133-6.7734 8.1953-10.152 2.082-3.3828 3.6445-6.6406 4.6836-9.7617 0.51953-1.5625 1.0352-3.125 1.5586-4.6875 2.4727 2.4766 4.9414 4.9453 7.4141 7.418 4.9414 4.9453 8.8398 8.2031 11.707 9.7617 2.8633 1.5625 6.2422 2.8672 10.145 3.9062 3.9023 1.0391 10.012 1.1719 18.336 0.39062 8.3281-0.78125 13.137-1.8203 14.438-3.125 1.3047-1.3047 2.3398-1.9531 3.1211-1.9531s2.5977-1.4258 5.4648-4.293c2.8633-2.8672 4.4219-4.8203 4.6797-5.8555 0.25781-1.0391 0.64844-1.5625 1.1719-1.5625h0.78125v3.1211c0 2.0859-0.91406 11.066-2.7344 26.945-1.8164 15.875-8.582 23.684-20.289 23.426-11.703-0.25781-24.191 0.91406-37.457 3.5156-13.266 2.5977-23.277 5.0742-30.043 7.418-6.7656 2.3438-13.789 5.332-21.07 8.9805-7.2812 3.6445-13.656 7.2852-19.117 10.934-5.4648 3.6445-10.535 7.6758-15.219 12.102-4.6797 4.4297-8.8398 9.1133-12.484 14.059-3.6445 4.9414-6.5 9.5039-8.5859 13.664-2.082 4.1641-3.8984 9.3711-5.4609 15.621-1.5625 6.2461-2.082 13.531-1.5625 21.863 0.52344 8.332 1.6953 14.582 3.5117 18.742 1.8203 4.1641 3.9023 7.6758 6.2461 10.543 2.3398 2.8672 6.7656 6.3789 13.266 10.543 6.5 4.1602 13.008 7.1602 19.508 8.9805s13.914 2.7344 22.242 2.7344c8.3242 0 14.824-0.39062 19.508-1.1719 4.6797-0.78125 10.277-2.0859 16.777-3.9062s13.008-4.293 19.508-7.418 13.398-7.5508 20.68-13.277c7.2812-5.7227 14.961-13.797 23.023-24.207 8.0586-10.41 14.434-20.953 19.117-31.629 4.6836-10.672 8.9727-23.559 12.875-38.652 3.9023-15.098 6.5-22.516 7.8047-22.258 1.3047 0.25781 3.3789 1.4297 6.2422 3.5156 2.8633 2.082 6.6328 5.9883 11.316 11.711 4.6797 5.7266 8.582 12.629 11.703 20.695 3.1211 8.0664 5.5977 16.922 7.4141 26.551 1.8203 9.6289 2.9883 14.973 3.5117 16.012 0.52344 1.0352 1.4297 1.3008 2.7305 0.77734 0.64844-0.25391 1.3047-0.51953 1.9531-0.77734 0.13281 0.52344 0.25781 1.0352 0.39063 1.5586 0.13281 0.52344 0.25781 1.0391 0.39062 1.5625 0.51953-0.13281 1.0352-0.25781 1.5586-0.39063 1.0391-0.25781 0.64844-5.9883-1.1719-17.18-1.8164-11.191-4.8125-21.863-8.9727-32.016s-8.582-18.094-13.266-23.82c-4.6836-5.7227-9.7539-10.285-15.219-13.664-5.4609-3.3828-7.8008-7.8086-7.0234-13.277 0.78125-5.4648 1.1719-15.484 1.1719-30.066 0-14.578-0.25781-28.891-0.78125-42.949-0.51953-14.055-1.0352-21.609-1.5586-22.645-0.52344-1.0391-0.64844-3.7734-0.39062-8.2031 0.25781-4.4258 0-7.5508-0.78125-9.3711-0.78125-1.8164-0.52344-4.293 0.78125-7.418 1.3047-3.1211 1.9492-6.1133 1.9492-8.9805 0-2.8633-0.51953-5.9883-1.5586-9.3711-1.0391-3.3828-2.7305-7.0273-5.0742-10.934-2.3398-3.9023-5.0703-7.418-8.1914-10.539-3.1211-3.125-6.6328-5.8594-10.535-8.2031-3.9023-2.3398-8.4531-4.4219-13.656-6.2461-5.207-1.8203-10.926-2.8633-17.168-3.125-6.2422-0.25781-10.793 0-13.656 0.78125-2.8633 0.78125-6.1133 2.2148-9.7539 4.2969-3.6445 2.082-7.2812 4.9453-10.926 8.5898-3.6445 3.6445-7.1562 8.0703-10.535 13.277-3.3789 5.2031-6.375 11.191-8.9766 17.961-2.5977 6.7695-4.6797 13.797-6.2422 21.082-1.5586 7.2891-2.207 14.707-1.9492 22.258 0.25781 7.5508-0.39062 13.273-1.9531 17.18-1.5586 3.9062-3.8984 8.5898-7.0234 14.055-3.1211 5.4688-6.6328 9.8945-10.531 13.277-3.9023 3.3828-7.2812 5.5977-10.148 6.6367-2.8633 1.0391-4.6797 1.0391-5.4609 0-0.78125-1.0391-1.1719-4.8164-1.1719-11.32 0-6.5078 0.78125-16.012 2.3438-28.504 1.5586-12.496 2.207-26.809 1.9492-42.953-0.25781-16.137-1.5586-27.852-3.9023-35.141-2.3398-7.2891-5.0703-12.625-8.1914-16.008-3.1211-3.3828-6.8906-6.1172-11.316-8.1992s-9.2305-3.2539-14.438-3.5156c-5.2031-0.25781-10.277 0.91016-15.215 3.5156-4.9414 2.6016-9.8867 6.6367-14.828 12.102-4.9414 5.4688-8.7188 10.285-11.316 14.449-2.5977 4.1641-5.4609 9.8906-8.582 17.18s-5.7227 14.703-7.8047 22.258c-1.0391 3.7695-2.082 7.5508-3.1211 11.32-0.13281-1.5586-0.25781-3.1211-0.39062-4.6836-0.25781-3.125 0-7.8086 0.78125-14.059 0.78125-6.2461 1.9492-13.273 3.5117-21.082 1.5586-7.8086 2.9883-13.406 4.293-16.789 1.3008-3.3867 1.9492-6.25 1.9492-8.5938v-3.5117c-0.39062 0.64844-0.78125 1.3008-1.1719 1.9531-0.39062 0.64844-0.77734 1.3008-1.168 1.9492v-3.1211c0-2.082-2.4766-3.9062-7.4141-5.4688-4.9414-1.5586-9.3633-1.5586-13.266 0-3.9023 1.5625-7.5469 4.4258-10.926 8.5898-3.3789 4.168-6.5 8.9805-9.3633 14.449-2.8672 5.4648-5.332 11.715-7.4141 18.742-2.0859 7.0273-3.6445 14.445-4.6836 22.254-1.0391 7.8125-3.6445 17.051-7.8047 27.723-4.1562 10.676-8.1914 19.133-12.094 25.383-3.9023 6.2461-7.4141 10.406-10.535 12.492-3.1211 2.0859-5.8516 1.8203-8.1953-0.78125-2.3398-2.5977-4.0312-5.332-5.0703-8.1992-1.0391-2.8633-2.207-8.8477-3.5117-17.961-1.3047-9.1133-2.082-21.73-2.3398-37.875-0.25781-16.137-0.13281-29.934 0.38672-41.387 0.52344-11.453-0.25391-18.352-2.3398-20.695-2.082-2.3438-3.6445-3.3828-4.6797-3.125-0.52344 0.13281-1.0391 0.26172-1.5625 0.39062v-1.1719c0-0.77734-0.52344-1.3008-1.5625-1.5586-1.0352-0.26172-2.082 0.12891-3.1211 1.1719-0.52344 0.51953-1.0352 1.0391-1.5586 1.5586 0.13281-0.51953 0.25781-1.0391 0.39062-1.5586 0.13281-0.52344 0.25781-1.043 0.39062-1.5625-0.64844-0.13281-1.3047-0.26172-1.9531-0.39062-1.3008-0.26172-2.8633 0.64844-4.6836 2.7305-1.8164 2.0859-3.7656 5.8594-5.8516 11.324-2.082 5.4688-4.0352 14.188-5.8516 26.16-1.8203 11.977-3.2539 19.133-4.293 21.477-1.0391 2.3438-5.4609 10.676-13.266 24.988-7.8047 14.316-14.047 24.859-18.73 31.629-4.6797 6.7695-8.7148 11.973-12.094 15.617-1.6914 1.8203-3.3789 3.6484-5.0742 5.4688-0.77734-2.2109-1.5586-4.4297-2.3398-6.6406-1.5586-4.4258-3.9023-8.332-7.0234-11.711-3.1211-3.3828-7.5469-6.3828-13.266-8.9805-5.7188-2.6016-10.535-3.9062-14.438-3.9062h-5.8516c2.5977-3.7734 5.207-7.5508 7.8047-11.324 5.2031-7.5508 10.402-16.922 15.605-28.113 5.207-11.191 8.7188-21.215 10.535-30.062 1.8203-8.8516 2.207-15.621 1.1719-20.305-1.0391-4.6875-3.5117-9.3711-7.4141-14.059-3.9023-4.6836-8.9727-8.8477-15.219-12.492-6.2422-3.6445-11.57-5.9883-15.996-7.0312-4.4258-1.0391-10.145-1.3008-17.168-0.78125-7.0234 0.52344-13.523 1.6953-19.508 3.5156-5.9883 1.8203-10.926 3.7734-14.828 5.8555-3.9023 2.0859-6.6328 3.9062-8.1953 5.4688-1.5586 1.5625-2.8633 2.3438-3.8984 2.3438-1.0391 0-2.9922 4.4258-5.8555 13.273-2.8633 8.8516-5.7188 16.531-8.582 23.039-2.8633 6.5078-6.375 16.531-10.535 30.062-4.1602 13.535-8.0625 24.211-11.707 32.02-3.6445 7.8086-7.5469 14.703-11.703 20.695-4.1602 5.9883-7.9375 10.676-11.316 14.055-3.3789 3.3828-6.2422 5.7266-8.5859 7.0273-2.3398 1.3047-4.1562 1.9531-5.4609 1.9531-1.3047 0-2.7305-1.9531-4.293-5.8555-1.5586-3.9062-2.3398-9.6289-2.3398-17.18 0-7.5547 1.0391-16.926 3.1211-28.113 2.0859-11.191 5.4648-25.516 10.145-42.953 4.6836-17.438 7.1562-27.461 7.4141-30.062 0.13281-1.3047 0.25781-2.6055 0.39062-3.9062-0.52344 0.91016-1.0391 1.8203-1.5625 2.7344-0.52344 0.91016-1.0352 1.8203-1.5586 2.7305 0.25781-2.4727 0.52344-4.9453 0.78125-7.418 0.25391-2.4727 0.51953-4.9453 0.77734-7.418-0.25781 0.26172-0.52344 0.51953-0.77734 0.78125-0.25781 0.26172-0.52344 0.51953-0.78125 0.78125-0.39063-0.78125-0.78125-1.5625-1.1719-2.3438-0.78125-1.5625-1.5586-2.2109-2.3398-1.9531-0.78125 0.26172-3.7695 6.5078-8.9766 18.742-2.5977 6.1172-5.2031 12.234-7.8008 18.352 1.8164-4.5547 3.6445-9.1094 5.4609-13.664 3.6445-9.1133 5.5938-14.84 5.8516-17.18 0.25781-2.3438 0.78125-3.9062 1.5625-4.6875s1.1719-1.4297 1.1719-1.9531c0-0.51953-0.52344-0.91016-1.5625-1.168-1.0391-0.26172-5.3281 6.2461-12.875 19.52-3.7695 6.6406-7.5469 13.277-11.316 19.914 0.64844-1.9531 1.3047-3.9023 1.9531-5.8555 1.3008-3.9062 3.8984-9.1094 7.8008-15.617 3.9023-6.5078 6.5-11.457 7.8047-14.84 0.64844-1.6914 1.3047-3.3828 1.9492-5.0742-0.51953 0.12891-1.0352 0.25781-1.5586 0.39062-1.0391 0.25781-2.7305 1.5625-5.0742 3.9023-2.3398 2.3438-5.7188 7.0312-10.145 14.059-2.207 3.5117-4.4219 7.0273-6.6328 10.543-0.25781-1.8242-0.52344-3.6445-0.78125-5.4688-0.51953-3.6445-1.4258-6.8984-2.7305-9.7617-1.3008-2.8633-4.2891-6.5078-8.9727-10.934-4.6836-4.4219-9.8867-7.8086-15.609-10.148-5.7188-2.3438-11.445-3.3867-17.168-3.125-5.7188 0.25781-10.664 1.1719-14.824 2.7344-4.1602 1.5586-8.4531 3.9023-12.875 7.0273-4.4258 3.125-9.7578 8.4609-16 16.008-6.2422 7.5508-11.059 15.488-14.438 23.82-3.3789 8.3281-5.9844 17.312-7.8008 26.941-1.8203 9.6289-4.5508 19.133-8.1953 28.504-3.6445 9.3672-7.5469 18.094-11.707 26.16-4.1562 8.0664-7.2773 13.273-9.3633 15.617-2.082 2.3438-4.0352 3.9062-5.8516 4.6836-0.91406 0.39062-1.8203 0.78125-2.7305 1.1719-0.13281-3.6445-0.25781-7.2852-0.39062-10.93-0.25781-7.2891 0.91406-16.793 3.5117-28.504 2.5977-11.715 4.5469-23.43 5.8516-35.145 1.3047-11.711 1.5625-21.863 0.78125-30.453-0.78125-8.5898-2.5977-16.141-5.4648-22.648-2.8633-6.5078-6.5-11.582-10.922-15.227-4.4258-3.6445-8.0625-5.9883-10.926-7.0273-2.8633-1.043-5.9844-1.5625-9.3633-1.5625s-6.2461 0.51953-8.5859 1.5625c-2.3398 1.0391-5.5938 3.3828-9.7539 7.0273s-7.9375 7.9375-11.316 12.883c-3.3789 4.9492-7.1562 13.016-11.312 24.211-2.0859 5.5977-4.1602 11.191-6.2461 16.789-0.64453-5.207-1.3008-10.41-1.9492-15.617-1.3047-10.414-2.9883-18.484-5.0742-24.211-2.082-5.7266-4.2891-9.8906-6.6328-12.492-2.3398-2.6055-4.1562-3.9062-5.4609-3.9062h-1.9531c0.13281-0.25781 0.25781-0.51953 0.39062-0.78125 0.25781-0.51953-0.39062-1.3008-1.9492-2.3438-1.5625-1.0391-3.3789-1.9492-5.4609-2.7305-2.0859-0.78125-4.9414-0.91406-8.5859-0.39062-3.6445 0.51953-7.1562 2.3438-10.535 5.4648-3.3789 3.125-7.5469 9.2422-12.484 18.352-4.9414 9.1133-10.402 21.996-16.387 38.656-2.9922 8.332-5.9883 16.656-8.9766 24.988 0.52344-7.5508 1.0391-15.094 1.5625-22.645 1.0352-15.098 2.4727-26.293 4.2891-33.582 1.8203-7.2852 4.1602-14.707 7.0234-22.254 2.8672-7.5508 4.1602-11.586 3.9023-12.105-0.13281-0.25781-0.25781-0.51953-0.39062-0.78125-0.25781 0.52344-0.52344 1.043-0.77734 1.5625-0.25781 0.51953-0.52344 1.043-0.78125 1.5625 0.13281-0.91016 0.25781-1.8242 0.39062-2.7344 0.13281-0.91016 0.25781-1.8203 0.39063-2.7344-0.25781 0.13281-0.52344 0.26172-0.78125 0.39062-0.52344 0.26172-1.1719-0.12891-1.9531-1.168-0.77734-1.043-1.5586-1.3047-2.3398-0.78125-0.39062 0.25781-0.78125 0.51953-1.1719 0.78125v-2.3438c-0.91016 0.25781-1.8164 0.51953-2.7305 0.78125-0.91406 0.25781-1.8164 0.51953-2.7305 0.78125v-2.3438h-1.5625c-1.0352 0-4.0312 2.9922-8.9727 8.9805-4.9375 5.9883-8.9727 12.496-12.094 19.523s-5.8555 15.746-8.1953 26.16c-2.3398 10.41-3.7734 20.438-4.293 30.066-0.51953 9.6289-2.2109 17.961-5.0703 24.988-2.8633 7.0273-6.6328 15.094-11.316 24.207s-8.3242 15.23-10.926 18.352c-2.6016 3.125-5.332 5.3359-8.1914 6.6406-1.4336 0.64844-2.8633 1.3008-4.293 1.9492-1.0391-3.2539-2.082-6.5039-3.1211-9.7617-2.082-6.5039-3.1211-16.789-3.1211-30.844 0-14.059 0.64844-24.988 1.9492-32.801 1.3008-7.8086 5.0742-21.605 11.316-41.387 6.2422-19.785 9.625-32.539 10.145-38.266 0.51953-5.7266 0.39063-9.3711-0.39062-10.934s-1.6914-2.8633-2.7305-3.9023c-1.043-1.043-2.082-1.5625-3.1211-1.5625h-1.5625v-1.5625h-1.1719c-0.77734 0-1.8203 0.91016-3.1211 2.7344-0.64844 0.91016-1.3008 1.8203-1.9492 2.7305 0.25781-1.0391 0.51953-2.082 0.78125-3.1211 0.25781-1.043 0.51953-2.082 0.77734-3.125h-1.5586c-1.0391 0-3.1211 2.7344-6.2422 8.1992-3.1211 5.4688-7.2852 14.059-12.488 25.77-2.5977 5.8594-5.1992 11.715-7.8008 17.57-1.1719-5.0742-2.3438-10.148-3.5117-15.227-2.3438-10.152-4.8125-17.832-7.4141-23.035-2.6016-5.207-6.1133-9.3711-10.535-12.496s-9.1055-4.9453-14.047-5.4648c-4.9414-0.52344-9.7539 0.39062-14.438 2.7305zm756.95-2.7305c0.12891 0.39062 0.25391 0.78125 0.38672 1.168 0.25781 0.78125-0.25781 1.9531-1.5586 3.5156-0.64844 0.78125-1.3047 1.5625-1.9531 2.3438 0.52344-1.1719 1.0391-2.3438 1.5625-3.5156s1.0391-2.3438 1.5625-3.5117zm-736.66 8.9805c1.5625 0.25781 3.3828 1.4297 5.4648 3.5117 2.082 2.082 4.2891 5.4688 6.6328 10.152 2.3398 4.6875 4.6797 11.844 7.0234 21.477 2.3398 9.6289 3.6406 17.828 3.9023 24.598 0.25781 6.7695-0.26172 12.234-1.5625 16.398-1.3008 4.1641-2.2109 8.5898-2.7305 13.277-0.51953 4.6836-2.9922 12.363-7.4141 23.035-4.4219 10.676-10.016 22-16.777 33.973-6.7656 11.969-12.227 19.914-16.387 23.816-2.082 1.9531-4.1641 3.9062-6.2422 5.8555-0.65234-1.6914-1.3047-3.3789-1.9531-5.0742-1.3008-3.3828-2.4727-8.332-3.5117-14.836-1.0391-6.5078-1.5586-14.449-1.5586-23.82s0.77734-21.996 2.3398-37.875c1.5586-15.879 3.5117-29.672 5.8516-41.387 2.3398-11.715 4.293-20.043 5.8516-24.988 1.5625-4.9453 3.6445-9.7617 6.2461-14.449 2.5977-4.6836 5.332-8.1992 8.1914-10.543 2.8633-2.3398 5.0742-3.3828 6.6328-3.1211zm-30.434 7.418c-2.6016 4.4258-5.2031 8.8477-7.8047 13.273-2.5977 4.4258-5.1992 8.8516-7.8008 13.277 0.78125-2.082 1.5586-4.1641 2.3398-6.2461 1.5625-4.168 4.1602-8.5898 7.8047-13.277 1.8203-2.3438 3.6406-4.6836 5.4609-7.0273zm16.387 0.78125c-1.6875 3.7734-3.3789 7.5469-5.0703 11.32-1.6914 3.7773-3.3828 7.5508-5.0742 11.324 0.39062-1.5625 0.78125-3.1211 1.1719-4.6836 0.78125-3.125 2.4727-6.8984 5.0742-11.324 1.3008-2.2109 2.5977-4.4258 3.8984-6.6367zm141.25 0.78125v1.5586c0 1.043-1.0352 2.8672-3.1211 5.4688-2.082 2.6016-4.8125 7.0273-8.1914 13.273-1.6953 3.125-3.3789 6.25-5.0742 9.3711 1.0391-2.6016 2.082-5.2031 3.1211-7.8086 2.082-5.207 4.1602-9.3711 6.2422-12.492 2.0859-3.125 3.6445-4.9453 4.6836-5.4688 1.0391-0.51953 1.6914-1.3008 1.9492-2.3438 0.13281-0.51953 0.25781-1.0391 0.39062-1.5586zm-148.27 4.6836c0.13281 0.26172 0.26172 0.51953 0.39062 0.78125 0.26172 0.51953-0.77734 3.125-3.1211 7.8086-1.168 2.3438-2.3398 4.6875-3.5117 7.0273 1.043-2.6016 2.082-5.2031 3.1211-7.8086 1.043-2.6016 2.082-5.207 3.1211-7.8086zm157.63 0c-1.5586 3.9062-7.8008 19.523-9.3633 23.43 1.5625-3.9062 7.8047-19.523 9.3633-23.43zm1.5625 2.3438v1.9531c0 1.3008-1.3047 4.9453-3.9023 10.93-1.3008 2.9961-2.5977 5.9883-3.9023 8.9844 1.3047-3.6445 2.6016-7.2891 3.9023-10.934 1.3047-3.6445 2.5977-7.2891 3.9023-10.934zm-169.34 3.9023c-0.64844 1.5625-1.3008 3.125-1.9492 4.6875s-1.3008 3.125-1.9492 4.6836c0.64844-1.5586 1.3008-3.1211 1.9492-4.6836s1.3008-3.125 1.9492-4.6875zm156.86 3.125c-0.78125 1.8242-1.5625 3.6445-2.3438 5.4688-0.77734 1.8203-1.5586 3.6445-2.3398 5.4648 0.78125-1.8203 1.5625-3.6445 2.3398-5.4648 0.78125-1.8242 1.5625-3.6445 2.3438-5.4688zm42.137 1.9531c0.25781 0.12891 0.52344 0.25781 0.78125 0.39062-1.8164 1.8203-3.6445 3.6445-5.4609 5.4648-1.8203 1.8242-3.6445 3.6445-5.4648 5.4688 0.25781-0.91406 0.52344-1.8242 0.78125-2.7344 0.52344-1.8203 2.0859-3.7734 4.6836-5.8555 2.5977-2.0859 4.1602-2.9961 4.6797-2.7344zm74.137 4.293v1.1719c0 0.78125-2.5977 4.4258-7.8047 10.934-2.5977 3.2539-5.2031 6.5078-7.8047 9.7617 0.91406-1.8203 1.8203-3.6445 2.7344-5.4648 1.8164-3.6445 4.4219-7.2891 7.8008-10.934 1.6953-1.8242 3.3789-3.6445 5.0742-5.4688zm-75.695 5.4688v1.1719c0 0.78125-1.0391 2.4727-3.1211 5.0742-1.0391 1.3008-2.0859 2.6016-3.1211 3.9062 1.0352-1.6914 2.082-3.3828 3.1211-5.0781 1.0352-1.6914 2.082-3.3828 3.1211-5.0742zm11.703 0c-2.4727 3.7734-4.9375 7.5469-7.4102 11.324-4.9414 7.5469-10.926 19.133-17.949 34.75-3.5117 7.8086-7.0234 15.617-10.535 23.426 1.1719-3.3789 2.3398-6.7695 3.5117-10.152 2.3398-6.7695 5.7188-14.703 10.145-23.816 4.4258-9.1094 8.3242-16.398 11.707-21.867 3.3789-5.4648 5.9844-9.1094 7.8008-10.93 0.91406-0.91406 1.8203-1.8242 2.7305-2.7344zm224.36 0c0.78125 0 1.9492 0.91016 3.5117 2.7344 1.5625 1.8203 3.1211 4.8125 4.6836 8.9805 1.5586 4.1641 3.2539 11.973 5.0703 23.426 1.8203 11.457 2.0859 19 0.78125 22.648-1.3047 3.6445-2.9883 7.0273-5.0742 10.148-2.082 3.125-5.0703 8.8477-8.9727 17.184-3.9023 8.332-7.9375 15.75-12.094 22.254-4.1602 6.5039-8.4531 11.848-12.879 16.008-4.4219 4.1641-8.3242 6.6406-11.703 7.4219s-6.2422-0.52344-8.5859-3.9062c-2.3398-3.3828-4.1602-8.0664-5.4609-14.055-1.3047-5.9922-1.5625-13.926-0.78125-23.82 0.78125-9.8945 2.207-19.133 4.293-27.723 2.082-8.5898 4.1602-15.617 6.2422-21.086 2.082-5.4648 4.9414-10.801 8.582-16.008 3.6445-5.207 7.8047-9.7617 12.488-13.664 4.6797-3.9062 8.9727-6.6406 12.875-8.1992 3.9023-1.5625 6.2422-2.3438 7.0234-2.3438zm-229.82 1.5625c-3.5117 6.375-7.0234 12.754-10.535 19.133-3.5117 6.375-7.0234 12.754-10.535 19.133 1.6953-3.6445 3.3789-7.2891 5.0742-10.934 3.3789-7.2891 6.8906-13.668 10.535-19.133 1.8164-2.7344 3.6445-5.4688 5.4609-8.1992zm183.39 1.5625v1.168c0 0.78125-2.7344 4.6875-8.1953 11.715-2.7305 3.5156-5.4609 7.0273-8.1953 10.543 0.78125-1.8203 1.5625-3.6445 2.3438-5.4648 1.5586-3.6445 4.2891-7.5508 8.1914-11.715 1.9531-2.082 3.9023-4.1641 5.8555-6.2461zm469 0c0.13281 0.25781 0.25781 0.51953 0.39062 0.77734 0.25781 0.52344-1.1719 4.9453-4.293 13.277-1.5625 4.1641-3.1211 8.3281-4.6836 12.496 0.13281-1.1719 0.25781-2.3438 0.39062-3.5156 0.25781-2.3438 1.6953-6.7695 4.293-13.277 1.3047-3.2539 2.5977-6.5039 3.9023-9.7578zm3.1211 0.77734c0.13281 0.52344 0.25781 1.043 0.39062 1.5625 0.25781 1.043-0.91406 5.207-3.5117 12.496-1.3047 3.6445-2.5977 7.2891-3.9023 10.934 1.1719-4.1641 2.3398-8.332 3.5117-12.496 1.1719-4.1641 2.3398-8.3281 3.5117-12.496zm-572.79 0.78125c-1.8203 2.7344-3.6445 5.4688-5.4648 8.1992-3.6406 5.4688-7.2773 11.715-10.922 18.742-3.6445 7.0312-8.5859 18.352-14.828 33.973-3.1211 7.8086-6.2422 15.617-9.3633 23.426 3.5117-8.9805 7.0234-17.961 10.535-26.941 7.0234-17.961 12.617-30.715 16.777-38.266 4.1602-7.5469 7.4141-12.625 9.7539-15.227 1.1719-1.3008 2.3398-2.6016 3.5117-3.9062zm-7.0234 3.125c-2.5977 4.8164-5.207 9.6328-7.8047 14.445-2.5977 4.8164-5.2031 9.6328-7.8008 14.449 1.0352-2.3438 2.082-4.6875 3.1211-7.0273 2.082-4.6875 4.6797-9.5039 7.8008-14.449 1.5625-2.4727 3.1211-4.9453 4.6836-7.418zm555.62 0c-0.25781 1.1719-0.52344 2.3438-0.78125 3.5156-0.52344 2.3398-2.7305 7.418-6.6328 15.227-1.9492 3.9062-3.9023 7.8086-5.8516 11.715 0.52344-2.2148 1.0391-4.4258 1.5586-6.6406 1.0391-4.4258 3.2539-9.5 6.6328-15.227 1.6953-2.8633 3.3789-5.7266 5.0742-8.5898zm187.29 0.78125h0.78125c-0.13281 0.39062-0.25781 0.78125-0.39062 1.1719-0.25781 0.78125-2.082 2.8633-5.4609 6.2461-3.3789 3.3828-6.2422 6.8984-8.5859 10.543-1.168 1.8203-2.3398 3.6445-3.5117 5.4648 1.1719-2.3398 2.3438-4.6836 3.5117-7.0273 2.3438-4.6836 5.0742-8.5898 8.1953-11.715 3.1211-3.1211 4.9414-4.6836 5.4609-4.6836zm-752.27 0.78125c-0.91406 1.6914-1.8203 3.3828-2.7344 5.0742-0.91016 1.6914-1.8164 3.3867-2.7305 5.0781 0.91406-1.6914 1.8203-3.3867 2.7305-5.0781 0.91406-1.6914 1.8203-3.3828 2.7344-5.0742zm794.02 3.9023c3.9023 1.043 6.7656 2.6055 8.5859 4.6875 1.8164 2.082 3.2539 4.293 4.2891 6.6367 1.0391 2.3438 1.9531 6.1172 2.7344 11.324 0.77734 5.207 0 11.973-2.3438 20.305-2.3398 8.332-5.8516 16.789-10.535 25.379-4.6797 8.5898-8.9727 15.359-12.875 20.305-3.9023 4.9414-7.9375 8.9805-12.094 12.102-4.1602 3.125-6.7656 4.6875-7.8047 4.6875-1.0391 0-2.207-2.7344-3.5117-8.1992-0.64844-2.7344-1.3047-5.4688-1.9492-8.1992-0.25781 0.39062-0.52344 0.78125-0.78125 1.1719s-0.52344 0.78125-0.78125 1.168c-0.25781-0.25391-0.52344-0.51953-0.78125-0.77734-0.52344-0.52344-1.0391-2.9922-1.5586-7.4219-0.52344-4.4258-0.52344-6.8945 0-7.418 0.25781-0.25781 0.51953-0.52344 0.77734-0.78125-0.38672-0.39062-1.9492-1.9531-2.3398-2.3398 0.25781 0.13281 0.52344 0.25391 0.78125 0.38672 0.25781 0.13281 0.52344 0.25781 0.78125 0.39062-0.13281-0.77734-0.25781-1.5586-0.39062-2.3398-0.25781-1.5625-0.13281-2.6016 0.39062-3.125 0.25781-0.25781 0.51953-0.52344 0.77734-0.78125h-1.5586v-1.1719c0-0.78125 0.64844-1.4297 1.9492-1.9531 0.64844-0.25781 1.3047-0.52344 1.9531-0.77734-0.13281 0.38672-0.25781 0.77734-0.39062 1.168s-0.25781 0.78125-0.39062 1.1719c0.25781-0.13281 0.52344-0.25781 0.78125-0.39062 0.52344-0.25781 1.5586-5.0742 3.1211-14.445 1.5586-9.3711 4.0352-18.609 7.4141-27.723 3.3789-9.1133 5.9844-14.836 7.8008-17.18 1.8203-2.3438 4.293-4.1641 7.4141-5.4688 3.1211-1.3008 6.6328-1.4297 10.535-0.39063zm-570.05 2.3438c-0.39062 1.4336-0.77734 2.8633-1.168 4.2969-0.39062 1.4297-0.78125 2.8633-1.1719 4.293 0.39062-1.4297 0.78125-2.8633 1.1719-4.293 0.39062-1.4336 0.77734-2.8633 1.168-4.2969zm-90.52 0.78125c-2.2109 3.3828-4.4258 6.7695-6.6328 10.152-2.2109 3.3828-4.4258 6.7695-6.6328 10.152 0.64453-1.5625 1.3008-3.125 1.9492-4.6875 1.3047-3.1211 3.5117-6.5078 6.6328-10.152 1.5625-1.8203 3.1211-3.6445 4.6836-5.4648zm475.24 0h0.78125v2.3438h-0.78125c-0.52344 0-1.4258 1.0391-2.7305 3.1211-1.3047 2.0859-3.3789 5.9883-6.2422 11.715-2.8633 5.7266-6.6328 15.488-11.316 29.285-2.3398 6.8945-4.6836 13.801-7.0234 20.695 0.39062-2.0859 0.78125-4.1641 1.1719-6.25 0.78125-4.1602 2.4727-10.016 5.0703-17.57 2.6016-7.5508 6.6328-16.656 12.098-27.332 5.4609-10.672 8.4492-16.008 8.9727-16.008zm159.98 0c-0.13281 0.65234-0.25781 1.3008-0.39062 1.9531-0.25781 1.3008-1.4297 3.3828-3.5117 6.2461-1.0391 1.4336-2.0859 2.8633-3.1211 4.2969 1.168-2.082 2.3398-4.1641 3.5117-6.25 1.168-2.082 2.3398-4.1641 3.5117-6.2461zm5.4609 0.78125c-1.1719 1.8203-2.3398 3.6445-3.5117 5.4648-1.1719 1.8242-2.3398 3.6445-3.5117 5.4688 0.39062-1.043 0.78125-2.082 1.1719-3.125 0.77734-2.082 1.9492-3.9023 3.5117-5.4648 0.77734-0.78125 1.5586-1.5625 2.3398-2.3438zm-547.04 0.78125c0.13281 0.39063 0.25781 0.78125 0.39062 1.1719 0.25781 0.78125 0 1.9531-0.77734 3.5117l-1.1719 2.3438c0.25781-1.1719 0.52344-2.3438 0.78125-3.5117 0.25781-1.1719 0.52344-2.3438 0.77734-3.5156zm343.36 0c-0.77734 2.4727-1.5586 4.9453-2.3398 7.418-0.78125 2.4727-1.5625 4.9453-2.3398 7.418 0.77734-2.4727 1.5586-4.9453 2.3398-7.418 0.78125-2.4727 1.5625-4.9453 2.3398-7.418zm185.73 0c0.13281 0.25781 0.25781 0.51953 0.39062 0.78125 0.25781 0.51953-0.64844 2.2109-2.7305 5.0742-1.0391 1.4336-2.082 2.8633-3.1211 4.2969 0.91016-1.6914 1.8164-3.3828 2.7305-5.0781 0.91406-1.6914 1.8164-3.3828 2.7305-5.0742zm-641.46 2.3438c-0.91406 1.6914-1.8164 3.3828-2.7305 5.0742-0.91406 1.6914-1.8164 3.3828-2.7305 5.0781 0.91406-1.6953 1.8164-3.3867 2.7305-5.0781 0.91406-1.6914 1.8164-3.3828 2.7305-5.0742zm9.3672 0.78125c-1.1719 2.2109-2.3438 4.4219-3.5117 6.6367-1.1719 2.2109-2.3438 4.4258-3.5117 6.6367 1.168-2.2109 2.3398-4.4258 3.5117-6.6367 1.168-2.2148 2.3398-4.4258 3.5117-6.6367zm-131.1 16.398c0.13281 0.25781 0.25781 0.51953 0.39062 0.78125 0.25781 0.51953-0.13281 1.5625-1.1719 3.1211-0.52344 0.78125-1.0391 1.5625-1.5625 2.3438 0.39062-1.0391 0.78125-2.082 1.1719-3.125 0.39062-1.0391 0.78125-2.082 1.1719-3.1211zm382.38 29.676c0.13281 0.39062 0.25781 0.77734 0.39062 1.168 0.25781 0.78125-0.64844 2.7344-2.7305 5.8594-2.082 3.1211-2.9883 4.9414-2.7305 5.4648 0.13281 0.25781 0.25781 0.52344 0.39062 0.78125-0.52344 0.25781-1.0391 0.52344-1.5625 0.78125-1.0391 0.52344-3.2539 3.6484-6.6328 9.3711-3.3789 5.7227-5.5938 8.8477-6.6328 9.3711-0.52344 0.25781-1.0391 0.52344-1.5625 0.78125 3.2539-4.8203 6.5-9.6289 9.7578-14.449 6.5-9.625 9.7539-14.836 9.7539-15.617v-1.1719h1.5586zm-597.75 4.6836c-0.26172 1.4297-0.52344 2.8672-0.78125 4.2969-0.51953 2.8633-2.082 7.5508-4.6836 14.055-2.6016 6.5039-6.2422 13.926-10.926 22.258-2.3398 4.1602-4.6797 8.332-7.0234 12.492 2.082-4.0352 4.1641-8.0664 6.2461-12.102 4.1602-8.0703 8.0625-16.926 11.703-26.555 1.8203-4.8164 3.6406-9.625 5.4648-14.445zm590.73 0c0.13281 0.25781 0.25781 0.52344 0.39062 0.78125 0.25781 0.52344-1.3008 3.5156-4.6797 8.9805-3.3789 5.4648-6.7695 10.285-10.148 14.445-1.6914 2.0859-3.3789 4.1641-5.0703 6.25 3.2539-5.0781 6.5-10.152 9.7539-15.23 3.2539-5.0742 6.5-10.152 9.7539-15.227zm-515.82 7.0273v2.3438c0 1.5625-1.5625 6.1133-4.6836 13.668-3.1211 7.5508-5.9844 13.406-8.582 17.57-1.3008 2.082-2.6016 4.1602-3.9023 6.2461 1.5586-3.125 3.1211-6.2461 4.6797-9.3711 3.1211-6.2461 5.9844-12.887 8.5859-19.914 1.3008-3.5117 2.6016-7.0273 3.9023-10.543zm948.92 0.78125v2.7344c0 1.8203-1.0391 4.6836-3.1211 8.5898s-3.6445 6.2461-4.6836 7.0273c-0.52344 0.39062-1.0352 0.78125-1.5586 1.1719 1.5586-3.2578 3.1211-6.5039 4.6797-9.7617 1.5625-3.2578 3.1211-6.5039 4.6836-9.7617zm-631.31 0.78125v1.9531c0 1.3047-1.8164 5.4648-5.4609 12.496-3.6445 7.0273-7.0234 12.883-10.145 17.57-3.1211 4.6836-5.332 7.5508-6.6328 8.5898-0.64844 0.52344-1.3047 1.0391-1.9531 1.5625 2.5977-3.9062 5.207-7.8125 7.8047-11.715 5.2031-7.8086 9.2305-14.84 12.094-21.086 1.4297-3.125 2.8672-6.2461 4.293-9.3711zm181.82 1.5625c-0.39062 1.0391-0.78125 2.0859-1.1719 3.125-0.77734 2.082-3.6445 6.5039-8.582 13.273-2.4727 3.3828-4.9414 6.7695-7.4141 10.152 2.8633-4.4258 5.7188-8.8477 8.5859-13.277 2.8633-4.4258 5.7188-8.8477 8.582-13.273zm-11.707 0.78125c-1.168 2.3438-2.3398 4.6836-3.5117 7.0273-2.3398 4.6875-4.5469 8.332-6.6328 10.934-1.0352 1.3047-2.082 2.6016-3.1211 3.9023 2.2109-3.6445 4.4258-7.2852 6.6328-10.93 2.2109-3.6484 4.4258-7.2891 6.6328-10.934zm-60.867 2.3438c-0.25781 1.4258-0.52344 2.8633-0.78125 4.293-0.51953 2.8672-1.8164 6.7695-3.8984 11.715-2.0859 4.9414-5.0742 10.934-8.9766 17.961-3.9023 7.0273-6.5 11.191-7.8047 12.496-0.64453 0.64453-1.3008 1.3008-1.9492 1.9492 2.5977-4.5508 5.207-9.1133 7.8047-13.664 5.2031-9.1133 9.1055-17.18 11.703-24.211 1.3047-3.5117 2.6016-7.0273 3.9023-10.539zm254.4 1.5586c0.13281 0.39063 0.25781 0.78125 0.39062 1.1719 0.25781 0.78125-0.52344 3.7734-2.3398 8.9805-1.8203 5.2109-4.0352 9.8945-6.6328 14.059-1.3047 2.0859-2.6016 4.1602-3.9023 6.2461 2.082-5.0742 4.1562-10.152 6.2422-15.227 2.082-5.0781 4.1602-10.152 6.2422-15.23zm-271.57 0.78125v1.9531c0 1.3047-1.4258 4.9453-4.293 10.934-2.8633 5.9883-6.375 11.582-10.531 16.789-2.0859 2.6016-4.1602 5.2109-6.2461 7.8086 2.3438-3.5117 4.6836-7.0273 7.0234-10.543 4.6836-7.0273 8.1953-13.273 10.535-18.742 1.1719-2.7305 2.3438-5.4648 3.5117-8.1992zm-287.17 2.3438c0.13281 0.39063 0.25781 0.78125 0.39062 1.1719 0.25781 0.78125-0.52344 3.2578-2.3398 7.418-0.91406 2.0859-1.8203 4.1641-2.7344 6.2461 0.78125-2.4727 1.5625-4.9414 2.3438-7.418 0.77734-2.4727 1.5586-4.9414 2.3398-7.418zm781.53 4.6875c-0.13281 1.5586-0.25781 3.1211-0.39062 4.6836 0.25781-0.13281 0.52344-0.25781 0.78125-0.39062 0.52344-0.25781 0.64844-1.8203 0.39062-4.6836-0.13281-1.4297-0.25781-2.8672-0.39062-4.2969-0.13281 1.5625-0.25781 3.125-0.39062 4.6875zm-490.46 0.77734c0.13281 0.25781 0.25781 0.52344 0.39062 0.78125 0.25781 0.52344-0.13281 1.5625-1.1719 3.125-0.52344 0.78125-1.0352 1.5625-1.5586 2.3438 0.39062-1.0391 0.78125-2.0859 1.168-3.125 0.39062-1.0391 0.78125-2.0859 1.1719-3.125zm6.2422 0.78125c-0.25781 1.1719-0.52344 2.3438-0.78125 3.5156-0.51953 2.3438-1.5586 4.6875-3.1211 7.0273-0.77734 1.1719-1.5586 2.3438-2.3398 3.5156 1.0391-2.3438 2.082-4.6875 3.1211-7.0273 1.0391-2.3438 2.0859-4.6875 3.1211-7.0312zm181.82 3.125c-0.13281 0.64844-0.25781 1.3047-0.39062 1.9531-0.25781 1.3047-2.207 4.8164-5.8516 10.543-3.6445 5.7227-9.3633 13.016-17.168 21.863-3.9023 4.4297-7.8047 8.8477-11.707 13.277 3.3828-4.0391 6.7695-8.0664 10.148-12.105 6.7656-8.0664 12.617-16.008 17.555-23.816 2.4766-3.9062 4.9414-7.8086 7.4141-11.715zm259.86 0.78125c-0.51953 1.9531-1.0352 3.9062-1.5586 5.8555-1.0391 3.9062-2.7305 7.5547-5.0742 10.934-1.168 1.6953-2.3398 3.3828-3.5117 5.0781 1.6953-3.6484 3.3789-7.2891 5.0742-10.934 1.6914-3.6484 3.3789-7.2852 5.0703-10.934zm-935.65 0.78125c0.13281 0.39062 0.26172 0.78125 0.39062 1.1719 0.26172 0.78125-0.39062 2.7305-1.9492 5.8555l-2.3438 4.6875c0.65234-1.9531 1.3008-3.9062 1.9531-5.8594 0.64844-1.9531 1.3008-3.9023 1.9492-5.8555zm671.11 0c-0.13281 0.64844-0.25781 1.3047-0.39063 1.9531-0.25781 1.3047-1.6953 3.9023-4.293 7.8086-2.5977 3.9023-5.7188 7.9414-9.3633 12.105-1.8203 2.082-3.6445 4.1602-5.4648 6.2461 3.2539-4.6875 6.5-9.3711 9.7539-14.059 3.2578-4.6836 6.5039-9.3711 9.7578-14.055zm-17.949 0.78125c-1.6953 2.9883-3.3789 5.9883-5.0742 8.9805-3.3789 5.9883-8.0586 12.359-14.047 19.133-2.9883 3.3789-5.9844 6.7695-8.9727 10.152 4.6836-6.3828 9.3633-12.754 14.047-19.133 4.6836-6.3828 9.3633-12.754 14.047-19.133zm6.2422 4.6836c-0.25781 0.78125-0.52344 1.5625-0.78125 2.3438-0.52344 1.5625-1.8164 3.5156-3.9023 5.8555-1.0352 1.1719-2.082 2.3438-3.1211 3.5156 1.3047-1.9531 2.6016-3.9062 3.9023-5.8555 1.3047-1.9531 2.5977-3.9062 3.9023-5.8594zm-267.66 2.3438c-0.13281 0.64844-0.25781 1.3047-0.39062 1.9531-0.25781 1.3047-1.4258 3.2539-3.5117 5.8555-1.0352 1.3047-2.082 2.6016-3.1211 3.9062 1.1719-1.9531 5.8516-9.7617 7.0234-11.715zm-103.79 4.6875c-0.91016 2.207-1.8164 4.4258-2.7305 6.6367-1.8164 4.4258-3.7695 7.5508-5.8516 9.3711-1.0391 0.91406-2.0859 1.8203-3.1211 2.7305 1.9492-3.1211 9.7539-15.617 11.703-18.738zm473.68 0.77734 0.78125 0.78125c0.52344 0.52344-0.13281 2.3438-1.9492 5.4688-0.91406 1.5625-1.8203 3.1211-2.7344 4.6836 0.64844-1.8203 1.3047-3.6445 1.9531-5.4648 0.64844-1.8203 1.3008-3.6484 1.9492-5.4688zm180.27 0c0.13281 0.39062 0.25781 0.78125 0.39062 1.1719 0.25391 0.78125-0.64844 3.125-2.7344 7.0312-1.0352 1.9492-2.082 3.9023-3.1211 5.8555 0.91406-2.3438 1.8203-4.6875 2.7305-7.0273 0.91406-2.3438 1.8203-4.6875 2.7344-7.0312zm-641.46 1.5625c0.13281 0.25781 0.25781 0.52344 0.39063 0.78125 0.25781 0.52344-0.64844 2.8672-2.7344 7.0273-2.082 4.1641-4.4219 7.8125-7.0234 10.934-1.3008 1.5625-2.5977 3.125-3.8984 4.6875 1.4258-2.0859 2.8633-4.1641 4.2891-6.25 2.8633-4.1602 5.0742-8.0664 6.6328-11.711 0.78125-1.8203 1.5625-3.6484 2.3438-5.4688zm-5.4648 6.25c-0.25781 0.91406-0.52344 1.8164-0.77734 2.7305-0.52344 1.8203-1.3047 3.2578-2.3438 4.2969-0.52344 0.52344-1.0352 1.0391-1.5586 1.5625 0.77734-1.4297 1.5586-2.8672 2.3398-4.2969 0.78125-1.4297 1.5625-2.8672 2.3398-4.293zm753.83 48.414c-0.12891 1.4297-0.25391 2.8672-0.38672 4.2969-0.13281 1.4297-0.25781 2.8672-0.39062 4.293 0.13281-1.4258 0.25781-2.8633 0.39062-4.293 0.13281-1.4297 0.25781-2.8672 0.38672-4.2969zm-47.211 15.621h11.316v1.5586c0 1.0391-0.91406 5.3359-2.7305 12.887-1.8203 7.5508-4.4258 16.141-7.8047 25.77s-6.6328 17.57-9.7539 23.82c-3.1211 6.2461-7.0234 12.625-11.707 19.133-4.6797 6.5039-11.18 13.531-19.508 21.082s-14.695 12.629-19.117 15.23c-4.4258 2.5977-8.4531 4.5508-12.098 5.8555-3.6445 1.3047-9.3633 2.3438-17.168 3.125-7.8047 0.78125-13.914 0.25781-18.34-1.5625-4.4219-1.8203-7.668-3.5156-9.7539-5.0781-2.082-1.5586-4.1602-3.6445-6.2422-6.2461-2.082-2.6016-4.0352-6.1133-5.8516-10.543-1.8203-4.4258-2.8633-10.02-3.1211-16.789-0.25781-6.7695 0-11.973 0.77734-15.617 0.78125-3.6484 2.2109-7.6758 4.293-12.105 2.0859-4.4258 5.0742-9.1133 8.9766-14.055 3.8984-4.9453 8.8398-9.6289 14.824-14.059 5.9883-4.4258 12.098-8.1992 18.34-11.324 6.2422-3.1211 14.695-6.3789 25.363-9.7617 10.664-3.3789 21.324-6.1133 31.992-8.1992 10.668-2.082 19.766-3.1211 27.312-3.1211zm19.898 0h0.78125v2.7305c0 1.8203-0.39062 4.6875-1.168 8.5898-0.78125 3.9062-2.6016 9.8945-5.4648 17.961-1.4258 4.0391-2.8633 8.0703-4.293 12.105 0.91406-3.125 1.8203-6.2461 2.7344-9.3711 1.8164-6.2461 3.3789-13.141 4.6797-20.695 1.3047-7.5508 2.2109-11.32 2.7305-11.32zm19.512 1.5586c0.25781 0.13281 0.52344 0.25781 0.78125 0.39062 0.51953 0.25781 0.25391 1.9531-0.78125 5.0781-0.52344 1.5625-1.0391 3.125-1.5625 4.6836 0.25781-1.6914 0.52344-3.3789 0.78125-5.0742 0.25781-1.6953 0.52344-3.3828 0.78125-5.0781zm4.6797 1.5625h0.78125v2.7344c0 1.8203-1.168 7.2852-3.5117 16.398-2.3398 9.1133-4.0352 14.707-5.0703 16.789-0.52344 1.0391-1.0391 2.0859-1.5625 3.125 1.4297-6.5039 2.8633-13.02 4.293-19.523 2.8633-13.016 4.5508-19.523 5.0703-19.523zm-470.55 10.934c0.51953 0.52344 0.13281 2.0859-1.1719 4.6875-1.3047 2.5977-5.0742 8.7227-11.316 18.352-6.2422 9.6289-14.57 20.043-24.969 31.234-10.402 11.191-19.121 19.523-26.145 24.988-7.0234 5.4688-13.789 10.152-20.289 14.059s-11.449 6.6367-14.828 8.1992c-3.3789 1.5625-6.8906 2.4766-10.535 2.7344-3.6406 0.25781-6.375-1.5625-8.1914-5.4688-1.8203-3.9023-2.7305-7.8086-2.7305-11.711 0-3.9062 0.77734-7.8125 2.3398-11.715 1.5625-3.9062 4.293-7.9414 8.1953-12.105 3.8984-4.1602 10.664-9.5039 20.289-16.008 9.6211-6.5039 24.578-14.703 44.871-24.598 20.289-9.8945 32.641-16.27 37.066-19.133 4.4219-2.8672 6.8906-4.0391 7.4141-3.5156zm8.582 0.78125c0.13281 0.25781 0.25781 0.52344 0.39062 0.78125 0.25781 0.52344-1.9492 5.207-6.6328 14.055s-8.8398 15.879-12.484 21.086c-3.6445 5.2109-7.1562 9.5039-10.535 12.887-1.6953 1.6953-3.3789 3.3789-5.0742 5.0742 0.13281-0.52344 0.25781-1.0391 0.39062-1.5625 0.25781-1.0391 1.3047-2.3398 3.1211-3.9023 1.8203-1.5625 5.0742-5.7266 9.7539-12.496 4.6836-6.7695 9.3672-14.445 14.047-23.035 2.3398-4.2969 4.6836-8.5898 7.0234-12.887zm18.73 3.9062c0.13281 0.25781 0.25781 0.52344 0.39063 0.78125 0.25391 0.51953-0.52344 2.7305-2.3438 6.6367-1.8164 3.9023-5.2031 9.5039-10.145 16.789-2.4727 3.6484-4.9375 7.2852-7.4141 10.934 2.4766-4.0391 4.9414-8.0664 7.4141-12.105 4.9414-8.0664 8.1953-13.922 9.7539-17.57 0.78125-1.8203 1.5625-3.6484 2.3438-5.4648zm-10.145 0.78125c0.13281 0.25391 0.25781 0.51953 0.38672 0.77734 0.25781 0.52344-0.38672 2.3438-1.9492 5.4688-1.5586 3.125-3.9023 6.8945-7.0234 11.324-1.5586 2.207-3.1211 4.4258-4.6836 6.6367 2.2109-4.0391 4.4258-8.0664 6.6367-12.105 2.207-4.0352 4.4219-8.0664 6.6328-12.102zm14.047 0v1.9492c0 1.3047-0.78125 3.6484-2.3438 7.0312-1.5586 3.3789-4.0352 8.0664-7.4141 14.055-3.3789 5.9883-8.3242 13.277-14.824 21.867-3.2539 4.293-6.5 8.5898-9.7539 12.883 4.0312-6.1133 8.0586-12.234 12.094-18.352 8.0625-12.234 13.789-21.863 17.168-28.895 1.6914-3.5117 3.3789-7.0273 5.0742-10.539zm252.84 38.262c0.13281 0.39062 0.25781 0.78125 0.39062 1.1719 0.25781 0.78125 0.13281 1.3047-0.39062 1.5625-0.52344 0.25781-1.8203 3.6484-3.9023 10.152-1.0391 3.2578-2.082 6.5039-3.1211 9.7617 0.25781-1.8203 0.52344-3.6484 0.78125-5.4688 0.51953-3.6445 1.6914-7.418 3.5117-11.32 0.91016-1.9531 1.8164-3.9062 2.7305-5.8594zm10.926 8.5898c-0.52344 3.3828-1.0391 6.7734-1.5625 10.152-0.52344 3.3828-1.0391 6.7734-1.5586 10.152v-4.6836c0-3.125 0.51953-6.5078 1.5586-10.152 0.52344-1.8203 1.0391-3.6484 1.5625-5.4688zm-423.74 12.496c-0.25781 0.91406-0.52344 1.8203-0.78125 2.7344-0.51953 1.8203-1.5586 3.7695-3.1211 5.8555-0.77734 1.0391-1.5586 2.0859-2.3398 3.125 0.25781-0.91406 0.52344-1.8203 0.78125-2.7344 0.52344-1.8203 1.5586-3.7695 3.1211-5.8555 0.78125-1.0391 1.5586-2.0859 2.3398-3.125zm10.145 7.0273c-0.39062 1.0391-0.78125 2.0859-1.168 3.125-0.39062 1.0391-0.78125 2.0859-1.1719 3.125 0.39062-1.0391 0.78125-2.0859 1.1719-3.125 0.38672-1.0391 0.77734-2.0859 1.168-3.125z" fill="#76c8c2"/>
 </g>
</svg>
