<?xml version="1.0" encoding="UTF-8"?>
<svg width="1587" height="1587" version="1.0" viewBox="0 0 1190.2 1190.2" xmlns="http://www.w3.org/2000/svg" zoomAndPan="magnify">
 <defs>
  <clipPath id="a">
   <path d="m0 0h1189.5v1189.5h-1189.5z"/>
  </clipPath>
  <clipPath id="b">
   <path d="m0 239.04h1189.5v646.96h-1189.5z"/>
  </clipPath>
 </defs>
 <g clip-path="url(#a)" fill="#fff">
  <path d="m0 0h1189.5v1189.5h-1189.5z"/>
  <path d="m0 0h1189.5v1189.5h-1189.5z"/>
 </g>
 <g clip-path="url(#b)">
  <path d="m596.46 498.7s140.39-60.398 54.055-178.57c-14.434-19.957-28.863-40.176-42.246-61.445l-11.809-19.172-11.809 19.172c-13.121 21.27-27.816 41.488-42.25 61.445-86.332 118.17 54.059 178.57 54.059 178.57zm-39.363-144.17c10.758-14.18 21.258-28.359 30.703-43.328l8.6602-13.395 8.6602 13.395c9.4453 14.969 20.203 29.41 30.699 43.328 62.715 83.242-39.359 126.05-39.359 126.05s-102.34-42.539-39.363-126.05zm1.3125 52.258c0-21.008 17.059-37.816 37.789-37.816 20.992 0 37.785 17.07 37.785 37.816 0 21.008-17.059 37.812-37.785 37.812-20.73 0-37.789-17.066-37.789-37.812zm82.66 214.8c0 24.684-19.945 44.906-44.871 44.906-24.668 0-44.875-19.961-44.875-44.906 0-24.684 19.945-44.902 44.875-44.902 24.926 0 44.871 19.957 44.871 44.902zm288.12 40.18c-265.56 8.4023-277.89 191.7-277.89 191.7 247.98 97.16 349.27-50.68 382.33-112.13 32.801-60.398 82.922-117.64 84.496-119.48-43.035 43.328-188.93 39.918-188.93 39.918zm-255.59 179.09s37-138.12 238.53-132.61c0 0 94.469 2.1016 123.07-18.906-1.3125 3.1523-118.61 243.69-361.6 151.52zm216.48-53.309c0 33.09-26.766 59.875-59.828 59.875s-59.828-26.785-59.828-59.875c0-33.086 26.766-59.871 59.828-59.871s59.828 26.785 59.828 59.871zm299.41-314.59c-12.859 35.449-36.738 66.438-68.227 87.18-72.16 47.793-170.57 52.258-170.57 52.258-260.57 13.129-317.78 173.32-317.78 173.32s-29.125-206.66 281.3-223.21c-0.26172 0 243.78-9.9766 275.27-89.543zm-668.09 324.57c-26.242-54.621-92.629-130.51-261.1-135.76 0 0-145.9 3.4102-188.93-39.918 0 0.26563 0.52344 0.52734 1.3125 1.3125 8.3984 9.457 53.27 62.5 83.184 117.91 33.324 61.445 134.35 209.29 382.33 112.13 0 0-1.3086-18.906-11.805-44.645-1.5781-3.4102-3.1523-7.0898-4.9883-11.027zm-367.37-108.19c28.602 21.008 123.07 18.906 123.07 18.906 201.27-5.5117 238.53 132.61 238.53 132.61-242.73 92.172-360.02-148.37-361.6-151.52zm264.77 98.211c0 33.09-26.766 59.875-59.828 59.875s-59.832-26.785-59.832-59.875c0-33.086 26.766-59.871 59.832-59.871 33.062 0 59.828 26.785 59.828 59.871zm137.77-1.8359s-57.207-160.19-317.78-173.58c0 0-98.402-4.4648-170.57-52.258-31.488-20.746-55.367-51.73-68.227-87.184 31.488 79.832 275.27 89.809 275.27 89.809 310.43 16.547 281.3 223.21 281.3 223.21zm-66.129-343.48c0-4.4648 0.26172-8.9297 0.78906-13.391 6.5586 52.254 51.168 92.695 105.23 92.695 54.055 0 98.664-40.441 105.23-92.695 0.52344 4.4609 0.78516 8.9258 0.78516 13.391 0 58.559-47.496 106.09-106.01 106.09-58.52 0-106.02-47.531-106.02-106.09z" fill="#fc0000"/>
 </g>
</svg>
