<?xml version="1.0" encoding="UTF-8"?>
<svg width="1587" height="1587" version="1.0" viewBox="0 0 1190.2 1190.2" xmlns="http://www.w3.org/2000/svg" zoomAndPan="magnify">
 <defs>
  <clipPath id="b">
   <path d="m0 0h1189.5v1189.5h-1189.5z"/>
  </clipPath>
  <clipPath id="a">
   <path d="m252 1h693.46v1188h-693.46z"/>
  </clipPath>
 </defs>
 <g clip-path="url(#b)" fill="#fff">
  <path d="m0 0h1189.5v1189.5h-1189.5z"/>
  <path d="m0 0h1189.5v1189.5h-1189.5z"/>
 </g>
 <g clip-path="url(#a)">
  <path d="m939.96 726.97c-0.47656-9.0859-5.0234-15.781-10.527-20.324-7.6562-6.457-17.465-9.5625-27.516-9.5625h-89.961s41.391-4.0664 73.453-41.367c32.062-37.059-27.996-81.531-27.996-81.531l-7.8945-19.367c-9.5703-42.082-39.238-81.293-39.238-81.293-6.9414-8.8477-13.16-17.934-13.16-17.934-0.48047-2.6289-1.1953-5.2578-2.1523-8.1289v-324.7c0.47656-0.71875 0.95703-1.4336 0.95703-2.3906 3.1094 4.543 7.1758 6.457 7.1758 6.457 20.34 8.6055 32.301-5.2617 32.301-5.2617 13.879-16.496 0-38.973 0-38.973-27.277-44.711-11.246-62.168-8.375-64.797l0.24219-0.23828v-0.47656c-0.24219-0.48047-0.71875-0.48047-0.95703-0.24219-26.559 21.281-3.3516 64.797-0.24219 71.73 3.1133 7.1719 3.8281 12.672 3.8281 12.672 2.3945 21.996-19.379 17.695-19.379 17.695-11.246-1.6758-10.051-11.957-10.051-11.957 0.95703-10.043 9.5742-8.1289 12.203-7.1719h0.48047c0.47656 0 0.71875-0.23828 0.95703-0.47656 0.47656-0.48047 0.47656-1.1992 0-1.9141-5.7422-5.9766-14.117-2.1523-14.117-2.1523-1.1953 0.71875-2.1523 1.4336-3.1094 2.1523l4.7852-10.762c-7.418-27.496-9.5703-78.422-9.8125-84.641 0-0.47656-0.23828-0.71484-0.71484-0.71484-0.48047 0-0.71875 0.23828-0.71875 0.71484-0.23828 6.2188-2.1523 57.145-9.8086 84.641l5.5 12.195c-0.95703-1.4336-2.3906-2.6289-4.3047-3.5859 0 0-8.375-3.5859-14.117 2.1523-0.48047 0.47656-0.48047 1.1953 0 1.9141 0.23828 0.23828 0.71875 0.47656 0.95703 0.47656h0.47656c2.6328-0.95703 11.246-2.8711 12.203 7.1719 0 0 1.1992 10.281-10.047 11.957 0 0-21.773 4.3008-19.383-17.695 0 0 0.71875-5.5 3.8281-12.672 3.1133-7.1719 26.559-50.688-0.23828-71.73-0.23828-0.23828-0.71875-0.23828-0.95703 0.24219v0.47656s0 0.23828 0.23828 0.23828c2.8711 2.6289 18.902 20.086-8.375 64.797 0 0-13.875 22.715 0 38.973 0 0 11.965 14.105 32.301 5.2617 0 0 4.7891-2.1523 7.8984-7.4141v0.47656c0 1.1992 0.47656 2.1523 1.1953 2.8711v308.68c-8.1328-16.02-18.422-30.125-18.422-30.125-0.95703-7.8906-2.3945-16.258-3.8281-22.715-1.6758-8.8477-5.5039-17.215-10.77-24.148-18.66-24.391-54.312-59.059-54.312-59.059-3.3477-27.496-17.945-48.297-17.945-48.297l-6.9375-35.148c-4.7852-40.648-29.191-78.664-29.191-78.664 0.95703-14.344-8.375-31.082-8.375-31.082-6.2188-44.473-41.629-37.539-41.629-37.539-28.234 2.6289-26.801 36.582-26.801 36.582-12.441 6.9336-10.289 28.93-10.289 28.93-24.883 32.996-32.301 75.078-32.301 75.078-15.07 28.215-15.789 48.059-15.789 48.059l-5.2656-0.23828c-25.121-19.844-37.086-5.5-41.391 2.6289-2.3945 4.543-1.4375 10.523 2.6289 13.629 3.5898 2.8711 7.8984 4.3047 7.8984 4.3047 3.1094 15.543 0 33.953 0 33.953l-4.5469 6.9336c-23.449 27.496-46.656 78.902-46.656 78.902-4.5469 6.2148-40.195 54.754-40.195 54.754-46.898 56.426-61.73 112.61-61.73 112.61-7.1797 13.867-11.246 31.324-13.641 44.234-2.3906 14.348-2.8711 28.93-0.23828 43.277 5.9805 31.32 20.336 39.93 20.336 39.93l13.16 7.6523h-50.004c-10.531 0-20.816 4.3008-27.516 12.43-5.2656 6.457-7.418 13.871-6.9414 21.043 0.24219 4.3047 0 8.3672-0.71484 12.434-11.727 65.512 9.5703 126.24 9.5703 126.24-7.1797-27.734 0.71484-65.512 8.3711-92.531 12.684 48.777 2.1562 106.4 2.1562 106.4 36.129-6.2148 35.172-76.27 35.172-76.27 1.1953 0.95312 2.1523 1.9102 3.3477 2.8672-8.8516 62.406 11.008 118.36 11.008 118.36-7.1797-27.02 0.23828-64.078 7.8945-90.859 10.289 23.91 11.008 49.254 11.008 49.254-4.0703 137.24 20.574 139.39 20.574 139.39s-8.3711-74.359 0.95703-101.14c9.332-26.781 12.445-67.188 12.445-67.188 0.23828 6.457 3.1094 11.477 6.9375 15.301 3.5898 43.996 16.031 75.555 16.031 75.555-5.0273-16.734-2.3945-41.602 2.3906-65.031 3.1133 0.95312 5.9844 1.6719 8.375 2.1484 8.8516 29.41 19.859 75.797 11.965 102.34 0 0 18.66-47.34 16.746-106.88 3.1133-2.1484 5.9844-5.0195 7.8984-9.082 0.23828 47.34 13.156 84.398 13.156 84.398-6.6992-25.582-0.47656-59.773 6.7031-86.074-3.832 134.85 55.984 169.76 57.66 170.71-46.418-94.922-18.422-166.17-18.422-166.17-5.0234 60.016 18.66 136.52 37.562 186.5l15.793 51.168 23.926 76.988 9.8125-37.535c2.6289-10.281 4.543-20.805 5.5-31.562l0.95703-9.5625c3.1133-15.543 9.0938-30.129 17.945-43.52 9.5703-14.582 19.383-33.711 17.707-50.211-3.1094-31.082 5.2617-70.293 5.2617-70.293s9.332 76.273 4.0703 102.09c-5.2656 25.824-15.555 69.102-15.555 69.102 21.773-18.652 39.242-67.188 43.309-105.2 4.0664-38.258 22.73-109.51 21.773-78.426s6.2188 54.754 6.2188 54.754c1.1992-25.824 11.008-51.645 19.859-70.055 0.48047 2.3906 1.4375 9.5625-0.23828 28.691-2.1523 24.387 16.031-7.8906 14.594-54.277 9.332 53.559 39.242 92.531 39.242 92.531-8.1367-25.344-10.051-79.617-10.289-123.13 4.7852 15.301 10.289 32.039 13.879 42.559-3.5898-19.129 0.23828-51.168 2.3906-66.23 5.7422 10.758 13.879 23.91 25.125 39.691 37.562 52.84 15.312 138.44 14.594 141.3l22.73-46.383c33.977-93.012-2.1523-159.96-2.1523-159.96s-3.1133-11-5.7422-23.195c6.2188 3.5859 13.156 9.8047 14.832 19.367 0 0 5.0234-12.434 5.7422-27.496 1.9141-0.23828 1.4375-0.23828 3.3516-0.23828 6.457 25.582 11.484 56.906 5.2617 80.578 0 0 13.641-38.734 13.16-87.512 2.8711 10.758 5.5039 23.43 6.4609 33.711l5.7422-48.535c8.375 24.387 23.926 76.75 14.594 112.14 0 0 8.1367-23.43 11.727-56.664 1.1953 4.0625 3.1094 8.1289 5.5 11.715 11.008 16.734 1.1992-34.191 1.1992-34.191l21.293 41.363c-12.68-39.449-4.5469-83.922-5.5039-106.64zm-435.46-188.89c-18.664 5.2617-16.031 26.301-16.031 26.301-5.2656 12.434-7.1797 18.652-7.1797 18.652-21.293 10.281-67.473 0-67.473 0-35.891 0-45.461-11-45.461-11 38.523-27.496 50.965-75.078 50.965-75.078 37.805-17.93 55.031-68.141 55.031-68.141 36.609 78.184 30.148 109.27 30.148 109.27zm283.53 40.41c-5.9805 1.1953-13.637 1.9102-23.207 1.9102 0 0-46.18 10.281-67.473 0 0 0-2.1523-6.2148-7.1797-18.648 0 0 2.6328-21.277-16.031-26.301 0 0-6.457-31.082 30.148-109.27 0 0 17.227 50.207 55.031 68.141 0 0 7.418 28.453 28.711 54.035zm6.6992-1.6758v-20.562c4.5469 4.543 9.5703 9.0859 15.312 13.152 0 0-3.5859 4.3047-15.312 7.4102zm-11.723 338.09c-1.6758-2.6289-2.8711-6.4531-3.5898-10.758 2.1523 6.6953 3.5898 10.758 3.5898 10.758zm-27.035-717.77v-44.234l34.453 13.871 34.453-13.871v44.234l-34.453-12.672z"/>
 </g>
</svg>
