<?xml version="1.0" encoding="UTF-8"?>
<svg width="1587" height="1587" version="1.0" viewBox="0 0 1190.2 1190.2" xmlns="http://www.w3.org/2000/svg" zoomAndPan="magnify">
 <defs>
  <clipPath id="b">
   <path d="m0 0h1189.5v1189.5h-1189.5z"/>
  </clipPath>
  <clipPath id="a">
   <path d="m16.828 183.27h1159.5v825.23h-1159.5z"/>
  </clipPath>
 </defs>
 <g clip-path="url(#b)" fill="#fff">
  <path d="m0 0h1189.5v1189.5h-1189.5z"/>
  <path d="m0 0h1189.5v1189.5h-1189.5z"/>
 </g>
 <g clip-path="url(#a)">
  <path d="m70.633 406.55c10.855 0 20.004 9.1367 20.004 19.988v236.43c0 45.688-36 13.707-58.289 44.543v11.422c7.4297-6.2812 17.148-10.852 26.859-10.852 53.711 0 77.711 95.941 159.99 95.941 30.285 0 53.711-10.277 71.992-34.836 0-2.8555-2.2852-4.5664-5.1406-5.1367-13.141 20.559-37.711 32.551-61.715 32.551-39.992 0-61.703-38.262-64.562-73.672-1.1445-13.133-1.1445-26.27-1.1445-39.402 0-85.664 0.57031-171.32 0.57031-256.99 0-10.281 8.5742-19.988 19.43-19.988h63.426v-54.254h-225.13v54.254zm379.41-149.62c0 17.703-14.855 32.555-32.566 32.555-53.141 0-125.14-106.22-235.99-106.22-61.137 0-98.277 45.113-98.277 103.93 0 18.848 6.8555 36.551 11.996 54.254 20.57 13.707 30.859 37.691 52.57 50.254-7.9961-16.559-12-35.406-12-53.68 0-59.395 36-103.94 97.711-103.94 111.42 0 183.41 106.22 236.56 106.22 18.285 0 32.566-14.852 32.566-33.125-17.141-17.133-33.141-35.977-52.57-50.254zm473.12 585.93c0 71.957-79.996 86.805-136.56 86.805-21.145 0-42.281-5.1367-62.852-11.422-142.28-44.543-245.7-177.61-337.7-287.83 85.141-3.4258 128-46.254 128-130.78 0-59.387-78.281-147.34-139.42-147.34-28 0-73.141 17.703-73.141 51.398 0 9.1367 3.4297 17.703 7.4336 25.699 9.7109 18.273 71.422 75.383 90.277 83.949 14.859 6.8555 31.426 9.707 48 9.707-24 41.117-69.711 53.684-114.28 57.684-13.145-8.5703-28.57-14.281-44.566-14.281-20.004 0-39.43 21.703-39.43 41.117 0 23.418 17.715 40.551 36.57 51.398 2.8594-15.988 19.426-27.41 35.426-27.41 104.57 0 257.13 376.91 512.54 376.91 54.855 0 126.85-35.98 126.85-98.227 0-27.41-16.574-50.824-37.145-67.387zm-510.25-367.78c-20.57 0-53.141-13.133-53.141-37.691 0-27.41 31.426-34.832 53.141-34.832 22.855 0 46.855 8.5625 46.855 35.406 0 26.27-24 37.117-46.855 37.117zm164.56-68.527c10.855 0 19.996 9.1367 19.996 19.988v236.43c0 45.688-35.996 13.707-58.281 44.543v11.422c7.4297-6.2812 17.141-10.852 26.855-10.852 53.711 0 77.711 95.941 159.99 95.941 30.281 0 53.711-10.277 71.996-34.836 0-2.8555-2.2852-4.5664-5.1445-5.1367-13.141 20.559-37.715 32.551-61.711 32.551-40 0-61.711-38.262-64.566-73.672-1.1406-13.133-1.1406-26.27-1.1406-39.402 0-85.664 0.56641-171.32 0.56641-256.99 0-10.281 8.5742-19.988 19.43-19.988h63.426v-54.254h-225.13v54.254zm289.12 35.406c-57.707 0-109.13 45.688-109.13 105.08 37.711 5.7109 38.852 57.684 71.426 95.945 14.855 18.273 42.281 26.84 71.996 26.84 61.137 0 132.56-37.121 129.7-106.22-1.1406-7.4258-1.1406-15.418-2.8594-23.414l3.4297 2.8555c-33.711-50.828-102.28-101.08-164.56-101.08zm-45.137 142.77c-8-26.27 6.8555-50.254 25.715-65.672 19.422-15.992 47.422-22.848 75.422-22.848 18.855 0 37.707 2.8594 54.852 8.5703 0.57422 2.2812 0.57422 5.7109 0.57422 8.5664 0 63.391-59.426 106.22-105.71 106.22-23.43 0-43.426-10.281-50.855-34.84zm244.55-178.18v-54.254h-375.98v54.254zm-110.28 0c10.855 0 19.996 9.1367 19.996 19.988v236.43c0 45.688-35.992 13.707-58.281 44.543v11.422c7.4258-6.2812 17.145-10.852 26.859-10.852 53.711 0 77.707 95.941 159.99 95.941 30.285 0 53.707-10.277 71.996-34.836 0-2.8555-2.2891-4.5664-5.1445-5.1367-13.145 20.559-37.711 32.551-61.711 32.551-39.996 0-61.711-38.262-64.562-73.672-1.1445-13.133-1.1445-26.27-1.1445-39.402 0-85.664 0.57031-171.32 0.57031-256.99 0-10.281 8.5664-19.988 19.426-19.988h63.426v-54.254h-225.13v54.254z" fill="#133252"/>
 </g>
</svg>
