<?xml version="1.0" encoding="UTF-8"?>
<svg width="1587" height="1587" version="1.0" viewBox="0 0 1190.2 1190.2" xmlns="http://www.w3.org/2000/svg" zoomAndPan="magnify">
 <defs>
  <clipPath id="b">
   <path d="m0 0h1189.5v1189.5h-1189.5z"/>
  </clipPath>
  <clipPath id="a">
   <path d="m12.922 83h1176.6v1035.6h-1176.6z"/>
  </clipPath>
 </defs>
 <g clip-path="url(#b)" fill="#fff">
  <path d="m0 0h1189.5v1189.5h-1189.5z"/>
  <path d="m0 0h1189.5v1189.5h-1189.5z"/>
 </g>
 <path d="m886.66 741.35h-178.28c-15.887 0-28.832-12.949-28.832-28.84 0-15.891 12.945-28.84 28.832-28.84h178.28c15.887 0 28.832 12.949 28.832 28.84 0 15.891-12.945 28.84-28.832 28.84zm-178.28-46.496c-10.004 0-17.652 7.6523-17.652 17.656 0 10.004 7.6484 17.656 17.652 17.656h178.28c10.004 0 17.652-7.6523 17.652-17.656 0-10.004-7.6484-17.656-17.652-17.656z" fill="#fff"/>
 <path d="m887.25 787.84h-178.28c-15.887 0-28.832-12.949-28.832-28.84s12.945-28.84 28.832-28.84h178.28c15.887 0 28.832 12.949 28.832 28.84s-12.945 28.84-28.832 28.84zm-178.28-46.496c-10.004 0-17.652 7.6523-17.652 17.656s7.6484 17.656 17.652 17.656h178.28c10.004 0 17.652-7.6523 17.652-17.656s-7.6484-17.656-17.652-17.656z" fill="#fff"/>
 <path d="m829.59 736.05c0 17.656-14.121 31.781-31.773 31.781-17.652 0-31.773-14.125-31.773-31.781s14.121-31.781 31.773-31.781c17.652 0 31.773 14.125 31.773 31.781z" fill="#f00"/>
 <path d="m469.5 371.15v17.07c-4.707-1.7656-9.4141-2.3555-14.121-2.3555-19.414 0-30.594 15.301-8.8242 35.902-52.953 10.594-5.8828 92.988 38.246 92.988 10 0 17.062-4.1172 22.945-12.359-2.9414-2.3516-11.766-10.004-17.062-12.359-4.1172 7.6523-12.355 12.359-21.184 12.359-21.18 0-30.004-26.484-27.652-44.141 1.7656-13.535 10.59-21.188 21.77-24.719 1.7656 0 3.5312-0.58984 5.2969-0.58984 8.8242 0 15.887 5.8867 15.887 13.539 0 5.2969-1.7656 10.004-6.4727 12.949 0 0 16.473 12.359 17.062 11.77 25.301-17.656-17.062-50.617-41.773-50.617h-0.58984c-7.6484-14.711 5.8828-23.539 20.004-23.539 4.707 0 10.004 1.1758 13.535 3.5312v-29.43h43.539s-1.1758 3.5312-1.1758 5.8867l21.18 11.77c-1.1758-8.8281 8.8242-15.301 15.887-18.242h6.4727c7.0586 22.363-12.355 40.02-30.598 48.258-4.707-5.2969-14.707-13.535-22.945-13.535-2.9414 0-5.8828 1.1758-7.6484 4.1211-1.7656 2.9414 0 8.2383 2.3516 10.594 3.5312 4.707 23.535 15.301 31.184 15.301 8.8281 11.184 15.301 23.543 21.77 36.492 10.004 19.422 15.301 41.195 14.121 62.973-2.9414 38.844-35.891 76.512-77.664 76.512h-2.9414s19.418 11.184 21.18 11.77h8.2383c38.246 0 67.074-34.723 71.195-71.801 5.293-42.375-18.828-87.695-47.07-118.3 14.707-3.5312 32.949-15.891 38.242-31.191 5.2969-14.125 1.1797-22.363-8.8242-31.781h55.895l-20.594-11.77h-57.07s-5.2969-1.7656-8.2383-1.7656c-2.9414 0-5.8828 0-8.8242 1.7656h-138.27l17.062 12.359h45.895zm62.957 52.383-3.5273-2.3555s1.7617-1.1758 2.9414-1.1758c1.1758 0 2.3516 1.1758 4.1172 1.7656z" fill="#ffa31d"/>
 <g clip-path="url(#a)">
  <path d="m1090.2 986.77c-37.652 0-72.367 12.359-105.91 27.66v-440.23c0-100.05-79.43-181.86-178.87-185.98v-27.664s2.9414-4.707 2.9414-7.0625c0-2.3516-1.1758-5.2969-2.9414-7.0625v-1.1758c2.9414-2.3555 5.2969-5.8867 5.2969-10.008 0-3.5312-1.7656-6.4727-3.5312-8.8281 0-1.1758 1.1758-2.3516 1.1758-3.5312v-0.58594-1.1797c31.184 28.84 86.492 32.961 110.03 4.7109 0 0 0-0.58984 0.58984-1.1797 2.3516-2.9414 4.1172-6.4727 5.8828-10.594 0.58984-1.1758 1.1758-2.9414 1.1758-4.707 1.1758-2.9414 1.7656-6.4727 1.7656-9.418v-6.4727c0-3.5312 0-7.6523-0.58984-11.77 0-2.3555 0-4.7109-1.1758-7.0625-1.1758-6.4766-2.9414-13.539-5.8828-21.188-2.9414-7.0625-5.8828-14.715-9.4141-21.777-1.1758-2.3555-2.3555-4.7109-3.5312-7.0625-2.3516-5.2969-5.293-11.184-8.2383-16.48-2.9414-5.2969-5.293-11.184-8.2344-16.48l-5.2969-10.594c-2.3516-5.2969-4.707-10.004-7.0586-14.711-1.1797-2.3555-2.3555-5.2969-3.5312-7.6523-2.9414-6.4727-5.2969-12.359-7.0625-18.246 0-1.1758-0.58594-1.7656-1.1758-2.9414-2.3516-6.4766-3.5312-12.949-4.707-18.836v-6.4727c-1.1758-11.184 0-21.188 5.2969-28.84-32.363 50.027 12.941 124.18 27.652 175.39 6.4727 22.363 2.9414 36.488-5.2969 45.316-2.9414 3.5312-6.4688 5.8867-11.176 7.6523-1.1797 0-2.3555 1.1758-3.5312 1.7656-5.2969 1.7656-11.18 1.7656-17.062 1.1758-1.1797 0-2.9414-0.58984-4.1211-1.1758-4.707-1.1797-9.4141-2.9453-14.121-5.2969-1.7656-0.58984-2.9414-1.7656-4.707-2.9453-5.293-3.5312-10-7.6484-13.531-12.945-16.473-15.891 32.949-35.902 36.48-10.594 1.1758 9.4141-2.9414 18.832 2.9414 4.1172 5.8828-13.535 0-19.422-7.0625-22.363 9.4141-3.5312 14.121-7.0625 3.5312-10.594-58.836-28.84-55.309-129.48-60.602-167.15-5.2969 37.668-2.3555 137.72-60.605 167.15-10.59 3.5312-5.8828 7.0625 3.5312 10.594-6.4727 2.9414-12.355 8.8281-7.0586 22.363 5.8828 14.715 1.7656 5.2969 2.9414-4.1172 3.5312-25.309 52.953-5.2969 36.48 10.594-3.5312 5.2969-8.2383 9.4141-13.535 12.945-1.7656 1.1797-2.9414 1.7656-4.707 2.9453-4.707 2.3516-8.8242 4.1172-14.121 5.2969-1.1758 0-2.9414 0.58594-4.1172 1.1758-5.8828 0.58984-11.77 0-17.652-1.1758-1.1758 0-2.3516-1.1797-3.5312-1.7656-4.1172-1.7656-7.6484-4.1211-11.18-7.6523-7.6484-8.8281-11.766-22.953-5.293-45.316 14.707-51.207 60.016-125.36 27.652-175.39 5.2969 8.2422 6.4727 18.246 5.2969 28.84v6.4727c-1.1758 5.8867-2.3555 12.359-4.707 18.836 0 0.58594-0.58984 1.7656-1.1758 2.3516-2.3555 5.8867-4.707 12.363-7.0625 18.836-1.1758 2.3555-2.3516 5.2969-3.5312 7.6523-2.3516 4.707-4.707 10.004-7.0586 14.711-1.7656 3.5312-3.5312 7.0625-5.2969 10.594-2.9414 5.2969-5.293 11.184-8.2383 16.48-2.9414 5.8867-5.293 11.184-8.2344 17.066-1.1797 2.3555-2.3555 4.7109-3.5312 7.0625-3.5312 7.6523-6.4727 14.715-9.4141 21.777-2.9414 7.6523-4.707 14.715-5.8828 21.188 0 2.3555-0.58984 4.7109-1.1797 7.0625 0 4.1211-0.58594 7.6523-0.58594 11.773v6.4727c0 3.5312 1.1758 6.4727 1.7656 9.418 0 1.7656 0.58594 3.5312 1.7656 4.707 1.7617 3.5312 3.5273 7.0625 5.8828 10.004 0 0 0 0.58984 0.58594 1.1797 23.535 28.84 78.844 24.129 110.03-4.7109v1.1797 0.58594c0 1.1797 1.1797 2.3555 1.1797 3.5312-2.3555 2.3555-3.5312 5.2969-3.5312 8.8281 0 4.1211 2.3516 7.6523 5.293 10.008v1.1758s-2.9414 4.7109-2.9414 7.0625c0 2.3555 1.1797 5.2969 2.9414 7.0625v27.664c-99.434 4.707-178.87 85.926-178.87 185.98v67.684h-126.5c2.3555-4.1211 4.1211-8.8281 4.707-13.539 20.594-113-291.84-167.73-303.6-277.79-5.8828-51.203 34.125-88.871 79.43-88.871 11.77 0 24.125 2.3555 35.891 8.2383-20.004-12.945-41.184-25.895-65.898-25.895-48.836 0-88.844 46.496-77.078 100.05 14.121 62.973 92.965 107.7 166.51 147.14h-17.648s-3.5312-1.1797-5.8867-1.1797c-2.3516 0-5.293 0-7.6484 1.1797h-107.67l13.531 9.4141h35.891v13.539c-3.5273-1.1797-7.6484-1.7656-11.18-1.7656-15.297 0-24.121 11.77-7.0586 27.66-41.773 8.2422-4.707 72.98 30.008 72.98 7.6484 0 13.531-2.9414 18.238-9.418-2.3516-1.7656-9.4141-7.6484-13.531-9.4141-2.9414 5.8828-10.004 9.4141-16.477 9.4141-16.473 0-22.945-20.598-21.77-34.723 1.1758-10.594 8.2383-16.48 17.062-19.422h4.1211c7.0586 0 12.355 4.707 12.355 10.594 0 4.1211-1.7656 7.6523-4.707 10.004 0 0 12.945 10.008 12.945 9.418 20.004-13.535-13.535-39.434-32.949-39.434-6.4727-11.184 4.707-18.246 15.297-18.246 3.5312 0 7.6484 0.58984 10.59 2.9453v-22.953h34.125s-1.1758 2.9414-0.58594 4.707l16.473 9.418c-1.1758-8.2422 7.0625-13.539 13.535-13.539 6.4688 0 11.176 6.4766 0 21.188-5.2969 7.6523-16.477 15.305-25.891 17.66 0 0-14.711-8.832-16.473-10.008h-0.58984c-1.7656 0-0.58984 3.5312 0 4.7109 0.58984 4.1172 4.707 5.8828 8.2383 7.6484 21.18 57.68 52.953 78.867 98.258 88.871 7.0586 1.7656 14.121 2.3555 21.18 2.3555h6.4727c14.121-1.1758 41.777-9.418 39.422-28.84l-16.473-9.418c2.9414 17.656-21.77 26.484-35.305 28.25-4.707 0-9.4141 0.58984-13.531 0.58984-40.598 0-64.133-26.484-80.02-64.152-8.8242-20.598-2.3555-1.1758 22.945-20.008 5.2969-4.1211 10.004-8.832 12.355-15.305 2.9414-8.8281 0.58984-19.422-7.0586-25.309h18.238c68.84 37.082 128.27 71.215 117.68 114.18-2.9414 12.359-10 21.777-19.414 27.664h-426.57c8.8242 5.2969 22.355 12.945 30.004 17.066h23.535c-4.707 21.188 5.2969 44.141 9.4141 64.152-2.3516 0.58594-4.1172 1.7656-6.4688 2.3516-8.2383 3.5352-28.242 10.008-32.949 18.246-4.707 9.418-2.3555 29.43 7.6484 35.312 1.7656 1.1797 31.184 18.836 28.828 16.48 4.707 1.7656 8.8281 2.9414 13.535 2.9414 3.5273 0 6.4727 0 10-2.3516 19.418-8.2422 12.355-40.023 8.8281-56.5 6.4727-2.3555 14.707-6.4766 22.945-11.184v77.098l30.008 17.07v-164.21h23.535 64.723v24.133c-7.0625-2.3555-13.535-3.5312-20.008-3.5312-27.652 0-43.539 21.188-12.355 50.613-75.312 14.715-8.2344 131.84 53.543 131.84 14.121 0 24.711-5.2969 32.363-17.656-4.1211-3.5312-16.477-14.125-24.125-17.656-5.8828 10.594-17.652 17.066-30.008 17.066-30.008 0-41.773-37.078-38.832-62.387 2.3516-19.422 15.297-30.602 30.594-34.723 2.3555-0.58984 5.2969-1.1758 7.6484-1.1758 12.359 0 22.359 8.2383 22.359 18.832 0 7.0625-2.9414 14.125-8.8242 18.832 0 0 22.945 17.656 23.535 17.07 35.891-24.719-24.125-71.805-59.426-71.805h-1.1797c-11.176-20.598 8.8281-32.957 28.242-32.957 7.0625 0 14.121 1.7656 19.418 4.707v-41.785h32.949v147.14l30.008 17.066v-163.62h104.73c3.5312 1.7656 5.8828 3.5312 7.6484 4.7109v14.125c-5.8828-2.9453-14.121-4.1211-22.945-4.1211-6.4727 0-12.945 0.58984-18.242 2.3555-92.961 25.895-42.363 116.53 23.535 116.53 9.4141 0 19.418-1.7656 29.422-6.4727 37.066 22.953 64.719 61.207 59.426 107.11-4.1211 37.668-33.539 71.215-71.195 71.215h-5.293c-40.602-3.5312-109.44-76.512-192.99-81.809h-6.4727c-44.129 0-104.14 21.777-100.61 81.809 2.3516 38.258 45.305 55.914 78.844 55.914 34.715 0 61.191-24.133 70.605-57.68l-29.422-17.066c-5.293 18.832-16.473 36.488-33.535 47.082-11.77 7.0625-21.77 10.594-30.598 10.594-37.066 0-38.832-60.617 7.6484-87.105 18.828-10.594 37.656-15.301 55.898-15.301 54.719 0 105.91 39.434 157.1 65.328 18.828 10.008 37.066 14.715 53.539 14.715 65.898 0 100.61-75.336 59.43-138.31-16.477-24.719-43.543-42.375-69.43-57.09 11.766-5.8867 28.828-27.074 19.414-40.609-2.9414-2.9414-28.828-17.656-32.359-17.656-11.18 0-28.242 25.895-17.652 41.199-10 5.2969-18.828 7.6484-25.887 7.6484-34.715 0-35.305-52.969 21.18-78.863 7.0625-2.9453 16.477-5.2969 25.301-5.2969 8.8281 0 17.652 1.7656 23.535 5.8828v-37.664h107.09c0 30.016-30.008 39.43-51.777 52.379-57.66 35.902-5.2969 79.453 41.188 91.227 4.707 1.1758 9.4141 2.3516 14.707 2.3516 4.1211 0 7.6484-1.1758 11.18-1.7656v35.902c0 27.664-2.3516 54.734-2.3516 82.398 0 58.855 20.59 111.82 70.016 147.14 9.4141 7.0625 19.418 12.949 30.008 18.832 32.949 18.836 60.602 31.195 99.434 31.195 119.44 0 205.34-114.77 325.38-114.77 28.242 0 50.012 5.8867 74.137 19.426-37.07-21.777-58.25-36.492-103.55-36.492zm-1026.1-206.58c-2.3555-16.48 1.7656-22.363 15.887-29.426 0 12.359-2.3555 25.305-15.887 29.426zm64.133-104.76c-4.707-2.3555-8.2383-4.707-8.8242-4.707 11.18 18.242-7.0625 33.547-21.77 41.195-4.1211-16.477-6.4727-34.723 4.1172-49.438 0 0-2.9414-1.7656-6.4727-3.5312h32.949zm460.11 98.875c-6.4727 8.8281-18.828 13.539-29.422 13.539-12.355 0-24.711-6.4766-25.297-22.367-1.7656-35.902 41.184-34.137 63.543-61.797v30.605s-1.7656-0.58984-2.3555-1.1797c1.1797 1.7656 1.7656 4.7109 2.3555 7.6523v5.2969c0 10.008-4.707 22.367-9.4141 28.25zm177.1 327.23c-18.828 0-53.543-5.2969-70.02-14.715-22.945-13.535-45.891-46.492-55.895-70.035-10.59-25.309-14.121-50.027-14.121-77.102 0-24.719 2.3516-49.438 2.3516-74.746v-98.875-1.1758-10.008-95.344h60.605 6.4727c-5.2969-2.3555-23.535-12.949-29.422-17.066h-36.477v-67.684c0-93.582 75.898-170.09 170.04-170.09s169.45 76.512 169.45 170.09v448.47c-65.309 33.547-127.68 78.867-201.81 78.867z" fill="#ffa31d"/>
 </g>
</svg>
