<?xml version="1.0" encoding="UTF-8"?>
<svg width="1587" height="1587" version="1.0" viewBox="0 0 1190.2 1190.2" xmlns="http://www.w3.org/2000/svg" zoomAndPan="magnify">
 <defs>
  <clipPath id="b">
   <path d="m0 0h1189.5v1189.5h-1189.5z"/>
  </clipPath>
  <clipPath id="a">
   <path d="m19 35.57h1170v1134.4h-1170z"/>
  </clipPath>
 </defs>
 <g clip-path="url(#b)" fill="#fff">
  <path d="m0 0h1189.5v1189.5h-1189.5z"/>
  <path d="m0 0h1189.5v1189.5h-1189.5z"/>
 </g>
 <g clip-path="url(#a)">
  <path d="m184.98 318.59c-15.996 8.2109-31.559 16.422-48.418 24.629 10.375-15.121 21.613-29.379 33.285-43.207 11.672-13.828 24.211-27.223 36.746-40.184 6.4844-6.4844 12.969-12.531 19.453-19.012l2.5938-2.1641c0.86328-0.86328 1.7266-1.7266 2.5938-2.1602l5.6172-4.75c3.8906-3.0273 7.7812-6.4844 11.672-9.5078 16.426-11.234 33.719-21.605 53.172-28.949 4.7539-1.7305 9.5078-3.8906 14.266-5.1836l14.695-3.8906 7.3516-2.1602 7.7812-1.2969 15.129-2.5938c5.1875-0.42969 10.375-0.86328 15.562-1.293 5.1875-0.43359 10.375-0.86719 15.562-0.43359 10.371 0.43359 20.746 0.43359 31.121 2.1602 5.1875 0.86328 10.375 1.2969 15.562 2.5938l15.129 3.8867 7.7812 1.7305 7.3516 2.5898 14.695 5.1875c4.7578 2.1602 9.5117 4.3203 14.266 6.4805s9.5117 4.3203 13.832 7.3438c9.0781 5.6172 18.156 10.805 26.371 17.285l12.535 9.5078 11.672 10.801c7.7812 6.9141 14.266 15.121 21.184 22.902 1.7266 2.1602 3.457 3.8867 4.7539 6.0469l5.1875 7.3477c3.457 4.75 6.0508 9.9375 9.0781 15.121 2.5938 5.1875 5.1875 10.371 7.3477 15.125 2.1602 5.1836 4.3242 10.367 5.6211 15.555 12.969 41.48 13.398 83.395 5.1875 122.71-1.2969 4.75-2.1641 9.9375-3.4609 14.688-1.2969 4.7539-3.0234 9.5078-4.3203 14.262-1.2969 4.7539-3.4609 9.5039-5.1875 13.824-0.86719 2.1641-1.7305 4.7539-2.5938 6.9141l-3.0273 6.4844c-3.8906 8.6406-9.0781 17.715-14.266 25.922l-8.6445 12.102c-3.0273 3.8867-6.4844 7.7773-9.5117 11.664-3.457 3.8906-6.9141 7.3477-10.375 10.805-3.457 3.457-7.3477 6.4805-11.238 9.5039-3.8906 3.0273-7.7812 6.0508-12.102 8.6445-4.3242 2.5898-8.2148 5.1836-12.539 7.3438-16.859 9.0742-35.445 15.121-53.602 15.555 15.129-9.9375 28.098-21.605 38.906-34.566 10.805-12.965 19.453-26.789 25.938-41.051 6.4805-14.258 10.805-29.379 14.262-44.938l1.2969-5.6172c0.43359-2.1602 0.43359-3.8867 0.86719-6.0469 0.42969-3.8906 1.2969-7.7773 1.7266-11.668 0.43359-3.8867 0.86719-7.7773 1.2969-11.664 0-3.8906 0.43359-7.7773 0.43359-11.668 0.43359-30.68-4.3242-60.926-15.129-85.984-1.2969-3.457-3.0273-6.0508-4.3242-9.0742-1.2969-3.0273-3.0234-5.6172-4.7539-8.2109l-2.5938-3.8906c-0.86328-1.293-1.7305-2.5898-2.5938-3.4531l-2.5938-3.457c-1.2969-1.7305-2.5938-2.5938-3.8906-3.8906-5.1875-5.1836-9.5117-10.801-15.129-15.121-2.5938-2.1641-5.1875-4.7539-7.7812-7.3477l-8.6445-6.4805c-11.242-8.6406-23.777-15.555-36.746-22.039l-9.9414-3.8867-5.6211-0.86328-5.1875-1.7305-10.375-3.457c-3.457-0.86328-6.9141-1.7266-10.375-2.5898-6.9141-2.1602-14.262-2.5938-21.613-3.8906-3.457-0.43359-7.3477-0.43359-10.805-0.43359-3.4609 0-7.3516-0.86328-10.809-0.86328h-11.238-5.6211l-5.6172 0.86328-11.242 0.86719c-3.8906 0.42969-7.3477 1.2969-11.238 2.1602-7.3477 1.2969-14.699 3.457-22.047 5.1836-3.8906 0.86328-7.3477 2.1602-10.805 3.457-3.4609 1.2969-7.3516 2.5938-10.809 3.8906l-10.809 5.1836-7.7812 3.8906-3.0234 1.293-23.344 12.531zm1002.5 346.11-1.2969-23.332v-4.3203l-0.43359-3.0273-0.86328-6.0469c-0.43359-3.8906-1.2969-8.2109-2.1641-12.098-2.5938-15.988-6.9141-31.113-11.238-46.234-9.0781-30.246-20.75-60.492-36.742-89.012-15.996-28.52-35.879-55.738-60.52-78.641-12.535-11.668-25.938-22.035-40.637-31.109-3.457-2.5938-7.3477-4.3203-11.238-6.4805-3.8906-2.1641-7.7812-4.3242-11.238-6.0508l-10.809-5.1836c-1.7266-0.86719-4.3203-2.1641-6.4844-3.0273-2.1602-0.86328-4.3203-1.7266-6.4844-2.5898-16.426-6.0508-32.852-10.371-49.711-12.965s-34.148-3.457-51.441-2.5938c-34.148 1.7305-67.867 12.531-96.832 30.246-0.42969 0.43359-0.86328 0.43359-1.2969 0.43359-1.2969 0.86328-3.0234 1.2969-4.3203 2.1602-2.5938 1.2969-5.1875 3.0234-7.7812 4.3203s-4.7539 3.0273-6.918 4.7539c-2.1602 1.7305-4.3203 3.0234-6.4844 4.7539-8.2109 6.4805-15.562 13.395-22.91 20.738-13.832 14.262-25.938 29.383-36.312 45.371s-19.883 31.973-28.098 48.824c-2.1602 4.3242-4.3203 8.2109-6.0508 12.531l-5.6211 12.102-10.805 23.762c-7.3516 15.559-14.699 31.543-22.48 46.668-1.7266 3.8867-3.8906 7.3438-5.1875 9.5039l0.43359-0.42969-0.43359 0.42969-0.86328 0.86719-1.7305 2.1602c-1.2969 1.2969-2.5938 3.0234-3.8906 4.3203-5.1875 5.6172-11.238 10.801-17.723 15.555-12.535 9.0742-26.801 15.555-42.363 17.715-7.7812 0.86328-15.562 0.86328-23.773-0.42969-7.7812-1.2969-15.996-3.457-23.777-6.9141l-0.43359-0.43359c-3.457-0.86328-7.3477-2.5938-10.805-3.8867-3.8906-1.7305-7.3477-3.457-10.809-5.1875-3.457-1.7266-6.9141-3.8867-10.375-6.0469-3.457-2.1602-6.4844-4.7539-9.9414-7.3477 4.7539 6.4805 10.375 12.965 16.859 18.148 3.0273 2.5938 6.4844 5.1836 9.9414 7.7773s6.918 4.7539 10.809 6.9141l-0.43359-0.43359c15.129 10.805 33.719 17.719 53.602 19.012 19.887 0.86719 39.77-3.8867 57.496-12.961 8.6445-4.3203 17.289-9.5078 25.07-15.555 2.1602-1.2969 3.8906-3.0273 5.6211-4.7539l3.0234-2.5938 1.2969-1.2969 0.86719-0.86328 1.2969-1.2969c3.8906-4.75 6.4844-8.6406 9.5078-12.527 10.809-15.125 20.32-29.816 29.828-44.938l14.266-22.469 6.918-11.234c2.1602-3.8906 4.3203-6.9141 6.9141-10.371 9.0781-13.828 19.02-27.223 29.395-39.754s21.184-24.195 32.855-34.133c5.6172-4.7539 11.672-9.5078 17.723-13.395 1.2969-0.86719 3.0273-1.7305 4.3242-2.5938s3.0234-1.7305 4.3203-2.1602c1.2969-0.86328 2.5938-1.2969 3.8906-1.7305 0.86719-0.42969 0.86719-0.42969 1.7305-0.42969h0.43359l6.0508-2.5938c21.18-10.801 43.66-15.555 67.004-15.555 11.672 0 23.344 1.7266 35.016 3.8867 11.668 2.5938 23.34 6.4844 33.715 10.805 1.2969 0.42969 2.5938 1.2969 3.8906 1.7266 1.2969 0.86328 1.7305 0.86328 3.4609 1.7305l8.6445 4.3203c3.0273 1.2969 5.1875 3.0234 7.7812 4.7539 2.5938 1.7266 5.1875 3.0234 7.3477 4.75 9.9414 6.4844 18.59 14.262 27.234 22.902 17.289 16.852 31.555 37.16 43.227 59.629 12.105 22.469 21.613 46.664 28.531 72.16 3.457 12.527 6.4844 25.492 9.0781 38.023 0.43359 3.0234 1.2969 6.4805 1.7305 9.5039l0.86328 4.7539 0.43359 3.457 1.2969 20.309c1.7266 27.223 1.7266 54.875 0.42969 81.664-0.42969 13.395-1.7266 26.789-3.457 39.754-0.86328 6.4805-1.7305 12.961-3.0273 19.012-0.42969 3.0234-1.2969 6.0469-1.7266 9.0742l-1.7305 6.9141-0.86328 3.8867c-5.6211 25.492-14.266 50.125-26.371 72.59-12.102 22.469-27.664 42.348-46.684 59.199-19.453 17.281-39.77 29.812-63.98 37.16-23.34 7.3438-49.277 9.5039-73.918 5.1836-6.0508-0.86328-12.105-3.0234-18.59-4.3203-3.0234-0.43359-6.0508-2.1602-9.0781-3.0234-3.0234-1.2969-6.0508-2.1602-9.0781-3.457l-8.6445-4.3203c-1.2969-0.86719-3.0234-1.2969-4.3203-2.1641l-4.3242-2.5898-8.6445-4.7539-8.2148-5.6172c-21.613-15.125-41.066-35.863-56.195-58.766-2.1641-3.0234-3.8906-5.6172-5.6211-8.6406-0.86328-1.2969-1.7305-3.0234-2.5938-4.3203-0.43359-0.86328-0.86328-1.7305-0.86328-1.7305-0.43359-0.42969-0.86719-1.7266-0.86719-2.1602-2.5938-6.4805-5.6172-12.961-7.7773-19.875-2.5938-6.9141-5.1875-13.395-6.918-20.309-0.86328-3.457-2.1602-6.9141-3.0273-10.371l-2.5938-10.367c-3.0234-13.828-5.1875-28.086-5.1875-42.777 0-7.3477 0.86719-14.262 2.1641-21.605 1.7266-6.9141 3.8906-14.258 8.2109-20.309-5.6172 5.1836-9.9414 11.668-12.969 18.578-3.0234 6.9141-5.6172 14.262-7.3477 22.039-3.457 15.121-3.8906 30.68-3.457 46.234l0.86328 11.664c0.43359 3.8906 0.86328 7.7773 1.2969 11.668 0.86328 7.7773 2.1602 15.121 3.457 22.902 1.2969 7.7773 3.4609 15.121 5.1875 22.898 0.43359 0.86328 0.43359 1.7305 0.86719 3.0234l1.2969 3.457c0.86328 2.1602 1.2969 3.8906 2.1602 5.6172 1.7305 3.8906 3.0273 7.3477 4.7539 11.234 6.4844 14.691 14.699 28.52 24.207 41.48 9.0781 13.395 20.32 25.496 32.422 36.73l9.5117 8.207 9.9414 7.7773 5.1875 3.8906c1.7305 1.2969 3.457 2.1602 5.1875 3.457l10.809 6.4805c3.8906 2.1602 7.3477 3.8906 11.238 5.6172 3.8906 1.7305 7.7812 3.8906 11.672 5.1875 8.2109 3.0234 15.992 6.4805 24.207 8.6406 33.285 9.5039 69.164 9.9375 103.32 3.0234 17.289-3.457 33.715-9.5039 49.711-17.281 15.992-7.7812 30.258-16.852 44.094-27.223 27.23-20.742 50.145-47.098 68.297-76.051 17.293-28.086 29.398-58.762 38.043-89.871l1.2969-3.457 0.86328-3.457c0.86328-2.1602 1.2969-4.3203 1.7305-6.4844 0.86328-4.3203 2.1602-8.207 3.0234-12.098 1.7305-7.7773 3.0273-15.988 4.3242-23.766 2.5938-15.555 4.3242-31.109 5.1875-46.664 0.86328-29.816 0.43359-60.492-0.86328-91.172zm-371.76-238.95c0-0.43359 0.43359-0.43359 0 0v0h-0.43359zm-172.91 348.7c-5.6172-12.098-12.102-24.195-18.586-35.43-6.918-11.234-14.266-22.035-21.613-33.27 2.5938 12.961 6.4844 25.492 9.5078 38.023 3.0273 12.531 5.6211 25.059 7.7812 37.59 3.8906 25.062 6.4844 50.125 5.1875 74.32-0.86328 24.195-4.7539 47.961-11.672 69.566-3.457 10.801-7.7812 21.605-12.535 31.543-5.1875 9.9375-10.805 19.445-17.289 28.086-3.0273 4.3203-6.4844 8.6406-9.9453 12.098-1.7266 1.7305-3.457 3.457-4.3203 4.3203l-6.918 6.0508c-9.0781 8.6406-18.156 15.988-27.234 22.902-18.586 13.824-38.039 25.926-58.355 34.133-20.32 8.6406-41.5 14.691-63.113 17.285-21.613 3.0234-43.66 2.5898-65.707 0-10.809-1.2969-22.047-3.457-32.855-6.0508-10.805-2.5938-21.613-6.4805-31.988-10.371-10.375-3.8867-21.18-8.6406-30.691-13.395-2.1602-1.293-4.7539-2.5898-6.4844-3.457-0.86328-0.42969-2.1602-1.293-3.457-2.1602l-3.8906-2.5898c-4.7539-3.457-10.375-6.4844-15.129-9.5078-19.453-12.961-37.176-28.086-54.035-44.504l-6.4844-6.0508-6.0508-6.4805c-3.8906-4.3203-7.7812-8.6406-11.672-13.395-7.7812-9.0742-14.699-18.148-21.617-28.086-27.23-38.891-47.551-83.824-61.383-131.79-13.832-47.961-22.047-98.516-24.207-151.23-8.6445 25.062-13.402 51.418-16.426 77.777-2.5938 26.789-3.0273 53.578-1.2969 80.801 4.3203 54.012 18.586 108.89 44.957 159.01 25.938 50.121 63.977 95.059 109.37 129.63 5.6172 4.3203 11.238 8.207 16.859 12.527l4.3203 3.0273c1.2969 0.86328 2.5938 2.1602 4.7578 3.457 3.8906 2.1602 6.9141 4.3203 10.371 6.0469 12.969 7.7773 26.371 13.828 39.773 19.445 27.23 11.234 55.762 18.578 85.156 22.902 29.395 3.457 59.656 3.8867 89.484-1.2969 29.824-5.1875 58.789-14.262 85.59-27.656 26.371-13.395 51.008-30.246 72.191-49.688 10.375-9.9414 20.75-19.879 29.828-30.246l6.9141-7.7773c3.4609-3.8906 5.6211-6.9141 8.2148-10.371 4.7539-6.4805 8.6445-12.965 12.535-19.879 29.395-53.145 35.879-114.07 26.371-168.95-4.3242-26.359-12.969-52.285-24.211-76.914zm-77.809-593.26c10.375 23.766 25.07 45.367 43.227 64.379 18.156 19.012 40.203 35 65.707 46.234 3.0273 1.2969 6.4844 2.5938 9.5117 3.8906l9.0781 3.0234c6.0508 2.1602 12.535 3.8906 18.586 5.6172 12.539 3.0234 25.504 5.6172 38.043 6.4805 25.504 2.1602 51.441 0.86328 76.082-4.3203 24.637-5.1836 47.98-13.828 69.594-25.492 10.809-6.0508 21.184-12.531 30.695-19.879 9.5078-7.3438 18.586-15.555 26.367-24.629-23.773 4.7539-45.82 8.6445-67.867 10.805-10.809 1.2969-22.047 2.1602-32.422 2.5898-10.809 0.43359-21.18 0.43359-31.988 0-10.375-0.42969-20.75-0.86328-30.691-2.1602-9.9414-0.86328-19.887-2.5898-29.828-4.75-9.9414-1.7305-19.453-4.7539-28.961-7.3477-4.7578-1.7266-9.5117-3.0234-14.266-4.7539l-6.918-2.5898-6.0508-2.5938c-33.285-14.691-63.977-40.617-88.617-72.59-12.105-15.988-23.344-33.703-31.988-53.148-4.3242-9.9375-8.2148-19.875-11.672-30.68-3.4609-10.801-5.6211-22.035-8.6484-33.703-10.805 21.605-15.559 46.668-14.695 71.727 1.2969 25.062 7.3477 50.125 17.723 73.891zm189.34 10.367c31.555 0 57.059-25.492 57.059-57.035s-25.504-57.035-57.059-57.035c-31.559 0-57.062 25.492-57.062 57.035s25.504 57.035 57.062 57.035z" fill="#ed1c24"/>
 </g>
</svg>
